<?xml version="1.0" encoding="UTF-8" standalone="no"?>
<svg
   width="71.249992mm"
   height="79.249992mm"
   id="svg2"
   version="1.1"
   inkscape:version="1.1 (c68e22c387, 2021-05-23)"
   sodipodi:docname="xHain_xroots_65mm.svg"
   inkscape:export-filename="./xHain_logo3_rev2_large.png"
   inkscape:export-xdpi="1368.9301"
   inkscape:export-ydpi="1368.9301"
   xmlns:inkscape="http://www.inkscape.org/namespaces/inkscape"
   xmlns:sodipodi="http://sodipodi.sourceforge.net/DTD/sodipodi-0.dtd"
   xmlns:xlink="http://www.w3.org/1999/xlink"
   xmlns="http://www.w3.org/2000/svg"
   xmlns:svg="http://www.w3.org/2000/svg"
   xmlns:rdf="http://www.w3.org/1999/02/22-rdf-syntax-ns#"
   xmlns:cc="http://creativecommons.org/ns#"
   xmlns:dc="http://purl.org/dc/elements/1.1/">
  <sodipodi:namedview
     id="base"
     pagecolor="#ffffff"
     bordercolor="#666666"
     borderopacity="1.0"
     inkscape:pageopacity="0.0"
     inkscape:pageshadow="2"
     inkscape:zoom="2.4187801"
     inkscape:cx="76.278121"
     inkscape:cy="107.69892"
     inkscape:document-units="mm"
     inkscape:current-layer="layer1"
     showgrid="false"
     inkscape:window-width="1920"
     inkscape:window-height="1137"
     inkscape:window-x="1912"
     inkscape:window-y="-8"
     inkscape:window-maximized="1"
     showguides="true"
     inkscape:guide-bbox="true"
     units="mm"
     inkscape:document-rotation="0"
     inkscape:pagecheckerboard="0">
    <inkscape:grid
       type="xygrid"
       id="grid2985"
       empspacing="5"
       visible="true"
       enabled="true"
       snapvisiblegridlinesonly="true" />
  </sodipodi:namedview>
  <defs
     id="defs4">
    <marker
       inkscape:stockid="DotS"
       orient="auto"
       refY="0"
       refX="0"
       id="DotS"
       style="overflow:visible">
      <path
         id="path3828"
         d="m -2.5,-1 c 0,2.76 -2.24,5 -5,5 -2.76,0 -5,-2.24 -5,-5 0,-2.76 2.24,-5 5,-5 2.76,0 5,2.24 5,5 z"
         style="fill-rule:evenodd;stroke:#000000;stroke-width:1pt"
         transform="matrix(0.2,0,0,0.2,1.48,0.2)"
         inkscape:connector-curvature="0" />
    </marker>
    <marker
       inkscape:stockid="DotS"
       orient="auto"
       refY="0"
       refX="0"
       id="DotS-1"
       style="overflow:visible">
      <path
         inkscape:connector-curvature="0"
         id="path3828-5"
         d="m -2.5,-1 c 0,2.76 -2.24,5 -5,5 -2.76,0 -5,-2.24 -5,-5 0,-2.76 2.24,-5 5,-5 2.76,0 5,2.24 5,5 z"
         style="fill-rule:evenodd;stroke:#000000;stroke-width:1pt"
         transform="matrix(0.2,0,0,0.2,1.48,0.2)" />
    </marker>
    <marker
       inkscape:stockid="DotS"
       orient="auto"
       refY="0"
       refX="0"
       id="marker4395"
       style="overflow:visible">
      <path
         inkscape:connector-curvature="0"
         id="path4397"
         d="m -2.5,-1 c 0,2.76 -2.24,5 -5,5 -2.76,0 -5,-2.24 -5,-5 0,-2.76 2.24,-5 5,-5 2.76,0 5,2.24 5,5 z"
         style="fill-rule:evenodd;stroke:#000000;stroke-width:1pt"
         transform="matrix(0.2,0,0,0.2,1.48,0.2)" />
    </marker>
    <marker
       inkscape:stockid="DotS"
       orient="auto"
       refY="0"
       refX="0"
       id="DotS-3"
       style="overflow:visible">
      <path
         inkscape:connector-curvature="0"
         id="path3828-0"
         d="m -2.5,-1 c 0,2.76 -2.24,5 -5,5 -2.76,0 -5,-2.24 -5,-5 0,-2.76 2.24,-5 5,-5 2.76,0 5,2.24 5,5 z"
         style="fill-rule:evenodd;stroke:#000000;stroke-width:1pt"
         transform="matrix(0.2,0,0,0.2,1.48,0.2)" />
    </marker>
    <marker
       inkscape:stockid="DotS"
       orient="auto"
       refY="0"
       refX="0"
       id="marker4427"
       style="overflow:visible">
      <path
         inkscape:connector-curvature="0"
         id="path4429"
         d="m -2.5,-1 c 0,2.76 -2.24,5 -5,5 -2.76,0 -5,-2.24 -5,-5 0,-2.76 2.24,-5 5,-5 2.76,0 5,2.24 5,5 z"
         style="fill-rule:evenodd;stroke:#000000;stroke-width:1pt"
         transform="matrix(0.2,0,0,0.2,1.48,0.2)" />
    </marker>
    <marker
       inkscape:stockid="DotS"
       orient="auto"
       refY="0"
       refX="0"
       id="DotS-2"
       style="overflow:visible">
      <path
         inkscape:connector-curvature="0"
         id="path3828-1"
         d="m -2.5,-1 c 0,2.76 -2.24,5 -5,5 -2.76,0 -5,-2.24 -5,-5 0,-2.76 2.24,-5 5,-5 2.76,0 5,2.24 5,5 z"
         style="fill-rule:evenodd;stroke:#000000;stroke-width:1pt"
         transform="matrix(0.2,0,0,0.2,1.48,0.2)" />
    </marker>
    <marker
       inkscape:stockid="DotS"
       orient="auto"
       refY="0"
       refX="0"
       id="marker4427-3"
       style="overflow:visible">
      <path
         inkscape:connector-curvature="0"
         id="path4429-9"
         d="m -2.5,-1 c 0,2.76 -2.24,5 -5,5 -2.76,0 -5,-2.24 -5,-5 0,-2.76 2.24,-5 5,-5 2.76,0 5,2.24 5,5 z"
         style="fill-rule:evenodd;stroke:#000000;stroke-width:1pt"
         transform="matrix(0.2,0,0,0.2,1.48,0.2)" />
    </marker>
    <marker
       inkscape:stockid="DotS"
       orient="auto"
       refY="0"
       refX="0"
       id="DotS-21"
       style="overflow:visible">
      <path
         inkscape:connector-curvature="0"
         id="path3828-6"
         d="m -2.5,-1 c 0,2.76 -2.24,5 -5,5 -2.76,0 -5,-2.24 -5,-5 0,-2.76 2.24,-5 5,-5 2.76,0 5,2.24 5,5 z"
         style="fill-rule:evenodd;stroke:#000000;stroke-width:1pt"
         transform="matrix(0.2,0,0,0.2,1.48,0.2)" />
    </marker>
    <marker
       inkscape:stockid="DotS"
       orient="auto"
       refY="0"
       refX="0"
       id="marker4474"
       style="overflow:visible">
      <path
         inkscape:connector-curvature="0"
         id="path4476"
         d="m -2.5,-1 c 0,2.76 -2.24,5 -5,5 -2.76,0 -5,-2.24 -5,-5 0,-2.76 2.24,-5 5,-5 2.76,0 5,2.24 5,5 z"
         style="fill-rule:evenodd;stroke:#000000;stroke-width:1pt"
         transform="matrix(0.2,0,0,0.2,1.48,0.2)" />
    </marker>
    <marker
       inkscape:stockid="DotS"
       orient="auto"
       refY="0"
       refX="0"
       id="DotS-36"
       style="overflow:visible">
      <path
         inkscape:connector-curvature="0"
         id="path3828-8"
         d="m -2.5,-1 c 0,2.76 -2.24,5 -5,5 -2.76,0 -5,-2.24 -5,-5 0,-2.76 2.24,-5 5,-5 2.76,0 5,2.24 5,5 z"
         style="fill-rule:evenodd;stroke:#000000;stroke-width:1pt"
         transform="matrix(0.2,0,0,0.2,1.48,0.2)" />
    </marker>
    <marker
       inkscape:stockid="DotS"
       orient="auto"
       refY="0"
       refX="0"
       id="marker4516"
       style="overflow:visible">
      <path
         inkscape:connector-curvature="0"
         id="path4518"
         d="m -2.5,-1 c 0,2.76 -2.24,5 -5,5 -2.76,0 -5,-2.24 -5,-5 0,-2.76 2.24,-5 5,-5 2.76,0 5,2.24 5,5 z"
         style="fill-rule:evenodd;stroke:#000000;stroke-width:1pt"
         transform="matrix(0.2,0,0,0.2,1.48,0.2)" />
    </marker>
    <marker
       inkscape:stockid="DotS"
       orient="auto"
       refY="0"
       refX="0"
       id="DotS-11"
       style="overflow:visible">
      <path
         inkscape:connector-curvature="0"
         id="path3828-58"
         d="m -2.5,-1 c 0,2.76 -2.24,5 -5,5 -2.76,0 -5,-2.24 -5,-5 0,-2.76 2.24,-5 5,-5 2.76,0 5,2.24 5,5 z"
         style="fill-rule:evenodd;stroke:#000000;stroke-width:1pt"
         transform="matrix(0.2,0,0,0.2,1.48,0.2)" />
    </marker>
    <marker
       inkscape:stockid="DotS"
       orient="auto"
       refY="0"
       refX="0"
       id="marker4954"
       style="overflow:visible">
      <path
         inkscape:connector-curvature="0"
         id="path4956"
         d="m -2.5,-1 c 0,2.76 -2.24,5 -5,5 -2.76,0 -5,-2.24 -5,-5 0,-2.76 2.24,-5 5,-5 2.76,0 5,2.24 5,5 z"
         style="fill-rule:evenodd;stroke:#000000;stroke-width:1pt"
         transform="matrix(0.2,0,0,0.2,1.48,0.2)" />
    </marker>
    <marker
       inkscape:stockid="DotS"
       orient="auto"
       refY="0"
       refX="0"
       id="DotS-7"
       style="overflow:visible">
      <path
         inkscape:connector-curvature="0"
         id="path3828-3"
         d="m -2.5,-1 c 0,2.76 -2.24,5 -5,5 -2.76,0 -5,-2.24 -5,-5 0,-2.76 2.24,-5 5,-5 2.76,0 5,2.24 5,5 z"
         style="fill-rule:evenodd;stroke:#000000;stroke-width:1pt"
         transform="matrix(0.2,0,0,0.2,1.48,0.2)" />
    </marker>
    <marker
       inkscape:stockid="DotS"
       orient="auto"
       refY="0"
       refX="0"
       id="marker5024"
       style="overflow:visible">
      <path
         inkscape:connector-curvature="0"
         id="path5026"
         d="m -2.5,-1 c 0,2.76 -2.24,5 -5,5 -2.76,0 -5,-2.24 -5,-5 0,-2.76 2.24,-5 5,-5 2.76,0 5,2.24 5,5 z"
         style="fill-rule:evenodd;stroke:#000000;stroke-width:1pt"
         transform="matrix(0.2,0,0,0.2,1.48,0.2)" />
    </marker>
    <marker
       inkscape:stockid="DotS"
       orient="auto"
       refY="0"
       refX="0"
       id="DotS-34"
       style="overflow:visible">
      <path
         inkscape:connector-curvature="0"
         id="path3828-16"
         d="m -2.5,-1 c 0,2.76 -2.24,5 -5,5 -2.76,0 -5,-2.24 -5,-5 0,-2.76 2.24,-5 5,-5 2.76,0 5,2.24 5,5 z"
         style="fill-rule:evenodd;stroke:#000000;stroke-width:1pt"
         transform="matrix(0.2,0,0,0.2,1.48,0.2)" />
    </marker>
    <marker
       inkscape:stockid="DotS"
       orient="auto"
       refY="0"
       refX="0"
       id="marker5056"
       style="overflow:visible">
      <path
         inkscape:connector-curvature="0"
         id="path5058"
         d="m -2.5,-1 c 0,2.76 -2.24,5 -5,5 -2.76,0 -5,-2.24 -5,-5 0,-2.76 2.24,-5 5,-5 2.76,0 5,2.24 5,5 z"
         style="fill-rule:evenodd;stroke:#000000;stroke-width:1pt"
         transform="matrix(0.2,0,0,0.2,1.48,0.2)" />
    </marker>
    <marker
       inkscape:stockid="DotS"
       orient="auto"
       refY="0"
       refX="0"
       id="marker4516-8"
       style="overflow:visible">
      <path
         inkscape:connector-curvature="0"
         id="path4518-5"
         d="m -2.5,-1 c 0,2.76 -2.24,5 -5,5 -2.76,0 -5,-2.24 -5,-5 0,-2.76 2.24,-5 5,-5 2.76,0 5,2.24 5,5 z"
         style="fill-rule:evenodd;stroke:#000000;stroke-width:1pt"
         transform="matrix(0.2,0,0,0.2,1.48,0.2)" />
    </marker>
    <marker
       inkscape:stockid="DotS"
       orient="auto"
       refY="0"
       refX="0"
       id="marker5088"
       style="overflow:visible">
      <path
         inkscape:connector-curvature="0"
         id="path5090"
         d="m -2.5,-1 c 0,2.76 -2.24,5 -5,5 -2.76,0 -5,-2.24 -5,-5 0,-2.76 2.24,-5 5,-5 2.76,0 5,2.24 5,5 z"
         style="fill-rule:evenodd;stroke:#000000;stroke-width:1pt"
         transform="matrix(0.2,0,0,0.2,1.48,0.2)" />
    </marker>
    <marker
       inkscape:stockid="DotS"
       orient="auto"
       refY="0"
       refX="0"
       id="marker4516-9"
       style="overflow:visible">
      <path
         inkscape:connector-curvature="0"
         id="path4518-55"
         d="m -2.5,-1 c 0,2.76 -2.24,5 -5,5 -2.76,0 -5,-2.24 -5,-5 0,-2.76 2.24,-5 5,-5 2.76,0 5,2.24 5,5 z"
         style="fill-rule:evenodd;stroke:#000000;stroke-width:1pt"
         transform="matrix(0.2,0,0,0.2,1.48,0.2)" />
    </marker>
    <marker
       inkscape:stockid="DotS"
       orient="auto"
       refY="0"
       refX="0"
       id="marker5137"
       style="overflow:visible">
      <path
         inkscape:connector-curvature="0"
         id="path5139"
         d="m -2.5,-1 c 0,2.76 -2.24,5 -5,5 -2.76,0 -5,-2.24 -5,-5 0,-2.76 2.24,-5 5,-5 2.76,0 5,2.24 5,5 z"
         style="fill-rule:evenodd;stroke:#000000;stroke-width:1pt"
         transform="matrix(0.2,0,0,0.2,1.48,0.2)" />
    </marker>
    <marker
       inkscape:stockid="DotS"
       orient="auto"
       refY="0"
       refX="0"
       id="DotS-0"
       style="overflow:visible">
      <path
         inkscape:connector-curvature="0"
         id="path3828-4"
         d="m -2.5,-1 c 0,2.76 -2.24,5 -5,5 -2.76,0 -5,-2.24 -5,-5 0,-2.76 2.24,-5 5,-5 2.76,0 5,2.24 5,5 z"
         style="fill-rule:evenodd;stroke:#000000;stroke-width:1pt"
         transform="matrix(0.2,0,0,0.2,1.48,0.2)" />
    </marker>
    <marker
       inkscape:stockid="DotS"
       orient="auto"
       refY="0"
       refX="0"
       id="marker5169"
       style="overflow:visible">
      <path
         inkscape:connector-curvature="0"
         id="path5171"
         d="m -2.5,-1 c 0,2.76 -2.24,5 -5,5 -2.76,0 -5,-2.24 -5,-5 0,-2.76 2.24,-5 5,-5 2.76,0 5,2.24 5,5 z"
         style="fill-rule:evenodd;stroke:#000000;stroke-width:1pt"
         transform="matrix(0.2,0,0,0.2,1.48,0.2)" />
    </marker>
    <marker
       inkscape:stockid="DotS"
       orient="auto"
       refY="0"
       refX="0"
       id="DotS-8"
       style="overflow:visible">
      <path
         inkscape:connector-curvature="0"
         id="path3828-66"
         d="m -2.5,-1 c 0,2.76 -2.24,5 -5,5 -2.76,0 -5,-2.24 -5,-5 0,-2.76 2.24,-5 5,-5 2.76,0 5,2.24 5,5 z"
         style="fill-rule:evenodd;stroke:#000000;stroke-width:1pt"
         transform="matrix(0.2,0,0,0.2,1.48,0.2)" />
    </marker>
    <marker
       inkscape:stockid="DotS"
       orient="auto"
       refY="0"
       refX="0"
       id="marker5218"
       style="overflow:visible">
      <path
         inkscape:connector-curvature="0"
         id="path5220"
         d="m -2.5,-1 c 0,2.76 -2.24,5 -5,5 -2.76,0 -5,-2.24 -5,-5 0,-2.76 2.24,-5 5,-5 2.76,0 5,2.24 5,5 z"
         style="fill-rule:evenodd;stroke:#000000;stroke-width:1pt"
         transform="matrix(0.2,0,0,0.2,1.48,0.2)" />
    </marker>
    <marker
       inkscape:stockid="DotSv"
       orient="auto"
       refY="0"
       refX="0"
       id="DotSv"
       style="overflow:visible">
      <path
         id="path5753"
         d="m -2.5,-1 c 0,2.76 -2.24,5 -5,5 -2.76,0 -5,-2.24 -5,-5 0,-2.76 2.24,-5 5,-5 2.76,0 5,2.24 5,5 z"
         style="fill:#858585;fill-rule:evenodd;stroke:#858585;stroke-width:1pt"
         transform="matrix(0.2,0,0,0.2,1.48,0.2)"
         inkscape:connector-curvature="0" />
    </marker>
    <marker
       inkscape:stockid="DotSs"
       orient="auto"
       refY="0"
       refX="0"
       id="DotSs"
       style="overflow:visible">
      <path
         id="path5756"
         d="m -2.5,-1 c 0,2.76 -2.24,5 -5,5 -2.76,0 -5,-2.24 -5,-5 0,-2.76 2.24,-5 5,-5 2.76,0 5,2.24 5,5 z"
         style="fill:#858585;fill-rule:evenodd;stroke:#858585;stroke-width:1pt"
         transform="matrix(0.2,0,0,0.2,1.48,0.2)"
         inkscape:connector-curvature="0" />
    </marker>
    <marker
       inkscape:stockid="DotSk"
       orient="auto"
       refY="0"
       refX="0"
       id="DotSk"
       style="overflow:visible">
      <path
         id="path5759"
         d="m -2.5,-1 c 0,2.76 -2.24,5 -5,5 -2.76,0 -5,-2.24 -5,-5 0,-2.76 2.24,-5 5,-5 2.76,0 5,2.24 5,5 z"
         style="fill:#858585;fill-rule:evenodd;stroke:#858585;stroke-width:1pt"
         transform="matrix(0.2,0,0,0.2,1.48,0.2)"
         inkscape:connector-curvature="0" />
    </marker>
    <marker
       inkscape:stockid="DotSK"
       orient="auto"
       refY="0"
       refX="0"
       id="DotSK"
       style="overflow:visible">
      <path
         id="path5762"
         d="m -2.5,-1 c 0,2.76 -2.24,5 -5,5 -2.76,0 -5,-2.24 -5,-5 0,-2.76 2.24,-5 5,-5 2.76,0 5,2.24 5,5 z"
         style="fill:#858585;fill-rule:evenodd;stroke:#858585;stroke-width:1pt"
         transform="matrix(0.2,0,0,0.2,1.48,0.2)"
         inkscape:connector-curvature="0" />
    </marker>
    <marker
       inkscape:stockid="DotSQ"
       orient="auto"
       refY="0"
       refX="0"
       id="DotSQ"
       style="overflow:visible">
      <path
         id="path5765"
         d="m -2.5,-1 c 0,2.76 -2.24,5 -5,5 -2.76,0 -5,-2.24 -5,-5 0,-2.76 2.24,-5 5,-5 2.76,0 5,2.24 5,5 z"
         style="fill:#858585;fill-rule:evenodd;stroke:#858585;stroke-width:1pt"
         transform="matrix(0.2,0,0,0.2,1.48,0.2)"
         inkscape:connector-curvature="0" />
    </marker>
    <marker
       inkscape:stockid="DotSg"
       orient="auto"
       refY="0"
       refX="0"
       id="DotSg"
       style="overflow:visible">
      <path
         id="path5768"
         d="m -2.5,-1 c 0,2.76 -2.24,5 -5,5 -2.76,0 -5,-2.24 -5,-5 0,-2.76 2.24,-5 5,-5 2.76,0 5,2.24 5,5 z"
         style="fill:#858585;fill-rule:evenodd;stroke:#858585;stroke-width:1pt"
         transform="matrix(0.2,0,0,0.2,1.48,0.2)"
         inkscape:connector-curvature="0" />
    </marker>
    <marker
       inkscape:stockid="marker4516J"
       orient="auto"
       refY="0"
       refX="0"
       id="marker4516J"
       style="overflow:visible">
      <path
         inkscape:connector-curvature="0"
         id="path5771"
         d="m -2.5,-1 c 0,2.76 -2.24,5 -5,5 -2.76,0 -5,-2.24 -5,-5 0,-2.76 2.24,-5 5,-5 2.76,0 5,2.24 5,5 z"
         style="fill:#858585;fill-rule:evenodd;stroke:#858585;stroke-width:1pt"
         transform="matrix(0.2,0,0,0.2,1.48,0.2)" />
    </marker>
    <marker
       inkscape:stockid="marker4516P"
       orient="auto"
       refY="0"
       refX="0"
       id="marker4516P"
       style="overflow:visible">
      <path
         inkscape:connector-curvature="0"
         id="path5774"
         d="m -2.5,-1 c 0,2.76 -2.24,5 -5,5 -2.76,0 -5,-2.24 -5,-5 0,-2.76 2.24,-5 5,-5 2.76,0 5,2.24 5,5 z"
         style="fill:#858585;fill-rule:evenodd;stroke:#858585;stroke-width:1pt"
         transform="matrix(0.2,0,0,0.2,1.48,0.2)" />
    </marker>
    <marker
       inkscape:stockid="DotSC"
       orient="auto"
       refY="0"
       refX="0"
       id="DotSC"
       style="overflow:visible">
      <path
         id="path5777"
         d="m -2.5,-1 c 0,2.76 -2.24,5 -5,5 -2.76,0 -5,-2.24 -5,-5 0,-2.76 2.24,-5 5,-5 2.76,0 5,2.24 5,5 z"
         style="fill:#858585;fill-rule:evenodd;stroke:#858585;stroke-width:1pt"
         transform="matrix(0.2,0,0,0.2,1.48,0.2)"
         inkscape:connector-curvature="0" />
    </marker>
    <marker
       inkscape:stockid="DotSL"
       orient="auto"
       refY="0"
       refX="0"
       id="DotSL"
       style="overflow:visible">
      <path
         id="path5780"
         d="m -2.5,-1 c 0,2.76 -2.24,5 -5,5 -2.76,0 -5,-2.24 -5,-5 0,-2.76 2.24,-5 5,-5 2.76,0 5,2.24 5,5 z"
         style="fill:#858585;fill-rule:evenodd;stroke:#858585;stroke-width:1pt"
         transform="matrix(0.2,0,0,0.2,1.48,0.2)"
         inkscape:connector-curvature="0" />
    </marker>
    <marker
       inkscape:stockid="DotSf"
       orient="auto"
       refY="0"
       refX="0"
       id="DotSf"
       style="overflow:visible">
      <path
         id="path5783"
         d="m -2.5,-1 c 0,2.76 -2.24,5 -5,5 -2.76,0 -5,-2.24 -5,-5 0,-2.76 2.24,-5 5,-5 2.76,0 5,2.24 5,5 z"
         style="fill:#858585;fill-rule:evenodd;stroke:#858585;stroke-width:1pt"
         transform="matrix(0.2,0,0,0.2,1.48,0.2)"
         inkscape:connector-curvature="0" />
    </marker>
    <marker
       inkscape:stockid="DotS7"
       orient="auto"
       refY="0"
       refX="0"
       id="DotS7"
       style="overflow:visible">
      <path
         id="path5786"
         d="m -2.5,-1 c 0,2.76 -2.24,5 -5,5 -2.76,0 -5,-2.24 -5,-5 0,-2.76 2.24,-5 5,-5 2.76,0 5,2.24 5,5 z"
         style="fill:#858585;fill-rule:evenodd;stroke:#858585;stroke-width:1pt"
         transform="matrix(0.2,0,0,0.2,1.48,0.2)"
         inkscape:connector-curvature="0" />
    </marker>
    <marker
       inkscape:stockid="DotSS"
       orient="auto"
       refY="0"
       refX="0"
       id="DotSS"
       style="overflow:visible">
      <path
         id="path5789"
         d="m -2.5,-1 c 0,2.76 -2.24,5 -5,5 -2.76,0 -5,-2.24 -5,-5 0,-2.76 2.24,-5 5,-5 2.76,0 5,2.24 5,5 z"
         style="fill:#858585;fill-rule:evenodd;stroke:#858585;stroke-width:1pt"
         transform="matrix(0.2,0,0,0.2,1.48,0.2)"
         inkscape:connector-curvature="0" />
    </marker>
    <marker
       inkscape:stockid="DotSy"
       orient="auto"
       refY="0"
       refX="0"
       id="DotSy"
       style="overflow:visible">
      <path
         id="path5792"
         d="m -2.5,-1 c 0,2.76 -2.24,5 -5,5 -2.76,0 -5,-2.24 -5,-5 0,-2.76 2.24,-5 5,-5 2.76,0 5,2.24 5,5 z"
         style="fill:#858585;fill-rule:evenodd;stroke:#858585;stroke-width:1pt"
         transform="matrix(0.2,0,0,0.2,1.48,0.2)"
         inkscape:connector-curvature="0" />
    </marker>
    <marker
       inkscape:stockid="marker4516C"
       orient="auto"
       refY="0"
       refX="0"
       id="marker4516C"
       style="overflow:visible">
      <path
         inkscape:connector-curvature="0"
         id="path5795"
         d="m -2.5,-1 c 0,2.76 -2.24,5 -5,5 -2.76,0 -5,-2.24 -5,-5 0,-2.76 2.24,-5 5,-5 2.76,0 5,2.24 5,5 z"
         style="fill:#858585;fill-rule:evenodd;stroke:#858585;stroke-width:1pt"
         transform="matrix(0.2,0,0,0.2,1.48,0.2)" />
    </marker>
    <marker
       inkscape:stockid="marker45162"
       orient="auto"
       refY="0"
       refX="0"
       id="marker45162"
       style="overflow:visible">
      <path
         inkscape:connector-curvature="0"
         id="path5798"
         d="m -2.5,-1 c 0,2.76 -2.24,5 -5,5 -2.76,0 -5,-2.24 -5,-5 0,-2.76 2.24,-5 5,-5 2.76,0 5,2.24 5,5 z"
         style="fill:#858585;fill-rule:evenodd;stroke:#858585;stroke-width:1pt"
         transform="matrix(0.2,0,0,0.2,1.48,0.2)" />
    </marker>
    <marker
       inkscape:stockid="DotSG"
       orient="auto"
       refY="0"
       refX="0"
       id="DotSG"
       style="overflow:visible">
      <path
         id="path5801"
         d="m -2.5,-1 c 0,2.76 -2.24,5 -5,5 -2.76,0 -5,-2.24 -5,-5 0,-2.76 2.24,-5 5,-5 2.76,0 5,2.24 5,5 z"
         style="fill:#858585;fill-rule:evenodd;stroke:#858585;stroke-width:1pt"
         transform="matrix(0.2,0,0,0.2,1.48,0.2)"
         inkscape:connector-curvature="0" />
    </marker>
    <marker
       inkscape:stockid="DotS5"
       orient="auto"
       refY="0"
       refX="0"
       id="DotS5"
       style="overflow:visible">
      <path
         id="path5804"
         d="m -2.5,-1 c 0,2.76 -2.24,5 -5,5 -2.76,0 -5,-2.24 -5,-5 0,-2.76 2.24,-5 5,-5 2.76,0 5,2.24 5,5 z"
         style="fill:#858585;fill-rule:evenodd;stroke:#858585;stroke-width:1pt"
         transform="matrix(0.2,0,0,0.2,1.48,0.2)"
         inkscape:connector-curvature="0" />
    </marker>
    <marker
       inkscape:stockid="DotSsA"
       orient="auto"
       refY="0"
       refX="0"
       id="DotSsA"
       style="overflow:visible">
      <path
         id="path5807"
         d="m -2.5,-1 c 0,2.76 -2.24,5 -5,5 -2.76,0 -5,-2.24 -5,-5 0,-2.76 2.24,-5 5,-5 2.76,0 5,2.24 5,5 z"
         style="fill:#858585;fill-rule:evenodd;stroke:#858585;stroke-width:1pt"
         transform="matrix(0.2,0,0,0.2,1.48,0.2)"
         inkscape:connector-curvature="0" />
    </marker>
    <marker
       inkscape:stockid="DotSLd"
       orient="auto"
       refY="0"
       refX="0"
       id="DotSLd"
       style="overflow:visible">
      <path
         id="path5810"
         d="m -2.5,-1 c 0,2.76 -2.24,5 -5,5 -2.76,0 -5,-2.24 -5,-5 0,-2.76 2.24,-5 5,-5 2.76,0 5,2.24 5,5 z"
         style="fill:#858585;fill-rule:evenodd;stroke:#858585;stroke-width:1pt"
         transform="matrix(0.2,0,0,0.2,1.48,0.2)"
         inkscape:connector-curvature="0" />
    </marker>
    <marker
       inkscape:stockid="DotSd"
       orient="auto"
       refY="0"
       refX="0"
       id="DotSd"
       style="overflow:visible">
      <path
         id="path5813"
         d="m -2.5,-1 c 0,2.76 -2.24,5 -5,5 -2.76,0 -5,-2.24 -5,-5 0,-2.76 2.24,-5 5,-5 2.76,0 5,2.24 5,5 z"
         style="fill:#858585;fill-rule:evenodd;stroke:#858585;stroke-width:1pt"
         transform="matrix(0.2,0,0,0.2,1.48,0.2)"
         inkscape:connector-curvature="0" />
    </marker>
    <marker
       inkscape:stockid="DotSyI"
       orient="auto"
       refY="0"
       refX="0"
       id="DotSyI"
       style="overflow:visible">
      <path
         id="path5816"
         d="m -2.5,-1 c 0,2.76 -2.24,5 -5,5 -2.76,0 -5,-2.24 -5,-5 0,-2.76 2.24,-5 5,-5 2.76,0 5,2.24 5,5 z"
         style="fill:#858585;fill-rule:evenodd;stroke:#858585;stroke-width:1pt"
         transform="matrix(0.2,0,0,0.2,1.48,0.2)"
         inkscape:connector-curvature="0" />
    </marker>
    <marker
       inkscape:stockid="marker4516y"
       orient="auto"
       refY="0"
       refX="0"
       id="marker4516y"
       style="overflow:visible">
      <path
         inkscape:connector-curvature="0"
         id="path5819"
         d="m -2.5,-1 c 0,2.76 -2.24,5 -5,5 -2.76,0 -5,-2.24 -5,-5 0,-2.76 2.24,-5 5,-5 2.76,0 5,2.24 5,5 z"
         style="fill:#858585;fill-rule:evenodd;stroke:#858585;stroke-width:1pt"
         transform="matrix(0.2,0,0,0.2,1.48,0.2)" />
    </marker>
    <marker
       inkscape:stockid="marker4516I"
       orient="auto"
       refY="0"
       refX="0"
       id="marker4516I"
       style="overflow:visible">
      <path
         inkscape:connector-curvature="0"
         id="path5822"
         d="m -2.5,-1 c 0,2.76 -2.24,5 -5,5 -2.76,0 -5,-2.24 -5,-5 0,-2.76 2.24,-5 5,-5 2.76,0 5,2.24 5,5 z"
         style="fill:#858585;fill-rule:evenodd;stroke:#858585;stroke-width:1pt"
         transform="matrix(0.2,0,0,0.2,1.48,0.2)" />
    </marker>
    <marker
       inkscape:stockid="marker5218b"
       orient="auto"
       refY="0"
       refX="0"
       id="marker5218b"
       style="overflow:visible">
      <path
         inkscape:connector-curvature="0"
         id="path5825"
         d="m -2.5,-1 c 0,2.76 -2.24,5 -5,5 -2.76,0 -5,-2.24 -5,-5 0,-2.76 2.24,-5 5,-5 2.76,0 5,2.24 5,5 z"
         style="fill:#858585;fill-rule:evenodd;stroke:#858585;stroke-width:1pt"
         transform="matrix(0.2,0,0,0.2,1.48,0.2)" />
    </marker>
    <marker
       inkscape:stockid="marker5218X"
       orient="auto"
       refY="0"
       refX="0"
       id="marker5218X"
       style="overflow:visible">
      <path
         inkscape:connector-curvature="0"
         id="path5828"
         d="m -2.5,-1 c 0,2.76 -2.24,5 -5,5 -2.76,0 -5,-2.24 -5,-5 0,-2.76 2.24,-5 5,-5 2.76,0 5,2.24 5,5 z"
         style="fill:#858585;fill-rule:evenodd;stroke:#858585;stroke-width:1pt"
         transform="matrix(0.2,0,0,0.2,1.48,0.2)" />
    </marker>
    <marker
       inkscape:stockid="DotSQL"
       orient="auto"
       refY="0"
       refX="0"
       id="DotSQL"
       style="overflow:visible">
      <path
         id="path6109"
         d="m -2.5,-1 c 0,2.76 -2.24,5 -5,5 -2.76,0 -5,-2.24 -5,-5 0,-2.76 2.24,-5 5,-5 2.76,0 5,2.24 5,5 z"
         style="fill:#ffc400;fill-rule:evenodd;stroke:#ffc400;stroke-width:1pt"
         transform="matrix(0.2,0,0,0.2,1.48,0.2)"
         inkscape:connector-curvature="0" />
    </marker>
    <marker
       inkscape:stockid="DotSgb"
       orient="auto"
       refY="0"
       refX="0"
       id="DotSgb"
       style="overflow:visible">
      <path
         id="path6112"
         d="m -2.5,-1 c 0,2.76 -2.24,5 -5,5 -2.76,0 -5,-2.24 -5,-5 0,-2.76 2.24,-5 5,-5 2.76,0 5,2.24 5,5 z"
         style="fill:#ffc400;fill-rule:evenodd;stroke:#ffc400;stroke-width:1pt"
         transform="matrix(0.2,0,0,0.2,1.48,0.2)"
         inkscape:connector-curvature="0" />
    </marker>
    <marker
       inkscape:stockid="marker4516J6"
       orient="auto"
       refY="0"
       refX="0"
       id="marker4516J6"
       style="overflow:visible">
      <path
         inkscape:connector-curvature="0"
         id="path6115"
         d="m -2.5,-1 c 0,2.76 -2.24,5 -5,5 -2.76,0 -5,-2.24 -5,-5 0,-2.76 2.24,-5 5,-5 2.76,0 5,2.24 5,5 z"
         style="fill:#ffc400;fill-rule:evenodd;stroke:#ffc400;stroke-width:1pt"
         transform="matrix(0.2,0,0,0.2,1.48,0.2)" />
    </marker>
    <marker
       inkscape:stockid="marker4516Pl"
       orient="auto"
       refY="0"
       refX="0"
       id="marker4516Pl"
       style="overflow:visible">
      <path
         inkscape:connector-curvature="0"
         id="path6118"
         d="m -2.5,-1 c 0,2.76 -2.24,5 -5,5 -2.76,0 -5,-2.24 -5,-5 0,-2.76 2.24,-5 5,-5 2.76,0 5,2.24 5,5 z"
         style="fill:#ffc400;fill-rule:evenodd;stroke:#ffc400;stroke-width:1pt"
         transform="matrix(0.2,0,0,0.2,1.48,0.2)" />
    </marker>
    <marker
       inkscape:stockid="DotSSB"
       orient="auto"
       refY="0"
       refX="0"
       id="DotSSB"
       style="overflow:visible">
      <path
         id="path6121"
         d="m -2.5,-1 c 0,2.76 -2.24,5 -5,5 -2.76,0 -5,-2.24 -5,-5 0,-2.76 2.24,-5 5,-5 2.76,0 5,2.24 5,5 z"
         style="fill:#ffc400;fill-rule:evenodd;stroke:#ffc400;stroke-width:1pt"
         transform="matrix(0.2,0,0,0.2,1.48,0.2)"
         inkscape:connector-curvature="0" />
    </marker>
    <marker
       inkscape:stockid="DotSyD"
       orient="auto"
       refY="0"
       refX="0"
       id="DotSyD"
       style="overflow:visible">
      <path
         id="path6124"
         d="m -2.5,-1 c 0,2.76 -2.24,5 -5,5 -2.76,0 -5,-2.24 -5,-5 0,-2.76 2.24,-5 5,-5 2.76,0 5,2.24 5,5 z"
         style="fill:#ffc400;fill-rule:evenodd;stroke:#ffc400;stroke-width:1pt"
         transform="matrix(0.2,0,0,0.2,1.48,0.2)"
         inkscape:connector-curvature="0" />
    </marker>
    <marker
       inkscape:stockid="marker4516Ct"
       orient="auto"
       refY="0"
       refX="0"
       id="marker4516Ct"
       style="overflow:visible">
      <path
         inkscape:connector-curvature="0"
         id="path6127"
         d="m -2.5,-1 c 0,2.76 -2.24,5 -5,5 -2.76,0 -5,-2.24 -5,-5 0,-2.76 2.24,-5 5,-5 2.76,0 5,2.24 5,5 z"
         style="fill:#ffc400;fill-rule:evenodd;stroke:#ffc400;stroke-width:1pt"
         transform="matrix(0.2,0,0,0.2,1.48,0.2)" />
    </marker>
    <marker
       inkscape:stockid="marker451623"
       orient="auto"
       refY="0"
       refX="0"
       id="marker451623"
       style="overflow:visible">
      <path
         inkscape:connector-curvature="0"
         id="path6130"
         d="m -2.5,-1 c 0,2.76 -2.24,5 -5,5 -2.76,0 -5,-2.24 -5,-5 0,-2.76 2.24,-5 5,-5 2.76,0 5,2.24 5,5 z"
         style="fill:#ffc400;fill-rule:evenodd;stroke:#ffc400;stroke-width:1pt"
         transform="matrix(0.2,0,0,0.2,1.48,0.2)" />
    </marker>
    <marker
       inkscape:stockid="marker4516yb"
       orient="auto"
       refY="0"
       refX="0"
       id="marker4516yb"
       style="overflow:visible">
      <path
         inkscape:connector-curvature="0"
         id="path6133"
         d="m -2.5,-1 c 0,2.76 -2.24,5 -5,5 -2.76,0 -5,-2.24 -5,-5 0,-2.76 2.24,-5 5,-5 2.76,0 5,2.24 5,5 z"
         style="fill:#ffc400;fill-rule:evenodd;stroke:#ffc400;stroke-width:1pt"
         transform="matrix(0.2,0,0,0.2,1.48,0.2)" />
    </marker>
    <marker
       inkscape:stockid="marker4516IS"
       orient="auto"
       refY="0"
       refX="0"
       id="marker4516IS"
       style="overflow:visible">
      <path
         inkscape:connector-curvature="0"
         id="path6136"
         d="m -2.5,-1 c 0,2.76 -2.24,5 -5,5 -2.76,0 -5,-2.24 -5,-5 0,-2.76 2.24,-5 5,-5 2.76,0 5,2.24 5,5 z"
         style="fill:#ffc400;fill-rule:evenodd;stroke:#ffc400;stroke-width:1pt"
         transform="matrix(0.2,0,0,0.2,1.48,0.2)" />
    </marker>
    <marker
       inkscape:stockid="DotSsAi"
       orient="auto"
       refY="0"
       refX="0"
       id="DotSsAi"
       style="overflow:visible">
      <path
         id="path6139"
         d="m -2.5,-1 c 0,2.76 -2.24,5 -5,5 -2.76,0 -5,-2.24 -5,-5 0,-2.76 2.24,-5 5,-5 2.76,0 5,2.24 5,5 z"
         style="fill:#ffc400;fill-rule:evenodd;stroke:#ffc400;stroke-width:1pt"
         transform="matrix(0.2,0,0,0.2,1.48,0.2)"
         inkscape:connector-curvature="0" />
    </marker>
    <marker
       inkscape:stockid="DotSLdG"
       orient="auto"
       refY="0"
       refX="0"
       id="DotSLdG"
       style="overflow:visible">
      <path
         id="path6142"
         d="m -2.5,-1 c 0,2.76 -2.24,5 -5,5 -2.76,0 -5,-2.24 -5,-5 0,-2.76 2.24,-5 5,-5 2.76,0 5,2.24 5,5 z"
         style="fill:#ffc400;fill-rule:evenodd;stroke:#ffc400;stroke-width:1pt"
         transform="matrix(0.2,0,0,0.2,1.48,0.2)"
         inkscape:connector-curvature="0" />
    </marker>
    <marker
       inkscape:stockid="DotSd7"
       orient="auto"
       refY="0"
       refX="0"
       id="DotSd7"
       style="overflow:visible">
      <path
         id="path6145"
         d="m -2.5,-1 c 0,2.76 -2.24,5 -5,5 -2.76,0 -5,-2.24 -5,-5 0,-2.76 2.24,-5 5,-5 2.76,0 5,2.24 5,5 z"
         style="fill:#ffc400;fill-rule:evenodd;stroke:#ffc400;stroke-width:1pt"
         transform="matrix(0.2,0,0,0.2,1.48,0.2)"
         inkscape:connector-curvature="0" />
    </marker>
    <marker
       inkscape:stockid="DotSyIp"
       orient="auto"
       refY="0"
       refX="0"
       id="DotSyIp"
       style="overflow:visible">
      <path
         id="path6148"
         d="m -2.5,-1 c 0,2.76 -2.24,5 -5,5 -2.76,0 -5,-2.24 -5,-5 0,-2.76 2.24,-5 5,-5 2.76,0 5,2.24 5,5 z"
         style="fill:#ffc400;fill-rule:evenodd;stroke:#ffc400;stroke-width:1pt"
         transform="matrix(0.2,0,0,0.2,1.48,0.2)"
         inkscape:connector-curvature="0" />
    </marker>
    <marker
       inkscape:stockid="DotSvS"
       orient="auto"
       refY="0"
       refX="0"
       id="DotSvS"
       style="overflow:visible">
      <path
         id="path6151"
         d="m -2.5,-1 c 0,2.76 -2.24,5 -5,5 -2.76,0 -5,-2.24 -5,-5 0,-2.76 2.24,-5 5,-5 2.76,0 5,2.24 5,5 z"
         style="fill:#ffc400;fill-rule:evenodd;stroke:#ffc400;stroke-width:1pt"
         transform="matrix(0.2,0,0,0.2,1.48,0.2)"
         inkscape:connector-curvature="0" />
    </marker>
    <marker
       inkscape:stockid="DotSsJ"
       orient="auto"
       refY="0"
       refX="0"
       id="DotSsJ"
       style="overflow:visible">
      <path
         id="path6154"
         d="m -2.5,-1 c 0,2.76 -2.24,5 -5,5 -2.76,0 -5,-2.24 -5,-5 0,-2.76 2.24,-5 5,-5 2.76,0 5,2.24 5,5 z"
         style="fill:#ffc400;fill-rule:evenodd;stroke:#ffc400;stroke-width:1pt"
         transform="matrix(0.2,0,0,0.2,1.48,0.2)"
         inkscape:connector-curvature="0" />
    </marker>
    <marker
       inkscape:stockid="DotSfb"
       orient="auto"
       refY="0"
       refX="0"
       id="DotSfb"
       style="overflow:visible">
      <path
         id="path6157"
         d="m -2.5,-1 c 0,2.76 -2.24,5 -5,5 -2.76,0 -5,-2.24 -5,-5 0,-2.76 2.24,-5 5,-5 2.76,0 5,2.24 5,5 z"
         style="fill:#ffc400;fill-rule:evenodd;stroke:#ffc400;stroke-width:1pt"
         transform="matrix(0.2,0,0,0.2,1.48,0.2)"
         inkscape:connector-curvature="0" />
    </marker>
    <marker
       inkscape:stockid="DotS7T"
       orient="auto"
       refY="0"
       refX="0"
       id="DotS7T"
       style="overflow:visible">
      <path
         id="path6160"
         d="m -2.5,-1 c 0,2.76 -2.24,5 -5,5 -2.76,0 -5,-2.24 -5,-5 0,-2.76 2.24,-5 5,-5 2.76,0 5,2.24 5,5 z"
         style="fill:#ffc400;fill-rule:evenodd;stroke:#ffc400;stroke-width:1pt"
         transform="matrix(0.2,0,0,0.2,1.48,0.2)"
         inkscape:connector-curvature="0" />
    </marker>
    <marker
       inkscape:stockid="DotSko"
       orient="auto"
       refY="0"
       refX="0"
       id="DotSko"
       style="overflow:visible">
      <path
         id="path6163"
         d="m -2.5,-1 c 0,2.76 -2.24,5 -5,5 -2.76,0 -5,-2.24 -5,-5 0,-2.76 2.24,-5 5,-5 2.76,0 5,2.24 5,5 z"
         style="fill:#ffc400;fill-rule:evenodd;stroke:#ffc400;stroke-width:1pt"
         transform="matrix(0.2,0,0,0.2,1.48,0.2)"
         inkscape:connector-curvature="0" />
    </marker>
    <marker
       inkscape:stockid="DotSKZ"
       orient="auto"
       refY="0"
       refX="0"
       id="DotSKZ"
       style="overflow:visible">
      <path
         id="path6166"
         d="m -2.5,-1 c 0,2.76 -2.24,5 -5,5 -2.76,0 -5,-2.24 -5,-5 0,-2.76 2.24,-5 5,-5 2.76,0 5,2.24 5,5 z"
         style="fill:#ffc400;fill-rule:evenodd;stroke:#ffc400;stroke-width:1pt"
         transform="matrix(0.2,0,0,0.2,1.48,0.2)"
         inkscape:connector-curvature="0" />
    </marker>
    <marker
       inkscape:stockid="DotSCa"
       orient="auto"
       refY="0"
       refX="0"
       id="DotSCa"
       style="overflow:visible">
      <path
         id="path6169"
         d="m -2.5,-1 c 0,2.76 -2.24,5 -5,5 -2.76,0 -5,-2.24 -5,-5 0,-2.76 2.24,-5 5,-5 2.76,0 5,2.24 5,5 z"
         style="fill:#ffc400;fill-rule:evenodd;stroke:#ffc400;stroke-width:1pt"
         transform="matrix(0.2,0,0,0.2,1.48,0.2)"
         inkscape:connector-curvature="0" />
    </marker>
    <marker
       inkscape:stockid="DotSLi"
       orient="auto"
       refY="0"
       refX="0"
       id="DotSLi"
       style="overflow:visible">
      <path
         id="path6172"
         d="m -2.5,-1 c 0,2.76 -2.24,5 -5,5 -2.76,0 -5,-2.24 -5,-5 0,-2.76 2.24,-5 5,-5 2.76,0 5,2.24 5,5 z"
         style="fill:#ffc400;fill-rule:evenodd;stroke:#ffc400;stroke-width:1pt"
         transform="matrix(0.2,0,0,0.2,1.48,0.2)"
         inkscape:connector-curvature="0" />
    </marker>
    <marker
       inkscape:stockid="marker5218bQ"
       orient="auto"
       refY="0"
       refX="0"
       id="marker5218bQ"
       style="overflow:visible">
      <path
         inkscape:connector-curvature="0"
         id="path6175"
         d="m -2.5,-1 c 0,2.76 -2.24,5 -5,5 -2.76,0 -5,-2.24 -5,-5 0,-2.76 2.24,-5 5,-5 2.76,0 5,2.24 5,5 z"
         style="fill:#ffc400;fill-rule:evenodd;stroke:#ffc400;stroke-width:1pt"
         transform="matrix(0.2,0,0,0.2,1.48,0.2)" />
    </marker>
    <marker
       inkscape:stockid="marker5218XM"
       orient="auto"
       refY="0"
       refX="0"
       id="marker5218XM"
       style="overflow:visible">
      <path
         inkscape:connector-curvature="0"
         id="path6178"
         d="m -2.5,-1 c 0,2.76 -2.24,5 -5,5 -2.76,0 -5,-2.24 -5,-5 0,-2.76 2.24,-5 5,-5 2.76,0 5,2.24 5,5 z"
         style="fill:#ffc400;fill-rule:evenodd;stroke:#ffc400;stroke-width:1pt"
         transform="matrix(0.2,0,0,0.2,1.48,0.2)" />
    </marker>
    <marker
       inkscape:stockid="DotSGn"
       orient="auto"
       refY="0"
       refX="0"
       id="DotSGn"
       style="overflow:visible">
      <path
         id="path6181"
         d="m -2.5,-1 c 0,2.76 -2.24,5 -5,5 -2.76,0 -5,-2.24 -5,-5 0,-2.76 2.24,-5 5,-5 2.76,0 5,2.24 5,5 z"
         style="fill:#ffc400;fill-rule:evenodd;stroke:#ffc400;stroke-width:1pt"
         transform="matrix(0.2,0,0,0.2,1.48,0.2)"
         inkscape:connector-curvature="0" />
    </marker>
    <marker
       inkscape:stockid="DotS5R"
       orient="auto"
       refY="0"
       refX="0"
       id="DotS5R"
       style="overflow:visible">
      <path
         id="path6184"
         d="m -2.5,-1 c 0,2.76 -2.24,5 -5,5 -2.76,0 -5,-2.24 -5,-5 0,-2.76 2.24,-5 5,-5 2.76,0 5,2.24 5,5 z"
         style="fill:#ffc400;fill-rule:evenodd;stroke:#ffc400;stroke-width:1pt"
         transform="matrix(0.2,0,0,0.2,1.48,0.2)"
         inkscape:connector-curvature="0" />
    </marker>
    <marker
       inkscape:stockid="DotSd7"
       orient="auto"
       refY="0"
       refX="0"
       id="DotSd7-9"
       style="overflow:visible">
      <path
         inkscape:connector-curvature="0"
         id="path6145-2"
         d="m -2.5,-1 c 0,2.76 -2.24,5 -5,5 -2.76,0 -5,-2.24 -5,-5 0,-2.76 2.24,-5 5,-5 2.76,0 5,2.24 5,5 z"
         style="fill:#ffc400;fill-rule:evenodd;stroke:#ffc400;stroke-width:1pt"
         transform="matrix(0.2,0,0,0.2,1.48,0.2)" />
    </marker>
    <marker
       inkscape:stockid="DotSyIp"
       orient="auto"
       refY="0"
       refX="0"
       id="DotSyIp-9"
       style="overflow:visible">
      <path
         inkscape:connector-curvature="0"
         id="path6148-2"
         d="m -2.5,-1 c 0,2.76 -2.24,5 -5,5 -2.76,0 -5,-2.24 -5,-5 0,-2.76 2.24,-5 5,-5 2.76,0 5,2.24 5,5 z"
         style="fill:#ffc400;fill-rule:evenodd;stroke:#ffc400;stroke-width:1pt"
         transform="matrix(0.2,0,0,0.2,1.48,0.2)" />
    </marker>
    <marker
       inkscape:stockid="DotSGn"
       orient="auto"
       refY="0"
       refX="0"
       id="DotSGn-0"
       style="overflow:visible">
      <path
         inkscape:connector-curvature="0"
         id="path6181-6"
         d="m -2.5,-1 c 0,2.76 -2.24,5 -5,5 -2.76,0 -5,-2.24 -5,-5 0,-2.76 2.24,-5 5,-5 2.76,0 5,2.24 5,5 z"
         style="fill:#ffc400;fill-rule:evenodd;stroke:#ffc400;stroke-width:1pt"
         transform="matrix(0.2,0,0,0.2,1.48,0.2)" />
    </marker>
    <marker
       inkscape:stockid="DotS5R"
       orient="auto"
       refY="0"
       refX="0"
       id="DotS5R-3"
       style="overflow:visible">
      <path
         inkscape:connector-curvature="0"
         id="path6184-9"
         d="m -2.5,-1 c 0,2.76 -2.24,5 -5,5 -2.76,0 -5,-2.24 -5,-5 0,-2.76 2.24,-5 5,-5 2.76,0 5,2.24 5,5 z"
         style="fill:#ffc400;fill-rule:evenodd;stroke:#ffc400;stroke-width:1pt"
         transform="matrix(0.2,0,0,0.2,1.48,0.2)" />
    </marker>
    <marker
       inkscape:stockid="marker5218bQ"
       orient="auto"
       refY="0"
       refX="0"
       id="marker5218bQ-7"
       style="overflow:visible">
      <path
         inkscape:connector-curvature="0"
         id="path6175-9"
         d="m -2.5,-1 c 0,2.76 -2.24,5 -5,5 -2.76,0 -5,-2.24 -5,-5 0,-2.76 2.24,-5 5,-5 2.76,0 5,2.24 5,5 z"
         style="fill:#ffc400;fill-rule:evenodd;stroke:#ffc400;stroke-width:1pt"
         transform="matrix(0.2,0,0,0.2,1.48,0.2)" />
    </marker>
    <marker
       inkscape:stockid="marker5218XM"
       orient="auto"
       refY="0"
       refX="0"
       id="marker5218XM-8"
       style="overflow:visible">
      <path
         inkscape:connector-curvature="0"
         id="path6178-2"
         d="m -2.5,-1 c 0,2.76 -2.24,5 -5,5 -2.76,0 -5,-2.24 -5,-5 0,-2.76 2.24,-5 5,-5 2.76,0 5,2.24 5,5 z"
         style="fill:#ffc400;fill-rule:evenodd;stroke:#ffc400;stroke-width:1pt"
         transform="matrix(0.2,0,0,0.2,1.48,0.2)" />
    </marker>
    <marker
       inkscape:stockid="marker5218bQ"
       orient="auto"
       refY="0"
       refX="0"
       id="marker5218bQ-9"
       style="overflow:visible">
      <path
         inkscape:connector-curvature="0"
         id="path6175-95"
         d="m -2.5,-1 c 0,2.76 -2.24,5 -5,5 -2.76,0 -5,-2.24 -5,-5 0,-2.76 2.24,-5 5,-5 2.76,0 5,2.24 5,5 z"
         style="fill:#ffc400;fill-rule:evenodd;stroke:#ffc400;stroke-width:1pt"
         transform="matrix(0.2,0,0,0.2,1.48,0.2)" />
    </marker>
    <marker
       inkscape:stockid="marker5218XM"
       orient="auto"
       refY="0"
       refX="0"
       id="marker5218XM-4"
       style="overflow:visible">
      <path
         inkscape:connector-curvature="0"
         id="path6178-29"
         d="m -2.5,-1 c 0,2.76 -2.24,5 -5,5 -2.76,0 -5,-2.24 -5,-5 0,-2.76 2.24,-5 5,-5 2.76,0 5,2.24 5,5 z"
         style="fill:#ffc400;fill-rule:evenodd;stroke:#ffc400;stroke-width:1pt"
         transform="matrix(0.2,0,0,0.2,1.48,0.2)" />
    </marker>
    <marker
       inkscape:stockid="DotSGn"
       orient="auto"
       refY="0"
       refX="0"
       id="DotSGn-08"
       style="overflow:visible">
      <path
         inkscape:connector-curvature="0"
         id="path6181-5"
         d="m -2.5,-1 c 0,2.76 -2.24,5 -5,5 -2.76,0 -5,-2.24 -5,-5 0,-2.76 2.24,-5 5,-5 2.76,0 5,2.24 5,5 z"
         style="fill:#ffc400;fill-rule:evenodd;stroke:#ffc400;stroke-width:1pt"
         transform="matrix(0.2,0,0,0.2,1.48,0.2)" />
    </marker>
    <marker
       inkscape:stockid="DotS5R"
       orient="auto"
       refY="0"
       refX="0"
       id="DotS5R-8"
       style="overflow:visible">
      <path
         inkscape:connector-curvature="0"
         id="path6184-1"
         d="m -2.5,-1 c 0,2.76 -2.24,5 -5,5 -2.76,0 -5,-2.24 -5,-5 0,-2.76 2.24,-5 5,-5 2.76,0 5,2.24 5,5 z"
         style="fill:#ffc400;fill-rule:evenodd;stroke:#ffc400;stroke-width:1pt"
         transform="matrix(0.2,0,0,0.2,1.48,0.2)" />
    </marker>
    <marker
       inkscape:stockid="marker4516Ct"
       orient="auto"
       refY="0"
       refX="0"
       id="marker4516Ct-0"
       style="overflow:visible">
      <path
         inkscape:connector-curvature="0"
         id="path6127-3"
         d="m -2.5,-1 c 0,2.76 -2.24,5 -5,5 -2.76,0 -5,-2.24 -5,-5 0,-2.76 2.24,-5 5,-5 2.76,0 5,2.24 5,5 z"
         style="fill:#ffc400;fill-rule:evenodd;stroke:#ffc400;stroke-width:1pt"
         transform="matrix(0.2,0,0,0.2,1.48,0.2)" />
    </marker>
    <marker
       inkscape:stockid="marker451623"
       orient="auto"
       refY="0"
       refX="0"
       id="marker451623-8"
       style="overflow:visible">
      <path
         inkscape:connector-curvature="0"
         id="path6130-8"
         d="m -2.5,-1 c 0,2.76 -2.24,5 -5,5 -2.76,0 -5,-2.24 -5,-5 0,-2.76 2.24,-5 5,-5 2.76,0 5,2.24 5,5 z"
         style="fill:#ffc400;fill-rule:evenodd;stroke:#ffc400;stroke-width:1pt"
         transform="matrix(0.2,0,0,0.2,1.48,0.2)" />
    </marker>
    <marker
       inkscape:stockid="marker5218bQ"
       orient="auto"
       refY="0"
       refX="0"
       id="marker5218bQ-0"
       style="overflow:visible">
      <path
         inkscape:connector-curvature="0"
         id="path6175-8"
         d="m -2.5,-1 c 0,2.76 -2.24,5 -5,5 -2.76,0 -5,-2.24 -5,-5 0,-2.76 2.24,-5 5,-5 2.76,0 5,2.24 5,5 z"
         style="fill:#ffc400;fill-rule:evenodd;stroke:#ffc400;stroke-width:1pt"
         transform="matrix(0.2,0,0,0.2,1.48,0.2)" />
    </marker>
    <marker
       inkscape:stockid="marker5218XM"
       orient="auto"
       refY="0"
       refX="0"
       id="marker5218XM-86"
       style="overflow:visible">
      <path
         inkscape:connector-curvature="0"
         id="path6178-7"
         d="m -2.5,-1 c 0,2.76 -2.24,5 -5,5 -2.76,0 -5,-2.24 -5,-5 0,-2.76 2.24,-5 5,-5 2.76,0 5,2.24 5,5 z"
         style="fill:#ffc400;fill-rule:evenodd;stroke:#ffc400;stroke-width:1pt"
         transform="matrix(0.2,0,0,0.2,1.48,0.2)" />
    </marker>
    <path
       transform="matrix(0.8755829,0,0,0.8755829,152.4506,-680.83707)"
       id="path6572"
       style="fill:none;stroke:none"
       cx="675.71429"
       cy="777.58148"
       r="584.28571" />
    <path
       transform="matrix(-1.1162727,-0.04357729,-0.04357729,1.1162727,1532.2608,-838.54723)"
       id="path6572-9"
       style="fill:none;stroke:none"
       cx="675.71429"
       cy="777.58148"
       r="584.28571" />
  </defs>
  <metadata
     id="metadata7">
    <rdf:RDF>
      <cc:Work
         rdf:about="">
        <dc:format>image/svg+xml</dc:format>
        <dc:type
           rdf:resource="http://purl.org/dc/dcmitype/StillImage" />
        <dc:title />
      </cc:Work>
    </rdf:RDF>
  </metadata>
  <g
     inkscape:label="Ebene 1"
     inkscape:groupmode="layer"
     id="layer1"
     transform="translate(0,-783.07098)">
    <path
       id="path5802-1-3"
       style="fill:#ffffff;fill-opacity:1;stroke:#ffc400;stroke-width:2.59276;stroke-miterlimit:4;stroke-dasharray:none;stroke-opacity:1"
       d="m 134.64648,824.16082 c 33.92725,8.8e-4 64.48582,20.51681 77.33204,51.91797 h 15.51757 c 2.46866,3e-4 4.46953,2.00205 4.46875,4.47071 -3e-4,2.4679 -2.00085,4.46845 -4.46875,4.46875 h -12.4375 c 2.08487,7.38554 3.14234,15.0231 3.14258,22.69727 6.7e-4,46.14658 -37.40811,83.55624 -83.55469,83.55664 -46.14658,-4e-4 -83.55536,-37.41006 -83.55469,-83.55664 2.4e-4,-7.67417 1.05771,-15.31173 3.14258,-22.69727 H 40.19922 c -2.4679,-3e-4 -4.46845,-2.00085 -4.46875,-4.46875 -7.8e-4,-2.46866 2.00009,-4.47041 4.46875,-4.47071 h 17.11523 c 12.84622,-31.40115 43.40478,-51.91708 77.33203,-51.91797 z"
       sodipodi:nodetypes="ccccccccccccccc" />
    <path
       id="path2035"
       style="fill:#004400;fill-opacity:1;stroke:#000000;stroke-width:1.002;stroke-linecap:round;stroke-linejoin:round;stroke-miterlimit:4;stroke-dasharray:none;stroke-opacity:1"
       d="m 117.66797,860.6491 c 0,0 -0.24839,15.7386 -0.91992,17.76368 -0.67154,2.02507 -0.9565,4.55485 -5.16602,7.5625 -1.19103,0.85098 -4.18359,1.65429 -4.18359,1.65429 0,0 -10.718453,-0.54755 -12.750002,-0.59765 -2.03156,-0.0501 -6.384505,-1.12934 -9.365235,-1.75 -2.980728,-0.62066 -6.346487,1.81223 -9.597656,4.20508 -3.251169,2.39284 -3.864358,3.66976 -2.529297,2.7246 1.335061,-0.94515 5.725776,-2.51846 7.875,-4.26953 2.149224,-1.75108 4.025923,-0.0483 8.220703,1.04688 4.194767,1.09521 14.408107,1.09704 15.775387,1.19726 1.36728,0.10022 -7.470025,4.86508 -9.136715,6.13086 -1.66669,1.26579 -5.446488,1.70702 -6.976563,2.70508 -1.530081,0.99807 -7.932483,3.57688 -10.673828,5.58985 -2.530952,1.93114 -5.373047,8.26367 -5.373046,8.26367 0,0 7.583607,-7.56326 8.802734,-8.50977 1.219126,-0.94651 8.443087,-2.96091 10.304687,-4.05469 1.85736,-1.09129 3.875868,-1.24962 7.765625,-2.73632 3.218676,-1.28362 8.166016,-1.66016 8.166016,-1.66016 0,0 -5.93736,3.83269 -18.572266,11.61914 -1.580035,0.78108 -11.409348,2.16277 -12.671875,2.94922 -1.056791,0.68232 -5.667975,3.73023 -8.724609,9.24219 -3.056634,5.51196 -2.898158,7.6831 -3.986328,9.15234 -1.088171,1.46923 -4.011719,3.86133 -4.011719,3.86133 l -14.945312,11.67578 c 0,0 -1.269495,2.39004 -0.667969,2.04492 0.601526,-0.34511 16.058594,-11.60937 16.058594,-11.60937 0,0 -4.189352,5.89973 -5.884766,7.8457 -1.695413,1.94596 -7.958984,6.27344 -7.958984,6.27344 l 4.816406,6.0664 c 0,0 2.027879,-5.56468 2.552734,-6.64648 0.524855,-1.08181 3.098621,-3.1382 4.863282,-3.96484 1.76466,-0.82663 7.589238,-8.11684 8.52539,-10.04493 0.936152,-1.92808 3.299943,-8.53723 5.298828,-12.79101 1.998884,-4.25378 5.761719,-4.4707 5.761719,-4.4707 0,0 -3.8061,9.08557 -4.056641,14.125 -0.250542,5.03944 0.557337,9.46066 0.4375,10.18164 -0.119838,0.72098 -0.844069,2.3678 -2.123046,4.98242 -1.278977,2.61461 -7.150879,8.78018 -9.806641,15.09179 -2.655763,6.3116 -1.048828,13.27344 -1.048828,13.27344 0,0 2.255846,-6.49714 3.164062,-11.65429 0.908216,-5.15716 2.3925,-2.76508 4.236328,-5.45899 1.843828,-2.69391 5.503907,-7.7168 5.503907,-7.7168 0,0 -3.244355,10.13353 -4.841797,14.31055 -1.597441,4.17701 -4.75,9.05469 -4.75,9.05469 l 4.121093,3.81836 1.957032,-4.99414 0.943359,6.97461 2.6875,1.35351 c 0,0 -1.391263,-12.19493 -0.660156,-14.16211 0.731107,-1.96717 2.672096,-6.47158 5.101562,-11.66015 2.429466,-5.18856 1.03125,-8.35157 1.03125,-8.35157 0,0 7.811673,8.84934 9.552735,11.1875 9.89e-4,0.001 0.0029,0.003 0.0039,0.004 -2.904185,3.35964 -6.869141,7.77539 -6.869141,7.77539 0,0 3.859479,-3.28283 7.56836,-6.68555 1.492157,2.5864 2.94161,6.76712 4.365234,9.96289 1.64617,3.69534 1.457031,15.34766 1.457031,15.34766 l 1.101563,-11.52734 c 0,0 -1.619849,-9.87138 -3.917969,-12.72071 -0.528656,-0.65545 -1.104161,-1.44333 -1.693359,-2.28125 2.78513,-2.60989 5.204673,-5.07036 5.382812,-5.91992 0.436927,-2.0837 2.435458,-7.40578 3.738275,-10.86328 1.30283,-3.45751 4.14025,-3.97001 6.29492,-8.42969 2.15467,-4.45968 6.0693,-11.87539 6.72071,-15.83398 0.65141,-3.95858 3.29883,-13.53516 3.29883,-13.53516 l 5.37304,-2.92969 c 0,0 -1.30146,17.93891 -1.35156,20.0918 -0.0501,2.15289 -5.69681,13.65235 -6.69141,15.84766 -0.99459,2.19531 -6.18921,6.87909 -9.21289,9.77539 -3.02367,2.89629 -3.78279,10.80179 -4.33398,14.46875 -0.55119,3.66696 0.30469,10.23828 0.30469,10.23828 0,0 1.69857,-12.43231 2.0332,-14.14844 0.33463,-1.71613 2.38419,-6.20033 4.83008,-7.63867 2.44589,-1.43834 8.41992,-11.18359 8.41992,-11.18359 0,0 -4.05711,10.3861 -5.20703,13.63672 -1.14992,3.25062 -4.39005,9.9311 -5.14063,15.53906 -0.75058,5.60795 -1.30135,9.24012 -1.5957,10.0918 -0.29434,0.85167 -8.537105,14.29296 -8.537105,14.29296 l 2.470703,0.88086 5.617182,-7.11328 c 0,0 -1.1537,7.69586 -1.00586,8.75586 0.14785,1.06 8.09766,1.69727 8.09766,1.69727 l 0.10156,-5.4668 c 0,0 7.06512,6.45742 6.09961,5.57813 -0.96551,-0.8793 -4.01195,-9.39627 -4.70117,-10.78516 -0.68922,-1.38889 0.10174,-2.33848 0.55273,-6.74805 0.45098,-4.40957 1.93557,-7.32611 3.27539,-14.82226 1.33981,-7.49615 8.2168,-15.56836 8.2168,-15.56836 0,0 1.89327,1.73902 3.97852,3.9082 -2.67817,2.59884 -6.3047,6.14222 -3.91993,4.51172 1.0366,-0.70873 2.69854,-2.20265 4.5293,-3.88477 0.89319,0.95279 1.78637,1.94991 2.57422,2.94141 2.83636,3.56953 5.52691,6.02945 5.92969,6.89062 0.40278,0.86117 3.4499,6.7696 3.69922,8.45704 0.24933,1.68744 -1.20508,3.30859 -1.20508,3.30859 0,0 -3.29013,6.80051 -4.58399,8.54492 -1.29386,1.74441 -1.09436,7.08639 -0.99414,9.66211 0.10021,2.5756 1.75586,2.7793 1.75586,2.7793 0,0 -0.50194,-4.35085 -0.25586,-6.08985 0.24607,-1.73895 1.43255,-5.50211 2.42578,-7.02929 0.99322,-1.52718 3.2461,-7.06446 3.2461,-7.06446 0,0 0.47882,3.16434 0.57812,4.26758 0.0993,1.10324 -1.39843,5.93023 -1.39843,9.23438 0,3.30419 1.21875,6.01953 1.21874,6.01953 l 0.84766,0.92187 c 0,0 -0.53711,-3.62345 -0.53711,-5.8457 0,-2.22227 1.21875,-6.83533 1.21875,-7.76953 0,-0.9342 1.2987,-7.76432 0.99805,-9.26758 -0.30065,-1.50326 -2.75195,-7.66406 -2.75195,-7.66406 0,0 3.2567,4.31329 8.35742,7.36328 5.10067,3.04999 3.95397,5.0502 5.15234,8.24023 1.19838,3.19003 -0.35615,4.35778 -0.40625,7.47266 -0.0501,3.11485 0.32031,2.10742 0.32031,2.10742 l 4.60938,2.9043 2.78125,-6.74024 c 0,0 -2.36134,-10.56816 -2.85742,-12.71093 -0.49607,-2.14277 -3.45523,-4.06915 -4.55274,-5.65821 -1.09751,-1.58905 -7.99255,-7.15298 -11.78125,-10.08984 -3.3013,-2.55904 -4.48745,-4.95917 -8.61523,-10.47266 1.09105,-0.97836 2.16915,-1.92194 3.17383,-2.74218 0,0 5.95429,-8.45783 6.50195,-9.78321 0,0 2.09228,2.9583 2.5,7.6836 0.41081,4.76118 -1.95313,8.36523 -1.95313,8.36523 2.56874,-1.15152 5.07138,-9.14626 2.91993,-16.56445 -1.61732,-4.55859 -1.26504,-7.63114 -1.49414,-9.40235 -1.44407,-9.09376 -1.64392,-13.15022 -2.27149,-18.9375 l 7.69141,10.20508 c 2.22982,2.63353 -1.526,10.26769 -1.42578,13.625 0.10022,3.35732 1.38814,4.95417 2.50976,6.10547 1.12163,1.1513 -0.42001,4.96745 -2.27734,10.02344 -1.85732,5.05599 1.77734,7.95117 1.77734,7.95117 l 3.96485,5.6543 c 0,0 -1.80285,-6.2016 -3.55664,-8.70703 -1.75381,-2.50544 0.0109,-5.03574 0.36523,-6.1543 0.35426,-1.11857 1.50391,-7.86914 1.50391,-7.86914 0,0 0.7793,0.78468 2.01562,2.81445 1.23633,2.02977 4.81995,6.8092 5.46484,8.01758 0.6449,1.20839 3.3809,8.35112 4.98438,10.35547 1.60348,2.00435 3.51964,4.46183 5.68555,5.54883 0.55142,0.27674 1.1314,0.55616 1.71289,0.84375 0.50642,3.11862 1.81642,7.3024 2.56836,9.64453 0.99194,3.08967 6.04882,8.01758 6.04882,8.01758 l 1.84961,-0.0254 c 0,0 -5.57226,-8.83375 -5.57226,-9.8379 0,-0.6286 -0.83661,-3.40077 -1.53711,-5.875 0.40001,0.29139 0.76594,0.59284 1.0625,0.91211 1.35236,1.45597 12.32639,9.82129 12.32639,9.82129 0,0 -8.95724,-9.00811 -11.10569,-11.10644 -0.9317,-0.90997 -1.91153,-1.52531 -2.9375,-2.05078 -0.11099,-0.4592 -0.2006,-0.86907 -0.23828,-1.15039 -0.25055,-1.87058 0.95117,-8.33345 0.95117,-9.77539 0,-1.44194 0.62366,-6.68101 0.52344,-8.63477 -0.10022,-1.95376 -3.42773,-6.8418 -3.42773,-6.8418 0,0 5.65473,4.0288 8.31054,6.03321 2.65582,2.00442 7.31972,5.16467 9.94922,6.89648 3.4155,2.24948 9.61768,12.60045 9.62695,12.5 l 0.64844,-7.00976 c 0.10401,-1.12752 -7.95907,-12.07452 -12.67578,-14.08399 -3.59914,-2.39654 -10.5187,-7.10719 -13.16406,-9.65234 -2.64535,-2.54516 -11.47461,-10.87305 -11.47461,-10.87305 0,0 5.27925,0.15039 8.01367,0.15039 2.73442,0 10.01542,3.99286 11.26172,4.39258 1.24631,0.39971 10.35224,5.79495 13.11719,6.99414 0.25873,0.11221 0.60529,0.24705 0.94922,0.38086 3.59396,5.92571 8.44726,15.4707 8.44726,15.4707 l 0.49219,-0.7207 c 0,0 -3.28336,-8.16438 -6.13672,-13.75586 3.68221,1.24042 8.82958,2.73607 13.22266,3.5625 6.25735,1.17713 3.27539,-1.16797 3.27539,-1.16797 0.007,0.004 -12.26882,-3.78729 -15.69727,-4.75391 -0.49012,-0.13818 -1.48313,-0.52366 -2.66797,-1.00781 -0.46176,-0.71522 -0.88216,-1.25895 -1.22656,-1.53711 -2.59526,-2.09606 -10.0462,-9.61394 -10.97656,-10.75586 -0.93036,-1.14192 -5.87102,-9.25566 -10.23047,-11.86133 -4.35946,-2.60565 -9.52764,-2.46562 -13.08789,-4.74414 -3.56024,-2.27853 -9.16797,-6.37695 -9.16797,-6.37695 0,0 15.87774,0.4898 18.29101,0.33008 2.41328,-0.15972 9.40235,4.03711 9.40235,4.03711 l 9.59765,6.74414 c 0,0 -6.7752,-7.57836 -8.83593,-8.76563 -2.06072,-1.18726 -6.47087,-3.71582 -8.53516,-4.31054 -2.06429,-0.59471 -17.11732,-1.53748 -19.57812,-1.71094 -2.46081,-0.17346 -12.83203,-5.15625 -12.83203,-5.15625 0,0 -2.44595,-3.49794 -3.44727,-6.42969 -1.00132,-2.93176 -1.11523,-18.80469 -1.11523,-18.80469 z m 32.25391,35.15626 c 1.39242,0 1e-4,2.7e-4 3.9746,1.1875 6.46933,1.93245 7.40869,7.57465 12.21485,9.82812 4.80615,2.25347 9.01761,2.40997 13.67773,5.01562 4.66013,2.60565 5.77926,6.38176 7.23242,8.48633 1.45316,2.10457 7.50444,6.11524 9.79493,7.50977 0.1773,0.10795 0.41069,0.34887 0.66601,0.64648 -2.46843,-1.08481 -4.9495,-2.23463 -6.03711,-2.83789 -2.2554,-1.251 -6.10165,-4.51427 -8.92383,-5.44726 -2.82217,-0.93299 -9.37548,-3.59948 -14.00586,-2.60743 -4.63036,0.99204 -3.87695,0.4375 -3.87695,0.4375 l -10.03125,-16.32226 c 0,0 -6.07796,-5.89648 -4.68554,-5.89648 z m -12.5293,4.92773 c 0.60927,-0.0824 1.47459,0.82202 1.75976,6.23242 0.45627,8.65664 3.686,16.84217 2.52735,20.57422 -2.09242,6.73976 -0.27165,8.62158 -7.43946,17.66406 -0.34335,-0.44831 -0.65441,-0.86419 -1.03711,-1.35156 -5.86272,-7.46621 -3.86914,-5.84375 -3.86914,-5.84375 0,0 2.34737,-7.59744 3.19922,-11.65625 1.33217,-7.14085 4.22071,-25.16602 4.22071,-25.16602 0,0 0.2731,-0.40369 0.63867,-0.45312 z m -24.41016,3.64648 -3.58789,14.75586 c 0,0 -8.77922,7.19009 -11.115233,8.18946 -2.336007,0.99936 -6.03982,4.30293 -6.84375,5.35547 -0.80394,1.05253 -5.214844,13.74609 -5.214844,13.74609 0,0 3.032842,-5.93111 3.916016,-8.68555 0.88318,-2.75443 5.261484,-5.82447 7.464843,-6.84765 2.203368,-1.02319 9.822268,-6.11524 9.822268,-6.11524 0,0 -0.84116,2.40228 -2.80469,5.02344 -1.96353,2.62115 -6.060863,8.01805 -6.408202,10.90039 -0.347351,2.88234 -4.516812,11.75837 -5.513672,13.28906 -0.22595,0.34695 -0.881823,1.14608 -1.712891,2.12696 -1.71991,-2.53414 -3.462678,-5.30787 -4.554687,-6.89844 -1.650789,-2.40447 -5.235213,-7.2631 -6.353516,-9 -1.118303,-1.7369 0.311284,-8.40119 0.511719,-11.88672 0.200436,-3.48553 4.431401,-8.42575 6.376953,-10.82227 1.945551,-2.39653 10.890197,-5.68679 13.312496,-6.48047 2.4223,-0.79368 12.70508,-6.65039 12.70508,-6.65039 z m 42.58789,14.90625 c 0,0 2.49409,3.26806 4.13867,4.66211 1.64459,1.39406 1.99143,4.04801 4.78321,6.63282 2.79178,2.58481 6.50218,4.80983 8.2539,6.86523 1.75172,2.0554 2.28544,6.73953 3.48243,10.48047 1.19699,3.74095 -1.19865,10.22008 -1.39649,13.04101 -0.0149,0.21192 0.005,0.47819 0.0137,0.72657 -0.45995,-0.20861 -0.91775,-0.41053 -1.39648,-0.65821 -2.68654,-1.3899 -2.34317,-2.74898 -3.0332,-4.47656 -0.69003,-1.72759 -3.30704,-8.02635 -4.78125,-9.40039 -1.47422,-1.37403 -3.54062,-4.7108 -5.22461,-7.01953 -1.68398,-2.30873 -3.14457,-4.48344 -4.45704,-5.76953 -1.31246,-1.28609 -2.04426,-3.94186 -2.39257,-6.18164 -0.41907,-2.69479 2.00976,-8.90235 2.00976,-8.90235 z m 65.88517,68.21833 c 3.11487,4.23595 4.23595,5.64475 4.708,10.71635 0.47204,5.0716 0.53069,8.4021 0.53069,8.4021 0,0 0.33513,1.4053 -1.10922,-3.6272 -1.44435,-5.0324 -0.59294,-5.1722 -2.5238,-9.1099 -1.93087,-3.9378 -4.03624,-6.90696 -4.03624,-6.90696 z m -19.4989,12.84485 c 2.75086,6.2144 4.09773,6.9515 4.39194,14.0295 0.2942,7.0781 -1.97138,18.4531 -1.97138,18.4531 0,0 0.18408,-8.5463 0.24309,-11.85 0.059,-3.3036 -3.63698,-12.7188 -5.04122,-14.2882 -1.40425,-1.5693 1.95198,-7.2988 1.95198,-7.2988 z m -44.47882,51.5044 c -1.88816,3.3633 -8.05155,16.9117 -8.05155,16.9117 0,0 2.09463,-9.2883 3.20513,-10.8407 1.11049,-1.5525 0.71805,-2.6968 2.01614,-6.7681 1.29809,-4.0714 1.28808,-6.3741 1.17007,-9.5481 -0.11801,-3.174 -0.41302,-9.7418 -2.62383,-16.3264 l 3.03685,-7.7077 1.69148,8.0707 c 0,0 0.47046,9.5895 0.7628,11.6679 -0.16577,0.9324 0.24542,11.2372 1.8671,15.6007 2.098,5.6452 -2.29283,8.4212 -2.29283,8.4212 0,0 1.80423,-2.2857 1.22455,-5.9457 -0.19197,-1.2121 -1.92808,-4.2046 -2.00591,-3.5355 z m -16.1237,-28.903 c 1.88814,9.1559 4.62596,18.5056 4.62596,18.5056 0,0 -2.51979,-12.6384 -2.10847,-17.6944 0.41133,-5.056 -2.51749,-0.8112 -2.51749,-0.8112 z m -29.31407,-4.7158 c 0.85964,8.3887 0.0537,12.6152 -0.94895,16.2122 -1.00269,3.597 -2.93861,11.4214 -3.40507,13.5069 -0.46647,2.0855 -0.60686,9.662 0.80925,12.3762 1.4161,2.7142 4.24775,8.2323 4.24775,8.2323 0,0 -3.39849,-6.6476 -3.51651,-12.2526 -0.11801,-5.6049 -0.37575,-10.7203 2.06823,-14.2427 2.44398,-3.5223 3.37538,-10.9319 3.37538,-10.9319 0,0 3.84747,1.1282 4.20149,11.3921 0.91212,4.5524 1.10688,4.4122 3.26841,11.0149 0,0 -0.28904,0.7173 2.58317,6.0952 1.39079,2.6041 2.91822,4.6237 3.05018,7.3804 0.24162,5.0475 0.52785,9.2517 0.52785,9.2517 0,0 1.5226,-4.6054 0.89401,-10.7289 -0.62858,-6.1235 -0.95532,-2.7586 -3.59993,-8.5894 -2.64461,-5.8309 -2.18441,-6.5473 -2.64461,-7.6789 -0.4602,-1.1316 0.25009,-1.6418 -1.87308,-11.7008 -2.12317,-10.0591 -4.21779,-22.3942 -4.21779,-22.3942 z m -15.977502,4.5125 c -2.655211,11.5632 -4.772507,12.9619 -5.893602,16.6792 -1.121094,3.7173 -2.363053,8.4787 -0.415905,11.3699 1.947148,2.8912 1.972337,13.9794 1.972337,13.9794 0,0 1.103485,-7.4124 1.336425,-11.8284 0.232939,-4.4161 -1.880212,-6.6301 -1.766536,-8.8935 0.113676,-2.2633 5.432483,-10.8823 7.133726,-14.1176 1.701247,-3.2354 2.174477,-11.2245 2.174477,-11.2245 l -2.799522,-0.6793 z m -9.239839,-5.1853 c -1.613487,5.4776 -1.286684,6.9856 -3.292839,10.1719 -2.006154,3.1862 -7.400108,4.7985 -7.400108,4.7985 0,0 5.808335,-1.5681 7.794065,-6.8364 1.985731,-5.2683 2.041313,-12.0851 2.041313,-12.0851 z M 56.511403,989.68449 c -5.656751,8.30971 -7.046791,10.40691 -7.733535,12.28331 -0.686743,1.8764 -1.285549,22.7312 -1.285549,22.7312 -0.01091,0 1.451646,-10.9061 1.787673,-18.0525 0.449299,-9.5555 7.208002,-9.1796 8.263258,-10.468 1.055256,-1.2885 -1.330137,2.2228 -2.097195,6.937 -0.767058,4.7143 0.166994,10.6049 0.934052,15.0892 0.767058,4.4844 2.994332,12.1132 2.994332,12.1132 0,0 -1.063902,-6.9084 -0.827883,-17.2932 0.23602,-10.3848 3.81421,-21.7747 3.81421,-21.7747 z M 30.19219,964.90287 c -5.191306,6.01846 -5.545709,4.88478 -7.246353,10.94217 -1.700644,6.05739 -4.505018,19.73336 -3.652759,17.02146 0.85226,-2.712 4.812145,-14.60541 9.227615,-19.55192 4.415471,-4.9465 7.13441,-7.18499 7.13441,-7.18499 z" />
    <path
       id="path5802-1"
       style="fill:#004400;fill-opacity:1;stroke:#ffc400;stroke-width:2.59276;stroke-miterlimit:4;stroke-dasharray:none;stroke-opacity:1"
       d="m 134.46289,786.41473 c -61.476441,0.016 -114.163385,46.60114 -120.492187,109.08203 -6.7507448,66.6463 41.802948,126.14384 108.449217,132.89454 66.64631,6.7508 126.15163,-41.80294 132.90235,-108.44923 6.75075,-66.64628 -41.81076,-126.14377 -108.45704,-132.89453 -4.1654,-0.42192 -8.30392,-0.63387 -12.40234,-0.63281 z m 0.18359,37.74609 a 83.55542,83.55542 0 0 1 77.33204,51.91797 h 15.51757 a 4.4692912,4.4692912 0 0 1 4.46875,4.47071 4.4692912,4.4692912 0 0 1 -4.46875,4.46875 h -12.4375 a 83.55542,83.55542 0 0 1 3.14258,22.69726 83.55542,83.55542 0 0 1 -83.55469,83.55664 83.55542,83.55542 0 0 1 -83.554683,-83.55664 83.55542,83.55542 0 0 1 3.142578,-22.69726 H 40.199219 a 4.4692912,4.4692912 0 0 1 -4.46875,-4.46875 4.4692912,4.4692912 0 0 1 4.46875,-4.47071 h 17.115234 a 83.55542,83.55542 0 0 1 77.332027,-51.91797 z" />
    <text
       xml:space="preserve"
       style="font-style:normal;font-variant:normal;font-weight:normal;font-stretch:normal;font-size:220px;line-height:0%;font-family:'Politics Head';-inkscape-font-specification:'Politics Head';text-align:start;letter-spacing:0px;word-spacing:0px;writing-mode:lr-tb;text-anchor:start;fill:#ffffff;fill-opacity:1;stroke:none;stroke-width:1.00252;stroke-miterlimit:4;stroke-dasharray:none"
       id="text6589"
       transform="rotate(-156.16781,130,-27.433404)"
       x="-624.39868"
       y="-1683.5013"><textPath
         xlink:href="#path6572"
         id="textPath6593"><tspan
           style="font-style:normal;font-variant:normal;font-weight:normal;font-stretch:normal;font-size:220px;line-height:125%;font-family:'Politics Head';-inkscape-font-specification:'Politics Head';text-align:start;writing-mode:lr-tb;text-anchor:start;fill:#ffffff;stroke-width:1.00252;stroke-miterlimit:4;stroke-dasharray:none"
           id="tspan6591"
           dx="0 0"><tspan
   style="font-size:75.9485px;stroke-width:1.00252;stroke-miterlimit:4;stroke-dasharray:none"
   id="tspan2681">              </tspan>xroots</tspan></textPath></text>
    <text
       xml:space="preserve"
       style="font-style:normal;font-variant:normal;font-weight:normal;font-stretch:normal;font-size:220px;line-height:0%;font-family:'Politics Head';-inkscape-font-specification:'Politics Head';text-align:start;letter-spacing:20.5061px;word-spacing:0px;writing-mode:lr-tb;text-anchor:start;fill:#ffffff;fill-opacity:1;stroke:none;stroke-width:1.00252;stroke-miterlimit:4;stroke-dasharray:none"
       id="text6924"
       x="3.8912513e-06"
       transform="translate(260)"><textPath
         xlink:href="#path6572-9"
         id="textPath6931"><tspan
           id="tspan6926"
           style="fill:#ffffff;stroke-width:1.00252;stroke-miterlimit:4;stroke-dasharray:none">welcome to xhain</tspan></textPath></text>
    <path
       sodipodi:type="star"
       style="fill:#ffffff;fill-opacity:1;stroke:#ffffff;stroke-opacity:1"
       id="path6846"
       sodipodi:sides="5"
       sodipodi:cx="-130"
       sodipodi:cy="859.01007"
       sodipodi:r1="77.195747"
       sodipodi:r2="41.685707"
       sodipodi:arg1="0.78539816"
       sodipodi:arg2="1.4137167"
       inkscape:flatsided="false"
       inkscape:rounded="0.1"
       inkscape:randomized="0"
       transform="matrix(0.0556327,-0.09227403,0.09227403,0.0556327,149.09407,790.67748)"
       d="m -75.414363,913.59571 c -3.528537,3.52853 -43.135887,-14.19378 -48.064557,-13.41315 -4.92867,0.78062 -37.121,29.87489 -41.56722,27.60943 -4.44621,-2.26546 0.16936,-45.41079 -2.0961,-49.857 -2.26546,-4.44622 -39.88372,-26.07233 -39.1031,-31.00099 0.78062,-4.92867 43.24056,-13.87164 46.76909,-17.40018 3.52854,-3.52853 12.47151,-45.98846 17.40017,-46.76909 4.92867,-0.78062 26.55478,36.83764 31.001,39.1031 4.44621,2.26546 47.591535,-2.35011 49.856994,2.0961 2.26546,4.44622 -26.828803,36.63855 -27.609427,41.56722 -0.780624,4.92867 16.941686,44.53602 13.41315,48.06456 z" />
    <path
       sodipodi:type="star"
       style="fill:#ffffff;fill-opacity:1;stroke:#ffffff;stroke-opacity:1"
       id="path6846-4"
       sodipodi:sides="5"
       sodipodi:cx="-130"
       sodipodi:cy="859.01007"
       sodipodi:r1="77.195747"
       sodipodi:r2="41.685707"
       sodipodi:arg1="0.78539816"
       sodipodi:arg2="1.4137167"
       inkscape:flatsided="false"
       inkscape:rounded="0.1"
       inkscape:randomized="0"
       transform="matrix(0.0556327,-0.09227403,0.09227403,0.0556327,-21.770697,790.67748)"
       d="m -75.414363,913.59571 c -3.528537,3.52853 -43.135887,-14.19378 -48.064557,-13.41315 -4.92867,0.78062 -37.121,29.87489 -41.56722,27.60943 -4.44621,-2.26546 0.16936,-45.41079 -2.0961,-49.857 -2.26546,-4.44622 -39.88372,-26.07233 -39.1031,-31.00099 0.78062,-4.92867 43.24056,-13.87164 46.76909,-17.40018 3.52854,-3.52853 12.47151,-45.98846 17.40017,-46.76909 4.92867,-0.78062 26.55478,36.83764 31.001,39.1031 4.44621,2.26546 47.591535,-2.35011 49.856994,2.0961 2.26546,4.44622 -26.828803,36.63855 -27.609427,41.56722 -0.780624,4.92867 16.941686,44.53602 13.41315,48.06456 z" />
    <path
       style="fill:#00fb00;fill-opacity:1;stroke:none;stroke-width:1px;stroke-linecap:butt;stroke-linejoin:miter;stroke-opacity:1"
       d="m 180.22107,857.05862 c 1.8993,4.18835 2.73316,7.64032 3.61842,8.72457 0.88526,1.08426 6.95666,3.28746 7.86338,3.08499 0.90673,-0.20244 4.26287,0.10439 4.26287,0.10439 0,0 0,0 -0.12747,-2.92188 -0.24665,-5.65344 -4.90464,-7.27775 -6.53814,-7.96253 -2.56664,-0.65124 -6.28518,-0.97494 -9.07906,-1.02954 z"
       id="path2043-3"
       sodipodi:nodetypes="csscscc" />
    <path
       style="fill:#00fb00;fill-opacity:1;stroke:none;stroke-width:1px;stroke-linecap:butt;stroke-linejoin:miter;stroke-opacity:1"
       d="m 155.66892,852.71576 c -0.0435,-2.27519 -2.60465,-5.88555 -4.70045,-7.4517 -1.92448,-1.43813 -7.31078,-1.86504 -10.00349,-0.44058 l 1.17301,1.4227 c 1.63142,1.97867 1.65019,3.92377 2.69826,5.16222 1.04808,1.23845 5.17048,2.50932 6.49149,2.20265 1.32101,-0.30668 4.34118,-0.89529 4.34118,-0.89529 z"
       id="path2039"
       sodipodi:nodetypes="cscsssc" />
    <path
       style="fill:#00fb00;fill-opacity:1;stroke:none;stroke-width:1px;stroke-linecap:butt;stroke-linejoin:miter;stroke-opacity:1"
       d="m 157.07148,861.20247 c 2.62545,3.7758 4.06985,7.02004 5.1366,7.92631 1.06676,0.90628 7.43649,1.97513 8.29165,1.61202 0.85516,-0.36309 4.21145,-0.66828 4.21145,-0.66828 0,0 0,0 -0.65379,-2.85065 -1.26502,-5.51561 -6.13996,-6.27073 -7.87037,-6.6488 -2.64209,-0.17632 -6.35786,0.17783 -9.11554,0.6294 z"
       id="path2043"
       sodipodi:nodetypes="csscscc" />
    <path
       style="fill:#00fb00;fill-opacity:1;stroke:none;stroke-width:1px;stroke-linecap:butt;stroke-linejoin:miter;stroke-opacity:1"
       d="m 158.68407,819.0982 c 0,0 -2.45674,1.86361 -2.2778,5.37002 0.17894,3.50641 -1.6825,4.0759 0.28013,6.61833 1.96264,2.54243 5.50995,5.98556 5.50995,5.98556 0,0 0.75714,2.16655 2.18748,-2.52273 1.43035,-4.68928 1.78445,-7.52025 -0.17031,-9.22734 -2.33503,-2.03919 -3.05916,-2.82373 -4.17019,-4.11369 -1.11102,-1.28996 -1.35926,-2.11015 -1.35926,-2.11015 z"
       id="path2049"
       sodipodi:nodetypes="csscsssc" />
    <path
       style="fill:#00fb00;fill-opacity:1;stroke:none;stroke-width:1px;stroke-linecap:butt;stroke-linejoin:miter;stroke-opacity:1"
       d="m 166.74319,845.36738 c -1.27212,-4.41579 -1.40643,-5.79373 -0.48327,-8.31709 0.92313,-2.52336 5.69797,-7.83298 7.21674,-8.55724 1.51875,-0.72425 5.17457,-0.44375 5.17457,-0.44375 0,0 -0.39467,-0.19309 -0.93004,1.89922 -0.53541,2.09228 0.10624,4.03545 0.0105,5.65869 -0.0957,1.62325 -1.18164,4.90693 -2.44414,6.03537 -1.10097,1.1536 -8.54438,3.72479 -8.54438,3.72479 z"
       id="path2047"
       sodipodi:nodetypes="ccscssccc" />
    <path
       style="fill:#00fb00;fill-opacity:1;stroke:none;stroke-width:1px;stroke-linecap:butt;stroke-linejoin:miter;stroke-opacity:1"
       d="m 164.88492,846.45449 c -3.17406,-0.41205 -7.33331,0.70268 -9.06569,-0.45572 -1.73239,-1.15839 -4.80748,-5.59816 -4.80748,-6.17493 0,-0.57677 -1.71338,-3.05529 -1.71338,-3.05529 0,0 2.29506,-1.28848 5.22435,-1.06752 2.92459,0.2206 4.65516,1.72531 6.17866,2.79643 1.1896,1.09246 3.67631,5.2489 5.02833,7.49963 z"
       id="path2041"
       sodipodi:nodetypes="csscsccc" />
    <path
       style="fill:#004400;fill-opacity:1;stroke:#000000;stroke-width:1.00157;stroke-linecap:butt;stroke-linejoin:round;stroke-miterlimit:4;stroke-dasharray:none;stroke-opacity:1"
       d="m 135.61059,869.74477 c 2.11684,0.39329 12.11993,-3.45149 14.24755,-5.97375 2.12762,-2.52225 4.63415,-4.62352 4.67876,-8.61919 0.0446,-3.99568 -2.44507,-5.73165 -2.44507,-5.73165 0,0 2.65712,1.55831 3.09376,4.84745 0.43665,3.28915 -0.0136,5.33083 -0.0136,5.33083 1.05164,-0.70911 3.45218,-3.33204 4.02718,-4.22944 1.46453,-2.28569 5.65768,-5.2757 6.09195,-8.67528 0.18488,-1.44731 -0.51299,-5.4586 -0.778,-6.39694 -0.265,-0.93833 -2.02734,-5.02821 -2.02734,-5.02821 0,0 3.39709,5.834 3.66622,6.93012 0.26912,1.09611 0.40246,5.10366 -0.0434,6.74478 -0.44269,1.62955 -8.99411,11.95223 -8.99411,11.95223 0,0 -0.69376,0.79572 2.64153,-0.0627 1.15906,-0.29831 17.71826,-5.5448 27.07779,-0.6928 -7.78055,-2.1853 -18.48653,-1.62543 -21.83073,-0.47229 -3.56106,1.22792 -12.40027,6.41871 -13.13151,7.12308 -0.73124,0.70437 -14.57219,7.36566 -14.57219,7.36566 z"
       id="path2037"
       sodipodi:nodetypes="csscssssscsscscsscc" />
    <path
       style="fill:#00fb00;fill-opacity:1;stroke:none;stroke-width:1px;stroke-linecap:butt;stroke-linejoin:miter;stroke-opacity:1"
       d="m 160.7463,858.48556 c 0,0 -0.48526,-1.34446 1.07634,-4.5488 1.56161,-3.20434 3.14238,-5.07623 4.81423,-5.69175 1.67186,-0.61553 5.82649,-0.55054 6.50265,-0.92683 0.67615,-0.3763 1.16421,-1.24141 1.16421,-1.24141 0,0 -0.004,0.92004 0.13034,2.78928 0.1342,1.86923 0.0148,3.97238 -3.01341,6.89017 -2.84061,2.73704 -6.47395,3.1265 -6.47395,3.1265 z"
       id="path2045"
       sodipodi:nodetypes="csssccscc" />
    <path
       style="fill:none;stroke:#000000;stroke-width:1.13386;stroke-linecap:round;stroke-linejoin:round;stroke-miterlimit:4;stroke-dasharray:none;stroke-opacity:1"
       d="m 149.42084,880.54825 h 77.43033"
       id="path2051"
       sodipodi:nodetypes="cc" />
    <path
       style="fill:none;stroke:#000000;stroke-width:1.13385827;stroke-linecap:round;stroke-linejoin:round;stroke-opacity:1;stroke-miterlimit:4;stroke-dasharray:none"
       d="M 106.75539,880.54825 H 40.199159"
       id="path2053" />
    <g
       id="g2283-0-3-6"
       transform="translate(-183.3298,22.260436)">
      <circle
         id="path7482-2-07-7"
         style="fill:#ffcc00;fill-opacity:1;stroke:none;stroke-width:0.259195"
         cx="318.00665"
         cy="849.8996"
         r="3.8879318" />
      <circle
         id="path7558-3-86-5"
         style="fill:#ffffff;fill-opacity:1;stroke:none;stroke-width:0.259195"
         cx="318.00665"
         cy="849.8996"
         r="2.5919547" />
    </g>
    <g
       id="g2283-0-3-3"
       transform="translate(-290.98252,30.276633)">
      <circle
         id="path7482-2-07-5"
         style="fill:#ffcc00;fill-opacity:1;stroke:none;stroke-width:0.259195"
         cx="318.00665"
         cy="849.8996"
         r="3.8879318" />
      <circle
         id="path7558-3-86-6"
         style="fill:#ffffff;fill-opacity:1;stroke:none;stroke-width:0.259195"
         cx="318.00665"
         cy="849.8996"
         r="2.5919547" />
    </g>
    <g
       id="g2283-0-3-2"
       transform="translate(-74.982001,30.276633)">
      <circle
         id="path7482-2-07-9"
         style="fill:#ffcc00;fill-opacity:1;stroke:none;stroke-width:0.259195"
         cx="318.00665"
         cy="849.8996"
         r="3.8879318" />
      <circle
         id="path7558-3-86-1"
         style="fill:#ffffff;fill-opacity:1;stroke:none;stroke-width:0.259195"
         cx="318.00665"
         cy="849.8996"
         r="2.5919547" />
    </g>
    <circle
       style="fill:none;fill-opacity:1;stroke:none;stroke-width:0.525;stroke-linecap:round;stroke-linejoin:round;stroke-miterlimit:4;stroke-dasharray:none;stroke-opacity:1"
       id="path1635"
       cx="-778.13367"
       cy="-486.40149"
       transform="rotate(-130.44645)"
       r="89.965225" />
    <text
       xml:space="preserve"
       style="font-style:normal;font-weight:normal;font-size:37.3333px;line-height:1.25;font-family:sans-serif;fill:#000000;fill-opacity:1;stroke:none"
       id="text1639"><textPath
         xlink:href="#path1635"
         id="textPath1641"
         style="font-style:normal;font-variant:normal;font-weight:normal;font-stretch:normal;font-size:37.3333px;font-family:'Politics Head';-inkscape-font-specification:'Politics Head';fill:#ffffff;fill-opacity:1">xroots</textPath></text>
    <circle
       style="fill:none;fill-opacity:1;stroke:none;stroke-width:0.525;stroke-linecap:round;stroke-linejoin:round;stroke-miterlimit:4;stroke-dasharray:none;stroke-opacity:1"
       id="path1644"
       cx="-197.30345"
       cy="896.18622"
       r="114.09878"
       transform="matrix(-0.99758998,-0.0693846,-0.0693846,0.99758998,0,0)" />
    <text
       xml:space="preserve"
       style="font-style:normal;font-weight:normal;font-size:37.3333px;line-height:1.25;font-family:sans-serif;letter-spacing:3.84px;fill:#000000;fill-opacity:1;stroke:none"
       id="text1648"><textPath
         xlink:href="#path1644"
         id="textPath1650"
         style="font-style:normal;font-variant:normal;font-weight:normal;font-stretch:normal;font-size:37.3333px;font-family:'Politics Head';-inkscape-font-specification:'Politics Head';fill:#ffffff;fill-opacity:1">welcome to xhain</textPath></text>
  </g>
</svg>
