<?xml version="1.0" encoding="UTF-8" standalone="no"?>
<!-- Created with Inkscape (http://www.inkscape.org/) -->

<svg
   width="64.874863mm"
   height="64.874512mm"
   viewBox="0 0 64.874863 64.874512"
   version="1.1"
   id="svg1832"
   inkscape:version="1.3 (0e150ed, 2023-07-21)"
   sodipodi:docname="branch-logo-xPress-flat.svg"
   xml:space="preserve"
   inkscape:export-filename="branch-logo-xPress-icon.png"
   inkscape:export-xdpi="195.76149"
   inkscape:export-ydpi="195.76149"
   xmlns:inkscape="http://www.inkscape.org/namespaces/inkscape"
   xmlns:sodipodi="http://sodipodi.sourceforge.net/DTD/sodipodi-0.dtd"
   xmlns="http://www.w3.org/2000/svg"
   xmlns:svg="http://www.w3.org/2000/svg"><sodipodi:namedview
     id="namedview1834"
     pagecolor="#ffffff"
     bordercolor="#666666"
     borderopacity="1.0"
     inkscape:showpageshadow="2"
     inkscape:pageopacity="0.0"
     inkscape:pagecheckerboard="0"
     inkscape:deskcolor="#d1d1d1"
     inkscape:document-units="mm"
     showgrid="false"
     inkscape:zoom="1.4142135"
     inkscape:cx="88.388352"
     inkscape:cy="98.287847"
     inkscape:window-width="1472"
     inkscape:window-height="891"
     inkscape:window-x="0"
     inkscape:window-y="37"
     inkscape:window-maximized="1"
     inkscape:current-layer="svg1832"><inkscape:grid
       type="xygrid"
       id="grid3933"
       spacingx="0.99999999"
       spacingy="0.99999999"
       originx="0"
       originy="0"
       units="mm"
       visible="false" /></sodipodi:namedview><defs
     id="defs1829" /><path
     id="path1942-29"
     style="display:inline;fill:#ffffff;stroke-width:0"
     transform="rotate(-139.5)"
     d="M -22.683741,-3.6682379 A 22.982183,22.982183 0 0 1 -45.665924,19.313946 22.982183,22.982183 0 0 1 -68.648108,-3.6682379 22.982183,22.982183 0 0 1 -45.665924,-26.650421 22.982183,22.982183 0 0 1 -22.683741,-3.6682379 Z"
     inkscape:label="white-bg" /><path
     id="path3092"
     style="display:inline;opacity:1;fill:#83dafa;fill-opacity:1;fill-rule:evenodd;stroke:#000000;stroke-width:0.998546;stroke-linecap:round;stroke-linejoin:round;stroke-miterlimit:100.1;paint-order:stroke fill markers"
     d="M 32.437297 0.49919434 A 31.938158 31.937983 0 0 0 0.49919434 32.437297 A 31.938158 31.937983 0 0 0 32.437297 64.375399 A 31.938158 31.937983 0 0 0 64.375399 32.437297 A 31.938158 31.937983 0 0 0 32.437297 0.49919434 z M 32.437297 10.837581 A 21.599852 21.599733 0 0 1 54.037528 32.437297 A 21.599852 21.599733 0 0 1 49.994364 44.987435 C 50.167888 45.883762 50.158179 46.81401 50.158179 47.405892 A 1.0001 1.0001 0 0 1 49.157206 48.406348 L 46.981112 48.406348 A 21.599852 21.599733 0 0 1 32.437297 54.037012 A 21.599852 21.599733 0 0 1 17.893998 48.406348 L 15.717387 48.406348 A 1.0001 1.0001 0 0 1 14.716931 47.405892 C 14.716931 46.813565 14.708841 45.882918 14.883846 44.992086 A 21.599852 21.599733 0 0 1 10.837581 32.437297 A 21.599852 21.599733 0 0 1 32.437297 10.837581 z "
     inkscape:label="ring" /><path
     style="font-size:4.58611px;line-height:1.95;font-family:'Politics Head';-inkscape-font-specification:'Politics Head, Normal';letter-spacing:0.5715px;fill:#0899ce;stroke-width:0.264583"
     d="m 4.6823558,38.146383 c 0.010916,0.04574 0.04599,0.0673 0.091731,0.05638 l 0.8734345,-0.20845 c 0.045741,-0.01092 0.080814,0.01064 0.091731,0.05638 l 0.099806,0.418203 c 0.1429519,0.598989 0.6296731,0.795929 1.0696576,0.690925 l 0.067522,-0.01611 c 0.524932,-0.125278 0.7831351,-0.499998 0.640703,-1.096809 L 7.371064,37.016642 c -0.010916,-0.04574 -0.04599,-0.0673 -0.091731,-0.05638 l -2.6507976,0.632628 c -0.045741,0.01092 -0.067299,0.04599 -0.056383,0.09173 z m 1.6101441,-0.22772 c -0.010916,-0.04574 0.010642,-0.08081 0.056383,-0.09173 l 0.5205757,-0.124239 c 0.045741,-0.01092 0.080814,0.01064 0.091731,0.05638 l 0.1029253,0.431272 c 0.041066,0.172073 -0.047022,0.33353 -0.2321642,0.377715 l -0.063166,0.01508 c -0.185142,0.04418 -0.3322928,-0.06113 -0.373359,-0.233204 z M 5.908672,42.213037 c 0.015601,0.04436 0.052721,0.06217 0.097083,0.04657 l 0.3950359,-0.138921 c 0.044362,-0.0156 0.062167,-0.05272 0.046566,-0.09708 l -0.372934,-1.060471 c -0.015601,-0.04436 0.0022,-0.08148 0.046566,-0.09708 l 0.4161609,-0.14635 c 0.044362,-0.0156 0.081482,0.0022 0.097083,0.04657 l 0.3060733,0.870347 c 0.015601,0.04436 0.052721,0.06217 0.097083,0.04657 l 0.395036,-0.138922 c 0.044362,-0.0156 0.062167,-0.05272 0.046566,-0.09708 L 7.1729191,40.576822 c -0.015601,-0.04436 0.0022,-0.08148 0.046566,-0.09708 l 0.395036,-0.138921 c 0.044362,-0.0156 0.081482,0.0022 0.097083,0.04657 l 0.3729339,1.060471 c 0.015601,0.04436 0.052721,0.06217 0.097083,0.04657 l 0.3950359,-0.138921 c 0.044362,-0.0156 0.062167,-0.05272 0.046566,-0.09708 L 8.042279,39.606447 c -0.015601,-0.04436 -0.052721,-0.06217 -0.097083,-0.04657 l -2.5709025,0.904104 c -0.044362,0.0156 -0.062167,0.05272 -0.046566,0.09708 z m 0.4467284,1.090209 0.2052433,0.428075 c 0.020331,0.0424 0.059166,0.05607 0.1015698,0.03574 L 7.4880739,43.371093 C 7.7525915,43.244268 8.019709,43.081429 8.1193144,42.993939 l 0.00775,0.01615 c -0.00808,0.0039 -0.073438,0.07991 -0.1370298,0.170003 l -0.9536756,1.460538 c -0.016486,0.02777 -0.015849,0.04982 -0.00326,0.07607 l 0.187817,0.391729 c 0.020331,0.0424 0.059166,0.05607 0.1015698,0.03574 l 2.477581,-1.187894 c 0.042404,-0.02033 0.056068,-0.05917 0.035737,-0.10157 L 9.6305521,43.426627 c -0.020331,-0.0424 -0.059166,-0.05607 -0.1015698,-0.03574 l -0.8298988,0.397901 c -0.2281717,0.109398 -0.5368077,0.299594 -0.7093538,0.436957 l -0.00774,-0.01615 c 0.022377,-0.02066 0.109314,-0.129397 0.1668477,-0.216583 l 1.0110158,-1.475613 c 0.012364,-0.02083 0.012779,-0.04586 1.934e-4,-0.07211 L 8.9702883,42.04952 c -0.020331,-0.0424 -0.059166,-0.05607 -0.1015698,-0.03574 l -2.477581,1.187894 c -0.042404,0.02033 -0.056068,0.05917 -0.035737,0.101569 z m 3.9777456,5.071149 0.174868,-0.121149 c 0.04418,-0.03061 0.07916,-0.01943 0.105943,0.01923 l 0.04081,0.0589 c 0.02678,0.03866 0.06729,0.04601 0.105944,0.01923 l 0.325806,-0.22572 c 0.03866,-0.02678 0.04601,-0.06729 0.01923,-0.105944 l -0.39788,-0.574303 c -0.02678,-0.03866 -0.06729,-0.04601 -0.105943,-0.01923 l -0.6240029,0.432312 c -0.1840717,0.127525 -0.3915666,0.09148 -0.5076149,-0.07603 l -0.043359,-0.06258 c -0.1428286,-0.206161 -0.1053639,-0.403742 0.043734,-0.507038 0.1656645,-0.114773 0.3475219,-0.08821 0.5018278,0.134519 l 0.036983,0.05338 c 0.02678,0.03865 0.06729,0.04601 0.105943,0.01923 l 0.325807,-0.22572 c 0.03866,-0.02678 0.04601,-0.06729 0.01923,-0.105943 l -0.03698,-0.05338 c -0.140278,-0.202479 -0.134105,-0.378381 0.0242,-0.488053 0.138054,-0.09564 0.348099,-0.05592 0.504956,0.17049 l 0.02933,0.04234 c 0.107121,0.15462 0.0909,0.359276 -0.0147,0.497822 -0.02123,0.02833 -0.01811,0.0643 -0.0028,0.08639 0.0051,0.0074 0.01587,0.01897 0.02465,0.02378 l 0.353584,0.250844 c 0.02267,0.01699 0.04377,0.01599 0.06034,0.0045 0.01104,-0.0077 0.01657,-0.01148 0.04757,-0.0493 0.254115,-0.30954 0.250701,-0.778464 7.51e-4,-1.139244 l -0.02933,-0.04234 c -0.363448,-0.524604 -0.875322,-0.630369 -1.252669,-0.368942 -0.2300894,0.159407 -0.3410504,0.380665 -0.2911236,0.602152 0.0061,0.02847 -0.0031,0.03484 -0.010467,0.03994 -0.011044,0.0077 -0.023508,0.0054 -0.041073,-0.0042 -0.2129083,-0.130366 -0.4760459,-0.116965 -0.7263834,0.05647 -0.4123206,0.285657 -0.5087376,0.799227 -0.1401887,1.331194 l 0.039533,0.05706 c 0.334117,0.482267 0.8843689,0.580513 1.3335038,0.269351 z m 1.226097,2.854433 c 0.03226,0.03422 0.07341,0.03543 0.107626,0.0032 l 0.653394,-0.615968 c 0.03422,-0.03226 0.07537,-0.03104 0.107626,0.0032 l 0.294928,0.312847 c 0.422422,0.448088 0.942546,0.376296 1.271686,0.06601 l 0.05051,-0.04762 c 0.392688,-0.370195 0.429822,-0.823743 0.0089,-1.270201 l -0.726565,-0.770711 c -0.03226,-0.03422 -0.07341,-0.03543 -0.107627,-0.0032 l -1.982992,1.869408 c -0.03422,0.03226 -0.03543,0.07341 -0.0032,0.107627 z m 1.282517,-0.999786 c -0.03226,-0.03422 -0.03105,-0.07537 0.0032,-0.107626 l 0.389429,-0.367123 c 0.03422,-0.03226 0.07537,-0.03104 0.107626,0.0032 l 0.304144,0.322623 c 0.12135,0.128723 0.125434,0.312602 -0.01307,0.443169 l -0.04725,0.04455 c -0.1385,0.130567 -0.318559,0.112585 -0.43991,-0.01614 z m 1.468059,2.249984 c -0.0305,-0.02635 -0.02726,-0.04723 -0.0031,-0.06486 l 0.829044,-0.56213 0.0685,-0.06215 0.0593,0.05124 -0.05156,0.07679 -0.437644,0.90034 c -0.01395,0.02642 -0.03583,0.03119 -0.06633,0.0048 z m 0.1536,0.887404 c 0.02542,0.02196 0.03096,0.03267 0.0214,0.05401 l -0.179513,0.368716 c -0.0096,0.02134 -0.005,0.04006 0.01362,0.05616 l 0.420204,0.363101 c 0.02541,0.02196 0.0446,0.02374 0.05924,0.0068 0.0044,-0.0051 0.0073,-0.0085 0.01272,-0.02157 l 1.20538,-2.651903 c 0.01372,-0.02958 0.0019,-0.06047 -0.02347,-0.08243 l -0.513394,-0.443626 c -0.02542,-0.02196 -0.05769,-0.02913 -0.08497,-0.01127 0,0 -2.429554,1.561533 -2.43564,1.565152 -0.01071,0.0055 -0.02727,0.01787 -0.0346,0.02634 -0.01464,0.01694 -0.0084,0.03713 0.01701,0.05909 l 0.418509,0.361636 c 0.01694,0.01464 0.03613,0.01642 0.05585,0.0039 l 0.338784,-0.23109 c 0.01972,-0.01255 0.02943,-0.01008 0.05654,0.01334 z m 1.448782,1.697177 c 0.03863,0.02681 0.07915,0.01949 0.105958,-0.01914 l 0.511947,-0.737732 c 0.02681,-0.03863 0.06732,-0.04595 0.105958,-0.01914 l 0.353229,0.245122 c 0.505926,0.351086 0.999975,0.173325 1.257863,-0.1983 l 0.03958,-0.05703 c 0.307679,-0.443375 0.250254,-0.894803 -0.253833,-1.244612 l -0.870193,-0.603868 c -0.03863,-0.02681 -0.07915,-0.01949 -0.105958,0.01914 l -1.553715,2.238954 c -0.02681,0.03863 -0.01949,0.07915 0.01914,0.105958 z m 1.048139,-1.243312 c -0.03863,-0.02681 -0.04595,-0.06732 -0.01914,-0.105958 l 0.305126,-0.439696 c 0.02681,-0.03863 0.06732,-0.04595 0.105958,-0.01914 l 0.364267,0.252782 c 0.145338,0.100857 0.187345,0.27992 0.07883,0.436297 l -0.03702,0.05335 c -0.108518,0.156377 -0.288405,0.176006 -0.433744,0.07515 z m 2.577323,3.456355 c 0.04121,0.02266 0.08074,0.01118 0.103401,-0.03003 l 0.201776,-0.366933 c 0.02266,-0.04121 0.01118,-0.08074 -0.03003,-0.103401 l -0.985027,-0.541664 c -0.04121,-0.02266 -0.05269,-0.0622 -0.03003,-0.103402 l 0.212565,-0.386554 c 0.02266,-0.04121 0.06219,-0.05269 0.103402,-0.03003 l 0.808428,0.444554 c 0.04121,0.02266 0.08074,0.01118 0.103401,-0.03003 l 0.201776,-0.366932 c 0.02266,-0.04121 0.01118,-0.08074 -0.03003,-0.103402 l -0.808428,-0.444553 c -0.04121,-0.02266 -0.05269,-0.0622 -0.03003,-0.103401 l 0.201776,-0.366933 c 0.02266,-0.04121 0.06219,-0.05269 0.103401,-0.03003 l 0.985027,0.541664 c 0.04121,0.02266 0.08074,0.01118 0.103401,-0.03003 l 0.201776,-0.366933 c 0.02266,-0.04121 0.01118,-0.08074 -0.03003,-0.103401 L 19.38975,53.911429 c -0.04121,-0.02266 -0.08074,-0.01118 -0.103401,0.03003 l -1.313159,2.388003 c -0.02266,0.04121 -0.01118,0.08074 0.03003,0.103401 z m 2.781034,-0.578641 -0.493738,-0.206537 c -0.04338,-0.01815 -0.059,-0.05624 -0.04086,-0.09962 l 0.186661,-0.446223 c 0.01815,-0.04338 0.05624,-0.059 0.09962,-0.04086 l 0.493737,0.206538 c 0.163202,0.06827 0.243417,0.230474 0.182061,0.377149 l -0.03025,0.07231 c -0.06136,0.146675 -0.23817,0.203788 -0.39724,0.137246 z m -1.716848,1.092615 0.437959,0.183205 c 0.04338,0.01815 0.08147,0.0025 0.09962,-0.04086 l 0.373323,-0.892445 c 0.01815,-0.04338 0.05624,-0.059 0.09962,-0.04086 l 0.357391,0.149502 c 0.01859,0.0078 0.03166,0.02295 0.03128,0.04707 l -0.0033,1.139462 c 8.24e-4,0.02705 0.01096,0.04342 0.02749,0.05034 l 0.499934,0.20913 c 0.03305,0.01383 0.05649,0.0042 0.06341,-0.01231 0.0069,-0.01653 0.0099,-0.04684 0.0094,-0.098 l 0.0073,-1.154787 c 7.16e-4,-0.01912 0.0018,-0.03324 0.0087,-0.04977 0.0069,-0.01653 0.02243,-0.0246 0.04827,-0.02836 0.298064,-0.04523 0.499494,-0.213411 0.619614,-0.500564 0.20913,-0.499935 0.02527,-0.948228 -0.503582,-1.169456 l -1.065977,-0.445914 c -0.04338,-0.01815 -0.08147,-0.0025 -0.09962,0.04086 l -1.0517,2.514134 c -0.01815,0.04338 -0.0025,0.08147 0.04086,0.09962 z m 14.143287,2.514029 0.319041,-0.02748 c 0.606846,-0.05227 0.887058,-0.400061 0.845357,-0.884199 l -0.06495,-0.754095 c -0.004,-0.04685 -0.03554,-0.07336 -0.08239,-0.06932 l -0.89019,0.07668 c -0.04685,0.004 -0.07336,0.03554 -0.06932,0.08239 l 0.02979,0.345813 c 0.004,0.04685 0.03554,0.07336 0.08239,0.06932 l 0.287806,-0.02479 c 0.04685,-0.004 0.07835,0.02247 0.08239,0.06932 l 0.01633,0.18964 c 0.01441,0.167328 -0.08542,0.313031 -0.263902,0.328405 l -0.341351,0.0294 c -0.176253,0.01518 -0.30099,-0.102187 -0.316171,-0.27844 l -0.104348,-1.211461 c -0.01422,-0.165098 0.08542,-0.313031 0.263901,-0.328405 l 0.330196,-0.02844 c 0.187408,-0.01614 0.307149,0.04322 0.367453,0.195358 0.01404,0.03251 0.04681,0.04766 0.07358,0.04536 0,0 0.02212,-0.0042 0.03289,-0.0096 l 0.393369,-0.182224 c 0.026,-0.01123 0.03562,-0.03004 0.03389,-0.05012 -0.0012,-0.01339 -0.0017,-0.02008 -0.01915,-0.06578 -0.133952,-0.354821 -0.484826,-0.540369 -0.931036,-0.501935 l -0.330196,0.02844 c -0.604615,0.05208 -0.887058,0.400061 -0.845358,0.884199 l 0.115879,1.345324 c 0.04324,0.501986 0.357178,0.780619 0.984103,0.726619 z m 2.305374,-0.317884 1.638454,-0.314086 c 0.04618,-0.0089 0.06929,-0.04292 0.06044,-0.08911 l -0.07884,-0.411263 c -0.0089,-0.04618 -0.04292,-0.06929 -0.08911,-0.06044 l -1.02266,0.196041 c -0.04618,0.0089 -0.08026,-0.01426 -0.08911,-0.06044 l -0.409787,-2.137688 c -0.0089,-0.04618 -0.04293,-0.06929 -0.08911,-0.06044 l -0.466244,0.08938 c -0.04619,0.0089 -0.06929,0.04292 -0.06044,0.08911 l 0.517293,2.698501 c 0.0089,0.04619 0.04293,0.06929 0.08911,0.06044 z m 2.756418,-0.603808 0.457483,-0.126811 c 0.04532,-0.01256 0.06559,-0.04839 0.05303,-0.09371 l -0.733946,-2.647796 c -0.01256,-0.04532 -0.04839,-0.06559 -0.09371,-0.05303 l -0.457484,0.126811 c -0.04532,0.01256 -0.06559,0.04839 -0.05303,0.09371 l 0.733946,2.647796 c 0.01256,0.04532 0.04839,0.06559 0.09371,0.05303 z m 2.179986,-0.679619 0.445838,-0.163096 c 0.04416,-0.01616 0.0615,-0.0535 0.04535,-0.09766 L 41.73801,56.419489 c -0.01616,-0.04416 0.0012,-0.0815 0.04534,-0.09766 l 0.471075,-0.172328 c 0.04416,-0.01616 0.0615,-0.0535 0.04534,-0.09766 l -0.143863,-0.393263 c -0.01616,-0.04416 -0.0535,-0.0615 -0.09766,-0.04535 l -1.673998,0.612381 c -0.04416,0.01616 -0.0615,0.0535 -0.04535,0.09766 l 0.143863,0.393263 c 0.01616,0.04416 0.0535,0.0615 0.09766,0.04535 l 0.471075,-0.172328 c 0.04416,-0.01616 0.0815,0.0012 0.09766,0.04534 l 0.740088,2.023098 c 0.01616,0.04416 0.0535,0.0615 0.09766,0.04534 z m 2.546128,-1.048908 0.42798,-0.205441 c 0.04239,-0.02035 0.05604,-0.05919 0.03569,-0.101586 l -0.932237,-1.942058 c -0.02035,-0.04239 -0.0067,-0.08124 0.03569,-0.101586 l 0.452205,-0.21707 c 0.04239,-0.02035 0.05604,-0.05919 0.03569,-0.101586 l -0.181214,-0.37751 c -0.02035,-0.04239 -0.05919,-0.05604 -0.101586,-0.03569 l -1.606942,0.771372 c -0.04239,0.02035 -0.05604,0.05919 -0.03569,0.101587 l 0.181214,0.37751 c 0.02035,0.04239 0.05919,0.05604 0.101586,0.03569 l 0.452205,-0.21707 c 0.04239,-0.02035 0.08124,-0.0067 0.101586,0.03569 l 0.932237,1.942058 c 0.02035,0.04239 0.05919,0.05604 0.101586,0.03569 z m 3.499542,-1.939619 c 0.04015,-0.02448 0.04985,-0.06449 0.02537,-0.104643 L 47.839934,55.25265 c -0.02448,-0.04015 -0.06449,-0.04985 -0.104643,-0.02537 l -0.959766,0.585258 c -0.04015,0.02448 -0.08016,0.01478 -0.104643,-0.02537 l -0.229673,-0.376641 c -0.02448,-0.04015 -0.01479,-0.08016 0.02537,-0.104644 l 0.787696,-0.480331 c 0.04015,-0.02448 0.04985,-0.06449 0.02537,-0.104643 l -0.218015,-0.357522 c -0.02448,-0.04015 -0.06449,-0.04985 -0.104643,-0.02537 l -0.787697,0.480332 c -0.04015,0.02448 -0.08016,0.01478 -0.104643,-0.02537 l -0.218014,-0.357523 c -0.02448,-0.04015 -0.01478,-0.08016 0.02537,-0.104643 l 0.959766,-0.585258 c 0.04015,-0.02448 0.04985,-0.06449 0.02537,-0.104643 l -0.218014,-0.357522 c -0.02448,-0.04015 -0.06449,-0.04985 -0.104643,-0.02537 l -1.495094,0.911697 c -0.04015,0.02448 -0.04985,0.06449 -0.02537,0.104643 l 1.418843,2.326764 c 0.02448,0.04015 0.06449,0.04985 0.104643,0.02537 z m 0.880876,-2.700555 -0.42471,0.325662 c -0.03732,0.02861 -0.07813,0.02323 -0.106747,-0.01409 L 48.08768,52.941993 c -0.02861,-0.03732 -0.02323,-0.07813 0.01409,-0.106747 l 0.424709,-0.325662 c 0.140385,-0.107646 0.321002,-0.09658 0.417747,0.02959 l 0.04769,0.0622 c 0.09674,0.126169 0.05837,0.307972 -0.07846,0.412893 z m 0.09422,2.032854 0.37673,-0.288872 c 0.03732,-0.02862 0.0427,-0.06943 0.01409,-0.106748 L 48.80986,53.883818 c -0.02862,-0.03732 -0.02323,-0.07813 0.01409,-0.106747 l 0.307426,-0.235731 c 0.01599,-0.01226 0.03566,-0.01606 0.05639,-0.0037 l 0.986944,0.569495 c 0.02387,0.01273 0.04313,0.01208 0.05734,0.0012 l 0.43004,-0.32975 c 0.02843,-0.0218 0.03175,-0.04692 0.02085,-0.06114 -0.0109,-0.01422 -0.03572,-0.03187 -0.08033,-0.05692 l -0.99826,-0.580572 c -0.01623,-0.01013 -0.02796,-0.01807 -0.03886,-0.03228 -0.0109,-0.01422 -0.01019,-0.03169 -5.97e-4,-0.05598 0.108976,-0.281091 0.06323,-0.539483 -0.126177,-0.78649 -0.32975,-0.43004 -0.810114,-0.493447 -1.265033,-0.144621 l -0.916946,0.703104 c -0.03732,0.02861 -0.04271,0.06943 -0.01409,0.106747 l 1.658289,2.162643 c 0.02862,0.03732 0.06943,0.0427 0.106747,0.01409 z m 4.04609,-4.844033 -0.154171,-0.146586 c -0.03895,-0.03703 -0.03512,-0.07356 -0.0027,-0.107639 l 0.04938,-0.05193 c 0.0324,-0.03408 0.03137,-0.07524 -0.0027,-0.107639 l -0.287245,-0.273113 c -0.03408,-0.0324 -0.07524,-0.03137 -0.107639,0.0027 l -0.481418,0.506329 c -0.0324,0.03408 -0.03137,0.07524 0.0027,0.107639 l 0.550146,0.52308 c 0.162285,0.154301 0.169178,0.364791 0.02876,0.51247 l -0.05246,0.05518 c -0.172817,0.181759 -0.373889,0.185246 -0.50534,0.06026 -0.146056,-0.138871 -0.157019,-0.322331 0.02969,-0.518696 l 0.04475,-0.04706 c 0.0324,-0.03408 0.03137,-0.07524 -0.0027,-0.107639 l -0.287245,-0.273112 c -0.03408,-0.0324 -0.07524,-0.03137 -0.107639,0.0027 l -0.04475,0.04706 c -0.169731,0.178513 -0.343214,0.208232 -0.48278,0.07553 -0.121713,-0.115726 -0.12552,-0.329461 0.06427,-0.529072 l 0.03549,-0.03733 c 0.129613,-0.13632 0.333292,-0.162048 0.490415,-0.08681 0.03206,0.01503 0.06664,0.0047 0.08516,-0.01482 0.0062,-0.0065 0.01535,-0.0194 0.01828,-0.02897 l 0.17372,-0.397197 c 0.01203,-0.02565 0.0068,-0.04611 -0.0078,-0.05999 -0.0097,-0.0093 -0.01461,-0.01389 -0.05794,-0.03655 -0.354738,-0.185878 -0.813175,-0.0872 -1.115604,0.230879 l -0.03549,0.03732 c -0.439757,0.462513 -0.439246,0.985198 -0.106562,1.301515 0.202856,0.192876 0.442052,0.256537 0.648763,0.162623 0.02663,-0.01176 0.03475,-0.004 0.04124,0.0021 0.0097,0.0093 0.01006,0.02192 0.0042,0.04108 -0.08436,0.234966 -0.01774,0.489883 0.202967,0.699732 0.363519,0.345634 0.885965,0.335626 1.331895,-0.133378 l 0.04783,-0.05031 c 0.404268,-0.425187 0.388593,-0.983921 -0.0074,-1.360415 z m 2.749279,-1.993497 0.181952,-0.263506 c 0.346092,-0.501213 0.256334,-0.93873 -0.143531,-1.214839 l -0.622831,-0.43007 c -0.0387,-0.02672 -0.07919,-0.01931 -0.105913,0.01939 l -0.507686,0.735236 c -0.02672,0.0387 -0.01931,0.07919 0.01939,0.105913 l 0.285617,0.197221 c 0.0387,0.02672 0.07919,0.01931 0.105913,-0.01939 l 0.164139,-0.237708 c 0.02672,-0.0387 0.06722,-0.04611 0.105914,-0.01939 l 0.156629,0.108154 c 0.138202,0.09543 0.186987,0.26518 0.08519,0.412596 l -0.194677,0.281932 c -0.100519,0.145573 -0.270445,0.167024 -0.416018,0.0665 l -1.000583,-0.690911 c -0.13636,-0.09416 -0.186987,-0.26518 -0.08519,-0.412596 l 0.188314,-0.272719 c 0.106881,-0.154786 0.228897,-0.20932 0.384606,-0.158949 0.034,0.0099 0.06656,-0.0057 0.08183,-0.02786 0,0 0.01088,-0.0197 0.01356,-0.03146 l 0.109958,-0.419348 c 0.0079,-0.0272 -4.81e-4,-0.0466 -0.01707,-0.05805 -0.01106,-0.0076 -0.01658,-0.01145 -0.06292,-0.02712 -0.35889,-0.122637 -0.725375,0.02978 -0.979854,0.398314 l -0.188315,0.272719 c -0.344819,0.499371 -0.256334,0.93873 0.143531,1.21484 l 1.111146,0.767254 c 0.414606,0.286289 0.829352,0.221627 1.186895,-0.29617 z m 1.222784,-1.980052 0.801063,-1.46338 c 0.02258,-0.04125 0.01102,-0.08076 -0.03023,-0.103344 l -0.367318,-0.201072 c -0.04125,-0.02258 -0.08076,-0.01102 -0.103344,0.03023 l -0.499993,0.913384 c -0.02258,0.04125 -0.06209,0.05281 -0.103343,0.03023 l -1.909269,-1.045146 c -0.04125,-0.02258 -0.08076,-0.01102 -0.103343,0.03023 l -0.227954,0.416425 c -0.02258,0.04125 -0.01102,0.08076 0.03023,0.103344 l 2.410156,1.319335 c 0.04125,0.02258 0.08076,0.01102 0.103344,-0.03023 z m 1.644505,-3.206946 0.123264,-0.295547 c 0.234461,-0.562158 0.0558,-0.971497 -0.392685,-1.158549 l -1.901418,-0.793028 c -0.0434,-0.0181 -0.08148,-0.0024 -0.09958,0.04096 l -0.182741,0.438153 c -0.0181,0.0434 -0.0024,0.08148 0.04096,0.09958 l 1.839416,0.767169 c 0.154145,0.06672 0.23798,0.220569 0.169021,0.385909 l -0.123265,0.295547 c -0.0681,0.163274 -0.229863,0.219545 -0.393137,0.151448 l -1.839416,-0.767169 c -0.0434,-0.0181 -0.08148,-0.0024 -0.09958,0.04096 l -0.182742,0.438152 c -0.0181,0.0434 -0.0024,0.08148 0.04096,0.09958 l 1.901419,0.793028 c 0.465021,0.193948 0.856434,0.04663 1.099515,-0.536193 z m 1.309746,-3.947115 c 0.01331,-0.0451 -0.0064,-0.08126 -0.05148,-0.09457 L 59.52698,38.86239 c -0.0451,-0.01331 -0.08126,0.0064 -0.09457,0.05148 l -0.318138,1.078177 c -0.01331,0.0451 -0.04947,0.06479 -0.09457,0.05148 L 58.59659,39.918674 c -0.0451,-0.01331 -0.06479,-0.04947 -0.05148,-0.09457 l 0.261102,-0.884879 c 0.01331,-0.0451 -0.0064,-0.08126 -0.05148,-0.09457 l -0.401632,-0.11851 c -0.0451,-0.01331 -0.08126,0.0064 -0.09457,0.05148 l -0.261101,0.884879 c -0.01331,0.0451 -0.04947,0.06479 -0.09457,0.05148 l -0.401631,-0.118509 c -0.0451,-0.01331 -0.06479,-0.04947 -0.05148,-0.09457 l 0.318138,-1.078178 c 0.01331,-0.0451 -0.0064,-0.08126 -0.05148,-0.09457 l -0.401632,-0.118509 c -0.0451,-0.01331 -0.08126,0.0064 -0.09457,0.05148 l -0.495585,1.679551 c -0.01331,0.0451 0.0064,0.08126 0.05148,0.09457 l 2.613829,0.771263 c 0.0451,0.01331 0.08126,-0.0064 0.09457,-0.05148 z"
     id="text1875-2-8"
     inkscape:label="PEN &amp; PAPER ..."
     aria-label="           Pen &amp; Paper        Glitter &amp; Glue" /><circle
     style="fill:none;fill-opacity:1;stroke:none;stroke-width:0.264583;stroke-opacity:1"
     id="path1942-2-7"
     cx="-40.024204"
     cy="21.642046"
     transform="matrix(-0.96064592,-0.27777582,-0.27777582,0.96064592,0,0)"
     r="30.04505" /><g
     id="text1875-3"
     style="font-size:11.2889px;line-height:0;letter-spacing:0.267229px;stroke:#000000;stroke-width:0.13;stroke-opacity:0.511173;fill:#f9f9f9;fill-opacity:1"
     inkscape:label="PRESS"
     aria-label="   press"><path
       style="line-height:1.35;font-family:'Politics Head';-inkscape-font-specification:'Politics Head';fill:#f9f9f9;fill-opacity:1"
       d="m 22.020724,11.892238 c 0.105447,-0.04775 0.141164,-0.142588 0.09341,-0.248035 L 21.202321,9.6306607 c -0.04775,-0.1054473 -0.01203,-0.2002843 0.09341,-0.2480353 l 0.96409,-0.4365799 C 23.640683,8.3207357 23.889274,7.0524228 23.429956,6.0381197 L 23.359466,5.8824593 C 22.811467,4.6723254 21.785218,4.2233528 20.409381,4.8463888 l -2.375076,1.0755328 c -0.105447,0.047751 -0.141164,0.142588 -0.09341,0.2480354 l 2.76728,6.110925 c 0.04775,0.105447 0.142588,0.141164 0.248035,0.09341 z M 20.718176,8.1072146 c -0.105448,0.047751 -0.200285,0.012034 -0.248036,-0.093413 L 19.926689,6.81371 c -0.04775,-0.1054473 -0.01203,-0.2002844 0.09341,-0.2480353 l 0.994218,-0.450223 c 0.396682,-0.1796345 0.828044,-0.042168 1.021321,0.3846428 l 0.06594,0.1456177 c 0.193278,0.4268108 0.0075,0.8316449 -0.38919,1.0112793 z"
       id="path1" /><path
       style="line-height:1.35;fill:#f9f9f9;fill-opacity:1"
       d="M 28.815373,5.5772206 27.51307,5.776133 C 27.398642,5.7936107 27.316986,5.7335937 27.299508,5.6191654 L 27.119738,4.442189 c -0.01748,-0.1144282 0.04254,-0.1960843 0.156968,-0.213562 l 1.302302,-0.1989124 c 0.430468,-0.065749 0.806966,0.1722774 0.866057,0.5591539 l 0.02913,0.1907137 c 0.05909,0.3868765 -0.239251,0.7335536 -0.658821,0.7976384 z m -2.20714,4.4968754 1.155181,-0.1764409 c 0.114428,-0.017478 0.174445,-0.099134 0.156967,-0.213562 l -0.35954,-2.3539527 c -0.01748,-0.1144283 0.04254,-0.1960844 0.156968,-0.213562 l 0.94267,-0.1439827 c 0.04904,-0.00749 0.09596,0.00765 0.126081,0.058808 l 1.453714,2.3987208 c 0.0364,0.055777 0.0787,0.077196 0.122296,0.070538 l 1.318649,-0.2014093 c 0.08718,-0.013316 0.124117,-0.063566 0.117459,-0.1071579 -0.0067,-0.043592 -0.03927,-0.1110992 -0.105792,-0.218037 L 30.227897,6.5380269 c -0.023,-0.041095 -0.0389,-0.072124 -0.04556,-0.1157158 -0.0067,-0.043592 0.01559,-0.080447 0.06509,-0.1214634 0.568372,-0.4771385 0.77606,-1.0887734 0.660375,-1.8461795 -0.20141,-1.3186495 -1.162438,-2.0250039 -2.557373,-1.8119428 l -2.811666,0.4294511 c -0.114429,0.017478 -0.174446,0.099134 -0.156968,0.213562 l 1.012872,6.6313902 c 0.01748,0.1144283 0.09913,0.1744453 0.213562,0.1569673 z m 11.71153,0.06632 c 0.114211,0.01885 0.196581,-0.04019 0.215429,-0.1543962 l 0.167841,-1.017017 C 38.721882,8.8547963 38.662848,8.7724265 38.548637,8.7535781 L 35.818463,8.3030106 C 35.704253,8.2841621 35.645219,8.2017923 35.664068,8.0875818 l 0.176816,-1.071403 c 0.01885,-0.1142104 0.101218,-0.1732441 0.215429,-0.1543956 l 2.2407,0.3697885 c 0.114211,0.018848 0.196581,-0.040185 0.215429,-0.1543957 l 0.167841,-1.0170171 c 0.01885,-0.1142104 -0.04019,-0.1965802 -0.154396,-0.2154287 l -2.2407,-0.3697885 C 36.170976,5.4560933 36.111943,5.3737235 36.130791,5.259513 L 36.298632,4.242496 C 36.31748,4.1282855 36.39985,4.0692519 36.514061,4.0881003 l 2.730174,0.4505675 c 0.11421,0.018848 0.19658,-0.040185 0.215428,-0.1543957 l 0.167841,-1.017017 C 39.646353,3.2530446 39.587319,3.1706748 39.473109,3.1518264 L 35.220128,2.4499463 c -0.11421,-0.018848 -0.19658,0.040185 -0.215429,0.1543957 l -1.092312,6.6187687 c -0.01885,0.1142105 0.04019,0.1965803 0.154396,0.2154287 z m 3.779893,1.620335 c 1.426553,0.67099 2.620843,0.294648 3.183911,-0.902459 0.410571,-0.8728906 0.116422,-1.827502 -0.999222,-2.900485 -0.68664,-0.6640886 -0.847476,-0.9955806 -0.697325,-1.3148092 0.154844,-0.3292045 0.553526,-0.4645291 1.037356,-0.2369555 0.433952,0.2041124 0.664324,0.556128 0.661464,0.9507281 -2.76e-4,0.091242 0.04081,0.1592991 0.100666,0.1874525 0.02494,0.011731 0.05222,0.018473 0.08186,0.020228 l 1.062651,0.097789 c 0.06924,0.0082 0.112948,-0.019971 0.134063,-0.064863 0.01408,-0.029928 0.02112,-0.044892 0.04046,-0.1637151 C 46.79865,6.4845558 46.245757,5.6397183 45.188313,5.142341 43.841567,4.5088888 42.575415,4.9732591 42.150768,5.8760774 41.688582,6.858703 41.95515,7.7942498 43.120081,8.8660499 c 0.713631,0.6585092 0.818732,1.0307919 0.668581,1.3500201 -0.166575,0.354145 -0.557922,0.486827 -1.071681,0.245177 -0.55865,-0.262765 -0.776995,-0.6273986 -0.774727,-1.0466427 2.76e-4,-0.091242 -0.04081,-0.1592991 -0.100666,-0.1874525 -0.02494,-0.011731 -0.05222,-0.018473 -0.08186,-0.020228 L 40.630778,9.120589 c -0.06924,-0.0082 -0.112948,0.019971 -0.134064,0.064863 -0.01408,0.029928 -0.02111,0.044892 -0.04045,0.1637151 -0.139763,0.957627 0.491182,1.869635 1.643397,2.411588 z m 5.155476,3.344556 c 1.196419,1.026578 2.4478,0.981787 3.309264,-0.0222 0.628151,-0.732075 0.598775,-1.730546 -0.190929,-3.061831 -0.48505,-0.822931 -0.551825,-1.185279 -0.322101,-1.453009 0.236902,-0.276097 0.657223,-0.300392 1.063001,0.04778 0.363946,0.312281 0.492282,0.712925 0.384467,1.092522 -0.02456,0.08787 -0.0031,0.164414 0.04713,0.207488 0.02092,0.01795 0.04542,0.03171 0.07352,0.04129 l 0.99826,0.377181 c 0.06456,0.02634 0.114189,0.01082 0.146494,-0.02683 0.02154,-0.0251 0.03231,-0.03765 0.08258,-0.147035 0.342447,-0.890062 0.03444,-1.851609 -0.852415,-2.6125691 -1.129487,-0.9691471 -2.473573,-0.8586384 -3.12326,-0.1014642 -0.707119,0.8241063 -0.699252,1.7968573 0.138276,3.1401253 0.512551,0.824738 0.514742,1.211566 0.285019,1.479296 -0.25485,0.297014 -0.667398,0.320715 -1.098276,-0.049 -0.468528,-0.402016 -0.581912,-0.811621 -0.468106,-1.21513 0.02456,-0.08788 0.0031,-0.164414 -0.04713,-0.207488 -0.02092,-0.01795 -0.04542,-0.03171 -0.07352,-0.04129 L 46.54219,12.169362 c -0.06456,-0.02634 -0.114189,-0.01082 -0.146494,0.02683 -0.02154,0.0251 -0.03231,0.03765 -0.08258,0.147035 -0.389677,0.885852 -0.02432,1.932925 0.942019,2.762085 z"
       id="path2" /></g><path
     d="m 12.278961,11.825945 c -0.06538,-0.02225 -0.124613,-0.0052 -0.193593,0.05821 l -1.046826,0.962615 c -0.04057,0.03731 -0.04319,0.09962 -0.01334,0.132079 0.02239,0.02435 0.04509,0.04091 0.06441,0.04561 l 3.026383,0.652647 c 0.03083,0.0091 0.0576,0.02192 0.08371,0.05032 0.01866,0.02029 0.03699,0.04836 0.04687,0.09169 l 0.483568,3.335374 c 0.0065,0.03148 0.02075,0.06329 0.03941,0.08357 0.04104,0.04463 0.0881,0.0388 0.15302,-0.02089 l 1.046826,-0.962615 c 0.08926,-0.08208 0.100316,-0.159643 0.07648,-0.242564 -0.273471,-0.774273 -0.129621,-1.24551 -0.483135,-2.087717 l 0.02434,-0.02238 c 0.850076,0.405869 1.237649,0.284253 2.024969,0.669913 0.07658,0.03442 0.150731,0.03363 0.239999,-0.04846 L 18.915123,13.5458 c 0.0568,-0.05223 0.08278,-0.113565 0.04174,-0.158197 -0.01866,-0.02029 -0.0339,-0.02874 -0.07252,-0.03815 l -3.060941,-0.6658 c -0.03862,-0.0094 -0.0735,-0.01478 -0.09962,-0.04318 -0.02612,-0.0284 -0.0326,-0.05989 -0.03909,-0.09136 L 15.207282,9.2530037 c -0.0071,-0.015895 -0.02547,-0.043976 -0.04412,-0.064264 -0.02985,-0.032459 -0.09556,-0.046921 -0.140195,-0.00587 l -1.099573,1.0111194 c -0.0568,0.05223 -0.09057,0.113238 -0.07014,0.184313 0.247655,0.80044 0.169432,1.380063 0.496289,2.078567 l -0.02434,0.02238 C 13.487104,12.091903 13.11947,12.145806 12.278961,11.825945 Z"
     style="font-size:11.2889px;line-height:1;font-family:'Politics Head';-inkscape-font-specification:'Politics Head';fill:#ffffff;fill-opacity:1;stroke-width:0.13;stroke-dasharray:none;stroke:#000000;stroke-opacity:0.51117319"
     id="path14056"
     sodipodi:nodetypes="csssccsccsssccccsssccsccssscccc"
     inkscape:label="x" /><g
     id="g6719"
     inkscape:label="press"
     transform="matrix(1.1942785,0,0,1.1942785,-6.3018953,-6.3018612)"
     style="display:inline"><path
       id="path4047"
       style="opacity:1;fill:#000000;fill-opacity:1;fill-rule:evenodd;stroke:#000000;stroke-width:0;stroke-linecap:round;stroke-linejoin:round;stroke-miterlimit:100.1;stroke-dasharray:none;paint-order:stroke fill markers"
       d="m 31.437358,21.922512 v 0.499711 l 1.999878,0.500228 v -0.500228 z m 0,0.754476 v 0.499711 l 1.999878,0.500228 v -0.500228 z m 0,0.754476 v 0.499711 l 1.999878,0.500228 v -0.500228 z m 0,0.754476 v 0.500228 l 1.999878,0.499711 v -0.499711 z m 0,0.754476 v 0.500228 l 1.999878,0.499711 v -0.499711 z m 0,0.754476 v 0.500227 l 1.999878,0.499712 v -0.499712 z m 0,0.754476 v 0.500227 l 1.999878,0.499711 v -0.499711 z m 0,0.754475 v 0.500228 l 1.999878,0.500228 v -0.500228 z m 0,2.431893 v 0.499711 l 1.999878,0.500228 v -0.500228 z m 0,0.754476 v 0.499711 l 1.999878,0.500228 v -0.500228 z m 0,0.754476 v 0.499711 l 1.999878,0.500228 v -0.500228 z m 0,0.754476 v 0.500228 l 1.999878,0.499711 v -0.499711 z m 0,0.754476 v 0.500228 l 1.999878,0.499711 v -0.499711 z m 0,0.754476 v 0.500228 l 1.999878,0.499711 v -0.499711 z m 0,0.754476 v 0.500228 l 1.999878,0.499711 V 34.66282 Z m 0,0.754476 v 0.500228 l 1.999878,0.500227 v -0.500227 z"
       inkscape:label="thread" /><path
       id="path3989"
       style="opacity:1;fill:#0899ce;fill-opacity:1;fill-rule:evenodd;stroke:#000000;stroke-width:0.16746513;stroke-linecap:round;stroke-linejoin:round;stroke-miterlimit:100.1;stroke-dasharray:none;paint-order:stroke fill markers"
       d="M 31.274653 19.330374 C 30.456896 19.330374 30.437825 19.486869 30.437379 20.274092 L 24.320731 20.823621 C 24.087158 20.266133 23.541831 19.903309 22.93739 19.903268 C 22.108832 19.903176 21.437127 20.574882 21.437219 21.403439 C 21.437412 22.231795 22.109034 22.90327 22.93739 22.903178 C 23.541455 22.902721 24.086438 22.539966 24.319866 21.982825 L 30.437379 22.533219 L 34.43769 22.533219 L 40.555203 21.982825 C 40.788631 22.539966 41.333182 22.902721 41.937247 22.903178 C 42.765601 22.90327 43.437225 22.231794 43.437418 21.403439 C 43.43751 20.574883 42.765803 19.903176 41.937247 19.903268 C 41.333182 19.903725 40.788631 20.26648 40.555203 20.823621 L 34.43769 20.274092 C 34.437244 19.486869 34.418173 19.330374 33.600416 19.330374 L 31.274653 19.330374 z M 31.261672 25.90352 C 30.437702 25.90722 30.43738 25.965991 30.437379 26.903489 L 24.43756 26.903489 C 21.437575 26.903489 19.437267 28.903614 19.437279 31.903771 L 19.437279 41.970969 C 18.437284 41.970969 18.437309 43.971316 18.437309 44.971311 L 46.437327 44.971311 C 46.437327 43.971316 46.437394 41.970958 45.437358 41.903468 L 45.437358 31.903771 C 45.437358 28.90355 43.437061 26.903489 40.437076 26.903489 L 34.43769 26.903489 C 34.437691 25.903493 34.437719 25.903521 33.437721 25.90352 L 31.437349 25.90352 C 31.374849 25.903521 31.316604 25.903276 31.261672 25.90352 z M 24.43756 29.903398 L 30.437379 29.903398 C 30.43738 30.903395 30.437352 30.903367 31.437349 30.903368 L 33.437721 30.903368 C 34.43772 30.903367 34.437691 30.903395 34.43769 29.903398 L 40.437076 29.903398 C 41.43707 29.903398 42.437306 30.90354 42.437448 31.903771 L 42.437448 34.90368 L 34.43769 34.90368 C 34.437691 33.903682 34.437721 33.903711 33.437721 33.90371 L 31.437349 33.90371 C 30.437351 33.903711 30.43738 33.903682 30.437379 34.90368 L 22.437188 34.90368 L 22.437188 31.903771 C 22.437235 30.90354 23.437566 29.903398 24.43756 29.903398 z M 22.437188 36.296974 L 42.437448 36.296974 L 42.437448 41.970969 L 22.437188 41.970969 L 22.437188 36.296974 z "
       inkscape:label="body" /><g
       id="g3038"
       inkscape:label="DOT"
       transform="translate(40.502199,-19.545359)"><path
         id="path7538-9-26-6-0"
         style="fill:#ffcc00;stroke-width:0.0685788"
         d="m -17.567403,39.920561 a 1.028682,1.028682 0 0 0 -1.028878,1.028361 1.028682,1.028682 0 0 0 1.028878,1.028877 1.028682,1.028682 0 0 0 1.028361,-1.028877 1.028682,1.028682 0 0 0 -1.028361,-1.028361 z m 0,0.342614 a 0.685788,0.685788 0 0 1 0.685746,0.685747 0.685788,0.685788 0 0 1 -0.685746,0.685746 0.685788,0.685788 0 0 1 -0.685746,-0.685746 0.685788,0.685788 0 0 1 0.685746,-0.685747 z" /><path
         id="path7614-7-64-1-9"
         style="fill:#ffffff;stroke-width:0.0685788"
         d="m -16.881744,40.949013 a 0.685788,0.685788 0 0 1 -0.685788,0.685788 0.685788,0.685788 0 0 1 -0.685788,-0.685788 0.685788,0.685788 0 0 1 0.685788,-0.685788 0.685788,0.685788 0 0 1 0.685788,0.685788 z" /></g><g
       id="g4415"
       inkscape:label="DOT"
       transform="translate(59.519472,-19.545359)"><path
         id="path4411"
         style="fill:#ffcc00;stroke-width:0.0685788"
         d="m -17.567403,39.920561 a 1.028682,1.028682 0 0 0 -1.028878,1.028361 1.028682,1.028682 0 0 0 1.028878,1.028877 1.028682,1.028682 0 0 0 1.028361,-1.028877 1.028682,1.028682 0 0 0 -1.028361,-1.028361 z m 0,0.342614 a 0.685788,0.685788 0 0 1 0.685746,0.685747 0.685788,0.685788 0 0 1 -0.685746,0.685746 0.685788,0.685788 0 0 1 -0.685746,-0.685746 0.685788,0.685788 0 0 1 0.685746,-0.685747 z" /><path
         id="path4413"
         style="fill:#ffffff;stroke-width:0.0685788"
         d="m -16.881744,40.949013 a 0.685788,0.685788 0 0 1 -0.685788,0.685788 0.685788,0.685788 0 0 1 -0.685788,-0.685788 0.685788,0.685788 0 0 1 0.685788,-0.685788 0.685788,0.685788 0 0 1 0.685788,0.685788 z" /></g><g
       id="g6689"
       inkscape:label="paper"
       transform="matrix(0.93404036,0,0,0.97056313,2.1436881,1.1518844)"><path
         id="rect4359"
         style="opacity:1;fill:#a2e3fb;fill-opacity:1;fill-rule:evenodd;stroke:#000000;stroke-width:0;stroke-linecap:round;stroke-linejoin:round;stroke-miterlimit:100.1;paint-order:stroke fill markers"
         d="m 22.999998,36.296896 h 18.999998 v 0.299999 H 22.999998 Z" /><path
         id="path4417"
         style="opacity:1;fill:#d3f2fd;fill-opacity:1;fill-rule:evenodd;stroke:#000000;stroke-width:0;stroke-linecap:round;stroke-linejoin:round;stroke-miterlimit:100.1;paint-order:stroke fill markers"
         d="m 22.999998,36.596896 h 18.999998 v 0.299999 H 22.999998 Z" /><path
         id="path4419"
         style="opacity:1;fill:#69d3f9;fill-opacity:1;fill-rule:evenodd;stroke:#000000;stroke-width:0;stroke-linecap:round;stroke-linejoin:round;stroke-miterlimit:100.1;paint-order:stroke fill markers"
         d="m 22.999998,36.896896 h 18.999998 v 0.299999 H 22.999998 Z" /><path
         id="path4421"
         style="opacity:1;fill:#ede8fe;fill-opacity:1;fill-rule:evenodd;stroke:#000000;stroke-width:0;stroke-linecap:round;stroke-linejoin:round;stroke-miterlimit:100.1;paint-order:stroke fill markers"
         d="m 22.999998,37.196896 h 18.999998 v 0.299999 H 22.999998 Z" /><path
         id="path4423"
         style="opacity:1;fill:#a0e3fb;fill-opacity:1;fill-rule:evenodd;stroke:#000000;stroke-width:0;stroke-linecap:round;stroke-linejoin:round;stroke-miterlimit:100.1;paint-order:stroke fill markers"
         d="m 22.999998,37.496896 h 18.999998 v 0.299999 H 22.999998 Z" /><path
         id="path4425"
         style="opacity:1;fill:#e7f8fe;fill-opacity:1;fill-rule:evenodd;stroke:#000000;stroke-width:0;stroke-linecap:round;stroke-linejoin:round;stroke-miterlimit:100.1;paint-order:stroke fill markers"
         d="m 22.999998,37.796896 h 18.999998 v 0.299999 H 22.999998 Z" /><path
         id="path4427"
         style="opacity:1;fill:#c8eefd;fill-opacity:1;fill-rule:evenodd;stroke:#000000;stroke-width:0;stroke-linecap:round;stroke-linejoin:round;stroke-miterlimit:100.1;paint-order:stroke fill markers"
         d="m 22.999998,38.096896 h 18.999998 v 0.299999 H 22.999998 Z" /><path
         id="path4429"
         style="opacity:1;fill:#a0e3fb;fill-opacity:1;fill-rule:evenodd;stroke:#000000;stroke-width:0;stroke-linecap:round;stroke-linejoin:round;stroke-miterlimit:100.1;paint-order:stroke fill markers"
         d="m 22.999998,38.396896 h 18.999998 v 0.299999 H 22.999998 Z" /><path
         id="path4431"
         style="opacity:1;fill:#d0cbfd;fill-opacity:1;fill-rule:evenodd;stroke:#000000;stroke-width:0;stroke-linecap:round;stroke-linejoin:round;stroke-miterlimit:100.1;paint-order:stroke fill markers"
         d="m 22.999998,38.696896 h 18.999998 v 0.299999 H 22.999998 Z" /><path
         id="path4433"
         style="opacity:1;fill:#61cff8;fill-opacity:1;fill-rule:evenodd;stroke:#000000;stroke-width:0;stroke-linecap:round;stroke-linejoin:round;stroke-miterlimit:100.1;paint-order:stroke fill markers"
         d="m 22.999998,38.996896 h 18.999998 v 0.299999 H 22.999998 Z" /><path
         id="path4435"
         style="opacity:1;fill:#aee7fc;fill-opacity:1;fill-rule:evenodd;stroke:#000000;stroke-width:0;stroke-linecap:round;stroke-linejoin:round;stroke-miterlimit:100.1;paint-order:stroke fill markers"
         d="m 22.999998,39.296896 h 18.999998 v 0.299999 H 22.999998 Z" /><path
         id="path4437"
         style="opacity:1;fill:#b8eafc;fill-opacity:1;fill-rule:evenodd;stroke:#000000;stroke-width:0;stroke-linecap:round;stroke-linejoin:round;stroke-miterlimit:100.1;paint-order:stroke fill markers"
         d="m 22.999998,39.596896 h 18.999998 v 0.299999 H 22.999998 Z" /><path
         id="path4439"
         style="opacity:1;fill:#e8f8fe;fill-opacity:1;fill-rule:evenodd;stroke:#000000;stroke-width:0;stroke-linecap:round;stroke-linejoin:round;stroke-miterlimit:100.1;paint-order:stroke fill markers"
         d="m 22.999998,39.896896 h 18.999998 v 0.299999 H 22.999998 Z" /><path
         id="path4441"
         style="opacity:1;fill:#a0e3fb;fill-opacity:1;fill-rule:evenodd;stroke:#000000;stroke-width:0;stroke-linecap:round;stroke-linejoin:round;stroke-miterlimit:100.1;paint-order:stroke fill markers"
         d="m 22.999998,40.196896 h 18.999998 v 0.299999 H 22.999998 Z" /><path
         id="path4443"
         style="opacity:1;fill:#64d1f8;fill-opacity:1;fill-rule:evenodd;stroke:#000000;stroke-width:0;stroke-linecap:round;stroke-linejoin:round;stroke-miterlimit:100.1;paint-order:stroke fill markers"
         d="m 22.999998,40.496896 h 18.999998 v 0.299999 H 22.999998 Z" /><path
         id="path4445"
         style="opacity:1;fill:#e7d5fd;fill-opacity:1;fill-rule:evenodd;stroke:#000000;stroke-width:0;stroke-linecap:round;stroke-linejoin:round;stroke-miterlimit:100.1;paint-order:stroke fill markers"
         d="m 22.999998,40.796896 h 18.999998 v 0.299999 H 22.999998 Z" /><path
         id="path4447"
         style="opacity:1;fill:#a0e3fb;fill-opacity:1;fill-rule:evenodd;stroke:#000000;stroke-width:0;stroke-linecap:round;stroke-linejoin:round;stroke-miterlimit:100.1;paint-order:stroke fill markers"
         d="m 22.999998,41.096896 h 18.999998 v 0.299999 H 22.999998 Z" /><path
         id="path4449"
         style="opacity:1;fill:#b8eafc;fill-opacity:1;fill-rule:evenodd;stroke:#000000;stroke-width:0;stroke-linecap:round;stroke-linejoin:round;stroke-miterlimit:100.1;paint-order:stroke fill markers"
         d="m 22.999998,41.396896 h 18.999998 v 0.299999 H 22.999998 Z" /><path
         id="path4451"
         style="opacity:1;fill:#a0e3fb;fill-opacity:1;fill-rule:evenodd;stroke:#000000;stroke-width:0;stroke-linecap:round;stroke-linejoin:round;stroke-miterlimit:100.1;paint-order:stroke fill markers"
         d="m 22.999998,41.696895 h 18.999998 v 0.273911 H 22.999998 Z" /></g></g><g
     id="g6996"
     inkscape:label="swan"
     transform="matrix(0.03922719,0,0,0.03922719,53.599842,26.162893)"
     style="stroke-width:5.0985;stroke-dasharray:none;fill:#0899ce;fill-opacity:1"><path
       style="fill:#0899ce;fill-rule:evenodd;stroke:#000000;stroke-width:5.0985;stroke-linecap:round;stroke-linejoin:round;stroke-miterlimit:100.1;stroke-dasharray:none;paint-order:stroke fill markers;fill-opacity:1"
       d="m 180,230 60,-70 -90,20 z"
       id="path6988" /><path
       style="fill:#0899ce;fill-rule:evenodd;stroke:#000000;stroke-width:5.0985;stroke-linecap:round;stroke-linejoin:round;stroke-miterlimit:100.1;stroke-dasharray:none;paint-order:stroke fill markers;fill-opacity:1"
       d="m 150,180 30,50 h -40 z"
       id="path6986" /><path
       style="fill:#0899ce;fill-rule:evenodd;stroke:#000000;stroke-width:5.0985;stroke-linecap:round;stroke-linejoin:round;stroke-miterlimit:100.1;stroke-dasharray:none;paint-order:stroke fill markers;fill-opacity:1"
       d="M 79.999998,230 H 140 l 10,-50 -60.000001,10 z"
       id="path6984" /><path
       style="fill:#0899ce;fill-rule:evenodd;stroke:#000000;stroke-width:5.0985;stroke-linecap:round;stroke-linejoin:round;stroke-miterlimit:100.1;stroke-dasharray:none;paint-order:stroke fill markers;fill-opacity:1"
       d="M 50,200 79.999998,230 110,100 h -10 z"
       id="path6978" /><path
       style="fill:#0899ce;fill-rule:evenodd;stroke:#000000;stroke-width:5.0985;stroke-linecap:round;stroke-linejoin:round;stroke-miterlimit:100.1;stroke-dasharray:none;paint-order:stroke fill markers;fill-opacity:1"
       d="m 100.08917,89.898666 -20.178335,2.024342 v 7.168499 H 110 Z"
       id="path6980"
       sodipodi:nodetypes="ccccc" /><path
       style="fill:#0899ce;fill-rule:evenodd;stroke:#000000;stroke-width:5.0985;stroke-linecap:round;stroke-linejoin:round;stroke-miterlimit:100.1;stroke-dasharray:none;paint-order:stroke fill markers;fill-opacity:1"
       d="m 60.870956,99.128699 18.279127,-1.907452 v 1.907452 z"
       id="path6982"
       sodipodi:nodetypes="cccc" /></g><g
     id="g8266"
     inkscape:label="dove"
     transform="matrix(0.03224554,0,0,0.03224554,2.9556004,27.92289)"
     style="fill:#0899ce;fill-opacity:1;stroke-width:6.20241;stroke-dasharray:none"><path
       style="fill:#0899ce;fill-opacity:1;fill-rule:evenodd;stroke:#000000;stroke-width:6.20241;stroke-linecap:round;stroke-linejoin:round;stroke-miterlimit:100.1;stroke-dasharray:none;paint-order:stroke fill markers"
       d="M 170,89.999999 160,76.295831 v 13.704168 z"
       id="path8199"
       sodipodi:nodetypes="cccc" /><path
       style="fill:#0899ce;fill-opacity:1;fill-rule:evenodd;stroke:#000000;stroke-width:6.20241;stroke-linecap:round;stroke-linejoin:round;stroke-miterlimit:100.1;stroke-dasharray:none;paint-order:stroke fill markers"
       d="M 160,76.295831 130,79.999998 120,89.999999 160,130 Z"
       id="path8201"
       sodipodi:nodetypes="ccccc" /><path
       style="fill:#0899ce;fill-opacity:1;fill-rule:evenodd;stroke:#000000;stroke-width:6.20241;stroke-linecap:round;stroke-linejoin:round;stroke-miterlimit:100.1;stroke-dasharray:none;paint-order:stroke fill markers"
       d="M 79.999998,50 -15.291667,55.820833 79.999998,130 Z"
       id="path8257"
       sodipodi:nodetypes="cccc" /><path
       style="fill:#0899ce;fill-opacity:1;fill-rule:evenodd;stroke:#000000;stroke-width:6.20241;stroke-linecap:round;stroke-linejoin:round;stroke-miterlimit:100.1;stroke-dasharray:none;paint-order:stroke fill markers"
       d="M 79.999998,50 160,130 79.999998,200 Z"
       id="path8255" /><path
       style="fill:#0899ce;fill-opacity:1;fill-rule:evenodd;stroke:#000000;stroke-width:6.20241;stroke-linecap:round;stroke-linejoin:round;stroke-miterlimit:100.1;stroke-dasharray:none;paint-order:stroke fill markers"
       d="m 78.412498,130 -18.4125,100 30.000001,-30 v -10 z"
       id="path8259"
       sodipodi:nodetypes="ccccc" /></g><g
     id="g10471"
     inkscape:label="frog"
     transform="matrix(0.02898551,0.00464509,-0.00464509,0.02898551,26.022619,53.6119)"
     style="fill:#0899ce;fill-opacity:1;stroke-width:5.43509;stroke-dasharray:none"
     inkscape:transform-center-y="26.30299"
     inkscape:transform-center-x="4.1614348"><path
       style="fill:#0899ce;fill-opacity:1;fill-rule:evenodd;stroke:#000000;stroke-width:5.43509;stroke-linecap:round;stroke-linejoin:round;stroke-miterlimit:100.1;stroke-dasharray:none;paint-order:stroke fill markers"
       d="m 143.17502,120 h 40 l -30,20 z"
       id="path10434"
       sodipodi:nodetypes="cccc" /><path
       style="fill:#0899ce;fill-opacity:1;fill-rule:evenodd;stroke:#000000;stroke-width:5.43509;stroke-linecap:round;stroke-linejoin:round;stroke-miterlimit:100.1;stroke-dasharray:none;paint-order:stroke fill markers"
       d="m 103.17502,69.999999 60,60.000001 -40,30 z"
       id="path10430"
       sodipodi:nodetypes="cccc" /><path
       style="fill:#0899ce;fill-opacity:1;fill-rule:evenodd;stroke:#000000;stroke-width:5.43509;stroke-linecap:round;stroke-linejoin:round;stroke-miterlimit:100.1;stroke-dasharray:none;paint-order:stroke fill markers"
       d="m 123.17502,240 30,-30 20,30 z"
       id="path10446" /><path
       style="fill:#0899ce;fill-opacity:1;fill-rule:evenodd;stroke:#000000;stroke-width:5.43509;stroke-linecap:round;stroke-linejoin:round;stroke-miterlimit:100.1;stroke-dasharray:none;paint-order:stroke fill markers"
       d="m 173.17502,200 -50,40 -10,-30 30,-10 z"
       id="path10442" /><path
       style="fill:#0899ce;fill-opacity:1;fill-rule:evenodd;stroke:#000000;stroke-width:5.43509;stroke-linecap:round;stroke-linejoin:round;stroke-miterlimit:100.1;stroke-dasharray:none;paint-order:stroke fill markers"
       d="M 79.999998,240 H 30 l 20,-30 z"
       id="path10444" /><path
       style="fill:#0899ce;fill-opacity:1;fill-rule:evenodd;stroke:#000000;stroke-width:5.43509;stroke-linecap:round;stroke-linejoin:round;stroke-miterlimit:100.1;stroke-dasharray:none;paint-order:stroke fill markers"
       d="M 30,200 79.999998,240 89.999999,210 59.999998,200 Z"
       id="path10440" /><path
       style="fill:#0899ce;fill-opacity:1;fill-rule:evenodd;stroke:#000000;stroke-width:5.43509;stroke-linecap:round;stroke-linejoin:round;stroke-miterlimit:100.1;stroke-dasharray:none;paint-order:stroke fill markers"
       d="M 60,180 H 40 l 10,20 z"
       id="path10454" /><path
       style="fill:#0899ce;fill-opacity:1;fill-rule:evenodd;stroke:#000000;stroke-width:5.43509;stroke-linecap:round;stroke-linejoin:round;stroke-miterlimit:100.1;stroke-dasharray:none;paint-order:stroke fill markers"
       d="M 50,200 39.999999,210 H 163.175 l -10,-10 H 119.43622 L 102.62561,69.470833 h -2.24123 L 85.889971,200 Z"
       id="path10438"
       sodipodi:nodetypes="ccccccccc" /><path
       style="fill:#0899ce;fill-opacity:1;fill-rule:evenodd;stroke:#000000;stroke-width:5.43509;stroke-linecap:round;stroke-linejoin:round;stroke-miterlimit:100.1;stroke-dasharray:none;paint-order:stroke fill markers"
       d="m 163.17502,180 h -20 l 10,20 z"
       id="path10452" /><path
       style="fill:#0899ce;fill-opacity:1;fill-rule:evenodd;stroke:#000000;stroke-width:5.43509;stroke-linecap:round;stroke-linejoin:round;stroke-miterlimit:100.1;stroke-dasharray:none;paint-order:stroke fill markers"
       d="m 163.17502,180 10,20 h -20 z"
       id="path10450" /><path
       style="fill:#0899ce;fill-opacity:1;fill-rule:evenodd;stroke:#000000;stroke-width:5.43509;stroke-linecap:round;stroke-linejoin:round;stroke-miterlimit:100.1;stroke-dasharray:none;paint-order:stroke fill markers"
       d="m 103.17502,70 50,130 h -50 z"
       id="path10426"
       sodipodi:nodetypes="cccc" /><path
       style="fill:#0899ce;fill-opacity:1;fill-rule:evenodd;stroke:#000000;stroke-width:5.43509;stroke-linecap:round;stroke-linejoin:round;stroke-miterlimit:100.1;stroke-dasharray:none;paint-order:stroke fill markers"
       d="M 69.999999,120 H 20 l 30,20 z"
       id="path10436"
       sodipodi:nodetypes="cccc" /><path
       style="fill:#0899ce;fill-opacity:1;fill-rule:evenodd;stroke:#000000;stroke-width:5.43509;stroke-linecap:round;stroke-linejoin:round;stroke-miterlimit:100.1;stroke-dasharray:none;paint-order:stroke fill markers"
       d="M 100,69.999999 40,130 79.999998,160 Z"
       id="path10432"
       sodipodi:nodetypes="cccc" /><path
       style="fill:#0899ce;fill-opacity:1;fill-rule:evenodd;stroke:#000000;stroke-width:5.43509;stroke-linecap:round;stroke-linejoin:round;stroke-miterlimit:100.1;stroke-dasharray:none;paint-order:stroke fill markers"
       d="M 39.999999,180 30,200 h 20 z"
       id="path10448" /><path
       style="fill:#0899ce;fill-opacity:1;fill-rule:evenodd;stroke:#000000;stroke-width:5.43509;stroke-linecap:round;stroke-linejoin:round;stroke-miterlimit:100.1;stroke-dasharray:none;paint-order:stroke fill markers"
       d="M 100,69.999999 50,200 h 50 z"
       id="path10428"
       sodipodi:nodetypes="cccc" /></g></svg>
