<?xml version="1.0" encoding="UTF-8" standalone="no"?>
<!DOCTYPE svg PUBLIC "-//W3C//DTD SVG 1.1//EN" "http://www.w3.org/Graphics/SVG/1.1/DTD/svg11.dtd">
<svg width="100%" height="100%" viewBox="0 0 842 596" version="1.1" xmlns="http://www.w3.org/2000/svg" xmlns:xlink="http://www.w3.org/1999/xlink" xml:space="preserve" xmlns:serif="http://www.serif.com/" style="fill-rule:evenodd;clip-rule:evenodd;stroke-linecap:round;stroke-linejoin:round;stroke-miterlimit:100.1;">
    <g id="white-bg" transform="matrix(-4.195394,-3.583205,3.583205,-4.195394,4.657087,2.350498)">
        <path d="M-22.684,-3.668C-22.684,8.939 -33.058,19.314 -45.666,19.314L-45.666,19.314C-58.274,19.314 -68.648,8.939 -68.648,-3.668L-68.648,-3.668C-68.648,-16.276 -58.274,-26.65 -45.666,-26.65C-33.058,-26.65 -22.684,-16.276 -22.684,-3.668L-22.684,-3.668Z" style="fill:white;fill-rule:nonzero;"/>
    </g>
    <g id="ring" transform="matrix(5.517308,0,0,5.517308,4.657087,2.350498)">
        <path d="M32.437,0.499C14.798,0.499 0.499,14.798 0.499,32.437C0.499,50.076 14.798,64.375 32.437,64.375C50.076,64.375 64.375,50.076 64.375,32.437C64.375,14.798 50.076,0.499 32.437,0.499ZM32.437,10.838C44.367,10.837 54.038,20.508 54.038,32.437C54.031,36.94 52.617,41.328 49.994,44.987C49.1,46.249 48.249,47.399 46.981,48.406C43.004,52.029 37.817,54.037 32.437,54.037C27.057,54.037 21.871,52.029 17.894,48.406C16.814,47.552 15.929,46.358 14.884,44.992C12.259,41.331 10.844,36.942 10.838,32.437C10.838,20.508 20.508,10.838 32.437,10.838Z" style="fill:rgb(189,183,157);stroke:black;stroke-width:1px;"/>
    </g>
    <g id="ring1" serif:id="ring" transform="matrix(5.517308,0,0,5.517308,4.657087,2.350498)">
        <path d="M32.437,0.499C14.798,0.499 0.499,14.798 0.499,32.437C0.499,50.076 14.798,64.375 32.437,64.375C50.076,64.375 64.375,50.076 64.375,32.437C64.375,14.798 50.076,0.499 32.437,0.499ZM32.437,10.838C44.367,10.837 54.038,20.508 54.038,32.437C54.031,36.94 52.617,41.328 49.994,44.987C49.1,46.249 48.249,47.399 46.981,48.406C45.149,50.075 43.058,51.396 40.811,52.342C38.163,51.218 35.315,50.638 32.437,50.636C29.563,50.641 26.719,51.222 24.073,52.346C21.824,51.4 19.729,50.078 17.894,48.406C16.814,47.552 15.929,46.358 14.884,44.992C12.259,41.331 10.844,36.942 10.838,32.437C10.838,20.508 20.508,10.838 32.437,10.838Z" style="fill:rgb(189,183,157);stroke:black;stroke-width:1px;"/>
    </g>
    <g id="path1942-2-7" transform="matrix(-5.389496,-1.180688,-1.180688,5.389496,4.657087,2.350498)">
        <path d="M-8.982,29.834C-11.924,45.326 -26.586,56.001 -42.233,54.042C-57.879,52.083 -69.457,38.122 -68.488,22.383C-67.519,6.645 -54.316,-5.79 -38.548,-5.816C-22.779,-5.841 -9.537,6.552 -8.518,22.287" style="fill:none;fill-rule:nonzero;"/>
    </g>
    <g id="PRESS" transform="matrix(5.505363,-0.362849,0.362849,5.505363,-6.613713,14.495405)">
        <path d="M15.293,16.609C15.293,16.609 16.051,15.923 16.051,15.923C16.126,15.855 16.131,15.767 16.063,15.692L14.831,14.328L14.792,13.681C14.79,13.65 14.799,13.609 14.817,13.593C14.846,13.567 14.893,13.57 14.92,13.578L17.655,14.338C17.732,14.359 17.801,14.342 17.851,14.297L18.739,13.495C18.814,13.427 18.819,13.338 18.747,13.26C18.722,13.231 18.695,13.216 18.661,13.208L14.792,12.27C14.758,12.262 14.745,12.261 14.735,12.25C14.725,12.24 14.722,12.229 14.721,12.192L14.571,9.22C14.573,9.186 14.551,9.14 14.522,9.108C14.454,9.033 14.365,9.029 14.29,9.096L13.467,9.84C13.428,9.876 13.409,9.919 13.413,9.974L13.626,13.109C13.549,12.952 13.399,12.743 13.234,12.56L12.096,11.3C12.028,11.225 11.939,11.221 11.864,11.289L11.105,11.974C11.03,12.042 11.026,12.131 11.093,12.206L15.061,16.597C15.129,16.672 15.217,16.677 15.293,16.609ZM22.184,11.713C23.353,11.119 23.632,10.198 23.157,9.265L21.839,6.673C21.345,5.701 20.499,5.401 19.287,6.017L18.672,6.33C17.503,6.925 17.227,7.85 17.699,8.778L19.017,11.371C19.512,12.342 20.357,12.643 21.569,12.026L22.184,11.713ZM21.627,10.617L21.012,10.93C20.672,11.103 20.328,10.969 20.156,10.629L18.968,8.295C18.806,7.977 18.886,7.601 19.23,7.426L19.845,7.113C20.184,6.941 20.528,7.074 20.701,7.414L21.888,9.748C22.052,10.071 21.97,10.442 21.627,10.617ZM25.597,10.102L26.599,9.923C26.699,9.905 26.75,9.833 26.732,9.733L26.442,8.104C26.282,7.207 25.97,6.229 25.961,6.176L25.985,6.172C26.003,6.193 26.341,6.878 26.539,7.195L27.583,8.846C27.618,8.904 27.68,8.922 27.765,8.907L28.516,8.773C28.582,8.761 28.634,8.723 28.647,8.661L29.089,6.765C29.165,6.399 29.24,5.661 29.235,5.637L29.273,5.63C29.283,5.682 29.337,6.701 29.492,7.57L29.78,9.19C29.798,9.289 29.871,9.34 29.97,9.322L30.953,9.147C31.053,9.129 31.104,9.057 31.086,8.957L30.048,3.131C30.03,3.031 29.957,2.98 29.858,2.998L28.784,3.189C28.713,3.202 28.662,3.245 28.652,3.301L27.896,6.591C27.863,6.763 27.848,6.977 27.849,6.986L27.802,6.995C27.8,6.985 27.723,6.803 27.621,6.64L25.742,3.82C25.709,3.772 25.651,3.748 25.579,3.76L24.501,3.953C24.402,3.97 24.351,4.043 24.369,4.143L25.407,9.969C25.425,10.069 25.498,10.119 25.597,10.102ZM35.778,9.509C36.822,9.631 37.567,9.121 37.715,7.939C37.795,7.297 37.556,6.808 37.091,6.511C37.054,6.487 37.039,6.456 37.042,6.427C37.044,6.408 37.052,6.38 37.109,6.357C37.56,6.192 37.876,5.733 37.938,5.202C38.064,4.124 37.39,3.457 36.216,3.32L33.739,3.03C33.639,3.018 33.569,3.073 33.558,3.174L32.875,9.004C32.863,9.104 32.918,9.174 33.019,9.186L35.778,9.509ZM34.795,5.63C34.694,5.618 34.639,5.549 34.651,5.448L34.761,4.504C34.773,4.404 34.843,4.349 34.943,4.361L36.074,4.493C36.486,4.541 36.686,4.783 36.637,5.2C36.588,5.617 36.337,5.811 35.925,5.762L34.795,5.63ZM34.498,8.169C34.397,8.157 34.342,8.088 34.354,7.987L34.475,6.948C34.487,6.847 34.557,6.792 34.657,6.804L35.888,6.948C36.238,6.989 36.485,7.29 36.436,7.702C36.386,8.133 36.078,8.354 35.729,8.313L34.498,8.169ZM42.169,4.248L42.665,4.448C42.84,4.518 43.059,4.425 43.13,4.25L43.232,3.995C43.304,3.816 43.214,3.603 43.035,3.531L42.538,3.331C42.346,3.253 42.146,3.349 42.074,3.528L41.971,3.783C41.901,3.958 41.994,4.177 42.169,4.248ZM44.271,5.095L44.768,5.295C44.942,5.365 45.162,5.271 45.232,5.097L45.335,4.842C45.407,4.663 45.316,4.45 45.137,4.378L44.641,4.178C44.448,4.1 44.248,4.196 44.176,4.375L44.074,4.63C44.003,4.805 44.097,5.024 44.271,5.095ZM40.647,10.904L41.287,11.162C42.504,11.652 43.381,11.256 43.772,10.285L45.43,6.169C45.467,6.076 45.433,5.994 45.339,5.956L44.39,5.574C44.296,5.536 44.215,5.571 44.177,5.665L42.573,9.647C42.434,9.98 42.104,10.165 41.747,10.021L41.107,9.763C40.753,9.621 40.628,9.274 40.77,8.921L42.374,4.939C42.412,4.845 42.377,4.763 42.283,4.725L41.335,4.343C41.241,4.306 41.159,4.34 41.121,4.434L39.463,8.55C39.058,9.557 39.386,10.396 40.647,10.904L40.647,10.904ZM46.014,13.845C47.126,14.661 48.215,14.538 48.9,13.605C49.399,12.924 49.307,12.055 48.529,10.946C48.051,10.261 47.968,9.949 48.151,9.7C48.339,9.443 48.704,9.394 49.082,9.671C49.42,9.919 49.559,10.26 49.49,10.598C49.474,10.677 49.498,10.742 49.545,10.776C49.564,10.791 49.587,10.801 49.612,10.807L50.508,11.07C50.566,11.089 50.608,11.072 50.634,11.037C50.651,11.013 50.659,11.002 50.696,10.903C50.935,10.104 50.603,9.285 49.778,8.68C48.728,7.91 47.563,8.096 47.046,8.8C46.484,9.566 46.556,10.414 47.376,11.531C47.879,12.216 47.906,12.553 47.724,12.802C47.521,13.078 47.163,13.127 46.762,12.833C46.327,12.513 46.201,12.163 46.273,11.804C46.288,11.725 46.265,11.66 46.218,11.626C46.199,11.612 46.176,11.601 46.151,11.595L45.196,11.331C45.138,11.312 45.096,11.329 45.07,11.364C45.053,11.387 45.044,11.399 45.008,11.498C44.727,12.297 45.116,13.186 46.014,13.845L46.014,13.845ZM51.324,18.992C51.389,19.069 51.478,19.077 51.555,19.011L52.244,18.429C52.321,18.363 52.328,18.275 52.263,18.198L50.7,16.349C50.634,16.272 50.642,16.183 50.719,16.118L51.445,15.504C51.522,15.439 51.61,15.446 51.676,15.524L52.959,17.041C53.024,17.118 53.113,17.126 53.19,17.06L53.879,16.478C53.956,16.412 53.963,16.324 53.898,16.247L52.615,14.729C52.549,14.652 52.557,14.564 52.634,14.498L53.323,13.916C53.4,13.851 53.489,13.858 53.554,13.935L55.117,15.784C55.183,15.861 55.271,15.869 55.348,15.803L56.037,15.221C56.114,15.156 56.122,15.067 56.056,14.99L53.621,12.11C53.556,12.033 53.467,12.025 53.39,12.091L48.908,15.881C48.831,15.946 48.823,16.034 48.889,16.112L51.324,18.992Z" style="fill:white;fill-rule:nonzero;"/>
    </g>
    <g id="path1788" transform="matrix(5.517308,0,0,5.517308,4.657087,2.350498)">
        <path d="M28.186,14.758C20.979,24.466 31.275,24.466 28.186,34.174C35.393,24.466 25.097,24.466 28.186,14.758ZM32.545,14.758C25.337,24.466 35.633,24.466 32.545,34.174C39.752,24.466 29.456,24.466 32.545,14.758ZM36.903,14.758C29.696,24.466 39.992,24.466 36.903,34.174C44.11,24.466 33.814,24.466 36.903,14.758Z"/>
    </g>
    <g id="path2069" transform="matrix(5.517308,0,0,5.517308,4.657087,2.350498)">
        <path d="M21.899,38.144C21.899,43.414 25.281,47.276 28.222,47.629C29.276,48.683 35.599,48.683 36.653,47.629C39.461,47.188 42.976,43.414 42.976,38.144C38.04,35.285 26.031,35.313 21.899,38.144Z" style="fill:rgb(1,0,0);stroke:black;stroke-width:0.21px;"/>
    </g>
    <g id="path672" transform="matrix(5.517308,0,0,5.517308,4.657087,2.350498)">
        <path d="M46.184,37.91C46.209,36.218 46.218,35.776 46.267,34.086C46.287,33.409 46.315,32.734 46.265,32.059C46.201,31.214 45.821,30.394 45.683,29.561C45.627,29.227 45.566,28.245 45.518,27.471C45.489,27.003 45.54,26.39 45.602,25.934C45.737,24.944 45.962,24.128 46.313,23.147C46.438,22.798 46.77,22.359 46.939,22.029C47.022,21.865 47.137,21.723 47.287,21.614C47.392,21.537 47.507,21.497 47.632,21.566C47.756,21.634 47.789,21.747 47.782,21.88C47.764,22.25 47.739,22.62 47.729,22.991C47.701,24.044 47.69,25.098 47.652,26.151C47.598,27.639 47.645,29.176 47.554,30.665C47.594,31.343 47.602,31.903 47.592,32.488C47.657,34.448 47.594,36.223 47.579,38.114C47.567,39.564 47.651,41.011 47.655,42.462C47.656,42.656 47.694,42.85 47.685,43.046C47.68,43.143 47.641,43.199 47.549,43.233C47.157,43.381 46.756,43.356 46.355,43.303C46.186,43.28 46.128,43.18 46.129,43.003C46.101,40.698 46.116,38.971 46.184,37.91L46.184,37.91Z" style="fill-rule:nonzero;"/>
    </g>
    <g id="path680" transform="matrix(5.517308,0,0,5.517308,4.657087,2.350498)">
        <path d="M16.773,22.165C16.876,22.514 16.871,22.833 16.887,23.148C16.926,23.888 16.925,23.866 16.996,24.605C17.046,25.122 17.149,25.634 17.164,26.155C17.166,26.234 17.187,26.325 17.289,26.32C17.381,26.316 17.392,26.224 17.394,26.156C17.4,26.001 17.392,25.845 17.391,25.689C17.381,24.563 17.374,24.203 17.362,23.078C17.36,22.857 17.341,22.636 17.334,22.415C17.332,22.339 17.32,22.258 17.385,22.185C17.461,22.286 17.464,22.403 17.477,22.516C17.606,23.648 17.657,24.02 17.701,25.158C17.713,25.464 17.75,25.767 17.816,26.066C17.837,26.163 17.835,26.32 17.958,26.309C18.098,26.297 18.064,26.135 18.064,26.035C18.067,25.482 18.066,24.929 18.055,24.376C18.037,23.472 18.009,23.332 17.989,22.428C17.987,22.343 17.946,22.194 18.037,22.187C18.143,22.179 18.107,22.331 18.118,22.411C18.213,23.121 18.229,23.072 18.293,23.785C18.357,24.497 18.421,25.21 18.497,25.921C18.511,26.051 18.496,26.285 18.649,26.274C18.807,26.262 18.719,26.046 18.72,25.921C18.722,24.985 18.746,24.813 18.694,23.876C18.668,23.422 18.666,22.966 18.657,22.511C18.655,22.412 18.633,22.305 18.726,22.193C18.825,22.434 18.87,22.668 18.91,22.899C18.989,23.311 19.068,23.717 19.141,24.213C19.21,25.08 19.397,25.961 19.237,26.838C19.127,27.445 18.912,27.974 18.449,28.391C18.278,28.545 18.202,28.726 18.211,28.961C18.259,30.158 18.141,31.354 18.185,32.551C18.286,35.301 18.388,37.425 18.489,40.175C18.517,40.916 18.55,41.656 18.569,42.398C18.578,42.75 18.558,42.755 18.208,42.814C17.956,42.856 17.703,42.854 17.449,42.841C17.185,42.827 17.131,42.777 17.135,42.507C17.148,41.752 17.159,40.998 17.188,40.244C17.251,38.586 17.343,37.555 17.378,35.896C17.421,33.886 17.493,31.877 17.551,29.867C17.56,29.549 17.561,29.23 17.571,28.911C17.577,28.74 17.529,28.588 17.415,28.463C16.806,27.794 16.612,26.983 16.584,26.108C16.538,24.696 16.566,24.05 16.628,22.639C16.634,22.488 16.571,22.239 16.773,22.165L16.773,22.165Z" style="fill-rule:nonzero;"/>
    </g>
    <g id="path2311" transform="matrix(5.517308,0,0,5.517308,4.657087,2.350498)">
        <path d="M23.413,38.728C28.572,40.81 35.987,40.916 41.713,38.728C35.169,36.759 30.022,36.585 23.413,38.728Z" style="fill:white;stroke:black;stroke-width:0.26px;"/>
    </g>
    <g id="path4254" transform="matrix(-4.014219,3.785066,3.785066,4.014219,4.657087,2.350498)">
        <circle cx="-1.396" cy="45.756" r="30.039" style="fill:none;"/>
    </g>
    <g id="path4327" transform="matrix(5.517308,0,0,5.517308,4.657087,2.350498)">
        <path d="M30.982,38.569C30.984,38.296 31.535,37.63 31.792,37.586C31.757,37.823 31.738,38.301 31.787,38.509C31.546,38.566 31.189,38.623 30.982,38.569L30.982,38.569Z"/>
    </g>
    <g id="path4383" transform="matrix(5.517308,0,0,5.517308,4.657087,2.350498)">
        <path d="M31.799,38.487C34.387,38.29 36.491,38.847 33.347,39.005" style="fill:none;stroke:black;stroke-opacity:0.18;stroke-width:0.05px;"/>
    </g>
    <g id="path4413" transform="matrix(5.517308,0,0,5.517308,4.657087,2.350498)">
        <path d="M6.72,23.419C6.656,23.417 6.592,23.448 6.526,23.527C6.379,23.704 6.444,24.092 6.535,24.259C6.458,24.271 6.381,24.279 6.341,24.237C6.287,24.179 6.272,23.987 6.347,23.875C6.328,23.681 6.261,23.601 6.176,23.583C6,23.547 5.746,23.776 5.667,23.822C5.499,23.733 5.368,23.692 5.11,23.689C5.095,23.756 5.096,23.824 5.103,23.892C5.064,24.025 4.939,24.124 4.806,24.118C4.615,24.11 4.395,23.971 4.27,24.094C4.058,24.329 4.281,24.642 4.142,24.786C3.942,24.872 3.819,24.906 3.758,25.119C3.763,25.395 4.287,25.584 4.357,25.827C4.333,26.052 4.187,26.129 4.166,26.348C4.207,26.528 4.466,26.608 4.58,26.69C4.413,26.732 4.357,26.761 4.247,26.887C4.25,27.001 4.492,27.027 4.559,27.148C4.596,27.215 4.541,27.349 4.449,27.455C4.741,27.662 5.065,27.636 5.063,28.114C5.063,28.114 5.192,28.851 5.324,29.199C5.337,29.233 5.327,29.273 5.359,29.3C5.076,29.397 4.792,29.562 4.591,29.718C4.56,29.742 4.53,29.769 4.503,29.798C4.42,29.885 4.353,29.992 4.299,30.115C3.961,30.893 4.188,32.972 4.25,33.652C4.372,34.966 4.546,37.381 4.844,38.659C5.187,40.129 5.342,40.631 6.322,41.693C6.379,41.622 6.433,41.553 6.483,41.486C6.584,41.351 6.671,41.224 6.747,41.101C6.824,40.978 6.89,40.86 6.947,40.743C7.004,40.626 7.053,40.511 7.095,40.395C7.138,40.278 7.174,40.161 7.206,40.039C7.318,39.612 7.381,39.134 7.49,38.479C7.518,38.317 7.544,38.138 7.569,37.946C7.618,37.563 7.663,37.131 7.702,36.681C7.722,36.456 7.74,36.226 7.757,35.997C7.774,35.768 7.79,35.538 7.804,35.312C7.846,34.636 7.875,33.994 7.89,33.499C7.895,33.328 7.905,33.069 7.911,32.765C7.914,32.613 7.916,32.45 7.916,32.281C7.916,32.112 7.914,31.937 7.909,31.761C7.906,31.673 7.902,31.586 7.898,31.498C7.889,31.324 7.877,31.151 7.86,30.986C7.816,30.574 7.743,30.209 7.623,29.976C7.562,29.857 7.488,29.756 7.4,29.676C7.37,29.649 7.34,29.625 7.307,29.604C7.217,29.544 7.112,29.484 6.998,29.43C6.941,29.402 6.883,29.376 6.823,29.352C6.763,29.327 6.701,29.305 6.64,29.285C6.608,29.275 6.576,29.266 6.544,29.257C6.553,29.246 6.56,29.229 6.563,29.199L7.279,27.557C7.547,27.514 8.089,27.291 8.098,27.077C8.102,26.993 7.901,26.971 7.752,26.87C8.078,26.57 8.022,26.096 8.287,25.791C8.36,25.708 8.457,25.637 8.593,25.585C8.655,25.492 8.662,25.416 8.638,25.351C8.589,25.217 8.408,25.129 8.302,25.031C8.195,24.933 8.164,24.824 8.415,24.647C8.46,24.516 8.427,24.408 8.355,24.343C8.268,24.264 8.126,24.248 7.998,24.331C7.938,24.215 7.855,24.12 7.844,24.092C8.149,23.703 7.335,23.445 7.241,23.836C7.09,23.715 6.911,23.424 6.72,23.419L6.72,23.419Z" style="fill:rgb(130,118,68);"/>
    </g>
    <g id="path30" transform="matrix(5.517308,0,0,5.517308,4.657087,2.350498)">
        <path d="M60.556,26.208C60.391,26.281 60.212,26.382 60.019,26.516C59.639,26.784 59.386,27.085 59.261,27.416C59.203,27.566 59.159,27.721 59.128,27.882C59.057,27.781 58.969,27.695 58.862,27.624C58.753,27.568 58.591,27.582 58.378,27.666C58.251,27.708 58.152,27.762 58.08,27.827C58.261,27.798 58.416,27.817 58.545,27.882C58.833,28.042 58.995,28.268 59.032,28.562C59.063,28.82 59.004,29.004 58.854,29.111C58.873,29.106 58.89,29.101 58.908,29.096C58.884,29.126 58.859,29.157 58.834,29.191L57.607,29.861C57.075,30.139 56.659,30.485 56.36,30.899C55.999,31.378 55.831,31.912 55.855,32.5C55.882,33.224 56.094,33.862 56.489,34.411C56.966,35.066 57.651,35.494 58.543,35.693C58.611,35.707 58.678,35.719 58.745,35.73C58.721,35.769 58.698,35.8 58.678,35.821L58.656,35.858L58.549,35.971L58.841,35.848L58.848,36.156L59.033,35.916L59.068,35.849L59.085,35.908C59.091,35.951 59.086,35.985 59.073,36.01C59.06,36.055 59.04,36.075 59.016,36.07C59.041,36.124 59.08,36.123 59.133,36.067L59.239,35.896L59.264,35.991C59.285,36.06 59.325,36.117 59.385,36.165C59.476,36.241 59.535,36.279 59.565,36.278C59.52,36.255 59.49,36.211 59.474,36.147L59.445,35.906L59.507,36.007C59.568,36.084 59.643,36.146 59.732,36.193C59.871,36.27 59.997,36.291 60.111,36.253C60.064,36.266 60.002,36.239 59.923,36.173C59.873,36.126 59.827,36.063 59.787,35.986L59.746,35.876L59.807,35.933C59.857,35.981 59.911,36.019 59.971,36.048C60.056,36.089 60.11,36.108 60.134,36.102C60.04,36.051 59.99,36.008 59.984,35.974C59.984,35.954 59.97,35.932 59.945,35.908L59.908,35.887L59.967,35.886C60.006,35.884 60.033,35.896 60.049,35.92C60.065,35.964 60.094,35.979 60.138,35.963C60.06,35.854 59.988,35.763 59.922,35.688C60.427,35.567 60.905,35.308 61.354,34.91C62.128,34.24 62.501,33.517 62.472,32.744C62.446,32.067 62.288,31.515 61.998,31.086C61.718,30.685 61.221,30.249 60.503,29.776C60.049,29.478 59.742,29.238 59.581,29.056L59.487,28.885C59.496,28.825 59.532,28.747 59.593,28.651C59.73,28.437 59.861,28.269 59.985,28.149C60.134,28.003 60.319,27.883 60.543,27.79L61.03,27.564C60.768,27.487 60.586,27.457 60.484,27.474C60.415,27.486 60.371,27.477 60.351,27.448C60.335,27.414 60.346,27.383 60.385,27.352C60.418,27.317 60.42,27.29 60.391,27.271C60.356,27.247 60.29,27.252 60.192,27.284C60.08,27.32 59.906,27.527 59.671,27.906C59.596,28.025 59.532,28.134 59.478,28.235C59.534,27.983 59.605,27.755 59.691,27.553C59.791,27.246 59.872,27.03 59.932,26.907C60.031,26.714 60.239,26.481 60.556,26.208L60.556,26.208ZM60.798,28.368C60.748,28.321 60.687,28.28 60.613,28.244C60.469,28.164 60.338,28.15 60.222,28.202C60.203,28.212 60.26,28.243 60.393,28.293C60.566,28.353 60.661,28.419 60.678,28.492C60.705,28.623 60.693,28.757 60.643,28.89C60.863,28.699 60.944,28.559 60.882,28.472C60.86,28.435 60.832,28.4 60.798,28.368L60.798,28.368ZM58.34,27.471L58.111,27.268L58.11,27.268C57.925,27.14 57.76,27.067 57.612,27.052L57.512,27.172C57.461,27.286 57.485,27.432 57.581,27.611C57.741,27.906 57.849,28.08 57.904,28.133C57.753,27.808 57.694,27.589 57.726,27.475C57.758,27.382 57.838,27.333 57.965,27.33C58.093,27.322 58.218,27.37 58.34,27.471L58.34,27.471Z" style="fill:rgb(130,118,68);"/>
    </g>
    <g id="g597" transform="matrix(3.139177,0,0,3.139177,319.311767,189.992906)">
        <g id="path652" transform="matrix(1.946384,0,0,1.946384,-106.239431,-69.50685)">
            <path d="M36.349,60.464C36.598,60.465 36.797,60.274 36.795,60.031C36.794,59.903 36.782,59.774 36.78,59.646C36.769,58.921 36.71,59.934 36.691,59.209C36.688,59.077 36.638,58.97 36.531,58.89C36.494,58.862 36.477,56.312 36.515,56.292C36.591,56.252 36.583,56.188 36.578,56.123C36.568,55.98 36.567,55.98 36.706,55.956C36.745,55.949 36.792,55.948 36.801,55.901C36.809,55.861 36.833,55.853 36.863,55.846C37.366,55.721 37.934,55.197 37.93,54.514C37.93,54.498 37.928,54.478 37.943,54.469C37.999,54.432 37.995,54.374 37.997,54.318C38.023,53.752 37.968,53.188 37.943,52.623C37.936,52.479 37.861,52.373 37.743,52.295C37.621,52.214 37.487,52.158 37.345,52.125C36.733,51.986 36.118,51.981 35.501,52.092C35.3,52.128 35.105,52.181 34.923,52.278C34.794,52.346 34.713,52.448 34.675,52.592C34.648,52.694 34.655,52.795 34.65,52.898C34.63,53.362 34.625,53.827 34.639,54.292C34.642,54.364 34.629,54.445 34.71,54.492C34.727,54.501 34.723,54.526 34.721,54.544C34.697,54.803 34.796,55.027 34.929,55.236C35.127,55.547 35.414,55.742 35.765,55.847C35.79,55.855 35.821,55.852 35.83,55.89C35.84,55.936 35.879,55.947 35.919,55.956C36.062,55.986 36.062,55.987 36.065,56.134C36.065,56.144 36.066,56.153 36.065,56.163C36.063,56.216 36.068,56.265 36.127,56.291C36.15,56.301 36.149,56.324 36.149,56.346C36.15,56.418 36.151,58.765 36.152,58.838C36.153,58.865 36.145,58.881 36.121,58.9C36.025,58.976 35.965,59.072 35.971,59.201C35.973,59.245 35.973,59.289 35.972,59.334C35.961,59.717 36.025,58.771 35.938,58.748C35.933,58.748 35.929,58.748 35.925,58.748C35.925,59.176 35.925,59.603 35.925,60.031C35.926,60.269 36.116,60.463 36.349,60.464L36.349,60.464ZM36.354,60.159C36.32,60.184 36.268,60.13 36.233,60.075C36.19,60.006 36.162,59.891 36.162,59.759C36.165,59.678 36.179,59.579 36.234,59.49C36.302,59.38 36.408,59.377 36.469,59.491C36.572,59.683 36.572,59.883 36.469,60.074C36.438,60.131 36.388,60.133 36.354,60.159L36.354,60.159ZM36.308,55.674C36.193,55.675 36.078,55.662 35.962,55.63C35.922,55.619 35.884,55.614 35.855,55.654C35.836,55.679 35.812,55.666 35.791,55.659C35.395,55.525 35.091,55.283 34.899,54.907C34.843,54.797 34.825,54.676 34.802,54.557C34.793,54.514 34.798,54.471 34.821,54.429C34.853,54.368 34.858,54.299 34.853,54.231C34.83,53.909 34.837,53.586 34.839,53.264C34.839,53.217 34.833,53.171 34.834,53.124C34.836,53.057 34.857,53.045 34.908,53.083C35.154,53.263 35.436,53.352 35.729,53.404C36.324,53.511 36.906,53.474 37.464,53.222C37.554,53.181 37.642,53.137 37.718,53.074C37.759,53.039 37.769,53.063 37.772,53.1C37.777,53.179 37.783,53.258 37.785,53.338C37.787,53.464 37.785,53.59 37.785,53.716C37.787,53.9 37.8,54.085 37.785,54.269C37.781,54.319 37.793,54.367 37.819,54.41C37.848,54.457 37.855,54.506 37.829,54.557C37.823,54.569 37.82,54.583 37.818,54.597C37.758,55.019 37.483,55.281 37.148,55.498C37.051,55.561 36.944,55.6 36.837,55.642C36.817,55.65 36.795,55.659 36.778,55.641C36.74,55.601 36.697,55.613 36.654,55.624C36.539,55.655 36.424,55.673 36.309,55.674L36.308,55.674ZM36.291,53.279C35.98,53.277 35.676,53.239 35.386,53.121C35.296,53.085 35.212,53.04 35.138,52.977C34.958,52.824 34.957,52.643 35.138,52.491C35.26,52.389 35.405,52.328 35.557,52.287C36.087,52.146 36.615,52.149 37.139,52.321C37.264,52.362 37.381,52.42 37.478,52.512C37.63,52.657 37.629,52.82 37.473,52.961C37.325,53.095 37.141,53.157 36.951,53.204C36.735,53.259 36.514,53.281 36.291,53.279L36.291,53.279ZM36.301,53.223C36.498,53.221 36.696,53.196 36.894,53.15C37.066,53.111 37.231,53.051 37.362,52.926C37.488,52.807 37.488,52.668 37.367,52.546C37.287,52.467 37.19,52.417 37.086,52.378C36.832,52.281 36.567,52.247 36.262,52.249C36.129,52.245 35.964,52.261 35.801,52.294C35.606,52.334 35.415,52.388 35.257,52.518C35.095,52.652 35.096,52.816 35.257,52.951C35.342,53.022 35.441,53.07 35.546,53.105C35.796,53.187 36.048,53.224 36.301,53.223L36.301,53.223ZM36.282,53.179C36.057,53.178 35.832,53.141 35.608,53.067C35.508,53.034 35.414,52.986 35.337,52.912C35.217,52.797 35.217,52.666 35.34,52.553C35.466,52.437 35.625,52.387 35.787,52.348C35.862,52.33 35.938,52.317 36.014,52.308C36.107,52.298 36.2,52.287 36.248,52.29C36.545,52.294 36.792,52.323 37.027,52.417C37.11,52.45 37.188,52.492 37.254,52.554C37.376,52.67 37.375,52.803 37.25,52.918C37.166,52.995 37.064,53.044 36.957,53.077C36.732,53.146 36.507,53.18 36.282,53.179L36.282,53.179ZM36.306,53.13C36.552,53.122 36.802,53.098 37.032,52.978C37.133,52.926 37.235,52.862 37.234,52.732C37.233,52.605 37.133,52.544 37.034,52.491C36.889,52.412 36.729,52.376 36.566,52.357C36.252,52.32 35.942,52.337 35.643,52.451C35.562,52.482 35.485,52.524 35.424,52.587C35.335,52.68 35.334,52.786 35.422,52.879C35.478,52.938 35.547,52.976 35.621,53.008C35.837,53.1 36.066,53.124 36.306,53.13L36.306,53.13ZM36.295,53.095C36.102,53.095 35.91,53.062 35.718,52.996C35.649,52.973 35.586,52.938 35.531,52.889C35.419,52.791 35.418,52.676 35.531,52.579C35.652,52.476 35.801,52.435 35.953,52.406C36.068,52.384 36.184,52.373 36.301,52.375C36.487,52.377 36.669,52.399 36.845,52.46C36.934,52.492 37.018,52.532 37.084,52.601C37.167,52.687 37.167,52.781 37.084,52.867C37.025,52.93 36.951,52.97 36.871,52.997C36.679,53.063 36.487,53.096 36.295,53.095L36.295,53.095ZM36.306,53.051C36.45,53.054 36.598,53.036 36.742,52.992C36.832,52.965 36.918,52.931 36.989,52.866C37.081,52.78 37.08,52.686 36.987,52.601C36.94,52.558 36.885,52.527 36.825,52.506C36.475,52.384 36.125,52.383 35.775,52.503C35.717,52.523 35.664,52.552 35.617,52.591C35.508,52.681 35.509,52.79 35.619,52.879C35.674,52.924 35.737,52.954 35.804,52.977C35.964,53.033 36.13,53.054 36.306,53.051L36.306,53.051Z" style="fill:rgb(130,118,68);fill-rule:nonzero;"/>
        </g>
        <g id="spachtel" transform="matrix(1.946384,0,0,1.946384,-106.239431,-69.50685)">
            <path d="M26.03,53.309C26.298,53.801 26.489,54.321 26.622,54.864C26.663,55.033 26.657,55.191 26.567,55.347C26.397,55.64 26.422,55.933 26.589,56.22C26.621,56.276 26.665,56.329 26.61,56.397C26.593,56.418 26.614,56.44 26.625,56.458C26.87,56.85 27.884,58.609 28.118,59.007C28.138,59.042 28.164,59.074 28.207,59.083C28.332,59.11 28.411,59.196 28.469,59.3C28.747,59.725 28.602,59.508 28.888,59.925C29.056,60.17 28.696,59.518 28.856,59.768C28.907,59.848 28.96,59.926 28.994,60.016C29.057,60.186 28.996,60.35 28.831,60.451C28.674,60.546 28.476,60.519 28.36,60.389C28.3,60.322 28.27,60.239 28.229,60.163C28.042,59.819 28.377,60.376 28.187,60.033C28.091,59.853 28.015,59.699 27.958,59.6C27.899,59.504 27.869,59.402 27.897,59.286C27.918,59.201 27.865,59.132 27.821,59.066C27.606,58.74 26.633,57.041 26.443,56.701C26.423,56.667 26.406,56.63 26.387,56.596C26.377,56.579 26.365,56.552 26.351,56.55C26.234,56.535 26.21,56.43 26.163,56.355C26.002,56.101 25.768,55.976 25.476,55.968C25.284,55.962 25.136,55.892 25.001,55.756C24.581,55.335 24.227,54.865 23.925,54.353C23.914,54.334 23.903,54.314 23.892,54.295C23.767,54.065 23.784,53.934 23.969,53.745C24.329,53.375 24.756,53.112 25.251,52.962C25.344,52.933 25.435,52.9 25.53,52.879C25.679,52.846 25.787,52.899 25.869,53.022C25.93,53.114 25.978,53.213 26.031,53.309L26.03,53.309ZM24.868,55.214C24.894,55.235 24.92,55.243 24.948,55.209C24.979,55.169 24.999,55.123 25.016,55.076C25.219,54.517 25.423,53.957 25.626,53.398C25.639,53.36 25.647,53.321 25.654,53.282C25.658,53.255 25.658,53.225 25.623,53.214C25.589,53.204 25.571,53.226 25.558,53.25C25.537,53.287 25.517,53.325 25.503,53.364C25.339,53.811 25.176,54.258 25.014,54.705C24.966,54.836 24.919,54.968 24.874,55.099C24.862,55.135 24.856,55.172 24.868,55.214L24.868,55.214ZM25.766,53.592C25.727,53.629 25.707,53.672 25.691,53.716C25.5,54.241 25.309,54.766 25.118,55.291C25.106,55.326 25.099,55.363 25.093,55.4C25.088,55.427 25.09,55.456 25.125,55.466C25.154,55.476 25.173,55.459 25.186,55.437C25.204,55.407 25.222,55.376 25.234,55.344C25.427,54.817 25.618,54.29 25.81,53.763C25.825,53.723 25.837,53.682 25.835,53.639C25.833,53.589 25.802,53.585 25.766,53.592L25.766,53.592ZM24.649,54.926C24.676,54.955 24.704,54.958 24.732,54.928C24.757,54.903 24.771,54.871 24.783,54.838C24.957,54.36 25.131,53.882 25.305,53.403C25.318,53.368 25.328,53.332 25.326,53.294C25.325,53.272 25.316,53.256 25.294,53.249C25.273,53.242 25.256,53.246 25.241,53.263C25.211,53.295 25.195,53.334 25.18,53.373C25.086,53.631 24.992,53.889 24.899,54.147C24.821,54.36 24.743,54.573 24.666,54.787C24.65,54.831 24.636,54.877 24.649,54.926L24.649,54.926ZM25.953,53.95C25.92,53.979 25.905,54.018 25.89,54.058C25.756,54.428 25.62,54.797 25.487,55.168C25.47,55.216 25.431,55.284 25.498,55.311C25.574,55.342 25.588,55.26 25.606,55.211C25.744,54.839 25.878,54.467 26.014,54.095C26.026,54.062 26.038,54.029 26.034,53.993C26.029,53.95 25.988,53.928 25.953,53.95L25.953,53.95ZM24.441,54.638C24.469,54.68 24.524,54.669 24.55,54.61C24.586,54.528 24.615,54.442 24.645,54.358C24.744,54.089 24.842,53.82 24.938,53.551C24.952,53.513 24.972,53.465 24.918,53.44C24.863,53.414 24.839,53.458 24.824,53.497C24.695,53.848 24.568,54.199 24.44,54.55C24.43,54.578 24.427,54.608 24.441,54.638L24.441,54.638ZM26.101,54.358C26.095,54.365 26.083,54.376 26.078,54.389C26,54.602 25.922,54.814 25.845,55.028C25.828,55.075 25.853,55.103 25.897,55.118C25.938,55.132 25.974,55.13 25.991,55.086C26.07,54.871 26.148,54.655 26.226,54.44C26.236,54.413 26.233,54.385 26.204,54.368C26.173,54.35 26.142,54.335 26.101,54.358L26.101,54.358ZM28.719,60.03C28.662,59.954 28.611,59.879 28.554,59.811C28.521,59.772 28.476,59.724 28.421,59.753C28.36,59.784 28.379,59.85 28.394,59.901C28.417,59.979 28.453,60.054 28.478,60.132C28.494,60.184 28.528,60.21 28.579,60.216C28.629,60.223 28.673,60.21 28.704,60.166C28.735,60.122 28.738,60.074 28.719,60.03L28.719,60.03ZM24.246,54.29C24.261,54.311 24.287,54.32 24.315,54.319C24.348,54.317 24.358,54.29 24.367,54.263C24.415,54.113 24.463,53.964 24.513,53.815C24.527,53.773 24.53,53.736 24.477,53.719C24.426,53.702 24.405,53.729 24.391,53.773C24.343,53.923 24.294,54.072 24.245,54.221C24.238,54.243 24.23,54.264 24.246,54.29L24.246,54.29Z" style="fill:rgb(130,118,68);fill-rule:nonzero;"/>
        </g>
        <g id="path664" transform="matrix(1.946384,0,0,1.946384,-106.239431,-69.50685)">
            <path d="M28.945,58.839C28.751,59.235 28.603,59.457 28.408,59.866C28.39,59.904 28.366,59.94 28.34,59.973C28.278,60.051 28.183,60.075 28.091,60.035C28.007,59.999 27.935,59.946 27.871,59.881C27.824,59.832 27.805,59.776 27.84,59.708C27.933,59.528 28.043,59.359 28.151,59.19C28.441,58.737 28.626,58.44 28.903,57.979C29.003,57.813 29.096,57.643 29.21,57.486C29.213,57.482 29.214,57.476 29.218,57.473C29.314,57.413 29.333,57.329 29.307,57.222C29.294,57.17 29.338,57.129 29.367,57.089C29.486,56.923 29.472,56.74 29.33,56.6C29.245,56.518 29.24,56.492 29.287,56.384C29.436,56.046 29.626,55.731 29.828,55.422C30.105,55.001 30.403,54.596 30.753,54.231C30.94,54.036 31.145,53.861 31.383,53.727C31.445,53.691 31.508,53.658 31.578,53.638C31.663,53.613 31.697,53.632 31.708,53.721C31.725,53.856 31.722,53.991 31.707,54.125C31.651,54.606 31.505,55.059 31.319,55.504C31.149,55.911 30.93,56.293 30.731,56.684C30.657,56.829 30.581,56.97 30.475,57.094C30.42,57.158 30.366,57.176 30.281,57.152C30.059,57.089 29.926,57.142 29.815,57.365C29.782,57.433 29.742,57.486 29.668,57.511C29.631,57.523 29.603,57.554 29.596,57.591C29.572,57.737 29.484,57.852 29.417,57.977C29.264,58.262 29.106,58.545 28.945,58.839L28.945,58.839Z" style="fill:rgb(130,118,68);fill-rule:nonzero;"/>
        </g>
        <g id="path660" transform="matrix(1.946384,0,0,1.946384,-106.239431,-69.50685)">
            <path d="M37.78,59.78C38.279,59.785 38.931,59.788 39.583,59.784C39.864,59.783 40.145,59.799 40.418,59.874C40.431,59.878 40.444,59.882 40.457,59.885C40.626,59.918 40.738,60.003 40.755,60.19C40.765,60.302 40.836,60.354 40.95,60.372C41.307,60.43 41.664,60.404 42.021,60.393C42.203,60.387 42.387,60.386 42.568,60.357C42.971,60.291 43.21,60.055 43.277,59.652C43.319,59.397 43.281,59.151 43.187,58.912C43.169,58.866 43.143,58.848 43.094,58.842C42.812,58.809 42.529,58.804 42.246,58.787C41.955,58.77 41.664,58.752 41.373,58.736C41.256,58.73 41.14,58.742 41.025,58.767C40.902,58.794 40.807,58.858 40.747,58.972C40.724,59.016 40.695,59.058 40.676,59.104C40.597,59.294 40.445,59.367 40.252,59.388C40.01,59.414 39.77,59.391 39.529,59.38C39.373,59.372 39.217,59.36 39.061,59.36C38.109,59.358 37.158,59.361 36.206,59.336C36.04,59.331 35.874,59.311 35.707,59.297C35.58,59.287 35.453,59.289 35.329,59.324C35.2,59.36 35.111,59.439 35.068,59.569C35.049,59.629 35.065,59.67 35.112,59.706C35.187,59.763 35.274,59.772 35.362,59.77C36.117,59.752 36.872,59.774 37.78,59.78L37.78,59.78ZM36.008,59.688C35.93,59.687 35.858,59.672 35.796,59.626C35.756,59.596 35.754,59.563 35.78,59.524C35.86,59.405 36.15,59.388 36.241,59.496C36.287,59.552 36.281,59.594 36.218,59.632C36.153,59.671 36.081,59.685 36.008,59.688L36.008,59.688Z" style="fill:rgb(130,118,68);fill-rule:nonzero;"/>
        </g>
        <g id="path674" transform="matrix(1.946384,0,0,1.946384,-106.239431,-69.50685)">
            <path d="M25.135,57.01C25.767,57.293 26.369,57.638 26.973,57.979C26.992,57.99 27.012,58.001 27.031,58.012C27.259,58.153 27.267,58.17 27.177,58.325C27.143,58.386 27.108,58.447 27.085,58.513C27.043,58.635 27.1,58.74 27.255,58.849C27.369,58.931 27.498,58.977 27.621,59.035C28.308,59.36 28.957,59.76 29.631,60.111C29.34,60.246 28.635,60.318 28.399,60.14C27.532,59.625 26.665,59.108 25.796,58.596C25.217,58.255 24.633,57.924 24.054,57.586C23.224,57.102 22.392,56.623 21.597,56.087C21.283,55.875 20.997,55.639 20.752,55.371C20.724,55.341 20.682,55.307 20.694,55.274C20.707,55.235 20.763,55.252 20.806,55.258C21.231,55.316 21.655,55.459 22.079,55.607C22.822,55.867 23.545,56.199 24.262,56.552C24.556,56.697 24.844,56.857 25.135,57.01L25.135,57.01Z" style="fill:rgb(130,118,68);fill-rule:nonzero;"/>
        </g>
        <g id="path656" transform="matrix(1.946384,0,0,1.946384,-106.239431,-69.50685)">
            <path d="M37.931,58.019C38.703,56.747 39.444,55.455 40.203,54.175C40.297,54.017 40.381,53.852 40.461,53.687C40.54,53.526 40.531,53.364 40.467,53.209C40.405,53.059 40.308,52.936 40.207,52.816C40.168,52.77 40.127,52.765 40.09,52.824C40.014,52.943 39.908,53.044 39.874,53.188C39.866,53.219 39.842,53.244 39.815,53.26C39.783,53.28 39.763,53.304 39.766,53.344C39.767,53.35 39.766,53.36 39.763,53.362C39.664,53.42 39.656,53.549 39.571,53.618C39.561,53.625 39.541,53.633 39.542,53.638C39.556,53.746 39.436,53.787 39.419,53.878C39.412,53.91 39.397,53.938 39.368,53.955C39.33,53.978 39.308,54.01 39.304,54.054C39.301,54.091 39.282,54.119 39.25,54.138C39.215,54.159 39.197,54.189 39.195,54.23C39.195,54.242 39.193,54.261 39.186,54.266C39.092,54.326 39.084,54.445 39.01,54.523C38.953,54.582 38.923,54.669 38.875,54.741C38.804,54.849 38.733,54.96 38.674,55.073C38.626,55.167 38.567,55.258 38.511,55.341C38.453,55.426 38.432,55.537 38.344,55.602C38.33,55.612 38.319,55.63 38.311,55.647C38.256,55.763 38.176,55.867 38.119,55.979C38.075,56.067 38.015,56.146 37.968,56.231C37.919,56.322 37.879,56.422 37.805,56.499C37.785,56.52 37.766,56.54 37.764,56.57C37.76,56.614 37.74,56.649 37.705,56.674C37.672,56.697 37.656,56.729 37.649,56.769C37.643,56.807 37.624,56.84 37.591,56.863C37.586,56.866 37.578,56.869 37.577,56.874C37.552,56.976 37.461,57.041 37.43,57.139C37.418,57.173 37.407,57.205 37.376,57.225C37.342,57.247 37.324,57.278 37.322,57.319C37.321,57.331 37.319,57.349 37.311,57.354C37.217,57.415 37.225,57.547 37.133,57.609C37.112,57.624 37.106,57.651 37.104,57.677C37.1,57.72 37.081,57.757 37.046,57.781C37.014,57.802 36.998,57.828 36.995,57.866C36.992,57.902 36.976,57.935 36.946,57.954C36.905,57.98 36.885,58.014 36.883,58.063C36.882,58.092 36.864,58.115 36.842,58.136C36.838,58.14 36.83,58.143 36.829,58.148C36.788,58.299 36.628,58.343 36.559,58.469C36.489,58.597 36.416,58.724 36.346,58.851C36.327,58.885 36.33,58.915 36.348,58.947C36.379,59.002 36.407,59.058 36.435,59.115C36.475,59.198 36.476,59.281 36.434,59.374C36.383,59.487 36.323,59.594 36.247,59.693C36.182,59.778 36.119,59.865 36.062,59.957C35.855,60.08 36.257,60.076 36.475,60.223C36.924,59.39 37.439,58.827 37.93,58.019L37.931,58.019Z" style="fill:rgb(130,118,68);fill-rule:nonzero;"/>
        </g>
        <g id="kochloffel" transform="matrix(1.946384,0,0,1.946384,-106.239431,-69.50685)">
            <path d="M28.13,57.5C28.13,56.654 28.121,55.809 28.135,54.964C28.14,54.678 28.065,54.436 27.901,54.21C27.732,53.977 27.589,53.728 27.533,53.441C27.466,53.094 27.457,52.749 27.621,52.422C27.761,52.142 27.999,52.027 28.305,52.041C28.607,52.055 28.811,52.204 28.916,52.489C28.967,52.626 28.982,52.769 28.996,52.913C29.037,53.312 28.935,53.679 28.757,54.034C28.678,54.191 28.607,54.352 28.514,54.503C28.47,54.573 28.47,54.656 28.467,54.736C28.452,55.202 28.462,55.667 28.46,56.133C28.454,57.323 28.45,58.514 28.445,59.704C28.445,59.889 28.445,60.073 28.445,60.258C28.445,60.353 28.435,60.363 28.34,60.365C28.111,60.37 28.111,60.37 28.111,60.148C28.111,59.265 28.111,58.383 28.111,57.5C28.118,57.5 28.124,57.5 28.13,57.5L28.13,57.5Z" style="fill:rgb(130,118,68);fill-rule:nonzero;"/>
        </g>
        <g id="path1248" transform="matrix(1.946384,0,0,1.946384,-106.239431,-69.50685)">
            <path d="M21.502,59.612C21.505,59.234 21.59,58.885 21.868,58.607C22.275,58.2 22.998,58.192 23.41,58.593C23.55,58.73 23.677,58.878 23.788,59.043C23.963,59.301 24.195,59.45 24.534,59.42C24.863,59.391 25.196,59.411 25.527,59.405C26.743,59.384 27.961,59.389 29.177,59.348C29.586,59.363 28.951,59.797 28.103,59.848C27.65,59.839 27.198,59.833 26.745,59.832C26.053,59.83 25.362,59.806 24.67,59.813C24.545,59.814 24.42,59.794 24.294,59.809C24.218,59.818 24.15,59.841 24.088,59.886C23.945,59.992 23.827,60.115 23.726,60.264C23.514,60.576 23.256,60.837 22.86,60.906C22.214,61.018 21.662,60.631 21.537,59.976C21.514,59.856 21.497,59.735 21.502,59.612L21.502,59.612Z" style="fill:rgb(130,118,68);fill-rule:nonzero;"/>
        </g>
        <g id="path684" transform="matrix(1.946384,0,0,1.946384,-106.239431,-69.50685)">
            <path d="M39.454,58.299C39.545,58.415 39.558,58.555 39.569,58.695C39.573,58.74 39.568,58.785 39.549,58.827C39.54,58.847 39.526,58.863 39.5,58.858C39.476,58.853 39.463,58.839 39.463,58.814C39.463,58.803 39.46,58.793 39.461,58.782C39.475,58.638 39.391,58.527 39.334,58.407C39.315,58.366 39.286,58.337 39.233,58.358C39.202,58.371 39.168,58.339 39.138,58.349C38.927,58.417 38.606,58.584 38.504,58.651C38,58.985 37.476,59.287 36.947,59.581C36.809,59.657 36.647,59.73 36.556,59.596C36.465,59.461 36.518,59.326 36.64,59.224C36.66,59.207 36.681,59.192 36.704,59.178C37.192,58.897 37.679,58.617 38.167,58.335C38.291,58.264 38.791,57.941 38.915,57.871C38.974,57.838 38.956,57.746 38.922,57.689C38.841,57.555 38.805,57.407 38.795,57.252C38.793,57.212 38.797,57.173 38.808,57.135C38.815,57.109 38.823,57.081 38.856,57.08C38.889,57.08 38.912,57.099 38.922,57.129C38.934,57.169 38.948,57.21 38.95,57.252C38.957,57.428 39.036,57.576 39.122,57.723C39.146,57.763 39.168,57.776 39.188,57.719C39.195,57.699 39.206,57.672 39.221,57.667C39.306,57.638 39.307,57.567 39.32,57.496C39.429,56.899 40.138,56.668 40.615,57.072C40.919,57.33 41.001,57.733 40.834,58.087C40.598,58.587 39.932,58.705 39.544,58.276C39.507,58.235 39.477,58.188 39.443,58.145C39.43,58.128 39.415,58.107 39.391,58.123C39.367,58.139 39.382,58.162 39.39,58.18C39.41,58.22 39.432,58.259 39.454,58.298L39.454,58.299Z" style="fill:rgb(130,118,68);fill-rule:nonzero;"/>
        </g>
        <g id="path468" transform="matrix(1.946384,0,0,1.946384,-106.239431,-69.50685)">
            <path d="M28.26,60.59L36.478,60.59C37.916,60.59 37.916,58.536 36.478,58.536L28.26,58.536C26.822,58.536 26.822,60.59 28.26,60.59Z" style="fill:rgb(130,118,68);"/>
        </g>
        <g id="path1485" transform="matrix(1.946384,0,0,1.946384,-106.239431,-69.50685)">
            <path d="M28.915,59.827C29.56,60.306 29.56,59.622 30.204,59.827C29.56,59.349 29.56,60.033 28.915,59.827ZM28.915,59.538C29.56,60.017 29.56,59.333 30.204,59.538C29.56,59.059 29.56,59.743 28.915,59.538ZM28.915,59.249C29.56,59.727 29.56,59.043 30.204,59.249C29.56,58.77 29.56,59.454 28.915,59.249Z" style="fill:rgb(189,183,157);"/>
        </g>
    </g>
    <g transform="matrix(4.401655,0,0,4.401655,1.182783,-1.123806)">
        <path d="M129,23L129,29C129,30.656 127.656,32 126,32L105,32C103.344,32 102,30.656 102,29L102,23C102,21.344 103.344,20 105,20L126,20C127.656,20 129,21.344 129,23Z" style="fill:rgb(189,183,157);"/>
    </g>
    <g transform="matrix(4.401655,0,0,4.401655,1.182783,70.403085)">
        <path d="M129,23L129,29C129,30.656 127.656,32 126,32L105,32C103.344,32 102,30.656 102,29L102,23C102,21.344 103.344,20 105,20L126,20C127.656,20 129,21.344 129,23Z" style="fill:rgb(130,118,68);"/>
    </g>
    <g transform="matrix(4.401655,0,0,4.401655,1.182783,141.929976)">
        <path d="M129,23L129,29C129,30.656 127.656,32 126,32L105,32C103.344,32 102,30.656 102,29L102,23C102,21.344 103.344,20 105,20L126,20C127.656,20 129,21.344 129,23Z" style="fill:rgb(1,0,1);"/>
    </g>
    <g transform="matrix(4.401655,0,0,4.401655,1.182783,213.456867)">
        <path d="M129,23L129,29C129,30.656 127.656,32 126,32L105,32C103.344,32 102,30.656 102,29L102,23C102,21.344 103.344,20 105,20L126,20C127.656,20 129,21.344 129,23Z" style="fill:rgb(210,210,210);stroke:black;stroke-width:0.23px;stroke-miterlimit:1.5;"/>
    </g>
    <g transform="matrix(4.401655,0,0,4.401655,1.182783,284.983758)">
        <path d="M129,23L129,29C129,30.656 127.656,32 126,32L105,32C103.344,32 102,30.656 102,29L102,23C102,21.344 103.344,20 105,20L126,20C127.656,20 129,21.344 129,23Z" style="fill:rgb(254,255,254);stroke:black;stroke-width:0.23px;stroke-miterlimit:1.5;"/>
    </g>
    <g transform="matrix(1,0,0,1,-36.648115,-65.680781)">
        <text x="506.448px" y="182.6px" style="font-family:'PTMono-Regular', 'PT Mono', monospace;font-size:18px;">#BDB79D</text>
    </g>
    <g transform="matrix(1,0,0,1,-36.648115,5.846111)">
        <text x="506.448px" y="182.6px" style="font-family:'PTMono-Regular', 'PT Mono', monospace;font-size:18px;">#827644</text>
    </g>
    <g transform="matrix(1,0,0,1,-36.648115,77.373002)">
        <text x="506.448px" y="182.6px" style="font-family:'PTMono-Regular', 'PT Mono', monospace;font-size:18px;fill:white;">#000000</text>
    </g>
    <g transform="matrix(1,0,0,1,-36.648115,148.899893)">
        <text x="506.448px" y="182.6px" style="font-family:'PTMono-Regular', 'PT Mono', monospace;font-size:18px;">#D2D2D2</text>
    </g>
    <g transform="matrix(1,0,0,1,-36.648115,220.426784)">
        <text x="506.448px" y="182.6px" style="font-family:'PTMono-Regular', 'PT Mono', monospace;font-size:18px;">#FFFFFF</text>
    </g>
</svg>
