<?xml version="1.0" encoding="UTF-8" standalone="no"?>
<!-- Created with Inkscape (http://www.inkscape.org/) -->

<svg
   width="64.874863mm"
   height="64.874512mm"
   viewBox="0 0 64.874863 64.874512"
   version="1.1"
   id="svg1832"
   inkscape:version="1.3 (0e150ed, 2023-07-21)"
   sodipodi:docname="branch-logo-Kombuese-flat.svg"
   xml:space="preserve"
   inkscape:export-filename="branch-logo-Kombuese.png"
   inkscape:export-xdpi="195.76149"
   inkscape:export-ydpi="195.76149"
   xmlns:inkscape="http://www.inkscape.org/namespaces/inkscape"
   xmlns:sodipodi="http://sodipodi.sourceforge.net/DTD/sodipodi-0.dtd"
   xmlns="http://www.w3.org/2000/svg"
   xmlns:svg="http://www.w3.org/2000/svg"><sodipodi:namedview
     id="namedview1834"
     pagecolor="#ffffff"
     bordercolor="#666666"
     borderopacity="1.0"
     inkscape:showpageshadow="2"
     inkscape:pageopacity="0.0"
     inkscape:pagecheckerboard="0"
     inkscape:deskcolor="#d1d1d1"
     inkscape:document-units="mm"
     showgrid="false"
     inkscape:zoom="2.181724"
     inkscape:cx="-11.000475"
     inkscape:cy="133.83911"
     inkscape:window-width="1472"
     inkscape:window-height="891"
     inkscape:window-x="0"
     inkscape:window-y="37"
     inkscape:window-maximized="1"
     inkscape:current-layer="svg1832"><inkscape:grid
       type="xygrid"
       id="grid3933"
       spacingx="0.99999999"
       spacingy="0.99999999"
       originx="0"
       originy="0"
       units="mm"
       visible="false" /></sodipodi:namedview><defs
     id="defs1829"><rect
       x="115.86883"
       y="36.114959"
       width="0.25079833"
       height="18.559076"
       id="rect2519" /><rect
       x="-7.8900228"
       y="7.8900228"
       width="41.42262"
       height="30.245087"
       id="rect2513" /><linearGradient
       id="linearGradient60"
       y2="9.7440996"
       gradientUnits="userSpaceOnUse"
       x2="13.472"
       gradientTransform="matrix(0.26376313,-0.02098146,0.02098146,0.26376313,75.253236,30.439611)"
       y1="9.7440996"
       x1="9.0576">&#10;      <stop
   id="stop62"
   style="stop-color:#ffd073"
   offset="0" />&#10;      <stop
   id="stop64"
   style="stop-color:#e07c3a"
   offset="1" />&#10;    </linearGradient><linearGradient
       id="linearGradient132"
       y2="6.3832998"
       gradientUnits="userSpaceOnUse"
       x2="14.823"
       gradientTransform="matrix(0.26188459,0.03765021,-0.03765021,0.26188459,75.253175,30.439611)"
       y1="6.3832998"
       x1="6.9180002">&#10;      <stop
   id="stop134"
   style="stop-color:#ffd073"
   offset="0" />&#10;      <stop
   id="stop136"
   style="stop-color:#e07c3a"
   offset="1" />&#10;    </linearGradient><linearGradient
       id="linearGradient78"
       y2="13.794"
       gradientUnits="userSpaceOnUse"
       x2="10.866"
       gradientTransform="matrix(0.26373667,-0.02119313,0.02119313,0.26373667,75.25326,30.439611)"
       y1="13.794"
       x1="3.0664001">&#10;      <stop
   id="stop80"
   style="stop-color:#ffd073"
   offset="0" />&#10;      <stop
   id="stop82"
   style="stop-color:#e07c3a"
   offset="1" />&#10;    </linearGradient><linearGradient
       id="linearGradient24"
       y2="-8.3120003"
       gradientUnits="userSpaceOnUse"
       x2="-8.6988001"
       gradientTransform="matrix(-0.19983979,-0.17340792,0.17340792,-0.19983979,75.253302,30.439611)"
       y1="-8.3120003"
       x1="-13.2">&#10;      <stop
   id="stop26"
   style="stop-color:#ffd073"
   offset="0" />&#10;      <stop
   id="stop28"
   style="stop-color:#e07c3a"
   offset="1" />&#10;    </linearGradient><linearGradient
       id="linearGradient96"
       y2="4.6943002"
       gradientUnits="userSpaceOnUse"
       x2="-15.724"
       gradientTransform="matrix(-0.191135,-0.18295938,0.18295938,-0.191135,75.253279,30.439281)"
       y1="4.6943002"
       x1="-19.773001">&#10;      <stop
   id="stop98"
   style="stop-color:#ffd073"
   offset="0" />&#10;      <stop
   id="stop100"
   style="stop-color:#e07c3a"
   offset="1" />&#10;    </linearGradient><linearGradient
       id="linearGradient344"
       y2="-19.997"
       gradientUnits="userSpaceOnUse"
       x2="-45.778999"
       gradientTransform="matrix(-0.24116771,-0.10879667,0.10879667,-0.24116771,75.25327,30.439611)"
       y1="-19.997"
       x1="-51.675999">&#10;      <stop
   id="stop346"
   style="stop-color:#ffb94f"
   offset="0" />&#10;      <stop
   id="stop348"
   style="stop-color:#917130"
   offset="1" />&#10;    </linearGradient></defs><path
     id="path1942-29"
     style="display:inline;fill:#ffffff;stroke-width:0"
     d="M -22.683741,-3.6682379 A 22.982183,22.982183 0 0 1 -45.665924,19.313946 22.982183,22.982183 0 0 1 -68.648108,-3.6682379 22.982183,22.982183 0 0 1 -45.665924,-26.650421 22.982183,22.982183 0 0 1 -22.683741,-3.6682379 Z"
     inkscape:label="white-bg"
     transform="rotate(-139.5)" /><path
     id="path3092"
     style="display:inline;opacity:1;fill:#bdb79d;fill-opacity:1;fill-rule:evenodd;stroke:#000000;stroke-width:0.998546;stroke-linecap:round;stroke-linejoin:round;stroke-miterlimit:100.1;paint-order:stroke fill markers"
     d="M 32.437297,0.49919434 C 14.798314,0.4992249 0.49912825,14.798411 0.49919434,32.437297 0.49912862,50.076183 14.798315,64.375368 32.437297,64.375399 50.076279,64.375368 64.375465,50.076183 64.375399,32.437297 64.375465,14.798411 50.076279,0.49922527 32.437297,0.49919434 Z m 0,10.33838666 c 11.92941,-2.09e-4 21.600222,9.670371 21.600231,21.599716 -0.0067,4.502532 -1.420318,8.890413 -4.043164,12.550138 -0.894733,1.261642 -1.745287,2.411089 -3.013252,3.418913 -3.977527,3.622635 -9.16382,5.630518 -14.543815,5.630664 C 27.05748,54.036737 21.871393,52.028863 17.893998,48.406348 16.814224,47.552082 15.928876,46.35801 14.883846,44.992086 12.258974,41.33144 10.84423,36.941757 10.837581,32.437297 c 9e-6,-11.929143 9.670507,-21.599641 21.599716,-21.599716 z"
     inkscape:label="ring"
     sodipodi:nodetypes="cccccccccccccc" /><path
     id="path4398"
     style="display:inline;opacity:1;fill:#bdb79d;fill-opacity:1;fill-rule:evenodd;stroke:#000000;stroke-width:0.998546;stroke-linecap:round;stroke-linejoin:round;stroke-miterlimit:100.1;paint-order:stroke fill markers"
     inkscape:label="ring"
     d="M 32.437297 0.49919434 C 14.798331 0.4992249 0.49912825 14.798428 0.49919434 32.437297 C 0.49912862 50.076165 14.798332 64.375368 32.437297 64.375399 C 50.076261 64.375368 64.375465 50.076165 64.375399 32.437297 C 64.375465 14.798428 50.076261 0.49922527 32.437297 0.49919434 z M 32.437297 10.837581 C 44.366695 10.837372 54.037519 20.507963 54.037528 32.437297 C 54.030828 36.939824 52.617208 41.327714 49.994364 44.987435 C 49.099632 46.249076 48.249075 47.398525 46.981112 48.406348 C 45.148706 50.075258 43.057706 51.396436 40.811462 52.341508 A 21.48925 21.48925 0 0 0 32.437297 50.635669 A 21.48925 21.48925 0 0 0 24.073466 52.345642 C 21.823572 51.400311 19.729014 50.077635 17.893998 48.406348 C 16.814225 47.552083 15.928875 46.358008 14.883846 44.992086 C 12.258977 41.331443 10.84423 36.941752 10.837581 32.437297 C 10.83759 20.508165 20.508099 10.837656 32.437297 10.837581 z " /><path
     style="fill:none;fill-opacity:1;stroke:none;stroke-width:0.264583;stroke-opacity:1"
     id="path1942-2-7"
     transform="matrix(-0.9768343,-0.2139971,-0.2139971,0.9768343,0,0)"
     sodipodi:type="arc"
     sodipodi:cx="-38.499779"
     sodipodi:cy="24.229445"
     sodipodi:rx="30.04505"
     sodipodi:ry="30.04505"
     sodipodi:start="0.18764131"
     sodipodi:end="6.2185034"
     sodipodi:open="true"
     sodipodi:arc-type="arc"
     d="M -8.982111,29.834112 A 30.04505,30.04505 0 0 1 -42.232535,54.041716 30.04505,30.04505 0 0 1 -68.488065,22.383447 30.04505,30.04505 0 0 1 -38.547884,-5.8155667 30.04505,30.04505 0 0 1 -8.5175576,22.287428" /><path
     style="font-size:9.87778px;line-height:1.35;font-family:'Politics Head';-inkscape-font-specification:'Politics Head';letter-spacing:0.105833px;fill:#ffffff;stroke-width:0"
     d="m 15.292515,16.60872 0.758698,-0.685488 c 0.07515,-0.0679 0.07964,-0.15646 0.01174,-0.231614 l -1.231937,-1.363509 -0.03889,-0.647378 c -0.0019,-0.03083 0.007,-0.07136 0.02493,-0.08752 0.02863,-0.02587 0.07632,-0.02345 0.103219,-0.01526 l 2.734326,0.760114 c 0.07748,0.021 0.146635,0.004 0.196738,-0.04125 l 0.887533,-0.801891 c 0.07515,-0.0679 0.07964,-0.156461 0.0085,-0.235194 -0.02587,-0.02863 -0.05243,-0.04364 -0.08614,-0.05217 l -3.869326,-0.937171 c -0.03372,-0.0085 -0.04734,-0.0092 -0.05704,-0.01997 -0.0097,-0.01074 -0.01259,-0.02113 -0.0141,-0.05877 L 14.570907,9.2199661 c 0.0017,-0.034061 -0.01987,-0.079549 -0.04897,-0.1117577 -0.0679,-0.075154 -0.15646,-0.079643 -0.231614,-0.011741 l -0.823116,0.7436894 c -0.03937,0.035568 -0.05864,0.078984 -0.05459,0.1338266 l 0.213276,3.1353999 C 13.548505,12.951792 13.398606,12.742717 13.233701,12.5602 l -1.138168,-1.259725 c -0.0679,-0.07515 -0.156461,-0.07964 -0.231615,-0.01174 l -0.758698,0.685488 c -0.07515,0.0679 -0.07964,0.15646 -0.01174,0.231614 l 3.967422,4.391143 c 0.0679,0.07515 0.15646,0.07964 0.231614,0.01174 z m 6.891595,-4.895281 c 1.169342,-0.594728 1.447755,-1.515529 0.973284,-2.4484231 L 21.838935,6.6726877 C 21.344786,5.7011019 20.49933,5.400602 19.286997,6.017195 L 18.672233,6.3298645 C 17.50289,6.9245925 17.226664,7.849692 17.698948,8.7782872 l 1.318459,2.5923278 c 0.494149,0.971586 1.339606,1.272086 2.551938,0.655493 z m -0.557558,-1.096259 -0.614764,0.31267 c -0.339625,0.172733 -0.683508,0.0392 -0.856241,-0.300426 l -1.18727,-2.3343853 c -0.161801,-0.3181298 -0.08241,-0.693996 0.261513,-0.868916 l 0.614764,-0.3126695 c 0.339626,-0.1727335 0.683508,-0.039199 0.856241,0.300426 l 1.18727,2.3343851 c 0.163987,0.3224287 0.08241,0.6939957 -0.261513,0.8689157 z m 3.970672,-0.515591 1.001898,-0.1785394 c 0.09971,-0.017769 0.150443,-0.090498 0.132674,-0.1902127 L 26.441563,8.1041595 C 26.281639,7.2067251 25.970146,6.2285198 25.960838,6.1762882 l 0.02374,-0.00423 c 0.01848,0.021203 0.356019,0.7057183 0.554644,1.0230595 l 1.043804,1.6511615 c 0.03474,0.057498 0.0968,0.075834 0.182269,0.060603 l 0.750236,-0.1336932 c 0.06648,-0.011846 0.11838,-0.05049 0.131967,-0.1117009 l 0.44106,-1.89617 c 0.07678,-0.3664184 0.150976,-1.1047101 0.146745,-1.1284517 l 0.03799,-0.00677 c 0.0093,0.052232 0.06354,1.0713812 0.218392,1.9403257 l 0.28854,1.6191807 c 0.01777,0.099715 0.0905,0.1504432 0.190213,0.1326738 l 0.982904,-0.175155 c 0.09971,-0.017769 0.150443,-0.090498 0.132674,-0.1902127 L 30.047777,3.130707 c -0.01777,-0.099715 -0.0905,-0.1504432 -0.190213,-0.1326738 l -1.073122,0.191232 c -0.07122,0.012692 -0.122282,0.056085 -0.131968,0.1117009 l -0.756115,3.2897726 c -0.03296,0.1724433 -0.04881,0.3859293 -0.04711,0.395426 l -0.04748,0.00846 c -0.0017,-0.0095 -0.07827,-0.1918145 -0.180807,-0.3548103 L 25.741748,3.819662 c -0.03305,-0.048001 -0.0912,-0.071931 -0.162429,-0.059239 l -1.077871,0.1920782 c -0.09971,0.017769 -0.150443,0.090498 -0.132674,0.1902127 l 1.038238,5.8262015 c 0.01777,0.099715 0.0905,0.1504436 0.190212,0.1326736 z M 35.778068,9.5087192 c 1.044311,0.1222625 1.788742,-0.3878807 1.93685,-1.569992 0.07994,-0.6413549 -0.158994,-1.1306556 -0.624365,-1.4279426 -0.03608,-0.023648 -0.05188,-0.054634 -0.04851,-0.083377 0.0022,-0.019162 0.0104,-0.047343 0.06646,-0.069917 C 37.560085,6.191837 37.875973,5.7334997 37.938226,5.2017635 38.064414,4.1239198 37.389761,3.4573496 36.216109,3.3199446 L 33.739463,3.0299919 c -0.100598,-0.011778 -0.170165,0.043207 -0.181942,0.1438057 l -0.682539,5.8299369 c -0.01178,0.1005987 0.04321,0.170165 0.143806,0.1819426 z M 34.794753,5.6301386 C 34.694154,5.6183611 34.63917,5.5487948 34.650947,5.448196 l 0.110485,-0.943712 c 0.01178,-0.1005988 0.08134,-0.1555833 0.181943,-0.1438057 l 1.130538,0.1323575 c 0.411976,0.048232 0.611888,0.2901601 0.563095,0.7069263 -0.04879,0.4167662 -0.299741,0.6107661 -0.711717,0.5625341 z M 34.49751,8.1690594 C 34.396911,8.1572818 34.341926,8.0877155 34.353704,7.9871168 l 0.121701,-1.0395204 c 0.01178,-0.1005987 0.08134,-0.1555833 0.181943,-0.1438057 l 1.231137,0.1441351 c 0.349701,0.040941 0.596138,0.341733 0.547906,0.7537088 -0.05047,0.4311375 -0.358044,0.652501 -0.707744,0.6115599 z m 7.671164,-3.9213092 0.496602,0.2000136 c 0.174482,0.070275 0.394135,-0.023244 0.46441,-0.1977255 l 0.10271,-0.2550118 C 43.304473,3.8160709 43.213626,3.6026932 43.034671,3.5306162 L 42.538069,3.3306026 c -0.192378,-0.077483 -0.392334,0.01877 -0.464411,0.1977255 l -0.102709,0.2550117 c -0.07027,0.1744818 0.02324,0.3941353 0.197725,0.4644104 z m 2.102729,0.8469044 0.496602,0.2000136 c 0.174481,0.070275 0.394135,-0.023244 0.46441,-0.1977255 L 45.335125,4.841931 C 45.407202,4.6629753 45.316355,4.4495976 45.137399,4.3775206 L 44.640797,4.177507 c -0.192377,-0.077483 -0.392333,0.01877 -0.46441,0.1977255 l -0.10271,0.2550118 c -0.07028,0.1744817 0.02324,0.3941353 0.197726,0.4644103 z m -3.624141,5.8094234 0.639766,0.257676 c 1.216898,0.490123 2.093772,0.09455 2.48479,-0.876286 l 1.65777,-4.1159793 c 0.03784,-0.093952 0.0031,-0.1755373 -0.09085,-0.2133777 L 44.390277,5.574103 c -0.09395,-0.03784 -0.175538,-0.0031 -0.213378,0.090847 L 42.573186,9.6467125 C 42.433568,9.9804524 42.10443,10.165065 41.746519,10.020911 L 41.106752,9.7632363 C 40.753315,9.6208842 40.627856,9.2739743 40.770208,8.920537 l 1.603713,-3.9817627 c 0.03784,-0.093952 0.0031,-0.1755373 -0.09085,-0.2133777 l -0.948465,-0.382008 c -0.09395,-0.03784 -0.175537,-0.0031 -0.213377,0.090847 l -1.657771,4.1159794 c -0.405433,1.0066254 -0.07784,1.8457211 1.183801,2.3538631 z m 5.366651,2.940813 c 1.112281,0.815856 2.201067,0.693328 2.885702,-0.240055 0.499212,-0.680591 0.406997,-1.549752 -0.370764,-2.658574 -0.478063,-0.685623 -0.560485,-0.9973027 -0.377915,-1.2462046 0.188274,-0.2566802 0.553364,-0.3059067 0.930607,-0.0292 0.338351,0.24818 0.477036,0.5891658 0.408287,0.9275358 -0.01557,0.07831 0.0083,0.14365 0.05495,0.177881 0.01944,0.01426 0.04174,0.02464 0.06689,0.03112 l 0.89609,0.262501 c 0.05808,0.01867 0.100346,0.0018 0.12602,-0.03318 0.01712,-0.02333 0.02567,-0.035 0.06224,-0.133789 0.239413,-0.799375 -0.09343,-1.6177409 -0.917919,-2.2225015 -1.050055,-0.770214 -2.21534,-0.5841666 -2.731668,0.1197594 -0.561971,0.7661514 -0.490238,1.6143071 0.330046,2.7303941 0.502178,0.685366 0.529886,1.02271 0.347317,1.271612 -0.202538,0.276126 -0.560887,0.324316 -0.961463,0.03049 -0.435579,-0.319496 -0.561817,-0.669296 -0.489436,-1.028928 0.01557,-0.07831 -0.0083,-0.14365 -0.05495,-0.177881 -0.01944,-0.01426 -0.04174,-0.02464 -0.06689,-0.03112 l -0.954949,-0.263804 c -0.05808,-0.01867 -0.100346,-0.0018 -0.12602,0.03318 -0.01712,0.02334 -0.02567,0.035 -0.06224,0.133789 -0.2809,0.798853 0.107685,1.688011 1.006065,2.346972 z m 5.310022,5.146952 c 0.0654,0.07734 0.153764,0.08473 0.231105,0.01933 l 0.6887,-0.582377 c 0.07734,-0.0654 0.08473,-0.153764 0.01933,-0.231105 l -1.563386,-1.84881 c -0.0654,-0.07734 -0.05801,-0.165704 0.01933,-0.231105 l 0.725529,-0.61352 c 0.07734,-0.0654 0.165705,-0.05801 0.231105,0.01933 l 1.283098,1.51735 c 0.0654,0.07734 0.153765,0.08473 0.231105,0.01933 l 0.6887,-0.582377 c 0.07734,-0.0654 0.08473,-0.153764 0.01933,-0.231105 l -1.283098,-1.51735 c -0.0654,-0.07734 -0.05801,-0.165704 0.01933,-0.231105 l 0.6887,-0.582377 c 0.07734,-0.0654 0.165705,-0.05801 0.231105,0.01933 l 1.563387,1.848809 c 0.0654,0.07734 0.153764,0.08473 0.231105,0.01933 l 0.6887,-0.582377 c 0.07734,-0.0654 0.08473,-0.153764 0.01933,-0.231105 l -2.435394,-2.880019 c -0.0654,-0.07734 -0.153765,-0.08473 -0.231105,-0.01933 l -4.482075,3.790122 c -0.07734,0.0654 -0.08473,0.153764 -0.01933,0.231105 z"
     id="text1875-3"
     inkscape:label="PRESS"
     transform="rotate(-3.7708075,32.413373,32.128993)"
     aria-label="Kombüse" /><path
     id="path1788"
     style="opacity:1;fill:#000000;fill-opacity:1;fill-rule:evenodd;stroke:#000000;stroke-width:0;stroke-linecap:round;stroke-linejoin:round;stroke-miterlimit:100.1;paint-order:stroke fill markers"
     d="m 28.185924,14.75834 c -7.207096,9.707556 3.088756,9.707895 0,19.41545 7.207098,-9.707555 -3.088754,-9.707894 0,-19.41545 z m 4.358583,0 c -7.207097,9.707556 3.088755,9.707895 0,19.41545 7.207097,-9.707555 -3.088756,-9.707894 0,-19.41545 z m 4.358583,0 c -7.207097,9.707556 3.088754,9.707895 0,19.41545 7.207096,-9.707555 -3.088756,-9.707894 0,-19.41545 z" /><path
     style="opacity:1;fill:#010000;fill-opacity:1;fill-rule:evenodd;stroke:#000000;stroke-width:0.210765;stroke-linecap:round;stroke-linejoin:round;stroke-miterlimit:100.1;stroke-dasharray:none;paint-order:stroke fill markers"
     d="m 21.899024,38.144425 c 0,5.269136 3.381996,9.131624 6.322963,9.484446 1.053828,1.053827 7.376792,1.053827 8.43062,0 2.808659,-0.441028 6.322963,-4.21531 6.322963,-9.484446 -4.935231,-2.858939 -16.944712,-2.831114 -21.076546,0 z"
     id="path2069"
     sodipodi:nodetypes="ccccc" /><path
     d="m 46.184369,37.909659 c 0.02494,-1.691159 0.03337,-2.133455 0.08289,-3.82389 0.01982,-0.676784 0.04776,-1.351878 -0.0027,-2.026835 -0.06315,-0.845098 -0.443706,-1.664949 -0.581803,-2.498167 -0.05526,-0.333445 -0.116762,-1.315466 -0.16487,-2.089831 -0.02907,-0.467817 0.02215,-1.080616 0.08435,-1.537408 0.134763,-0.989941 0.359824,-1.805947 0.710971,-2.786294 0.125219,-0.349591 0.457197,-0.788184 0.625575,-1.118114 0.08358,-0.163771 0.19781,-0.306245 0.34777,-0.4155 0.105225,-0.07666 0.220215,-0.116726 0.345534,-0.04801 0.123841,0.06792 0.157097,0.181688 0.150333,0.314585 -0.01885,0.370187 -0.04317,0.740258 -0.05313,1.110703 -0.02831,1.053441 -0.03977,2.107437 -0.07775,3.160499 -0.05366,1.488067 -0.0069,3.024516 -0.09756,4.513418 0.04008,0.678345 0.04818,1.238669 0.03814,1.823645 0.06449,1.959202 0.0022,3.734632 -0.01312,5.625435 -0.0118,1.450475 0.07212,2.896732 0.076,4.347799 5.2e-4,0.19435 0.03866,0.387817 0.02952,0.583961 -0.0045,0.09754 -0.04319,0.152989 -0.135709,0.187813 -0.391506,0.147371 -0.792323,0.122511 -1.193996,0.06919 -0.168876,-0.02243 -0.226625,-0.122497 -0.225939,-0.299586 -0.02814,-2.304834 -0.01305,-4.032559 0.05551,-5.093411 z"
     id="path672"
     style="stroke-width:0.0390391"
     sodipodi:nodetypes="cscsssssscscsccsscssccc" /><path
     d="m 16.773283,22.165416 c 0.103053,0.348857 0.09761,0.667954 0.114023,0.982358 0.03866,0.740435 0.03808,0.718322 0.108793,1.457034 0.04952,0.517346 0.153041,1.028882 0.167783,1.550299 0.0022,0.07859 0.02331,0.169655 0.125601,0.165088 0.09146,-0.0042 0.102051,-0.096 0.104682,-0.163792 0.0061,-0.155688 -0.0019,-0.311894 -0.0033,-0.467899 -0.0095,-1.125194 -0.01728,-1.485766 -0.02894,-2.610937 -0.0022,-0.220945 -0.02104,-0.441676 -0.02769,-0.66264 -0.0022,-0.07598 -0.01449,-0.15734 0.051,-0.230275 0.07607,0.101178 0.07915,0.218559 0.09197,0.331581 0.128336,1.131859 0.179414,1.5042 0.224048,2.641594 0.01202,0.306051 0.04922,0.609151 0.114803,0.908224 0.02135,0.09731 0.01845,0.253894 0.142423,0.243177 0.139781,-0.01208 0.105342,-0.174292 0.105843,-0.274638 0.0027,-0.552929 0.0017,-1.10603 -0.0094,-1.658843 -0.01814,-0.904081 -0.04634,-1.043321 -0.06602,-1.94738 -0.0019,-0.085 -0.0427,-0.234718 0.0479,-0.241534 0.10596,-0.0079 0.07066,0.144447 0.08133,0.22403 0.0952,0.709644 0.110659,0.661495 0.174841,1.373915 0.06419,0.712321 0.127961,1.424764 0.204143,2.135841 0.01397,0.130497 -8.09e-4,0.364274 0.15228,0.353065 0.157447,-0.01157 0.07002,-0.228061 0.07033,-0.352326 0.0022,-0.936575 0.02606,-1.108627 -0.02603,-2.045006 -0.02529,-0.454461 -0.02819,-0.91023 -0.03719,-1.365483 -0.0019,-0.09897 -0.02377,-0.205894 0.06987,-0.317735 0.0991,0.240812 0.143225,0.474543 0.183131,0.70616 0.07917,0.411694 0.158021,0.817216 0.231984,1.314137 0.06899,0.866497 0.255146,1.747469 0.09551,2.624587 -0.11041,0.606685 -0.324652,1.136405 -0.788358,1.553469 -0.17087,0.15368 -0.247089,0.334325 -0.237609,0.569235 0.0483,1.197003 -0.07005,2.393175 -0.02619,3.590366 0.100741,2.749441 0.202987,4.874156 0.304601,7.623566 0.02739,0.740991 0.06048,1.481843 0.07951,2.22305 0.0091,0.352555 -0.01065,0.357762 -0.360522,0.416297 -0.252415,0.04221 -0.505351,0.03982 -0.758961,0.02667 -0.263978,-0.01367 -0.318948,-0.06404 -0.314405,-0.333885 0.01272,-0.754477 0.02422,-1.509164 0.0529,-2.263135 0.06305,-1.657583 0.155087,-2.689149 0.190359,-4.348094 0.04272,-2.009671 0.114413,-4.018725 0.172548,-6.028081 0.0092,-0.318636 0.01044,-0.63751 0.02042,-0.956116 0.0053,-0.171608 -0.04251,-0.323161 -0.156652,-0.448554 -0.608637,-0.66861 -0.802222,-1.479842 -0.830567,-2.354988 -0.04573,-1.411932 -0.0178,-2.058121 0.04348,-3.46868 0.0066,-0.15144 -0.05622,-0.400315 0.145634,-0.473715 z"
     id="path680"
     style="stroke-width:0.0390391"
     sodipodi:nodetypes="ccsccccccccsscccccccsccsccccssscscccscscccscsc" /><path
     style="opacity:1;fill:#ffffff;fill-opacity:1;fill-rule:evenodd;stroke:#000000;stroke-width:0.260374;stroke-linecap:round;stroke-linejoin:round;stroke-miterlimit:100.1;stroke-dasharray:none;paint-order:stroke fill markers"
     d="m 23.412913,38.727635 c 5.159045,2.082298 12.573881,2.188003 18.299614,-4e-6 -6.543048,-1.968716 -11.690837,-2.142601 -18.299614,4e-6 z"
     id="path2311"
     sodipodi:nodetypes="ccc" /><circle
     style="opacity:1;fill:none;fill-opacity:1;fill-rule:evenodd;stroke:#000000;stroke-width:0;stroke-linecap:round;stroke-linejoin:round;stroke-miterlimit:100.1;stroke-dasharray:none;paint-order:stroke fill markers"
     id="path4254"
     cx="-1.3963547"
     cy="45.75592"
     r="30.038683"
     transform="matrix(-0.72756851,0.68603503,0.68603503,0.72756851,0,0)" /><path
     style="opacity:1;fill:#000000;fill-opacity:1;fill-rule:evenodd;stroke:#000000;stroke-width:0;stroke-linecap:round;stroke-linejoin:round;stroke-miterlimit:100.1;stroke-dasharray:none;paint-order:stroke fill markers"
     d="m 30.981779,38.569219 c 0.0021,-0.273483 0.552889,-0.938893 0.809754,-0.983588 -0.03449,0.237253 -0.0536,0.715789 -0.0048,0.923781 -0.240623,0.05703 -0.597334,0.113768 -0.804954,0.05981 z"
     id="path4327"
     sodipodi:nodetypes="ccccc" /><path
     style="opacity:0.18;fill:none;fill-opacity:1;fill-rule:evenodd;stroke:#000000;stroke-width:0.05;stroke-linecap:round;stroke-linejoin:round;stroke-miterlimit:100.1;stroke-dasharray:none;paint-order:stroke fill markers"
     d="m 31.798938,38.486894 c 2.587936,-0.196875 4.691856,0.360472 1.547602,0.51804"
     id="path4383"
     sodipodi:nodetypes="cc" /><path
     id="path4413"
     style="fill:#827644;fill-opacity:1;fill-rule:evenodd;stroke:none;stroke-width:0;stroke-linecap:butt;stroke-linejoin:miter;stroke-miterlimit:4;stroke-dasharray:none;stroke-opacity:1"
     d="m 6.7199668,23.419129 c -0.063513,-0.0017 -0.1281922,0.0286 -0.1936315,0.107622 -0.1471035,0.177632 -0.08281,0.565144 0.00911,0.732017 -0.077497,0.01187 -0.1542835,0.02068 -0.1943679,-0.02188 -0.054207,-0.05758 -0.069282,-0.250337 0.00564,-0.361462 -0.01902,-0.194325 -0.085808,-0.274483 -0.1710241,-0.292168 -0.1756341,-0.03645 -0.4298839,0.193238 -0.5086519,0.239091 -0.1683221,-0.08914 -0.298986,-0.130125 -0.5573061,-0.133674 -0.014799,0.06683 -0.013923,0.135351 -0.00708,0.202969 -0.038628,0.132862 -0.1641259,0.232506 -0.2965911,0.226559 -0.1905818,-0.0085 -0.4108527,-0.14684 -0.5364185,-0.02408 -0.2112092,0.235274 0.011153,0.548099 -0.1275314,0.691964 -0.2003774,0.08607 -0.3233984,0.120337 -0.3838236,0.332712 0.00492,0.276361 0.5285441,0.465376 0.5985874,0.707935 -0.02359,0.224953 -0.1695586,0.30213 -0.1911742,0.520939 0.041255,0.17997 0.3005619,0.260103 0.4142933,0.342295 -0.1666671,0.04186 -0.2228625,0.07123 -0.3334494,0.196581 0.00312,0.114518 0.2455586,0.140855 0.3120713,0.261452 0.037141,0.06734 -0.017617,0.201227 -0.1100809,0.306911 0.2921035,0.207011 0.6167875,0.181076 0.6140687,0.659281 0,0 0.1298293,0.736681 0.2616972,1.084387 0.013132,0.03464 0.003,0.07475 0.035139,0.101243 -0.2836162,0.09751 -0.5669866,0.262176 -0.7683846,0.417979 -0.031337,0.02425 -0.060791,0.05085 -0.088458,0.07986 -0.083037,0.08702 -0.149851,0.194706 -0.2034595,0.317477 -0.338105,0.777707 -0.1112442,2.856835 -0.048654,3.536973 0.1215974,1.313791 0.2956713,3.72887 0.5934269,5.006658 0.3427834,1.470456 0.4984988,1.971905 1.4785316,3.034711 0.056989,-0.07138 0.1105126,-0.140551 0.1607044,-0.207884 0.1003787,-0.134669 0.1876064,-0.261768 0.2641533,-0.384561 0.076549,-0.122789 0.1423148,-0.241308 0.1995283,-0.358022 0.057217,-0.116713 0.1060273,-0.231759 0.1484203,-0.348192 0.04237,-0.116437 0.078528,-0.234105 0.1105726,-0.356057 0.1121915,-0.426826 0.1748006,-0.905182 0.2845528,-1.559374 0.027199,-0.162448 0.053344,-0.341488 0.078144,-0.532978 0.049602,-0.382976 0.094322,-0.815823 0.1336741,-1.265733 0.019692,-0.224947 0.037813,-0.454238 0.054794,-0.683609 0.016982,-0.229381 0.03256,-0.458984 0.046688,-0.68459 0.04237,-0.676818 0.071584,-1.318043 0.086491,-1.813209 0.00516,-0.170895 0.015135,-0.429953 0.021131,-0.733983 0.00288,-0.152008 0.00504,-0.31518 0.00492,-0.484326 -8.03e-5,-0.169156 -0.00192,-0.344181 -0.00768,-0.519709 -0.00288,-0.08776 -0.00624,-0.175589 -0.010553,-0.262926 -0.00875,-0.17467 -0.021023,-0.347196 -0.038341,-0.512091 -0.04327,-0.412247 -0.1166648,-0.777224 -0.2371206,-1.01067 -0.060815,-0.11808 -0.1343504,-0.219629 -0.2226286,-0.299539 -0.02943,-0.02665 -0.060359,-0.05086 -0.093135,-0.07248 -0.089933,-0.05923 -0.1951918,-0.119112 -0.3086282,-0.173974 -0.056725,-0.02743 -0.1153936,-0.05362 -0.1754482,-0.07789 -0.060059,-0.02427 -0.121378,-0.04662 -0.183066,-0.06634 -0.0319,-0.01019 -0.063849,-0.01956 -0.095833,-0.02825 0.00899,-0.01127 0.016094,-0.02762 0.019164,-0.05849 l 0.7160425,-1.6412 c 0.2677643,-0.04309 0.8095723,-0.26645 0.8187587,-0.480148 0.00384,-0.08421 -0.1969175,-0.106147 -0.3457371,-0.206901 0.3261699,-0.299954 0.2700453,-0.774212 0.534947,-1.078981 0.072867,-0.08383 0.1701078,-0.154866 0.3061744,-0.205918 0.06223,-0.09364 0.069066,-0.169716 0.044961,-0.234914 C 8.5886685,25.216811 8.4079519,25.1292 8.3017039,25.03109 8.1950649,24.93265 8.1635169,24.823564 8.4152266,24.647022 8.4600676,24.515554 8.4268596,24.407682 8.3552756,24.342567 8.2684966,24.263657 8.1255281,24.248307 7.9977448,24.330527 7.9379969,24.215229 7.8545122,24.11955 7.8436708,24.092173 8.1488751,23.702582 7.3354903,23.444618 7.2411546,23.836127 7.089591,23.715433 6.9105102,23.424 6.7199692,23.419131 Z" /><path
     id="path30"
     style="fill:#827644;fill-opacity:1;fill-rule:evenodd;stroke-width:0.259937"
     d="m 60.556048,26.208111 c -0.164804,0.07276 -0.34399,0.174291 -0.536927,0.307489 -0.380501,0.268654 -0.633396,0.569226 -0.758101,0.900624 -0.05789,0.149688 -0.102117,0.304742 -0.133206,0.465461 -0.07079,-0.100326 -0.159308,-0.186237 -0.265942,-0.257265 -0.109107,-0.05619 -0.270479,-0.04262 -0.483913,0.04162 -0.126764,0.04186 -0.225935,0.09586 -0.297743,0.160632 0.180395,-0.02883 0.33536,-0.01009 0.464729,0.05567 0.288298,0.159391 0.450027,0.385462 0.486765,0.679664 0.03129,0.258475 -0.02808,0.441748 -0.177723,0.548702 0.01857,-0.0048 0.03629,-0.0097 0.05366,-0.01452 -0.0241,0.02953 -0.04881,0.06122 -0.07412,0.09487 l -1.226212,0.670099 c -0.532491,0.277884 -0.948802,0.623711 -1.247461,1.037466 -0.360483,0.479789 -0.528887,1.013316 -0.505253,1.600904 0.0277,0.724646 0.239064,1.362407 0.63444,1.91137 0.477015,0.655087 1.161887,1.082888 2.053821,1.281689 0.06786,0.0144 0.134985,0.02676 0.201995,0.03703 -0.02417,0.03954 -0.04657,0.07009 -0.06701,0.09155 l -0.0215,0.03729 -0.107017,0.112339 0.291757,-0.12314 0.0072,0.308647 0.184926,-0.240055 0.03514,-0.0675 0.01666,0.05906 c 0.006,0.04341 0.0013,0.07749 -0.01217,0.102272 -0.01327,0.04483 -0.03278,0.0653 -0.05716,0.06 0.02577,0.05398 0.06421,0.05332 0.117432,-0.0026 l 0.106153,-0.171495 0.02443,0.09506 c 0.02159,0.06854 0.0617,0.126314 0.121712,0.173722 0.09025,0.07599 0.149591,0.11414 0.179715,0.11342 -0.04524,-0.02335 -0.07475,-0.0672 -0.09136,-0.130792 l -0.02827,-0.241202 0.06133,0.100495 c 0.06071,0.07759 0.136222,0.139385 0.224858,0.186156 0.139763,0.07714 0.265809,0.09773 0.379815,0.06059 -0.04712,0.01253 -0.1099,-0.01408 -0.188388,-0.08017 -0.05007,-0.04769 -0.09646,-0.110585 -0.136416,-0.187727 l -0.04029,-0.109624 0.06029,0.05743 c 0.04988,0.04751 0.104687,0.08566 0.164227,0.114369 0.08523,0.04168 0.138763,0.06064 0.163056,0.05437 -0.09388,-0.05144 -0.144371,-0.09409 -0.149631,-0.128516 -3.46e-4,-0.01998 -0.0139,-0.04129 -0.03893,-0.06513 l -0.03729,-0.0215 0.05914,-0.0014 c 0.03874,-0.0011 0.06568,0.01069 0.08185,0.03478 0.01542,0.04411 0.04529,0.0585 0.08865,0.04238 -0.07762,-0.108267 -0.149634,-0.199641 -0.216096,-0.274851 0.505648,-0.121285 0.983121,-0.380272 1.432745,-0.777381 0.773755,-0.670917 1.1462,-1.393126 1.117506,-2.166471 -0.02585,-0.676833 -0.18409,-1.228924 -0.473779,-1.65782 C 61.718345,30.6849 61.220761,30.24902 60.503273,29.775896 60.04944,29.478234 59.742065,29.238359 59.58116,29.055661 l -0.09463,-0.170358 c 0.0097,-0.06034 0.04529,-0.13838 0.106933,-0.234139 0.136912,-0.214575 0.267094,-0.382247 0.391438,-0.502178 0.14869,-0.145913 0.33445,-0.266295 0.557789,-0.359419 l 0.487199,-0.225844 c -0.262023,-0.07693 -0.443636,-0.107053 -0.545984,-0.0893 -0.06845,0.01153 -0.113384,0.0028 -0.133353,-0.02607 -0.01518,-0.03421 -0.0046,-0.06585 0.03443,-0.09621 0.0335,-0.03517 0.03515,-0.06215 0.0058,-0.08144 -0.03514,-0.02341 -0.100891,-0.01911 -0.198485,0.01287 -0.111822,0.03636 -0.285819,0.243672 -0.521531,0.622258 -0.07497,0.118754 -0.13907,0.228513 -0.192531,0.329295 0.05591,-0.252414 0.126843,-0.48018 0.213258,-0.682574 0.09957,-0.306146 0.180623,-0.522064 0.240872,-0.645612 0.09865,-0.193234 0.306515,-0.426225 0.623669,-0.698854 z m 0.241732,2.159916 c -0.04959,-0.04704 -0.111185,-0.08841 -0.184869,-0.124502 -0.144248,-0.07997 -0.274529,-0.09319 -0.391132,-0.04164 -0.01908,0.0099 0.03801,0.04103 0.171412,0.09093 0.173173,0.05979 0.268239,0.126305 0.284353,0.199077 0.02764,0.13152 0.0156,0.264735 -0.03428,0.398137 0.220214,-0.191221 0.300891,-0.331005 0.239218,-0.417761 -0.02258,-0.03739 -0.05075,-0.07205 -0.0847,-0.104243 z m -2.457584,-0.896707 -0.22959,-0.203566 -2.8e-4,2.95e-4 c -0.184953,-0.128441 -0.35028,-0.200579 -0.49793,-0.216302 l -0.100219,0.11993 c -0.05129,0.114129 -0.02754,0.260073 0.06927,0.439577 0.159561,0.294906 0.267191,0.468813 0.322335,0.521342 -0.15092,-0.324707 -0.21005,-0.543802 -0.177688,-0.657288 0.03157,-0.09343 0.11169,-0.142062 0.238641,-0.145694 0.1278,-0.0076 0.252956,0.04042 0.375461,0.141708 z" /><g
     id="g597"
     transform="matrix(1.107432,0,0,1.107432,-3.4164729,-5.537469)"><path
       id="path652"
       d="m 36.348857,60.463845 c 0.248818,6.56e-4 0.447715,-0.18957 0.446325,-0.432544 -7.22e-4,-0.128486 -0.0127,-0.256879 -0.01478,-0.385378 -0.0117,-0.724717 -0.07087,0.287976 -0.08941,-0.436433 -0.0033,-0.132579 -0.05317,-0.239281 -0.160101,-0.319446 -0.03666,-0.02755 -0.0537,-2.57792 -0.01595,-2.597934 0.0757,-0.04023 0.06848,-0.104338 0.06352,-0.169496 -0.01091,-0.14296 -0.01178,-0.143032 0.12719,-0.16696 0.0392,-0.0067 0.08661,-0.0079 0.09575,-0.05508 0.0076,-0.03955 0.03146,-0.0477 0.06156,-0.05484 0.502987,-0.124506 1.070808,-0.648611 1.066943,-1.331467 -1.1e-5,-0.01634 -0.0017,-0.03586 0.01294,-0.04555 0.05591,-0.0372 0.05169,-0.09438 0.05419,-0.150426 0.02554,-0.56644 -0.02889,-1.130339 -0.05428,-1.695132 -0.0064,-0.143723 -0.08149,-0.250294 -0.19948,-0.328561 -0.122097,-0.08109 -0.255842,-0.13666 -0.397884,-0.169117 -0.612207,-0.139811 -1.227429,-0.144886 -1.844333,-0.03386 -0.200689,0.03611 -0.3962,0.08972 -0.577806,0.186081 -0.128902,0.06836 -0.209991,0.170506 -0.247897,0.313903 -0.02698,0.102044 -0.0208,0.20367 -0.02529,0.305933 -0.02038,0.464746 -0.02543,0.929641 -0.0107,1.394599 0.0022,0.07202 -0.01049,0.152463 0.0708,0.199469 0.01643,0.0095 0.01248,0.03434 0.01082,0.05281 -0.0239,0.258513 0.07464,0.482814 0.207723,0.691626 0.19793,0.310502 0.485582,0.50565 0.836304,0.610933 0.02534,0.0076 0.0564,0.0053 0.06475,0.04291 0.01024,0.0461 0.04889,0.05742 0.08956,0.06608 0.142339,0.03012 0.142213,0.03062 0.145332,0.178525 1.97e-4,0.0098 0.0012,0.01873 7.22e-4,0.02805 -0.0026,0.05387 0.003,0.102897 0.06148,0.128359 0.02268,0.0098 0.02203,0.03343 0.02206,0.05502 9.18e-4,0.07245 0.002,2.419363 0.0035,2.491815 5.95e-4,0.02683 -0.0072,0.04342 -0.03132,0.06238 -0.09597,0.07559 -0.156067,0.17209 -0.150242,0.300497 0.0021,0.04434 0.0019,0.08884 7.21e-4,0.133175 -0.01089,0.383187 0.05327,-0.563161 -0.03348,-0.585868 -0.0047,-3.02e-4 -0.0092,-1.3e-5 -0.01295,-9.2e-5 3e-6,0.427677 -3.61e-4,0.855374 1.44e-4,1.283051 2.77e-4,0.237923 0.191137,0.432295 0.423591,0.433121 z m 0.0054,-0.305029 c -0.03394,0.02565 -0.08614,-0.0288 -0.120876,-0.08358 -0.04387,-0.0697 -0.07179,-0.184539 -0.07116,-0.316042 0.0029,-0.0814 0.0171,-0.180656 0.07149,-0.268718 0.06829,-0.110547 0.173835,-0.113465 0.235185,6.56e-4 0.10339,0.1918 0.102819,0.391418 2.4e-5,0.583363 -0.03056,0.057 -0.08101,0.05811 -0.114666,0.08422 z m -0.0458,-4.484841 c -0.115304,0.0015 -0.230739,-0.01241 -0.346302,-0.04381 -0.04059,-0.01105 -0.0779,-0.0161 -0.107119,0.02366 -0.0186,0.0253 -0.04297,0.01192 -0.06402,0.0048 -0.395884,-0.133503 -0.700399,-0.375253 -0.891528,-0.751989 -0.05617,-0.110014 -0.07422,-0.230422 -0.09792,-0.349141 -0.0087,-0.04341 -0.0031,-0.08619 0.01926,-0.128486 0.03213,-0.06126 0.03742,-0.130183 0.03246,-0.198299 -0.02341,-0.322013 -0.01651,-0.644382 -0.01425,-0.966736 3.46e-4,-0.04662 -0.0065,-0.09332 -0.0051,-0.139874 0.0019,-0.06709 0.02263,-0.07932 0.07446,-0.04125 0.245295,0.180148 0.527413,0.26889 0.820879,0.32136 0.594882,0.106366 1.177034,0.06959 1.735022,-0.182545 0.0893,-0.04034 0.177221,-0.08491 0.253339,-0.147931 0.04172,-0.035 0.05134,-0.01089 0.05391,0.02619 0.0055,0.07921 0.01183,0.158476 0.01317,0.237808 0.0022,0.126018 5.74e-4,0.252095 5.78e-4,0.378136 0.0015,0.184393 0.01465,0.369188 -3.8e-4,0.553526 -0.0041,0.04954 0.008,0.09739 0.03439,0.140844 0.0288,0.04673 0.03592,0.09532 0.01,0.146433 -0.0064,0.01202 -0.0098,0.02634 -0.01172,0.04006 -0.05929,0.422368 -0.334129,0.684489 -0.669736,0.901436 -0.09675,0.06253 -0.204191,0.102128 -0.310641,0.14385 -0.01996,0.0079 -0.04216,0.01665 -0.05906,-0.0012 -0.03772,-0.04015 -0.08113,-0.0282 -0.123954,-0.0166 -0.1151,0.03108 -0.230273,0.04832 -0.345583,0.04991 z m -0.01726,-2.395283 c -0.310737,-0.0014 -0.61517,-0.03958 -0.905635,-0.157615 -0.08924,-0.03623 -0.173406,-0.08154 -0.247361,-0.143991 -0.180654,-0.152678 -0.181574,-0.333659 4e-6,-0.485954 0.122257,-0.102547 0.266863,-0.163132 0.419185,-0.20386 0.530055,-0.141695 1.057976,-0.138183 1.581338,0.03332 0.124992,0.04098 0.24247,0.09959 0.339275,0.191653 0.151877,0.14439 0.151055,0.307588 -0.0049,0.448357 -0.148479,0.13403 -0.332587,0.196336 -0.521799,0.243845 -0.21638,0.05433 -0.436943,0.07685 -0.660109,0.07428 z m 0.01002,-0.05616 c 0.196888,-0.0012 0.3945,-0.02614 0.592621,-0.07212 0.171828,-0.03988 0.336868,-0.0998 0.468568,-0.224268 0.125783,-0.119063 0.126027,-0.258489 0.0043,-0.380221 -0.0794,-0.07938 -0.177066,-0.129001 -0.280223,-0.168253 -0.254527,-0.09698 -0.519789,-0.130206 -0.824962,-0.129091 -0.132095,-0.0033 -0.297089,0.01201 -0.46006,0.04532 -0.195698,0.04003 -0.386921,0.09424 -0.544949,0.224472 -0.162007,0.133554 -0.160621,0.297352 4.95e-4,0.432476 0.08539,0.07154 0.184179,0.119589 0.289056,0.15393 0.250115,0.08192 0.502017,0.119399 0.755155,0.117799 z m -0.01956,-0.04332 c -0.224946,-0.0012 -0.449628,-0.0381 -0.673816,-0.112283 -0.100325,-0.03323 -0.194128,-0.08089 -0.27134,-0.155245 -0.119593,-0.115092 -0.119111,-0.245752 0.0037,-0.358324 0.126168,-0.116082 0.284497,-0.166526 0.446586,-0.20526 0.07476,-0.01785 0.150949,-0.03144 0.227269,-0.04006 0.09266,-0.01044 0.185727,-0.0206 0.234029,-0.01809 0.296721,0.0042 0.543622,0.03301 0.779118,0.127365 0.08273,0.03317 0.160982,0.07486 0.2264,0.136821 0.122412,0.116013 0.121418,0.249277 -0.0035,0.36366 -0.08413,0.07741 -0.185611,0.126453 -0.293141,0.159286 -0.225173,0.06875 -0.450372,0.103274 -0.675325,0.102094 z m 0.02448,-0.04948 c 0.245707,-0.0076 0.496094,-0.03219 0.725816,-0.151556 0.100903,-0.05243 0.202752,-0.115695 0.201726,-0.246089 -9.84e-4,-0.126698 -0.101097,-0.187828 -0.199227,-0.24082 -0.145747,-0.07897 -0.305135,-0.114999 -0.468082,-0.134074 -0.314597,-0.03674 -0.624605,-0.02001 -0.923853,0.09419 -0.081,0.03092 -0.157061,0.07236 -0.21836,0.135794 -0.08922,0.09259 -0.09003,0.199035 -0.0017,0.291902 0.05569,0.05859 0.124762,0.09727 0.198303,0.12862 0.21659,0.09231 0.445327,0.116792 0.685466,0.12202 z m -0.01154,-0.03425 c -0.192212,-2.1e-4 -0.384412,-0.03333 -0.576408,-0.09924 -0.06876,-0.02356 -0.132353,-0.05842 -0.187442,-0.106815 -0.112015,-0.09832 -0.113067,-0.21326 1.32e-4,-0.310016 0.121296,-0.103702 0.270414,-0.144005 0.422383,-0.173396 0.114616,-0.0222 0.230935,-0.03318 0.348123,-0.03097 0.185379,0.0017 0.367764,0.02353 0.543561,0.08543 0.08856,0.03124 0.173109,0.07121 0.239439,0.140251 0.08248,0.08599 0.08217,0.180045 8e-5,0.266638 -0.05914,0.0625 -0.133412,0.102488 -0.213393,0.129792 -0.192059,0.06575 -0.384266,0.09846 -0.576483,0.09825 z m 0.01132,-0.04439 c 0.1438,0.0026 0.291623,-0.01532 0.435788,-0.05871 0.08991,-0.02706 0.176546,-0.06178 0.246914,-0.126787 0.09231,-0.0856 0.09154,-0.179595 -0.0018,-0.26483 -0.0472,-0.04309 -0.102292,-0.0742 -0.162078,-0.09511 -0.349463,-0.122036 -0.699691,-0.122344 -1.049841,-0.0028 -0.05778,0.0197 -0.111065,0.04911 -0.158232,0.08817 -0.108703,0.08999 -0.107649,0.198953 0.0022,0.28818 0.05509,0.04472 0.118253,0.07458 0.18471,0.09769 0.16058,0.0558 0.326508,0.0767 0.502398,0.07412 z"
       style="fill:#827644;fill-opacity:1;stroke-width:0.0140292"
       inkscape:transform-center-x="0.10546416"
       inkscape:transform-center-y="0.023577871"
       sodipodi:nodetypes="cscccccccccccccccssccccccccccscscccccsccscccscssccccsccssccsssccccsccsscccccccsscccscccssscccssccccccssccsccscccccccscscccccssscccsscccsscssccccc" /><path
       d="m 26.030456,53.308988 c 0.267332,0.491513 0.458839,1.0116 0.591538,1.554521 0.04147,0.169622 0.0349,0.327566 -0.05523,0.483128 -0.170205,0.293745 -0.144799,0.586455 0.0221,0.873709 0.0323,0.05557 0.07576,0.108826 0.02126,0.176605 -0.01669,0.02066 0.0039,0.0429 0.01537,0.0612 0.244711,0.391464 1.258848,2.151162 1.492674,2.549087 0.02033,0.03463 0.04607,0.06682 0.08848,0.07586 0.125632,0.02676 0.20409,0.112757 0.262553,0.217302 0.277338,0.424142 0.132809,0.207233 0.419013,0.624416 0.167956,0.244823 -0.192555,-0.406964 -0.03249,-0.156978 0.05104,0.07975 0.104287,0.158277 0.137777,0.248083 0.06338,0.170503 0.0028,0.333922 -0.162539,0.434696 -0.156741,0.0958 -0.355224,0.06841 -0.47142,-0.06185 -0.05949,-0.06669 -0.08923,-0.149311 -0.130694,-0.225822 -0.186717,-0.344351 0.147831,0.212684 -0.04149,-0.130224 -0.09636,-0.179889 -0.172278,-0.333797 -0.228862,-0.433029 -0.05907,-0.09522 -0.08916,-0.197362 -0.06116,-0.31393 0.02026,-0.08448 -0.03253,-0.153581 -0.07639,-0.220063 -0.214506,-0.325258 -1.187871,-2.024888 -1.378397,-2.364267 -0.01952,-0.03476 -0.03613,-0.07123 -0.0559,-0.10587 -0.0097,-0.01699 -0.02212,-0.04342 -0.036,-0.04519 -0.116159,-0.01495 -0.140589,-0.120693 -0.188143,-0.195781 -0.160789,-0.25395 -0.394076,-0.378165 -0.686016,-0.386619 -0.19259,-0.0056 -0.340552,-0.07631 -0.475512,-0.211684 -0.420023,-0.421314 -0.774109,-0.891625 -1.075726,-1.40293 -0.01142,-0.01932 -0.02226,-0.03901 -0.033,-0.05873 -0.124983,-0.22962 -0.10829,-0.360295 0.07652,-0.549691 0.360683,-0.369658 0.787057,-0.632627 1.281958,-0.783263 0.09291,-0.02828 0.184025,-0.06158 0.279314,-0.08287 0.149126,-0.0333 0.256829,0.02035 0.33885,0.143454 0.06108,0.09169 0.1092,0.190376 0.161652,0.28668 z m -1.162822,1.904988 c 0.02654,0.02086 0.05238,0.0294 0.07999,-0.0054 0.0315,-0.03979 0.0509,-0.08536 0.06793,-0.132243 0.203616,-0.559492 0.40733,-1.118952 0.610084,-1.678757 0.01347,-0.03714 0.02137,-0.07668 0.02798,-0.115759 0.0047,-0.02705 0.0046,-0.05639 -0.03026,-0.06747 -0.03386,-0.01071 -0.05243,0.01182 -0.0658,0.03564 -0.02065,0.03672 -0.04031,0.07462 -0.05478,0.114061 -0.163658,0.44679 -0.326442,0.893896 -0.488969,1.341099 -0.04764,0.131082 -0.09448,0.262472 -0.140009,0.394305 -0.01206,0.03524 -0.01747,0.07255 -0.0061,0.114534 z m 0.898744,-1.621826 c -0.03892,0.03673 -0.05915,0.07936 -0.07547,0.124158 -0.191118,0.524819 -0.38235,1.0496 -0.572626,1.574728 -0.01261,0.03482 -0.01965,0.07205 -0.02561,0.108736 -0.0045,0.02761 -0.0028,0.05588 0.03184,0.0667 0.02993,0.0093 0.04858,-0.0079 0.06177,-0.02968 0.01798,-0.02969 0.03571,-0.06032 0.04757,-0.09275 0.192671,-0.526907 0.384436,-1.054145 0.57622,-1.581376 0.01448,-0.03996 0.02658,-0.08082 0.02496,-0.123909 -0.002,-0.04996 -0.03297,-0.05383 -0.06868,-0.04657 z m -1.117197,1.333475 c 0.02704,0.02965 0.05517,0.03209 0.08304,0.0027 0.0244,-0.0257 0.03916,-0.05765 0.05119,-0.09056 0.174067,-0.478043 0.348037,-0.956117 0.521802,-1.434273 0.01288,-0.03522 0.02239,-0.07132 0.02065,-0.109556 -10e-4,-0.02216 -0.0095,-0.03815 -0.03158,-0.04539 -0.02111,-0.0069 -0.03817,-0.0028 -0.05373,0.01409 -0.0295,0.0321 -0.04578,0.0709 -0.06032,0.110856 -0.09388,0.257764 -0.187759,0.515526 -0.281613,0.773301 -0.07764,0.21325 -0.155471,0.426427 -0.232621,0.639852 -0.01619,0.04452 -0.03002,0.08999 -0.01678,0.139028 z m 1.303535,-0.976106 c -0.03318,0.02906 -0.04807,0.0687 -0.06259,0.108613 -0.13446,0.369774 -0.269631,0.739294 -0.402748,1.109553 -0.01736,0.04826 -0.0563,0.116693 0.01056,0.143789 0.07639,0.03097 0.08996,-0.05136 0.108255,-0.100847 0.137329,-0.371361 0.271921,-0.743737 0.407433,-1.115772 0.01193,-0.03289 0.02433,-0.066 0.02025,-0.101597 -0.0049,-0.04346 -0.04605,-0.06488 -0.08112,-0.04372 z m -1.512151,0.688004 c 0.02814,0.04204 0.08386,0.03155 0.109816,-0.02783 0.03582,-0.082 0.06438,-0.167201 0.09509,-0.251386 0.09813,-0.269026 0.19663,-0.537921 0.292743,-0.807671 0.01331,-0.03742 0.03422,-0.08585 -0.01991,-0.110973 -0.05496,-0.0255 -0.07957,0.01854 -0.09399,0.05767 -0.129381,0.350394 -0.256666,0.701562 -0.383989,1.052707 -0.01025,0.02845 -0.01318,0.05838 2.32e-4,0.08751 z m 1.660079,-0.279904 c -0.0057,0.0078 -0.01759,0.0183 -0.02237,0.03155 -0.07829,0.212597 -0.156202,0.42533 -0.232837,0.638524 -0.01709,0.04755 0.0077,0.07509 0.05191,0.09048 0.04051,0.01405 0.07705,0.01146 0.09337,-0.0326 0.07966,-0.21473 0.157662,-0.430076 0.235084,-0.645624 0.0097,-0.02701 0.0067,-0.05544 -0.02211,-0.07214 -0.03051,-0.01768 -0.06211,-0.03321 -0.103048,-0.0102 z m 2.618282,5.671891 c -0.05678,-0.07593 -0.10744,-0.150097 -0.165109,-0.218325 -0.03287,-0.03896 -0.07785,-0.08712 -0.133128,-0.05864 -0.06037,0.03109 -0.04151,0.09705 -0.02643,0.148006 0.02319,0.07837 0.05883,0.152996 0.0834,0.231029 0.01665,0.05287 0.05042,0.07814 0.101436,0.08478 0.05018,0.0066 0.094,-0.0066 0.124585,-0.05005 0.03129,-0.04467 0.03403,-0.09205 0.01526,-0.136809 z m -4.473078,-5.739698 c 0.01479,0.02155 0.04128,0.02984 0.06914,0.02876 0.03335,-0.0014 0.04307,-0.02895 0.05177,-0.05584 0.04844,-0.149309 0.0967,-0.298675 0.145841,-0.447751 0.01391,-0.0424 0.01743,-0.07851 -0.03542,-0.09586 -0.05128,-0.01686 -0.07225,0.0098 -0.08637,0.05418 -0.04762,0.149563 -0.09692,0.298591 -0.14546,0.447858 -0.0069,0.02136 -0.01493,0.04284 4.97e-4,0.06869 z"
       id="path648"
       style="fill:#827644;fill-opacity:1;stroke-width:0.0149743"
       inkscape:label="spachtel"
       inkscape:transform-center-x="0.19053502"
       inkscape:transform-center-y="0.17505018"
       sodipodi:nodetypes="cssscccccscccscccsssccccsccssscccccccccccscscccsccccssccccccssccscccccccccsccccccscsccccscscsccsccssccsscccsscccc" /><path
       d="m 28.945329,58.83908 c -0.194462,0.395551 -0.341907,0.617647 -0.537158,1.027064 -0.01804,0.03791 -0.0426,0.07348 -0.06858,0.10665 -0.06171,0.07867 -0.156826,0.101915 -0.248398,0.06257 -0.08385,-0.03614 -0.156687,-0.08949 -0.219699,-0.154597 -0.04728,-0.04886 -0.06637,-0.104886 -0.03125,-0.173028 0.09253,-0.179265 0.202386,-0.348266 0.310738,-0.517615 0.290014,-0.453244 0.474969,-0.750566 0.752485,-1.211439 0.09967,-0.165537 0.1926,-0.335279 0.306042,-0.492264 0.0035,-0.0046 0.0043,-0.01082 0.0084,-0.01325 0.09643,-0.06015 0.114971,-0.144477 0.08896,-0.250944 -0.01286,-0.05234 0.03155,-0.09316 0.06051,-0.133673 0.118629,-0.165656 0.104971,-0.348444 -0.03766,-0.48806 -0.08453,-0.08282 -0.08939,-0.108074 -0.04228,-0.216016 0.148099,-0.338803 0.338638,-0.653928 0.540757,-0.962219 0.27634,-0.421506 0.575294,-0.82592 0.924556,-1.190812 0.187556,-0.195929 0.392636,-0.370756 0.630084,-0.504739 0.06241,-0.03521 0.125659,-0.06857 0.194848,-0.08889 0.08559,-0.02504 0.119511,-0.0054 0.130448,0.08314 0.01665,0.134607 0.01418,0.269593 -0.0015,0.404321 -0.05565,0.480296 -0.201382,0.934024 -0.387267,1.378899 -0.170125,0.407159 -0.389112,0.788398 -0.588377,1.180205 -0.07355,0.14466 -0.150068,0.285398 -0.256054,0.409613 -0.05475,0.06408 -0.108582,0.0823 -0.194132,0.05792 -0.221683,-0.06303 -0.354478,-0.0098 -0.465597,0.213215 -0.03367,0.0675 -0.07348,0.120667 -0.147035,0.145697 -0.03724,0.01259 -0.06537,0.0429 -0.07168,0.08005 -0.02465,0.145775 -0.112792,0.261267 -0.179957,0.386283 -0.152953,0.28484 -0.310065,0.567451 -0.471528,0.862012 z"
       id="path664"
       style="fill:#827644;fill-opacity:1;stroke-width:0.0159057"
       sodipodi:nodetypes="ccccsccsscscssssssssscssccsccc"
       inkscape:transform-center-y="0.23329101"
       inkscape:transform-center-x="0.20662289" /><path
       d="m 37.779774,59.78003 c 0.499284,0.0054 1.151229,0.008 1.80325,0.0042 0.281015,-0.0016 0.561678,0.01503 0.835208,0.09002 0.01263,0.0037 0.02527,0.0082 0.03827,0.0106 0.169593,0.0332 0.28188,0.117869 0.298347,0.305068 0.0097,0.11185 0.08124,0.1637 0.195069,0.18197 0.35659,0.05834 0.713852,0.03197 1.07102,0.02075 0.182539,-0.0058 0.365591,-0.0066 0.546865,-0.03605 0.403259,-0.06563 0.642638,-0.301584 0.709229,-0.704748 0.04214,-0.255092 0.0043,-0.500853 -0.09014,-0.740003 -0.01787,-0.04536 -0.04367,-0.06363 -0.09266,-0.06943 -0.281971,-0.03362 -0.565629,-0.03865 -0.848602,-0.05518 -0.29096,-0.017 -0.581823,-0.03572 -0.872873,-0.05098 -0.116743,-0.0062 -0.232972,0.0054 -0.34749,0.03041 -0.123148,0.02696 -0.218731,0.09108 -0.278017,0.20497 -0.02319,0.04464 -0.05236,0.08663 -0.07148,0.132857 -0.07853,0.18994 -0.230902,0.262131 -0.424011,0.283174 -0.241632,0.02636 -0.48176,0.0032 -0.722452,-0.008 -0.156187,-0.0072 -0.312361,-0.0197 -0.468553,-0.01997 -0.951536,-0.0016 -1.903111,0.0014 -2.854409,-0.02401 -0.166607,-0.0044 -0.33279,-0.02466 -0.499116,-0.03828 -0.127628,-0.01043 -0.254635,-0.0087 -0.378635,0.02624 -0.128303,0.03621 -0.217178,0.115111 -0.260191,0.244872 -0.01989,0.06012 -0.0039,0.101278 0.04406,0.137972 0.07456,0.05698 0.161455,0.06566 0.249232,0.0635 0.755407,-0.01839 1.510616,0.0037 2.418606,0.0096 z M 36.00775,59.68771 c -0.07811,-0.001 -0.149316,-0.01583 -0.211947,-0.06179 -0.03994,-0.02996 -0.04213,-0.06257 -0.01551,-0.102279 0.07988,-0.118556 0.369332,-0.135985 0.460506,-0.02725 0.04655,0.05557 0.03999,0.09773 -0.02295,0.135304 -0.06534,0.03899 -0.13729,0.05377 -0.210062,0.05597 z"
       id="path660"
       style="fill:#827644;fill-opacity:1;stroke-width:0.0159056"
       inkscape:transform-center-x="-0.65668793"
       inkscape:transform-center-y="0.03541448" /><path
       d="m 25.134763,57.009629 c 0.632117,0.283263 1.233808,0.628816 1.838028,0.969296 0.01934,0.01092 0.03878,0.02186 0.05772,0.03339 0.22857,0.140408 0.235997,0.15809 0.146686,0.313119 -0.03459,0.06019 -0.0687,0.121354 -0.09188,0.187275 -0.04281,0.122188 0.01484,0.227333 0.169275,0.336707 0.114681,0.08129 0.243449,0.127696 0.366897,0.185983 0.686502,0.324398 1.335876,0.724353 2.009036,1.075918 -0.290556,0.134265 -0.995052,0.20628 -1.231172,0.02846 -0.867816,-0.514787 -1.734145,-1.032023 -2.603693,-1.543918 -0.578428,-0.340555 -1.162504,-0.671701 -1.742143,-1.010291 -0.82913,-0.483745 -1.661828,-0.962659 -2.456914,-1.49854 -0.313752,-0.211639 -0.599645,-0.448388 -0.844834,-0.716002 -0.02794,-0.03051 -0.06948,-0.06368 -0.05824,-0.09678 0.01343,-0.03973 0.06939,-0.02237 0.112401,-0.01658 0.424654,0.05803 0.848777,0.201576 1.272686,0.349479 0.7435,0.259434 1.466488,0.592289 2.182967,0.945021 0.294121,0.14479 0.582161,0.304666 0.873004,0.457619 z"
       id="path674"
       style="fill:#827644;fill-opacity:1;stroke-width:0.0220124"
       inkscape:transform-center-x="1.0875465"
       inkscape:transform-center-y="-0.57779611"
       sodipodi:nodetypes="ccccccccccccscccscc" /><path
       d="m 37.930653,58.018901 c 0.772747,-1.272336 1.513407,-2.563749 2.272214,-3.84439 0.09373,-0.157939 0.17796,-0.322123 0.25854,-0.487129 0.07825,-0.161092 0.06916,-0.322931 0.0053,-0.478573 -0.06144,-0.149905 -0.158586,-0.27311 -0.259948,-0.393144 -0.03899,-0.04611 -0.07951,-0.0503 -0.116417,0.008 -0.07592,0.119146 -0.181994,0.220126 -0.216831,0.364384 -0.0075,0.0312 -0.03189,0.05549 -0.05873,0.07217 -0.03198,0.01997 -0.05168,0.0442 -0.04829,0.08355 4.05e-4,0.0059 -3.59e-4,0.01603 -0.0033,0.01811 -0.09925,0.05784 -0.106845,0.187262 -0.191768,0.25572 -0.01014,0.0075 -0.03035,0.01568 -0.02982,0.02011 0.01412,0.108264 -0.10549,0.14884 -0.123056,0.240354 -0.0062,0.03236 -0.022,0.05998 -0.05079,0.0768 -0.03782,0.02274 -0.05938,0.05475 -0.06346,0.09873 -0.0035,0.03762 -0.02248,0.0655 -0.05423,0.08394 -0.03555,0.02103 -0.0533,0.05111 -0.05472,0.09258 -5.58e-4,0.01214 -0.0024,0.03095 -0.0096,0.03558 -0.094,0.05994 -0.102096,0.179037 -0.17606,0.256966 -0.05646,0.05891 -0.08684,0.146003 -0.134818,0.218438 -0.07093,0.107606 -0.142363,0.219025 -0.200544,0.332279 -0.04786,0.09408 -0.107253,0.184813 -0.163323,0.267643 -0.05776,0.08497 -0.07903,0.195878 -0.166567,0.260843 -0.01405,0.01044 -0.02506,0.02833 -0.03304,0.04486 -0.05545,0.116268 -0.135009,0.220125 -0.192016,0.332116 -0.04455,0.08835 -0.104328,0.166813 -0.151549,0.252498 -0.04896,0.0904 -0.08908,0.190835 -0.162435,0.267459 -0.02033,0.0215 -0.03891,0.0413 -0.04172,0.07147 -0.0041,0.04353 -0.02326,0.07828 -0.059,0.103294 -0.0331,0.02346 -0.04905,0.05553 -0.05554,0.09509 -0.0066,0.0386 -0.02473,0.0715 -0.05802,0.0939 -0.0053,0.0036 -0.0135,0.0068 -0.01456,0.01132 -0.02442,0.102061 -0.115225,0.167363 -0.14702,0.26464 -0.01104,0.03419 -0.02255,0.06616 -0.05317,0.0865 -0.03456,0.0222 -0.05225,0.05282 -0.0546,0.09392 -5.58e-4,0.01214 -0.0032,0.03034 -0.01087,0.03525 -0.09386,0.06039 -0.08616,0.192891 -0.177431,0.255106 -0.02155,0.01467 -0.02786,0.04165 -0.02994,0.06726 -0.0031,0.04369 -0.02232,0.08009 -0.05756,0.104095 -0.03171,0.02138 -0.04747,0.04757 -0.05054,0.08534 -0.0031,0.03578 -0.01896,0.06895 -0.0496,0.0881 -0.04127,0.02617 -0.0605,0.06024 -0.06271,0.108574 -0.0014,0.02897 -0.01958,0.05279 -0.04084,0.07294 -0.0041,0.0048 -0.01247,0.0077 -0.01373,0.01262 -0.04088,0.150568 -0.200718,0.194857 -0.269467,0.320944 -0.07008,0.127988 -0.143074,0.254417 -0.213555,0.382252 -0.01893,0.03376 -0.01549,0.06404 0.0028,0.09608 0.03096,0.05435 0.05873,0.110787 0.08632,0.167238 0.04054,0.08317 0.04172,0.166685 -1.43e-4,0.259031 -0.05145,0.113551 -0.111589,0.220274 -0.187338,0.318892 -0.06565,0.08538 -0.128425,0.17268 -0.185453,0.264663 -0.206951,0.122568 0.19499,0.118947 0.413448,0.26593 0.449071,-0.832804 0.963735,-1.395971 1.45525,-2.204315 z"
       id="path656"
       style="fill:#827644;fill-opacity:1;stroke-width:0.018317"
       inkscape:transform-center-x="-0.60806918"
       inkscape:transform-center-y="-1.1357285"
       sodipodi:nodetypes="ccccccccccccscscccccccsccccccccccccccccccccccccccccccc" /><path
       d="m 28.130124,57.499614 c -10e-7,-0.845371 -0.0088,-1.690887 0.0049,-2.536039 0.0046,-0.28593 -0.07034,-0.5271 -0.234317,-0.753953 -0.16838,-0.233024 -0.311726,-0.482022 -0.367579,-0.768486 -0.06759,-0.346669 -0.07592,-0.692067 0.08739,-1.018874 0.140064,-0.280314 0.37825,-0.394975 0.684053,-0.381126 0.302172,0.01369 0.506104,0.163247 0.611781,0.447484 0.05099,0.137022 0.06517,0.28025 0.07975,0.424051 0.04055,0.399559 -0.06065,0.76672 -0.238735,1.120884 -0.07919,0.15753 -0.150409,0.318657 -0.243548,0.469103 -0.04361,0.07042 -0.04368,0.153777 -0.04633,0.233614 -0.01551,0.465381 -0.0053,0.930947 -0.0075,1.396434 -0.0055,1.19045 -0.01,2.380907 -0.01464,3.571363 -7.21e-4,0.184539 -1.56e-4,0.369085 -3.51e-4,0.553631 -1.61e-4,0.0953 -0.01035,0.105529 -0.105275,0.107319 -0.228349,0.0046 -0.228326,0.0046 -0.228335,-0.216803 10e-6,-0.88285 0,-1.765699 2e-6,-2.648556 0.0064,-8.5e-5 0.01234,3.15e-4 0.01876,7.9e-5 z"
       id="path676"
       style="display:inline;fill:#827644;fill-opacity:1;stroke-width:0.0160588"
       inkscape:label="kochloffel"
       inkscape:transform-center-x="0.07290087"
       inkscape:transform-center-y="0.016107695" /><path
       d="m 21.502028,59.611747 c 0.0033,-0.378188 0.08827,-0.726585 0.366415,-1.005135 0.406163,-0.406748 1.129381,-0.414225 1.54109,-0.01352 0.140959,0.137188 0.267217,0.285093 0.378815,0.449934 0.174354,0.25753 0.40617,0.40713 0.745778,0.377309 0.328785,-0.02887 0.661625,-0.0097 0.992622,-0.01541 1.216653,-0.02103 2.433787,-0.01594 3.65,-0.05676 0.409412,0.01492 -0.226138,0.448778 -1.073836,0.499452 -0.452474,-0.0087 -0.904998,-0.01414 -1.357555,-0.01566 -0.69198,-0.0023 -1.38368,-0.02574 -2.075668,-0.01904 -0.125106,0.0012 -0.24971,-0.01864 -0.375359,-0.0037 -0.07624,0.009 -0.144724,0.03183 -0.206372,0.07727 -0.14259,0.105118 -0.260619,0.228907 -0.361962,0.37801 -0.211695,0.311437 -0.469988,0.57217 -0.865677,0.641216 -0.646299,0.112778 -1.198208,-0.274489 -1.323541,-0.92927 -0.02302,-0.120339 -0.03956,-0.241312 -0.0347,-0.364676 z"
       id="path1248"
       style="fill:#827644;fill-opacity:1;stroke-width:0.0179024"
       sodipodi:nodetypes="csssscccccccssscc" /><path
       d="m 39.453769,58.298639 c 0.09166,0.116522 0.104612,0.256486 0.115636,0.396469 0.0035,0.0448 -0.001,0.09003 -0.02026,0.131897 -0.0093,0.02027 -0.02325,0.03555 -0.04924,0.03057 -0.02424,-0.0046 -0.0367,-0.01882 -0.03711,-0.04368 -7.2e-5,-0.01062 -0.0023,-0.02125 -0.0013,-0.03161 0.01385,-0.144064 -0.07028,-0.255095 -0.127099,-0.375028 -0.01908,-0.04093 -0.0486,-0.06987 -0.100923,-0.04913 -0.03134,0.01246 -0.06551,-0.01876 -0.09576,-0.009 -0.210258,0.06796 -0.531783,0.234801 -0.633513,0.302189 -0.504023,0.333928 -1.028093,0.635777 -1.557549,0.92934 -0.137335,0.07611 -0.29962,0.149567 -0.390196,0.01548 -0.09126,-0.13511 -0.03814,-0.270568 0.08306,-0.372043 0.02012,-0.01686 0.04185,-0.03247 0.06452,-0.04565 0.487503,-0.28122 0.975362,-0.561837 1.462892,-0.84301 0.123583,-0.07128 0.624281,-0.394738 0.748543,-0.464789 0.05832,-0.03293 0.04059,-0.12415 0.0061,-0.181496 -0.08056,-0.134283 -0.116779,-0.281764 -0.126195,-0.436938 -0.0024,-0.04014 0.0016,-0.07919 0.01223,-0.117617 0.0072,-0.02578 0.01564,-0.05319 0.04872,-0.05411 0.03287,-6.43e-4 0.05609,0.01869 0.06529,0.04841 0.01246,0.04008 0.02635,0.08158 0.02812,0.12295 0.0074,0.175914 0.08583,0.324621 0.172584,0.470731 0.02378,0.04001 0.04567,0.053 0.06575,-0.0039 0.0066,-0.01935 0.01784,-0.04637 0.0334,-0.05168 0.08484,-0.02932 0.0851,-0.100131 0.09812,-0.171054 0.109558,-0.59717 0.818158,-0.828114 1.295232,-0.423466 0.3037,0.257614 0.386055,0.660793 0.219012,1.014635 -0.236237,0.50024 -0.901854,0.61747 -1.289375,0.189196 -0.037,-0.04099 -0.06752,-0.08783 -0.101608,-0.131516 -0.01268,-0.01673 -0.02768,-0.03745 -0.05147,-0.02184 -0.02404,0.01568 -0.0097,0.0389 -10e-4,0.05674 0.01951,0.04034 0.04198,0.07928 0.06328,0.118791 z"
       id="path684"
       style="display:inline;fill:#827644;fill-opacity:1;stroke-width:0.0158649"
       inkscape:transform-center-x="-0.32520256"
       inkscape:transform-center-y="-0.15772936"
       sodipodi:nodetypes="cscccccsssscccsscssccscccscscccccc" /><path
       style="fill:#827644;fill-opacity:1;fill-rule:evenodd;stroke:#3a351e;stroke-width:0.00205446;stroke-linecap:round;stroke-linejoin:round;stroke-miterlimit:100.1;paint-order:stroke fill markers"
       d="m 28.260178,60.590461 h 8.217809 c 1.438117,0 1.438117,-2.054449 0,-2.054449 h -8.217809 c -1.438116,0 -1.438116,2.054449 0,2.054449 z"
       id="path468"
       sodipodi:nodetypes="sssss" /><path
       id="path1485"
       style="fill:#bdb79d;fill-opacity:1;fill-rule:evenodd;stroke:#000000;stroke-width:0;stroke-linecap:round;stroke-linejoin:round;stroke-miterlimit:100.1;paint-order:stroke fill markers"
       d="m 28.91492,59.827452 c 0.644668,0.478615 0.64469,-0.205122 1.289358,0 -0.644668,-0.478615 -0.64469,0.205121 -1.289358,0 z m 0,-0.289452 c 0.644668,0.478615 0.64469,-0.205115 1.289358,0 -0.644668,-0.478608 -0.64469,0.205122 -1.289358,0 z m 0,-0.289445 c 0.644668,0.478615 0.64469,-0.205121 1.289358,0 -0.644668,-0.478614 -0.64469,0.205122 -1.289358,0 z" /></g></svg>
