<?xml version="1.0" encoding="UTF-8" standalone="no"?>
<!DOCTYPE svg PUBLIC "-//W3C//DTD SVG 1.1//EN" "http://www.w3.org/Graphics/SVG/1.1/DTD/svg11.dtd">
<svg width="100%" height="100%" viewBox="0 0 842 596" version="1.1" xmlns="http://www.w3.org/2000/svg" xmlns:xlink="http://www.w3.org/1999/xlink" xml:space="preserve" xmlns:serif="http://www.serif.com/" style="fill-rule:evenodd;clip-rule:evenodd;stroke-linecap:round;stroke-linejoin:round;">
    <g id="Ebene-1" serif:id="Ebene 1" transform="matrix(0.350443,0,0,0.350443,330.197,-266.623963)">
        <g id="g2493" transform="matrix(4.201425,0,0,4.201425,-914.332787,-4952.59161)">
            <g id="text36671">
            </g>
            <path id="circle3369" d="M23.993,1537.642C55.596,1588.041 122.071,1603.279 172.47,1571.676C222.869,1540.073 238.106,1473.598 206.504,1423.198C174.901,1372.8 108.426,1357.562 58.027,1389.165C7.628,1420.768 -7.609,1487.243 23.993,1537.642Z" style="fill:rgb(255,0,255);fill-opacity:0.71;fill-rule:nonzero;"/>
            <g id="circle2166" transform="matrix(-0.871667,-0.490099,0.490099,-0.871667,0,0)">
                <circle cx="-826.01" cy="-1233.951" r="82.717" style="fill:rgb(255,255,0);fill-opacity:0.71;"/>
            </g>
            <circle id="path2595" cx="114.682" cy="1480.987" r="113.386" style="fill:rgb(255,204,0);stroke:black;stroke-width:2.83px;"/>
            <g id="text3373">
                <path id="path6821" d="M27.72,1543.264C27.931,1543.542 28.233,1543.584 28.511,1543.373L33.823,1539.355C34.101,1539.145 34.404,1539.187 34.614,1539.465L36.538,1542.008C39.293,1545.651 43.186,1545.538 45.862,1543.514L46.273,1543.204C49.465,1540.789 50.102,1537.474 47.357,1533.845L42.617,1527.579C42.407,1527.301 42.104,1527.259 41.826,1527.47L25.706,1539.664C25.427,1539.875 25.385,1540.177 25.596,1540.455L27.72,1543.264ZM37.979,1536.92C37.768,1536.641 37.81,1536.339 38.088,1536.129L41.254,1533.734C41.532,1533.523 41.835,1533.565 42.045,1533.843L44.029,1536.466C44.821,1537.513 44.703,1538.872 43.578,1539.723L43.193,1540.014C42.067,1540.866 40.754,1540.589 39.963,1539.542L37.979,1536.92Z" style="fill:white;fill-rule:nonzero;stroke:rgb(212,170,0);stroke-width:0.76px;stroke-linecap:butt;stroke-linejoin:miter;"/>
                <path id="path6823" d="M47.086,1564.139C47.342,1564.376 47.647,1564.364 47.884,1564.108L49.995,1561.829C50.232,1561.573 50.22,1561.268 49.964,1561.031L43.847,1555.366C43.591,1555.129 43.579,1554.824 43.816,1554.568L46.039,1552.167C46.276,1551.911 46.581,1551.899 46.837,1552.136L51.858,1556.786C52.114,1557.023 52.419,1557.011 52.656,1556.755L54.766,1554.476C55.003,1554.22 54.992,1553.915 54.736,1553.678L49.715,1549.028C49.459,1548.791 49.447,1548.486 49.684,1548.23L51.795,1545.951C52.032,1545.695 52.337,1545.684 52.593,1545.92L58.71,1551.586C58.966,1551.823 59.271,1551.811 59.508,1551.555L61.619,1549.276C61.856,1549.02 61.844,1548.715 61.588,1548.478L52.058,1539.652C51.803,1539.415 51.497,1539.427 51.26,1539.683L37.526,1554.514C37.289,1554.77 37.301,1555.075 37.557,1555.312L47.086,1564.139Z" style="fill:white;fill-rule:nonzero;stroke:rgb(212,170,0);stroke-width:0.76px;stroke-linecap:butt;stroke-linejoin:miter;"/>
                <path id="path6825" d="M54.285,1569.551L57.249,1571.294C57.506,1571.446 57.74,1571.409 57.915,1571.243L65.702,1563.607C66.397,1562.917 67.175,1561.988 68.168,1560.529L68.282,1560.596C67.162,1562.5 65.988,1565.085 65.55,1566.716L63.438,1574.53C63.38,1574.727 63.476,1574.957 63.719,1575.101L66.84,1576.937C67.098,1577.088 67.337,1577.075 67.506,1576.886L81.74,1561.403C81.788,1561.354 81.932,1561.207 81.958,1561.164C82.042,1561.021 81.969,1560.882 81.755,1560.756L78.333,1558.743C78.19,1558.659 78.033,1558.663 77.921,1558.789L73.053,1564.116C71.524,1565.798 69.882,1568.031 69.032,1569.477L68.917,1569.41C69.642,1567.948 70.133,1566.753 70.41,1565.76L73.125,1555.968C73.166,1555.8 73.108,1555.669 72.908,1555.552L69.959,1553.817C69.701,1553.665 69.562,1553.738 69.435,1553.856L64.249,1558.937C62.757,1560.391 61.013,1562.603 60.013,1564.172L59.898,1564.105C60.338,1563.227 60.868,1561.9 61.391,1560.455L64.75,1551.042C64.806,1550.882 64.762,1550.76 64.576,1550.651L61.169,1548.646C60.954,1548.52 60.797,1548.524 60.713,1548.667C60.671,1548.739 60.458,1549.461 60.4,1549.659L54.004,1568.982C53.946,1569.179 54.042,1569.409 54.285,1569.552L54.285,1569.551Z" style="fill:white;fill-rule:nonzero;stroke:rgb(212,170,0);stroke-width:0.76px;stroke-linecap:butt;stroke-linejoin:miter;"/>
                <path id="path6827" d="M163.071,1576.983C163.379,1576.82 163.469,1576.528 163.306,1576.22L160.191,1570.332C160.028,1570.024 160.118,1569.732 160.426,1569.569L163.245,1568.078C167.283,1565.942 167.796,1562.082 166.227,1559.116L165.986,1558.661C164.114,1555.123 160.945,1553.962 156.922,1556.09L149.978,1559.764C149.67,1559.927 149.58,1560.219 149.743,1560.527L159.195,1578.394C159.358,1578.703 159.65,1578.793 159.958,1578.63L163.071,1576.983ZM158.454,1565.84C158.145,1566.003 157.853,1565.913 157.69,1565.605L155.834,1562.096C155.671,1561.788 155.761,1561.496 156.069,1561.333L158.976,1559.795C160.136,1559.181 161.459,1559.515 162.119,1560.763L162.344,1561.189C163.004,1562.437 162.52,1563.689 161.361,1564.302L158.454,1565.84Z" style="fill:white;fill-rule:nonzero;stroke:rgb(212,170,0);stroke-width:0.76px;stroke-linecap:butt;stroke-linejoin:miter;"/>
                <path id="path6829" d="M186.801,1561.24C187.076,1561.026 187.114,1560.723 186.9,1560.448L184.995,1557.995C184.781,1557.719 184.478,1557.681 184.202,1557.896L177.618,1563.011C177.343,1563.225 177.04,1563.187 176.826,1562.911L174.818,1560.327C174.604,1560.052 174.642,1559.749 174.918,1559.535L180.322,1555.337C180.597,1555.123 180.635,1554.82 180.421,1554.544L178.516,1552.092C178.302,1551.816 177.999,1551.778 177.723,1551.992L172.319,1556.19C172.044,1556.404 171.741,1556.366 171.527,1556.09L169.621,1553.637C169.407,1553.362 169.446,1553.059 169.721,1552.845L176.305,1547.729C176.581,1547.515 176.619,1547.212 176.405,1546.937L174.499,1544.484C174.285,1544.209 173.982,1544.171 173.707,1544.384L163.45,1552.353C163.175,1552.567 163.137,1552.87 163.351,1553.145L175.752,1569.108C175.966,1569.383 176.269,1569.421 176.544,1569.208L186.801,1561.24Z" style="fill:white;fill-rule:nonzero;stroke:rgb(212,170,0);stroke-width:0.76px;stroke-linecap:butt;stroke-linejoin:miter;"/>
                <path id="path6831" d="M193.319,1555.025L195.521,1552.385C195.713,1552.156 195.715,1551.92 195.579,1551.72L189.315,1542.792C188.748,1541.994 187.957,1541.075 186.68,1539.857L186.765,1539.755C188.461,1541.171 190.82,1542.75 192.357,1543.449L199.724,1546.806C199.908,1546.896 200.151,1546.838 200.332,1546.622L202.652,1543.842C202.843,1543.612 202.869,1543.374 202.71,1543.176L189.754,1526.609C189.714,1526.554 189.593,1526.387 189.554,1526.356C189.427,1526.249 189.278,1526.298 189.118,1526.489L186.575,1529.537C186.468,1529.664 186.447,1529.82 186.553,1529.951L191.015,1535.622C192.426,1537.405 194.361,1539.389 195.649,1540.464L195.564,1540.566C194.24,1539.612 193.141,1538.933 192.206,1538.498L182.988,1534.223C182.829,1534.155 182.69,1534.191 182.541,1534.37L180.349,1536.997C180.157,1537.226 180.206,1537.375 180.302,1537.52L184.47,1543.464C185.662,1545.173 187.559,1547.254 188.945,1548.497L188.86,1548.599C188.065,1548.022 186.842,1547.283 185.501,1546.532L176.762,1541.683C176.613,1541.602 176.486,1541.625 176.347,1541.791L173.815,1544.826C173.655,1545.017 173.634,1545.173 173.761,1545.279C173.825,1545.332 174.503,1545.66 174.688,1545.75L192.71,1555.209C192.895,1555.299 193.138,1555.241 193.318,1555.025L193.319,1555.025Z" style="fill:white;fill-rule:nonzero;stroke:rgb(212,170,0);stroke-width:0.76px;stroke-linecap:butt;stroke-linejoin:miter;"/>
            </g>
            <path id="path2539" d="M114.367,1401.618C70.946,1401.79 35.313,1437.565 35.313,1480.987C35.313,1517.185 60.076,1549.016 95.162,1557.919L95.633,1574.6L134.047,1574.409L134.348,1557.884C169.365,1548.928 194.053,1517.131 194.053,1480.987C194.052,1437.446 158.223,1401.618 114.683,1401.618C114.682,1401.618 114.682,1401.618 114.682,1401.618C114.577,1401.618 114.472,1401.618 114.367,1401.618Z" style="fill:white;fill-rule:nonzero;stroke:black;stroke-width:2.83px;"/>
            <g id="text2164">
                <path id="path6804" d="M44.849,1436.498L53.423,1424.883C53.664,1424.555 53.611,1424.203 53.284,1423.961L50.368,1421.809C50.041,1421.568 49.689,1421.621 49.447,1421.948L44.096,1429.198C43.854,1429.525 43.502,1429.578 43.175,1429.337L28.021,1418.151C27.693,1417.909 27.341,1417.962 27.099,1418.29L24.66,1421.595C24.418,1421.922 24.471,1422.275 24.799,1422.516L43.928,1436.636C44.255,1436.878 44.608,1436.825 44.849,1436.498Z" style="fill:white;fill-rule:nonzero;stroke:rgb(212,170,0);stroke-width:0.76px;stroke-linecap:butt;stroke-linejoin:miter;"/>
                <path id="path6806" d="M56.508,1410.053C56.234,1410.27 56.062,1410.209 55.951,1409.975L52.515,1402.018L52.098,1401.335L52.629,1400.914L53.199,1401.476L60.143,1406.654C60.345,1406.816 60.351,1407.009 60.077,1407.226L56.508,1410.053ZM64.3,1410.184C64.528,1410.004 64.628,1409.974 64.794,1410.089L67.637,1412.212C67.803,1412.328 67.97,1412.32 68.137,1412.187L71.903,1409.203C72.131,1409.023 72.177,1408.863 72.057,1408.711C72.021,1408.665 71.997,1408.635 71.894,1408.568L51.303,1394.028C51.074,1393.863 50.792,1393.914 50.565,1394.094L45.962,1397.74C45.735,1397.92 45.621,1398.183 45.729,1398.444C45.729,1398.444 55.07,1421.624 55.09,1421.682C55.12,1421.782 55.198,1421.943 55.258,1422.019C55.379,1422.171 55.56,1422.15 55.788,1421.97L59.54,1418.998C59.692,1418.877 59.738,1418.717 59.663,1418.529L58.247,1415.275C58.172,1415.087 58.209,1415.009 58.452,1414.816L64.3,1410.184Z" style="fill:white;fill-rule:nonzero;stroke:rgb(212,170,0);stroke-width:0.76px;stroke-linecap:butt;stroke-linejoin:miter;"/>
                <path id="path6808" d="M82.871,1404.721C87.966,1402.54 89.767,1398.523 87.936,1394.248C86.602,1391.13 83.407,1389.674 77.982,1390.099C74.634,1390.352 73.387,1390 72.899,1388.86C72.396,1387.684 72.971,1386.321 74.699,1385.581C76.249,1384.918 77.712,1385.134 78.742,1386.064C78.981,1386.277 79.256,1386.328 79.47,1386.237C79.559,1386.199 79.64,1386.143 79.714,1386.069L82.453,1383.506C82.636,1383.343 82.664,1383.162 82.596,1383.002C82.55,1382.895 82.527,1382.842 82.26,1382.513C79.984,1380.052 76.473,1379.531 72.696,1381.148C67.886,1383.207 66.149,1387.618 67.529,1390.842C69.032,1394.352 72.112,1395.836 77.649,1395.279C81.046,1394.942 82.27,1395.535 82.758,1396.676C83.299,1397.94 82.734,1399.278 80.899,1400.064C78.904,1400.918 77.436,1400.64 76.339,1399.655C76.1,1399.441 75.826,1399.39 75.612,1399.481C75.523,1399.519 75.441,1399.575 75.367,1399.649L72.504,1402.414C72.321,1402.577 72.292,1402.757 72.361,1402.917C72.407,1403.024 72.43,1403.078 72.697,1403.406C74.886,1406.01 78.756,1406.482 82.871,1404.721Z" style="fill:white;fill-rule:nonzero;stroke:rgb(212,170,0);stroke-width:0.76px;stroke-linecap:butt;stroke-linejoin:miter;"/>
                <path id="path6810" d="M111.034,1397.421C111.437,1397.361 111.649,1397.076 111.589,1396.673L111.058,1393.089C110.999,1392.686 110.712,1392.474 110.31,1392.534L100.687,1393.959C100.285,1394.019 99.999,1393.807 99.939,1393.404L99.38,1389.628C99.32,1389.226 99.532,1388.939 99.935,1388.88L107.832,1387.71C108.235,1387.65 108.447,1387.364 108.387,1386.961L107.856,1383.377C107.797,1382.974 107.51,1382.762 107.108,1382.822L99.211,1383.992C98.808,1384.052 98.522,1383.839 98.462,1383.437L97.931,1379.852C97.872,1379.45 98.084,1379.164 98.486,1379.104L108.109,1377.678C108.511,1377.618 108.724,1377.332 108.664,1376.93L108.133,1373.346C108.073,1372.943 107.787,1372.731 107.384,1372.79L92.395,1375.011C91.992,1375.071 91.78,1375.357 91.84,1375.76L95.296,1399.087C95.356,1399.49 95.642,1399.702 96.045,1399.643L111.034,1397.421Z" style="fill:white;fill-rule:nonzero;stroke:rgb(212,170,0);stroke-width:0.76px;stroke-linecap:butt;stroke-linejoin:miter;"/>
                <path id="path6812" d="M129.725,1384.29L125.132,1383.695C124.729,1383.643 124.511,1383.361 124.563,1382.957L125.101,1378.806C125.153,1378.402 125.435,1378.185 125.839,1378.237L130.431,1378.832C131.95,1379.028 132.99,1380.199 132.813,1381.563L132.726,1382.236C132.55,1383.6 131.205,1384.481 129.725,1384.29L129.725,1384.29ZM117.896,1397.334L121.97,1397.862C122.373,1397.914 122.655,1397.697 122.708,1397.293L123.782,1388.991C123.834,1388.588 124.117,1388.37 124.52,1388.422L127.845,1388.853C128.018,1388.875 128.161,1388.972 128.213,1389.174L130.792,1398.691C130.86,1398.915 130.982,1399.028 131.136,1399.048L135.787,1399.65C136.094,1399.69 136.268,1399.556 136.288,1399.403C136.308,1399.249 136.263,1398.989 136.142,1398.563L133.562,1388.909C133.525,1388.748 133.501,1388.628 133.521,1388.474C133.541,1388.32 133.652,1388.217 133.859,1388.127C136.243,1387.068 137.54,1385.203 137.885,1382.532C138.487,1377.882 135.928,1374.561 131.008,1373.924L121.092,1372.64C120.688,1372.588 120.406,1372.806 120.354,1373.209L117.327,1396.596C117.275,1397 117.492,1397.282 117.896,1397.334L117.896,1397.334Z" style="fill:white;fill-rule:nonzero;stroke:rgb(212,170,0);stroke-width:0.76px;stroke-linecap:butt;stroke-linejoin:miter;"/>
                <path id="path6814" d="M141.153,1401.578L154.464,1407.165C154.839,1407.322 155.169,1407.188 155.326,1406.812L156.729,1403.471C156.886,1403.096 156.751,1402.766 156.376,1402.608L148.068,1399.121C147.692,1398.964 147.558,1398.634 147.715,1398.259L155.004,1380.892C155.162,1380.516 155.027,1380.187 154.652,1380.029L150.864,1378.439C150.489,1378.282 150.159,1378.416 150.001,1378.792L140.8,1400.715C140.643,1401.09 140.777,1401.42 141.153,1401.578Z" style="fill:white;fill-rule:nonzero;stroke:rgb(212,170,0);stroke-width:0.76px;stroke-linecap:butt;stroke-linejoin:miter;"/>
                <path id="path6816" d="M169.595,1406.623C169.319,1406.409 169.337,1406.227 169.538,1406.064L176.442,1400.824L177.005,1400.255L177.541,1400.67L177.131,1401.358L173.765,1409.34C173.657,1409.574 173.47,1409.626 173.194,1409.412L169.595,1406.623ZM171.331,1414.22C171.561,1414.398 171.614,1414.488 171.541,1414.677L170.16,1417.946C170.087,1418.134 170.135,1418.294 170.304,1418.425L174.102,1421.368C174.332,1421.546 174.499,1421.553 174.617,1421.399C174.653,1421.353 174.677,1421.322 174.717,1421.207L183.909,1397.736C184.014,1397.474 183.898,1397.212 183.668,1397.034L179.027,1393.438C178.798,1393.26 178.515,1393.213 178.288,1393.38C178.288,1393.38 158.015,1407.994 157.964,1408.028C157.874,1408.081 157.736,1408.195 157.677,1408.272C157.558,1408.425 157.622,1408.596 157.851,1408.774L161.635,1411.706C161.788,1411.825 161.954,1411.831 162.119,1411.716L164.94,1409.563C165.104,1409.445 165.189,1409.462 165.434,1409.652L171.331,1414.22Z" style="fill:white;fill-rule:nonzero;stroke:rgb(212,170,0);stroke-width:0.76px;stroke-linecap:butt;stroke-linejoin:miter;"/>
                <path id="path6818" d="M183.989,1434.282C186.466,1437.703 189.999,1438.519 193.899,1435.743C196.013,1434.236 196.811,1432.199 196.425,1430.014C196.397,1429.843 196.446,1429.712 196.54,1429.644C196.603,1429.599 196.708,1429.546 196.928,1429.654C198.645,1430.54 200.86,1430.228 202.602,1428.967C206.133,1426.41 206.271,1422.602 203.487,1418.756L197.612,1410.642C197.373,1410.312 197.021,1410.256 196.692,1410.495L177.59,1424.325C177.261,1424.564 177.205,1424.915 177.443,1425.245L183.989,1434.282ZM192.789,1420.829C192.55,1420.499 192.607,1420.148 192.936,1419.909L196.028,1417.67C196.358,1417.431 196.71,1417.488 196.948,1417.817L199.63,1421.521C200.607,1422.871 200.435,1424.12 199.07,1425.109C197.704,1426.098 196.448,1425.883 195.471,1424.533L192.789,1420.829ZM184.47,1426.852C184.232,1426.522 184.288,1426.171 184.618,1425.932L188.024,1423.466C188.353,1423.227 188.705,1423.284 188.944,1423.613L191.864,1427.647C192.694,1428.793 192.474,1430.339 191.124,1431.317C189.712,1432.339 188.221,1432.031 187.391,1430.886L184.47,1426.852Z" style="fill:white;fill-rule:nonzero;stroke:rgb(212,170,0);stroke-width:0.76px;stroke-linecap:butt;stroke-linejoin:miter;"/>
            </g>
            <g id="g3635">
                <path id="path3183" d="M78.776,1490.608L150.587,1471.367" style="fill:none;fill-rule:nonzero;stroke:rgb(255,127,42);stroke-width:3.78px;"/>
                <path id="path3185" d="M124.303,1516.893L105.061,1445.082" style="fill:none;fill-rule:nonzero;stroke:rgb(255,127,42);stroke-width:3.78px;"/>
                <path id="path3177" d="M140.966,1507.272L88.397,1454.703" style="fill:none;fill-rule:nonzero;stroke:rgb(255,127,42);stroke-width:3.78px;"/>
                <path id="path3179" d="M105.061,1516.893L124.303,1445.082" style="fill:none;fill-rule:nonzero;stroke:rgb(255,127,42);stroke-width:3.78px;"/>
                <path id="path3187" d="M150.587,1490.608L78.776,1471.367" style="fill:none;fill-rule:nonzero;stroke:rgb(255,127,42);stroke-width:3.78px;"/>
                <g id="g3173">
                    <path id="path3158" d="M68.941,1507.396L160.423,1454.579" style="fill:none;fill-rule:nonzero;stroke:rgb(255,127,42);stroke-width:7.56px;"/>
                    <path id="path3160" d="M141.09,1526.729L88.273,1435.246" style="fill:none;fill-rule:nonzero;stroke:rgb(255,127,42);stroke-width:7.56px;"/>
                    <path id="path3162" d="M88.273,1526.729L141.09,1435.246" style="fill:none;fill-rule:nonzero;stroke:rgb(255,127,42);stroke-width:7.56px;"/>
                    <path id="path3143" d="M61.865,1480.987L167.499,1480.987" style="fill:none;fill-rule:nonzero;stroke:rgb(255,127,42);stroke-width:1px;stroke-linecap:butt;stroke-linejoin:miter;"/>
                    <path id="path3145" d="M61.865,1480.987L167.499,1480.987" style="fill:none;fill-rule:nonzero;stroke:rgb(255,127,42);stroke-width:7.56px;"/>
                    <path id="path3156" d="M114.682,1533.805L114.682,1428.17" style="fill:none;fill-rule:nonzero;stroke:rgb(255,127,42);stroke-width:7.56px;"/>
                    <path id="path3164" d="M160.423,1507.396L68.941,1454.579" style="fill:none;fill-rule:nonzero;stroke:rgb(255,127,42);stroke-width:7.56px;"/>
                </g>
                <path id="path3175" d="M88.397,1507.272L140.966,1454.703" style="fill:none;fill-rule:nonzero;stroke:rgb(255,127,42);stroke-width:3.78px;"/>
                <path id="path3191" d="M114.803,1480.866L114.803,1554.735" style="fill:none;fill-rule:nonzero;stroke:rgb(255,127,42);stroke-width:7.56px;stroke-linecap:butt;stroke-linejoin:miter;"/>
            </g>
            <path id="path2192" d="M114.598,1535.509L125.505,1544.491L125.121,1565.625L104.377,1565.729L103.781,1544.599L114.598,1535.508" style="fill:rgb(212,85,0);fill-rule:nonzero;stroke:rgb(212,85,0);stroke-width:8.29px;"/>
            <g id="g3205" transform="matrix(0.972219,0,0,0.972219,-126.83829,84.48249)">
                <g id="circle2338" transform="matrix(-0,1,-1,-0,0,0)">
                    <circle cx="1381.25" cy="-248.422" r="3.888" style="fill:rgb(255,204,0);"/>
                </g>
                <g id="circle2340" transform="matrix(-0,1,-1,-0,0,0)">
                    <circle cx="1381.25" cy="-248.422" r="2.592" style="fill:white;"/>
                </g>
            </g>
            <g id="g3225">
                <g id="g3211" transform="matrix(0.972219,0,0,0.972219,-179.53666,138.11053)">
                    <g id="circle3207" transform="matrix(-0,1,-1,-0,0,0)">
                        <circle cx="1381.25" cy="-248.422" r="3.888" style="fill:rgb(255,204,0);"/>
                    </g>
                    <g id="circle3209" transform="matrix(-0,1,-1,-0,0,0)">
                        <circle cx="1381.25" cy="-248.422" r="2.592" style="fill:white;"/>
                    </g>
                </g>
                <g id="g3217" transform="matrix(0.972219,0,0,0.972219,-73.53666,138.11053)">
                    <g id="circle3213" transform="matrix(-0,1,-1,-0,0,0)">
                        <circle cx="1381.25" cy="-248.422" r="3.888" style="fill:rgb(255,204,0);"/>
                    </g>
                    <g id="circle3215" transform="matrix(-0,1,-1,-0,0,0)">
                        <circle cx="1381.25" cy="-248.422" r="2.592" style="fill:white;"/>
                    </g>
                </g>
            </g>
            <g id="g3239" transform="matrix(0.866025,-0.5,0.5,0.866025,-725.088782,255.906827)">
                <g id="g3231" transform="matrix(0.972219,0,0,0.972219,-179.53666,138.11053)">
                    <g id="circle3227" transform="matrix(-0,1,-1,-0,0,0)">
                        <circle cx="1381.25" cy="-248.422" r="3.888" style="fill:rgb(255,204,0);"/>
                    </g>
                    <g id="circle3229" transform="matrix(-0,1,-1,-0,0,0)">
                        <circle cx="1381.25" cy="-248.422" r="2.592" style="fill:white;"/>
                    </g>
                </g>
                <g id="g3237" transform="matrix(0.972219,0,0,0.972219,-73.53666,138.11053)">
                    <g id="circle3233" transform="matrix(-0,1,-1,-0,0,0)">
                        <circle cx="1381.25" cy="-248.422" r="3.888" style="fill:rgb(255,204,0);"/>
                    </g>
                    <g id="circle3235" transform="matrix(-0,1,-1,-0,0,0)">
                        <circle cx="1381.25" cy="-248.422" r="2.592" style="fill:white;"/>
                    </g>
                </g>
            </g>
            <g id="g3253" transform="matrix(0.5,-0.866025,0.866025,0.5,-1225.080668,840.07304)">
                <g id="g3245" transform="matrix(0.972219,0,0,0.972219,-179.53666,138.11053)">
                    <g id="circle3241" transform="matrix(-0,1,-1,-0,0,0)">
                        <circle cx="1381.25" cy="-248.422" r="3.888" style="fill:rgb(255,204,0);"/>
                    </g>
                    <g id="circle3243" transform="matrix(-0,1,-1,-0,0,0)">
                        <circle cx="1381.25" cy="-248.422" r="2.592" style="fill:white;"/>
                    </g>
                </g>
                <g id="g3251" transform="matrix(0.972219,0,0,0.972219,-73.53666,138.11053)">
                    <g id="circle3247" transform="matrix(-0,1,-1,-0,0,0)">
                        <circle cx="1381.25" cy="-248.422" r="3.888" style="fill:rgb(255,204,0);"/>
                    </g>
                    <g id="circle3249" transform="matrix(-0,1,-1,-0,0,0)">
                        <circle cx="1381.25" cy="-248.422" r="2.592" style="fill:white;"/>
                    </g>
                </g>
            </g>
            <g id="g3267" transform="matrix(-0.5,-0.866025,0.866025,-0.5,-1110.096393,2321.060549)">
                <g id="g3259" transform="matrix(0.972219,0,0,0.972219,-179.53666,138.11053)">
                    <g id="circle3255" transform="matrix(-0,1,-1,-0,0,0)">
                        <circle cx="1381.25" cy="-248.422" r="3.888" style="fill:rgb(255,204,0);"/>
                    </g>
                    <g id="circle3257" transform="matrix(-0,1,-1,-0,0,0)">
                        <circle cx="1381.25" cy="-248.422" r="2.592" style="fill:white;"/>
                    </g>
                </g>
                <g id="g3265" transform="matrix(0.972219,0,0,0.972219,-73.53666,138.11053)">
                    <g id="circle3261" transform="matrix(-0,1,-1,-0,0,0)">
                        <circle cx="1381.25" cy="-248.422" r="3.888" style="fill:rgb(255,204,0);"/>
                    </g>
                    <g id="circle3263" transform="matrix(-0,1,-1,-0,0,0)">
                        <circle cx="1381.25" cy="-248.422" r="2.592" style="fill:white;"/>
                    </g>
                </g>
            </g>
            <g id="g3526">
                <g id="g3273" transform="matrix(-0.841966,-0.486109,0.486109,-0.841966,-301.39159,2791.2135)">
                    <g id="circle3269" transform="matrix(-0,1,-1,-0,0,0)">
                        <circle cx="1381.25" cy="-248.422" r="3.888" style="fill:rgb(255,204,0);"/>
                    </g>
                    <g id="circle3271" transform="matrix(-0,1,-1,-0,0,0)">
                        <circle cx="1381.25" cy="-248.422" r="2.592" style="fill:white;"/>
                    </g>
                </g>
                <g id="g3279" transform="matrix(-0.841966,-0.486109,0.486109,-0.841966,-393.19028,2738.2135)">
                    <g id="circle3275" transform="matrix(-0,1,-1,-0,0,0)">
                        <circle cx="1381.25" cy="-248.422" r="3.888" style="fill:rgb(255,204,0);"/>
                    </g>
                    <g id="circle3277" transform="matrix(-0,1,-1,-0,0,0)">
                        <circle cx="1381.25" cy="-248.422" r="2.592" style="fill:white;"/>
                    </g>
                </g>
            </g>
            <g id="g3538" transform="matrix(-0.841966,-0.486109,0.486109,-0.841966,-358.22775,2849.7024)">
                <g id="circle3534" transform="matrix(-0,1,-1,-0,0,0)">
                    <circle cx="1381.25" cy="-248.422" r="3.888" style="fill:rgb(255,204,0);"/>
                </g>
                <g id="circle3536" transform="matrix(-0,1,-1,-0,0,0)">
                    <circle cx="1381.25" cy="-248.422" r="2.592" style="fill:white;"/>
                </g>
            </g>
            <g id="g3552" transform="matrix(-0.841966,-0.486109,0.486109,-0.841966,-336.82775,2849.7024)">
                <g id="circle3548" transform="matrix(-0,1,-1,-0,0,0)">
                    <circle cx="1381.25" cy="-248.422" r="3.888" style="fill:rgb(255,204,0);"/>
                </g>
                <g id="circle3550" transform="matrix(-0,1,-1,-0,0,0)">
                    <circle cx="1381.25" cy="-248.422" r="2.592" style="fill:white;"/>
                </g>
            </g>
            <g id="g3558" transform="matrix(-0.841966,-0.486109,0.486109,-0.841966,-358.82775,2828.202)">
                <g id="circle3554" transform="matrix(-0,1,-1,-0,0,0)">
                    <circle cx="1381.25" cy="-248.422" r="3.888" style="fill:rgb(255,204,0);"/>
                </g>
                <g id="circle3556" transform="matrix(-0,1,-1,-0,0,0)">
                    <circle cx="1381.25" cy="-248.422" r="2.592" style="fill:white;"/>
                </g>
            </g>
            <g id="g3564" transform="matrix(-0.841966,-0.486109,0.486109,-0.841966,-336.42775,2828.202)">
                <g id="circle3560" transform="matrix(-0,1,-1,-0,0,0)">
                    <circle cx="1381.25" cy="-248.422" r="3.888" style="fill:rgb(255,204,0);"/>
                </g>
                <g id="circle3562" transform="matrix(-0,1,-1,-0,0,0)">
                    <circle cx="1381.25" cy="-248.422" r="2.592" style="fill:white;"/>
                </g>
            </g>
            <g id="g3570" transform="matrix(-0.841966,-0.486109,0.486109,-0.841966,-347.52775,2817.502)">
                <g id="circle3566" transform="matrix(-0,1,-1,-0,0,0)">
                    <circle cx="1381.25" cy="-248.422" r="3.888" style="fill:rgb(255,204,0);"/>
                </g>
                <g id="circle3568" transform="matrix(-0,1,-1,-0,0,0)">
                    <circle cx="1381.25" cy="-248.422" r="2.592" style="fill:white;"/>
                </g>
            </g>
            <g id="path6638" transform="matrix(0.08048,-0.133486,0.133486,0.08048,-86.07609,1393.5181)">
                <path d="M-75.414,913.596C-78.943,917.124 -118.55,899.402 -123.479,900.183C-128.408,900.963 -160.6,930.057 -165.046,927.792C-169.492,925.527 -164.877,882.381 -167.142,877.935C-169.408,873.489 -207.026,851.863 -206.245,846.934C-205.465,842.005 -163.005,833.062 -159.476,829.534C-155.948,826.005 -147.005,783.545 -142.076,782.765C-137.147,781.984 -115.521,819.602 -111.075,821.868C-106.629,824.133 -63.484,819.518 -61.218,823.964C-58.953,828.41 -88.047,860.602 -88.828,865.531C-89.608,870.46 -71.886,910.067 -75.414,913.596Z" style="fill:white;fill-rule:nonzero;stroke:rgb(212,170,0);stroke-width:4.85px;stroke-linecap:butt;stroke-linejoin:miter;"/>
            </g>
            <g id="path6640" transform="matrix(0.080459,-0.133452,0.133452,0.080459,107.66323,1393.5399)">
                <path d="M-75.414,913.596C-78.943,917.124 -118.55,899.402 -123.479,900.183C-128.408,900.963 -160.6,930.057 -165.046,927.792C-169.492,925.527 -164.877,882.381 -167.142,877.935C-169.408,873.489 -207.026,851.863 -206.245,846.934C-205.465,842.005 -163.005,833.062 -159.476,829.534C-155.948,826.005 -147.005,783.545 -142.076,782.765C-137.147,781.984 -115.521,819.602 -111.075,821.868C-106.629,824.133 -63.484,819.518 -61.218,823.964C-58.953,828.41 -88.047,860.602 -88.828,865.531C-89.608,870.46 -71.886,910.067 -75.414,913.596Z" style="fill:white;fill-rule:nonzero;stroke:rgb(212,170,0);stroke-width:4.85px;stroke-linecap:butt;stroke-linejoin:miter;"/>
            </g>
        </g>
        <g transform="matrix(11.24828,0,0,11.24828,-937.128224,776.292141)">
            <path d="M131,20.5L131,27.5C131,29.432 129.432,31 127.5,31L103.5,31C101.568,31 100,29.432 100,27.5L100,20.5C100,18.568 101.568,17 103.5,17L127.5,17C129.432,17 131,18.568 131,20.5Z" style="fill:rgb(252,127,41);"/>
        </g>
        <g transform="matrix(11.24828,0,0,11.24828,-937.128224,981.010828)">
            <path d="M131,20.5L131,27.5C131,29.432 129.432,31 127.5,31L103.5,31C101.568,31 100,29.432 100,27.5L100,20.5C100,18.568 101.568,17 103.5,17L127.5,17C129.432,17 131,18.568 131,20.5Z" style="fill:rgb(253,204,12);"/>
        </g>
        <g transform="matrix(11.24828,0,0,11.24828,-937.128224,1185.729516)">
            <path d="M131,20.5L131,27.5C131,29.432 129.432,31 127.5,31L103.5,31C101.568,31 100,29.432 100,27.5L100,20.5C100,18.568 101.568,17 103.5,17L127.5,17C129.432,17 131,18.568 131,20.5Z" style="fill:rgb(212,170,13);"/>
        </g>
        <g transform="matrix(11.24828,0,0,11.24828,-937.128224,1390.448203)">
            <path d="M131,20.5L131,27.5C131,29.432 129.432,31 127.5,31L103.5,31C101.568,31 100,29.432 100,27.5L100,20.5C100,18.568 101.568,17 103.5,17L127.5,17C129.432,17 131,18.568 131,20.5Z" style="fill:rgb(212,85,1);"/>
        </g>
        <g transform="matrix(11.24828,0,0,11.24828,-937.128224,1595.16689)">
            <path d="M131,20.5L131,27.5C131,29.432 129.432,31 127.5,31L103.5,31C101.568,31 100,29.432 100,27.5L100,20.5C100,18.568 101.568,17 103.5,17L127.5,17C129.432,17 131,18.568 131,20.5Z" style="fill:rgb(1,0,1);"/>
        </g>
        <g transform="matrix(11.24828,0,0,11.24828,-937.128224,1799.885577)">
            <path d="M131,20.5L131,27.5C131,29.432 129.432,31 127.5,31L103.5,31C101.568,31 100,29.432 100,27.5L100,20.5C100,18.568 101.568,17 103.5,17L127.5,17C129.432,17 131,18.568 131,20.5Z" style="fill:rgb(254,255,254);stroke:black;stroke-width:0.25px;stroke-miterlimit:1.5;"/>
        </g>
        <g transform="matrix(2.853533,0,0,2.853533,-1196.614595,535.468423)">
            <text x="506.448px" y="182.6px" style="font-family:'PTMono-Regular', 'PT Mono', monospace;font-size:18px;">#FF7F2A</text>
        </g>
        <g transform="matrix(2.853533,0,0,2.853533,-1196.614595,740.18711)">
            <text x="506.448px" y="182.6px" style="font-family:'PTMono-Regular', 'PT Mono', monospace;font-size:18px;">#FFCC00</text>
        </g>
        <g transform="matrix(2.853533,0,0,2.853533,-1196.614595,1354.343172)">
            <text x="506.448px" y="182.6px" style="font-family:'PTMono-Regular', 'PT Mono', monospace;font-size:18px;fill:white;">#000000</text>
        </g>
        <g transform="matrix(2.853533,0,0,2.853533,-1196.614595,944.905797)">
            <text x="506.448px" y="182.6px" style="font-family:'PTMono-Regular', 'PT Mono', monospace;font-size:18px;">#D4AA00</text>
        </g>
        <g transform="matrix(2.853533,0,0,2.853533,-1196.614595,1149.624484)">
            <text x="506.448px" y="182.6px" style="font-family:'PTMono-Regular', 'PT Mono', monospace;font-size:18px;">#D45500</text>
        </g>
        <g transform="matrix(2.853533,0,0,2.853533,-1196.614595,1559.061859)">
            <text x="506.448px" y="182.6px" style="font-family:'PTMono-Regular', 'PT Mono', monospace;font-size:18px;">#FFFFFF</text>
        </g>
    </g>
</svg>
