<?xml version="1.0" encoding="UTF-8" standalone="no"?>
<!DOCTYPE svg PUBLIC "-//W3C//DTD SVG 1.1//EN" "http://www.w3.org/Graphics/SVG/1.1/DTD/svg11.dtd">
<svg width="100%" height="100%" viewBox="0 0 842 596" version="1.1" xmlns="http://www.w3.org/2000/svg" xmlns:xlink="http://www.w3.org/1999/xlink" xml:space="preserve" xmlns:serif="http://www.serif.com/" style="fill-rule:evenodd;clip-rule:evenodd;stroke-linecap:round;stroke-linejoin:round;stroke-miterlimit:100.1;">
    <g id="white-bg" transform="matrix(-3.417984,-2.919234,2.919234,-3.417984,8.167445,7.860855)">
        <path d="M-22.684,-3.668C-22.684,8.939 -33.058,19.314 -45.666,19.314L-45.666,19.314C-58.274,19.314 -68.648,8.939 -68.648,-3.668L-68.648,-3.668C-68.648,-16.276 -58.274,-26.65 -45.666,-26.65C-33.058,-26.65 -22.684,-16.276 -22.684,-3.668L-22.684,-3.668Z" style="fill:white;fill-rule:nonzero;"/>
    </g>
    <g id="ring" transform="matrix(4.494946,0,0,4.494946,8.167445,7.860855)">
        <path d="M32.437,0.499C14.917,0.499 0.499,14.917 0.499,32.437C0.499,32.437 0.499,32.437 0.499,32.437C0.499,49.958 14.917,64.375 32.437,64.375C49.958,64.375 64.375,49.958 64.375,32.437C64.375,32.437 64.375,32.437 64.375,32.437C64.375,14.917 49.958,0.499 32.437,0.499ZM32.437,10.838C32.437,10.838 32.438,10.838 32.438,10.838C44.287,10.838 54.038,20.588 54.038,32.437C54.031,36.939 52.617,41.328 49.994,44.987C50.168,45.884 50.158,46.814 50.158,47.406C50.158,47.406 50.158,47.406 50.158,47.406C50.158,47.955 49.707,48.406 49.158,48.406C49.158,48.406 46.981,48.406 46.981,48.406C43.005,52.028 37.816,54.037 32.437,54.037C27.059,54.037 21.87,52.028 17.894,48.406C17.894,48.406 15.717,48.406 15.717,48.406C15.168,48.406 14.717,47.955 14.717,47.406C14.717,47.406 14.717,47.406 14.717,47.406C14.717,46.814 14.709,45.883 14.884,44.992C12.259,41.332 10.844,36.941 10.838,32.437C10.838,20.588 20.588,10.838 32.437,10.838Z" style="fill:rgb(131,218,250);stroke:black;stroke-width:1px;"/>
    </g>
    <g id="PEN---PAPER-..." serif:id="PEN &amp; PAPER ..." transform="matrix(4.494946,0,0,4.494946,8.167445,7.860855)">
        <path d="M4.682,38.146C4.693,38.192 4.728,38.214 4.774,38.203L5.648,37.994C5.693,37.983 5.728,38.005 5.739,38.051L5.839,38.469C5.982,39.068 6.469,39.265 6.909,39.16L6.976,39.144C7.501,39.018 7.759,38.644 7.617,38.047L7.371,37.017C7.36,36.971 7.325,36.949 7.279,36.96L4.629,37.593C4.583,37.604 4.561,37.639 4.572,37.685L4.682,38.146ZM6.292,37.919C6.282,37.873 6.303,37.838 6.349,37.827L6.869,37.703C6.915,37.692 6.95,37.713 6.961,37.759L7.064,38.19C7.105,38.362 7.017,38.524 6.832,38.568L6.769,38.583C6.584,38.627 6.436,38.522 6.395,38.35L6.292,37.919ZM5.909,42.213C5.924,42.257 5.961,42.275 6.006,42.26L6.401,42.121C6.445,42.105 6.463,42.068 6.447,42.024L6.074,40.963C6.059,40.919 6.077,40.882 6.121,40.866L6.537,40.72C6.582,40.704 6.619,40.722 6.634,40.766L6.94,41.637C6.956,41.681 6.993,41.699 7.037,41.683L7.432,41.544C7.477,41.529 7.495,41.492 7.479,41.447L7.173,40.577C7.157,40.532 7.175,40.495 7.219,40.48L7.615,40.341C7.659,40.325 7.696,40.343 7.712,40.387L8.085,41.448C8.1,41.492 8.137,41.51 8.182,41.494L8.577,41.356C8.621,41.34 8.639,41.303 8.623,41.258L8.042,39.606C8.027,39.562 7.99,39.544 7.945,39.56L5.374,40.464C5.33,40.48 5.312,40.517 5.328,40.561L5.909,42.213ZM6.355,43.303L6.561,43.731C6.581,43.774 6.62,43.787 6.662,43.767L7.488,43.371C7.753,43.244 8.02,43.081 8.119,42.994L8.127,43.01C8.119,43.014 8.054,43.09 7.99,43.18L7.036,44.641C7.02,44.668 7.021,44.69 7.033,44.717L7.221,45.108C7.241,45.151 7.28,45.164 7.322,45.144L9.8,43.956C9.842,43.936 9.856,43.897 9.836,43.855L9.631,43.427C9.61,43.384 9.571,43.371 9.529,43.391L8.699,43.789C8.471,43.898 8.162,44.088 7.99,44.226L7.982,44.21C8.004,44.189 8.091,44.08 8.149,43.993L9.16,42.517C9.172,42.497 9.173,42.472 9.16,42.445L8.97,42.05C8.95,42.007 8.911,41.993 8.869,42.014L6.391,43.202C6.349,43.222 6.335,43.261 6.355,43.303L6.355,43.303ZM10.333,48.374L10.508,48.253C10.552,48.223 10.587,48.234 10.614,48.272L10.655,48.331C10.682,48.37 10.722,48.377 10.761,48.351L11.087,48.125C11.125,48.098 11.133,48.058 11.106,48.019L10.708,47.445C10.681,47.406 10.641,47.399 10.602,47.425L9.978,47.858C9.794,47.985 9.586,47.949 9.47,47.782L9.427,47.719C9.284,47.513 9.322,47.315 9.471,47.212C9.636,47.097 9.818,47.124 9.973,47.347L10.009,47.4C10.036,47.439 10.077,47.446 10.115,47.419L10.441,47.193C10.48,47.167 10.487,47.126 10.46,47.088L10.423,47.034C10.283,46.832 10.289,46.656 10.448,46.546C10.586,46.45 10.796,46.49 10.953,46.717L10.982,46.759C11.089,46.914 11.073,47.118 10.967,47.257C10.946,47.285 10.949,47.321 10.964,47.343C10.97,47.351 10.98,47.362 10.989,47.367L11.343,47.618C11.365,47.635 11.386,47.634 11.403,47.622C11.414,47.615 11.42,47.611 11.451,47.573C11.705,47.263 11.701,46.795 11.451,46.434L11.422,46.391C11.059,45.867 10.547,45.761 10.169,46.022C9.939,46.182 9.828,46.403 9.878,46.625C9.884,46.653 9.875,46.659 9.868,46.665C9.857,46.672 9.844,46.67 9.827,46.66C9.614,46.53 9.351,46.543 9.1,46.717C8.688,47.002 8.592,47.516 8.96,48.048L9,48.105C9.334,48.587 9.884,48.686 10.333,48.374L10.333,48.374ZM11.559,51.229C11.592,51.263 11.633,51.264 11.667,51.232L12.32,50.616C12.354,50.584 12.396,50.585 12.428,50.619L12.723,50.932C13.145,51.38 13.665,51.308 13.995,50.998L14.045,50.95C14.438,50.58 14.475,50.127 14.054,49.68L13.327,48.91C13.295,48.875 13.254,48.874 13.22,48.906L11.237,50.776C11.203,50.808 11.201,50.849 11.234,50.883L11.559,51.229ZM12.842,50.229C12.809,50.195 12.811,50.154 12.845,50.121L13.234,49.754C13.269,49.722 13.31,49.723 13.342,49.757L13.646,50.08C13.768,50.209 13.772,50.393 13.633,50.523L13.586,50.568C13.447,50.698 13.267,50.68 13.146,50.552L12.842,50.229ZM14.31,52.479C14.279,52.453 14.283,52.432 14.307,52.414L15.136,51.852L15.204,51.79L15.264,51.841L15.212,51.918L14.774,52.818C14.76,52.845 14.739,52.849 14.708,52.823L14.31,52.479ZM14.463,53.366C14.489,53.388 14.494,53.399 14.485,53.42L14.305,53.789C14.296,53.81 14.3,53.829 14.319,53.845L14.739,54.208C14.765,54.23 14.784,54.232 14.798,54.215C14.803,54.21 14.806,54.207 14.811,54.194L16.016,51.542C16.03,51.512 16.018,51.481 15.993,51.459L15.48,51.016C15.454,50.994 15.422,50.987 15.395,51.004C15.395,51.004 12.965,52.566 12.959,52.57C12.948,52.575 12.932,52.587 12.924,52.596C12.91,52.613 12.916,52.633 12.941,52.655L13.36,53.017C13.377,53.031 13.396,53.033 13.416,53.021L13.755,52.789C13.774,52.777 13.784,52.779 13.811,52.803L14.463,53.366ZM15.912,55.064C15.951,55.09 15.991,55.083 16.018,55.044L16.53,54.307C16.557,54.268 16.597,54.261 16.636,54.288L16.989,54.533C17.495,54.884 17.989,54.706 18.247,54.334L18.287,54.277C18.594,53.834 18.537,53.383 18.033,53.033L17.163,52.429C17.124,52.402 17.084,52.409 17.057,52.448L15.503,54.687C15.476,54.726 15.484,54.766 15.522,54.793L15.912,55.064ZM16.96,53.82C16.922,53.793 16.914,53.753 16.941,53.714L17.246,53.275C17.273,53.236 17.314,53.229 17.352,53.256L17.717,53.508C17.862,53.609 17.904,53.788 17.795,53.945L17.758,53.998C17.65,54.154 17.47,54.174 17.325,54.073L16.96,53.82ZM19.538,57.277C19.579,57.299 19.618,57.288 19.641,57.247L19.843,56.88C19.866,56.838 19.854,56.799 19.813,56.776L18.828,56.235C18.787,56.212 18.775,56.172 18.798,56.131L19.01,55.745C19.033,55.703 19.073,55.692 19.114,55.715L19.922,56.159C19.963,56.182 20.003,56.17 20.026,56.129L20.227,55.762C20.25,55.721 20.239,55.681 20.197,55.659L19.389,55.214C19.348,55.192 19.336,55.152 19.359,55.111L19.561,54.744C19.583,54.703 19.623,54.691 19.664,54.714L20.649,55.256C20.69,55.278 20.73,55.267 20.752,55.226L20.954,54.859C20.977,54.817 20.965,54.778 20.924,54.755L19.39,53.911C19.349,53.889 19.309,53.9 19.286,53.941L17.973,56.329C17.951,56.371 17.962,56.41 18.003,56.433L19.538,57.277ZM22.319,56.698L21.825,56.491C21.782,56.473 21.766,56.435 21.784,56.392L21.971,55.946C21.989,55.902 22.027,55.887 22.07,55.905L22.564,56.111C22.727,56.18 22.808,56.342 22.746,56.488L22.716,56.561C22.655,56.707 22.478,56.765 22.319,56.698L22.319,56.698ZM20.602,57.791L21.04,57.974C21.083,57.992 21.121,57.976 21.139,57.933L21.513,57.041C21.531,56.997 21.569,56.982 21.612,57L21.97,57.149C21.988,57.157 22.001,57.172 22.001,57.196L21.998,58.336C21.999,58.363 22.009,58.379 22.025,58.386L22.525,58.595C22.558,58.609 22.582,58.599 22.589,58.583C22.595,58.566 22.598,58.536 22.598,58.485L22.605,57.33C22.606,57.311 22.607,57.297 22.614,57.28C22.621,57.264 22.636,57.256 22.662,57.252C22.96,57.207 23.162,57.039 23.282,56.751C23.491,56.251 23.307,55.803 22.778,55.582L21.712,55.136C21.669,55.118 21.631,55.134 21.613,55.177L20.561,57.691C20.543,57.734 20.558,57.772 20.602,57.791ZM34.745,60.305L35.064,60.277C35.671,60.225 35.951,59.877 35.91,59.393L35.845,58.639C35.841,58.592 35.809,58.566 35.762,58.57L34.872,58.646C34.825,58.65 34.799,58.682 34.803,58.729L34.832,59.074C34.836,59.121 34.868,59.148 34.915,59.144L35.203,59.119C35.25,59.115 35.281,59.141 35.285,59.188L35.301,59.378C35.316,59.545 35.216,59.691 35.037,59.706L34.696,59.736C34.52,59.751 34.395,59.634 34.38,59.457L34.276,58.246C34.261,58.081 34.361,57.933 34.54,57.917L34.87,57.889C35.057,57.873 35.177,57.932 35.237,58.084C35.251,58.117 35.284,58.132 35.311,58.13C35.311,58.13 35.333,58.126 35.344,58.12L35.737,57.938C35.763,57.927 35.773,57.908 35.771,57.888C35.77,57.874 35.769,57.868 35.752,57.822C35.618,57.467 35.267,57.282 34.821,57.32L34.491,57.348C33.886,57.401 33.603,57.749 33.645,58.233L33.761,59.578C33.804,60.08 34.118,60.359 34.745,60.305L34.745,60.305ZM37.051,59.987L38.689,59.673C38.735,59.664 38.758,59.63 38.749,59.584L38.671,59.172C38.662,59.126 38.628,59.103 38.581,59.112L37.559,59.308C37.513,59.317 37.479,59.294 37.47,59.247L37.06,57.11C37.051,57.064 37.017,57.04 36.971,57.049L36.505,57.139C36.458,57.148 36.435,57.182 36.444,57.228L36.961,59.926C36.97,59.973 37.004,59.996 37.051,59.987L37.051,59.987ZM39.807,59.383C39.807,59.383 40.264,59.256 40.264,59.256C40.31,59.244 40.33,59.208 40.317,59.162L39.583,56.515C39.571,56.469 39.535,56.449 39.49,56.462L39.032,56.588C38.987,56.601 38.967,56.637 38.979,56.682L39.713,59.33C39.726,59.375 39.762,59.396 39.807,59.383ZM41.987,58.703L42.433,58.54C42.477,58.524 42.494,58.487 42.478,58.443L41.738,56.419C41.722,56.375 41.739,56.338 41.783,56.322L42.254,56.15C42.299,56.133 42.316,56.096 42.3,56.052L42.156,55.659C42.14,55.614 42.102,55.597 42.058,55.613L40.384,56.226C40.34,56.242 40.323,56.279 40.339,56.323L40.483,56.717C40.499,56.761 40.536,56.778 40.58,56.762L41.051,56.59C41.096,56.573 41.133,56.591 41.149,56.635L41.889,58.658C41.905,58.702 41.943,58.719 41.987,58.703L41.987,58.703ZM44.533,57.654L44.961,57.449C45.003,57.429 45.017,57.39 44.997,57.347L44.064,55.405C44.044,55.363 44.058,55.324 44.1,55.304L44.552,55.087C44.595,55.066 44.608,55.028 44.588,54.985L44.407,54.608C44.386,54.565 44.348,54.552 44.305,54.572L42.698,55.343C42.656,55.364 42.642,55.402 42.663,55.445L42.844,55.822C42.864,55.865 42.903,55.878 42.945,55.858L43.398,55.641C43.44,55.621 43.479,55.634 43.499,55.677L44.431,57.619C44.452,57.661 44.491,57.675 44.533,57.654ZM48.033,55.715C48.073,55.69 48.082,55.65 48.058,55.61L47.84,55.253C47.815,55.213 47.775,55.203 47.735,55.227L46.776,55.813C46.735,55.837 46.695,55.827 46.671,55.787L46.441,55.411C46.417,55.37 46.426,55.33 46.467,55.306L47.254,54.826C47.294,54.801 47.304,54.761 47.28,54.721L47.062,54.363C47.037,54.323 46.997,54.314 46.957,54.338L46.169,54.818C46.129,54.843 46.089,54.833 46.065,54.793L45.847,54.435C45.822,54.395 45.832,54.355 45.872,54.331L46.832,53.746C46.872,53.721 46.882,53.681 46.857,53.641L46.639,53.283C46.615,53.243 46.575,53.234 46.534,53.258L45.039,54.17C44.999,54.194 44.99,54.234 45.014,54.274L46.433,56.601C46.457,56.641 46.497,56.651 46.538,56.626L48.033,55.715ZM48.913,53.014L48.489,53.34C48.451,53.369 48.411,53.363 48.382,53.326L48.088,52.942C48.059,52.905 48.064,52.864 48.102,52.835L48.526,52.51C48.667,52.402 48.847,52.413 48.944,52.539L48.992,52.601C49.089,52.728 49.05,52.909 48.913,53.014L48.913,53.014ZM49.008,55.047L49.384,54.758C49.422,54.73 49.427,54.689 49.399,54.651L48.81,53.884C48.781,53.846 48.787,53.806 48.824,53.777L49.131,53.541C49.147,53.529 49.167,53.525 49.188,53.538L50.175,54.107C50.199,54.12 50.218,54.119 50.232,54.108L50.662,53.779C50.691,53.757 50.694,53.732 50.683,53.717C50.672,53.703 50.647,53.686 50.603,53.661L49.604,53.08C49.588,53.07 49.576,53.062 49.565,53.048C49.555,53.033 49.555,53.016 49.565,52.992C49.674,52.711 49.628,52.452 49.439,52.205C49.109,51.775 48.629,51.712 48.174,52.061L47.257,52.764C47.219,52.792 47.214,52.833 47.243,52.87L48.901,55.033C48.93,55.07 48.97,55.076 49.008,55.047L49.008,55.047ZM53.054,50.203L52.9,50.056C52.861,50.019 52.864,49.983 52.897,49.949L52.946,49.897C52.979,49.863 52.978,49.822 52.944,49.789L52.656,49.516C52.622,49.484 52.581,49.485 52.549,49.519L52.067,50.025C52.035,50.059 52.036,50.1 52.07,50.133L52.62,50.656C52.782,50.81 52.789,51.021 52.649,51.168L52.596,51.224C52.424,51.405 52.223,51.409 52.091,51.284C51.945,51.145 51.934,50.962 52.121,50.765L52.166,50.718C52.198,50.684 52.197,50.643 52.163,50.61L51.876,50.337C51.841,50.305 51.8,50.306 51.768,50.34L51.723,50.387C51.553,50.566 51.38,50.595 51.24,50.463C51.119,50.347 51.115,50.133 51.305,49.934L51.34,49.896C51.47,49.76 51.673,49.734 51.831,49.809C51.863,49.824 51.897,49.814 51.916,49.795C51.922,49.788 51.931,49.775 51.934,49.766L52.108,49.368C52.12,49.343 52.115,49.322 52.1,49.308C52.09,49.299 52.085,49.295 52.042,49.272C51.687,49.086 51.229,49.185 50.926,49.503L50.891,49.54C50.451,50.003 50.452,50.525 50.784,50.842C50.987,51.034 51.226,51.098 51.433,51.004C51.46,50.992 51.468,51 51.474,51.006C51.484,51.016 51.484,51.028 51.479,51.047C51.394,51.282 51.461,51.537 51.682,51.747C52.045,52.093 52.567,52.083 53.013,51.614L53.061,51.563C53.466,51.138 53.45,50.58 53.054,50.203L53.054,50.203ZM55.803,48.21L55.985,47.946C56.331,47.445 56.241,47.007 55.841,46.731L55.219,46.301C55.18,46.274 55.139,46.282 55.113,46.321L54.605,47.056C54.578,47.094 54.586,47.135 54.624,47.162L54.91,47.359C54.949,47.386 54.989,47.378 55.016,47.34L55.18,47.102C55.207,47.063 55.247,47.056 55.286,47.082L55.443,47.191C55.581,47.286 55.63,47.456 55.528,47.603L55.333,47.885C55.233,48.031 55.063,48.052 54.917,47.952L53.917,47.261C53.78,47.167 53.73,46.996 53.831,46.848L54.02,46.575C54.127,46.421 54.249,46.366 54.404,46.416C54.438,46.426 54.471,46.411 54.486,46.389C54.486,46.389 54.497,46.369 54.5,46.357L54.61,45.938C54.618,45.911 54.609,45.891 54.593,45.88C54.582,45.872 54.576,45.868 54.53,45.853C54.171,45.73 53.804,45.882 53.55,46.251L53.361,46.524C53.017,47.023 53.105,47.462 53.505,47.738L54.616,48.506C55.031,48.792 55.446,48.727 55.803,48.21L55.803,48.21ZM57.026,46.23L57.827,44.766C57.849,44.725 57.838,44.685 57.797,44.663L57.429,44.462C57.388,44.439 57.349,44.451 57.326,44.492L56.826,45.405C56.803,45.447 56.764,45.458 56.723,45.436L54.813,44.39C54.772,44.368 54.733,44.379 54.71,44.421L54.482,44.837C54.46,44.878 54.471,44.918 54.512,44.94L56.922,46.26C56.964,46.282 57.003,46.271 57.026,46.23L57.026,46.23ZM58.67,43.023L58.794,42.727C59.028,42.165 58.849,41.756 58.401,41.568L56.499,40.775C56.456,40.757 56.418,40.773 56.4,40.816L56.217,41.255C56.199,41.298 56.215,41.336 56.258,41.354L58.098,42.121C58.252,42.188 58.336,42.342 58.267,42.507L58.143,42.803C58.075,42.966 57.913,43.022 57.75,42.954L55.911,42.187C55.867,42.169 55.829,42.185 55.811,42.228L55.628,42.666C55.61,42.71 55.626,42.748 55.669,42.766L57.571,43.559C58.036,43.753 58.427,43.605 58.67,43.023L58.67,43.023ZM59.98,39.075C59.993,39.03 59.974,38.994 59.929,38.981L59.527,38.862C59.482,38.849 59.446,38.869 59.432,38.914L59.114,39.992C59.101,40.037 59.065,40.057 59.02,40.044L58.597,39.919C58.551,39.905 58.532,39.869 58.545,39.824L58.806,38.939C58.82,38.894 58.8,38.858 58.755,38.845L58.353,38.726C58.308,38.713 58.272,38.733 58.259,38.778L57.997,39.663C57.984,39.708 57.948,39.727 57.903,39.714L57.501,39.595C57.456,39.582 57.436,39.546 57.45,39.501L57.768,38.423C57.781,38.378 57.761,38.341 57.716,38.328L57.315,38.21C57.27,38.196 57.234,38.216 57.22,38.261L56.725,39.941C56.711,39.986 56.731,40.022 56.776,40.035L59.39,40.807C59.435,40.82 59.471,40.8 59.484,40.755L59.98,39.075Z" style="fill:rgb(8,153,206);fill-rule:nonzero;"/>
    </g>
    <g id="path1942-2-7" transform="matrix(-4.318052,-1.248587,-1.248587,4.318052,8.167445,7.860855)">
        <circle cx="-40.024" cy="21.642" r="30.045" style="fill:none;"/>
    </g>
    <g id="PRESS" transform="matrix(2.834646,0,0,2.834646,328.996257,205.689668)">
        <g id="path1" transform="matrix(1.585717,0,0,1.585717,-113.181276,-69.789609)">
            <path d="M22.021,11.892C22.126,11.844 22.162,11.75 22.114,11.644L21.202,9.631C21.155,9.525 21.19,9.43 21.296,9.383L22.26,8.946C23.641,8.321 23.889,7.052 23.43,6.038L23.359,5.882C22.811,4.672 21.785,4.223 20.409,4.846L18.034,5.922C17.929,5.97 17.893,6.065 17.941,6.17L20.708,12.281C20.756,12.386 20.851,12.422 20.956,12.374L22.021,11.892ZM20.718,8.107C20.613,8.155 20.518,8.119 20.47,8.014L19.927,6.814C19.879,6.708 19.915,6.613 20.02,6.566L21.014,6.115C21.411,5.936 21.842,6.073 22.036,6.5L22.102,6.646C22.295,7.073 22.109,7.477 21.712,7.657L20.718,8.107Z" style="fill:rgb(249,249,249);fill-rule:nonzero;stroke:black;stroke-opacity:0.51;stroke-width:0.13px;stroke-linecap:butt;stroke-linejoin:miter;stroke-miterlimit:4;"/>
        </g>
        <g id="path2" transform="matrix(1.585717,0,0,1.585717,-113.181276,-69.789609)">
            <path d="M28.815,5.577L27.513,5.776C27.399,5.794 27.317,5.734 27.3,5.619L27.12,4.442C27.102,4.328 27.162,4.246 27.277,4.229L28.579,4.03C29.009,3.964 29.386,4.202 29.445,4.589L29.474,4.78C29.533,5.166 29.235,5.513 28.815,5.577L28.815,5.577ZM26.608,10.074L27.763,9.898C27.878,9.88 27.938,9.799 27.92,9.684L27.561,7.33C27.543,7.216 27.603,7.134 27.718,7.117L28.66,6.973C28.71,6.965 28.756,6.98 28.787,7.031L30.24,9.43C30.277,9.486 30.319,9.507 30.363,9.501L31.681,9.299C31.768,9.286 31.805,9.236 31.799,9.192C31.792,9.149 31.759,9.081 31.693,8.974L30.228,6.538C30.205,6.497 30.189,6.466 30.182,6.422C30.176,6.379 30.198,6.342 30.247,6.301C30.816,5.824 31.023,5.212 30.908,4.455C30.706,3.136 29.745,2.43 28.35,2.643L25.539,3.072C25.424,3.09 25.364,3.171 25.382,3.286L26.395,9.917C26.412,10.032 26.494,10.092 26.608,10.074L26.608,10.074ZM38.32,10.14C38.434,10.159 38.516,10.1 38.535,9.986L38.703,8.969C38.722,8.855 38.663,8.772 38.549,8.754L35.818,8.303C35.704,8.284 35.645,8.202 35.664,8.088L35.841,7.016C35.86,6.902 35.942,6.843 36.056,6.862L38.297,7.232C38.411,7.25 38.494,7.191 38.512,7.077L38.68,6.06C38.699,5.946 38.64,5.864 38.526,5.845L36.285,5.475C36.171,5.456 36.112,5.374 36.131,5.26L36.299,4.242C36.317,4.128 36.4,4.069 36.514,4.088L39.244,4.539C39.358,4.558 39.441,4.498 39.46,4.384L39.628,3.367C39.646,3.253 39.587,3.171 39.473,3.152L35.22,2.45C35.106,2.431 35.024,2.49 35.005,2.604L33.912,9.223C33.894,9.337 33.953,9.42 34.067,9.439L38.32,10.14ZM42.1,11.761C43.526,12.432 44.72,12.055 45.284,10.858C45.694,9.985 45.4,9.031 44.284,7.958C43.598,7.294 43.437,6.962 43.587,6.643C43.742,6.314 44.141,6.178 44.624,6.406C45.058,6.61 45.289,6.962 45.286,7.357C45.286,7.448 45.327,7.516 45.387,7.544C45.411,7.556 45.439,7.563 45.468,7.564L46.531,7.662C46.6,7.67 46.644,7.642 46.665,7.597C46.679,7.567 46.686,7.552 46.706,7.434C46.799,6.485 46.246,5.64 45.188,5.142C43.842,4.509 42.575,4.973 42.151,5.876C41.689,6.859 41.955,7.794 43.12,8.866C43.834,9.525 43.939,9.897 43.789,10.216C43.622,10.57 43.231,10.703 42.717,10.461C42.158,10.198 41.94,9.834 41.942,9.415C41.943,9.323 41.901,9.255 41.842,9.227C41.817,9.215 41.789,9.209 41.76,9.207L40.631,9.121C40.562,9.112 40.518,9.141 40.497,9.185C40.483,9.215 40.476,9.23 40.456,9.349C40.317,10.307 40.947,11.219 42.1,11.761L42.1,11.761ZM47.255,15.105C48.452,16.132 49.703,16.087 50.564,15.083C51.193,14.351 51.163,13.353 50.373,12.021C49.888,11.198 49.822,10.836 50.051,10.568C50.288,10.292 50.709,10.268 51.114,10.616C51.478,10.928 51.607,11.329 51.499,11.709C51.474,11.796 51.496,11.873 51.546,11.916C51.567,11.934 51.591,11.948 51.619,11.957L52.618,12.335C52.682,12.361 52.732,12.345 52.764,12.308C52.786,12.283 52.797,12.27 52.847,12.161C53.189,11.271 52.881,10.309 51.994,9.548C50.865,8.579 49.521,8.689 48.871,9.447C48.164,10.271 48.172,11.243 49.009,12.587C49.522,13.411 49.524,13.798 49.294,14.066C49.04,14.363 48.627,14.387 48.196,14.017C47.728,13.615 47.614,13.205 47.728,12.802C47.753,12.714 47.731,12.638 47.681,12.594C47.66,12.576 47.636,12.563 47.607,12.553L46.542,12.169C46.478,12.143 46.428,12.159 46.396,12.196C46.374,12.221 46.363,12.234 46.313,12.343C45.923,13.229 46.289,14.276 47.255,15.105L47.255,15.105Z" style="fill:rgb(249,249,249);fill-rule:nonzero;stroke:black;stroke-opacity:0.51;stroke-width:0.13px;stroke-linecap:butt;stroke-linejoin:miter;stroke-miterlimit:4;"/>
        </g>
    </g>
    <g id="x" transform="matrix(4.494946,0,0,4.494946,8.167445,7.860855)">
        <path d="M12.279,11.826C12.214,11.804 12.154,11.821 12.085,11.884L11.039,12.847C10.998,12.884 10.995,12.946 11.025,12.979C11.048,13.003 11.07,13.02 11.09,13.024L14.116,13.677C14.147,13.686 14.174,13.699 14.2,13.727C14.218,13.748 14.237,13.776 14.247,13.819L14.73,17.154C14.737,17.186 14.751,17.218 14.77,17.238C14.811,17.283 14.858,17.277 14.923,17.217L15.969,16.255C16.059,16.172 16.07,16.095 16.046,16.012C15.772,15.238 15.916,14.766 15.563,13.924L15.587,13.902C16.437,14.308 16.825,14.186 17.612,14.572C17.689,14.606 17.763,14.605 17.852,14.523L18.915,13.546C18.972,13.494 18.998,13.432 18.957,13.388C18.938,13.367 18.923,13.359 18.884,13.349L15.823,12.684C15.785,12.674 15.75,12.669 15.724,12.64C15.698,12.612 15.691,12.581 15.685,12.549L15.207,9.253C15.2,9.237 15.182,9.209 15.163,9.189C15.133,9.156 15.068,9.142 15.023,9.183L13.923,10.194C13.867,10.246 13.833,10.307 13.853,10.378C14.101,11.179 14.023,11.758 14.35,12.457L14.325,12.479C13.487,12.092 13.119,12.146 12.279,11.826Z" style="fill:white;fill-rule:nonzero;stroke:black;stroke-opacity:0.51;stroke-width:0.13px;stroke-linecap:butt;stroke-linejoin:miter;stroke-miterlimit:4;"/>
    </g>
    <g id="press" transform="matrix(3.385356,0,0,3.385356,311.132617,187.826124)">
        <g id="thread" transform="matrix(1.585717,0,0,1.585717,-97.860259,-61.527288)">
            <path d="M31.437,21.923L31.437,22.422L33.437,22.922L33.437,22.422L31.437,21.923ZM31.437,22.677L31.437,23.177L33.437,23.677L33.437,23.177L31.437,22.677ZM31.437,23.431L31.437,23.931L33.437,24.431L33.437,23.931L31.437,23.431ZM31.437,24.186L31.437,24.686L33.437,25.186L33.437,24.686L31.437,24.186ZM31.437,24.94L31.437,25.441L33.437,25.94L33.437,25.441L31.437,24.94ZM31.437,25.695L31.437,26.195L33.437,26.695L33.437,26.195L31.437,25.695ZM31.437,26.449L31.437,26.95L33.437,27.449L33.437,26.95L31.437,26.449ZM31.437,27.204L31.437,27.704L33.437,28.204L33.437,27.704L31.437,27.204ZM31.437,29.636L31.437,30.135L33.437,30.636L33.437,30.135L31.437,29.636ZM31.437,30.39L31.437,30.89L33.437,31.39L33.437,30.89L31.437,30.39ZM31.437,31.145L31.437,31.644L33.437,32.145L33.437,31.644L31.437,31.145ZM31.437,31.899L31.437,32.399L33.437,32.899L33.437,32.399L31.437,31.899ZM31.437,32.654L31.437,33.154L33.437,33.654L33.437,33.154L31.437,32.654ZM31.437,33.408L31.437,33.908L33.437,34.408L33.437,33.908L31.437,33.408ZM31.437,34.163L31.437,34.663L33.437,35.163L33.437,34.663L31.437,34.163ZM31.437,34.917L31.437,35.417L33.437,35.918L33.437,35.417L31.437,34.917Z"/>
        </g>
        <g id="body" transform="matrix(1.585717,0,0,1.585717,-97.860259,-61.527288)">
            <path d="M31.275,19.33C30.457,19.33 30.438,19.487 30.437,20.274L24.321,20.824C24.087,20.266 23.542,19.903 22.937,19.903C22.109,19.903 21.437,20.575 21.437,21.403C21.437,22.232 22.109,22.903 22.937,22.903C23.541,22.903 24.086,22.54 24.32,21.983L30.437,22.533L34.438,22.533L40.555,21.983C40.789,22.54 41.333,22.903 41.937,22.903C42.766,22.903 43.437,22.232 43.437,21.403C43.438,20.575 42.766,19.903 41.937,19.903C41.333,19.904 40.789,20.266 40.555,20.824L34.438,20.274C34.437,19.487 34.418,19.33 33.6,19.33L31.275,19.33ZM31.262,25.904C30.438,25.907 30.437,25.966 30.437,26.903L24.438,26.903C21.438,26.903 19.437,28.904 19.437,31.904L19.437,41.971C18.437,41.971 18.437,43.971 18.437,44.971L46.437,44.971C46.437,43.971 46.437,41.971 45.437,41.903L45.437,31.904C45.437,28.904 43.437,26.903 40.437,26.903L34.438,26.903C34.438,25.903 34.438,25.904 33.438,25.904L31.437,25.904C31.375,25.904 31.317,25.903 31.262,25.904ZM24.438,29.903L30.437,29.903C30.437,30.903 30.437,30.903 31.437,30.903L33.438,30.903C34.438,30.903 34.438,30.903 34.438,29.903L40.437,29.903C41.437,29.903 42.437,30.904 42.437,31.904L42.437,34.904L34.438,34.904C34.438,33.904 34.438,33.904 33.438,33.904L31.437,33.904C30.437,33.904 30.437,33.904 30.437,34.904L22.437,34.904L22.437,31.904C22.437,30.904 23.438,29.903 24.438,29.903ZM22.437,36.297L42.437,36.297L42.437,41.971L22.437,41.971L22.437,36.297Z" style="fill:rgb(8,153,206);stroke:black;stroke-width:0.17px;"/>
        </g>
        <g id="DOT" transform="matrix(1.585717,0,0,1.585717,-33.635228,-92.520698)">
            <path id="path7538-9-26-6-0" d="M-17.567,39.921C-18.132,39.92 -18.596,40.385 -18.596,40.949C-18.596,40.949 -18.596,40.949 -18.596,40.949C-18.596,41.513 -18.132,41.978 -17.568,41.978C-17.568,41.978 -17.567,41.978 -17.567,41.978C-17.003,41.978 -16.539,41.513 -16.539,40.949C-16.539,40.385 -17.003,39.921 -17.567,39.921ZM-17.567,40.263C-17.191,40.263 -16.882,40.573 -16.882,40.949C-16.882,41.325 -17.191,41.635 -17.567,41.635C-17.944,41.635 -18.253,41.325 -18.253,40.949C-18.253,40.573 -17.944,40.263 -17.567,40.263Z" style="fill:rgb(255,204,0);fill-rule:nonzero;"/>
            <path id="path7614-7-64-1-9" d="M-16.882,40.949C-16.882,41.325 -17.191,41.635 -17.568,41.635C-17.944,41.635 -18.253,41.325 -18.253,40.949C-18.253,40.573 -17.944,40.263 -17.568,40.263C-17.191,40.263 -16.882,40.573 -16.882,40.949Z" style="fill:white;fill-rule:nonzero;"/>
        </g>
        <g id="DOT1" serif:id="DOT" transform="matrix(1.585717,0,0,1.585717,-3.479213,-92.520698)">
            <path id="path4411" d="M-17.567,39.921C-18.132,39.92 -18.596,40.385 -18.596,40.949C-18.596,40.949 -18.596,40.949 -18.596,40.949C-18.596,41.513 -18.132,41.978 -17.568,41.978C-17.568,41.978 -17.567,41.978 -17.567,41.978C-17.003,41.978 -16.539,41.513 -16.539,40.949C-16.539,40.385 -17.003,39.921 -17.567,39.921ZM-17.567,40.263C-17.191,40.263 -16.882,40.573 -16.882,40.949C-16.882,41.325 -17.191,41.635 -17.567,41.635C-17.944,41.635 -18.253,41.325 -18.253,40.949C-18.253,40.573 -17.944,40.263 -17.567,40.263Z" style="fill:rgb(255,204,0);fill-rule:nonzero;"/>
            <path id="path4413" d="M-16.882,40.949C-16.882,41.325 -17.191,41.635 -17.568,41.635C-17.944,41.635 -18.253,41.325 -18.253,40.949C-18.253,40.573 -17.944,40.263 -17.568,40.263C-17.191,40.263 -16.882,40.573 -16.882,40.949Z" style="fill:white;fill-rule:nonzero;"/>
        </g>
        <g id="paper" transform="matrix(1.481124,0,0,1.539039,-94.460976,-59.700725)">
            <rect id="rect4359" x="23" y="36.297" width="19" height="0.3" style="fill:rgb(162,227,251);"/>
            <rect id="path4417" x="23" y="36.597" width="19" height="0.3" style="fill:rgb(211,242,253);"/>
            <rect id="path4419" x="23" y="36.897" width="19" height="0.3" style="fill:rgb(105,211,249);"/>
            <rect id="path4421" x="23" y="37.197" width="19" height="0.3" style="fill:rgb(237,232,254);"/>
            <rect id="path4423" x="23" y="37.497" width="19" height="0.3" style="fill:rgb(160,227,251);"/>
            <rect id="path4425" x="23" y="37.797" width="19" height="0.3" style="fill:rgb(231,248,254);"/>
            <rect id="path4427" x="23" y="38.097" width="19" height="0.3" style="fill:rgb(200,238,253);"/>
            <rect id="path4429" x="23" y="38.397" width="19" height="0.3" style="fill:rgb(160,227,251);"/>
            <rect id="path4431" x="23" y="38.697" width="19" height="0.3" style="fill:rgb(208,203,253);"/>
            <rect id="path4433" x="23" y="38.997" width="19" height="0.3" style="fill:rgb(97,207,248);"/>
            <rect id="path4435" x="23" y="39.297" width="19" height="0.3" style="fill:rgb(174,231,252);"/>
            <rect id="path4437" x="23" y="39.597" width="19" height="0.3" style="fill:rgb(184,234,252);"/>
            <rect id="path4439" x="23" y="39.897" width="19" height="0.3" style="fill:rgb(232,248,254);"/>
            <rect id="path4441" x="23" y="40.197" width="19" height="0.3" style="fill:rgb(160,227,251);"/>
            <rect id="path4443" x="23" y="40.497" width="19" height="0.3" style="fill:rgb(100,209,248);"/>
            <rect id="path4445" x="23" y="40.797" width="19" height="0.3" style="fill:rgb(231,213,253);"/>
            <rect id="path4447" x="23" y="41.097" width="19" height="0.3" style="fill:rgb(160,227,251);"/>
            <rect id="path4449" x="23" y="41.397" width="19" height="0.3" style="fill:rgb(184,234,252);"/>
            <rect id="path4451" x="23" y="41.697" width="19" height="0.274" style="fill:rgb(160,227,251);"/>
        </g>
    </g>
    <g id="swan" transform="matrix(0.111195,0,0,0.111195,480.932817,279.852199)">
        <g id="path6988" transform="matrix(1.585717,0,0,1.585717,-2084.955098,-1388.464334)">
            <path d="M180,230L240,160L150,180L180,230Z" style="fill:rgb(8,153,206);stroke:black;stroke-width:5.1px;"/>
        </g>
        <g id="path6986" transform="matrix(1.585717,0,0,1.585717,-2084.955098,-1388.464334)">
            <path d="M150,180L180,230L140,230L150,180Z" style="fill:rgb(8,153,206);stroke:black;stroke-width:5.1px;"/>
        </g>
        <g id="path6984" transform="matrix(1.585717,0,0,1.585717,-2084.955098,-1388.464334)">
            <path d="M80,230L140,230L150,180L90,190L80,230Z" style="fill:rgb(8,153,206);stroke:black;stroke-width:5.1px;"/>
        </g>
        <g id="path6978" transform="matrix(1.585717,0,0,1.585717,-2084.955098,-1388.464334)">
            <path d="M50,200L80,230L110,100L100,100L50,200Z" style="fill:rgb(8,153,206);stroke:black;stroke-width:5.1px;"/>
        </g>
        <g id="path6980" transform="matrix(1.585717,0,0,1.585717,-2084.955098,-1388.464334)">
            <path d="M100.089,89.899L79.911,91.923L79.911,99.092L110,99.092L100.089,89.899Z" style="fill:rgb(8,153,206);stroke:black;stroke-width:5.1px;"/>
        </g>
        <g id="path6982" transform="matrix(1.585717,0,0,1.585717,-2084.955098,-1388.464334)">
            <path d="M60.871,99.129L79.15,97.221L79.15,99.129L60.871,99.129Z" style="fill:rgb(8,153,206);stroke:black;stroke-width:5.1px;"/>
        </g>
    </g>
    <g id="dove" transform="matrix(0.091405,0,0,0.091405,337.374337,284.841167)">
        <g id="path8199" transform="matrix(1.585717,0,0,1.585717,-3456.295964,-1657.118902)">
            <path d="M170,90L160,76.296L160,90L170,90Z" style="fill:rgb(8,153,206);stroke:black;stroke-width:6.2px;"/>
        </g>
        <g id="path8201" transform="matrix(1.585717,0,0,1.585717,-3456.295964,-1657.118902)">
            <path d="M160,76.296L130,80L120,90L160,130L160,76.296Z" style="fill:rgb(8,153,206);stroke:black;stroke-width:6.2px;"/>
        </g>
        <g id="path8257" transform="matrix(1.585717,0,0,1.585717,-3456.295964,-1657.118902)">
            <path d="M80,50L-15.292,55.821L80,130L80,50Z" style="fill:rgb(8,153,206);stroke:black;stroke-width:6.2px;"/>
        </g>
        <g id="path8255" transform="matrix(1.585717,0,0,1.585717,-3456.295964,-1657.118902)">
            <path d="M80,50L160,130L80,200L80,50Z" style="fill:rgb(8,153,206);stroke:black;stroke-width:6.2px;"/>
        </g>
        <g id="path8259" transform="matrix(1.585717,0,0,1.585717,-3456.295964,-1657.118902)">
            <path d="M78.412,130L60,230L90,200L90,190L78.412,130Z" style="fill:rgb(8,153,206);stroke:black;stroke-width:6.2px;"/>
        </g>
    </g>
    <g id="frog" transform="matrix(0.082164,0.013167,-0.013167,0.082164,402.761161,357.660408)">
        <g id="path10434" transform="matrix(1.585717,0,0,1.585717,-3501.23158,-763.300861)">
            <path d="M143.175,120L183.175,120L153.175,140L143.175,120Z" style="fill:rgb(8,153,206);stroke:black;stroke-width:5.44px;"/>
        </g>
        <g id="path10430" transform="matrix(1.585717,0,0,1.585717,-3501.23158,-763.300861)">
            <path d="M103.175,70L163.175,130L123.175,160L103.175,70Z" style="fill:rgb(8,153,206);stroke:black;stroke-width:5.44px;"/>
        </g>
        <g id="path10446" transform="matrix(1.585717,0,0,1.585717,-3501.23158,-763.300861)">
            <path d="M123.175,240L153.175,210L173.175,240L123.175,240Z" style="fill:rgb(8,153,206);stroke:black;stroke-width:5.44px;"/>
        </g>
        <g id="path10442" transform="matrix(1.585717,0,0,1.585717,-3501.23158,-763.300861)">
            <path d="M173.175,200L123.175,240L113.175,210L143.175,200L173.175,200Z" style="fill:rgb(8,153,206);stroke:black;stroke-width:5.44px;"/>
        </g>
        <g id="path10444" transform="matrix(1.585717,0,0,1.585717,-3501.23158,-763.300861)">
            <path d="M80,240L30,240L50,210L80,240Z" style="fill:rgb(8,153,206);stroke:black;stroke-width:5.44px;"/>
        </g>
        <g id="path10440" transform="matrix(1.585717,0,0,1.585717,-3501.23158,-763.300861)">
            <path d="M30,200L80,240L90,210L60,200L30,200Z" style="fill:rgb(8,153,206);stroke:black;stroke-width:5.44px;"/>
        </g>
        <g id="path10454" transform="matrix(1.585717,0,0,1.585717,-3501.23158,-763.300861)">
            <path d="M60,180L40,180L50,200L60,180Z" style="fill:rgb(8,153,206);stroke:black;stroke-width:5.44px;"/>
        </g>
        <g id="path10438" transform="matrix(1.585717,0,0,1.585717,-3501.23158,-763.300861)">
            <path d="M50,200L40,210L163.175,210L153.175,200L119.436,200L102.626,69.471L100.384,69.471L85.89,200L50,200Z" style="fill:rgb(8,153,206);stroke:black;stroke-width:5.44px;"/>
        </g>
        <g id="path10452" transform="matrix(1.585717,0,0,1.585717,-3501.23158,-763.300861)">
            <path d="M163.175,180L143.175,180L153.175,200L163.175,180Z" style="fill:rgb(8,153,206);stroke:black;stroke-width:5.44px;"/>
        </g>
        <g id="path10450" transform="matrix(1.585717,0,0,1.585717,-3501.23158,-763.300861)">
            <path d="M163.175,180L173.175,200L153.175,200L163.175,180Z" style="fill:rgb(8,153,206);stroke:black;stroke-width:5.44px;"/>
        </g>
        <g id="path10426" transform="matrix(1.585717,0,0,1.585717,-3501.23158,-763.300861)">
            <path d="M103.175,70L153.175,200L103.175,200L103.175,70Z" style="fill:rgb(8,153,206);stroke:black;stroke-width:5.44px;"/>
        </g>
        <g id="path10436" transform="matrix(1.585717,0,0,1.585717,-3501.23158,-763.300861)">
            <path d="M70,120L20,120L50,140L70,120Z" style="fill:rgb(8,153,206);stroke:black;stroke-width:5.44px;"/>
        </g>
        <g id="path10432" transform="matrix(1.585717,0,0,1.585717,-3501.23158,-763.300861)">
            <path d="M100,70L40,130L80,160L100,70Z" style="fill:rgb(8,153,206);stroke:black;stroke-width:5.44px;"/>
        </g>
        <g id="path10448" transform="matrix(1.585717,0,0,1.585717,-3501.23158,-763.300861)">
            <path d="M40,180L30,200L50,200L40,180Z" style="fill:rgb(8,153,206);stroke:black;stroke-width:5.44px;"/>
        </g>
        <g id="path10428" transform="matrix(1.585717,0,0,1.585717,-3501.23158,-763.300861)">
            <path d="M100,70L50,200L100,200L100,70Z" style="fill:rgb(8,153,206);stroke:black;stroke-width:5.44px;"/>
        </g>
    </g>
    <g transform="matrix(4.040166,0,0,4.040166,-96.309855,-76.415612)">
        <path d="M129,26.75L129,32.25C129,33.768 127.768,35 126.25,35L106.75,35C105.232,35 104,33.768 104,32.25L104,26.75C104,25.232 105.232,24 106.75,24L126.25,24C127.768,24 129,25.232 129,26.75Z" style="fill:rgb(253,204,12);"/>
    </g>
    <g transform="matrix(1,0,0,1,-171.852511,-136.230706)">
        <text x="506.448px" y="182.6px" style="font-family:'PTMono-Regular', 'PT Mono', monospace;font-size:18px;">#FFCC00</text>
    </g>
    <g transform="matrix(4.040166,0,0,4.040166,-96.309855,-19.853284)">
        <path d="M129,26.75L129,32.25C129,33.768 127.768,35 126.25,35L106.75,35C105.232,35 104,33.768 104,32.25L104,26.75C104,25.232 105.232,24 106.75,24L126.25,24C127.768,24 129,25.232 129,26.75Z" style="fill:rgb(184,234,250);"/>
    </g>
    <g transform="matrix(1,0,0,1,-171.852511,-79.668378)">
        <text x="506.448px" y="182.6px" style="font-family:'PTMono-Regular', 'PT Mono', monospace;font-size:18px;">#B8EAFC</text>
    </g>
    <g transform="matrix(4.040166,0,0,4.040166,-96.309855,36.709044)">
        <path d="M129,26.75L129,32.25C129,33.768 127.768,35 126.25,35L106.75,35C105.232,35 104,33.768 104,32.25L104,26.75C104,25.232 105.232,24 106.75,24L126.25,24C127.768,24 129,25.232 129,26.75Z" style="fill:rgb(162,227,251);"/>
    </g>
    <g transform="matrix(4.040166,0,0,4.040166,-96.309855,93.271373)">
        <path d="M129,26.75L129,32.25C129,33.768 127.768,35 126.25,35L106.75,35C105.232,35 104,33.768 104,32.25L104,26.75C104,25.232 105.232,24 106.75,24L126.25,24C127.768,24 129,25.232 129,26.75Z" style="fill:rgb(159,227,251);"/>
    </g>
    <g transform="matrix(4.040166,0,0,4.040166,-96.309855,149.833701)">
        <path d="M129,26.75L129,32.25C129,33.768 127.768,35 126.25,35L106.75,35C105.232,35 104,33.768 104,32.25L104,26.75C104,25.232 105.232,24 106.75,24L126.25,24C127.768,24 129,25.232 129,26.75Z" style="fill:rgb(130,218,250);"/>
    </g>
    <g transform="matrix(4.040166,0,0,4.040166,-96.309855,206.39603)">
        <path d="M129,26.75L129,32.25C129,33.768 127.768,35 126.25,35L106.75,35C105.232,35 104,33.768 104,32.25L104,26.75C104,25.232 105.232,24 106.75,24L126.25,24C127.768,24 129,25.232 129,26.75Z" style="fill:rgb(30,153,206);"/>
    </g>
    <g transform="matrix(4.040166,0,0,4.040166,-96.309855,262.958358)">
        <path d="M129,26.75L129,32.25C129,33.768 127.768,35 126.25,35L106.75,35C105.232,35 104,33.768 104,32.25L104,26.75C104,25.232 105.232,24 106.75,24L126.25,24C127.768,24 129,25.232 129,26.75Z" style="fill:rgb(62,107,123);"/>
    </g>
    <g transform="matrix(4.040166,0,0,4.040166,16.814802,-76.415612)">
        <path d="M129,26.75L129,32.25C129,33.768 127.768,35 126.25,35L106.75,35C105.232,35 104,33.768 104,32.25L104,26.75C104,25.232 105.232,24 106.75,24L126.25,24C127.768,24 129,25.232 129,26.75Z" style="fill:rgb(208,203,252);"/>
    </g>
    <g transform="matrix(4.040166,0,0,4.040166,16.814802,-20.430451)">
        <path d="M129,26.75L129,32.25C129,33.768 127.768,35 126.25,35L106.75,35C105.232,35 104,33.768 104,32.25L104,26.75C104,25.232 105.232,24 106.75,24L126.25,24C127.768,24 129,25.232 129,26.75Z" style="fill:rgb(1,0,1);"/>
    </g>
    <g transform="matrix(4.040166,0,0,4.040166,16.814802,35.554711)">
        <path d="M129,26.75L129,32.25C129,33.768 127.768,35 126.25,35L106.75,35C105.232,35 104,33.768 104,32.25L104,26.75C104,25.232 105.232,24 106.75,24L126.25,24C127.768,24 129,25.232 129,26.75Z" style="fill:rgb(122,122,122);"/>
    </g>
    <g transform="matrix(4.040166,0,0,4.040166,16.814802,91.539873)">
        <path d="M129,26.75L129,32.25C129,33.768 127.768,35 126.25,35L106.75,35C105.232,35 104,33.768 104,32.25L104,26.75C104,25.232 105.232,24 106.75,24L126.25,24C127.768,24 129,25.232 129,26.75Z" style="fill:rgb(125,125,125);"/>
    </g>
    <g transform="matrix(4.040166,0,0,4.040166,16.814802,147.525035)">
        <path d="M129,26.75L129,32.25C129,33.768 127.768,35 126.25,35L106.75,35C105.232,35 104,33.768 104,32.25L104,26.75C104,25.232 105.232,24 106.75,24L126.25,24C127.768,24 129,25.232 129,26.75Z" style="fill:rgb(231,248,251);stroke:black;stroke-width:0.25px;stroke-miterlimit:1.5;"/>
    </g>
    <g transform="matrix(4.040166,0,0,4.040166,16.814802,203.510197)">
        <path d="M129,26.75L129,32.25C129,33.768 127.768,35 126.25,35L106.75,35C105.232,35 104,33.768 104,32.25L104,26.75C104,25.232 105.232,24 106.75,24L126.25,24C127.768,24 129,25.232 129,26.75Z" style="fill:rgb(237,232,253);stroke:black;stroke-width:0.25px;stroke-miterlimit:1.5;"/>
    </g>
    <g transform="matrix(4.040166,0,0,4.040166,16.814802,259.495359)">
        <path d="M129,26.75L129,32.25C129,33.768 127.768,35 126.25,35L106.75,35C105.232,35 104,33.768 104,32.25L104,26.75C104,25.232 105.232,24 106.75,24L126.25,24C127.768,24 129,25.232 129,26.75Z" style="fill:rgb(248,249,249);stroke:black;stroke-width:0.25px;stroke-miterlimit:1.5;"/>
    </g>
    <g transform="matrix(4.040166,0,0,4.040166,16.814802,315.48052)">
        <path d="M129,26.75L129,32.25C129,33.768 127.768,35 126.25,35L106.75,35C105.232,35 104,33.768 104,32.25L104,26.75C104,25.232 105.232,24 106.75,24L126.25,24C127.768,24 129,25.232 129,26.75Z" style="fill:rgb(254,255,254);stroke:black;stroke-width:0.25px;stroke-miterlimit:1.5;"/>
    </g>
    <g transform="matrix(1,0,0,1,-58.727854,-136.230706)">
        <text x="506.448px" y="182.6px" style="font-family:'PTMono-Regular', 'PT Mono', monospace;font-size:18px;">#D0CBFD</text>
    </g>
    <g transform="matrix(1,0,0,1,-58.727854,-80.245544)">
        <text x="506.448px" y="182.6px" style="font-family:'PTMono-Regular', 'PT Mono', monospace;font-size:18px;fill:white;">#000000</text>
    </g>
    <g transform="matrix(1,0,0,1,-58.727854,-24.260382)">
        <text x="506.448px" y="182.6px" style="font-family:'PTMono-Regular', 'PT Mono', monospace;font-size:18px;fill:white;">#7A7A7A</text>
    </g>
    <g transform="matrix(1,0,0,1,-58.727854,31.724779)">
        <text x="506.448px" y="182.6px" style="font-family:'PTMono-Regular', 'PT Mono', monospace;font-size:18px;fill:white;">#7D7D7D</text>
    </g>
    <g transform="matrix(1,0,0,1,-58.727854,87.709941)">
        <text x="506.448px" y="182.6px" style="font-family:'PTMono-Regular', 'PT Mono', monospace;font-size:18px;">#E7F8FE</text>
    </g>
    <g transform="matrix(1,0,0,1,-58.727854,143.695103)">
        <text x="506.448px" y="182.6px" style="font-family:'PTMono-Regular', 'PT Mono', monospace;font-size:18px;">#EDE8FE</text>
    </g>
    <g transform="matrix(1,0,0,1,-58.727854,199.680265)">
        <text x="506.448px" y="182.6px" style="font-family:'PTMono-Regular', 'PT Mono', monospace;font-size:18px;">#F9F9F9</text>
    </g>
    <g transform="matrix(1,0,0,1,-58.727854,255.665427)">
        <text x="506.448px" y="182.6px" style="font-family:'PTMono-Regular', 'PT Mono', monospace;font-size:18px;">#FFFFFF</text>
    </g>
    <g transform="matrix(1,0,0,1,-171.852511,-23.106049)">
        <text x="506.448px" y="182.6px" style="font-family:'PTMono-Regular', 'PT Mono', monospace;font-size:18px;">#A2E3FB</text>
    </g>
    <g transform="matrix(1,0,0,1,-171.852511,33.456279)">
        <text x="506.448px" y="182.6px" style="font-family:'PTMono-Regular', 'PT Mono', monospace;font-size:18px;">#A0E3FB</text>
    </g>
    <g transform="matrix(1,0,0,1,-171.852511,90.018608)">
        <text x="506.448px" y="182.6px" style="font-family:'PTMono-Regular', 'PT Mono', monospace;font-size:18px;">#83DAFA</text>
    </g>
    <g transform="matrix(1,0,0,1,-171.852511,146.580936)">
        <text x="506.448px" y="182.6px" style="font-family:'PTMono-Regular', 'PT Mono', monospace;font-size:18px;">#0899CE</text>
    </g>
    <g transform="matrix(1,0,0,1,-171.852511,203.143265)">
        <text x="506.448px" y="182.6px" style="font-family:'PTMono-Regular', 'PT Mono', monospace;font-size:18px;fill:white;">#406B7B</text>
    </g>
</svg>
