<?xml version="1.0" encoding="UTF-8" standalone="no"?>
<svg
   width="65mm"
   height="65mm"
   id="svg2"
   version="1.1"
   inkscape:version="1.1 (c68e22c387, 2021-05-23)"
   sodipodi:docname="3dlab-65mm.svg"
   inkscape:export-filename="C:\3dlab_logo.png"
   inkscape:export-xdpi="1368.9301"
   inkscape:export-ydpi="1368.9301"
   xmlns:inkscape="http://www.inkscape.org/namespaces/inkscape"
   xmlns:sodipodi="http://sodipodi.sourceforge.net/DTD/sodipodi-0.dtd"
   xmlns="http://www.w3.org/2000/svg"
   xmlns:svg="http://www.w3.org/2000/svg"
   xmlns:rdf="http://www.w3.org/1999/02/22-rdf-syntax-ns#"
   xmlns:cc="http://creativecommons.org/ns#"
   xmlns:dc="http://purl.org/dc/elements/1.1/">
  <sodipodi:namedview
     id="base"
     pagecolor="#ffffff"
     bordercolor="#666666"
     borderopacity="1.0"
     inkscape:pageopacity="0.0"
     inkscape:pageshadow="2"
     inkscape:zoom="2.1719355"
     inkscape:cx="125.46413"
     inkscape:cy="138.81628"
     inkscape:document-units="mm"
     inkscape:current-layer="layer1"
     showgrid="false"
     inkscape:window-width="1920"
     inkscape:window-height="1137"
     inkscape:window-x="1912"
     inkscape:window-y="-8"
     inkscape:window-maximized="1"
     showguides="true"
     inkscape:guide-bbox="true"
     units="mm"
     inkscape:document-rotation="0"
     inkscape:pagecheckerboard="0">
    <inkscape:grid
       type="xygrid"
       id="grid2985"
       empspacing="5"
       visible="true"
       enabled="true"
       snapvisiblegridlinesonly="true" />
  </sodipodi:namedview>
  <defs
     id="defs4">
    <marker
       inkscape:stockid="DotS"
       orient="auto"
       refY="0"
       refX="0"
       id="DotS"
       style="overflow:visible">
      <path
         id="path3828"
         d="m -2.5,-1 c 0,2.76 -2.24,5 -5,5 -2.76,0 -5,-2.24 -5,-5 0,-2.76 2.24,-5 5,-5 2.76,0 5,2.24 5,5 z"
         style="fill-rule:evenodd;stroke:#000000;stroke-width:1pt"
         transform="matrix(0.2,0,0,0.2,1.48,0.2)"
         inkscape:connector-curvature="0" />
    </marker>
    <marker
       inkscape:stockid="DotS"
       orient="auto"
       refY="0"
       refX="0"
       id="DotS-1"
       style="overflow:visible">
      <path
         inkscape:connector-curvature="0"
         id="path3828-5"
         d="m -2.5,-1 c 0,2.76 -2.24,5 -5,5 -2.76,0 -5,-2.24 -5,-5 0,-2.76 2.24,-5 5,-5 2.76,0 5,2.24 5,5 z"
         style="fill-rule:evenodd;stroke:#000000;stroke-width:1pt"
         transform="matrix(0.2,0,0,0.2,1.48,0.2)" />
    </marker>
    <marker
       inkscape:stockid="DotS"
       orient="auto"
       refY="0"
       refX="0"
       id="marker4395"
       style="overflow:visible">
      <path
         inkscape:connector-curvature="0"
         id="path4397"
         d="m -2.5,-1 c 0,2.76 -2.24,5 -5,5 -2.76,0 -5,-2.24 -5,-5 0,-2.76 2.24,-5 5,-5 2.76,0 5,2.24 5,5 z"
         style="fill-rule:evenodd;stroke:#000000;stroke-width:1pt"
         transform="matrix(0.2,0,0,0.2,1.48,0.2)" />
    </marker>
    <marker
       inkscape:stockid="DotS"
       orient="auto"
       refY="0"
       refX="0"
       id="DotS-3"
       style="overflow:visible">
      <path
         inkscape:connector-curvature="0"
         id="path3828-0"
         d="m -2.5,-1 c 0,2.76 -2.24,5 -5,5 -2.76,0 -5,-2.24 -5,-5 0,-2.76 2.24,-5 5,-5 2.76,0 5,2.24 5,5 z"
         style="fill-rule:evenodd;stroke:#000000;stroke-width:1pt"
         transform="matrix(0.2,0,0,0.2,1.48,0.2)" />
    </marker>
    <marker
       inkscape:stockid="DotS"
       orient="auto"
       refY="0"
       refX="0"
       id="marker4427"
       style="overflow:visible">
      <path
         inkscape:connector-curvature="0"
         id="path4429"
         d="m -2.5,-1 c 0,2.76 -2.24,5 -5,5 -2.76,0 -5,-2.24 -5,-5 0,-2.76 2.24,-5 5,-5 2.76,0 5,2.24 5,5 z"
         style="fill-rule:evenodd;stroke:#000000;stroke-width:1pt"
         transform="matrix(0.2,0,0,0.2,1.48,0.2)" />
    </marker>
    <marker
       inkscape:stockid="DotS"
       orient="auto"
       refY="0"
       refX="0"
       id="DotS-2"
       style="overflow:visible">
      <path
         inkscape:connector-curvature="0"
         id="path3828-1"
         d="m -2.5,-1 c 0,2.76 -2.24,5 -5,5 -2.76,0 -5,-2.24 -5,-5 0,-2.76 2.24,-5 5,-5 2.76,0 5,2.24 5,5 z"
         style="fill-rule:evenodd;stroke:#000000;stroke-width:1pt"
         transform="matrix(0.2,0,0,0.2,1.48,0.2)" />
    </marker>
    <marker
       inkscape:stockid="DotS"
       orient="auto"
       refY="0"
       refX="0"
       id="marker4427-3"
       style="overflow:visible">
      <path
         inkscape:connector-curvature="0"
         id="path4429-9"
         d="m -2.5,-1 c 0,2.76 -2.24,5 -5,5 -2.76,0 -5,-2.24 -5,-5 0,-2.76 2.24,-5 5,-5 2.76,0 5,2.24 5,5 z"
         style="fill-rule:evenodd;stroke:#000000;stroke-width:1pt"
         transform="matrix(0.2,0,0,0.2,1.48,0.2)" />
    </marker>
    <marker
       inkscape:stockid="DotS"
       orient="auto"
       refY="0"
       refX="0"
       id="DotS-21"
       style="overflow:visible">
      <path
         inkscape:connector-curvature="0"
         id="path3828-6"
         d="m -2.5,-1 c 0,2.76 -2.24,5 -5,5 -2.76,0 -5,-2.24 -5,-5 0,-2.76 2.24,-5 5,-5 2.76,0 5,2.24 5,5 z"
         style="fill-rule:evenodd;stroke:#000000;stroke-width:1pt"
         transform="matrix(0.2,0,0,0.2,1.48,0.2)" />
    </marker>
    <marker
       inkscape:stockid="DotS"
       orient="auto"
       refY="0"
       refX="0"
       id="marker4474"
       style="overflow:visible">
      <path
         inkscape:connector-curvature="0"
         id="path4476"
         d="m -2.5,-1 c 0,2.76 -2.24,5 -5,5 -2.76,0 -5,-2.24 -5,-5 0,-2.76 2.24,-5 5,-5 2.76,0 5,2.24 5,5 z"
         style="fill-rule:evenodd;stroke:#000000;stroke-width:1pt"
         transform="matrix(0.2,0,0,0.2,1.48,0.2)" />
    </marker>
    <marker
       inkscape:stockid="DotS"
       orient="auto"
       refY="0"
       refX="0"
       id="DotS-36"
       style="overflow:visible">
      <path
         inkscape:connector-curvature="0"
         id="path3828-8"
         d="m -2.5,-1 c 0,2.76 -2.24,5 -5,5 -2.76,0 -5,-2.24 -5,-5 0,-2.76 2.24,-5 5,-5 2.76,0 5,2.24 5,5 z"
         style="fill-rule:evenodd;stroke:#000000;stroke-width:1pt"
         transform="matrix(0.2,0,0,0.2,1.48,0.2)" />
    </marker>
    <marker
       inkscape:stockid="DotS"
       orient="auto"
       refY="0"
       refX="0"
       id="marker4516"
       style="overflow:visible">
      <path
         inkscape:connector-curvature="0"
         id="path4518"
         d="m -2.5,-1 c 0,2.76 -2.24,5 -5,5 -2.76,0 -5,-2.24 -5,-5 0,-2.76 2.24,-5 5,-5 2.76,0 5,2.24 5,5 z"
         style="fill-rule:evenodd;stroke:#000000;stroke-width:1pt"
         transform="matrix(0.2,0,0,0.2,1.48,0.2)" />
    </marker>
    <marker
       inkscape:stockid="DotS"
       orient="auto"
       refY="0"
       refX="0"
       id="DotS-11"
       style="overflow:visible">
      <path
         inkscape:connector-curvature="0"
         id="path3828-58"
         d="m -2.5,-1 c 0,2.76 -2.24,5 -5,5 -2.76,0 -5,-2.24 -5,-5 0,-2.76 2.24,-5 5,-5 2.76,0 5,2.24 5,5 z"
         style="fill-rule:evenodd;stroke:#000000;stroke-width:1pt"
         transform="matrix(0.2,0,0,0.2,1.48,0.2)" />
    </marker>
    <marker
       inkscape:stockid="DotS"
       orient="auto"
       refY="0"
       refX="0"
       id="marker4954"
       style="overflow:visible">
      <path
         inkscape:connector-curvature="0"
         id="path4956"
         d="m -2.5,-1 c 0,2.76 -2.24,5 -5,5 -2.76,0 -5,-2.24 -5,-5 0,-2.76 2.24,-5 5,-5 2.76,0 5,2.24 5,5 z"
         style="fill-rule:evenodd;stroke:#000000;stroke-width:1pt"
         transform="matrix(0.2,0,0,0.2,1.48,0.2)" />
    </marker>
    <marker
       inkscape:stockid="DotS"
       orient="auto"
       refY="0"
       refX="0"
       id="DotS-7"
       style="overflow:visible">
      <path
         inkscape:connector-curvature="0"
         id="path3828-3"
         d="m -2.5,-1 c 0,2.76 -2.24,5 -5,5 -2.76,0 -5,-2.24 -5,-5 0,-2.76 2.24,-5 5,-5 2.76,0 5,2.24 5,5 z"
         style="fill-rule:evenodd;stroke:#000000;stroke-width:1pt"
         transform="matrix(0.2,0,0,0.2,1.48,0.2)" />
    </marker>
    <marker
       inkscape:stockid="DotS"
       orient="auto"
       refY="0"
       refX="0"
       id="marker5024"
       style="overflow:visible">
      <path
         inkscape:connector-curvature="0"
         id="path5026"
         d="m -2.5,-1 c 0,2.76 -2.24,5 -5,5 -2.76,0 -5,-2.24 -5,-5 0,-2.76 2.24,-5 5,-5 2.76,0 5,2.24 5,5 z"
         style="fill-rule:evenodd;stroke:#000000;stroke-width:1pt"
         transform="matrix(0.2,0,0,0.2,1.48,0.2)" />
    </marker>
    <marker
       inkscape:stockid="DotS"
       orient="auto"
       refY="0"
       refX="0"
       id="DotS-34"
       style="overflow:visible">
      <path
         inkscape:connector-curvature="0"
         id="path3828-16"
         d="m -2.5,-1 c 0,2.76 -2.24,5 -5,5 -2.76,0 -5,-2.24 -5,-5 0,-2.76 2.24,-5 5,-5 2.76,0 5,2.24 5,5 z"
         style="fill-rule:evenodd;stroke:#000000;stroke-width:1pt"
         transform="matrix(0.2,0,0,0.2,1.48,0.2)" />
    </marker>
    <marker
       inkscape:stockid="DotS"
       orient="auto"
       refY="0"
       refX="0"
       id="marker5056"
       style="overflow:visible">
      <path
         inkscape:connector-curvature="0"
         id="path5058"
         d="m -2.5,-1 c 0,2.76 -2.24,5 -5,5 -2.76,0 -5,-2.24 -5,-5 0,-2.76 2.24,-5 5,-5 2.76,0 5,2.24 5,5 z"
         style="fill-rule:evenodd;stroke:#000000;stroke-width:1pt"
         transform="matrix(0.2,0,0,0.2,1.48,0.2)" />
    </marker>
    <marker
       inkscape:stockid="DotS"
       orient="auto"
       refY="0"
       refX="0"
       id="marker4516-8"
       style="overflow:visible">
      <path
         inkscape:connector-curvature="0"
         id="path4518-5"
         d="m -2.5,-1 c 0,2.76 -2.24,5 -5,5 -2.76,0 -5,-2.24 -5,-5 0,-2.76 2.24,-5 5,-5 2.76,0 5,2.24 5,5 z"
         style="fill-rule:evenodd;stroke:#000000;stroke-width:1pt"
         transform="matrix(0.2,0,0,0.2,1.48,0.2)" />
    </marker>
    <marker
       inkscape:stockid="DotS"
       orient="auto"
       refY="0"
       refX="0"
       id="marker5088"
       style="overflow:visible">
      <path
         inkscape:connector-curvature="0"
         id="path5090"
         d="m -2.5,-1 c 0,2.76 -2.24,5 -5,5 -2.76,0 -5,-2.24 -5,-5 0,-2.76 2.24,-5 5,-5 2.76,0 5,2.24 5,5 z"
         style="fill-rule:evenodd;stroke:#000000;stroke-width:1pt"
         transform="matrix(0.2,0,0,0.2,1.48,0.2)" />
    </marker>
    <marker
       inkscape:stockid="DotS"
       orient="auto"
       refY="0"
       refX="0"
       id="marker4516-9"
       style="overflow:visible">
      <path
         inkscape:connector-curvature="0"
         id="path4518-55"
         d="m -2.5,-1 c 0,2.76 -2.24,5 -5,5 -2.76,0 -5,-2.24 -5,-5 0,-2.76 2.24,-5 5,-5 2.76,0 5,2.24 5,5 z"
         style="fill-rule:evenodd;stroke:#000000;stroke-width:1pt"
         transform="matrix(0.2,0,0,0.2,1.48,0.2)" />
    </marker>
    <marker
       inkscape:stockid="DotS"
       orient="auto"
       refY="0"
       refX="0"
       id="marker5137"
       style="overflow:visible">
      <path
         inkscape:connector-curvature="0"
         id="path5139"
         d="m -2.5,-1 c 0,2.76 -2.24,5 -5,5 -2.76,0 -5,-2.24 -5,-5 0,-2.76 2.24,-5 5,-5 2.76,0 5,2.24 5,5 z"
         style="fill-rule:evenodd;stroke:#000000;stroke-width:1pt"
         transform="matrix(0.2,0,0,0.2,1.48,0.2)" />
    </marker>
    <marker
       inkscape:stockid="DotS"
       orient="auto"
       refY="0"
       refX="0"
       id="DotS-0"
       style="overflow:visible">
      <path
         inkscape:connector-curvature="0"
         id="path3828-4"
         d="m -2.5,-1 c 0,2.76 -2.24,5 -5,5 -2.76,0 -5,-2.24 -5,-5 0,-2.76 2.24,-5 5,-5 2.76,0 5,2.24 5,5 z"
         style="fill-rule:evenodd;stroke:#000000;stroke-width:1pt"
         transform="matrix(0.2,0,0,0.2,1.48,0.2)" />
    </marker>
    <marker
       inkscape:stockid="DotS"
       orient="auto"
       refY="0"
       refX="0"
       id="marker5169"
       style="overflow:visible">
      <path
         inkscape:connector-curvature="0"
         id="path5171"
         d="m -2.5,-1 c 0,2.76 -2.24,5 -5,5 -2.76,0 -5,-2.24 -5,-5 0,-2.76 2.24,-5 5,-5 2.76,0 5,2.24 5,5 z"
         style="fill-rule:evenodd;stroke:#000000;stroke-width:1pt"
         transform="matrix(0.2,0,0,0.2,1.48,0.2)" />
    </marker>
    <marker
       inkscape:stockid="DotS"
       orient="auto"
       refY="0"
       refX="0"
       id="DotS-8"
       style="overflow:visible">
      <path
         inkscape:connector-curvature="0"
         id="path3828-66"
         d="m -2.5,-1 c 0,2.76 -2.24,5 -5,5 -2.76,0 -5,-2.24 -5,-5 0,-2.76 2.24,-5 5,-5 2.76,0 5,2.24 5,5 z"
         style="fill-rule:evenodd;stroke:#000000;stroke-width:1pt"
         transform="matrix(0.2,0,0,0.2,1.48,0.2)" />
    </marker>
    <marker
       inkscape:stockid="DotS"
       orient="auto"
       refY="0"
       refX="0"
       id="marker5218"
       style="overflow:visible">
      <path
         inkscape:connector-curvature="0"
         id="path5220"
         d="m -2.5,-1 c 0,2.76 -2.24,5 -5,5 -2.76,0 -5,-2.24 -5,-5 0,-2.76 2.24,-5 5,-5 2.76,0 5,2.24 5,5 z"
         style="fill-rule:evenodd;stroke:#000000;stroke-width:1pt"
         transform="matrix(0.2,0,0,0.2,1.48,0.2)" />
    </marker>
    <marker
       inkscape:stockid="DotSv"
       orient="auto"
       refY="0"
       refX="0"
       id="DotSv"
       style="overflow:visible">
      <path
         id="path5753"
         d="m -2.5,-1 c 0,2.76 -2.24,5 -5,5 -2.76,0 -5,-2.24 -5,-5 0,-2.76 2.24,-5 5,-5 2.76,0 5,2.24 5,5 z"
         style="fill:#858585;fill-rule:evenodd;stroke:#858585;stroke-width:1pt"
         transform="matrix(0.2,0,0,0.2,1.48,0.2)"
         inkscape:connector-curvature="0" />
    </marker>
    <marker
       inkscape:stockid="DotSs"
       orient="auto"
       refY="0"
       refX="0"
       id="DotSs"
       style="overflow:visible">
      <path
         id="path5756"
         d="m -2.5,-1 c 0,2.76 -2.24,5 -5,5 -2.76,0 -5,-2.24 -5,-5 0,-2.76 2.24,-5 5,-5 2.76,0 5,2.24 5,5 z"
         style="fill:#858585;fill-rule:evenodd;stroke:#858585;stroke-width:1pt"
         transform="matrix(0.2,0,0,0.2,1.48,0.2)"
         inkscape:connector-curvature="0" />
    </marker>
    <marker
       inkscape:stockid="DotSk"
       orient="auto"
       refY="0"
       refX="0"
       id="DotSk"
       style="overflow:visible">
      <path
         id="path5759"
         d="m -2.5,-1 c 0,2.76 -2.24,5 -5,5 -2.76,0 -5,-2.24 -5,-5 0,-2.76 2.24,-5 5,-5 2.76,0 5,2.24 5,5 z"
         style="fill:#858585;fill-rule:evenodd;stroke:#858585;stroke-width:1pt"
         transform="matrix(0.2,0,0,0.2,1.48,0.2)"
         inkscape:connector-curvature="0" />
    </marker>
    <marker
       inkscape:stockid="DotSK"
       orient="auto"
       refY="0"
       refX="0"
       id="DotSK"
       style="overflow:visible">
      <path
         id="path5762"
         d="m -2.5,-1 c 0,2.76 -2.24,5 -5,5 -2.76,0 -5,-2.24 -5,-5 0,-2.76 2.24,-5 5,-5 2.76,0 5,2.24 5,5 z"
         style="fill:#858585;fill-rule:evenodd;stroke:#858585;stroke-width:1pt"
         transform="matrix(0.2,0,0,0.2,1.48,0.2)"
         inkscape:connector-curvature="0" />
    </marker>
    <marker
       inkscape:stockid="DotSQ"
       orient="auto"
       refY="0"
       refX="0"
       id="DotSQ"
       style="overflow:visible">
      <path
         id="path5765"
         d="m -2.5,-1 c 0,2.76 -2.24,5 -5,5 -2.76,0 -5,-2.24 -5,-5 0,-2.76 2.24,-5 5,-5 2.76,0 5,2.24 5,5 z"
         style="fill:#858585;fill-rule:evenodd;stroke:#858585;stroke-width:1pt"
         transform="matrix(0.2,0,0,0.2,1.48,0.2)"
         inkscape:connector-curvature="0" />
    </marker>
    <marker
       inkscape:stockid="DotSg"
       orient="auto"
       refY="0"
       refX="0"
       id="DotSg"
       style="overflow:visible">
      <path
         id="path5768"
         d="m -2.5,-1 c 0,2.76 -2.24,5 -5,5 -2.76,0 -5,-2.24 -5,-5 0,-2.76 2.24,-5 5,-5 2.76,0 5,2.24 5,5 z"
         style="fill:#858585;fill-rule:evenodd;stroke:#858585;stroke-width:1pt"
         transform="matrix(0.2,0,0,0.2,1.48,0.2)"
         inkscape:connector-curvature="0" />
    </marker>
    <marker
       inkscape:stockid="marker4516J"
       orient="auto"
       refY="0"
       refX="0"
       id="marker4516J"
       style="overflow:visible">
      <path
         inkscape:connector-curvature="0"
         id="path5771"
         d="m -2.5,-1 c 0,2.76 -2.24,5 -5,5 -2.76,0 -5,-2.24 -5,-5 0,-2.76 2.24,-5 5,-5 2.76,0 5,2.24 5,5 z"
         style="fill:#858585;fill-rule:evenodd;stroke:#858585;stroke-width:1pt"
         transform="matrix(0.2,0,0,0.2,1.48,0.2)" />
    </marker>
    <marker
       inkscape:stockid="marker4516P"
       orient="auto"
       refY="0"
       refX="0"
       id="marker4516P"
       style="overflow:visible">
      <path
         inkscape:connector-curvature="0"
         id="path5774"
         d="m -2.5,-1 c 0,2.76 -2.24,5 -5,5 -2.76,0 -5,-2.24 -5,-5 0,-2.76 2.24,-5 5,-5 2.76,0 5,2.24 5,5 z"
         style="fill:#858585;fill-rule:evenodd;stroke:#858585;stroke-width:1pt"
         transform="matrix(0.2,0,0,0.2,1.48,0.2)" />
    </marker>
    <marker
       inkscape:stockid="DotSC"
       orient="auto"
       refY="0"
       refX="0"
       id="DotSC"
       style="overflow:visible">
      <path
         id="path5777"
         d="m -2.5,-1 c 0,2.76 -2.24,5 -5,5 -2.76,0 -5,-2.24 -5,-5 0,-2.76 2.24,-5 5,-5 2.76,0 5,2.24 5,5 z"
         style="fill:#858585;fill-rule:evenodd;stroke:#858585;stroke-width:1pt"
         transform="matrix(0.2,0,0,0.2,1.48,0.2)"
         inkscape:connector-curvature="0" />
    </marker>
    <marker
       inkscape:stockid="DotSL"
       orient="auto"
       refY="0"
       refX="0"
       id="DotSL"
       style="overflow:visible">
      <path
         id="path5780"
         d="m -2.5,-1 c 0,2.76 -2.24,5 -5,5 -2.76,0 -5,-2.24 -5,-5 0,-2.76 2.24,-5 5,-5 2.76,0 5,2.24 5,5 z"
         style="fill:#858585;fill-rule:evenodd;stroke:#858585;stroke-width:1pt"
         transform="matrix(0.2,0,0,0.2,1.48,0.2)"
         inkscape:connector-curvature="0" />
    </marker>
    <marker
       inkscape:stockid="DotSf"
       orient="auto"
       refY="0"
       refX="0"
       id="DotSf"
       style="overflow:visible">
      <path
         id="path5783"
         d="m -2.5,-1 c 0,2.76 -2.24,5 -5,5 -2.76,0 -5,-2.24 -5,-5 0,-2.76 2.24,-5 5,-5 2.76,0 5,2.24 5,5 z"
         style="fill:#858585;fill-rule:evenodd;stroke:#858585;stroke-width:1pt"
         transform="matrix(0.2,0,0,0.2,1.48,0.2)"
         inkscape:connector-curvature="0" />
    </marker>
    <marker
       inkscape:stockid="DotS7"
       orient="auto"
       refY="0"
       refX="0"
       id="DotS7"
       style="overflow:visible">
      <path
         id="path5786"
         d="m -2.5,-1 c 0,2.76 -2.24,5 -5,5 -2.76,0 -5,-2.24 -5,-5 0,-2.76 2.24,-5 5,-5 2.76,0 5,2.24 5,5 z"
         style="fill:#858585;fill-rule:evenodd;stroke:#858585;stroke-width:1pt"
         transform="matrix(0.2,0,0,0.2,1.48,0.2)"
         inkscape:connector-curvature="0" />
    </marker>
    <marker
       inkscape:stockid="DotSS"
       orient="auto"
       refY="0"
       refX="0"
       id="DotSS"
       style="overflow:visible">
      <path
         id="path5789"
         d="m -2.5,-1 c 0,2.76 -2.24,5 -5,5 -2.76,0 -5,-2.24 -5,-5 0,-2.76 2.24,-5 5,-5 2.76,0 5,2.24 5,5 z"
         style="fill:#858585;fill-rule:evenodd;stroke:#858585;stroke-width:1pt"
         transform="matrix(0.2,0,0,0.2,1.48,0.2)"
         inkscape:connector-curvature="0" />
    </marker>
    <marker
       inkscape:stockid="DotSy"
       orient="auto"
       refY="0"
       refX="0"
       id="DotSy"
       style="overflow:visible">
      <path
         id="path5792"
         d="m -2.5,-1 c 0,2.76 -2.24,5 -5,5 -2.76,0 -5,-2.24 -5,-5 0,-2.76 2.24,-5 5,-5 2.76,0 5,2.24 5,5 z"
         style="fill:#858585;fill-rule:evenodd;stroke:#858585;stroke-width:1pt"
         transform="matrix(0.2,0,0,0.2,1.48,0.2)"
         inkscape:connector-curvature="0" />
    </marker>
    <marker
       inkscape:stockid="marker4516C"
       orient="auto"
       refY="0"
       refX="0"
       id="marker4516C"
       style="overflow:visible">
      <path
         inkscape:connector-curvature="0"
         id="path5795"
         d="m -2.5,-1 c 0,2.76 -2.24,5 -5,5 -2.76,0 -5,-2.24 -5,-5 0,-2.76 2.24,-5 5,-5 2.76,0 5,2.24 5,5 z"
         style="fill:#858585;fill-rule:evenodd;stroke:#858585;stroke-width:1pt"
         transform="matrix(0.2,0,0,0.2,1.48,0.2)" />
    </marker>
    <marker
       inkscape:stockid="marker45162"
       orient="auto"
       refY="0"
       refX="0"
       id="marker45162"
       style="overflow:visible">
      <path
         inkscape:connector-curvature="0"
         id="path5798"
         d="m -2.5,-1 c 0,2.76 -2.24,5 -5,5 -2.76,0 -5,-2.24 -5,-5 0,-2.76 2.24,-5 5,-5 2.76,0 5,2.24 5,5 z"
         style="fill:#858585;fill-rule:evenodd;stroke:#858585;stroke-width:1pt"
         transform="matrix(0.2,0,0,0.2,1.48,0.2)" />
    </marker>
    <marker
       inkscape:stockid="DotSG"
       orient="auto"
       refY="0"
       refX="0"
       id="DotSG"
       style="overflow:visible">
      <path
         id="path5801"
         d="m -2.5,-1 c 0,2.76 -2.24,5 -5,5 -2.76,0 -5,-2.24 -5,-5 0,-2.76 2.24,-5 5,-5 2.76,0 5,2.24 5,5 z"
         style="fill:#858585;fill-rule:evenodd;stroke:#858585;stroke-width:1pt"
         transform="matrix(0.2,0,0,0.2,1.48,0.2)"
         inkscape:connector-curvature="0" />
    </marker>
    <marker
       inkscape:stockid="DotS5"
       orient="auto"
       refY="0"
       refX="0"
       id="DotS5"
       style="overflow:visible">
      <path
         id="path5804"
         d="m -2.5,-1 c 0,2.76 -2.24,5 -5,5 -2.76,0 -5,-2.24 -5,-5 0,-2.76 2.24,-5 5,-5 2.76,0 5,2.24 5,5 z"
         style="fill:#858585;fill-rule:evenodd;stroke:#858585;stroke-width:1pt"
         transform="matrix(0.2,0,0,0.2,1.48,0.2)"
         inkscape:connector-curvature="0" />
    </marker>
    <marker
       inkscape:stockid="DotSsA"
       orient="auto"
       refY="0"
       refX="0"
       id="DotSsA"
       style="overflow:visible">
      <path
         id="path5807"
         d="m -2.5,-1 c 0,2.76 -2.24,5 -5,5 -2.76,0 -5,-2.24 -5,-5 0,-2.76 2.24,-5 5,-5 2.76,0 5,2.24 5,5 z"
         style="fill:#858585;fill-rule:evenodd;stroke:#858585;stroke-width:1pt"
         transform="matrix(0.2,0,0,0.2,1.48,0.2)"
         inkscape:connector-curvature="0" />
    </marker>
    <marker
       inkscape:stockid="DotSLd"
       orient="auto"
       refY="0"
       refX="0"
       id="DotSLd"
       style="overflow:visible">
      <path
         id="path5810"
         d="m -2.5,-1 c 0,2.76 -2.24,5 -5,5 -2.76,0 -5,-2.24 -5,-5 0,-2.76 2.24,-5 5,-5 2.76,0 5,2.24 5,5 z"
         style="fill:#858585;fill-rule:evenodd;stroke:#858585;stroke-width:1pt"
         transform="matrix(0.2,0,0,0.2,1.48,0.2)"
         inkscape:connector-curvature="0" />
    </marker>
    <marker
       inkscape:stockid="DotSd"
       orient="auto"
       refY="0"
       refX="0"
       id="DotSd"
       style="overflow:visible">
      <path
         id="path5813"
         d="m -2.5,-1 c 0,2.76 -2.24,5 -5,5 -2.76,0 -5,-2.24 -5,-5 0,-2.76 2.24,-5 5,-5 2.76,0 5,2.24 5,5 z"
         style="fill:#858585;fill-rule:evenodd;stroke:#858585;stroke-width:1pt"
         transform="matrix(0.2,0,0,0.2,1.48,0.2)"
         inkscape:connector-curvature="0" />
    </marker>
    <marker
       inkscape:stockid="DotSyI"
       orient="auto"
       refY="0"
       refX="0"
       id="DotSyI"
       style="overflow:visible">
      <path
         id="path5816"
         d="m -2.5,-1 c 0,2.76 -2.24,5 -5,5 -2.76,0 -5,-2.24 -5,-5 0,-2.76 2.24,-5 5,-5 2.76,0 5,2.24 5,5 z"
         style="fill:#858585;fill-rule:evenodd;stroke:#858585;stroke-width:1pt"
         transform="matrix(0.2,0,0,0.2,1.48,0.2)"
         inkscape:connector-curvature="0" />
    </marker>
    <marker
       inkscape:stockid="marker4516y"
       orient="auto"
       refY="0"
       refX="0"
       id="marker4516y"
       style="overflow:visible">
      <path
         inkscape:connector-curvature="0"
         id="path5819"
         d="m -2.5,-1 c 0,2.76 -2.24,5 -5,5 -2.76,0 -5,-2.24 -5,-5 0,-2.76 2.24,-5 5,-5 2.76,0 5,2.24 5,5 z"
         style="fill:#858585;fill-rule:evenodd;stroke:#858585;stroke-width:1pt"
         transform="matrix(0.2,0,0,0.2,1.48,0.2)" />
    </marker>
    <marker
       inkscape:stockid="marker4516I"
       orient="auto"
       refY="0"
       refX="0"
       id="marker4516I"
       style="overflow:visible">
      <path
         inkscape:connector-curvature="0"
         id="path5822"
         d="m -2.5,-1 c 0,2.76 -2.24,5 -5,5 -2.76,0 -5,-2.24 -5,-5 0,-2.76 2.24,-5 5,-5 2.76,0 5,2.24 5,5 z"
         style="fill:#858585;fill-rule:evenodd;stroke:#858585;stroke-width:1pt"
         transform="matrix(0.2,0,0,0.2,1.48,0.2)" />
    </marker>
    <marker
       inkscape:stockid="marker5218b"
       orient="auto"
       refY="0"
       refX="0"
       id="marker5218b"
       style="overflow:visible">
      <path
         inkscape:connector-curvature="0"
         id="path5825"
         d="m -2.5,-1 c 0,2.76 -2.24,5 -5,5 -2.76,0 -5,-2.24 -5,-5 0,-2.76 2.24,-5 5,-5 2.76,0 5,2.24 5,5 z"
         style="fill:#858585;fill-rule:evenodd;stroke:#858585;stroke-width:1pt"
         transform="matrix(0.2,0,0,0.2,1.48,0.2)" />
    </marker>
    <marker
       inkscape:stockid="marker5218X"
       orient="auto"
       refY="0"
       refX="0"
       id="marker5218X"
       style="overflow:visible">
      <path
         inkscape:connector-curvature="0"
         id="path5828"
         d="m -2.5,-1 c 0,2.76 -2.24,5 -5,5 -2.76,0 -5,-2.24 -5,-5 0,-2.76 2.24,-5 5,-5 2.76,0 5,2.24 5,5 z"
         style="fill:#858585;fill-rule:evenodd;stroke:#858585;stroke-width:1pt"
         transform="matrix(0.2,0,0,0.2,1.48,0.2)" />
    </marker>
    <marker
       inkscape:stockid="DotSQL"
       orient="auto"
       refY="0"
       refX="0"
       id="DotSQL"
       style="overflow:visible">
      <path
         id="path6109"
         d="m -2.5,-1 c 0,2.76 -2.24,5 -5,5 -2.76,0 -5,-2.24 -5,-5 0,-2.76 2.24,-5 5,-5 2.76,0 5,2.24 5,5 z"
         style="fill:#ffc400;fill-rule:evenodd;stroke:#ffc400;stroke-width:1pt"
         transform="matrix(0.2,0,0,0.2,1.48,0.2)"
         inkscape:connector-curvature="0" />
    </marker>
    <marker
       inkscape:stockid="DotSgb"
       orient="auto"
       refY="0"
       refX="0"
       id="DotSgb"
       style="overflow:visible">
      <path
         id="path6112"
         d="m -2.5,-1 c 0,2.76 -2.24,5 -5,5 -2.76,0 -5,-2.24 -5,-5 0,-2.76 2.24,-5 5,-5 2.76,0 5,2.24 5,5 z"
         style="fill:#ffc400;fill-rule:evenodd;stroke:#ffc400;stroke-width:1pt"
         transform="matrix(0.2,0,0,0.2,1.48,0.2)"
         inkscape:connector-curvature="0" />
    </marker>
    <marker
       inkscape:stockid="marker4516J6"
       orient="auto"
       refY="0"
       refX="0"
       id="marker4516J6"
       style="overflow:visible">
      <path
         inkscape:connector-curvature="0"
         id="path6115"
         d="m -2.5,-1 c 0,2.76 -2.24,5 -5,5 -2.76,0 -5,-2.24 -5,-5 0,-2.76 2.24,-5 5,-5 2.76,0 5,2.24 5,5 z"
         style="fill:#ffc400;fill-rule:evenodd;stroke:#ffc400;stroke-width:1pt"
         transform="matrix(0.2,0,0,0.2,1.48,0.2)" />
    </marker>
    <marker
       inkscape:stockid="marker4516Pl"
       orient="auto"
       refY="0"
       refX="0"
       id="marker4516Pl"
       style="overflow:visible">
      <path
         inkscape:connector-curvature="0"
         id="path6118"
         d="m -2.5,-1 c 0,2.76 -2.24,5 -5,5 -2.76,0 -5,-2.24 -5,-5 0,-2.76 2.24,-5 5,-5 2.76,0 5,2.24 5,5 z"
         style="fill:#ffc400;fill-rule:evenodd;stroke:#ffc400;stroke-width:1pt"
         transform="matrix(0.2,0,0,0.2,1.48,0.2)" />
    </marker>
    <marker
       inkscape:stockid="DotSSB"
       orient="auto"
       refY="0"
       refX="0"
       id="DotSSB"
       style="overflow:visible">
      <path
         id="path6121"
         d="m -2.5,-1 c 0,2.76 -2.24,5 -5,5 -2.76,0 -5,-2.24 -5,-5 0,-2.76 2.24,-5 5,-5 2.76,0 5,2.24 5,5 z"
         style="fill:#ffc400;fill-rule:evenodd;stroke:#ffc400;stroke-width:1pt"
         transform="matrix(0.2,0,0,0.2,1.48,0.2)"
         inkscape:connector-curvature="0" />
    </marker>
    <marker
       inkscape:stockid="DotSyD"
       orient="auto"
       refY="0"
       refX="0"
       id="DotSyD"
       style="overflow:visible">
      <path
         id="path6124"
         d="m -2.5,-1 c 0,2.76 -2.24,5 -5,5 -2.76,0 -5,-2.24 -5,-5 0,-2.76 2.24,-5 5,-5 2.76,0 5,2.24 5,5 z"
         style="fill:#ffc400;fill-rule:evenodd;stroke:#ffc400;stroke-width:1pt"
         transform="matrix(0.2,0,0,0.2,1.48,0.2)"
         inkscape:connector-curvature="0" />
    </marker>
    <marker
       inkscape:stockid="marker4516Ct"
       orient="auto"
       refY="0"
       refX="0"
       id="marker4516Ct"
       style="overflow:visible">
      <path
         inkscape:connector-curvature="0"
         id="path6127"
         d="m -2.5,-1 c 0,2.76 -2.24,5 -5,5 -2.76,0 -5,-2.24 -5,-5 0,-2.76 2.24,-5 5,-5 2.76,0 5,2.24 5,5 z"
         style="fill:#ffc400;fill-rule:evenodd;stroke:#ffc400;stroke-width:1pt"
         transform="matrix(0.2,0,0,0.2,1.48,0.2)" />
    </marker>
    <marker
       inkscape:stockid="marker451623"
       orient="auto"
       refY="0"
       refX="0"
       id="marker451623"
       style="overflow:visible">
      <path
         inkscape:connector-curvature="0"
         id="path6130"
         d="m -2.5,-1 c 0,2.76 -2.24,5 -5,5 -2.76,0 -5,-2.24 -5,-5 0,-2.76 2.24,-5 5,-5 2.76,0 5,2.24 5,5 z"
         style="fill:#ffc400;fill-rule:evenodd;stroke:#ffc400;stroke-width:1pt"
         transform="matrix(0.2,0,0,0.2,1.48,0.2)" />
    </marker>
    <marker
       inkscape:stockid="marker4516yb"
       orient="auto"
       refY="0"
       refX="0"
       id="marker4516yb"
       style="overflow:visible">
      <path
         inkscape:connector-curvature="0"
         id="path6133"
         d="m -2.5,-1 c 0,2.76 -2.24,5 -5,5 -2.76,0 -5,-2.24 -5,-5 0,-2.76 2.24,-5 5,-5 2.76,0 5,2.24 5,5 z"
         style="fill:#ffc400;fill-rule:evenodd;stroke:#ffc400;stroke-width:1pt"
         transform="matrix(0.2,0,0,0.2,1.48,0.2)" />
    </marker>
    <marker
       inkscape:stockid="marker4516IS"
       orient="auto"
       refY="0"
       refX="0"
       id="marker4516IS"
       style="overflow:visible">
      <path
         inkscape:connector-curvature="0"
         id="path6136"
         d="m -2.5,-1 c 0,2.76 -2.24,5 -5,5 -2.76,0 -5,-2.24 -5,-5 0,-2.76 2.24,-5 5,-5 2.76,0 5,2.24 5,5 z"
         style="fill:#ffc400;fill-rule:evenodd;stroke:#ffc400;stroke-width:1pt"
         transform="matrix(0.2,0,0,0.2,1.48,0.2)" />
    </marker>
    <marker
       inkscape:stockid="DotSsAi"
       orient="auto"
       refY="0"
       refX="0"
       id="DotSsAi"
       style="overflow:visible">
      <path
         id="path6139"
         d="m -2.5,-1 c 0,2.76 -2.24,5 -5,5 -2.76,0 -5,-2.24 -5,-5 0,-2.76 2.24,-5 5,-5 2.76,0 5,2.24 5,5 z"
         style="fill:#ffc400;fill-rule:evenodd;stroke:#ffc400;stroke-width:1pt"
         transform="matrix(0.2,0,0,0.2,1.48,0.2)"
         inkscape:connector-curvature="0" />
    </marker>
    <marker
       inkscape:stockid="DotSLdG"
       orient="auto"
       refY="0"
       refX="0"
       id="DotSLdG"
       style="overflow:visible">
      <path
         id="path6142"
         d="m -2.5,-1 c 0,2.76 -2.24,5 -5,5 -2.76,0 -5,-2.24 -5,-5 0,-2.76 2.24,-5 5,-5 2.76,0 5,2.24 5,5 z"
         style="fill:#ffc400;fill-rule:evenodd;stroke:#ffc400;stroke-width:1pt"
         transform="matrix(0.2,0,0,0.2,1.48,0.2)"
         inkscape:connector-curvature="0" />
    </marker>
    <marker
       inkscape:stockid="DotSd7"
       orient="auto"
       refY="0"
       refX="0"
       id="DotSd7"
       style="overflow:visible">
      <path
         id="path6145"
         d="m -2.5,-1 c 0,2.76 -2.24,5 -5,5 -2.76,0 -5,-2.24 -5,-5 0,-2.76 2.24,-5 5,-5 2.76,0 5,2.24 5,5 z"
         style="fill:#ffc400;fill-rule:evenodd;stroke:#ffc400;stroke-width:1pt"
         transform="matrix(0.2,0,0,0.2,1.48,0.2)"
         inkscape:connector-curvature="0" />
    </marker>
    <marker
       inkscape:stockid="DotSyIp"
       orient="auto"
       refY="0"
       refX="0"
       id="DotSyIp"
       style="overflow:visible">
      <path
         id="path6148"
         d="m -2.5,-1 c 0,2.76 -2.24,5 -5,5 -2.76,0 -5,-2.24 -5,-5 0,-2.76 2.24,-5 5,-5 2.76,0 5,2.24 5,5 z"
         style="fill:#ffc400;fill-rule:evenodd;stroke:#ffc400;stroke-width:1pt"
         transform="matrix(0.2,0,0,0.2,1.48,0.2)"
         inkscape:connector-curvature="0" />
    </marker>
    <marker
       inkscape:stockid="DotSvS"
       orient="auto"
       refY="0"
       refX="0"
       id="DotSvS"
       style="overflow:visible">
      <path
         id="path6151"
         d="m -2.5,-1 c 0,2.76 -2.24,5 -5,5 -2.76,0 -5,-2.24 -5,-5 0,-2.76 2.24,-5 5,-5 2.76,0 5,2.24 5,5 z"
         style="fill:#ffc400;fill-rule:evenodd;stroke:#ffc400;stroke-width:1pt"
         transform="matrix(0.2,0,0,0.2,1.48,0.2)"
         inkscape:connector-curvature="0" />
    </marker>
    <marker
       inkscape:stockid="DotSsJ"
       orient="auto"
       refY="0"
       refX="0"
       id="DotSsJ"
       style="overflow:visible">
      <path
         id="path6154"
         d="m -2.5,-1 c 0,2.76 -2.24,5 -5,5 -2.76,0 -5,-2.24 -5,-5 0,-2.76 2.24,-5 5,-5 2.76,0 5,2.24 5,5 z"
         style="fill:#ffc400;fill-rule:evenodd;stroke:#ffc400;stroke-width:1pt"
         transform="matrix(0.2,0,0,0.2,1.48,0.2)"
         inkscape:connector-curvature="0" />
    </marker>
    <marker
       inkscape:stockid="DotSfb"
       orient="auto"
       refY="0"
       refX="0"
       id="DotSfb"
       style="overflow:visible">
      <path
         id="path6157"
         d="m -2.5,-1 c 0,2.76 -2.24,5 -5,5 -2.76,0 -5,-2.24 -5,-5 0,-2.76 2.24,-5 5,-5 2.76,0 5,2.24 5,5 z"
         style="fill:#ffc400;fill-rule:evenodd;stroke:#ffc400;stroke-width:1pt"
         transform="matrix(0.2,0,0,0.2,1.48,0.2)"
         inkscape:connector-curvature="0" />
    </marker>
    <marker
       inkscape:stockid="DotS7T"
       orient="auto"
       refY="0"
       refX="0"
       id="DotS7T"
       style="overflow:visible">
      <path
         id="path6160"
         d="m -2.5,-1 c 0,2.76 -2.24,5 -5,5 -2.76,0 -5,-2.24 -5,-5 0,-2.76 2.24,-5 5,-5 2.76,0 5,2.24 5,5 z"
         style="fill:#ffc400;fill-rule:evenodd;stroke:#ffc400;stroke-width:1pt"
         transform="matrix(0.2,0,0,0.2,1.48,0.2)"
         inkscape:connector-curvature="0" />
    </marker>
    <marker
       inkscape:stockid="DotSko"
       orient="auto"
       refY="0"
       refX="0"
       id="DotSko"
       style="overflow:visible">
      <path
         id="path6163"
         d="m -2.5,-1 c 0,2.76 -2.24,5 -5,5 -2.76,0 -5,-2.24 -5,-5 0,-2.76 2.24,-5 5,-5 2.76,0 5,2.24 5,5 z"
         style="fill:#ffc400;fill-rule:evenodd;stroke:#ffc400;stroke-width:1pt"
         transform="matrix(0.2,0,0,0.2,1.48,0.2)"
         inkscape:connector-curvature="0" />
    </marker>
    <marker
       inkscape:stockid="DotSKZ"
       orient="auto"
       refY="0"
       refX="0"
       id="DotSKZ"
       style="overflow:visible">
      <path
         id="path6166"
         d="m -2.5,-1 c 0,2.76 -2.24,5 -5,5 -2.76,0 -5,-2.24 -5,-5 0,-2.76 2.24,-5 5,-5 2.76,0 5,2.24 5,5 z"
         style="fill:#ffc400;fill-rule:evenodd;stroke:#ffc400;stroke-width:1pt"
         transform="matrix(0.2,0,0,0.2,1.48,0.2)"
         inkscape:connector-curvature="0" />
    </marker>
    <marker
       inkscape:stockid="DotSCa"
       orient="auto"
       refY="0"
       refX="0"
       id="DotSCa"
       style="overflow:visible">
      <path
         id="path6169"
         d="m -2.5,-1 c 0,2.76 -2.24,5 -5,5 -2.76,0 -5,-2.24 -5,-5 0,-2.76 2.24,-5 5,-5 2.76,0 5,2.24 5,5 z"
         style="fill:#ffc400;fill-rule:evenodd;stroke:#ffc400;stroke-width:1pt"
         transform="matrix(0.2,0,0,0.2,1.48,0.2)"
         inkscape:connector-curvature="0" />
    </marker>
    <marker
       inkscape:stockid="DotSLi"
       orient="auto"
       refY="0"
       refX="0"
       id="DotSLi"
       style="overflow:visible">
      <path
         id="path6172"
         d="m -2.5,-1 c 0,2.76 -2.24,5 -5,5 -2.76,0 -5,-2.24 -5,-5 0,-2.76 2.24,-5 5,-5 2.76,0 5,2.24 5,5 z"
         style="fill:#ffc400;fill-rule:evenodd;stroke:#ffc400;stroke-width:1pt"
         transform="matrix(0.2,0,0,0.2,1.48,0.2)"
         inkscape:connector-curvature="0" />
    </marker>
    <marker
       inkscape:stockid="marker5218bQ"
       orient="auto"
       refY="0"
       refX="0"
       id="marker5218bQ"
       style="overflow:visible">
      <path
         inkscape:connector-curvature="0"
         id="path6175"
         d="m -2.5,-1 c 0,2.76 -2.24,5 -5,5 -2.76,0 -5,-2.24 -5,-5 0,-2.76 2.24,-5 5,-5 2.76,0 5,2.24 5,5 z"
         style="fill:#ffc400;fill-rule:evenodd;stroke:#ffc400;stroke-width:1pt"
         transform="matrix(0.2,0,0,0.2,1.48,0.2)" />
    </marker>
    <marker
       inkscape:stockid="marker5218XM"
       orient="auto"
       refY="0"
       refX="0"
       id="marker5218XM"
       style="overflow:visible">
      <path
         inkscape:connector-curvature="0"
         id="path6178"
         d="m -2.5,-1 c 0,2.76 -2.24,5 -5,5 -2.76,0 -5,-2.24 -5,-5 0,-2.76 2.24,-5 5,-5 2.76,0 5,2.24 5,5 z"
         style="fill:#ffc400;fill-rule:evenodd;stroke:#ffc400;stroke-width:1pt"
         transform="matrix(0.2,0,0,0.2,1.48,0.2)" />
    </marker>
    <marker
       inkscape:stockid="DotSGn"
       orient="auto"
       refY="0"
       refX="0"
       id="DotSGn"
       style="overflow:visible">
      <path
         id="path6181"
         d="m -2.5,-1 c 0,2.76 -2.24,5 -5,5 -2.76,0 -5,-2.24 -5,-5 0,-2.76 2.24,-5 5,-5 2.76,0 5,2.24 5,5 z"
         style="fill:#ffc400;fill-rule:evenodd;stroke:#ffc400;stroke-width:1pt"
         transform="matrix(0.2,0,0,0.2,1.48,0.2)"
         inkscape:connector-curvature="0" />
    </marker>
    <marker
       inkscape:stockid="DotS5R"
       orient="auto"
       refY="0"
       refX="0"
       id="DotS5R"
       style="overflow:visible">
      <path
         id="path6184"
         d="m -2.5,-1 c 0,2.76 -2.24,5 -5,5 -2.76,0 -5,-2.24 -5,-5 0,-2.76 2.24,-5 5,-5 2.76,0 5,2.24 5,5 z"
         style="fill:#ffc400;fill-rule:evenodd;stroke:#ffc400;stroke-width:1pt"
         transform="matrix(0.2,0,0,0.2,1.48,0.2)"
         inkscape:connector-curvature="0" />
    </marker>
    <marker
       inkscape:stockid="DotSd7"
       orient="auto"
       refY="0"
       refX="0"
       id="DotSd7-9"
       style="overflow:visible">
      <path
         inkscape:connector-curvature="0"
         id="path6145-2"
         d="m -2.5,-1 c 0,2.76 -2.24,5 -5,5 -2.76,0 -5,-2.24 -5,-5 0,-2.76 2.24,-5 5,-5 2.76,0 5,2.24 5,5 z"
         style="fill:#ffc400;fill-rule:evenodd;stroke:#ffc400;stroke-width:1pt"
         transform="matrix(0.2,0,0,0.2,1.48,0.2)" />
    </marker>
    <marker
       inkscape:stockid="DotSyIp"
       orient="auto"
       refY="0"
       refX="0"
       id="DotSyIp-9"
       style="overflow:visible">
      <path
         inkscape:connector-curvature="0"
         id="path6148-2"
         d="m -2.5,-1 c 0,2.76 -2.24,5 -5,5 -2.76,0 -5,-2.24 -5,-5 0,-2.76 2.24,-5 5,-5 2.76,0 5,2.24 5,5 z"
         style="fill:#ffc400;fill-rule:evenodd;stroke:#ffc400;stroke-width:1pt"
         transform="matrix(0.2,0,0,0.2,1.48,0.2)" />
    </marker>
    <marker
       inkscape:stockid="DotSGn"
       orient="auto"
       refY="0"
       refX="0"
       id="DotSGn-0"
       style="overflow:visible">
      <path
         inkscape:connector-curvature="0"
         id="path6181-6"
         d="m -2.5,-1 c 0,2.76 -2.24,5 -5,5 -2.76,0 -5,-2.24 -5,-5 0,-2.76 2.24,-5 5,-5 2.76,0 5,2.24 5,5 z"
         style="fill:#ffc400;fill-rule:evenodd;stroke:#ffc400;stroke-width:1pt"
         transform="matrix(0.2,0,0,0.2,1.48,0.2)" />
    </marker>
    <marker
       inkscape:stockid="DotS5R"
       orient="auto"
       refY="0"
       refX="0"
       id="DotS5R-3"
       style="overflow:visible">
      <path
         inkscape:connector-curvature="0"
         id="path6184-9"
         d="m -2.5,-1 c 0,2.76 -2.24,5 -5,5 -2.76,0 -5,-2.24 -5,-5 0,-2.76 2.24,-5 5,-5 2.76,0 5,2.24 5,5 z"
         style="fill:#ffc400;fill-rule:evenodd;stroke:#ffc400;stroke-width:1pt"
         transform="matrix(0.2,0,0,0.2,1.48,0.2)" />
    </marker>
    <marker
       inkscape:stockid="marker5218bQ"
       orient="auto"
       refY="0"
       refX="0"
       id="marker5218bQ-7"
       style="overflow:visible">
      <path
         inkscape:connector-curvature="0"
         id="path6175-9"
         d="m -2.5,-1 c 0,2.76 -2.24,5 -5,5 -2.76,0 -5,-2.24 -5,-5 0,-2.76 2.24,-5 5,-5 2.76,0 5,2.24 5,5 z"
         style="fill:#ffc400;fill-rule:evenodd;stroke:#ffc400;stroke-width:1pt"
         transform="matrix(0.2,0,0,0.2,1.48,0.2)" />
    </marker>
    <marker
       inkscape:stockid="marker5218XM"
       orient="auto"
       refY="0"
       refX="0"
       id="marker5218XM-8"
       style="overflow:visible">
      <path
         inkscape:connector-curvature="0"
         id="path6178-2"
         d="m -2.5,-1 c 0,2.76 -2.24,5 -5,5 -2.76,0 -5,-2.24 -5,-5 0,-2.76 2.24,-5 5,-5 2.76,0 5,2.24 5,5 z"
         style="fill:#ffc400;fill-rule:evenodd;stroke:#ffc400;stroke-width:1pt"
         transform="matrix(0.2,0,0,0.2,1.48,0.2)" />
    </marker>
    <marker
       inkscape:stockid="marker5218bQ"
       orient="auto"
       refY="0"
       refX="0"
       id="marker5218bQ-9"
       style="overflow:visible">
      <path
         inkscape:connector-curvature="0"
         id="path6175-95"
         d="m -2.5,-1 c 0,2.76 -2.24,5 -5,5 -2.76,0 -5,-2.24 -5,-5 0,-2.76 2.24,-5 5,-5 2.76,0 5,2.24 5,5 z"
         style="fill:#ffc400;fill-rule:evenodd;stroke:#ffc400;stroke-width:1pt"
         transform="matrix(0.2,0,0,0.2,1.48,0.2)" />
    </marker>
    <marker
       inkscape:stockid="marker5218XM"
       orient="auto"
       refY="0"
       refX="0"
       id="marker5218XM-4"
       style="overflow:visible">
      <path
         inkscape:connector-curvature="0"
         id="path6178-29"
         d="m -2.5,-1 c 0,2.76 -2.24,5 -5,5 -2.76,0 -5,-2.24 -5,-5 0,-2.76 2.24,-5 5,-5 2.76,0 5,2.24 5,5 z"
         style="fill:#ffc400;fill-rule:evenodd;stroke:#ffc400;stroke-width:1pt"
         transform="matrix(0.2,0,0,0.2,1.48,0.2)" />
    </marker>
    <marker
       inkscape:stockid="DotSGn"
       orient="auto"
       refY="0"
       refX="0"
       id="DotSGn-08"
       style="overflow:visible">
      <path
         inkscape:connector-curvature="0"
         id="path6181-5"
         d="m -2.5,-1 c 0,2.76 -2.24,5 -5,5 -2.76,0 -5,-2.24 -5,-5 0,-2.76 2.24,-5 5,-5 2.76,0 5,2.24 5,5 z"
         style="fill:#ffc400;fill-rule:evenodd;stroke:#ffc400;stroke-width:1pt"
         transform="matrix(0.2,0,0,0.2,1.48,0.2)" />
    </marker>
    <marker
       inkscape:stockid="DotS5R"
       orient="auto"
       refY="0"
       refX="0"
       id="DotS5R-8"
       style="overflow:visible">
      <path
         inkscape:connector-curvature="0"
         id="path6184-1"
         d="m -2.5,-1 c 0,2.76 -2.24,5 -5,5 -2.76,0 -5,-2.24 -5,-5 0,-2.76 2.24,-5 5,-5 2.76,0 5,2.24 5,5 z"
         style="fill:#ffc400;fill-rule:evenodd;stroke:#ffc400;stroke-width:1pt"
         transform="matrix(0.2,0,0,0.2,1.48,0.2)" />
    </marker>
    <marker
       inkscape:stockid="marker4516Ct"
       orient="auto"
       refY="0"
       refX="0"
       id="marker4516Ct-0"
       style="overflow:visible">
      <path
         inkscape:connector-curvature="0"
         id="path6127-3"
         d="m -2.5,-1 c 0,2.76 -2.24,5 -5,5 -2.76,0 -5,-2.24 -5,-5 0,-2.76 2.24,-5 5,-5 2.76,0 5,2.24 5,5 z"
         style="fill:#ffc400;fill-rule:evenodd;stroke:#ffc400;stroke-width:1pt"
         transform="matrix(0.2,0,0,0.2,1.48,0.2)" />
    </marker>
    <marker
       inkscape:stockid="marker451623"
       orient="auto"
       refY="0"
       refX="0"
       id="marker451623-8"
       style="overflow:visible">
      <path
         inkscape:connector-curvature="0"
         id="path6130-8"
         d="m -2.5,-1 c 0,2.76 -2.24,5 -5,5 -2.76,0 -5,-2.24 -5,-5 0,-2.76 2.24,-5 5,-5 2.76,0 5,2.24 5,5 z"
         style="fill:#ffc400;fill-rule:evenodd;stroke:#ffc400;stroke-width:1pt"
         transform="matrix(0.2,0,0,0.2,1.48,0.2)" />
    </marker>
    <marker
       inkscape:stockid="marker5218bQ"
       orient="auto"
       refY="0"
       refX="0"
       id="marker5218bQ-0"
       style="overflow:visible">
      <path
         inkscape:connector-curvature="0"
         id="path6175-8"
         d="m -2.5,-1 c 0,2.76 -2.24,5 -5,5 -2.76,0 -5,-2.24 -5,-5 0,-2.76 2.24,-5 5,-5 2.76,0 5,2.24 5,5 z"
         style="fill:#ffc400;fill-rule:evenodd;stroke:#ffc400;stroke-width:1pt"
         transform="matrix(0.2,0,0,0.2,1.48,0.2)" />
    </marker>
    <marker
       inkscape:stockid="marker5218XM"
       orient="auto"
       refY="0"
       refX="0"
       id="marker5218XM-86"
       style="overflow:visible">
      <path
         inkscape:connector-curvature="0"
         id="path6178-7"
         d="m -2.5,-1 c 0,2.76 -2.24,5 -5,5 -2.76,0 -5,-2.24 -5,-5 0,-2.76 2.24,-5 5,-5 2.76,0 5,2.24 5,5 z"
         style="fill:#ffc400;fill-rule:evenodd;stroke:#ffc400;stroke-width:1pt"
         transform="matrix(0.2,0,0,0.2,1.48,0.2)" />
    </marker>
    <circle
       transform="matrix(0.8755829,0,0,0.8755829,152.4506,-680.83707)"
       id="path6572"
       style="fill:none;stroke:none"
       cx="675.71429"
       cy="777.58148"
       r="584.28571" />
    <circle
       transform="matrix(-1.1162727,-0.04357729,-0.04357729,1.1162727,1532.2608,-838.54723)"
       id="path6572-9"
       style="fill:none;stroke:none"
       cx="675.71429"
       cy="777.58148"
       r="584.28571" />
  </defs>
  <metadata
     id="metadata7">
    <rdf:RDF>
      <cc:Work
         rdf:about="">
        <dc:format>image/svg+xml</dc:format>
        <dc:type
           rdf:resource="http://purl.org/dc/dcmitype/StillImage" />
      </cc:Work>
    </rdf:RDF>
  </metadata>
  <g
     inkscape:label="Ebene 1"
     inkscape:groupmode="layer"
     id="layer1"
     transform="translate(0,-783.07098)">
    <g
       id="g4753"
       transform="translate(0.97109313,0.97133893)">
      <path
         sodipodi:nodetypes="cccccc"
         inkscape:connector-curvature="0"
         id="path5238-96-3-7-56-2-9-1"
         d="m 126.86095,847.05598 0.12132,14.1368 7.69357,10.5896 7.70599,-10.3985 0.0327,-14.3362 z"
         style="fill:#9000b1;fill-opacity:1;stroke:#9000b1;stroke-width:8.29425;stroke-linecap:round;stroke-linejoin:round;stroke-miterlimit:4;stroke-dasharray:none;stroke-opacity:1;marker-start:none;marker-end:none" />
      <path
         id="path5802-1-9"
         style="fill:#9000b1;fill-opacity:1;stroke:#000000;stroke-width:4.53543;stroke-miterlimit:4;stroke-dasharray:none;stroke-opacity:1"
         d="m 122.415,784.36736 c -61.476449,0.016 -114.163388,46.60113 -120.49219,109.08203 -6.7507453,66.6463 41.802938,126.14381 108.44922,132.89451 66.64631,6.7508 126.15163,-41.80291 132.90235,-108.4492 6.75075,-66.6463 -41.81076,-126.14378 -108.45704,-132.89453 -4.1654,-0.42192 -8.30392,-0.63387 -12.40234,-0.63281 z m 0.17969,37.74609 c 46.14749,0 83.55664,37.41111 83.55664,83.5586 0,24.61936 -10.6552,46.74477 -27.59961,62.03515 v 28.8418 l -6.33203,5.7109 H 119.66891 L 113.665,996.549 v -7.98828 c -2.58697,-0.23733 -5.21604,-0.57042 -7.91797,-1.02344 -38.075847,-7.79156 -66.710939,-41.48618 -66.710939,-81.86523 0,-46.14749 37.411093,-83.5586 83.558599,-83.5586 z" />
      <path
         id="path1577"
         style="font-style:normal;font-variant:normal;font-weight:normal;font-stretch:normal;font-size:34.6667px;line-height:1.25;font-family:'Politics Head';-inkscape-font-specification:'Politics Head';fill:#ffffff;fill-opacity:1;stroke:none"
         d="m 124.14062,792.92059 c -2.38171,0.0335 -4.94768,1.08067 -6.04481,3.3193 -1.07429,2.08133 -0.67157,4.50568 -0.85361,6.75592 -0.0317,2.55327 -0.252,5.1097 -0.15938,7.66122 0.10486,2.14541 1.46703,4.18609 3.49572,4.9591 2.24165,0.92809 4.72938,0.72649 7.10137,0.78687 2.38177,-0.0546 4.92655,-1.15583 5.97439,-3.416 1.00182,-2.06713 0.61885,-4.43765 0.79686,-6.65335 0.0317,-2.55327 0.252,-5.1097 0.15938,-7.66122 -0.10486,-2.14541 -1.46703,-4.18609 -3.49572,-4.9591 -2.19401,-0.91966 -4.65061,-0.71802 -6.9742,-0.79274 z m -20.4707,1.64648 c -1.76572,0.2164 -3.53092,0.55456 -5.237728,1.05972 -2.225812,0.69181 -4.232351,2.50862 -4.54481,4.90635 -0.317906,2.14682 0.508125,4.2403 0.816969,6.34136 0.535775,2.46233 0.889505,4.97002 1.543965,7.40317 0.58627,2.0641 2.367704,3.74464 4.514694,4.04487 2.32471,0.39697 4.63846,-0.32436 6.89944,-0.77746 2.48018,-0.59906 4.84848,-2.44563 5.29154,-5.07203 0.1396,-0.75109 0.33777,-2.02779 -0.68446,-2.21066 -1.23732,-0.13885 -2.46603,-0.4811 -3.70898,-0.5 -0.87298,0.1679 -0.7781,1.14263 -1.07422,1.76757 -0.69781,1.15202 -2.24854,0.99702 -3.38481,1.33232 -0.86749,0.30422 -2.0322,0.19555 -2.43355,-0.7581 -0.52068,-1.75622 -0.73948,-3.59885 -1.14358,-5.38824 -0.2632,-1.58426 -0.726427,-3.14677 -0.86814,-4.74457 0.01036,-1.04258 1.03391,-1.61955 1.96941,-1.66547 1.17831,-0.13239 2.55697,-0.84829 3.63996,-0.0513 0.50627,0.43888 0.73958,1.36117 1.58399,1.21875 0.97886,-0.30981 1.78878,-1.04692 2.70361,-1.51685 0.59757,-0.25717 1.32759,-0.82397 0.94287,-1.55151 -1.00273,-2.42164 -3.59486,-3.91047 -6.17329,-3.85459 -0.21764,-0.01 -0.4353,0.0131 -0.65288,0.0167 z m 41.58985,0.42774 c -1.04481,0.20563 -0.95236,1.51406 -1.30053,2.29708 -1.83239,6.20938 -3.72956,12.40478 -5.52174,18.62284 -0.10579,0.87334 0.86116,1.18381 1.53821,1.31425 1.04719,0.24254 2.05808,0.74876 3.12781,0.83614 1.03627,-0.15867 0.96751,-1.45081 1.29361,-2.20511 0.67845,-2.34475 1.4569,-4.66347 1.98373,-7.0488 0.25246,2.40936 0.41886,4.83819 0.74414,7.23438 0.46023,0.84635 1.60473,0.7584 2.39482,1.11248 0.69865,0.23891 1.68835,0.6359 2.1785,-0.17631 1.43784,-1.73103 2.88532,-3.45436 4.3173,-5.19008 -1.01916,2.81087 -1.80877,5.70367 -2.63671,8.57227 -0.10669,0.8736 0.86069,1.18577 1.53819,1.31625 1.02658,0.23455 2.01583,0.73974 3.06532,0.81656 1.03416,-0.16196 0.9656,-1.45094 1.29151,-2.20515 1.84588,-6.22698 3.72521,-12.44533 5.55029,-18.67766 0.12407,-0.83926 -0.76564,-1.22021 -1.44432,-1.32675 -1.12438,-0.29242 -2.22178,-0.74482 -3.36232,-0.94278 -0.90293,0.0758 -1.2318,1.11698 -1.83442,1.66272 -2.1735,2.62985 -4.35874,5.25068 -6.52496,7.88611 -0.50764,-4.0408 -0.94618,-8.09771 -1.51367,-12.12696 -0.40841,-0.86815 -1.56726,-0.76615 -2.33819,-1.11829 -0.84735,-0.18209 -1.67905,-0.6423 -2.54657,-0.65319 z m -20.41993,3.23828 c 1.07781,0.12548 2.24435,-0.1402 3.25977,0.30078 1.14241,0.68071 0.71985,2.15953 0.7478,3.24573 -0.10358,2.6502 -0.11848,5.30794 -0.2771,7.95349 -0.14599,0.99729 -1.19812,1.52913 -2.13223,1.3509 -1.06236,-0.15369 -2.38034,0.26854 -3.21542,-0.59114 -0.76921,-0.97948 -0.27537,-2.30827 -0.36138,-3.44276 0.0986,-2.48098 0.10772,-4.96969 0.26177,-7.44591 0.14402,-0.81428 0.88037,-1.42943 1.71679,-1.37109 z m -48.314449,4.74609 c -1.31841,0.41956 -2.574727,1.06446 -3.853516,1.60157 -0.730911,0.43686 -0.454697,1.36871 -0.101472,1.95992 2.669012,6.2105 5.303671,12.43747 7.99405,18.63773 0.43687,0.73091 1.368712,0.45469 1.959926,0.10149 3.720519,-1.61246 7.475239,-3.16062 11.17484,-4.81243 0.737695,-0.4787 0.357074,-1.41777 0.02495,-2.02252 -0.429078,-0.83635 -0.635137,-1.81337 -1.200727,-2.56537 -0.74977,-0.68048 -1.673758,0.1433 -2.429669,0.37699 -2.007495,0.83631 -4.027029,1.76828 -6.027363,2.54684 -2.220924,-5.11958 -4.362124,-10.27869 -6.617187,-15.38086 -0.198945,-0.30114 -0.562087,-0.47984 -0.923828,-0.44336 z m 97.583989,2.7461 c -0.87822,0.30552 -1.06458,1.39041 -1.59536,2.06416 -3.22309,5.47413 -6.51032,10.91689 -9.69371,16.41045 -0.32074,0.86743 0.62669,1.37787 1.26058,1.69516 3.62055,2.12332 7.20776,4.31576 10.8488,6.39663 0.82015,0.31392 1.3545,-0.54734 1.64609,-1.17067 0.42232,-0.83937 1.08676,-1.58147 1.36172,-2.48167 0.10229,-1.04383 -1.16973,-1.293 -1.82168,-1.79207 -2.01454,-1.21309 -4.09054,-2.38573 -6.06699,-3.62395 0.58375,-0.9853 1.1503,-2.02479 1.77539,-2.96289 2.10601,1.20443 4.16473,2.50549 6.2832,3.6836 0.81978,0.30953 1.35227,-0.54958 1.64451,-1.17241 0.4228,-0.83947 1.0882,-1.58139 1.3633,-2.48189 0.10007,-1.04441 -1.17308,-1.2916 -1.82581,-1.79168 -1.57579,-0.95529 -3.21913,-1.8629 -4.75426,-2.84699 0.55413,-0.93771 1.09777,-1.92369 1.68945,-2.81641 2.5429,1.46207 5.03736,3.02376 7.59375,4.45703 0.82015,0.31392 1.3545,-0.54734 1.6461,-1.17067 0.42231,-0.83937 1.08675,-1.58147 1.36171,-2.48167 0.11034,-1.00845 -1.10251,-1.26898 -1.73765,-1.74101 -3.47677,-2.03982 -6.92329,-4.14232 -10.4186,-6.14376 -0.17784,-0.0581 -0.3805,-0.0772 -0.56054,-0.0293 z M 64.248047,809.3991 c -0.921077,0.2582 -1.596758,1.05287 -2.419984,1.5204 -3.049578,2.14738 -6.143511,4.24028 -9.165954,6.42101 -0.629488,0.61662 -0.06478,1.46243 0.38336,1.9863 3.837342,5.47299 7.621082,10.98962 11.49164,16.43558 0.616344,0.62893 1.462391,0.0682 1.986256,-0.38147 3.459204,-2.43383 6.962461,-4.81357 10.394604,-7.28064 0.628928,-0.61635 0.06826,-1.46241 -0.381504,-1.98623 -0.587358,-0.73204 -0.990439,-1.63892 -1.690762,-2.26573 -0.873189,-0.52024 -1.615688,0.47495 -2.308507,0.8594 -1.96237,1.35715 -3.913803,2.75176 -5.882899,4.08592 -0.653905,-0.94149 -1.391944,-1.89969 -1.962891,-2.86133 1.968451,-1.40944 3.99675,-2.74395 5.94336,-4.17969 0.628942,-0.6172 0.06532,-1.46399 -0.383457,-1.98818 -0.587359,-0.73203 -0.990439,-1.63892 -1.690762,-2.26573 -0.872497,-0.52079 -1.613933,0.47599 -2.306626,0.8593 -1.552588,1.0511 -3.091436,2.21703 -4.652359,3.1993 -0.608031,-0.89755 -1.316234,-1.79568 -1.847656,-2.70703 2.385356,-1.69951 4.829758,-3.32508 7.19336,-5.05078 0.629499,-0.61663 0.06472,-1.4624 -0.383226,-1.98639 -0.587455,-0.73262 -0.990358,-1.64027 -1.690993,-2.26752 -0.183852,-0.11764 -0.409355,-0.16919 -0.625,-0.14649 z m 134.583983,13.48438 c -0.88311,0.12802 -1.33388,1.06773 -2.00923,1.56114 -0.52377,0.59573 -1.64558,1.16014 -1.25639,2.11855 0.84334,1.14033 1.97354,2.06074 2.89453,3.14258 -3.96675,3.85352 -8.01807,7.63018 -11.96485,11.50195 -0.53144,0.70471 0.15903,1.45721 0.68206,1.90608 0.79258,0.73366 1.4244,1.67447 2.31404,2.28532 0.9411,0.37824 1.52142,-0.71894 2.14616,-1.20436 3.60537,-3.43963 7.19162,-6.90563 10.80892,-10.32884 1.03356,0.97474 1.91123,2.13119 3.00781,3.03125 0.95572,0.42566 1.5682,-0.68651 2.19728,-1.18837 0.5243,-0.65705 1.51163,-1.07031 1.63084,-1.97374 -0.0859,-0.91892 -1.06604,-1.3785 -1.56683,-2.06798 -2.76054,-2.85862 -5.47315,-5.7699 -8.26325,-8.59608 -0.17824,-0.12861 -0.4017,-0.19873 -0.62109,-0.1875 z m -154.195311,0.61719 c -0.790623,0.41902 -1.199375,1.32622 -1.83404,1.93985 -0.461676,0.67528 -1.234327,1.18337 -1.474554,1.98202 0.123456,0.83029 0.932476,1.35837 1.349103,2.05522 1.743855,2.18423 3.352761,4.48183 5.250506,6.53853 -3.221346,-1.50878 -6.425242,-3.07037 -9.666015,-4.52929 -0.896871,-0.0994 -1.248596,0.98361 -1.823327,1.48581 -0.479059,0.70592 -1.300691,1.24004 -1.532142,2.07864 0.08744,0.83657 0.867415,1.41772 1.24905,2.14058 1.72164,2.4028 3.252815,4.95277 5.221653,7.16801 -3.17894,-1.78096 -6.332935,-3.62166 -9.542969,-5.33984 -0.866205,-0.0447 -1.192475,0.98871 -1.754946,1.47607 -0.601036,0.83928 -1.496032,1.50501 -1.89935,2.46338 0.0075,0.87342 1.100307,0.95376 1.665515,1.37364 6.016732,3.19644 12.02077,6.42389 18.045422,9.60097 1.022279,0.30575 1.496538,-0.91745 2.103079,-1.49129 0.48804,-0.73661 1.372724,-1.2745 1.566843,-2.16887 -0.08023,-0.90227 -0.913576,-1.51954 -1.322142,-2.29078 -1.726604,-2.49356 -3.453207,-4.98713 -5.179811,-7.4807 2.524223,1.66245 5.394401,2.68413 8.092832,4.01939 0.841398,0.27659 1.600674,0.99573 2.51459,0.92397 0.892189,-0.44807 1.343367,-1.45047 2.044794,-2.13394 0.45088,-0.65996 1.546597,-1.34002 1.047002,-2.25669 -4.472271,-5.81651 -8.959677,-11.62412 -13.451171,-17.42578 -0.202339,-0.13319 -0.431558,-0.21691 -0.669922,-0.1289 z M 212.4375,841.9909 c -2.4459,0.0969 -4.33871,1.83688 -6.38124,2.96304 -2.18158,1.38853 -4.46709,2.62366 -6.58054,4.11318 -1.73486,1.26336 -2.69984,3.51842 -2.23232,5.63838 0.43712,2.3551 1.95191,4.29813 3.17457,6.29517 1.33128,1.96263 3.60403,3.52875 6.06816,3.21851 2.3313,-0.24527 4.13935,-1.91009 6.12298,-2.99156 2.15325,-1.37098 4.41009,-2.58908 6.49525,-4.06099 1.73486,-1.26335 2.69984,-3.51841 2.23232,-5.63837 -0.43792,-2.34651 -1.93936,-4.28932 -3.16448,-6.27624 -1.28874,-1.87571 -3.36351,-3.39596 -5.7347,-3.26112 z m 0.47266,5.95117 c 1.23936,0.17472 1.55763,1.59125 2.21423,2.45081 0.62547,0.73078 0.76634,1.93553 -0.0717,2.57068 -2.73619,1.76375 -5.54871,3.41983 -8.32421,5.125 -0.89185,0.52835 -2.04811,0.0564 -2.43195,-0.8731 -0.45842,-0.96767 -1.45401,-1.80437 -1.35321,-2.95112 0.27478,-1.26032 1.72283,-1.59406 2.62974,-2.28616 2.16007,-1.29003 4.27002,-2.67588 6.46031,-3.90823 0.27682,-0.11159 0.57953,-0.15614 0.87675,-0.12788 z m 16.32226,20.89649 c -0.83671,0.0627 -1.24789,0.98024 -1.87518,1.43694 -2.28631,2.21086 -4.55276,4.44946 -6.85138,6.64314 -3.99796,-0.97338 -7.97688,-2.04174 -11.97852,-2.99805 -0.76329,-0.0726 -1.02375,0.80193 -0.72193,1.37982 0.41712,1.42588 0.69471,2.90277 1.19068,4.29987 0.52059,0.79372 1.63743,0.61833 2.43604,0.91054 1.59612,0.34424 3.19369,0.75642 4.83545,0.79258 -1.77692,1.48106 -3.55241,2.97556 -5.26758,4.52344 -0.50849,0.83701 0.18969,1.77982 0.29242,2.64145 0.33515,1.01141 0.42829,2.12722 0.91266,3.07535 0.46227,0.60626 1.20924,0.11807 1.55397,-0.35228 2.6173,-2.51638 5.21514,-5.11708 7.84447,-7.58132 3.89915,0.96809 7.7926,1.98784 11.69531,2.92383 0.76166,0.0813 1.17306,-0.79772 0.81559,-1.41597 -0.43405,-1.46616 -0.70391,-2.99709 -1.23477,-4.42531 -0.54487,-0.69904 -1.59459,-0.54099 -2.36651,-0.82988 -1.54825,-0.35306 -3.11569,-0.69017 -4.7065,-0.75267 1.76484,-1.42361 3.44498,-2.9602 5.12497,-4.47848 0.50444,-0.78394 -0.15907,-1.69707 -0.26076,-2.51752 -0.29391,-0.98103 -0.46315,-2.00794 -0.83296,-2.96103 -0.16032,-0.16844 -0.36465,-0.3196 -0.60547,-0.31445 z M 213.66211,894.612 c -0.83959,-0.0267 -1.19566,0.89936 -1.02578,1.60719 0.0867,1.16247 -0.0282,2.35474 0.17617,3.50023 0.41977,0.95779 1.62371,0.53686 2.42474,0.58624 2.18631,-0.049 4.40509,-0.16959 6.57135,-0.17413 0.0636,2.09343 0.16319,4.21862 0.17383,6.29492 -2.73341,0.11858 -5.47811,0.13053 -8.20703,0.2832 -0.86149,0.17441 -0.85013,1.19104 -0.76272,1.87385 0.0974,1.07328 -0.0603,2.19218 0.1885,3.23943 0.44213,0.91676 1.61272,0.49132 2.40326,0.54732 6.52341,-0.20836 13.04979,-0.37636 19.57135,-0.60982 0.83862,-0.14013 0.92328,-1.10898 0.81069,-1.78756 -0.10136,-1.1087 0.0635,-2.26637 -0.19545,-3.3472 -0.47606,-0.93445 -1.68207,-0.46507 -2.50126,-0.53634 -1.98384,0.0439 -3.99886,0.15476 -5.96359,0.15743 -0.0622,-2.09364 -0.1661,-4.22223 -0.17187,-6.29687 2.56347,-0.11352 5.13829,-0.11991 7.69726,-0.26758 0.86277,-0.17181 0.85262,-1.18917 0.76469,-1.8719 -0.0999,-1.07608 0.0649,-2.20097 -0.19242,-3.2492 -0.4775,-0.93216 -1.68234,-0.46284 -2.50126,-0.53451 -6.42016,0.1951 -12.84031,0.3902 -19.26046,0.5853 z m 0.008,20.32617 c -0.92276,-0.0157 -0.84754,1.17223 -1.03309,1.80577 -0.18211,1.12112 -0.55839,2.23296 -0.62511,3.36024 0.23836,0.80143 1.27135,0.86972 1.88051,1.30301 0.41166,0.33574 1.47822,0.35377 1.08261,1.08115 -0.39982,1.93184 -0.79963,3.86369 -1.19945,5.79553 -1.08259,0.11874 -2.21627,0.0111 -3.26953,0.26367 -0.68447,0.45936 -0.49764,1.45775 -0.75739,2.16065 -0.14253,1.00792 -0.54717,2.00453 -0.52386,3.02099 0.22946,0.82972 1.2697,0.47581 1.88726,0.46297 7.04172,-0.58632 14.08673,-1.144 21.12641,-1.74812 0.9749,-0.34151 0.77785,-1.594 1.05456,-2.39496 0.21958,-1.28155 0.61665,-2.54928 0.7306,-3.83942 -0.13798,-0.92731 -1.27945,-1.04186 -1.91877,-1.51617 -6.07149,-3.22856 -12.1183,-6.51542 -18.20503,-9.70795 -0.076,-0.0197 -0.14653,-0.0734 -0.22972,-0.0474 z m 12.47852,12.6289 c -2.29102,0.12891 -4.58203,0.25782 -6.87305,0.38672 0.23958,-1.16146 0.47917,-2.32291 0.71875,-3.48437 2.05143,1.03255 4.10287,2.0651 6.1543,3.09765 z m -17.81055,8.91797 c -1.05988,0.11412 -1.07598,1.43142 -1.48709,2.18226 -0.21939,0.84768 -0.88209,1.64075 -0.77072,2.5404 0.29854,0.89427 1.4418,0.88669 2.15304,1.28571 6.02361,2.33471 12.03362,4.70867 18.06571,7.01898 0.82742,0.19827 1.28259,-0.65943 1.44519,-1.32816 0.34108,-1.05966 0.94147,-2.06062 1.12903,-3.15622 -0.0687,-1.0476 -1.36548,-1.08786 -2.09117,-1.47386 -6.05547,-2.34499 -12.09604,-4.73384 -18.16079,-7.05153 -0.0945,-5.9e-4 -0.18919,-0.0377 -0.2832,-0.0176 z m -3.94922,9.57422 c -0.88104,0.29507 -1.07983,1.37902 -1.61673,2.04705 -0.33746,0.77836 -1.19545,1.44013 -1.07467,2.35139 0.32085,0.86356 1.38739,1.05355 2.04889,1.58957 2.34393,1.3798 4.60648,2.90798 7.04681,4.11551 -4.18025,0.0205 -8.36632,-0.0382 -12.54297,0.0312 -0.86314,0.25885 -1.05067,1.32008 -1.56897,1.95948 -0.3312,0.76365 -1.3211,1.52689 -0.86267,2.42919 0.61201,0.73431 1.60764,1.03323 2.369,1.59493 5.34604,3.22059 10.65886,6.50589 16.02553,9.68632 0.81727,0.32207 1.36312,-0.53302 1.6607,-1.15489 0.50233,-0.95504 1.24675,-1.80873 1.60493,-2.82558 0.12217,-1.00732 -1.08627,-1.28623 -1.7186,-1.763 -2.65301,-1.55397 -5.19473,-3.32096 -8.00992,-4.5788 4.37716,0.0766 8.76002,0.23271 13.13363,0.25997 0.87329,-0.25333 1.06122,-1.32348 1.5822,-1.96531 0.33054,-0.76675 1.28534,-1.49092 0.91308,-2.40403 -0.56035,-0.76671 -1.57367,-1.03615 -2.3167,-1.59776 -5.37454,-3.23789 -10.71587,-6.54047 -16.11104,-9.73818 -0.1778,-0.0624 -0.3802,-0.0819 -0.5625,-0.0371 z"
         inkscape:export-filename="C:\Users\jze\Desktop\tmp\xHainCI\embroidery\tmp\3dlab_text.png"
         inkscape:export-xdpi="1368.9301"
         inkscape:export-ydpi="1368.9301" />
      <path
         inkscape:export-filename="C:\Users\jze\Desktop\tmp\xHainCI\embroidery\tmp\3dlab_text.png"
         inkscape:export-xdpi="1368.9301"
         inkscape:export-ydpi="1368.9301"
         id="path1944"
         style="font-size:34.6667px;line-height:1.25;font-family:'Politics Head';-inkscape-font-specification:'Politics Head';letter-spacing:3.16px;fill:#ffffff;fill-opacity:1"
         d="m 26.703125,916.35809 c -0.939436,0.002 -0.937919,1.10375 -1.032406,1.78172 -0.07068,0.91844 -0.416217,1.84196 -0.31525,2.75929 0.275443,0.99082 1.50422,0.64978 2.140752,1.2367 1.193481,0.81322 1.452933,2.4845 1.15417,3.80627 -0.252336,1.30996 -2.165459,1.84072 -2.947266,0.69336 -0.848786,-1.1643 -0.735117,-2.71982 -1.326172,-3.98633 -0.622953,-0.84358 -1.730852,-0.17873 -2.548724,-0.11267 -0.684158,0.1288 -1.741424,0.18441 -1.82237,1.08533 0.01172,1.59515 0.948579,3.38535 -0.07546,4.85161 -0.80087,1.14929 -2.684287,0.89519 -3.2936,-0.31988 -0.859321,-1.45671 -0.811264,-3.67677 0.713073,-4.68131 0.749319,-0.35614 0.728697,-1.35486 0.213961,-1.90714 -0.624926,-0.9036 -1.050942,-1.97878 -1.797328,-2.77905 -0.820384,-0.42611 -1.631653,0.39322 -2.284081,0.81429 -2.586906,2.16844 -3.271342,5.95289 -2.344984,9.09415 0.617679,2.64772 2.458688,5.21894 5.208265,5.89217 2.582881,0.63779 5.759484,-0.17031 7.169922,-2.56835 0.241918,-0.20294 0.287608,-1.12556 0.564453,-0.75782 1.75717,1.79847 4.720239,1.65156 6.78711,0.49219 2.44858,-1.37226 3.484886,-4.36923 3.237837,-7.05302 -0.151542,-2.65546 -1.199839,-5.40002 -3.429216,-6.98802 -1.140521,-0.84755 -2.548637,-1.34745 -3.972684,-1.35349 z m 8.613281,17.94531 c -1.626059,0.5423 -3.174549,1.3354 -4.772012,1.96978 -4.917168,2.11375 -9.86981,4.15995 -14.765097,6.31538 -0.739066,0.47459 -0.358565,1.41559 -0.03046,2.01931 1.241294,2.82565 2.354058,5.71181 3.674113,8.50053 1.098627,2.20096 3.310732,3.99208 5.856352,3.96649 2.459145,0.0286 4.59053,-1.38916 6.822792,-2.21891 1.883285,-0.87628 3.900269,-1.49329 5.679812,-2.57562 2.014143,-1.24177 3.192432,-3.64973 2.909429,-6.00225 -0.245898,-2.50764 -1.617257,-4.69856 -2.490471,-7.01526 -0.698912,-1.53008 -1.245903,-3.14866 -2.036797,-4.62546 -0.206081,-0.24438 -0.5317,-0.3683 -0.847656,-0.33399 z m -2.015625,7.05274 c 0.615911,1.49479 1.358469,2.9542 1.856674,4.49115 0.23821,1.08978 -0.72293,1.93293 -1.686065,2.18724 -2.537357,1.0523 -5.039594,2.20101 -7.598343,3.19465 -1.117838,0.29946 -1.983271,-0.7092 -2.246583,-1.68884 -0.468227,-1.15463 -1.030571,-2.3172 -1.44287,-3.46741 3.704997,-1.57106 7.404653,-3.1744 11.117187,-4.71679 z m 3.033203,15.31836 c -0.996969,0.30696 -1.780926,1.10767 -2.691463,1.6118 -0.658592,0.2723 -1.28574,1.03631 -0.815447,1.73972 1.725581,2.61087 3.406712,5.25943 5.172926,7.83988 0.596045,0.64959 1.460944,0.10645 1.997013,-0.32557 0.749216,-0.56839 1.673568,-0.94495 2.31744,-1.63146 0.543847,-0.89436 -0.485819,-1.67341 -0.852535,-2.4082 -1.466421,-2.18139 -2.843635,-4.43426 -4.364262,-6.57227 -0.202787,-0.18985 -0.489298,-0.28695 -0.763672,-0.2539 z m 15.44336,6.79882 c -0.886249,0.10889 -1.355406,1.04172 -2.040656,1.52233 -4.700716,4.35395 -9.452319,8.66102 -14.121454,13.04408 -0.537858,0.69687 0.135013,1.4575 0.649465,1.9165 2.737593,2.94562 5.42751,5.94299 8.194285,8.85694 0.738355,0.56293 1.50378,-0.20011 1.98981,-0.71748 0.626379,-0.69523 1.539754,-1.1777 1.980894,-2.01494 0.266738,-0.9795 -0.862257,-1.52807 -1.338044,-2.21578 -1.424155,-1.55832 -2.875563,-3.09623 -4.28305,-4.66704 4.078172,-3.82075 8.248318,-7.55703 12.310547,-11.39257 0.537919,-0.69621 -0.136047,-1.45583 -0.649341,-1.91467 -0.775397,-0.74775 -1.389928,-1.69417 -2.260816,-2.32557 -0.134372,-0.0658 -0.282425,-0.0977 -0.43164,-0.0918 z m 15.121094,14.75196 c -0.89288,0.33136 -1.551342,1.1287 -2.353203,1.63837 -5.255613,4.00999 -10.55623,7.96848 -15.784032,12.0103 -0.574095,0.54812 0.05386,1.25074 0.588737,1.52077 1.103672,0.75291 2.118709,1.67574 3.27506,2.3286 0.828432,0.11993 1.321667,-0.79162 1.970169,-1.16396 0.477625,-0.23428 0.9399,-1.19624 1.436441,-0.53382 1.589073,1.16945 3.178145,2.33889 4.767218,3.50833 -0.342312,1.0379 -0.929588,2.02931 -1.126953,3.09573 0.150094,0.8041 1.118771,1.0485 1.647988,1.5753 0.856608,0.5509 1.595545,1.3351 2.527793,1.7391 0.889031,0.1263 0.96742,-1.0337 1.240854,-1.6178 2.393463,-6.61311 4.819618,-13.21569 7.19274,-19.8353 0.09697,-1.02699 -1.124401,-1.37025 -1.736059,-1.95597 -1.07132,-0.73466 -2.058044,-1.61918 -3.179957,-2.26473 -0.151618,-0.0437 -0.309514,-0.0777 -0.466796,-0.0449 z m -4.105469,14.17578 c -0.955729,-0.70378 -1.911459,-1.40755 -2.867188,-2.11133 1.795573,-1.43424 3.591146,-2.86849 5.386719,-4.30273 -0.839844,2.13802 -1.679688,4.27604 -2.519531,6.41406 z m 16.304687,-5.7207 c -1.060999,0.0574 -1.155199,1.36545 -1.609223,2.09068 -2.661775,5.83681 -5.388592,11.64896 -8.009917,17.50106 -0.234717,0.8511 0.68376,1.2997 1.336323,1.5254 3.006393,1.344 5.961066,2.8138 9.000078,4.0784 2.083441,0.8116 4.641282,0.4502 6.222217,-1.197 1.625007,-1.6738 2.818567,-4.1331 2.191382,-6.4946 -0.161022,-0.6141 -0.474708,-1.2084 -0.820313,-1.7129 2.699128,-0.3522 4.516771,-3.00224 4.730469,-5.57815 0.260953,-2.40722 -1.325958,-4.61527 -3.338243,-5.77515 -2.3749,-1.30613 -4.91113,-2.29725 -7.351976,-3.4741 -0.78754,-0.28752 -1.517685,-0.84826 -2.350797,-0.96364 z m 2.59961,6.75 c 1.399996,0.67951 2.881455,1.21905 4.222656,2.00781 1.039996,0.75628 0.426713,2.38442 -0.501953,2.94726 -1.046924,0.4186 -1.921828,-0.40028 -2.862925,-0.73387 -0.760738,-0.37441 -1.605773,-0.69058 -2.318716,-1.09816 0.4863,-1.03625 0.933267,-2.12669 1.460938,-3.12304 z m -3.611328,7.84374 c 1.473942,0.7119 3.036159,1.284 4.443359,2.1152 1.375978,1.1915 -0.09829,3.9422 -1.867188,3.2578 -1.385048,-0.6413 -2.836935,-1.2562 -4.169921,-1.9414 0.529416,-1.142 1.030602,-2.3148 1.59375,-3.4316 z" />
      <path
         id="path5238-96-3-6"
         style="fill:none;stroke:#9000b1;stroke-width:8.29425;stroke-linecap:round;stroke-linejoin:round;stroke-miterlimit:4;stroke-dasharray:none;stroke-opacity:1;marker-start:none;marker-end:none"
         d="M 67.663464,959.00798 H 176.88528 M 68.126594,852.74948 H 177.34841"
         sodipodi:nodetypes="cccc" />
      <path
         id="path5238-96-3-7-56-2-9"
         style="fill:none;stroke:#e15eff;stroke-width:8.29425;stroke-linecap:round;stroke-linejoin:round;stroke-miterlimit:4;stroke-dasharray:none;stroke-opacity:1;marker-start:none;marker-end:none"
         d="m 92.592477,895.11528 h 31.132903 l 10.95201,-6.9446 -0.0395,-5.9629 m -42.045413,25.5818 H 151.3621 m -58.769623,12.7669 H 151.3621 m -58.769623,8.5628 h 58.769633 m -58.769633,8.5629 H 151.3621 m -58.769623,8.5629 H 151.3621" />
      <path
         sodipodi:type="star"
         style="fill:#ffffff;fill-opacity:1;stroke:#ffffff;stroke-opacity:1"
         id="path6846-9"
         sodipodi:sides="5"
         sodipodi:cx="-130"
         sodipodi:cy="859.01007"
         sodipodi:r1="77.195747"
         sodipodi:r2="41.685707"
         sodipodi:arg1="0.78539816"
         sodipodi:arg2="1.4137167"
         inkscape:flatsided="false"
         inkscape:rounded="0.1"
         inkscape:randomized="0"
         transform="matrix(0.098912,-0.16405834,0.16405834,0.098912,-105.81032,779.80604)"
         inkscape:export-filename="C:\Users\jze\Desktop\tmp\xHainCI\embroidery\tmp\3dlab_text.png"
         inkscape:export-xdpi="1368.9301"
         inkscape:export-ydpi="1368.9301"
         d="m -75.414363,913.59571 c -3.528537,3.52853 -43.135887,-14.19378 -48.064557,-13.41315 -4.92867,0.78062 -37.121,29.87489 -41.56722,27.60943 -4.44621,-2.26546 0.16936,-45.41079 -2.0961,-49.857 -2.26546,-4.44622 -39.88372,-26.07233 -39.1031,-31.00099 0.78062,-4.92867 43.24056,-13.87164 46.76909,-17.40018 3.52854,-3.52853 12.47151,-45.98846 17.40017,-46.76909 4.92867,-0.78062 26.55478,36.83764 31.001,39.1031 4.44621,2.26546 47.591535,-2.35011 49.856994,2.0961 2.26546,4.44622 -26.828803,36.63855 -27.609427,41.56722 -0.780624,4.92867 16.941686,44.53602 13.41315,48.06456 z" />
      <path
         id="path5238-96-3-6-3"
         style="fill:#9000b1;fill-opacity:1;stroke:#9000b1;stroke-width:8.29425;stroke-linecap:round;stroke-linejoin:round;stroke-miterlimit:4;stroke-dasharray:none;stroke-opacity:1;marker-start:none;marker-end:none"
         d="m 123.03702,968.60589 h 46.23963 m -46.23963,0 0.13134,24.5082 h 46.23963 l -0.13134,-24.5082"
         sodipodi:nodetypes="cccccc" />
      <path
         id="path5238-96-3-6-3-6"
         style="fill:#e15eff;fill-opacity:1;stroke:#9000b1;stroke-width:8.29425;stroke-linecap:round;stroke-linejoin:round;stroke-miterlimit:4;stroke-dasharray:none;stroke-opacity:1;marker-start:none;marker-end:none"
         d="m 123.03702,968.60589 h 35.48543 m -35.48543,0 0.13134,24.5082 h 35.48543 l -0.13134,-24.5082"
         sodipodi:nodetypes="cccccc" />
      <circle
         style="fill:#e15eff;fill-opacity:1;stroke:#ffffff;stroke-width:0;stroke-linecap:round;stroke-linejoin:round"
         id="path1667"
         cx="163.93723"
         cy="984.01294"
         r="5.4854536" />
    </g>
  </g>
</svg>
