<?xml version="1.0" encoding="UTF-8" standalone="no"?>
<svg
   width="64.875mm"
   height="64.875mm"
   id="svg2"
   version="1.1"
   inkscape:version="1.1 (c68e22c387, 2021-05-23)"
   sodipodi:docname="scubar-65mm.svg"
   inkscape:export-filename="/home/ku3i/piraten/Gestaltung/hackspace/xHain_logo3_rev2_large.png"
   inkscape:export-xdpi="1368.9301"
   inkscape:export-ydpi="1368.9301"
   xmlns:inkscape="http://www.inkscape.org/namespaces/inkscape"
   xmlns:sodipodi="http://sodipodi.sourceforge.net/DTD/sodipodi-0.dtd"
   xmlns="http://www.w3.org/2000/svg"
   xmlns:svg="http://www.w3.org/2000/svg"
   xmlns:rdf="http://www.w3.org/1999/02/22-rdf-syntax-ns#"
   xmlns:cc="http://creativecommons.org/ns#"
   xmlns:dc="http://purl.org/dc/elements/1.1/">
  <sodipodi:namedview
     id="base"
     pagecolor="#ffffff"
     bordercolor="#666666"
     borderopacity="1.0"
     inkscape:pageopacity="0.0"
     inkscape:pageshadow="2"
     inkscape:zoom="2.8927504"
     inkscape:cx="81.410411"
     inkscape:cy="127.38742"
     inkscape:document-units="mm"
     inkscape:current-layer="layer1"
     showgrid="false"
     inkscape:window-width="1920"
     inkscape:window-height="1137"
     inkscape:window-x="1912"
     inkscape:window-y="-8"
     inkscape:window-maximized="1"
     showguides="true"
     inkscape:guide-bbox="true"
     units="mm"
     inkscape:document-rotation="0"
     inkscape:pagecheckerboard="0"
     width="64.875mm">
    <inkscape:grid
       type="xygrid"
       id="grid2985"
       empspacing="5"
       visible="true"
       enabled="true"
       snapvisiblegridlinesonly="true" />
  </sodipodi:namedview>
  <defs
     id="defs4">
    <marker
       inkscape:stockid="DotS"
       orient="auto"
       refY="0"
       refX="0"
       id="DotS"
       style="overflow:visible">
      <path
         id="path3828"
         d="m -2.5,-1 c 0,2.76 -2.24,5 -5,5 -2.76,0 -5,-2.24 -5,-5 0,-2.76 2.24,-5 5,-5 2.76,0 5,2.24 5,5 z"
         style="fill-rule:evenodd;stroke:#000000;stroke-width:1pt"
         transform="matrix(0.2,0,0,0.2,1.48,0.2)"
         inkscape:connector-curvature="0" />
    </marker>
    <marker
       inkscape:stockid="DotS"
       orient="auto"
       refY="0"
       refX="0"
       id="DotS-1"
       style="overflow:visible">
      <path
         inkscape:connector-curvature="0"
         id="path3828-5"
         d="m -2.5,-1 c 0,2.76 -2.24,5 -5,5 -2.76,0 -5,-2.24 -5,-5 0,-2.76 2.24,-5 5,-5 2.76,0 5,2.24 5,5 z"
         style="fill-rule:evenodd;stroke:#000000;stroke-width:1pt"
         transform="matrix(0.2,0,0,0.2,1.48,0.2)" />
    </marker>
    <marker
       inkscape:stockid="DotS"
       orient="auto"
       refY="0"
       refX="0"
       id="marker4395"
       style="overflow:visible">
      <path
         inkscape:connector-curvature="0"
         id="path4397"
         d="m -2.5,-1 c 0,2.76 -2.24,5 -5,5 -2.76,0 -5,-2.24 -5,-5 0,-2.76 2.24,-5 5,-5 2.76,0 5,2.24 5,5 z"
         style="fill-rule:evenodd;stroke:#000000;stroke-width:1pt"
         transform="matrix(0.2,0,0,0.2,1.48,0.2)" />
    </marker>
    <marker
       inkscape:stockid="DotS"
       orient="auto"
       refY="0"
       refX="0"
       id="DotS-3"
       style="overflow:visible">
      <path
         inkscape:connector-curvature="0"
         id="path3828-0"
         d="m -2.5,-1 c 0,2.76 -2.24,5 -5,5 -2.76,0 -5,-2.24 -5,-5 0,-2.76 2.24,-5 5,-5 2.76,0 5,2.24 5,5 z"
         style="fill-rule:evenodd;stroke:#000000;stroke-width:1pt"
         transform="matrix(0.2,0,0,0.2,1.48,0.2)" />
    </marker>
    <marker
       inkscape:stockid="DotS"
       orient="auto"
       refY="0"
       refX="0"
       id="marker4427"
       style="overflow:visible">
      <path
         inkscape:connector-curvature="0"
         id="path4429"
         d="m -2.5,-1 c 0,2.76 -2.24,5 -5,5 -2.76,0 -5,-2.24 -5,-5 0,-2.76 2.24,-5 5,-5 2.76,0 5,2.24 5,5 z"
         style="fill-rule:evenodd;stroke:#000000;stroke-width:1pt"
         transform="matrix(0.2,0,0,0.2,1.48,0.2)" />
    </marker>
    <marker
       inkscape:stockid="DotS"
       orient="auto"
       refY="0"
       refX="0"
       id="DotS-2"
       style="overflow:visible">
      <path
         inkscape:connector-curvature="0"
         id="path3828-1"
         d="m -2.5,-1 c 0,2.76 -2.24,5 -5,5 -2.76,0 -5,-2.24 -5,-5 0,-2.76 2.24,-5 5,-5 2.76,0 5,2.24 5,5 z"
         style="fill-rule:evenodd;stroke:#000000;stroke-width:1pt"
         transform="matrix(0.2,0,0,0.2,1.48,0.2)" />
    </marker>
    <marker
       inkscape:stockid="DotS"
       orient="auto"
       refY="0"
       refX="0"
       id="marker4427-3"
       style="overflow:visible">
      <path
         inkscape:connector-curvature="0"
         id="path4429-9"
         d="m -2.5,-1 c 0,2.76 -2.24,5 -5,5 -2.76,0 -5,-2.24 -5,-5 0,-2.76 2.24,-5 5,-5 2.76,0 5,2.24 5,5 z"
         style="fill-rule:evenodd;stroke:#000000;stroke-width:1pt"
         transform="matrix(0.2,0,0,0.2,1.48,0.2)" />
    </marker>
    <marker
       inkscape:stockid="DotS"
       orient="auto"
       refY="0"
       refX="0"
       id="DotS-21"
       style="overflow:visible">
      <path
         inkscape:connector-curvature="0"
         id="path3828-6"
         d="m -2.5,-1 c 0,2.76 -2.24,5 -5,5 -2.76,0 -5,-2.24 -5,-5 0,-2.76 2.24,-5 5,-5 2.76,0 5,2.24 5,5 z"
         style="fill-rule:evenodd;stroke:#000000;stroke-width:1pt"
         transform="matrix(0.2,0,0,0.2,1.48,0.2)" />
    </marker>
    <marker
       inkscape:stockid="DotS"
       orient="auto"
       refY="0"
       refX="0"
       id="marker4474"
       style="overflow:visible">
      <path
         inkscape:connector-curvature="0"
         id="path4476"
         d="m -2.5,-1 c 0,2.76 -2.24,5 -5,5 -2.76,0 -5,-2.24 -5,-5 0,-2.76 2.24,-5 5,-5 2.76,0 5,2.24 5,5 z"
         style="fill-rule:evenodd;stroke:#000000;stroke-width:1pt"
         transform="matrix(0.2,0,0,0.2,1.48,0.2)" />
    </marker>
    <marker
       inkscape:stockid="DotS"
       orient="auto"
       refY="0"
       refX="0"
       id="DotS-36"
       style="overflow:visible">
      <path
         inkscape:connector-curvature="0"
         id="path3828-8"
         d="m -2.5,-1 c 0,2.76 -2.24,5 -5,5 -2.76,0 -5,-2.24 -5,-5 0,-2.76 2.24,-5 5,-5 2.76,0 5,2.24 5,5 z"
         style="fill-rule:evenodd;stroke:#000000;stroke-width:1pt"
         transform="matrix(0.2,0,0,0.2,1.48,0.2)" />
    </marker>
    <marker
       inkscape:stockid="DotS"
       orient="auto"
       refY="0"
       refX="0"
       id="marker4516"
       style="overflow:visible">
      <path
         inkscape:connector-curvature="0"
         id="path4518"
         d="m -2.5,-1 c 0,2.76 -2.24,5 -5,5 -2.76,0 -5,-2.24 -5,-5 0,-2.76 2.24,-5 5,-5 2.76,0 5,2.24 5,5 z"
         style="fill-rule:evenodd;stroke:#000000;stroke-width:1pt"
         transform="matrix(0.2,0,0,0.2,1.48,0.2)" />
    </marker>
    <marker
       inkscape:stockid="DotS"
       orient="auto"
       refY="0"
       refX="0"
       id="DotS-11"
       style="overflow:visible">
      <path
         inkscape:connector-curvature="0"
         id="path3828-58"
         d="m -2.5,-1 c 0,2.76 -2.24,5 -5,5 -2.76,0 -5,-2.24 -5,-5 0,-2.76 2.24,-5 5,-5 2.76,0 5,2.24 5,5 z"
         style="fill-rule:evenodd;stroke:#000000;stroke-width:1pt"
         transform="matrix(0.2,0,0,0.2,1.48,0.2)" />
    </marker>
    <marker
       inkscape:stockid="DotS"
       orient="auto"
       refY="0"
       refX="0"
       id="marker4954"
       style="overflow:visible">
      <path
         inkscape:connector-curvature="0"
         id="path4956"
         d="m -2.5,-1 c 0,2.76 -2.24,5 -5,5 -2.76,0 -5,-2.24 -5,-5 0,-2.76 2.24,-5 5,-5 2.76,0 5,2.24 5,5 z"
         style="fill-rule:evenodd;stroke:#000000;stroke-width:1pt"
         transform="matrix(0.2,0,0,0.2,1.48,0.2)" />
    </marker>
    <marker
       inkscape:stockid="DotS"
       orient="auto"
       refY="0"
       refX="0"
       id="DotS-7"
       style="overflow:visible">
      <path
         inkscape:connector-curvature="0"
         id="path3828-3"
         d="m -2.5,-1 c 0,2.76 -2.24,5 -5,5 -2.76,0 -5,-2.24 -5,-5 0,-2.76 2.24,-5 5,-5 2.76,0 5,2.24 5,5 z"
         style="fill-rule:evenodd;stroke:#000000;stroke-width:1pt"
         transform="matrix(0.2,0,0,0.2,1.48,0.2)" />
    </marker>
    <marker
       inkscape:stockid="DotS"
       orient="auto"
       refY="0"
       refX="0"
       id="marker5024"
       style="overflow:visible">
      <path
         inkscape:connector-curvature="0"
         id="path5026"
         d="m -2.5,-1 c 0,2.76 -2.24,5 -5,5 -2.76,0 -5,-2.24 -5,-5 0,-2.76 2.24,-5 5,-5 2.76,0 5,2.24 5,5 z"
         style="fill-rule:evenodd;stroke:#000000;stroke-width:1pt"
         transform="matrix(0.2,0,0,0.2,1.48,0.2)" />
    </marker>
    <marker
       inkscape:stockid="DotS"
       orient="auto"
       refY="0"
       refX="0"
       id="DotS-34"
       style="overflow:visible">
      <path
         inkscape:connector-curvature="0"
         id="path3828-16"
         d="m -2.5,-1 c 0,2.76 -2.24,5 -5,5 -2.76,0 -5,-2.24 -5,-5 0,-2.76 2.24,-5 5,-5 2.76,0 5,2.24 5,5 z"
         style="fill-rule:evenodd;stroke:#000000;stroke-width:1pt"
         transform="matrix(0.2,0,0,0.2,1.48,0.2)" />
    </marker>
    <marker
       inkscape:stockid="DotS"
       orient="auto"
       refY="0"
       refX="0"
       id="marker5056"
       style="overflow:visible">
      <path
         inkscape:connector-curvature="0"
         id="path5058"
         d="m -2.5,-1 c 0,2.76 -2.24,5 -5,5 -2.76,0 -5,-2.24 -5,-5 0,-2.76 2.24,-5 5,-5 2.76,0 5,2.24 5,5 z"
         style="fill-rule:evenodd;stroke:#000000;stroke-width:1pt"
         transform="matrix(0.2,0,0,0.2,1.48,0.2)" />
    </marker>
    <marker
       inkscape:stockid="DotS"
       orient="auto"
       refY="0"
       refX="0"
       id="marker4516-8"
       style="overflow:visible">
      <path
         inkscape:connector-curvature="0"
         id="path4518-5"
         d="m -2.5,-1 c 0,2.76 -2.24,5 -5,5 -2.76,0 -5,-2.24 -5,-5 0,-2.76 2.24,-5 5,-5 2.76,0 5,2.24 5,5 z"
         style="fill-rule:evenodd;stroke:#000000;stroke-width:1pt"
         transform="matrix(0.2,0,0,0.2,1.48,0.2)" />
    </marker>
    <marker
       inkscape:stockid="DotS"
       orient="auto"
       refY="0"
       refX="0"
       id="marker5088"
       style="overflow:visible">
      <path
         inkscape:connector-curvature="0"
         id="path5090"
         d="m -2.5,-1 c 0,2.76 -2.24,5 -5,5 -2.76,0 -5,-2.24 -5,-5 0,-2.76 2.24,-5 5,-5 2.76,0 5,2.24 5,5 z"
         style="fill-rule:evenodd;stroke:#000000;stroke-width:1pt"
         transform="matrix(0.2,0,0,0.2,1.48,0.2)" />
    </marker>
    <marker
       inkscape:stockid="DotS"
       orient="auto"
       refY="0"
       refX="0"
       id="marker4516-9"
       style="overflow:visible">
      <path
         inkscape:connector-curvature="0"
         id="path4518-55"
         d="m -2.5,-1 c 0,2.76 -2.24,5 -5,5 -2.76,0 -5,-2.24 -5,-5 0,-2.76 2.24,-5 5,-5 2.76,0 5,2.24 5,5 z"
         style="fill-rule:evenodd;stroke:#000000;stroke-width:1pt"
         transform="matrix(0.2,0,0,0.2,1.48,0.2)" />
    </marker>
    <marker
       inkscape:stockid="DotS"
       orient="auto"
       refY="0"
       refX="0"
       id="marker5137"
       style="overflow:visible">
      <path
         inkscape:connector-curvature="0"
         id="path5139"
         d="m -2.5,-1 c 0,2.76 -2.24,5 -5,5 -2.76,0 -5,-2.24 -5,-5 0,-2.76 2.24,-5 5,-5 2.76,0 5,2.24 5,5 z"
         style="fill-rule:evenodd;stroke:#000000;stroke-width:1pt"
         transform="matrix(0.2,0,0,0.2,1.48,0.2)" />
    </marker>
    <marker
       inkscape:stockid="DotS"
       orient="auto"
       refY="0"
       refX="0"
       id="DotS-0"
       style="overflow:visible">
      <path
         inkscape:connector-curvature="0"
         id="path3828-4"
         d="m -2.5,-1 c 0,2.76 -2.24,5 -5,5 -2.76,0 -5,-2.24 -5,-5 0,-2.76 2.24,-5 5,-5 2.76,0 5,2.24 5,5 z"
         style="fill-rule:evenodd;stroke:#000000;stroke-width:1pt"
         transform="matrix(0.2,0,0,0.2,1.48,0.2)" />
    </marker>
    <marker
       inkscape:stockid="DotS"
       orient="auto"
       refY="0"
       refX="0"
       id="marker5169"
       style="overflow:visible">
      <path
         inkscape:connector-curvature="0"
         id="path5171"
         d="m -2.5,-1 c 0,2.76 -2.24,5 -5,5 -2.76,0 -5,-2.24 -5,-5 0,-2.76 2.24,-5 5,-5 2.76,0 5,2.24 5,5 z"
         style="fill-rule:evenodd;stroke:#000000;stroke-width:1pt"
         transform="matrix(0.2,0,0,0.2,1.48,0.2)" />
    </marker>
    <marker
       inkscape:stockid="DotS"
       orient="auto"
       refY="0"
       refX="0"
       id="DotS-8"
       style="overflow:visible">
      <path
         inkscape:connector-curvature="0"
         id="path3828-66"
         d="m -2.5,-1 c 0,2.76 -2.24,5 -5,5 -2.76,0 -5,-2.24 -5,-5 0,-2.76 2.24,-5 5,-5 2.76,0 5,2.24 5,5 z"
         style="fill-rule:evenodd;stroke:#000000;stroke-width:1pt"
         transform="matrix(0.2,0,0,0.2,1.48,0.2)" />
    </marker>
    <marker
       inkscape:stockid="DotS"
       orient="auto"
       refY="0"
       refX="0"
       id="marker5218"
       style="overflow:visible">
      <path
         inkscape:connector-curvature="0"
         id="path5220"
         d="m -2.5,-1 c 0,2.76 -2.24,5 -5,5 -2.76,0 -5,-2.24 -5,-5 0,-2.76 2.24,-5 5,-5 2.76,0 5,2.24 5,5 z"
         style="fill-rule:evenodd;stroke:#000000;stroke-width:1pt"
         transform="matrix(0.2,0,0,0.2,1.48,0.2)" />
    </marker>
    <marker
       inkscape:stockid="DotSv"
       orient="auto"
       refY="0"
       refX="0"
       id="DotSv"
       style="overflow:visible">
      <path
         id="path5753"
         d="m -2.5,-1 c 0,2.76 -2.24,5 -5,5 -2.76,0 -5,-2.24 -5,-5 0,-2.76 2.24,-5 5,-5 2.76,0 5,2.24 5,5 z"
         style="fill:#858585;fill-rule:evenodd;stroke:#858585;stroke-width:1pt"
         transform="matrix(0.2,0,0,0.2,1.48,0.2)"
         inkscape:connector-curvature="0" />
    </marker>
    <marker
       inkscape:stockid="DotSs"
       orient="auto"
       refY="0"
       refX="0"
       id="DotSs"
       style="overflow:visible">
      <path
         id="path5756"
         d="m -2.5,-1 c 0,2.76 -2.24,5 -5,5 -2.76,0 -5,-2.24 -5,-5 0,-2.76 2.24,-5 5,-5 2.76,0 5,2.24 5,5 z"
         style="fill:#858585;fill-rule:evenodd;stroke:#858585;stroke-width:1pt"
         transform="matrix(0.2,0,0,0.2,1.48,0.2)"
         inkscape:connector-curvature="0" />
    </marker>
    <marker
       inkscape:stockid="DotSk"
       orient="auto"
       refY="0"
       refX="0"
       id="DotSk"
       style="overflow:visible">
      <path
         id="path5759"
         d="m -2.5,-1 c 0,2.76 -2.24,5 -5,5 -2.76,0 -5,-2.24 -5,-5 0,-2.76 2.24,-5 5,-5 2.76,0 5,2.24 5,5 z"
         style="fill:#858585;fill-rule:evenodd;stroke:#858585;stroke-width:1pt"
         transform="matrix(0.2,0,0,0.2,1.48,0.2)"
         inkscape:connector-curvature="0" />
    </marker>
    <marker
       inkscape:stockid="DotSK"
       orient="auto"
       refY="0"
       refX="0"
       id="DotSK"
       style="overflow:visible">
      <path
         id="path5762"
         d="m -2.5,-1 c 0,2.76 -2.24,5 -5,5 -2.76,0 -5,-2.24 -5,-5 0,-2.76 2.24,-5 5,-5 2.76,0 5,2.24 5,5 z"
         style="fill:#858585;fill-rule:evenodd;stroke:#858585;stroke-width:1pt"
         transform="matrix(0.2,0,0,0.2,1.48,0.2)"
         inkscape:connector-curvature="0" />
    </marker>
    <marker
       inkscape:stockid="DotSQ"
       orient="auto"
       refY="0"
       refX="0"
       id="DotSQ"
       style="overflow:visible">
      <path
         id="path5765"
         d="m -2.5,-1 c 0,2.76 -2.24,5 -5,5 -2.76,0 -5,-2.24 -5,-5 0,-2.76 2.24,-5 5,-5 2.76,0 5,2.24 5,5 z"
         style="fill:#858585;fill-rule:evenodd;stroke:#858585;stroke-width:1pt"
         transform="matrix(0.2,0,0,0.2,1.48,0.2)"
         inkscape:connector-curvature="0" />
    </marker>
    <marker
       inkscape:stockid="DotSg"
       orient="auto"
       refY="0"
       refX="0"
       id="DotSg"
       style="overflow:visible">
      <path
         id="path5768"
         d="m -2.5,-1 c 0,2.76 -2.24,5 -5,5 -2.76,0 -5,-2.24 -5,-5 0,-2.76 2.24,-5 5,-5 2.76,0 5,2.24 5,5 z"
         style="fill:#858585;fill-rule:evenodd;stroke:#858585;stroke-width:1pt"
         transform="matrix(0.2,0,0,0.2,1.48,0.2)"
         inkscape:connector-curvature="0" />
    </marker>
    <marker
       inkscape:stockid="marker4516J"
       orient="auto"
       refY="0"
       refX="0"
       id="marker4516J"
       style="overflow:visible">
      <path
         inkscape:connector-curvature="0"
         id="path5771"
         d="m -2.5,-1 c 0,2.76 -2.24,5 -5,5 -2.76,0 -5,-2.24 -5,-5 0,-2.76 2.24,-5 5,-5 2.76,0 5,2.24 5,5 z"
         style="fill:#858585;fill-rule:evenodd;stroke:#858585;stroke-width:1pt"
         transform="matrix(0.2,0,0,0.2,1.48,0.2)" />
    </marker>
    <marker
       inkscape:stockid="marker4516P"
       orient="auto"
       refY="0"
       refX="0"
       id="marker4516P"
       style="overflow:visible">
      <path
         inkscape:connector-curvature="0"
         id="path5774"
         d="m -2.5,-1 c 0,2.76 -2.24,5 -5,5 -2.76,0 -5,-2.24 -5,-5 0,-2.76 2.24,-5 5,-5 2.76,0 5,2.24 5,5 z"
         style="fill:#858585;fill-rule:evenodd;stroke:#858585;stroke-width:1pt"
         transform="matrix(0.2,0,0,0.2,1.48,0.2)" />
    </marker>
    <marker
       inkscape:stockid="DotSC"
       orient="auto"
       refY="0"
       refX="0"
       id="DotSC"
       style="overflow:visible">
      <path
         id="path5777"
         d="m -2.5,-1 c 0,2.76 -2.24,5 -5,5 -2.76,0 -5,-2.24 -5,-5 0,-2.76 2.24,-5 5,-5 2.76,0 5,2.24 5,5 z"
         style="fill:#858585;fill-rule:evenodd;stroke:#858585;stroke-width:1pt"
         transform="matrix(0.2,0,0,0.2,1.48,0.2)"
         inkscape:connector-curvature="0" />
    </marker>
    <marker
       inkscape:stockid="DotSL"
       orient="auto"
       refY="0"
       refX="0"
       id="DotSL"
       style="overflow:visible">
      <path
         id="path5780"
         d="m -2.5,-1 c 0,2.76 -2.24,5 -5,5 -2.76,0 -5,-2.24 -5,-5 0,-2.76 2.24,-5 5,-5 2.76,0 5,2.24 5,5 z"
         style="fill:#858585;fill-rule:evenodd;stroke:#858585;stroke-width:1pt"
         transform="matrix(0.2,0,0,0.2,1.48,0.2)"
         inkscape:connector-curvature="0" />
    </marker>
    <marker
       inkscape:stockid="DotSf"
       orient="auto"
       refY="0"
       refX="0"
       id="DotSf"
       style="overflow:visible">
      <path
         id="path5783"
         d="m -2.5,-1 c 0,2.76 -2.24,5 -5,5 -2.76,0 -5,-2.24 -5,-5 0,-2.76 2.24,-5 5,-5 2.76,0 5,2.24 5,5 z"
         style="fill:#858585;fill-rule:evenodd;stroke:#858585;stroke-width:1pt"
         transform="matrix(0.2,0,0,0.2,1.48,0.2)"
         inkscape:connector-curvature="0" />
    </marker>
    <marker
       inkscape:stockid="DotS7"
       orient="auto"
       refY="0"
       refX="0"
       id="DotS7"
       style="overflow:visible">
      <path
         id="path5786"
         d="m -2.5,-1 c 0,2.76 -2.24,5 -5,5 -2.76,0 -5,-2.24 -5,-5 0,-2.76 2.24,-5 5,-5 2.76,0 5,2.24 5,5 z"
         style="fill:#858585;fill-rule:evenodd;stroke:#858585;stroke-width:1pt"
         transform="matrix(0.2,0,0,0.2,1.48,0.2)"
         inkscape:connector-curvature="0" />
    </marker>
    <marker
       inkscape:stockid="DotSS"
       orient="auto"
       refY="0"
       refX="0"
       id="DotSS"
       style="overflow:visible">
      <path
         id="path5789"
         d="m -2.5,-1 c 0,2.76 -2.24,5 -5,5 -2.76,0 -5,-2.24 -5,-5 0,-2.76 2.24,-5 5,-5 2.76,0 5,2.24 5,5 z"
         style="fill:#858585;fill-rule:evenodd;stroke:#858585;stroke-width:1pt"
         transform="matrix(0.2,0,0,0.2,1.48,0.2)"
         inkscape:connector-curvature="0" />
    </marker>
    <marker
       inkscape:stockid="DotSy"
       orient="auto"
       refY="0"
       refX="0"
       id="DotSy"
       style="overflow:visible">
      <path
         id="path5792"
         d="m -2.5,-1 c 0,2.76 -2.24,5 -5,5 -2.76,0 -5,-2.24 -5,-5 0,-2.76 2.24,-5 5,-5 2.76,0 5,2.24 5,5 z"
         style="fill:#858585;fill-rule:evenodd;stroke:#858585;stroke-width:1pt"
         transform="matrix(0.2,0,0,0.2,1.48,0.2)"
         inkscape:connector-curvature="0" />
    </marker>
    <marker
       inkscape:stockid="marker4516C"
       orient="auto"
       refY="0"
       refX="0"
       id="marker4516C"
       style="overflow:visible">
      <path
         inkscape:connector-curvature="0"
         id="path5795"
         d="m -2.5,-1 c 0,2.76 -2.24,5 -5,5 -2.76,0 -5,-2.24 -5,-5 0,-2.76 2.24,-5 5,-5 2.76,0 5,2.24 5,5 z"
         style="fill:#858585;fill-rule:evenodd;stroke:#858585;stroke-width:1pt"
         transform="matrix(0.2,0,0,0.2,1.48,0.2)" />
    </marker>
    <marker
       inkscape:stockid="marker45162"
       orient="auto"
       refY="0"
       refX="0"
       id="marker45162"
       style="overflow:visible">
      <path
         inkscape:connector-curvature="0"
         id="path5798"
         d="m -2.5,-1 c 0,2.76 -2.24,5 -5,5 -2.76,0 -5,-2.24 -5,-5 0,-2.76 2.24,-5 5,-5 2.76,0 5,2.24 5,5 z"
         style="fill:#858585;fill-rule:evenodd;stroke:#858585;stroke-width:1pt"
         transform="matrix(0.2,0,0,0.2,1.48,0.2)" />
    </marker>
    <marker
       inkscape:stockid="DotSG"
       orient="auto"
       refY="0"
       refX="0"
       id="DotSG"
       style="overflow:visible">
      <path
         id="path5801"
         d="m -2.5,-1 c 0,2.76 -2.24,5 -5,5 -2.76,0 -5,-2.24 -5,-5 0,-2.76 2.24,-5 5,-5 2.76,0 5,2.24 5,5 z"
         style="fill:#858585;fill-rule:evenodd;stroke:#858585;stroke-width:1pt"
         transform="matrix(0.2,0,0,0.2,1.48,0.2)"
         inkscape:connector-curvature="0" />
    </marker>
    <marker
       inkscape:stockid="DotS5"
       orient="auto"
       refY="0"
       refX="0"
       id="DotS5"
       style="overflow:visible">
      <path
         id="path5804"
         d="m -2.5,-1 c 0,2.76 -2.24,5 -5,5 -2.76,0 -5,-2.24 -5,-5 0,-2.76 2.24,-5 5,-5 2.76,0 5,2.24 5,5 z"
         style="fill:#858585;fill-rule:evenodd;stroke:#858585;stroke-width:1pt"
         transform="matrix(0.2,0,0,0.2,1.48,0.2)"
         inkscape:connector-curvature="0" />
    </marker>
    <marker
       inkscape:stockid="DotSsA"
       orient="auto"
       refY="0"
       refX="0"
       id="DotSsA"
       style="overflow:visible">
      <path
         id="path5807"
         d="m -2.5,-1 c 0,2.76 -2.24,5 -5,5 -2.76,0 -5,-2.24 -5,-5 0,-2.76 2.24,-5 5,-5 2.76,0 5,2.24 5,5 z"
         style="fill:#858585;fill-rule:evenodd;stroke:#858585;stroke-width:1pt"
         transform="matrix(0.2,0,0,0.2,1.48,0.2)"
         inkscape:connector-curvature="0" />
    </marker>
    <marker
       inkscape:stockid="DotSLd"
       orient="auto"
       refY="0"
       refX="0"
       id="DotSLd"
       style="overflow:visible">
      <path
         id="path5810"
         d="m -2.5,-1 c 0,2.76 -2.24,5 -5,5 -2.76,0 -5,-2.24 -5,-5 0,-2.76 2.24,-5 5,-5 2.76,0 5,2.24 5,5 z"
         style="fill:#858585;fill-rule:evenodd;stroke:#858585;stroke-width:1pt"
         transform="matrix(0.2,0,0,0.2,1.48,0.2)"
         inkscape:connector-curvature="0" />
    </marker>
    <marker
       inkscape:stockid="DotSd"
       orient="auto"
       refY="0"
       refX="0"
       id="DotSd"
       style="overflow:visible">
      <path
         id="path5813"
         d="m -2.5,-1 c 0,2.76 -2.24,5 -5,5 -2.76,0 -5,-2.24 -5,-5 0,-2.76 2.24,-5 5,-5 2.76,0 5,2.24 5,5 z"
         style="fill:#858585;fill-rule:evenodd;stroke:#858585;stroke-width:1pt"
         transform="matrix(0.2,0,0,0.2,1.48,0.2)"
         inkscape:connector-curvature="0" />
    </marker>
    <marker
       inkscape:stockid="DotSyI"
       orient="auto"
       refY="0"
       refX="0"
       id="DotSyI"
       style="overflow:visible">
      <path
         id="path5816"
         d="m -2.5,-1 c 0,2.76 -2.24,5 -5,5 -2.76,0 -5,-2.24 -5,-5 0,-2.76 2.24,-5 5,-5 2.76,0 5,2.24 5,5 z"
         style="fill:#858585;fill-rule:evenodd;stroke:#858585;stroke-width:1pt"
         transform="matrix(0.2,0,0,0.2,1.48,0.2)"
         inkscape:connector-curvature="0" />
    </marker>
    <marker
       inkscape:stockid="marker4516y"
       orient="auto"
       refY="0"
       refX="0"
       id="marker4516y"
       style="overflow:visible">
      <path
         inkscape:connector-curvature="0"
         id="path5819"
         d="m -2.5,-1 c 0,2.76 -2.24,5 -5,5 -2.76,0 -5,-2.24 -5,-5 0,-2.76 2.24,-5 5,-5 2.76,0 5,2.24 5,5 z"
         style="fill:#858585;fill-rule:evenodd;stroke:#858585;stroke-width:1pt"
         transform="matrix(0.2,0,0,0.2,1.48,0.2)" />
    </marker>
    <marker
       inkscape:stockid="marker4516I"
       orient="auto"
       refY="0"
       refX="0"
       id="marker4516I"
       style="overflow:visible">
      <path
         inkscape:connector-curvature="0"
         id="path5822"
         d="m -2.5,-1 c 0,2.76 -2.24,5 -5,5 -2.76,0 -5,-2.24 -5,-5 0,-2.76 2.24,-5 5,-5 2.76,0 5,2.24 5,5 z"
         style="fill:#858585;fill-rule:evenodd;stroke:#858585;stroke-width:1pt"
         transform="matrix(0.2,0,0,0.2,1.48,0.2)" />
    </marker>
    <marker
       inkscape:stockid="marker5218b"
       orient="auto"
       refY="0"
       refX="0"
       id="marker5218b"
       style="overflow:visible">
      <path
         inkscape:connector-curvature="0"
         id="path5825"
         d="m -2.5,-1 c 0,2.76 -2.24,5 -5,5 -2.76,0 -5,-2.24 -5,-5 0,-2.76 2.24,-5 5,-5 2.76,0 5,2.24 5,5 z"
         style="fill:#858585;fill-rule:evenodd;stroke:#858585;stroke-width:1pt"
         transform="matrix(0.2,0,0,0.2,1.48,0.2)" />
    </marker>
    <marker
       inkscape:stockid="marker5218X"
       orient="auto"
       refY="0"
       refX="0"
       id="marker5218X"
       style="overflow:visible">
      <path
         inkscape:connector-curvature="0"
         id="path5828"
         d="m -2.5,-1 c 0,2.76 -2.24,5 -5,5 -2.76,0 -5,-2.24 -5,-5 0,-2.76 2.24,-5 5,-5 2.76,0 5,2.24 5,5 z"
         style="fill:#858585;fill-rule:evenodd;stroke:#858585;stroke-width:1pt"
         transform="matrix(0.2,0,0,0.2,1.48,0.2)" />
    </marker>
    <marker
       inkscape:stockid="DotSQL"
       orient="auto"
       refY="0"
       refX="0"
       id="DotSQL"
       style="overflow:visible">
      <path
         id="path6109"
         d="m -2.5,-1 c 0,2.76 -2.24,5 -5,5 -2.76,0 -5,-2.24 -5,-5 0,-2.76 2.24,-5 5,-5 2.76,0 5,2.24 5,5 z"
         style="fill:#ffc400;fill-rule:evenodd;stroke:#ffc400;stroke-width:1pt"
         transform="matrix(0.2,0,0,0.2,1.48,0.2)"
         inkscape:connector-curvature="0" />
    </marker>
    <marker
       inkscape:stockid="DotSgb"
       orient="auto"
       refY="0"
       refX="0"
       id="DotSgb"
       style="overflow:visible">
      <path
         id="path6112"
         d="m -2.5,-1 c 0,2.76 -2.24,5 -5,5 -2.76,0 -5,-2.24 -5,-5 0,-2.76 2.24,-5 5,-5 2.76,0 5,2.24 5,5 z"
         style="fill:#ffc400;fill-rule:evenodd;stroke:#ffc400;stroke-width:1pt"
         transform="matrix(0.2,0,0,0.2,1.48,0.2)"
         inkscape:connector-curvature="0" />
    </marker>
    <marker
       inkscape:stockid="marker4516J6"
       orient="auto"
       refY="0"
       refX="0"
       id="marker4516J6"
       style="overflow:visible">
      <path
         inkscape:connector-curvature="0"
         id="path6115"
         d="m -2.5,-1 c 0,2.76 -2.24,5 -5,5 -2.76,0 -5,-2.24 -5,-5 0,-2.76 2.24,-5 5,-5 2.76,0 5,2.24 5,5 z"
         style="fill:#ffc400;fill-rule:evenodd;stroke:#ffc400;stroke-width:1pt"
         transform="matrix(0.2,0,0,0.2,1.48,0.2)" />
    </marker>
    <marker
       inkscape:stockid="marker4516Pl"
       orient="auto"
       refY="0"
       refX="0"
       id="marker4516Pl"
       style="overflow:visible">
      <path
         inkscape:connector-curvature="0"
         id="path6118"
         d="m -2.5,-1 c 0,2.76 -2.24,5 -5,5 -2.76,0 -5,-2.24 -5,-5 0,-2.76 2.24,-5 5,-5 2.76,0 5,2.24 5,5 z"
         style="fill:#ffc400;fill-rule:evenodd;stroke:#ffc400;stroke-width:1pt"
         transform="matrix(0.2,0,0,0.2,1.48,0.2)" />
    </marker>
    <marker
       inkscape:stockid="DotSSB"
       orient="auto"
       refY="0"
       refX="0"
       id="DotSSB"
       style="overflow:visible">
      <path
         id="path6121"
         d="m -2.5,-1 c 0,2.76 -2.24,5 -5,5 -2.76,0 -5,-2.24 -5,-5 0,-2.76 2.24,-5 5,-5 2.76,0 5,2.24 5,5 z"
         style="fill:#ffc400;fill-rule:evenodd;stroke:#ffc400;stroke-width:1pt"
         transform="matrix(0.2,0,0,0.2,1.48,0.2)"
         inkscape:connector-curvature="0" />
    </marker>
    <marker
       inkscape:stockid="DotSyD"
       orient="auto"
       refY="0"
       refX="0"
       id="DotSyD"
       style="overflow:visible">
      <path
         id="path6124"
         d="m -2.5,-1 c 0,2.76 -2.24,5 -5,5 -2.76,0 -5,-2.24 -5,-5 0,-2.76 2.24,-5 5,-5 2.76,0 5,2.24 5,5 z"
         style="fill:#ffc400;fill-rule:evenodd;stroke:#ffc400;stroke-width:1pt"
         transform="matrix(0.2,0,0,0.2,1.48,0.2)"
         inkscape:connector-curvature="0" />
    </marker>
    <marker
       inkscape:stockid="marker4516Ct"
       orient="auto"
       refY="0"
       refX="0"
       id="marker4516Ct"
       style="overflow:visible">
      <path
         inkscape:connector-curvature="0"
         id="path6127"
         d="m -2.5,-1 c 0,2.76 -2.24,5 -5,5 -2.76,0 -5,-2.24 -5,-5 0,-2.76 2.24,-5 5,-5 2.76,0 5,2.24 5,5 z"
         style="fill:#ffc400;fill-rule:evenodd;stroke:#ffc400;stroke-width:1pt"
         transform="matrix(0.2,0,0,0.2,1.48,0.2)" />
    </marker>
    <marker
       inkscape:stockid="marker451623"
       orient="auto"
       refY="0"
       refX="0"
       id="marker451623"
       style="overflow:visible">
      <path
         inkscape:connector-curvature="0"
         id="path6130"
         d="m -2.5,-1 c 0,2.76 -2.24,5 -5,5 -2.76,0 -5,-2.24 -5,-5 0,-2.76 2.24,-5 5,-5 2.76,0 5,2.24 5,5 z"
         style="fill:#ffc400;fill-rule:evenodd;stroke:#ffc400;stroke-width:1pt"
         transform="matrix(0.2,0,0,0.2,1.48,0.2)" />
    </marker>
    <marker
       inkscape:stockid="marker4516yb"
       orient="auto"
       refY="0"
       refX="0"
       id="marker4516yb"
       style="overflow:visible">
      <path
         inkscape:connector-curvature="0"
         id="path6133"
         d="m -2.5,-1 c 0,2.76 -2.24,5 -5,5 -2.76,0 -5,-2.24 -5,-5 0,-2.76 2.24,-5 5,-5 2.76,0 5,2.24 5,5 z"
         style="fill:#ffc400;fill-rule:evenodd;stroke:#ffc400;stroke-width:1pt"
         transform="matrix(0.2,0,0,0.2,1.48,0.2)" />
    </marker>
    <marker
       inkscape:stockid="marker4516IS"
       orient="auto"
       refY="0"
       refX="0"
       id="marker4516IS"
       style="overflow:visible">
      <path
         inkscape:connector-curvature="0"
         id="path6136"
         d="m -2.5,-1 c 0,2.76 -2.24,5 -5,5 -2.76,0 -5,-2.24 -5,-5 0,-2.76 2.24,-5 5,-5 2.76,0 5,2.24 5,5 z"
         style="fill:#ffc400;fill-rule:evenodd;stroke:#ffc400;stroke-width:1pt"
         transform="matrix(0.2,0,0,0.2,1.48,0.2)" />
    </marker>
    <marker
       inkscape:stockid="DotSsAi"
       orient="auto"
       refY="0"
       refX="0"
       id="DotSsAi"
       style="overflow:visible">
      <path
         id="path6139"
         d="m -2.5,-1 c 0,2.76 -2.24,5 -5,5 -2.76,0 -5,-2.24 -5,-5 0,-2.76 2.24,-5 5,-5 2.76,0 5,2.24 5,5 z"
         style="fill:#ffc400;fill-rule:evenodd;stroke:#ffc400;stroke-width:1pt"
         transform="matrix(0.2,0,0,0.2,1.48,0.2)"
         inkscape:connector-curvature="0" />
    </marker>
    <marker
       inkscape:stockid="DotSLdG"
       orient="auto"
       refY="0"
       refX="0"
       id="DotSLdG"
       style="overflow:visible">
      <path
         id="path6142"
         d="m -2.5,-1 c 0,2.76 -2.24,5 -5,5 -2.76,0 -5,-2.24 -5,-5 0,-2.76 2.24,-5 5,-5 2.76,0 5,2.24 5,5 z"
         style="fill:#ffc400;fill-rule:evenodd;stroke:#ffc400;stroke-width:1pt"
         transform="matrix(0.2,0,0,0.2,1.48,0.2)"
         inkscape:connector-curvature="0" />
    </marker>
    <marker
       inkscape:stockid="DotSd7"
       orient="auto"
       refY="0"
       refX="0"
       id="DotSd7"
       style="overflow:visible">
      <path
         id="path6145"
         d="m -2.5,-1 c 0,2.76 -2.24,5 -5,5 -2.76,0 -5,-2.24 -5,-5 0,-2.76 2.24,-5 5,-5 2.76,0 5,2.24 5,5 z"
         style="fill:#ffc400;fill-rule:evenodd;stroke:#ffc400;stroke-width:1pt"
         transform="matrix(0.2,0,0,0.2,1.48,0.2)"
         inkscape:connector-curvature="0" />
    </marker>
    <marker
       inkscape:stockid="DotSyIp"
       orient="auto"
       refY="0"
       refX="0"
       id="DotSyIp"
       style="overflow:visible">
      <path
         id="path6148"
         d="m -2.5,-1 c 0,2.76 -2.24,5 -5,5 -2.76,0 -5,-2.24 -5,-5 0,-2.76 2.24,-5 5,-5 2.76,0 5,2.24 5,5 z"
         style="fill:#ffc400;fill-rule:evenodd;stroke:#ffc400;stroke-width:1pt"
         transform="matrix(0.2,0,0,0.2,1.48,0.2)"
         inkscape:connector-curvature="0" />
    </marker>
    <marker
       inkscape:stockid="DotSvS"
       orient="auto"
       refY="0"
       refX="0"
       id="DotSvS"
       style="overflow:visible">
      <path
         id="path6151"
         d="m -2.5,-1 c 0,2.76 -2.24,5 -5,5 -2.76,0 -5,-2.24 -5,-5 0,-2.76 2.24,-5 5,-5 2.76,0 5,2.24 5,5 z"
         style="fill:#ffc400;fill-rule:evenodd;stroke:#ffc400;stroke-width:1pt"
         transform="matrix(0.2,0,0,0.2,1.48,0.2)"
         inkscape:connector-curvature="0" />
    </marker>
    <marker
       inkscape:stockid="DotSsJ"
       orient="auto"
       refY="0"
       refX="0"
       id="DotSsJ"
       style="overflow:visible">
      <path
         id="path6154"
         d="m -2.5,-1 c 0,2.76 -2.24,5 -5,5 -2.76,0 -5,-2.24 -5,-5 0,-2.76 2.24,-5 5,-5 2.76,0 5,2.24 5,5 z"
         style="fill:#ffc400;fill-rule:evenodd;stroke:#ffc400;stroke-width:1pt"
         transform="matrix(0.2,0,0,0.2,1.48,0.2)"
         inkscape:connector-curvature="0" />
    </marker>
    <marker
       inkscape:stockid="DotSfb"
       orient="auto"
       refY="0"
       refX="0"
       id="DotSfb"
       style="overflow:visible">
      <path
         id="path6157"
         d="m -2.5,-1 c 0,2.76 -2.24,5 -5,5 -2.76,0 -5,-2.24 -5,-5 0,-2.76 2.24,-5 5,-5 2.76,0 5,2.24 5,5 z"
         style="fill:#ffc400;fill-rule:evenodd;stroke:#ffc400;stroke-width:1pt"
         transform="matrix(0.2,0,0,0.2,1.48,0.2)"
         inkscape:connector-curvature="0" />
    </marker>
    <marker
       inkscape:stockid="DotS7T"
       orient="auto"
       refY="0"
       refX="0"
       id="DotS7T"
       style="overflow:visible">
      <path
         id="path6160"
         d="m -2.5,-1 c 0,2.76 -2.24,5 -5,5 -2.76,0 -5,-2.24 -5,-5 0,-2.76 2.24,-5 5,-5 2.76,0 5,2.24 5,5 z"
         style="fill:#ffc400;fill-rule:evenodd;stroke:#ffc400;stroke-width:1pt"
         transform="matrix(0.2,0,0,0.2,1.48,0.2)"
         inkscape:connector-curvature="0" />
    </marker>
    <marker
       inkscape:stockid="DotSko"
       orient="auto"
       refY="0"
       refX="0"
       id="DotSko"
       style="overflow:visible">
      <path
         id="path6163"
         d="m -2.5,-1 c 0,2.76 -2.24,5 -5,5 -2.76,0 -5,-2.24 -5,-5 0,-2.76 2.24,-5 5,-5 2.76,0 5,2.24 5,5 z"
         style="fill:#ffc400;fill-rule:evenodd;stroke:#ffc400;stroke-width:1pt"
         transform="matrix(0.2,0,0,0.2,1.48,0.2)"
         inkscape:connector-curvature="0" />
    </marker>
    <marker
       inkscape:stockid="DotSKZ"
       orient="auto"
       refY="0"
       refX="0"
       id="DotSKZ"
       style="overflow:visible">
      <path
         id="path6166"
         d="m -2.5,-1 c 0,2.76 -2.24,5 -5,5 -2.76,0 -5,-2.24 -5,-5 0,-2.76 2.24,-5 5,-5 2.76,0 5,2.24 5,5 z"
         style="fill:#ffc400;fill-rule:evenodd;stroke:#ffc400;stroke-width:1pt"
         transform="matrix(0.2,0,0,0.2,1.48,0.2)"
         inkscape:connector-curvature="0" />
    </marker>
    <marker
       inkscape:stockid="DotSCa"
       orient="auto"
       refY="0"
       refX="0"
       id="DotSCa"
       style="overflow:visible">
      <path
         id="path6169"
         d="m -2.5,-1 c 0,2.76 -2.24,5 -5,5 -2.76,0 -5,-2.24 -5,-5 0,-2.76 2.24,-5 5,-5 2.76,0 5,2.24 5,5 z"
         style="fill:#ffc400;fill-rule:evenodd;stroke:#ffc400;stroke-width:1pt"
         transform="matrix(0.2,0,0,0.2,1.48,0.2)"
         inkscape:connector-curvature="0" />
    </marker>
    <marker
       inkscape:stockid="DotSLi"
       orient="auto"
       refY="0"
       refX="0"
       id="DotSLi"
       style="overflow:visible">
      <path
         id="path6172"
         d="m -2.5,-1 c 0,2.76 -2.24,5 -5,5 -2.76,0 -5,-2.24 -5,-5 0,-2.76 2.24,-5 5,-5 2.76,0 5,2.24 5,5 z"
         style="fill:#ffc400;fill-rule:evenodd;stroke:#ffc400;stroke-width:1pt"
         transform="matrix(0.2,0,0,0.2,1.48,0.2)"
         inkscape:connector-curvature="0" />
    </marker>
    <marker
       inkscape:stockid="marker5218bQ"
       orient="auto"
       refY="0"
       refX="0"
       id="marker5218bQ"
       style="overflow:visible">
      <path
         inkscape:connector-curvature="0"
         id="path6175"
         d="m -2.5,-1 c 0,2.76 -2.24,5 -5,5 -2.76,0 -5,-2.24 -5,-5 0,-2.76 2.24,-5 5,-5 2.76,0 5,2.24 5,5 z"
         style="fill:#ffc400;fill-rule:evenodd;stroke:#ffc400;stroke-width:1pt"
         transform="matrix(0.2,0,0,0.2,1.48,0.2)" />
    </marker>
    <marker
       inkscape:stockid="marker5218XM"
       orient="auto"
       refY="0"
       refX="0"
       id="marker5218XM"
       style="overflow:visible">
      <path
         inkscape:connector-curvature="0"
         id="path6178"
         d="m -2.5,-1 c 0,2.76 -2.24,5 -5,5 -2.76,0 -5,-2.24 -5,-5 0,-2.76 2.24,-5 5,-5 2.76,0 5,2.24 5,5 z"
         style="fill:#ffc400;fill-rule:evenodd;stroke:#ffc400;stroke-width:1pt"
         transform="matrix(0.2,0,0,0.2,1.48,0.2)" />
    </marker>
    <marker
       inkscape:stockid="DotSGn"
       orient="auto"
       refY="0"
       refX="0"
       id="DotSGn"
       style="overflow:visible">
      <path
         id="path6181"
         d="m -2.5,-1 c 0,2.76 -2.24,5 -5,5 -2.76,0 -5,-2.24 -5,-5 0,-2.76 2.24,-5 5,-5 2.76,0 5,2.24 5,5 z"
         style="fill:#ffc400;fill-rule:evenodd;stroke:#ffc400;stroke-width:1pt"
         transform="matrix(0.2,0,0,0.2,1.48,0.2)"
         inkscape:connector-curvature="0" />
    </marker>
    <marker
       inkscape:stockid="DotS5R"
       orient="auto"
       refY="0"
       refX="0"
       id="DotS5R"
       style="overflow:visible">
      <path
         id="path6184"
         d="m -2.5,-1 c 0,2.76 -2.24,5 -5,5 -2.76,0 -5,-2.24 -5,-5 0,-2.76 2.24,-5 5,-5 2.76,0 5,2.24 5,5 z"
         style="fill:#ffc400;fill-rule:evenodd;stroke:#ffc400;stroke-width:1pt"
         transform="matrix(0.2,0,0,0.2,1.48,0.2)"
         inkscape:connector-curvature="0" />
    </marker>
    <marker
       inkscape:stockid="DotSd7"
       orient="auto"
       refY="0"
       refX="0"
       id="DotSd7-9"
       style="overflow:visible">
      <path
         inkscape:connector-curvature="0"
         id="path6145-2"
         d="m -2.5,-1 c 0,2.76 -2.24,5 -5,5 -2.76,0 -5,-2.24 -5,-5 0,-2.76 2.24,-5 5,-5 2.76,0 5,2.24 5,5 z"
         style="fill:#ffc400;fill-rule:evenodd;stroke:#ffc400;stroke-width:1pt"
         transform="matrix(0.2,0,0,0.2,1.48,0.2)" />
    </marker>
    <marker
       inkscape:stockid="DotSyIp"
       orient="auto"
       refY="0"
       refX="0"
       id="DotSyIp-9"
       style="overflow:visible">
      <path
         inkscape:connector-curvature="0"
         id="path6148-2"
         d="m -2.5,-1 c 0,2.76 -2.24,5 -5,5 -2.76,0 -5,-2.24 -5,-5 0,-2.76 2.24,-5 5,-5 2.76,0 5,2.24 5,5 z"
         style="fill:#ffc400;fill-rule:evenodd;stroke:#ffc400;stroke-width:1pt"
         transform="matrix(0.2,0,0,0.2,1.48,0.2)" />
    </marker>
    <marker
       inkscape:stockid="DotSGn"
       orient="auto"
       refY="0"
       refX="0"
       id="DotSGn-0"
       style="overflow:visible">
      <path
         inkscape:connector-curvature="0"
         id="path6181-6"
         d="m -2.5,-1 c 0,2.76 -2.24,5 -5,5 -2.76,0 -5,-2.24 -5,-5 0,-2.76 2.24,-5 5,-5 2.76,0 5,2.24 5,5 z"
         style="fill:#ffc400;fill-rule:evenodd;stroke:#ffc400;stroke-width:1pt"
         transform="matrix(0.2,0,0,0.2,1.48,0.2)" />
    </marker>
    <marker
       inkscape:stockid="DotS5R"
       orient="auto"
       refY="0"
       refX="0"
       id="DotS5R-3"
       style="overflow:visible">
      <path
         inkscape:connector-curvature="0"
         id="path6184-9"
         d="m -2.5,-1 c 0,2.76 -2.24,5 -5,5 -2.76,0 -5,-2.24 -5,-5 0,-2.76 2.24,-5 5,-5 2.76,0 5,2.24 5,5 z"
         style="fill:#ffc400;fill-rule:evenodd;stroke:#ffc400;stroke-width:1pt"
         transform="matrix(0.2,0,0,0.2,1.48,0.2)" />
    </marker>
    <marker
       inkscape:stockid="marker5218bQ"
       orient="auto"
       refY="0"
       refX="0"
       id="marker5218bQ-7"
       style="overflow:visible">
      <path
         inkscape:connector-curvature="0"
         id="path6175-9"
         d="m -2.5,-1 c 0,2.76 -2.24,5 -5,5 -2.76,0 -5,-2.24 -5,-5 0,-2.76 2.24,-5 5,-5 2.76,0 5,2.24 5,5 z"
         style="fill:#ffc400;fill-rule:evenodd;stroke:#ffc400;stroke-width:1pt"
         transform="matrix(0.2,0,0,0.2,1.48,0.2)" />
    </marker>
    <marker
       inkscape:stockid="marker5218XM"
       orient="auto"
       refY="0"
       refX="0"
       id="marker5218XM-8"
       style="overflow:visible">
      <path
         inkscape:connector-curvature="0"
         id="path6178-2"
         d="m -2.5,-1 c 0,2.76 -2.24,5 -5,5 -2.76,0 -5,-2.24 -5,-5 0,-2.76 2.24,-5 5,-5 2.76,0 5,2.24 5,5 z"
         style="fill:#ffc400;fill-rule:evenodd;stroke:#ffc400;stroke-width:1pt"
         transform="matrix(0.2,0,0,0.2,1.48,0.2)" />
    </marker>
    <marker
       inkscape:stockid="marker5218bQ"
       orient="auto"
       refY="0"
       refX="0"
       id="marker5218bQ-9"
       style="overflow:visible">
      <path
         inkscape:connector-curvature="0"
         id="path6175-95"
         d="m -2.5,-1 c 0,2.76 -2.24,5 -5,5 -2.76,0 -5,-2.24 -5,-5 0,-2.76 2.24,-5 5,-5 2.76,0 5,2.24 5,5 z"
         style="fill:#ffc400;fill-rule:evenodd;stroke:#ffc400;stroke-width:1pt"
         transform="matrix(0.2,0,0,0.2,1.48,0.2)" />
    </marker>
    <marker
       inkscape:stockid="marker5218XM"
       orient="auto"
       refY="0"
       refX="0"
       id="marker5218XM-4"
       style="overflow:visible">
      <path
         inkscape:connector-curvature="0"
         id="path6178-29"
         d="m -2.5,-1 c 0,2.76 -2.24,5 -5,5 -2.76,0 -5,-2.24 -5,-5 0,-2.76 2.24,-5 5,-5 2.76,0 5,2.24 5,5 z"
         style="fill:#ffc400;fill-rule:evenodd;stroke:#ffc400;stroke-width:1pt"
         transform="matrix(0.2,0,0,0.2,1.48,0.2)" />
    </marker>
    <marker
       inkscape:stockid="DotSGn"
       orient="auto"
       refY="0"
       refX="0"
       id="DotSGn-08"
       style="overflow:visible">
      <path
         inkscape:connector-curvature="0"
         id="path6181-5"
         d="m -2.5,-1 c 0,2.76 -2.24,5 -5,5 -2.76,0 -5,-2.24 -5,-5 0,-2.76 2.24,-5 5,-5 2.76,0 5,2.24 5,5 z"
         style="fill:#ffc400;fill-rule:evenodd;stroke:#ffc400;stroke-width:1pt"
         transform="matrix(0.2,0,0,0.2,1.48,0.2)" />
    </marker>
    <marker
       inkscape:stockid="DotS5R"
       orient="auto"
       refY="0"
       refX="0"
       id="DotS5R-8"
       style="overflow:visible">
      <path
         inkscape:connector-curvature="0"
         id="path6184-1"
         d="m -2.5,-1 c 0,2.76 -2.24,5 -5,5 -2.76,0 -5,-2.24 -5,-5 0,-2.76 2.24,-5 5,-5 2.76,0 5,2.24 5,5 z"
         style="fill:#ffc400;fill-rule:evenodd;stroke:#ffc400;stroke-width:1pt"
         transform="matrix(0.2,0,0,0.2,1.48,0.2)" />
    </marker>
    <marker
       inkscape:stockid="marker4516Ct"
       orient="auto"
       refY="0"
       refX="0"
       id="marker4516Ct-0"
       style="overflow:visible">
      <path
         inkscape:connector-curvature="0"
         id="path6127-3"
         d="m -2.5,-1 c 0,2.76 -2.24,5 -5,5 -2.76,0 -5,-2.24 -5,-5 0,-2.76 2.24,-5 5,-5 2.76,0 5,2.24 5,5 z"
         style="fill:#ffc400;fill-rule:evenodd;stroke:#ffc400;stroke-width:1pt"
         transform="matrix(0.2,0,0,0.2,1.48,0.2)" />
    </marker>
    <marker
       inkscape:stockid="marker451623"
       orient="auto"
       refY="0"
       refX="0"
       id="marker451623-8"
       style="overflow:visible">
      <path
         inkscape:connector-curvature="0"
         id="path6130-8"
         d="m -2.5,-1 c 0,2.76 -2.24,5 -5,5 -2.76,0 -5,-2.24 -5,-5 0,-2.76 2.24,-5 5,-5 2.76,0 5,2.24 5,5 z"
         style="fill:#ffc400;fill-rule:evenodd;stroke:#ffc400;stroke-width:1pt"
         transform="matrix(0.2,0,0,0.2,1.48,0.2)" />
    </marker>
    <marker
       inkscape:stockid="marker5218bQ"
       orient="auto"
       refY="0"
       refX="0"
       id="marker5218bQ-0"
       style="overflow:visible">
      <path
         inkscape:connector-curvature="0"
         id="path6175-8"
         d="m -2.5,-1 c 0,2.76 -2.24,5 -5,5 -2.76,0 -5,-2.24 -5,-5 0,-2.76 2.24,-5 5,-5 2.76,0 5,2.24 5,5 z"
         style="fill:#ffc400;fill-rule:evenodd;stroke:#ffc400;stroke-width:1pt"
         transform="matrix(0.2,0,0,0.2,1.48,0.2)" />
    </marker>
    <marker
       inkscape:stockid="marker5218XM"
       orient="auto"
       refY="0"
       refX="0"
       id="marker5218XM-86"
       style="overflow:visible">
      <path
         inkscape:connector-curvature="0"
         id="path6178-7"
         d="m -2.5,-1 c 0,2.76 -2.24,5 -5,5 -2.76,0 -5,-2.24 -5,-5 0,-2.76 2.24,-5 5,-5 2.76,0 5,2.24 5,5 z"
         style="fill:#ffc400;fill-rule:evenodd;stroke:#ffc400;stroke-width:1pt"
         transform="matrix(0.2,0,0,0.2,1.48,0.2)" />
    </marker>
    <circle
       transform="matrix(0.8755829,0,0,0.8755829,152.4506,-680.83707)"
       id="path6572"
       style="fill:none;stroke:none"
       cx="675.71429"
       cy="777.58148"
       r="584.28571" />
    <circle
       transform="matrix(-1.1162727,-0.04357729,-0.04357729,1.1162727,1532.2608,-838.54723)"
       id="path6572-9"
       style="fill:none;stroke:none"
       cx="675.71429"
       cy="777.58148"
       r="584.28571" />
  </defs>
  <metadata
     id="metadata7">
    <rdf:RDF>
      <cc:Work
         rdf:about="">
        <dc:format>image/svg+xml</dc:format>
        <dc:type
           rdf:resource="http://purl.org/dc/dcmitype/StillImage" />
      </cc:Work>
    </rdf:RDF>
  </metadata>
  <g
     inkscape:label="Ebene 1"
     inkscape:groupmode="layer"
     id="layer1"
     transform="translate(0,-783.07098)">
    <g
       id="g1592"
       transform="translate(0.59347206,0.59362394)">
      <path
         style="fill:#ff2bff;fill-opacity:1;stroke:none;stroke-width:0.755906;stroke-miterlimit:4;stroke-dasharray:none;stroke-opacity:1"
         d="m 109.10282,864.94261 c 1.02828,-0.0151 1.98577,0.20539 2.80468,0.73633 4.44254,2.88034 8.40969,13.87277 9.20118,17.10351 0.13477,0.55014 0.19943,1.28739 0.23828,2.08204 5.26282,2.16771 11.24448,5.18914 14.78906,6.92382 5.82252,2.84948 23.91541,5.38003 30.48242,7.28125 6.56701,1.90122 12.64872,1.49102 14.86914,3.15821 2.22042,1.6672 3.32609,3.20937 0.39649,7.59961 -2.92958,4.39024 -15.23295,8.10809 -24.70313,14.41406 -9.47019,6.30597 -16.61961,10.0639 -27.49218,15.20703 -10.8726,5.14313 -24.87662,6.76717 -33.156256,3.85547 -2.58669,-0.98178 -10.191854,-3.51988 -15.613276,-8.99414 -0.940172,-0.82597 -2.200554,-2.54246 -2.931682,-3.66588 -0.471167,-0.74381 -0.913169,-1.51294 -1.285156,-2.33789 -4.180939,-9.272 -2.746479,-15.05309 2.699219,-26.84765 -2.895467,-3.32161 -3.575891,-6.81177 -2.796875,-11.45313 0.78468,-4.67511 3.201069,-6.93686 7.582031,-5.11914 4.693799,1.94754 4.754469,3.2286 5.75,2.9375 0.441011,-0.41832 1.003217,-0.81464 1.675781,-1.18945 1.113601,-1.88855 -0.148143,-6.2918 5.373048,-14.41992 1.85236,-2.72702 7.661316,-7.20613 12.117186,-7.27149 z"
         id="path5802-1-3-0"
         sodipodi:nodetypes="csscsssssscccscssccscc" />
      <path
         id="path5802-1-3-7"
         style="fill:#b801b8;fill-opacity:1;stroke:#000000;stroke-width:3.78;stroke-miterlimit:4;stroke-dasharray:none;stroke-opacity:1"
         d="m 122.41499,784.36736 c -61.476439,0.016 -114.1633808,46.60113 -120.4921808,109.08203 -6.75074,66.6463 41.8029438,126.14381 108.4492108,132.89451 66.64631,6.7508 126.15162,-41.80291 132.90234,-108.4492 6.75075,-66.64627 -41.81075,-126.14378 -108.45703,-132.89453 -4.1654,-0.42192 -8.30392,-0.63387 -12.40234,-0.63281 z m 0.18359,38.71875 a 82.583641,82.583641 0 0 1 77.97461,55.3789 l 15.06641,-8.86523 4.54297,7.37891 -15.13477,24.0039 a 82.583641,82.583641 0 0 1 0.13477,4.68555 82.583641,82.583641 0 0 1 -82.58399,82.58398 82.583641,82.583641 0 0 1 -39.380849,-9.99609 l 0.03711,11.67188 -24.892578,0.008 -0.242187,-28.26953 -17.021485,-20.2168 4.550781,-5.79883 a 82.583641,82.583641 0 0 1 -5.634766,-29.98261 82.583641,82.583641 0 0 1 82.583974,-82.58203 z" />
      <path
         id="path8845"
         style="font-size:34.6667px;line-height:1.25;font-family:'Politics Head';-inkscape-font-specification:'Politics Head';fill:#ffffff"
         d="m 124.25977,9.3398438 c -0.81427,-0.002 -0.96891,1.0108612 -0.54297,1.5507812 1.46821,3.30179 2.97264,6.595834 4.41797,9.902344 -2.28737,3.41802 -4.64956,6.790147 -6.92383,10.216797 -0.32896,0.69257 0.40109,1.240276 1.04883,1.154296 1.48535,0.0951 2.97248,0.350919 4.45703,0.355469 0.91669,-0.22298 1.13412,-1.327349 1.68164,-1.974609 0.8722,-1.37956 1.8048,-2.739038 2.40234,-4.267578 0.78078,2.17563 1.57516,4.35432 2.44141,6.49414 0.57782,0.7531 1.6692,0.438793 2.48242,0.626954 1.09854,0.0341 2.21345,0.334608 3.30273,0.205078 0.72746,-0.22344 0.52419,-1.098192 0.20118,-1.582032 -1.4642,-3.32224 -3.02178,-6.661076 -4.42774,-9.972656 2.24629,-3.32941 4.54262,-6.633165 6.75781,-9.978516 0.3356,-0.686169 -0.34599,-1.374009 -1.04882,-1.25 -1.52749,-0.0945 -3.05866,-0.370921 -4.58399,-0.357421 -0.8416,0.27366 -1.05093,1.31295 -1.58789,1.9375 -0.86468,1.33366 -1.71951,2.692365 -2.32617,4.166015 -0.40136,-1.37725 -1.10369,-2.890242 -1.62891,-4.326172 -0.39906,-0.75803 -0.45729,-1.751537 -1.11719,-2.3359371 -1.0989,-0.3619 -2.30928,-0.2535275 -3.45117,-0.4296875 -0.51844,-0.0409 -1.03617,-0.1084956 -1.55468,-0.1347656 z m -21.52735,1.8554682 c -1.88594,0.146421 -3.743416,0.583232 -5.572264,1.050782 -2.258497,0.65005 -4.364262,2.387611 -4.769531,4.800781 -0.411354,2.18047 0.457948,4.322881 0.779297,6.457031 0.550007,2.49224 0.921288,5.029278 1.589844,7.492188 0.594357,2.06342 2.380661,3.73872 4.53125,4.03125 2.362634,0.3938 4.706774,-0.359642 7.001954,-0.826172 2.30187,-0.57769 4.55254,-2.176879 5.10547,-4.59961 0.56704,-2.274409 -0.37727,-4.543173 -0.71485,-6.777343 -0.55411,-2.50719 -0.9261,-5.05982 -1.59961,-7.53711 -0.6207,-2.06743 -2.42924,-3.72617 -4.59375,-4 -0.58174,-0.0899 -1.1699,-0.116616 -1.75781,-0.0918 z m 47.12696,1.625 -0.0645,0.01367 c -1.05079,0.17183 -0.99525,1.48521 -1.36719,2.25586 -2.01805,6.13707 -4.07822,12.26176 -6.07031,18.40625 -0.16188,0.83679 0.72494,1.245077 1.39844,1.373047 1.07325,0.28778 2.10214,0.825813 3.20312,0.964843 1.0136,-0.10056 1.01353,-1.348515 1.3379,-2.072265 0.70637,-2.06946 1.34679,-4.202472 2.09374,-6.232422 1.98345,0.66744 4.02688,1.28522 5.96876,2 -0.83084,2.60364 -1.75184,5.184355 -2.54493,7.796875 -0.1402,0.87191 0.82426,1.211221 1.4961,1.363281 1.0415,0.27771 2.03822,0.804514 3.10742,0.933594 1.0136,-0.10057 1.01354,-1.348526 1.33789,-2.072266 2.03897,-6.19972 4.11982,-12.3866 6.13281,-18.59375 0.1621,-0.83718 -0.72417,-1.24753 -1.39844,-1.375 -1.07582,-0.28545 -2.10713,-0.83377 -3.21093,-0.96289 -1.04183,0.12518 -1.0129,1.420995 -1.36133,2.166015 -0.64372,1.87618 -1.21853,3.82214 -1.9043,5.65625 -1.9828,-0.66804 -4.02557,-1.286603 -5.96679,-2.001953 0.77735,-2.44285 1.64517,-4.862723 2.38476,-7.314453 0.14021,-0.87191 -0.82425,-1.211221 -1.49609,-1.363281 -1.0309,-0.28735 -2.01974,-0.772576 -3.07617,-0.941407 z m -66.621099,3.660157 c -1.559532,0.53312 -3.039831,1.321035 -4.570312,1.947265 -2.776708,1.24076 -5.588299,2.417576 -8.34375,3.697266 -0.738387,0.48129 -0.347413,1.422327 -0.0098,2.023438 0.435306,0.831609 0.652349,1.802531 1.220703,2.550781 0.755766,0.67732 1.675757,-0.153995 2.429688,-0.396485 0.753561,-0.30614 1.516618,-0.71538 2.265625,-0.96289 2.254127,5.04425 4.418516,10.135962 6.701172,15.164062 0.481908,0.73885 1.423985,0.347586 2.02539,0.0098 0.959429,-0.49396 2.061747,-0.763015 2.9375,-1.390625 0.677344,-0.75578 -0.153895,-1.675798 -0.396484,-2.429688 -1.996279,-4.56468 -4.031148,-9.121686 -6.003906,-13.691406 1.26776,-0.63941 2.657327,-1.064602 3.875,-1.789062 0.730112,-0.74992 -0.108367,-1.70625 -0.363282,-2.46875 -0.452356,-0.74169 -0.500512,-1.889071 -1.40039,-2.244141 -0.121823,-0.003 -0.246211,-0.04253 -0.367188,-0.01953 z m 19.152339,0.136719 c 1.10592,0.0552 1.53317,1.235041 1.6211,2.169921 0.56255,2.89212 1.21202,5.772185 1.72266,8.671875 0.10799,1.06727 -0.88489,1.807917 -1.86719,1.841797 -1.07183,0.1019 -2.32909,0.83157 -3.29297,0.03711 -0.840844,-0.85832 -0.694317,-2.188182 -1.029298,-3.269532 -0.463141,-2.39936 -1.010044,-4.786899 -1.423828,-7.193359 -0.08987,-1.00731 0.804551,-1.793992 1.767578,-1.826172 0.834008,-0.13058 1.656148,-0.41522 2.501948,-0.43164 z m 76.38086,8.333984 c -0.85324,0.15613 -1.33104,1.043832 -2.01562,1.513672 -5.03655,4.53324 -10.12062,9.024284 -15.12695,13.583984 -0.53186,0.59332 0.15356,1.243913 0.70898,1.470703 1.16264,0.66021 2.24913,1.502418 3.45703,2.054688 0.83307,0.0467 1.24983,-0.896273 1.86524,-1.320313 0.4569,-0.27195 0.84035,-1.266664 1.38867,-0.646484 1.67852,1.03677 3.35664,2.072605 5.03515,3.109375 -0.25774,1.0607 -0.75862,2.094175 -0.87304,3.171875 0.21293,0.79066 1.20023,0.959106 1.77148,1.441406 0.89948,0.47809 1.69624,1.206181 2.66211,1.525391 0.85656,0.0644 0.87494,-1.032265 1.07617,-1.615235 1.85707,-6.81696 3.75233,-13.624975 5.58594,-20.447265 0.0195,-1.03204 -1.23094,-1.27882 -1.88672,-1.8125 -1.127,-0.64501 -2.18068,-1.446657 -3.35156,-1.998047 -0.0987,-0.006 -0.19729,-0.05065 -0.29688,-0.03125 z M 56.505859,30.646484 C 55.549202,31.061654 54.851996,31.93409 54,32.53125 c -2.79942,2.31208 -5.650214,4.570956 -8.417969,6.916016 -0.575973,0.66374 0.05261,1.460748 0.53711,1.949218 4.22972,5.15782 8.428437,10.344155 12.677734,15.484375 0.619267,0.58317 1.439944,0.05483 1.908203,-0.445312 3.289153,-2.71163 6.626808,-5.372695 9.886719,-8.115235 0.580909,-0.66186 -0.04809,-1.463341 -0.533203,-1.951171 -0.674892,-0.69119 -1.123569,-1.648655 -1.945313,-2.171875 -0.930041,-0.33977 -1.54261,0.708758 -2.226562,1.136718 -1.828185,1.48038 -3.639187,3.006265 -5.478516,4.458985 -0.726926,-0.88663 -1.527314,-1.786149 -2.175781,-2.699219 1.856332,-1.55769 3.781034,-3.042723 5.611328,-4.626953 0.575993,-0.66377 -0.05298,-1.460449 -0.537109,-1.949219 -0.642904,-0.68432 -1.110408,-1.564669 -1.861329,-2.130859 -0.908132,-0.44937 -1.571727,0.600956 -2.232421,1.035156 -1.46728,1.16707 -2.91128,2.444422 -4.392579,3.544922 -0.67564,-0.84835 -1.448822,-1.688431 -2.050781,-2.556641 2.249095,-1.87724 4.56157,-3.68625 6.78711,-5.58789 0.580909,-0.66186 -0.04809,-1.463342 -0.533203,-1.951172 -0.655713,-0.69747 -1.128796,-1.59601 -1.90625,-2.16211 -0.193684,-0.0724 -0.408982,-0.11503 -0.611329,-0.0625 z m 121.140621,2.19336 -1.99218,6.595703 c -1.00977,-0.6237 -2.01953,-1.247394 -3.0293,-1.871094 1.67383,-1.57487 3.34766,-3.149739 5.02148,-4.724609 z m 16.91993,3.386718 c -0.87392,0.194521 -1.24122,1.177423 -1.87305,1.726563 -4.21703,4.82485 -8.49261,9.607934 -12.67383,14.458984 -0.4626,0.74794 0.29018,1.431945 0.84766,1.833985 0.85105,0.66315 1.56178,1.540945 2.49609,2.078125 0.97179,0.30003 1.45821,-0.843363 2.03906,-1.382813 4.3021,-4.90834 8.63423,-9.793757 12.91797,-14.716797 0.47189,-0.70818 -0.18058,-1.43151 -0.75195,-1.8125 -0.85963,-0.68712 -1.60345,-1.542019 -2.53125,-2.130859 -0.15128,-0.0465 -0.31284,-0.08099 -0.4707,-0.05469 z m 10.11718,9.490235 c -0.96262,0.39919 -1.66708,1.270042 -2.52539,1.857422 -4.7816,3.85163 -9.61159,7.650976 -14.36328,11.535156 -0.5888,0.65607 0.0302,1.465404 0.51172,1.958984 0.72425,0.80043 1.26972,1.791116 2.10156,2.478516 0.90525,0.46113 1.58212,-0.579746 2.24805,-1.009766 2.2028,-1.81384 4.52479,-3.489078 6.59766,-5.455078 -1.41672,3.93438 -2.9095,7.847342 -4.2793,11.794922 -0.0509,0.89966 0.87813,1.436718 1.30078,2.142578 0.60285,0.57196 0.97791,1.759951 1.98047,1.644531 0.87565,-0.297609 1.47424,-1.113204 2.23828,-1.615234 4.88568,-3.93497 9.82001,-7.817636 14.67578,-11.785156 0.5889,-0.65704 -0.0287,-1.465394 -0.51172,-1.958984 -0.7231,-0.8004 -1.27113,-1.786503 -2.09961,-2.476563 -0.9056,-0.46632 -1.58369,0.577932 -2.25,1.007813 -2.37133,1.95793 -4.90154,3.739271 -7.05078,5.951171 1.57562,-4.08554 3.22733,-8.149886 4.75586,-12.248047 0.0482,-0.936919 -0.9258,-1.498438 -1.36523,-2.236328 -0.58753,-0.5543 -0.97691,-1.757077 -1.96485,-1.585937 z M 37.824219,47.177734 c -0.968393,0.0709 -1.267214,1.211014 -1.865235,1.814454 -0.468437,0.79286 -1.323351,1.421073 -1.501953,2.345703 0.149876,0.89343 0.865088,1.597419 1.244141,2.412109 1.642531,2.80049 3.275276,5.607947 4.923828,8.404297 -3.967493,-0.91176 -7.930401,-1.881652 -11.908203,-2.732422 -0.957798,0.0825 -1.264258,1.20657 -1.857422,1.8125 -0.466663,0.78381 -1.287537,1.401851 -1.507813,2.306641 -0.0044,0.98044 1.146228,1.292046 1.738282,1.873046 5.207487,3.84749 10.376783,7.754224 15.607422,11.564454 0.829598,0.41219 1.437162,-0.478912 1.818359,-1.076172 0.567841,-0.87316 1.365736,-1.622653 1.796875,-2.570313 0.206971,-1.02751 -1.028946,-1.408646 -1.626953,-1.972656 -1.970133,-1.44032 -3.884035,-2.963944 -5.943359,-4.277344 2.347948,0.58783 4.68466,1.259694 7.044921,1.777344 0.955932,-0.13362 1.271213,-1.244467 1.873047,-1.867187 0.462208,-0.575321 1.175258,-1.372206 0.578125,-2.109376 -1.133942,-1.944089 -2.257824,-3.894024 -3.398437,-5.833984 2.294711,1.91927 4.737838,3.662156 7.15625,5.416016 0.829596,0.41219 1.437244,-0.478862 1.818359,-1.076172 0.553173,-0.85548 1.339936,-1.585355 1.755859,-2.515625 0.206975,-1.02751 -1.028934,-1.408666 -1.626953,-1.972656 -5.231756,-3.86557 -10.425997,-7.790351 -15.68164,-11.619141 -0.131086,-0.0635 -0.291786,-0.104316 -0.4375,-0.103516 z M 23.113281,74.429688 c -2.411297,0.069 -4.306565,1.962112 -5.269531,4.039062 -0.752508,1.74907 -1.581479,3.498264 -1.974609,5.371094 -0.488345,2.23494 0.212775,4.776065 2.095703,6.171875 1.635305,1.22992 3.683071,1.694727 5.523437,2.529297 2.325514,0.87998 4.590729,1.936548 6.957031,2.699218 2.051322,0.63742 4.43451,0.05735 5.855469,-1.583984 1.623133,-1.75892 2.27338,-4.132288 3.142578,-6.304688 0.794338,-2.279729 0.657253,-5.096569 -1.136718,-6.880859 -1.597124,-1.65138 -3.956947,-2.100104 -5.976563,-3.027344 -2.387006,-0.90402 -4.712588,-1.987497 -7.140625,-2.773437 -0.6742,-0.18238 -1.377272,-0.275404 -2.076172,-0.240234 z M 23.625,80.396484 c 0.140275,-0.005 0.280087,-0.0204 0.419922,0 1.632134,0.45878 3.16695,1.238013 4.761719,1.820313 1.606446,0.69246 3.298188,1.216575 4.851562,2.015625 0.855464,0.56833 0.799568,1.7319 0.326172,2.53125 -0.489415,0.95113 -0.59374,2.445909 -1.835937,2.724609 -1.140787,0.16222 -2.132356,-0.634406 -3.1875,-0.941406 -2.295841,-0.95458 -4.652631,-1.785449 -6.910157,-2.818359 -0.907592,-0.54263 -0.90179,-1.756868 -0.40039,-2.580078 0.49081,-0.988951 0.633203,-2.571664 1.974609,-2.751954 z m -6.949219,16.826172 c -2.6008,0.11455 -4.878355,2.011944 -5.720703,4.433594 -0.612711,1.74321 -0.767042,3.60825 -1.0039061,5.42969 -0.2270082,2.37315 0.6098121,5.02678 2.7480471,6.30273 1.916082,1.19668 4.272559,1.11121 6.417969,1.55664 2.528787,0.34574 5.037774,0.88143 7.580078,1.10352 2.141655,0.16125 4.334125,-0.93694 5.351562,-2.85352 1.169668,-2.04598 1.283604,-4.46663 1.634766,-6.74414 0.288784,-2.53623 -0.632459,-5.39363 -2.949219,-6.710936 -0.657013,-0.38967 -1.783715,-1.01153 -2.310547,-0.11914 -0.552434,1.117246 -1.296995,2.154836 -1.742187,3.316406 -0.141844,0.86139 0.778224,1.11866 1.265625,1.5918 0.880139,1.04104 0.189716,2.46953 0.113281,3.66015 -0.01696,0.91274 -0.502817,1.97237 -1.535156,2.02344 -1.626455,-0.0707 -3.229956,-0.47845 -4.847657,-0.67773 -1.76457,-0.31617 -3.568683,-0.47274 -5.310546,-0.88477 -0.961739,-0.3219 -1.252282,-1.45333 -0.962891,-2.34375 0.295576,-1.18658 0.0727,-2.77006 1.222656,-3.54102 0.581075,-0.32164 1.529052,-0.22496 1.679688,-1.06445 0.05226,-1.02614 -0.368316,-2.039855 -0.494141,-3.060545 -0.06855,-0.66643 -0.278292,-1.518349 -1.136719,-1.417969 z M 226.62891,110.41992 c -1.03915,-0.0742 -4.86373,8.13871 -5.74805,8.68946 -0.88432,0.55074 -9.94227,0.36082 -10.33398,1.32617 -0.39172,0.96535 6.23581,7.14111 6.48632,8.15234 0.25052,1.01123 -2.72674,9.56743 -1.92968,10.23828 0.79705,0.67085 8.71866,-3.72267 9.75781,-3.64844 1.03915,0.0742 8.2563,5.54879 9.14062,4.99805 0.88433,-0.55074 -0.84874,-9.44285 -0.45703,-10.4082 0.39172,-0.96535 7.83059,-6.13526 7.58008,-7.14649 -0.25051,-1.01123 -9.24201,-2.11235 -10.03906,-2.7832 -0.79706,-0.67085 -3.41788,-9.34373 -4.45703,-9.41797 z m -196.882816,9.43164 c -0.787112,0.0428 -1.574216,0.0861 -2.361328,0.12891 -0.839252,-0.003 -1.177158,0.92694 -0.990235,1.63281 0.114494,2.47224 0.311937,4.97962 0.375,7.42969 -5.572388,0.33599 -11.157268,0.57229 -16.724609,0.94336 -0.8560913,0.19592 -0.8250527,1.20847 -0.7207032,1.89062 0.1253811,1.07265 -0.014087,2.20182 0.2695312,3.24219 0.498247,0.92259 1.693115,0.42504 2.513672,0.47656 6.483312,-0.36357 12.970329,-0.68432 19.451172,-1.07422 0.833024,-0.16107 0.895507,-1.12951 0.767578,-1.80468 -0.239055,-4.04697 -0.40505,-8.10364 -0.689453,-12.14453 -0.195917,-0.85607 -1.208501,-0.82556 -1.890625,-0.72071 z m 2.324218,18.53321 c -1.214458,0.30151 -2.464547,0.56633 -3.638671,0.99609 -0.848632,0.53358 -0.282721,1.59366 -0.119141,2.33008 0.621697,2.37316 1.273234,4.7407 1.876953,7.11718 -1.106889,0.31701 -2.234514,0.61641 -3.349609,0.88868 -0.665414,-2.3346 -1.21587,-4.70816 -1.902344,-7.03516 -0.363188,-0.80567 -1.354464,-0.56421 -2.001953,-0.32226 -0.887473,0.3001 -1.874773,0.36794 -2.703125,0.80859 -0.791258,0.64074 -0.108521,1.68302 0.01563,2.4668 0.455925,1.81727 1.022272,3.6634 1.410156,5.46289 -1.049614,0.26637 -2.139001,0.62321 -3.173828,0.81054 -0.780842,-2.82011 -1.47246,-5.67009 -2.28125,-8.48047 -0.359897,-0.80856 -1.354133,-0.57354 -2.001953,-0.32812 -0.889015,0.30229 -1.881082,0.36876 -2.708984,0.81445 -0.78455,0.64358 -0.104027,1.67877 0.01953,2.46094 1.049407,3.88918 2.034247,7.80024 3.123047,11.67578 0.363184,0.80566 1.354532,0.56448 2.001953,0.32227 6.453168,-1.72838 12.926951,-3.39578 19.367187,-5.16211 0.807996,-0.36105 0.573613,-1.35524 0.328125,-2.00391 -1.094335,-4.07205 -2.138213,-8.16133 -3.263672,-12.22265 -0.163397,-0.38644 -0.578657,-0.63942 -0.998047,-0.59961 z m 181.910158,16.01171 c -2.54615,0.0656 -4.63337,2.0186 -5.56641,4.2793 -1.10615,2.53686 -2.27652,5.05078 -3.34375,7.60156 -0.2154,0.88332 0.77475,1.2559 1.42188,1.49414 5.60034,2.46549 11.17874,4.99321 16.79297,7.41993 0.88379,0.21378 1.25498,-0.77683 1.49414,-1.42383 0.32422,-0.89372 0.90492,-1.71814 1.07812,-2.6543 -0.0445,-1.0256 -1.30326,-1.09972 -1.99609,-1.51953 -1.60564,-0.71678 -3.21969,-1.41787 -4.82031,-2.14453 0.34323,-0.807 0.7103,-1.6047 1.0625,-2.4082 2.70073,0.0448 5.40483,0.17068 8.10351,0.16601 0.82112,-0.2872 0.83723,-1.36116 1.25977,-2.01367 0.27774,-0.84171 0.92303,-1.60595 0.92578,-2.50977 -0.31495,-0.88843 -1.4664,-0.53368 -2.1836,-0.64453 -2.40503,-0.0705 -4.81061,-0.12071 -7.21484,-0.20312 -0.2103,-2.20805 -1.83618,-4.07986 -3.88476,-4.83594 -0.98338,-0.41792 -2.05809,-0.64968 -3.12891,-0.60352 z m 0.58984,5.1875 c 0.88468,0.12949 1.85402,0.77955 1.72461,1.78907 -0.23411,1.21428 -0.95785,2.28135 -1.38867,3.43554 -0.0996,0.78026 -0.55472,0.69723 -1.0957,0.32813 -0.77936,-0.35019 -1.56679,-0.68599 -2.3418,-1.04492 0.60563,-1.29176 1.08339,-2.65579 1.79297,-3.89258 0.31471,-0.39187 0.79576,-0.66084 1.30859,-0.61524 z m -175.392576,0.84571 c -2.468934,0.67519 -4.897915,1.54321 -7.351562,2.29101 -4.597811,1.46548 -9.200073,2.91706 -13.794922,4.39063 -0.759044,0.50503 -0.075,1.37926 0.248047,1.93164 0.613291,0.98012 1.082165,2.07361 1.779297,2.98828 0.719136,0.47087 1.535677,-0.23716 2.279297,-0.34961 2.742731,-0.92077 5.546522,-1.67481 8.222656,-2.7832 -2.516457,2.51225 -5.085201,4.98133 -7.5625,7.52734 -0.400606,0.8079 0.495925,1.50755 0.769531,2.21875 0.499697,0.69248 0.720943,1.64915 1.431641,2.15235 0.815941,0.20235 1.627895,-0.33046 2.4375,-0.44141 2.847006,-0.79603 5.769813,-1.35779 8.52539,-2.44922 -2.744474,2.35063 -5.514207,4.67993 -8.224609,7.06641 -0.493908,0.74563 0.416622,1.46611 0.671875,2.13672 0.568634,0.86008 0.926732,1.89246 1.626953,2.64648 0.741763,0.47876 1.277013,-0.50516 1.798828,-0.89063 5.113558,-4.60129 10.250231,-9.18264 15.34961,-13.79687 0.638067,-0.85576 -0.348442,-1.71969 -0.679688,-2.48633 -0.525825,-0.71083 -0.726437,-1.72656 -1.5,-2.2168 -0.875515,-0.23205 -1.741247,0.33668 -2.605469,0.45704 -2.934485,0.76805 -5.868249,1.53664 -8.802734,2.30468 2.402887,-1.77816 4.323729,-4.09994 6.478516,-6.15429 0.554731,-0.67863 1.417165,-1.16813 1.761718,-1.98047 0.113251,-0.89341 -0.696043,-1.57317 -1.019531,-2.35352 -0.51849,-0.69892 -0.709326,-1.72114 -1.509766,-2.16015 -0.109295,-0.0138 -0.219013,-0.0657 -0.330078,-0.0488 z m 161.089846,13.7832 c -0.88441,0.17915 -1.14621,1.23203 -1.71289,1.82227 -0.62453,0.94169 -1.39637,1.804 -1.9336,2.79296 -0.22818,0.89031 0.74551,1.44188 1.13282,2.12891 3.8842,4.97231 7.7275,9.97991 11.63671,14.92969 0.54498,0.55734 1.22135,-0.0747 1.47852,-0.59961 0.67519,-1.02159 1.52122,-1.95763 2.09766,-3.0293 0.0993,-0.81873 -0.80289,-1.29747 -1.18164,-1.93554 -0.48761,-0.47859 -0.89303,-0.95964 -0.21289,-1.47657 0.98505,-1.37131 1.97002,-2.74197 2.95507,-4.11328 0.95529,0.30411 1.868,0.82703 2.84961,1 0.77078,-0.12828 0.99077,-1.07447 1.48633,-1.57617 0.49956,-0.83728 1.31008,-1.52637 1.59766,-2.4668 -0.1343,-0.89712 -1.28111,-0.83184 -1.92188,-1.17773 -6.012,-2.09545 -12.01292,-4.22432 -18.03125,-6.29883 -0.0796,-0.002 -0.16191,-0.021 -0.24023,0 z m 3.66015,6.51953 c 1.92188,0.72917 3.84375,1.45834 5.76563,2.1875 -0.62044,0.86263 -1.24089,1.72526 -1.86133,2.58789 -1.30143,-1.59179 -2.60286,-3.18359 -3.9043,-4.77539 z m -12.64257,7.08985 c -2.42408,0.0934 -4.30169,1.82358 -5.95313,3.41211 -1.58883,1.48357 -3.22972,2.91827 -4.78711,4.43164 -0.54911,0.7239 0.21297,1.45597 0.70899,1.93359 4.15213,4.49657 8.25577,9.04444 12.4375,13.50977 0.7239,0.54911 1.45607,-0.21286 1.93359,-0.70899 2.18207,-2.04868 4.45719,-4.00289 6.58203,-6.10937 1.4979,-1.54938 2.06971,-3.99072 1.10742,-5.96875 -0.95605,-2.1016 -2.92237,-4.09796 -5.38476,-4.03321 -0.31433,-0.1003 -1.1051,0.3405 -0.94141,-0.12695 0.6136,-3.2268 -2.50265,-6.48337 -5.70312,-6.33984 z m -0.10352,5.24804 c 1.01352,0.24005 1.98195,1.62144 1.13281,2.53711 -0.96592,0.97328 -2.01603,1.86484 -3.01757,2.80078 -0.68773,-0.77391 -1.47998,-1.54913 -2.10157,-2.32812 1.107,-0.93599 2.07296,-2.0612 3.26758,-2.88086 0.22083,-0.11512 0.47126,-0.16731 0.71875,-0.12891 z m 5.48242,5.75977 c 1.33696,0.0941 2.37166,2.00287 1.19727,2.96289 -0.99582,0.88504 -1.98377,1.87696 -2.98438,2.69726 -0.74686,-0.84856 -1.61293,-1.68988 -2.29101,-2.54101 1.11128,-0.96977 2.13308,-2.05515 3.29687,-2.95703 0.23983,-0.12259 0.51182,-0.18449 0.78125,-0.16211 z m -20.45508,0.0605 c -0.99952,0.2651 -1.81458,1.01439 -2.74023,1.47071 -0.6269,0.26285 -1.42097,0.85424 -1.05273,1.63086 2.3875,4.1593 4.89693,8.25524 7.2539,12.42969 0.40989,0.88699 -0.2192,1.82432 -1.0664,2.13281 -0.91238,0.416 -1.8468,1.49318 -2.92969,0.95898 -0.90282,-0.577 -1.15187,-1.65747 -1.77149,-2.51758 -2.05044,-3.45279 -4.03885,-6.94846 -6.12695,-10.375 -0.59043,-0.69241 -1.47255,-0.10097 -2.04297,0.28516 -0.78186,0.5334 -1.72365,0.86834 -2.41211,1.51953 -0.58332,0.85429 0.40497,1.66342 0.72461,2.4082 2.33208,3.91649 4.57518,7.89028 6.96289,11.77149 1.12319,1.7188 3.23033,2.77908 5.28321,2.39648 2.25175,-0.361 4.13765,-1.75375 6.04492,-2.90625 1.87247,-1.2325 3.33608,-3.4249 2.97461,-5.74414 -0.2886,-2.12619 -1.76803,-3.80167 -2.73047,-5.65039 -1.87568,-3.16063 -3.6961,-6.35764 -5.60547,-9.49609 -0.19765,-0.20452 -0.47882,-0.33842 -0.76563,-0.31446 z m -77.435542,6.78711 c -1.08704,-0.0777 -5.088594,8.51177 -6.013672,9.08789 -0.925078,0.57613 -10.398826,0.37884 -10.808594,1.38868 -0.409768,1.00984 6.523096,7.47146 6.785156,8.52929 0.26206,1.05784 -2.85332,10.00722 -2.019531,10.70899 0.833789,0.70177 9.119991,-3.89602 10.207031,-3.81836 1.08704,0.0777 8.635472,5.80659 9.560552,5.23047 0.92507,-0.57612 -0.88634,-9.87688 -0.47657,-10.88672 0.40977,-1.00984 8.19175,-6.42068 7.92969,-7.47852 -0.26206,-1.05783 -9.66816,-2.20838 -10.50195,-2.91015 -0.83379,-0.70177 -3.575073,-9.77391 -4.662112,-9.85157 z m 57.630862,3.78321 c -0.22184,-0.005 -0.44489,0.001 -0.66602,0.0176 -1.82954,0.17391 -3.55082,0.89667 -5.26172,1.52148 -2.12352,0.83772 -3.98194,2.77737 -4.03125,5.16016 -0.0607,2.10206 0.99043,4.00788 1.54102,5.98828 0.79633,2.2132 1.37719,4.51221 2.32617,6.66601 0.85829,1.8019 2.76086,3.02151 4.76562,2.97071 2.12951,0 4.12401,-0.875 6.10157,-1.5625 2.25928,-0.873 4.202,-2.97385 4.19336,-5.49805 0.061,-0.7124 -0.10645,-1.82154 -1.05078,-1.74023 -1.11329,0.021 -2.24338,-0.15694 -3.34766,-0.0234 -0.85509,0.2737 -0.56505,1.25306 -0.85742,1.88476 -0.62779,1.0604 -2.04869,1.07441 -3.07227,1.53711 -0.84268,0.4668 -1.9975,0.0936 -2.26562,-0.86719 -0.92723,-2.8174 -1.91511,-5.61907 -2.79102,-8.45117 -0.21498,-0.96655 0.62233,-1.73371 1.51367,-1.87109 1.09115,-0.25732 2.34133,-1.13751 3.42969,-0.43164 0.44648,0.43297 0.92778,1.16352 1.66211,0.8418 1.00954,-0.66023 1.93874,-1.4693 2.87109,-2.23829 0.51294,-0.81302 -0.39849,-1.57582 -0.875,-2.16015 -1.09432,-1.12742 -2.63271,-1.70576 -4.18554,-1.74414 z m -20.60742,4.87695 c -0.24012,-6e-5 -0.481,0.008 -0.72071,0.0195 -2.93451,0.13435 -6.02218,1.78227 -7.0039,4.6875 -0.9039,2.6944 0.51001,5.87184 3.04492,7.11524 1.80568,1.0651 3.94803,1.15638 5.89648,1.80468 0.83996,0.2276 1.65779,1.06938 1.24024,1.98438 -0.62253,1.0749 -2.10726,1.0964 -3.19336,0.9043 -0.80853,-0.1266 -1.24993,-0.84257 -1.75391,-1.38477 -0.83513,-0.5759 -1.65753,0.36078 -2.41602,0.64648 -0.62937,0.459 -1.61732,0.57608 -1.96484,1.32618 -0.0988,0.918 0.58949,1.73962 1.13477,2.41992 2.06939,2.2452 5.46762,2.5219 8.29101,1.875 2.43553,-0.4734 4.80423,-2.15658 5.39063,-4.67188 0.61286,-2.3399 -0.0768,-5.10319 -2.12696,-6.52929 -1.90675,-1.4983 -4.37043,-1.80855 -6.63476,-2.43555 -0.76578,-0.204 -1.83005,-0.74049 -1.51563,-1.70899 0.44588,-1.15729 2.00131,-1.29525 3.04297,-0.97265 0.7685,0.1704 1.04369,0.98868 1.64844,1.36328 0.88646,0.3114 1.62816,-0.55131 2.41992,-0.82031 0.59896,-0.4036 1.77928,-0.56181 1.66211,-1.50782 -0.74446,-2.42612 -3.27068,-3.94115 -5.72266,-4.08203 -0.23912,-0.0245 -0.47863,-0.0331 -0.71874,-0.0332 z"
         transform="translate(0,783.07098)" />
      <path
         style="fill:#b100f8;fill-opacity:1;stroke:none;stroke-width:0.511902px;stroke-linecap:butt;stroke-linejoin:miter;stroke-opacity:1"
         d="m 176.24134,902.25673 c 7.49677,-8.4051 38.22237,-25.77643 38.22237,-25.77643 l -9.606,15.21836 c 0,0 -5.55128,-1.08139 -8.84715,2.06324 -3.29588,3.1446 -4.47227,4.35195 -1.89913,6.51614 2.57316,2.16419 6.07914,4.18776 6.07914,4.18776 0,0 -5.32014,-0.50897 -8.20649,1.59774 -2.88638,2.10673 -2.67452,3.77481 -0.23475,5.75551 2.43978,1.98069 5.24695,-0.89288 6.27217,4.04889 1.02521,4.9418 -1.7474,18.5508 -1.7474,18.5508 0,0 -2.43303,-6.86419 -5.21377,-11.42559 -2.78072,-4.56143 -12.84488,-13.38952 -12.84488,-13.38952 -2.02407,-1.83995 -2.84714,-6.2468 -1.97411,-7.3469 z"
         id="path1160"
         sodipodi:nodetypes="cccsscssscscc" />
      <path
         style="fill:#b100f8;fill-opacity:1;stroke:none;stroke-width:0.511902px;stroke-linecap:butt;stroke-linejoin:miter;stroke-opacity:1"
         d="m 121.34696,884.86449 c 7.57455,-7.30792 15.21697,-15.79233 19.04669,-18.26446 3.82971,-2.47214 14.65312,-3.90811 14.65312,-3.90811 0,0 -2.57817,2.08067 -4.79825,5.45816 -2.22011,3.37749 -7.68665,7.26804 -7.68665,7.26804 l 4.8111,-0.008 -6.80933,6.39983 9.94649,4.30104 -9.7632,7.42045 c -9.46875,-3.13097 -12.93331,-5.77797 -19.39997,-8.66695 z"
         id="path1158"
         sodipodi:nodetypes="cscscccccc" />
      <ellipse
         style="fill:#e8c1f8;fill-opacity:1;stroke:none;stroke-width:0.857153;stroke-linecap:round;stroke-linejoin:round;stroke-miterlimit:4;stroke-dasharray:none;stroke-opacity:1"
         id="path291"
         cx="311.06485"
         cy="801.95197"
         rx="11.766804"
         ry="18.170824"
         transform="matrix(0.93846446,0.34537582,-0.23259694,0.97257322,0,0)" />
      <ellipse
         style="fill:#e8c1f8;fill-opacity:1;stroke:none;stroke-width:0.71811;stroke-linecap:round;stroke-linejoin:round;stroke-miterlimit:4;stroke-dasharray:none;stroke-opacity:1"
         id="path293"
         cx="-191.60002"
         cy="877.80792"
         rx="5.7055044"
         ry="8.8170786"
         transform="rotate(-17.671986)" />
      <path
         id="path1122"
         style="fill:#ffffff;fill-opacity:1;stroke:none;stroke-width:0.511902px;stroke-linecap:butt;stroke-linejoin:miter;stroke-opacity:1"
         d="m 117.09375,127.84375 c -0.46215,-0.10852 -1.26615,7.45788 -2.53906,10.66406 -1.37723,3.46893 -4.19336,5.97852 -4.19336,5.97852 l 7.0332,-0.57227 c 1.25878,-2.69716 0.29461,-12.61723 -0.12305,-15.51953 -0.0523,-0.36385 -0.11171,-0.53528 -0.17773,-0.55078 z m -9.51953,4.0957 c -0.76437,0.0881 -1.83857,5.44875 -2.59961,7.82422 -0.88558,2.76416 -3.53906,4.88281 -3.53906,4.88281 l 6.22265,-1.52343 c 0,0 1.01522,-8.60289 0.26368,-10.76563 -0.10569,-0.30413 -0.22258,-0.43239 -0.34766,-0.41797 z"
         transform="translate(0,783.07098)" />
      <path
         style="fill:none;stroke:#b100f8;stroke-width:3.02788;stroke-linecap:round;stroke-linejoin:round;stroke-miterlimit:4;stroke-dasharray:none;stroke-opacity:1"
         d="m 85.518183,937.15331 c 5.651231,-4.17008 11.936401,-9.03143 21.552627,-10.11346 9.61621,-1.08201 13.19691,2.80071 13.19691,2.80071"
         id="path1118"
         sodipodi:nodetypes="csc" />
      <ellipse
         style="fill:#000000;fill-opacity:1;stroke:none;stroke-width:0.831095;stroke-linecap:round;stroke-linejoin:round;stroke-miterlimit:4;stroke-dasharray:none;stroke-opacity:1"
         id="path1141"
         cx="104.95776"
         cy="892.32892"
         rx="5.1493011"
         ry="5.2339282" />
      <ellipse
         style="fill:#030004;fill-opacity:1;stroke:none;stroke-width:0.563794;stroke-linecap:round;stroke-linejoin:round;stroke-miterlimit:4;stroke-dasharray:none;stroke-opacity:1"
         id="path1141-6"
         cx="86.367744"
         cy="896.81396"
         rx="3.3088114"
         ry="3.7483828" />
      <path
         style="fill:#b100f8;fill-opacity:1;stroke:none;stroke-width:0.512709;stroke-linecap:round;stroke-linejoin:round;stroke-miterlimit:4;stroke-dasharray:none;stroke-opacity:1"
         d="m 133.54472,918.88844 c 15.88716,11.83359 15.14191,3.68692 15.95981,8.89285 0.88855,5.65562 -2.43332,9.57469 -2.39617,10.63996 0.0356,1.02058 5.80019,-1.16238 6.61446,0.15227 0.75111,0.80868 -3.43824,6.90968 -2.53134,9.00386 0.61159,1.34598 11.73232,-3.16243 10.36567,1.95897 -1.36665,5.12138 -12.72835,7.423 -16.06974,4.96921 -13.66718,-10.03661 -5.74751,-14.9851 -9.71466,-21.32563 -4.02553,-6.43385 -5.88551,-8.07665 -5.88551,-8.07665"
         id="path1162"
         sodipodi:nodetypes="cssccsssc" />
      <path
         id="path1390"
         style="color:#000000;fill:#3d21d0;fill-opacity:1;stroke-linecap:round;stroke-linejoin:round;-inkscape-stroke:none"
         d="m 57.082031,96.826172 c -2.851699,0 -5.177734,2.326034 -5.177734,5.177738 0,2.8517 2.326035,5.17968 5.177734,5.17968 2.8517,0 5.179688,-2.32798 5.179688,-5.17968 0,-2.851704 -2.327988,-5.177738 -5.179688,-5.177738 z m 8.607422,17.509768 c -1.982035,0 -3.605469,1.62147 -3.605469,3.60351 0,1.98203 1.623434,3.60547 3.605469,3.60547 1.982035,0 3.603516,-1.62344 3.603516,-3.60547 0,-1.98204 -1.621481,-3.60351 -3.603516,-3.60351 z m -12.015625,9.08789 c -2.262834,0 -4.111328,1.85045 -4.111328,4.11328 0,2.26284 1.848494,4.11328 4.111328,4.11328 2.262835,0 4.113281,-1.85044 4.113281,-4.11328 0,-2.26283 -1.850446,-4.11328 -4.113281,-4.11328 z"
         transform="translate(0,783.07098)" />
      <path
         id="path5802-1-3-0-6"
         style="fill:#3d21d0;fill-opacity:1;stroke:none;stroke-width:0.755906;stroke-miterlimit:4;stroke-dasharray:none;stroke-opacity:1"
         d="m 79.193359,146.91797 c -1.07524,-0.0611 -2.050322,0.62813 -2.351562,1.66211 l -3.201172,10.98047 -12.478516,-0.27149 c -0.17076,-3.59949 -3.150065,-6.47656 -6.791015,-6.47656 -3.75028,0 -6.800771,3.05245 -6.800782,6.80273 0,3.75029 3.050492,6.8008 6.800782,6.80079 0.96361,0 1.879607,-0.20351 2.710937,-0.56641 l 11.214844,18.25 v 14.60351 l -4.603516,-0.0566 c -1.11163,-0.0136 -2.023709,0.87669 -2.037109,1.98829 -0.0136,1.1116 0.876641,2.0241 1.988281,2.03711 L 77.4375,202.8418 c 1.11087,0.0137 2.022709,-0.87542 2.037109,-1.98633 0.0136,-1.11159 -0.876641,-2.02411 -1.988281,-2.03711 l -5.164062,-0.0645 v -15.35157 l 11.951172,-23.61132 -5.8125,-0.12696 h -0.03516 l 2.339844,-8.02344 5.117187,0.29297 c 1.865098,-1.37589 3.843311,-2.80386 6.03125,-4.13867 -0.247018,-0.10906 -0.515281,-0.17912 -0.800781,-0.19531 z"
         transform="translate(0,783.07098)"
         sodipodi:nodetypes="ccccsssccccccccccccccccccc" />
    </g>
  </g>
</svg>
