<?xml version="1.0" encoding="UTF-8" standalone="no"?>
<svg
   xmlns:dc="http://purl.org/dc/elements/1.1/"
   xmlns:cc="http://creativecommons.org/ns#"
   xmlns:rdf="http://www.w3.org/1999/02/22-rdf-syntax-ns#"
   xmlns:svg="http://www.w3.org/2000/svg"
   xmlns="http://www.w3.org/2000/svg"
   xmlns:sodipodi="http://sodipodi.sourceforge.net/DTD/sodipodi-0.dtd"
   xmlns:inkscape="http://www.inkscape.org/namespaces/inkscape"
   width="50mm"
   height="50mm"
   id="svg2"
   version="1.1"
   inkscape:version="1.0.1 (3bc2e813f5, 2020-09-07)"
   sodipodi:docname="xHain_stickers_5cm_electronics.svg"
   inkscape:export-filename="/home/xHain_stickers_5cm_electronics.png"
   inkscape:export-xdpi="350"
   inkscape:export-ydpi="350">
  <sodipodi:namedview
     id="base"
     pagecolor="#ffffff"
     bordercolor="#666666"
     borderopacity="1.0"
     inkscape:pageopacity="0.0"
     inkscape:pageshadow="2"
     inkscape:zoom="2.1014308"
     inkscape:cx="172.65776"
     inkscape:cy="33.542182"
     inkscape:document-units="mm"
     inkscape:current-layer="layer1"
     showgrid="false"
     inkscape:window-width="1920"
     inkscape:window-height="1032"
     inkscape:window-x="0"
     inkscape:window-y="0"
     inkscape:window-maximized="1"
     showguides="true"
     inkscape:guide-bbox="true"
     units="mm"
     inkscape:document-rotation="0">
    <inkscape:grid
       type="xygrid"
       id="grid2985"
       empspacing="5"
       visible="true"
       enabled="true"
       snapvisiblegridlinesonly="true" />
  </sodipodi:namedview>
  <defs
     id="defs4">
    <marker
       inkscape:stockid="DotS"
       orient="auto"
       refY="0"
       refX="0"
       id="DotS"
       style="overflow:visible">
      <path
         id="path3828"
         d="m -2.5,-1 c 0,2.76 -2.24,5 -5,5 -2.76,0 -5,-2.24 -5,-5 0,-2.76 2.24,-5 5,-5 2.76,0 5,2.24 5,5 z"
         style="fill-rule:evenodd;stroke:#000000;stroke-width:1pt"
         transform="matrix(0.2,0,0,0.2,1.48,0.2)"
         inkscape:connector-curvature="0" />
    </marker>
    <marker
       inkscape:stockid="DotS"
       orient="auto"
       refY="0"
       refX="0"
       id="DotS-1"
       style="overflow:visible">
      <path
         inkscape:connector-curvature="0"
         id="path3828-5"
         d="m -2.5,-1 c 0,2.76 -2.24,5 -5,5 -2.76,0 -5,-2.24 -5,-5 0,-2.76 2.24,-5 5,-5 2.76,0 5,2.24 5,5 z"
         style="fill-rule:evenodd;stroke:#000000;stroke-width:1pt"
         transform="matrix(0.2,0,0,0.2,1.48,0.2)" />
    </marker>
    <marker
       inkscape:stockid="DotS"
       orient="auto"
       refY="0"
       refX="0"
       id="marker4395"
       style="overflow:visible">
      <path
         inkscape:connector-curvature="0"
         id="path4397"
         d="m -2.5,-1 c 0,2.76 -2.24,5 -5,5 -2.76,0 -5,-2.24 -5,-5 0,-2.76 2.24,-5 5,-5 2.76,0 5,2.24 5,5 z"
         style="fill-rule:evenodd;stroke:#000000;stroke-width:1pt"
         transform="matrix(0.2,0,0,0.2,1.48,0.2)" />
    </marker>
    <marker
       inkscape:stockid="DotS"
       orient="auto"
       refY="0"
       refX="0"
       id="DotS-3"
       style="overflow:visible">
      <path
         inkscape:connector-curvature="0"
         id="path3828-0"
         d="m -2.5,-1 c 0,2.76 -2.24,5 -5,5 -2.76,0 -5,-2.24 -5,-5 0,-2.76 2.24,-5 5,-5 2.76,0 5,2.24 5,5 z"
         style="fill-rule:evenodd;stroke:#000000;stroke-width:1pt"
         transform="matrix(0.2,0,0,0.2,1.48,0.2)" />
    </marker>
    <marker
       inkscape:stockid="DotS"
       orient="auto"
       refY="0"
       refX="0"
       id="marker4427"
       style="overflow:visible">
      <path
         inkscape:connector-curvature="0"
         id="path4429"
         d="m -2.5,-1 c 0,2.76 -2.24,5 -5,5 -2.76,0 -5,-2.24 -5,-5 0,-2.76 2.24,-5 5,-5 2.76,0 5,2.24 5,5 z"
         style="fill-rule:evenodd;stroke:#000000;stroke-width:1pt"
         transform="matrix(0.2,0,0,0.2,1.48,0.2)" />
    </marker>
    <marker
       inkscape:stockid="DotS"
       orient="auto"
       refY="0"
       refX="0"
       id="DotS-2"
       style="overflow:visible">
      <path
         inkscape:connector-curvature="0"
         id="path3828-1"
         d="m -2.5,-1 c 0,2.76 -2.24,5 -5,5 -2.76,0 -5,-2.24 -5,-5 0,-2.76 2.24,-5 5,-5 2.76,0 5,2.24 5,5 z"
         style="fill-rule:evenodd;stroke:#000000;stroke-width:1pt"
         transform="matrix(0.2,0,0,0.2,1.48,0.2)" />
    </marker>
    <marker
       inkscape:stockid="DotS"
       orient="auto"
       refY="0"
       refX="0"
       id="marker4427-3"
       style="overflow:visible">
      <path
         inkscape:connector-curvature="0"
         id="path4429-9"
         d="m -2.5,-1 c 0,2.76 -2.24,5 -5,5 -2.76,0 -5,-2.24 -5,-5 0,-2.76 2.24,-5 5,-5 2.76,0 5,2.24 5,5 z"
         style="fill-rule:evenodd;stroke:#000000;stroke-width:1pt"
         transform="matrix(0.2,0,0,0.2,1.48,0.2)" />
    </marker>
    <marker
       inkscape:stockid="DotS"
       orient="auto"
       refY="0"
       refX="0"
       id="DotS-21"
       style="overflow:visible">
      <path
         inkscape:connector-curvature="0"
         id="path3828-6"
         d="m -2.5,-1 c 0,2.76 -2.24,5 -5,5 -2.76,0 -5,-2.24 -5,-5 0,-2.76 2.24,-5 5,-5 2.76,0 5,2.24 5,5 z"
         style="fill-rule:evenodd;stroke:#000000;stroke-width:1pt"
         transform="matrix(0.2,0,0,0.2,1.48,0.2)" />
    </marker>
    <marker
       inkscape:stockid="DotS"
       orient="auto"
       refY="0"
       refX="0"
       id="marker4474"
       style="overflow:visible">
      <path
         inkscape:connector-curvature="0"
         id="path4476"
         d="m -2.5,-1 c 0,2.76 -2.24,5 -5,5 -2.76,0 -5,-2.24 -5,-5 0,-2.76 2.24,-5 5,-5 2.76,0 5,2.24 5,5 z"
         style="fill-rule:evenodd;stroke:#000000;stroke-width:1pt"
         transform="matrix(0.2,0,0,0.2,1.48,0.2)" />
    </marker>
    <marker
       inkscape:stockid="DotS"
       orient="auto"
       refY="0"
       refX="0"
       id="DotS-36"
       style="overflow:visible">
      <path
         inkscape:connector-curvature="0"
         id="path3828-8"
         d="m -2.5,-1 c 0,2.76 -2.24,5 -5,5 -2.76,0 -5,-2.24 -5,-5 0,-2.76 2.24,-5 5,-5 2.76,0 5,2.24 5,5 z"
         style="fill-rule:evenodd;stroke:#000000;stroke-width:1pt"
         transform="matrix(0.2,0,0,0.2,1.48,0.2)" />
    </marker>
    <marker
       inkscape:stockid="DotS"
       orient="auto"
       refY="0"
       refX="0"
       id="marker4516"
       style="overflow:visible">
      <path
         inkscape:connector-curvature="0"
         id="path4518"
         d="m -2.5,-1 c 0,2.76 -2.24,5 -5,5 -2.76,0 -5,-2.24 -5,-5 0,-2.76 2.24,-5 5,-5 2.76,0 5,2.24 5,5 z"
         style="fill-rule:evenodd;stroke:#000000;stroke-width:1pt"
         transform="matrix(0.2,0,0,0.2,1.48,0.2)" />
    </marker>
    <marker
       inkscape:stockid="DotS"
       orient="auto"
       refY="0"
       refX="0"
       id="DotS-11"
       style="overflow:visible">
      <path
         inkscape:connector-curvature="0"
         id="path3828-58"
         d="m -2.5,-1 c 0,2.76 -2.24,5 -5,5 -2.76,0 -5,-2.24 -5,-5 0,-2.76 2.24,-5 5,-5 2.76,0 5,2.24 5,5 z"
         style="fill-rule:evenodd;stroke:#000000;stroke-width:1pt"
         transform="matrix(0.2,0,0,0.2,1.48,0.2)" />
    </marker>
    <marker
       inkscape:stockid="DotS"
       orient="auto"
       refY="0"
       refX="0"
       id="marker4954"
       style="overflow:visible">
      <path
         inkscape:connector-curvature="0"
         id="path4956"
         d="m -2.5,-1 c 0,2.76 -2.24,5 -5,5 -2.76,0 -5,-2.24 -5,-5 0,-2.76 2.24,-5 5,-5 2.76,0 5,2.24 5,5 z"
         style="fill-rule:evenodd;stroke:#000000;stroke-width:1pt"
         transform="matrix(0.2,0,0,0.2,1.48,0.2)" />
    </marker>
    <marker
       inkscape:stockid="DotS"
       orient="auto"
       refY="0"
       refX="0"
       id="DotS-7"
       style="overflow:visible">
      <path
         inkscape:connector-curvature="0"
         id="path3828-3"
         d="m -2.5,-1 c 0,2.76 -2.24,5 -5,5 -2.76,0 -5,-2.24 -5,-5 0,-2.76 2.24,-5 5,-5 2.76,0 5,2.24 5,5 z"
         style="fill-rule:evenodd;stroke:#000000;stroke-width:1pt"
         transform="matrix(0.2,0,0,0.2,1.48,0.2)" />
    </marker>
    <marker
       inkscape:stockid="DotS"
       orient="auto"
       refY="0"
       refX="0"
       id="marker5024"
       style="overflow:visible">
      <path
         inkscape:connector-curvature="0"
         id="path5026"
         d="m -2.5,-1 c 0,2.76 -2.24,5 -5,5 -2.76,0 -5,-2.24 -5,-5 0,-2.76 2.24,-5 5,-5 2.76,0 5,2.24 5,5 z"
         style="fill-rule:evenodd;stroke:#000000;stroke-width:1pt"
         transform="matrix(0.2,0,0,0.2,1.48,0.2)" />
    </marker>
    <marker
       inkscape:stockid="DotS"
       orient="auto"
       refY="0"
       refX="0"
       id="DotS-34"
       style="overflow:visible">
      <path
         inkscape:connector-curvature="0"
         id="path3828-16"
         d="m -2.5,-1 c 0,2.76 -2.24,5 -5,5 -2.76,0 -5,-2.24 -5,-5 0,-2.76 2.24,-5 5,-5 2.76,0 5,2.24 5,5 z"
         style="fill-rule:evenodd;stroke:#000000;stroke-width:1pt"
         transform="matrix(0.2,0,0,0.2,1.48,0.2)" />
    </marker>
    <marker
       inkscape:stockid="DotS"
       orient="auto"
       refY="0"
       refX="0"
       id="marker5056"
       style="overflow:visible">
      <path
         inkscape:connector-curvature="0"
         id="path5058"
         d="m -2.5,-1 c 0,2.76 -2.24,5 -5,5 -2.76,0 -5,-2.24 -5,-5 0,-2.76 2.24,-5 5,-5 2.76,0 5,2.24 5,5 z"
         style="fill-rule:evenodd;stroke:#000000;stroke-width:1pt"
         transform="matrix(0.2,0,0,0.2,1.48,0.2)" />
    </marker>
    <marker
       inkscape:stockid="DotS"
       orient="auto"
       refY="0"
       refX="0"
       id="marker4516-8"
       style="overflow:visible">
      <path
         inkscape:connector-curvature="0"
         id="path4518-5"
         d="m -2.5,-1 c 0,2.76 -2.24,5 -5,5 -2.76,0 -5,-2.24 -5,-5 0,-2.76 2.24,-5 5,-5 2.76,0 5,2.24 5,5 z"
         style="fill-rule:evenodd;stroke:#000000;stroke-width:1pt"
         transform="matrix(0.2,0,0,0.2,1.48,0.2)" />
    </marker>
    <marker
       inkscape:stockid="DotS"
       orient="auto"
       refY="0"
       refX="0"
       id="marker5088"
       style="overflow:visible">
      <path
         inkscape:connector-curvature="0"
         id="path5090"
         d="m -2.5,-1 c 0,2.76 -2.24,5 -5,5 -2.76,0 -5,-2.24 -5,-5 0,-2.76 2.24,-5 5,-5 2.76,0 5,2.24 5,5 z"
         style="fill-rule:evenodd;stroke:#000000;stroke-width:1pt"
         transform="matrix(0.2,0,0,0.2,1.48,0.2)" />
    </marker>
    <marker
       inkscape:stockid="DotS"
       orient="auto"
       refY="0"
       refX="0"
       id="marker4516-9"
       style="overflow:visible">
      <path
         inkscape:connector-curvature="0"
         id="path4518-55"
         d="m -2.5,-1 c 0,2.76 -2.24,5 -5,5 -2.76,0 -5,-2.24 -5,-5 0,-2.76 2.24,-5 5,-5 2.76,0 5,2.24 5,5 z"
         style="fill-rule:evenodd;stroke:#000000;stroke-width:1pt"
         transform="matrix(0.2,0,0,0.2,1.48,0.2)" />
    </marker>
    <marker
       inkscape:stockid="DotS"
       orient="auto"
       refY="0"
       refX="0"
       id="marker5137"
       style="overflow:visible">
      <path
         inkscape:connector-curvature="0"
         id="path5139"
         d="m -2.5,-1 c 0,2.76 -2.24,5 -5,5 -2.76,0 -5,-2.24 -5,-5 0,-2.76 2.24,-5 5,-5 2.76,0 5,2.24 5,5 z"
         style="fill-rule:evenodd;stroke:#000000;stroke-width:1pt"
         transform="matrix(0.2,0,0,0.2,1.48,0.2)" />
    </marker>
    <marker
       inkscape:stockid="DotS"
       orient="auto"
       refY="0"
       refX="0"
       id="DotS-0"
       style="overflow:visible">
      <path
         inkscape:connector-curvature="0"
         id="path3828-4"
         d="m -2.5,-1 c 0,2.76 -2.24,5 -5,5 -2.76,0 -5,-2.24 -5,-5 0,-2.76 2.24,-5 5,-5 2.76,0 5,2.24 5,5 z"
         style="fill-rule:evenodd;stroke:#000000;stroke-width:1pt"
         transform="matrix(0.2,0,0,0.2,1.48,0.2)" />
    </marker>
    <marker
       inkscape:stockid="DotS"
       orient="auto"
       refY="0"
       refX="0"
       id="marker5169"
       style="overflow:visible">
      <path
         inkscape:connector-curvature="0"
         id="path5171"
         d="m -2.5,-1 c 0,2.76 -2.24,5 -5,5 -2.76,0 -5,-2.24 -5,-5 0,-2.76 2.24,-5 5,-5 2.76,0 5,2.24 5,5 z"
         style="fill-rule:evenodd;stroke:#000000;stroke-width:1pt"
         transform="matrix(0.2,0,0,0.2,1.48,0.2)" />
    </marker>
    <marker
       inkscape:stockid="DotS"
       orient="auto"
       refY="0"
       refX="0"
       id="DotS-8"
       style="overflow:visible">
      <path
         inkscape:connector-curvature="0"
         id="path3828-66"
         d="m -2.5,-1 c 0,2.76 -2.24,5 -5,5 -2.76,0 -5,-2.24 -5,-5 0,-2.76 2.24,-5 5,-5 2.76,0 5,2.24 5,5 z"
         style="fill-rule:evenodd;stroke:#000000;stroke-width:1pt"
         transform="matrix(0.2,0,0,0.2,1.48,0.2)" />
    </marker>
    <marker
       inkscape:stockid="DotS"
       orient="auto"
       refY="0"
       refX="0"
       id="marker5218"
       style="overflow:visible">
      <path
         inkscape:connector-curvature="0"
         id="path5220"
         d="m -2.5,-1 c 0,2.76 -2.24,5 -5,5 -2.76,0 -5,-2.24 -5,-5 0,-2.76 2.24,-5 5,-5 2.76,0 5,2.24 5,5 z"
         style="fill-rule:evenodd;stroke:#000000;stroke-width:1pt"
         transform="matrix(0.2,0,0,0.2,1.48,0.2)" />
    </marker>
    <marker
       inkscape:stockid="DotSv"
       orient="auto"
       refY="0"
       refX="0"
       id="DotSv"
       style="overflow:visible">
      <path
         id="path5753"
         d="m -2.5,-1 c 0,2.76 -2.24,5 -5,5 -2.76,0 -5,-2.24 -5,-5 0,-2.76 2.24,-5 5,-5 2.76,0 5,2.24 5,5 z"
         style="fill:#858585;fill-rule:evenodd;stroke:#858585;stroke-width:1pt"
         transform="matrix(0.2,0,0,0.2,1.48,0.2)"
         inkscape:connector-curvature="0" />
    </marker>
    <marker
       inkscape:stockid="DotSs"
       orient="auto"
       refY="0"
       refX="0"
       id="DotSs"
       style="overflow:visible">
      <path
         id="path5756"
         d="m -2.5,-1 c 0,2.76 -2.24,5 -5,5 -2.76,0 -5,-2.24 -5,-5 0,-2.76 2.24,-5 5,-5 2.76,0 5,2.24 5,5 z"
         style="fill:#858585;fill-rule:evenodd;stroke:#858585;stroke-width:1pt"
         transform="matrix(0.2,0,0,0.2,1.48,0.2)"
         inkscape:connector-curvature="0" />
    </marker>
    <marker
       inkscape:stockid="DotSk"
       orient="auto"
       refY="0"
       refX="0"
       id="DotSk"
       style="overflow:visible">
      <path
         id="path5759"
         d="m -2.5,-1 c 0,2.76 -2.24,5 -5,5 -2.76,0 -5,-2.24 -5,-5 0,-2.76 2.24,-5 5,-5 2.76,0 5,2.24 5,5 z"
         style="fill:#858585;fill-rule:evenodd;stroke:#858585;stroke-width:1pt"
         transform="matrix(0.2,0,0,0.2,1.48,0.2)"
         inkscape:connector-curvature="0" />
    </marker>
    <marker
       inkscape:stockid="DotSK"
       orient="auto"
       refY="0"
       refX="0"
       id="DotSK"
       style="overflow:visible">
      <path
         id="path5762"
         d="m -2.5,-1 c 0,2.76 -2.24,5 -5,5 -2.76,0 -5,-2.24 -5,-5 0,-2.76 2.24,-5 5,-5 2.76,0 5,2.24 5,5 z"
         style="fill:#858585;fill-rule:evenodd;stroke:#858585;stroke-width:1pt"
         transform="matrix(0.2,0,0,0.2,1.48,0.2)"
         inkscape:connector-curvature="0" />
    </marker>
    <marker
       inkscape:stockid="DotSQ"
       orient="auto"
       refY="0"
       refX="0"
       id="DotSQ"
       style="overflow:visible">
      <path
         id="path5765"
         d="m -2.5,-1 c 0,2.76 -2.24,5 -5,5 -2.76,0 -5,-2.24 -5,-5 0,-2.76 2.24,-5 5,-5 2.76,0 5,2.24 5,5 z"
         style="fill:#858585;fill-rule:evenodd;stroke:#858585;stroke-width:1pt"
         transform="matrix(0.2,0,0,0.2,1.48,0.2)"
         inkscape:connector-curvature="0" />
    </marker>
    <marker
       inkscape:stockid="DotSg"
       orient="auto"
       refY="0"
       refX="0"
       id="DotSg"
       style="overflow:visible">
      <path
         id="path5768"
         d="m -2.5,-1 c 0,2.76 -2.24,5 -5,5 -2.76,0 -5,-2.24 -5,-5 0,-2.76 2.24,-5 5,-5 2.76,0 5,2.24 5,5 z"
         style="fill:#858585;fill-rule:evenodd;stroke:#858585;stroke-width:1pt"
         transform="matrix(0.2,0,0,0.2,1.48,0.2)"
         inkscape:connector-curvature="0" />
    </marker>
    <marker
       inkscape:stockid="marker4516J"
       orient="auto"
       refY="0"
       refX="0"
       id="marker4516J"
       style="overflow:visible">
      <path
         inkscape:connector-curvature="0"
         id="path5771"
         d="m -2.5,-1 c 0,2.76 -2.24,5 -5,5 -2.76,0 -5,-2.24 -5,-5 0,-2.76 2.24,-5 5,-5 2.76,0 5,2.24 5,5 z"
         style="fill:#858585;fill-rule:evenodd;stroke:#858585;stroke-width:1pt"
         transform="matrix(0.2,0,0,0.2,1.48,0.2)" />
    </marker>
    <marker
       inkscape:stockid="marker4516P"
       orient="auto"
       refY="0"
       refX="0"
       id="marker4516P"
       style="overflow:visible">
      <path
         inkscape:connector-curvature="0"
         id="path5774"
         d="m -2.5,-1 c 0,2.76 -2.24,5 -5,5 -2.76,0 -5,-2.24 -5,-5 0,-2.76 2.24,-5 5,-5 2.76,0 5,2.24 5,5 z"
         style="fill:#858585;fill-rule:evenodd;stroke:#858585;stroke-width:1pt"
         transform="matrix(0.2,0,0,0.2,1.48,0.2)" />
    </marker>
    <marker
       inkscape:stockid="DotSC"
       orient="auto"
       refY="0"
       refX="0"
       id="DotSC"
       style="overflow:visible">
      <path
         id="path5777"
         d="m -2.5,-1 c 0,2.76 -2.24,5 -5,5 -2.76,0 -5,-2.24 -5,-5 0,-2.76 2.24,-5 5,-5 2.76,0 5,2.24 5,5 z"
         style="fill:#858585;fill-rule:evenodd;stroke:#858585;stroke-width:1pt"
         transform="matrix(0.2,0,0,0.2,1.48,0.2)"
         inkscape:connector-curvature="0" />
    </marker>
    <marker
       inkscape:stockid="DotSL"
       orient="auto"
       refY="0"
       refX="0"
       id="DotSL"
       style="overflow:visible">
      <path
         id="path5780"
         d="m -2.5,-1 c 0,2.76 -2.24,5 -5,5 -2.76,0 -5,-2.24 -5,-5 0,-2.76 2.24,-5 5,-5 2.76,0 5,2.24 5,5 z"
         style="fill:#858585;fill-rule:evenodd;stroke:#858585;stroke-width:1pt"
         transform="matrix(0.2,0,0,0.2,1.48,0.2)"
         inkscape:connector-curvature="0" />
    </marker>
    <marker
       inkscape:stockid="DotSf"
       orient="auto"
       refY="0"
       refX="0"
       id="DotSf"
       style="overflow:visible">
      <path
         id="path5783"
         d="m -2.5,-1 c 0,2.76 -2.24,5 -5,5 -2.76,0 -5,-2.24 -5,-5 0,-2.76 2.24,-5 5,-5 2.76,0 5,2.24 5,5 z"
         style="fill:#858585;fill-rule:evenodd;stroke:#858585;stroke-width:1pt"
         transform="matrix(0.2,0,0,0.2,1.48,0.2)"
         inkscape:connector-curvature="0" />
    </marker>
    <marker
       inkscape:stockid="DotS7"
       orient="auto"
       refY="0"
       refX="0"
       id="DotS7"
       style="overflow:visible">
      <path
         id="path5786"
         d="m -2.5,-1 c 0,2.76 -2.24,5 -5,5 -2.76,0 -5,-2.24 -5,-5 0,-2.76 2.24,-5 5,-5 2.76,0 5,2.24 5,5 z"
         style="fill:#858585;fill-rule:evenodd;stroke:#858585;stroke-width:1pt"
         transform="matrix(0.2,0,0,0.2,1.48,0.2)"
         inkscape:connector-curvature="0" />
    </marker>
    <marker
       inkscape:stockid="DotSS"
       orient="auto"
       refY="0"
       refX="0"
       id="DotSS"
       style="overflow:visible">
      <path
         id="path5789"
         d="m -2.5,-1 c 0,2.76 -2.24,5 -5,5 -2.76,0 -5,-2.24 -5,-5 0,-2.76 2.24,-5 5,-5 2.76,0 5,2.24 5,5 z"
         style="fill:#858585;fill-rule:evenodd;stroke:#858585;stroke-width:1pt"
         transform="matrix(0.2,0,0,0.2,1.48,0.2)"
         inkscape:connector-curvature="0" />
    </marker>
    <marker
       inkscape:stockid="DotSy"
       orient="auto"
       refY="0"
       refX="0"
       id="DotSy"
       style="overflow:visible">
      <path
         id="path5792"
         d="m -2.5,-1 c 0,2.76 -2.24,5 -5,5 -2.76,0 -5,-2.24 -5,-5 0,-2.76 2.24,-5 5,-5 2.76,0 5,2.24 5,5 z"
         style="fill:#858585;fill-rule:evenodd;stroke:#858585;stroke-width:1pt"
         transform="matrix(0.2,0,0,0.2,1.48,0.2)"
         inkscape:connector-curvature="0" />
    </marker>
    <marker
       inkscape:stockid="marker4516C"
       orient="auto"
       refY="0"
       refX="0"
       id="marker4516C"
       style="overflow:visible">
      <path
         inkscape:connector-curvature="0"
         id="path5795"
         d="m -2.5,-1 c 0,2.76 -2.24,5 -5,5 -2.76,0 -5,-2.24 -5,-5 0,-2.76 2.24,-5 5,-5 2.76,0 5,2.24 5,5 z"
         style="fill:#858585;fill-rule:evenodd;stroke:#858585;stroke-width:1pt"
         transform="matrix(0.2,0,0,0.2,1.48,0.2)" />
    </marker>
    <marker
       inkscape:stockid="marker45162"
       orient="auto"
       refY="0"
       refX="0"
       id="marker45162"
       style="overflow:visible">
      <path
         inkscape:connector-curvature="0"
         id="path5798"
         d="m -2.5,-1 c 0,2.76 -2.24,5 -5,5 -2.76,0 -5,-2.24 -5,-5 0,-2.76 2.24,-5 5,-5 2.76,0 5,2.24 5,5 z"
         style="fill:#858585;fill-rule:evenodd;stroke:#858585;stroke-width:1pt"
         transform="matrix(0.2,0,0,0.2,1.48,0.2)" />
    </marker>
    <marker
       inkscape:stockid="DotSG"
       orient="auto"
       refY="0"
       refX="0"
       id="DotSG"
       style="overflow:visible">
      <path
         id="path5801"
         d="m -2.5,-1 c 0,2.76 -2.24,5 -5,5 -2.76,0 -5,-2.24 -5,-5 0,-2.76 2.24,-5 5,-5 2.76,0 5,2.24 5,5 z"
         style="fill:#858585;fill-rule:evenodd;stroke:#858585;stroke-width:1pt"
         transform="matrix(0.2,0,0,0.2,1.48,0.2)"
         inkscape:connector-curvature="0" />
    </marker>
    <marker
       inkscape:stockid="DotS5"
       orient="auto"
       refY="0"
       refX="0"
       id="DotS5"
       style="overflow:visible">
      <path
         id="path5804"
         d="m -2.5,-1 c 0,2.76 -2.24,5 -5,5 -2.76,0 -5,-2.24 -5,-5 0,-2.76 2.24,-5 5,-5 2.76,0 5,2.24 5,5 z"
         style="fill:#858585;fill-rule:evenodd;stroke:#858585;stroke-width:1pt"
         transform="matrix(0.2,0,0,0.2,1.48,0.2)"
         inkscape:connector-curvature="0" />
    </marker>
    <marker
       inkscape:stockid="DotSsA"
       orient="auto"
       refY="0"
       refX="0"
       id="DotSsA"
       style="overflow:visible">
      <path
         id="path5807"
         d="m -2.5,-1 c 0,2.76 -2.24,5 -5,5 -2.76,0 -5,-2.24 -5,-5 0,-2.76 2.24,-5 5,-5 2.76,0 5,2.24 5,5 z"
         style="fill:#858585;fill-rule:evenodd;stroke:#858585;stroke-width:1pt"
         transform="matrix(0.2,0,0,0.2,1.48,0.2)"
         inkscape:connector-curvature="0" />
    </marker>
    <marker
       inkscape:stockid="DotSLd"
       orient="auto"
       refY="0"
       refX="0"
       id="DotSLd"
       style="overflow:visible">
      <path
         id="path5810"
         d="m -2.5,-1 c 0,2.76 -2.24,5 -5,5 -2.76,0 -5,-2.24 -5,-5 0,-2.76 2.24,-5 5,-5 2.76,0 5,2.24 5,5 z"
         style="fill:#858585;fill-rule:evenodd;stroke:#858585;stroke-width:1pt"
         transform="matrix(0.2,0,0,0.2,1.48,0.2)"
         inkscape:connector-curvature="0" />
    </marker>
    <marker
       inkscape:stockid="DotSd"
       orient="auto"
       refY="0"
       refX="0"
       id="DotSd"
       style="overflow:visible">
      <path
         id="path5813"
         d="m -2.5,-1 c 0,2.76 -2.24,5 -5,5 -2.76,0 -5,-2.24 -5,-5 0,-2.76 2.24,-5 5,-5 2.76,0 5,2.24 5,5 z"
         style="fill:#858585;fill-rule:evenodd;stroke:#858585;stroke-width:1pt"
         transform="matrix(0.2,0,0,0.2,1.48,0.2)"
         inkscape:connector-curvature="0" />
    </marker>
    <marker
       inkscape:stockid="DotSyI"
       orient="auto"
       refY="0"
       refX="0"
       id="DotSyI"
       style="overflow:visible">
      <path
         id="path5816"
         d="m -2.5,-1 c 0,2.76 -2.24,5 -5,5 -2.76,0 -5,-2.24 -5,-5 0,-2.76 2.24,-5 5,-5 2.76,0 5,2.24 5,5 z"
         style="fill:#858585;fill-rule:evenodd;stroke:#858585;stroke-width:1pt"
         transform="matrix(0.2,0,0,0.2,1.48,0.2)"
         inkscape:connector-curvature="0" />
    </marker>
    <marker
       inkscape:stockid="marker4516y"
       orient="auto"
       refY="0"
       refX="0"
       id="marker4516y"
       style="overflow:visible">
      <path
         inkscape:connector-curvature="0"
         id="path5819"
         d="m -2.5,-1 c 0,2.76 -2.24,5 -5,5 -2.76,0 -5,-2.24 -5,-5 0,-2.76 2.24,-5 5,-5 2.76,0 5,2.24 5,5 z"
         style="fill:#858585;fill-rule:evenodd;stroke:#858585;stroke-width:1pt"
         transform="matrix(0.2,0,0,0.2,1.48,0.2)" />
    </marker>
    <marker
       inkscape:stockid="marker4516I"
       orient="auto"
       refY="0"
       refX="0"
       id="marker4516I"
       style="overflow:visible">
      <path
         inkscape:connector-curvature="0"
         id="path5822"
         d="m -2.5,-1 c 0,2.76 -2.24,5 -5,5 -2.76,0 -5,-2.24 -5,-5 0,-2.76 2.24,-5 5,-5 2.76,0 5,2.24 5,5 z"
         style="fill:#858585;fill-rule:evenodd;stroke:#858585;stroke-width:1pt"
         transform="matrix(0.2,0,0,0.2,1.48,0.2)" />
    </marker>
    <marker
       inkscape:stockid="marker5218b"
       orient="auto"
       refY="0"
       refX="0"
       id="marker5218b"
       style="overflow:visible">
      <path
         inkscape:connector-curvature="0"
         id="path5825"
         d="m -2.5,-1 c 0,2.76 -2.24,5 -5,5 -2.76,0 -5,-2.24 -5,-5 0,-2.76 2.24,-5 5,-5 2.76,0 5,2.24 5,5 z"
         style="fill:#858585;fill-rule:evenodd;stroke:#858585;stroke-width:1pt"
         transform="matrix(0.2,0,0,0.2,1.48,0.2)" />
    </marker>
    <marker
       inkscape:stockid="marker5218X"
       orient="auto"
       refY="0"
       refX="0"
       id="marker5218X"
       style="overflow:visible">
      <path
         inkscape:connector-curvature="0"
         id="path5828"
         d="m -2.5,-1 c 0,2.76 -2.24,5 -5,5 -2.76,0 -5,-2.24 -5,-5 0,-2.76 2.24,-5 5,-5 2.76,0 5,2.24 5,5 z"
         style="fill:#858585;fill-rule:evenodd;stroke:#858585;stroke-width:1pt"
         transform="matrix(0.2,0,0,0.2,1.48,0.2)" />
    </marker>
    <marker
       inkscape:stockid="DotSQL"
       orient="auto"
       refY="0"
       refX="0"
       id="DotSQL"
       style="overflow:visible">
      <path
         id="path6109"
         d="m -2.5,-1 c 0,2.76 -2.24,5 -5,5 -2.76,0 -5,-2.24 -5,-5 0,-2.76 2.24,-5 5,-5 2.76,0 5,2.24 5,5 z"
         style="fill:#ffc400;fill-rule:evenodd;stroke:#ffc400;stroke-width:1pt"
         transform="matrix(0.2,0,0,0.2,1.48,0.2)"
         inkscape:connector-curvature="0" />
    </marker>
    <marker
       inkscape:stockid="DotSgb"
       orient="auto"
       refY="0"
       refX="0"
       id="DotSgb"
       style="overflow:visible">
      <path
         id="path6112"
         d="m -2.5,-1 c 0,2.76 -2.24,5 -5,5 -2.76,0 -5,-2.24 -5,-5 0,-2.76 2.24,-5 5,-5 2.76,0 5,2.24 5,5 z"
         style="fill:#ffc400;fill-rule:evenodd;stroke:#ffc400;stroke-width:1pt"
         transform="matrix(0.2,0,0,0.2,1.48,0.2)"
         inkscape:connector-curvature="0" />
    </marker>
    <marker
       inkscape:stockid="marker4516J6"
       orient="auto"
       refY="0"
       refX="0"
       id="marker4516J6"
       style="overflow:visible">
      <path
         inkscape:connector-curvature="0"
         id="path6115"
         d="m -2.5,-1 c 0,2.76 -2.24,5 -5,5 -2.76,0 -5,-2.24 -5,-5 0,-2.76 2.24,-5 5,-5 2.76,0 5,2.24 5,5 z"
         style="fill:#ffc400;fill-rule:evenodd;stroke:#ffc400;stroke-width:1pt"
         transform="matrix(0.2,0,0,0.2,1.48,0.2)" />
    </marker>
    <marker
       inkscape:stockid="marker4516Pl"
       orient="auto"
       refY="0"
       refX="0"
       id="marker4516Pl"
       style="overflow:visible">
      <path
         inkscape:connector-curvature="0"
         id="path6118"
         d="m -2.5,-1 c 0,2.76 -2.24,5 -5,5 -2.76,0 -5,-2.24 -5,-5 0,-2.76 2.24,-5 5,-5 2.76,0 5,2.24 5,5 z"
         style="fill:#ffc400;fill-rule:evenodd;stroke:#ffc400;stroke-width:1pt"
         transform="matrix(0.2,0,0,0.2,1.48,0.2)" />
    </marker>
    <marker
       inkscape:stockid="DotSSB"
       orient="auto"
       refY="0"
       refX="0"
       id="DotSSB"
       style="overflow:visible">
      <path
         id="path6121"
         d="m -2.5,-1 c 0,2.76 -2.24,5 -5,5 -2.76,0 -5,-2.24 -5,-5 0,-2.76 2.24,-5 5,-5 2.76,0 5,2.24 5,5 z"
         style="fill:#ffc400;fill-rule:evenodd;stroke:#ffc400;stroke-width:1pt"
         transform="matrix(0.2,0,0,0.2,1.48,0.2)"
         inkscape:connector-curvature="0" />
    </marker>
    <marker
       inkscape:stockid="DotSyD"
       orient="auto"
       refY="0"
       refX="0"
       id="DotSyD"
       style="overflow:visible">
      <path
         id="path6124"
         d="m -2.5,-1 c 0,2.76 -2.24,5 -5,5 -2.76,0 -5,-2.24 -5,-5 0,-2.76 2.24,-5 5,-5 2.76,0 5,2.24 5,5 z"
         style="fill:#ffc400;fill-rule:evenodd;stroke:#ffc400;stroke-width:1pt"
         transform="matrix(0.2,0,0,0.2,1.48,0.2)"
         inkscape:connector-curvature="0" />
    </marker>
    <marker
       inkscape:stockid="marker4516Ct"
       orient="auto"
       refY="0"
       refX="0"
       id="marker4516Ct"
       style="overflow:visible">
      <path
         inkscape:connector-curvature="0"
         id="path6127"
         d="m -2.5,-1 c 0,2.76 -2.24,5 -5,5 -2.76,0 -5,-2.24 -5,-5 0,-2.76 2.24,-5 5,-5 2.76,0 5,2.24 5,5 z"
         style="fill:#ffc400;fill-rule:evenodd;stroke:#ffc400;stroke-width:1pt"
         transform="matrix(0.2,0,0,0.2,1.48,0.2)" />
    </marker>
    <marker
       inkscape:stockid="marker451623"
       orient="auto"
       refY="0"
       refX="0"
       id="marker451623"
       style="overflow:visible">
      <path
         inkscape:connector-curvature="0"
         id="path6130"
         d="m -2.5,-1 c 0,2.76 -2.24,5 -5,5 -2.76,0 -5,-2.24 -5,-5 0,-2.76 2.24,-5 5,-5 2.76,0 5,2.24 5,5 z"
         style="fill:#ffc400;fill-rule:evenodd;stroke:#ffc400;stroke-width:1pt"
         transform="matrix(0.2,0,0,0.2,1.48,0.2)" />
    </marker>
    <marker
       inkscape:stockid="marker4516yb"
       orient="auto"
       refY="0"
       refX="0"
       id="marker4516yb"
       style="overflow:visible">
      <path
         inkscape:connector-curvature="0"
         id="path6133"
         d="m -2.5,-1 c 0,2.76 -2.24,5 -5,5 -2.76,0 -5,-2.24 -5,-5 0,-2.76 2.24,-5 5,-5 2.76,0 5,2.24 5,5 z"
         style="fill:#ffc400;fill-rule:evenodd;stroke:#ffc400;stroke-width:1pt"
         transform="matrix(0.2,0,0,0.2,1.48,0.2)" />
    </marker>
    <marker
       inkscape:stockid="marker4516IS"
       orient="auto"
       refY="0"
       refX="0"
       id="marker4516IS"
       style="overflow:visible">
      <path
         inkscape:connector-curvature="0"
         id="path6136"
         d="m -2.5,-1 c 0,2.76 -2.24,5 -5,5 -2.76,0 -5,-2.24 -5,-5 0,-2.76 2.24,-5 5,-5 2.76,0 5,2.24 5,5 z"
         style="fill:#ffc400;fill-rule:evenodd;stroke:#ffc400;stroke-width:1pt"
         transform="matrix(0.2,0,0,0.2,1.48,0.2)" />
    </marker>
    <marker
       inkscape:stockid="DotSsAi"
       orient="auto"
       refY="0"
       refX="0"
       id="DotSsAi"
       style="overflow:visible">
      <path
         id="path6139"
         d="m -2.5,-1 c 0,2.76 -2.24,5 -5,5 -2.76,0 -5,-2.24 -5,-5 0,-2.76 2.24,-5 5,-5 2.76,0 5,2.24 5,5 z"
         style="fill:#ffc400;fill-rule:evenodd;stroke:#ffc400;stroke-width:1pt"
         transform="matrix(0.2,0,0,0.2,1.48,0.2)"
         inkscape:connector-curvature="0" />
    </marker>
    <marker
       inkscape:stockid="DotSLdG"
       orient="auto"
       refY="0"
       refX="0"
       id="DotSLdG"
       style="overflow:visible">
      <path
         id="path6142"
         d="m -2.5,-1 c 0,2.76 -2.24,5 -5,5 -2.76,0 -5,-2.24 -5,-5 0,-2.76 2.24,-5 5,-5 2.76,0 5,2.24 5,5 z"
         style="fill:#ffc400;fill-rule:evenodd;stroke:#ffc400;stroke-width:1pt"
         transform="matrix(0.2,0,0,0.2,1.48,0.2)"
         inkscape:connector-curvature="0" />
    </marker>
    <marker
       inkscape:stockid="DotSd7"
       orient="auto"
       refY="0"
       refX="0"
       id="DotSd7"
       style="overflow:visible">
      <path
         id="path6145"
         d="m -2.5,-1 c 0,2.76 -2.24,5 -5,5 -2.76,0 -5,-2.24 -5,-5 0,-2.76 2.24,-5 5,-5 2.76,0 5,2.24 5,5 z"
         style="fill:#ffc400;fill-rule:evenodd;stroke:#ffc400;stroke-width:1pt"
         transform="matrix(0.2,0,0,0.2,1.48,0.2)"
         inkscape:connector-curvature="0" />
    </marker>
    <marker
       inkscape:stockid="DotSyIp"
       orient="auto"
       refY="0"
       refX="0"
       id="DotSyIp"
       style="overflow:visible">
      <path
         id="path6148"
         d="m -2.5,-1 c 0,2.76 -2.24,5 -5,5 -2.76,0 -5,-2.24 -5,-5 0,-2.76 2.24,-5 5,-5 2.76,0 5,2.24 5,5 z"
         style="fill:#ffc400;fill-rule:evenodd;stroke:#ffc400;stroke-width:1pt"
         transform="matrix(0.2,0,0,0.2,1.48,0.2)"
         inkscape:connector-curvature="0" />
    </marker>
    <marker
       inkscape:stockid="DotSvS"
       orient="auto"
       refY="0"
       refX="0"
       id="DotSvS"
       style="overflow:visible">
      <path
         id="path6151"
         d="m -2.5,-1 c 0,2.76 -2.24,5 -5,5 -2.76,0 -5,-2.24 -5,-5 0,-2.76 2.24,-5 5,-5 2.76,0 5,2.24 5,5 z"
         style="fill:#ffc400;fill-rule:evenodd;stroke:#ffc400;stroke-width:1pt"
         transform="matrix(0.2,0,0,0.2,1.48,0.2)"
         inkscape:connector-curvature="0" />
    </marker>
    <marker
       inkscape:stockid="DotSsJ"
       orient="auto"
       refY="0"
       refX="0"
       id="DotSsJ"
       style="overflow:visible">
      <path
         id="path6154"
         d="m -2.5,-1 c 0,2.76 -2.24,5 -5,5 -2.76,0 -5,-2.24 -5,-5 0,-2.76 2.24,-5 5,-5 2.76,0 5,2.24 5,5 z"
         style="fill:#ffc400;fill-rule:evenodd;stroke:#ffc400;stroke-width:1pt"
         transform="matrix(0.2,0,0,0.2,1.48,0.2)"
         inkscape:connector-curvature="0" />
    </marker>
    <marker
       inkscape:stockid="DotSfb"
       orient="auto"
       refY="0"
       refX="0"
       id="DotSfb"
       style="overflow:visible">
      <path
         id="path6157"
         d="m -2.5,-1 c 0,2.76 -2.24,5 -5,5 -2.76,0 -5,-2.24 -5,-5 0,-2.76 2.24,-5 5,-5 2.76,0 5,2.24 5,5 z"
         style="fill:#ffc400;fill-rule:evenodd;stroke:#ffc400;stroke-width:1pt"
         transform="matrix(0.2,0,0,0.2,1.48,0.2)"
         inkscape:connector-curvature="0" />
    </marker>
    <marker
       inkscape:stockid="DotS7T"
       orient="auto"
       refY="0"
       refX="0"
       id="DotS7T"
       style="overflow:visible">
      <path
         id="path6160"
         d="m -2.5,-1 c 0,2.76 -2.24,5 -5,5 -2.76,0 -5,-2.24 -5,-5 0,-2.76 2.24,-5 5,-5 2.76,0 5,2.24 5,5 z"
         style="fill:#ffc400;fill-rule:evenodd;stroke:#ffc400;stroke-width:1pt"
         transform="matrix(0.2,0,0,0.2,1.48,0.2)"
         inkscape:connector-curvature="0" />
    </marker>
    <marker
       inkscape:stockid="DotSko"
       orient="auto"
       refY="0"
       refX="0"
       id="DotSko"
       style="overflow:visible">
      <path
         id="path6163"
         d="m -2.5,-1 c 0,2.76 -2.24,5 -5,5 -2.76,0 -5,-2.24 -5,-5 0,-2.76 2.24,-5 5,-5 2.76,0 5,2.24 5,5 z"
         style="fill:#ffc400;fill-rule:evenodd;stroke:#ffc400;stroke-width:1pt"
         transform="matrix(0.2,0,0,0.2,1.48,0.2)"
         inkscape:connector-curvature="0" />
    </marker>
    <marker
       inkscape:stockid="DotSKZ"
       orient="auto"
       refY="0"
       refX="0"
       id="DotSKZ"
       style="overflow:visible">
      <path
         id="path6166"
         d="m -2.5,-1 c 0,2.76 -2.24,5 -5,5 -2.76,0 -5,-2.24 -5,-5 0,-2.76 2.24,-5 5,-5 2.76,0 5,2.24 5,5 z"
         style="fill:#ffc400;fill-rule:evenodd;stroke:#ffc400;stroke-width:1pt"
         transform="matrix(0.2,0,0,0.2,1.48,0.2)"
         inkscape:connector-curvature="0" />
    </marker>
    <marker
       inkscape:stockid="DotSCa"
       orient="auto"
       refY="0"
       refX="0"
       id="DotSCa"
       style="overflow:visible">
      <path
         id="path6169"
         d="m -2.5,-1 c 0,2.76 -2.24,5 -5,5 -2.76,0 -5,-2.24 -5,-5 0,-2.76 2.24,-5 5,-5 2.76,0 5,2.24 5,5 z"
         style="fill:#ffc400;fill-rule:evenodd;stroke:#ffc400;stroke-width:1pt"
         transform="matrix(0.2,0,0,0.2,1.48,0.2)"
         inkscape:connector-curvature="0" />
    </marker>
    <marker
       inkscape:stockid="DotSLi"
       orient="auto"
       refY="0"
       refX="0"
       id="DotSLi"
       style="overflow:visible">
      <path
         id="path6172"
         d="m -2.5,-1 c 0,2.76 -2.24,5 -5,5 -2.76,0 -5,-2.24 -5,-5 0,-2.76 2.24,-5 5,-5 2.76,0 5,2.24 5,5 z"
         style="fill:#ffc400;fill-rule:evenodd;stroke:#ffc400;stroke-width:1pt"
         transform="matrix(0.2,0,0,0.2,1.48,0.2)"
         inkscape:connector-curvature="0" />
    </marker>
    <marker
       inkscape:stockid="marker5218bQ"
       orient="auto"
       refY="0"
       refX="0"
       id="marker5218bQ"
       style="overflow:visible">
      <path
         inkscape:connector-curvature="0"
         id="path6175"
         d="m -2.5,-1 c 0,2.76 -2.24,5 -5,5 -2.76,0 -5,-2.24 -5,-5 0,-2.76 2.24,-5 5,-5 2.76,0 5,2.24 5,5 z"
         style="fill:#ffc400;fill-rule:evenodd;stroke:#ffc400;stroke-width:1pt"
         transform="matrix(0.2,0,0,0.2,1.48,0.2)" />
    </marker>
    <marker
       inkscape:stockid="marker5218XM"
       orient="auto"
       refY="0"
       refX="0"
       id="marker5218XM"
       style="overflow:visible">
      <path
         inkscape:connector-curvature="0"
         id="path6178"
         d="m -2.5,-1 c 0,2.76 -2.24,5 -5,5 -2.76,0 -5,-2.24 -5,-5 0,-2.76 2.24,-5 5,-5 2.76,0 5,2.24 5,5 z"
         style="fill:#ffc400;fill-rule:evenodd;stroke:#ffc400;stroke-width:1pt"
         transform="matrix(0.2,0,0,0.2,1.48,0.2)" />
    </marker>
    <marker
       inkscape:stockid="DotSGn"
       orient="auto"
       refY="0"
       refX="0"
       id="DotSGn"
       style="overflow:visible">
      <path
         id="path6181"
         d="m -2.5,-1 c 0,2.76 -2.24,5 -5,5 -2.76,0 -5,-2.24 -5,-5 0,-2.76 2.24,-5 5,-5 2.76,0 5,2.24 5,5 z"
         style="fill:#ffc400;fill-rule:evenodd;stroke:#ffc400;stroke-width:1pt"
         transform="matrix(0.2,0,0,0.2,1.48,0.2)"
         inkscape:connector-curvature="0" />
    </marker>
    <marker
       inkscape:stockid="DotS5R"
       orient="auto"
       refY="0"
       refX="0"
       id="DotS5R"
       style="overflow:visible">
      <path
         id="path6184"
         d="m -2.5,-1 c 0,2.76 -2.24,5 -5,5 -2.76,0 -5,-2.24 -5,-5 0,-2.76 2.24,-5 5,-5 2.76,0 5,2.24 5,5 z"
         style="fill:#ffc400;fill-rule:evenodd;stroke:#ffc400;stroke-width:1pt"
         transform="matrix(0.2,0,0,0.2,1.48,0.2)"
         inkscape:connector-curvature="0" />
    </marker>
    <marker
       inkscape:stockid="DotSd7"
       orient="auto"
       refY="0"
       refX="0"
       id="DotSd7-9"
       style="overflow:visible">
      <path
         inkscape:connector-curvature="0"
         id="path6145-2"
         d="m -2.5,-1 c 0,2.76 -2.24,5 -5,5 -2.76,0 -5,-2.24 -5,-5 0,-2.76 2.24,-5 5,-5 2.76,0 5,2.24 5,5 z"
         style="fill:#ffc400;fill-rule:evenodd;stroke:#ffc400;stroke-width:1pt"
         transform="matrix(0.2,0,0,0.2,1.48,0.2)" />
    </marker>
    <marker
       inkscape:stockid="DotSyIp"
       orient="auto"
       refY="0"
       refX="0"
       id="DotSyIp-9"
       style="overflow:visible">
      <path
         inkscape:connector-curvature="0"
         id="path6148-2"
         d="m -2.5,-1 c 0,2.76 -2.24,5 -5,5 -2.76,0 -5,-2.24 -5,-5 0,-2.76 2.24,-5 5,-5 2.76,0 5,2.24 5,5 z"
         style="fill:#ffc400;fill-rule:evenodd;stroke:#ffc400;stroke-width:1pt"
         transform="matrix(0.2,0,0,0.2,1.48,0.2)" />
    </marker>
    <marker
       inkscape:stockid="DotSGn"
       orient="auto"
       refY="0"
       refX="0"
       id="DotSGn-0"
       style="overflow:visible">
      <path
         inkscape:connector-curvature="0"
         id="path6181-6"
         d="m -2.5,-1 c 0,2.76 -2.24,5 -5,5 -2.76,0 -5,-2.24 -5,-5 0,-2.76 2.24,-5 5,-5 2.76,0 5,2.24 5,5 z"
         style="fill:#ffc400;fill-rule:evenodd;stroke:#ffc400;stroke-width:1pt"
         transform="matrix(0.2,0,0,0.2,1.48,0.2)" />
    </marker>
    <marker
       inkscape:stockid="DotS5R"
       orient="auto"
       refY="0"
       refX="0"
       id="DotS5R-3"
       style="overflow:visible">
      <path
         inkscape:connector-curvature="0"
         id="path6184-9"
         d="m -2.5,-1 c 0,2.76 -2.24,5 -5,5 -2.76,0 -5,-2.24 -5,-5 0,-2.76 2.24,-5 5,-5 2.76,0 5,2.24 5,5 z"
         style="fill:#ffc400;fill-rule:evenodd;stroke:#ffc400;stroke-width:1pt"
         transform="matrix(0.2,0,0,0.2,1.48,0.2)" />
    </marker>
    <marker
       inkscape:stockid="marker5218bQ"
       orient="auto"
       refY="0"
       refX="0"
       id="marker5218bQ-7"
       style="overflow:visible">
      <path
         inkscape:connector-curvature="0"
         id="path6175-9"
         d="m -2.5,-1 c 0,2.76 -2.24,5 -5,5 -2.76,0 -5,-2.24 -5,-5 0,-2.76 2.24,-5 5,-5 2.76,0 5,2.24 5,5 z"
         style="fill:#ffc400;fill-rule:evenodd;stroke:#ffc400;stroke-width:1pt"
         transform="matrix(0.2,0,0,0.2,1.48,0.2)" />
    </marker>
    <marker
       inkscape:stockid="marker5218XM"
       orient="auto"
       refY="0"
       refX="0"
       id="marker5218XM-8"
       style="overflow:visible">
      <path
         inkscape:connector-curvature="0"
         id="path6178-2"
         d="m -2.5,-1 c 0,2.76 -2.24,5 -5,5 -2.76,0 -5,-2.24 -5,-5 0,-2.76 2.24,-5 5,-5 2.76,0 5,2.24 5,5 z"
         style="fill:#ffc400;fill-rule:evenodd;stroke:#ffc400;stroke-width:1pt"
         transform="matrix(0.2,0,0,0.2,1.48,0.2)" />
    </marker>
    <marker
       inkscape:stockid="marker5218bQ"
       orient="auto"
       refY="0"
       refX="0"
       id="marker5218bQ-9"
       style="overflow:visible">
      <path
         inkscape:connector-curvature="0"
         id="path6175-95"
         d="m -2.5,-1 c 0,2.76 -2.24,5 -5,5 -2.76,0 -5,-2.24 -5,-5 0,-2.76 2.24,-5 5,-5 2.76,0 5,2.24 5,5 z"
         style="fill:#ffc400;fill-rule:evenodd;stroke:#ffc400;stroke-width:1pt"
         transform="matrix(0.2,0,0,0.2,1.48,0.2)" />
    </marker>
    <marker
       inkscape:stockid="marker5218XM"
       orient="auto"
       refY="0"
       refX="0"
       id="marker5218XM-4"
       style="overflow:visible">
      <path
         inkscape:connector-curvature="0"
         id="path6178-29"
         d="m -2.5,-1 c 0,2.76 -2.24,5 -5,5 -2.76,0 -5,-2.24 -5,-5 0,-2.76 2.24,-5 5,-5 2.76,0 5,2.24 5,5 z"
         style="fill:#ffc400;fill-rule:evenodd;stroke:#ffc400;stroke-width:1pt"
         transform="matrix(0.2,0,0,0.2,1.48,0.2)" />
    </marker>
    <marker
       inkscape:stockid="DotSGn"
       orient="auto"
       refY="0"
       refX="0"
       id="DotSGn-08"
       style="overflow:visible">
      <path
         inkscape:connector-curvature="0"
         id="path6181-5"
         d="m -2.5,-1 c 0,2.76 -2.24,5 -5,5 -2.76,0 -5,-2.24 -5,-5 0,-2.76 2.24,-5 5,-5 2.76,0 5,2.24 5,5 z"
         style="fill:#ffc400;fill-rule:evenodd;stroke:#ffc400;stroke-width:1pt"
         transform="matrix(0.2,0,0,0.2,1.48,0.2)" />
    </marker>
    <marker
       inkscape:stockid="DotS5R"
       orient="auto"
       refY="0"
       refX="0"
       id="DotS5R-8"
       style="overflow:visible">
      <path
         inkscape:connector-curvature="0"
         id="path6184-1"
         d="m -2.5,-1 c 0,2.76 -2.24,5 -5,5 -2.76,0 -5,-2.24 -5,-5 0,-2.76 2.24,-5 5,-5 2.76,0 5,2.24 5,5 z"
         style="fill:#ffc400;fill-rule:evenodd;stroke:#ffc400;stroke-width:1pt"
         transform="matrix(0.2,0,0,0.2,1.48,0.2)" />
    </marker>
    <marker
       inkscape:stockid="marker4516Ct"
       orient="auto"
       refY="0"
       refX="0"
       id="marker4516Ct-0"
       style="overflow:visible">
      <path
         inkscape:connector-curvature="0"
         id="path6127-3"
         d="m -2.5,-1 c 0,2.76 -2.24,5 -5,5 -2.76,0 -5,-2.24 -5,-5 0,-2.76 2.24,-5 5,-5 2.76,0 5,2.24 5,5 z"
         style="fill:#ffc400;fill-rule:evenodd;stroke:#ffc400;stroke-width:1pt"
         transform="matrix(0.2,0,0,0.2,1.48,0.2)" />
    </marker>
    <marker
       inkscape:stockid="marker451623"
       orient="auto"
       refY="0"
       refX="0"
       id="marker451623-8"
       style="overflow:visible">
      <path
         inkscape:connector-curvature="0"
         id="path6130-8"
         d="m -2.5,-1 c 0,2.76 -2.24,5 -5,5 -2.76,0 -5,-2.24 -5,-5 0,-2.76 2.24,-5 5,-5 2.76,0 5,2.24 5,5 z"
         style="fill:#ffc400;fill-rule:evenodd;stroke:#ffc400;stroke-width:1pt"
         transform="matrix(0.2,0,0,0.2,1.48,0.2)" />
    </marker>
    <marker
       inkscape:stockid="marker5218bQ"
       orient="auto"
       refY="0"
       refX="0"
       id="marker5218bQ-0"
       style="overflow:visible">
      <path
         inkscape:connector-curvature="0"
         id="path6175-8"
         d="m -2.5,-1 c 0,2.76 -2.24,5 -5,5 -2.76,0 -5,-2.24 -5,-5 0,-2.76 2.24,-5 5,-5 2.76,0 5,2.24 5,5 z"
         style="fill:#ffc400;fill-rule:evenodd;stroke:#ffc400;stroke-width:1pt"
         transform="matrix(0.2,0,0,0.2,1.48,0.2)" />
    </marker>
    <marker
       inkscape:stockid="marker5218XM"
       orient="auto"
       refY="0"
       refX="0"
       id="marker5218XM-86"
       style="overflow:visible">
      <path
         inkscape:connector-curvature="0"
         id="path6178-7"
         d="m -2.5,-1 c 0,2.76 -2.24,5 -5,5 -2.76,0 -5,-2.24 -5,-5 0,-2.76 2.24,-5 5,-5 2.76,0 5,2.24 5,5 z"
         style="fill:#ffc400;fill-rule:evenodd;stroke:#ffc400;stroke-width:1pt"
         transform="matrix(0.2,0,0,0.2,1.48,0.2)" />
    </marker>
    <circle
       transform="matrix(0.8755829,0,0,0.8755829,152.4506,-680.83707)"
       id="path6572"
       style="fill:none;stroke:none"
       cx="675.71429"
       cy="777.58148"
       r="584.28571" />
    <circle
       transform="matrix(-1.1162727,-0.04357729,-0.04357729,1.1162727,1532.2608,-838.54723)"
       id="path6572-9"
       style="fill:none;stroke:none"
       cx="675.71429"
       cy="777.58148"
       r="584.28571" />
  </defs>
  <metadata
     id="metadata7">
    <rdf:RDF>
      <cc:Work
         rdf:about="">
        <dc:format>image/svg+xml</dc:format>
        <dc:type
           rdf:resource="http://purl.org/dc/dcmitype/StillImage" />
        <dc:title></dc:title>
      </cc:Work>
    </rdf:RDF>
  </metadata>
  <g
     inkscape:label="Ebene 1"
     inkscape:groupmode="layer"
     id="layer1"
     transform="translate(0,-783.07098)">
    <path
       id="path2-3"
       style="fill:#000000;fill-opacity:1;stroke-width:2.60005"
       d="m 94.347271,783.07098 c -47.8855,0.0124 -88.9306598,36.3101 -93.85937975,84.96875 -5.25732005,51.9026 32.57398975,98.26225 84.47656975,103.51953 51.902609,5.25737 98.268089,-32.57586 103.525389,-84.47852 5.25734,-51.90264 -32.57986,-98.26025 -84.48242,-103.51757 -3.24298,-0.3285 -6.466829,-0.49302 -9.660159,-0.49219 z m -2.21094,7.45703 c 3.6767,-0.12922 5.40816,1.57295 5.51172,4.51953 l 0.27539,7.86133 c 0.0994,2.82924 -1.63337,4.76989 -5.17969,4.89453 l -1.86523,0.0664 c -3.6767,0.12922 -5.40621,-1.57296 -5.50977,-4.51953 l -0.27734,-7.86133 c -0.099,-2.81619 1.63532,-4.7699 5.18164,-4.89453 z m 13.244139,0.83399 c 0.0572,-0.01 0.12021,-0.009 0.1875,0.004 l 6.0625,1.14844 c 3.51226,0.66471 4.88934,2.93029 4.30469,6.01953 l -0.0742,0.39649 c -0.49004,2.58932 -2.69757,4.70815 -6.22265,4.04101 l -2.46094,-0.46484 c -0.26919,-0.0509 -0.46658,0.0843 -0.51758,0.35351 l -0.97266,5.13867 c -0.051,0.26915 -0.25034,0.40442 -0.51953,0.35352 l -2.71679,-0.51367 c -0.26914,-0.0509 -0.40452,-0.24839 -0.35352,-0.51758 l 2.95313,-15.60156 c 0.0382,-0.20186 0.15838,-0.32828 0.33007,-0.35742 z m -30.833979,1.83593 c 2.35874,-0.0365 4.10163,1.35302 4.77539,3.82813 0.4763,1.74972 0.15306,3.24237 -1.05469,4.51758 -0.10534,0.10979 -0.14658,0.20398 -0.11914,0.30468 0.0274,0.1007 0.0735,0.16937 0.13867,0.25977 l 4.10156,5.33203 c 0.18525,0.23351 0.2792,0.38368 0.30664,0.48438 0.0274,0.10071 -0.0466,0.2284 -0.24804,0.2832 l -3.04492,0.83008 c -0.10072,0.0274 -0.20601,-0.0115 -0.30665,-0.13282 l -4.0664,-5.24804 c -0.0846,-0.11227 -0.19725,-0.13627 -0.31055,-0.10547 l -2.17773,0.59375 c -0.26432,0.072 -0.38448,0.27862 -0.3125,0.54297 l 1.48047,5.43945 c 0.072,0.26434 -0.0462,0.47292 -0.31055,0.54492 l -2.66992,0.72461 c -0.26435,0.072 -0.47296,-0.0462 -0.54492,-0.31054 l -4.16993,-15.32032 c -0.072,-0.26435 0.0482,-0.47097 0.3125,-0.54297 l 6.49414,-1.76953 c 0.60422,-0.16447 1.18224,-0.24743 1.72657,-0.25586 z m 17.70703,0.65625 -1.86524,0.0645 c -1.04303,0.0367 -1.66672,0.86917 -1.63281,1.83398 l 0.25,7.07813 c 0.0362,1.03 0.72782,1.75104 1.75781,1.71484 l 1.86329,-0.0664 c 1.04303,-0.0367 1.66721,-0.85418 1.63281,-1.83203 l -0.24805,-7.08008 c -0.0362,-1.03 -0.72781,-1.74909 -1.75781,-1.71289 z m 16.097659,1.45703 c -0.1717,0.0291 -0.29191,0.15553 -0.33008,0.35743 l -0.58008,3.0625 c -0.051,0.26919 0.0843,0.46863 0.35352,0.51953 l 2.5371,0.48047 c 1.01267,0.19165 1.92271,-0.34013 2.12891,-1.42969 l 0.0703,-0.37305 c 0.2062,-1.08957 -0.44241,-1.94115 -1.45507,-2.13281 l -2.53711,-0.48047 c -0.0673,-0.0127 -0.13027,-0.0136 -0.1875,-0.004 z m 15.02343,0.35352 c 0.058,0.003 0.11852,0.0164 0.18164,0.043 l 9.40235,3.96094 c 0.25252,0.10633 0.34267,0.32758 0.23633,0.58007 l -0.94727,2.24805 c -0.10634,0.25253 -0.3276,0.34461 -0.58008,0.23828 l -6.03515,-2.54297 c -0.25248,-0.10634 -0.47571,-0.0162 -0.58203,0.23633 l -0.94727,2.24805 c -0.10634,0.25248 -0.0162,0.47569 0.23633,0.58203 l 4.95508,2.08594 c 0.25251,0.10634 0.34266,0.3276 0.23632,0.58008 l -0.94726,2.25 c -0.10633,0.25252 -0.32759,0.34266 -0.58008,0.23632 l -4.95508,-2.08593 c -0.25249,-0.10634 -0.47375,-0.0162 -0.58008,0.23632 l -0.99804,2.36719 c -0.10633,0.25248 -0.0162,0.47569 0.23632,0.58203 l 6.03711,2.54102 c 0.25253,0.10634 0.34266,0.32955 0.23633,0.58203 l -0.94726,2.24805 c -0.10634,0.25252 -0.32955,0.34267 -0.58203,0.23633 l -9.40039,-3.95899 c -0.25255,-0.10633 -0.34463,-0.32954 -0.23829,-0.58203 l 6.16407,-14.63281 c 0.0797,-0.18939 0.22446,-0.28689 0.39843,-0.2793 z m -48.916009,0.91797 c -0.23266,-0.0188 -0.47795,0.005 -0.72657,0.0723 l -3.00781,0.81836 c -0.26434,0.072 -0.38446,0.28058 -0.3125,0.54493 l 0.74024,2.71875 c 0.072,0.26428 0.28058,0.38254 0.54492,0.31054 l 3.00781,-0.81836 c 0.96927,-0.26386 1.57727,-1.15899 1.33398,-2.05273 l -0.11914,-0.44141 c -0.18246,-0.67031 -0.76296,-1.0958 -1.46093,-1.15234 z m -16.83985,2.8418 c 1.86081,-0.0887 3.35493,0.93776 4.36719,2.84765 l 0.18945,0.35742 c 1.23412,2.32846 0.834,5.36091 -2.33593,7.04102 l -2.2129,1.17383 c -0.24206,0.1283 -0.31384,0.35754 -0.18554,0.59961 l 2.45117,4.62109 c 0.1283,0.24206 0.0565,0.47325 -0.18555,0.60156 l -2.44336,1.29493 c -0.24206,0.1283 -0.47131,0.0565 -0.59961,-0.18555 l -7.43554,-14.02735 c -0.1283,-0.24206 -0.0565,-0.4713 0.18554,-0.5996 l 5.45118,-2.89063 c 0.987,-0.52312 1.90808,-0.79365 2.7539,-0.83398 z m -0.0937,3.51367 c -0.34344,-0.0269 -0.70343,0.0495 -1.04492,0.23047 l -2.28125,1.20898 c -0.24207,0.1283 -0.31385,0.35754 -0.18555,0.59961 l 1.46094,2.75391 c 0.1283,0.2421 0.35754,0.31383 0.59961,0.18554 l 2.2832,-1.21093 c 0.91064,-0.48265 1.28884,-1.46553 0.76953,-2.44532 l -0.17773,-0.33398 c -0.32456,-0.61238 -0.85142,-0.94345 -1.42383,-0.98828 z m 82.312499,0.64844 c 0.10689,-0.018 0.22238,0.0124 0.33399,0.0918 l 5.48437,3.90235 c 2.72107,1.93645 3.18992,4.72069 1.35938,7.29296 -1.05144,1.47746 -2.4122,2.17468 -4.16406,2.04883 -0.15168,-0.0119 -0.25005,0.0146 -0.31055,0.0996 -0.0605,0.085 -0.0847,0.16377 -0.11328,0.27149 l -1.52344,6.55273 c -0.0632,0.2913 -0.11919,0.45992 -0.17969,0.54492 -0.0605,0.085 -0.20688,0.10931 -0.37695,-0.0117 l -2.57227,-1.83203 c -0.0855,-0.0605 -0.12189,-0.16557 -0.0918,-0.32031 l 1.48242,-6.4707 c 0.0331,-0.13655 -0.0215,-0.2406 -0.11719,-0.3086 l -1.83789,-1.30859 c -0.22321,-0.15884 -0.4603,-0.11774 -0.61914,0.10547 l -3.26758,4.5918 c -0.15885,0.22321 -0.39593,0.26236 -0.61914,0.10351 l -2.2539,-1.60351 c -0.22321,-0.15884 -0.26237,-0.39594 -0.10352,-0.61915 l 9.20508,-12.93554 c 0.0794,-0.11161 0.17827,-0.17731 0.28515,-0.19531 z m 1.04883,4.82812 c -0.10688,0.018 -0.20573,0.0837 -0.28515,0.19531 l -1.63477,2.29688 c -0.15886,0.22321 -0.11969,0.46029 0.10352,0.61914 l 2.54101,1.80664 c 0.81844,0.58244 1.89653,0.48514 2.4336,-0.26953 l 0.26562,-0.3711 c 0.53705,-0.75467 0.28893,-1.77937 -0.55078,-2.37695 l -2.54102,-1.80859 c -0.1116,-0.0794 -0.22514,-0.10981 -0.33203,-0.0918 z m -46.541009,5.74609 c 34.982409,-4e-4 63.320719,28.33595 63.320309,63.31836 -7.6e-4,27.53137 -19.22066,51.55227 -45.50195,59.92969 l -1.09571,0.34765 6.06641,12.60938 -2.41211,4.8457 -12.76563,5.85352 -6.203119,-2.25196 -5.84766,-11.82031 -3.0918,1.09766 -4.40625,-9.58985 -0.49023,-0.10351 c -29.02204,-6.22725 -50.89018,-31.00968 -50.89062,-60.91797 -4.2e-4,-34.98183 28.33649,-63.31794 63.31836,-63.31836 z m 60.124999,0.78907 c 0.10828,0.005 0.21428,0.059 0.30664,0.16015 l 7.00195,7.66797 c 0.18471,0.20232 0.17498,0.44222 -0.0273,0.62695 l -1.80274,1.64649 c -0.20231,0.18472 -0.44222,0.17303 -0.62695,-0.0293 l -1.9707,-2.1582 c -0.18474,-0.20233 -0.42269,-0.21402 -0.625,-0.0293 l -9.26954,8.46289 c -0.20232,0.18471 -0.44223,0.17303 -0.62695,-0.0293 l -1.86328,-2.04102 c -0.18481,-0.20233 -0.17498,-0.44223 0.0273,-0.62695 l 9.26954,-8.46289 c 0.20223,-0.18473 0.21206,-0.42464 0.0273,-0.62696 l -1.9707,-2.1582 c -0.18471,-0.20232 -0.17303,-0.44027 0.0293,-0.625 l 1.80078,-1.64648 c 0.10116,-0.0924 0.21204,-0.13579 0.32032,-0.13086 z m -115.433599,1.28906 c 0.41334,0.0295 1.45444,3.47925 1.77149,3.74609 0.31704,0.26684 3.89449,0.70519 3.99414,1.10742 0.0996,0.40223 -2.85982,2.45976 -3.01563,2.84375 -0.15581,0.38398 0.5334,3.91961 0.18164,4.13868 -0.35175,0.21906 -3.22338,-1.95876 -3.63672,-1.98828 -0.41334,-0.0295 -3.56382,1.71802 -3.88086,1.45117 -0.31704,-0.26684 0.86723,-3.67003 0.76758,-4.07227 -0.0996,-0.40223 -2.73589,-2.85821 -2.58008,-3.24219 0.15581,-0.38399 3.75958,-0.30827 4.11133,-0.52734 0.35175,-0.21907 1.87377,-3.48656 2.28711,-3.45703 z m 126.076179,10.625 c 0.0512,0.0186 0.10032,0.0689 0.15429,0.1582 l 1.58594,2.625 c 0.0748,0.12282 0.0932,0.27804 0.002,0.45508 l -2.14844,3.50781 c -0.69919,1.06272 -1.52967,2.15945 -1.93164,2.40235 l 0.0664,0.11328 c 0.3908,-0.23615 1.68789,-0.56267 2.97852,-0.67188 l 4.07031,-0.32617 c 0.17889,-0.0319 0.32312,0.0797 0.39062,0.19141 l 1.70118,2.8125 c 0.0877,0.14516 0.0994,0.29103 -0.0234,0.36523 -0.0558,0.0337 -0.12569,0.0457 -0.21289,0.0527 l -10.60938,0.67968 -5.65039,3.41407 c -0.23448,0.1417 -0.46768,0.0841 -0.60937,-0.15039 l -1.42969,-2.36719 h -0.002 c -0.14169,-0.23447 -0.0841,-0.4677 0.15039,-0.60938 l 5.65039,-3.41406 5.54297,-9.06445 c 0.0468,-0.0741 0.1024,-0.10888 0.1582,-0.14258 0.0614,-0.0371 0.11478,-0.0498 0.16602,-0.0312 z m -61.23438,0.19141 a 4.9256489,4.9256489 0 0 0 -4.925779,4.92578 4.9256489,4.9256489 0 0 0 1.626949,3.65625 v 8.1914 a 3.196255,3.196255 0 0 0 3.19727,3.19727 3.196255,3.196255 0 0 0 3.19531,-3.19727 v -8.01367 a 4.9256489,4.9256489 0 0 0 1.83203,-3.83398 4.9256489,4.9256489 0 0 0 -4.92578,-4.92578 z m 16.41211,0 a 4.9256489,4.9256489 0 0 0 -4.92383,4.92578 4.9256489,4.9256489 0 0 0 1.62695,3.6582 v 8.18945 a 3.196255,3.196255 0 0 0 3.19532,3.19727 3.196255,3.196255 0 0 0 3.19726,-3.19727 v -8.01562 a 4.9256489,4.9256489 0 0 0 1.83008,-3.83203 4.9256489,4.9256489 0 0 0 -4.92578,-4.92578 z m -0.0469,2.70312 a 1.9976616,1.9976616 0 0 1 0.0469,0 1.9976616,1.9976616 0 0 1 1.99805,1.99609 1.9976616,1.9976616 0 0 1 -1.99805,1.99805 1.9976616,1.9976616 0 0 1 -1.99609,-1.99805 1.9976616,1.9976616 0 0 1 1.94921,-1.99609 z m -16.41211,0.004 a 1.9976616,1.9976616 0 0 1 0.0469,0 1.9976616,1.9976616 0 0 1 1.99805,1.99609 1.9976616,1.9976616 0 0 1 -1.99805,1.99805 1.9976616,1.9976616 0 0 1 -1.99805,-1.99805 1.9976616,1.9976616 0 0 1 1.95117,-1.99609 z m -83.962889,5.43554 c 0.0533,0.006 0.10748,0.0226 0.16406,0.0508 l 13.11719,6.53711 c 0.22632,0.11282 0.29643,0.32447 0.1836,0.55079 l -4.20118,8.42773 c -0.11283,0.22625 -0.32445,0.29642 -0.55078,0.18359 l -2.01367,-1.00586 c -0.22632,-0.11283 -0.29838,-0.32249 -0.18555,-0.54882 l 2.69727,-5.41016 c 0.11283,-0.22632 0.0427,-0.43601 -0.18359,-0.54883 l -2.01563,-1.0039 c -0.22632,-0.11284 -0.436,-0.0427 -0.54883,0.18359 l -2.21289,4.43945 c -0.11283,0.22626 -0.3225,0.29643 -0.54883,0.1836 l -2.01562,-1.00391 c -0.22632,-0.11284 -0.29642,-0.3225 -0.18359,-0.54883 l 2.21289,-4.4414 c 0.11283,-0.22632 0.0427,-0.43599 -0.1836,-0.54883 l -2.12304,-1.0586 c -0.22633,-0.11284 -0.436,-0.0427 -0.54883,0.1836 l -2.69727,5.41015 c -0.11283,0.22635 -0.3225,0.29644 -0.54883,0.1836 l -2.01562,-1.00391 c -0.22633,-0.11283 -0.29643,-0.32251 -0.1836,-0.54883 l 4.20118,-8.42773 c 0.0846,-0.16969 0.22494,-0.25159 0.38476,-0.23438 z m 39.53321,9.63672 a 3.196255,3.196255 0 0 0 -0.24415,0.0156 3.1965746,3.1965746 0 0 0 -0.17382,0.0215 3.196255,3.196255 0 0 0 -0.14844,0.0273 3.196255,3.196255 0 0 0 -0.0879,0.0195 3.1965746,3.1965746 0 0 0 -0.0762,0.0195 3.196255,3.196255 0 0 0 -0.0117,0.002 3.1965746,3.1965746 0 0 0 -0.11524,0.0332 3.196255,3.196255 0 0 0 -0.14257,0.0469 3.196255,3.196255 0 0 0 -0.0918,0.0352 3.1965746,3.1965746 0 0 0 -0.0684,0.0254 3.196255,3.196255 0 0 0 -0.0566,0.0254 3.1965746,3.1965746 0 0 0 -0.0684,0.0312 3.196255,3.196255 0 0 0 -0.0215,0.01 3.1965746,3.1965746 0 0 0 -0.10546,0.0547 3.196255,3.196255 0 0 0 -0.12305,0.0684 3.1965746,3.1965746 0 0 0 -0.01,0.006 3.196255,3.196255 0 0 0 -0.0254,0.0137 3.1965746,3.1965746 0 0 0 -0.10156,0.0644 3.196255,3.196255 0 0 0 -0.12305,0.084 3.196255,3.196255 0 0 0 -0.0254,0.0176 3.1965746,3.1965746 0 0 0 -0.0957,0.0742 3.196255,3.196255 0 0 0 -0.11523,0.0957 3.196255,3.196255 0 0 0 -0.10938,0.10156 3.196255,3.196255 0 0 0 -0.0234,0.0215 3.1965746,3.1965746 0 0 0 -0.084,0.0859 3.196255,3.196255 0 0 0 -0.082,0.0898 3.1965746,3.1965746 0 0 0 -0.0352,0.043 3.196255,3.196255 0 0 0 -0.006,0.006 3.1965746,3.1965746 0 0 0 -0.084,0.10352 3.196255,3.196255 0 0 0 -0.0391,0.0527 3.1965746,3.1965746 0 0 0 -0.0488,0.0684 3.196255,3.196255 0 0 0 -0.0293,0.043 3.1965746,3.1965746 0 0 0 -0.0566,0.0879 3.196255,3.196255 0 0 0 -0.004,0.004 3.1965746,3.1965746 0 0 0 -0.0625,0.10351 3.196255,3.196255 0 0 0 -0.0527,0.0957 3.1965746,3.1965746 0 0 0 -0.0254,0.0488 3.196255,3.196255 0 0 0 -0.008,0.0137 3.1965746,3.1965746 0 0 0 -0.0508,0.10937 3.196255,3.196255 0 0 0 -0.0312,0.0723 3.1965746,3.1965746 0 0 0 -0.0391,0.0937 3.1965746,3.1965746 0 0 0 -0.0488,0.13086 3.196255,3.196255 0 0 0 -0.0215,0.0664 3.1965746,3.1965746 0 0 0 -0.0176,0.0586 l -1.21094,3.83203 a 3.196255,3.196255 0 0 0 2.08399,4.00976 3.196255,3.196255 0 0 0 1.13476,0.14258 l 1.35157,4.1543 a 3.196255,3.196255 0 0 0 4.02734,2.05078 3.196255,3.196255 0 0 0 2.05078,-4.0293 l -1.28711,-3.95703 a 3.196255,3.196255 0 0 0 0.88672,-0.80468 3.196255,3.196255 0 0 0 -0.63086,-4.47657 l -3.39453,-2.55468 h -0.002 a 3.196255,3.196255 0 0 0 -0.0234,-0.0176 3.1965746,3.1965746 0 0 0 -0.008,-0.004 3.196255,3.196255 0 0 0 -0.11524,-0.084 3.1965746,3.1965746 0 0 0 -0.0996,-0.0664 3.196255,3.196255 0 0 0 -0.0254,-0.0156 3.1965746,3.1965746 0 0 0 -0.01,-0.006 3.196255,3.196255 0 0 0 -0.1211,-0.0703 3.196255,3.196255 0 0 0 -0.13281,-0.0684 3.196255,3.196255 0 0 0 -0.27539,-0.11914 3.196255,3.196255 0 0 0 -0.14258,-0.0508 3.1965746,3.1965746 0 0 0 -0.0293,-0.01 3.196255,3.196255 0 0 0 -0.11523,-0.0332 3.196255,3.196255 0 0 0 -0.14453,-0.0371 3.196255,3.196255 0 0 0 -0.14844,-0.0293 3.196255,3.196255 0 0 0 -0.29687,-0.0371 3.196255,3.196255 0 0 0 -0.10352,-0.006 3.1965746,3.1965746 0 0 0 -0.0781,-0.004 3.196255,3.196255 0 0 0 -0.11914,0 3.196255,3.196255 0 0 0 -0.0312,0 z m 35.62695,3.56446 a 3.1965746,3.1965746 0 0 0 -3.19531,3.21093 l 0.16211,35.22461 a 3.1965746,3.1965746 0 0 0 3.18164,3.18164 l 34.294919,0.15234 a 3.1965746,3.1965746 0 0 0 3.21094,-3.19726 l -0.0274,-35.37891 a 3.1965746,3.1965746 0 0 0 -3.19531,-3.19335 z m -81.54883,0.80468 c 0.0535,-0.004 0.11123,0.002 0.17188,0.0195 l 14.17382,4.17774 c 0.24258,0.0715 0.34883,0.26524 0.27735,0.50781 l -0.72266,2.44922 c -0.0715,0.24261 -0.26523,0.34884 -0.50781,0.27734 l -11.22852,-3.30859 c -0.24258,-0.0715 -0.43633,0.0348 -0.50781,0.27734 l -1.58203,5.3711 c -0.0715,0.24261 -0.26719,0.34874 -0.50977,0.27734 l -2.16015,-0.63672 c -0.24258,-0.0715 -0.34883,-0.26718 -0.27735,-0.50976 l 2.53711,-8.60547 c 0.0536,-0.18196 0.17557,-0.28587 0.33594,-0.29688 z m 82.03906,0.8125 a 1.9976616,1.9976616 0 0 1 0.0469,0 1.9976616,1.9976616 0 0 1 1.99805,1.99805 1.9976616,1.9976616 0 0 1 -1.99805,1.99805 1.9976616,1.9976616 0 0 1 -1.99609,-1.99805 1.9976616,1.9976616 0 0 1 1.94921,-1.99805 z m -46.86914,0.12305 a 3.196255,3.196255 0 0 0 -0.26953,0.0176 3.196255,3.196255 0 0 0 -0.14844,0.0195 3.196255,3.196255 0 0 0 -0.14843,0.0273 3.196255,3.196255 0 0 0 -0.0293,0.006 3.1965746,3.1965746 0 0 0 -0.11719,0.0273 3.196255,3.196255 0 0 0 -0.14453,0.041 3.196255,3.196255 0 0 0 -0.14258,0.0469 3.196255,3.196255 0 0 0 -0.11719,0.0449 3.1965746,3.1965746 0 0 0 -0.0293,0.01 3.196255,3.196255 0 0 0 -0.0234,0.01 3.1965746,3.1965746 0 0 0 -0.10742,0.0488 3.196255,3.196255 0 0 0 -0.51758,0.30469 3.196255,3.196255 0 0 0 -0.0254,0.0176 3.1965746,3.1965746 0 0 0 -0.0957,0.0742 3.196255,3.196255 0 0 0 -0.11524,0.0957 3.196255,3.196255 0 0 0 -0.41211,0.43554 3.196255,3.196255 0 0 0 -0.32422,0.50586 3.196255,3.196255 0 0 0 -0.125,0.27344 3.196255,3.196255 0 0 0 -0.0508,0.13281 3.1965746,3.1965746 0 0 0 -0.002,0.01 3.196255,3.196255 0 0 0 -0.01,0.0254 3.196255,3.196255 0 0 0 -0.0195,0.0586 l -1.22851,3.89063 a 3.196255,3.196255 0 0 0 2.08593,4.00976 3.196255,3.196255 0 0 0 1.13282,0.14063 l 1.35156,4.15625 a 3.196255,3.196255 0 0 0 4.0293,2.05078 3.196255,3.196255 0 0 0 2.05078,-4.0293 l -1.28711,-3.95898 a 3.196255,3.196255 0 0 0 0.88672,-0.80274 3.196255,3.196255 0 0 0 -0.63282,-4.47656 l -3.39257,-2.55273 -0.002,-0.002 a 3.196255,3.196255 0 0 0 -0.0234,-0.0176 3.1965746,3.1965746 0 0 0 -0.006,-0.004 3.196255,3.196255 0 0 0 -0.11719,-0.084 3.1965746,3.1965746 0 0 0 -0.0781,-0.0508 3.196255,3.196255 0 0 0 -0.0469,-0.0312 3.1965746,3.1965746 0 0 0 -0.10547,-0.0625 3.196255,3.196255 0 0 0 -0.0254,-0.0137 3.1965746,3.1965746 0 0 0 -0.10742,-0.0566 3.196255,3.196255 0 0 0 -0.0254,-0.0117 3.196255,3.196255 0 0 0 -0.27539,-0.11914 3.196255,3.196255 0 0 0 -0.14258,-0.0508 3.1965746,3.1965746 0 0 0 -0.0293,-0.01 3.196255,3.196255 0 0 0 -0.11523,-0.0332 3.196255,3.196255 0 0 0 -0.14453,-0.0371 3.196255,3.196255 0 0 0 -0.14844,-0.0293 3.196255,3.196255 0 0 0 -0.29688,-0.0371 3.196255,3.196255 0 0 0 -0.10351,-0.006 3.1965746,3.1965746 0 0 0 -0.0781,-0.004 3.196255,3.196255 0 0 0 -0.11914,0 3.196255,3.196255 0 0 0 -0.0312,0 z m 80.150399,0.0449 a 1.9976616,1.9976616 0 0 1 0.0488,0 1.9976616,1.9976616 0 0 1 1.9961,1.99805 1.9976616,1.9976616 0 0 1 -1.9961,1.99609 1.9976616,1.9976616 0 0 1 -1.99804,-1.99609 1.9976616,1.9976616 0 0 1 1.94922,-1.99805 z m 44.45117,0.082 c 2.27582,-0.19252 4.12763,1.14773 4.91797,4.15039 l 0.4746,1.80469 c 0.93646,3.55778 -0.34207,5.6206 -3.19335,6.37109 l -7.60743,2.00196 c -2.73774,0.72059 -5.01277,-0.54298 -5.91601,-3.97461 l -0.47461,-1.80274 c -0.93645,-3.55779 0.34012,-5.62256 3.1914,-6.37304 l 7.60938,-2.00196 c 0.34064,-0.0897 0.67293,-0.14827 0.99805,-0.17578 z m -0.0977,3.74805 c -0.1158,0.01 -0.23291,0.0298 -0.34961,0.0606 l -6.85156,1.80273 c -0.99669,0.26234 -1.54554,1.09512 -1.2832,2.0918 l 0.4746,1.80469 c 0.26566,1.0093 1.20222,1.43656 2.14844,1.1875 l 6.84961,-1.80274 c 0.99668,-0.26234 1.54751,-1.09511 1.28516,-2.0918 l -0.47656,-1.80468 c -0.23245,-0.88315 -0.98631,-1.31754 -1.79688,-1.24805 z m -74.912109,0.77734 h 28.023439 l 0.0234,28.9707 -27.916019,-0.125 z m -22.97656,2.60938 a 4.9256489,4.9256489 0 0 0 -4.92578,4.92578 4.9256489,4.9256489 0 0 0 4.92578,4.92578 4.9256489,4.9256489 0 0 0 3.65625,-1.62695 h 8.1914 a 3.196255,3.196255 0 0 0 3.19532,-3.19727 3.196255,3.196255 0 0 0 -3.19532,-3.19531 h -8.01367 a 4.9256489,4.9256489 0 0 0 -3.83398,-1.83203 z m 73.007809,0 a 4.9256489,4.9256489 0 0 0 -3.74805,1.83203 h -8.01367 a 3.196255,3.196255 0 0 0 -3.19531,3.19531 3.196255,3.196255 0 0 0 3.19531,3.19727 h 8.19141 a 4.9256489,4.9256489 0 0 0 3.65625,1.62695 4.9256489,4.9256489 0 0 0 4.92578,-4.92578 4.9256489,4.9256489 0 0 0 -4.92578,-4.92578 4.9256489,4.9256489 0 0 0 -0.0859,0 z m -73.167969,2.92773 a 1.9976616,1.9976616 0 0 1 0.0488,0 1.9976616,1.9976616 0 0 1 1.99805,1.99805 1.9976616,1.9976616 0 0 1 -1.99805,1.99609 1.9976616,1.9976616 0 0 1 -1.99805,-1.99609 1.9976616,1.9976616 0 0 1 1.94922,-1.99805 z m 73.388669,0 a 1.9976616,1.9976616 0 0 1 0.0488,0 1.9976616,1.9976616 0 0 1 1.9961,1.99805 1.9976616,1.9976616 0 0 1 -1.9961,1.99609 1.9976616,1.9976616 0 0 1 -1.99804,-1.99609 1.9976616,1.9976616 0 0 1 1.94921,-1.99805 z m -138.5117188,2.98633 14.5664098,1.60352 c 0.25137,0.0277 0.39097,0.20175 0.36328,0.45312 l -1.03125,9.35938 c -0.0277,0.25137 -0.20175,0.39098 -0.45312,0.36328 l -2.23829,-0.2461 c -0.25137,-0.0277 -0.38901,-0.20175 -0.36132,-0.45312 l 0.66211,-6.00781 c 0.0277,-0.25137 -0.11191,-0.42543 -0.36329,-0.45313 l -2.23828,-0.24609 c -0.25137,-0.0277 -0.42348,0.10996 -0.45117,0.36133 l -0.54297,4.93164 c -0.0277,0.25137 -0.1998,0.39098 -0.45117,0.36328 l -2.23828,-0.2461 c -0.25137,-0.0277 -0.39097,-0.20175 -0.36328,-0.45312 l 0.54297,-4.93164 c 0.0277,-0.25137 -0.10996,-0.42347 -0.36133,-0.45117 l -2.35742,-0.25977 c -0.25137,-0.0277 -0.42544,0.10995 -0.45313,0.36133 l -0.66211,6.00976 c -0.0277,0.25137 -0.1998,0.38903 -0.45117,0.36133 l -2.2382798,-0.24609 c -0.25137,-0.0277 -0.39097,-0.1998 -0.36328,-0.45117 l 1.03125,-9.36133 c 0.0277,-0.25137 0.20175,-0.38903 0.45312,-0.36133 z m 56.3281298,0.92188 a 3.1965746,3.1965746 0 0 0 -1.5332,0.43554 l -17.38477,10.16407 0.0254,-7.39258 a 3.1965746,3.1965746 0 0 0 -0.0156,-0.30078 3.1965746,3.1965746 0 0 0 -0.0469,-0.29688 3.1965746,3.1965746 0 0 0 -0.0332,-0.14648 3.1965746,3.1965746 0 0 0 -0.0859,-0.28711 3.1965746,3.1965746 0 0 0 -0.0527,-0.14063 3.1965746,3.1965746 0 0 0 -0.12696,-0.27344 3.1965746,3.1965746 0 0 0 -0.32617,-0.5039 3.1965746,3.1965746 0 0 0 -0.41602,-0.4336 3.1965746,3.1965746 0 0 0 -0.48828,-0.3496 3.1965746,3.1965746 0 0 0 -0.40429,-0.19727 3.1965746,3.1965746 0 0 0 -0.14063,-0.0527 3.1965746,3.1965746 0 0 0 -0.28906,-0.0859 3.1965746,3.1965746 0 0 0 -0.29492,-0.0586 3.1965746,3.1965746 0 0 0 -0.29883,-0.0312 3.1965746,3.1965746 0 0 0 -0.15039,-0.004 3.1965746,3.1965746 0 0 0 -0.30078,0.0117 3.1965746,3.1965746 0 0 0 -0.14844,0.0156 3.1965746,3.1965746 0 0 0 -0.58594,0.13477 3.1965746,3.1965746 0 0 0 -0.14062,0.0508 3.1965746,3.1965746 0 0 0 -0.27539,0.12109 3.1965746,3.1965746 0 0 0 -0.38868,0.22852 3.1965746,3.1965746 0 0 0 -0.35156,0.28125 3.1965746,3.1965746 0 0 0 -0.21094,0.21484 3.1965746,3.1965746 0 0 0 -0.0976,0.11328 3.1965746,3.1965746 0 0 0 -0.33594,0.5 3.1965746,3.1965746 0 0 0 -0.0684,0.13282 3.1965746,3.1965746 0 0 0 -0.0625,0.13671 3.1965746,3.1965746 0 0 0 -0.18164,0.57227 3.1965746,3.1965746 0 0 0 -0.0508,0.29687 3.1965746,3.1965746 0 0 0 -0.0215,0.32813 l -0.0274,7.78906 h -5.62695 a 3.196255,3.196255 0 0 0 -3.19727,3.19531 3.196255,3.196255 0 0 0 3.19727,3.19531 h 5.60351 l -0.0273,7.76563 a 3.1965746,3.1965746 0 0 0 0.004,0.15039 3.1965746,3.1965746 0 0 0 0.0117,0.15039 3.1965746,3.1965746 0 0 0 0.0469,0.29687 3.1965746,3.1965746 0 0 0 0.0723,0.29102 3.1965746,3.1965746 0 0 0 0.0469,0.14258 3.1965746,3.1965746 0 0 0 0.0527,0.14062 3.1965746,3.1965746 0 0 0 0.12695,0.27344 3.1965746,3.1965746 0 0 0 0.15234,0.25977 3.1965746,3.1965746 0 0 0 0.17383,0.24414 3.1965746,3.1965746 0 0 0 0.0957,0.11523 3.1965746,3.1965746 0 0 0 0.8086,0.66797 3.1965746,3.1965746 0 0 0 0.40429,0.19727 3.1965746,3.1965746 0 0 0 0.28516,0.0996 3.1965746,3.1965746 0 0 0 0.43945,0.0977 3.1965746,3.1965746 0 0 0 0.44922,0.0352 3.1965746,3.1965746 0 0 0 0.15039,-0.002 3.1965746,3.1965746 0 0 0 0.15039,-0.01 3.1965746,3.1965746 0 0 0 0.44336,-0.0684 3.1965746,3.1965746 0 0 0 0.29102,-0.082 3.1965746,3.1965746 0 0 0 0.2793,-0.10938 3.1965746,3.1965746 0 0 0 0.13671,-0.0625 3.1965746,3.1965746 0 0 0 0.13282,-0.0703 3.1965746,3.1965746 0 0 0 0.1289,-0.0762 3.1965746,3.1965746 0 0 0 0.12696,-0.082 3.1965746,3.1965746 0 0 0 0.23828,-0.1836 3.1965746,3.1965746 0 0 0 0.60156,-0.66796 3.1965746,3.1965746 0 0 0 0.15625,-0.25782 3.1965746,3.1965746 0 0 0 0.0684,-0.13281 3.1965746,3.1965746 0 0 0 0.16601,-0.41797 3.1965746,3.1965746 0 0 0 0.0781,-0.29101 3.1965746,3.1965746 0 0 0 0.0723,-0.59571 3.1965746,3.1965746 0 0 0 0,-0.0293 l 0.0234,-6.77149 17.41016,9.56055 a 3.1965746,3.1965746 0 0 0 4.73437,-2.78906 l 0.0274,-7.78907 h 17.57812 a 3.196255,3.196255 0 0 0 3.19532,-3.19531 3.196255,3.196255 0 0 0 -3.19532,-3.19531 h -17.55489 l 0.0273,-7.76562 a 3.1965746,3.1965746 0 0 0 -3.27539,-3.20703 z m -0.0254,1.28125 a 1.9976616,1.9976616 0 0 1 0.0469,0 1.9976616,1.9976616 0 0 1 1.99805,1.99609 1.9976616,1.9976616 0 0 1 -1.99805,1.99805 1.9976616,1.9976616 0 0 1 -1.99609,-1.99805 1.9976616,1.9976616 0 0 1 1.94922,-1.99609 z m 114.013669,3.51953 c 0.27378,-0.0104 0.45054,0.15201 0.46094,0.42578 l 0.38476,10.19531 c 0.0104,0.27377 -0.15201,0.44858 -0.42578,0.45898 l -2.4375,0.0918 c -0.27377,0.0104 -0.45053,-0.15201 -0.46093,-0.42578 l -0.24805,-6.54492 c -0.0104,-0.27377 -0.18521,-0.43618 -0.45898,-0.42578 l -3.03711,0.11523 c -0.27376,0.0104 -0.43814,0.18717 -0.42774,0.46094 l 0.20313,5.37109 c 0.0104,0.27377 -0.15204,0.44858 -0.42578,0.45898 l -2.4375,0.0918 c -0.27378,0.0104 -0.45054,-0.15202 -0.46094,-0.42578 l -0.20313,-5.35742 c -0.0109,-0.28681 -0.18521,-0.44985 -0.45898,-0.43945 l -5.29297,0.19922 c -0.27376,0.0104 -0.45054,-0.15201 -0.46094,-0.42578 l -0.10547,-2.76368 c -0.0104,-0.27378 0.15397,-0.45053 0.42774,-0.46093 z m -117.123049,3.97656 -0.0391,10.97265 -9.6582,-5.30273 z m 85.097659,0.36328 a 4.9256489,4.9256489 0 0 0 -3.74805,1.83203 h -8.01367 a 3.196255,3.196255 0 0 0 -3.19531,3.19531 3.196255,3.196255 0 0 0 3.19531,3.19531 h 8.18946 a 4.9256489,4.9256489 0 0 0 3.6582,1.62696 4.9256489,4.9256489 0 0 0 4.92578,-4.92578 4.9256489,4.9256489 0 0 0 -4.92578,-4.92383 4.9256489,4.9256489 0 0 0 -0.0859,0 z m 0.2832,2.92773 a 1.9976616,1.9976616 0 0 1 0.0488,0 1.9976616,1.9976616 0 0 1 1.9961,1.9961 1.9976616,1.9976616 0 0 1 -1.9961,1.99804 1.9976616,1.9976616 0 0 1 -1.99804,-1.99804 1.9976616,1.9976616 0 0 1 1.94921,-1.9961 z m -113.138669,0.10352 a 1.9976616,1.9976616 0 0 1 0.0488,0 1.9976616,1.9976616 0 0 1 1.99609,1.99804 1.9976616,1.9976616 0 0 1 -1.99609,1.99805 1.9976616,1.9976616 0 0 1 -1.99805,-1.99805 1.9976616,1.9976616 0 0 1 1.94922,-1.99804 z m 51.56836,0.0312 a 1.9976616,1.9976616 0 0 1 0.002,0 1.9976616,1.9976616 0 0 1 0.0469,0 1.9976616,1.9976616 0 0 1 1.99804,1.99804 1.9976616,1.9976616 0 0 1 -1.99804,1.9961 1.9976616,1.9976616 0 0 1 -1.99805,-1.9961 1.9976616,1.9976616 0 0 1 1.94922,-1.99804 z m -67.28906,1.13672 c 2.60592,-0.19506 4.45862,1.33125 4.70312,4.59765 l 0.13086,1.73047 c 0.18068,2.41378 -0.88859,4.27959 -2.80469,4.97852 -0.24679,0.091 -0.28146,0.0946 -0.35351,0.0996 -0.10808,0.008 -0.20876,-0.045 -0.26758,-0.18555 l -0.95703,-2.125 c -0.0285,-0.0582 -0.0443,-0.11775 -0.0488,-0.17773 -0.0108,-0.14414 0.0724,-0.31908 0.24805,-0.39258 0.82174,-0.3151 1.1966,-0.96 1.12109,-1.96875 l -0.1289,-1.72852 c -0.0719,-0.96071 -0.86135,-1.50595 -1.75,-1.43945 l -6.52149,0.48828 c -0.9487,0.071 -1.58663,0.73489 -1.51562,1.68359 l 0.1289,1.72852 c 0.0755,1.00873 0.51418,1.55581 1.40039,1.7793 0.18463,0.0466 0.2939,0.20746 0.30469,0.35156 0.005,0.06 -0.004,0.12179 -0.0234,0.18359 l -0.6289,2.24414 c -0.0373,0.14772 -0.12825,0.21466 -0.23633,0.22266 -0.0721,0.005 -0.22875,0.018 -0.48633,-0.0352 -1.99879,-0.40589 -3.2129598,-2.1035 -3.3945298,-4.52929 l -0.12695,-1.7168 c -0.25349,-3.3865 1.25279,-5.0449 3.9667898,-5.24805 z m 75.74219,6.88867 a 1.9976616,1.9976616 0 0 1 0.0469,0 1.9976616,1.9976616 0 0 1 1.99805,1.99609 1.9976616,1.9976616 0 0 1 -1.99805,1.99805 1.9976616,1.9976616 0 0 1 -1.99804,-1.99805 1.9976616,1.9976616 0 0 1 1.95117,-1.99609 z m 33.578119,0.0195 a 1.9976616,1.9976616 0 0 1 0.002,0 1.9976616,1.9976616 0 0 1 0.0469,0 1.9976616,1.9976616 0 0 1 1.99805,1.99805 1.9976616,1.9976616 0 0 1 -1.99805,1.99609 1.9976616,1.9976616 0 0 1 -1.99805,-1.99609 1.9976616,1.9976616 0 0 1 1.94922,-1.99805 z m -55.742189,0.76758 1.02539,8.49219 5.69532,13.13281 -2.66407,1.25195 13.26172,27.51172 -5.11328,2.39062 3.42773,6.95704 2.90821,-1.25977 c 2.18064,4.44913 4.36233,8.89855 6.54297,13.34766 l 2.845699,1.00586 1.91406,-0.90235 1.91211,-0.90234 1.91407,-0.90235 1.91211,-0.90234 1.91406,-0.90039 1.91211,-0.90234 0.94922,-2.80469 c -2.25163,-4.44009 -4.50423,-8.8802 -6.75586,-13.32031 0,0 0.17214,-0.11958 2.75781,-1.36914 l -3.40039,-7.03516 -5.66406,2.51367 -13.011719,-27.04492 -2.84766,1.03516 -5.88672,-13.19922 z m -7.07812,2.05664 a 1.9976616,1.9976616 0 0 1 0.0488,0 1.9976616,1.9976616 0 0 1 1.99609,1.99805 1.9976616,1.9976616 0 0 1 -1.99609,1.99804 1.9976616,1.9976616 0 0 1 -1.99805,-1.99804 1.9976616,1.9976616 0 0 1 1.94922,-1.99805 z m 97.845699,0.16797 c 0.0634,0.0154 0.1334,0.0579 0.1875,0.11132 l 6.81836,6.29493 c 0.0764,0.0723 0.14959,0.10374 0.21289,0.11914 0.0887,0.0215 0.15777,0.0128 0.23047,-0.01 l 8.30078,-2.32812 c 0.0442,-0.0163 0.1114,-0.0127 0.1875,0.006 0.10138,0.0247 0.17739,0.15059 0.14649,0.27734 l -0.79688,3.26953 c -0.0525,0.21547 -0.14672,0.32704 -0.30469,0.36914 l -4.20898,0.96094 c -0.3793,0.0687 -1.61202,0.27883 -2.05469,0.33203 l -0.0176,0.0762 c 1.01676,0.18074 1.64924,0.67133 3.14649,1.85547 l 1.93555,1.69336 c 0.13362,0.11313 0.14866,0.27763 0.10546,0.45508 l -0.83789,3.43555 c -0.034,0.13943 -0.18375,0.19657 -0.28515,0.17187 -0.0634,-0.0154 -0.13502,-0.0464 -0.16992,-0.0684 l -6.75391,-6.22461 c -0.0541,-0.0535 -0.10857,-0.1072 -0.19727,-0.1289 -0.0887,-0.0216 -0.1655,0.0128 -0.2539,0.0449 l -8.38668,2.34781 c -0.0884,0.0321 -0.12801,0.0349 -0.19141,0.0195 -0.13945,-0.034 -0.17015,-0.18975 -0.12695,-0.36719 l 0.81055,-3.32031 c 0.068,-0.27887 0.21221,-0.37736 0.4082,-0.41016 l 4.22266,-0.9043 c 0.3793,-0.0687 1.43819,-0.28068 1.88086,-0.33398 l 0.0176,-0.0762 c -0.72246,-0.17613 -1.83773,-0.89196 -2.96679,-1.87891 l -1.96094,-1.69922 c -0.15582,-0.13197 -0.23597,-0.29927 -0.16797,-0.57812 l 0.79687,-3.26954 c 0.0494,-0.20278 0.13402,-0.27618 0.27344,-0.24218 z m -139.333979,2.59765 c 0.15989,0.0165 0.28083,0.12492 0.32812,0.3086 l 2.38867,9.2832 c 0.0631,0.24491 -0.0481,0.43505 -0.29297,0.49805 l -2.18164,0.5625 c -0.2449,0.0631 -0.43497,-0.05 -0.49804,-0.29492 l -0.67383,-2.61329 c -0.0631,-0.24491 -0.25315,-0.35594 -0.49805,-0.29297 l -11.21875,2.88868 c -0.2449,0.0631 -0.43498,-0.05 -0.49805,-0.29492 l -0.63671,-2.47266 c -0.0631,-0.2449 0.05,-0.43505 0.29492,-0.49805 l 11.21875,-2.88867 c 0.2449,-0.0631 0.35604,-0.25314 0.29297,-0.49805 l -0.67188,-2.61328 c -0.0631,-0.24491 0.05,-0.43503 0.29492,-0.49805 l 2.17969,-0.5625 c 0.0612,-0.0157 0.11858,-0.0192 0.17188,-0.0137 z m 79.068359,1.80078 a 3.196255,3.196255 0 0 0 -3.19727,3.19532 v 8.1914 a 4.9256489,4.9256489 0 0 0 -1.626949,3.65625 4.9256489,4.9256489 0 0 0 4.925779,4.92578 4.9256489,4.9256489 0 0 0 4.92578,-4.92578 4.9256489,4.9256489 0 0 0 -1.83203,-3.83398 v -8.01367 a 3.196255,3.196255 0 0 0 -3.19531,-3.19532 z m 16.41211,0 a 3.196255,3.196255 0 0 0 -3.19532,3.19532 v 8.18945 a 4.9256489,4.9256489 0 0 0 -1.62695,3.6582 4.9256489,4.9256489 0 0 0 4.92383,4.92578 4.9256489,4.9256489 0 0 0 4.92578,-4.92578 4.9256489,4.9256489 0 0 0 -1.83008,-3.83203 v -8.01562 a 3.196255,3.196255 0 0 0 -3.19726,-3.19532 z m -92.187509,10.28125 c 0.16028,-0.0123 0.29758,0.0738 0.37696,0.2461 l 2.59961,5.64258 c 1.29018,2.79991 0.38897,5.24522 -2.25782,6.46484 -1.52026,0.70053 -2.93021,0.63352 -4.27539,-0.27148 -0.11602,-0.0792 -0.20742,-0.1028 -0.29492,-0.0625 -0.0875,0.0403 -0.14246,0.091 -0.21484,0.16406 l -4.22852,4.54883 c -0.18432,0.20427 -0.30703,0.31321 -0.39453,0.35351 -0.0875,0.0403 -0.21428,-0.007 -0.29492,-0.18164 l -1.2207,-2.64648 c -0.0403,-0.0875 -0.0209,-0.19066 0.0742,-0.30078 l 4.1582,-4.5 c 0.0892,-0.0942 0.0922,-0.20239 0.0469,-0.30079 l -0.87109,-1.89257 c -0.10584,-0.22961 -0.31524,-0.30505 -0.54492,-0.19922 l -4.72461,2.17578 c -0.22968,0.10584 -0.43714,0.0305 -0.54297,-0.19922 l -1.06836,-2.32031 c -0.10583,-0.22967 -0.0285,-0.43713 0.20117,-0.54297 l 13.31055,-6.13281 c 0.0574,-0.0265 0.11259,-0.0408 0.16601,-0.0449 z m 131.843759,1.2168 c 0.0577,0.007 0.11659,0.0238 0.17773,0.0547 l 14.28906,7.21484 c 0.24464,0.12347 0.32075,0.35115 0.19727,0.59571 l -1.24805,2.46875 c -0.12348,0.24464 -0.35113,0.32074 -0.5957,0.19726 l -5.08789,-2.57031 c -0.24456,-0.12348 -0.47221,-0.0473 -0.5957,0.19726 l -2.14649,4.25 c -0.12348,0.24456 -0.0492,0.47223 0.19531,0.59571 l 5.08985,2.57031 c 0.24454,0.12348 0.31879,0.35115 0.19531,0.5957 l -1.24609,2.46875 c -0.12348,0.24454 -0.35114,0.31879 -0.59571,0.19532 l -14.28906,-7.21485 c -0.24464,-0.12349 -0.32077,-0.35114 -0.19726,-0.5957 l 1.24804,-2.46875 c 0.12347,-0.24454 0.35113,-0.31878 0.5957,-0.19531 l 5.4375,2.74609 c 0.24456,0.12348 0.47224,0.0473 0.59571,-0.19727 l 2.14648,-4.25 c 0.12348,-0.24457 0.0492,-0.47222 -0.19531,-0.5957 l -5.43945,-2.74609 c -0.24464,-0.12348 -0.3188,-0.35114 -0.19532,-0.59571 l 1.2461,-2.46875 c 0.0926,-0.18348 0.24493,-0.27151 0.41797,-0.25195 z m -39.60157,1.71094 a 1.9976616,1.9976616 0 0 1 0.0469,0 1.9976616,1.9976616 0 0 1 1.99805,1.99805 1.9976616,1.9976616 0 0 1 -1.99805,1.99609 1.9976616,1.9976616 0 0 1 -1.99609,-1.99609 1.9976616,1.9976616 0 0 1 1.94921,-1.99805 z m -16.41406,0.0859 a 1.9976616,1.9976616 0 0 1 0.002,0 1.9976616,1.9976616 0 0 1 0.0469,0 1.9976616,1.9976616 0 0 1 1.99805,1.99804 1.9976616,1.9976616 0 0 1 -1.99805,1.99805 1.9976616,1.9976616 0 0 1 -1.99805,-1.99805 1.9976616,1.9976616 0 0 1 1.94922,-1.99804 z m -77.205079,1.33398 c -0.0534,0.004 -0.11055,0.0185 -0.16797,0.0449 l -2.36133,1.08789 c -0.22968,0.10584 -0.307,0.31329 -0.20117,0.54297 l 1.20508,2.61524 c 0.38806,0.84223 1.29573,1.25821 2.07227,0.90039 l 0.38281,-0.17578 c 0.77653,-0.35782 1.04853,-1.29222 0.65039,-2.15625 l -1.20313,-2.61329 c -0.0794,-0.17228 -0.21668,-0.25842 -0.37695,-0.24609 z m 6.44141,8.99414 c 1.3831,-0.045 2.76603,0.70324 3.96679,2.36133 l 1.00977,1.39453 c 1.99185,2.75048 1.57928,4.95253 -0.625,6.54883 l -5.88086,4.25781 c -2.1165,1.53273 -4.49675,1.20373 -6.41797,-1.44922 l -1.00976,-1.39453 c -1.99185,-2.75048 -1.57929,-4.95253 0.625,-6.54883 l 5.88281,-4.25781 c 0.79003,-0.57213 1.61936,-0.88509 2.44922,-0.91211 z m 119.312499,1.65625 c 0.0575,-0.0175 0.11231,-0.005 0.16211,0.0371 0.0498,0.0421 0.12325,0.13722 0.15625,0.19922 0.0215,0.0352 9.26758,14.0918 9.26758,14.0918 0.10585,0.15779 0.0658,0.34667 -0.0605,0.49609 l -2.55078,3.01758 c -0.12636,0.14985 -0.30732,0.22068 -0.48047,0.14258 l -15.52344,-6.85743 c -0.0766,-0.0306 -0.0951,-0.047 -0.125,-0.0723 -0.0996,-0.0843 -0.0912,-0.19627 0.0352,-0.3457 l 2.08984,-2.47071 c 0.0927,-0.1095 0.20129,-0.13633 0.32618,-0.082 l 2.1582,1.02149 c 0.12489,0.0544 0.18809,0.0225 0.31445,-0.12696 l 3.24219,-3.83593 c 0.1348,-0.1594 0.14862,-0.21595 0.0742,-0.33008 l -1.36719,-1.95899 c -0.0744,-0.11412 -0.0648,-0.22657 0.0195,-0.32617 l 2.08008,-2.46094 c 0.0632,-0.0747 0.12409,-0.12114 0.18164,-0.13867 z m -119.199219,1.85938 c -0.3039,0.0267 -0.60825,0.14188 -0.87891,0.33789 l -5.29492,3.83593 c -0.77052,0.558 -0.9662,1.458 -0.4082,2.22852 l 1.00976,1.39453 c 0.56507,0.78028 1.51263,0.83833 2.24414,0.3086 l 5.29688,-3.83594 c 0.77052,-0.558 0.9662,-1.458 0.4082,-2.22852 l -1.00976,-1.39453 c -0.35317,-0.48767 -0.86069,-0.69094 -1.36719,-0.64648 z m 120.333989,6.10937 c -0.0624,5.9e-4 -0.12927,0.0412 -0.20508,0.13086 l -1.98047,2.3418 c -0.15161,0.17931 -0.12157,0.30712 0.0332,0.38672 l 5.27149,2.49218 0.45117,0.29688 0.29492,-0.34961 -0.36719,-0.39453 -3.32617,-4.79492 c -0.0521,-0.0697 -0.10944,-0.10997 -0.17187,-0.10938 z m -111.103519,0.10938 c 0.1,-0.004 0.20186,0.0374 0.29492,0.12304 l 1.73828,1.59766 c 0.11522,0.10599 0.16277,0.23265 0.14258,0.36133 l -2.10547,9.38476 c -0.1134,0.55018 -0.3318,1.26819 -0.40234,1.41602 l 0.0723,0.0644 c 0.58768,-1.03021 1.74866,-2.59613 2.66992,-3.59765 l 3.35157,-3.64258 c 0.1712,-0.18608 0.392,-0.19465 0.57812,-0.0234 l 1.87891,1.72852 c 0.18612,0.17121 0.19464,0.392 0.0234,0.57812 l -10.00196,10.875 c -0.17121,0.18607 -0.39395,0.19464 -0.58008,0.0234 l -1.71875,-1.58203 c -0.11521,-0.10599 -0.16169,-0.21319 -0.13476,-0.38477 l 1.84961,-9.19726 c 0.13785,-0.57678 0.31114,-1.08765 0.34375,-1.12305 l -0.0703,-0.0645 c -0.3229,0.63564 -1.33239,1.98151 -2.4004,3.14257 l -3.33398,3.625 c -0.17121,0.18607 -0.392,0.19465 -0.57812,0.0234 l -1.87891,-1.72851 c -0.18612,-0.17121 -0.1966,-0.39201 -0.0254,-0.57813 l 10.0039,-10.875 c 0.0856,-0.093 0.18324,-0.14232 0.28321,-0.14648 z m 98.472659,4.55468 c 0.10801,0.009 0.21237,0.0653 0.30078,0.16993 l 10.33008,12.22851 c 0.17677,0.20927 0.15654,0.44819 -0.0527,0.625 l -2.11328,1.78516 c -0.20927,0.17697 -0.44819,0.15659 -0.625,-0.0527 l -10.3301,-12.22652 c -0.17677,-0.20927 -0.15653,-0.44819 0.0527,-0.625 l 2.11328,-1.78516 c 0.10463,-0.0884 0.2162,-0.12822 0.32422,-0.11914 z m -87.134769,5.07618 c 0.0981,-0.0194 0.20548,0.004 0.31055,0.0742 l 2.12109,1.41993 c 0.21012,0.14073 0.25205,0.35824 0.11133,0.56836 l -8.22071,12.27734 c -0.14072,0.21009 -0.35824,0.25401 -0.56836,0.11328 l -2.12109,-1.42187 c -0.21012,-0.14073 -0.25401,-0.35826 -0.11328,-0.56836 l 8.22266,-12.27539 c 0.0704,-0.10508 0.15965,-0.16809 0.25781,-0.1875 z m 80.949219,0.002 c 0.17155,-0.0299 0.32816,0.049 0.43164,0.22656 l 8.06055,13.83008 c 0.13796,0.23669 0.0765,0.46751 -0.16016,0.60547 l -2.20898,1.28906 c -0.14653,0.0848 -0.29122,0.0937 -0.41797,0.0312 l -9.04297,-5.17773 c -0.53329,-0.29318 -1.20546,-0.74696 -1.33594,-0.86719 l -0.0918,0.0527 c 0.87865,0.9375 2.12874,2.64047 2.8711,3.91407 l 2.69922,4.63281 c 0.13796,0.23669 0.0785,0.46751 -0.15821,0.60547 l -2.39062,1.39257 c -0.23669,0.13796 -0.46752,0.0785 -0.60547,-0.1582 l -8.0625,-13.83008 c -0.13796,-0.23669 -0.0765,-0.46945 0.16016,-0.60742 l 2.1875,-1.27344 c 0.14653,-0.0854 0.27435,-0.10027 0.44336,-0.0176 l 8.92773,4.85156 c 0.553,0.32698 1.02643,0.6721 1.05273,0.7168 l 0.0899,-0.0527 c -0.55481,-0.53734 -1.6257,-2.01176 -2.48633,-3.48828 l -2.6875,-4.60937 c -0.13796,-0.23669 -0.0765,-0.46946 0.16016,-0.60743 l 2.38867,-1.39257 c 0.0592,-0.0345 0.1186,-0.0564 0.17578,-0.0664 z m -74.041019,4.88086 c 0.88729,-0.0673 1.89519,0.14316 3.00391,0.67187 l 1.5664,0.7461 c 2.18483,1.04189 3.27459,2.89602 2.92969,4.90625 -0.0436,0.25935 -0.0587,0.29192 -0.0898,0.35742 -0.0466,0.0978 -0.14375,0.15912 -0.29492,0.14062 l -2.32032,-0.22656 c -0.0647,-0.004 -0.12338,-0.0187 -0.17773,-0.0449 -0.13043,-0.0622 -0.24216,-0.22118 -0.21875,-0.41016 0.13458,-0.86976 -0.23733,-1.51382 -1.15039,-1.94922 l -1.56445,-0.74804 c -0.86959,-0.41467 -1.73557,3.2e-4 -2.11915,0.80469 l -2.81445,5.90234 c -0.40949,0.85873 -0.14973,1.74286 0.70899,2.15234 l 1.56445,0.7461 c 0.91306,0.43538 1.60615,0.32615 2.24023,-0.33204 0.1321,-0.1371 0.32464,-0.15224 0.45508,-0.0898 0.0543,0.0259 0.10446,0.0635 0.14844,0.11133 l 1.63672,1.66016 c 0.1097,0.10566 0.12087,0.2186 0.0742,0.3164 -0.0311,0.0652 -0.0974,0.20707 -0.27149,0.4043 -1.34492,1.53334 -3.41954,1.74436 -5.61523,0.69726 l -1.55469,-0.74218 c -3.06527,-1.46174 -3.75741,-3.59232 -2.58594,-6.04883 l 3.125,-6.55469 c 0.70301,-1.47421 1.8454,-2.35861 3.32422,-2.4707 z m 13.04297,5.03711 c 0.68901,-0.0525 1.43602,0.0144 2.2207,0.22656 2.46448,0.66644 3.97685,2.27237 4.13868,4.34961 0.004,0.26296 -0.007,0.29709 -0.0254,0.36719 -0.0283,0.10468 -0.1116,0.1834 -0.26367,0.1914 l -2.32422,0.19532 c -0.0644,0.008 -0.12548,0.004 -0.18359,-0.0117 -0.1395,-0.0378 -0.25289,-0.16886 -0.28711,-0.36524 -0.14441,-0.84994 -0.77378,-1.51944 -1.78516,-1.79297 -1.12761,-0.3049 -1.93509,0.13706 -2.14257,0.9043 -0.20119,0.74405 0.27151,1.39602 2.00195,2.5625 2.80929,1.88247 3.80599,3.82507 3.25586,5.85938 -0.75447,2.78999 -3.17918,4.05537 -6.50391,3.15625 -2.68535,-0.72617 -4.39034,-2.44724 -4.45508,-4.56055 -0.004,-0.26297 0.007,-0.29974 0.0254,-0.36914 0.0283,-0.10458 0.11159,-0.18145 0.26367,-0.18945 l 2.46093,-0.2461 c 0.0644,-0.008 0.12547,-0.002 0.1836,0.0137 0.1395,0.0377 0.25289,0.1669 0.28711,0.36328 0.15508,0.90267 0.76442,1.6049 2.0664,1.95704 1.19737,0.32378 1.98969,-0.11214 2.21289,-0.9375 0.20119,-0.74398 -0.16871,-1.50415 -1.95507,-2.64844 -2.91487,-1.86112 -3.84391,-3.77239 -3.22461,-6.0625 0.42674,-1.57804 1.96619,-2.80551 4.0332,-2.96289 z" />
    <path
       id="path1824"
       style="fill:none;fill-opacity:1;stroke:none;stroke-width:0.770716;stroke-opacity:0.995984"
       d="M 20.262131,851.50367 A 88.811947,88.811947 0 0 0 69.337574,967.11833 88.811947,88.811947 0 0 0 184.95214,918.04275 88.811947,88.811947 0 0 0 135.87668,802.42819 88.811947,88.811947 0 0 0 20.262131,851.50367 Z" />
  </g>
</svg>
