<?xml version="1.0" encoding="UTF-8" standalone="no"?>
<svg
   xmlns:dc="http://purl.org/dc/elements/1.1/"
   xmlns:cc="http://creativecommons.org/ns#"
   xmlns:rdf="http://www.w3.org/1999/02/22-rdf-syntax-ns#"
   xmlns:svg="http://www.w3.org/2000/svg"
   xmlns="http://www.w3.org/2000/svg"
   xmlns:sodipodi="http://sodipodi.sourceforge.net/DTD/sodipodi-0.dtd"
   xmlns:inkscape="http://www.inkscape.org/namespaces/inkscape"
   width="50mm"
   height="50mm"
   id="svg2"
   version="1.1"
   inkscape:version="1.0.1 (3bc2e813f5, 2020-09-07)"
   sodipodi:docname="xHain_stickers_5cm_machineroom.svg"
   inkscape:export-filename="/home/sticker_preview.png"
   inkscape:export-xdpi="1368.9301"
   inkscape:export-ydpi="1368.9301">
  <sodipodi:namedview
     id="base"
     pagecolor="#ffffff"
     bordercolor="#666666"
     borderopacity="1.0"
     inkscape:pageopacity="0.0"
     inkscape:pageshadow="2"
     inkscape:zoom="2.7086296"
     inkscape:cx="88.651958"
     inkscape:cy="91.057222"
     inkscape:document-units="mm"
     inkscape:current-layer="layer1"
     showgrid="false"
     inkscape:window-width="1920"
     inkscape:window-height="1032"
     inkscape:window-x="0"
     inkscape:window-y="0"
     inkscape:window-maximized="1"
     showguides="true"
     inkscape:guide-bbox="true"
     units="mm"
     inkscape:document-rotation="0">
    <inkscape:grid
       type="xygrid"
       id="grid2985"
       empspacing="5"
       visible="true"
       enabled="true"
       snapvisiblegridlinesonly="true" />
  </sodipodi:namedview>
  <defs
     id="defs4">
    <marker
       inkscape:stockid="DotS"
       orient="auto"
       refY="0"
       refX="0"
       id="DotS"
       style="overflow:visible">
      <path
         id="path3828"
         d="m -2.5,-1 c 0,2.76 -2.24,5 -5,5 -2.76,0 -5,-2.24 -5,-5 0,-2.76 2.24,-5 5,-5 2.76,0 5,2.24 5,5 z"
         style="fill-rule:evenodd;stroke:#000000;stroke-width:1pt"
         transform="matrix(0.2,0,0,0.2,1.48,0.2)"
         inkscape:connector-curvature="0" />
    </marker>
    <marker
       inkscape:stockid="DotS"
       orient="auto"
       refY="0"
       refX="0"
       id="DotS-1"
       style="overflow:visible">
      <path
         inkscape:connector-curvature="0"
         id="path3828-5"
         d="m -2.5,-1 c 0,2.76 -2.24,5 -5,5 -2.76,0 -5,-2.24 -5,-5 0,-2.76 2.24,-5 5,-5 2.76,0 5,2.24 5,5 z"
         style="fill-rule:evenodd;stroke:#000000;stroke-width:1pt"
         transform="matrix(0.2,0,0,0.2,1.48,0.2)" />
    </marker>
    <marker
       inkscape:stockid="DotS"
       orient="auto"
       refY="0"
       refX="0"
       id="marker4395"
       style="overflow:visible">
      <path
         inkscape:connector-curvature="0"
         id="path4397"
         d="m -2.5,-1 c 0,2.76 -2.24,5 -5,5 -2.76,0 -5,-2.24 -5,-5 0,-2.76 2.24,-5 5,-5 2.76,0 5,2.24 5,5 z"
         style="fill-rule:evenodd;stroke:#000000;stroke-width:1pt"
         transform="matrix(0.2,0,0,0.2,1.48,0.2)" />
    </marker>
    <marker
       inkscape:stockid="DotS"
       orient="auto"
       refY="0"
       refX="0"
       id="DotS-3"
       style="overflow:visible">
      <path
         inkscape:connector-curvature="0"
         id="path3828-0"
         d="m -2.5,-1 c 0,2.76 -2.24,5 -5,5 -2.76,0 -5,-2.24 -5,-5 0,-2.76 2.24,-5 5,-5 2.76,0 5,2.24 5,5 z"
         style="fill-rule:evenodd;stroke:#000000;stroke-width:1pt"
         transform="matrix(0.2,0,0,0.2,1.48,0.2)" />
    </marker>
    <marker
       inkscape:stockid="DotS"
       orient="auto"
       refY="0"
       refX="0"
       id="marker4427"
       style="overflow:visible">
      <path
         inkscape:connector-curvature="0"
         id="path4429"
         d="m -2.5,-1 c 0,2.76 -2.24,5 -5,5 -2.76,0 -5,-2.24 -5,-5 0,-2.76 2.24,-5 5,-5 2.76,0 5,2.24 5,5 z"
         style="fill-rule:evenodd;stroke:#000000;stroke-width:1pt"
         transform="matrix(0.2,0,0,0.2,1.48,0.2)" />
    </marker>
    <marker
       inkscape:stockid="DotS"
       orient="auto"
       refY="0"
       refX="0"
       id="DotS-2"
       style="overflow:visible">
      <path
         inkscape:connector-curvature="0"
         id="path3828-1"
         d="m -2.5,-1 c 0,2.76 -2.24,5 -5,5 -2.76,0 -5,-2.24 -5,-5 0,-2.76 2.24,-5 5,-5 2.76,0 5,2.24 5,5 z"
         style="fill-rule:evenodd;stroke:#000000;stroke-width:1pt"
         transform="matrix(0.2,0,0,0.2,1.48,0.2)" />
    </marker>
    <marker
       inkscape:stockid="DotS"
       orient="auto"
       refY="0"
       refX="0"
       id="marker4427-3"
       style="overflow:visible">
      <path
         inkscape:connector-curvature="0"
         id="path4429-9"
         d="m -2.5,-1 c 0,2.76 -2.24,5 -5,5 -2.76,0 -5,-2.24 -5,-5 0,-2.76 2.24,-5 5,-5 2.76,0 5,2.24 5,5 z"
         style="fill-rule:evenodd;stroke:#000000;stroke-width:1pt"
         transform="matrix(0.2,0,0,0.2,1.48,0.2)" />
    </marker>
    <marker
       inkscape:stockid="DotS"
       orient="auto"
       refY="0"
       refX="0"
       id="DotS-21"
       style="overflow:visible">
      <path
         inkscape:connector-curvature="0"
         id="path3828-6"
         d="m -2.5,-1 c 0,2.76 -2.24,5 -5,5 -2.76,0 -5,-2.24 -5,-5 0,-2.76 2.24,-5 5,-5 2.76,0 5,2.24 5,5 z"
         style="fill-rule:evenodd;stroke:#000000;stroke-width:1pt"
         transform="matrix(0.2,0,0,0.2,1.48,0.2)" />
    </marker>
    <marker
       inkscape:stockid="DotS"
       orient="auto"
       refY="0"
       refX="0"
       id="marker4474"
       style="overflow:visible">
      <path
         inkscape:connector-curvature="0"
         id="path4476"
         d="m -2.5,-1 c 0,2.76 -2.24,5 -5,5 -2.76,0 -5,-2.24 -5,-5 0,-2.76 2.24,-5 5,-5 2.76,0 5,2.24 5,5 z"
         style="fill-rule:evenodd;stroke:#000000;stroke-width:1pt"
         transform="matrix(0.2,0,0,0.2,1.48,0.2)" />
    </marker>
    <marker
       inkscape:stockid="DotS"
       orient="auto"
       refY="0"
       refX="0"
       id="DotS-36"
       style="overflow:visible">
      <path
         inkscape:connector-curvature="0"
         id="path3828-8"
         d="m -2.5,-1 c 0,2.76 -2.24,5 -5,5 -2.76,0 -5,-2.24 -5,-5 0,-2.76 2.24,-5 5,-5 2.76,0 5,2.24 5,5 z"
         style="fill-rule:evenodd;stroke:#000000;stroke-width:1pt"
         transform="matrix(0.2,0,0,0.2,1.48,0.2)" />
    </marker>
    <marker
       inkscape:stockid="DotS"
       orient="auto"
       refY="0"
       refX="0"
       id="marker4516"
       style="overflow:visible">
      <path
         inkscape:connector-curvature="0"
         id="path4518"
         d="m -2.5,-1 c 0,2.76 -2.24,5 -5,5 -2.76,0 -5,-2.24 -5,-5 0,-2.76 2.24,-5 5,-5 2.76,0 5,2.24 5,5 z"
         style="fill-rule:evenodd;stroke:#000000;stroke-width:1pt"
         transform="matrix(0.2,0,0,0.2,1.48,0.2)" />
    </marker>
    <marker
       inkscape:stockid="DotS"
       orient="auto"
       refY="0"
       refX="0"
       id="DotS-11"
       style="overflow:visible">
      <path
         inkscape:connector-curvature="0"
         id="path3828-58"
         d="m -2.5,-1 c 0,2.76 -2.24,5 -5,5 -2.76,0 -5,-2.24 -5,-5 0,-2.76 2.24,-5 5,-5 2.76,0 5,2.24 5,5 z"
         style="fill-rule:evenodd;stroke:#000000;stroke-width:1pt"
         transform="matrix(0.2,0,0,0.2,1.48,0.2)" />
    </marker>
    <marker
       inkscape:stockid="DotS"
       orient="auto"
       refY="0"
       refX="0"
       id="marker4954"
       style="overflow:visible">
      <path
         inkscape:connector-curvature="0"
         id="path4956"
         d="m -2.5,-1 c 0,2.76 -2.24,5 -5,5 -2.76,0 -5,-2.24 -5,-5 0,-2.76 2.24,-5 5,-5 2.76,0 5,2.24 5,5 z"
         style="fill-rule:evenodd;stroke:#000000;stroke-width:1pt"
         transform="matrix(0.2,0,0,0.2,1.48,0.2)" />
    </marker>
    <marker
       inkscape:stockid="DotS"
       orient="auto"
       refY="0"
       refX="0"
       id="DotS-7"
       style="overflow:visible">
      <path
         inkscape:connector-curvature="0"
         id="path3828-3"
         d="m -2.5,-1 c 0,2.76 -2.24,5 -5,5 -2.76,0 -5,-2.24 -5,-5 0,-2.76 2.24,-5 5,-5 2.76,0 5,2.24 5,5 z"
         style="fill-rule:evenodd;stroke:#000000;stroke-width:1pt"
         transform="matrix(0.2,0,0,0.2,1.48,0.2)" />
    </marker>
    <marker
       inkscape:stockid="DotS"
       orient="auto"
       refY="0"
       refX="0"
       id="marker5024"
       style="overflow:visible">
      <path
         inkscape:connector-curvature="0"
         id="path5026"
         d="m -2.5,-1 c 0,2.76 -2.24,5 -5,5 -2.76,0 -5,-2.24 -5,-5 0,-2.76 2.24,-5 5,-5 2.76,0 5,2.24 5,5 z"
         style="fill-rule:evenodd;stroke:#000000;stroke-width:1pt"
         transform="matrix(0.2,0,0,0.2,1.48,0.2)" />
    </marker>
    <marker
       inkscape:stockid="DotS"
       orient="auto"
       refY="0"
       refX="0"
       id="DotS-34"
       style="overflow:visible">
      <path
         inkscape:connector-curvature="0"
         id="path3828-16"
         d="m -2.5,-1 c 0,2.76 -2.24,5 -5,5 -2.76,0 -5,-2.24 -5,-5 0,-2.76 2.24,-5 5,-5 2.76,0 5,2.24 5,5 z"
         style="fill-rule:evenodd;stroke:#000000;stroke-width:1pt"
         transform="matrix(0.2,0,0,0.2,1.48,0.2)" />
    </marker>
    <marker
       inkscape:stockid="DotS"
       orient="auto"
       refY="0"
       refX="0"
       id="marker5056"
       style="overflow:visible">
      <path
         inkscape:connector-curvature="0"
         id="path5058"
         d="m -2.5,-1 c 0,2.76 -2.24,5 -5,5 -2.76,0 -5,-2.24 -5,-5 0,-2.76 2.24,-5 5,-5 2.76,0 5,2.24 5,5 z"
         style="fill-rule:evenodd;stroke:#000000;stroke-width:1pt"
         transform="matrix(0.2,0,0,0.2,1.48,0.2)" />
    </marker>
    <marker
       inkscape:stockid="DotS"
       orient="auto"
       refY="0"
       refX="0"
       id="marker4516-8"
       style="overflow:visible">
      <path
         inkscape:connector-curvature="0"
         id="path4518-5"
         d="m -2.5,-1 c 0,2.76 -2.24,5 -5,5 -2.76,0 -5,-2.24 -5,-5 0,-2.76 2.24,-5 5,-5 2.76,0 5,2.24 5,5 z"
         style="fill-rule:evenodd;stroke:#000000;stroke-width:1pt"
         transform="matrix(0.2,0,0,0.2,1.48,0.2)" />
    </marker>
    <marker
       inkscape:stockid="DotS"
       orient="auto"
       refY="0"
       refX="0"
       id="marker5088"
       style="overflow:visible">
      <path
         inkscape:connector-curvature="0"
         id="path5090"
         d="m -2.5,-1 c 0,2.76 -2.24,5 -5,5 -2.76,0 -5,-2.24 -5,-5 0,-2.76 2.24,-5 5,-5 2.76,0 5,2.24 5,5 z"
         style="fill-rule:evenodd;stroke:#000000;stroke-width:1pt"
         transform="matrix(0.2,0,0,0.2,1.48,0.2)" />
    </marker>
    <marker
       inkscape:stockid="DotS"
       orient="auto"
       refY="0"
       refX="0"
       id="marker4516-9"
       style="overflow:visible">
      <path
         inkscape:connector-curvature="0"
         id="path4518-55"
         d="m -2.5,-1 c 0,2.76 -2.24,5 -5,5 -2.76,0 -5,-2.24 -5,-5 0,-2.76 2.24,-5 5,-5 2.76,0 5,2.24 5,5 z"
         style="fill-rule:evenodd;stroke:#000000;stroke-width:1pt"
         transform="matrix(0.2,0,0,0.2,1.48,0.2)" />
    </marker>
    <marker
       inkscape:stockid="DotS"
       orient="auto"
       refY="0"
       refX="0"
       id="marker5137"
       style="overflow:visible">
      <path
         inkscape:connector-curvature="0"
         id="path5139"
         d="m -2.5,-1 c 0,2.76 -2.24,5 -5,5 -2.76,0 -5,-2.24 -5,-5 0,-2.76 2.24,-5 5,-5 2.76,0 5,2.24 5,5 z"
         style="fill-rule:evenodd;stroke:#000000;stroke-width:1pt"
         transform="matrix(0.2,0,0,0.2,1.48,0.2)" />
    </marker>
    <marker
       inkscape:stockid="DotS"
       orient="auto"
       refY="0"
       refX="0"
       id="DotS-0"
       style="overflow:visible">
      <path
         inkscape:connector-curvature="0"
         id="path3828-4"
         d="m -2.5,-1 c 0,2.76 -2.24,5 -5,5 -2.76,0 -5,-2.24 -5,-5 0,-2.76 2.24,-5 5,-5 2.76,0 5,2.24 5,5 z"
         style="fill-rule:evenodd;stroke:#000000;stroke-width:1pt"
         transform="matrix(0.2,0,0,0.2,1.48,0.2)" />
    </marker>
    <marker
       inkscape:stockid="DotS"
       orient="auto"
       refY="0"
       refX="0"
       id="marker5169"
       style="overflow:visible">
      <path
         inkscape:connector-curvature="0"
         id="path5171"
         d="m -2.5,-1 c 0,2.76 -2.24,5 -5,5 -2.76,0 -5,-2.24 -5,-5 0,-2.76 2.24,-5 5,-5 2.76,0 5,2.24 5,5 z"
         style="fill-rule:evenodd;stroke:#000000;stroke-width:1pt"
         transform="matrix(0.2,0,0,0.2,1.48,0.2)" />
    </marker>
    <marker
       inkscape:stockid="DotS"
       orient="auto"
       refY="0"
       refX="0"
       id="DotS-8"
       style="overflow:visible">
      <path
         inkscape:connector-curvature="0"
         id="path3828-66"
         d="m -2.5,-1 c 0,2.76 -2.24,5 -5,5 -2.76,0 -5,-2.24 -5,-5 0,-2.76 2.24,-5 5,-5 2.76,0 5,2.24 5,5 z"
         style="fill-rule:evenodd;stroke:#000000;stroke-width:1pt"
         transform="matrix(0.2,0,0,0.2,1.48,0.2)" />
    </marker>
    <marker
       inkscape:stockid="DotS"
       orient="auto"
       refY="0"
       refX="0"
       id="marker5218"
       style="overflow:visible">
      <path
         inkscape:connector-curvature="0"
         id="path5220"
         d="m -2.5,-1 c 0,2.76 -2.24,5 -5,5 -2.76,0 -5,-2.24 -5,-5 0,-2.76 2.24,-5 5,-5 2.76,0 5,2.24 5,5 z"
         style="fill-rule:evenodd;stroke:#000000;stroke-width:1pt"
         transform="matrix(0.2,0,0,0.2,1.48,0.2)" />
    </marker>
    <marker
       inkscape:stockid="DotSv"
       orient="auto"
       refY="0"
       refX="0"
       id="DotSv"
       style="overflow:visible">
      <path
         id="path5753"
         d="m -2.5,-1 c 0,2.76 -2.24,5 -5,5 -2.76,0 -5,-2.24 -5,-5 0,-2.76 2.24,-5 5,-5 2.76,0 5,2.24 5,5 z"
         style="fill:#858585;fill-rule:evenodd;stroke:#858585;stroke-width:1pt"
         transform="matrix(0.2,0,0,0.2,1.48,0.2)"
         inkscape:connector-curvature="0" />
    </marker>
    <marker
       inkscape:stockid="DotSs"
       orient="auto"
       refY="0"
       refX="0"
       id="DotSs"
       style="overflow:visible">
      <path
         id="path5756"
         d="m -2.5,-1 c 0,2.76 -2.24,5 -5,5 -2.76,0 -5,-2.24 -5,-5 0,-2.76 2.24,-5 5,-5 2.76,0 5,2.24 5,5 z"
         style="fill:#858585;fill-rule:evenodd;stroke:#858585;stroke-width:1pt"
         transform="matrix(0.2,0,0,0.2,1.48,0.2)"
         inkscape:connector-curvature="0" />
    </marker>
    <marker
       inkscape:stockid="DotSk"
       orient="auto"
       refY="0"
       refX="0"
       id="DotSk"
       style="overflow:visible">
      <path
         id="path5759"
         d="m -2.5,-1 c 0,2.76 -2.24,5 -5,5 -2.76,0 -5,-2.24 -5,-5 0,-2.76 2.24,-5 5,-5 2.76,0 5,2.24 5,5 z"
         style="fill:#858585;fill-rule:evenodd;stroke:#858585;stroke-width:1pt"
         transform="matrix(0.2,0,0,0.2,1.48,0.2)"
         inkscape:connector-curvature="0" />
    </marker>
    <marker
       inkscape:stockid="DotSK"
       orient="auto"
       refY="0"
       refX="0"
       id="DotSK"
       style="overflow:visible">
      <path
         id="path5762"
         d="m -2.5,-1 c 0,2.76 -2.24,5 -5,5 -2.76,0 -5,-2.24 -5,-5 0,-2.76 2.24,-5 5,-5 2.76,0 5,2.24 5,5 z"
         style="fill:#858585;fill-rule:evenodd;stroke:#858585;stroke-width:1pt"
         transform="matrix(0.2,0,0,0.2,1.48,0.2)"
         inkscape:connector-curvature="0" />
    </marker>
    <marker
       inkscape:stockid="DotSQ"
       orient="auto"
       refY="0"
       refX="0"
       id="DotSQ"
       style="overflow:visible">
      <path
         id="path5765"
         d="m -2.5,-1 c 0,2.76 -2.24,5 -5,5 -2.76,0 -5,-2.24 -5,-5 0,-2.76 2.24,-5 5,-5 2.76,0 5,2.24 5,5 z"
         style="fill:#858585;fill-rule:evenodd;stroke:#858585;stroke-width:1pt"
         transform="matrix(0.2,0,0,0.2,1.48,0.2)"
         inkscape:connector-curvature="0" />
    </marker>
    <marker
       inkscape:stockid="DotSg"
       orient="auto"
       refY="0"
       refX="0"
       id="DotSg"
       style="overflow:visible">
      <path
         id="path5768"
         d="m -2.5,-1 c 0,2.76 -2.24,5 -5,5 -2.76,0 -5,-2.24 -5,-5 0,-2.76 2.24,-5 5,-5 2.76,0 5,2.24 5,5 z"
         style="fill:#858585;fill-rule:evenodd;stroke:#858585;stroke-width:1pt"
         transform="matrix(0.2,0,0,0.2,1.48,0.2)"
         inkscape:connector-curvature="0" />
    </marker>
    <marker
       inkscape:stockid="marker4516J"
       orient="auto"
       refY="0"
       refX="0"
       id="marker4516J"
       style="overflow:visible">
      <path
         inkscape:connector-curvature="0"
         id="path5771"
         d="m -2.5,-1 c 0,2.76 -2.24,5 -5,5 -2.76,0 -5,-2.24 -5,-5 0,-2.76 2.24,-5 5,-5 2.76,0 5,2.24 5,5 z"
         style="fill:#858585;fill-rule:evenodd;stroke:#858585;stroke-width:1pt"
         transform="matrix(0.2,0,0,0.2,1.48,0.2)" />
    </marker>
    <marker
       inkscape:stockid="marker4516P"
       orient="auto"
       refY="0"
       refX="0"
       id="marker4516P"
       style="overflow:visible">
      <path
         inkscape:connector-curvature="0"
         id="path5774"
         d="m -2.5,-1 c 0,2.76 -2.24,5 -5,5 -2.76,0 -5,-2.24 -5,-5 0,-2.76 2.24,-5 5,-5 2.76,0 5,2.24 5,5 z"
         style="fill:#858585;fill-rule:evenodd;stroke:#858585;stroke-width:1pt"
         transform="matrix(0.2,0,0,0.2,1.48,0.2)" />
    </marker>
    <marker
       inkscape:stockid="DotSC"
       orient="auto"
       refY="0"
       refX="0"
       id="DotSC"
       style="overflow:visible">
      <path
         id="path5777"
         d="m -2.5,-1 c 0,2.76 -2.24,5 -5,5 -2.76,0 -5,-2.24 -5,-5 0,-2.76 2.24,-5 5,-5 2.76,0 5,2.24 5,5 z"
         style="fill:#858585;fill-rule:evenodd;stroke:#858585;stroke-width:1pt"
         transform="matrix(0.2,0,0,0.2,1.48,0.2)"
         inkscape:connector-curvature="0" />
    </marker>
    <marker
       inkscape:stockid="DotSL"
       orient="auto"
       refY="0"
       refX="0"
       id="DotSL"
       style="overflow:visible">
      <path
         id="path5780"
         d="m -2.5,-1 c 0,2.76 -2.24,5 -5,5 -2.76,0 -5,-2.24 -5,-5 0,-2.76 2.24,-5 5,-5 2.76,0 5,2.24 5,5 z"
         style="fill:#858585;fill-rule:evenodd;stroke:#858585;stroke-width:1pt"
         transform="matrix(0.2,0,0,0.2,1.48,0.2)"
         inkscape:connector-curvature="0" />
    </marker>
    <marker
       inkscape:stockid="DotSf"
       orient="auto"
       refY="0"
       refX="0"
       id="DotSf"
       style="overflow:visible">
      <path
         id="path5783"
         d="m -2.5,-1 c 0,2.76 -2.24,5 -5,5 -2.76,0 -5,-2.24 -5,-5 0,-2.76 2.24,-5 5,-5 2.76,0 5,2.24 5,5 z"
         style="fill:#858585;fill-rule:evenodd;stroke:#858585;stroke-width:1pt"
         transform="matrix(0.2,0,0,0.2,1.48,0.2)"
         inkscape:connector-curvature="0" />
    </marker>
    <marker
       inkscape:stockid="DotS7"
       orient="auto"
       refY="0"
       refX="0"
       id="DotS7"
       style="overflow:visible">
      <path
         id="path5786"
         d="m -2.5,-1 c 0,2.76 -2.24,5 -5,5 -2.76,0 -5,-2.24 -5,-5 0,-2.76 2.24,-5 5,-5 2.76,0 5,2.24 5,5 z"
         style="fill:#858585;fill-rule:evenodd;stroke:#858585;stroke-width:1pt"
         transform="matrix(0.2,0,0,0.2,1.48,0.2)"
         inkscape:connector-curvature="0" />
    </marker>
    <marker
       inkscape:stockid="DotSS"
       orient="auto"
       refY="0"
       refX="0"
       id="DotSS"
       style="overflow:visible">
      <path
         id="path5789"
         d="m -2.5,-1 c 0,2.76 -2.24,5 -5,5 -2.76,0 -5,-2.24 -5,-5 0,-2.76 2.24,-5 5,-5 2.76,0 5,2.24 5,5 z"
         style="fill:#858585;fill-rule:evenodd;stroke:#858585;stroke-width:1pt"
         transform="matrix(0.2,0,0,0.2,1.48,0.2)"
         inkscape:connector-curvature="0" />
    </marker>
    <marker
       inkscape:stockid="DotSy"
       orient="auto"
       refY="0"
       refX="0"
       id="DotSy"
       style="overflow:visible">
      <path
         id="path5792"
         d="m -2.5,-1 c 0,2.76 -2.24,5 -5,5 -2.76,0 -5,-2.24 -5,-5 0,-2.76 2.24,-5 5,-5 2.76,0 5,2.24 5,5 z"
         style="fill:#858585;fill-rule:evenodd;stroke:#858585;stroke-width:1pt"
         transform="matrix(0.2,0,0,0.2,1.48,0.2)"
         inkscape:connector-curvature="0" />
    </marker>
    <marker
       inkscape:stockid="marker4516C"
       orient="auto"
       refY="0"
       refX="0"
       id="marker4516C"
       style="overflow:visible">
      <path
         inkscape:connector-curvature="0"
         id="path5795"
         d="m -2.5,-1 c 0,2.76 -2.24,5 -5,5 -2.76,0 -5,-2.24 -5,-5 0,-2.76 2.24,-5 5,-5 2.76,0 5,2.24 5,5 z"
         style="fill:#858585;fill-rule:evenodd;stroke:#858585;stroke-width:1pt"
         transform="matrix(0.2,0,0,0.2,1.48,0.2)" />
    </marker>
    <marker
       inkscape:stockid="marker45162"
       orient="auto"
       refY="0"
       refX="0"
       id="marker45162"
       style="overflow:visible">
      <path
         inkscape:connector-curvature="0"
         id="path5798"
         d="m -2.5,-1 c 0,2.76 -2.24,5 -5,5 -2.76,0 -5,-2.24 -5,-5 0,-2.76 2.24,-5 5,-5 2.76,0 5,2.24 5,5 z"
         style="fill:#858585;fill-rule:evenodd;stroke:#858585;stroke-width:1pt"
         transform="matrix(0.2,0,0,0.2,1.48,0.2)" />
    </marker>
    <marker
       inkscape:stockid="DotSG"
       orient="auto"
       refY="0"
       refX="0"
       id="DotSG"
       style="overflow:visible">
      <path
         id="path5801"
         d="m -2.5,-1 c 0,2.76 -2.24,5 -5,5 -2.76,0 -5,-2.24 -5,-5 0,-2.76 2.24,-5 5,-5 2.76,0 5,2.24 5,5 z"
         style="fill:#858585;fill-rule:evenodd;stroke:#858585;stroke-width:1pt"
         transform="matrix(0.2,0,0,0.2,1.48,0.2)"
         inkscape:connector-curvature="0" />
    </marker>
    <marker
       inkscape:stockid="DotS5"
       orient="auto"
       refY="0"
       refX="0"
       id="DotS5"
       style="overflow:visible">
      <path
         id="path5804"
         d="m -2.5,-1 c 0,2.76 -2.24,5 -5,5 -2.76,0 -5,-2.24 -5,-5 0,-2.76 2.24,-5 5,-5 2.76,0 5,2.24 5,5 z"
         style="fill:#858585;fill-rule:evenodd;stroke:#858585;stroke-width:1pt"
         transform="matrix(0.2,0,0,0.2,1.48,0.2)"
         inkscape:connector-curvature="0" />
    </marker>
    <marker
       inkscape:stockid="DotSsA"
       orient="auto"
       refY="0"
       refX="0"
       id="DotSsA"
       style="overflow:visible">
      <path
         id="path5807"
         d="m -2.5,-1 c 0,2.76 -2.24,5 -5,5 -2.76,0 -5,-2.24 -5,-5 0,-2.76 2.24,-5 5,-5 2.76,0 5,2.24 5,5 z"
         style="fill:#858585;fill-rule:evenodd;stroke:#858585;stroke-width:1pt"
         transform="matrix(0.2,0,0,0.2,1.48,0.2)"
         inkscape:connector-curvature="0" />
    </marker>
    <marker
       inkscape:stockid="DotSLd"
       orient="auto"
       refY="0"
       refX="0"
       id="DotSLd"
       style="overflow:visible">
      <path
         id="path5810"
         d="m -2.5,-1 c 0,2.76 -2.24,5 -5,5 -2.76,0 -5,-2.24 -5,-5 0,-2.76 2.24,-5 5,-5 2.76,0 5,2.24 5,5 z"
         style="fill:#858585;fill-rule:evenodd;stroke:#858585;stroke-width:1pt"
         transform="matrix(0.2,0,0,0.2,1.48,0.2)"
         inkscape:connector-curvature="0" />
    </marker>
    <marker
       inkscape:stockid="DotSd"
       orient="auto"
       refY="0"
       refX="0"
       id="DotSd"
       style="overflow:visible">
      <path
         id="path5813"
         d="m -2.5,-1 c 0,2.76 -2.24,5 -5,5 -2.76,0 -5,-2.24 -5,-5 0,-2.76 2.24,-5 5,-5 2.76,0 5,2.24 5,5 z"
         style="fill:#858585;fill-rule:evenodd;stroke:#858585;stroke-width:1pt"
         transform="matrix(0.2,0,0,0.2,1.48,0.2)"
         inkscape:connector-curvature="0" />
    </marker>
    <marker
       inkscape:stockid="DotSyI"
       orient="auto"
       refY="0"
       refX="0"
       id="DotSyI"
       style="overflow:visible">
      <path
         id="path5816"
         d="m -2.5,-1 c 0,2.76 -2.24,5 -5,5 -2.76,0 -5,-2.24 -5,-5 0,-2.76 2.24,-5 5,-5 2.76,0 5,2.24 5,5 z"
         style="fill:#858585;fill-rule:evenodd;stroke:#858585;stroke-width:1pt"
         transform="matrix(0.2,0,0,0.2,1.48,0.2)"
         inkscape:connector-curvature="0" />
    </marker>
    <marker
       inkscape:stockid="marker4516y"
       orient="auto"
       refY="0"
       refX="0"
       id="marker4516y"
       style="overflow:visible">
      <path
         inkscape:connector-curvature="0"
         id="path5819"
         d="m -2.5,-1 c 0,2.76 -2.24,5 -5,5 -2.76,0 -5,-2.24 -5,-5 0,-2.76 2.24,-5 5,-5 2.76,0 5,2.24 5,5 z"
         style="fill:#858585;fill-rule:evenodd;stroke:#858585;stroke-width:1pt"
         transform="matrix(0.2,0,0,0.2,1.48,0.2)" />
    </marker>
    <marker
       inkscape:stockid="marker4516I"
       orient="auto"
       refY="0"
       refX="0"
       id="marker4516I"
       style="overflow:visible">
      <path
         inkscape:connector-curvature="0"
         id="path5822"
         d="m -2.5,-1 c 0,2.76 -2.24,5 -5,5 -2.76,0 -5,-2.24 -5,-5 0,-2.76 2.24,-5 5,-5 2.76,0 5,2.24 5,5 z"
         style="fill:#858585;fill-rule:evenodd;stroke:#858585;stroke-width:1pt"
         transform="matrix(0.2,0,0,0.2,1.48,0.2)" />
    </marker>
    <marker
       inkscape:stockid="marker5218b"
       orient="auto"
       refY="0"
       refX="0"
       id="marker5218b"
       style="overflow:visible">
      <path
         inkscape:connector-curvature="0"
         id="path5825"
         d="m -2.5,-1 c 0,2.76 -2.24,5 -5,5 -2.76,0 -5,-2.24 -5,-5 0,-2.76 2.24,-5 5,-5 2.76,0 5,2.24 5,5 z"
         style="fill:#858585;fill-rule:evenodd;stroke:#858585;stroke-width:1pt"
         transform="matrix(0.2,0,0,0.2,1.48,0.2)" />
    </marker>
    <marker
       inkscape:stockid="marker5218X"
       orient="auto"
       refY="0"
       refX="0"
       id="marker5218X"
       style="overflow:visible">
      <path
         inkscape:connector-curvature="0"
         id="path5828"
         d="m -2.5,-1 c 0,2.76 -2.24,5 -5,5 -2.76,0 -5,-2.24 -5,-5 0,-2.76 2.24,-5 5,-5 2.76,0 5,2.24 5,5 z"
         style="fill:#858585;fill-rule:evenodd;stroke:#858585;stroke-width:1pt"
         transform="matrix(0.2,0,0,0.2,1.48,0.2)" />
    </marker>
    <marker
       inkscape:stockid="DotSQL"
       orient="auto"
       refY="0"
       refX="0"
       id="DotSQL"
       style="overflow:visible">
      <path
         id="path6109"
         d="m -2.5,-1 c 0,2.76 -2.24,5 -5,5 -2.76,0 -5,-2.24 -5,-5 0,-2.76 2.24,-5 5,-5 2.76,0 5,2.24 5,5 z"
         style="fill:#ffc400;fill-rule:evenodd;stroke:#ffc400;stroke-width:1pt"
         transform="matrix(0.2,0,0,0.2,1.48,0.2)"
         inkscape:connector-curvature="0" />
    </marker>
    <marker
       inkscape:stockid="DotSgb"
       orient="auto"
       refY="0"
       refX="0"
       id="DotSgb"
       style="overflow:visible">
      <path
         id="path6112"
         d="m -2.5,-1 c 0,2.76 -2.24,5 -5,5 -2.76,0 -5,-2.24 -5,-5 0,-2.76 2.24,-5 5,-5 2.76,0 5,2.24 5,5 z"
         style="fill:#ffc400;fill-rule:evenodd;stroke:#ffc400;stroke-width:1pt"
         transform="matrix(0.2,0,0,0.2,1.48,0.2)"
         inkscape:connector-curvature="0" />
    </marker>
    <marker
       inkscape:stockid="marker4516J6"
       orient="auto"
       refY="0"
       refX="0"
       id="marker4516J6"
       style="overflow:visible">
      <path
         inkscape:connector-curvature="0"
         id="path6115"
         d="m -2.5,-1 c 0,2.76 -2.24,5 -5,5 -2.76,0 -5,-2.24 -5,-5 0,-2.76 2.24,-5 5,-5 2.76,0 5,2.24 5,5 z"
         style="fill:#ffc400;fill-rule:evenodd;stroke:#ffc400;stroke-width:1pt"
         transform="matrix(0.2,0,0,0.2,1.48,0.2)" />
    </marker>
    <marker
       inkscape:stockid="marker4516Pl"
       orient="auto"
       refY="0"
       refX="0"
       id="marker4516Pl"
       style="overflow:visible">
      <path
         inkscape:connector-curvature="0"
         id="path6118"
         d="m -2.5,-1 c 0,2.76 -2.24,5 -5,5 -2.76,0 -5,-2.24 -5,-5 0,-2.76 2.24,-5 5,-5 2.76,0 5,2.24 5,5 z"
         style="fill:#ffc400;fill-rule:evenodd;stroke:#ffc400;stroke-width:1pt"
         transform="matrix(0.2,0,0,0.2,1.48,0.2)" />
    </marker>
    <marker
       inkscape:stockid="DotSSB"
       orient="auto"
       refY="0"
       refX="0"
       id="DotSSB"
       style="overflow:visible">
      <path
         id="path6121"
         d="m -2.5,-1 c 0,2.76 -2.24,5 -5,5 -2.76,0 -5,-2.24 -5,-5 0,-2.76 2.24,-5 5,-5 2.76,0 5,2.24 5,5 z"
         style="fill:#ffc400;fill-rule:evenodd;stroke:#ffc400;stroke-width:1pt"
         transform="matrix(0.2,0,0,0.2,1.48,0.2)"
         inkscape:connector-curvature="0" />
    </marker>
    <marker
       inkscape:stockid="DotSyD"
       orient="auto"
       refY="0"
       refX="0"
       id="DotSyD"
       style="overflow:visible">
      <path
         id="path6124"
         d="m -2.5,-1 c 0,2.76 -2.24,5 -5,5 -2.76,0 -5,-2.24 -5,-5 0,-2.76 2.24,-5 5,-5 2.76,0 5,2.24 5,5 z"
         style="fill:#ffc400;fill-rule:evenodd;stroke:#ffc400;stroke-width:1pt"
         transform="matrix(0.2,0,0,0.2,1.48,0.2)"
         inkscape:connector-curvature="0" />
    </marker>
    <marker
       inkscape:stockid="marker4516Ct"
       orient="auto"
       refY="0"
       refX="0"
       id="marker4516Ct"
       style="overflow:visible">
      <path
         inkscape:connector-curvature="0"
         id="path6127"
         d="m -2.5,-1 c 0,2.76 -2.24,5 -5,5 -2.76,0 -5,-2.24 -5,-5 0,-2.76 2.24,-5 5,-5 2.76,0 5,2.24 5,5 z"
         style="fill:#ffc400;fill-rule:evenodd;stroke:#ffc400;stroke-width:1pt"
         transform="matrix(0.2,0,0,0.2,1.48,0.2)" />
    </marker>
    <marker
       inkscape:stockid="marker451623"
       orient="auto"
       refY="0"
       refX="0"
       id="marker451623"
       style="overflow:visible">
      <path
         inkscape:connector-curvature="0"
         id="path6130"
         d="m -2.5,-1 c 0,2.76 -2.24,5 -5,5 -2.76,0 -5,-2.24 -5,-5 0,-2.76 2.24,-5 5,-5 2.76,0 5,2.24 5,5 z"
         style="fill:#ffc400;fill-rule:evenodd;stroke:#ffc400;stroke-width:1pt"
         transform="matrix(0.2,0,0,0.2,1.48,0.2)" />
    </marker>
    <marker
       inkscape:stockid="marker4516yb"
       orient="auto"
       refY="0"
       refX="0"
       id="marker4516yb"
       style="overflow:visible">
      <path
         inkscape:connector-curvature="0"
         id="path6133"
         d="m -2.5,-1 c 0,2.76 -2.24,5 -5,5 -2.76,0 -5,-2.24 -5,-5 0,-2.76 2.24,-5 5,-5 2.76,0 5,2.24 5,5 z"
         style="fill:#ffc400;fill-rule:evenodd;stroke:#ffc400;stroke-width:1pt"
         transform="matrix(0.2,0,0,0.2,1.48,0.2)" />
    </marker>
    <marker
       inkscape:stockid="marker4516IS"
       orient="auto"
       refY="0"
       refX="0"
       id="marker4516IS"
       style="overflow:visible">
      <path
         inkscape:connector-curvature="0"
         id="path6136"
         d="m -2.5,-1 c 0,2.76 -2.24,5 -5,5 -2.76,0 -5,-2.24 -5,-5 0,-2.76 2.24,-5 5,-5 2.76,0 5,2.24 5,5 z"
         style="fill:#ffc400;fill-rule:evenodd;stroke:#ffc400;stroke-width:1pt"
         transform="matrix(0.2,0,0,0.2,1.48,0.2)" />
    </marker>
    <marker
       inkscape:stockid="DotSsAi"
       orient="auto"
       refY="0"
       refX="0"
       id="DotSsAi"
       style="overflow:visible">
      <path
         id="path6139"
         d="m -2.5,-1 c 0,2.76 -2.24,5 -5,5 -2.76,0 -5,-2.24 -5,-5 0,-2.76 2.24,-5 5,-5 2.76,0 5,2.24 5,5 z"
         style="fill:#ffc400;fill-rule:evenodd;stroke:#ffc400;stroke-width:1pt"
         transform="matrix(0.2,0,0,0.2,1.48,0.2)"
         inkscape:connector-curvature="0" />
    </marker>
    <marker
       inkscape:stockid="DotSLdG"
       orient="auto"
       refY="0"
       refX="0"
       id="DotSLdG"
       style="overflow:visible">
      <path
         id="path6142"
         d="m -2.5,-1 c 0,2.76 -2.24,5 -5,5 -2.76,0 -5,-2.24 -5,-5 0,-2.76 2.24,-5 5,-5 2.76,0 5,2.24 5,5 z"
         style="fill:#ffc400;fill-rule:evenodd;stroke:#ffc400;stroke-width:1pt"
         transform="matrix(0.2,0,0,0.2,1.48,0.2)"
         inkscape:connector-curvature="0" />
    </marker>
    <marker
       inkscape:stockid="DotSd7"
       orient="auto"
       refY="0"
       refX="0"
       id="DotSd7"
       style="overflow:visible">
      <path
         id="path6145"
         d="m -2.5,-1 c 0,2.76 -2.24,5 -5,5 -2.76,0 -5,-2.24 -5,-5 0,-2.76 2.24,-5 5,-5 2.76,0 5,2.24 5,5 z"
         style="fill:#ffc400;fill-rule:evenodd;stroke:#ffc400;stroke-width:1pt"
         transform="matrix(0.2,0,0,0.2,1.48,0.2)"
         inkscape:connector-curvature="0" />
    </marker>
    <marker
       inkscape:stockid="DotSyIp"
       orient="auto"
       refY="0"
       refX="0"
       id="DotSyIp"
       style="overflow:visible">
      <path
         id="path6148"
         d="m -2.5,-1 c 0,2.76 -2.24,5 -5,5 -2.76,0 -5,-2.24 -5,-5 0,-2.76 2.24,-5 5,-5 2.76,0 5,2.24 5,5 z"
         style="fill:#ffc400;fill-rule:evenodd;stroke:#ffc400;stroke-width:1pt"
         transform="matrix(0.2,0,0,0.2,1.48,0.2)"
         inkscape:connector-curvature="0" />
    </marker>
    <marker
       inkscape:stockid="DotSvS"
       orient="auto"
       refY="0"
       refX="0"
       id="DotSvS"
       style="overflow:visible">
      <path
         id="path6151"
         d="m -2.5,-1 c 0,2.76 -2.24,5 -5,5 -2.76,0 -5,-2.24 -5,-5 0,-2.76 2.24,-5 5,-5 2.76,0 5,2.24 5,5 z"
         style="fill:#ffc400;fill-rule:evenodd;stroke:#ffc400;stroke-width:1pt"
         transform="matrix(0.2,0,0,0.2,1.48,0.2)"
         inkscape:connector-curvature="0" />
    </marker>
    <marker
       inkscape:stockid="DotSsJ"
       orient="auto"
       refY="0"
       refX="0"
       id="DotSsJ"
       style="overflow:visible">
      <path
         id="path6154"
         d="m -2.5,-1 c 0,2.76 -2.24,5 -5,5 -2.76,0 -5,-2.24 -5,-5 0,-2.76 2.24,-5 5,-5 2.76,0 5,2.24 5,5 z"
         style="fill:#ffc400;fill-rule:evenodd;stroke:#ffc400;stroke-width:1pt"
         transform="matrix(0.2,0,0,0.2,1.48,0.2)"
         inkscape:connector-curvature="0" />
    </marker>
    <marker
       inkscape:stockid="DotSfb"
       orient="auto"
       refY="0"
       refX="0"
       id="DotSfb"
       style="overflow:visible">
      <path
         id="path6157"
         d="m -2.5,-1 c 0,2.76 -2.24,5 -5,5 -2.76,0 -5,-2.24 -5,-5 0,-2.76 2.24,-5 5,-5 2.76,0 5,2.24 5,5 z"
         style="fill:#ffc400;fill-rule:evenodd;stroke:#ffc400;stroke-width:1pt"
         transform="matrix(0.2,0,0,0.2,1.48,0.2)"
         inkscape:connector-curvature="0" />
    </marker>
    <marker
       inkscape:stockid="DotS7T"
       orient="auto"
       refY="0"
       refX="0"
       id="DotS7T"
       style="overflow:visible">
      <path
         id="path6160"
         d="m -2.5,-1 c 0,2.76 -2.24,5 -5,5 -2.76,0 -5,-2.24 -5,-5 0,-2.76 2.24,-5 5,-5 2.76,0 5,2.24 5,5 z"
         style="fill:#ffc400;fill-rule:evenodd;stroke:#ffc400;stroke-width:1pt"
         transform="matrix(0.2,0,0,0.2,1.48,0.2)"
         inkscape:connector-curvature="0" />
    </marker>
    <marker
       inkscape:stockid="DotSko"
       orient="auto"
       refY="0"
       refX="0"
       id="DotSko"
       style="overflow:visible">
      <path
         id="path6163"
         d="m -2.5,-1 c 0,2.76 -2.24,5 -5,5 -2.76,0 -5,-2.24 -5,-5 0,-2.76 2.24,-5 5,-5 2.76,0 5,2.24 5,5 z"
         style="fill:#ffc400;fill-rule:evenodd;stroke:#ffc400;stroke-width:1pt"
         transform="matrix(0.2,0,0,0.2,1.48,0.2)"
         inkscape:connector-curvature="0" />
    </marker>
    <marker
       inkscape:stockid="DotSKZ"
       orient="auto"
       refY="0"
       refX="0"
       id="DotSKZ"
       style="overflow:visible">
      <path
         id="path6166"
         d="m -2.5,-1 c 0,2.76 -2.24,5 -5,5 -2.76,0 -5,-2.24 -5,-5 0,-2.76 2.24,-5 5,-5 2.76,0 5,2.24 5,5 z"
         style="fill:#ffc400;fill-rule:evenodd;stroke:#ffc400;stroke-width:1pt"
         transform="matrix(0.2,0,0,0.2,1.48,0.2)"
         inkscape:connector-curvature="0" />
    </marker>
    <marker
       inkscape:stockid="DotSCa"
       orient="auto"
       refY="0"
       refX="0"
       id="DotSCa"
       style="overflow:visible">
      <path
         id="path6169"
         d="m -2.5,-1 c 0,2.76 -2.24,5 -5,5 -2.76,0 -5,-2.24 -5,-5 0,-2.76 2.24,-5 5,-5 2.76,0 5,2.24 5,5 z"
         style="fill:#ffc400;fill-rule:evenodd;stroke:#ffc400;stroke-width:1pt"
         transform="matrix(0.2,0,0,0.2,1.48,0.2)"
         inkscape:connector-curvature="0" />
    </marker>
    <marker
       inkscape:stockid="DotSLi"
       orient="auto"
       refY="0"
       refX="0"
       id="DotSLi"
       style="overflow:visible">
      <path
         id="path6172"
         d="m -2.5,-1 c 0,2.76 -2.24,5 -5,5 -2.76,0 -5,-2.24 -5,-5 0,-2.76 2.24,-5 5,-5 2.76,0 5,2.24 5,5 z"
         style="fill:#ffc400;fill-rule:evenodd;stroke:#ffc400;stroke-width:1pt"
         transform="matrix(0.2,0,0,0.2,1.48,0.2)"
         inkscape:connector-curvature="0" />
    </marker>
    <marker
       inkscape:stockid="marker5218bQ"
       orient="auto"
       refY="0"
       refX="0"
       id="marker5218bQ"
       style="overflow:visible">
      <path
         inkscape:connector-curvature="0"
         id="path6175"
         d="m -2.5,-1 c 0,2.76 -2.24,5 -5,5 -2.76,0 -5,-2.24 -5,-5 0,-2.76 2.24,-5 5,-5 2.76,0 5,2.24 5,5 z"
         style="fill:#ffc400;fill-rule:evenodd;stroke:#ffc400;stroke-width:1pt"
         transform="matrix(0.2,0,0,0.2,1.48,0.2)" />
    </marker>
    <marker
       inkscape:stockid="marker5218XM"
       orient="auto"
       refY="0"
       refX="0"
       id="marker5218XM"
       style="overflow:visible">
      <path
         inkscape:connector-curvature="0"
         id="path6178"
         d="m -2.5,-1 c 0,2.76 -2.24,5 -5,5 -2.76,0 -5,-2.24 -5,-5 0,-2.76 2.24,-5 5,-5 2.76,0 5,2.24 5,5 z"
         style="fill:#ffc400;fill-rule:evenodd;stroke:#ffc400;stroke-width:1pt"
         transform="matrix(0.2,0,0,0.2,1.48,0.2)" />
    </marker>
    <marker
       inkscape:stockid="DotSGn"
       orient="auto"
       refY="0"
       refX="0"
       id="DotSGn"
       style="overflow:visible">
      <path
         id="path6181"
         d="m -2.5,-1 c 0,2.76 -2.24,5 -5,5 -2.76,0 -5,-2.24 -5,-5 0,-2.76 2.24,-5 5,-5 2.76,0 5,2.24 5,5 z"
         style="fill:#ffc400;fill-rule:evenodd;stroke:#ffc400;stroke-width:1pt"
         transform="matrix(0.2,0,0,0.2,1.48,0.2)"
         inkscape:connector-curvature="0" />
    </marker>
    <marker
       inkscape:stockid="DotS5R"
       orient="auto"
       refY="0"
       refX="0"
       id="DotS5R"
       style="overflow:visible">
      <path
         id="path6184"
         d="m -2.5,-1 c 0,2.76 -2.24,5 -5,5 -2.76,0 -5,-2.24 -5,-5 0,-2.76 2.24,-5 5,-5 2.76,0 5,2.24 5,5 z"
         style="fill:#ffc400;fill-rule:evenodd;stroke:#ffc400;stroke-width:1pt"
         transform="matrix(0.2,0,0,0.2,1.48,0.2)"
         inkscape:connector-curvature="0" />
    </marker>
    <marker
       inkscape:stockid="DotSd7"
       orient="auto"
       refY="0"
       refX="0"
       id="DotSd7-9"
       style="overflow:visible">
      <path
         inkscape:connector-curvature="0"
         id="path6145-2"
         d="m -2.5,-1 c 0,2.76 -2.24,5 -5,5 -2.76,0 -5,-2.24 -5,-5 0,-2.76 2.24,-5 5,-5 2.76,0 5,2.24 5,5 z"
         style="fill:#ffc400;fill-rule:evenodd;stroke:#ffc400;stroke-width:1pt"
         transform="matrix(0.2,0,0,0.2,1.48,0.2)" />
    </marker>
    <marker
       inkscape:stockid="DotSyIp"
       orient="auto"
       refY="0"
       refX="0"
       id="DotSyIp-9"
       style="overflow:visible">
      <path
         inkscape:connector-curvature="0"
         id="path6148-2"
         d="m -2.5,-1 c 0,2.76 -2.24,5 -5,5 -2.76,0 -5,-2.24 -5,-5 0,-2.76 2.24,-5 5,-5 2.76,0 5,2.24 5,5 z"
         style="fill:#ffc400;fill-rule:evenodd;stroke:#ffc400;stroke-width:1pt"
         transform="matrix(0.2,0,0,0.2,1.48,0.2)" />
    </marker>
    <marker
       inkscape:stockid="DotSGn"
       orient="auto"
       refY="0"
       refX="0"
       id="DotSGn-0"
       style="overflow:visible">
      <path
         inkscape:connector-curvature="0"
         id="path6181-6"
         d="m -2.5,-1 c 0,2.76 -2.24,5 -5,5 -2.76,0 -5,-2.24 -5,-5 0,-2.76 2.24,-5 5,-5 2.76,0 5,2.24 5,5 z"
         style="fill:#ffc400;fill-rule:evenodd;stroke:#ffc400;stroke-width:1pt"
         transform="matrix(0.2,0,0,0.2,1.48,0.2)" />
    </marker>
    <marker
       inkscape:stockid="DotS5R"
       orient="auto"
       refY="0"
       refX="0"
       id="DotS5R-3"
       style="overflow:visible">
      <path
         inkscape:connector-curvature="0"
         id="path6184-9"
         d="m -2.5,-1 c 0,2.76 -2.24,5 -5,5 -2.76,0 -5,-2.24 -5,-5 0,-2.76 2.24,-5 5,-5 2.76,0 5,2.24 5,5 z"
         style="fill:#ffc400;fill-rule:evenodd;stroke:#ffc400;stroke-width:1pt"
         transform="matrix(0.2,0,0,0.2,1.48,0.2)" />
    </marker>
    <marker
       inkscape:stockid="marker5218bQ"
       orient="auto"
       refY="0"
       refX="0"
       id="marker5218bQ-7"
       style="overflow:visible">
      <path
         inkscape:connector-curvature="0"
         id="path6175-9"
         d="m -2.5,-1 c 0,2.76 -2.24,5 -5,5 -2.76,0 -5,-2.24 -5,-5 0,-2.76 2.24,-5 5,-5 2.76,0 5,2.24 5,5 z"
         style="fill:#ffc400;fill-rule:evenodd;stroke:#ffc400;stroke-width:1pt"
         transform="matrix(0.2,0,0,0.2,1.48,0.2)" />
    </marker>
    <marker
       inkscape:stockid="marker5218XM"
       orient="auto"
       refY="0"
       refX="0"
       id="marker5218XM-8"
       style="overflow:visible">
      <path
         inkscape:connector-curvature="0"
         id="path6178-2"
         d="m -2.5,-1 c 0,2.76 -2.24,5 -5,5 -2.76,0 -5,-2.24 -5,-5 0,-2.76 2.24,-5 5,-5 2.76,0 5,2.24 5,5 z"
         style="fill:#ffc400;fill-rule:evenodd;stroke:#ffc400;stroke-width:1pt"
         transform="matrix(0.2,0,0,0.2,1.48,0.2)" />
    </marker>
    <marker
       inkscape:stockid="marker5218bQ"
       orient="auto"
       refY="0"
       refX="0"
       id="marker5218bQ-9"
       style="overflow:visible">
      <path
         inkscape:connector-curvature="0"
         id="path6175-95"
         d="m -2.5,-1 c 0,2.76 -2.24,5 -5,5 -2.76,0 -5,-2.24 -5,-5 0,-2.76 2.24,-5 5,-5 2.76,0 5,2.24 5,5 z"
         style="fill:#ffc400;fill-rule:evenodd;stroke:#ffc400;stroke-width:1pt"
         transform="matrix(0.2,0,0,0.2,1.48,0.2)" />
    </marker>
    <marker
       inkscape:stockid="marker5218XM"
       orient="auto"
       refY="0"
       refX="0"
       id="marker5218XM-4"
       style="overflow:visible">
      <path
         inkscape:connector-curvature="0"
         id="path6178-29"
         d="m -2.5,-1 c 0,2.76 -2.24,5 -5,5 -2.76,0 -5,-2.24 -5,-5 0,-2.76 2.24,-5 5,-5 2.76,0 5,2.24 5,5 z"
         style="fill:#ffc400;fill-rule:evenodd;stroke:#ffc400;stroke-width:1pt"
         transform="matrix(0.2,0,0,0.2,1.48,0.2)" />
    </marker>
    <marker
       inkscape:stockid="DotSGn"
       orient="auto"
       refY="0"
       refX="0"
       id="DotSGn-08"
       style="overflow:visible">
      <path
         inkscape:connector-curvature="0"
         id="path6181-5"
         d="m -2.5,-1 c 0,2.76 -2.24,5 -5,5 -2.76,0 -5,-2.24 -5,-5 0,-2.76 2.24,-5 5,-5 2.76,0 5,2.24 5,5 z"
         style="fill:#ffc400;fill-rule:evenodd;stroke:#ffc400;stroke-width:1pt"
         transform="matrix(0.2,0,0,0.2,1.48,0.2)" />
    </marker>
    <marker
       inkscape:stockid="DotS5R"
       orient="auto"
       refY="0"
       refX="0"
       id="DotS5R-8"
       style="overflow:visible">
      <path
         inkscape:connector-curvature="0"
         id="path6184-1"
         d="m -2.5,-1 c 0,2.76 -2.24,5 -5,5 -2.76,0 -5,-2.24 -5,-5 0,-2.76 2.24,-5 5,-5 2.76,0 5,2.24 5,5 z"
         style="fill:#ffc400;fill-rule:evenodd;stroke:#ffc400;stroke-width:1pt"
         transform="matrix(0.2,0,0,0.2,1.48,0.2)" />
    </marker>
    <marker
       inkscape:stockid="marker4516Ct"
       orient="auto"
       refY="0"
       refX="0"
       id="marker4516Ct-0"
       style="overflow:visible">
      <path
         inkscape:connector-curvature="0"
         id="path6127-3"
         d="m -2.5,-1 c 0,2.76 -2.24,5 -5,5 -2.76,0 -5,-2.24 -5,-5 0,-2.76 2.24,-5 5,-5 2.76,0 5,2.24 5,5 z"
         style="fill:#ffc400;fill-rule:evenodd;stroke:#ffc400;stroke-width:1pt"
         transform="matrix(0.2,0,0,0.2,1.48,0.2)" />
    </marker>
    <marker
       inkscape:stockid="marker451623"
       orient="auto"
       refY="0"
       refX="0"
       id="marker451623-8"
       style="overflow:visible">
      <path
         inkscape:connector-curvature="0"
         id="path6130-8"
         d="m -2.5,-1 c 0,2.76 -2.24,5 -5,5 -2.76,0 -5,-2.24 -5,-5 0,-2.76 2.24,-5 5,-5 2.76,0 5,2.24 5,5 z"
         style="fill:#ffc400;fill-rule:evenodd;stroke:#ffc400;stroke-width:1pt"
         transform="matrix(0.2,0,0,0.2,1.48,0.2)" />
    </marker>
    <marker
       inkscape:stockid="marker5218bQ"
       orient="auto"
       refY="0"
       refX="0"
       id="marker5218bQ-0"
       style="overflow:visible">
      <path
         inkscape:connector-curvature="0"
         id="path6175-8"
         d="m -2.5,-1 c 0,2.76 -2.24,5 -5,5 -2.76,0 -5,-2.24 -5,-5 0,-2.76 2.24,-5 5,-5 2.76,0 5,2.24 5,5 z"
         style="fill:#ffc400;fill-rule:evenodd;stroke:#ffc400;stroke-width:1pt"
         transform="matrix(0.2,0,0,0.2,1.48,0.2)" />
    </marker>
    <marker
       inkscape:stockid="marker5218XM"
       orient="auto"
       refY="0"
       refX="0"
       id="marker5218XM-86"
       style="overflow:visible">
      <path
         inkscape:connector-curvature="0"
         id="path6178-7"
         d="m -2.5,-1 c 0,2.76 -2.24,5 -5,5 -2.76,0 -5,-2.24 -5,-5 0,-2.76 2.24,-5 5,-5 2.76,0 5,2.24 5,5 z"
         style="fill:#ffc400;fill-rule:evenodd;stroke:#ffc400;stroke-width:1pt"
         transform="matrix(0.2,0,0,0.2,1.48,0.2)" />
    </marker>
    <circle
       transform="matrix(0.8755829,0,0,0.8755829,152.4506,-680.83707)"
       id="path6572"
       style="fill:none;stroke:none"
       cx="675.71429"
       cy="777.58148"
       r="584.28571" />
    <circle
       transform="matrix(-1.1162727,-0.04357729,-0.04357729,1.1162727,1532.2608,-838.54723)"
       id="path6572-9"
       style="fill:none;stroke:none"
       cx="675.71429"
       cy="777.58148"
       r="584.28571" />
  </defs>
  <metadata
     id="metadata7">
    <rdf:RDF>
      <cc:Work
         rdf:about="">
        <dc:format>image/svg+xml</dc:format>
        <dc:type
           rdf:resource="http://purl.org/dc/dcmitype/StillImage" />
        <dc:title></dc:title>
      </cc:Work>
    </rdf:RDF>
  </metadata>
  <g
     inkscape:label="Ebene 1"
     inkscape:groupmode="layer"
     id="layer1"
     transform="translate(0,-783.07098)">
    <path
       id="path1755"
       style="color:#000000;font-style:normal;font-variant:normal;font-weight:normal;font-stretch:normal;font-size:medium;line-height:normal;font-family:sans-serif;font-variant-ligatures:normal;font-variant-position:normal;font-variant-caps:normal;font-variant-numeric:normal;font-variant-alternates:normal;font-variant-east-asian:normal;font-feature-settings:normal;font-variation-settings:normal;text-indent:0;text-align:start;text-decoration:none;text-decoration-line:none;text-decoration-style:solid;text-decoration-color:#000000;letter-spacing:normal;word-spacing:normal;text-transform:none;writing-mode:lr-tb;direction:ltr;text-orientation:mixed;dominant-baseline:auto;baseline-shift:baseline;text-anchor:start;white-space:normal;shape-padding:0;shape-margin:0;inline-size:0;clip-rule:nonzero;display:inline;overflow:visible;visibility:visible;isolation:auto;mix-blend-mode:normal;color-interpolation:sRGB;color-interpolation-filters:linearRGB;solid-color:#000000;solid-opacity:1;vector-effect:none;fill:#000000;fill-opacity:1;fill-rule:nonzero;stroke:none;stroke-width:1.99768;stroke-linecap:butt;stroke-linejoin:miter;stroke-miterlimit:4;stroke-dasharray:none;stroke-dashoffset:0;stroke-opacity:1;color-rendering:auto;image-rendering:auto;shape-rendering:auto;text-rendering:auto;enable-background:accumulate;stop-color:#000000"
       d="M 94.3492,783.07098 C 46.46345,783.08348 5.4166294,819.38272 0.48787943,868.04168 -4.7694806,919.94459 33.06351,966.30192 84.96639,971.55926 c 51.90292,5.25733 98.26805,-32.57359 103.52539,-84.47657 5.25737,-51.90297 -32.58149,-98.26218 -84.48437,-103.51953 -3.24314,-0.32849 -6.46502,-0.49301 -9.65821,-0.49218 z m 0.50977,8.11328 1.86523,0.0312 c 3.67846,0.0634 5.31838,1.85474 5.26758,4.80273 l -0.13672,7.86524 c -0.0488,2.83059 -1.881683,4.67828 -5.42968,4.61718 l -1.86524,-0.0332 c -3.67845,-0.0634 -5.31641,-1.8528 -5.26562,-4.80078 l 0.13476,-7.86523 c 0.0485,-2.81754 1.88168,-4.67829 5.42969,-4.61719 z m 15.04687,1.55859 c 0.0577,-0.007 0.12097,-0.003 0.1875,0.0137 l 5.99414,1.46289 c 3.47269,0.84761 4.72992,3.18188 3.98438,6.23633 l -0.0957,0.39258 c -0.62489,2.56016 -2.94046,4.55971 -6.42578,3.70899 l -2.4336,-0.59375 c -0.26615,-0.065 -0.47016,0.06 -0.53516,0.32617 l -1.24023,5.08203 c -0.065,0.26614 -0.27096,0.39117 -0.53711,0.32617 l -2.68555,-0.65625 c -0.26613,-0.065 -0.39117,-0.269 -0.32617,-0.53516 l 3.76367,-15.42382 c 0.0487,-0.19961 0.17664,-0.31975 0.34961,-0.33985 z m -30.88866,0.2168 c 2.35744,0.087 4.02701,1.56722 4.57031,4.07422 0.38407,1.77227 -0.0182,3.24675 -1.29102,4.45703 -0.11093,0.10413 -0.15688,0.19486 -0.13476,0.29687 0.0221,0.102 0.0647,0.17193 0.125,0.26563 l 3.8164,5.54101 c 0.17278,0.24289 0.25913,0.398 0.28125,0.5 0.0221,0.102 -0.0577,0.22534 -0.26172,0.26954 l -3.08593,0.66796 c -0.102,0.0221 -0.20469,-0.022 -0.29883,-0.14843 l -3.78516,-5.45313 c -0.0786,-0.11647 -0.19189,-0.14599 -0.30664,-0.12109 l -2.20508,0.47851 c -0.26772,0.058 -0.39788,0.25959 -0.33984,0.52735 l 1.19336,5.50781 c 0.058,0.26775 -0.0701,0.46934 -0.33789,0.52734 l -2.70313,0.58594 c -0.26775,0.058 -0.4693,-0.0721 -0.52734,-0.33984 l -3.36328,-15.51563 c -0.058,-0.26775 0.0721,-0.46934 0.33984,-0.52734 l 6.57813,-1.42578 c 0.612,-0.13263 1.1923,-0.18805 1.73633,-0.16797 z m 15.7832,1.55078 c -1.04354,-0.018 -1.70801,0.77887 -1.72461,1.74414 l -0.12305,7.08399 c -0.0178,1.03049 0.63552,1.78503 1.66601,1.80273 l 1.86524,0.0332 c 1.04352,0.018 1.70966,-0.76777 1.72656,-1.74609 l 0.12109,-7.08203 c 0.0178,-1.03048 -0.63552,-1.78699 -1.66601,-1.80469 z m -16.4043,1.81055 c -0.12205,0.005 -0.24714,0.0215 -0.37305,0.0488 l -3.04687,0.66015 c -0.26773,0.058 -0.39788,0.2596 -0.33984,0.52735 l 0.59765,2.7539 c 0.058,0.26776 0.25959,0.39785 0.52735,0.33985 l 3.04687,-0.66016 c 0.98176,-0.21275 1.63564,-1.07521 1.43945,-1.98047 l -0.0957,-0.44727 c -0.17167,-0.7921 -0.90149,-1.27896 -1.75586,-1.24218 z m 34.26953,0.51953 c -0.17297,0.0201 -0.29891,0.14023 -0.34766,0.33984 l -0.74023,3.0293 c -0.065,0.26615 0.06,0.47016 0.32617,0.53516 l 2.50977,0.61328 c 1.00124,0.24439 1.93822,-0.23912 2.20117,-1.31641 l 0.0898,-0.36719 c 0.26295,-1.0773 -0.34058,-1.96264 -1.34179,-2.20703 l -2.50977,-0.61328 c -0.0665,-0.0162 -0.12984,-0.0204 -0.1875,-0.0137 z m 14.98437,1.14062 c 0.0578,0.006 0.11805,0.0229 0.17969,0.0527 l 9.18164,4.44531 c 0.2466,0.11941 0.32643,0.34717 0.20703,0.59375 l -1.06445,2.19531 c -0.11941,0.2466 -0.34522,0.32449 -0.5918,0.20508 l -5.89453,-2.85351 c -0.24658,-0.1194 -0.47238,-0.0415 -0.59179,0.20507 l -1.06446,2.19532 c -0.11941,0.24658 -0.0395,0.47434 0.20703,0.59375 l 4.83594,2.34179 c 0.2466,0.11941 0.32644,0.34717 0.20703,0.59375 l -1.06445,2.19532 c -0.11941,0.24659 -0.34522,0.32448 -0.5918,0.20507 l -4.83789,-2.34179 c -0.24658,-0.11941 -0.47239,-0.0415 -0.59179,0.20507 l -1.1211,2.31446 c -0.11941,0.24658 -0.0396,0.47238 0.20703,0.59179 l 5.89453,2.85352 c 0.2466,0.1194 0.32449,0.34717 0.20508,0.59375 l -1.0625,2.19531 c -0.11941,0.24659 -0.34717,0.32449 -0.59375,0.20508 l -9.18164,-4.44531 c -0.24659,-0.11941 -0.32449,-0.34717 -0.20508,-0.59375 l 6.91993,-14.28906 c 0.0895,-0.18495 0.23876,-0.2745 0.4121,-0.25782 z m -65.86132,0.3125 c 1.86292,0.009 3.30001,1.11201 4.21094,3.07227 l 0.16992,0.36719 c 1.11057,2.38988 0.55237,5.39629 -2.70117,6.9082 l -2.27149,1.05664 c -0.24846,0.11546 -0.3303,0.34138 -0.21484,0.58984 l 2.20312,4.74414 c 0.11546,0.24845 0.0336,0.47245 -0.21484,0.5879 l -2.50781,1.16601 c -0.24846,0.11546 -0.47439,0.0336 -0.58985,-0.21484 l -6.68945,-14.39844 c -0.11545,-0.24846 -0.0336,-0.47439 0.21484,-0.58984 l 5.59571,-2.59961 c 1.01303,-0.47076 1.94814,-0.69345 2.79492,-0.68946 z m -0.62695,3.49219 c -0.23475,0.0158 -0.47337,0.077 -0.70703,0.18555 l -2.3418,1.08984 c -0.24846,0.11546 -0.3303,0.33944 -0.21485,0.58789 l 1.3125,2.82813 c 0.11546,0.24843 0.3414,0.3303 0.58985,0.21484 l 2.3418,-1.08789 c 0.93465,-0.43434 1.36575,-1.3967 0.89843,-2.40234 l -0.16015,-0.34375 c -0.35049,-0.75423 -1.01452,-1.11968 -1.71875,-1.07227 z m 82.51562,4.9668 c 0.10768,-0.0124 0.22082,0.0242 0.32812,0.10937 l 5.27344,4.1836 c 2.61602,2.07622 2.93729,4.88055 0.97461,7.35351 -1.12733,1.42042 -2.52078,2.04549 -4.26367,1.82813 -0.15084,-0.0198 -0.25151,0.002 -0.31641,0.084 -0.0649,0.0818 -0.0927,0.15955 -0.12695,0.26563 l -1.86524,6.46289 c -0.0783,0.28758 -0.14408,0.45345 -0.20898,0.53515 -0.0649,0.0818 -0.2115,0.0985 -0.375,-0.0312 l -2.47266,-1.96289 c -0.0816,-0.0649 -0.11241,-0.1732 -0.0742,-0.32617 l 1.81835,-6.38476 c 0.0402,-0.13463 -0.01,-0.2395 -0.10156,-0.3125 l -1.76758,-1.40235 c -0.21459,-0.17031 -0.45273,-0.14429 -0.62304,0.0703 l -3.50391,4.41602 c -0.17032,0.2146 -0.40845,0.24062 -0.62305,0.0703 l -2.16601,-1.71875 c -0.2146,-0.17032 -0.24259,-0.40844 -0.0723,-0.62304 l 9.8711,-12.43555 c 0.0851,-0.1073 0.18723,-0.16925 0.29492,-0.18164 z m -98.09765,3.88672 c 0.0399,0.003 0.0752,0.0224 0.10937,0.0527 0.0342,0.0302 0.068,0.0726 0.10352,0.12305 0.071,0.10098 0.14761,0.23932 0.22851,0.40625 0.16181,0.33386 0.34157,0.77851 0.51758,1.22851 0.17601,0.44999 0.34775,0.90713 0.49609,1.26758 0.0742,0.18022 0.14233,0.33481 0.20118,0.45313 0.0588,0.11832 0.11356,0.20181 0.14062,0.22461 0.0271,0.0228 0.11751,0.0599 0.24414,0.0977 0.12663,0.0378 0.29023,0.0788 0.48047,0.1211 0.38048,0.0847 0.86055,0.17683 1.33398,0.27343 0.47344,0.0966 0.9403,0.19833 1.29688,0.30078 0.17829,0.0512 0.32979,0.1016 0.44141,0.1543 0.0558,0.0264 0.10103,0.0535 0.13671,0.082 0.0357,0.0286 0.0627,0.0589 0.0723,0.0977 0.01,0.0388 6.6e-4,0.0792 -0.0176,0.12109 -0.0182,0.0419 -0.0469,0.0873 -0.084,0.13672 -0.0741,0.0987 -0.18265,0.21522 -0.31641,0.34375 -0.26752,0.25706 -0.63423,0.56269 -1.00781,0.86914 -0.37358,0.30646 -0.75382,0.61276 -1.05078,0.86524 -0.14848,0.12623 -0.27676,0.23953 -0.3711,0.33203 -0.0944,0.0925 -0.15467,0.16837 -0.16797,0.20117 -0.0133,0.0328 -0.0227,0.13156 -0.0195,0.26367 0.003,0.1321 0.0147,0.30209 0.0332,0.4961 0.0371,0.38801 0.0979,0.87144 0.15234,1.35156 0.0544,0.48012 0.10247,0.95538 0.11523,1.32617 0.006,0.18539 0.004,0.34436 -0.0117,0.4668 -0.008,0.0612 -0.0171,0.11355 -0.0332,0.15625 -0.0161,0.0427 -0.0383,0.0785 -0.0723,0.0996 -0.0339,0.0211 -0.0737,0.0235 -0.11914,0.0195 -0.0455,-0.004 -0.0979,-0.0171 -0.15625,-0.0371 -0.11679,-0.04 -0.26026,-0.10781 -0.42383,-0.19531 -0.32715,-0.17499 -0.73178,-0.42886 -1.13867,-0.68946 -0.4069,-0.2606 -0.81656,-0.52801 -1.14844,-0.73242 -0.16594,-0.10221 -0.31253,-0.1889 -0.42969,-0.25 -0.11715,-0.0611 -0.20886,-0.0947 -0.24414,-0.0977 -0.0353,-0.003 -0.1312,0.0186 -0.25586,0.0625 -0.12465,0.0439 -0.28215,0.10795 -0.46094,0.18555 -0.35756,0.15516 -0.80042,0.36238 -1.24023,0.5625 -0.43981,0.20011 -0.87591,0.39282 -1.22461,0.51953 -0.17435,0.0634 -0.32794,0.11177 -0.44922,0.13477 -0.0606,0.0118 -0.11258,0.0157 -0.1582,0.0137 -0.0456,-0.002 -0.0847,-0.0114 -0.11524,-0.0371 -0.0306,-0.0257 -0.0468,-0.0628 -0.0566,-0.10742 -0.01,-0.0446 -0.0146,-0.0985 -0.0137,-0.16016 0.002,-0.12342 0.022,-0.28029 0.0547,-0.46289 0.0653,-0.36521 0.18063,-0.82936 0.30273,-1.29687 0.12211,-0.46752 0.2519,-0.93955 0.34375,-1.31836 0.0459,-0.1894 0.0816,-0.35407 0.10352,-0.48438 0.0219,-0.13031 0.028,-0.22937 0.0195,-0.26367 -0.008,-0.0343 -0.0584,-0.11961 -0.13867,-0.22461 -0.0802,-0.105 -0.19128,-0.2348 -0.32031,-0.38086 -0.25806,-0.29212 -0.59174,-0.64746 -0.91797,-1.0039 -0.32623,-0.35644 -0.64479,-0.71338 -0.87305,-1.00586 -0.11413,-0.14623 -0.20631,-0.27652 -0.26562,-0.38477 -0.0297,-0.0541 -0.0504,-0.10248 -0.0625,-0.14648 -0.0121,-0.044 -0.015,-0.0841 0,-0.1211 0.015,-0.0371 0.0446,-0.0648 0.084,-0.0879 0.0394,-0.0232 0.0894,-0.0424 0.14844,-0.0605 0.11797,-0.0364 0.27522,-0.0664 0.45898,-0.0918 0.36753,-0.0507 0.84381,-0.083 1.32617,-0.11133 0.48237,-0.0283 0.97073,-0.0523 1.35938,-0.082 0.19432,-0.0148 0.36343,-0.0314 0.49414,-0.0508 0.13071,-0.0194 0.22584,-0.0458 0.25586,-0.0645 0.03,-0.0187 0.0949,-0.0924 0.16992,-0.20117 0.0751,-0.10876 0.16463,-0.25207 0.26367,-0.41992 0.19808,-0.3357 0.43369,-0.76515 0.67188,-1.18555 0.23818,-0.42041 0.47792,-0.83314 0.68554,-1.14062 0.10382,-0.15373 0.19858,-0.2812 0.28321,-0.3711 0.0423,-0.0449 0.083,-0.0804 0.12109,-0.10546 0.0381,-0.0251 0.0754,-0.0401 0.11524,-0.0371 z m 98.89062,0.99023 c -0.10769,0.0124 -0.20979,0.0724 -0.29492,0.17969 l -1.75196,2.20898 c -0.17031,0.21459 -0.14232,0.45274 0.0723,0.62305 l 2.4414,1.9375 c 0.78686,0.62449 1.8695,0.58296 2.44532,-0.14258 l 0.2832,-0.35742 c 0.57583,-0.72554 0.38346,-1.76163 -0.42383,-2.40234 l -2.44336,-1.9375 c -0.1073,-0.0851 -0.22044,-0.12177 -0.32812,-0.10938 z m -49.98242,2.53125 c 35.02712,0 63.40039,28.37327 63.40039,63.40039 0,27.05364 -16.94478,50.13051 -40.78516,59.24023 l -0.64258,0.2461 v 16.42578 0.82226 l -0.58789,0.58789 -1.99805,2 -0.58398,0.58594 h -0.82617 -7.99024 -0.82617 l -0.58203,-0.58594 -2,-2 -1.585943,-1.58593 -1.585937,1.58593 -2,2 -0.58007,0.58594 h -0.82617 -7.99219 -0.82617 l -0.58399,-0.58594 -1.99804,-2 -0.58789,-0.58789 v -0.82226 -13.63282 l -0.79688,-0.1621 c -28.8882,-5.91147 -50.61914,-31.46832 -50.61914,-62.11719 0,-35.02712 28.37715,-63.40039 63.4043,-63.40039 z m 63.20703,4.70703 c 0.10787,0.0106 0.21188,0.068 0.29882,0.17383 l 6.58985,8.02539 c 0.17383,0.21171 0.15117,0.45112 -0.0605,0.625 l -1.88476,1.54883 c -0.21171,0.17383 -0.45111,0.14921 -0.625,-0.0625 l -1.85547,-2.25781 c -0.17389,-0.21178 -0.41134,-0.23444 -0.62305,-0.0605 l -9.69922,7.96484 c -0.21171,0.17383 -0.45111,0.15117 -0.625,-0.0605 l -1.75391,-2.13868 c -0.17381,-0.21172 -0.15116,-0.44915 0.0605,-0.62304 l 9.69922,-7.9668 c 0.21178,-0.17389 0.23444,-0.41133 0.0605,-0.62305 l -1.85547,-2.25781 c -0.17382,-0.21171 -0.14921,-0.45111 0.0625,-0.625 l 1.88476,-1.54883 c 0.10586,-0.087 0.2183,-0.12385 0.32618,-0.11328 z m -75.76758,4.97461 a 1.331446,1.331446 0 0 0 -1.16211,0.76563 l -4.06054,8.69531 c -2.35498,0.16564 -4.64177,0.67527 -6.79297,1.50976 l -7.51563,-6.5996 a 1.331446,1.331446 0 0 0 -0.69531,-0.31641 1.331446,1.331446 0 0 0 -0.19336,-0.0137 1.331446,1.331446 0 0 0 -0.74023,0.23242 l -4.11329,2.80664 a 1.331446,1.331446 0 0 0 -0.48437,1.5957 l 3.83789,9.57617 c -1.16222,1.45404 -2.16131,3.05109 -2.95703,4.77735 l -10.93945,0.35351 a 1.331446,1.331446 0 0 0 -1.26758,1.08594 l -0.91992,4.89258 a 1.331446,1.331446 0 0 0 0.74609,1.45312 l 10.41992,4.86719 c 0.20522,1.61874 0.582,3.19673 1.10938,4.71485 l -7.11524,7.59375 a 1.331446,1.331446 0 0 0 -0.1289,1.66211 l 2.80664,4.10937 a 1.331446,1.331446 0 0 0 1.55468,0.50195 l 9.91407,-3.60351 c 1.66421,1.41208 3.53618,2.59947 5.57812,3.50976 l 0.27734,8.57422 a 1.331446,1.331446 0 0 0 1.08399,1.26562 l 4.89258,0.92188 a 1.331446,1.331446 0 0 0 1.45312,-0.7461 l 3.77735,-8.08398 c 2.25464,-0.19573 4.44155,-0.71744 6.5039,-1.52734 l 7.71289,6.76953 a 1.331446,1.331446 0 0 0 1.62891,0.0977 l 4.10937,-2.80859 a 1.331446,1.331446 0 0 0 0.48633,-1.59375 l -3.9668,-9.89453 c 0.90405,-1.15549 1.70345,-2.40223 2.382807,-3.72851 l 11.939463,-0.77539 a 1.331446,1.331446 0 0 0 1.21875,-1.08203 l 0.92187,-4.89454 a 1.331446,1.331446 0 0 0 -0.78711,-1.46679 l -10.8457,-4.64258 c -0.14996,-1.5339 -0.45049,-3.03509 -0.89063,-4.48633 l 7.71094,-8.23242 a 1.331446,1.331446 0 0 0 0.12891,-1.6582 l -2.80664,-4.11329 a 1.331446,1.331446 0 0 0 -0.79102,-0.54296 1.331446,1.331446 0 0 0 -0.28711,-0.0371 1.331446,1.331446 0 0 0 -0.47656,0.0801 l -10.33203,3.75391 c -1.5912,-1.42364 -3.38823,-2.63435 -5.34961,-3.58789 l -0.30859,-9.52539 a 1.331446,1.331446 0 0 0 -1.08398,-1.26172 l -4.89454,-0.92187 a 1.331446,1.331446 0 0 0 -0.28906,-0.0215 z m -52.86328,0.14453 c 0.0781,-0.0135 0.16236,0.009 0.24414,0.0664 l 9.55664,6.74609 c 0.16357,0.11545 0.19358,0.2876 0.0781,0.45117 l -1.24805,1.76758 c -0.0825,0.1168 -0.19738,0.16408 -0.31055,0.14258 l -6.56054,-1.35156 c -0.37066,-0.0866 -0.73052,-0.23705 -0.7461,-0.24805 l -0.0566,0.0781 c 0.0156,0.011 0.29102,0.33292 0.48438,0.62109 l 3.50976,5.67578 c 0.0637,0.0916 0.0512,0.22301 -0.0312,0.33985 l -1.24219,1.75976 c -0.11545,0.1636 -0.2876,0.19357 -0.45117,0.0781 l -9.55664,-6.7461 c -0.16357,-0.11546 -0.19357,-0.2876 -0.0781,-0.45117 l 1.13867,-1.61133 c 0.11545,-0.1636 0.2876,-0.19358 0.45117,-0.0781 l 2.65625,1.87304 c 1.42537,1.00607 2.91823,2.36333 3.00391,2.42383 l 0.043,-0.0625 c -0.0389,-0.0275 -0.95997,-1.16735 -1.36133,-1.78906 l -2.01563,-3.27734 c -0.066,-0.10492 -0.0477,-0.23275 0.0293,-0.3418 l 0.86914,-1.23047 c 0.099,-0.14016 0.2111,-0.20047 0.33984,-0.16797 l 3.76172,0.8711 c 0.72023,0.16996 2.14769,0.66201 2.20313,0.66601 l 0.0273,-0.0391 c -0.0857,-0.0605 -1.88337,-1.00196 -3.35547,-2.04102 l -2.67187,-1.88672 c -0.16357,-0.11545 -0.19358,-0.2876 -0.0781,-0.45117 l 1.16016,-1.64258 c 0.0577,-0.0818 0.12897,-0.13107 0.20703,-0.14453 z m 54.55664,3.42578 a 1.9976801,1.9976801 0 0 1 1.96094,1.64844 1.9976801,1.9976801 0 0 1 -1.61524,2.31641 1.9976801,1.9976801 0 0 1 -2.31836,-1.61719 1.9976801,1.9976801 0 0 1 1.61719,-2.31641 1.9976801,1.9976801 0 0 1 0.35547,-0.0312 z m 84.07812,3.90821 c 0.0502,0.0212 0.0972,0.074 0.14649,0.16601 l 1.44726,2.70313 c 0.0677,0.12654 0.0769,0.285 -0.0234,0.45703 l -2.32812,3.39062 c -0.75386,1.02468 -1.64251,2.0773 -2.05664,2.29883 l 0.0625,0.11328 c 0.40263,-0.21537 1.7152,-0.47217 3.00976,-0.51367 l 4.08204,-0.11328 c 0.18032,-0.0225 0.3174,0.0959 0.3789,0.21094 l 1.55078,2.90039 c 0.08,0.14954 0.0836,0.29558 -0.043,0.36328 -0.0575,0.0307 -0.12735,0.039 -0.21485,0.041 l -10.63086,0.12304 -5.82031,3.11328 c -0.24158,0.12923 -0.47038,0.0599 -0.59961,-0.18164 l -1.30469,-2.43945 c -0.12922,-0.24158 -0.0599,-0.47038 0.18164,-0.59961 l 5.82032,-3.11328 6.00976,-8.76367 c 0.0506,-0.0715 0.10852,-0.10202 0.16602,-0.13282 0.0633,-0.0338 0.11582,-0.0447 0.16601,-0.0234 z M 61.98397,832.0827 a 1.9976801,1.9976801 0 0 1 1.96094,1.64843 1.9976801,1.9976801 0 0 1 -1.61523,2.31641 1.9976801,1.9976801 0 0 1 -2.31836,-1.61719 1.9976801,1.9976801 0 0 1 1.61718,-2.3164 1.9976801,1.9976801 0 0 1 0.35547,-0.0312 z m -41.25195,4.41992 c 0.0431,0.0204 0.11353,0.0737 0.14844,0.11133 0.0218,0.0209 9.1875,8.21679 9.1875,8.21679 0.10428,0.0916 0.11201,0.2321 0.0508,0.36133 l -1.23633,2.60938 c -0.0612,0.12926 -0.17556,0.21215 -0.3125,0.18945 l -12.25,-1.93164 c -0.0599,-0.007 -0.0777,-0.0152 -0.10352,-0.0273 -0.0862,-0.0408 -0.10029,-0.12272 -0.0391,-0.25195 l 1.01172,-2.13672 c 0.0449,-0.0948 0.1184,-0.13404 0.2168,-0.11914 l 1.71679,0.31836 c 0.0984,0.015 0.13604,-0.0211 0.19727,-0.15039 l 1.57031,-3.31641 c 0.0653,-0.13785 0.0641,-0.18134 -0.01,-0.24804 l -1.33203,-1.12696 c -0.0739,-0.0667 -0.0877,-0.14622 -0.0469,-0.23242 l 1.00781,-2.1289 c 0.0612,-0.12892 0.13651,-0.17752 0.22266,-0.13672 z m 81.07421,2.98633 a 1.9976801,1.9976801 0 0 1 1.96289,1.64648 1.9976801,1.9976801 0 0 1 -1.61718,2.31641 1.9976801,1.9976801 0 0 1 -2.316413,-1.61524 1.9976801,1.9976801 0 0 1 1.615243,-2.31836 1.9976801,1.9976801 0 0 1 0.35546,-0.0293 z m -78.89843,2.43359 c -0.044,0.0121 -0.0863,0.0533 -0.12305,0.13086 l -0.95898,2.02539 c -0.0735,0.15508 -0.0285,0.24038 0.0957,0.26758 l 4.19141,0.77148 0.37305,0.125 0.14257,-0.30273 -0.33203,-0.20899 -3.24804,-2.76367 c -0.0499,-0.0394 -0.0966,-0.0571 -0.14063,-0.0449 z m 55.1875,1.52148 c 0.89655,-0.013 1.80918,0.0637 2.72656,0.23633 7.33905,1.38096 12.1212,8.38362 10.74024,15.72266 -1.38095,7.33905 -8.38165,12.12315 -15.72071,10.74219 -7.33904,-1.38096 -12.1251,-8.38361 -10.74414,-15.72266 1.20834,-6.42166 6.7222,-10.88748 12.99805,-10.97852 z m -60.76367,6.07813 c 0.20819,0.003 0.23432,0.0127 0.28906,0.0293 0.0821,0.0249 0.14319,0.0924 0.14649,0.21289 l 0.13476,1.95312 c 0.004,0.0512 1.5e-4,0.0989 -0.0137,0.14453 -0.0332,0.10949 -0.14066,0.19831 -0.29688,0.22071 -0.71802,0.10124 -1.28612,0.56598 -1.5957,1.58789 -0.2847,0.93979 0.0397,1.57523 0.6875,1.77148 0.58395,0.1769 1.19463,-0.096 2.14258,-1.48242 1.54204,-2.26232 3.07558,-2.95273 4.87305,-2.4082 1.65147,0.5003 2.76388,2.55014 2.01757,5.01367 -0.58598,1.93433 -1.8915,3.09317 -3.53906,3.17187 -0.20819,-0.003 -0.23626,-0.0127 -0.29101,-0.0293 -0.0821,-0.0249 -0.14124,-0.0923 -0.14454,-0.21289 l -0.0996,-1.8418 c -0.004,-0.0512 -1.5e-4,-0.10089 0.0137,-0.14649 0.0332,-0.10949 0.14066,-0.19635 0.29687,-0.21875 0.676,-0.0941 1.22046,-0.57729 1.46094,-1.37109 0.26812,-0.88505 -0.0638,-1.53241 -0.66602,-1.71484 -0.58394,-0.17691 -1.1119,0.18185 -2.07617,1.52343 -1.55642,2.17826 -3.11616,2.92121 -4.71289,2.4375 -2.1898,-0.66338 -3.13232,-2.61313 -2.3418,-5.22265 0.63851,-2.10769 2.04102,-3.4172 3.71485,-3.41797 z m 32.86328,0.26953 a 1.9976801,1.9976801 0 0 1 1.96289,1.64844 1.9976801,1.9976801 0 0 1 -1.61719,2.3164 1.9976801,1.9976801 0 0 1 -2.3164,-1.61523 1.9976801,1.9976801 0 0 1 1.61718,-2.31836 1.9976801,1.9976801 0 0 1 0.35352,-0.0312 z m 124.4082,5.32617 c 2.2828,-0.0731 4.05929,1.36239 4.69141,4.40235 l 0.38086,1.82617 c 0.74897,3.60195 -0.63481,5.59507 -3.52149,6.19531 l -7.70312,1.60156 c -2.77172,0.57633 -4.97681,-0.80311 -5.69922,-4.27734 l -0.38086,-1.82813 c -0.74897,-3.60195 0.63676,-5.59507 3.52343,-6.19531 l 7.70118,-1.60156 c 0.34486,-0.0717 0.68169,-0.1126 1.00781,-0.12305 z m -55.82227,2.82422 a 1.0015762,1.0015762 0 0 0 -0.30859,0.0645 l -3.50586,1.32032 a 1.0015762,1.0015762 0 0 0 -0.63672,1.08007 l 1.10352,7.67969 c -1.10854,0.85661 -2.12289,1.84777 -3.01172,2.96875 l -8.05859,-1.68359 a 1.0015762,1.0015762 0 0 0 -0.25196,-0.0215 1.0015762,1.0015762 0 0 0 -0.86719,0.58789 l -1.54101,3.41407 a 1.0015762,1.0015762 0 0 0 0.28711,1.19531 l 6.7539,5.41211 c -0.13728,1.21757 -0.13863,2.43343 -0.0234,3.63476 l -6.55664,4.29102 a 1.0015762,1.0015762 0 0 0 -0.39063,1.19336 l 1.32227,3.50195 a 1.0015762,1.0015762 0 0 0 1.04687,0.64258 l 7.89649,-0.87305 c 0.96357,1.32462 2.12006,2.51854 3.44726,3.54492 l -1.32226,6.33008 a 1.0015762,1.0015762 0 0 0 0.5664,1.11719 l 3.41406,1.54297 a 1.0015762,1.0015762 0 0 0 1.19532,-0.28711 l 4.20508,-5.25 c 1.67753,0.25584 3.35957,0.26134 5.00586,0.0371 l 4.44531,6.33203 a 1.0015762,1.0015762 0 0 0 1.17383,0.36133 l 3.50195,-1.32227 a 1.0015762,1.0015762 0 0 0 0.63867,-1.08008 l -1.14258,-7.94726 c 0.86313,-0.68212 1.66834,-1.44521 2.39844,-2.29102 l 8.87305,1.55469 a 1.0015762,1.0015762 0 0 0 1.08398,-0.57422 l 1.54102,-3.41406 a 1.0015762,1.0015762 0 0 0 -0.3125,-1.21289 l -7.11328,-5.32618 c 0.16226,-1.14525 0.20995,-2.29128 0.14648,-3.42773 l 7.10742,-4.65039 a 1.0015762,1.0015762 0 0 0 0.38867,-1.18945 l -1.32031,-3.50586 a 1.0015762,1.0015762 0 0 0 -0.48047,-0.53711 1.0015762,1.0015762 0 0 0 -0.48242,-0.11133 1.0015762,1.0015762 0 0 0 -0.084,0.006 l -8.24024,0.91016 c -0.90709,-1.31727 -1.99759,-2.51492 -3.25586,-3.55664 l 1.47071,-7.03516 a 1.0015762,1.0015762 0 0 0 -0.56836,-1.11523 l -3.41407,-1.54297 a 1.0015762,1.0015762 0 0 0 -0.4082,-0.0879 1.0015762,1.0015762 0 0 0 -0.78516,0.37305 l -4.51953,5.64062 c -0.8386,-0.14197 -1.67915,-0.24267 -2.51757,-0.26172 -0.90993,-0.0207 -1.81462,0.0359 -2.70899,0.1543 l -4.32227,-6.16016 a 1.0015762,1.0015762 0 0 0 -0.45117,-0.35547 1.0015762,1.0015762 0 0 0 -0.41211,-0.0703 z m 55.52735,0.91211 c -0.11616,0.004 -0.23341,0.0184 -0.35157,0.043 l -6.9375,1.44336 c -1.00903,0.20981 -1.60044,1.01242 -1.39062,2.02148 l 0.37891,1.82617 c 0.21247,1.02184 1.12601,1.49803 2.08398,1.29883 l 6.93555,-1.4414 c 1.00906,-0.20981 1.60044,-1.01243 1.39062,-2.02149 l -0.3789,-1.82812 c -0.18591,-0.89411 -0.91736,-1.36878 -1.73047,-1.3418 z m -67.53321,1.10938 a 1.9976801,1.9976801 0 0 1 1.9629,1.64843 1.9976801,1.9976801 0 0 1 -1.61719,2.31641 1.9976801,1.9976801 0 0 1 -2.31641,-1.61524 1.9976801,1.9976801 0 0 1 1.61719,-2.31835 1.9976801,1.9976801 0 0 1 0.35351,-0.0312 z m 11.26368,0.0508 a 1.9976801,1.9976801 0 0 1 1.96289,1.64648 1.9976801,1.9976801 0 0 1 -1.61719,2.31641 1.9976801,1.9976801 0 0 1 -2.31641,-1.61524 1.9976801,1.9976801 0 0 1 1.61524,-2.31836 1.9976801,1.9976801 0 0 1 0.35547,-0.0293 z m 16.97461,0.9414 a 1.9976801,1.9976801 0 0 1 1.96093,1.64649 1.9976801,1.9976801 0 0 1 -1.61523,2.31836 1.9976801,1.9976801 0 0 1 -2.31836,-1.61719 1.9976801,1.9976801 0 0 1 1.61719,-2.31641 1.9976801,1.9976801 0 0 1 0.35547,-0.0312 z m -120.87305,0.4336 c 0.24445,-0.003 0.50114,0.0154 0.76758,0.0547 l 5.6875,0.83985 c 2.04665,0.30195 3.21246,1.80375 2.83398,4.36914 l -0.20117,1.35742 c -0.27968,1.89575 -1.42794,3.15233 -3.02929,3.35938 -0.20642,0.0275 -0.23443,0.0236 -0.29102,0.0156 -0.0849,-0.0125 -0.15475,-0.0707 -0.17578,-0.18945 l -0.36914,-1.8086 c -0.0119,-0.0499 -0.0128,-0.0973 -0.006,-0.14453 0.0167,-0.11317 0.11133,-0.23542 0.25976,-0.26172 0.68944,-0.10067 1.09016,-0.53196 1.20704,-1.32422 l 0.19921,-1.35937 c 0.11132,-0.75453 -0.40362,-1.31109 -1.10156,-1.41406 l -5.12109,-0.75586 c -0.7451,-0.10993 -1.35297,0.29201 -1.46289,1.03711 l -0.20117,1.35742 c -0.11688,0.79226 0.12775,1.29064 0.77343,1.61719 0.13451,0.068 0.19053,0.21104 0.17383,0.32422 -0.007,0.0472 -0.023,0.0943 -0.0488,0.13867 l -0.875,1.625 c -0.0544,0.10761 -0.13777,0.14346 -0.22265,0.13086 -0.0566,-0.008 -0.17943,-0.0275 -0.36914,-0.11328 -1.47335,-0.66066 -2.11506,-2.18076 -1.83399,-4.08594 l 0.19727,-1.34961 c 0.34334,-2.32725 1.49785,-3.39911 3.20898,-3.41992 z m 41.02735,8.98047 a 1.9976801,1.9976801 0 0 1 1.96289,1.64648 1.9976801,1.9976801 0 0 1 -1.61719,2.31836 1.9976801,1.9976801 0 0 1 -2.31641,-1.61719 1.9976801,1.9976801 0 0 1 1.61719,-2.3164 1.9976801,1.9976801 0 0 1 0.35352,-0.0312 z m 50.91405,0.74609 a 1.9976801,1.9976801 0 0 1 1.96094,1.64844 1.9976801,1.9976801 0 0 1 -1.61523,2.3164 1.9976801,1.9976801 0 0 1 -2.31836,-1.61718 1.9976801,1.9976801 0 0 1 1.61719,-2.31641 1.9976801,1.9976801 0 0 1 0.35546,-0.0312 z m 20.57032,1.2207 c 1.31552,0.034 2.64992,0.32597 3.92968,0.9043 5.11913,2.31334 7.37193,8.28322 5.0586,13.40234 -2.31333,5.11912 -8.28126,7.37192 -13.40039,5.05859 -5.11912,-2.31333 -7.37193,-8.28127 -5.0586,-13.40039 1.73501,-3.83933 5.52414,-6.06685 9.47071,-5.96484 z m 20.18554,0.37696 a 1.9976801,1.9976801 0 0 1 1.9629,1.64648 1.9976801,1.9976801 0 0 1 -1.61719,2.3164 1.9976801,1.9976801 0 0 1 -2.31641,-1.61523 1.9976801,1.9976801 0 0 1 1.61524,-2.31836 1.9976801,1.9976801 0 0 1 0.35546,-0.0293 z m 17.94336,1.28906 15.87696,0.22851 c 0.27395,0.004 0.43954,0.17724 0.43554,0.45118 l -0.14648,10.20116 c -0.004,0.27394 -0.17723,0.43955 -0.45117,0.43555 l -2.43946,-0.0352 c -0.27394,-0.004 -0.43954,-0.17526 -0.43554,-0.44921 l 0.0937,-6.54883 c 0.004,-0.27393 -0.16356,-0.44522 -0.4375,-0.44922 l -3.03906,-0.0449 c -0.27399,-0.004 -0.44522,0.16356 -0.44922,0.4375 l -0.0781,5.375 c -0.004,0.27395 -0.17723,0.4415 -0.45117,0.4375 l -2.4375,-0.0371 c -0.27395,-0.004 -0.4415,-0.17528 -0.4375,-0.44922 l 0.0781,-5.36133 c 0.004,-0.28698 -0.16357,-0.45889 -0.4375,-0.46289 l -5.29687,-0.0762 c -0.27394,-0.004 -0.4415,-0.17724 -0.4375,-0.45117 l 0.041,-2.76563 c 0.004,-0.27394 0.17527,-0.43954 0.44922,-0.43554 z m -142.67187,0.0293 c 0.20019,-0.003 0.32543,0.12013 0.32813,0.32032 l 0.0273,2.01953 c 0.003,0.20018 -0.12012,0.32707 -0.32031,0.33007 l -4.16602,0.0547 c -0.20019,0.003 -0.32106,0.12989 -0.31836,0.33008 l 0.0469,3.47851 c 0.003,0.20019 0.12793,0.32332 0.32812,0.32032 l 4.16602,-0.0566 c 0.20019,-0.003 0.32542,0.12013 0.32812,0.32031 l 0.0274,2.01953 c 0.003,0.20019 -0.12012,0.32708 -0.32031,0.33008 l -11.69532,0.1582 c -0.20019,0.003 -0.32738,-0.12012 -0.33008,-0.32031 l -0.0273,-2.02149 c -0.003,-0.20019 0.12012,-0.32512 0.32031,-0.32812 l 4.45118,-0.0606 c 0.20018,-0.003 0.32301,-0.12792 0.32031,-0.32812 l -0.0469,-3.48047 c -0.003,-0.20019 -0.12793,-0.32136 -0.32812,-0.31836 l -4.45117,0.0606 c -0.20019,0.003 -0.32738,-0.12013 -0.33008,-0.32032 l -0.0274,-2.02148 c -0.003,-0.20019 0.12013,-0.32512 0.32032,-0.32812 z m 72.91797,3.43555 a 1.9976801,1.9976801 0 0 1 1.96289,1.64844 1.9976801,1.9976801 0 0 1 -1.61719,2.3164 1.9976801,1.9976801 0 0 1 -2.31641,-1.61719 1.9976801,1.9976801 0 0 1 1.61524,-2.3164 1.9976801,1.9976801 0 0 1 0.35547,-0.0312 z m -21.36523,3.7793 a 1.9976801,1.9976801 0 0 1 1.96289,1.64648 1.9976801,1.9976801 0 0 1 -1.61719,2.31836 1.9976801,1.9976801 0 0 1 -2.31641,-1.61719 1.9976801,1.9976801 0 0 1 1.61719,-2.31641 1.9976801,1.9976801 0 0 1 0.35352,-0.0312 z m -50.95118,5.58007 c 0.19823,-0.0281 0.33717,0.0772 0.36524,0.27539 l 0.28516,2 c 0.0281,0.19823 -0.0772,0.33909 -0.2754,0.36719 l -11.58398,1.64063 c -0.19823,0.0281 -0.33716,-0.0772 -0.36523,-0.27539 l -0.28321,-2.00196 c -0.0281,-0.19823 0.0772,-0.33909 0.27539,-0.36719 z m 83.54102,0.52735 a 1.9976801,1.9976801 0 0 1 1.96289,1.64843 1.9976801,1.9976801 0 0 1 -1.61719,2.31641 1.9976801,1.9976801 0 0 1 -2.31641,-1.61523 1.9976801,1.9976801 0 0 1 1.61719,-2.31836 1.9976801,1.9976801 0 0 1 0.35352,-0.0312 z m 40.39257,1.77539 a 1.9976801,1.9976801 0 0 1 1.9629,1.64648 1.9976801,1.9976801 0 0 1 -1.61719,2.31836 1.9976801,1.9976801 0 0 1 -2.31641,-1.61719 1.9976801,1.9976801 0 0 1 1.61719,-2.3164 1.9976801,1.9976801 0 0 1 0.35351,-0.0312 z m 16.81446,2.66406 c 0.0625,0.0187 0.13034,0.0667 0.18164,0.12305 l 6.47851,6.64258 c 0.0725,0.0762 0.14454,0.11215 0.20704,0.13085 0.0875,0.027 0.15676,0.0207 0.23046,0.002 l 8.41211,-1.88867 c 0.045,-0.0137 0.11055,-0.009 0.18555,0.0137 0.10005,0.03 0.17031,0.16019 0.13281,0.28515 l -0.96679,3.22461 c -0.0637,0.21243 -0.16427,0.31777 -0.32422,0.35157 l -4.25391,0.74023 c -0.38237,0.0487 -1.62349,0.19266 -2.06836,0.22266 l -0.0234,0.0742 c 1.00591,0.23374 1.61168,0.7567 3.04493,2.01758 l 1.8457,1.79297 c 0.1275,0.11996 0.13258,0.28599 0.0801,0.46094 l -1.01563,3.38672 c -0.0412,0.13743 -0.19297,0.18625 -0.29297,0.15625 -0.0625,-0.0188 -0.13221,-0.0544 -0.16601,-0.0781 l -6.41992,-6.57031 c -0.0512,-0.0562 -0.10196,-0.11237 -0.18946,-0.13867 -0.0875,-0.0263 -0.16586,0.006 -0.25586,0.0332 l -8.49804,1.9043 c -0.09,0.0275 -0.13086,0.0285 -0.19336,0.01 -0.1374,-0.0412 -0.15797,-0.1981 -0.10547,-0.37304 l 0.98242,-3.27344 c 0.0825,-0.2749 0.23225,-0.36617 0.42969,-0.38867 l 4.26367,-0.68164 c 0.38238,-0.0487 1.44967,-0.20438 1.89453,-0.23438 l 0.0234,-0.0762 c -0.71226,-0.2137 -1.78938,-0.98656 -2.86524,-2.03125 l -1.86914,-1.79883 c -0.14864,-0.13997 -0.22117,-0.31298 -0.13867,-0.58789 l 0.9668,-3.22265 c 0.06,-0.19992 0.14965,-0.26972 0.28711,-0.22852 z m -139.75586,1.00586 c 0.12676,0.0113 0.2222,0.0973 0.26172,0.24219 l 0.49024,1.80273 c 0.0326,0.11957 0.013,0.22298 -0.0547,0.30078 l -5.36328,5.40625 c -0.30769,0.3211 -0.75571,0.7099 -0.86524,0.7793 l 0.0195,0.0742 c 0.82777,-0.44323 2.26732,-1.00358 3.30664,-1.28711 l 3.7793,-1.03125 c 0.19315,-0.0527 0.34575,0.0334 0.39844,0.22656 l 0.53125,1.95117 c 0.0527,0.19315 -0.0334,0.34379 -0.22656,0.39649 l -11.28516,3.08008 c -0.19315,0.0527 -0.34575,-0.0354 -0.39844,-0.22852 l -0.48633,-1.7832 c -0.0326,-0.11957 -0.02,-0.21272 0.0703,-0.31641 l 5.11328,-5.38672 c 0.33527,-0.32864 0.66633,-0.59742 0.70312,-0.60742 l -0.0195,-0.0742 c -0.48411,0.29018 -1.72871,0.76896 -2.93359,1.09766 l -3.76172,1.02539 c -0.19315,0.0527 -0.3438,-0.0334 -0.39649,-0.22656 l -0.5332,-1.95118 c -0.0527,-0.19315 0.0354,-0.34573 0.22852,-0.39843 l 11.28515,-3.07813 c 0.0483,-0.0132 0.0945,-0.0174 0.13672,-0.0137 z m 56.79883,2.74219 -1.99609,1.99609 v 13.98438 l 1.99609,1.99804 3.99609,1.99805 v 37.95508 l 1.99805,1.99804 h 7.99023 l 1.99805,-1.99804 v -37.95508 l 3.99609,-1.99805 1.9961,-1.99804 V 897.5378 l -1.9961,-1.99609 h -4.99414 v 10.98632 l -4.99414,1.99805 -4.99609,-1.99805 v -10.98632 z m 27.96875,0 -1.99805,1.99609 v 27.96875 h -1.99805 l -1.99804,1.99805 v 21.97265 3.9961 l 1.99804,1.99804 h 7.99024 l 1.99804,-1.99804 V 927.5046 l -1.99804,-1.99805 h -1.9961 V 897.5378 Z m 9.51367,3.24218 a 1.9976801,1.9976801 0 0 1 1.96289,1.64649 1.9976801,1.9976801 0 0 1 -1.61719,2.31836 1.9976801,1.9976801 0 0 1 -2.3164,-1.61719 1.9976801,1.9976801 0 0 1 1.61718,-2.31641 1.9976801,1.9976801 0 0 1 0.35352,-0.0312 z m 16.58398,1.05469 a 1.9976801,1.9976801 0 0 1 1.96289,1.64844 1.9976801,1.9976801 0 0 1 -1.61718,2.31641 1.9976801,1.9976801 0 0 1 -2.31641,-1.61719 1.9976801,1.9976801 0 0 1 1.61523,-2.31641 1.9976801,1.9976801 0 0 1 0.35547,-0.0312 z M 27.0953,904.48897 c 0.12697,-0.009 0.2334,0.0603 0.29492,0.19727 l 3.05469,6.80078 c 0.082,0.18263 0.0205,0.34573 -0.16211,0.42773 l -1.62695,0.73047 c -0.18263,0.082 -0.34571,0.0205 -0.42774,-0.16211 l -1.96093,-4.36523 c -0.082,-0.18258 -0.24511,-0.24606 -0.42774,-0.16406 l -1.62695,0.73047 c -0.18263,0.082 -0.24414,0.24705 -0.16211,0.42968 l 1.60937,3.58203 c 0.082,0.18263 0.0186,0.34769 -0.16406,0.42969 l -1.625,0.73047 c -0.18263,0.082 -0.34766,0.0186 -0.42969,-0.16406 l -1.60937,-3.58203 c -0.082,-0.18257 -0.24511,-0.24607 -0.42774,-0.16407 l -1.71289,0.76953 c -0.18262,0.082 -0.24609,0.24706 -0.16406,0.42969 l 1.96094,4.36524 c 0.082,0.18263 0.0205,0.34573 -0.16211,0.42773 l -1.62695,0.73047 c -0.18263,0.082 -0.34571,0.0205 -0.42774,-0.16211 l -3.05469,-6.80078 c -0.082,-0.18263 -0.0205,-0.34769 0.16211,-0.42969 l 10.58399,-4.7539 c 0.0457,-0.0205 0.0905,-0.0304 0.13281,-0.0332 z m 131.33789,2.96094 c 0.0573,0.01 0.11634,0.0324 0.17578,0.0664 l 13.89258,7.95312 c 0.23768,0.13611 0.30017,0.36575 0.16406,0.60352 l -1.37305,2.40039 c -0.13611,0.23769 -0.36771,0.30212 -0.60547,0.16601 l -4.94726,-2.83398 c -0.23777,-0.13611 -0.46936,-0.0718 -0.60547,0.16601 l -2.36719,4.13282 c -0.13611,0.23777 -0.0717,0.46936 0.16602,0.60547 l 4.94726,2.83203 c 0.23779,0.13611 0.30018,0.36771 0.16407,0.60547 l -1.37305,2.40039 c -0.13611,0.23769 -0.3677,0.30017 -0.60547,0.16406 l -13.89258,-7.95313 c -0.23778,-0.13611 -0.30017,-0.36769 -0.16406,-0.60547 l 1.37305,-2.40039 c 0.13611,-0.23779 0.36769,-0.30017 0.60547,-0.16406 l 5.2871,3.02735 c 0.23777,0.13612 0.46936,0.0717 0.60547,-0.16602 l 2.36524,-4.13086 c 0.13611,-0.23776 0.0737,-0.46936 -0.16407,-0.60547 l -5.2871,-3.02734 c -0.23769,-0.13611 -0.30018,-0.3677 -0.16407,-0.60547 l 1.37305,-2.40039 c 0.10208,-0.17834 0.2579,-0.25905 0.42969,-0.23047 z m -126.58008,6.6875 c 0.0775,0.0162 0.14641,0.0666 0.20117,0.15039 l 1.02344,1.56445 c 0.0678,0.10375 0.0796,0.20989 0.0391,0.30469 l -3.4414,6.79297 c -0.19404,0.40016 -0.49915,0.90811 -0.58203,1.00781 l 0.041,0.0645 c 0.65137,-0.67628 1.84822,-1.65281 2.75,-2.24219 l 3.2793,-2.14258 c 0.16759,-0.10953 0.33969,-0.0738 0.44922,0.0937 l 1.10547,1.69141 c 0.10953,0.16758 0.0738,0.33967 -0.0937,0.44922 l -9.79297,6.40039 c -0.16759,0.10953 -0.33969,0.0719 -0.44922,-0.0957 l -1.01172,-1.54687 c -0.0678,-0.10375 -0.0814,-0.19779 -0.0273,-0.32422 l 3.20703,-6.69727 c 0.21798,-0.41581 0.4505,-0.77207 0.48242,-0.79297 l -0.041,-0.0644 c -0.37143,0.42499 -1.40769,1.26204 -2.45312,1.94531 l -3.26367,2.13282 c -0.16759,0.10953 -0.33969,0.0738 -0.44922,-0.0937 l -1.10547,-1.69141 c -0.10953,-0.16758 -0.0738,-0.33969 0.0937,-0.44922 l 9.79297,-6.40039 c 0.0838,-0.0548 0.16857,-0.0729 0.24609,-0.0566 z m 118.4043,6.68555 c 0.0584,-0.0145 0.1126,2.7e-4 0.16015,0.0449 0.0475,0.0447 0.11483,0.14528 0.14453,0.20898 0.0196,0.0363 8.51758,14.55664 8.51758,14.55664 0.0974,0.1631 0.0481,0.34958 -0.0859,0.49219 l -2.70703,2.88086 c -0.13402,0.14261 -0.31554,0.20429 -0.48437,0.11719 l -15.14453,-7.66211 c -0.0749,-0.0346 -0.0946,-0.0513 -0.12305,-0.0781 -0.0951,-0.0893 -0.0793,-0.20114 0.0547,-0.34375 l 2.21484,-2.35742 c 0.0983,-0.1046 0.21017,-0.1272 0.33203,-0.0664 l 2.10157,1.13476 c 0.12188,0.0608 0.1863,0.0313 0.32031,-0.11133 l 3.43945,-3.66015 c 0.143,-0.15212 0.1601,-0.20832 0.0918,-0.32618 l -1.26367,-2.02734 c -0.0682,-0.11787 -0.0541,-0.22912 0.0351,-0.32422 l 2.20703,-2.34765 c 0.067,-0.0714 0.13107,-0.11636 0.18946,-0.13086 z m -111.64063,3.33398 c 0.0791,0.004 0.15709,0.0433 0.22461,0.11719 l 3.31836,3.63086 c 1.64627,1.80179 1.55287,3.86369 -0.15039,5.41992 -0.97831,0.89385 -2.05685,1.18152 -3.28906,0.82227 -0.10654,-0.0317 -0.18197,-0.028 -0.23828,0.0234 -0.0563,0.0515 -0.0841,0.10318 -0.12109,0.17578 l -2.09766,4.44727 c -0.0899,0.19839 -0.15463,0.30993 -0.21094,0.36133 -0.0563,0.0515 -0.16468,0.0482 -0.26758,-0.0645 l -1.55664,-1.70312 c -0.0514,-0.0563 -0.0609,-0.13821 -0.0156,-0.24414 l 2.05273,-4.39453 c 0.0447,-0.0925 0.0227,-0.17488 -0.0352,-0.23828 l -1.11329,-1.21875 c -0.13504,-0.14785 -0.30922,-0.15458 -0.45703,-0.0195 l -3.04101,2.77734 c -0.14781,0.13501 -0.32394,0.12828 -0.45899,-0.0195 l -1.36328,-1.49219 c -0.13504,-0.1478 -0.12632,-0.32394 0.0215,-0.45898 l 8.5664,-7.82618 c 0.0739,-0.0675 0.15329,-0.0993 0.23242,-0.0957 z m 0.006,3.61133 c -0.0791,-0.004 -0.15852,0.0282 -0.23242,0.0957 l -1.52148,1.38867 c -0.14781,0.13504 -0.15458,0.30923 -0.0195,0.45704 l 1.53711,1.68359 c 0.49516,0.54195 1.27958,0.63822 1.77929,0.18164 l 0.2461,-0.22656 c 0.49971,-0.45657 0.48068,-1.22523 -0.0274,-1.78125 l -1.53711,-1.6836 c -0.0675,-0.0739 -0.14548,-0.11166 -0.22461,-0.11523 z m 112.35156,1.07226 c -0.0624,-0.003 -0.13248,0.0355 -0.21289,0.1211 l -2.09961,2.23437 c -0.16084,0.17112 -0.13867,0.29912 0.0117,0.38672 l 5.13477,2.76563 0.43359,0.32031 0.3125,-0.33398 -0.3457,-0.41407 -3.07031,-4.96093 c -0.0484,-0.0726 -0.10168,-0.1164 -0.16407,-0.11915 z m -12.85937,3.9961 c 0.10739,0.0147 0.2082,0.0784 0.29101,0.1875 l 9.67774,12.75 c 0.16562,0.21827 0.1323,0.45742 -0.0859,0.62305 l -2.20312,1.67187 c -0.21824,0.16567 -0.45548,0.13233 -0.6211,-0.0859 l -9.67773,-12.75195 c -0.16561,-0.21823 -0.13231,-0.45547 0.0859,-0.62109 l 2.20313,-1.67188 c 0.10912,-0.0828 0.22269,-0.11628 0.33008,-0.10156 z m -89.53125,1.09961 c 0.0627,0.008 0.12394,0.0372 0.17969,0.082 l 2.25391,1.80859 c 0.11149,0.0896 0.16517,0.21777 0.11132,0.34571 l -4.72265,11.46875 c -0.021,0.0567 -0.0329,0.0714 -0.0508,0.0937 -0.0597,0.0742 -0.14046,0.0681 -0.25196,-0.0215 l -1.84375,-1.48047 c -0.0818,-0.0657 -0.1038,-0.14402 -0.0664,-0.23632 l 0.70703,-1.59571 c 0.0374,-0.0922 0.0119,-0.13706 -0.0996,-0.22656 l -2.86133,-2.29883 c -0.11893,-0.0955 -0.16019,-0.10327 -0.24219,-0.0469 l -1.40625,1.03515 c -0.082,0.0564 -0.16395,0.0519 -0.23828,-0.008 l -1.83594,-1.47461 c -0.11149,-0.0896 -0.14173,-0.1757 -0.082,-0.25 0.0299,-0.0371 0.0979,-0.092 0.14258,-0.11719 0.0253,-0.0163 10.12305,-7.03125 10.12305,-7.03125 0.0566,-0.0401 0.12089,-0.0544 0.18359,-0.0469 z m -0.87305,3.41797 -0.28125,0.27343 -3.4414,2.51954 c -0.0999,0.0787 -0.11036,0.16793 0.0234,0.27539 l 1.74609,1.40234 c 0.13379,0.10738 0.22594,0.0833 0.28125,-0.0312 l 1.72461,-3.89648 0.20703,-0.33399 z m 83.96094,0.22851 c 0.17288,-0.0209 0.32588,0.0654 0.41992,0.24805 l 7.32617,14.23437 c 0.12538,0.24355 0.0522,0.47031 -0.1914,0.59571 l -2.27344,1.17187 c -0.15079,0.0779 -0.29658,0.0784 -0.41992,0.01 l -8.75977,-5.64453 c -0.51722,-0.32062 -1.16504,-0.80869 -1.28906,-0.93555 l -0.0937,0.0469 c 0.82839,0.98219 1.98741,2.74977 2.66211,4.06054 l 2.45312,4.76563 c 0.12538,0.24363 0.0522,0.47233 -0.1914,0.59765 l -2.45899,1.26563 c -0.24359,0.12539 -0.47031,0.0522 -0.5957,-0.19141 l -7.32617,-14.23242 c -0.12539,-0.24363 -0.0522,-0.47226 0.1914,-0.59766 l 2.25,-1.1582 c 0.1508,-0.0761 0.27891,-0.0816 0.44336,0.01 l 8.66211,5.3125 c 0.53514,0.35546 0.98977,0.72333 1.01367,0.76953 l 0.0918,-0.0469 c -0.52593,-0.56563 -1.51861,-2.09567 -2.30078,-3.61523 l -2.44141,-4.74414 c -0.12539,-0.24359 -0.0522,-0.47227 0.19141,-0.59766 l 2.45898,-1.26562 v -0.002 c 0.0609,-0.0313 0.12011,-0.0497 0.17774,-0.0566 z m -76.07422,1.67774 c 0.0418,0.007 0.0855,0.024 0.12891,0.0488 l 1.75391,1.00195 c 0.17377,0.0994 0.22051,0.26959 0.12109,0.44336 l -4.21484,7.36523 c -0.37403,0.65373 -0.22209,1.36621 0.43164,1.74024 l 1.18359,0.67773 c 0.662,0.37874 1.35734,0.10613 1.7207,-0.50977 l 4.21289,-7.36523 c 0.0994,-0.17378 0.26764,-0.22049 0.44141,-0.12109 l 1.75586,1.0039 c 0.17378,0.0994 0.21856,0.26964 0.11914,0.44336 l -4.35547,7.61133 c -1.02738,1.79563 -2.85076,2.33468 -5.10156,1.04688 l -1.18359,-0.67774 c -2.33356,-1.33513 -2.74886,-3.06589 -1.6836,-4.92773 l 4.35547,-7.61328 c 0.0746,-0.13034 0.18892,-0.18882 0.31445,-0.16797 z m 10.32227,5.71484 c 0.0424,-5.5e-4 0.0876,0.007 0.13476,0.0234 l 2.03907,0.72656 c 0.1347,0.048 0.211,0.14688 0.2207,0.26172 l 0.46094,6.68164 c 0.0163,0.38028 -0.0309,0.76941 -0.0371,0.78711 l 0.0898,0.0312 c 0.006,-0.018 0.24318,-0.36907 0.46875,-0.63281 l 4.52149,-4.90625 c 0.0711,-0.0863 0.20123,-0.1103 0.33593,-0.0625 l 2.0293,0.72461 c 0.18861,0.0672 0.26448,0.22547 0.19727,0.41406 l -3.92774,11.01758 c -0.0672,0.18846 -0.22547,0.26426 -0.41406,0.19726 l -1.85938,-0.66211 c -0.1886,-0.0672 -0.26252,-0.22547 -0.19531,-0.41406 l 1.0918,-3.0625 c 0.58573,-1.64341 1.49017,-3.44612 1.52539,-3.54492 l -0.0703,-0.0254 c -0.016,0.0449 -0.8685,1.23921 -1.35938,1.79297 l -2.61523,2.82226 c -0.0833,0.0917 -0.21021,0.1072 -0.33594,0.0625 l -1.41797,-0.50586 c -0.16165,-0.0576 -0.2506,-0.14853 -0.2539,-0.28125 l -0.17383,-3.85742 c -0.03,-0.73943 0.0617,-2.24608 0.0508,-2.30078 l -0.0449,-0.0156 c -0.0352,0.0988 -0.45952,2.08396 -1.06446,3.78124 l -1.09765,3.08008 c -0.0672,0.18854 -0.22548,0.26232 -0.41407,0.19532 l -1.89453,-0.67579 c -0.1886,-0.0672 -0.26447,-0.22547 -0.19726,-0.41406 l 3.92773,-11.01758 c 0.0504,-0.14134 0.15205,-0.21904 0.2793,-0.2207 z m 24.57226,1.50586 c 2.20658,0 2.99608,0.7895 2.9961,2.99609 0,2.20658 -0.78952,2.99805 -2.9961,2.99805 -2.20658,0 -2.99804,-0.79147 -2.99804,-2.99805 0,-2.20659 0.79146,-2.99609 2.99804,-2.99609 z" />
  </g>
</svg>
