<?xml version="1.0" encoding="UTF-8" standalone="no"?>
<svg
   xmlns:dc="http://purl.org/dc/elements/1.1/"
   xmlns:cc="http://creativecommons.org/ns#"
   xmlns:rdf="http://www.w3.org/1999/02/22-rdf-syntax-ns#"
   xmlns:svg="http://www.w3.org/2000/svg"
   xmlns="http://www.w3.org/2000/svg"
   xmlns:sodipodi="http://sodipodi.sourceforge.net/DTD/sodipodi-0.dtd"
   xmlns:inkscape="http://www.inkscape.org/namespaces/inkscape"
   width="50mm"
   height="50mm"
   id="svg2"
   version="1.1"
   inkscape:version="1.0.1 (3bc2e813f5, 2020-09-07)"
   sodipodi:docname="xHain_stickers_5cm_scubar.svg"
   inkscape:export-filename="/home/xHain_stickers_5cm_scubar.png"
   inkscape:export-xdpi="350"
   inkscape:export-ydpi="350">
  <sodipodi:namedview
     id="base"
     pagecolor="#ffffff"
     bordercolor="#666666"
     borderopacity="1.0"
     inkscape:pageopacity="0.0"
     inkscape:pageshadow="2"
     inkscape:zoom="4.1280896"
     inkscape:cx="88.939242"
     inkscape:cy="93.491827"
     inkscape:document-units="mm"
     inkscape:current-layer="layer1"
     showgrid="false"
     inkscape:window-width="1920"
     inkscape:window-height="1032"
     inkscape:window-x="0"
     inkscape:window-y="0"
     inkscape:window-maximized="1"
     showguides="true"
     inkscape:guide-bbox="true"
     units="mm"
     inkscape:document-rotation="0">
    <inkscape:grid
       type="xygrid"
       id="grid2985"
       empspacing="5"
       visible="true"
       enabled="true"
       snapvisiblegridlinesonly="true" />
  </sodipodi:namedview>
  <defs
     id="defs4">
    <marker
       inkscape:stockid="DotS"
       orient="auto"
       refY="0"
       refX="0"
       id="DotS"
       style="overflow:visible">
      <path
         id="path3828"
         d="m -2.5,-1 c 0,2.76 -2.24,5 -5,5 -2.76,0 -5,-2.24 -5,-5 0,-2.76 2.24,-5 5,-5 2.76,0 5,2.24 5,5 z"
         style="fill-rule:evenodd;stroke:#000000;stroke-width:1pt"
         transform="matrix(0.2,0,0,0.2,1.48,0.2)"
         inkscape:connector-curvature="0" />
    </marker>
    <marker
       inkscape:stockid="DotS"
       orient="auto"
       refY="0"
       refX="0"
       id="DotS-1"
       style="overflow:visible">
      <path
         inkscape:connector-curvature="0"
         id="path3828-5"
         d="m -2.5,-1 c 0,2.76 -2.24,5 -5,5 -2.76,0 -5,-2.24 -5,-5 0,-2.76 2.24,-5 5,-5 2.76,0 5,2.24 5,5 z"
         style="fill-rule:evenodd;stroke:#000000;stroke-width:1pt"
         transform="matrix(0.2,0,0,0.2,1.48,0.2)" />
    </marker>
    <marker
       inkscape:stockid="DotS"
       orient="auto"
       refY="0"
       refX="0"
       id="marker4395"
       style="overflow:visible">
      <path
         inkscape:connector-curvature="0"
         id="path4397"
         d="m -2.5,-1 c 0,2.76 -2.24,5 -5,5 -2.76,0 -5,-2.24 -5,-5 0,-2.76 2.24,-5 5,-5 2.76,0 5,2.24 5,5 z"
         style="fill-rule:evenodd;stroke:#000000;stroke-width:1pt"
         transform="matrix(0.2,0,0,0.2,1.48,0.2)" />
    </marker>
    <marker
       inkscape:stockid="DotS"
       orient="auto"
       refY="0"
       refX="0"
       id="DotS-3"
       style="overflow:visible">
      <path
         inkscape:connector-curvature="0"
         id="path3828-0"
         d="m -2.5,-1 c 0,2.76 -2.24,5 -5,5 -2.76,0 -5,-2.24 -5,-5 0,-2.76 2.24,-5 5,-5 2.76,0 5,2.24 5,5 z"
         style="fill-rule:evenodd;stroke:#000000;stroke-width:1pt"
         transform="matrix(0.2,0,0,0.2,1.48,0.2)" />
    </marker>
    <marker
       inkscape:stockid="DotS"
       orient="auto"
       refY="0"
       refX="0"
       id="marker4427"
       style="overflow:visible">
      <path
         inkscape:connector-curvature="0"
         id="path4429"
         d="m -2.5,-1 c 0,2.76 -2.24,5 -5,5 -2.76,0 -5,-2.24 -5,-5 0,-2.76 2.24,-5 5,-5 2.76,0 5,2.24 5,5 z"
         style="fill-rule:evenodd;stroke:#000000;stroke-width:1pt"
         transform="matrix(0.2,0,0,0.2,1.48,0.2)" />
    </marker>
    <marker
       inkscape:stockid="DotS"
       orient="auto"
       refY="0"
       refX="0"
       id="DotS-2"
       style="overflow:visible">
      <path
         inkscape:connector-curvature="0"
         id="path3828-1"
         d="m -2.5,-1 c 0,2.76 -2.24,5 -5,5 -2.76,0 -5,-2.24 -5,-5 0,-2.76 2.24,-5 5,-5 2.76,0 5,2.24 5,5 z"
         style="fill-rule:evenodd;stroke:#000000;stroke-width:1pt"
         transform="matrix(0.2,0,0,0.2,1.48,0.2)" />
    </marker>
    <marker
       inkscape:stockid="DotS"
       orient="auto"
       refY="0"
       refX="0"
       id="marker4427-3"
       style="overflow:visible">
      <path
         inkscape:connector-curvature="0"
         id="path4429-9"
         d="m -2.5,-1 c 0,2.76 -2.24,5 -5,5 -2.76,0 -5,-2.24 -5,-5 0,-2.76 2.24,-5 5,-5 2.76,0 5,2.24 5,5 z"
         style="fill-rule:evenodd;stroke:#000000;stroke-width:1pt"
         transform="matrix(0.2,0,0,0.2,1.48,0.2)" />
    </marker>
    <marker
       inkscape:stockid="DotS"
       orient="auto"
       refY="0"
       refX="0"
       id="DotS-21"
       style="overflow:visible">
      <path
         inkscape:connector-curvature="0"
         id="path3828-6"
         d="m -2.5,-1 c 0,2.76 -2.24,5 -5,5 -2.76,0 -5,-2.24 -5,-5 0,-2.76 2.24,-5 5,-5 2.76,0 5,2.24 5,5 z"
         style="fill-rule:evenodd;stroke:#000000;stroke-width:1pt"
         transform="matrix(0.2,0,0,0.2,1.48,0.2)" />
    </marker>
    <marker
       inkscape:stockid="DotS"
       orient="auto"
       refY="0"
       refX="0"
       id="marker4474"
       style="overflow:visible">
      <path
         inkscape:connector-curvature="0"
         id="path4476"
         d="m -2.5,-1 c 0,2.76 -2.24,5 -5,5 -2.76,0 -5,-2.24 -5,-5 0,-2.76 2.24,-5 5,-5 2.76,0 5,2.24 5,5 z"
         style="fill-rule:evenodd;stroke:#000000;stroke-width:1pt"
         transform="matrix(0.2,0,0,0.2,1.48,0.2)" />
    </marker>
    <marker
       inkscape:stockid="DotS"
       orient="auto"
       refY="0"
       refX="0"
       id="DotS-36"
       style="overflow:visible">
      <path
         inkscape:connector-curvature="0"
         id="path3828-8"
         d="m -2.5,-1 c 0,2.76 -2.24,5 -5,5 -2.76,0 -5,-2.24 -5,-5 0,-2.76 2.24,-5 5,-5 2.76,0 5,2.24 5,5 z"
         style="fill-rule:evenodd;stroke:#000000;stroke-width:1pt"
         transform="matrix(0.2,0,0,0.2,1.48,0.2)" />
    </marker>
    <marker
       inkscape:stockid="DotS"
       orient="auto"
       refY="0"
       refX="0"
       id="marker4516"
       style="overflow:visible">
      <path
         inkscape:connector-curvature="0"
         id="path4518"
         d="m -2.5,-1 c 0,2.76 -2.24,5 -5,5 -2.76,0 -5,-2.24 -5,-5 0,-2.76 2.24,-5 5,-5 2.76,0 5,2.24 5,5 z"
         style="fill-rule:evenodd;stroke:#000000;stroke-width:1pt"
         transform="matrix(0.2,0,0,0.2,1.48,0.2)" />
    </marker>
    <marker
       inkscape:stockid="DotS"
       orient="auto"
       refY="0"
       refX="0"
       id="DotS-11"
       style="overflow:visible">
      <path
         inkscape:connector-curvature="0"
         id="path3828-58"
         d="m -2.5,-1 c 0,2.76 -2.24,5 -5,5 -2.76,0 -5,-2.24 -5,-5 0,-2.76 2.24,-5 5,-5 2.76,0 5,2.24 5,5 z"
         style="fill-rule:evenodd;stroke:#000000;stroke-width:1pt"
         transform="matrix(0.2,0,0,0.2,1.48,0.2)" />
    </marker>
    <marker
       inkscape:stockid="DotS"
       orient="auto"
       refY="0"
       refX="0"
       id="marker4954"
       style="overflow:visible">
      <path
         inkscape:connector-curvature="0"
         id="path4956"
         d="m -2.5,-1 c 0,2.76 -2.24,5 -5,5 -2.76,0 -5,-2.24 -5,-5 0,-2.76 2.24,-5 5,-5 2.76,0 5,2.24 5,5 z"
         style="fill-rule:evenodd;stroke:#000000;stroke-width:1pt"
         transform="matrix(0.2,0,0,0.2,1.48,0.2)" />
    </marker>
    <marker
       inkscape:stockid="DotS"
       orient="auto"
       refY="0"
       refX="0"
       id="DotS-7"
       style="overflow:visible">
      <path
         inkscape:connector-curvature="0"
         id="path3828-3"
         d="m -2.5,-1 c 0,2.76 -2.24,5 -5,5 -2.76,0 -5,-2.24 -5,-5 0,-2.76 2.24,-5 5,-5 2.76,0 5,2.24 5,5 z"
         style="fill-rule:evenodd;stroke:#000000;stroke-width:1pt"
         transform="matrix(0.2,0,0,0.2,1.48,0.2)" />
    </marker>
    <marker
       inkscape:stockid="DotS"
       orient="auto"
       refY="0"
       refX="0"
       id="marker5024"
       style="overflow:visible">
      <path
         inkscape:connector-curvature="0"
         id="path5026"
         d="m -2.5,-1 c 0,2.76 -2.24,5 -5,5 -2.76,0 -5,-2.24 -5,-5 0,-2.76 2.24,-5 5,-5 2.76,0 5,2.24 5,5 z"
         style="fill-rule:evenodd;stroke:#000000;stroke-width:1pt"
         transform="matrix(0.2,0,0,0.2,1.48,0.2)" />
    </marker>
    <marker
       inkscape:stockid="DotS"
       orient="auto"
       refY="0"
       refX="0"
       id="DotS-34"
       style="overflow:visible">
      <path
         inkscape:connector-curvature="0"
         id="path3828-16"
         d="m -2.5,-1 c 0,2.76 -2.24,5 -5,5 -2.76,0 -5,-2.24 -5,-5 0,-2.76 2.24,-5 5,-5 2.76,0 5,2.24 5,5 z"
         style="fill-rule:evenodd;stroke:#000000;stroke-width:1pt"
         transform="matrix(0.2,0,0,0.2,1.48,0.2)" />
    </marker>
    <marker
       inkscape:stockid="DotS"
       orient="auto"
       refY="0"
       refX="0"
       id="marker5056"
       style="overflow:visible">
      <path
         inkscape:connector-curvature="0"
         id="path5058"
         d="m -2.5,-1 c 0,2.76 -2.24,5 -5,5 -2.76,0 -5,-2.24 -5,-5 0,-2.76 2.24,-5 5,-5 2.76,0 5,2.24 5,5 z"
         style="fill-rule:evenodd;stroke:#000000;stroke-width:1pt"
         transform="matrix(0.2,0,0,0.2,1.48,0.2)" />
    </marker>
    <marker
       inkscape:stockid="DotS"
       orient="auto"
       refY="0"
       refX="0"
       id="marker4516-8"
       style="overflow:visible">
      <path
         inkscape:connector-curvature="0"
         id="path4518-5"
         d="m -2.5,-1 c 0,2.76 -2.24,5 -5,5 -2.76,0 -5,-2.24 -5,-5 0,-2.76 2.24,-5 5,-5 2.76,0 5,2.24 5,5 z"
         style="fill-rule:evenodd;stroke:#000000;stroke-width:1pt"
         transform="matrix(0.2,0,0,0.2,1.48,0.2)" />
    </marker>
    <marker
       inkscape:stockid="DotS"
       orient="auto"
       refY="0"
       refX="0"
       id="marker5088"
       style="overflow:visible">
      <path
         inkscape:connector-curvature="0"
         id="path5090"
         d="m -2.5,-1 c 0,2.76 -2.24,5 -5,5 -2.76,0 -5,-2.24 -5,-5 0,-2.76 2.24,-5 5,-5 2.76,0 5,2.24 5,5 z"
         style="fill-rule:evenodd;stroke:#000000;stroke-width:1pt"
         transform="matrix(0.2,0,0,0.2,1.48,0.2)" />
    </marker>
    <marker
       inkscape:stockid="DotS"
       orient="auto"
       refY="0"
       refX="0"
       id="marker4516-9"
       style="overflow:visible">
      <path
         inkscape:connector-curvature="0"
         id="path4518-55"
         d="m -2.5,-1 c 0,2.76 -2.24,5 -5,5 -2.76,0 -5,-2.24 -5,-5 0,-2.76 2.24,-5 5,-5 2.76,0 5,2.24 5,5 z"
         style="fill-rule:evenodd;stroke:#000000;stroke-width:1pt"
         transform="matrix(0.2,0,0,0.2,1.48,0.2)" />
    </marker>
    <marker
       inkscape:stockid="DotS"
       orient="auto"
       refY="0"
       refX="0"
       id="marker5137"
       style="overflow:visible">
      <path
         inkscape:connector-curvature="0"
         id="path5139"
         d="m -2.5,-1 c 0,2.76 -2.24,5 -5,5 -2.76,0 -5,-2.24 -5,-5 0,-2.76 2.24,-5 5,-5 2.76,0 5,2.24 5,5 z"
         style="fill-rule:evenodd;stroke:#000000;stroke-width:1pt"
         transform="matrix(0.2,0,0,0.2,1.48,0.2)" />
    </marker>
    <marker
       inkscape:stockid="DotS"
       orient="auto"
       refY="0"
       refX="0"
       id="DotS-0"
       style="overflow:visible">
      <path
         inkscape:connector-curvature="0"
         id="path3828-4"
         d="m -2.5,-1 c 0,2.76 -2.24,5 -5,5 -2.76,0 -5,-2.24 -5,-5 0,-2.76 2.24,-5 5,-5 2.76,0 5,2.24 5,5 z"
         style="fill-rule:evenodd;stroke:#000000;stroke-width:1pt"
         transform="matrix(0.2,0,0,0.2,1.48,0.2)" />
    </marker>
    <marker
       inkscape:stockid="DotS"
       orient="auto"
       refY="0"
       refX="0"
       id="marker5169"
       style="overflow:visible">
      <path
         inkscape:connector-curvature="0"
         id="path5171"
         d="m -2.5,-1 c 0,2.76 -2.24,5 -5,5 -2.76,0 -5,-2.24 -5,-5 0,-2.76 2.24,-5 5,-5 2.76,0 5,2.24 5,5 z"
         style="fill-rule:evenodd;stroke:#000000;stroke-width:1pt"
         transform="matrix(0.2,0,0,0.2,1.48,0.2)" />
    </marker>
    <marker
       inkscape:stockid="DotS"
       orient="auto"
       refY="0"
       refX="0"
       id="DotS-8"
       style="overflow:visible">
      <path
         inkscape:connector-curvature="0"
         id="path3828-66"
         d="m -2.5,-1 c 0,2.76 -2.24,5 -5,5 -2.76,0 -5,-2.24 -5,-5 0,-2.76 2.24,-5 5,-5 2.76,0 5,2.24 5,5 z"
         style="fill-rule:evenodd;stroke:#000000;stroke-width:1pt"
         transform="matrix(0.2,0,0,0.2,1.48,0.2)" />
    </marker>
    <marker
       inkscape:stockid="DotS"
       orient="auto"
       refY="0"
       refX="0"
       id="marker5218"
       style="overflow:visible">
      <path
         inkscape:connector-curvature="0"
         id="path5220"
         d="m -2.5,-1 c 0,2.76 -2.24,5 -5,5 -2.76,0 -5,-2.24 -5,-5 0,-2.76 2.24,-5 5,-5 2.76,0 5,2.24 5,5 z"
         style="fill-rule:evenodd;stroke:#000000;stroke-width:1pt"
         transform="matrix(0.2,0,0,0.2,1.48,0.2)" />
    </marker>
    <marker
       inkscape:stockid="DotSv"
       orient="auto"
       refY="0"
       refX="0"
       id="DotSv"
       style="overflow:visible">
      <path
         id="path5753"
         d="m -2.5,-1 c 0,2.76 -2.24,5 -5,5 -2.76,0 -5,-2.24 -5,-5 0,-2.76 2.24,-5 5,-5 2.76,0 5,2.24 5,5 z"
         style="fill:#858585;fill-rule:evenodd;stroke:#858585;stroke-width:1pt"
         transform="matrix(0.2,0,0,0.2,1.48,0.2)"
         inkscape:connector-curvature="0" />
    </marker>
    <marker
       inkscape:stockid="DotSs"
       orient="auto"
       refY="0"
       refX="0"
       id="DotSs"
       style="overflow:visible">
      <path
         id="path5756"
         d="m -2.5,-1 c 0,2.76 -2.24,5 -5,5 -2.76,0 -5,-2.24 -5,-5 0,-2.76 2.24,-5 5,-5 2.76,0 5,2.24 5,5 z"
         style="fill:#858585;fill-rule:evenodd;stroke:#858585;stroke-width:1pt"
         transform="matrix(0.2,0,0,0.2,1.48,0.2)"
         inkscape:connector-curvature="0" />
    </marker>
    <marker
       inkscape:stockid="DotSk"
       orient="auto"
       refY="0"
       refX="0"
       id="DotSk"
       style="overflow:visible">
      <path
         id="path5759"
         d="m -2.5,-1 c 0,2.76 -2.24,5 -5,5 -2.76,0 -5,-2.24 -5,-5 0,-2.76 2.24,-5 5,-5 2.76,0 5,2.24 5,5 z"
         style="fill:#858585;fill-rule:evenodd;stroke:#858585;stroke-width:1pt"
         transform="matrix(0.2,0,0,0.2,1.48,0.2)"
         inkscape:connector-curvature="0" />
    </marker>
    <marker
       inkscape:stockid="DotSK"
       orient="auto"
       refY="0"
       refX="0"
       id="DotSK"
       style="overflow:visible">
      <path
         id="path5762"
         d="m -2.5,-1 c 0,2.76 -2.24,5 -5,5 -2.76,0 -5,-2.24 -5,-5 0,-2.76 2.24,-5 5,-5 2.76,0 5,2.24 5,5 z"
         style="fill:#858585;fill-rule:evenodd;stroke:#858585;stroke-width:1pt"
         transform="matrix(0.2,0,0,0.2,1.48,0.2)"
         inkscape:connector-curvature="0" />
    </marker>
    <marker
       inkscape:stockid="DotSQ"
       orient="auto"
       refY="0"
       refX="0"
       id="DotSQ"
       style="overflow:visible">
      <path
         id="path5765"
         d="m -2.5,-1 c 0,2.76 -2.24,5 -5,5 -2.76,0 -5,-2.24 -5,-5 0,-2.76 2.24,-5 5,-5 2.76,0 5,2.24 5,5 z"
         style="fill:#858585;fill-rule:evenodd;stroke:#858585;stroke-width:1pt"
         transform="matrix(0.2,0,0,0.2,1.48,0.2)"
         inkscape:connector-curvature="0" />
    </marker>
    <marker
       inkscape:stockid="DotSg"
       orient="auto"
       refY="0"
       refX="0"
       id="DotSg"
       style="overflow:visible">
      <path
         id="path5768"
         d="m -2.5,-1 c 0,2.76 -2.24,5 -5,5 -2.76,0 -5,-2.24 -5,-5 0,-2.76 2.24,-5 5,-5 2.76,0 5,2.24 5,5 z"
         style="fill:#858585;fill-rule:evenodd;stroke:#858585;stroke-width:1pt"
         transform="matrix(0.2,0,0,0.2,1.48,0.2)"
         inkscape:connector-curvature="0" />
    </marker>
    <marker
       inkscape:stockid="marker4516J"
       orient="auto"
       refY="0"
       refX="0"
       id="marker4516J"
       style="overflow:visible">
      <path
         inkscape:connector-curvature="0"
         id="path5771"
         d="m -2.5,-1 c 0,2.76 -2.24,5 -5,5 -2.76,0 -5,-2.24 -5,-5 0,-2.76 2.24,-5 5,-5 2.76,0 5,2.24 5,5 z"
         style="fill:#858585;fill-rule:evenodd;stroke:#858585;stroke-width:1pt"
         transform="matrix(0.2,0,0,0.2,1.48,0.2)" />
    </marker>
    <marker
       inkscape:stockid="marker4516P"
       orient="auto"
       refY="0"
       refX="0"
       id="marker4516P"
       style="overflow:visible">
      <path
         inkscape:connector-curvature="0"
         id="path5774"
         d="m -2.5,-1 c 0,2.76 -2.24,5 -5,5 -2.76,0 -5,-2.24 -5,-5 0,-2.76 2.24,-5 5,-5 2.76,0 5,2.24 5,5 z"
         style="fill:#858585;fill-rule:evenodd;stroke:#858585;stroke-width:1pt"
         transform="matrix(0.2,0,0,0.2,1.48,0.2)" />
    </marker>
    <marker
       inkscape:stockid="DotSC"
       orient="auto"
       refY="0"
       refX="0"
       id="DotSC"
       style="overflow:visible">
      <path
         id="path5777"
         d="m -2.5,-1 c 0,2.76 -2.24,5 -5,5 -2.76,0 -5,-2.24 -5,-5 0,-2.76 2.24,-5 5,-5 2.76,0 5,2.24 5,5 z"
         style="fill:#858585;fill-rule:evenodd;stroke:#858585;stroke-width:1pt"
         transform="matrix(0.2,0,0,0.2,1.48,0.2)"
         inkscape:connector-curvature="0" />
    </marker>
    <marker
       inkscape:stockid="DotSL"
       orient="auto"
       refY="0"
       refX="0"
       id="DotSL"
       style="overflow:visible">
      <path
         id="path5780"
         d="m -2.5,-1 c 0,2.76 -2.24,5 -5,5 -2.76,0 -5,-2.24 -5,-5 0,-2.76 2.24,-5 5,-5 2.76,0 5,2.24 5,5 z"
         style="fill:#858585;fill-rule:evenodd;stroke:#858585;stroke-width:1pt"
         transform="matrix(0.2,0,0,0.2,1.48,0.2)"
         inkscape:connector-curvature="0" />
    </marker>
    <marker
       inkscape:stockid="DotSf"
       orient="auto"
       refY="0"
       refX="0"
       id="DotSf"
       style="overflow:visible">
      <path
         id="path5783"
         d="m -2.5,-1 c 0,2.76 -2.24,5 -5,5 -2.76,0 -5,-2.24 -5,-5 0,-2.76 2.24,-5 5,-5 2.76,0 5,2.24 5,5 z"
         style="fill:#858585;fill-rule:evenodd;stroke:#858585;stroke-width:1pt"
         transform="matrix(0.2,0,0,0.2,1.48,0.2)"
         inkscape:connector-curvature="0" />
    </marker>
    <marker
       inkscape:stockid="DotS7"
       orient="auto"
       refY="0"
       refX="0"
       id="DotS7"
       style="overflow:visible">
      <path
         id="path5786"
         d="m -2.5,-1 c 0,2.76 -2.24,5 -5,5 -2.76,0 -5,-2.24 -5,-5 0,-2.76 2.24,-5 5,-5 2.76,0 5,2.24 5,5 z"
         style="fill:#858585;fill-rule:evenodd;stroke:#858585;stroke-width:1pt"
         transform="matrix(0.2,0,0,0.2,1.48,0.2)"
         inkscape:connector-curvature="0" />
    </marker>
    <marker
       inkscape:stockid="DotSS"
       orient="auto"
       refY="0"
       refX="0"
       id="DotSS"
       style="overflow:visible">
      <path
         id="path5789"
         d="m -2.5,-1 c 0,2.76 -2.24,5 -5,5 -2.76,0 -5,-2.24 -5,-5 0,-2.76 2.24,-5 5,-5 2.76,0 5,2.24 5,5 z"
         style="fill:#858585;fill-rule:evenodd;stroke:#858585;stroke-width:1pt"
         transform="matrix(0.2,0,0,0.2,1.48,0.2)"
         inkscape:connector-curvature="0" />
    </marker>
    <marker
       inkscape:stockid="DotSy"
       orient="auto"
       refY="0"
       refX="0"
       id="DotSy"
       style="overflow:visible">
      <path
         id="path5792"
         d="m -2.5,-1 c 0,2.76 -2.24,5 -5,5 -2.76,0 -5,-2.24 -5,-5 0,-2.76 2.24,-5 5,-5 2.76,0 5,2.24 5,5 z"
         style="fill:#858585;fill-rule:evenodd;stroke:#858585;stroke-width:1pt"
         transform="matrix(0.2,0,0,0.2,1.48,0.2)"
         inkscape:connector-curvature="0" />
    </marker>
    <marker
       inkscape:stockid="marker4516C"
       orient="auto"
       refY="0"
       refX="0"
       id="marker4516C"
       style="overflow:visible">
      <path
         inkscape:connector-curvature="0"
         id="path5795"
         d="m -2.5,-1 c 0,2.76 -2.24,5 -5,5 -2.76,0 -5,-2.24 -5,-5 0,-2.76 2.24,-5 5,-5 2.76,0 5,2.24 5,5 z"
         style="fill:#858585;fill-rule:evenodd;stroke:#858585;stroke-width:1pt"
         transform="matrix(0.2,0,0,0.2,1.48,0.2)" />
    </marker>
    <marker
       inkscape:stockid="marker45162"
       orient="auto"
       refY="0"
       refX="0"
       id="marker45162"
       style="overflow:visible">
      <path
         inkscape:connector-curvature="0"
         id="path5798"
         d="m -2.5,-1 c 0,2.76 -2.24,5 -5,5 -2.76,0 -5,-2.24 -5,-5 0,-2.76 2.24,-5 5,-5 2.76,0 5,2.24 5,5 z"
         style="fill:#858585;fill-rule:evenodd;stroke:#858585;stroke-width:1pt"
         transform="matrix(0.2,0,0,0.2,1.48,0.2)" />
    </marker>
    <marker
       inkscape:stockid="DotSG"
       orient="auto"
       refY="0"
       refX="0"
       id="DotSG"
       style="overflow:visible">
      <path
         id="path5801"
         d="m -2.5,-1 c 0,2.76 -2.24,5 -5,5 -2.76,0 -5,-2.24 -5,-5 0,-2.76 2.24,-5 5,-5 2.76,0 5,2.24 5,5 z"
         style="fill:#858585;fill-rule:evenodd;stroke:#858585;stroke-width:1pt"
         transform="matrix(0.2,0,0,0.2,1.48,0.2)"
         inkscape:connector-curvature="0" />
    </marker>
    <marker
       inkscape:stockid="DotS5"
       orient="auto"
       refY="0"
       refX="0"
       id="DotS5"
       style="overflow:visible">
      <path
         id="path5804"
         d="m -2.5,-1 c 0,2.76 -2.24,5 -5,5 -2.76,0 -5,-2.24 -5,-5 0,-2.76 2.24,-5 5,-5 2.76,0 5,2.24 5,5 z"
         style="fill:#858585;fill-rule:evenodd;stroke:#858585;stroke-width:1pt"
         transform="matrix(0.2,0,0,0.2,1.48,0.2)"
         inkscape:connector-curvature="0" />
    </marker>
    <marker
       inkscape:stockid="DotSsA"
       orient="auto"
       refY="0"
       refX="0"
       id="DotSsA"
       style="overflow:visible">
      <path
         id="path5807"
         d="m -2.5,-1 c 0,2.76 -2.24,5 -5,5 -2.76,0 -5,-2.24 -5,-5 0,-2.76 2.24,-5 5,-5 2.76,0 5,2.24 5,5 z"
         style="fill:#858585;fill-rule:evenodd;stroke:#858585;stroke-width:1pt"
         transform="matrix(0.2,0,0,0.2,1.48,0.2)"
         inkscape:connector-curvature="0" />
    </marker>
    <marker
       inkscape:stockid="DotSLd"
       orient="auto"
       refY="0"
       refX="0"
       id="DotSLd"
       style="overflow:visible">
      <path
         id="path5810"
         d="m -2.5,-1 c 0,2.76 -2.24,5 -5,5 -2.76,0 -5,-2.24 -5,-5 0,-2.76 2.24,-5 5,-5 2.76,0 5,2.24 5,5 z"
         style="fill:#858585;fill-rule:evenodd;stroke:#858585;stroke-width:1pt"
         transform="matrix(0.2,0,0,0.2,1.48,0.2)"
         inkscape:connector-curvature="0" />
    </marker>
    <marker
       inkscape:stockid="DotSd"
       orient="auto"
       refY="0"
       refX="0"
       id="DotSd"
       style="overflow:visible">
      <path
         id="path5813"
         d="m -2.5,-1 c 0,2.76 -2.24,5 -5,5 -2.76,0 -5,-2.24 -5,-5 0,-2.76 2.24,-5 5,-5 2.76,0 5,2.24 5,5 z"
         style="fill:#858585;fill-rule:evenodd;stroke:#858585;stroke-width:1pt"
         transform="matrix(0.2,0,0,0.2,1.48,0.2)"
         inkscape:connector-curvature="0" />
    </marker>
    <marker
       inkscape:stockid="DotSyI"
       orient="auto"
       refY="0"
       refX="0"
       id="DotSyI"
       style="overflow:visible">
      <path
         id="path5816"
         d="m -2.5,-1 c 0,2.76 -2.24,5 -5,5 -2.76,0 -5,-2.24 -5,-5 0,-2.76 2.24,-5 5,-5 2.76,0 5,2.24 5,5 z"
         style="fill:#858585;fill-rule:evenodd;stroke:#858585;stroke-width:1pt"
         transform="matrix(0.2,0,0,0.2,1.48,0.2)"
         inkscape:connector-curvature="0" />
    </marker>
    <marker
       inkscape:stockid="marker4516y"
       orient="auto"
       refY="0"
       refX="0"
       id="marker4516y"
       style="overflow:visible">
      <path
         inkscape:connector-curvature="0"
         id="path5819"
         d="m -2.5,-1 c 0,2.76 -2.24,5 -5,5 -2.76,0 -5,-2.24 -5,-5 0,-2.76 2.24,-5 5,-5 2.76,0 5,2.24 5,5 z"
         style="fill:#858585;fill-rule:evenodd;stroke:#858585;stroke-width:1pt"
         transform="matrix(0.2,0,0,0.2,1.48,0.2)" />
    </marker>
    <marker
       inkscape:stockid="marker4516I"
       orient="auto"
       refY="0"
       refX="0"
       id="marker4516I"
       style="overflow:visible">
      <path
         inkscape:connector-curvature="0"
         id="path5822"
         d="m -2.5,-1 c 0,2.76 -2.24,5 -5,5 -2.76,0 -5,-2.24 -5,-5 0,-2.76 2.24,-5 5,-5 2.76,0 5,2.24 5,5 z"
         style="fill:#858585;fill-rule:evenodd;stroke:#858585;stroke-width:1pt"
         transform="matrix(0.2,0,0,0.2,1.48,0.2)" />
    </marker>
    <marker
       inkscape:stockid="marker5218b"
       orient="auto"
       refY="0"
       refX="0"
       id="marker5218b"
       style="overflow:visible">
      <path
         inkscape:connector-curvature="0"
         id="path5825"
         d="m -2.5,-1 c 0,2.76 -2.24,5 -5,5 -2.76,0 -5,-2.24 -5,-5 0,-2.76 2.24,-5 5,-5 2.76,0 5,2.24 5,5 z"
         style="fill:#858585;fill-rule:evenodd;stroke:#858585;stroke-width:1pt"
         transform="matrix(0.2,0,0,0.2,1.48,0.2)" />
    </marker>
    <marker
       inkscape:stockid="marker5218X"
       orient="auto"
       refY="0"
       refX="0"
       id="marker5218X"
       style="overflow:visible">
      <path
         inkscape:connector-curvature="0"
         id="path5828"
         d="m -2.5,-1 c 0,2.76 -2.24,5 -5,5 -2.76,0 -5,-2.24 -5,-5 0,-2.76 2.24,-5 5,-5 2.76,0 5,2.24 5,5 z"
         style="fill:#858585;fill-rule:evenodd;stroke:#858585;stroke-width:1pt"
         transform="matrix(0.2,0,0,0.2,1.48,0.2)" />
    </marker>
    <marker
       inkscape:stockid="DotSQL"
       orient="auto"
       refY="0"
       refX="0"
       id="DotSQL"
       style="overflow:visible">
      <path
         id="path6109"
         d="m -2.5,-1 c 0,2.76 -2.24,5 -5,5 -2.76,0 -5,-2.24 -5,-5 0,-2.76 2.24,-5 5,-5 2.76,0 5,2.24 5,5 z"
         style="fill:#ffc400;fill-rule:evenodd;stroke:#ffc400;stroke-width:1pt"
         transform="matrix(0.2,0,0,0.2,1.48,0.2)"
         inkscape:connector-curvature="0" />
    </marker>
    <marker
       inkscape:stockid="DotSgb"
       orient="auto"
       refY="0"
       refX="0"
       id="DotSgb"
       style="overflow:visible">
      <path
         id="path6112"
         d="m -2.5,-1 c 0,2.76 -2.24,5 -5,5 -2.76,0 -5,-2.24 -5,-5 0,-2.76 2.24,-5 5,-5 2.76,0 5,2.24 5,5 z"
         style="fill:#ffc400;fill-rule:evenodd;stroke:#ffc400;stroke-width:1pt"
         transform="matrix(0.2,0,0,0.2,1.48,0.2)"
         inkscape:connector-curvature="0" />
    </marker>
    <marker
       inkscape:stockid="marker4516J6"
       orient="auto"
       refY="0"
       refX="0"
       id="marker4516J6"
       style="overflow:visible">
      <path
         inkscape:connector-curvature="0"
         id="path6115"
         d="m -2.5,-1 c 0,2.76 -2.24,5 -5,5 -2.76,0 -5,-2.24 -5,-5 0,-2.76 2.24,-5 5,-5 2.76,0 5,2.24 5,5 z"
         style="fill:#ffc400;fill-rule:evenodd;stroke:#ffc400;stroke-width:1pt"
         transform="matrix(0.2,0,0,0.2,1.48,0.2)" />
    </marker>
    <marker
       inkscape:stockid="marker4516Pl"
       orient="auto"
       refY="0"
       refX="0"
       id="marker4516Pl"
       style="overflow:visible">
      <path
         inkscape:connector-curvature="0"
         id="path6118"
         d="m -2.5,-1 c 0,2.76 -2.24,5 -5,5 -2.76,0 -5,-2.24 -5,-5 0,-2.76 2.24,-5 5,-5 2.76,0 5,2.24 5,5 z"
         style="fill:#ffc400;fill-rule:evenodd;stroke:#ffc400;stroke-width:1pt"
         transform="matrix(0.2,0,0,0.2,1.48,0.2)" />
    </marker>
    <marker
       inkscape:stockid="DotSSB"
       orient="auto"
       refY="0"
       refX="0"
       id="DotSSB"
       style="overflow:visible">
      <path
         id="path6121"
         d="m -2.5,-1 c 0,2.76 -2.24,5 -5,5 -2.76,0 -5,-2.24 -5,-5 0,-2.76 2.24,-5 5,-5 2.76,0 5,2.24 5,5 z"
         style="fill:#ffc400;fill-rule:evenodd;stroke:#ffc400;stroke-width:1pt"
         transform="matrix(0.2,0,0,0.2,1.48,0.2)"
         inkscape:connector-curvature="0" />
    </marker>
    <marker
       inkscape:stockid="DotSyD"
       orient="auto"
       refY="0"
       refX="0"
       id="DotSyD"
       style="overflow:visible">
      <path
         id="path6124"
         d="m -2.5,-1 c 0,2.76 -2.24,5 -5,5 -2.76,0 -5,-2.24 -5,-5 0,-2.76 2.24,-5 5,-5 2.76,0 5,2.24 5,5 z"
         style="fill:#ffc400;fill-rule:evenodd;stroke:#ffc400;stroke-width:1pt"
         transform="matrix(0.2,0,0,0.2,1.48,0.2)"
         inkscape:connector-curvature="0" />
    </marker>
    <marker
       inkscape:stockid="marker4516Ct"
       orient="auto"
       refY="0"
       refX="0"
       id="marker4516Ct"
       style="overflow:visible">
      <path
         inkscape:connector-curvature="0"
         id="path6127"
         d="m -2.5,-1 c 0,2.76 -2.24,5 -5,5 -2.76,0 -5,-2.24 -5,-5 0,-2.76 2.24,-5 5,-5 2.76,0 5,2.24 5,5 z"
         style="fill:#ffc400;fill-rule:evenodd;stroke:#ffc400;stroke-width:1pt"
         transform="matrix(0.2,0,0,0.2,1.48,0.2)" />
    </marker>
    <marker
       inkscape:stockid="marker451623"
       orient="auto"
       refY="0"
       refX="0"
       id="marker451623"
       style="overflow:visible">
      <path
         inkscape:connector-curvature="0"
         id="path6130"
         d="m -2.5,-1 c 0,2.76 -2.24,5 -5,5 -2.76,0 -5,-2.24 -5,-5 0,-2.76 2.24,-5 5,-5 2.76,0 5,2.24 5,5 z"
         style="fill:#ffc400;fill-rule:evenodd;stroke:#ffc400;stroke-width:1pt"
         transform="matrix(0.2,0,0,0.2,1.48,0.2)" />
    </marker>
    <marker
       inkscape:stockid="marker4516yb"
       orient="auto"
       refY="0"
       refX="0"
       id="marker4516yb"
       style="overflow:visible">
      <path
         inkscape:connector-curvature="0"
         id="path6133"
         d="m -2.5,-1 c 0,2.76 -2.24,5 -5,5 -2.76,0 -5,-2.24 -5,-5 0,-2.76 2.24,-5 5,-5 2.76,0 5,2.24 5,5 z"
         style="fill:#ffc400;fill-rule:evenodd;stroke:#ffc400;stroke-width:1pt"
         transform="matrix(0.2,0,0,0.2,1.48,0.2)" />
    </marker>
    <marker
       inkscape:stockid="marker4516IS"
       orient="auto"
       refY="0"
       refX="0"
       id="marker4516IS"
       style="overflow:visible">
      <path
         inkscape:connector-curvature="0"
         id="path6136"
         d="m -2.5,-1 c 0,2.76 -2.24,5 -5,5 -2.76,0 -5,-2.24 -5,-5 0,-2.76 2.24,-5 5,-5 2.76,0 5,2.24 5,5 z"
         style="fill:#ffc400;fill-rule:evenodd;stroke:#ffc400;stroke-width:1pt"
         transform="matrix(0.2,0,0,0.2,1.48,0.2)" />
    </marker>
    <marker
       inkscape:stockid="DotSsAi"
       orient="auto"
       refY="0"
       refX="0"
       id="DotSsAi"
       style="overflow:visible">
      <path
         id="path6139"
         d="m -2.5,-1 c 0,2.76 -2.24,5 -5,5 -2.76,0 -5,-2.24 -5,-5 0,-2.76 2.24,-5 5,-5 2.76,0 5,2.24 5,5 z"
         style="fill:#ffc400;fill-rule:evenodd;stroke:#ffc400;stroke-width:1pt"
         transform="matrix(0.2,0,0,0.2,1.48,0.2)"
         inkscape:connector-curvature="0" />
    </marker>
    <marker
       inkscape:stockid="DotSLdG"
       orient="auto"
       refY="0"
       refX="0"
       id="DotSLdG"
       style="overflow:visible">
      <path
         id="path6142"
         d="m -2.5,-1 c 0,2.76 -2.24,5 -5,5 -2.76,0 -5,-2.24 -5,-5 0,-2.76 2.24,-5 5,-5 2.76,0 5,2.24 5,5 z"
         style="fill:#ffc400;fill-rule:evenodd;stroke:#ffc400;stroke-width:1pt"
         transform="matrix(0.2,0,0,0.2,1.48,0.2)"
         inkscape:connector-curvature="0" />
    </marker>
    <marker
       inkscape:stockid="DotSd7"
       orient="auto"
       refY="0"
       refX="0"
       id="DotSd7"
       style="overflow:visible">
      <path
         id="path6145"
         d="m -2.5,-1 c 0,2.76 -2.24,5 -5,5 -2.76,0 -5,-2.24 -5,-5 0,-2.76 2.24,-5 5,-5 2.76,0 5,2.24 5,5 z"
         style="fill:#ffc400;fill-rule:evenodd;stroke:#ffc400;stroke-width:1pt"
         transform="matrix(0.2,0,0,0.2,1.48,0.2)"
         inkscape:connector-curvature="0" />
    </marker>
    <marker
       inkscape:stockid="DotSyIp"
       orient="auto"
       refY="0"
       refX="0"
       id="DotSyIp"
       style="overflow:visible">
      <path
         id="path6148"
         d="m -2.5,-1 c 0,2.76 -2.24,5 -5,5 -2.76,0 -5,-2.24 -5,-5 0,-2.76 2.24,-5 5,-5 2.76,0 5,2.24 5,5 z"
         style="fill:#ffc400;fill-rule:evenodd;stroke:#ffc400;stroke-width:1pt"
         transform="matrix(0.2,0,0,0.2,1.48,0.2)"
         inkscape:connector-curvature="0" />
    </marker>
    <marker
       inkscape:stockid="DotSvS"
       orient="auto"
       refY="0"
       refX="0"
       id="DotSvS"
       style="overflow:visible">
      <path
         id="path6151"
         d="m -2.5,-1 c 0,2.76 -2.24,5 -5,5 -2.76,0 -5,-2.24 -5,-5 0,-2.76 2.24,-5 5,-5 2.76,0 5,2.24 5,5 z"
         style="fill:#ffc400;fill-rule:evenodd;stroke:#ffc400;stroke-width:1pt"
         transform="matrix(0.2,0,0,0.2,1.48,0.2)"
         inkscape:connector-curvature="0" />
    </marker>
    <marker
       inkscape:stockid="DotSsJ"
       orient="auto"
       refY="0"
       refX="0"
       id="DotSsJ"
       style="overflow:visible">
      <path
         id="path6154"
         d="m -2.5,-1 c 0,2.76 -2.24,5 -5,5 -2.76,0 -5,-2.24 -5,-5 0,-2.76 2.24,-5 5,-5 2.76,0 5,2.24 5,5 z"
         style="fill:#ffc400;fill-rule:evenodd;stroke:#ffc400;stroke-width:1pt"
         transform="matrix(0.2,0,0,0.2,1.48,0.2)"
         inkscape:connector-curvature="0" />
    </marker>
    <marker
       inkscape:stockid="DotSfb"
       orient="auto"
       refY="0"
       refX="0"
       id="DotSfb"
       style="overflow:visible">
      <path
         id="path6157"
         d="m -2.5,-1 c 0,2.76 -2.24,5 -5,5 -2.76,0 -5,-2.24 -5,-5 0,-2.76 2.24,-5 5,-5 2.76,0 5,2.24 5,5 z"
         style="fill:#ffc400;fill-rule:evenodd;stroke:#ffc400;stroke-width:1pt"
         transform="matrix(0.2,0,0,0.2,1.48,0.2)"
         inkscape:connector-curvature="0" />
    </marker>
    <marker
       inkscape:stockid="DotS7T"
       orient="auto"
       refY="0"
       refX="0"
       id="DotS7T"
       style="overflow:visible">
      <path
         id="path6160"
         d="m -2.5,-1 c 0,2.76 -2.24,5 -5,5 -2.76,0 -5,-2.24 -5,-5 0,-2.76 2.24,-5 5,-5 2.76,0 5,2.24 5,5 z"
         style="fill:#ffc400;fill-rule:evenodd;stroke:#ffc400;stroke-width:1pt"
         transform="matrix(0.2,0,0,0.2,1.48,0.2)"
         inkscape:connector-curvature="0" />
    </marker>
    <marker
       inkscape:stockid="DotSko"
       orient="auto"
       refY="0"
       refX="0"
       id="DotSko"
       style="overflow:visible">
      <path
         id="path6163"
         d="m -2.5,-1 c 0,2.76 -2.24,5 -5,5 -2.76,0 -5,-2.24 -5,-5 0,-2.76 2.24,-5 5,-5 2.76,0 5,2.24 5,5 z"
         style="fill:#ffc400;fill-rule:evenodd;stroke:#ffc400;stroke-width:1pt"
         transform="matrix(0.2,0,0,0.2,1.48,0.2)"
         inkscape:connector-curvature="0" />
    </marker>
    <marker
       inkscape:stockid="DotSKZ"
       orient="auto"
       refY="0"
       refX="0"
       id="DotSKZ"
       style="overflow:visible">
      <path
         id="path6166"
         d="m -2.5,-1 c 0,2.76 -2.24,5 -5,5 -2.76,0 -5,-2.24 -5,-5 0,-2.76 2.24,-5 5,-5 2.76,0 5,2.24 5,5 z"
         style="fill:#ffc400;fill-rule:evenodd;stroke:#ffc400;stroke-width:1pt"
         transform="matrix(0.2,0,0,0.2,1.48,0.2)"
         inkscape:connector-curvature="0" />
    </marker>
    <marker
       inkscape:stockid="DotSCa"
       orient="auto"
       refY="0"
       refX="0"
       id="DotSCa"
       style="overflow:visible">
      <path
         id="path6169"
         d="m -2.5,-1 c 0,2.76 -2.24,5 -5,5 -2.76,0 -5,-2.24 -5,-5 0,-2.76 2.24,-5 5,-5 2.76,0 5,2.24 5,5 z"
         style="fill:#ffc400;fill-rule:evenodd;stroke:#ffc400;stroke-width:1pt"
         transform="matrix(0.2,0,0,0.2,1.48,0.2)"
         inkscape:connector-curvature="0" />
    </marker>
    <marker
       inkscape:stockid="DotSLi"
       orient="auto"
       refY="0"
       refX="0"
       id="DotSLi"
       style="overflow:visible">
      <path
         id="path6172"
         d="m -2.5,-1 c 0,2.76 -2.24,5 -5,5 -2.76,0 -5,-2.24 -5,-5 0,-2.76 2.24,-5 5,-5 2.76,0 5,2.24 5,5 z"
         style="fill:#ffc400;fill-rule:evenodd;stroke:#ffc400;stroke-width:1pt"
         transform="matrix(0.2,0,0,0.2,1.48,0.2)"
         inkscape:connector-curvature="0" />
    </marker>
    <marker
       inkscape:stockid="marker5218bQ"
       orient="auto"
       refY="0"
       refX="0"
       id="marker5218bQ"
       style="overflow:visible">
      <path
         inkscape:connector-curvature="0"
         id="path6175"
         d="m -2.5,-1 c 0,2.76 -2.24,5 -5,5 -2.76,0 -5,-2.24 -5,-5 0,-2.76 2.24,-5 5,-5 2.76,0 5,2.24 5,5 z"
         style="fill:#ffc400;fill-rule:evenodd;stroke:#ffc400;stroke-width:1pt"
         transform="matrix(0.2,0,0,0.2,1.48,0.2)" />
    </marker>
    <marker
       inkscape:stockid="marker5218XM"
       orient="auto"
       refY="0"
       refX="0"
       id="marker5218XM"
       style="overflow:visible">
      <path
         inkscape:connector-curvature="0"
         id="path6178"
         d="m -2.5,-1 c 0,2.76 -2.24,5 -5,5 -2.76,0 -5,-2.24 -5,-5 0,-2.76 2.24,-5 5,-5 2.76,0 5,2.24 5,5 z"
         style="fill:#ffc400;fill-rule:evenodd;stroke:#ffc400;stroke-width:1pt"
         transform="matrix(0.2,0,0,0.2,1.48,0.2)" />
    </marker>
    <marker
       inkscape:stockid="DotSGn"
       orient="auto"
       refY="0"
       refX="0"
       id="DotSGn"
       style="overflow:visible">
      <path
         id="path6181"
         d="m -2.5,-1 c 0,2.76 -2.24,5 -5,5 -2.76,0 -5,-2.24 -5,-5 0,-2.76 2.24,-5 5,-5 2.76,0 5,2.24 5,5 z"
         style="fill:#ffc400;fill-rule:evenodd;stroke:#ffc400;stroke-width:1pt"
         transform="matrix(0.2,0,0,0.2,1.48,0.2)"
         inkscape:connector-curvature="0" />
    </marker>
    <marker
       inkscape:stockid="DotS5R"
       orient="auto"
       refY="0"
       refX="0"
       id="DotS5R"
       style="overflow:visible">
      <path
         id="path6184"
         d="m -2.5,-1 c 0,2.76 -2.24,5 -5,5 -2.76,0 -5,-2.24 -5,-5 0,-2.76 2.24,-5 5,-5 2.76,0 5,2.24 5,5 z"
         style="fill:#ffc400;fill-rule:evenodd;stroke:#ffc400;stroke-width:1pt"
         transform="matrix(0.2,0,0,0.2,1.48,0.2)"
         inkscape:connector-curvature="0" />
    </marker>
    <marker
       inkscape:stockid="DotSd7"
       orient="auto"
       refY="0"
       refX="0"
       id="DotSd7-9"
       style="overflow:visible">
      <path
         inkscape:connector-curvature="0"
         id="path6145-2"
         d="m -2.5,-1 c 0,2.76 -2.24,5 -5,5 -2.76,0 -5,-2.24 -5,-5 0,-2.76 2.24,-5 5,-5 2.76,0 5,2.24 5,5 z"
         style="fill:#ffc400;fill-rule:evenodd;stroke:#ffc400;stroke-width:1pt"
         transform="matrix(0.2,0,0,0.2,1.48,0.2)" />
    </marker>
    <marker
       inkscape:stockid="DotSyIp"
       orient="auto"
       refY="0"
       refX="0"
       id="DotSyIp-9"
       style="overflow:visible">
      <path
         inkscape:connector-curvature="0"
         id="path6148-2"
         d="m -2.5,-1 c 0,2.76 -2.24,5 -5,5 -2.76,0 -5,-2.24 -5,-5 0,-2.76 2.24,-5 5,-5 2.76,0 5,2.24 5,5 z"
         style="fill:#ffc400;fill-rule:evenodd;stroke:#ffc400;stroke-width:1pt"
         transform="matrix(0.2,0,0,0.2,1.48,0.2)" />
    </marker>
    <marker
       inkscape:stockid="DotSGn"
       orient="auto"
       refY="0"
       refX="0"
       id="DotSGn-0"
       style="overflow:visible">
      <path
         inkscape:connector-curvature="0"
         id="path6181-6"
         d="m -2.5,-1 c 0,2.76 -2.24,5 -5,5 -2.76,0 -5,-2.24 -5,-5 0,-2.76 2.24,-5 5,-5 2.76,0 5,2.24 5,5 z"
         style="fill:#ffc400;fill-rule:evenodd;stroke:#ffc400;stroke-width:1pt"
         transform="matrix(0.2,0,0,0.2,1.48,0.2)" />
    </marker>
    <marker
       inkscape:stockid="DotS5R"
       orient="auto"
       refY="0"
       refX="0"
       id="DotS5R-3"
       style="overflow:visible">
      <path
         inkscape:connector-curvature="0"
         id="path6184-9"
         d="m -2.5,-1 c 0,2.76 -2.24,5 -5,5 -2.76,0 -5,-2.24 -5,-5 0,-2.76 2.24,-5 5,-5 2.76,0 5,2.24 5,5 z"
         style="fill:#ffc400;fill-rule:evenodd;stroke:#ffc400;stroke-width:1pt"
         transform="matrix(0.2,0,0,0.2,1.48,0.2)" />
    </marker>
    <marker
       inkscape:stockid="marker5218bQ"
       orient="auto"
       refY="0"
       refX="0"
       id="marker5218bQ-7"
       style="overflow:visible">
      <path
         inkscape:connector-curvature="0"
         id="path6175-9"
         d="m -2.5,-1 c 0,2.76 -2.24,5 -5,5 -2.76,0 -5,-2.24 -5,-5 0,-2.76 2.24,-5 5,-5 2.76,0 5,2.24 5,5 z"
         style="fill:#ffc400;fill-rule:evenodd;stroke:#ffc400;stroke-width:1pt"
         transform="matrix(0.2,0,0,0.2,1.48,0.2)" />
    </marker>
    <marker
       inkscape:stockid="marker5218XM"
       orient="auto"
       refY="0"
       refX="0"
       id="marker5218XM-8"
       style="overflow:visible">
      <path
         inkscape:connector-curvature="0"
         id="path6178-2"
         d="m -2.5,-1 c 0,2.76 -2.24,5 -5,5 -2.76,0 -5,-2.24 -5,-5 0,-2.76 2.24,-5 5,-5 2.76,0 5,2.24 5,5 z"
         style="fill:#ffc400;fill-rule:evenodd;stroke:#ffc400;stroke-width:1pt"
         transform="matrix(0.2,0,0,0.2,1.48,0.2)" />
    </marker>
    <marker
       inkscape:stockid="marker5218bQ"
       orient="auto"
       refY="0"
       refX="0"
       id="marker5218bQ-9"
       style="overflow:visible">
      <path
         inkscape:connector-curvature="0"
         id="path6175-95"
         d="m -2.5,-1 c 0,2.76 -2.24,5 -5,5 -2.76,0 -5,-2.24 -5,-5 0,-2.76 2.24,-5 5,-5 2.76,0 5,2.24 5,5 z"
         style="fill:#ffc400;fill-rule:evenodd;stroke:#ffc400;stroke-width:1pt"
         transform="matrix(0.2,0,0,0.2,1.48,0.2)" />
    </marker>
    <marker
       inkscape:stockid="marker5218XM"
       orient="auto"
       refY="0"
       refX="0"
       id="marker5218XM-4"
       style="overflow:visible">
      <path
         inkscape:connector-curvature="0"
         id="path6178-29"
         d="m -2.5,-1 c 0,2.76 -2.24,5 -5,5 -2.76,0 -5,-2.24 -5,-5 0,-2.76 2.24,-5 5,-5 2.76,0 5,2.24 5,5 z"
         style="fill:#ffc400;fill-rule:evenodd;stroke:#ffc400;stroke-width:1pt"
         transform="matrix(0.2,0,0,0.2,1.48,0.2)" />
    </marker>
    <marker
       inkscape:stockid="DotSGn"
       orient="auto"
       refY="0"
       refX="0"
       id="DotSGn-08"
       style="overflow:visible">
      <path
         inkscape:connector-curvature="0"
         id="path6181-5"
         d="m -2.5,-1 c 0,2.76 -2.24,5 -5,5 -2.76,0 -5,-2.24 -5,-5 0,-2.76 2.24,-5 5,-5 2.76,0 5,2.24 5,5 z"
         style="fill:#ffc400;fill-rule:evenodd;stroke:#ffc400;stroke-width:1pt"
         transform="matrix(0.2,0,0,0.2,1.48,0.2)" />
    </marker>
    <marker
       inkscape:stockid="DotS5R"
       orient="auto"
       refY="0"
       refX="0"
       id="DotS5R-8"
       style="overflow:visible">
      <path
         inkscape:connector-curvature="0"
         id="path6184-1"
         d="m -2.5,-1 c 0,2.76 -2.24,5 -5,5 -2.76,0 -5,-2.24 -5,-5 0,-2.76 2.24,-5 5,-5 2.76,0 5,2.24 5,5 z"
         style="fill:#ffc400;fill-rule:evenodd;stroke:#ffc400;stroke-width:1pt"
         transform="matrix(0.2,0,0,0.2,1.48,0.2)" />
    </marker>
    <marker
       inkscape:stockid="marker4516Ct"
       orient="auto"
       refY="0"
       refX="0"
       id="marker4516Ct-0"
       style="overflow:visible">
      <path
         inkscape:connector-curvature="0"
         id="path6127-3"
         d="m -2.5,-1 c 0,2.76 -2.24,5 -5,5 -2.76,0 -5,-2.24 -5,-5 0,-2.76 2.24,-5 5,-5 2.76,0 5,2.24 5,5 z"
         style="fill:#ffc400;fill-rule:evenodd;stroke:#ffc400;stroke-width:1pt"
         transform="matrix(0.2,0,0,0.2,1.48,0.2)" />
    </marker>
    <marker
       inkscape:stockid="marker451623"
       orient="auto"
       refY="0"
       refX="0"
       id="marker451623-8"
       style="overflow:visible">
      <path
         inkscape:connector-curvature="0"
         id="path6130-8"
         d="m -2.5,-1 c 0,2.76 -2.24,5 -5,5 -2.76,0 -5,-2.24 -5,-5 0,-2.76 2.24,-5 5,-5 2.76,0 5,2.24 5,5 z"
         style="fill:#ffc400;fill-rule:evenodd;stroke:#ffc400;stroke-width:1pt"
         transform="matrix(0.2,0,0,0.2,1.48,0.2)" />
    </marker>
    <marker
       inkscape:stockid="marker5218bQ"
       orient="auto"
       refY="0"
       refX="0"
       id="marker5218bQ-0"
       style="overflow:visible">
      <path
         inkscape:connector-curvature="0"
         id="path6175-8"
         d="m -2.5,-1 c 0,2.76 -2.24,5 -5,5 -2.76,0 -5,-2.24 -5,-5 0,-2.76 2.24,-5 5,-5 2.76,0 5,2.24 5,5 z"
         style="fill:#ffc400;fill-rule:evenodd;stroke:#ffc400;stroke-width:1pt"
         transform="matrix(0.2,0,0,0.2,1.48,0.2)" />
    </marker>
    <marker
       inkscape:stockid="marker5218XM"
       orient="auto"
       refY="0"
       refX="0"
       id="marker5218XM-86"
       style="overflow:visible">
      <path
         inkscape:connector-curvature="0"
         id="path6178-7"
         d="m -2.5,-1 c 0,2.76 -2.24,5 -5,5 -2.76,0 -5,-2.24 -5,-5 0,-2.76 2.24,-5 5,-5 2.76,0 5,2.24 5,5 z"
         style="fill:#ffc400;fill-rule:evenodd;stroke:#ffc400;stroke-width:1pt"
         transform="matrix(0.2,0,0,0.2,1.48,0.2)" />
    </marker>
    <circle
       transform="matrix(0.8755829,0,0,0.8755829,152.4506,-680.83707)"
       id="path6572"
       style="fill:none;stroke:none"
       cx="675.71429"
       cy="777.58148"
       r="584.28571" />
    <circle
       transform="matrix(-1.1162727,-0.04357729,-0.04357729,1.1162727,1532.2608,-838.54723)"
       id="path6572-9"
       style="fill:none;stroke:none"
       cx="675.71429"
       cy="777.58148"
       r="584.28571" />
  </defs>
  <metadata
     id="metadata7">
    <rdf:RDF>
      <cc:Work
         rdf:about="">
        <dc:format>image/svg+xml</dc:format>
        <dc:type
           rdf:resource="http://purl.org/dc/dcmitype/StillImage" />
        <dc:title></dc:title>
      </cc:Work>
    </rdf:RDF>
  </metadata>
  <g
     inkscape:label="Ebene 1"
     inkscape:groupmode="layer"
     id="layer1"
     transform="translate(0,-783.07098)">
    <path
       id="path5802-1-3-0"
       style="fill:#000000;fill-opacity:1;stroke:none;stroke-width:0.582589;stroke-miterlimit:4;stroke-dasharray:none;stroke-opacity:1"
       d="M 94.347266,783.07098 C 46.461767,783.08348 5.4166113,819.38304 0.48789128,868.04169 -4.7694291,919.94429 33.061884,966.30198 84.964454,971.55927 136.86707,976.81664 183.23254,938.98536 188.48985,887.0827 193.74719,835.18008 155.91,788.82049 104.00743,783.56317 c -3.24298,-0.32849 -6.466824,-0.49302 -9.660164,-0.49219 z m -4.830078,7.86133 c 0.272109,-0.0318 0.460357,0.11656 0.492187,0.38867 l 0.283203,2.42383 c 0.03182,0.27211 -0.118515,0.46039 -0.390624,0.49219 l -6.503907,0.75976 c -0.272117,0.0318 -0.420502,0.22008 -0.388672,0.49219 l 0.353516,3.01953 c 0.03182,0.2721 0.220073,0.42048 0.492187,0.38868 l 5.337891,-0.62305 c 0.272109,-0.0318 0.460358,0.11656 0.492188,0.38867 l 0.283203,2.42188 c 0.03182,0.27211 -0.116562,0.46038 -0.388672,0.49218 l -5.326172,0.62305 c -0.285073,0.0333 -0.434174,0.22202 -0.402344,0.49414 l 0.615235,5.26172 c 0.03182,0.27211 -0.116563,0.45843 -0.388672,0.49023 l -2.748047,0.32227 c -0.272109,0.0318 -0.458405,-0.11656 -0.490234,-0.38867 L 78.99375,792.61005 c -0.03181,-0.27211 0.118508,-0.46039 0.390625,-0.49219 z m 12.332032,0.0508 3.32227,0.53711 c 0.21893,0.0355 0.33632,0.12122 0.39062,0.27539 l 1.28907,4.1211 c 0.0982,0.37274 0.40243,1.58435 0.49023,2.02148 l 0.0781,0.0137 c 0.10041,-1.02781 0.53854,-1.69765 1.60156,-3.2832 l 1.53711,-2.06446 c 0.1023,-0.1423 0.26501,-0.16787 0.44531,-0.13867 l 3.49023,0.56641 c 0.14166,0.023 0.21192,0.16456 0.19532,0.26758 -0.0105,0.0644 -0.0375,0.14123 -0.0566,0.17773 l -5.67579,7.2207 c -0.049,0.0581 -0.0987,0.11693 -0.11328,0.20703 -0.0146,0.0901 0.0274,0.16245 0.0664,0.24805 l 2.99609,8.17774 c 0.0392,0.0856 0.0456,0.12515 0.0352,0.18945 -0.0229,0.1416 -0.17323,0.1835 -0.35352,0.1543 l -3.375,-0.54688 c -0.28332,-0.0459 -0.3933,-0.18219 -0.4414,-0.375 l -1.23242,-4.13867 c -0.0982,-0.37274 -0.39267,-1.41053 -0.48047,-1.84766 l -0.0781,-0.0137 c -0.11891,0.73405 -0.74335,1.90246 -1.63867,3.10547 l -1.54101,2.08985 c -0.11935,0.16566 -0.27918,0.25869 -0.5625,0.21289 l -3.324224,-0.53907 c -0.20601,-0.0334 -0.28472,-0.11224 -0.26172,-0.2539 0.0105,-0.0644 0.0486,-0.13722 0.0977,-0.19532 l 5.740244,-7.29101 c 0.0661,-0.0818 0.0912,-0.1564 0.10156,-0.2207 0.0146,-0.0901 -0.001,-0.15977 -0.0293,-0.23047 l -2.9707,-8.0918 c -0.0191,-0.0428 -0.0203,-0.1102 -0.008,-0.1875 0.0167,-0.10301 0.13684,-0.18887 0.26562,-0.16797 z m -33.142579,3.79883 c 2.117563,-0.0683 3.513278,1.07832 4.242187,3.16602 l 2.59375,7.42773 c 0.933184,2.67275 -0.147866,5.03928 -3.498046,6.20898 l -1.759766,0.61524 c -3.473351,1.21269 -5.631633,0.10002 -6.603516,-2.68359 l -2.59375,-7.42774 c -0.928879,-2.66043 0.147864,-5.03928 3.498047,-6.20898 l 1.761719,-0.61524 c 0.868337,-0.30317 1.653521,-0.45966 2.359375,-0.48242 z m 52.630859,0.24609 c 0.058,0.002 0.12022,0.017 0.1836,0.043 l 2.55859,1.04883 c 0.25349,0.1039 0.3461,0.32463 0.24219,0.57813 l -2.16211,5.27539 c -0.1039,0.2535 -0.0113,0.47421 0.24219,0.57812 l 4.40625,1.80664 c 0.25349,0.10391 0.47421,0.0113 0.57812,-0.24218 l 2.16211,-5.2754 c 0.10392,-0.25349 0.32659,-0.34609 0.58008,-0.24218 l 2.55859,1.04883 c 0.25348,0.10391 0.3461,0.32462 0.24219,0.57812 l -6.07226,14.8125 c -0.10391,0.25349 -0.32463,0.3461 -0.57813,0.24219 l -2.55859,-1.04883 c -0.25349,-0.10391 -0.3461,-0.32659 -0.24219,-0.58008 l 2.31055,-5.63672 c 0.1039,-0.2535 0.0113,-0.47421 -0.24219,-0.57812 l -4.40625,-1.80664 c -0.25349,-0.10391 -0.47422,-0.0113 -0.57813,0.24218 l -2.31054,5.63672 c -0.10392,0.25348 -0.32659,0.3461 -0.58008,0.24219 l -2.55859,-1.04883 c -0.25349,-0.10391 -0.34611,-0.32463 -0.24219,-0.57812 l 6.07226,-14.81055 c 0.0779,-0.19011 0.22049,-0.29107 0.39453,-0.28516 z m -53.189453,3.27149 c -0.224011,-0.0127 -0.46182,0.0205 -0.705078,0.10547 l -1.759765,0.61523 c -0.985352,0.34403 -1.335806,1.32293 -1.017579,2.23438 l 2.335938,6.6875 c 0.339729,0.97303 1.212516,1.45691 2.185547,1.11718 l 1.761718,-0.61523 c 0.985361,-0.34402 1.338156,-1.31061 1.015626,-2.23438 l -2.333985,-6.6875 c -0.254797,-0.72977 -0.810389,-1.1846 -1.482422,-1.22265 z m -19.107422,4.94336 c 0.06369,-0.003 0.120295,0.0198 0.16211,0.0781 0.03801,0.053 0.05455,0.12063 0.06836,0.20703 l 1.509766,10.52344 3.847656,5.36523 c 0.159653,0.22264 0.121077,0.45949 -0.101562,0.61914 l -2.248047,1.61133 c -0.22264,0.15965 -0.45949,0.12108 -0.619141,-0.10156 l -3.845703,-5.36524 -9.472656,-4.81445 c -0.07742,-0.0408 -0.116287,-0.0935 -0.154297,-0.14649 -0.08363,-0.11662 -0.06807,-0.20843 0.101562,-0.33007 l 2.492188,-1.78516 c 0.116621,-0.0836 0.269478,-0.11411 0.453125,-0.0371 l 3.666015,1.86523 c 1.114297,0.61366 2.273186,1.35662 2.546875,1.73829 l 0.105469,-0.0762 c -0.266086,-0.37107 -0.692208,-1.63794 -0.902344,-2.91602 l -0.644531,-4.0332 c -0.04582,-0.17583 0.05414,-0.3283 0.160156,-0.4043 l 2.671874,-1.91602 c 0.06891,-0.0493 0.139436,-0.0785 0.203125,-0.082 z m 93.892585,2.66797 c 0.0862,0.006 0.17251,0.0405 0.25195,0.0977 l 3.20898,2.30859 c 0.15888,0.11424 0.24399,0.2861 0.17969,0.46484 l -5.61914,16.01368 c -0.0245,0.0787 -0.0397,0.10101 -0.0625,0.13281 -0.0762,0.1056 -0.18683,0.10447 -0.3457,-0.01 l -2.62695,-1.88867 c -0.11618,-0.0838 -0.15378,-0.1896 -0.10938,-0.31836 l 0.85156,-2.23242 c 0.0444,-0.12877 0.007,-0.18848 -0.15234,-0.30274 l -4.07813,-2.93164 c -0.16947,-0.1219 -0.22799,-0.13193 -0.33593,-0.0488 l -1.84571,1.51758 c -0.10793,0.0825 -0.22025,0.082 -0.32617,0.006 l -2.61523,-1.88086 c -0.15885,-0.11425 -0.20501,-0.22807 -0.12891,-0.33398 0.0381,-0.053 0.12625,-0.13418 0.18555,-0.17188 0.0334,-0.0242 13.32226,-10.3457 13.32226,-10.3457 0.0745,-0.0589 0.15986,-0.082 0.2461,-0.0762 z m -0.94336,4.73242 -0.36524,0.39648 -4.51953,3.69141 c -0.13078,0.11485 -0.13792,0.2379 0.0527,0.375 l 2.48828,1.79101 c 0.19065,0.13707 0.31551,0.098 0.38281,-0.0625 l 2.07227,-5.45312 0.25976,-0.4707 z m -107.349615,3.90234 c 0.108333,-0.004 0.218344,0.0412 0.318359,0.13477 l 1.78125,1.66601 c 0.200029,0.1872 0.208686,0.42693 0.02148,0.62696 l -1.998046,2.13476 c -0.187203,0.20003 -0.178547,0.43976 0.02148,0.62696 l 9.164062,8.57617 c 0.20003,0.1872 0.206734,0.42692 0.01953,0.62695 l -1.888672,2.01953 c -0.187201,0.20006 -0.426921,0.20673 -0.626953,0.0195 L 32.288662,822.403 c -0.200032,-0.18728 -0.439751,-0.1805 -0.626953,0.0195 l -1.996094,2.13477 c -0.187203,0.20006 -0.426922,0.20673 -0.626953,0.0195 l -1.78125,-1.66602 c -0.20003,-0.1872 -0.208686,-0.42692 -0.02148,-0.62695 l 7.095703,-7.58203 c 0.0936,-0.10003 0.20026,-0.15266 0.308594,-0.15625 z m 59.849611,0.36524 c 26.648914,-1.7e-4 50.373654,16.85026 59.152344,42.01172 l 0.40039,1.14843 11.81836,-6.95312 2.66016,4.32422 -11.50391,18.24414 0.0195,0.31836 c 0.0677,1.18364 0.10113,2.3691 0.10157,3.55469 1.4e-4,34.61234 -28.03608,62.64857 -62.648444,62.64843 -10.434521,-4.1e-4 -20.705477,-2.60583 -29.876955,-7.58203 l -1.478516,-0.80273 0.0293,9.67773 -17.191406,0.006 -0.181641,-21.1582 -12.828125,-15.23438 3.359375,-4.27734 -0.208984,-0.53125 c -2.825074,-7.25052 -4.273483,-14.96465 -4.273437,-22.74609 6.75e-4,-34.61184 28.03859,-62.64858 62.650389,-62.64844 z m 60.000004,0.51172 c 0.10839,5.3e-4 0.21811,0.0491 0.31445,0.14648 l 1.94531,1.9668 c 0.19303,0.19475 0.19085,0.43426 -0.004,0.62695 l -11.37891,11.25781 c -0.19476,0.19304 -0.43426,0.19281 -0.62695,-0.002 l -1.94531,-1.96679 c -0.19303,-0.19475 -0.1928,-0.43428 0.002,-0.62696 l 11.37891,-11.25781 c 0.0974,-0.0965 0.20606,-0.14507 0.31445,-0.14453 z m 7.38867,7.82617 c 0.10666,0.0193 0.20515,0.0866 0.2832,0.19922 l 1.45703,2.10156 c 0.0966,0.13937 0.11831,0.28478 0.0664,0.41601 l -4.45311,9.42188 c -0.25042,0.55464 -0.65013,1.2589 -0.75977,1.39844 l 0.0586,0.0859 c 0.86566,-0.9495 2.46627,-2.32797 3.67774,-3.16797 l 4.40625,-3.05469 c 0.22515,-0.15611 0.46108,-0.11381 0.61719,0.11133 l 1.57617,2.27344 c 0.1561,0.22514 0.11381,0.46107 -0.11133,0.61718 l -13.15625,9.1211 c -0.22514,0.15611 -0.46108,0.11186 -0.61719,-0.11328 l -1.4414,-2.07813 c -0.0967,-0.13937 -0.11999,-0.26643 -0.0508,-0.4414 l 4.13672,-9.28125 c 0.28258,-0.57696 0.58806,-1.07567 0.63086,-1.10547 l -0.0605,-0.0859 c -0.49215,0.59526 -1.87681,1.77814 -3.28125,2.75195 l -4.38477,3.04102 c -0.22514,0.15611 -0.46109,0.11381 -0.61719,-0.11133 l -1.57621,-2.27344 c -0.15611,-0.22514 -0.1138,-0.46108 0.11133,-0.61719 l 13.1543,-9.12109 c 0.11256,-0.078 0.22732,-0.1072 0.33398,-0.0879 z m -137.273442,5.93164 c 0.968548,-0.0339 1.988421,0.25071 3.003907,0.85937 1.555399,0.93226 2.35715,2.23391 2.36914,3.99024 6.9e-5,0.15214 0.03353,0.24718 0.123047,0.30078 0.08952,0.0537 0.169657,0.0717 0.279297,0.0918 l 6.652344,1.00586 c 0.295351,0.0401 0.46712,0.0831 0.556641,0.13672 0.08952,0.0537 0.126843,0.1979 0.01953,0.37695 l -1.623047,2.70703 c -0.05366,0.0895 -0.15783,0.13499 -0.314453,0.11719 l -6.566407,-0.9707 c -0.138725,-0.0223 -0.236514,0.0399 -0.296874,0.14062 l -1.160157,1.93555 c -0.140846,0.23498 -0.08264,0.46853 0.152344,0.60937 l 4.833984,2.89649 c 0.234991,0.14085 0.29319,0.37438 0.152344,0.60937 l -1.421875,2.3711 c -0.140845,0.23501 -0.374385,0.29514 -0.609374,0.15429 l -13.617187,-8.16406 c -0.23499,-0.14085 -0.293191,-0.37243 -0.152344,-0.60742 l 3.460937,-5.77344 c 1.073115,-1.79039 2.543959,-2.73065 4.158203,-2.78711 z m 0.0957,3.51758 c -0.534146,0.0573 -1.049703,0.3928 -1.38086,0.94531 l -1.603515,2.67383 c -0.140847,0.23499 -0.08265,0.46852 0.152343,0.60937 l 2.417969,1.44922 c 0.234988,0.14084 0.466576,0.0826 0.607422,-0.15234 l 1.603516,-2.67578 c 0.516437,-0.86163 0.3355,-1.92811 -0.458985,-2.4043 l -0.392578,-0.23438 c -0.297931,-0.17857 -0.624825,-0.2453 -0.945312,-0.21093 z m 94.796882,11.73828 c 0,0 -8.34135,1.1064 -11.29297,3.01172 -2.95163,1.90531 -8.841864,8.44579 -14.679694,14.07812 -0.0299,-0.61245 -0.0797,-1.18147 -0.18359,-1.60547 -0.61002,-2.48998 -3.667862,-10.96172 -7.0918,-13.18164 -0.631147,-0.40921 -1.369598,-0.57996 -2.16211,-0.56836 v 0.002 c -3.434212,0.0504 -7.9122,3.50177 -9.339843,5.60352 -4.255272,6.26448 -3.282355,9.65775 -4.140625,11.11328 -0.518356,0.28888 -0.951121,0.59362 -1.291016,0.91602 -0.767272,0.22436 -0.814054,-0.76267 -4.431641,-2.26368 -3.376479,-1.40094 -5.238984,0.34214 -5.84375,3.94532 -0.6004,3.57717 -0.07533,6.2681 2.15625,8.82812 -4.197088,9.09026 -5.302395,13.54533 -2.080078,20.69141 0.249696,0.55375 0.544759,1.07199 0.855469,1.57617 -0.362892,0.23235 -0.629329,0.5883 -0.75,1.00196 l -2.46875,8.46289 -9.621094,-0.21094 c -0.01432,-0.29885 -0.05073,-0.5912 -0.113281,-0.875 -0.01944,-0.10713 -0.05373,-0.20794 -0.08008,-0.3125 -0.02148,-0.075 -0.04366,-0.14911 -0.06836,-0.22266 -0.424141,-1.39402 -1.438043,-2.52864 -2.771485,-3.08008 -0.670466,-0.31185 -1.410504,-0.49804 -2.197265,-0.49804 -2.890412,0 -5.240236,2.34982 -5.240235,5.24023 -1e-6,2.89042 2.34982,5.2422 5.240235,5.24219 0.743155,0 1.44864,-0.15941 2.089843,-0.43945 l 8.644531,14.06836 v 11.25585 l -3.546874,-0.043 c -0.856756,-0.0105 -1.560023,0.67449 -1.570313,1.53125 -0.01049,0.85675 0.676447,1.56001 1.533203,1.57031 l 10.628906,0.13086 c 0.856172,0.0105 1.559193,-0.67509 1.570313,-1.53125 0.01049,-0.85675 -0.674494,-1.55806 -1.53125,-1.56836 l -3.980469,-0.0508 v -11.83203 l 9.210938,-18.19727 -4.480469,-0.0977 c 0.601098,-2.0605 1.203511,-4.12117 1.804687,-6.18164 l 0.445313,0.0254 c 0.648234,0.62215 1.13798,0.90952 1.837191,1.43251 0,0 0.405728,-0.32844 0.658903,-0.51649 3.742278,-2.76145 8.050622,-6.06835 14.128906,-7.48633 0.582257,-0.66917 1.230164,-1.58011 1.560547,-2.61133 0.682523,-2.1304 1.692252,-7.37585 2.271484,-5.70898 0.502817,1.44698 0.0045,6.39297 -0.142578,7.73633 1.300718,-0.11266 2.470399,-0.11596 3.509766,-0.0352 0.612489,-0.78556 1.281483,-1.79561 1.74414,-2.96094 0.981056,-2.47106 1.602801,-8.30239 1.958985,-8.21875 0.05088,0.0119 0.09637,0.14538 0.136718,0.42578 0.306272,2.1283 0.990327,9.14195 0.220703,11.60938 0.06898,0.026 0.146521,0.0497 0.212891,0.0762 1.798964,0.71662 2.732414,1.68555 2.732424,1.68555 0.43673,0.47359 0.407,1.21151 -0.0664,1.64844 -0.47359,0.43672 -1.211508,0.407 -1.648436,-0.0664 0,0 -0.449088,-0.53043 -1.882812,-1.10156 -1.433733,-0.57114 -3.765198,-1.08728 -7.300781,-0.68946 -7.081634,0.79683 -11.677308,4.34844 -16.048829,7.57422 -0.04296,0.031 -0.06986,0.0608 -0.116638,0.0857 3.269547,2.05799 6.522746,3.18722 7.913513,3.71509 6.381253,2.24409 17.173047,0.9932 25.552733,-2.9707 1.987404,-0.94011 3.794694,-1.8153 5.521484,-2.67578 0.74632,3.97024 -2.28647,7.71214 6.65625,14.2793 2.57526,1.89118 11.33147,0.119 12.38477,-3.82813 1.0533,-3.94714 -7.51888,-0.47239 -7.99024,-1.50976 -0.69896,-1.61402 2.53007,-6.3162 1.95118,-6.93946 -0.62758,-1.01322 -5.07026,0.66744 -5.09766,-0.11914 -0.0265,-0.75942 2.15665,-3.40271 1.94336,-7.24414 1.86899,-1.12131 3.77271,-2.32015 5.82031,-3.68359 6.35763,-4.23339 14.36885,-6.95299 17.82227,-9.82031 2.37664,2.17737 6.74923,6.33151 8.28906,8.85742 2.14316,3.51554 4.01758,8.80664 4.01758,8.80664 0,0 2.13779,-10.48815 1.34765,-14.29688 -0.79016,-3.8087 -2.9536,-1.59454 -4.83398,-3.12109 -1.88037,-1.52656 -2.04489,-2.81186 0.17969,-4.43555 2.22456,-1.62367 6.32617,-1.23242 6.32617,-1.23242 0,0 -2.70237,-1.55859 -4.68555,-3.22657 -1.98316,-1.66797 -1.07729,-2.59789 1.46289,-5.02148 2.54018,-2.42362 6.81836,-1.5918 6.81836,-1.5918 l 7.4043,-11.72851 c 0,0 -21.45928,12.13956 -28.48828,18.89062 -2.23281,-0.34724 -5.23636,-0.56841 -8.38672,-1.48047 -4.06803,-1.17774 -13.80735,-2.67147 -19.83008,-4.35156 l 7.41602,-5.63476 -7.66602,-3.31641 5.24805,-4.93164 -3.70899,0.006 c 0,0 4.21275,-2.99847 5.92383,-5.60156 1.71105,-2.60309 3.69922,-4.20704 3.69922,-4.20704 z m -105.568367,0.5 c 0.05801,-0.002 0.120534,0.008 0.185547,0.0293 l 2.314453,0.76758 c 0.260045,0.0862 0.36745,0.30049 0.28125,0.56054 l -2.060547,6.2168 c -0.0862,0.26006 0.02315,0.47435 0.283204,0.56055 l 2.314453,0.76757 c 0.260051,0.0862 0.474345,-0.0231 0.560547,-0.2832 l 1.691406,-5.10156 c 0.0862,-0.26008 0.300495,-0.36745 0.560547,-0.28125 l 2.316406,0.76758 c 0.260045,0.0862 0.36745,0.30049 0.28125,0.56054 l -1.691406,5.10157 c -0.0862,0.26005 0.0212,0.47434 0.28125,0.56054 l 2.439453,0.8086 c 0.260051,0.0862 0.474347,-0.0212 0.560547,-0.28125 l 2.060547,-6.2168 c 0.0862,-0.26008 0.300494,-0.36745 0.560546,-0.28125 l 2.316407,0.76758 c 0.260044,0.0862 0.36745,0.3005 0.28125,0.56054 l -3.210938,9.68555 c -0.0862,0.26007 -0.300496,0.36745 -0.560547,0.28125 L 10.62461,855.49093 c -0.260045,-0.0862 -0.36745,-0.30049 -0.28125,-0.56055 l 3.210937,-9.6836 c 0.06465,-0.19506 0.200965,-0.30445 0.375,-0.31054 z m 68.791016,4.90234 c 0.567932,0.0212 1.132288,0.13161 1.6875,0.33594 2.220839,0.81732 3.913303,3.00629 4.839844,5.96094 0.92654,2.95466 1.065754,6.6505 0.179687,10.35547 -0.886066,3.70497 -2.627564,6.70682 -4.703125,8.55664 -2.075561,1.84982 -4.456892,2.54192 -6.677734,1.72461 -2.220847,-0.81732 -3.911351,-3.00824 -4.837891,-5.9629 -0.92654,-2.95466 -1.067718,-6.64855 -0.18164,-10.35351 0.886065,-3.70497 2.627563,-6.70877 4.703124,-8.55859 1.556672,-1.38736 3.286437,-2.12222 4.990235,-2.0586 z M 43.9957,857.696 c -2.197854,0 -3.992189,1.79433 -3.992188,3.99219 -10e-7,2.19785 1.794334,3.99219 3.992188,3.99219 2.197853,0 3.990234,-1.79434 3.990234,-3.99219 0,-2.19786 -1.79238,-3.99219 -3.990234,-3.99219 z m 0,1.10547 c 1.600647,-10e-6 2.884765,1.28606 2.884765,2.88672 0,1.60064 -1.284124,2.88672 -2.884765,2.88672 -1.600648,0 -2.888672,-1.28608 -2.888672,-2.88672 0,-1.60066 1.288019,-2.88673 2.888672,-2.88672 z m -31.361329,3.46485 c 0.358688,-0.0168 0.732348,-0.004 1.123047,0.0391 l 0.402344,0.043 c 2.619793,0.28536 4.906083,2.32016 4.517578,5.88671 l -0.271484,2.49024 c -0.02967,0.27236 0.120223,0.45858 0.392578,0.48828 l 5.201172,0.56641 c 0.272355,0.0297 0.422238,0.21787 0.392578,0.49023 l -0.300781,2.74805 c -0.02967,0.27236 -0.215927,0.42423 -0.488282,0.39453 l -15.7831987,-1.7207 c -0.272355,-0.0297 -0.422238,-0.21593 -0.392578,-0.48828 l 0.667969,-6.13477 c 0.338705,-3.10938 2.0282477,-4.68546 4.5390617,-4.80273 z m 50.867188,0.38476 c 0.823753,-10e-4 1.690512,0.36225 2.501953,1.0293 1.081914,0.88937 2.042698,2.31478 2.597656,4.05664 0.243163,0.76322 0.369481,1.51669 0.423828,2.24219 -0.301125,-1.25792 -1.308473,-2.13165 -2.458984,-2.13282 -1.408564,-3.9e-4 -2.550651,1.29299 -2.550781,2.88868 1.3e-4,1.59569 1.142217,2.88906 2.550781,2.88867 1.129249,-10e-4 2.123368,-0.84348 2.443359,-2.07031 -0.04017,0.34775 -0.0965,0.68345 -0.18164,0.99609 -0.368028,1.35134 -1.126952,2.31686 -2.173828,2.65039 -1.046884,0.33354 -2.224718,-0.0149 -3.306641,-0.9043 -1.081914,-0.88937 -2.042695,-2.31478 -2.597656,-4.05664 -0.554958,-1.74185 -0.596539,-3.46118 -0.228516,-4.8125 0.368031,-1.35133 1.126944,-2.31686 2.173828,-2.65039 0.261719,-0.0834 0.532056,-0.12461 0.806641,-0.125 z m 17.330078,0.59375 c -2.167926,0.0336 -3.908094,1.82939 -3.908203,4.0332 3.64e-4,2.22763 1.777144,4.03326 3.96875,4.03321 2.191606,5e-5 3.968386,-1.80558 3.96875,-4.03321 -3.64e-4,-2.22762 -1.777144,-4.03325 -3.96875,-4.0332 -0.02018,-1.5e-4 -0.04036,-1.5e-4 -0.06055,0 z m -67.806641,2.49414 c -0.893066,0.0701 -1.517579,0.7285 -1.615234,1.625 l -0.279297,2.56836 c -0.02967,0.27236 0.120223,0.45858 0.392578,0.48828 l 3.09961,0.33789 c 0.272355,0.0297 0.458621,-0.12021 0.488281,-0.39257 l 0.279297,-2.56836 c 0.111607,-1.02457 -0.489409,-1.88969 -1.591797,-2.00977 l -0.375,-0.041 c -0.137799,-0.015 -0.270857,-0.0178 -0.398438,-0.008 z m 37.601563,5.45313 c -1.527588,0 -2.777344,1.24975 -2.777344,2.77734 0,1.52759 1.249756,2.77732 2.777344,2.77735 1.527588,0 2.777344,-1.24976 2.777344,-2.77735 0,-1.52759 -1.249756,-2.77735 -2.777344,-2.77734 z m 0,1.10547 c 0.930382,0 1.673828,0.74149 1.673828,1.67187 0,0.93038 -0.743446,1.67188 -1.673828,1.67188 -0.930382,0 -1.671875,-0.7415 -1.671875,-1.67188 0,-0.93038 0.741493,-1.67187 1.671875,-1.67187 z m 123.746101,1.39062 c 0.0399,0.003 0.0752,0.0244 0.10938,0.0547 0.0341,0.0302 0.068,0.0706 0.10351,0.12109 0.071,0.10098 0.14762,0.24128 0.22852,0.40821 0.16181,0.33386 0.33961,0.77657 0.51562,1.22656 0.17601,0.44999 0.34971,0.90714 0.49805,1.26758 0.0742,0.18022 0.14237,0.33675 0.20117,0.45507 0.0589,0.11832 0.11157,0.19986 0.13867,0.22266 0.0271,0.0228 0.11751,0.0618 0.24414,0.0996 0.12663,0.0378 0.29219,0.0788 0.48242,0.12109 0.38049,0.0846 0.86056,0.17684 1.33399,0.27344 0.47343,0.0966 0.94029,0.19833 1.29687,0.30078 0.17829,0.0512 0.3298,0.1016 0.44141,0.1543 0.0558,0.0264 0.10102,0.0535 0.13672,0.082 0.0357,0.0285 0.0623,0.0589 0.0723,0.0977 0.01,0.0388 6.2e-4,0.0792 -0.0176,0.12109 -0.0183,0.0419 -0.0469,0.0873 -0.084,0.13672 -0.0741,0.0987 -0.18264,0.21328 -0.3164,0.3418 -0.26752,0.25706 -0.63424,0.56464 -1.00782,0.87109 -0.37358,0.30644 -0.75382,0.61276 -1.05078,0.86523 -0.14848,0.12623 -0.27679,0.23954 -0.37109,0.33204 -0.0943,0.0925 -0.15662,0.16837 -0.16992,0.20117 -0.0134,0.0328 -0.0225,0.12962 -0.0195,0.26172 0.003,0.13211 0.0166,0.30208 0.0351,0.49609 0.0371,0.38801 0.0979,0.8734 0.15235,1.35352 0.0544,0.48011 0.10243,0.95539 0.11523,1.32617 0.006,0.1854 0.004,0.34435 -0.0117,0.46679 -0.008,0.0612 -0.0191,0.11355 -0.0352,0.15625 -0.0161,0.0427 -0.0364,0.0785 -0.0703,0.0996 -0.034,0.0211 -0.0756,0.0235 -0.12109,0.0195 -0.0455,-0.004 -0.0959,-0.0171 -0.1543,-0.0371 -0.11679,-0.04 -0.2622,-0.10782 -0.42578,-0.19532 -0.32714,-0.17499 -0.73178,-0.42885 -1.13867,-0.68945 -0.40689,-0.2606 -0.81461,-0.52801 -1.14649,-0.73242 -0.16594,-0.1022 -0.31253,-0.1889 -0.42968,-0.25 -0.11716,-0.0611 -0.20884,-0.0947 -0.24414,-0.0977 -0.0353,-0.002 -0.1312,0.0186 -0.25586,0.0625 -0.12465,0.0439 -0.28216,0.10795 -0.46094,0.18555 -0.35757,0.15516 -0.80042,0.36238 -1.24024,0.5625 -0.4398,0.20011 -0.87787,0.39282 -1.22656,0.51953 -0.17435,0.0633 -0.32598,0.10991 -0.44726,0.13281 -0.0606,0.0119 -0.11261,0.0176 -0.15821,0.0156 -0.0456,-0.002 -0.0866,-0.0114 -0.11718,-0.0371 -0.0306,-0.0257 -0.0466,-0.0628 -0.0566,-0.10742 -0.009,-0.0446 -0.0127,-0.0985 -0.0117,-0.16016 0.002,-0.12342 0.022,-0.28224 0.0547,-0.46484 0.0653,-0.36521 0.18063,-0.82742 0.30274,-1.29493 0.1221,-0.46751 0.25195,-0.93955 0.34375,-1.31836 0.046,-0.18935 0.0816,-0.35601 0.10351,-0.48632 0.022,-0.13031 0.0256,-0.22742 0.0176,-0.26172 -0.009,-0.0343 -0.0585,-0.11961 -0.13867,-0.22461 -0.0802,-0.105 -0.18933,-0.2348 -0.31836,-0.38086 -0.25806,-0.29212 -0.59175,-0.64942 -0.91797,-1.00586 -0.32623,-0.35644 -0.64478,-0.71144 -0.87304,-1.00391 -0.11414,-0.14624 -0.20633,-0.27651 -0.26563,-0.38476 -0.0297,-0.0541 -0.0504,-0.10249 -0.0625,-0.14649 -0.0121,-0.044 -0.0169,-0.086 -0.002,-0.12304 0.015,-0.037 0.0465,-0.0628 0.0859,-0.0859 0.0394,-0.0232 0.0894,-0.0423 0.14844,-0.0605 0.11797,-0.0364 0.27327,-0.0664 0.45703,-0.0918 0.36752,-0.0508 0.84382,-0.085 1.32618,-0.11329 0.48236,-0.0283 0.97073,-0.0504 1.35937,-0.0801 0.19432,-0.0148 0.36343,-0.0314 0.49414,-0.0508 0.13071,-0.0194 0.22586,-0.0457 0.25586,-0.0644 0.03,-0.0187 0.0948,-0.0924 0.16992,-0.20117 0.0751,-0.10875 0.16467,-0.25401 0.26367,-0.42188 0.19807,-0.33566 0.43564,-0.76318 0.67383,-1.18359 0.23818,-0.42041 0.47792,-0.83315 0.68555,-1.14062 0.10381,-0.15374 0.1986,-0.2813 0.2832,-0.3711 0.0423,-0.0449 0.083,-0.0804 0.1211,-0.10546 0.0382,-0.0251 0.0754,-0.0421 0.11523,-0.0391 z M 41.36875,878.196 c -1.744004,0 -3.169916,1.42592 -3.169922,3.16993 -2e-6,1.74401 1.425914,3.16992 3.169922,3.16992 1.744007,0 3.167973,-1.42591 3.167969,-3.16992 -2e-6,-1.74401 -1.423966,-3.16993 -3.167969,-3.16993 z m 0,1.10547 c 1.146798,0 2.062499,0.91766 2.0625,2.06446 3e-6,1.1468 -0.9157,2.06445 -2.0625,2.06445 -1.1468,0 -2.066408,-0.91765 -2.066406,-2.06445 1e-6,-1.1468 0.919608,-2.06446 2.066406,-2.06446 z m -20.816406,0.58594 c 2.286145,0.13468 3.915396,1.72564 4.267578,4.81055 l 0.210938,1.85351 c 0.417291,3.65522 -1.1429,5.51518 -4.072266,5.84961 l -7.816406,0.89258 c -2.799747,0.31964 -4.8826617,-1.25564 -5.2851557,-4.78125 l -0.210938,-1.85352 c -0.417292,-3.65523 1.1429,-5.51323 4.0722657,-5.84765 l 7.814453,-0.89258 c 0.351589,-0.0401 0.692939,-0.0505 1.019531,-0.0312 z m -0.634766,3.69336 c -0.11691,-0.007 -0.235905,-0.002 -0.357421,0.0117 l -7.039063,0.80273 c -1.023982,0.1169 -1.687213,0.86274 -1.570312,1.88672 l 0.210937,1.85352 c 0.11838,1.03694 0.995904,1.59387 1.955078,1.48437 l 7.039063,-0.80469 c 1.023983,-0.11691 1.687212,-0.86077 1.570312,-1.88476 l -0.210937,-1.85352 c -0.103584,-0.90732 -0.779282,-1.44949 -1.597657,-1.49609 z m 5.810547,11.12695 c 0.09824,-0.0352 0.232275,0.0262 0.302735,0.22266 l 1.064453,2.97265 c 0.03523,0.0983 0.0056,0.20657 -0.107422,0.31641 l -4.914063,4.46485 c -0.105189,0.0931 -0.117754,0.20783 -0.07812,0.31835 l 0.761718,2.125 c 0.09248,0.25781 0.308522,0.36008 0.566406,0.26758 l 5.304688,-1.90234 c 0.257887,-0.0925 0.475879,0.01 0.568359,0.26758 l 0.933594,2.60351 c 0.09248,0.25788 -0.0097,0.47586 -0.267578,0.56836 l -14.945313,5.35938 c -0.257885,0.0925 -0.475879,-0.0116 -0.568359,-0.26953 l -2.271484,-6.33594 c -1.127345,-3.14375 0.077,-5.69603 3.048828,-6.76172 1.706959,-0.61211 3.221847,-0.40673 4.587891,0.69727 0.117717,0.0963 0.214258,0.1309 0.3125,0.0957 0.09824,-0.0352 0.163016,-0.0861 0.248046,-0.1582 l 4.994141,-4.50782 c 0.218253,-0.20301 0.360744,-0.30855 0.458984,-0.34375 z m -8.541015,7.31641 c -0.216088,-0.0211 -0.438275,0.004 -0.65625,0.082 l -0.429688,0.1543 c -0.871898,0.31265 -1.254141,1.29547 -0.90625,2.26562 l 1.052735,2.93555 c 0.09248,0.2578 0.310472,0.36008 0.568359,0.26758 L 19.46836,906.778 c 0.257904,-0.0925 0.360058,-0.30851 0.267578,-0.5664 l -1.052734,-2.93555 c -0.254314,-0.70919 -0.847832,-1.18882 -1.496094,-1.25195 z m 148.19922,0.42969 c 0.62209,0.0342 1.27342,0.19883 1.93946,0.49414 1.53023,0.6785 2.40986,1.77902 2.61914,3.38672 0.0173,0.13938 0.0603,0.22457 0.14843,0.26367 0.0881,0.0391 0.16292,0.0467 0.26563,0.0527 l 6.20898,0.16992 c 0.27512,0.003 0.43729,0.0234 0.52539,0.0625 0.0881,0.0391 0.1367,0.16566 0.0586,0.3418 l -1.18164,2.66406 c -0.039,0.0881 -0.12794,0.14058 -0.27344,0.14258 l -6.125,-0.14844 c -0.12961,-0.005 -0.21391,0.065 -0.25781,0.16407 l -0.84375,1.90429 c -0.1025,0.23118 -0.0222,0.43657 0.20898,0.53907 l 4.75586,2.10937 c 0.23114,0.10251 0.30953,0.30984 0.20703,0.54102 l -1.03515,2.33398 c -0.10251,0.23114 -0.30788,0.30954 -0.53907,0.20703 l -13.39843,-5.93945 c -0.23114,-0.1025 -0.3115,-0.30984 -0.20899,-0.54102 l 2.51953,-5.67968 c 0.9372,-2.1137 2.53998,-3.17091 4.40625,-3.06836 z m -0.13086,3.2207 c -0.59567,0.0107 -1.16391,0.40632 -1.45312,1.05859 l -1.16602,2.63086 c -0.10251,0.23119 -0.0242,0.43852 0.20703,0.54102 l 2.37891,1.05469 c 0.23118,0.10251 0.43656,0.0222 0.53906,-0.20899 l 1.16797,-2.63086 c 0.37585,-0.84769 0.0883,-1.80578 -0.69336,-2.15234 l -0.38476,-0.16992 c -0.19541,-0.0866 -0.39715,-0.12661 -0.59571,-0.12305 z m -140.445313,9.04687 c 1.607064,-0.0315 3.250852,0.74206 4.453125,2.63477 l 1.341796,2.11328 c 0.146896,0.23128 0.382027,0.28361 0.613282,0.13672 l 4.416015,-2.80469 c 0.231254,-0.1469 0.464433,-0.0945 0.611329,0.13672 l 1.482421,2.33399 c 0.146897,0.23126 0.09454,0.46639 -0.136718,0.61328 l -13.400391,8.5117 c -0.231255,0.1469 -0.466385,0.0945 -0.613281,-0.13672 l -3.308594,-5.20703 c -1.916641,-3.01732 -1.204707,-5.57202 1.449219,-7.25782 l 0.341797,-0.21679 c 0.83417,-0.52988 1.785761,-0.83855 2.75,-0.85743 z m 129.726563,3.01758 14.78516,5.17578 c 0.0727,0.0225 0.0936,0.0376 0.12305,0.0586 0.0976,0.0702 0.0956,0.17358 -0.01,0.32031 l -1.74023,2.42578 c -0.0773,0.10804 -0.17604,0.14051 -0.29493,0.0996 l -2.0625,-0.7832 c -0.11888,-0.0409 -0.17198,-0.006 -0.27734,0.14062 l -2.70508,3.76563 c -0.1124,0.1565 -0.11977,0.21094 -0.043,0.31054 l 1.40039,1.70118 c 0.0765,0.0996 0.0761,0.20493 0.006,0.30273 l -1.73437,2.41602 c -0.10537,0.1467 -0.21079,0.18934 -0.30859,0.11914 -0.0489,-0.0351 -0.12341,-0.11913 -0.15821,-0.17383 -0.0223,-0.0308 -9.55859,-12.28906 -9.55859,-12.28906 -0.10891,-0.13747 -0.0858,-0.31421 0.0195,-0.46094 l 2.12891,-2.96289 c 0.10536,-0.1467 0.26464,-0.22522 0.42968,-0.16602 z m -129.556642,0.44336 c -0.343854,-0.0117 -0.703675,0.0837 -1.054687,0.30664 l -0.320313,0.20313 c -0.93603,0.59457 -1.115106,1.65153 -0.5625,2.52148 l 1.384766,2.17969 c 0.146896,0.23129 0.382026,0.28361 0.613281,0.13672 l 2.63086,-1.67188 c 0.231251,-0.1469 0.283616,-0.38006 0.136719,-0.61132 l -1.384766,-2.17969 c -0.345381,-0.54372 -0.870269,-0.86528 -1.44336,-0.88477 z m 131.523442,3.44531 -0.24609,0.3418 0.36718,0.33594 3.41016,4.16992 c 0.10609,0.12068 0.21926,0.12724 0.3457,-0.0488 l 1.65039,-2.29687 c 0.12644,-0.17607 0.0916,-0.29152 -0.0566,-0.35352 l -5.03515,-1.91015 z m -9.07031,6.58594 c 1.09083,-0.0471 2.13847,0.40631 3.05469,1.4043 0.904,0.98468 1.25507,2.3291 0.83203,3.45312 -0.0488,0.14276 -0.007,0.20279 0.0254,0.23829 0.0489,0.0532 0.13277,0.0746 0.23632,0.0449 1.32091,-0.3953 2.63436,-0.0484 3.7168,1.14843 1.99385,2.20742 1.74638,4.44531 -0.1875,6.22071 l -5.10937,4.6914 c -0.18629,0.17107 -0.40905,0.16097 -0.58008,-0.0254 l -9.91016,-10.79492 c -0.17105,-0.18629 -0.16286,-0.4071 0.0234,-0.57812 l 4.58789,-4.21094 c 1.0867,-0.99765 2.21971,-1.54465 3.31055,-1.5918 z m -0.17774,3.26563 c -0.37978,-0.013 -0.76503,0.15761 -1.14648,0.50781 l -2.09375,1.92187 c -0.18627,0.17103 -0.19641,0.39184 -0.0254,0.57813 l 1.60351,1.74805 c 0.17102,0.18627 0.39378,0.19641 0.58008,0.0254 l 2.09375,-1.92188 c 0.76293,-0.70039 0.80424,-1.4919 0.0957,-2.26367 -0.35427,-0.38589 -0.72764,-0.58268 -1.10743,-0.5957 z m 4.33203,4.44726 c -0.41114,-0.0272 -0.81488,0.11681 -1.13867,0.41406 l -2.28125,2.0918 c -0.18629,0.17103 -0.19447,0.39379 -0.0234,0.58008 l 1.76563,1.92383 c 0.17102,0.18627 0.39379,0.19641 0.58008,0.0254 l 2.27929,-2.09375 c 0.64809,-0.59451 0.73102,-1.53756 -0.002,-2.33594 -0.35019,-0.38145 -0.76854,-0.57831 -1.17969,-0.60547 z m -15.80859,0.82227 c 0.15826,-0.0282 0.3043,0.0435 0.40039,0.20703 l 5.61133,9.55273 c 1.32384,2.25304 0.76943,4.59065 -2.05469,6.25 l -1.48437,0.8711 c -2.92795,1.7204 -5.08635,1.09002 -6.45899,-1.2461 l -5.61328,-9.55273 c -0.12812,-0.21804 -0.0716,-0.43243 0.14649,-0.56055 l 2.20117,-1.29297 c 0.21804,-0.12811 0.43243,-0.0716 0.56054,0.14649 l 5.42969,9.24023 c 0.48194,0.82027 1.35944,1.10107 2.17969,0.61914 l 1.48437,-0.87304 c 0.83063,-0.48802 0.96671,-1.42026 0.51954,-2.20508 l -5.42969,-9.24024 c -0.12812,-0.21804 -0.0716,-0.43242 0.14648,-0.56054 l 2.20117,-1.29297 c 0.0545,-0.032 0.10741,-0.0531 0.16016,-0.0625 z m -15.63086,8.15234 c 1.60517,-0.0804 2.98453,0.56062 3.84375,1.82617 0.14847,0.21719 0.16078,0.25172 0.1836,0.32032 0.0342,0.10282 0.007,0.21338 -0.11524,0.30468 l -1.82812,1.44727 c -0.0495,0.042 -0.10306,0.0705 -0.16016,0.0898 -0.13711,0.0457 -0.32722,0.008 -0.44141,-0.14453 -0.50621,-0.71993 -1.22187,-0.92501 -2.18164,-0.60547 l -1.64648,0.54688 c -0.91403,0.30428 -1.24829,1.20335 -0.9668,2.04883 L 118.9,956.9401 c 0.30051,0.90266 1.10126,1.35911 2.00391,1.0586 l 1.64453,-0.54688 c 0.95978,-0.31953 1.38247,-0.87898 1.38281,-1.79297 7e-5,-0.19045 0.13047,-0.33536 0.26758,-0.38086 0.0571,-0.0224 0.11694,-0.0234 0.18164,-0.0234 l 2.33203,0.0625 c 0.15233,8e-5 0.23924,0.0709 0.27344,0.17383 0.0229,0.0685 0.0727,0.21764 0.084,0.48046 0.0945,2.03738 -1.25447,3.62808 -3.5625,4.39649 l -1.63477,0.54492 c -3.22209,1.07268 -5.19696,0.0159 -6.05664,-2.56641 l -2.29492,-6.88867 c -0.82544,-2.4794 0.20466,-4.65086 3.3125,-5.68554 l 1.64453,-0.54688 c 0.57415,-0.19114 1.13487,-0.2974 1.66992,-0.32422 z m -44.343753,3.50391 c 0.03986,0.003 0.07324,0.0244 0.107422,0.0547 0.03417,0.0303 0.06997,0.0706 0.105469,0.12109 0.07099,0.10097 0.145662,0.24127 0.226562,0.4082 0.161807,0.33386 0.341578,0.77658 0.517578,1.22656 0.176008,0.45 0.349702,0.90714 0.498047,1.26758 0.07417,0.18022 0.142322,0.33676 0.201172,0.45508 0.05884,0.11832 0.111612,0.19986 0.138672,0.22266 0.02706,0.0228 0.117514,0.0618 0.244141,0.0996 0.126626,0.0378 0.292185,0.0788 0.482422,0.12109 0.380477,0.0846 0.860551,0.17684 1.333984,0.27344 0.473431,0.0966 0.940296,0.19638 1.296875,0.29883 0.178289,0.0512 0.327841,0.10355 0.439453,0.15625 0.05581,0.0264 0.102992,0.0516 0.138672,0.0801 0.03567,0.0285 0.06267,0.0608 0.07227,0.0996 0.0096,0.0388 6.62e-4,0.0792 -0.01758,0.1211 -0.01824,0.0419 -0.04694,0.0854 -0.08398,0.13476 -0.0741,0.0987 -0.1846,0.21523 -0.318359,0.34375 -0.267519,0.25706 -0.632279,0.56465 -1.00586,0.8711 -0.373579,0.30644 -0.755772,0.61081 -1.052734,0.86328 -0.14848,0.12623 -0.274801,0.23953 -0.369141,0.33203 -0.09435,0.0925 -0.156624,0.17032 -0.169921,0.20312 -0.01325,0.0328 -0.02273,0.12962 -0.01953,0.26172 0.0032,0.13211 0.01662,0.30209 0.03516,0.4961 0.03707,0.38801 0.09793,0.87339 0.152344,1.35351 0.05441,0.48011 0.102475,0.95539 0.115235,1.32617 0.0064,0.1854 0.0039,0.34436 -0.01172,0.4668 -0.0078,0.0612 -0.01907,0.11355 -0.03516,0.15625 -0.01609,0.0427 -0.03639,0.0766 -0.07031,0.0977 -0.03391,0.0211 -0.07564,0.0255 -0.121094,0.0215 -0.04545,-0.004 -0.09786,-0.0191 -0.15625,-0.0391 -0.116788,-0.04 -0.260257,-0.10781 -0.423828,-0.19531 -0.327142,-0.17499 -0.731779,-0.4269 -1.138672,-0.6875 -0.406892,-0.2606 -0.814604,-0.52997 -1.146484,-0.73438 -0.165938,-0.1022 -0.314487,-0.18696 -0.431641,-0.24804 -0.117154,-0.0611 -0.20887,-0.0966 -0.24414,-0.0996 -0.03528,-0.002 -0.131206,0.0186 -0.25586,0.0625 -0.124653,0.0439 -0.282155,0.1099 -0.460937,0.1875 -0.357565,0.15516 -0.798477,0.36238 -1.238281,0.5625 -0.439804,0.20011 -0.877867,0.39282 -1.226563,0.51953 -0.174347,0.0633 -0.325992,0.10981 -0.447265,0.13281 -0.06064,0.0118 -0.114537,0.0157 -0.160157,0.0137 -0.04562,-0.002 -0.08466,-0.009 -0.115234,-0.0352 -0.03057,-0.0257 -0.04684,-0.0648 -0.05664,-0.10937 -0.0098,-0.0446 -0.01268,-0.0965 -0.01172,-0.1582 0.0019,-0.12342 0.02202,-0.28225 0.05469,-0.46485 0.06533,-0.36521 0.180628,-0.82936 0.302734,-1.29687 0.122106,-0.46751 0.249947,-0.93761 0.341797,-1.31641 0.04593,-0.1894 0.08353,-0.35602 0.105469,-0.48633 0.0219,-0.13031 0.02608,-0.22937 0.01758,-0.26367 -0.0085,-0.0343 -0.05844,-0.11765 -0.138672,-0.22265 -0.08023,-0.105 -0.18933,-0.2348 -0.318359,-0.38086 -0.25806,-0.29212 -0.591743,-0.64942 -0.917969,-1.00586 -0.326225,-0.35644 -0.644785,-0.71144 -0.873047,-1.00391 -0.11413,-0.14624 -0.206315,-0.27655 -0.265625,-0.38476 -0.02966,-0.0541 -0.05234,-0.10249 -0.06445,-0.14649 -0.01211,-0.044 -0.01502,-0.0861 0,-0.12305 0.01503,-0.0371 0.04657,-0.0628 0.08594,-0.0859 0.03937,-0.0232 0.08945,-0.0443 0.148437,-0.0625 0.117972,-0.0364 0.27327,-0.0664 0.457031,-0.0918 0.36752,-0.0508 0.843814,-0.083 1.326172,-0.11133 0.482358,-0.0283 0.970731,-0.0523 1.359375,-0.082 0.194322,-0.0148 0.363429,-0.0314 0.494141,-0.0508 0.130712,-0.0194 0.225839,-0.0438 0.255859,-0.0625 0.03002,-0.0187 0.09485,-0.0924 0.169922,-0.20117 0.07507,-0.10875 0.164632,-0.25403 0.263672,-0.42188 0.198075,-0.33569 0.433689,-0.76318 0.671875,-1.18359 0.238185,-0.42041 0.479878,-0.83316 0.6875,-1.14063 0.103811,-0.15374 0.198573,-0.28119 0.283203,-0.37109 0.04231,-0.0449 0.08101,-0.0804 0.119141,-0.10547 0.03814,-0.0251 0.07734,-0.0421 0.117187,-0.0391 z m 28.771493,0.24414 c 2.09415,-0.014 3.7335,0.88802 4.55468,2.51562 0.10328,0.24185 0.10819,0.27791 0.11719,0.34961 0.0135,0.10751 -0.0345,0.20989 -0.17187,0.27539 l -2.07422,1.0625 c -0.0567,0.0316 -0.11413,0.0506 -0.17383,0.0586 -0.14337,0.018 -0.30002,-0.0579 -0.40625,-0.22656 -0.45634,-0.73143 -1.29257,-1.11157 -2.33203,-0.98047 -1.15895,0.14605 -1.73612,0.86187 -1.63672,1.65039 0.0964,0.7647 0.78042,1.18732 2.82422,1.60937 3.3137,0.67468 4.97273,2.09272 5.23633,4.1836 0.36152,2.86753 -1.40126,4.95784 -4.81836,5.38867 -2.75996,0.3479 -4.99112,-0.59694 -5.853524,-2.52735 -0.10328,-0.24185 -0.10819,-0.27595 -0.11719,-0.34765 -0.0136,-0.10751 0.0345,-0.21185 0.17188,-0.27735 l 2.183594,-1.16211 c 0.0567,-0.0316 0.11608,-0.0506 0.17578,-0.0586 0.14337,-0.018 0.29808,0.0598 0.4043,0.22852 0.48627,0.77618 1.31614,1.1941 2.6543,1.02539 1.23064,-0.15515 1.79639,-0.8587 1.68945,-1.70703 -0.0964,-0.76463 -0.72543,-1.32887 -2.8125,-1.70899 -3.40326,-0.6148 -4.988424,-2.02905 -5.285164,-4.38281 -0.27264,-2.16256 1.520184,-4.49955 4.746104,-4.90625 0.31662,-0.0399 0.62466,-0.0605 0.92383,-0.0625 z"
       sodipodi:nodetypes="cscsscccccccccccccccccccccccccccccccccccsccccccccccccccccsccccsccccccccssccccccccsscccsccccccssccssccccccccsssccccccccsccccccccccsscccccccccccccccsccscccccccccsccccccccccccccccscccccccccccccccccccsccccccccssccccccccccccccccccccccccsssccccccccccsccccccccsscccsccccscsccsccccccscscsccccccsssccccccccccccccccccssccssscccccsscccscssccscscscssscsscccscccccscscccccccccccccccccccccsccssssssssssssssssssssssccccccccccccsssscccccsscssssccccccsccccccccssscssssssscssssscssssscscccsssscccsscsscssssscssssccscccscccssssccscssscssscsssscsssssssssssccccccccssccccccccscccccccccccccccscccccsccccccccssscsccccccccccccsccccssccccccccssccccccscccccscccccccccccccscccccsccccccccscccccccccsscsccccccccssccccccsssccccccsssccccccccccccccccsscsccccccccccscccccccccccscssssssssssscsssssssssssssssscssssscsssscssssssscsssssssscscscsssssssscscccccccscscccccccsscsss" />
    <path
       id="path1942-2-7"
       style="fill:none;fill-opacity:1;stroke:none;stroke-width:0.770716;stroke-opacity:1"
       d="m 106.72395,972.4364 a 87.519525,87.519525 0 0 0 82.81917,-91.98 87.519525,87.519525 0 0 0 -91.980006,-82.81917 87.519525,87.519525 0 0 0 -82.819165,91.98001 87.519525,87.519525 0 0 0 91.980001,82.81916 z" />
    <path
       id="path1942-5"
       style="fill:none;fill-opacity:1;stroke:none;stroke-width:0.770716;stroke-opacity:1"
       d="M 47.166204,928.5265 A 69.907379,69.907379 0 0 1 58.357922,830.29805 69.907379,69.907379 0 0 1 156.58637,841.48977 69.907379,69.907379 0 0 1 145.39465,939.71822 69.907379,69.907379 0 0 1 47.166204,928.5265 Z" />
    <path
       id="path1824"
       style="fill:none;fill-opacity:1;stroke:none;stroke-width:0.770716;stroke-opacity:0.995984"
       d="M 20.261698,851.50364 A 88.811947,88.811947 0 0 0 69.33714,967.11832 88.811947,88.811947 0 0 0 184.95171,918.04272 88.811947,88.811947 0 0 0 135.87624,802.42816 88.811947,88.811947 0 0 0 20.261698,851.50364 Z" />
    <path
       id="path1942-2-2"
       style="fill:none;fill-opacity:1;stroke:none;stroke-width:0.770716;stroke-opacity:1"
       d="M 71.006315,964.99067 A 85.573574,85.573574 0 0 0 181.56296,915.76768 85.573574,85.573574 0 0 0 132.33997,805.21104 85.573574,85.573574 0 0 0 21.783335,854.43403 85.573574,85.573574 0 0 0 71.006315,964.99067 Z" />
    <path
       style="fill:none;stroke:#000000;stroke-width:0.394531px;stroke-linecap:butt;stroke-linejoin:miter;stroke-opacity:1"
       d="M 85.737541,902.11159 Z"
       id="path1120" />
  </g>
</svg>
