<?xml version="1.0" encoding="UTF-8" standalone="no"?>
<svg
   xmlns:dc="http://purl.org/dc/elements/1.1/"
   xmlns:cc="http://creativecommons.org/ns#"
   xmlns:rdf="http://www.w3.org/1999/02/22-rdf-syntax-ns#"
   xmlns:svg="http://www.w3.org/2000/svg"
   xmlns="http://www.w3.org/2000/svg"
   xmlns:sodipodi="http://sodipodi.sourceforge.net/DTD/sodipodi-0.dtd"
   xmlns:inkscape="http://www.inkscape.org/namespaces/inkscape"
   width="50mm"
   height="50mm"
   id="svg2"
   version="1.1"
   inkscape:version="1.0.1 (3bc2e813f5, 2020-09-07)"
   sodipodi:docname="xHain_stickers_5cm_authorisation.svg"
   inkscape:export-filename="/home/xHain_stickers_5cm_authorisation.png"
   inkscape:export-xdpi="350"
   inkscape:export-ydpi="350">
  <sodipodi:namedview
     id="base"
     pagecolor="#ffffff"
     bordercolor="#666666"
     borderopacity="1.0"
     inkscape:pageopacity="0.0"
     inkscape:pageshadow="2"
     inkscape:zoom="1.2682029"
     inkscape:cx="5.6595394"
     inkscape:cy="-16.419317"
     inkscape:document-units="mm"
     inkscape:current-layer="layer1"
     showgrid="false"
     inkscape:window-width="1920"
     inkscape:window-height="1032"
     inkscape:window-x="0"
     inkscape:window-y="0"
     inkscape:window-maximized="1"
     showguides="true"
     inkscape:guide-bbox="true"
     units="mm"
     inkscape:document-rotation="0">
    <inkscape:grid
       type="xygrid"
       id="grid2985"
       empspacing="5"
       visible="true"
       enabled="true"
       snapvisiblegridlinesonly="true" />
  </sodipodi:namedview>
  <defs
     id="defs4">
    <marker
       inkscape:stockid="DotS"
       orient="auto"
       refY="0"
       refX="0"
       id="DotS"
       style="overflow:visible">
      <path
         id="path3828"
         d="m -2.5,-1 c 0,2.76 -2.24,5 -5,5 -2.76,0 -5,-2.24 -5,-5 0,-2.76 2.24,-5 5,-5 2.76,0 5,2.24 5,5 z"
         style="fill-rule:evenodd;stroke:#000000;stroke-width:1pt"
         transform="matrix(0.2,0,0,0.2,1.48,0.2)"
         inkscape:connector-curvature="0" />
    </marker>
    <marker
       inkscape:stockid="DotS"
       orient="auto"
       refY="0"
       refX="0"
       id="DotS-1"
       style="overflow:visible">
      <path
         inkscape:connector-curvature="0"
         id="path3828-5"
         d="m -2.5,-1 c 0,2.76 -2.24,5 -5,5 -2.76,0 -5,-2.24 -5,-5 0,-2.76 2.24,-5 5,-5 2.76,0 5,2.24 5,5 z"
         style="fill-rule:evenodd;stroke:#000000;stroke-width:1pt"
         transform="matrix(0.2,0,0,0.2,1.48,0.2)" />
    </marker>
    <marker
       inkscape:stockid="DotS"
       orient="auto"
       refY="0"
       refX="0"
       id="marker4395"
       style="overflow:visible">
      <path
         inkscape:connector-curvature="0"
         id="path4397"
         d="m -2.5,-1 c 0,2.76 -2.24,5 -5,5 -2.76,0 -5,-2.24 -5,-5 0,-2.76 2.24,-5 5,-5 2.76,0 5,2.24 5,5 z"
         style="fill-rule:evenodd;stroke:#000000;stroke-width:1pt"
         transform="matrix(0.2,0,0,0.2,1.48,0.2)" />
    </marker>
    <marker
       inkscape:stockid="DotS"
       orient="auto"
       refY="0"
       refX="0"
       id="DotS-3"
       style="overflow:visible">
      <path
         inkscape:connector-curvature="0"
         id="path3828-0"
         d="m -2.5,-1 c 0,2.76 -2.24,5 -5,5 -2.76,0 -5,-2.24 -5,-5 0,-2.76 2.24,-5 5,-5 2.76,0 5,2.24 5,5 z"
         style="fill-rule:evenodd;stroke:#000000;stroke-width:1pt"
         transform="matrix(0.2,0,0,0.2,1.48,0.2)" />
    </marker>
    <marker
       inkscape:stockid="DotS"
       orient="auto"
       refY="0"
       refX="0"
       id="marker4427"
       style="overflow:visible">
      <path
         inkscape:connector-curvature="0"
         id="path4429"
         d="m -2.5,-1 c 0,2.76 -2.24,5 -5,5 -2.76,0 -5,-2.24 -5,-5 0,-2.76 2.24,-5 5,-5 2.76,0 5,2.24 5,5 z"
         style="fill-rule:evenodd;stroke:#000000;stroke-width:1pt"
         transform="matrix(0.2,0,0,0.2,1.48,0.2)" />
    </marker>
    <marker
       inkscape:stockid="DotS"
       orient="auto"
       refY="0"
       refX="0"
       id="DotS-2"
       style="overflow:visible">
      <path
         inkscape:connector-curvature="0"
         id="path3828-1"
         d="m -2.5,-1 c 0,2.76 -2.24,5 -5,5 -2.76,0 -5,-2.24 -5,-5 0,-2.76 2.24,-5 5,-5 2.76,0 5,2.24 5,5 z"
         style="fill-rule:evenodd;stroke:#000000;stroke-width:1pt"
         transform="matrix(0.2,0,0,0.2,1.48,0.2)" />
    </marker>
    <marker
       inkscape:stockid="DotS"
       orient="auto"
       refY="0"
       refX="0"
       id="marker4427-3"
       style="overflow:visible">
      <path
         inkscape:connector-curvature="0"
         id="path4429-9"
         d="m -2.5,-1 c 0,2.76 -2.24,5 -5,5 -2.76,0 -5,-2.24 -5,-5 0,-2.76 2.24,-5 5,-5 2.76,0 5,2.24 5,5 z"
         style="fill-rule:evenodd;stroke:#000000;stroke-width:1pt"
         transform="matrix(0.2,0,0,0.2,1.48,0.2)" />
    </marker>
    <marker
       inkscape:stockid="DotS"
       orient="auto"
       refY="0"
       refX="0"
       id="DotS-21"
       style="overflow:visible">
      <path
         inkscape:connector-curvature="0"
         id="path3828-6"
         d="m -2.5,-1 c 0,2.76 -2.24,5 -5,5 -2.76,0 -5,-2.24 -5,-5 0,-2.76 2.24,-5 5,-5 2.76,0 5,2.24 5,5 z"
         style="fill-rule:evenodd;stroke:#000000;stroke-width:1pt"
         transform="matrix(0.2,0,0,0.2,1.48,0.2)" />
    </marker>
    <marker
       inkscape:stockid="DotS"
       orient="auto"
       refY="0"
       refX="0"
       id="marker4474"
       style="overflow:visible">
      <path
         inkscape:connector-curvature="0"
         id="path4476"
         d="m -2.5,-1 c 0,2.76 -2.24,5 -5,5 -2.76,0 -5,-2.24 -5,-5 0,-2.76 2.24,-5 5,-5 2.76,0 5,2.24 5,5 z"
         style="fill-rule:evenodd;stroke:#000000;stroke-width:1pt"
         transform="matrix(0.2,0,0,0.2,1.48,0.2)" />
    </marker>
    <marker
       inkscape:stockid="DotS"
       orient="auto"
       refY="0"
       refX="0"
       id="DotS-36"
       style="overflow:visible">
      <path
         inkscape:connector-curvature="0"
         id="path3828-8"
         d="m -2.5,-1 c 0,2.76 -2.24,5 -5,5 -2.76,0 -5,-2.24 -5,-5 0,-2.76 2.24,-5 5,-5 2.76,0 5,2.24 5,5 z"
         style="fill-rule:evenodd;stroke:#000000;stroke-width:1pt"
         transform="matrix(0.2,0,0,0.2,1.48,0.2)" />
    </marker>
    <marker
       inkscape:stockid="DotS"
       orient="auto"
       refY="0"
       refX="0"
       id="marker4516"
       style="overflow:visible">
      <path
         inkscape:connector-curvature="0"
         id="path4518"
         d="m -2.5,-1 c 0,2.76 -2.24,5 -5,5 -2.76,0 -5,-2.24 -5,-5 0,-2.76 2.24,-5 5,-5 2.76,0 5,2.24 5,5 z"
         style="fill-rule:evenodd;stroke:#000000;stroke-width:1pt"
         transform="matrix(0.2,0,0,0.2,1.48,0.2)" />
    </marker>
    <marker
       inkscape:stockid="DotS"
       orient="auto"
       refY="0"
       refX="0"
       id="DotS-11"
       style="overflow:visible">
      <path
         inkscape:connector-curvature="0"
         id="path3828-58"
         d="m -2.5,-1 c 0,2.76 -2.24,5 -5,5 -2.76,0 -5,-2.24 -5,-5 0,-2.76 2.24,-5 5,-5 2.76,0 5,2.24 5,5 z"
         style="fill-rule:evenodd;stroke:#000000;stroke-width:1pt"
         transform="matrix(0.2,0,0,0.2,1.48,0.2)" />
    </marker>
    <marker
       inkscape:stockid="DotS"
       orient="auto"
       refY="0"
       refX="0"
       id="marker4954"
       style="overflow:visible">
      <path
         inkscape:connector-curvature="0"
         id="path4956"
         d="m -2.5,-1 c 0,2.76 -2.24,5 -5,5 -2.76,0 -5,-2.24 -5,-5 0,-2.76 2.24,-5 5,-5 2.76,0 5,2.24 5,5 z"
         style="fill-rule:evenodd;stroke:#000000;stroke-width:1pt"
         transform="matrix(0.2,0,0,0.2,1.48,0.2)" />
    </marker>
    <marker
       inkscape:stockid="DotS"
       orient="auto"
       refY="0"
       refX="0"
       id="DotS-7"
       style="overflow:visible">
      <path
         inkscape:connector-curvature="0"
         id="path3828-3"
         d="m -2.5,-1 c 0,2.76 -2.24,5 -5,5 -2.76,0 -5,-2.24 -5,-5 0,-2.76 2.24,-5 5,-5 2.76,0 5,2.24 5,5 z"
         style="fill-rule:evenodd;stroke:#000000;stroke-width:1pt"
         transform="matrix(0.2,0,0,0.2,1.48,0.2)" />
    </marker>
    <marker
       inkscape:stockid="DotS"
       orient="auto"
       refY="0"
       refX="0"
       id="marker5024"
       style="overflow:visible">
      <path
         inkscape:connector-curvature="0"
         id="path5026"
         d="m -2.5,-1 c 0,2.76 -2.24,5 -5,5 -2.76,0 -5,-2.24 -5,-5 0,-2.76 2.24,-5 5,-5 2.76,0 5,2.24 5,5 z"
         style="fill-rule:evenodd;stroke:#000000;stroke-width:1pt"
         transform="matrix(0.2,0,0,0.2,1.48,0.2)" />
    </marker>
    <marker
       inkscape:stockid="DotS"
       orient="auto"
       refY="0"
       refX="0"
       id="DotS-34"
       style="overflow:visible">
      <path
         inkscape:connector-curvature="0"
         id="path3828-16"
         d="m -2.5,-1 c 0,2.76 -2.24,5 -5,5 -2.76,0 -5,-2.24 -5,-5 0,-2.76 2.24,-5 5,-5 2.76,0 5,2.24 5,5 z"
         style="fill-rule:evenodd;stroke:#000000;stroke-width:1pt"
         transform="matrix(0.2,0,0,0.2,1.48,0.2)" />
    </marker>
    <marker
       inkscape:stockid="DotS"
       orient="auto"
       refY="0"
       refX="0"
       id="marker5056"
       style="overflow:visible">
      <path
         inkscape:connector-curvature="0"
         id="path5058"
         d="m -2.5,-1 c 0,2.76 -2.24,5 -5,5 -2.76,0 -5,-2.24 -5,-5 0,-2.76 2.24,-5 5,-5 2.76,0 5,2.24 5,5 z"
         style="fill-rule:evenodd;stroke:#000000;stroke-width:1pt"
         transform="matrix(0.2,0,0,0.2,1.48,0.2)" />
    </marker>
    <marker
       inkscape:stockid="DotS"
       orient="auto"
       refY="0"
       refX="0"
       id="marker4516-8"
       style="overflow:visible">
      <path
         inkscape:connector-curvature="0"
         id="path4518-5"
         d="m -2.5,-1 c 0,2.76 -2.24,5 -5,5 -2.76,0 -5,-2.24 -5,-5 0,-2.76 2.24,-5 5,-5 2.76,0 5,2.24 5,5 z"
         style="fill-rule:evenodd;stroke:#000000;stroke-width:1pt"
         transform="matrix(0.2,0,0,0.2,1.48,0.2)" />
    </marker>
    <marker
       inkscape:stockid="DotS"
       orient="auto"
       refY="0"
       refX="0"
       id="marker5088"
       style="overflow:visible">
      <path
         inkscape:connector-curvature="0"
         id="path5090"
         d="m -2.5,-1 c 0,2.76 -2.24,5 -5,5 -2.76,0 -5,-2.24 -5,-5 0,-2.76 2.24,-5 5,-5 2.76,0 5,2.24 5,5 z"
         style="fill-rule:evenodd;stroke:#000000;stroke-width:1pt"
         transform="matrix(0.2,0,0,0.2,1.48,0.2)" />
    </marker>
    <marker
       inkscape:stockid="DotS"
       orient="auto"
       refY="0"
       refX="0"
       id="marker4516-9"
       style="overflow:visible">
      <path
         inkscape:connector-curvature="0"
         id="path4518-55"
         d="m -2.5,-1 c 0,2.76 -2.24,5 -5,5 -2.76,0 -5,-2.24 -5,-5 0,-2.76 2.24,-5 5,-5 2.76,0 5,2.24 5,5 z"
         style="fill-rule:evenodd;stroke:#000000;stroke-width:1pt"
         transform="matrix(0.2,0,0,0.2,1.48,0.2)" />
    </marker>
    <marker
       inkscape:stockid="DotS"
       orient="auto"
       refY="0"
       refX="0"
       id="marker5137"
       style="overflow:visible">
      <path
         inkscape:connector-curvature="0"
         id="path5139"
         d="m -2.5,-1 c 0,2.76 -2.24,5 -5,5 -2.76,0 -5,-2.24 -5,-5 0,-2.76 2.24,-5 5,-5 2.76,0 5,2.24 5,5 z"
         style="fill-rule:evenodd;stroke:#000000;stroke-width:1pt"
         transform="matrix(0.2,0,0,0.2,1.48,0.2)" />
    </marker>
    <marker
       inkscape:stockid="DotS"
       orient="auto"
       refY="0"
       refX="0"
       id="DotS-0"
       style="overflow:visible">
      <path
         inkscape:connector-curvature="0"
         id="path3828-4"
         d="m -2.5,-1 c 0,2.76 -2.24,5 -5,5 -2.76,0 -5,-2.24 -5,-5 0,-2.76 2.24,-5 5,-5 2.76,0 5,2.24 5,5 z"
         style="fill-rule:evenodd;stroke:#000000;stroke-width:1pt"
         transform="matrix(0.2,0,0,0.2,1.48,0.2)" />
    </marker>
    <marker
       inkscape:stockid="DotS"
       orient="auto"
       refY="0"
       refX="0"
       id="marker5169"
       style="overflow:visible">
      <path
         inkscape:connector-curvature="0"
         id="path5171"
         d="m -2.5,-1 c 0,2.76 -2.24,5 -5,5 -2.76,0 -5,-2.24 -5,-5 0,-2.76 2.24,-5 5,-5 2.76,0 5,2.24 5,5 z"
         style="fill-rule:evenodd;stroke:#000000;stroke-width:1pt"
         transform="matrix(0.2,0,0,0.2,1.48,0.2)" />
    </marker>
    <marker
       inkscape:stockid="DotS"
       orient="auto"
       refY="0"
       refX="0"
       id="DotS-8"
       style="overflow:visible">
      <path
         inkscape:connector-curvature="0"
         id="path3828-66"
         d="m -2.5,-1 c 0,2.76 -2.24,5 -5,5 -2.76,0 -5,-2.24 -5,-5 0,-2.76 2.24,-5 5,-5 2.76,0 5,2.24 5,5 z"
         style="fill-rule:evenodd;stroke:#000000;stroke-width:1pt"
         transform="matrix(0.2,0,0,0.2,1.48,0.2)" />
    </marker>
    <marker
       inkscape:stockid="DotS"
       orient="auto"
       refY="0"
       refX="0"
       id="marker5218"
       style="overflow:visible">
      <path
         inkscape:connector-curvature="0"
         id="path5220"
         d="m -2.5,-1 c 0,2.76 -2.24,5 -5,5 -2.76,0 -5,-2.24 -5,-5 0,-2.76 2.24,-5 5,-5 2.76,0 5,2.24 5,5 z"
         style="fill-rule:evenodd;stroke:#000000;stroke-width:1pt"
         transform="matrix(0.2,0,0,0.2,1.48,0.2)" />
    </marker>
    <marker
       inkscape:stockid="DotSv"
       orient="auto"
       refY="0"
       refX="0"
       id="DotSv"
       style="overflow:visible">
      <path
         id="path5753"
         d="m -2.5,-1 c 0,2.76 -2.24,5 -5,5 -2.76,0 -5,-2.24 -5,-5 0,-2.76 2.24,-5 5,-5 2.76,0 5,2.24 5,5 z"
         style="fill:#858585;fill-rule:evenodd;stroke:#858585;stroke-width:1pt"
         transform="matrix(0.2,0,0,0.2,1.48,0.2)"
         inkscape:connector-curvature="0" />
    </marker>
    <marker
       inkscape:stockid="DotSs"
       orient="auto"
       refY="0"
       refX="0"
       id="DotSs"
       style="overflow:visible">
      <path
         id="path5756"
         d="m -2.5,-1 c 0,2.76 -2.24,5 -5,5 -2.76,0 -5,-2.24 -5,-5 0,-2.76 2.24,-5 5,-5 2.76,0 5,2.24 5,5 z"
         style="fill:#858585;fill-rule:evenodd;stroke:#858585;stroke-width:1pt"
         transform="matrix(0.2,0,0,0.2,1.48,0.2)"
         inkscape:connector-curvature="0" />
    </marker>
    <marker
       inkscape:stockid="DotSk"
       orient="auto"
       refY="0"
       refX="0"
       id="DotSk"
       style="overflow:visible">
      <path
         id="path5759"
         d="m -2.5,-1 c 0,2.76 -2.24,5 -5,5 -2.76,0 -5,-2.24 -5,-5 0,-2.76 2.24,-5 5,-5 2.76,0 5,2.24 5,5 z"
         style="fill:#858585;fill-rule:evenodd;stroke:#858585;stroke-width:1pt"
         transform="matrix(0.2,0,0,0.2,1.48,0.2)"
         inkscape:connector-curvature="0" />
    </marker>
    <marker
       inkscape:stockid="DotSK"
       orient="auto"
       refY="0"
       refX="0"
       id="DotSK"
       style="overflow:visible">
      <path
         id="path5762"
         d="m -2.5,-1 c 0,2.76 -2.24,5 -5,5 -2.76,0 -5,-2.24 -5,-5 0,-2.76 2.24,-5 5,-5 2.76,0 5,2.24 5,5 z"
         style="fill:#858585;fill-rule:evenodd;stroke:#858585;stroke-width:1pt"
         transform="matrix(0.2,0,0,0.2,1.48,0.2)"
         inkscape:connector-curvature="0" />
    </marker>
    <marker
       inkscape:stockid="DotSQ"
       orient="auto"
       refY="0"
       refX="0"
       id="DotSQ"
       style="overflow:visible">
      <path
         id="path5765"
         d="m -2.5,-1 c 0,2.76 -2.24,5 -5,5 -2.76,0 -5,-2.24 -5,-5 0,-2.76 2.24,-5 5,-5 2.76,0 5,2.24 5,5 z"
         style="fill:#858585;fill-rule:evenodd;stroke:#858585;stroke-width:1pt"
         transform="matrix(0.2,0,0,0.2,1.48,0.2)"
         inkscape:connector-curvature="0" />
    </marker>
    <marker
       inkscape:stockid="DotSg"
       orient="auto"
       refY="0"
       refX="0"
       id="DotSg"
       style="overflow:visible">
      <path
         id="path5768"
         d="m -2.5,-1 c 0,2.76 -2.24,5 -5,5 -2.76,0 -5,-2.24 -5,-5 0,-2.76 2.24,-5 5,-5 2.76,0 5,2.24 5,5 z"
         style="fill:#858585;fill-rule:evenodd;stroke:#858585;stroke-width:1pt"
         transform="matrix(0.2,0,0,0.2,1.48,0.2)"
         inkscape:connector-curvature="0" />
    </marker>
    <marker
       inkscape:stockid="marker4516J"
       orient="auto"
       refY="0"
       refX="0"
       id="marker4516J"
       style="overflow:visible">
      <path
         inkscape:connector-curvature="0"
         id="path5771"
         d="m -2.5,-1 c 0,2.76 -2.24,5 -5,5 -2.76,0 -5,-2.24 -5,-5 0,-2.76 2.24,-5 5,-5 2.76,0 5,2.24 5,5 z"
         style="fill:#858585;fill-rule:evenodd;stroke:#858585;stroke-width:1pt"
         transform="matrix(0.2,0,0,0.2,1.48,0.2)" />
    </marker>
    <marker
       inkscape:stockid="marker4516P"
       orient="auto"
       refY="0"
       refX="0"
       id="marker4516P"
       style="overflow:visible">
      <path
         inkscape:connector-curvature="0"
         id="path5774"
         d="m -2.5,-1 c 0,2.76 -2.24,5 -5,5 -2.76,0 -5,-2.24 -5,-5 0,-2.76 2.24,-5 5,-5 2.76,0 5,2.24 5,5 z"
         style="fill:#858585;fill-rule:evenodd;stroke:#858585;stroke-width:1pt"
         transform="matrix(0.2,0,0,0.2,1.48,0.2)" />
    </marker>
    <marker
       inkscape:stockid="DotSC"
       orient="auto"
       refY="0"
       refX="0"
       id="DotSC"
       style="overflow:visible">
      <path
         id="path5777"
         d="m -2.5,-1 c 0,2.76 -2.24,5 -5,5 -2.76,0 -5,-2.24 -5,-5 0,-2.76 2.24,-5 5,-5 2.76,0 5,2.24 5,5 z"
         style="fill:#858585;fill-rule:evenodd;stroke:#858585;stroke-width:1pt"
         transform="matrix(0.2,0,0,0.2,1.48,0.2)"
         inkscape:connector-curvature="0" />
    </marker>
    <marker
       inkscape:stockid="DotSL"
       orient="auto"
       refY="0"
       refX="0"
       id="DotSL"
       style="overflow:visible">
      <path
         id="path5780"
         d="m -2.5,-1 c 0,2.76 -2.24,5 -5,5 -2.76,0 -5,-2.24 -5,-5 0,-2.76 2.24,-5 5,-5 2.76,0 5,2.24 5,5 z"
         style="fill:#858585;fill-rule:evenodd;stroke:#858585;stroke-width:1pt"
         transform="matrix(0.2,0,0,0.2,1.48,0.2)"
         inkscape:connector-curvature="0" />
    </marker>
    <marker
       inkscape:stockid="DotSf"
       orient="auto"
       refY="0"
       refX="0"
       id="DotSf"
       style="overflow:visible">
      <path
         id="path5783"
         d="m -2.5,-1 c 0,2.76 -2.24,5 -5,5 -2.76,0 -5,-2.24 -5,-5 0,-2.76 2.24,-5 5,-5 2.76,0 5,2.24 5,5 z"
         style="fill:#858585;fill-rule:evenodd;stroke:#858585;stroke-width:1pt"
         transform="matrix(0.2,0,0,0.2,1.48,0.2)"
         inkscape:connector-curvature="0" />
    </marker>
    <marker
       inkscape:stockid="DotS7"
       orient="auto"
       refY="0"
       refX="0"
       id="DotS7"
       style="overflow:visible">
      <path
         id="path5786"
         d="m -2.5,-1 c 0,2.76 -2.24,5 -5,5 -2.76,0 -5,-2.24 -5,-5 0,-2.76 2.24,-5 5,-5 2.76,0 5,2.24 5,5 z"
         style="fill:#858585;fill-rule:evenodd;stroke:#858585;stroke-width:1pt"
         transform="matrix(0.2,0,0,0.2,1.48,0.2)"
         inkscape:connector-curvature="0" />
    </marker>
    <marker
       inkscape:stockid="DotSS"
       orient="auto"
       refY="0"
       refX="0"
       id="DotSS"
       style="overflow:visible">
      <path
         id="path5789"
         d="m -2.5,-1 c 0,2.76 -2.24,5 -5,5 -2.76,0 -5,-2.24 -5,-5 0,-2.76 2.24,-5 5,-5 2.76,0 5,2.24 5,5 z"
         style="fill:#858585;fill-rule:evenodd;stroke:#858585;stroke-width:1pt"
         transform="matrix(0.2,0,0,0.2,1.48,0.2)"
         inkscape:connector-curvature="0" />
    </marker>
    <marker
       inkscape:stockid="DotSy"
       orient="auto"
       refY="0"
       refX="0"
       id="DotSy"
       style="overflow:visible">
      <path
         id="path5792"
         d="m -2.5,-1 c 0,2.76 -2.24,5 -5,5 -2.76,0 -5,-2.24 -5,-5 0,-2.76 2.24,-5 5,-5 2.76,0 5,2.24 5,5 z"
         style="fill:#858585;fill-rule:evenodd;stroke:#858585;stroke-width:1pt"
         transform="matrix(0.2,0,0,0.2,1.48,0.2)"
         inkscape:connector-curvature="0" />
    </marker>
    <marker
       inkscape:stockid="marker4516C"
       orient="auto"
       refY="0"
       refX="0"
       id="marker4516C"
       style="overflow:visible">
      <path
         inkscape:connector-curvature="0"
         id="path5795"
         d="m -2.5,-1 c 0,2.76 -2.24,5 -5,5 -2.76,0 -5,-2.24 -5,-5 0,-2.76 2.24,-5 5,-5 2.76,0 5,2.24 5,5 z"
         style="fill:#858585;fill-rule:evenodd;stroke:#858585;stroke-width:1pt"
         transform="matrix(0.2,0,0,0.2,1.48,0.2)" />
    </marker>
    <marker
       inkscape:stockid="marker45162"
       orient="auto"
       refY="0"
       refX="0"
       id="marker45162"
       style="overflow:visible">
      <path
         inkscape:connector-curvature="0"
         id="path5798"
         d="m -2.5,-1 c 0,2.76 -2.24,5 -5,5 -2.76,0 -5,-2.24 -5,-5 0,-2.76 2.24,-5 5,-5 2.76,0 5,2.24 5,5 z"
         style="fill:#858585;fill-rule:evenodd;stroke:#858585;stroke-width:1pt"
         transform="matrix(0.2,0,0,0.2,1.48,0.2)" />
    </marker>
    <marker
       inkscape:stockid="DotSG"
       orient="auto"
       refY="0"
       refX="0"
       id="DotSG"
       style="overflow:visible">
      <path
         id="path5801"
         d="m -2.5,-1 c 0,2.76 -2.24,5 -5,5 -2.76,0 -5,-2.24 -5,-5 0,-2.76 2.24,-5 5,-5 2.76,0 5,2.24 5,5 z"
         style="fill:#858585;fill-rule:evenodd;stroke:#858585;stroke-width:1pt"
         transform="matrix(0.2,0,0,0.2,1.48,0.2)"
         inkscape:connector-curvature="0" />
    </marker>
    <marker
       inkscape:stockid="DotS5"
       orient="auto"
       refY="0"
       refX="0"
       id="DotS5"
       style="overflow:visible">
      <path
         id="path5804"
         d="m -2.5,-1 c 0,2.76 -2.24,5 -5,5 -2.76,0 -5,-2.24 -5,-5 0,-2.76 2.24,-5 5,-5 2.76,0 5,2.24 5,5 z"
         style="fill:#858585;fill-rule:evenodd;stroke:#858585;stroke-width:1pt"
         transform="matrix(0.2,0,0,0.2,1.48,0.2)"
         inkscape:connector-curvature="0" />
    </marker>
    <marker
       inkscape:stockid="DotSsA"
       orient="auto"
       refY="0"
       refX="0"
       id="DotSsA"
       style="overflow:visible">
      <path
         id="path5807"
         d="m -2.5,-1 c 0,2.76 -2.24,5 -5,5 -2.76,0 -5,-2.24 -5,-5 0,-2.76 2.24,-5 5,-5 2.76,0 5,2.24 5,5 z"
         style="fill:#858585;fill-rule:evenodd;stroke:#858585;stroke-width:1pt"
         transform="matrix(0.2,0,0,0.2,1.48,0.2)"
         inkscape:connector-curvature="0" />
    </marker>
    <marker
       inkscape:stockid="DotSLd"
       orient="auto"
       refY="0"
       refX="0"
       id="DotSLd"
       style="overflow:visible">
      <path
         id="path5810"
         d="m -2.5,-1 c 0,2.76 -2.24,5 -5,5 -2.76,0 -5,-2.24 -5,-5 0,-2.76 2.24,-5 5,-5 2.76,0 5,2.24 5,5 z"
         style="fill:#858585;fill-rule:evenodd;stroke:#858585;stroke-width:1pt"
         transform="matrix(0.2,0,0,0.2,1.48,0.2)"
         inkscape:connector-curvature="0" />
    </marker>
    <marker
       inkscape:stockid="DotSd"
       orient="auto"
       refY="0"
       refX="0"
       id="DotSd"
       style="overflow:visible">
      <path
         id="path5813"
         d="m -2.5,-1 c 0,2.76 -2.24,5 -5,5 -2.76,0 -5,-2.24 -5,-5 0,-2.76 2.24,-5 5,-5 2.76,0 5,2.24 5,5 z"
         style="fill:#858585;fill-rule:evenodd;stroke:#858585;stroke-width:1pt"
         transform="matrix(0.2,0,0,0.2,1.48,0.2)"
         inkscape:connector-curvature="0" />
    </marker>
    <marker
       inkscape:stockid="DotSyI"
       orient="auto"
       refY="0"
       refX="0"
       id="DotSyI"
       style="overflow:visible">
      <path
         id="path5816"
         d="m -2.5,-1 c 0,2.76 -2.24,5 -5,5 -2.76,0 -5,-2.24 -5,-5 0,-2.76 2.24,-5 5,-5 2.76,0 5,2.24 5,5 z"
         style="fill:#858585;fill-rule:evenodd;stroke:#858585;stroke-width:1pt"
         transform="matrix(0.2,0,0,0.2,1.48,0.2)"
         inkscape:connector-curvature="0" />
    </marker>
    <marker
       inkscape:stockid="marker4516y"
       orient="auto"
       refY="0"
       refX="0"
       id="marker4516y"
       style="overflow:visible">
      <path
         inkscape:connector-curvature="0"
         id="path5819"
         d="m -2.5,-1 c 0,2.76 -2.24,5 -5,5 -2.76,0 -5,-2.24 -5,-5 0,-2.76 2.24,-5 5,-5 2.76,0 5,2.24 5,5 z"
         style="fill:#858585;fill-rule:evenodd;stroke:#858585;stroke-width:1pt"
         transform="matrix(0.2,0,0,0.2,1.48,0.2)" />
    </marker>
    <marker
       inkscape:stockid="marker4516I"
       orient="auto"
       refY="0"
       refX="0"
       id="marker4516I"
       style="overflow:visible">
      <path
         inkscape:connector-curvature="0"
         id="path5822"
         d="m -2.5,-1 c 0,2.76 -2.24,5 -5,5 -2.76,0 -5,-2.24 -5,-5 0,-2.76 2.24,-5 5,-5 2.76,0 5,2.24 5,5 z"
         style="fill:#858585;fill-rule:evenodd;stroke:#858585;stroke-width:1pt"
         transform="matrix(0.2,0,0,0.2,1.48,0.2)" />
    </marker>
    <marker
       inkscape:stockid="marker5218b"
       orient="auto"
       refY="0"
       refX="0"
       id="marker5218b"
       style="overflow:visible">
      <path
         inkscape:connector-curvature="0"
         id="path5825"
         d="m -2.5,-1 c 0,2.76 -2.24,5 -5,5 -2.76,0 -5,-2.24 -5,-5 0,-2.76 2.24,-5 5,-5 2.76,0 5,2.24 5,5 z"
         style="fill:#858585;fill-rule:evenodd;stroke:#858585;stroke-width:1pt"
         transform="matrix(0.2,0,0,0.2,1.48,0.2)" />
    </marker>
    <marker
       inkscape:stockid="marker5218X"
       orient="auto"
       refY="0"
       refX="0"
       id="marker5218X"
       style="overflow:visible">
      <path
         inkscape:connector-curvature="0"
         id="path5828"
         d="m -2.5,-1 c 0,2.76 -2.24,5 -5,5 -2.76,0 -5,-2.24 -5,-5 0,-2.76 2.24,-5 5,-5 2.76,0 5,2.24 5,5 z"
         style="fill:#858585;fill-rule:evenodd;stroke:#858585;stroke-width:1pt"
         transform="matrix(0.2,0,0,0.2,1.48,0.2)" />
    </marker>
    <marker
       inkscape:stockid="DotSQL"
       orient="auto"
       refY="0"
       refX="0"
       id="DotSQL"
       style="overflow:visible">
      <path
         id="path6109"
         d="m -2.5,-1 c 0,2.76 -2.24,5 -5,5 -2.76,0 -5,-2.24 -5,-5 0,-2.76 2.24,-5 5,-5 2.76,0 5,2.24 5,5 z"
         style="fill:#ffc400;fill-rule:evenodd;stroke:#ffc400;stroke-width:1pt"
         transform="matrix(0.2,0,0,0.2,1.48,0.2)"
         inkscape:connector-curvature="0" />
    </marker>
    <marker
       inkscape:stockid="DotSgb"
       orient="auto"
       refY="0"
       refX="0"
       id="DotSgb"
       style="overflow:visible">
      <path
         id="path6112"
         d="m -2.5,-1 c 0,2.76 -2.24,5 -5,5 -2.76,0 -5,-2.24 -5,-5 0,-2.76 2.24,-5 5,-5 2.76,0 5,2.24 5,5 z"
         style="fill:#ffc400;fill-rule:evenodd;stroke:#ffc400;stroke-width:1pt"
         transform="matrix(0.2,0,0,0.2,1.48,0.2)"
         inkscape:connector-curvature="0" />
    </marker>
    <marker
       inkscape:stockid="marker4516J6"
       orient="auto"
       refY="0"
       refX="0"
       id="marker4516J6"
       style="overflow:visible">
      <path
         inkscape:connector-curvature="0"
         id="path6115"
         d="m -2.5,-1 c 0,2.76 -2.24,5 -5,5 -2.76,0 -5,-2.24 -5,-5 0,-2.76 2.24,-5 5,-5 2.76,0 5,2.24 5,5 z"
         style="fill:#ffc400;fill-rule:evenodd;stroke:#ffc400;stroke-width:1pt"
         transform="matrix(0.2,0,0,0.2,1.48,0.2)" />
    </marker>
    <marker
       inkscape:stockid="marker4516Pl"
       orient="auto"
       refY="0"
       refX="0"
       id="marker4516Pl"
       style="overflow:visible">
      <path
         inkscape:connector-curvature="0"
         id="path6118"
         d="m -2.5,-1 c 0,2.76 -2.24,5 -5,5 -2.76,0 -5,-2.24 -5,-5 0,-2.76 2.24,-5 5,-5 2.76,0 5,2.24 5,5 z"
         style="fill:#ffc400;fill-rule:evenodd;stroke:#ffc400;stroke-width:1pt"
         transform="matrix(0.2,0,0,0.2,1.48,0.2)" />
    </marker>
    <marker
       inkscape:stockid="DotSSB"
       orient="auto"
       refY="0"
       refX="0"
       id="DotSSB"
       style="overflow:visible">
      <path
         id="path6121"
         d="m -2.5,-1 c 0,2.76 -2.24,5 -5,5 -2.76,0 -5,-2.24 -5,-5 0,-2.76 2.24,-5 5,-5 2.76,0 5,2.24 5,5 z"
         style="fill:#ffc400;fill-rule:evenodd;stroke:#ffc400;stroke-width:1pt"
         transform="matrix(0.2,0,0,0.2,1.48,0.2)"
         inkscape:connector-curvature="0" />
    </marker>
    <marker
       inkscape:stockid="DotSyD"
       orient="auto"
       refY="0"
       refX="0"
       id="DotSyD"
       style="overflow:visible">
      <path
         id="path6124"
         d="m -2.5,-1 c 0,2.76 -2.24,5 -5,5 -2.76,0 -5,-2.24 -5,-5 0,-2.76 2.24,-5 5,-5 2.76,0 5,2.24 5,5 z"
         style="fill:#ffc400;fill-rule:evenodd;stroke:#ffc400;stroke-width:1pt"
         transform="matrix(0.2,0,0,0.2,1.48,0.2)"
         inkscape:connector-curvature="0" />
    </marker>
    <marker
       inkscape:stockid="marker4516Ct"
       orient="auto"
       refY="0"
       refX="0"
       id="marker4516Ct"
       style="overflow:visible">
      <path
         inkscape:connector-curvature="0"
         id="path6127"
         d="m -2.5,-1 c 0,2.76 -2.24,5 -5,5 -2.76,0 -5,-2.24 -5,-5 0,-2.76 2.24,-5 5,-5 2.76,0 5,2.24 5,5 z"
         style="fill:#ffc400;fill-rule:evenodd;stroke:#ffc400;stroke-width:1pt"
         transform="matrix(0.2,0,0,0.2,1.48,0.2)" />
    </marker>
    <marker
       inkscape:stockid="marker451623"
       orient="auto"
       refY="0"
       refX="0"
       id="marker451623"
       style="overflow:visible">
      <path
         inkscape:connector-curvature="0"
         id="path6130"
         d="m -2.5,-1 c 0,2.76 -2.24,5 -5,5 -2.76,0 -5,-2.24 -5,-5 0,-2.76 2.24,-5 5,-5 2.76,0 5,2.24 5,5 z"
         style="fill:#ffc400;fill-rule:evenodd;stroke:#ffc400;stroke-width:1pt"
         transform="matrix(0.2,0,0,0.2,1.48,0.2)" />
    </marker>
    <marker
       inkscape:stockid="marker4516yb"
       orient="auto"
       refY="0"
       refX="0"
       id="marker4516yb"
       style="overflow:visible">
      <path
         inkscape:connector-curvature="0"
         id="path6133"
         d="m -2.5,-1 c 0,2.76 -2.24,5 -5,5 -2.76,0 -5,-2.24 -5,-5 0,-2.76 2.24,-5 5,-5 2.76,0 5,2.24 5,5 z"
         style="fill:#ffc400;fill-rule:evenodd;stroke:#ffc400;stroke-width:1pt"
         transform="matrix(0.2,0,0,0.2,1.48,0.2)" />
    </marker>
    <marker
       inkscape:stockid="marker4516IS"
       orient="auto"
       refY="0"
       refX="0"
       id="marker4516IS"
       style="overflow:visible">
      <path
         inkscape:connector-curvature="0"
         id="path6136"
         d="m -2.5,-1 c 0,2.76 -2.24,5 -5,5 -2.76,0 -5,-2.24 -5,-5 0,-2.76 2.24,-5 5,-5 2.76,0 5,2.24 5,5 z"
         style="fill:#ffc400;fill-rule:evenodd;stroke:#ffc400;stroke-width:1pt"
         transform="matrix(0.2,0,0,0.2,1.48,0.2)" />
    </marker>
    <marker
       inkscape:stockid="DotSsAi"
       orient="auto"
       refY="0"
       refX="0"
       id="DotSsAi"
       style="overflow:visible">
      <path
         id="path6139"
         d="m -2.5,-1 c 0,2.76 -2.24,5 -5,5 -2.76,0 -5,-2.24 -5,-5 0,-2.76 2.24,-5 5,-5 2.76,0 5,2.24 5,5 z"
         style="fill:#ffc400;fill-rule:evenodd;stroke:#ffc400;stroke-width:1pt"
         transform="matrix(0.2,0,0,0.2,1.48,0.2)"
         inkscape:connector-curvature="0" />
    </marker>
    <marker
       inkscape:stockid="DotSLdG"
       orient="auto"
       refY="0"
       refX="0"
       id="DotSLdG"
       style="overflow:visible">
      <path
         id="path6142"
         d="m -2.5,-1 c 0,2.76 -2.24,5 -5,5 -2.76,0 -5,-2.24 -5,-5 0,-2.76 2.24,-5 5,-5 2.76,0 5,2.24 5,5 z"
         style="fill:#ffc400;fill-rule:evenodd;stroke:#ffc400;stroke-width:1pt"
         transform="matrix(0.2,0,0,0.2,1.48,0.2)"
         inkscape:connector-curvature="0" />
    </marker>
    <marker
       inkscape:stockid="DotSd7"
       orient="auto"
       refY="0"
       refX="0"
       id="DotSd7"
       style="overflow:visible">
      <path
         id="path6145"
         d="m -2.5,-1 c 0,2.76 -2.24,5 -5,5 -2.76,0 -5,-2.24 -5,-5 0,-2.76 2.24,-5 5,-5 2.76,0 5,2.24 5,5 z"
         style="fill:#ffc400;fill-rule:evenodd;stroke:#ffc400;stroke-width:1pt"
         transform="matrix(0.2,0,0,0.2,1.48,0.2)"
         inkscape:connector-curvature="0" />
    </marker>
    <marker
       inkscape:stockid="DotSyIp"
       orient="auto"
       refY="0"
       refX="0"
       id="DotSyIp"
       style="overflow:visible">
      <path
         id="path6148"
         d="m -2.5,-1 c 0,2.76 -2.24,5 -5,5 -2.76,0 -5,-2.24 -5,-5 0,-2.76 2.24,-5 5,-5 2.76,0 5,2.24 5,5 z"
         style="fill:#ffc400;fill-rule:evenodd;stroke:#ffc400;stroke-width:1pt"
         transform="matrix(0.2,0,0,0.2,1.48,0.2)"
         inkscape:connector-curvature="0" />
    </marker>
    <marker
       inkscape:stockid="DotSvS"
       orient="auto"
       refY="0"
       refX="0"
       id="DotSvS"
       style="overflow:visible">
      <path
         id="path6151"
         d="m -2.5,-1 c 0,2.76 -2.24,5 -5,5 -2.76,0 -5,-2.24 -5,-5 0,-2.76 2.24,-5 5,-5 2.76,0 5,2.24 5,5 z"
         style="fill:#ffc400;fill-rule:evenodd;stroke:#ffc400;stroke-width:1pt"
         transform="matrix(0.2,0,0,0.2,1.48,0.2)"
         inkscape:connector-curvature="0" />
    </marker>
    <marker
       inkscape:stockid="DotSsJ"
       orient="auto"
       refY="0"
       refX="0"
       id="DotSsJ"
       style="overflow:visible">
      <path
         id="path6154"
         d="m -2.5,-1 c 0,2.76 -2.24,5 -5,5 -2.76,0 -5,-2.24 -5,-5 0,-2.76 2.24,-5 5,-5 2.76,0 5,2.24 5,5 z"
         style="fill:#ffc400;fill-rule:evenodd;stroke:#ffc400;stroke-width:1pt"
         transform="matrix(0.2,0,0,0.2,1.48,0.2)"
         inkscape:connector-curvature="0" />
    </marker>
    <marker
       inkscape:stockid="DotSfb"
       orient="auto"
       refY="0"
       refX="0"
       id="DotSfb"
       style="overflow:visible">
      <path
         id="path6157"
         d="m -2.5,-1 c 0,2.76 -2.24,5 -5,5 -2.76,0 -5,-2.24 -5,-5 0,-2.76 2.24,-5 5,-5 2.76,0 5,2.24 5,5 z"
         style="fill:#ffc400;fill-rule:evenodd;stroke:#ffc400;stroke-width:1pt"
         transform="matrix(0.2,0,0,0.2,1.48,0.2)"
         inkscape:connector-curvature="0" />
    </marker>
    <marker
       inkscape:stockid="DotS7T"
       orient="auto"
       refY="0"
       refX="0"
       id="DotS7T"
       style="overflow:visible">
      <path
         id="path6160"
         d="m -2.5,-1 c 0,2.76 -2.24,5 -5,5 -2.76,0 -5,-2.24 -5,-5 0,-2.76 2.24,-5 5,-5 2.76,0 5,2.24 5,5 z"
         style="fill:#ffc400;fill-rule:evenodd;stroke:#ffc400;stroke-width:1pt"
         transform="matrix(0.2,0,0,0.2,1.48,0.2)"
         inkscape:connector-curvature="0" />
    </marker>
    <marker
       inkscape:stockid="DotSko"
       orient="auto"
       refY="0"
       refX="0"
       id="DotSko"
       style="overflow:visible">
      <path
         id="path6163"
         d="m -2.5,-1 c 0,2.76 -2.24,5 -5,5 -2.76,0 -5,-2.24 -5,-5 0,-2.76 2.24,-5 5,-5 2.76,0 5,2.24 5,5 z"
         style="fill:#ffc400;fill-rule:evenodd;stroke:#ffc400;stroke-width:1pt"
         transform="matrix(0.2,0,0,0.2,1.48,0.2)"
         inkscape:connector-curvature="0" />
    </marker>
    <marker
       inkscape:stockid="DotSKZ"
       orient="auto"
       refY="0"
       refX="0"
       id="DotSKZ"
       style="overflow:visible">
      <path
         id="path6166"
         d="m -2.5,-1 c 0,2.76 -2.24,5 -5,5 -2.76,0 -5,-2.24 -5,-5 0,-2.76 2.24,-5 5,-5 2.76,0 5,2.24 5,5 z"
         style="fill:#ffc400;fill-rule:evenodd;stroke:#ffc400;stroke-width:1pt"
         transform="matrix(0.2,0,0,0.2,1.48,0.2)"
         inkscape:connector-curvature="0" />
    </marker>
    <marker
       inkscape:stockid="DotSCa"
       orient="auto"
       refY="0"
       refX="0"
       id="DotSCa"
       style="overflow:visible">
      <path
         id="path6169"
         d="m -2.5,-1 c 0,2.76 -2.24,5 -5,5 -2.76,0 -5,-2.24 -5,-5 0,-2.76 2.24,-5 5,-5 2.76,0 5,2.24 5,5 z"
         style="fill:#ffc400;fill-rule:evenodd;stroke:#ffc400;stroke-width:1pt"
         transform="matrix(0.2,0,0,0.2,1.48,0.2)"
         inkscape:connector-curvature="0" />
    </marker>
    <marker
       inkscape:stockid="DotSLi"
       orient="auto"
       refY="0"
       refX="0"
       id="DotSLi"
       style="overflow:visible">
      <path
         id="path6172"
         d="m -2.5,-1 c 0,2.76 -2.24,5 -5,5 -2.76,0 -5,-2.24 -5,-5 0,-2.76 2.24,-5 5,-5 2.76,0 5,2.24 5,5 z"
         style="fill:#ffc400;fill-rule:evenodd;stroke:#ffc400;stroke-width:1pt"
         transform="matrix(0.2,0,0,0.2,1.48,0.2)"
         inkscape:connector-curvature="0" />
    </marker>
    <marker
       inkscape:stockid="marker5218bQ"
       orient="auto"
       refY="0"
       refX="0"
       id="marker5218bQ"
       style="overflow:visible">
      <path
         inkscape:connector-curvature="0"
         id="path6175"
         d="m -2.5,-1 c 0,2.76 -2.24,5 -5,5 -2.76,0 -5,-2.24 -5,-5 0,-2.76 2.24,-5 5,-5 2.76,0 5,2.24 5,5 z"
         style="fill:#ffc400;fill-rule:evenodd;stroke:#ffc400;stroke-width:1pt"
         transform="matrix(0.2,0,0,0.2,1.48,0.2)" />
    </marker>
    <marker
       inkscape:stockid="marker5218XM"
       orient="auto"
       refY="0"
       refX="0"
       id="marker5218XM"
       style="overflow:visible">
      <path
         inkscape:connector-curvature="0"
         id="path6178"
         d="m -2.5,-1 c 0,2.76 -2.24,5 -5,5 -2.76,0 -5,-2.24 -5,-5 0,-2.76 2.24,-5 5,-5 2.76,0 5,2.24 5,5 z"
         style="fill:#ffc400;fill-rule:evenodd;stroke:#ffc400;stroke-width:1pt"
         transform="matrix(0.2,0,0,0.2,1.48,0.2)" />
    </marker>
    <marker
       inkscape:stockid="DotSGn"
       orient="auto"
       refY="0"
       refX="0"
       id="DotSGn"
       style="overflow:visible">
      <path
         id="path6181"
         d="m -2.5,-1 c 0,2.76 -2.24,5 -5,5 -2.76,0 -5,-2.24 -5,-5 0,-2.76 2.24,-5 5,-5 2.76,0 5,2.24 5,5 z"
         style="fill:#ffc400;fill-rule:evenodd;stroke:#ffc400;stroke-width:1pt"
         transform="matrix(0.2,0,0,0.2,1.48,0.2)"
         inkscape:connector-curvature="0" />
    </marker>
    <marker
       inkscape:stockid="DotS5R"
       orient="auto"
       refY="0"
       refX="0"
       id="DotS5R"
       style="overflow:visible">
      <path
         id="path6184"
         d="m -2.5,-1 c 0,2.76 -2.24,5 -5,5 -2.76,0 -5,-2.24 -5,-5 0,-2.76 2.24,-5 5,-5 2.76,0 5,2.24 5,5 z"
         style="fill:#ffc400;fill-rule:evenodd;stroke:#ffc400;stroke-width:1pt"
         transform="matrix(0.2,0,0,0.2,1.48,0.2)"
         inkscape:connector-curvature="0" />
    </marker>
    <marker
       inkscape:stockid="DotSd7"
       orient="auto"
       refY="0"
       refX="0"
       id="DotSd7-9"
       style="overflow:visible">
      <path
         inkscape:connector-curvature="0"
         id="path6145-2"
         d="m -2.5,-1 c 0,2.76 -2.24,5 -5,5 -2.76,0 -5,-2.24 -5,-5 0,-2.76 2.24,-5 5,-5 2.76,0 5,2.24 5,5 z"
         style="fill:#ffc400;fill-rule:evenodd;stroke:#ffc400;stroke-width:1pt"
         transform="matrix(0.2,0,0,0.2,1.48,0.2)" />
    </marker>
    <marker
       inkscape:stockid="DotSyIp"
       orient="auto"
       refY="0"
       refX="0"
       id="DotSyIp-9"
       style="overflow:visible">
      <path
         inkscape:connector-curvature="0"
         id="path6148-2"
         d="m -2.5,-1 c 0,2.76 -2.24,5 -5,5 -2.76,0 -5,-2.24 -5,-5 0,-2.76 2.24,-5 5,-5 2.76,0 5,2.24 5,5 z"
         style="fill:#ffc400;fill-rule:evenodd;stroke:#ffc400;stroke-width:1pt"
         transform="matrix(0.2,0,0,0.2,1.48,0.2)" />
    </marker>
    <marker
       inkscape:stockid="DotSGn"
       orient="auto"
       refY="0"
       refX="0"
       id="DotSGn-0"
       style="overflow:visible">
      <path
         inkscape:connector-curvature="0"
         id="path6181-6"
         d="m -2.5,-1 c 0,2.76 -2.24,5 -5,5 -2.76,0 -5,-2.24 -5,-5 0,-2.76 2.24,-5 5,-5 2.76,0 5,2.24 5,5 z"
         style="fill:#ffc400;fill-rule:evenodd;stroke:#ffc400;stroke-width:1pt"
         transform="matrix(0.2,0,0,0.2,1.48,0.2)" />
    </marker>
    <marker
       inkscape:stockid="DotS5R"
       orient="auto"
       refY="0"
       refX="0"
       id="DotS5R-3"
       style="overflow:visible">
      <path
         inkscape:connector-curvature="0"
         id="path6184-9"
         d="m -2.5,-1 c 0,2.76 -2.24,5 -5,5 -2.76,0 -5,-2.24 -5,-5 0,-2.76 2.24,-5 5,-5 2.76,0 5,2.24 5,5 z"
         style="fill:#ffc400;fill-rule:evenodd;stroke:#ffc400;stroke-width:1pt"
         transform="matrix(0.2,0,0,0.2,1.48,0.2)" />
    </marker>
    <marker
       inkscape:stockid="marker5218bQ"
       orient="auto"
       refY="0"
       refX="0"
       id="marker5218bQ-7"
       style="overflow:visible">
      <path
         inkscape:connector-curvature="0"
         id="path6175-9"
         d="m -2.5,-1 c 0,2.76 -2.24,5 -5,5 -2.76,0 -5,-2.24 -5,-5 0,-2.76 2.24,-5 5,-5 2.76,0 5,2.24 5,5 z"
         style="fill:#ffc400;fill-rule:evenodd;stroke:#ffc400;stroke-width:1pt"
         transform="matrix(0.2,0,0,0.2,1.48,0.2)" />
    </marker>
    <marker
       inkscape:stockid="marker5218XM"
       orient="auto"
       refY="0"
       refX="0"
       id="marker5218XM-8"
       style="overflow:visible">
      <path
         inkscape:connector-curvature="0"
         id="path6178-2"
         d="m -2.5,-1 c 0,2.76 -2.24,5 -5,5 -2.76,0 -5,-2.24 -5,-5 0,-2.76 2.24,-5 5,-5 2.76,0 5,2.24 5,5 z"
         style="fill:#ffc400;fill-rule:evenodd;stroke:#ffc400;stroke-width:1pt"
         transform="matrix(0.2,0,0,0.2,1.48,0.2)" />
    </marker>
    <marker
       inkscape:stockid="marker5218bQ"
       orient="auto"
       refY="0"
       refX="0"
       id="marker5218bQ-9"
       style="overflow:visible">
      <path
         inkscape:connector-curvature="0"
         id="path6175-95"
         d="m -2.5,-1 c 0,2.76 -2.24,5 -5,5 -2.76,0 -5,-2.24 -5,-5 0,-2.76 2.24,-5 5,-5 2.76,0 5,2.24 5,5 z"
         style="fill:#ffc400;fill-rule:evenodd;stroke:#ffc400;stroke-width:1pt"
         transform="matrix(0.2,0,0,0.2,1.48,0.2)" />
    </marker>
    <marker
       inkscape:stockid="marker5218XM"
       orient="auto"
       refY="0"
       refX="0"
       id="marker5218XM-4"
       style="overflow:visible">
      <path
         inkscape:connector-curvature="0"
         id="path6178-29"
         d="m -2.5,-1 c 0,2.76 -2.24,5 -5,5 -2.76,0 -5,-2.24 -5,-5 0,-2.76 2.24,-5 5,-5 2.76,0 5,2.24 5,5 z"
         style="fill:#ffc400;fill-rule:evenodd;stroke:#ffc400;stroke-width:1pt"
         transform="matrix(0.2,0,0,0.2,1.48,0.2)" />
    </marker>
    <marker
       inkscape:stockid="DotSGn"
       orient="auto"
       refY="0"
       refX="0"
       id="DotSGn-08"
       style="overflow:visible">
      <path
         inkscape:connector-curvature="0"
         id="path6181-5"
         d="m -2.5,-1 c 0,2.76 -2.24,5 -5,5 -2.76,0 -5,-2.24 -5,-5 0,-2.76 2.24,-5 5,-5 2.76,0 5,2.24 5,5 z"
         style="fill:#ffc400;fill-rule:evenodd;stroke:#ffc400;stroke-width:1pt"
         transform="matrix(0.2,0,0,0.2,1.48,0.2)" />
    </marker>
    <marker
       inkscape:stockid="DotS5R"
       orient="auto"
       refY="0"
       refX="0"
       id="DotS5R-8"
       style="overflow:visible">
      <path
         inkscape:connector-curvature="0"
         id="path6184-1"
         d="m -2.5,-1 c 0,2.76 -2.24,5 -5,5 -2.76,0 -5,-2.24 -5,-5 0,-2.76 2.24,-5 5,-5 2.76,0 5,2.24 5,5 z"
         style="fill:#ffc400;fill-rule:evenodd;stroke:#ffc400;stroke-width:1pt"
         transform="matrix(0.2,0,0,0.2,1.48,0.2)" />
    </marker>
    <marker
       inkscape:stockid="marker4516Ct"
       orient="auto"
       refY="0"
       refX="0"
       id="marker4516Ct-0"
       style="overflow:visible">
      <path
         inkscape:connector-curvature="0"
         id="path6127-3"
         d="m -2.5,-1 c 0,2.76 -2.24,5 -5,5 -2.76,0 -5,-2.24 -5,-5 0,-2.76 2.24,-5 5,-5 2.76,0 5,2.24 5,5 z"
         style="fill:#ffc400;fill-rule:evenodd;stroke:#ffc400;stroke-width:1pt"
         transform="matrix(0.2,0,0,0.2,1.48,0.2)" />
    </marker>
    <marker
       inkscape:stockid="marker451623"
       orient="auto"
       refY="0"
       refX="0"
       id="marker451623-8"
       style="overflow:visible">
      <path
         inkscape:connector-curvature="0"
         id="path6130-8"
         d="m -2.5,-1 c 0,2.76 -2.24,5 -5,5 -2.76,0 -5,-2.24 -5,-5 0,-2.76 2.24,-5 5,-5 2.76,0 5,2.24 5,5 z"
         style="fill:#ffc400;fill-rule:evenodd;stroke:#ffc400;stroke-width:1pt"
         transform="matrix(0.2,0,0,0.2,1.48,0.2)" />
    </marker>
    <marker
       inkscape:stockid="marker5218bQ"
       orient="auto"
       refY="0"
       refX="0"
       id="marker5218bQ-0"
       style="overflow:visible">
      <path
         inkscape:connector-curvature="0"
         id="path6175-8"
         d="m -2.5,-1 c 0,2.76 -2.24,5 -5,5 -2.76,0 -5,-2.24 -5,-5 0,-2.76 2.24,-5 5,-5 2.76,0 5,2.24 5,5 z"
         style="fill:#ffc400;fill-rule:evenodd;stroke:#ffc400;stroke-width:1pt"
         transform="matrix(0.2,0,0,0.2,1.48,0.2)" />
    </marker>
    <marker
       inkscape:stockid="marker5218XM"
       orient="auto"
       refY="0"
       refX="0"
       id="marker5218XM-86"
       style="overflow:visible">
      <path
         inkscape:connector-curvature="0"
         id="path6178-7"
         d="m -2.5,-1 c 0,2.76 -2.24,5 -5,5 -2.76,0 -5,-2.24 -5,-5 0,-2.76 2.24,-5 5,-5 2.76,0 5,2.24 5,5 z"
         style="fill:#ffc400;fill-rule:evenodd;stroke:#ffc400;stroke-width:1pt"
         transform="matrix(0.2,0,0,0.2,1.48,0.2)" />
    </marker>
    <circle
       transform="matrix(0.8755829,0,0,0.8755829,152.4506,-680.83707)"
       id="path6572"
       style="fill:none;stroke:none"
       cx="675.71429"
       cy="777.58148"
       r="584.28571" />
    <circle
       transform="matrix(-1.1162727,-0.04357729,-0.04357729,1.1162727,1532.2608,-838.54723)"
       id="path6572-9"
       style="fill:none;stroke:none"
       cx="675.71429"
       cy="777.58148"
       r="584.28571" />
  </defs>
  <metadata
     id="metadata7">
    <rdf:RDF>
      <cc:Work
         rdf:about="">
        <dc:format>image/svg+xml</dc:format>
        <dc:type
           rdf:resource="http://purl.org/dc/dcmitype/StillImage" />
        <dc:title></dc:title>
      </cc:Work>
    </rdf:RDF>
  </metadata>
  <g
     inkscape:label="Ebene 1"
     inkscape:groupmode="layer"
     id="layer1"
     transform="translate(0,-783.07098)">
    <path
       id="path1769"
       style="color:#000000;font-style:normal;font-variant:normal;font-weight:normal;font-stretch:normal;font-size:medium;line-height:normal;font-family:sans-serif;font-variant-ligatures:normal;font-variant-position:normal;font-variant-caps:normal;font-variant-numeric:normal;font-variant-alternates:normal;font-variant-east-asian:normal;font-feature-settings:normal;font-variation-settings:normal;text-indent:0;text-align:start;text-decoration:none;text-decoration-line:none;text-decoration-style:solid;text-decoration-color:#000000;letter-spacing:normal;word-spacing:normal;text-transform:none;writing-mode:lr-tb;direction:ltr;text-orientation:mixed;dominant-baseline:auto;baseline-shift:baseline;text-anchor:start;white-space:normal;shape-padding:0;shape-margin:0;inline-size:0;clip-rule:nonzero;display:inline;overflow:visible;visibility:visible;isolation:auto;mix-blend-mode:normal;color-interpolation:sRGB;color-interpolation-filters:linearRGB;solid-color:#000000;solid-opacity:1;vector-effect:none;fill:#000000;fill-opacity:1;fill-rule:nonzero;stroke:none;stroke-width:1.99828;stroke-linecap:round;stroke-linejoin:round;stroke-miterlimit:4;stroke-dasharray:none;stroke-dashoffset:0;stroke-opacity:1;paint-order:fill markers stroke;color-rendering:auto;image-rendering:auto;shape-rendering:auto;text-rendering:auto;enable-background:accumulate;stop-color:#000000"
       d="m 94.347271,783.07098 c -47.88549,0.0125 -88.9306498,36.31205 -93.85937975,84.9707 -5.25732005,51.90261 32.57398975,98.26028 84.47656975,103.51759 51.902629,5.25735 98.268079,-32.5739 103.525389,-84.47657 5.25733,-51.90265 -32.57985,-98.26025 -84.48242,-103.51758 -3.24298,-0.32848 -6.466819,-0.49496 -9.660159,-0.49414 z m 4.19531,8.03711 c 0.39192,-0.0294 0.80952,-0.0296 1.25196,0.002 l 1.861319,0.13281 c 3.66964,0.26188 5.20988,2.13916 5,5.08008 l -0.56054,7.84571 c -0.17279,2.42132 -1.62436,4.0392 -4.26368,4.29492 l 2.60352,4.37304 c 32.48889,4.24773 55.52141,31.80445 55.52148,64.60938 -4.2e-4,7.3854 -2.16092,16.31261 -4.57617,23.23633 l 15.47852,26.63281 a 0.9992412,0.9992412 0 0 1 -0.0684,1.10743 l -4.23438,5.55078 a 0.9992412,0.9992412 0 0 1 -0.79492,0.39453 l -39.95508,0.0273 c -8.92141,4.41091 -20.97357,8.40422 -31.205069,8.4043 -10.42598,-2.3e-4 -20.36442,-4.07752 -29.20899,-8.51172 l -40.99609,-0.0176 a 0.9992412,0.9992412 0 0 1 -0.79688,-0.39648 l -3.92773,-5.19336 a 0.9992412,0.9992412 0 0 1 -0.0859,-1.07422 l 15.27539,-28.64453 c -2.47229,-6.75679 -5.61107,-13.88213 -5.61133,-21.51367 4.6e-4,-31.11187 21.01949,-57.91062 51.48828,-64.04884 l 6.2793,-11.53515 -0.75195,-9.94922 c -0.0207,-0.27319 0.13501,-0.45586 0.4082,-0.47656 l 2.75781,-0.20899 c 0.27319,-0.0207 0.45591,0.13503 0.47656,0.40821 l 0.54688,7.23242 3.42969,-0.0703 0.24023,-3.37109 c 0.17552,-2.45943 1.67454,-4.11447 4.41797,-4.32031 z m -16.13477,0.83398 c 0.17215,0.0263 0.29444,0.15229 0.33594,0.35352 l 0.49414,2.38867 c 0.0554,0.26832 -0.0774,0.46814 -0.3457,0.52344 l -2.86133,0.58984 c -0.26833,0.0554 -0.40104,0.25707 -0.3457,0.52539 l 2.53711,12.29102 c 0.0553,0.26832 -0.0774,0.46814 -0.34571,0.52344 l -2.70898,0.55859 c -0.26832,0.0554 -0.4681,-0.0754 -0.52344,-0.34375 l -2.53515,-12.29102 c -0.0554,-0.2683 -0.25708,-0.401 -0.52539,-0.3457 l -2.86133,0.58984 c -0.26832,0.0553 -0.4681,-0.0754 -0.52344,-0.34375 l -0.49414,-2.38867 c -0.0554,-0.26832 0.0774,-0.47009 0.3457,-0.52539 l 10.16992,-2.09765 c 0.0671,-0.0138 0.13012,-0.0166 0.1875,-0.008 z m 30.388679,0.91016 c 0.0579,-0.004 0.11974,0.003 0.18555,0.0215 l 2.45703,0.70899 c 0.16295,0.047 0.27175,0.14478 0.31445,0.27929 l 2.49805,10.11719 c 0.15623,0.58817 0.29387,1.38704 0.29687,1.56446 l 0.0996,0.0293 c 0.0713,-1.28291 0.44109,-3.36283 0.84961,-4.77929 l 1.48438,-5.15235 c 0.0759,-0.26326 0.28558,-0.37863 0.54882,-0.30273 l 2.65821,0.76758 c 0.26327,0.0759 0.37863,0.28558 0.30273,0.54882 l -4.43555,15.38086 c -0.0759,0.26318 -0.28558,0.37864 -0.54882,0.30274 l -2.43164,-0.70117 c -0.16296,-0.047 -0.26146,-0.13122 -0.31836,-0.31055 l -2.65625,-9.8086 c -0.14532,-0.62578 -0.22349,-1.2037 -0.20899,-1.2539 l -0.0996,-0.0293 c -0.006,0.77234 -0.33303,2.56495 -0.80664,4.20703 l -1.47851,5.12696 c -0.0759,0.26327 -0.2856,0.37863 -0.54883,0.30273 l -2.6582,-0.76562 c -0.26319,-0.0759 -0.37864,-0.2856 -0.30274,-0.54883 l 4.43555,-15.38089 c 0.0569,-0.19745 0.18962,-0.3113 0.36328,-0.32422 z m -13.238279,1.57617 c -1.04103,-0.0743 -1.74956,0.68744 -1.81836,1.65039 l -0.35156,4.91602 2.44726,4.11328 0.826169,0.0586 c 1.04103,0.0743 1.74866,-0.67247 1.81836,-1.64844 l 0.50391,-7.0664 c 0.0734,-1.02802 -0.53643,-1.81723 -1.56445,-1.89063 z m -34.05079,1.71289 c 0.085,0.0156 0.16103,0.0574 0.21875,0.13281 l 10.41797,13.39844 c 0.053,0.0633 0.0618,0.0866 0.0762,0.12305 0.0478,0.12141 -0.0132,0.21541 -0.19531,0.28711 l -3.01172,1.18554 c -0.13354,0.0525 -0.24198,0.025 -0.32617,-0.082 l -1.41601,-1.92382 c -0.0842,-0.1071 -0.15384,-0.10686 -0.33594,-0.0352 l -4.67383,1.83789 c -0.19424,0.0764 -0.23401,0.12013 -0.22266,0.25586 l 0.27539,2.37305 c 0.0113,0.13573 -0.0505,0.22954 -0.17187,0.27734 l -2.99805,1.17969 c -0.0986,0.0388 -0.17548,0.0445 -0.23633,0.0273 -0.0282,0.0997 -0.0975,0.18942 -0.20898,0.25781 l -9.74219,5.97461 c -0.14457,0.0887 -0.28722,0.0539 -0.34179,-0.0351 -0.0409,-0.0667 -0.0549,-0.0886 -0.0625,-0.17578 l -1.15625,-14.0879 c -0.0108,-0.19232 -0.0401,-0.31425 -0.0605,-0.34765 -0.0887,-0.1446 -0.23206,-0.17842 -0.44336,-0.0488 l -4.52539,2.77539 c -0.23355,0.14323 -0.4681,0.0871 -0.61133,-0.14648 l -1.25391,-2.04493 c -0.14322,-0.23354 -0.0871,-0.46809 0.14649,-0.61132 l 9.46289,-5.80274 c 0.17794,-0.10916 0.3117,-0.0696 0.38672,0.0527 0.0273,0.0445 0.0454,0.1264 0.0606,0.30078 l 1.12109,13.80469 c 0.008,0.16326 0.005,0.41038 0.0527,0.48828 0.0682,0.1112 0.24589,0.12475 0.42383,0.0156 l 4.80469,-2.94726 c 0.23354,-0.14323 0.46615,-0.0871 0.60937,0.14648 l 1.16602,1.90039 c -0.0337,-0.39807 -1.46484,-16.61914 -1.46484,-16.61914 -0.0183,-0.18907 0.105,-0.3365 0.28711,-0.4082 l 3.67968,-1.44727 c 0.091,-0.0358 0.18453,-0.0469 0.26953,-0.0312 z m -0.27539,4.82813 -0.42382,0.16797 0.13476,0.52148 0.6543,5.79883 c 0.0257,0.1721 0.12523,0.2442 0.34375,0.1582 l 2.85351,-1.12305 c 0.21851,-0.086 0.25282,-0.21002 0.1543,-0.35351 l -3.46094,-4.69531 z m 27.25196,0.85351 a 3.1965764,3.1965764 0 0 0 -0.12305,0.002 3.1965764,3.1965764 0 0 0 -2.72461,1.68554 l -17.9375,33.44141 a 3.1964801,3.1964801 0 0 0 -1.75195,1.75586 l -2.5293,6.22656 -43.65039,81.38477 a 3.1965764,3.1965764 0 0 0 2.81055,4.70703 l 137.345699,0.20899 a 3.1965764,3.1965764 0 0 0 2.76758,-4.80274 l -47.02734,-80.93946 -3.53907,-7.96484 a 3.1964801,3.1964801 0 0 0 -2.05273,-1.7793 l -0.082,-0.0234 -18.773439,-32.31055 a 3.1965764,3.1965764 0 0 0 -2.73242,-1.5918 z m 44.193359,0.24414 c 0.10594,-0.0229 0.22274,2e-5 0.33789,0.0742 l 5.6582,3.64649 c 2.80734,1.80912 3.40355,4.56885 1.69336,7.22265 -0.9823,1.5243 -2.30866,2.28338 -4.06445,2.23828 -0.15206,-0.005 -0.25014,0.0256 -0.30664,0.11328 -0.0565,0.0877 -0.0759,0.16842 -0.0996,0.27735 l -1.22266,6.61523 c -0.0497,0.29389 -0.0977,0.46504 -0.1543,0.55274 -0.0565,0.0879 -0.19954,0.11893 -0.375,0.006 l -2.65429,-1.71094 c -0.0878,-0.0565 -0.13032,-0.16045 -0.10742,-0.31641 l 1.18359,-6.53125 c 0.0268,-0.13793 -0.0322,-0.23913 -0.13086,-0.30273 l -1.89648,-1.22266 c -0.23029,-0.14841 -0.4649,-0.0975 -0.61328,0.13281 l -3.05274,4.73633 c -0.1484,0.23027 -0.38299,0.28122 -0.61328,0.13282 l -2.32617,-1.49805 c -0.23027,-0.14841 -0.28123,-0.38299 -0.13281,-0.61328 l 8.60156,-13.34571 c 0.0742,-0.11513 0.16944,-0.18412 0.27539,-0.20703 z m -44.238289,1.16992 a 1.9976618,1.9976618 0 0 1 0.0488,0 1.9976618,1.9976618 0 0 1 1.99609,1.99805 1.9976618,1.9976618 0 0 1 -1.99609,1.9961 1.9976618,1.9976618 0 0 1 -1.99805,-1.9961 1.9976618,1.9976618 0 0 1 1.94921,-1.99805 z m 45.507819,3.60547 c -0.10595,0.0229 -0.20314,0.0919 -0.27734,0.20703 l -1.5254,2.36915 c -0.14841,0.23029 -0.0975,0.46487 0.13282,0.61328 l 2.62109,1.68945 c 0.8444,0.54415 1.91622,0.39579 2.41797,-0.38281 l 0.24805,-0.38282 c 0.50175,-0.77859 0.20616,-1.79131 -0.66016,-2.3496 l -2.62109,-1.68946 c -0.11515,-0.0742 -0.23,-0.0971 -0.33594,-0.0742 z m -96.689459,2.67578 c 0.10781,0.0112 0.21056,0.0714 0.29688,0.17774 l 10.08594,12.42969 c 0.17263,0.21273 0.14827,0.45041 -0.0645,0.62304 l -2.14843,1.74414 c -0.21273,0.17265 -0.45042,0.14633 -0.62305,-0.0664 l -10.08594,-12.42774 c -0.17264,-0.21272 -0.14827,-0.45236 0.0645,-0.625 l 2.14649,-1.74218 c 0.10636,-0.0863 0.22031,-0.1245 0.32812,-0.11329 z m 51.30665,2.05469 12.582029,21.65625 -10.874999,-3.07031 a 3.1964801,3.1964801 0 0 0 -0.91211,-0.11914 3.1964801,3.1964801 0 0 0 -0.94727,0.15625 l -11.91797,3.88281 z m 58.308589,0.37305 c 0.10837,-0.002 0.21765,0.0438 0.31641,0.13867 l 7.35547,7.07031 c 0.19751,0.18986 0.20353,0.42945 0.0137,0.62696 l -1.69141,1.75976 c -0.18986,0.19751 -0.42943,0.20158 -0.62695,0.0117 l -4.72266,-4.53906 c -0.19752,-0.18986 -0.4371,-0.18384 -0.62695,0.0137 l -1.68945,1.75781 c -0.18986,0.19751 -0.18581,0.4371 0.0117,0.62696 l 3.875,3.72461 c 0.19751,0.18985 0.20353,0.42943 0.0137,0.62695 l -1.69141,1.75976 c -0.18986,0.19751 -0.42944,0.20157 -0.62695,0.0117 l -3.875,-3.72461 c -0.19752,-0.18986 -0.43711,-0.18384 -0.62696,0.0137 l -1.78125,1.85156 c -0.18985,0.19751 -0.18579,0.43709 0.0117,0.62695 l 4.72266,4.53906 c 0.19751,0.18985 0.20157,0.42944 0.0117,0.62696 l -1.69141,1.75976 c -0.18985,0.19751 -0.42943,0.20157 -0.62695,0.0117 l -7.35547,-7.07031 c -0.19751,-0.18985 -0.20158,-0.42943 -0.0117,-0.62695 l 11.00195,-11.44532 c 0.0949,-0.0987 0.20218,-0.1502 0.31055,-0.15234 z m -115.439449,4.27734 c 1.27823,-0.0683 2.56382,0.43802 3.7246,1.50782 1.33346,1.22893 1.85304,2.66656 1.50782,4.38867 -0.0309,0.14898 -0.0162,0.24961 0.0605,0.32031 0.0768,0.0707 0.15064,0.10458 0.25391,0.14648 l 6.30859,2.33789 c 0.28103,0.0993 0.44278,0.1754 0.51954,0.2461 0.0767,0.0707 0.0809,0.2176 -0.0606,0.37109 l -2.13867,2.32227 c -0.0707,0.0768 -0.18035,0.1 -0.33008,0.0508 l -6.23242,-2.28516 c -0.1313,-0.05 -0.24075,-0.008 -0.32032,0.0781 l -1.52929,1.6582 c -0.18568,0.20145 -0.17607,0.44128 0.0254,0.62695 l 4.14453,3.82032 c 0.20145,0.18566 0.21106,0.42549 0.0254,0.62695 l -1.875,2.0332 c -0.18567,0.20149 -0.4255,0.21105 -0.62695,0.0254 l -11.67376,-10.75976 c -0.20146,-0.18566 -0.21106,-0.4255 -0.0254,-0.62696 l 4.56054,-4.94921 c 1.13169,-1.22794 2.40341,-1.87116 3.68165,-1.93946 z m 0.33593,3.51953 c -0.53463,-0.0525 -1.10838,0.17087 -1.54492,0.64454 l -2.11328,2.29296 c -0.18567,0.20146 -0.17411,0.44129 0.0273,0.62696 l 2.07227,1.91015 c 0.20146,0.18563 0.43933,0.17607 0.625,-0.0254 l 2.11328,-2.29297 c 0.68077,-0.73868 0.72018,-1.82148 0.0391,-2.44921 l -0.33593,-0.3086 c -0.25543,-0.2354 -0.56204,-0.36694 -0.88282,-0.39844 z m 125.328129,5.00977 c 1.49747,-0.0238 2.97926,0.81046 4.25195,2.63672 l 1.06641,1.53125 c 2.10345,3.01833 1.61425,5.39434 -0.80469,7.08008 l -6.45508,4.49804 c -2.32262,1.61861 -4.57808,1.02816 -6.22656,-0.8125 -0.11837,-0.1243 -0.23867,-0.13514 -0.3457,-0.0605 l -1.58399,1.10351 c -0.20336,0.14169 -0.33112,0.0717 -0.43554,-0.0781 l -1.71485,-2.46094 c -0.097,-0.13915 -0.10375,-0.26258 0.0996,-0.4043 l 1.58399,-1.10351 c 0.0963,-0.0671 0.13492,-0.17399 0.0742,-0.30664 -1.26703,-2.29731 -1.05278,-4.4975 1.35546,-6.17578 l 6.46485,-4.50586 c 0.86696,-0.60419 1.77144,-0.92713 2.66992,-0.94141 z m 0.0566,3.8125 c -0.3297,0.0229 -0.66196,0.14262 -0.95898,0.34961 l -5.8125,4.05078 c -0.84556,0.58927 -1.07364,1.56069 -0.48438,2.40625 l 1.06641,1.5293 c 0.59673,0.85626 1.62304,0.93638 2.42578,0.37695 l 5.81055,-4.04883 c 0.84556,-0.58926 1.07559,-1.56069 0.48632,-2.40625 l -1.0664,-1.53125 c -0.37296,-0.53516 -0.9173,-0.76476 -1.4668,-0.72656 z m -136.558599,0.75195 c 0.88668,-0.036 1.81207,0.24691 2.75977,0.81641 l 6.74219,4.05273 c 2.42655,1.45819 3.11098,3.9682 1.2832,7.00977 l -0.96094,1.59961 c -1.89497,3.15339 -4.26578,3.67687 -6.79297,2.1582 l -6.74218,-4.05078 c -2.41537,-1.45146 -3.10903,-3.97015 -1.28125,-7.01172 l 0.96093,-1.59961 c 1.18436,-1.97087 2.55346,-2.91466 4.03125,-2.97461 z m 68.74219,2.01953 a 1.9976618,1.9976618 0 0 1 0.002,0 1.9976618,1.9976618 0 0 1 0.0469,0 1.9976618,1.9976618 0 0 1 1.99805,1.99805 1.9976618,1.9976618 0 0 1 -1.99805,1.99805 1.9976618,1.9976618 0 0 1 -1.99805,-1.99805 1.9976618,1.9976618 0 0 1 1.94922,-1.99805 z m -68.53515,1.83399 c -0.54947,0.003 -1.05689,0.2838 -1.38868,0.83594 l -0.96093,1.59961 c -0.53759,0.89457 -0.17905,1.86993 0.64843,2.36718 l 6.07227,3.64844 c 0.8834,0.53086 1.86367,0.34433 2.39453,-0.53906 l 0.96094,-1.59961 c 0.53758,-0.89458 0.19023,-1.8632 -0.64844,-2.36719 l -6.07226,-3.65039 c -0.33128,-0.19907 -0.67618,-0.29666 -1.00586,-0.29492 z m 68.66601,3.4043 16.294929,4.60156 4.20117,7.23047 2.76562,6.2207 -1.94336,8.52344 a 3.1964801,3.1964801 0 0 0 -1.52148,-2.2793 l -6.61133,-3.94922 a 3.1964801,3.1964801 0 0 0 -1.63477,-0.45117 3.1964801,3.1964801 0 0 0 -1.66015,0.46094 l -6.183589,3.74804 a 3.1964801,3.1964801 0 0 0 -1.25586,4.04688 l 3.12109,6.91797 a 3.1964801,3.1964801 0 0 0 2.917969,1.88281 l 5.75195,-0.008 a 3.1964801,3.1964801 0 0 0 2.75391,-1.58399 l 3.80273,-6.50586 -1.79687,7.87891 a 3.1964801,3.1964801 0 0 0 0.31836,2.25391 l 1.75976,3.19141 -6.99023,2.41601 a 3.1964801,3.1964801 0 0 0 -2.11133,2.51563 l -0.58594,3.66992 -20.812499,-0.0644 -0.55859,-3.09375 a 3.1964801,3.1964801 0 0 0 -2.29102,-2.50977 l -7.71289,-2.14062 1.39844,-3.02539 a 3.1964801,3.1964801 0 0 0 0.17187,-2.22462 l -5.25,-18.25586 3.41211,-8.40039 2.90625,-5.41601 z m 19.527349,0.43164 a 1.9976618,1.9976618 0 0 1 0.0469,0 1.9976618,1.9976618 0 0 1 1.99805,1.99804 1.9976618,1.9976618 0 0 1 -1.99805,1.9961 1.9976618,1.9976618 0 0 1 -1.99609,-1.9961 1.9976618,1.9976618 0 0 1 1.94922,-1.99804 z m -40.123049,1.00195 a 1.9976618,1.9976618 0 0 1 0.0488,0 1.9976618,1.9976618 0 0 1 1.99609,1.99805 1.9976618,1.9976618 0 0 1 -1.99609,1.99609 1.9976618,1.9976618 0 0 1 -1.99805,-1.99609 1.9976618,1.9976618 0 0 1 1.94922,-1.99805 z m 98.919919,0.31641 c 0.17396,-0.008 0.32014,0.0901 0.40039,0.27929 l 1.08008,2.54688 c 0.10701,0.2522 0.0178,0.47307 -0.23437,0.58008 l -10.68946,4.5371 c -0.94883,0.40257 -1.37328,1.30515 -0.9707,2.25391 l 0.72852,1.7168 c 0.40767,0.96071 1.38911,1.23931 2.29492,0.86914 l 10.68945,-4.53516 c 0.2522,-0.10701 0.47502,-0.0178 0.58203,0.23438 l 1.08008,2.54492 c 0.10702,0.2522 0.0178,0.47502 -0.23438,0.58203 l -11.04882,4.68945 c -2.60608,1.10581 -5.0397,0.18067 -6.42578,-3.08593 l -0.72852,-1.7168 c -1.43703,-3.3867 -0.45606,-5.6171 2.24609,-6.76367 l 11.04883,-4.6875 c 0.063,-0.0268 0.12366,-0.0422 0.18164,-0.0449 z m -157.019529,5.48437 c 0.058,-10e-4 0.12075,0.009 0.18555,0.0312 l 15.14453,5.18555 c 0.2592,0.0887 0.36412,0.30331 0.27539,0.5625 l -0.89453,2.61718 c -0.0887,0.25919 -0.30526,0.3641 -0.56446,0.2754 l -5.76367,-1.97266 c -0.2592,-0.0887 -0.47377,0.0162 -0.5625,0.27539 l -1.54297,4.50586 c -0.0887,0.25919 0.0162,0.4738 0.27539,0.5625 l 5.76368,1.97266 c 0.25919,0.0887 0.36607,0.30525 0.27734,0.56445 l -0.89649,2.61719 c -0.0887,0.2592 -0.3033,0.36409 -0.5625,0.27539 l -15.14453,-5.18555 c -0.25919,-0.0887 -0.36607,-0.3033 -0.27734,-0.5625 l 0.89648,-2.61719 c 0.0887,-0.25919 0.30331,-0.36409 0.5625,-0.27539 l 5.39454,1.8457 c 0.25919,0.0887 0.47376,-0.0162 0.5625,-0.27539 l 1.54296,-4.50586 c 0.0887,-0.25919 -0.0162,-0.4738 -0.27539,-0.5625 l -5.39453,-1.8457 c -0.2592,-0.0887 -0.36412,-0.30526 -0.27539,-0.56445 l 0.89649,-2.61719 c 0.0666,-0.19438 0.20286,-0.30224 0.37695,-0.30664 z m 163.119139,10.59961 c 0.17328,0.0174 0.30169,0.13516 0.35352,0.33398 l 0.69922,2.67579 c 0.0691,0.26509 -0.0533,0.47191 -0.31836,0.54101 l -15.48828,4.03906 c -0.26509,0.0691 -0.47192,-0.0513 -0.54102,-0.3164 l -0.69922,-2.67578 c -0.0691,-0.2651 0.0533,-0.47192 0.31836,-0.54102 l 15.48828,-4.04102 c 0.0663,-0.0173 0.12974,-0.0214 0.1875,-0.0156 z m -95.207029,1.58789 v 0.002 a 3.1964801,3.1964801 0 0 0 -1.66211,0.46094 l -6.18359,3.74805 a 3.1964801,3.1964801 0 0 0 -1.25586,4.04687 l 3.12109,6.91797 a 3.1964801,3.1964801 0 0 0 2.91797,1.88281 l 5.75195,-0.008 a 3.1964801,3.1964801 0 0 0 2.75391,-1.58398 l 3.91992,-6.70899 a 3.1964801,3.1964801 0 0 0 -1.11914,-4.35547 l -6.61133,-3.94921 a 3.1964801,3.1964801 0 0 0 -1.63281,-0.45313 z m -0.008,1.29492 a 1.9976618,1.9976618 0 0 1 0.0488,0 1.9976618,1.9976618 0 0 1 1.9961,1.99805 1.9976618,1.9976618 0 0 1 -1.9961,1.99805 1.9976618,1.9976618 0 0 1 -1.99804,-1.99805 1.9976618,1.9976618 0 0 1 1.94922,-1.99805 z m 22.335939,0.47266 a 1.9976618,1.9976618 0 0 1 0.0469,0 1.9976618,1.9976618 0 0 1 1.99805,1.99805 1.9976618,1.9976618 0 0 1 -1.99805,1.99804 1.9976618,1.9976618 0 0 1 -1.99609,-1.99804 1.9976618,1.9976618 0 0 1 1.94922,-1.99805 z m -95.1191488,2.89062 2.4179698,0.33203 c 0.27142,0.0373 0.41617,0.22857 0.37891,0.5 l -0.39844,2.89454 c -0.0373,0.27143 0.10944,0.4628 0.38086,0.5 l 12.43359,1.70703 c 0.27142,0.0373 0.41617,0.22858 0.37891,0.5 l -0.37695,2.73828 c -0.0373,0.27143 -0.22858,0.41806 -0.5,0.38086 l -12.4336,-1.70703 c -0.27142,-0.0372 -0.46274,0.10747 -0.5,0.3789 l -0.39648,2.89453 c -0.0373,0.27143 -0.22858,0.41611 -0.5,0.37891 l -2.4160198,-0.33203 c -0.27142,-0.0373 -0.41812,-0.22663 -0.38086,-0.49805 l 1.41211,-10.28906 c 0.0373,-0.27142 0.22858,-0.41611 0.5,-0.37891 z m 66.6386698,0.29688 a 1.9976618,1.9976618 0 0 1 0.0488,0 1.9976618,1.9976618 0 0 1 1.9961,1.99805 1.9976618,1.9976618 0 0 1 -1.9961,1.99804 1.9976618,1.9976618 0 0 1 -1.99804,-1.99804 1.9976618,1.9976618 0 0 1 1.94921,-1.99805 z m 12.63868,0.2207 a 1.9976618,1.9976618 0 0 1 0.0469,0 1.9976618,1.9976618 0 0 1 1.99805,1.99805 1.9976618,1.9976618 0 0 1 -1.99805,1.99805 1.9976618,1.9976618 0 0 1 -1.99609,-1.99805 1.9976618,1.9976618 0 0 1 1.94922,-1.99805 z m 9.69726,0.25195 a 1.9976618,1.9976618 0 0 1 0.0469,0 1.9976618,1.9976618 0 0 1 1.998049,1.99805 1.9976618,1.9976618 0 0 1 -1.998049,1.99805 1.9976618,1.9976618 0 0 1 -1.99609,-1.99805 1.9976618,1.9976618 0 0 1 1.94921,-1.99805 z m 12.636719,0.22071 a 1.9976618,1.9976618 0 0 1 0.0488,0 1.9976618,1.9976618 0 0 1 1.99805,1.99804 1.9976618,1.9976618 0 0 1 -1.99805,1.99805 1.9976618,1.9976618 0 0 1 -1.99805,-1.99805 1.9976618,1.9976618 0 0 1 1.94922,-1.99804 z m 10.17383,0.0371 36.68945,63.15039 -126.449219,-0.18945 33.17578,-61.85352 3.48633,12.12891 -2.47656,5.35937 a 3.1964801,3.1964801 0 0 0 2.04688,4.42188 l 9.40429,2.60938 0.67383,3.73828 a 3.1964801,3.1964801 0 0 0 2.41406,2.54296 v 3.125 a 3.1962568,3.1962568 0 0 0 3.19727,3.19532 3.1962568,3.1962568 0 0 0 3.19726,-3.19532 v -3.02148 l 0.73633,0.002 v 2.94727 c -5.6e-4,1.76604 1.43123,3.19783 3.19727,3.19726 1.76545,-2.7e-4 3.19587,-1.43181 3.19531,-3.19726 v -2.92774 l 0.69922,0.002 v 2.7832 c 2.7e-4,1.76486 1.43045,3.197 3.19531,3.19727 1.76486,-2.7e-4 3.196999,-1.43241 3.197269,-3.19727 v -2.76367 l 0.80078,0.002 v 3.01758 a 3.1962568,3.1962568 0 0 0 3.19727,3.19727 3.1962568,3.1962568 0 0 0 3.19726,-3.19727 v -3.11914 a 3.1964801,3.1964801 0 0 0 2.28711,-2.57227 l 0.71484,-4.47851 8.76758,-3.0293 a 3.1964801,3.1964801 0 0 0 1.75586,-4.56445 l -3.0039,-5.45118 z m 57.9668,0.88867 c 0.27229,-0.0303 0.45983,0.11834 0.49023,0.39062 l 0.74414,6.68946 c 0.36997,3.31922 -1.39159,5.52528 -4.52929,5.875 -1.80223,0.20088 -3.22894,-0.34839 -4.30274,-1.73828 -0.0923,-0.12098 -0.17752,-0.17762 -0.28125,-0.16602 -0.10372,0.0115 -0.17794,0.0452 -0.27734,0.0957 l -5.90235,3.23048 c -0.25928,0.14705 -0.42165,0.21887 -0.52539,0.23047 -0.10372,0.0116 -0.21908,-0.0816 -0.24218,-0.28907 l -0.34961,-3.13672 c -0.0116,-0.10373 0.0423,-0.2025 0.17773,-0.2832 l 5.8125,-3.20703 c 0.12387,-0.0663 0.16534,-0.17628 0.15235,-0.29297 l -0.25,-2.24219 c -0.0304,-0.27228 -0.21796,-0.42298 -0.49024,-0.39258 l -5.60156,0.625 c -0.27228,0.0303 -0.45984,-0.12031 -0.49024,-0.39258 l -0.30664,-2.74804 c -0.0303,-0.27228 0.1203,-0.45984 0.39258,-0.49024 z m -96.955079,0.35351 2.24219,1.33985 -1.39844,2.39258 -1.85352,0.002 -1.10742,-2.45117 z m 22.333979,0.47266 2.24414,1.33984 -1.40039,2.39258 -1.85351,0.002 -1.10547,-2.45118 z m 71.71875,3.17188 -2.80078,0.3125 c -0.27228,0.0303 -0.42102,0.21795 -0.39062,0.49023 l 0.34375,3.09766 c 0.11128,0.99836 0.90365,1.73737 1.82422,1.63476 l 0.45312,-0.0508 c 0.92056,-0.1026 1.52042,-0.96985 1.40625,-1.99414 l -0.3457,-3.09961 c -0.0303,-0.27228 -0.21796,-0.42102 -0.49024,-0.39062 z m -91.345699,1.45703 a 1.9976618,1.9976618 0 0 1 0.0488,0 1.9976618,1.9976618 0 0 1 1.99609,1.99804 1.9976618,1.9976618 0 0 1 -1.99609,1.99805 1.9976618,1.9976618 0 0 1 -1.99805,-1.99805 1.9976618,1.9976618 0 0 1 1.94922,-1.99804 z m -5.9668,0.0332 a 1.9976618,1.9976618 0 0 1 0.0488,0 1.9976618,1.9976618 0 0 1 1.99805,1.99805 1.9976618,1.9976618 0 0 1 -1.99805,1.99804 1.9976618,1.9976618 0 0 1 -1.99805,-1.99804 1.9976618,1.9976618 0 0 1 1.94922,-1.99805 z m 28.302739,0.43945 a 1.9976618,1.9976618 0 0 1 0.0469,0 1.9976618,1.9976618 0 0 1 1.99805,1.99805 1.9976618,1.9976618 0 0 1 -1.99805,1.99805 1.9976618,1.9976618 0 0 1 -1.99609,-1.99805 1.9976618,1.9976618 0 0 1 1.94922,-1.99805 z m -5.9668,0.0332 a 1.9976618,1.9976618 0 0 1 0.002,0 1.9976618,1.9976618 0 0 1 0.0469,0 1.9976618,1.9976618 0 0 1 1.99805,1.99804 1.9976618,1.9976618 0 0 1 -1.99805,1.99805 1.9976618,1.9976618 0 0 1 -1.998049,-1.99805 1.9976618,1.9976618 0 0 1 1.949219,-1.99804 z m -8.271479,1.46093 a 3.1964801,3.1964801 0 0 0 -2.58204,1.32618 l -4.25,5.89844 a 3.1961605,3.1961605 0 0 0 0.72461,4.46094 3.1961605,3.1961605 0 0 0 4.46094,-0.72461 l 1.65821,-2.29883 1.65039,2.28711 a 3.1961605,3.1961605 0 0 0 4.46093,0.72461 3.1961605,3.1961605 0 0 0 0.722659,-4.46094 l -4.242189,-5.88672 a 3.1964801,3.1964801 0 0 0 -2.60351,-1.32618 z m -0.0469,1.16993 a 1.9976618,1.9976618 0 0 1 0.002,0 1.9976618,1.9976618 0 0 1 0.0469,0 1.9976618,1.9976618 0 0 1 1.99805,1.99804 1.9976618,1.9976618 0 0 1 -1.99805,1.99805 1.9976618,1.9976618 0 0 1 -1.99805,-1.99805 1.9976618,1.9976618 0 0 1 1.94922,-1.99804 z m -73.47852,4.45117 c 2.8269,-0.15203 4.79967,1.54646 4.99024,5.08985 l 0.0996,1.86132 c 0.19758,3.67367 -1.48491,5.43807 -4.41602,5.59571 l -11.9843698,0.64453 c -0.27357,0.0147 -0.45209,-0.14634 -0.4668,-0.41992 l -0.14844,-2.76172 c -0.0147,-0.27357 0.14635,-0.4521 0.41993,-0.4668 l 11.5937498,-0.62305 c 1.02914,-0.0553 1.73503,-0.75991 1.67968,-1.78906 l -0.0996,-1.86328 c -0.056,-1.04217 -0.88554,-1.63716 -1.86328,-1.59766 L 8.1810012,879.9069 c -0.27357,0.0147 -0.45209,-0.14635 -0.46679,-0.41992 l -0.14844,-2.76172 c -0.0147,-0.27357 0.14635,-0.4521 0.41992,-0.4668 z m 77.73048,1.51953 a 1.9976618,1.9976618 0 0 1 0.0488,0 1.9976618,1.9976618 0 0 1 1.99805,1.9961 1.9976618,1.9976618 0 0 1 -1.99805,1.99804 1.9976618,1.9976618 0 0 1 -1.99804,-1.99804 1.9976618,1.9976618 0 0 1 1.94922,-1.9961 z m -8.54883,0.0117 a 1.9976618,1.9976618 0 0 1 0.0469,0 1.9976618,1.9976618 0 0 1 1.99805,1.99805 1.9976618,1.9976618 0 0 1 -1.99805,1.99805 1.9976618,1.9976618 0 0 1 -1.99609,-1.99805 1.9976618,1.9976618 0 0 1 1.94922,-1.99805 z m 75.990229,1.30664 15.82227,1.32032 c 0.27302,0.0228 0.42709,0.20549 0.40429,0.47851 l -0.84765,10.16602 c -0.0228,0.27302 -0.2055,0.42905 -0.47852,0.40625 l -2.43164,-0.20313 c -0.27301,-0.0228 -0.42709,-0.20549 -0.4043,-0.47851 l 0.54297,-6.52735 c 0.0228,-0.27301 -0.13128,-0.45571 -0.40429,-0.47851 l -2.43164,-0.20313 c -0.27302,-0.0228 -0.45572,0.13128 -0.47852,0.4043 l -0.44726,5.35742 c -0.0228,0.27302 -0.2055,0.4271 -0.47852,0.4043 l -2.43164,-0.20313 c -0.27302,-0.0228 -0.4271,-0.20549 -0.4043,-0.47851 l 0.44727,-5.35547 c 0.0228,-0.27302 -0.13324,-0.45767 -0.40625,-0.48047 l -2.56055,-0.21289 c -0.27302,-0.0228 -0.45572,0.13128 -0.47851,0.4043 l -0.54493,6.52734 c -0.0228,0.27302 -0.2055,0.4271 -0.47851,0.4043 l -2.43164,-0.20313 c -0.27302,-0.0228 -0.4271,-0.20549 -0.4043,-0.47851 l 0.84766,-10.16602 c 0.0228,-0.27302 0.20549,-0.4271 0.47851,-0.4043 z m -46.48242,0.0254 a 1.9976618,1.9976618 0 0 1 0.002,0 1.9976618,1.9976618 0 0 1 0.0469,0 1.9976618,1.9976618 0 0 1 1.99804,1.99805 1.9976618,1.9976618 0 0 1 -1.99804,1.99805 1.9976618,1.9976618 0 0 1 -1.99805,-1.99805 1.9976618,1.9976618 0 0 1 1.94922,-1.99805 z m -49.533209,1.125 a 1.9976618,1.9976618 0 0 1 0.0469,0 1.9976618,1.9976618 0 0 1 1.99805,1.9961 1.9976618,1.9976618 0 0 1 -1.99805,1.99804 1.9976618,1.9976618 0 0 1 -1.99609,-1.99804 1.9976618,1.9976618 0 0 1 1.94921,-1.9961 z m 28.85938,8.70508 a 1.9976618,1.9976618 0 0 1 0.0488,0 1.9976618,1.9976618 0 0 1 1.998049,1.99805 1.9976618,1.9976618 0 0 1 -1.998049,1.99805 1.9976618,1.9976618 0 0 1 -1.99805,-1.99805 1.9976618,1.9976618 0 0 1 1.94922,-1.99805 z m -7.0918,0.14258 a 1.9976618,1.9976618 0 0 1 0.0488,0 1.9976618,1.9976618 0 0 1 1.99805,1.99805 1.9976618,1.9976618 0 0 1 -1.99805,1.99804 1.9976618,1.9976618 0 0 1 -1.99805,-1.99804 1.9976618,1.9976618 0 0 1 1.94922,-1.99805 z m -7.1289,0.0723 a 1.9976618,1.9976618 0 0 1 0.0488,0 1.9976618,1.9976618 0 0 1 1.9961,1.99804 1.9976618,1.9976618 0 0 1 -1.9961,1.99805 1.9976618,1.9976618 0 0 1 -1.99804,-1.99805 1.9976618,1.9976618 0 0 1 1.94922,-1.99804 z m 21.416009,0.041 a 1.9976618,1.9976618 0 0 1 0.0469,0 1.9976618,1.9976618 0 0 1 1.99805,1.99805 1.9976618,1.9976618 0 0 1 -1.99805,1.99805 1.9976618,1.9976618 0 0 1 -1.99609,-1.99805 1.9976618,1.9976618 0 0 1 1.94921,-1.99805 z m -80.265619,0.11133 c 0.12618,-0.0331 0.21396,0.0373 0.26367,0.22656 l 0.82226,3.12891 c 0.0365,0.1388 -0.005,0.2454 -0.12109,0.3164 l -2.07812,1.17969 c -0.11624,0.071 -0.12393,0.13887 -0.0742,0.32813 l 1.27539,4.85937 c 0.053,0.20185 0.0924,0.245 0.22851,0.25 l 2.38868,0.006 c 0.13612,0.005 0.22271,0.077 0.25585,0.20313 l 0.81836,3.11718 c 0.0497,0.18927 0.0129,0.30675 -0.11328,0.33985 -0.0631,0.0165 -0.18223,0.0207 -0.25195,0.0117 -0.0412,-0.003 -16.85938,-0.50782 -16.85938,-0.50782 -0.1899,-0.004 -0.32138,-0.14471 -0.37109,-0.33398 l -1.00391,-3.82422 c -0.0497,-0.18928 -0.005,-0.37576 0.15821,-0.47266 l 14.53125,-8.76757 c 0.0691,-0.0451 0.093,-0.0506 0.13086,-0.0606 z m 138.792969,2.72656 c 0.0579,-0.004 0.11975,0.003 0.18554,0.0215 l 15.25977,4.38672 c 0.26328,0.0757 0.38039,0.28551 0.30469,0.54882 l -1.91016,6.64453 c -0.98747,3.4355 -3.41771,4.76111 -6.43945,3.89258 l -6.2832,-1.80664 c -3.02174,-0.86853 -4.37448,-3.29384 -3.39063,-6.71679 l 1.91016,-6.64454 c 0.0568,-0.19745 0.18963,-0.31308 0.36328,-0.32617 z m -106.900389,1.10352 -2.29883,1.67773 -0.77149,4.91797 8.07032,1.26563 0.61523,2.6914 -1.41016,2.37696 -8.06836,-1.26368 -0.77148,4.91797 1.67578,2.29883 10.67969,1.67383 2.0957,-1.52735 1.58594,-2.22656 5.66211,0.88672 -0.73047,1.32813 0.23437,0.80859 -18.61328,5.40234 -1.65234,3.00586 3.00391,1.65235 18.61328,-5.40235 0.23437,0.80664 2.49414,1.37305 15.4629,-4.49023 2.34179,-0.67969 0.79492,-0.23047 0.21289,-0.0625 24.261719,3.80273 0.83008,2.60547 1.52539,2.09571 10.68164,1.67382 2.29883,-1.67578 0.77149,-4.91992 -8.06836,-1.26367 -0.61719,-2.69336 1.41211,-2.37695 8.0664,1.26562 0.77149,-4.91797 -1.67383,-2.30078 -10.68164,-1.67383 -2.0957,1.5293 -1.58789,2.22461 -6.96485,-1.08398 -0.20117,-0.69727 18.61133,-5.40234 1.6543,-3.00391 -3.00586,-1.6543 -18.61133,5.40235 -0.23633,-0.80664 -2.49219,-1.3711 -15.390619,4.4668 -25.68165,-4.04883 -0.82812,-2.60742 -1.52734,-2.09375 z m 41.20703,2 a 1.9976618,1.9976618 0 0 1 0.0488,0 1.9976618,1.9976618 0 0 1 1.996089,1.99609 1.9976618,1.9976618 0 0 1 -1.996089,1.99805 1.9976618,1.9976618 0 0 1 -1.99805,-1.99805 1.9976618,1.9976618 0 0 1 1.94922,-1.99609 z m -40.69922,0.10351 9.04492,1.41797 0.84961,1.16406 1.10547,3.47071 22.69531,3.58008 4.64258,0.73242 0.48047,0.0762 14.830079,2.31055 3.29687,0.51367 8.81446,1.37305 2.11523,-2.96876 1.16602,-0.84765 9.04296,1.41797 0.70118,0.95898 -0.33399,2.12696 -7.42969,-1.16407 -2.51171,4.22657 1.09765,4.79101 7.43164,1.16602 -0.33398,2.12695 -0.96094,0.69922 -9.04492,-1.41797 -0.84961,-1.16406 -1.10547,-3.47266 -0.60937,-0.0957 -20.6543,-3.23633 -5.767579,-0.9043 -0.25977,-0.041 -0.0879,-0.0137 -2.36719,-0.3711 -11.45117,-1.79492 h -0.002 l -4.65625,-0.72852 -8.9043,-1.39648 -2.11523,2.9668 -1.16406,0.84765 -9.04493,-1.41601 -0.69921,-0.96094 0.33203,-2.12695 7.42968,1.16406 2.51172,-4.22656 -1.09765,-4.79102 -7.42969,-1.16601 0.33203,-2.12696 z m 33.60742,0.0371 a 1.9976618,1.9976618 0 0 1 0.0469,0 1.9976618,1.9976618 0 0 1 1.99805,1.99805 1.9976618,1.9976618 0 0 1 -1.99805,1.99805 1.9976618,1.9976618 0 0 1 -1.99609,-1.99805 1.9976618,1.9976618 0 0 1 1.94922,-1.99805 z m -7.13086,0.0723 a 1.9976618,1.9976618 0 0 1 0.002,0 1.9976618,1.9976618 0 0 1 0.0469,0 1.9976618,1.9976618 0 0 1 1.99805,1.99804 1.9976618,1.9976618 0 0 1 -1.99805,1.99805 1.9976618,1.9976618 0 0 1 -1.99805,-1.99805 1.9976618,1.9976618 0 0 1 1.94922,-1.99804 z m 21.416019,0.041 a 1.9976618,1.9976618 0 0 1 0.0488,0 1.9976618,1.9976618 0 0 1 1.99804,1.99805 1.9976618,1.9976618 0 0 1 -1.99804,1.99805 1.9976618,1.9976618 0 0 1 -1.99805,-1.99805 1.9976618,1.9976618 0 0 1 1.94922,-1.99805 z m -84.671879,0.66993 c -0.0339,0.003 -0.0709,0.0149 -0.10937,0.0352 l -5.07032,2.88281 -0.5,0.19922 0.11524,0.44141 0.53515,-0.0723 5.83594,0.0312 c 0.17398,-0.005 0.25692,-0.0951 0.19727,-0.32226 l -0.77735,-2.96485 c -0.0447,-0.17032 -0.12477,-0.24011 -0.22656,-0.23046 z m 145.359379,0.40234 c -0.17364,0.0131 -0.30455,0.12869 -0.36133,0.32617 l -0.91211,3.17188 c -0.28471,0.99053 0.14713,1.94367 1.21289,2.25 l 6.24414,1.79492 c 1.06577,0.30633 1.97507,-0.26143 2.25977,-1.25195 l 0.91211,-3.17188 c 0.0757,-0.26331 -0.0414,-0.47313 -0.30469,-0.54883 l -8.86328,-2.54883 c -0.0658,-0.0189 -0.12962,-0.0258 -0.1875,-0.0215 z m -33.87696,1.55859 0.5293,0.28907 -0.29101,0.53125 -19.73633,5.72851 0.49804,1.71875 -12.83203,-2 10.49219,-3.04492 1.04297,0.57422 0.56055,1.93164 z m -55.679679,13.19336 15.27539,2.39453 -13.92188,4.04102 -1.04297,-0.57422 -0.56054,-1.93164 -19.73633,5.72852 -0.52735,-0.29102 0.29102,-0.5293 19.73437,-5.72851 -0.56054,-1.92969 0.57422,-1.04297 z m -49.4629,15.0586 a 1.9976618,1.9976618 0 0 1 0.0488,0 1.9976618,1.9976618 0 0 1 1.9961,1.99804 1.9976618,1.9976618 0 0 1 -1.9961,1.99805 1.9976618,1.9976618 0 0 1 -1.99804,-1.99805 1.9976618,1.9976618 0 0 1 1.94921,-1.99804 z m 136.576179,0.1582 a 1.9976618,1.9976618 0 0 1 0.0488,0 1.9976618,1.9976618 0 0 1 1.99804,1.99805 1.9976618,1.9976618 0 0 1 -1.99804,1.99609 1.9976618,1.9976618 0 0 1 -1.99805,-1.99609 1.9976618,1.9976618 0 0 1 1.94922,-1.99805 z M 59.905611,939.16083 c 1.11184,0.0381 2.30626,0.33273 3.51758,0.93945 3.04356,1.52447 4.59334,4.02409 4.25391,6.78125 -0.0648,0.34458 -0.0857,0.38841 -0.12891,0.47461 -0.0647,0.12917 -0.19349,0.20819 -0.39453,0.17969 l -3.08789,-0.36133 c -0.0862,-0.007 -0.16454,-0.0282 -0.23633,-0.0644 -0.17228,-0.0863 -0.28865,-0.28902 -0.28125,-0.55469 0.0367,-1.14891 -0.60841,-2.18886 -1.85742,-2.81445 -1.39257,-0.6975 -2.56252,-0.33229 -3.03711,0.61523 -0.46021,0.91885 -0.0162,1.8957 1.93555,3.87891 3.17163,3.20487 3.95956,6.00519 2.70117,8.51757 -1.7258,3.44557 -5.23001,4.45502 -9.33594,2.39844 -3.31633,-1.66105 -5.08916,-4.36195 -4.61328,-7.14062 0.0649,-0.34458 0.0877,-0.38646 0.13086,-0.47266 0.0647,-0.12909 0.19349,-0.20819 0.39453,-0.17969 l 3.28125,0.33203 c 0.0862,0.007 0.16455,0.0283 0.23633,0.0645 0.17227,0.0863 0.28669,0.28699 0.27929,0.55273 -0.0368,1.22066 0.57373,2.29812 2.18164,3.10352 1.47872,0.74066 2.62813,0.38263 3.13868,-0.63672 0.46021,-0.91877 0.18115,-2.00957 -1.84961,-3.97852 -3.31525,-3.20487 -4.02401,-5.9492 -2.60742,-8.77734 0.8948,-1.7865 2.93286,-2.94129 5.3789,-2.85742 z m 69.281249,0.46484 c 2.29283,0.004 4.06691,1.35643 5.19532,3.76563 l 0.21093,0.45117 c 1.3757,2.9372 0.69791,6.64083 -3.30078,8.51367 l -2.79101,1.30664 c -0.30533,0.14305 -0.40672,0.4212 -0.26367,0.72656 l 2.73242,5.83008 c 0.14302,0.30535 0.0417,0.58352 -0.26368,0.72656 l -3.08203,1.44336 c -0.30536,0.14304 -0.58354,0.0417 -0.72656,-0.26367 l -8.28711,-17.69531 c -0.14302,-0.30536 -0.0436,-0.58359 0.26172,-0.72656 l 6.87891,-3.22071 c 1.24505,-0.58313 2.39335,-0.85919 3.43554,-0.85742 z m -0.75586,4.29883 c -0.28885,0.0203 -0.58391,0.0979 -0.87109,0.23242 l -2.87891,1.34766 c -0.30533,0.14304 -0.40669,0.4212 -0.26367,0.72656 l 1.62891,3.47461 c 0.14302,0.30521 0.41925,0.40672 0.72461,0.26367 l 2.8789,-1.34765 c 1.14876,-0.53805 1.67654,-1.72494 1.09766,-2.96094 l -0.19922,-0.42188 c -0.43416,-0.927 -1.25062,-1.37542 -2.11719,-1.31445 z m -52.623039,1.66406 c 0.0703,-0.0128 0.14941,-0.0127 0.23242,0.002 l 12.58398,2.23047 c 0.33202,0.0588 0.50217,0.30079 0.44336,0.63282 l -0.52539,2.95507 c -0.0588,0.33202 -0.29884,0.50196 -0.63086,0.44336 l -3.54297,-0.62695 c -0.33202,-0.0588 -0.574,0.10939 -0.63281,0.44141 l -2.69336,15.20898 c -0.0588,0.33203 -0.3008,0.50196 -0.63281,0.44336 l -3.35156,-0.59375 c -0.33203,-0.0588 -0.50217,-0.30078 -0.44336,-0.63281 l 2.69531,-15.20899 c 0.0588,-0.33202 -0.11135,-0.57421 -0.44336,-0.63281 l -3.54102,-0.6289 c -0.33201,-0.0588 -0.50216,-0.29883 -0.44336,-0.63086 l 0.52539,-2.95704 c 0.0441,-0.24902 0.18952,-0.40694 0.4004,-0.44531 z m 30.330079,1.04492 c 3.45801,0.0246 5.28146,1.86427 5.68554,5.01368 l 1.23242,9.60351 c 0.44342,3.45597 -1.46108,6.03017 -5.79296,6.58594 l -2.27735,0.29297 c -4.49114,0.57619 -6.805769,-1.31279 -7.267579,-4.91211 l -1.23046,-9.60352 c -0.44138,-3.44009 1.45912,-6.03009 5.791009,-6.58594 l 2.27734,-0.29296 c 0.5614,-0.072 1.08803,-0.10508 1.58204,-0.10157 z m -0.60547,4.14649 c -0.14612,-0.009 -0.29781,-0.005 -0.45508,0.0156 l -2.27734,0.29297 c -1.27412,0.16355 -1.94418,1.25314 -1.79297,2.43164 l 1.10937,8.64844 c 0.16143,1.2582 1.0895,2.06178 2.34766,1.90039 l 2.27929,-0.29297 c 1.27408,-0.16347 1.94427,-1.23718 1.79102,-2.43164 l -1.10937,-8.64844 c -0.14128,-1.10085 -0.86975,-1.85313 -1.89258,-1.91601 z" />
  </g>
</svg>
