<?xml version="1.0" encoding="UTF-8" standalone="no"?>
<svg
   xmlns:dc="http://purl.org/dc/elements/1.1/"
   xmlns:cc="http://creativecommons.org/ns#"
   xmlns:rdf="http://www.w3.org/1999/02/22-rdf-syntax-ns#"
   xmlns:svg="http://www.w3.org/2000/svg"
   xmlns="http://www.w3.org/2000/svg"
   xmlns:sodipodi="http://sodipodi.sourceforge.net/DTD/sodipodi-0.dtd"
   xmlns:inkscape="http://www.inkscape.org/namespaces/inkscape"
   width="37mm"
   height="37mm"
   viewBox="0 0 104.8819 104.8819"
   version="1.2"
   id="svg227"
   sodipodi:docname="xHain_logo3_keychain_3.7cm_reverse.svg"
   inkscape:version="0.92.4 (5da689c313, 2019-01-14)">
  <metadata
     id="metadata233">
    <rdf:RDF>
      <cc:Work
         rdf:about="">
        <dc:format>image/svg+xml</dc:format>
        <dc:type
           rdf:resource="http://purl.org/dc/dcmitype/StillImage" />
        <dc:title></dc:title>
      </cc:Work>
    </rdf:RDF>
  </metadata>
  <defs
     id="defs231" />
  <sodipodi:namedview
     pagecolor="#ffffff"
     bordercolor="#666666"
     borderopacity="1"
     objecttolerance="10"
     gridtolerance="10"
     guidetolerance="10"
     inkscape:pageopacity="0"
     inkscape:pageshadow="2"
     inkscape:window-width="1920"
     inkscape:window-height="1017"
     id="namedview229"
     showgrid="false"
     inkscape:zoom="7.9781529"
     inkscape:cx="2.8914428"
     inkscape:cy="132.75978"
     inkscape:window-x="-8"
     inkscape:window-y="-8"
     inkscape:window-maximized="1"
     inkscape:current-layer="svg227"
     inkscape:document-units="mm"
     units="mm" />
  <g
     id="g874"
     transform="matrix(0.99965305,0,0,0.99896085,-1.3412183,-1.1074101)"
     style="stroke-width:1.00069368">
    <path
       d="m 49.305547,33.891751 a 1.7930553,1.7930553 0 0 1 1.26814,0.524038 l 2.2418,2.24022 a 1.7934209,1.7934209 0 1 1 -2.53549,2.53707 l -1.71618,-1.715394 h -14.94614 a 1.7932313,1.7932313 0 1 1 0,-3.585934 z m -15.68787,0.672066 c -0.6185,0 -1.11932,0.500289 -1.11932,1.120902 0,0.618502 0.50082,1.118526 1.11932,1.118526 0.62061,0 1.1209,-0.500024 1.1209,-1.118526 0,-0.620613 -0.50029,-1.120902 -1.1209,-1.120902 z m 17.92967,2.239428 c -0.6185,0 -1.1209,0.502399 -1.1209,1.120904 0,0.6185 0.5024,1.120899 1.1209,1.120899 0.61851,0 1.1209,-0.502399 1.1209,-1.120899 0,-0.618505 -0.50239,-1.120904 -1.1209,-1.120904 z m -5.60213,17.258398 a 1.7930553,1.7930553 0 0 1 1.79297,1.79297 v 4.48123 a 1.7930553,1.7930553 0 0 1 -0.52563,1.26814 l -1.12089,1.1209 a 1.7930553,1.7930553 0 1 1 -2.5347,-2.53549 l 0.59528,-0.59607 v -1.94574 h -3.81154 a 1.7932316,1.7932316 0 0 1 0,-3.58594 z m -5.60451,0.67207 c -0.61849,0 -1.11853,0.50029 -1.11853,1.1209 0,0.6185 0.50004,1.11853 1.11853,1.11853 0.62062,0 1.1209,-0.50003 1.1209,-1.11853 0,-0.62061 -0.50028,-1.1209 -1.1209,-1.1209 z m 4.48361,5.60213 c -0.6185,0 -1.1209,0.5024 -1.1209,1.1209 0,0.6185 0.5024,1.1209 1.1209,1.1209 0.6185,0 1.1209,-0.5024 1.1209,-1.1209 0,-0.6185 -0.5024,-1.1209 -1.1209,-1.1209 z m -3.335,-17.50696 a 1.7930553,1.7930553 0 0 1 1.76526,1.81909 v 6.72303 a 1.7932316,1.7932316 0 0 1 -3.58594,0 v -6.72303 a 1.7930553,1.7930553 0 0 1 1.82068,-1.81909 z m -0.0277,0.698186 c -0.6185,0 -1.1209,0.502403 -1.12091,1.120904 0,0.6185 0.50241,1.120899 1.12091,1.120899 0.6185,0 1.1209,-0.502399 1.1209,-1.120899 0,-0.618501 -0.5024,-1.120904 -1.1209,-1.120904 z m 0,6.723034 c -0.6185,0 -1.12091,0.5024 -1.12091,1.1209 0,0.6185 0.50241,1.12091 1.12091,1.12091 0.6185,0 1.1209,-0.50241 1.1209,-1.12091 0,-0.6185 -0.5024,-1.1209 -1.1209,-1.1209 z m 6.74836,-8.515207 a 1.7930553,1.7930553 0 0 1 1.24281,0.524037 l 2.2418,2.241803 a 1.7930553,1.7930553 0 0 1 0.52562,1.268136 v 14.566971 a 1.793365,1.793365 0 1 1 -3.58673,0 v -13.82445 l -0.44725,-0.44804 -0.44804,0.44725 v 4.8604 a 1.7932316,1.7932316 0 1 1 -3.58594,0 v -5.602131 a 1.7930553,1.7930553 0 0 1 0.52404,-1.268136 l 2.24022,-2.241803 a 1.7930553,1.7930553 0 0 1 1.29347,-0.524037 z m -2.26476,8.515207 c -0.62061,0 -1.1209,0.5024 -1.1209,1.1209 0,0.6185 0.50029,1.1209 1.1209,1.12091 0.6185,0 1.11853,-0.50241 1.11853,-1.12091 0,-0.6185 -0.50003,-1.1209 -1.11853,-1.1209 z m 4.48123,8.96484 c -0.6185,0 -1.1209,0.5024 -1.1209,1.1209 0,0.6185 0.5024,1.1209 1.1209,1.1209 0.6185,0 1.1209,-0.5024 1.1209,-1.1209 0,-0.6185 -0.5024,-1.1209 -1.1209,-1.1209 z M 69.494439,45.078602 a 1.7930553,1.7930553 0 0 1 1.24914,3.078521 l -0.972872,0.97287 0.972872,0.97208 a 1.7936991,1.7936991 0 1 1 -2.535486,2.53786 l -0.974457,-0.97366 -0.972082,0.97208 a 1.7930553,1.7930553 0 1 1 -2.534691,-2.53469 l 0.972078,-0.97208 -0.973663,-0.97446 a 1.7930553,1.7930553 0 0 1 1.304552,-3.077731 1.7930553,1.7930553 0 0 1 1.233309,0.542244 l 0.972082,0.972877 0.972872,-0.972877 a 1.7930553,1.7930553 0 0 1 1.286346,-0.543034 z m -0.01901,0.69027 c -0.618501,0 -1.120899,0.502401 -1.120899,1.120901 0,0.6185 0.502398,1.1209 1.120899,1.1209 0.6185,0 1.120903,-0.5024 1.120903,-1.1209 0,-0.6185 -0.502403,-1.120901 -1.120903,-1.120901 z m -4.481231,0 c -0.6185,0 -1.120899,0.502401 -1.120903,1.120901 0,0.6185 0.502403,1.1209 1.120903,1.1209 0.618501,0 1.120904,-0.5024 1.120904,-1.1209 0,-0.6185 -0.502403,-1.120901 -1.120904,-1.120901 z m 4.481231,4.481231 c -0.618501,0 -1.120899,0.5024 -1.120899,1.1209 0,0.6185 0.502398,1.12091 1.120899,1.12091 0.6185,0 1.120903,-0.50241 1.120903,-1.12091 0,-0.6185 -0.502403,-1.1209 -1.120903,-1.1209 z m -4.481231,0 c -0.6185,0 -1.120899,0.5024 -1.120903,1.1209 0,0.6185 0.502403,1.1209 1.120903,1.12091 0.618501,0 1.120904,-0.50241 1.120904,-1.12091 0,-0.6185 -0.502403,-1.1209 -1.120904,-1.1209 z M 26.921557,40.589455 a 1.7930553,1.7930553 0 0 1 1.76605,1.8183 v 14.943768 l 1.19135,1.19135 h 1.4985 a 1.793365,1.793365 0 1 1 0,3.58673 h -2.24181 a 1.7930553,1.7930553 0 0 1 -1.26734,-0.52562 l -2.2418,-2.2418 a 1.7930553,1.7930553 0 0 1 -0.52563,-1.26814 V 42.407755 a 1.7930553,1.7930553 0 0 1 1.82068,-1.8183 z m -0.0277,0.697396 c -0.61851,0 -1.11853,0.500291 -1.11853,1.120904 0,0.6185 0.50002,1.119314 1.11853,1.119314 0.62061,0 1.1209,-0.500814 1.1209,-1.119314 0,-0.620613 -0.50029,-1.120904 -1.1209,-1.120904 z m 4.4836,17.928092 c -0.6185,0 -1.1209,0.5024 -1.1209,1.1209 0,0.6185 0.5024,1.1209 1.1209,1.1209 0.6185,0 1.1209,-0.5024 1.1209,-1.1209 0,-0.6185 -0.5024,-1.1209 -1.1209,-1.1209 z m 22.41011,-34.28882 a 1.7930553,1.7930553 0 0 1 1.26735,0.52562 l 2.2418,2.241803 a 1.7930553,1.7930553 0 1 1 -2.53549,2.535486 l -1.71697,-1.716183 h -12.70355 a 1.7933631,1.7933631 0 0 1 0,-3.586726 z m -13.44686,0.672857 c -0.6185,0 -1.11853,0.502401 -1.11853,1.120902 0,0.618501 0.50003,1.120901 1.11853,1.120901 0.62062,0 1.1209,-0.5024 1.1209,-1.120901 0,-0.618501 -0.50028,-1.120902 -1.1209,-1.120902 z m 15.68866,2.241803 c -0.6185,0 -1.1209,0.50029 -1.1209,1.120901 0,0.618502 0.5024,1.118527 1.1209,1.118527 0.6185,0 1.1209,-0.500025 1.1209,-1.118527 0,-0.620611 -0.5024,-1.120901 -1.1209,-1.120901 z m 16.808777,-0.672857 a 1.7933631,1.7933631 0 0 1 0,3.586726 H 60.510607 a 1.7933631,1.7933631 0 0 1 0,-3.586726 z m 0,0.672857 c -0.620612,0 -1.120902,0.50029 -1.120902,1.120901 0,0.618502 0.50029,1.118527 1.120902,1.118527 0.618501,0 1.119318,-0.500025 1.119318,-1.118527 0,-0.620611 -0.500817,-1.120901 -1.119318,-1.120901 z m -12.327537,0 c -0.61851,0 -1.11853,0.50029 -1.11853,1.120901 0,0.618502 0.50002,1.118527 1.11853,1.118527 0.62061,0 1.120891,-0.500025 1.120899,-1.118527 0,-0.620611 -0.500289,-1.120901 -1.120899,-1.120901 z m -23.53023,15.013431 a 1.7930553,1.7930553 0 0 1 1.79297,1.793759 v 6.72303 a 1.793365,1.793365 0 0 1 -3.58673,0 v -4.93006 h -2.0154 v 9.41367 a 1.793365,1.793365 0 1 1 -3.58673,0 v -11.20664 a 1.7930553,1.7930553 0 0 1 1.79297,-1.793759 z m 0,7.395889 c -0.6185,0 -1.1209,0.5024 -1.1209,1.1209 0,0.6185 0.5024,1.1209 1.1209,1.12091 0.61851,0 1.1209,-0.50241 1.1209,-1.12091 0,-0.6185 -0.50239,-1.1209 -1.1209,-1.1209 z m -5.60292,4.48361 c -0.6185,0 -1.1209,0.50029 -1.1209,1.1209 0,0.6185 0.5024,1.11853 1.1209,1.11853 0.6185,0 1.1209,-0.50003 1.1209,-1.11853 0,-0.62061 -0.5024,-1.1209 -1.1209,-1.1209 z m 4.50893,-0.6974 a 1.7930553,1.7930553 0 0 1 1.76606,1.8183 v 1.4977 l 3.95561,3.95799 a 1.7930553,1.7930553 0 0 1 0.52562,1.26734 v 2.24022 a 1.7932316,1.7932316 0 1 1 -3.58593,0 v -1.4977 l -3.95641,-3.95798 a 1.7930553,1.7930553 0 0 1 -0.52562,-1.26814 v -2.23943 a 1.7930553,1.7930553 0 0 1 1.82067,-1.8183 z m -0.0269,0.6974 c -0.6185,0 -1.1209,0.50029 -1.1209,1.1209 0,0.6185 0.5024,1.11853 1.1209,1.11853 0.6185,0 1.12091,-0.50003 1.12091,-1.11853 0,-0.62061 -0.50241,-1.1209 -1.12091,-1.1209 z m 4.48123,8.96325 c -0.61849,0 -1.11852,0.5024 -1.11852,1.1209 0,0.61851 0.50003,1.12091 1.11852,1.12091 0.62062,0 1.12091,-0.5024 1.12091,-1.12091 0,-0.6185 -0.50029,-1.1209 -1.12091,-1.1209 z m 6.82277,-34.288818 a 1.7932313,1.7932313 0 1 1 0,3.585935 h -14.94377 l -1.19136,1.192145 v 2.995402 l 1.19136,1.191356 h 12.6046 a 1.7933635,1.7933635 0 1 1 0,3.586727 h -13.34712 a 1.7930553,1.7930553 0 0 1 -1.26814,-0.525622 l -2.2418,-2.241803 a 1.7930553,1.7930553 0 0 1 -0.52562,-1.268136 v -4.481233 a 1.7930553,1.7930553 0 0 1 0.52562,-1.267347 l 2.2418,-2.241803 a 1.7930553,1.7930553 0 0 1 1.26814,-0.525621 z m -0.0997,0.672066 c -0.6185,0 -1.11853,0.5024 -1.11853,1.120902 0,0.618501 0.50003,1.120901 1.11853,1.120901 0.62061,0 1.1209,-0.5024 1.1209,-1.120901 0,-0.618502 -0.50029,-1.120902 -1.1209,-1.120902 z m -2.23943,8.964837 c -0.6185,0 -1.1209,0.502399 -1.1209,1.120904 0,0.6185 0.5024,1.120899 1.1209,1.120899 0.6185,0 1.1209,-0.502399 1.1209,-1.120899 0,-0.618505 -0.5024,-1.120904 -1.1209,-1.120904 z m 4.48145,57.149355 -1.1209,1.11879 h -4.48149 l -1.12091,-1.11879 v -14.5675 l 1.12091,-1.1209 h 1.1209 v -15.6884 l 1.1209,-1.1209 1.11879,1.1209 v 15.6884 h 1.1209 l 1.1209,1.1209 z m 9.5245,-32.4977 h 2.801196 l 1.120902,1.1209 v 7.8442 l -1.120902,1.1209 -2.239696,1.1209 v 21.2908 l -1.1209,1.11879 h -4.4836 l -1.1188,-1.11879 v -21.2908 l -2.24179,-1.1209 -1.12091,-1.1209 v -7.8442 l 1.12091,-1.1209 h 2.80119 v 6.1639 l 2.8012,1.1209 2.8012,-1.1209 z m -2.8012,28.5756 c -1.237,0 -1.6803,0.44329 -1.6803,1.6803 0,1.237 0.4433,1.68029 1.6803,1.68029 1.237,0 1.6803,-0.44329 1.6803,-1.68029 0,-1.23701 -0.4433,-1.6803 -1.6803,-1.6803 z m 0,0 M 53.865147,1.171086 C 80.441666,1.177386 103.22122,21.317503 105.95698,48.328903 108.8764,77.140923 87.885046,102.86281 59.073067,105.78222 30.258927,108.69952 4.53519,87.708743 1.61578,58.896723 -1.30152,30.084691 19.691637,4.362805 48.503657,1.443395 c 1.80062,-0.18154 3.59042,-0.272309 5.36149,-0.272309 z m 0.91825,2.830751 c -0.17732,-0.01689 -0.29503,0.07599 -0.31189,0.253311 0,0.06755 0.0166,0.151986 0.042,0.202649 l 2.79513,4.170925 c 0.0338,0.05066 0.0419,0.076 0.0419,0.101324 -0.008,0.02533 -0.0256,0.03404 -0.0594,0.0847 l -4.3142,5.167546 c -0.0338,0.04222 -0.0597,0.08444 -0.0681,0.151987 -0.0169,0.177318 0.0844,0.295793 0.25331,0.31268 l 2.01857,0.193942 c 0.10977,0.01689 0.22799,-0.03404 0.30398,-0.135363 l 2.94632,-3.790959 c 0.0338,-0.04222 0.0844,-0.09315 0.15199,-0.0847 0.0422,0 0.0934,0.05119 0.11874,0.09341 l 0.60794,0.919836 -0.30397,3.090395 c -0.0169,0.168873 0.0844,0.287085 0.25331,0.303973 l 1.72252,0.169401 c 0.16887,0.01689 0.28708,-0.08444 0.30397,-0.253311 l 0.962581,-9.947208 c 0.0169,-0.177319 -0.07652,-0.287087 -0.245395,-0.303974 l -1.722516,-0.16861 c -0.16888,-0.01689 -0.295,0.07599 -0.31189,0.253311 l -0.27073,2.853708 c -0.0422,0.413741 -0.0338,0.852813 0.0253,1.1399 l -2.87033,-4.474899 c -0.0507,-0.07599 -0.11822,-0.118214 -0.20265,-0.126655 z m 13.823659,2.503821 c -0.974453,-0.0037 -1.81566,0.405826 -2.361333,1.177897 -0.109771,0.143543 -0.117682,0.159903 -0.134571,0.210565 -0.02533,0.07599 -0.0087,0.143542 0.06728,0.202649 L 67.38562,9.11872 c 0.03376,0.02534 0.07629,0.0504 0.11003,0.06729 0.09288,0.03377 0.227716,2.63e-4 0.295267,-0.09262 0.363078,-0.481291 0.844369,-0.607682 1.494536,-0.371259 l 1.097943,0.39659 c 0.607947,0.219537 0.835663,0.844106 0.624572,1.409835 l -1.511161,4.163009 c -0.219501,0.599503 -0.776554,0.894768 -1.384501,0.675232 l -1.097947,-0.39659 c -0.65013,-0.236423 -0.92033,-0.624833 -0.91192,-1.241224 0.0084,-0.135099 -0.07573,-0.228244 -0.168608,-0.262019 -0.03376,-0.01689 -0.07599,-0.02533 -0.126655,-0.02533 l -1.579239,-0.0079 c -0.09284,0.0084 -0.160696,0.0504 -0.186023,0.117948 -0.0169,0.05066 -0.05013,0.151987 -0.05858,0.329304 -0.109767,1.36788 0.767849,2.474006 2.313046,3.039733 l 1.097944,0.39659 c 2.16159,0.785264 3.521027,0.118477 4.154303,-1.612483 l 1.680561,-4.61897 C 73.837134,9.422446 73.186968,7.928175 71.101375,7.168242 L 70.003428,6.771652 C 69.520588,6.594862 69.049985,6.507345 68.607051,6.505675 Z M 46.142327,7.438951 c -0.0368,-0.0058 -0.0765,-0.0045 -0.11874,0.004 l -1.18265,0.210565 c -0.16043,0.03377 -0.24458,0.152515 -0.21927,0.321389 l 0.26993,1.451789 -1.51116,0.278642 c -0.16883,0.03377 -0.26171,0.160958 -0.22798,0.321388 l 0.21136,1.181841 c 0.0338,0.168874 0.16043,0.261754 0.32931,0.22798 l 1.51115,-0.278643 0.29527,1.59586 c 0.0338,0.168874 0.16096,0.261755 0.32139,0.22798 l 1.18185,-0.211356 c 0.16888,-0.03377 0.26176,-0.160431 0.22798,-0.329304 l -0.29526,-1.59586 1.52778,-0.286559 c 0.17735,-0.02533 0.26175,-0.16043 0.22798,-0.329304 l -0.21057,-1.182646 c -0.0338,-0.16043 -0.15199,-0.244601 -0.3293,-0.219272 l -1.52858,0.287349 -0.26993,-1.45258 c -0.019,-0.126656 -0.10014,-0.205816 -0.21056,-0.223231 z m -11.20269,0.246187 c -0.0357,0.005 -0.0726,0.01742 -0.10844,0.03641 l -1.63782,0.869174 c -0.10979,0.05911 -0.16069,0.152514 -0.16069,0.245395 l 0.43063,5.716124 c 0.0422,0.320861 0.11822,0.633014 0.12665,0.649901 l -0.0673,0.03404 c -0.008,-0.01689 -0.25331,-0.270462 -0.4813,-0.464667 l -4.42502,-3.604934 c -0.0675,-0.05911 -0.18555,-0.06781 -0.29527,-0.0087 l -1.62119,0.861258 c -0.15198,0.07599 -0.20238,0.210829 -0.11795,0.371259 l 4.66884,8.840557 c 0.076,0.151986 0.22798,0.194732 0.37997,0.118739 l 1.48662,-0.793972 c 0.15198,-0.07599 0.19389,-0.219272 0.11795,-0.371259 l -1.3006,-2.457117 c -0.70083,-1.325662 -1.68031,-2.727316 -1.72251,-2.811753 l 0.0594,-0.03404 c 0.0169,0.03377 0.88659,0.945958 1.36788,1.351256 l 2.54973,2.068442 c 0.0844,0.06755 0.20265,0.06729 0.30397,0.01662 l 1.1399,-0.607947 c 0.12667,-0.06755 0.19475,-0.151459 0.16941,-0.261227 l -0.32139,-3.293044 c -0.0591,-0.624834 -0.3206,-1.89165 -0.3206,-1.933871 l 0.034,-0.02533 c 0.0422,0.08444 0.64146,1.714336 1.35917,3.073772 l 1.3085,2.473739 c 0.076,0.151987 0.22851,0.193942 0.37205,0.117948 l 1.52778,-0.810595 c 0.14356,-0.07599 0.19474,-0.219273 0.11874,-0.371259 L 35.211117,7.8395 c -0.0633,-0.120324 -0.16425,-0.169402 -0.27152,-0.154361 z m 45.532669,4.286498 c -0.05383,-0.0032 -0.104227,0.01187 -0.146445,0.04987 l -8.198572,6.729367 c -0.03378,0.03377 -0.04248,0.0504 -0.05937,0.06729 -0.04222,0.06755 -0.02533,0.127183 0.07599,0.194732 l 1.671853,1.1399 c 0.07599,0.05066 0.152251,0.05066 0.211356,0 l 1.122489,-0.98 c 0.07599,-0.05066 0.118476,-0.04169 0.211357,0.01742 l 2.600396,1.773177 c 0.101327,0.06755 0.127184,0.100797 0.09341,0.185234 l -0.498705,1.401919 c -0.01689,0.08444 0.0084,0.151986 0.07599,0.202648 l 1.663937,1.131193 c 0.101324,0.06755 0.177051,0.06755 0.219272,0 0.02533,-0.03377 0.0504,-0.101058 0.06729,-0.143279 0,-0.02533 3.217051,-10.039826 3.217051,-10.039826 0.02533,-0.109769 -0.02533,-0.211093 -0.126656,-0.278642 l -2.034405,-1.393211 c -0.05488,-0.03378 -0.112406,-0.05462 -0.166235,-0.05779 z m -0.492373,2.979572 0.235896,0.160694 -0.159903,0.311889 -1.190562,3.437115 c -0.04222,0.09288 -0.118739,0.126391 -0.245395,0.04195 L 77.04944,17.830242 c -0.126655,-0.08444 -0.126655,-0.16861 -0.05066,-0.244603 l 2.753175,-2.372417 z m -59.412526,2.177683 c -0.0799,-0.01029 -0.16233,0.01979 -0.22561,0.08312 l -1.77317,1.722515 c -0.0929,0.08444 -0.11792,0.193942 -0.0673,0.295266 l 4.93957,9.389925 c 0.0169,0.04222 0.0251,0.05911 0.0419,0.07599 0.0591,0.05066 0.11847,0.05013 0.21136,-0.04275 l 1.45179,-1.401127 c 0.0676,-0.06755 0.085,-0.135363 0.0427,-0.211357 l -0.7346,-1.300593 c -0.0422,-0.07599 -0.0171,-0.109505 0.0673,-0.193942 l 2.25447,-2.187182 c 0.0928,-0.09288 0.12665,-0.101061 0.20264,-0.06729 l 1.27527,0.776557 c 0.076,0.03377 0.14354,0.02586 0.20264,-0.03325 l 1.44388,-1.401918 c 0.0928,-0.08444 0.10977,-0.160694 0.0507,-0.211357 -0.0253,-0.03377 -0.0845,-0.06755 -0.12666,-0.101324 -0.0253,-0.0084 -9.17857,-5.167546 -9.17856,-5.167546 -0.0253,-0.01267 -0.0517,-0.02032 -0.0784,-0.02375 z m 33.22016,0.359386 c -19.95036,0 -36.12216,16.174175 -36.12216,36.124536 0,15.40975 9.65062,28.56293 23.23654,33.7537 v 9.52053 l 1.61486,1.61486 0.49,0.49396 h 5.87444 l 0.49237,-0.49396 1.11853,-1.1209 0.49396,-0.49396 1.61486,1.61486 0.49,0.49396 h 5.87681 l 0.48921,-0.49396 1.61486,-1.61486 v -7.88272 c 16.460964,-3.36904 28.839463,-17.93416 28.839463,-35.39151 0,-19.950361 -16.173394,-36.124536 -36.123743,-36.124536 z m 34.865103,0.886588 c -0.06649,-0.0063 -0.136682,0.01926 -0.204231,0.07837 l -7.581918,6.518802 c -0.126655,0.109769 -0.143806,0.252784 -0.03404,0.387883 l 1.123275,1.300594 c 0.118212,0.135099 0.269935,0.143807 0.39659,0.03404 l 2.887746,-2.482449 c 0.126656,-0.109768 0.270199,-0.09341 0.379967,0.03325 l 1.941788,2.263178 c 0.109771,0.126656 0.101324,0.278906 -0.02533,0.388674 l -2.887747,2.482449 c -0.126653,0.109768 -0.135099,0.252783 -0.02533,0.387883 l 1.123277,1.309301 c 0.109767,0.126655 0.269934,0.143015 0.39659,0.03325 l 7.582708,-6.518009 c 0.135097,-0.118212 0.135099,-0.262019 0.02533,-0.388674 l -1.123276,-1.308511 c -0.109768,-0.135099 -0.261491,-0.15225 -0.39659,-0.03404 l -2.701721,2.321755 c -0.126656,0.109768 -0.270198,0.09341 -0.379967,-0.03325 l -1.942579,-2.263178 c -0.109771,-0.126656 -0.101324,-0.278906 0.02533,-0.388674 l 2.702513,-2.321754 c 0.135096,-0.118212 0.143543,-0.253575 0.02533,-0.388674 l -1.123276,-1.299803 c -0.05488,-0.06755 -0.117949,-0.106074 -0.184443,-0.112407 z m -67.154343,1.589527 0.26202,0.211357 3.14105,1.874501 c 0.0844,0.05066 0.10106,0.12692 -0.009,0.236688 l -1.36788,1.325134 c -0.10977,0.10977 -0.19402,0.09314 -0.2446,0.0087 l -1.78189,-3.183012 -0.21056,-0.270726 z m -7.87402,4.818452 c -0.0759,0.01061 -0.14169,0.05937 -0.18919,0.140112 l -0.90401,1.477912 c -0.0844,0.143543 -0.0586,0.287086 0.0934,0.379967 l 2.44841,1.494535 c 0.35458,0.211092 0.75176,0.39659 1.04729,0.472584 l -5.27758,0.633277 c -0.0929,0.01689 -0.1605,0.06781 -0.20265,0.135363 l -0.97129,1.604567 c -0.0929,0.151987 -0.0586,0.287086 0.0934,0.379967 0.0591,0.03377 0.13484,0.06755 0.19394,0.05066 l 4.98152,-0.701355 c 0.0676,0 0.076,2.61e-4 0.10132,0.0087 0.0169,0.01689 0.0253,0.04196 0.0507,0.09262 l 2.78642,6.122214 c 0.0253,0.0591 0.0509,0.09288 0.11003,0.126655 0.15193,0.09288 0.30424,0.05879 0.38867,-0.0847 l 1.0552,-1.731226 c 0.0506,-0.101324 0.0591,-0.227452 0,-0.337221 l -2.12781,-4.298372 c -0.0253,-0.04222 -0.0509,-0.126127 -0.009,-0.185234 0.0169,-0.03377 0.0847,-0.05119 0.13536,-0.06808 l 1.08053,-0.134571 2.65977,1.612483 c 0.14354,0.08444 0.29553,0.05093 0.37996,-0.09262 l 0.90401,-1.477912 c 0.0844,-0.143543 0.0501,-0.295529 -0.0934,-0.379966 l -8.5445,-5.192877 c -0.038,-0.02322 -0.0755,-0.03826 -0.11161,-0.04512 -0.0271,-0.0051 -0.0539,-0.0059 -0.0792,-0.0024 z m -5.78341,11.141729 c -0.10919,0.0099 -0.19,0.08708 -0.22798,0.207398 L 5.73842,42.220142 c -0.0506,0.160433 0.009,0.295268 0.17732,0.34593 l 1.46049,0.45596 c 0.16044,0.05066 0.296087,-0.03352 0.346717,-0.193943 l 1.19848,-3.900991 c 0.0507,-0.168814 0.18576,-0.236685 0.35464,-0.186023 l 1.45258,0.448044 c 0.16045,0.05066 0.22795,0.18576 0.17731,0.354636 l -0.98791,3.199635 c -0.0506,0.168875 0.025,0.296058 0.19394,0.34672 l 1.45258,0.44725 c 0.16044,0.05066 0.28738,-0.01714 0.33802,-0.186024 l 0.98791,-3.199635 c 0.0507,-0.168875 0.1942,-0.236629 0.35463,-0.186027 l 1.52779,0.472585 c 0.16041,0.05066 0.23666,0.18576 0.18602,0.354635 l -1.19927,3.900991 c -0.0507,0.160429 0.008,0.296058 0.17732,0.34672 l 1.45258,0.44725 c 0.16887,0.05066 0.30406,-0.02557 0.35463,-0.186024 l 1.87451,-6.087381 c 0.0507,-0.160429 -0.0171,-0.303973 -0.18603,-0.354635 l -9.47383,-2.921787 c -0.0422,-0.01264 -0.0815,-0.01676 -0.11795,-0.01346 z M 7.32953,46.825653 c -1.38323,0.0674 -2.7128,1.33859 -2.85529,3.39675 -0.11821,1.72251 0.58235,3.0487 1.86579,3.61443 0.17732,0.0507 0.19397,0.0586 0.24461,0.0586 0.076,0.008 0.14354,-0.0253 0.17732,-0.12666 l 0.64198,-1.44387 c 0.0169,-0.0422 0.0256,-0.0757 0.034,-0.11795 0.008,-0.10132 -0.0596,-0.20239 -0.16939,-0.26994 -0.51507,-0.27864 -0.80186,-0.828 -0.75123,-1.53727 0.0507,-0.78527 0.51533,-1.20693 1.04728,-1.17315 0.523507,0.0338 0.835657,0.48921 1.207187,1.85709 0.57417,2.21224 1.59612,3.27641 3.02311,3.37774 1.95049,0.12666 3.29252,-1.15705 3.45295,-3.47907 0.12665,-1.88294 -0.59898,-3.3437 -1.93309,-3.85033 -0.16887,-0.0675 -0.19448,-0.0673 -0.23668,-0.0673 -0.076,-0.008 -0.15225,0.0338 -0.18603,0.12665 l -0.70056,1.51987 c -0.0169,0.0422 -0.0256,0.0842 -0.0341,0.11795 -0.008,0.10132 0.0596,0.20291 0.1694,0.26201 0.54885,0.30398 0.86099,0.84464 0.80189,1.75656 -0.0591,0.84437 -0.51506,1.24939 -1.08924,1.20718 -0.52351,-0.0338 -0.92881,-0.43089 -1.26655,-1.83254 -0.55729,-2.26292 -1.56209,-3.2846 -3.16639,-3.39437 -0.0924,-0.006 -0.184847,-0.007 -0.277057,-0.002 z m 85.731545,4.89365 c -0.05911,-0.008 -0.126923,0.0589 -0.135363,0.14329 l -0.109241,2.10248 c -0.0084,0.12666 0.0248,0.21162 0.109241,0.27072 l 2.339169,1.33384 c 0.219536,0.10133 0.920627,0.45623 1.173938,0.566 v 0.0507 c -0.641721,-0.076 -1.106389,0.10923 -2.212513,0.53987 l -1.469205,0.66731 c -0.09288,0.0422 -0.134832,0.14357 -0.143279,0.25331 l -0.118739,2.20381 c 0,0.0844 0.07626,0.14358 0.135363,0.15199 0.04222,0 0.09262,-0.008 0.117948,-0.0166 l 5.159629,-2.49987 c 0.04222,-0.0169 0.08417,-0.0419 0.14328,-0.0419 0.05911,0.008 0.09262,0.0422 0.143279,0.076 l 4.593638,2.91308 c 0.0507,0.0422 0.0757,0.042 0.11795,0.042 0.0844,0.008 0.12691,-0.067 0.13536,-0.18524 l 0.11795,-2.13652 c 0.008,-0.17729 -0.0673,-0.25357 -0.16861,-0.31268 l -2.37242,-1.30851 c -0.21109,-0.10974 -0.794234,-0.43089 -1.055988,-0.54066 l 0.0087,-0.0507 c 0.464408,0.0253 1.241228,-0.20266 2.102478,-0.58262 l 1.48583,-0.66652 c 0.10977,-0.0507 0.1942,-0.12665 0.20265,-0.30398 l 0.11003,-2.11119 c 0.008,-0.12663 -0.0335,-0.18551 -0.11795,-0.19394 -0.0422,0 -0.0931,0.0164 -0.13536,0.0332 l -5.209499,2.53311 c -0.05911,0.0338 -0.109771,0.034 -0.151986,0.034 -0.05066,10e-6 -0.09315,-0.0169 -0.135363,-0.0507 l -4.542976,-2.88774 c -0.02533,-0.0169 -0.06729,-0.0253 -0.117948,-0.0253 z m -78.332488,4.96095 -9.794427,1.55311 c -0.16888,0.0253 -0.25333,0.15251 -0.22798,0.32139 l 0.60794,3.80758 c 0.34619,2.2038 1.72252,3.10781 3.673007,2.80384 l 0.24461,-0.0427 c 1.62963,-0.25331 2.99778,-1.59533 2.64314,-3.80758 l -0.23669,-1.5452 c -0.0338,-0.16887 0.0512,-0.2874 0.22006,-0.31268 l 3.22497,-0.51533 c 0.16888,-0.0253 0.26203,-0.15179 0.23669,-0.32059 l -0.26994,-1.7059 c -0.0253,-0.16887 -0.15251,-0.26124 -0.32138,-0.23589 z m -5.46281,3.18301 c 0.17731,-0.0253 0.29553,0.0591 0.3293,0.22798 l 0.24461,1.59586 c 0.10132,0.63321 -0.25332,1.19082 -0.93726,1.30059 l -0.22798,0.0332 c -0.68394,0.10976 -1.207177,-0.3119 -1.308507,-0.94517 l -0.2446,-1.59586 c -0.0338,-0.16888 0.0507,-0.2874 0.22798,-0.31268 z m 82.982328,2.15472 c -0.109241,0.004 -0.189984,0.0768 -0.22798,0.19711 l -0.548577,1.63781 c -0.05066,0.16043 0.0084,0.30425 0.177317,0.36335 l 3.385661,1.11457 c 0.160428,0.0507 0.220064,0.17707 0.169402,0.34592 l -0.929335,2.82047 c -0.05066,0.16041 -0.17679,0.23586 -0.337221,0.18523 l -3.386452,-1.11457 c -0.168874,-0.0591 -0.295529,4.1e-4 -0.354635,0.1694 l -0.53987,1.63782 c -0.05066,0.16042 0.0084,0.29554 0.177318,0.35463 l 9.499165,3.12444 c 0.160431,0.0507 0.295266,-0.0169 0.345928,-0.17732 l 0.540664,-1.63861 c 0.0591,-0.16887 -0.009,-0.29529 -0.16941,-0.34593 l -3.622343,-1.19056 c -0.160428,-0.0591 -0.219272,-0.1942 -0.16861,-0.35463 l 0.928543,-2.82046 c 0.05066,-0.16889 0.177582,-0.23643 0.338012,-0.17732 l 3.622348,1.19056 c 0.16043,0.0507 0.29527,-0.0248 0.34593,-0.18523 l 0.54937,-1.63861 c 0.0507,-0.16043 -0.0169,-0.304 -0.17732,-0.35463 l -9.499166,-3.12365 c -0.04222,-0.0148 -0.08233,-0.0211 -0.118739,-0.0198 z m -76.088308,2.17294 c -0.0165,-0.002 -0.0338,-1e-5 -0.0507,0.006 -0.0422,0.0169 -0.10107,0.0673 -0.14328,0.0926 -0.0169,0.0169 -8.19857,6.61142 -8.19857,6.61142 -0.0845,0.076 -0.11,0.19447 -0.0594,0.31268 l 0.93725,2.2798 c 0.0507,0.11824 0.14381,0.18547 0.26202,0.16861 l 10.54566,-1.10586 c 0.0507,-0.0169 0.0681,-0.0256 0.0934,-0.034 0.0676,-0.0253 0.0842,-0.0844 0.042,-0.20265 l -0.76864,-1.86579 c -0.0422,-0.0844 -0.10132,-0.12717 -0.17731,-0.11874 l -1.48583,0.20265 c -0.0844,0 -0.11849,-0.0248 -0.1607,-0.13458 l -1.19848,-2.90515 c -0.0506,-0.11822 -0.0422,-0.15993 0.0253,-0.21057 l 1.19057,-0.904 c 0.0591,-0.0507 0.0757,-0.11822 0.042,-0.20265 l -0.76864,-1.85709 c -0.0317,-0.0824 -0.0772,-0.12666 -0.12665,-0.13299 z m -2.16581,4.53664 c 0.0423,0.007 0.0807,0.0459 0.11399,0.12191 l 0.72668,1.76447 c 0.0591,0.14354 0.0166,0.21134 -0.0847,0.23668 l -3.60572,0.47259 -0.32931,0.0847 -0.10924,-0.26202 0.29527,-0.16861 2.88774,-2.21251 c 0.0211,-0.0169 0.0418,-0.0282 0.0617,-0.0341 0.0149,-0.004 0.0294,-0.006 0.0435,-0.003 z m 73.19977,5.22454 c -0.08035,0.005 -0.155153,0.0546 -0.205815,0.13695 l -1.359173,2.05182 c -0.07599,0.10976 -0.07599,0.22745 0,0.31189 l 6.821984,8.11466 c 0.03377,0.0507 0.05119,0.0589 0.06808,0.0673 0.06755,0.0422 0.126656,0.0258 0.202649,-0.0839 l 1.114569,-1.68055 c 0.05066,-0.076 0.0504,-0.15226 -0.0087,-0.21136 l -0.987913,-1.11457 c -0.05911,-0.0675 -0.05093,-0.11768 0.01662,-0.21057 l 1.73993,-2.61781 c 0.06755,-0.10975 0.09235,-0.12666 0.185234,-0.10132 l 1.410623,0.48129 c 0.07599,0.0169 0.143279,0 0.193941,-0.076 l 1.105862,-1.67186 c 0.07599,-0.10976 0.06755,-0.17706 0,-0.21927 -0.03377,-0.0169 -0.101058,-0.0512 -0.14328,-0.0681 -0.02533,-0.008 -10.073073,-3.09832 -10.073073,-3.09832 -0.02744,-0.008 -0.05475,-0.012 -0.08153,-0.0103 z m -67.26913,0.79318 c -0.55278,0.0296 -1.10982,0.25965 -1.66394,0.67128 l -3.94373,2.9297 c -1.42699,1.0639 -1.69685,2.66873 -0.37126,4.45036 l 0.70056,0.94516 c 0.97103,1.30875 2.35632,1.79007 3.63977,1.29189 0.16887,-0.0591 0.18577,-0.076 0.22798,-0.10132 0.0591,-0.0507 0.0844,-0.11769 0.0507,-0.21057 l -0.45596,-1.51195 c -0.008,-0.0422 -0.0253,-0.0842 -0.0507,-0.11795 -0.0591,-0.076 -0.18629,-0.1269 -0.29606,-0.0847 -0.57418,0.20265 -1.04649,0.0422 -1.45179,-0.50662 l -0.70136,-0.94517 c -0.38841,-0.52351 -0.22764,-1.15678 0.26202,-1.51986 l 3.55506,-2.63444 c 0.51507,-0.38841 1.13146,-0.32983 1.51987,0.18523 l 0.70056,0.94597 c 0.4053,0.54876 0.41375,1.02986 0.076,1.53648 -0.0844,0.10133 -0.0678,0.22799 -0.009,0.30398 0.0253,0.0338 0.0596,0.0596 0.0934,0.0934 l 1.31722,0.86126 c 0.0844,0.0591 0.16871,0.0501 0.21927,0.008 0.0422,-0.0253 0.12673,-0.0924 0.22798,-0.2359 0.84437,-1.08079 0.70954,-2.49123 -0.26993,-3.80837 l -0.69265,-0.93725 c -0.85485,-1.15046 -1.763,-1.65777 -2.68431,-1.60853 z m 68.78583,1.79218 0.312681,0.14328 3.452947,1.15731 c 0.101324,0.0422 0.135099,0.10924 0.05066,0.2359 l -1.055199,1.58794 c -0.08444,0.12666 -0.168611,0.13457 -0.244604,0.0586 l -2.406455,-2.72705 -0.262019,-0.21928 z m -6.753907,4.15113 c -0.06649,0.001 -0.131668,0.0327 -0.190774,0.0918 l -1.233308,1.21589 c -0.118215,0.11822 -0.134572,0.26202 -0.0079,0.38867 l 7.016717,7.11805 c 0.118212,0.12664 0.278378,0.12612 0.39659,0.008 l 1.232517,-1.21589 c 0.118211,-0.11822 0.118211,-0.26994 0,-0.3966 l -7.016717,-7.11804 c -0.06333,-0.0633 -0.130613,-0.0929 -0.197108,-0.0918 z m -55.323133,0.8573 c -0.0686,0.007 -0.13431,0.0449 -0.18919,0.11241 l -6.29004,7.66741 c -0.10979,0.12665 -0.0844,0.27811 0.0507,0.38788 l 4.92216,4.03636 c 0.1351,0.10976 0.2789,0.0926 0.38867,-0.0341 l 0.97129,-1.18186 c 0.10134,-0.12666 0.0924,-0.28682 -0.0427,-0.39659 l -3.15769,-2.59248 c -0.13509,-0.10977 -0.15225,-0.24487 -0.034,-0.37996 l 0.96258,-1.17394 c 0.10133,-0.13507 0.25358,-0.16043 0.38867,-0.0507 l 2.59248,2.12781 c 0.1351,0.11821 0.27838,0.10185 0.39659,-0.0332 l 0.96259,-1.17394 c 0.10133,-0.1351 0.0931,-0.27838 -0.042,-0.39659 l -2.59248,-2.12781 c -0.1351,-0.10978 -0.1438,-0.25331 -0.034,-0.37997 l 1.01324,-1.24123 c 0.10977,-0.13507 0.25357,-0.16043 0.38867,-0.0507 l 3.15768,2.59169 c 0.1351,0.10978 0.28761,0.10186 0.39738,-0.0332 l 0.96259,-1.17394 c 0.10978,-0.13509 0.0924,-0.28682 -0.0428,-0.39659 l -4.92215,-4.03635 c -0.0676,-0.0549 -0.13959,-0.0778 -0.20819,-0.0705 z m 51.216328,3.08248 c -0.06755,-0.0126 -0.141168,0.004 -0.21294,0.0507 l -1.351256,0.85335 c -0.09288,0.0507 -0.143279,0.13457 -0.143279,0.21056 l 0.261227,6.5101 c 0,0.3884 0.05963,0.8784 0.09341,0.99662 l -0.05066,0.0253 c -0.261754,-0.75149 -0.853077,-1.92543 -1.351256,-2.71914 l -1.781885,-2.82837 c -0.09288,-0.14355 -0.235896,-0.17759 -0.387883,-0.0847 l -1.45258,0.92063 c -0.151985,0.0929 -0.177583,0.23642 -0.0847,0.37997 l 5.32824,8.46059 c 0.09288,0.14353 0.236687,0.17758 0.388674,0.0847 l 1.333841,-0.84463 c 0.09288,-0.0591 0.135363,-0.11848 0.135363,-0.23669 l -0.110032,-6.3494 c -0.01689,-0.4053 -0.07573,-0.7602 -0.09262,-0.79398 l 0.05858,-0.0332 c 0.135099,0.4644 0.642249,1.48557 1.207977,2.38904 l 1.773177,2.82046 c 0.09288,0.14354 0.24434,0.17758 0.387883,0.0847 l 1.469204,-0.92062 c 0.143543,-0.0929 0.177582,-0.24514 0.0847,-0.38868 l -5.32824,-8.46059 c -0.04644,-0.0718 -0.107393,-0.11399 -0.174943,-0.12666 z m -33.586668,3.83608 c 1.1019,0.30186 2.2228,0.55095 3.3627,0.74727 v 6.2837 l -0.13774,0.13773 h -3.08802 l -0.13694,-0.13773 z m 13.44606,1.06154 v 1.39321 c -0.55095,-0.2491 -1.13937,-0.32931 -1.67977,-0.32931 -0.54039,0 -1.1296,0.0802 -1.68056,0.32931 v -1.18661 c 1.13357,-0.0169 2.25421,-0.0864 3.36033,-0.2066 z m -2.77375,-50.057441 a 1.7930553,1.7930553 0 0 1 1.76605,1.818299 v 3.809166 h 2.0162 v -2.688262 a 1.7930553,1.7930553 0 0 1 1.79297,-1.792969 h 10.085736 a 1.7930553,1.7930553 0 0 1 1.268136,0.525619 l 3.36033,3.360331 a 1.7930553,1.7930553 0 0 1 0.52562,1.268136 v 7.843941 a 1.7930553,1.7930553 0 0 1 -0.524828,1.26734 l -2.239429,2.24181 a 1.7930553,1.7930553 0 0 1 -1.26893,0.52562 H 61.253907 l -3.43157,3.43157 v 5.98051 a 1.7933633,1.7933633 0 1 1 -3.58672,0 v -6.72382 a 1.7930553,1.7930553 0 0 1 0.52561,-1.26735 l 4.48203,-4.48123 a 1.7930553,1.7930553 0 0 1 1.26735,-0.52562 h 10.464117 l 1.188979,-1.19056 v -6.35969 l -2.309882,-2.30988 H 62.30357 v 2.74051 4.42898 a 1.7932313,1.7932313 0 1 1 -3.585933,0 v -2.68826 h -2.0162 v 6.05097 a 1.793365,1.793365 0 0 1 -3.58673,0 V 41.286851 a 1.7930553,1.7930553 0 0 1 1.82068,-1.818299 z m -0.0269,0.6974 c -0.6185,0 -1.12089,0.502399 -1.12089,1.120899 0,0.618501 0.50239,1.120904 1.12089,1.120904 0.61851,0 1.12091,-0.502403 1.12091,-1.120904 0,-0.6185 -0.5024,-1.120899 -1.12091,-1.120899 z m 5.60214,1.120899 c -0.6185,0 -1.11853,0.500291 -1.11853,1.120904 0,0.6185 0.50003,1.119314 1.11853,1.119314 0.62061,0 1.120895,-0.500814 1.120903,-1.119314 0,-0.620613 -0.500293,-1.120904 -1.120903,-1.120904 z m 0,8.963252 c -0.6185,0 -1.11853,0.5024 -1.11853,1.1209 0,0.6185 0.50003,1.1209 1.11853,1.12091 0.62061,0 1.120895,-0.50241 1.120903,-1.12091 0,-0.6185 -0.500293,-1.1209 -1.120903,-1.1209 z m -5.60214,3.36271 c -0.6185,0 -1.12089,0.50241 -1.12089,1.1209 0,0.6185 0.50239,1.1209 1.12089,1.1209 0.61851,0 1.12091,-0.5024 1.12091,-1.1209 0,-0.61849 -0.5024,-1.1209 -1.12091,-1.1209 z m 1.12091,12.32596 c -0.6185,0 -1.12091,0.50239 -1.12091,1.12089 0,0.61851 0.50241,1.12091 1.12091,1.12091 0.6185,0 1.1209,-0.5024 1.1209,-1.12091 0,-0.6185 -0.5024,-1.12089 -1.1209,-1.12089 z M 51.582177,29.39073 a 1.7930553,1.7930553 0 0 1 1.23331,0.543036 l 6.1982,6.197414 h 14.943775 a 1.7930553,1.7930553 0 0 1 1.267347,0.525619 l 1.120901,1.120903 a 1.7930553,1.7930553 0 1 1 -2.535485,2.535486 L 73.214152,39.717907 H 58.271177 a 1.7930553,1.7930553 0 0 1 -1.26814,-0.525622 l -6.72304,-6.723825 a 1.7930553,1.7930553 0 0 1 1.30218,-3.07773 z m -0.0348,0.689481 c -0.61851,0 -1.12091,0.5024 -1.12091,1.120902 0,0.618501 0.5024,1.120901 1.12091,1.120901 0.6185,0 1.12089,-0.5024 1.12089,-1.120901 0,-0.618502 -0.50239,-1.120902 -1.12089,-1.120902 z m 23.531009,7.843938 c -0.618502,0 -1.120902,0.502399 -1.120902,1.120899 0,0.618501 0.5024,1.120904 1.120902,1.120904 0.618501,0 1.120901,-0.502403 1.120901,-1.120904 0,-0.6185 -0.5024,-1.120899 -1.120901,-1.120899 z m 3.389596,2.665306 a 1.7930553,1.7930553 0 0 1 1.766053,1.8183 v 13.446858 a 1.7930553,1.7930553 0 0 1 -0.52562,1.26735 l -4.483606,4.48202 a 1.7930553,1.7930553 0 0 1 -1.267347,0.52562 H 62.752405 a 1.793365,1.793365 0 1 1 0,-3.58673 h 10.462539 l 3.432365,-3.43157 V 42.407755 a 1.7930553,1.7930553 0 0 1 1.820673,-1.8183 z m -0.02692,0.697396 c -0.618501,0 -1.120902,0.500291 -1.120902,1.120904 0,0.6185 0.502401,1.119314 1.120902,1.119314 0.618501,0 1.120901,-0.500814 1.120901,-1.119314 0,-0.620613 -0.5024,-1.120904 -1.120901,-1.120904 z M 62.7524,59.214943 c -0.6185,0 -1.120899,0.5024 -1.120899,1.1209 0,0.6185 0.502399,1.1209 1.120899,1.1209 0.618501,0 1.120904,-0.5024 1.1209,-1.1209 0,-0.6185 -0.502399,-1.1209 -1.1209,-1.1209 z M 76.199265,31.649948 a 1.7930553,1.7930553 0 0 1 1.267347,0.525621 l 6.723034,6.723033 a 1.7930553,1.7930553 0 0 1 0.52562,1.26735 v 13.446861 a 1.7932313,1.7932313 0 0 1 -3.585934,0 V 40.90926 L 75.455955,35.235883 H 60.510607 a 1.7932313,1.7932313 0 0 1 0,-3.585935 z m -15.688658,0.672066 c -0.61851,0 -1.11853,0.502401 -1.11853,1.120902 0,0.618501 0.50002,1.120901 1.11853,1.120901 0.62061,0 1.120891,-0.5024 1.120899,-1.120901 0,-0.618501 -0.500289,-1.120902 -1.120899,-1.120902 z m 22.411692,20.169899 c -0.618501,0 -1.120901,0.5024 -1.120901,1.1209 0,0.6185 0.5024,1.1209 1.120901,1.1209 0.618501,0 1.120902,-0.5024 1.120902,-1.1209 0,-0.6185 -0.502401,-1.1209 -1.120902,-1.1209 z"
       style="color:#000000;font-style:normal;font-variant:normal;font-weight:normal;font-stretch:normal;font-size:medium;line-height:normal;font-family:sans-serif;font-variant-ligatures:normal;font-variant-position:normal;font-variant-caps:normal;font-variant-numeric:normal;font-variant-alternates:normal;font-feature-settings:normal;text-indent:0;text-align:start;text-decoration:none;text-decoration-line:none;text-decoration-style:solid;text-decoration-color:#000000;letter-spacing:normal;word-spacing:normal;text-transform:none;writing-mode:lr-tb;direction:ltr;text-orientation:mixed;dominant-baseline:auto;baseline-shift:baseline;text-anchor:start;white-space:normal;shape-padding:0;clip-rule:nonzero;display:inline;overflow:visible;visibility:visible;opacity:1;isolation:auto;mix-blend-mode:normal;color-interpolation:sRGB;color-interpolation-filters:linearRGB;solid-color:#000000;solid-opacity:1;vector-effect:none;fill:#030000;fill-opacity:1;fill-rule:nonzero;stroke:none;stroke-width:3.58823919;stroke-linecap:round;stroke-linejoin:round;stroke-miterlimit:4;stroke-dasharray:none;stroke-dashoffset:0;stroke-opacity:1;color-rendering:auto;image-rendering:auto;shape-rendering:auto;text-rendering:auto;enable-background:accumulate"
       id="path166"
       inkscape:connector-curvature="0" />
    <ellipse
       transform="scale(-1,1)"
       ry="52.371674"
       rx="52.335396"
       cx="-53.800831"
       cy="53.604088"
       id="path4592"
       style="fill:none;fill-opacity:1;stroke:#e30000;stroke-width:0.24767166;stroke-miterlimit:4;stroke-dasharray:none;stroke-opacity:1" />
    <ellipse
       transform="matrix(-0.93843929,0.3454442,0.3454442,0.93843929,0,0)"
       ry="7.1631303"
       rx="4.2489219"
       cy="70.813538"
       cx="-73.266861"
       id="path4549"
       style="fill:none;fill-opacity:1;stroke:#ff0000;stroke-width:0.28366119;stroke-miterlimit:4;stroke-dasharray:none;stroke-opacity:1" />
  </g>
  <rect
     style="fill:#00ff00;fill-opacity:1;stroke:#0000ff;stroke-width:0.28346458;stroke-linecap:round;stroke-linejoin:miter;stroke-miterlimit:0;stroke-dasharray:none;stroke-opacity:1"
     id="rect878"
     width="8.2204733"
     height="8.2204733"
     x="0.14173229"
     y="0.14173214"
     rx="0"
     ry="0" />
</svg>
