<?xml version="1.0" encoding="UTF-8" standalone="no"?>
<svg
   xmlns:dc="http://purl.org/dc/elements/1.1/"
   xmlns:cc="http://creativecommons.org/ns#"
   xmlns:rdf="http://www.w3.org/1999/02/22-rdf-syntax-ns#"
   xmlns:svg="http://www.w3.org/2000/svg"
   xmlns="http://www.w3.org/2000/svg"
   xmlns:sodipodi="http://sodipodi.sourceforge.net/DTD/sodipodi-0.dtd"
   xmlns:inkscape="http://www.inkscape.org/namespaces/inkscape"
   width="37mm"
   height="37mm"
   viewBox="0 0 104.8819 104.8819"
   version="1.2"
   id="svg227"
   sodipodi:docname="xHain_logo3_keychain_3.7cm.svg"
   inkscape:version="0.92.4 (5da689c313, 2019-01-14)">
  <metadata
     id="metadata233">
    <rdf:RDF>
      <cc:Work
         rdf:about="">
        <dc:format>image/svg+xml</dc:format>
        <dc:type
           rdf:resource="http://purl.org/dc/dcmitype/StillImage" />
        <dc:title></dc:title>
      </cc:Work>
    </rdf:RDF>
  </metadata>
  <defs
     id="defs231" />
  <sodipodi:namedview
     pagecolor="#ffffff"
     bordercolor="#666666"
     borderopacity="1"
     objecttolerance="10"
     gridtolerance="10"
     guidetolerance="10"
     inkscape:pageopacity="0"
     inkscape:pageshadow="2"
     inkscape:window-width="1920"
     inkscape:window-height="1017"
     id="namedview229"
     showgrid="false"
     inkscape:zoom="3.9890763"
     inkscape:cx="88.155788"
     inkscape:cy="69.747053"
     inkscape:window-x="-8"
     inkscape:window-y="-8"
     inkscape:window-maximized="1"
     inkscape:current-layer="svg227"
     units="mm"
     inkscape:document-units="mm" />
  <g
     id="g825"
     transform="translate(-1.341685,109.33356)">
    <g
       transform="translate(0,-110.55117)"
       id="g887">
      <g
         id="g881">
        <g
           id="g876">
          <g
             id="g872">
            <path
               inkscape:connector-curvature="0"
               id="path4"
               transform="scale(0.75)"
               d="M 71.648438,1.5605469 C 36.213079,1.5689469 5.8410394,28.424253 2.1933594,64.439453 -1.6991913,102.85548 26.289106,137.15042 64.705078,141.04297 103.12393,144.9327 137.42191,116.94532 141.31445,78.529297 145.20419,40.113254 117.2129,5.8163748 78.796875,1.9238281 76.396048,1.6817748 74.009864,1.5605469 71.648438,1.5605469 Z m -1.22461,3.7753906 c 0.236427,-0.02252 0.393536,0.1014626 0.416016,0.3378906 0,0.090067 -0.02082,0.2019806 -0.05469,0.2695313 l -3.728515,5.5624996 c -0.04507,0.06755 -0.05469,0.101001 -0.05469,0.134766 0.01067,0.03377 0.03306,0.04574 0.07813,0.113281 l 5.751953,6.888672 c 0.04507,0.05629 0.0806,0.113062 0.0918,0.203125 0.02253,0.236424 -0.112677,0.3935 -0.33789,0.416016 l -2.691407,0.259765 c -0.14636,0.02252 -0.302977,-0.04654 -0.404297,-0.18164 l -3.929687,-5.054688 c -0.04507,-0.05629 -0.113005,-0.122595 -0.203125,-0.111328 -0.05627,0 -0.124417,0.06675 -0.158203,0.123047 l -0.810547,1.226563 0.40625,4.121093 c 0.02253,0.225164 -0.112677,0.383733 -0.337891,0.40625 l -2.296875,0.22461 C 61.935,20.297911 61.77643,20.162661 61.75391,19.9375 L 60.470703,6.6757812 c -0.02253,-0.2364253 0.102958,-0.383734 0.328125,-0.40625 l 2.296875,-0.2246093 c 0.225173,-0.02252 0.393496,0.1014626 0.416016,0.3378906 L 63.873047,10.1875 c 0.05627,0.551655 0.04364,1.136749 -0.03516,1.519531 l 3.828125,-5.9667966 c 0.0676,-0.10132 0.156958,-0.1567141 0.269531,-0.1679688 z m -18.43164,3.3378906 c 1.29927,-0.00493 2.420873,0.5408845 3.148437,1.5703129 0.146361,0.19139 0.157169,0.2137 0.179687,0.28125 0.03377,0.10132 0.01146,0.190722 -0.08984,0.269531 l -1.609375,1.363281 c -0.04501,0.03379 -0.101498,0.06732 -0.146485,0.08984 -0.12384,0.04503 -0.304463,7.97e-4 -0.394531,-0.123047 -0.484104,-0.641721 -1.125298,-0.811324 -1.992187,-0.496094 L 49.625,12.158203 c -0.810596,0.292716 -1.115439,1.124601 -0.833984,1.878906 l 2.015625,5.550782 c 0.292668,0.799337 1.035107,1.193105 1.845703,0.90039 l 1.464844,-0.527343 c 0.866839,-0.315231 1.226057,-0.834396 1.214843,-1.65625 -0.0112,-0.180132 0.100772,-0.304577 0.22461,-0.34961 0.04501,-0.02252 0.102368,-0.0332 0.169921,-0.0332 l 2.105469,-0.0098 c 0.123787,0.0112 0.214278,0.06619 0.248047,0.15625 0.02253,0.06755 0.06686,0.203031 0.07813,0.439453 0.146356,1.82384 -1.023722,3.298432 -3.083984,4.052735 l -1.464844,0.529297 c -2.882125,1.047049 -4.6947,0.157587 -5.539068,-2.15036 L 45.830078,14.78125 c -0.810595,-2.21788 0.0571,-4.209412 2.837891,-5.2226562 l 1.46289,-0.5292969 c 0.643787,-0.23572 1.27075,-0.3532421 1.861329,-0.3554688 z m 29.953124,1.2441407 c 0.04907,-0.00773 0.101884,-0.00547 0.158204,0.00586 l 1.578125,0.2812502 c 0.213906,0.04503 0.324762,0.202569 0.291015,0.427734 l -0.359375,1.935547 2.015625,0.373047 c 0.225107,0.04503 0.347708,0.213828 0.302735,0.427735 l -0.28125,1.576171 c -0.04507,0.225166 -0.21428,0.347767 -0.439453,0.302735 l -2.013672,-0.371094 -0.394532,2.128906 c -0.04507,0.225166 -0.213827,0.347768 -0.427734,0.302735 l -1.576172,-0.28125 c -0.225173,-0.04503 -0.349727,-0.214289 -0.304687,-0.439453 l 0.394531,-2.126953 -2.03711,-0.382813 c -0.236466,-0.03377 -0.349714,-0.214288 -0.304687,-0.439453 l 0.28125,-1.576172 c 0.04507,-0.213907 0.20304,-0.326741 0.439453,-0.292969 l 2.03711,0.382813 0.359374,-1.935547 c 0.02533,-0.168875 0.134024,-0.2756086 0.28125,-0.2988292 z m 14.9375,0.3281252 c 0.0476,0.0067 0.09674,0.02351 0.144532,0.04883 l 2.183594,1.160156 c 0.146386,0.07881 0.214843,0.202331 0.214843,0.326172 l -0.574219,7.621094 c -0.05627,0.427814 -0.158681,0.844671 -0.169921,0.867187 l 0.08984,0.04492 c 0.01067,-0.02252 0.338592,-0.360201 0.642578,-0.619141 l 5.900391,-4.80664 c 0.09,-0.07881 0.24629,-0.09053 0.39258,-0.01172 l 2.16211,1.148438 c 0.20264,0.10132 0.26882,0.282187 0.15625,0.496093 l -6.22461,11.78711 c -0.10133,0.202648 -0.3032,0.259527 -0.50586,0.158203 L 99.3125,27.408203 c -0.20264,-0.10132 -0.259456,-0.293444 -0.158203,-0.496094 l 1.734373,-3.27539 c 0.93444,-1.76755 2.24061,-3.637418 2.29688,-3.75 l -0.0781,-0.04492 c -0.0225,0.04503 -1.1825,1.262337 -1.82422,1.802734 l -3.400388,2.757813 c -0.112533,0.09007 -0.269203,0.08904 -0.404296,0.02148 L 95.959014,23.613279 C 95.790121,23.523209 95.698665,23.41198 95.732452,23.265623 L 96.160156,18.875 c 0.0788,-0.833112 0.427735,-2.523783 0.427735,-2.580078 l -0.04492,-0.0332 c -0.05627,0.112586 -0.855554,2.285075 -1.8125,4.097656 l -1.744141,3.298828 c -0.101333,0.202649 -0.304707,0.259529 -0.496094,0.158203 l -2.037109,-1.082031 c -0.191413,-0.10132 -0.259536,-0.291493 -0.158203,-0.494141 l 6.226562,-11.787109 c 0.0844,-0.160432 0.218302,-0.227086 0.361328,-0.207031 z m -60.710937,5.716797 c 0.07177,-0.0043 0.139022,0.01574 0.195313,0.06641 l 10.93164,8.972656 c 0.04504,0.04503 0.05756,0.06732 0.08008,0.08984 0.05629,0.09007 0.03353,0.167747 -0.101562,0.257812 l -2.228516,1.521485 c -0.10132,0.06755 -0.204396,0.06755 -0.283203,0 l -1.496094,-1.306641 c -0.10132,-0.06755 -0.157408,-0.05538 -0.28125,0.02344 l -3.46875,2.363281 c -0.135102,0.09007 -0.168079,0.133511 -0.123047,0.246094 l 0.664063,1.871093 c 0.02252,0.112587 -0.01144,0.201982 -0.101563,0.269532 l -2.21875,1.507812 c -0.135098,0.09007 -0.234721,0.09007 -0.291015,0 -0.03377,-0.04503 -0.06732,-0.135111 -0.08984,-0.191406 0,-0.03377 -4.289063,-13.386719 -4.289063,-13.386719 -0.03377,-0.146359 0.03287,-0.281028 0.167969,-0.371094 l 2.712891,-1.857422 c 0.07317,-0.04504 0.148931,-0.07195 0.220703,-0.07617 z m 0.65625,3.972656 -0.314453,0.212891 0.214844,0.416015 1.585937,4.583985 c 0.05629,0.123839 0.15925,0.167275 0.328125,0.05469 l 2.09375,-1.429687 c 0.168873,-0.112587 0.169686,-0.224848 0.06836,-0.326172 l -3.671876,-3.16211 z m 79.216795,2.902344 c 0.10654,-0.01372 0.21641,0.02689 0.30078,0.111328 l 2.36524,2.296875 c 0.12386,0.112586 0.15733,0.259432 0.0898,0.394531 l -6.58594,12.519531 c -0.0225,0.05629 -0.0342,0.07906 -0.0566,0.101563 -0.0788,0.06755 -0.15739,0.06525 -0.28125,-0.05859 l -1.93554,-1.867187 c -0.0901,-0.09007 -0.11304,-0.179925 -0.0566,-0.28125 l 0.97851,-1.734376 c 0.0563,-0.101319 0.0227,-0.147182 -0.0898,-0.259765 l -3.00586,-2.916016 c -0.12374,-0.12384 -0.16821,-0.134871 -0.26953,-0.08984 l -1.70117,1.035156 c -0.10134,0.04503 -0.19074,0.03584 -0.26954,-0.04297 l -1.92578,-1.869141 c -0.12373,-0.112586 -0.14516,-0.215652 -0.0664,-0.283203 0.0337,-0.04503 0.11175,-0.08973 0.16796,-0.134765 0.0337,-0.0112 12.2383,-6.888672 12.23829,-6.888672 0.0337,-0.01689 0.0679,-0.02863 0.10351,-0.0332 z m -44.292967,0.480468 c 26.60048,0 48.162107,21.565535 48.162107,48.166016 0,20.546333 -12.86591,38.082875 -30.980466,45.003905 v 12.69531 l -2.154297,2.15235 -0.652344,0.6582 h -7.833984 l -0.65625,-0.6582 -1.490235,-1.49414 -0.658203,-0.65821 -2.154297,2.15235 -0.652343,0.6582 h -7.835938 l -0.652344,-0.6582 -2.154297,-2.15235 V 118.67188 C 40.091111,114.17982 23.587891,94.760842 23.587891,71.484375 c 0,-26.600481 21.563597,-48.166016 48.164062,-48.166016 z M 25.265625,24.5 c 0.08865,-0.0084 0.181419,0.0247 0.271484,0.103516 l 10.109375,8.693359 c 0.168874,0.146359 0.191277,0.335493 0.04492,0.515625 l -1.496094,1.734375 c -0.157615,0.180132 -0.360423,0.191278 -0.529296,0.04492 l -3.851563,-3.308594 c -0.168875,-0.146357 -0.359502,-0.125911 -0.505859,0.04297 l -2.587891,3.017578 c -0.146361,0.168875 -0.135669,0.373174 0.0332,0.519531 l 3.84961,3.310547 c 0.16887,0.146357 0.179561,0.335492 0.0332,0.515625 l -1.496094,1.746094 c -0.146356,0.168873 -0.360422,0.191275 -0.529297,0.04492 L 18.5,32.789062 c -0.180129,-0.157615 -0.179562,-0.348704 -0.0332,-0.517578 l 1.498047,-1.74414 c 0.146357,-0.180132 0.349165,-0.204489 0.529297,-0.04687 l 3.601562,3.095703 c 0.168875,0.146357 0.359501,0.125911 0.505859,-0.04297 l 2.591797,-3.017578 c 0.146362,-0.168875 0.133716,-0.373174 -0.03516,-0.519531 l -3.603515,-3.095703 c -0.180128,-0.157616 -0.190821,-0.337447 -0.0332,-0.517579 l 1.498047,-1.732421 c 0.07317,-0.09007 0.157435,-0.141947 0.246094,-0.150391 z m 89.539065,2.119141 -0.34961,0.28125 -4.1875,2.5 c -0.11254,0.06755 -0.13503,0.170049 0.0117,0.316406 l 1.82422,1.765625 c 0.14636,0.14636 0.25873,0.124305 0.32617,0.01172 l 2.375,-4.244141 0.28125,-0.361328 z m 10.49804,6.423828 c 0.1012,0.01415 0.18862,0.07984 0.25196,0.1875 l 1.20508,1.970703 c 0.11253,0.191391 0.0796,0.382018 -0.12305,0.505859 l -3.26563,1.994141 c -0.47277,0.281456 -1.00244,0.527581 -1.39648,0.628906 l 7.03711,0.845703 c 0.12387,0.02252 0.21528,0.08962 0.27148,0.179688 l 1.29492,2.138672 c 0.12387,0.202649 0.0777,0.383971 -0.125,0.507812 -0.0788,0.04503 -0.18096,0.08893 -0.25976,0.06641 l -6.64063,-0.933593 c -0.0901,0 -0.101,4.66e-4 -0.13476,0.01172 -0.0225,0.02252 -0.0345,0.0555 -0.0684,0.123047 l -3.71484,8.16211 c -0.0337,0.0788 -0.0677,0.124888 -0.14649,0.169921 -0.20257,0.12384 -0.40696,0.07804 -0.51953,-0.113281 l -1.40625,-2.308593 c -0.0675,-0.135099 -0.0788,-0.302861 0,-0.449219 l 2.83789,-5.732422 c 0.0337,-0.05629 0.0676,-0.167285 0.0117,-0.246094 -0.0225,-0.04503 -0.11409,-0.06928 -0.18164,-0.0918 l -1.43945,-0.177734 -3.54688,2.148437 c -0.19139,0.112587 -0.39524,0.06835 -0.50781,-0.123047 l -1.20508,-1.970703 c -0.11253,-0.19139 -0.0663,-0.393276 0.125,-0.505859 l 11.39258,-6.923828 c 0.0507,-0.03096 0.10029,-0.0514 0.14844,-0.06055 0.0361,-0.0068 0.0717,-0.0086 0.10546,-0.0039 z M 71.751953,33.234375 A 2.3907404,2.3907404 0 0 0 70.0625,33.935547 l -2.988281,2.988281 a 2.3907404,2.3907404 0 1 0 3.378906,3.38086 l 2.291016,-2.28711 h 16.9375 a 2.3916015,2.3916015 0 0 0 0,-4.783203 z m 17.929688,0.898437 c 0.824666,0 1.490234,0.669473 1.490234,1.494141 0,0.824668 -0.665568,1.494141 -1.490234,1.494141 -0.827494,0 -1.494141,-0.669473 -1.494141,-1.494141 0,-0.824668 0.666647,-1.494141 1.494141,-1.494141 z m -43.330079,2.091797 a 2.3911508,2.3911508 0 0 0 0,4.78125 h 16.435547 a 2.3911508,2.3911508 0 0 0 0,-4.78125 z m 0,0.896485 c 0.827483,0 1.494141,0.666659 1.494141,1.49414 0,0.82467 -0.666658,1.492188 -1.494141,1.492188 -0.824666,0 -1.492187,-0.667518 -1.492187,-1.492188 0,-0.827481 0.667521,-1.49414 1.492187,-1.49414 z m 16.435547,0 c 0.82468,0 1.492188,0.666659 1.492188,1.49414 0,0.82467 -0.667508,1.492188 -1.492188,1.492188 -0.82748,0 -1.49413,-0.667518 -1.49414,-1.492188 0,-0.827481 0.66666,-1.49414 1.49414,-1.49414 z m 5.976563,0 c 0.824667,0 1.494141,0.666659 1.49414,1.49414 0,0.82467 -0.669473,1.492188 -1.49414,1.492188 -0.824667,0 -1.496094,-0.667518 -1.496094,-1.492188 0,-0.827481 0.671427,-1.49414 1.496094,-1.49414 z m 5.929687,2.066406 a 2.3907404,2.3907404 0 0 0 -1.644531,0.724609 l -8.265625,8.263672 H 44.859375 A 2.3907404,2.3907404 0 0 0 43.169922,48.875 l -1.496094,1.496094 A 2.3907404,2.3907404 0 1 0 45.054688,53.75 l 0.794921,-0.792969 h 19.923829 a 2.3907404,2.3907404 0 0 0 1.691406,-0.701172 l 8.964844,-8.964843 A 2.3907404,2.3907404 0 0 0 74.693359,39.1875 Z m 5.890625,0.02344 a 2.3909751,2.3909751 0 1 0 0,4.78125 h 19.925786 l 1.58789,1.589843 v 3.994141 l -1.58789,1.58789 H 83.703125 a 2.3911513,2.3911513 0 0 0 0,4.78125 H 101.5 a 2.3907404,2.3907404 0 0 0 1.68945,-0.699218 l 2.99024,-2.990235 a 2.3907404,2.3907404 0 0 0 0.70117,-1.689453 v -5.976562 a 2.3907404,2.3907404 0 0 0 -0.70117,-1.689453 l -2.99024,-2.988282 A 2.3907404,2.3907404 0 0 0 101.5,39.210938 Z m -5.845703,0.896484 c 0.82468,0 1.496094,0.669472 1.496094,1.49414 0,0.824668 -0.671414,1.494141 -1.496094,1.494141 -0.824666,0 -1.49414,-0.669473 -1.49414,-1.494141 0,-0.824668 0.669474,-1.49414 1.49414,-1.49414 z m 5.978516,0 c 0.824667,0 1.492187,0.669472 1.492187,1.49414 0,0.824668 -0.66752,1.494141 -1.492187,1.494141 -0.82748,0 -1.494141,-0.669473 -1.494141,-1.494141 0,-0.824668 0.666661,-1.49414 1.494141,-1.49414 z m -38.847656,2.091797 a 2.3907404,2.3907404 0 0 0 -1.689453,0.701172 l -8.962891,8.964843 a 2.3907404,2.3907404 0 0 0 -0.701172,1.689454 v 17.929687 a 2.3909751,2.3909751 0 0 0 4.78125,0 V 54.544922 l 7.564453,-7.564453 h 19.925781 a 2.3909751,2.3909751 0 0 0 0,-4.78125 z m 20.917968,0.896484 c 0.82468,0 1.492188,0.669473 1.492188,1.494141 0,0.824668 -0.667508,1.496094 -1.492188,1.496094 -0.82748,0 -1.49413,-0.671426 -1.49414,-1.496094 0,-0.824668 0.66666,-1.494141 1.49414,-1.494141 z m 14.941407,2.09375 a 2.3907404,2.3907404 0 0 0 -1.691407,0.699219 L 73.048828,48.875 a 2.3913193,2.3913193 0 1 0 3.38086,3.382812 l 2.287109,-2.287109 h 19.927734 a 2.3909751,2.3909751 0 1 0 0,-4.78125 z m 20.916015,0.896485 c 0.824667,0 1.494139,0.666656 1.494139,1.49414 0,0.824669 -0.669472,1.490235 -1.494139,1.490234 -0.82748,0 -1.49414,-0.665565 -1.49414,-1.490234 0,-0.827484 0.66666,-1.494141 1.49414,-1.49414 z m 34.369139,1.814453 c 0.14559,0.0132 0.25405,0.114966 0.30469,0.27539 l 2.5,8.117188 c 0.0675,0.21391 -0.0119,0.393388 -0.23633,0.460937 l -1.94726,0.609375 c -0.21392,0.06755 -0.39539,-0.04587 -0.46289,-0.259765 l -1.59766,-5.201172 c -0.0676,-0.225086 -0.24748,-0.315596 -0.47266,-0.248047 l -1.9375,0.597656 c -0.21393,0.06755 -0.30385,0.247488 -0.23633,0.472656 l 1.31641,4.265625 c 0.0675,0.225167 -0.0326,0.395342 -0.25781,0.462891 l -1.9375,0.597656 c -0.21392,0.06755 -0.3817,-0.02287 -0.44922,-0.248047 l -1.31836,-4.267578 c -0.0676,-0.225166 -0.25875,-0.315516 -0.47266,-0.248047 l -2.03711,0.63086 c -0.21388,0.06755 -0.31556,0.247489 -0.24804,0.472656 l 1.59961,5.201172 c 0.0676,0.213905 -0.0106,0.395341 -0.23633,0.462891 l -1.9375,0.595703 c -0.22516,0.06755 -0.40523,-0.03411 -0.47266,-0.248047 l -2.5,-8.117188 c -0.0676,-0.213905 0.0228,-0.405107 0.24805,-0.472656 l 12.63281,-3.894531 c 0.0563,-0.01685 0.10765,-0.02198 0.15625,-0.01758 z m -58.275389,1.169921 c 0.824667,0 1.496094,0.671421 1.496094,1.496094 0,0.824667 -0.671427,1.494141 -1.496094,1.494141 -0.82468,0 -1.49414,-0.669474 -1.49414,-1.494141 0,-0.824673 0.66946,-1.496093 1.49414,-1.496094 z m -31.373047,1.496094 c 0.82467,0 1.494141,0.669474 1.494141,1.494141 0,0.824668 -0.669471,1.49414 -1.494141,1.494141 -0.824668,0 -1.496093,-0.669473 -1.496093,-1.494141 0,-0.824667 0.671425,-1.494141 1.496093,-1.494141 z m 40.337891,1.494141 c 0.824667,0 1.494141,0.669467 1.494141,1.494141 0,0.824665 -0.669474,1.49414 -1.494141,1.49414 -0.824667,0 -1.494141,-0.669475 -1.494141,-1.49414 0,-0.824674 0.669474,-1.494141 1.494141,-1.494141 z M 70.222656,52.625 a 2.3907404,2.3907404 0 0 0 -2.355468,2.423828 v 5.080078 H 65.177734 V 56.542969 A 2.3907404,2.3907404 0 0 0 62.787109,54.152344 H 49.339844 a 2.3907404,2.3907404 0 0 0 -1.689453,0.701172 l -4.480469,4.480468 a 2.3907404,2.3907404 0 0 0 -0.701172,1.691407 v 10.458984 a 2.3907404,2.3907404 0 0 0 0.699219,1.689453 l 2.986328,2.988281 a 2.3907404,2.3907404 0 0 0 1.691406,0.701172 h 13.951172 l 4.576172,4.576172 v 7.972656 a 2.3911511,2.3911511 0 1 0 4.78125,0 V 80.447266 A 2.3907404,2.3907404 0 0 0 70.453125,78.757812 L 64.478516,72.783203 A 2.3907404,2.3907404 0 0 0 62.787109,72.082031 H 48.835938 L 47.25,70.494141 v -8.478516 l 3.080078,-3.080078 h 10.066406 v 3.654297 5.904297 a 2.3909751,2.3909751 0 1 0 4.78125,0 v -3.583985 h 2.689454 v 8.06836 a 2.3911533,2.3911533 0 0 0 4.78125,0 V 55.048828 A 2.3907404,2.3907404 0 0 0 70.222656,52.625 Z m 0.03516,0.929688 c 0.824667,0 1.494141,0.669473 1.494141,1.49414 0,0.824668 -0.669474,1.494141 -1.494141,1.494141 -0.824678,0 -1.49414,-0.669473 -1.49414,-1.494141 0,-0.824667 0.669462,-1.49414 1.49414,-1.49414 z m -31.412109,0.564453 a 2.3907404,2.3907404 0 0 0 -2.355469,2.423828 v 17.929687 a 2.3907404,2.3907404 0 0 0 0.701172,1.689453 l 5.978516,5.976563 a 2.3907404,2.3907404 0 0 0 1.689453,0.701172 h 14.939453 a 2.3916015,2.3916015 0 1 0 0,-4.783203 H 45.849609 L 41.273438,73.482422 V 56.542969 a 2.3907404,2.3907404 0 0 0 -2.427735,-2.423828 z m 68.728513,0 a 2.3907404,2.3907404 0 0 0 -2.35547,2.423828 V 76.46875 l -1.58789,1.587891 h -1.99805 a 2.3916015,2.3916015 0 0 0 0,4.783203 h 2.98828 a 2.3907404,2.3907404 0 0 0 1.68946,-0.701172 l 2.99023,-2.988281 a 2.3907404,2.3907404 0 0 0 0.70117,-1.691407 V 56.542969 a 2.3907404,2.3907404 0 0 0 -2.42773,-2.423828 z m -68.693357,0.929687 c 0.824668,0 1.494141,0.666657 1.494141,1.494141 0,0.824666 -0.669473,1.492187 -1.494141,1.492187 -0.824668,0 -1.49414,-0.667521 -1.49414,-1.492187 0,-0.827484 0.669472,-1.494141 1.49414,-1.494141 z m 23.90625,0 c 0.824667,0 1.492188,0.666657 1.492188,1.494141 0,0.824666 -0.667521,1.492187 -1.492188,1.492187 -0.82748,0 -1.49413,-0.667521 -1.49414,-1.492187 0,-0.827484 0.66666,-1.494141 1.49414,-1.494141 z m 44.824217,0 c 0.82468,0 1.49023,0.666657 1.49023,1.494141 0,0.824666 -0.66555,1.492187 -1.49023,1.492187 -0.82748,0 -1.4961,-0.667521 -1.4961,-1.492187 0,-0.827484 0.66862,-1.494141 1.4961,-1.494141 z m -28.421873,0.597656 a 2.3907404,2.3907404 0 0 0 -1.658203,0.699219 l -2.988281,2.988281 a 2.3907404,2.3907404 0 0 0 -0.701172,1.691407 v 19.421875 a 2.3916015,2.3916015 0 0 0 4.783203,0 V 62.015625 l 0.595703,-0.597656 0.597656,0.595703 v 6.480469 a 2.3909755,2.3909755 0 1 0 4.78125,0 v -7.46875 a 2.3907404,2.3907404 0 0 0 -0.699218,-1.691407 l -2.986329,-2.988281 a 2.3907404,2.3907404 0 0 0 -1.724609,-0.699219 z m 8.960938,1.458985 a 2.3907404,2.3907404 0 0 0 -2.353516,2.425781 v 8.962891 a 2.3909755,2.3909755 0 0 0 4.78125,0 V 59.53125 a 2.3907404,2.3907404 0 0 0 -2.427734,-2.425781 z m 6.011718,0.0332 a 2.3907404,2.3907404 0 0 0 -2.390625,2.392578 v 8.962891 a 2.3911533,2.3911533 0 0 0 4.78125,0 v -6.572266 h 2.6875 v 12.550781 a 2.391603,2.391603 0 0 0 4.783202,0 V 59.53125 a 2.3907404,2.3907404 0 0 0 -2.39063,-2.392578 z M 88.1875,58.035156 c 0.824667,0 1.494127,0.671426 1.494141,1.496094 0,0.824667 -0.669474,1.494141 -1.494141,1.494141 -0.824667,0 -1.496094,-0.669474 -1.496094,-1.494141 0,-0.824668 0.671427,-1.496094 1.496094,-1.496094 z m -37.376953,2.070313 a 2.3907404,2.3907404 0 0 0 -1.666016,4.103515 l 1.296875,1.296875 -1.296875,1.296875 a 2.3920104,2.3920104 0 0 0 3.38086,3.384766 l 1.298828,-1.298828 1.296875,1.294922 A 2.3907404,2.3907404 0 1 0 58.5,66.804688 l -1.296875,-1.296876 1.298828,-1.298828 a 2.3907404,2.3907404 0 0 0 -1.740234,-4.103515 2.3907404,2.3907404 0 0 0 -1.644531,0.722656 l -1.294922,1.298828 -1.296875,-1.298828 a 2.3907404,2.3907404 0 0 0 -1.714844,-0.722656 z m 0.02539,0.919922 c 0.824666,0 1.49414,0.669474 1.49414,1.49414 0,0.824667 -0.669474,1.494141 -1.49414,1.494141 -0.824667,0 -1.496094,-0.669474 -1.496094,-1.494141 0,-0.824666 0.671427,-1.49414 1.496094,-1.49414 z m 5.974609,0 c 0.824667,0 1.494134,0.669474 1.494141,1.49414 0,0.824667 -0.669474,1.494141 -1.494141,1.494141 -0.824668,0 -1.496094,-0.669474 -1.496094,-1.494141 0,-0.824666 0.671426,-1.49414 1.496094,-1.49414 z m 76.884764,1.408203 c 1.84431,0.08987 3.61861,1.785083 3.8086,4.529297 0.15761,2.29668 -0.77703,4.066005 -2.48829,4.820312 -0.23642,0.0676 -0.25865,0.07813 -0.32617,0.07813 -0.10133,0.01067 -0.19129,-0.03477 -0.23633,-0.169922 l -0.85546,-1.925781 c -0.0225,-0.05627 -0.0357,-0.09992 -0.0469,-0.15625 -0.0107,-0.135093 0.0802,-0.269308 0.22656,-0.359375 0.68676,-0.37152 1.06946,-1.105088 1.00196,-2.050781 -0.0676,-1.047027 -0.68722,-1.609493 -1.39649,-1.564453 -0.69801,0.04507 -1.114,0.652722 -1.60937,2.476562 -0.76556,2.949653 -2.1286,4.3688 -4.03125,4.503906 -2.60066,0.16888 -4.38961,-1.542645 -4.60352,-4.638672 -0.16886,-2.510586 0.79931,-4.459258 2.57813,-5.134765 0.22516,-0.09 0.25818,-0.08789 0.31445,-0.08789 0.10133,-0.01067 0.20301,0.04417 0.24805,0.167969 l 0.93359,2.027344 c 0.0225,0.05627 0.0355,0.11125 0.0469,0.15625 0.0107,0.135093 -0.0802,0.270809 -0.22657,0.349609 -0.7318,0.405307 -1.14716,1.125904 -1.06836,2.341797 0.0788,1.125827 0.6856,1.665655 1.45118,1.609375 0.69801,-0.04507 1.23913,-0.574493 1.68945,-2.443359 0.74305,-3.017227 2.08164,-4.379031 4.2207,-4.525391 0.1232,-0.008 0.24815,-0.0086 0.3711,-0.002 z M 50.835938,67 c 0.824666,0 1.49414,0.669474 1.49414,1.494141 0,0.824666 -0.669474,1.49414 -1.49414,1.49414 -0.824667,0 -1.496094,-0.669474 -1.496094,-1.49414 C 49.339844,67.669474 50.011271,67 50.835938,67 Z m 5.974609,0 c 0.824667,0 1.494134,0.669474 1.494141,1.494141 0,0.824666 -0.669474,1.494127 -1.494141,1.49414 -0.824668,0 -1.496094,-0.669474 -1.496094,-1.49414 C 55.314453,67.669474 55.985879,67 56.810547,67 Z m 5.976562,0 c 0.824667,0 1.492188,0.669474 1.492188,1.494141 0,0.824666 -0.667521,1.494127 -1.492188,1.49414 -0.82748,0 -1.49413,-0.669474 -1.49414,-1.49414 0,-0.824667 0.66666,-1.494141 1.49414,-1.494141 z m 19.421875,0 c 0.82748,0 1.494141,0.669474 1.494141,1.494141 0,0.824666 -0.666661,1.494127 -1.494141,1.49414 -0.824666,0 -1.492187,-0.669474 -1.492187,-1.49414 C 80.716797,67.669474 81.384318,67 82.208984,67 Z m 5.978516,0 c 0.824667,0 1.494141,0.669474 1.494141,1.494141 0,0.824666 -0.669474,1.49414 -1.494141,1.49414 -0.824667,0 -1.496094,-0.669474 -1.496094,-1.49414 C 86.691406,67.669474 87.362833,67 88.1875,67 Z m 5.974609,0 c 0.824667,0 1.494141,0.669474 1.494141,1.494141 0,0.824666 -0.669474,1.494127 -1.494141,1.49414 -0.82468,0 -1.49414,-0.669474 -1.49414,-1.49414 0,-0.824667 0.66946,-1.494141 1.49414,-1.494141 z m -74.77539,1.958984 c 0.07881,-0.01067 0.170387,0.07889 0.18164,0.191407 l 0.144532,2.802734 c 0.0112,0.16888 -0.03194,0.282528 -0.144532,0.361328 l -3.11914,1.779297 c -0.292715,0.135107 -1.228659,0.607546 -1.566407,0.753906 v 0.06836 c 0.855628,-0.101334 1.47634,0.144563 2.951172,0.71875 l 1.958985,0.890625 c 0.12384,0.05627 0.180143,0.19157 0.191406,0.33789 l 0.158203,2.9375 c 0,0.112534 -0.102837,0.191912 -0.18164,0.203125 -0.05629,0 -0.12248,-0.01197 -0.15625,-0.02344 l -6.878907,-3.332031 c -0.05629,-0.02253 -0.112593,-0.05664 -0.191406,-0.05664 -0.07881,0.01067 -0.123861,0.0565 -0.191406,0.101562 l -6.1250002,3.884766 c -0.067547,0.05627 -0.1019125,0.05469 -0.1582032,0.05469 -0.1125866,0.01067 -0.1684248,-0.08844 -0.1796875,-0.246093 l -0.15625,-2.847657 c -0.0112,-0.236386 0.089516,-0.339155 0.2246094,-0.417968 L 9.3105469,75.376953 C 9.5920029,75.230633 10.369745,74.80261 10.71875,74.65625 L 10.70703,74.58789 C 10.087825,74.621624 9.0526395,74.31716 7.9042969,73.810547 L 5.9238281,72.921875 C 5.7774708,72.854275 5.6636051,72.754018 5.6523438,72.517578 L 5.5058594,69.703125 c -0.0112,-0.16884 0.045619,-0.248526 0.1582031,-0.259766 0.056293,0 0.1233902,0.02252 0.1796875,0.04492 l 6.945312,3.376953 c 0.07881,0.04507 0.146839,0.04492 0.203126,0.04492 0.06755,1.4e-5 0.125356,-0.02134 0.18164,-0.06641 l 6.056641,-3.851562 c 0.03377,-0.02253 0.08871,-0.0332 0.15625,-0.0332 z m 13.519531,1.029297 c 0.824668,0 1.494141,0.671427 1.494141,1.496094 0,0.824667 -0.669473,1.494141 -1.494141,1.494141 -0.824668,0 -1.494141,-0.669474 -1.494141,-1.494141 0,-0.824667 0.669473,-1.496094 1.494141,-1.496094 z m 37.351562,1.496094 c 0.824667,0 1.494141,0.669487 1.494141,1.494141 0,0.824666 -0.669474,1.49414 -1.494141,1.49414 -0.824678,0 -1.49414,-0.669474 -1.49414,-1.49414 0,-0.824654 0.669462,-1.494141 1.49414,-1.494141 z m 25.363282,0.564453 a 2.3907404,2.3907404 0 0 0 -2.355469,2.423828 v 1.998047 l -5.273437,5.277344 A 2.3907404,2.3907404 0 0 0 87.291016,83.4375 v 2.986328 a 2.3909755,2.3909755 0 1 0 4.78125,0 v -1.996094 l 5.27539,-5.277343 a 2.3907404,2.3907404 0 0 0 0.701172,-1.691407 v -2.986328 a 2.3907404,2.3907404 0 0 0 -2.427734,-2.423828 z m -13.41211,0.0332 a 2.3907404,2.3907404 0 0 0 -2.390625,2.390625 v 5.97461 a 2.3907404,2.3907404 0 0 0 0.701172,1.691406 l 1.494141,1.49414 a 2.3907404,2.3907404 0 1 0 3.378906,-3.380859 l -0.792969,-0.794922 v -2.59375 h 5.082032 a 2.3909755,2.3909755 0 0 0 0,-4.78125 z m 7.472657,0.896485 c 0.824653,0 1.490234,0.66666 1.490234,1.49414 0,0.824667 -0.665581,1.492188 -1.490234,1.492188 -0.827494,0 -1.494141,-0.667521 -1.494141,-1.492188 0,-0.82748 0.666647,-1.49414 1.494141,-1.49414 z m 5.974609,0 c 0.824667,0 1.494141,0.66666 1.494141,1.49414 0,0.824667 -0.669474,1.492188 -1.494141,1.492188 -0.824667,0 -1.494141,-0.667521 -1.494141,-1.492188 0,-0.82748 0.669474,-1.49414 1.494141,-1.49414 z m 5.97656,0 c 0.82467,0 1.49414,0.66666 1.49414,1.49414 0,0.824667 -0.66947,1.492188 -1.49414,1.492188 -0.82466,0 -1.49414,-0.667521 -1.49414,-1.492188 0,-0.82748 0.66948,-1.49414 1.49414,-1.49414 z m 22.19727,2.595703 13.06054,2.070312 c 0.22518,0.03373 0.33654,0.202561 0.30274,0.427735 l -0.81055,5.078125 c -0.46158,2.9384 -2.29583,4.143574 -4.89648,3.738281 l -0.32617,-0.05664 c -2.17284,-0.337746 -3.99825,-2.128458 -3.52539,-5.078125 l 0.3164,-2.060547 c 0.0451,-0.22516 -0.0678,-0.382309 -0.29297,-0.416015 l -4.30078,-0.6875 c -0.22517,-0.03373 -0.34824,-0.202668 -0.31445,-0.427735 l 0.35937,-2.273437 c 0.0337,-0.22516 0.20258,-0.348253 0.42774,-0.314454 z m -64.031252,3.378906 c 0.824667,0 1.494141,0.669474 1.494141,1.494141 0,0.824666 -0.669474,1.49414 -1.494141,1.49414 -0.824668,0 -1.494146,-0.669474 -1.49414,-1.49414 0,-0.824667 0.669472,-1.494141 1.49414,-1.494141 z m 16.435547,0 c 0.824667,0 1.494141,0.669474 1.494141,1.494141 0,0.824666 -0.669474,1.49414 -1.494141,1.49414 -0.824667,0 -1.496094,-0.669474 -1.496094,-1.49414 0,-0.824667 0.671427,-1.494141 1.496094,-1.494141 z m 25.398435,0 c 0.82467,0 1.49414,0.669474 1.49414,1.494141 0,0.824666 -0.66947,1.49414 -1.49414,1.49414 -0.82466,0 -1.49414,-0.669474 -1.49414,-1.49414 0,-0.824667 0.66948,-1.494141 1.49414,-1.494141 z m 29.32031,0.865234 c -0.14617,0.02797 -0.24357,0.133855 -0.27734,0.302735 L 130.34961,82.25 c -0.13509,0.84428 0.33808,1.588015 1.25,1.734375 l 0.30273,0.04297 c 0.91192,0.146346 1.61099,-0.415406 1.7461,-1.259766 l 0.32617,-2.126953 c 0.0451,-0.225173 -0.0683,-0.384262 -0.30469,-0.417969 l -2.55469,-0.404297 c -0.0591,-0.0084 -0.11338,-0.0093 -0.16211,0 z m -47.249995,0.628907 c 0.824667,0 1.494141,0.669474 1.494141,1.49414 0,0.824667 -0.669474,1.496094 -1.494141,1.496094 -0.824667,0 -1.494141,-0.671427 -1.494141,-1.496094 0,-0.824666 0.669474,-1.49414 1.494141,-1.49414 z m -63.232422,2.24414 c 0.145655,0.0053 0.254026,0.101306 0.304688,0.261719 l 0.730468,2.183594 c 0.06755,0.213906 -0.01111,0.405575 -0.236328,0.484375 l -4.513672,1.486328 c -0.213904,0.0676 -0.292158,0.235804 -0.224609,0.460937 l 1.238281,3.761719 c 0.06755,0.21388 0.235311,0.313601 0.449219,0.246094 l 4.515625,-1.486328 c 0.225165,-0.0788 0.393848,0.0012 0.472656,0.226562 L 23.927734,92.5 c 0.06755,0.213893 -0.0111,0.39387 -0.236328,0.472656 l -12.666015,4.166016 c -0.213908,0.0676 -0.393389,-0.02244 -0.460938,-0.236328 L 9.84375,94.716797 c -0.078813,-0.22516 0.01074,-0.393418 0.224609,-0.460938 l 4.830079,-1.585937 c 0.213903,-0.0788 0.292158,-0.260703 0.224609,-0.47461 l -1.238281,-3.759765 c -0.06755,-0.225187 -0.235312,-0.315142 -0.449219,-0.236328 l -4.8300782,1.58789 c -0.213908,0.0676 -0.3933869,-0.03414 -0.4609376,-0.248047 l -0.734375,-2.183593 c -0.067547,-0.213907 0.024377,-0.40515 0.2382813,-0.472657 L 20.3125,82.716797 c 0.05629,-0.01973 0.109658,-0.02712 0.158203,-0.02539 z m 40.822266,2.238282 -1.494141,1.49414 v 10.458984 l 1.494141,1.494141 2.986328,1.494141 v 28.388679 l 1.494141,1.49023 h 5.978515 l 1.492188,-1.49023 V 99.871094 l 2.988281,-1.494141 1.496094,-1.494141 V 86.423828 l -1.496094,-1.49414 h -3.734375 v 8.21875 l -3.734375,1.49414 -3.734375,-1.49414 v -8.21875 z m 20.916015,0 -1.492187,1.49414 V 107.3418 h -1.494141 l -1.49414,1.49414 v 19.42383 l 1.49414,1.49023 h 5.97461 l 1.49414,-1.49023 v -19.42383 l -1.49414,-1.49414 H 83.703125 V 86.423828 Z m 7.472657,0 c 0.824653,0 1.490234,0.669473 1.490234,1.49414 0,0.82468 -0.665581,1.494141 -1.490234,1.494141 -0.827494,0 -1.494141,-0.669461 -1.494141,-1.494141 0,-0.824667 0.666647,-1.494141 1.494141,-1.49414 z m 32.240239,0.658203 c 0.022,-0.0027 0.0458,-2.01e-4 0.0683,0.0078 0.0563,0.02253 0.13513,0.08931 0.19141,0.123047 0.0225,0.02253 10.93164,8.816406 10.93164,8.816406 0.11267,0.101334 0.14559,0.258403 0.0781,0.416016 l -1.25,3.041016 c -0.0676,0.157653 -0.192,0.247089 -0.34961,0.224609 l -14.06055,-1.474609 c -0.0676,-0.02253 -0.0893,-0.03568 -0.12305,-0.04688 -0.0901,-0.03373 -0.1129,-0.111864 -0.0566,-0.269531 l 1.02539,-2.488281 c 0.0563,-0.112533 0.13501,-0.169443 0.23633,-0.158203 l 1.98047,0.271484 c 0.11253,0 0.15856,-0.03331 0.21484,-0.179687 l 1.59766,-3.873047 c 0.0675,-0.157627 0.0568,-0.21373 -0.0332,-0.28125 L 120.78512,88.5117 c -0.0788,-0.0676 -0.10158,-0.158911 -0.0566,-0.271485 l 1.02539,-2.474609 c 0.0423,-0.109867 0.10203,-0.169294 0.16797,-0.177734 z m -53.158208,2.330078 c 0.824667,0 1.49414,0.669474 1.49414,1.49414 0,0.82468 -0.669473,1.496094 -1.49414,1.496094 -0.824667,0 -1.496094,-0.671414 -1.496094,-1.496094 0,-0.824666 0.671427,-1.49414 1.496094,-1.49414 z m 56.046878,3.71875 c -0.0564,0.0093 -0.10796,0.06076 -0.15235,0.162109 l -0.96875,2.353516 c -0.0788,0.191386 -0.0218,0.280666 0.11328,0.314453 l 4.80665,0.630859 0.43945,0.113282 0.14648,-0.34961 -0.39453,-0.224609 -3.84961,-2.951172 c -0.0281,-0.02253 -0.0555,-0.03705 -0.082,-0.04492 -0.0199,-0.0053 -0.0398,-0.0079 -0.0586,-0.0039 z m -97.599612,6.966797 c 0.107133,0.0067 0.205888,0.07184 0.273437,0.18164 l 1.8125,2.736327 c 0.10132,0.14635 0.10132,0.30343 0,0.41602 l -9.095703,10.81836 c -0.04503,0.0676 -0.06732,0.0786 -0.08984,0.0898 -0.09007,0.0563 -0.17016,0.0349 -0.271484,-0.11132 L 18.35352,110.4941 c -0.06755,-0.10133 -0.06708,-0.2044 0.01172,-0.2832 l 1.31836,-1.48438 c 0.07881,-0.09 0.06663,-0.15739 -0.02344,-0.28125 l -2.318359,-3.49023 c -0.09007,-0.14634 -0.124202,-0.16855 -0.248047,-0.13477 l -1.880859,0.64063 c -0.10132,0.0225 -0.190264,-2.3e-4 -0.257813,-0.10156 l -1.474609,-2.22852 c -0.10132,-0.14635 -0.09007,-0.23669 0,-0.29297 0.04503,-0.0225 0.13511,-0.0673 0.191406,-0.0898 0.03377,-0.0107 13.429687,-4.130866 13.429687,-4.130865 0.03659,-0.01067 0.07367,-0.01594 0.109376,-0.01367 z m 89.691402,1.05664 c 0.73704,0.03947 1.47993,0.345697 2.21875,0.894537 l 5.25782,3.90625 c 1.90265,1.41853 2.26354,3.55808 0.49609,5.93359 l -0.93359,1.26172 c -1.29471,1.745 -3.14225,2.3869 -4.85352,1.72266 -0.22516,-0.0788 -0.24841,-0.10296 -0.30469,-0.13672 -0.0788,-0.0676 -0.11134,-0.15546 -0.0664,-0.2793 l 0.60742,-2.01562 c 0.0107,-0.0563 0.0325,-0.11321 0.0664,-0.15821 0.0788,-0.10133 0.25013,-0.16955 0.39649,-0.11328 0.76557,0.2702 1.39515,0.056 1.93555,-0.67578 l 0.93359,-1.25977 c 0.51788,-0.69801 0.30522,-1.54128 -0.34766,-2.02539 l -4.74023,-3.51367 c -0.68676,-0.51788 -1.50946,-0.4387 -2.02734,0.24805 l -0.9336,1.25976 c -0.5404,0.73168 -0.55189,1.37334 -0.10156,2.04883 0.11253,0.13511 0.0901,0.30493 0.0117,0.40625 -0.0337,0.0451 -0.0799,0.0799 -0.125,0.125 l -1.75586,1.14844 c -0.11253,0.0788 -0.22556,0.0659 -0.29297,0.01 -0.0563,-0.0337 -0.16773,-0.12312 -0.30273,-0.31446 -1.12583,-1.44105 -0.94659,-3.32194 0.35937,-5.07812 l 0.92383,-1.25 c 1.1398,-1.53395 2.34971,-2.21019 3.57812,-2.144537 z m -91.71484,2.390627 -0.416016,0.18945 -4.603515,1.54297 c -0.135099,0.0563 -0.180945,0.14558 -0.06836,0.31446 l 1.40625,2.11914 c 0.112587,0.16888 0.224848,0.17942 0.326172,0.0781 l 3.208985,-3.63672 0.349609,-0.29297 z m 9.005859,5.5332 c 0.08865,0.001 0.175099,0.0443 0.253907,0.12305 l 1.644531,1.62109 c 0.15762,0.15763 0.180615,0.34872 0.01172,0.51758 l -9.355469,9.49219 c -0.157616,0.16885 -0.371681,0.16726 -0.529297,0.01 l -1.644531,-1.6211 c -0.157615,-0.15762 -0.157615,-0.36041 0,-0.52929 l 9.355469,-9.49024 c 0.08444,-0.0844 0.175011,-0.12451 0.263671,-0.12305 z m 73.763671,1.14454 c 0.0915,0.009 0.17878,0.0584 0.25195,0.14843 l 8.38672,10.22461 c 0.14639,0.16887 0.11373,0.36927 -0.0664,0.51563 L 109.9668,125 c -0.18014,0.14635 -0.37317,0.12401 -0.51953,-0.0449 l -1.29493,-1.57617 c -0.13512,-0.16888 -0.12349,-0.38294 0.0566,-0.5293 l 4.21094,-3.45703 c 0.18012,-0.14636 0.20259,-0.32574 0.0449,-0.50586 l -1.2832,-1.56445 c -0.13511,-0.1801 -0.33746,-0.21467 -0.51758,-0.0684 l -3.45703,2.83789 c -0.18013,0.15761 -0.37168,0.13514 -0.5293,-0.0449 l -1.2832,-1.56641 c -0.13511,-0.18013 -0.12349,-0.36973 0.0566,-0.52735 l 3.45703,-2.83789 c 0.18014,-0.14637 0.19132,-0.33698 0.0449,-0.50585 l -1.35156,-1.65626 c -0.14636,-0.18009 -0.33744,-0.21271 -0.51758,-0.0664 l -4.21093,3.45508 c -0.18014,0.14637 -0.38294,0.13515 -0.5293,-0.0449 l -1.2832,-1.56446 c -0.14638,-0.18012 -0.12363,-0.38294 0.0566,-0.5293 l 6.5625,-5.38085 c 0.0901,-0.0732 0.18587,-0.10349 0.27734,-0.0937 z m -68.287108,4.10937 c 0.09007,-0.0168 0.187507,0.006 0.283203,0.0684 l 1.800781,1.13672 c 0.12384,0.0676 0.191406,0.17993 0.191406,0.28125 l -0.347656,8.67969 c 0,0.51786 -0.07996,1.17049 -0.125,1.32812 l 0.06836,0.0352 c 0.349005,-1.00199 1.136542,-2.56868 1.800781,-3.62696 l 2.376953,-3.76953 c 0.12384,-0.1914 0.312976,-0.23713 0.515625,-0.11328 l 1.9375,1.22656 c 0.202647,0.12387 0.237125,0.31642 0.113281,0.50782 l -7.105468,11.27929 c -0.12384,0.19138 -0.314929,0.23712 -0.517579,0.11329 l -1.777343,-1.125 c -0.12384,-0.0788 -0.181641,-0.1588 -0.181641,-0.31641 l 0.146484,-8.46485 c 0.02252,-0.54039 0.10248,-1.01355 0.125,-1.05859 l -0.07813,-0.0449 c -0.180132,0.6192 -0.857024,1.98092 -1.611328,3.18555 l -2.365234,3.75976 c -0.12384,0.19139 -0.324234,0.23712 -0.515625,0.11328 l -1.958985,-1.22656 c -0.19139,-0.12387 -0.237123,-0.32814 -0.113281,-0.51953 l 7.103516,-11.28125 c 0.06192,-0.0957 0.144308,-0.15108 0.234375,-0.16797 z m 29.09375,10.19141 c 1.649333,0 2.240234,0.59088 2.240234,2.24023 0,1.64933 -0.590901,2.24024 -2.240234,2.24024 -1.649333,0 -2.240235,-0.59091 -2.240234,-2.24024 0,-1.64935 0.590901,-2.24023 2.240234,-2.24023 z"
               style="fill:#030000;fill-opacity:1;fill-rule:nonzero;stroke:none;stroke-width:0.72052932" />
          </g>
        </g>
      </g>
    </g>
    <ellipse
       ry="52.371674"
       rx="52.335396"
       cx="53.800831"
       cy="-56.947079"
       id="path4592"
       style="fill:none;fill-opacity:1;stroke:#e30000;stroke-width:0.2475;stroke-miterlimit:4;stroke-dasharray:none;stroke-opacity:1" />
    <ellipse
       transform="rotate(20.208914)"
       ry="7.1631303"
       rx="4.2489219"
       cy="-70.102394"
       cx="-10.478492"
       id="path4549"
       style="fill:none;fill-opacity:1;stroke:#ff0000;stroke-width:0.28346458;stroke-miterlimit:4;stroke-dasharray:none;stroke-opacity:1" />
  </g>
  <rect
     style="fill:#00ff00;fill-opacity:1;stroke:#0000ff;stroke-width:0.28346458;stroke-linecap:round;stroke-linejoin:miter;stroke-miterlimit:0;stroke-dasharray:none;stroke-opacity:1"
     id="rect878"
     width="8.2204733"
     height="8.2204733"
     x="0.14173229"
     y="0.1417326"
     rx="0"
     ry="0"
     inkscape:transform-center-x="-8.9353568"
     inkscape:transform-center-y="-1.641184" />
</svg>
