<?xml version="1.0" encoding="UTF-8" standalone="no"?>
<!DOCTYPE svg PUBLIC "-//W3C//DTD SVG 1.1//EN" "http://www.w3.org/Graphics/SVG/1.1/DTD/svg11.dtd">
<svg width="100%" height="100%" viewBox="0 0 934 433" version="1.1" xmlns="http://www.w3.org/2000/svg" xmlns:xlink="http://www.w3.org/1999/xlink" xml:space="preserve" xmlns:serif="http://www.serif.com/" style="fill-rule:evenodd;clip-rule:evenodd;">
    <g id="Layer-1" serif:id="Layer 1" transform="matrix(1,0,0,1,-338.188,-27.5835)">
        <g id="g2186" transform="matrix(1,0,0,1,35.0128,126.236)">
            <path id="path10100-7" d="M704.88,281.065L704.88,233.905L709.426,233.905L709.426,230.685L695.789,230.685L695.774,290.881L632.22,290.881L616.666,275.882L532.111,275.882L532.111,284.881L507.557,284.881L507.557,240.901L496.31,240.989L496.31,290.881L472.592,290.881L472.592,281.881L453.747,281.881L453.747,290.881L425.716,290.881L425.716,281.881L406.871,281.881L406.871,290.881L380.34,290.881L380.34,281.881L361.495,281.881L361.495,290.881L338.809,290.881L338.808,192.309L496.309,192.309L496.31,206.774L507.557,206.774L507.559,192.309L696.666,192.309L696.666,199.542L706.844,199.542L706.844,192.309L792.006,192.309L792,219.986L794.426,219.986L794.432,192.309L859.433,192.309L859.433,310.084L836.704,310.084L836.642,317.968L814.523,317.966L814.523,310.084L794.434,310.084L794.347,245.894L791.92,245.894L792.005,310.084L752.592,310.084L752.592,317.966L729.464,317.966L729.464,310.084L723.585,310.463L704.88,280.689L704.88,281.065ZM728.176,281.066L728.176,230.211L724.314,230.04L724.37,232.722L727.816,232.888L728.176,281.065L726.79,281.065" style="fill:none;fill-rule:nonzero;stroke:black;stroke-width:2.8px;"/>
        </g>
        <g id="path5397" transform="matrix(1,0,0,1,327.699,4.24238)">
            <path d="M61.486,33.662L61.486,56.965L46.569,56.965L46.569,132.233L63.176,132.233L63.176,157.412L46.569,157.412L46.569,229.052L61.486,229.052L61.486,235.871L145.456,235.551L145.456,241.887L61.486,242.206L61.486,250.266L46.569,250.266L46.569,273.751L61.486,273.751L61.486,286.252L207.138,286.252L207.138,242.121L170.194,242.257L170.194,235.563L206.948,235.427L206.948,204.051L213.454,203.923L213.454,214.937L338.773,215.402L338.773,187.573L346.35,187.573L346.35,167.876L337.921,167.876L337.921,156.605L324.569,143.253L318.696,143.253L318.696,130.563L329.114,130.563L348.055,149.503L354.115,149.503L354.115,163.708L400.58,163.708L400.58,150.26L403.549,150.261L403.488,65.658L417.126,65.658L417.186,75.256L412.641,75.256L412.641,122.796L435.578,122.796L435.578,74.24L432.131,74.074L432.015,65.014L435.878,65.185L435.95,122.734L438.79,122.734L438.778,126.584L412.073,126.584L412.073,159.542L426.846,174.315L463.384,173.897L463.384,125.538L461.339,125.538L461.351,122.569L464.71,122.569L464.71,173.897L499.766,173.936L499.654,64.121L502.084,64.121L502.194,173.936L522.285,173.936L522.285,181.819L544.402,181.819L544.465,173.936L567.194,173.936L567.194,72.226L575.149,72.226L575.149,49.876L567.194,49.876L567.194,33.662L502.194,33.662L502.194,39.111L499.764,39.111L499.764,33.662L414.605,33.662L414.605,40.894L404.426,40.894L404.426,33.662L215.319,33.662L215.319,48.126L204.069,48.126L204.069,33.662L61.486,33.662ZM206.948,130.184L291.043,130.184L291.043,142.685L213.418,142.814L213.772,178.714L207.302,178.205L206.948,130.184Z" style="fill:none;fill-rule:nonzero;stroke:black;stroke-width:2.83px;"/>
        </g>
        <g id="path10098" transform="matrix(1,0,0,1,327.699,4.24238)">
            <path d="M413.218,82.926L435.945,82.926L413.218,82.926ZM413.028,91.449L435.567,91.449L413.028,91.449ZM413.407,99.215L436.136,99.215L413.407,99.215ZM413.218,107.36L435.188,107.36L413.218,107.36ZM412.65,114.936L435.756,114.936L412.65,114.936Z" style="fill:none;fill-rule:nonzero;stroke:black;stroke-width:2px;"/>
        </g>
        <g id="path1512" transform="matrix(1.41073,0,0,1.41073,309.698,-69.4755)">
            <path d="M46.667,166.616L63.241,166.616C63.233,170.998 61.483,175.198 58.372,178.283C55.261,181.368 51.048,183.084 46.667,183.048" style="fill:none;fill-rule:nonzero;stroke:rgb(208,212,235);stroke-width:1.42px;"/>
        </g>
        <g id="rect1" transform="matrix(0.387046,0,0,1,473.675,4.13764)">
            <rect x="254.583" y="142.685" width="8.126" height="72.203" style="fill:none;stroke:black;stroke-width:1.98px;stroke-linecap:round;stroke-linejoin:round;"/>
        </g>
        <g id="path416" transform="matrix(0.63251,0,0,0.63251,898.149,-254.233)">
            <path d="M87.61,1072.77L88.864,457.157L286.75,457.157L286.75,507.476L490.15,507.476L490.15,740.812L463.884,780.445L463.884,938.465L272.917,938.465L242.72,970.22L242.72,1116.63L125.556,1116.63" style="fill:none;stroke:black;stroke-width:4.43px;"/>
        </g>
        <g id="path518" transform="matrix(0.63251,0,0,0.63251,898.149,-254.233)">
            <path d="M282.282,541.686L282.282,681.326L88.407,681.326" style="fill:none;stroke:black;stroke-width:4.43px;"/>
        </g>
        <g id="path520" transform="matrix(0.63251,0,0,0.63251,898.149,-254.233)">
            <path d="M282.282,737.679L282.282,883.729" style="fill:none;stroke:black;stroke-width:4.43px;"/>
        </g>
        <g id="path522" transform="matrix(0.63251,0,0,0.63251,898.149,-254.233)">
            <path d="M87.21,820.097L152.87,820.097M184.832,820.097L282.282,820.097" style="fill:none;stroke:black;stroke-width:4.43px;"/>
        </g>
        <g id="path557">
        </g>
        <g id="path604" transform="matrix(0.63251,0,0,0.63251,898.149,-254.233)">
            <path d="M336.394,510.027L336.394,549.805" style="fill:none;stroke:black;stroke-width:4.43px;"/>
        </g>
        <g id="path612" transform="matrix(0.63251,0,0,0.63251,898.149,-254.233)">
            <path d="M490.15,591.92L336.394,590.547L336.394,618.836" style="fill:none;stroke:black;stroke-width:4.43px;"/>
        </g>
        <g id="path614" transform="matrix(0.63251,0,0,0.63251,898.149,-254.233)">
            <path d="M490.15,662.613L336.394,662.613L336.394,717.433" style="fill:none;stroke:black;stroke-width:4.43px;"/>
        </g>
        <g id="path618" transform="matrix(0.63251,0,0,0.63251,898.149,-254.233)">
            <path d="M415.852,875.239L463.884,875.239" style="fill:none;stroke:black;stroke-width:4.43px;"/>
        </g>
        <g id="path620" transform="matrix(0.63251,0,0,0.63251,898.149,-254.233)">
            <path d="M377.287,875.239L336.394,875.239L336.394,769.147L353.027,769.147M353.027,769.147L382.599,769.147M382.599,769.147L471.371,769.147" style="fill:none;stroke:black;stroke-width:4.43px;"/>
        </g>
        <g id="path782" transform="matrix(0.63251,0,0,0.63251,898.149,-254.233)">
            <path d="M396.977,727.424L396.977,662.613" style="fill:none;stroke:black;stroke-width:4.43px;"/>
        </g>
        <g id="path784" transform="matrix(0.63251,0,0,0.63251,898.149,-254.233)">
            <path d="M396.977,715.118L381.025,715.118" style="fill:none;stroke:black;stroke-width:4.43px;"/>
        </g>
        <g id="path1250" transform="matrix(0.63251,0,0,0.63251,898.149,-254.233)">
            <path d="M87.61,1072.77L125.556,1116.63" style="fill:none;stroke:black;stroke-width:1px;"/>
        </g>
        <g id="path1264" transform="matrix(0.63251,0,0,0.63251,898.149,-254.233)">
            <path d="M152.87,820.097L184.832,820.097" style="fill:none;stroke:black;stroke-width:1px;"/>
        </g>
        <g id="path1266" transform="matrix(0.63251,0,0,0.63251,898.149,-254.233)">
            <path d="M282.282,737.679L282.282,688.163" style="fill:none;stroke:black;stroke-width:1px;"/>
        </g>
        <g id="path1268" transform="matrix(0.63251,0,0,0.63251,898.149,-254.233)">
            <path d="M282.282,541.686L282.282,515.17" style="fill:none;stroke:black;stroke-width:1px;"/>
        </g>
        <g id="path1270" transform="matrix(0.63251,0,0,0.63251,898.149,-254.233)">
            <path d="M336.394,549.805L336.394,583.135" style="fill:none;stroke:black;stroke-width:1px;"/>
        </g>
        <g transform="matrix(0.397976,0,0,0.397976,1004.66,124.238)">
            <g id="text926">
                <g>
                    <text x="0px" y="0px" style="font-family:'Helvetica';font-size:26.667px;">39m</text>
                    <g transform="matrix(1,0,0,1,51.875,-8.88)">
                        <text x="0px" y="0px" style="font-family:'Helvetica';font-size:15.547px;">2</text>
                    </g>
                </g>
            </g>
        </g>
        <g transform="matrix(0.397976,0,0,0.397976,1142.95,106.744)">
            <g id="text9261" serif:id="text926">
                <g>
                    <text x="0px" y="0px" style="font-family:'Helvetica';font-size:26.667px;">9m</text>
                    <g transform="matrix(1,0,0,1,37.044,-8.88)">
                        <text x="0px" y="0px" style="font-family:'Helvetica';font-size:15.547px;">2</text>
                    </g>
                </g>
            </g>
        </g>
        <g transform="matrix(0.397976,0,0,0.397976,999.851,245.163)">
            <g id="text9262" serif:id="text926">
                <g>
                    <text x="0px" y="0px" style="font-family:'Helvetica';font-size:26.667px;">20m</text>
                    <g transform="matrix(1,0,0,1,51.875,-8.88)">
                        <text x="0px" y="0px" style="font-family:'Helvetica';font-size:15.547px;">2</text>
                    </g>
                </g>
            </g>
        </g>
        <g id="path1165" transform="matrix(0.63251,0,0,0.63251,898.149,-254.233)">
            <path d="M344.185,715.124L381.025,715.118" style="fill:none;stroke:black;stroke-width:1px;"/>
        </g>
        <g id="path1167" transform="matrix(0.63251,0,0,0.63251,898.149,-254.233)">
            <path d="M396.977,727.424L397.341,762.032" style="fill:none;stroke:black;stroke-width:1px;"/>
        </g>
        <g id="path1272" transform="matrix(0.63251,0,0,0.63251,898.149,-254.233)">
            <path d="M336.394,618.836L336.394,653.327" style="fill:none;stroke:black;stroke-width:1px;"/>
        </g>
        <g id="path15121" serif:id="path1512" transform="matrix(1.8027,-0.00109945,0.00109945,1.8027,457.536,35.1396)">
            <path d="M46.667,166.616L63.241,166.616C63.233,170.998 61.483,175.198 58.372,178.283C55.261,181.368 51.048,183.084 46.667,183.048" style="fill:none;fill-rule:nonzero;stroke:black;stroke-width:1.42px;"/>
        </g>
        <g id="path15122" serif:id="path1512" transform="matrix(1.41073,0,0,1.41073,309.698,-69.4755)">
            <path d="M46.667,166.616L63.241,166.616C63.233,170.998 61.483,175.198 58.372,178.283C55.261,181.368 51.048,183.084 46.667,183.048" style="fill:none;fill-rule:nonzero;stroke:black;stroke-width:1.42px;"/>
        </g>
        <g id="path15123" serif:id="path1512" transform="matrix(-1.41064,0.0160444,-0.0160444,-1.41064,604.385,441.916)">
            <path d="M46.667,166.616L63.241,166.616C63.233,170.998 61.483,175.198 58.372,178.283C55.261,181.368 51.048,183.084 46.667,183.048" style="fill:none;fill-rule:nonzero;stroke:black;stroke-width:1.42px;"/>
        </g>
        <g transform="matrix(1.53529,0,0,1.62112,984.78,103.355)">
            <text x="0px" y="0px" style="font-family:'Helvetica-Bold', 'Helvetica';font-weight:700;font-size:10.649px;">Room 2</text>
        </g>
        <g transform="matrix(1.53529,0,0,1.53529,590.799,57.429)">
            <text x="0px" y="0px" style="font-family:'Helvetica-Bold', 'Helvetica';font-weight:700;font-size:10.649px;">Electronics</text>
        </g>
        <g transform="matrix(1.53529,0,0,1.53529,667.307,132.244)">
            <text x="0px" y="0px" style="font-family:'Helvetica-Bold', 'Helvetica';font-weight:700;font-size:10.649px;">Sewing</text>
        </g>
        <g transform="matrix(1.53529,0,0,1.62112,393.991,272.327)">
            <text x="0px" y="0px" style="font-family:'Helvetica-Bold', 'Helvetica';font-weight:700;font-size:10.649px;">Laserlab</text>
        </g>
        <g transform="matrix(1.53529,0,0,1.62112,414.798,371.697)">
            <text x="0px" y="0px" style="font-family:'Helvetica-Bold', 'Helvetica';font-weight:700;font-size:10.649px;">Hobelhöhle</text>
        </g>
        <g transform="matrix(9.40092e-17,1.53529,-1.62112,9.92649e-17,858.823,350.878)">
            <text x="0px" y="0px" style="font-family:'Helvetica-Bold', 'Helvetica';font-weight:700;font-size:10.649px;">3D Lab</text>
        </g>
        <g transform="matrix(1.53529,0,0,1.62112,603.628,372.223)">
            <text x="0px" y="0px" style="font-family:'Helvetica-Bold', 'Helvetica';font-weight:700;font-size:10.649px;">Scubar</text>
        </g>
        <g transform="matrix(9.71445e-17,1.53529,-1.62112,9.71445e-17,781.922,350.443)">
            <text x="0px" y="0px" style="font-family:'Helvetica-Bold', 'Helvetica';font-weight:700;font-size:10.649px;">Storage</text>
        </g>
        <g transform="matrix(9.40092e-17,1.53529,-1.62112,9.92649e-17,801.941,79.5361)">
            <text x="0px" y="0px" style="font-family:'Helvetica-Bold', 'Helvetica';font-weight:700;font-size:10.649px;">Kitchen</text>
        </g>
        <g transform="matrix(9.40092e-17,1.53529,-1.62112,9.92649e-17,864.672,83.2687)">
            <g>
                <text x="0px" y="0px" style="font-family:'Helvetica-Bold', 'Helvetica';font-weight:700;font-size:10.649px;">T</text>
                <g transform="matrix(1,0,0,1,5.922,0)">
                    <text x="0px" y="0px" style="font-family:'Helvetica-Bold', 'Helvetica';font-weight:700;font-size:10.649px;">rackle</text>
                </g>
            </g>
        </g>
        <g transform="matrix(1.53529,0,0,1.62112,590.983,188.487)">
            <g>
                <text x="0px" y="0px" style="font-family:'Helvetica-Bold', 'Helvetica';font-weight:700;font-size:10.649px;">A</text>
                <g transform="matrix(1,0,0,1,6.905,0)">
                    <text x="0px" y="0px" style="font-family:'Helvetica-Bold', 'Helvetica';font-weight:700;font-size:10.649px;">VXLab</text>
                </g>
            </g>
        </g>
        <g transform="matrix(9.40092e-17,1.53529,-1.62112,9.92649e-17,555.523,164.754)">
            <text x="0px" y="0px" style="font-family:'Helvetica-Bold', 'Helvetica';font-weight:700;font-size:5.552px;">Darkroom</text>
        </g>
        <g transform="matrix(1.53529,0,0,1.62112,982.094,231.042)">
            <text x="0px" y="0px" style="font-family:'Helvetica-Bold', 'Helvetica';font-weight:700;font-size:10.649px;">Room 1</text>
        </g>
        <g transform="matrix(1.53529,0,0,1.62112,966.231,326.556)">
            <text x="0px" y="0px" style="font-family:'Helvetica-Bold', 'Helvetica';font-weight:700;font-size:10.649px;">Living Room</text>
        </g>
        <g transform="matrix(1.19652,0,0,1.26341,1167.48,204.32)">
            <text x="0px" y="0px" style="font-family:'Helvetica-Bold', 'Helvetica';font-weight:700;font-size:10.649px;">WC</text>
        </g>
        <g transform="matrix(1.19652,0,0,1.26341,1119.9,186.535)">
            <text x="0px" y="0px" style="font-family:'Helvetica-Bold', 'Helvetica';font-weight:700;font-size:10.649px;">WC</text>
        </g>
        <g transform="matrix(1.53529,0,0,1.62112,1118.02,91.3889)">
            <text x="0px" y="0px" style="font-family:'Helvetica-Bold', 'Helvetica';font-weight:700;font-size:8.019px;">Meeting Room</text>
        </g>
        <g transform="matrix(1.53529,0,0,1.62112,1121.49,258.254)">
            <text x="0px" y="0px" style="font-family:'Helvetica-Bold', 'Helvetica';font-weight:700;font-size:10.649px;">Room 5</text>
        </g>
        <g transform="matrix(1.19652,0,0,1.26341,752.022,158.754)">
            <text x="0px" y="0px" style="font-family:'Helvetica-Bold', 'Helvetica';font-weight:700;font-size:10.649px;">WC</text>
        </g>
        <g transform="matrix(0.397976,0,0,0.397976,1002.36,345.38)">
            <g id="text9263" serif:id="text926">
                <g>
                    <text x="0px" y="0px" style="font-family:'Helvetica';font-size:26.667px;">45m</text>
                    <g transform="matrix(1,0,0,1,51.875,-8.88)">
                        <text x="0px" y="0px" style="font-family:'Helvetica';font-size:15.547px;">2</text>
                    </g>
                </g>
            </g>
        </g>
        <g transform="matrix(0.397976,0,0,0.397976,1139.78,282.929)">
            <g id="text9264" serif:id="text926">
                <g>
                    <text x="0px" y="0px" style="font-family:'Helvetica';font-size:26.667px;">10m</text>
                    <g transform="matrix(1,0,0,1,51.875,-8.88)">
                        <text x="0px" y="0px" style="font-family:'Helvetica';font-size:15.547px;">2</text>
                    </g>
                </g>
            </g>
        </g>
        <g transform="matrix(1.53529,0,0,1.62112,1132.11,147.358)">
            <text x="0px" y="0px" style="font-family:'Helvetica-Bold', 'Helvetica';font-weight:700;font-size:10.649px;">Kitchen</text>
        </g>
        <g transform="matrix(1,0,0,1,327.699,4.24238)">
            <g id="path100981" serif:id="path10098" transform="matrix(1,0,0,1,-0.398049,279.857)">
                <path d="M413.218,82.926L435.945,82.926L413.218,82.926ZM413.028,91.449L435.567,91.449L413.028,91.449ZM413.407,99.215L436.136,99.215L413.407,99.215ZM413.218,107.36L435.188,107.36L413.218,107.36ZM412.65,114.936L435.756,114.936L412.65,114.936Z" style="fill:none;fill-rule:nonzero;stroke:black;stroke-width:2px;"/>
            </g>
            <g id="path100982" serif:id="path10098" transform="matrix(1,0,0,1,-0.273101,286.438)">
                <path d="M412.65,114.936L435.756,114.936L412.65,114.936Z" style="fill:none;fill-rule:nonzero;stroke:black;stroke-width:2px;"/>
            </g>
        </g>
        <g transform="matrix(1.53529,0,0,1.62112,422.436,140.448)">
            <text x="0px" y="0px" style="font-family:'Helvetica-Bold', 'Helvetica';font-weight:700;font-size:10.649px;">Lobby</text>
        </g>
        <g id="path15124" serif:id="path1512" transform="matrix(-8.67362e-17,-1.41073,-1.41073,8.67362e-17,878.909,199.286)">
            <path d="M46.667,166.616L63.241,166.616C63.233,170.998 61.483,175.198 58.372,178.283C55.261,181.368 51.048,183.084 46.667,183.048" style="fill:none;fill-rule:nonzero;stroke:black;stroke-width:1.42px;"/>
        </g>
        <g id="path15125" serif:id="path1512" transform="matrix(-1.41066,0.0142221,0.0142221,1.41066,892.809,111.667)">
            <path d="M46.667,166.616L63.241,166.616C63.233,170.998 61.483,175.198 58.372,178.283C55.261,181.368 51.048,183.084 46.667,183.048" style="fill:none;fill-rule:nonzero;stroke:black;stroke-width:1.42px;"/>
        </g>
        <g id="path15126" serif:id="path1512" transform="matrix(-1.41073,3.53738e-19,3.53738e-19,1.41073,796.991,-189.363)">
            <path d="M46.667,166.616L63.241,166.616C63.233,170.998 61.483,175.198 58.372,178.283C55.261,181.368 51.048,183.084 46.667,183.048" style="fill:none;fill-rule:nonzero;stroke:black;stroke-width:1.42px;"/>
        </g>
        <g id="path15127" serif:id="path1512" transform="matrix(-1.41073,3.53738e-19,3.53738e-19,1.41073,892.968,-190.906)">
            <path d="M46.667,166.616L63.241,166.616C63.233,170.998 61.483,175.198 58.372,178.283C55.261,181.368 51.048,183.084 46.667,183.048" style="fill:none;fill-rule:nonzero;stroke:black;stroke-width:1.42px;"/>
        </g>
        <g id="path15128" serif:id="path1512" transform="matrix(0.0102707,-1.41069,-1.41069,-0.0102707,1024.28,194.073)">
            <path d="M46.667,166.616L63.241,166.616C63.233,170.998 61.483,175.198 58.372,178.283C55.261,181.368 51.048,183.084 46.667,183.048" style="fill:none;fill-rule:nonzero;stroke:black;stroke-width:1.42px;"/>
        </g>
        <g id="path15129" serif:id="path1512" transform="matrix(0.00643822,1.41072,1.41072,-0.00643822,238.861,181.326)">
            <path d="M46.667,166.616L63.241,166.616C63.233,170.998 61.483,175.198 58.372,178.283C55.261,181.368 51.048,183.084 46.667,183.048" style="fill:none;fill-rule:nonzero;stroke:black;stroke-width:1.42px;"/>
        </g>
    </g>
</svg>
