<?xml version="1.0" encoding="UTF-8" standalone="no"?>
<svg
   xmlns:dc="http://purl.org/dc/elements/1.1/"
   xmlns:cc="http://creativecommons.org/ns#"
   xmlns:rdf="http://www.w3.org/1999/02/22-rdf-syntax-ns#"
   xmlns:svg="http://www.w3.org/2000/svg"
   xmlns="http://www.w3.org/2000/svg"
   xmlns:sodipodi="http://sodipodi.sourceforge.net/DTD/sodipodi-0.dtd"
   xmlns:inkscape="http://www.inkscape.org/namespaces/inkscape"
   width="35mm"
   height="35mm"
   viewBox="0 0 99.212603 99.212603"
   version="1.2"
   id="svg227"
   sodipodi:docname="xHain_logo3_stamp_35mmm.svg"
   inkscape:version="1.0.2 (e86c870879, 2021-01-15, custom)">
  <metadata
     id="metadata233">
    <rdf:RDF>
      <cc:Work
         rdf:about="">
        <dc:format>image/svg+xml</dc:format>
        <dc:type
           rdf:resource="http://purl.org/dc/dcmitype/StillImage" />
        <dc:title />
      </cc:Work>
    </rdf:RDF>
  </metadata>
  <defs
     id="defs231" />
  <sodipodi:namedview
     pagecolor="#ffffff"
     bordercolor="#666666"
     borderopacity="1"
     objecttolerance="10"
     gridtolerance="10"
     guidetolerance="10"
     inkscape:pageopacity="0"
     inkscape:pageshadow="2"
     inkscape:window-width="1920"
     inkscape:window-height="1032"
     id="namedview229"
     showgrid="false"
     inkscape:zoom="3.8921257"
     inkscape:cx="66.573746"
     inkscape:cy="62.763692"
     inkscape:window-x="0"
     inkscape:window-y="0"
     inkscape:window-maximized="1"
     inkscape:current-layer="svg227"
     units="mm"
     inkscape:document-units="mm"
     inkscape:document-rotation="0" />
  <path
     style="fill:#000000;fill-opacity:1;stroke:none;stroke-width:0.37795275;stroke-miterlimit:4;stroke-dasharray:none;stroke-opacity:1"
     d="M 67.380859 3.6445312 C 67.157293 3.6232513 67.007585 3.7414281 66.986328 3.9648438 C 66.986328 4.0499531 67.007036 4.1568702 67.039062 4.2207031 L 70.564453 9.4746094 C 70.607066 9.5384387 70.617186 9.571609 70.617188 9.6035156 C 70.607052 9.6354303 70.583629 9.645155 70.541016 9.7089844 L 65.101562 16.220703 C 65.058949 16.273903 65.026225 16.327 65.015625 16.412109 C 64.994318 16.635521 65.122973 16.785365 65.335938 16.806641 L 67.880859 17.050781 C 68.019258 17.072061 68.167863 17.006564 68.263672 16.878906 L 71.978516 12.103516 C 72.021129 12.050321 72.084705 11.985447 72.169922 11.996094 C 72.223122 11.996094 72.288365 12.060087 72.320312 12.113281 L 73.085938 13.273438 L 72.703125 17.166016 C 72.681818 17.378788 72.810473 17.527551 73.023438 17.548828 L 75.195312 17.763672 C 75.408228 17.784952 75.55683 17.656133 75.578125 17.443359 L 76.791016 4.9101562 C 76.812324 4.6867431 76.695342 4.5486205 76.482422 4.5273438 L 74.310547 4.3164062 C 74.097622 4.2951263 73.939265 4.4113502 73.917969 4.6347656 L 73.576172 8.2304688 C 73.522972 8.7517622 73.532915 9.3043002 73.607422 9.6660156 L 69.988281 4.0292969 C 69.924359 3.9335531 69.838871 3.8797758 69.732422 3.8691406 L 67.380859 3.6445312 z M 84.808594 6.8007812 C 83.579991 6.7961146 82.520023 7.3123847 81.832031 8.2851562 C 81.693631 8.4660136 81.683403 8.4849964 81.662109 8.5488281 C 81.630176 8.6445721 81.650334 8.7302156 81.746094 8.8046875 L 83.269531 10.091797 C 83.312091 10.123724 83.365663 10.156453 83.408203 10.177734 C 83.52531 10.220282 83.694129 10.177576 83.779297 10.060547 C 84.23707 9.4541436 84.844324 9.2939156 85.664062 9.5917969 L 87.048828 10.091797 C 87.815335 10.368403 88.102084 11.15635 87.835938 11.869141 L 85.931641 17.113281 C 85.654891 17.868625 84.952053 18.241449 84.185547 17.964844 L 82.800781 17.464844 C 81.981091 17.166962 81.639787 16.677013 81.650391 15.900391 C 81.660924 15.730173 81.556556 15.612869 81.439453 15.570312 C 81.396893 15.549033 81.343172 15.539062 81.279297 15.539062 L 79.287109 15.529297 C 79.170056 15.53983 79.084668 15.592633 79.052734 15.677734 C 79.031428 15.741561 78.989169 15.868386 78.978516 16.091797 C 78.84012 17.815258 79.948282 19.209087 81.896484 19.921875 L 83.279297 20.421875 C 86.004654 21.41127 87.719137 20.57155 88.517578 18.390625 L 90.636719 12.570312 C 91.403224 10.474498 90.582665 8.5922438 87.953125 7.6347656 L 86.570312 7.1347656 C 85.961543 6.912019 85.36705 6.8028856 84.808594 6.8007812 z M 56.484375 7.9765625 C 56.437975 7.9692558 56.389192 7.9697619 56.335938 7.9804688 L 54.84375 8.2460938 C 54.641478 8.2886431 54.536449 8.4376177 54.568359 8.6503906 L 54.908203 10.480469 L 53.003906 10.832031 C 52.791044 10.874579 52.672317 11.034194 52.714844 11.236328 L 52.982422 12.724609 C 53.025035 12.937382 53.183559 13.056225 53.396484 13.013672 L 55.302734 12.662109 L 55.673828 14.671875 C 55.716441 14.884648 55.877806 15.001539 56.080078 14.958984 L 57.570312 14.693359 C 57.78324 14.650813 57.900013 14.492069 57.857422 14.279297 L 57.484375 12.267578 L 59.412109 11.90625 C 59.635713 11.874335 59.741796 11.70496 59.699219 11.492188 L 59.433594 10.001953 C 59.390978 9.7998193 59.241133 9.692696 59.017578 9.7246094 L 57.091797 10.087891 L 56.75 8.2578125 C 56.726044 8.0982321 56.623595 7.9985045 56.484375 7.9765625 z M 42.361328 8.2871094 C 42.316315 8.2934027 42.269797 8.3081046 42.224609 8.3320312 L 40.158203 9.4277344 C 40.019778 9.5022104 39.957031 9.6193027 39.957031 9.7363281 L 40.5 16.9375 C 40.553213 17.341769 40.647574 17.736537 40.658203 17.757812 L 40.574219 17.800781 C 40.564085 17.779501 40.254249 17.459532 39.966797 17.214844 L 34.388672 12.671875 C 34.303565 12.597399 34.153961 12.587632 34.015625 12.662109 L 31.972656 13.746094 C 31.781039 13.84184 31.715815 14.012709 31.822266 14.214844 L 37.708984 25.353516 C 37.804811 25.54501 37.997822 25.5977 38.189453 25.501953 L 40.0625 24.501953 C 40.254117 24.406206 40.306684 24.226654 40.210938 24.035156 L 38.572266 20.939453 C 37.688651 19.269184 36.453597 17.502871 36.400391 17.396484 L 36.474609 17.353516 C 36.495916 17.396062 37.592401 18.545985 38.199219 19.056641 L 41.414062 21.662109 C 41.520478 21.747216 41.66913 21.747434 41.796875 21.683594 L 43.234375 20.916016 C 43.394082 20.830909 43.481168 20.726193 43.449219 20.587891 L 43.042969 16.439453 C 42.968449 15.652193 42.638672 14.055149 42.638672 14.001953 L 42.681641 13.970703 C 42.734841 14.07709 43.491587 16.130927 44.396484 17.84375 L 46.044922 20.958984 C 46.140749 21.15048 46.332695 21.205124 46.513672 21.109375 L 48.441406 20.087891 C 48.622408 19.992144 48.685666 19.810635 48.589844 19.619141 L 42.703125 8.4804688 C 42.623316 8.3288662 42.496575 8.2681584 42.361328 8.2871094 z M 99.769531 13.6875 C 99.701665 13.6835 99.63721 13.702133 99.583984 13.75 L 89.248047 22.228516 C 89.20546 22.271062 89.193168 22.29122 89.171875 22.3125 C 89.118648 22.397607 89.139831 22.473484 89.267578 22.558594 L 91.376953 23.994141 C 91.472766 24.057967 91.568058 24.057967 91.642578 23.994141 L 93.058594 22.759766 C 93.154407 22.695939 93.207113 22.70677 93.324219 22.78125 L 96.603516 25.015625 C 96.731276 25.100732 96.763284 25.143615 96.720703 25.25 L 96.091797 27.015625 C 96.070504 27.122012 96.10222 27.207652 96.1875 27.271484 L 98.285156 28.697266 C 98.412903 28.782372 98.509268 28.782372 98.5625 28.697266 C 98.594433 28.654719 98.625191 28.568817 98.646484 28.515625 C 98.646484 28.483705 102.70312 15.867188 102.70312 15.867188 C 102.73508 15.728882 102.67072 15.600733 102.54297 15.515625 L 99.978516 13.759766 C 99.909316 13.717206 99.837399 13.6915 99.769531 13.6875 z M 99.148438 17.441406 L 99.445312 17.642578 L 99.244141 18.037109 L 97.742188 22.367188 C 97.688959 22.484214 97.593283 22.526315 97.433594 22.419922 L 95.453125 21.068359 C 95.293437 20.961973 95.292851 20.855514 95.388672 20.759766 L 98.861328 17.771484 L 99.148438 17.441406 z M 24.240234 20.185547 C 24.139501 20.172614 24.034862 20.209263 23.955078 20.289062 L 21.720703 22.458984 C 21.60357 22.565371 21.570944 22.704369 21.634766 22.832031 L 27.863281 34.662109 C 27.884588 34.715309 27.894829 34.736546 27.916016 34.757812 C 27.990522 34.821641 28.064523 34.822105 28.181641 34.705078 L 30.011719 32.939453 C 30.096945 32.854346 30.11974 32.769576 30.066406 32.673828 L 29.140625 31.035156 C 29.087425 30.93941 29.118196 30.895451 29.224609 30.789062 L 32.068359 28.033203 C 32.185359 27.916176 32.226456 27.906672 32.322266 27.949219 L 33.931641 28.927734 C 34.027467 28.970281 34.111034 28.961199 34.185547 28.886719 L 36.007812 27.119141 C 36.124814 27.012754 36.144793 26.917349 36.070312 26.853516 C 36.038419 26.810969 35.965271 26.769124 35.912109 26.726562 C 35.880216 26.716029 24.337879 20.214844 24.337891 20.214844 C 24.305997 20.198884 24.273901 20.189867 24.240234 20.185547 z M 66.125 20.636719 C 40.971354 20.636719 20.582031 41.015869 20.582031 66.152344 C 20.582031 85.567872 32.749621 102.14153 49.878906 108.68164 L 49.878906 120.67578 L 51.914062 122.71094 L 52.53125 123.33398 L 59.9375 123.33398 L 60.558594 122.71094 L 61.96875 121.29883 L 62.591797 120.67578 L 64.628906 122.71094 L 65.246094 123.33398 L 72.65625 123.33398 L 73.271484 122.71094 L 75.308594 120.67578 L 75.308594 110.74414 C 96.062768 106.49932 111.66992 88.147748 111.66992 66.152344 C 111.66992 41.015869 91.278632 20.636719 66.125 20.636719 z M 110.08203 21.753906 C 109.9982 21.745906 109.91134 21.779036 109.82617 21.853516 L 100.26562 30.066406 C 100.10594 30.204709 100.08426 30.384467 100.22266 30.554688 L 101.63867 32.193359 C 101.78771 32.363578 101.97898 32.374625 102.13867 32.236328 L 105.7793 29.109375 C 105.93899 28.971072 106.12137 28.990804 106.25977 29.150391 L 108.70703 32.001953 C 108.84543 32.161533 108.83546 32.353883 108.67578 32.492188 L 105.03516 35.621094 C 104.87547 35.759395 104.86355 35.939155 105.00195 36.109375 L 106.41797 37.757812 C 106.55636 37.917393 106.75828 37.93908 106.91797 37.800781 L 116.47852 29.587891 C 116.64885 29.438949 116.65012 29.257235 116.51172 29.097656 L 115.0957 27.449219 C 114.95731 27.279 114.76604 27.257315 114.5957 27.40625 L 111.18945 30.332031 C 111.02976 30.470334 110.84738 30.450602 110.70898 30.291016 L 108.25977 27.439453 C 108.12136 27.279873 108.13329 27.087521 108.29297 26.949219 L 111.69922 24.023438 C 111.86955 23.874494 111.88147 23.703422 111.73242 23.533203 L 110.31445 21.896484 C 110.24525 21.811378 110.16587 21.761885 110.08203 21.753906 z M 25.414062 23.757812 L 25.744141 24.023438 L 29.705078 26.384766 C 29.811491 26.448592 29.832106 26.545291 29.693359 26.683594 L 27.96875 28.353516 C 27.83035 28.49182 27.723928 28.471648 27.660156 28.365234 L 25.414062 24.353516 L 25.148438 24.013672 L 25.414062 23.757812 z M 15.486328 29.828125 C 15.390635 29.841498 15.307936 29.904125 15.248047 30.005859 L 14.107422 31.867188 C 14.001009 32.048045 14.032969 32.228678 14.224609 32.345703 L 17.3125 34.228516 C 17.759559 34.494481 18.260205 34.728471 18.632812 34.824219 L 11.978516 35.623047 C 11.861386 35.644327 11.775799 35.707858 11.722656 35.792969 L 10.498047 37.814453 C 10.380918 38.005949 10.425542 38.175942 10.617188 38.292969 C 10.691701 38.335515 10.786814 38.378702 10.861328 38.357422 L 17.142578 37.472656 C 17.227805 37.472656 17.237611 37.47377 17.269531 37.484375 C 17.290838 37.505655 17.301958 37.537736 17.333984 37.601562 L 20.845703 45.314453 C 20.877596 45.38892 20.911775 45.432056 20.986328 45.474609 C 21.177884 45.591636 21.368159 45.547974 21.474609 45.367188 L 22.806641 43.185547 C 22.870441 43.05788 22.881161 42.900023 22.806641 42.761719 L 20.123047 37.345703 C 20.091154 37.292503 20.058488 37.1858 20.111328 37.111328 C 20.132635 37.068781 20.219326 37.048624 20.283203 37.027344 L 21.644531 36.857422 L 24.998047 38.888672 C 25.179024 38.995059 25.370112 38.952351 25.476562 38.771484 L 26.617188 36.910156 C 26.723601 36.729299 26.68092 36.538027 26.5 36.431641 L 15.726562 29.888672 C 15.678656 29.859419 15.631469 29.840685 15.585938 29.832031 C 15.551762 29.825631 15.518221 29.823725 15.486328 29.828125 z M 49.169922 30.009766 L 66.125 30.009766 A 2.2607051 2.2591616 0 0 1 67.722656 30.671875 L 70.548828 33.496094 A 2.2607051 2.2591616 0 1 1 67.351562 36.689453 L 65.1875 34.527344 L 49.169922 34.527344 A 2.2610931 2.2595495 0 0 1 49.169922 30.009766 z M 49.169922 30.857422 C 48.39011 30.857422 47.759766 31.49025 47.759766 32.269531 C 47.759766 33.048813 48.39011 33.681641 49.169922 33.681641 C 49.952406 33.681641 50.583984 33.048813 50.583984 32.269531 C 50.583984 31.49025 49.952406 30.857422 49.169922 30.857422 z M 74.601562 32.833984 L 90.144531 32.833984 A 2.2613098 2.259766 0 0 1 90.144531 37.353516 L 74.601562 37.353516 A 2.2613098 2.259766 0 0 1 74.601562 32.833984 z M 68.951172 33.681641 C 68.17136 33.681641 67.537109 34.311811 67.537109 35.09375 C 67.537109 35.873033 68.17136 36.501953 68.951172 36.501953 C 69.730984 36.501953 70.363281 35.873033 70.363281 35.09375 C 70.363281 34.311811 69.730984 33.681641 68.951172 33.681641 z M 74.601562 33.681641 C 73.821739 33.681641 73.191406 34.311811 73.191406 35.09375 C 73.191406 35.873033 73.821739 36.501953 74.601562 36.501953 C 75.384038 36.501953 76.013663 35.873033 76.013672 35.09375 C 76.013672 34.311811 75.384038 33.681641 74.601562 33.681641 z M 90.144531 33.681641 C 89.362057 33.681641 88.730469 34.311811 88.730469 35.09375 C 88.730469 35.873033 89.362057 36.501953 90.144531 36.501953 C 90.924345 36.501953 91.554688 35.873033 91.554688 35.09375 C 91.554688 34.311811 90.924345 33.681641 90.144531 33.681641 z M 63.34375 35.634766 A 2.2607051 2.2591616 0 0 1 64.898438 36.318359 L 72.712891 44.126953 L 91.554688 44.126953 A 2.2607051 2.2591616 0 0 1 93.152344 44.789062 L 94.566406 46.201172 A 2.2608891 2.2593455 0 0 1 91.369141 49.396484 L 90.617188 48.646484 L 71.777344 48.646484 A 2.2607051 2.2591616 0 0 1 70.177734 47.984375 L 61.701172 39.511719 A 2.2607051 2.2591616 0 0 1 63.34375 35.634766 z M 37.996094 35.65625 L 57.773438 35.65625 A 2.2609269 2.2593833 0 1 1 57.773438 40.173828 L 38.931641 40.173828 L 37.429688 41.675781 L 37.429688 45.451172 L 38.931641 46.951172 L 54.824219 46.951172 A 2.2613094 2.2597655 0 1 1 54.824219 51.470703 L 37.996094 51.470703 A 2.2607051 2.2591616 0 0 1 36.396484 50.808594 L 33.570312 47.984375 A 2.2607051 2.2591616 0 0 1 32.90625 46.386719 L 32.90625 40.740234 A 2.2607051 2.2591616 0 0 1 33.570312 39.142578 L 36.396484 36.318359 A 2.2607051 2.2591616 0 0 1 37.996094 35.65625 z M 57.646484 36.501953 C 56.866672 36.501953 56.236328 37.136734 56.236328 37.916016 C 56.236328 38.695297 56.866672 39.328125 57.646484 39.328125 C 58.428956 39.328125 59.060547 38.695297 59.060547 37.916016 C 59.060547 37.136734 58.428956 36.501953 57.646484 36.501953 z M 63.300781 36.501953 C 62.520957 36.501953 61.886719 37.136734 61.886719 37.916016 C 61.886719 38.695297 62.520957 39.328125 63.300781 39.328125 C 64.080593 39.328125 64.712891 38.695297 64.712891 37.916016 C 64.712891 37.136734 64.080593 36.501953 63.300781 36.501953 z M 74.583984 38.480469 A 2.2609269 2.2593833 0 0 1 74.601562 38.480469 L 94.380859 38.480469 A 2.2607051 2.2591616 0 0 1 95.978516 39.142578 L 104.45508 47.613281 A 2.2607051 2.2591616 0 0 1 105.11914 49.210938 L 105.11914 66.152344 A 2.2609269 2.2593833 0 0 1 100.59766 66.152344 L 100.59766 50.146484 L 93.443359 42.998047 L 74.601562 42.998047 A 2.2609269 2.2593833 0 0 1 74.583984 38.480469 z M 74.601562 39.328125 C 73.821739 39.328125 73.191406 39.960953 73.191406 40.740234 C 73.191406 41.519514 73.821739 42.152344 74.601562 42.152344 C 75.384038 42.152344 76.013663 41.519514 76.013672 40.740234 C 76.013672 39.960953 75.384038 39.328125 74.601562 39.328125 z M 40.693359 41.304688 L 60.472656 41.304688 A 2.2607051 2.2591616 0 0 1 62.072266 41.964844 L 64.898438 44.787109 A 2.2615809 2.2600369 0 1 1 61.701172 47.984375 L 59.539062 45.824219 L 40.693359 45.824219 A 2.2613094 2.2597655 0 0 1 40.693359 41.304688 z M 40.693359 42.152344 C 39.913547 42.152344 39.283203 42.782512 39.283203 43.564453 C 39.283203 44.343736 39.913547 44.972656 40.693359 44.972656 C 41.475833 44.972656 42.107422 44.343736 42.107422 43.564453 C 42.107422 42.782512 41.475833 42.152344 40.693359 42.152344 z M 8.1933594 43.867188 C 8.0556914 43.879721 7.9541356 43.975361 7.90625 44.126953 L 5.5429688 51.798828 C 5.4791712 52.000967 5.5553577 52.170543 5.7675781 52.234375 L 7.609375 52.808594 C 7.8116597 52.87242 7.9810869 52.766585 8.0449219 52.564453 L 9.5566406 47.650391 C 9.6205633 47.437693 9.7909808 47.352184 10.003906 47.416016 L 11.835938 47.980469 C 12.038235 48.044295 12.122441 48.213007 12.058594 48.425781 L 10.8125 52.457031 C 10.748703 52.669805 10.845592 52.830699 11.058594 52.894531 L 12.888672 53.458984 C 13.090957 53.522811 13.250606 53.437391 13.314453 53.224609 L 14.560547 49.193359 C 14.624467 48.980585 14.805541 48.895228 15.007812 48.958984 L 16.933594 49.552734 C 17.13584 49.616561 17.231815 49.787225 17.167969 50 L 15.65625 54.916016 C 15.59233 55.118148 15.667426 55.287731 15.880859 55.351562 L 17.710938 55.916016 C 17.923851 55.979842 18.094443 55.883809 18.158203 55.681641 L 20.521484 48.011719 C 20.585404 47.809587 20.500099 47.628285 20.287109 47.564453 L 8.34375 43.882812 C 8.2905433 43.866893 8.2393162 43.863026 8.1933594 43.867188 z M 63.300781 44.972656 C 62.520969 44.972656 61.886719 45.607433 61.886719 46.386719 C 61.886719 47.165999 62.520969 47.798828 63.300781 47.798828 C 64.080605 47.798828 64.712891 47.165999 64.712891 46.386719 C 64.712891 45.607433 64.080605 44.972656 63.300781 44.972656 z M 92.96875 46.386719 C 92.188935 46.386719 91.554687 47.01955 91.554688 47.798828 C 91.554686 48.578109 92.188935 49.210937 92.96875 49.210938 C 93.748563 49.210937 94.380859 48.578109 94.380859 47.798828 C 94.380859 47.01955 93.748563 46.386719 92.96875 46.386719 z M 54.824219 47.798828 C 54.044407 47.798828 53.410156 48.43165 53.410156 49.210938 C 53.410156 49.990217 54.044407 50.623047 54.824219 50.623047 C 55.604032 50.623047 56.236328 49.990217 56.236328 49.210938 C 56.236328 48.43165 55.604032 47.798828 54.824219 47.798828 z M 67.570312 48.332031 A 2.2607051 2.2591616 0 0 1 67.572266 48.332031 A 2.2607051 2.2591616 0 0 1 69.798828 50.623047 L 69.798828 55.421875 L 72.339844 55.421875 L 72.339844 52.035156 A 2.2607051 2.2591616 0 0 1 74.601562 49.775391 L 87.316406 49.775391 A 2.2607051 2.2591616 0 0 1 88.916016 50.4375 L 93.152344 54.671875 A 2.2607051 2.2591616 0 0 1 93.814453 56.269531 L 93.814453 66.152344 A 2.2607051 2.2591616 0 0 1 93.154297 67.75 L 90.330078 70.574219 A 2.2607051 2.2591616 0 0 1 88.730469 71.236328 L 75.537109 71.236328 L 71.210938 75.560547 L 71.210938 83.095703 A 2.2610933 2.2595496 0 1 1 66.689453 83.095703 L 66.689453 74.623047 A 2.2607051 2.2591616 0 0 1 67.351562 73.027344 L 73.003906 67.380859 A 2.2607051 2.2591616 0 0 1 74.601562 66.71875 L 87.794922 66.71875 L 89.292969 65.21875 L 89.292969 57.205078 L 86.380859 54.294922 L 76.861328 54.294922 L 76.861328 57.748047 L 76.861328 63.328125 A 2.2609269 2.2593833 0 1 1 72.339844 63.328125 L 72.339844 59.941406 L 69.798828 59.941406 L 69.798828 67.564453 A 2.2617185 2.2601743 0 0 1 65.275391 67.564453 L 65.275391 50.623047 A 2.2607051 2.2591616 0 0 1 67.570312 48.332031 z M 67.537109 49.210938 C 66.757297 49.210937 66.125 49.843767 66.125 50.623047 C 66.125 51.402327 66.757297 52.035156 67.537109 52.035156 C 68.316935 52.035156 68.951172 51.402327 68.951172 50.623047 C 68.951172 49.843767 68.316935 49.210937 67.537109 49.210938 z M 32.25 49.744141 A 2.2607051 2.2591616 0 0 1 32.251953 49.744141 A 2.2607051 2.2591616 0 0 1 34.478516 52.035156 L 34.478516 70.863281 L 35.980469 72.365234 L 37.869141 72.365234 A 2.2610956 2.2595519 0 1 1 37.869141 76.882812 L 35.042969 76.882812 A 2.2607051 2.2591616 0 0 1 33.445312 76.220703 L 30.619141 73.396484 A 2.2607051 2.2591616 0 0 1 29.955078 71.798828 L 29.955078 52.035156 A 2.2607051 2.2591616 0 0 1 32.25 49.744141 z M 97.240234 49.744141 A 2.2607051 2.2591616 0 0 1 97.242188 49.744141 A 2.2607051 2.2591616 0 0 1 99.46875 52.035156 L 99.46875 68.976562 A 2.2607051 2.2591616 0 0 1 98.806641 70.574219 L 93.152344 76.220703 A 2.2607051 2.2591616 0 0 1 91.554688 76.882812 L 77.427734 76.882812 A 2.2610956 2.2595519 0 1 1 77.427734 72.365234 L 90.619141 72.365234 L 94.945312 68.041016 L 94.945312 52.035156 A 2.2607051 2.2591616 0 0 1 97.240234 49.744141 z M 32.216797 50.623047 C 31.436973 50.623047 30.806641 51.253214 30.806641 52.035156 C 30.806641 52.814436 31.436973 53.445315 32.216797 53.445312 C 32.999269 53.445314 33.628906 52.814436 33.628906 52.035156 C 33.628906 51.253214 32.999269 50.623047 32.216797 50.623047 z M 74.601562 50.623047 C 73.821751 50.623047 73.191406 51.253214 73.191406 52.035156 C 73.191406 52.814436 73.821751 53.445313 74.601562 53.445312 C 75.384038 53.445314 76.013661 52.814436 76.013672 52.035156 C 76.013672 51.253214 75.384038 50.623047 74.601562 50.623047 z M 97.207031 50.623047 C 96.427218 50.623047 95.794922 51.253214 95.794922 52.035156 C 95.794922 52.814436 96.427218 53.445315 97.207031 53.445312 C 97.986845 53.445314 98.621094 52.814436 98.621094 52.035156 C 98.621094 51.253214 97.986845 50.623047 97.207031 50.623047 z M 59.091797 51.1875 A 2.2607051 2.2591616 0 0 1 60.658203 51.847656 L 63.486328 54.671875 A 2.2607051 2.2591616 0 0 1 64.148438 56.269531 L 64.148438 74.623047 A 2.2610955 2.2595517 0 1 1 59.626953 74.623047 L 59.626953 57.205078 L 59.0625 56.640625 L 58.498047 57.205078 L 58.498047 63.328125 A 2.2609273 2.2593837 0 1 1 53.976562 63.328125 L 53.976562 56.269531 A 2.2607051 2.2591616 0 0 1 54.636719 54.671875 L 57.460938 51.847656 A 2.2607051 2.2591616 0 0 1 59.091797 51.1875 z M 50.617188 52.566406 A 2.2607051 2.2591616 0 0 1 50.619141 52.566406 A 2.2607051 2.2591616 0 0 1 52.84375 54.857422 L 52.84375 63.328125 A 2.2609273 2.2593837 0 0 1 48.322266 63.328125 L 48.322266 54.857422 A 2.2607051 2.2591616 0 0 1 50.617188 52.566406 z M 37.869141 52.597656 L 44.933594 52.597656 A 2.2607051 2.2591616 0 0 1 47.193359 54.857422 L 47.193359 63.328125 A 2.2610955 2.2595517 0 0 1 42.671875 63.328125 L 42.671875 57.117188 L 40.130859 57.117188 L 40.130859 68.976562 A 2.2610959 2.2595521 0 1 1 35.609375 68.976562 L 35.609375 54.857422 A 2.2607051 2.2591616 0 0 1 37.869141 52.597656 z M 50.583984 53.445312 C 49.804172 53.445314 49.169934 54.078142 49.169922 54.857422 C 49.169922 55.636702 49.804172 56.269531 50.583984 56.269531 C 51.363796 56.269531 51.996094 55.636702 51.996094 54.857422 C 51.996094 54.078142 51.363796 53.445313 50.583984 53.445312 z M 80.294922 55.400391 A 2.2607051 2.2591616 0 0 1 80.296875 55.400391 A 2.2607051 2.2591616 0 0 1 80.298828 55.400391 A 2.2607051 2.2591616 0 0 1 81.853516 56.083984 L 83.080078 57.310547 L 84.306641 56.083984 A 2.2607051 2.2591616 0 0 1 85.927734 55.400391 A 2.2607051 2.2591616 0 0 1 87.501953 59.279297 L 86.275391 60.503906 L 87.501953 61.728516 A 2.2615815 2.2600376 0 1 1 84.306641 64.927734 L 83.078125 63.701172 L 81.851562 64.925781 A 2.2607051 2.2591616 0 1 1 78.65625 61.732422 L 79.880859 60.505859 L 78.654297 59.279297 A 2.2607051 2.2591616 0 0 1 80.294922 55.400391 z M 80.253906 56.269531 C 79.474094 56.269531 78.839848 56.902361 78.839844 57.681641 C 78.839844 58.460921 79.474094 59.09375 80.253906 59.09375 C 81.03372 59.09375 81.667969 58.460921 81.667969 57.681641 C 81.667969 56.902361 81.03372 56.269531 80.253906 56.269531 z M 85.904297 56.269531 C 85.124484 56.269531 84.490234 56.902361 84.490234 57.681641 C 84.490234 58.460921 85.124484 59.09375 85.904297 59.09375 C 86.684109 59.09375 87.316406 58.460921 87.316406 57.681641 C 87.316406 56.902361 86.684109 56.269531 85.904297 56.269531 z M 7.5488281 57.601562 C 5.8048356 57.686484 4.1288718 59.287678 3.9492188 61.880859 C 3.8001779 64.051137 4.6845582 65.722755 6.3027344 66.435547 C 6.5263014 66.499427 6.5474807 66.509766 6.6113281 66.509766 C 6.7071495 66.519899 6.7913941 66.477315 6.8339844 66.349609 L 7.6425781 64.529297 C 7.6638861 64.476124 7.6749562 64.434098 7.6855469 64.380859 C 7.6956269 64.253206 7.6110812 64.126125 7.4726562 64.041016 C 6.8232499 63.689942 6.4615557 62.999114 6.5253906 62.105469 C 6.5893133 61.116067 7.1750144 60.584392 7.8457031 60.626953 C 8.505747 60.66954 8.8987581 61.243334 9.3671875 62.966797 C 10.091108 65.75411 11.38052 67.094984 13.179688 67.222656 C 15.638887 67.382242 17.330931 65.763522 17.533203 62.837891 C 17.692884 60.465479 16.777764 58.626611 15.095703 57.988281 C 14.88279 57.903228 14.850082 57.902344 14.796875 57.902344 C 14.701048 57.89221 14.605091 57.945513 14.5625 58.0625 L 13.679688 59.976562 C 13.658379 60.029738 13.647439 60.082483 13.636719 60.125 C 13.626585 60.252653 13.711173 60.380615 13.849609 60.455078 C 14.541605 60.838078 14.935841 61.520947 14.861328 62.669922 C 14.786808 63.733786 14.212215 64.242634 13.488281 64.189453 C 12.828234 64.146866 12.316452 63.646869 11.890625 61.880859 C 11.187987 59.029692 9.9211576 57.74182 7.8984375 57.603516 C 7.7819388 57.595916 7.6650876 57.595296 7.5488281 57.601562 z M 44.933594 61.916016 C 44.153782 61.916016 43.519531 62.548846 43.519531 63.328125 C 43.519531 64.107405 44.153782 64.740222 44.933594 64.740234 C 45.713419 64.740234 46.347656 64.107405 46.347656 63.328125 C 46.347656 62.548846 45.713419 61.916016 44.933594 61.916016 z M 50.583984 61.916016 C 49.804172 61.916016 49.169922 62.548846 49.169922 63.328125 C 49.169922 64.107405 49.804172 64.740234 50.583984 64.740234 C 51.363796 64.740234 51.996094 64.107405 51.996094 63.328125 C 51.996094 62.548846 51.363796 61.916016 50.583984 61.916016 z M 56.236328 61.916016 C 55.453855 61.916016 54.824219 62.548846 54.824219 63.328125 C 54.824219 64.107405 55.453855 64.740222 56.236328 64.740234 C 57.01614 64.740234 57.646484 64.107405 57.646484 63.328125 C 57.646484 62.548846 57.01614 61.916016 56.236328 61.916016 z M 74.601562 61.916016 C 73.821751 61.916016 73.191406 62.548846 73.191406 63.328125 C 73.191406 64.107405 73.821751 64.740222 74.601562 64.740234 C 75.384038 64.740234 76.013661 64.107405 76.013672 63.328125 C 76.013672 62.548846 75.384038 61.916016 74.601562 61.916016 z M 80.253906 61.916016 C 79.474094 61.916016 78.839848 62.548846 78.839844 63.328125 C 78.839844 64.107405 79.474094 64.740222 80.253906 64.740234 C 81.03372 64.740234 81.667969 64.107405 81.667969 63.328125 C 81.667969 62.548846 81.03372 61.916016 80.253906 61.916016 z M 85.904297 61.916016 C 85.124484 61.916016 84.490234 62.548846 84.490234 63.328125 C 84.490234 64.107405 85.124484 64.740234 85.904297 64.740234 C 86.684109 64.740234 87.316406 64.107405 87.316406 63.328125 C 87.316406 62.548846 86.684109 61.916016 85.904297 61.916016 z M 115.64062 63.767578 C 115.56609 63.757445 115.48134 63.84094 115.4707 63.947266 L 115.33203 66.595703 C 115.3215 66.755288 115.36424 66.863036 115.4707 66.9375 L 118.41992 68.619141 C 118.69672 68.746807 119.58101 69.193727 119.90039 69.332031 L 119.90039 69.394531 C 119.0913 69.298771 118.50399 69.533587 117.10938 70.076172 L 115.25781 70.916016 C 115.14071 70.969189 115.08682 71.098061 115.07617 71.236328 L 114.92773 74.011719 C 114.92773 74.118052 115.02314 74.192529 115.09766 74.203125 C 115.15088 74.203125 115.21416 74.19438 115.24609 74.183594 L 121.75195 71.033203 C 121.80518 71.01191 121.85711 70.980469 121.93164 70.980469 C 122.00617 70.990602 122.04941 71.033585 122.11328 71.076172 L 127.9043 74.746094 C 127.96816 74.799267 127.99951 74.798828 128.05273 74.798828 C 128.1592 74.808961 128.21396 74.715386 128.22461 74.566406 L 128.37305 71.873047 C 128.38358 71.64967 128.2879 71.554945 128.16016 71.480469 L 125.16992 69.832031 C 124.90378 69.693763 124.16791 69.288695 123.83789 69.150391 L 123.84961 69.085938 C 124.43514 69.117817 125.41412 68.830295 126.5 68.351562 L 128.37305 67.511719 C 128.51144 67.447839 128.61826 67.352333 128.62891 67.128906 L 128.76758 64.46875 C 128.77811 64.309202 128.7256 64.235231 128.61914 64.224609 C 128.56591 64.224609 128.50051 64.246418 128.44727 64.267578 L 121.87891 67.458984 C 121.80437 67.501571 121.74072 67.501953 121.6875 67.501953 C 121.62362 67.501966 121.57081 67.480087 121.51758 67.4375 L 115.78906 63.798828 C 115.75713 63.777535 115.70452 63.767578 115.64062 63.767578 z M 102.85742 64.740234 C 102.07761 64.740234 101.44531 65.373065 101.44531 66.152344 C 101.44531 66.931624 102.07761 67.564453 102.85742 67.564453 C 103.63724 67.564453 104.27148 66.931624 104.27148 66.152344 C 104.27148 65.373065 103.63724 64.740234 102.85742 64.740234 z M 67.537109 66.152344 C 66.757297 66.152344 66.125 66.785185 66.125 67.564453 C 66.125 68.343732 66.757297 68.976562 67.537109 68.976562 C 68.316935 68.976562 68.951172 68.343732 68.951172 67.564453 C 68.951172 66.785185 68.316935 66.152344 67.537109 66.152344 z M 43.552734 66.685547 A 2.2607051 2.2591616 0 0 1 43.554688 66.685547 A 2.2607051 2.2591616 0 0 1 45.78125 68.976562 L 45.78125 70.865234 L 50.767578 75.851562 A 2.2607051 2.2591616 0 0 1 51.431641 77.447266 L 51.431641 80.271484 A 2.2609273 2.2593837 0 1 1 46.910156 80.271484 L 46.910156 78.382812 L 41.921875 73.396484 A 2.2607051 2.2591616 0 0 1 41.259766 71.798828 L 41.259766 68.976562 A 2.2607051 2.2591616 0 0 1 43.552734 66.685547 z M 49.154297 66.71875 A 2.2609273 2.2593837 0 0 1 49.169922 66.71875 L 56.236328 66.71875 A 2.2607051 2.2591616 0 0 1 58.498047 68.976562 L 58.498047 74.623047 A 2.2607051 2.2591616 0 0 1 57.833984 76.220703 L 56.421875 77.632812 A 2.2607051 2.2591616 0 1 1 53.224609 74.439453 L 53.976562 73.6875 L 53.976562 71.236328 L 49.169922 71.236328 A 2.2609273 2.2593837 0 0 1 49.154297 66.71875 z M 37.869141 67.564453 C 37.089329 67.564453 36.457031 68.194624 36.457031 68.976562 C 36.457031 69.755844 37.089329 70.386719 37.869141 70.386719 C 38.648953 70.386719 39.283203 69.755844 39.283203 68.976562 C 39.283203 68.194624 38.648953 67.564453 37.869141 67.564453 z M 43.519531 67.564453 C 42.739719 67.564453 42.107422 68.194624 42.107422 68.976562 C 42.107422 69.755844 42.739719 70.386719 43.519531 70.386719 C 44.299343 70.386719 44.933594 69.755844 44.933594 68.976562 C 44.933594 68.194624 44.299343 67.564453 43.519531 67.564453 z M 49.169922 67.564453 C 48.390122 67.564453 47.759766 68.194624 47.759766 68.976562 C 47.759766 69.755844 48.390122 70.386719 49.169922 70.386719 C 49.952406 70.386719 50.583984 69.755844 50.583984 68.976562 C 50.583984 68.194624 49.952406 67.564453 49.169922 67.564453 z M 16.878906 70.017578 L 4.5292969 71.974609 C 4.3163709 72.006489 4.2102259 72.166125 4.2421875 72.378906 L 5.0078125 77.177734 C 5.4442929 79.954414 7.1794751 81.091971 9.6386719 80.708984 L 9.9472656 80.65625 C 12.001922 80.337091 13.728384 78.644747 13.28125 75.857422 L 12.982422 73.912109 C 12.939806 73.699341 13.046865 73.54943 13.259766 73.517578 L 17.326172 72.869141 C 17.539097 72.837261 17.654996 72.677522 17.623047 72.464844 L 17.283203 70.314453 C 17.25131 70.101685 17.09182 69.985638 16.878906 70.017578 z M 37.869141 73.210938 C 37.089329 73.210938 36.457031 73.843768 36.457031 74.623047 C 36.457031 75.402327 37.089329 76.035156 37.869141 76.035156 C 38.648953 76.035156 39.283203 75.402327 39.283203 74.623047 C 39.283203 73.843768 38.648953 73.210938 37.869141 73.210938 z M 61.886719 73.210938 C 61.106907 73.210938 60.472656 73.843768 60.472656 74.623047 C 60.472656 75.402327 61.106907 76.035156 61.886719 76.035156 C 62.666531 76.035156 63.300781 75.402327 63.300781 74.623047 C 63.300781 73.843768 62.666531 73.210938 61.886719 73.210938 z M 77.427734 73.210938 C 76.647921 73.210938 76.013672 73.843768 76.013672 74.623047 C 76.013672 75.402327 76.647921 76.035156 77.427734 76.035156 C 78.207548 76.035156 78.839849 75.402327 78.839844 74.623047 C 78.839844 73.843768 78.207548 73.210938 77.427734 73.210938 z M 9.9902344 74.027344 C 10.213789 73.995464 10.363672 74.101677 10.40625 74.314453 L 10.714844 76.326172 C 10.842589 77.123986 10.395523 77.826538 9.5332031 77.964844 L 9.2460938 78.005859 C 8.383774 78.144155 7.7234611 77.614296 7.5957031 76.816406 L 7.2871094 74.804688 C 7.2444934 74.591906 7.3507014 74.442008 7.5742188 74.410156 L 9.9902344 74.027344 z M 54.824219 74.623047 C 54.044407 74.623047 53.410156 75.255876 53.410156 76.035156 C 53.410156 76.814435 54.044407 77.447266 54.824219 77.447266 C 55.604031 77.447266 56.236328 76.814435 56.236328 76.035156 C 56.236328 75.255876 55.604031 74.623047 54.824219 74.623047 z M 114.61523 76.742188 C 114.4775 76.747254 114.37605 76.840598 114.32812 76.992188 L 113.63672 79.054688 C 113.57285 79.256821 113.64632 79.437256 113.85938 79.511719 L 118.12891 80.916016 C 118.33118 80.979896 118.40567 81.140773 118.3418 81.353516 L 117.16992 84.90625 C 117.10606 85.108358 116.94837 85.204417 116.74609 85.140625 L 112.47656 83.736328 C 112.26365 83.661861 112.10382 83.7363 112.0293 83.949219 L 111.34766 86.011719 C 111.28378 86.21384 111.35923 86.384535 111.57227 86.458984 L 123.54883 90.396484 C 123.7511 90.460364 123.92048 90.373996 123.98438 90.171875 L 124.66602 88.107422 C 124.74054 87.894654 124.6554 87.735679 124.45312 87.671875 L 119.88477 86.171875 C 119.6825 86.097408 119.60995 85.926744 119.67383 85.724609 L 120.84375 82.171875 C 120.90762 81.959083 121.06726 81.87279 121.26953 81.947266 L 125.83789 83.449219 C 126.04016 83.513099 126.20956 83.416985 126.27344 83.214844 L 126.96484 81.150391 C 127.02872 80.948257 126.94446 80.766916 126.74219 80.703125 L 114.76562 76.767578 C 114.7124 76.748925 114.66114 76.740546 114.61523 76.742188 z M 49.169922 78.857422 C 48.390122 78.857422 47.759766 79.492206 47.759766 80.271484 C 47.759766 81.050778 48.390122 81.683594 49.169922 81.683594 C 49.952407 81.683594 50.583984 81.050778 50.583984 80.271484 C 50.583984 79.492206 49.952407 78.857422 49.169922 78.857422 z M 56.236328 78.857422 L 57.646484 80.269531 L 57.646484 100.03711 L 59.060547 100.03711 L 60.474609 101.44922 L 60.474609 119.80273 L 59.060547 121.21289 L 53.410156 121.21289 L 51.996094 119.80273 L 51.996094 101.44922 L 53.410156 100.03711 L 54.824219 100.03711 L 54.824219 80.269531 L 56.236328 78.857422 z M 61.886719 78.857422 L 65.417969 78.857422 L 65.417969 86.625 L 68.951172 88.037109 L 72.482422 86.625 L 72.482422 78.857422 L 76.013672 78.857422 L 77.427734 80.269531 L 77.427734 90.154297 L 76.013672 91.566406 L 73.189453 92.978516 L 73.189453 119.80273 L 71.777344 121.21289 L 66.125 121.21289 L 64.712891 119.80273 L 64.712891 92.978516 L 61.886719 91.566406 L 60.474609 90.154297 L 60.474609 80.269531 L 61.886719 78.857422 z M 18.683594 79.480469 C 18.662794 79.477935 18.640447 79.480669 18.619141 79.488281 C 18.565941 79.509575 18.490723 79.573602 18.4375 79.605469 C 18.416193 79.626762 8.1015625 87.935547 8.1015625 87.935547 C 7.9950238 88.031307 7.9635464 88.179186 8.0273438 88.328125 L 9.2089844 91.201172 C 9.272907 91.350149 9.390022 91.435307 9.5390625 91.414062 L 22.833984 90.021484 C 22.897904 90.000191 22.921232 89.989102 22.953125 89.978516 C 23.038352 89.946636 23.059059 89.871652 23.005859 89.722656 L 22.037109 87.371094 C 21.983896 87.26476 21.908308 87.212035 21.8125 87.222656 L 19.939453 87.476562 C 19.83304 87.476562 19.789547 87.446918 19.736328 87.308594 L 18.226562 83.646484 C 18.162763 83.497532 18.172706 83.446618 18.257812 83.382812 L 19.757812 82.242188 C 19.832334 82.178306 19.85498 82.094659 19.8125 81.988281 L 18.841797 79.648438 C 18.801824 79.544609 18.745942 79.488445 18.683594 79.480469 z M 68.951172 81.683594 C 68.17136 81.683594 67.537109 82.316423 67.537109 83.095703 C 67.537109 83.874995 68.17136 84.507815 68.951172 84.507812 C 69.730984 84.507814 70.363281 83.874995 70.363281 83.095703 C 70.363281 82.316423 69.730984 81.683594 68.951172 81.683594 z M 15.951172 85.197266 L 15.953125 85.197266 C 16.006458 85.206066 16.05373 85.253835 16.095703 85.349609 L 17.011719 87.574219 C 17.086225 87.755072 17.03397 87.839166 16.90625 87.871094 L 12.359375 88.466797 L 11.943359 88.574219 L 11.806641 88.244141 L 12.177734 88.03125 L 15.820312 85.244141 C 15.846914 85.222847 15.871404 85.208599 15.896484 85.201172 C 15.915271 85.196105 15.933399 85.193399 15.951172 85.197266 z M 108.24414 91.779297 C 108.14283 91.785564 108.04825 91.847421 107.98438 91.951172 L 106.26953 94.537109 C 106.17372 94.675401 106.17372 94.823295 106.26953 94.929688 L 114.87109 105.1543 C 114.91367 105.21818 114.93574 105.22769 114.95703 105.23828 C 115.0422 105.29145 115.11708 105.27103 115.21289 105.13281 L 116.61719 103.01562 C 116.68107 102.91987 116.6819 102.82446 116.60742 102.75 L 115.36133 101.3457 C 115.28679 101.26065 115.29764 101.19711 115.38281 101.08008 L 117.57617 97.78125 C 117.66135 97.64297 117.69344 97.622365 117.81055 97.654297 L 119.58789 98.259766 C 119.6837 98.281059 119.76816 98.259824 119.83203 98.164062 L 121.22656 96.058594 C 121.32238 95.920302 121.31174 95.834433 121.22656 95.78125 C 121.18399 95.759957 121.10011 95.716608 121.04688 95.695312 C 121.01492 95.685179 108.3457 91.792969 108.3457 91.792969 C 108.3111 91.782835 108.27791 91.77711 108.24414 91.779297 z M 23.429688 92.779297 C 22.732734 92.81659 22.030671 93.106367 21.332031 93.625 L 16.359375 97.316406 C 14.56021 98.656868 14.219306 100.67906 15.890625 102.92383 L 16.775391 104.11328 C 17.999676 105.76224 19.745093 106.36987 21.363281 105.74219 C 21.576195 105.66772 21.597172 105.64517 21.650391 105.61328 C 21.724911 105.5494 21.757337 105.46468 21.714844 105.34766 L 21.140625 103.44336 C 21.130492 103.39019 21.108199 103.33744 21.076172 103.29492 C 21.001665 103.19916 20.841524 103.13433 20.703125 103.1875 C 19.979192 103.44283 19.384054 103.24227 18.873047 102.55078 L 17.988281 101.35938 C 17.498569 100.69976 17.700991 99.900822 18.318359 99.443359 L 22.800781 96.125 C 23.450188 95.635623 24.227085 95.708473 24.716797 96.357422 L 25.599609 97.550781 C 26.110617 98.242192 26.121149 98.848012 25.695312 99.486328 C 25.588899 99.613995 25.6114 99.773397 25.685547 99.869141 C 25.71744 99.911727 25.760121 99.943741 25.802734 99.986328 L 27.462891 101.07227 C 27.569304 101.14673 27.676488 101.13502 27.740234 101.08203 C 27.793434 101.05015 27.899688 100.96596 28.027344 100.78516 C 29.091936 99.423406 28.922428 97.64586 27.6875 95.986328 L 26.814453 94.804688 C 25.736649 93.355163 24.591286 92.717257 23.429688 92.779297 z M 110.15625 95.037109 L 110.54883 95.216797 L 114.90234 96.675781 C 115.03009 96.728955 115.07325 96.813071 114.9668 96.972656 L 113.63672 98.972656 C 113.53025 99.132242 113.42396 99.142599 113.32812 99.046875 L 110.29492 95.611328 L 109.96484 95.335938 L 110.15625 95.037109 z M 101.64062 100.26758 C 101.5568 100.26884 101.47491 100.30835 101.40039 100.38281 L 99.84375 101.91406 C 99.694703 102.06301 99.674315 102.24472 99.833984 102.4043 L 108.68164 111.37305 C 108.83068 111.53261 109.0326 111.53158 109.18164 111.38281 L 110.73633 109.85156 C 110.88537 109.70261 110.88537 109.51115 110.73633 109.35156 L 101.88867 100.38281 C 101.80882 100.30305 101.72448 100.26619 101.64062 100.26758 z M 31.888672 101.34766 C 31.802179 101.35646 31.719584 101.40322 31.650391 101.48828 L 23.71875 111.14844 C 23.580325 111.30801 23.61287 111.50037 23.783203 111.63867 L 29.988281 116.72266 C 30.158617 116.86095 30.340116 116.84127 30.478516 116.68164 L 31.703125 115.19141 C 31.830898 115.03182 31.820724 114.82971 31.650391 114.69141 L 27.667969 111.42578 C 27.497653 111.28747 27.475908 111.11747 27.625 110.94727 L 28.839844 109.4668 C 28.967604 109.29662 29.159755 109.26604 29.330078 109.4043 L 32.597656 112.08398 C 32.767992 112.23292 32.948616 112.21312 33.097656 112.04297 L 34.3125 110.56445 C 34.44026 110.39423 34.428161 110.21339 34.257812 110.06445 L 30.990234 107.38281 C 30.8199 107.2445 30.808828 107.06388 30.947266 106.9043 L 32.224609 105.33984 C 32.363009 105.16966 32.544508 105.13909 32.714844 105.27734 L 36.695312 108.54297 C 36.86565 108.68129 37.058867 108.67016 37.197266 108.5 L 38.410156 107.02148 C 38.548568 106.85128 38.527875 106.65979 38.357422 106.52148 L 32.150391 101.43555 C 32.065164 101.36637 31.975164 101.33846 31.888672 101.34766 z M 96.462891 105.23047 C 96.377717 105.21459 96.28385 105.23611 96.193359 105.29492 L 94.490234 106.36914 C 94.373128 106.43302 94.308594 106.53902 94.308594 106.63477 L 94.638672 114.83789 C 94.638672 115.32726 94.713273 115.9448 94.755859 116.09375 L 94.693359 116.125 C 94.363337 115.17816 93.616392 113.69925 92.988281 112.69922 L 90.742188 109.13477 C 90.625079 108.9539 90.445534 108.91226 90.253906 109.0293 L 88.421875 110.18945 C 88.230251 110.30651 88.197341 110.4871 88.314453 110.66797 L 95.033203 121.32812 C 95.15031 121.50899 95.331809 121.55062 95.523438 121.43359 L 97.205078 120.36914 C 97.322185 120.29467 97.375 120.2212 97.375 120.07227 L 97.236328 112.07227 C 97.215035 111.56161 97.140434 111.11483 97.119141 111.07227 L 97.193359 111.0293 C 97.363694 111.61442 98.003521 112.90073 98.716797 114.03906 L 100.95312 117.59375 C 101.07025 117.7746 101.26043 117.81624 101.44141 117.69922 L 103.29492 116.54102 C 103.4759 116.42396 103.5175 116.23163 103.40039 116.05078 L 96.683594 105.39062 C 96.625047 105.30016 96.548057 105.24643 96.462891 105.23047 z M 68.951172 114.86133 C 67.391547 114.86133 66.832031 115.41994 66.832031 116.97852 C 66.832031 118.53707 67.391547 119.0957 68.951172 119.0957 C 70.510796 119.0957 71.068359 118.53707 71.068359 116.97852 C 71.068359 115.41994 70.510796 114.86133 68.951172 114.86133 z "
     transform="scale(0.75000005)"
     id="rect909" />
  <ellipse
     style="fill:none;fill-opacity:1;stroke:#e30000;stroke-width:0.23395827;stroke-miterlimit:4;stroke-dasharray:none;stroke-opacity:1"
     id="path4592"
     cy="49.606358"
     cx="-49.605831"
     rx="49.488811"
     ry="49.489304"
     transform="scale(-1,1)" />
  <path
     sodipodi:type="star"
     style="fill:#000000;fill-opacity:1;stroke:#ffffff;stroke-opacity:1"
     id="path6846"
     sodipodi:sides="5"
     sodipodi:cx="-130"
     sodipodi:cy="859.01007"
     sodipodi:r1="77.195747"
     sodipodi:r2="41.685707"
     sodipodi:arg1="0.78539816"
     sodipodi:arg2="1.4137167"
     inkscape:flatsided="false"
     inkscape:rounded="0.1"
     inkscape:randomized="0"
     transform="matrix(0.02251064,-0.03733682,0.03733682,0.02251064,60.533561,12.465001)"
     d="m -75.414363,913.59571 c -3.528537,3.52853 -43.135887,-14.19378 -48.064557,-13.41315 -4.92867,0.78062 -37.121,29.87489 -41.56722,27.60943 -4.44621,-2.26546 0.16936,-45.41079 -2.0961,-49.857 -2.26546,-4.44622 -39.88372,-26.07233 -39.1031,-31.00099 0.78062,-4.92867 43.24056,-13.87164 46.76909,-17.40018 3.52854,-3.52853 12.47151,-45.98846 17.40017,-46.76909 4.92867,-0.78062 26.55478,36.83764 31.001,39.1031 4.44621,2.26546 47.591535,-2.35011 49.856994,2.0961 2.26546,4.44622 -26.828803,36.63855 -27.609427,41.56722 -0.780624,4.92867 16.941686,44.53602 13.41315,48.06456 z" />
</svg>
