<?xml version="1.0" encoding="UTF-8" standalone="no"?>
<svg
   xmlns:dc="http://purl.org/dc/elements/1.1/"
   xmlns:cc="http://creativecommons.org/ns#"
   xmlns:rdf="http://www.w3.org/1999/02/22-rdf-syntax-ns#"
   xmlns:svg="http://www.w3.org/2000/svg"
   xmlns="http://www.w3.org/2000/svg"
   xmlns:sodipodi="http://sodipodi.sourceforge.net/DTD/sodipodi-0.dtd"
   xmlns:inkscape="http://www.inkscape.org/namespaces/inkscape"
   width="70mm"
   height="70mm"
   viewBox="0 0 198.42521 198.42521"
   version="1.2"
   id="svg227"
   sodipodi:docname="xHain_logo3_plotcut_7cm.svg"
   inkscape:version="0.92.5 (2060ec1f9f, 2020-04-08)">
  <metadata
     id="metadata233">
    <rdf:RDF>
      <cc:Work
         rdf:about="">
        <dc:format>image/svg+xml</dc:format>
        <dc:type
           rdf:resource="http://purl.org/dc/dcmitype/StillImage" />
        <dc:title></dc:title>
      </cc:Work>
    </rdf:RDF>
  </metadata>
  <defs
     id="defs231" />
  <sodipodi:namedview
     pagecolor="#ffffff"
     bordercolor="#666666"
     borderopacity="1"
     objecttolerance="10"
     gridtolerance="10"
     guidetolerance="10"
     inkscape:pageopacity="0"
     inkscape:pageshadow="2"
     inkscape:window-width="1920"
     inkscape:window-height="1006"
     id="namedview229"
     showgrid="false"
     inkscape:zoom="5.1949636"
     inkscape:cx="85.48893"
     inkscape:cy="118.80927"
     inkscape:window-x="0"
     inkscape:window-y="25"
     inkscape:window-maximized="1"
     inkscape:current-layer="svg227"
     units="mm"
     inkscape:document-units="mm" />
  <path
     id="path166"
     style="color:#000000;font-style:normal;font-variant:normal;font-weight:normal;font-stretch:normal;font-size:medium;line-height:normal;font-family:sans-serif;font-variant-ligatures:normal;font-variant-position:normal;font-variant-caps:normal;font-variant-numeric:normal;font-variant-alternates:normal;font-feature-settings:normal;text-indent:0;text-align:start;text-decoration:none;text-decoration-line:none;text-decoration-style:solid;text-decoration-color:#000000;letter-spacing:normal;word-spacing:normal;text-transform:none;writing-mode:lr-tb;direction:ltr;text-orientation:mixed;dominant-baseline:auto;baseline-shift:baseline;text-anchor:start;white-space:normal;shape-padding:0;clip-rule:nonzero;display:inline;overflow:visible;visibility:visible;opacity:1;isolation:auto;mix-blend-mode:normal;color-interpolation:sRGB;color-interpolation-filters:linearRGB;solid-color:#000000;solid-opacity:1;vector-effect:none;fill:#000000;fill-opacity:1;fill-rule:nonzero;stroke:none;stroke-width:6.63540411;stroke-linecap:round;stroke-linejoin:round;stroke-miterlimit:4;stroke-dasharray:none;stroke-dashoffset:0;stroke-opacity:1;color-rendering:auto;image-rendering:auto;shape-rendering:auto;text-rendering:auto;enable-background:accumulate"
     d="m 107.69014,61.903968 c -0.89953,-6.98e-4 -1.76251,0.355918 -2.39915,0.991421 l -4.24119,4.238256 c -3.210925,3.197892 1.59693,8.008816 4.7968,4.799862 l 3.24679,-3.24534 h 28.27619 c 4.60113,0.07906 4.60113,-6.863259 0,-6.784199 z m 29.67944,1.271476 c 1.17013,0 2.1176,0.946493 2.1176,2.120625 0,1.170139 -0.94747,2.11613 -2.1176,2.11613 -1.17413,0 -2.12061,-0.945991 -2.12061,-2.11613 0,-1.174132 0.94648,-2.120625 2.12061,-2.120625 z m -33.92064,4.236755 c 1.17012,0 2.1206,0.950486 2.1206,2.120629 0,1.170136 -0.95048,2.120621 -2.1206,2.120621 -1.17014,0 -2.1206,-0.950485 -2.1206,-2.120621 0,-1.170143 0.95046,-2.120629 2.1206,-2.120629 z m 10.59851,32.651031 c -1.87335,9e-5 -3.39197,1.51874 -3.39206,3.39211 v 8.478 c 1e-4,0.89998 0.35781,1.76303 0.99441,2.39918 l 2.12059,2.12062 c 3.19703,3.34659 8.14287,-1.60083 4.79533,-4.79686 l -1.12621,-1.12771 v -3.68113 h 7.21095 c 4.44609,-0.076 4.44609,-6.7082 0,-6.78421 z m 10.60301,1.27147 c 1.17011,0 2.11611,0.9465 2.11611,2.12064 0,1.17013 -0.946,2.11612 -2.11611,2.11612 -1.17413,0 -2.1206,-0.94599 -2.1206,-2.11612 0,-1.17414 0.94647,-2.12063 2.1206,-2.12064 z m -8.48241,10.59864 c 1.17013,0 2.12061,0.95047 2.12061,2.12063 0,1.17013 -0.95048,2.12061 -2.12061,2.12061 -1.17012,0 -2.1206,-0.95048 -2.1206,-2.12061 0,-1.17016 0.95048,-2.12063 2.1206,-2.12063 z m 6.3094,-33.121283 c -1.87226,0.02882 -3.36707,1.569221 -3.33966,3.441521 V 94.97283 c 0.0762,4.445923 6.70791,4.445923 6.78413,0 V 82.253578 c 0.028,-1.913357 -1.53116,-3.471195 -3.44447,-3.441521 z m 0.0524,1.320892 c 1.17013,0 2.1206,0.950493 2.12061,2.120629 0,1.170136 -0.95048,2.120621 -2.12061,2.120621 -1.17012,0 -2.12061,-0.950485 -2.12061,-2.120621 0,-1.170136 0.95049,-2.120629 2.12061,-2.120629 z m 0,12.719255 c 1.17013,0 2.12061,0.950489 2.12061,2.120626 0,1.170136 -0.95048,2.120626 -2.12061,2.120626 -1.17012,0 -2.12061,-0.95049 -2.12061,-2.120626 0,-1.170137 0.95049,-2.120626 2.12061,-2.120626 z M 109.76283,76.74235 c -0.88291,0.01187 -1.72639,0.367529 -2.35124,0.991422 l -4.24121,4.24125 c -0.63659,0.636156 -0.9943,1.499206 -0.99439,2.399177 v 27.559141 c -0.007,4.53075 6.79258,4.53075 6.78562,0 V 85.778969 l 0.84614,-0.847652 0.84764,0.846149 v 9.195364 c -0.0789,4.601008 6.86301,4.601008 6.78413,0 V 84.374199 c 7e-4,-0.899543 -0.35591,-1.762533 -0.99141,-2.399177 l -4.23821,-4.24125 c -0.64833,-0.647381 -1.53097,-1.004976 -2.44707,-0.991422 z m 4.28462,16.109854 c 1.17412,0 2.1206,0.950489 2.1206,2.120626 0,1.170136 -0.94648,2.120626 -2.1206,2.120626 -1.17012,0 -2.11611,-0.95049 -2.11611,-2.120626 0,-1.170137 0.94599,-2.120626 2.11611,-2.120626 z m -8.47791,16.960506 c 1.17013,0 2.1206,0.95049 2.1206,2.12063 0,1.17014 -0.95047,2.12063 -2.1206,2.12063 -1.17012,0 -2.1206,-0.95049 -2.1206,-2.12063 0,-1.17014 0.95048,-2.12063 2.1206,-2.12063 z M 69.495356,83.068281 c -3.044214,0.0015 -4.545648,3.701891 -2.363211,5.824227 l 1.840549,1.840571 -1.840549,1.839076 c -3.201758,3.197908 1.595055,7.999265 4.796813,4.801359 l 1.843548,-1.84207 1.839054,1.839064 c 3.195474,3.387092 8.182361,-1.599844 4.79531,-4.795357 l -1.839047,-1.839075 1.842045,-1.843568 c 2.219166,-2.157918 0.625876,-5.916887 -2.468044,-5.822732 -0.881535,0.02565 -1.718428,0.393609 -2.333262,1.025867 l -1.839054,1.840569 -1.84055,-1.840569 c -0.639067,-0.65721 -1.516911,-1.027798 -2.433602,-1.027362 z m 0.03596,1.305918 c 1.170123,0 2.120597,0.950491 2.120597,2.120629 0,1.170136 -0.950474,2.120619 -2.120597,2.120619 -1.170123,0 -2.120605,-0.950483 -2.120605,-2.120619 0,-1.170138 0.950482,-2.120629 2.120605,-2.120629 z m 8.477912,0 c 1.170123,0 2.120598,0.950491 2.120606,2.120629 0,1.170136 -0.950483,2.120619 -2.120606,2.120619 -1.170122,0 -2.120605,-0.950483 -2.120605,-2.120619 0,-1.170138 0.950483,-2.120629 2.120605,-2.120629 z m -8.477912,8.478005 c 1.170123,0 2.120597,0.950489 2.120597,2.120626 0,1.170136 -0.950474,2.120626 -2.120597,2.120626 -1.170123,0 -2.120605,-0.95049 -2.120605,-2.120626 0,-1.170137 0.950482,-2.120626 2.120605,-2.120626 z m 8.477912,0 c 1.170123,0 2.120598,0.950489 2.120606,2.120626 0,1.170136 -0.950483,2.120626 -2.120606,2.120626 -1.170122,0 -2.120605,-0.95049 -2.120605,-2.120626 0,-1.170137 0.950483,-2.120626 2.120605,-2.120626 z M 150.03778,74.5753 c -1.87225,0.02801 -3.36772,1.567733 -3.34115,3.440027 v 28.272003 l -2.25388,2.2539 h -2.83497 c -4.52946,-0.006 -4.52946,6.79141 0,6.7857 h 4.24121 c 0.89944,-4.9e-4 1.76187,-0.35818 2.39765,-0.99441 l 4.24121,-4.24125 c 0.6366,-0.63615 0.99431,-1.4992 0.99441,-2.39918 V 78.015327 c 0.0272,-1.912777 -1.53176,-3.469685 -3.44448,-3.440027 z m 0.0524,1.319398 c 1.17013,0 2.11611,0.946497 2.11611,2.120629 0,1.170136 -0.94598,2.117622 -2.11611,2.117622 -1.17412,0 -2.12061,-0.947486 -2.12061,-2.117622 0,-1.174132 0.94649,-2.120629 2.12061,-2.120629 z m -8.48241,33.918012 c 1.17013,0 2.12061,0.95049 2.12061,2.12063 0,1.17014 -0.95048,2.12063 -2.12061,2.12063 -1.17012,0 -2.1206,-0.95049 -2.1206,-2.12063 0,-1.17014 0.95048,-2.12063 2.1206,-2.12063 z M 99.210731,44.941965 c -0.899445,4.93e-4 -1.761874,0.358182 -2.397653,0.994417 l -4.241205,4.24125 c -3.293279,3.197559 1.599297,8.090184 4.796818,4.796866 l 3.248289,-3.246833 h 24.03348 c 4.52375,0 4.52375,-6.7857 0,-6.7857 z m 25.439729,1.272974 c 1.17012,0 2.11611,0.950488 2.11611,2.120625 0,1.170138 -0.94599,2.120625 -2.11611,2.120625 -1.17413,0 -2.1206,-0.950487 -2.1206,-2.120625 0,-1.170137 0.94647,-2.120625 2.1206,-2.120625 z m -29.680924,4.24125 c 1.170123,0 2.120602,0.946494 2.120602,2.120625 0,1.170138 -0.950479,2.116131 -2.120602,2.116131 -1.170124,0 -2.120603,-0.945993 -2.120603,-2.116131 0,-1.174131 0.950479,-2.120625 2.120603,-2.120625 z M 63.169499,49.183215 c -4.521291,0.0025 -4.521291,6.788153 0,6.785698 H 86.49162 c 4.521291,-0.0025 4.521291,-6.788153 0,-6.785698 z m 0,1.272974 c 1.174117,0 2.1206,0.946494 2.1206,2.120625 0,1.170138 -0.946483,2.116131 -2.1206,2.116131 -1.170126,0 -2.117607,-0.945993 -2.117607,-2.116131 0,-1.174131 0.947481,-2.120625 2.117607,-2.120625 z m 23.322121,0 c 1.170125,0 2.116113,0.946494 2.116113,2.120625 0,1.170138 -0.945988,2.116131 -2.116113,2.116131 -1.174117,0 -2.120589,-0.945993 -2.120604,-2.116131 0,-1.174131 0.946487,-2.120625 2.120604,-2.120625 z m 44.51615,28.403791 c -1.87393,8.8e-5 -3.39281,1.519643 -3.39207,3.393598 V 94.97283 c 0,4.523801 6.78563,4.523801 6.78563,0 v -9.32715 h 3.8129 v 17.80966 c -0.01,4.5335 6.79533,4.5335 6.78561,0 V 82.253578 c 7.4e-4,-1.873951 -1.51813,-3.393504 -3.39206,-3.393598 z m 0,13.992224 c 1.17013,0 2.12061,0.950489 2.12061,2.120626 0,1.170136 -0.95048,2.120626 -2.12061,2.120626 -1.17013,0 -2.1206,-0.95049 -2.1206,-2.120626 0,-1.170137 0.95047,-2.120626 2.1206,-2.120626 z m 10.60001,8.482496 c 1.17013,0 2.1206,0.9465 2.1206,2.12064 0,1.17013 -0.95047,2.11612 -2.1206,2.11612 -1.17012,0 -2.1206,-0.94599 -2.1206,-2.11612 0,-1.17414 0.95048,-2.12063 2.1206,-2.12064 z m -8.53033,-1.31939 c -1.87225,0.028 -3.36771,1.56774 -3.34114,3.44003 v 2.83348 l -7.48351,7.48808 c -0.63623,0.63579 -0.99391,1.49823 -0.9944,2.39768 v 4.23826 c -0.0793,4.6014 6.8634,4.6014 6.78412,0 v -2.83349 l 7.485,-7.48808 c 0.6366,-0.63615 0.99431,-1.4992 0.99441,-2.39918 v -4.23675 c 0.0272,-1.91278 -1.53176,-3.469688 -3.44448,-3.44003 z m 0.0509,1.31939 c 1.17013,0 2.1206,0.9465 2.1206,2.12064 0,1.17013 -0.95047,2.11612 -2.1206,2.11612 -1.17013,0 -2.12061,-0.94599 -2.12061,-2.11612 0,-1.17414 0.95048,-2.12063 2.12061,-2.12064 z m -8.47792,16.95751 c 1.17012,0 2.11611,0.95049 2.11611,2.12063 0,1.17014 -0.94599,2.12062 -2.11611,2.12062 -1.17412,0 -2.1206,-0.95048 -2.1206,-2.12062 0,-1.17014 0.94648,-2.12063 2.1206,-2.12063 z m -12.9078,-64.870741 c -4.60101,-0.07894 -4.60101,6.863141 0,6.784202 h 28.27168 l 2.2539,2.255409 v 5.666977 l -2.2539,2.253918 h -23.84628 c -4.52565,-0.0019 -4.52565,6.783796 0,6.785699 h 25.25103 c 0.89997,-9.5e-5 1.76301,-0.357816 2.39916,-0.994421 l 4.24121,-4.241248 c 0.6366,-0.636153 0.99431,-1.499203 0.99441,-2.399177 v -8.478009 c -4.9e-4,-0.899456 -0.35818,-1.761896 -0.99441,-2.397683 l -4.24121,-4.24125 c -0.63615,-0.636604 -1.49919,-0.994323 -2.39916,-0.994417 z m 0.18869,1.271476 c 1.17013,0 2.11611,0.950487 2.11611,2.120625 0,1.170137 -0.94598,2.120624 -2.11611,2.120624 -1.17411,0 -2.1206,-0.950487 -2.1206,-2.120624 0,-1.170138 0.94649,-2.120625 2.1206,-2.120625 z m 4.23671,16.960504 c 1.17013,0 2.12061,0.950485 2.12061,2.120629 0,1.170136 -0.95048,2.12062 -2.12061,2.12062 -1.17012,0 -2.1206,-0.950484 -2.1206,-2.12062 0,-1.170144 0.95048,-2.120629 2.1206,-2.120629 z m -8.47841,108.120401 2.1206,2.11664 h 8.47842 l 2.1206,-2.11664 v -27.56013 l -2.1206,-2.12063 h -2.12061 v -29.68075 l -2.1206,-2.12062 -2.1166,2.12062 v 29.68075 h -2.12061 l -2.1206,2.12063 z M 89.670526,118.29172 H 84.37102 l -2.120602,2.12062 v 14.84038 l 2.120602,2.12063 4.237209,2.12062 v 40.27988 l 2.120601,2.11664 h 8.482402 l 2.116618,-2.11664 v -40.27988 l 4.24119,-2.12062 2.1206,-2.12063 v -14.84038 l -2.1206,-2.12062 h -5.2995 v 11.66144 l -5.299503,2.12062 -5.299511,-2.12062 z m 5.299511,54.06195 c 2.340246,0 3.1789,0.83866 3.1789,3.17894 0,2.34027 -0.838654,3.17894 -3.1789,3.17894 -2.340257,0 -3.178911,-0.83867 -3.178911,-3.17894 0,-2.34028 0.838654,-3.17894 3.178911,-3.17894 z m 2.069178,-99.898998 c -1.872247,0.02801 -3.36771,1.567737 -3.341139,3.440026 v 7.206532 h -3.81439 v -5.085903 c -9.1e-5,-1.873368 -1.518717,-3.392011 -3.392065,-3.392102 H 67.410698 c -0.899963,9.5e-5 -1.763004,0.357813 -2.399151,0.994413 l -6.357312,6.357384 c -0.636594,0.636153 -0.99431,1.499204 -0.994406,2.399177 v 14.839884 c 9.7e-5,0.899237 0.35723,1.761647 0.992908,2.397677 l 4.23671,4.24125 c 0.636512,0.63697 1.500166,0.99473 2.400652,0.99443 h 19.795279 l 6.492095,6.49216 v 11.31449 c -0.0067,4.53048 6.792309,4.53048 6.785618,0 v -12.72075 c -4.89e-4,-0.89946 -0.358172,-1.7619 -0.9944,-2.39769 l -8.479415,-8.478 c -0.635781,-0.63623 -1.498211,-0.99392 -2.397656,-0.99441 H 66.694847 L 64.445454,97.810816 V 85.778969 l 4.369999,-4.370045 h 14.284103 v 5.184749 8.379157 c -0.07884,4.600968 6.862972,4.600968 6.78413,0 v -5.085901 h 3.81439 v 11.447781 c 0.0049,4.51889 6.780714,4.51889 6.785624,0 V 75.894699 c 0.0272,-1.912779 -1.531764,-3.469688 -3.444485,-3.440027 z m 0.05091,1.319406 c 1.170124,0 2.120603,0.950484 2.120603,2.12062 0,1.170136 -0.950479,2.120629 -2.120603,2.120629 -1.170133,0 -2.120603,-0.950493 -2.120603,-2.120629 0,-1.170136 0.95047,-2.12062 2.120603,-2.12062 z m -10.598515,2.12062 c 1.170124,0 2.116112,0.946498 2.116112,2.120629 0,1.170136 -0.945988,2.117622 -2.116112,2.117622 -1.174119,0 -2.120589,-0.947486 -2.120606,-2.117622 0,-1.174131 0.946487,-2.120629 2.120606,-2.120629 z m 0,16.957506 c 1.170124,0 2.116112,0.950489 2.116112,2.120626 0,1.170136 -0.945988,2.120626 -2.116112,2.120626 -1.174119,0 -2.120589,-0.95049 -2.120606,-2.120626 0,-1.170137 0.946487,-2.120626 2.120606,-2.120626 z m 10.598515,6.361879 c 1.170124,0 2.120603,0.950517 2.120603,2.120627 0,1.17014 -0.950479,2.12063 -2.120603,2.12063 -1.170133,0 -2.120603,-0.95049 -2.120603,-2.12063 0,-1.17011 0.95047,-2.120627 2.120603,-2.120627 z m -2.120603,23.319377 c 1.170124,0 2.120603,0.95049 2.120603,2.12063 0,1.17014 -0.950479,2.12063 -2.120603,2.12063 -1.170123,0 -2.120602,-0.95049 -2.120602,-2.12063 0,-1.17014 0.950479,-2.12063 2.120602,-2.12063 z m 8.413528,-69.144939 c -0.88174,0.02605 -1.71866,0.394559 -2.33325,1.027365 L 89.323583,66.140725 H 61.051892 c -0.899446,4.91e-4 -1.761877,0.358179 -2.397658,0.994414 l -2.120601,2.120628 c -3.293509,3.197554 1.599294,8.090411 4.796813,4.796866 l 1.127692,-1.126207 H 90.72833 c 0.899966,-9.6e-5 1.763009,-0.357817 2.399156,-0.994421 L 105.8466,59.211253 c 2.21734,-2.156398 0.62813,-5.912588 -2.46355,-5.822732 z m 0.0658,1.304424 c 1.17012,0 2.1206,0.950487 2.1206,2.120625 0,1.170137 -0.95048,2.120624 -2.1206,2.120624 -1.17014,0 -2.1206,-0.950487 -2.1206,-2.120624 0,-1.170138 0.95046,-2.120625 2.1206,-2.120625 z M 58.931238,69.532828 c 1.170124,0 2.120601,0.950485 2.120601,2.120621 0,1.170136 -0.950477,2.120629 -2.120601,2.120629 -1.170126,0 -2.120602,-0.950493 -2.120602,-2.120629 0,-1.170136 0.950476,-2.120621 2.120602,-2.120621 z m -6.41267,5.042472 c -1.87225,0.02801 -3.367717,1.567735 -3.341145,3.440027 v 25.440013 c 4.96e-4,0.89945 0.35818,1.76189 0.994405,2.39767 l 8.482406,8.47951 c 0.635782,0.63623 1.498213,0.99392 2.397658,0.99441 h 21.198526 c 4.531437,0.008 4.531437,-6.79339 0,-6.78569 H 62.456641 l -6.493593,-6.49217 V 78.015327 C 55.99021,76.10255 54.431287,74.545642 52.518568,74.5753 Z m 0.05092,1.319398 c 1.170124,0 2.120602,0.946497 2.120602,2.120629 0,1.170136 -0.950478,2.117622 -2.120602,2.117622 -1.170124,0 -2.120601,-0.947486 -2.120601,-2.117622 0,-1.174132 0.950477,-2.120629 2.120601,-2.120629 z m 29.680926,33.918012 c 1.170123,0 2.120598,0.95049 2.120598,2.12063 0,1.17014 -0.950475,2.12063 -2.120598,2.12063 -1.170123,0 -2.120606,-0.95049 -2.120597,-2.12063 0,-1.17014 0.950474,-2.12063 2.120597,-2.12063 z M 56.810689,57.662718 c -0.899446,4.93e-4 -1.761877,0.358182 -2.397657,0.994418 L 41.693917,71.376389 c -0.63623,0.635788 -0.993916,1.498231 -0.994407,2.397689 v 25.440005 c 0.0763,4.445847 6.707828,4.445847 6.784127,0 V 75.180335 L 58.216935,64.44692 H 86.49162 c 4.44582,-0.07628 4.44582,-6.707926 0,-6.784202 z m 29.680931,1.271476 c 1.170125,0 2.116113,0.950488 2.116113,2.120625 0,1.170137 -0.945988,2.120625 -2.116113,2.120625 -1.174117,0 -2.120589,-0.950488 -2.120604,-2.120625 0,-1.170137 0.946487,-2.120625 2.120604,-2.120625 z M 44.091574,97.093456 c 1.170124,0 2.120601,0.950491 2.120601,2.120627 0,1.170137 -0.950477,2.120627 -2.120601,2.120627 -1.170125,0 -2.120602,-0.95049 -2.120602,-2.120627 0,-1.170136 0.950477,-2.120627 2.120602,-2.120627 z M 99.063971,-8.8157796e-7 C 48.784614,0.0119803 5.6886204,38.114847 0.51291533,89.217492 -5.0102381,143.72673 34.702694,192.38978 89.211258,197.91298 143.7239,203.4322 192.3899,163.71991 197.91304,109.21067 203.4322,54.701421 163.71584,6.038387 109.20721,0.51517988 105.80067,0.17172604 102.4146,-8.8157796e-7 99.063971,-8.8157796e-7 Z M 97.326754,5.3554756 c 0.335467,-0.031949 0.558158,0.1437712 0.590056,0.4792363 0,0.1277976 -0.03139,0.2875423 -0.07934,0.3833898 l -5.288021,7.8909403 c -0.0639,0.09585 -0.07934,0.143776 -0.07934,0.191695 0.01605,0.04792 0.04846,0.0644 0.112327,0.160245 l 8.161904,9.776439 c 0.0639,0.07988 0.11285,0.159745 0.1288,0.287542 0.032,0.335467 -0.15974,0.55961 -0.47923,0.591559 l -3.818876,0.366915 c -0.207672,0.03195 -0.431314,-0.06439 -0.575078,-0.256092 l -5.574067,-7.172084 c -0.06388,-0.07988 -0.15974,-0.176225 -0.287539,-0.160245 -0.07988,0 -0.176725,0.09685 -0.22464,0.176718 l -1.150157,1.740231 0.575078,5.846694 c 0.03198,0.319491 -0.15974,0.543135 -0.479231,0.575084 l -3.258778,0.320491 c -0.319491,0.03195 -0.543127,-0.159746 -0.575078,-0.479238 L 83.204389,7.2559511 C 83.172419,6.920483 83.349155,6.7128145 83.668645,6.6808664 l 3.258777,-0.3189925 c 0.319491,-0.031949 0.558102,0.1437701 0.590054,0.4792372 l 0.51218,5.3989069 c 0.07988,0.782753 0.06387,1.613431 -0.04792,2.156566 L 93.41204,5.9305594 C 93.50783,5.7867892 93.635681,5.7069111 93.795425,5.6909406 Z M 71.174171,10.092435 c 1.843541,-0.007 3.434997,0.767779 4.467339,2.228453 0.207673,0.271569 0.22264,0.30252 0.254591,0.398367 0.04792,0.143769 0.01641,0.271566 -0.127291,0.38339 l -2.283843,1.933421 c -0.06388,0.04793 -0.14433,0.09535 -0.208163,0.127298 -0.175722,0.0639 -0.430811,4.98e-4 -0.558609,-0.175222 -0.686897,-0.91055 -1.597437,-1.149669 -2.827468,-0.702382 l -2.077168,0.750306 c -1.150156,0.41534 -1.580967,1.596958 -1.181609,2.667255 l 2.858921,7.875964 c 0.415268,1.134195 1.469141,1.692806 2.619297,1.277467 l 2.077176,-0.750306 c 1.229963,-0.447287 1.741146,-1.182117 1.725235,-2.348263 -0.01595,-0.255592 0.143264,-0.431812 0.318984,-0.49571 0.06388,-0.03195 0.14377,-0.04792 0.239616,-0.04792 l 2.987717,-0.01498 c 0.175652,0.01597 0.304016,0.09535 0.351932,0.223145 0.03197,0.09585 0.09484,0.287544 0.110821,0.623009 0.207665,2.587881 -1.45267,4.680551 -4.375985,5.750846 l -2.077168,0.750306 c -4.089451,1.485633 -6.661332,0.224144 -7.859408,-3.050644 l -3.179404,-8.738593 c -1.150157,-3.146992 0.07988,-5.973992 4.025547,-7.411703 l 2.077176,-0.750306 c 0.91347,-0.334466 1.80379,-0.50004 2.641764,-0.503199 z m 42.500379,1.76569 c 0.0696,-0.01098 0.14476,-0.0085 0.22464,0.0075 l 2.23742,0.398367 c 0.30352,0.0639 0.46271,0.288541 0.41483,0.608031 l -0.51068,2.746629 2.85892,0.527161 c 0.31941,0.0639 0.49513,0.304515 0.43131,0.608032 l -0.39986,2.235966 c -0.0639,0.319491 -0.30351,0.495211 -0.62301,0.431313 l -2.85891,-0.527161 -0.55861,3.019195 c -0.0639,0.319491 -0.30451,0.495211 -0.60803,0.431313 l -2.23591,-0.399863 c -0.31949,-0.0639 -0.4952,-0.303518 -0.4313,-0.623009 l 0.55859,-3.019194 -2.89037,-0.542138 c -0.3355,-0.04792 -0.4952,-0.303516 -0.4313,-0.623008 l 0.39836,-2.237438 c 0.0639,-0.303518 0.28754,-0.462759 0.623,-0.41484 l 2.89187,0.543634 0.51068,-2.748125 c 0.036,-0.239619 0.18945,-0.389381 0.39836,-0.422328 z m 21.19404,0.465759 c 0.0677,0.0095 0.13735,0.03295 0.20516,0.06889 l 3.09854,1.644383 c 0.20771,0.111822 0.30401,0.28854 0.30401,0.46426 l -0.8147,10.81429 c -0.0797,0.607034 -0.22366,1.197594 -0.23961,1.229543 l 0.12729,0.06439 c 0.016,-0.03195 0.47923,-0.511686 0.91055,-0.8791 l 8.37159,-6.820145 c 0.12779,-0.111828 0.35102,-0.128296 0.55859,-0.01647 l 3.06709,1.629407 c 0.28754,0.143771 0.38288,0.398864 0.22314,0.702382 l -8.83284,16.725378 c -0.14378,0.287543 -0.43131,0.368413 -0.71885,0.224642 l -2.8125,-1.502109 c -0.28754,-0.143771 -0.36682,-0.41484 -0.22314,-0.702382 l 2.46056,-4.648601 c 1.32588,-2.508008 3.17893,-5.159786 3.25878,-5.319533 l -0.11233,-0.06439 c -0.0319,0.0639 -1.6773,1.789651 -2.58785,2.556431 l -4.82376,3.913268 c -0.15974,0.127797 -0.38338,0.127298 -0.57508,0.03146 l -2.15654,-1.15017 c -0.23965,-0.127796 -0.36843,-0.286543 -0.32049,-0.494213 l 0.60802,-6.230084 c 0.11183,-1.182118 0.60653,-3.578798 0.60653,-3.658676 l -0.0644,-0.04792 c -0.0798,0.159746 -1.21356,3.243338 -2.57138,5.815244 l -2.47552,4.680048 c -0.14375,0.287542 -0.4323,0.366916 -0.70387,0.223145 l -2.89036,-1.533559 c -0.27159,-0.143782 -0.36842,-0.41485 -0.22464,-0.702393 l 8.83433,-16.725378 c 0.11981,-0.227642 0.31076,-0.320492 0.51369,-0.292035 z m -86.141944,8.109591 c 0.101837,-0.006 0.197183,0.02246 0.277056,0.09436 l 15.510642,12.731231 c 0.06391,0.0639 0.08037,0.09535 0.112319,0.127298 0.07988,0.127796 0.04792,0.240617 -0.143769,0.368413 l -3.162931,2.156567 c -0.14377,0.09585 -0.288039,0.09585 -0.399859,0 l -2.123597,-1.854048 c -0.14377,-0.09585 -0.224141,-0.07888 -0.399859,0.03295 l -4.919616,3.35466 c -0.191698,0.127797 -0.240615,0.190697 -0.176716,0.350443 l 0.943487,2.652278 c 0.03195,0.159745 -0.01597,0.287543 -0.143769,0.38339 l -3.147955,2.140094 c -0.191693,0.127796 -0.334958,0.127796 -0.414835,0 -0.04792,-0.0639 -0.09535,-0.191192 -0.127296,-0.271069 0,-0.04792 -6.086246,-18.994267 -6.086246,-18.994267 -0.04792,-0.20767 0.04792,-0.399365 0.239616,-0.52716 L 48.41215,20.54281 c 0.103833,-0.0639 0.212658,-0.103335 0.314496,-0.109327 z m 0.931507,5.637028 -0.446285,0.304016 0.302515,0.590061 2.252391,6.502649 c 0.07987,0.175727 0.224639,0.23912 0.464255,0.07938 l 2.971238,-2.02927 c 0.239616,-0.159746 0.239616,-0.318993 0.09585,-0.462764 L 50.089462,26.566219 Z M 162.059,30.190446 c 0.15127,-0.01947 0.30711,0.03744 0.42681,0.157249 l 3.35463,3.258813 c 0.17574,0.159746 0.2231,0.366917 0.1273,0.558611 l -9.34503,17.764724 c -0.0319,0.07988 -0.0474,0.111822 -0.0793,0.143771 -0.11172,0.09585 -0.22413,0.09485 -0.39986,-0.08087 l -2.74659,-2.650781 c -0.1278,-0.127796 -0.16072,-0.256092 -0.0809,-0.399863 l 1.38977,-2.460583 c 0.0798,-0.143772 0.0324,-0.207171 -0.1273,-0.366917 l -4.26517,-4.137913 c -0.17562,-0.175715 -0.23961,-0.191196 -0.38338,-0.127298 l -2.41263,1.469162 c -0.14376,0.0639 -0.27156,0.04892 -0.38339,-0.0629 l -2.73161,-2.652278 c -0.17565,-0.159745 -0.20768,-0.304016 -0.0958,-0.399864 0.048,-0.0639 0.15978,-0.127796 0.23961,-0.191695 0.048,-0.01597 17.36468,-9.776438 17.36467,-9.776438 0.0479,-0.02397 0.0978,-0.03844 0.14826,-0.04492 z m -62.848259,0.679918 c 37.743499,0 68.338459,30.599794 68.338459,68.343719 0,29.153587 -18.25773,54.037987 -43.96054,63.858357 v 18.01183 l -3.0551,3.05513 -0.92702,0.93452 h -11.11368 l -0.9315,-0.93452 -2.11612,-2.12062 -0.9345,-0.93451 -3.0551,3.05513 -0.92701,0.93452 H 89.410443 l -0.925516,-0.93452 -3.055108,-3.05513 V 166.17101 C 54.287791,159.79715 30.869265,132.24152 30.869265,99.214083 c 0,-37.743925 30.597979,-68.343719 68.341476,-68.343719 z m -65.960293,1.67733 c 0.1258,-0.01198 0.258586,0.03645 0.386381,0.148264 l 14.344012,12.332869 c 0.239616,0.20767 0.272064,0.47824 0.06439,0.733833 l -2.12509,2.460583 c -0.223643,0.255593 -0.510682,0.272067 -0.750298,0.06439 l -5.463244,-4.696525 c -0.239616,-0.207669 -0.511182,-0.176718 -0.718848,0.0629 l -3.673608,4.281697 c -0.207672,0.239618 -0.191693,0.52766 0.04792,0.735329 l 5.463244,4.696525 c 0.239611,0.207669 0.255591,0.478239 0.04792,0.733832 l -2.125093,2.477057 c -0.207668,0.239618 -0.510682,0.27057 -0.750298,0.0629 L 23.652331,44.309971 c -0.255585,-0.223644 -0.25559,-0.49571 -0.04792,-0.735329 l 2.125094,-2.47556 c 0.207667,-0.255593 0.494708,-0.288041 0.750298,-0.06439 l 5.111308,4.392509 c 0.239616,0.207669 0.51118,0.176718 0.718848,-0.0629 l 3.67511,-4.281689 c 0.207672,-0.239619 0.191693,-0.52766 -0.04792,-0.735329 l -5.112816,-4.392517 c -0.255586,-0.223644 -0.271565,-0.479736 -0.04792,-0.73533 l 2.125094,-2.459086 c 0.103833,-0.127796 0.223143,-0.200681 0.34894,-0.212661 z m 127.047382,3.007213 -0.49571,0.399864 -5.94248,3.546355 c -0.15966,0.09585 -0.19118,0.240117 0.0165,0.447787 l 2.58785,2.50701 c 0.20767,0.207675 0.36705,0.176219 0.46275,0.01647 l 3.37111,-6.021916 0.39836,-0.512184 z m 14.89662,9.115991 c 0.14356,0.02007 0.26808,0.112321 0.35793,0.265077 l 1.71026,2.79605 c 0.15974,0.271567 0.11082,0.543135 -0.17672,0.718855 l -4.63208,2.8275 c -0.67081,0.399364 -1.42222,0.750306 -1.98132,0.894077 l 9.9845,1.198093 c 0.17573,0.03195 0.30364,0.128296 0.38338,0.256092 l 1.83757,3.035668 c 0.17571,0.287542 0.11081,0.543137 -0.17673,0.718856 -0.11182,0.0639 -0.25509,0.127798 -0.36692,0.09585 l -9.42438,-1.326887 c -0.1278,0 -0.14374,4.94e-4 -0.19169,0.01647 -0.0319,0.03195 -0.0479,0.07938 -0.0958,0.175222 l -5.27155,11.582564 c -0.048,0.11182 -0.0963,0.175723 -0.20817,0.239619 -0.28744,0.175722 -0.57558,0.111221 -0.73533,-0.160242 l -1.9963,-3.27529 c -0.0957,-0.191695 -0.11171,-0.430315 0,-0.637985 l 4.02555,-8.132056 c 0.0479,-0.07988 0.0963,-0.23862 0.0165,-0.350443 -0.032,-0.0639 -0.1603,-0.09685 -0.25609,-0.128794 l -2.04422,-0.254596 -5.03193,3.050645 c -0.27157,0.159746 -0.55911,0.09635 -0.71886,-0.175221 l -1.71025,-2.79605 c -0.15975,-0.271567 -0.0949,-0.55911 0.17671,-0.718855 l 16.16509,-9.824363 c 0.0719,-0.04393 0.14277,-0.07238 0.21116,-0.08537 0.0513,-0.0097 0.10193,-0.01118 0.14976,-0.0045 z m 10.94147,21.078949 c 0.20657,0.01873 0.35946,0.164741 0.43131,0.392374 l 3.54632,11.518163 c 0.0957,0.303522 -0.0161,0.558615 -0.33547,0.654462 l -2.76307,0.862627 c -0.30352,0.09585 -0.56015,-0.06341 -0.65595,-0.366919 l -2.26736,-7.380253 c -0.0958,-0.319379 -0.35144,-0.447784 -0.67093,-0.351937 l -2.74809,0.847653 c -0.30356,0.09585 -0.43127,0.351437 -0.33546,0.670932 l 1.869,6.053363 c 0.0957,0.319495 -0.0473,0.56011 -0.36692,0.655958 l -2.74809,0.846148 c -0.30351,0.09585 -0.54369,-0.03243 -0.63947,-0.351937 l -1.86901,-6.053363 c -0.0958,-0.319495 -0.36741,-0.447677 -0.67093,-0.351945 l -2.89037,0.894081 c -0.30348,0.09585 -0.44773,0.351438 -0.35192,0.670932 l 2.26885,7.380253 c 0.0958,0.303514 -0.0159,0.56011 -0.33546,0.655957 l -2.74809,0.846148 c -0.31949,0.09585 -0.57523,-0.04839 -0.67093,-0.351936 L 167.63757,71.97394 c -0.0958,-0.303515 0.0324,-0.575084 0.35193,-0.670932 l 17.92328,-5.527706 c 0.0798,-0.0239 0.15425,-0.03169 0.22314,-0.02546 z M 20.932689,66.757746 c 0.435302,0.03197 1.541031,3.68962 1.876494,3.973175 0.339455,0.283548 4.133375,0.751299 4.241202,1.178617 0.103834,0.423331 -3.035136,2.607349 -3.198873,3.014709 -0.167737,0.407343 0.563096,4.162371 0.191693,4.393999 -0.375399,0.231637 -3.422503,-2.076715 -3.857817,-2.108644 -0.439298,-0.03197 -3.785933,1.820104 -4.121395,1.536558 -0.335462,-0.279553 0.922521,-3.893301 0.814694,-4.320619 -0.103833,-0.427326 -2.902349,-3.03118 -2.734618,-3.438531 0.163738,-0.407352 3.985614,-0.327476 4.361011,-0.563107 0.371405,-0.231629 1.988312,-3.69811 2.427609,-3.666157 z M 187.10337,86.373522 c 2.61689,0.127532 5.13227,2.532466 5.40184,6.426275 0.22364,3.258813 -1.10173,5.76782 -3.52985,6.838111 -0.33544,0.0959 -0.36695,0.110825 -0.46276,0.110825 -0.14376,0.01595 -0.27155,-0.04795 -0.33545,-0.239613 l -1.21456,-2.731659 c -0.032,-0.07985 -0.0485,-0.143306 -0.0644,-0.223143 -0.016,-0.191695 0.11283,-0.382889 0.32048,-0.510696 0.97444,-0.527156 1.51702,-1.5665 1.42123,-2.908364 -0.0958,-1.485641 -0.97494,-2.283367 -1.98132,-2.219472 -0.99041,0.06388 -1.58097,0.925537 -2.28384,3.513417 -1.08626,4.18533 -3.01966,6.198627 -5.71934,6.390327 -3.69008,0.23963 -6.22902,-2.189007 -6.53253,-6.582021 -0.23962,-3.56233 1.13319,-6.325934 3.65714,-7.284408 0.31949,-0.1278 0.36794,-0.127302 0.44778,-0.127302 0.14378,-0.01595 0.28804,0.06387 0.35193,0.239619 l 1.32538,2.875423 c 0.032,0.07988 0.0485,0.159246 0.0644,0.223149 0.0159,0.191695 -0.11282,0.383888 -0.32048,0.495707 -1.03834,0.575085 -1.62889,1.597956 -1.51707,3.32321 0.11182,1.597457 0.97444,2.363705 2.0607,2.283868 0.99041,-0.0639 1.75718,-0.815209 2.39616,-3.466978 1.05431,-4.281193 2.95527,-6.214114 5.9904,-6.421781 0.17472,-0.01196 0.3497,-0.01304 0.52416,-0.0046 z M 24.910314,95.63178 c 0.111823,-0.01595 0.240121,0.111326 0.256091,0.271071 l 0.206668,3.977676 c 0.01597,0.239623 -0.04693,0.400363 -0.206668,0.512183 l -4.425409,2.52348 c -0.415334,0.19169 -1.741708,0.86312 -2.22094,1.0708 v 0.0958 c 1.214054,-0.14378 2.093147,0.20666 4.185791,1.02137 l 2.779546,1.26248 c 0.175719,0.0798 0.255086,0.27162 0.271066,0.47924 l 0.22464,4.16937 c 0,0.15975 -0.14427,0.27163 -0.25609,0.28754 -0.07988,0 -0.175224,-0.0154 -0.223142,-0.0314 l -9.761356,-4.72948 c -0.07987,-0.0319 -0.159246,-0.0793 -0.271066,-0.0793 -0.111822,0.0159 -0.17522,0.0799 -0.271066,0.14377 l -8.690572,5.51123 c -0.095846,0.0798 -0.1432646,0.0793 -0.2231427,0.0793 -0.159743,0.016 -0.2401088,-0.1268 -0.2560893,-0.35044 L 5.8054323,107.8044 c -0.015969,-0.33542 0.1272963,-0.47974 0.3189891,-0.59156 l 4.4883076,-2.47556 c 0.399359,-0.20762 1.502592,-0.8152 1.997797,-1.02288 l -0.01647,-0.0958 c -0.878593,0.048 -2.348236,-0.38339 -3.9776254,-1.10224 l -2.8109952,-1.261 c -0.2076651,-0.0958 -0.367405,-0.23961 -0.3833845,-0.57508 L 5.2138848,96.686133 c -0.015979,-0.239573 0.063397,-0.35096 0.2231416,-0.366909 0.079867,0 0.1762132,0.03098 0.2560893,0.06288 l 9.8557063,4.792366 c 0.111821,0.0639 0.207672,0.0644 0.287539,0.0644 0.09585,0 0.176222,-0.032 0.25609,-0.0958 l 8.594725,-5.463305 c 0.04792,-0.032 0.127296,-0.04795 0.223142,-0.04795 z m 148.194986,9.38557 18.52981,2.93832 c 0.31949,0.048 0.47925,0.28854 0.4313,0.60803 l -1.15015,7.20354 c -0.65495,4.16936 -3.25878,5.87964 -6.94886,5.30456 l -0.46276,-0.0809 c -3.08306,-0.47924 -5.67141,-3.0182 -5.00049,-7.20353 l 0.44778,-2.92335 c 0.0639,-0.31949 -0.0968,-0.54373 -0.41633,-0.59155 l -6.10123,-0.97496 c -0.31947,-0.048 -0.49572,-0.28716 -0.44777,-0.60652 l 0.51068,-3.22738 c 0.048,-0.31949 0.28854,-0.49423 0.60802,-0.44628 z m 10.33494,6.02192 c -0.33546,-0.048 -0.55911,0.11181 -0.623,0.43131 l -0.46276,3.01919 c -0.19169,1.19797 0.47923,2.25291 1.77315,2.46059 l 0.43132,0.0629 c 1.29393,0.20767 2.28384,-0.59007 2.47553,-1.78816 l 0.46276,-3.01919 c 0.0639,-0.3195 -0.0959,-0.54373 -0.43131,-0.59155 z m -156.99189,4.0765 c 0.206669,0.008 0.359423,0.14527 0.431309,0.37291 l 1.037837,3.09857 c 0.09585,0.30351 -0.01597,0.57558 -0.335463,0.6874 l -6.405235,2.10864 c -0.303508,0.0958 -0.416332,0.33501 -0.320485,0.65446 l 1.758181,5.33602 c 0.09585,0.30349 0.334464,0.44623 0.637978,0.35043 l 6.406732,-2.10864 c 0.319488,-0.11183 0.559104,7.7e-4 0.670925,0.32049 l 1.021363,3.09856 c 0.09585,0.30352 -0.01597,0.55915 -0.335462,0.67093 l -17.971198,5.9111 c -0.303515,0.0958 -0.558605,-0.032 -0.654452,-0.33547 l -1.02286,-3.10007 c -0.111822,-0.31949 0.01698,-0.55865 0.320486,-0.65446 l 6.853017,-2.25241 c 0.303508,-0.11178 0.414835,-0.36741 0.318989,-0.67093 l -1.756685,-5.33601 c -0.09585,-0.3195 -0.335962,-0.44729 -0.639475,-0.33546 l -6.8530174,2.25241 c -0.3035135,0.0958 -0.558605,-0.0469 -0.6544514,-0.35044 l -1.0393337,-3.10007 c -0.095846,-0.30351 0.031949,-0.57513 0.3354623,-0.67093 L 26.22371,115.15321 c 0.07987,-0.028 0.15575,-0.04 0.22464,-0.0374 z m 143.94929,4.11096 c 0.0312,-0.004 0.0639,-1e-5 0.0958,0.012 0.0799,0.032 0.19123,0.12728 0.27107,0.17523 0.032,0.032 15.51064,12.50808 15.51064,12.50808 0.15978,0.14377 0.20812,0.36793 0.11232,0.59156 l -1.77315,4.31313 c -0.0958,0.22371 -0.27206,0.3509 -0.4957,0.31901 l -19.95104,-2.09218 c -0.0959,-0.032 -0.12876,-0.0485 -0.17671,-0.0644 -0.12779,-0.048 -0.15922,-0.15974 -0.0793,-0.38339 l 1.45416,-3.52988 c 0.0798,-0.15975 0.1917,-0.24059 0.33546,-0.22464 l 2.81101,0.38339 c 0.15974,0 0.22416,-0.0469 0.304,-0.2546 l 2.26738,-5.49624 c 0.0958,-0.22366 0.0798,-0.30258 -0.0479,-0.39838 l -2.25239,-1.71027 c -0.11174,-0.0958 -0.14327,-0.22365 -0.0793,-0.38339 l 1.45416,-3.51341 c 0.0599,-0.15579 0.14602,-0.23964 0.23962,-0.2516 z m 4.09744,8.58284 c -0.08,0.0137 -0.15275,0.0869 -0.21566,0.23063 l -1.37479,3.33819 c -0.11182,0.27156 -0.0315,0.39984 0.16023,0.44779 l 6.82157,0.89407 0.623,0.16025 0.20667,-0.49571 -0.5586,-0.319 -5.46325,-4.18583 c -0.04,-0.032 -0.0791,-0.0535 -0.1168,-0.0644 -0.0283,-0.008 -0.0556,-0.0105 -0.0824,-0.006 z m -138.484555,9.88426 c 0.152006,0.0102 0.29353,0.10334 0.389376,0.25909 l 2.571379,3.88182 c 0.14377,0.20767 0.14377,0.43032 0,0.59007 l -12.906316,15.35206 c -0.0639,0.0959 -0.09685,0.11135 -0.128793,0.1273 -0.127795,0.0798 -0.239616,0.049 -0.383385,-0.15876 l -2.108621,-3.17943 c -0.09585,-0.14376 -0.09535,-0.28805 0.01647,-0.39986 l 1.869005,-2.10865 c 0.11182,-0.1278 0.09635,-0.22264 -0.03146,-0.39837 l -3.291724,-4.95261 c -0.127796,-0.20765 -0.17472,-0.23964 -0.350439,-0.1917 l -2.668716,0.91056 c -0.14377,0.032 -0.271066,1e-5 -0.366912,-0.14378 l -2.092148,-3.16297 c -0.143769,-0.20766 -0.127795,-0.33499 0,-0.41483 0.0639,-0.032 0.191189,-0.0969 0.271066,-0.12879 0.04792,-0.016 19.056959,-5.86168 19.056959,-5.86168 0.05192,-0.016 0.103585,-0.0227 0.154251,-0.0195 z m 127.264535,1.50061 c 1.04579,0.056 2.09964,0.49123 3.14795,1.26999 l 7.46104,5.54267 c 2.69968,2.0128 3.21022,5.04896 0.70238,8.41961 l -1.32537,1.78815 c -1.83706,2.476 -4.45786,3.38661 -6.88597,2.4441 -0.3195,-0.11184 -0.35146,-0.14374 -0.43131,-0.19169 -0.11175,-0.0958 -0.15975,-0.22265 -0.0958,-0.39836 l 0.86262,-2.86046 c 0.016,-0.0798 0.048,-0.15937 0.0958,-0.22313 0.11182,-0.1438 0.35242,-0.2401 0.5601,-0.16025 1.08627,0.38338 1.97983,0.0798 2.7466,-0.95848 l 1.32687,-1.78815 c 0.73483,-0.99042 0.43067,-2.18851 -0.4957,-2.87542 l -6.72573,-4.98407 c -0.97443,-0.73483 -2.14057,-0.624 -2.87539,0.35044 l -1.32537,1.78966 c -0.76677,1.03821 -0.78275,1.94839 -0.14377,2.90686 0.15958,0.1917 0.12829,0.43133 0.0165,0.57509 -0.0479,0.0639 -0.11283,0.11283 -0.17672,0.17673 l -2.492,1.6294 c -0.15975,0.11174 -0.31918,0.0948 -0.41484,0.0149 -0.0798,-0.0479 -0.23976,-0.17472 -0.43131,-0.44629 -1.59744,-2.04475 -1.34235,-4.71315 0.51068,-7.20503 l 1.3104,-1.77318 c 1.61727,-2.17654 3.33537,-3.13631 5.07836,-3.04316 z m -130.133936,3.39061 -0.591552,0.27107 -6.532531,2.18951 c -0.191693,0.0799 -0.25559,0.20667 -0.09585,0.4463 l 1.996301,3.00421 c 0.159743,0.23962 0.318989,0.25459 0.462758,0.11082 l 4.552704,-5.15929 0.495705,-0.41484 z m 12.777522,7.8535 c 0.125796,0.002 0.2491,0.0619 0.360921,0.17373 l 2.33326,2.30033 c 0.223648,0.22365 0.254593,0.49571 0.01498,0.73533 L 35.35308,167.11451 c -0.223642,0.23959 -0.526657,0.23862 -0.750298,0.0149 l -2.331763,-2.30034 c -0.223642,-0.22364 -0.223642,-0.51068 0,-0.7503 L 45.545742,150.6122 c 0.119807,-0.11981 0.247103,-0.17572 0.372903,-0.17372 z m 104.664254,1.62192 c 0.12979,0.0139 0.25409,0.0848 0.35792,0.21266 l 11.89994,14.50591 c 0.20772,0.23962 0.15974,0.52616 -0.0958,0.73383 l -9.31208,7.63635 c -0.25558,0.20767 -0.52766,0.17522 -0.73532,-0.0644 l -1.83755,-2.23595 c -0.19172,-0.23962 -0.17472,-0.54263 0.0809,-0.75031 l 5.97393,-4.90469 c 0.25559,-0.20767 0.28804,-0.46326 0.0644,-0.71885 l -1.82108,-2.22096 c -0.19169,-0.25555 -0.47973,-0.30352 -0.73531,-0.0958 l -4.90465,4.0256 c -0.25559,0.22363 -0.52665,0.19268 -0.75029,-0.0629 L 146.94681,165.9 c -0.19172,-0.25559 -0.17623,-0.52667 0.0793,-0.75031 l 4.90465,-4.02559 c 0.25558,-0.20768 0.27205,-0.47924 0.0644,-0.71886 l -1.91693,-2.34826 c -0.20766,-0.25554 -0.47972,-0.30352 -0.73531,-0.0958 l -5.97394,4.9032 c -0.25558,0.20768 -0.54411,0.1927 -0.75178,-0.0629 l -1.82108,-2.22096 c -0.20769,-0.25558 -0.17472,-0.54263 0.0809,-0.75031 l 9.31209,-7.63633 c 0.12779,-0.10386 0.26407,-0.14727 0.39386,-0.1333 z m -96.894706,5.83171 c 0.127795,-0.0239 0.267071,0.008 0.402854,0.0958 l 2.556403,1.61443 c 0.175718,0.0958 0.271066,0.2546 0.271066,0.39837 l -0.494209,12.3164 c 0,0.73482 -0.112819,1.66185 -0.176716,1.8855 l 0.09585,0.048 c 0.495207,-1.42174 1.613913,-3.64271 2.556403,-5.14432 l 3.371097,-5.35097 c 0.175719,-0.27159 0.446285,-0.33597 0.733824,-0.16025 l 2.748096,1.74172 c 0.287535,0.17572 0.335964,0.44728 0.160244,0.71887 l -10.08035,16.00647 c -0.175718,0.27154 -0.447782,0.33595 -0.735321,0.16023 l -2.523456,-1.59794 c -0.175713,-0.11183 -0.256089,-0.22415 -0.256089,-0.44779 l 0.208166,-12.01238 c 0.03195,-0.76678 0.143271,-1.43822 0.175219,-1.50211 l -0.110823,-0.0629 c -0.255589,0.8786 -1.215052,2.81053 -2.285336,4.5198 l -3.354624,5.33602 c -0.175718,0.27156 -0.462259,0.33596 -0.733825,0.16024 l -2.779545,-1.74173 c -0.271564,-0.17572 -0.335961,-0.46377 -0.160243,-0.73533 l 10.080345,-16.00652 c 0.08786,-0.13579 0.203174,-0.21566 0.33097,-0.23963 z"
     inkscape:connector-curvature="0"
     sodipodi:nodetypes="ccccccccssssssssssccccccccccccssscsssssccccccscsssssssscccccccccccccccsssssssssscccccccccccccccsssssscssssssssscsssccccccccccccsssssssssscccccsscsssssssssscccccsssssssscsccsscccccccssssscsssccccccccccccccssscssssscccccccccccccccccssssssssssccccccccccccccccccccccccccccccccccsssssccccccccccccccccccccccccccccccccccccsssssssscsssscsssssssssssccccccccccccssssssssssccccccccccccsssssssscscccccccccccssscssssssccccccccccccccccccccccccccccccccccccccccccccccccccccccccccccccccccccccccccccccccccccccccccccccccccccccccccccccccccccccccccccccccccccccccccccccccccccccccccccccccccccccccccssccccccccccccccsscccccccccccccccccccccccccccccccccccccccccccccccccccccccccccccccccccccccccccccccccccccccccccccccccccccccccccccccccccccccccccccccccccccccccccccccccccccccccccccccccsccccccccccccccccccccccccccccccccccccccccccccccccccccccccccccccccccccccccccccccccccccccccccccccccccccccccccccccccccccccccccccccccccccccccccccccccccccccccccccccccccccccccccccccccccccccccccccccccccccccccccccccccc" />
  <rect
     style="fill:#00ff00;fill-opacity:1;stroke:#0000ff;stroke-width:0.28346455;stroke-linecap:round;stroke-linejoin:miter;stroke-miterlimit:0;stroke-dasharray:none;stroke-opacity:1"
     id="rect878"
     width="8.2204723"
     height="8.2204723"
     x="0.14173228"
     y="0.1417331"
     rx="0"
     ry="0"
     inkscape:transform-center-x="-8.9353568"
     inkscape:transform-center-y="-1.641184" />
</svg>
