<?xml version="1.0" encoding="UTF-8" standalone="no"?>
<svg
   xmlns:dc="http://purl.org/dc/elements/1.1/"
   xmlns:cc="http://creativecommons.org/ns#"
   xmlns:rdf="http://www.w3.org/1999/02/22-rdf-syntax-ns#"
   xmlns:svg="http://www.w3.org/2000/svg"
   xmlns="http://www.w3.org/2000/svg"
   xmlns:sodipodi="http://sodipodi.sourceforge.net/DTD/sodipodi-0.dtd"
   xmlns:inkscape="http://www.inkscape.org/namespaces/inkscape"
   width="215.43306pt"
   height="215.43306pt"
   viewBox="0 0 215.43306 215.43306"
   version="1.2"
   id="svg227"
   sodipodi:docname="xHain_logo3_lasercut_7cm.svg"
   inkscape:version="0.92.4 5da689c313, 2019-01-14">
  <metadata
     id="metadata233">
    <rdf:RDF>
      <cc:Work
         rdf:about="">
        <dc:format>image/svg+xml</dc:format>
        <dc:type
           rdf:resource="http://purl.org/dc/dcmitype/StillImage" />
        <dc:title />
      </cc:Work>
    </rdf:RDF>
  </metadata>
  <defs
     id="defs231" />
  <sodipodi:namedview
     pagecolor="#ffffff"
     bordercolor="#666666"
     borderopacity="1"
     objecttolerance="10"
     gridtolerance="10"
     guidetolerance="10"
     inkscape:pageopacity="0"
     inkscape:pageshadow="2"
     inkscape:window-width="1366"
     inkscape:window-height="720"
     id="namedview229"
     showgrid="false"
     inkscape:zoom="1.836697"
     inkscape:cx="136.12829"
     inkscape:cy="117.77085"
     inkscape:window-x="0"
     inkscape:window-y="0"
     inkscape:window-maximized="1"
     inkscape:current-layer="svg227" />
  <g
     id="g961">
    <path
       id="path4"
       transform="scale(0.75)"
       d="M 143.42773 14.234375 C 77.854897 14.25 21.650391 63.942076 14.900391 130.58789 C 7.697259 201.67643 59.489679 265.14063 130.57812 272.34375 C 201.67188 279.54167 265.14063 227.75066 272.34375 156.66211 C 279.54167 85.573554 227.74478 22.109374 156.65625 14.90625 C 152.21354 14.458333 147.79753 14.234375 143.42773 14.234375 z M 141.16211 21.21875 C 141.59962 21.177083 141.89004 21.406251 141.93164 21.84375 C 141.93164 22.010417 141.89066 22.21875 141.82812 22.34375 L 134.93164 32.634766 C 134.84831 32.759766 134.82814 32.822272 134.82812 32.884766 C 134.84903 32.947267 134.89128 32.96875 134.97461 33.09375 L 145.61914 45.84375 C 145.70247 45.947918 145.76631 46.052083 145.78711 46.21875 C 145.82878 46.656251 145.57878 46.948568 145.16211 46.990234 L 140.18164 47.46875 C 139.9108 47.510417 139.61913 47.384766 139.43164 47.134766 L 132.16211 37.78125 C 132.07878 37.677077 131.95378 37.551426 131.78711 37.572266 C 131.68294 37.572266 131.55663 37.698574 131.49414 37.802734 L 129.99414 40.072266 L 130.74414 47.697266 C 130.78581 48.113932 130.53581 48.405599 130.11914 48.447266 L 125.86914 48.865234 C 125.45247 48.906901 125.16081 48.656901 125.11914 48.240234 L 122.74414 23.697266 C 122.70247 23.259764 122.93294 22.988932 123.34961 22.947266 L 127.59961 22.53125 C 128.01628 22.489583 128.32747 22.718749 128.36914 23.15625 L 129.03711 30.197266 C 129.14128 31.218098 129.12044 32.301432 128.97461 33.009766 L 136.05664 21.96875 C 136.18164 21.781251 136.34831 21.677077 136.55664 21.65625 L 141.16211 21.21875 z M 107.05469 27.396484 C 109.45898 27.387421 111.53451 28.397787 112.88086 30.302734 C 113.1517 30.656902 113.17122 30.697266 113.21289 30.822266 C 113.27539 31.009764 113.23429 31.176431 113.04688 31.322266 L 110.06836 33.84375 C 109.98503 33.906257 109.88013 33.968099 109.79688 34.009766 C 109.56771 34.093099 109.23503 34.010415 109.06836 33.78125 C 108.17253 32.593749 106.98503 32.281901 105.38086 32.865234 L 102.67188 33.84375 C 101.17188 34.385417 100.61003 35.926431 101.13086 37.322266 L 104.85938 47.59375 C 105.40096 49.072918 106.77539 49.801432 108.27539 49.259766 L 110.98438 48.28125 C 112.58846 47.697917 113.25513 46.739585 113.23438 45.21875 C 113.21354 44.885417 113.42122 44.655599 113.65039 44.572266 C 113.73372 44.530599 113.83789 44.509766 113.96289 44.509766 L 117.85938 44.490234 C 118.08846 44.511066 118.25587 44.614583 118.31836 44.78125 C 118.36002 44.90625 118.44205 45.156251 118.46289 45.59375 C 118.73372 48.96875 116.56836 51.697918 112.75586 53.09375 L 110.04688 54.072266 C 104.71354 56.009764 101.35937 54.364585 99.796875 50.09375 L 95.650391 38.697266 C 94.150391 34.593098 95.754565 30.90625 100.90039 29.03125 L 103.60938 28.052734 C 104.8007 27.616537 105.96183 27.400604 107.05469 27.396484 z M 162.48242 29.699219 C 162.57324 29.684896 162.67122 29.688151 162.77539 29.708984 L 165.69336 30.228516 C 166.0892 30.311849 166.29681 30.604818 166.23438 31.021484 L 165.56836 34.603516 L 169.29688 35.291016 C 169.71344 35.374349 169.94261 35.688151 169.85938 36.083984 L 169.33789 39 C 169.25456 39.416667 168.94206 39.645833 168.52539 39.5625 L 164.79688 38.875 L 164.06836 42.8125 C 163.98503 43.229167 163.67123 43.458333 163.27539 43.375 L 160.35938 42.853516 C 159.94271 42.770182 159.71354 42.457682 159.79688 42.041016 L 160.52539 38.103516 L 156.75586 37.396484 C 156.31829 37.333984 156.11003 37.000651 156.19336 36.583984 L 156.71289 33.666016 C 156.79622 33.270182 157.0879 33.062507 157.52539 33.125 L 161.29688 33.833984 L 161.96289 30.25 C 162.00976 29.9375 162.20996 29.742187 162.48242 29.699219 z M 190.12305 30.306641 C 190.21126 30.319011 190.30219 30.349609 190.39062 30.396484 L 194.43164 32.541016 C 194.70253 32.686849 194.82812 32.917318 194.82812 33.146484 L 193.76562 47.25 C 193.66156 48.041667 193.47392 48.811849 193.45312 48.853516 L 193.61914 48.9375 C 193.63998 48.895833 194.24413 48.270182 194.80664 47.791016 L 205.72461 38.896484 C 205.89128 38.750644 206.18241 38.729167 206.45312 38.875 L 210.45312 41 C 210.82812 41.1875 210.95247 41.520182 210.74414 41.916016 L 199.22461 63.728516 C 199.0371 64.103516 198.66211 64.208984 198.28711 64.021484 L 194.61914 62.0625 C 194.24414 61.875 194.14074 61.521484 194.32812 61.146484 L 197.53711 55.083984 C 199.26628 51.813151 201.68298 48.354818 201.78711 48.146484 L 201.64062 48.0625 C 201.59907 48.145833 199.45312 50.396484 198.26562 51.396484 L 191.97461 56.5 C 191.76628 56.666667 191.47461 56.666016 191.22461 56.541016 L 188.41211 55.041016 C 188.09958 54.874349 187.93161 54.667318 187.99414 54.396484 L 188.78711 46.271484 C 188.93295 44.729818 189.57812 41.604173 189.57812 41.5 L 189.49414 41.4375 C 189.38998 41.645833 187.91145 45.667318 186.14062 49.021484 L 182.91211 55.125 C 182.72462 55.5 182.34831 55.603516 181.99414 55.416016 L 178.22461 53.416016 C 177.87041 53.228516 177.74413 52.875 177.93164 52.5 L 189.45312 30.6875 C 189.60937 30.39062 189.8584 30.26953 190.12305 30.306641 z M 77.779297 40.882812 C 77.912109 40.875006 78.036458 40.912109 78.140625 41.005859 L 98.369141 57.609375 C 98.452481 57.692708 98.473958 57.733724 98.515625 57.775391 C 98.619792 57.942057 98.578125 58.089193 98.328125 58.255859 L 94.203125 61.068359 C 94.015625 61.193359 93.827474 61.193359 93.681641 61.068359 L 90.912109 58.650391 C 90.724609 58.525391 90.619792 58.547526 90.390625 58.693359 L 83.974609 63.068359 C 83.724603 63.235026 83.660807 63.317057 83.744141 63.525391 L 84.974609 66.984375 C 85.016276 67.192708 84.953776 67.359375 84.787109 67.484375 L 80.681641 70.275391 C 80.431641 70.442057 80.244798 70.442057 80.140625 70.275391 C 80.078132 70.192057 80.016276 70.026048 79.974609 69.921875 C 79.974609 69.859375 72.037109 45.150391 72.037109 45.150391 C 71.974609 44.879557 72.099609 44.629557 72.349609 44.462891 L 77.369141 41.025391 C 77.504557 40.942054 77.646484 40.890626 77.779297 40.882812 z M 78.994141 48.234375 L 78.412109 48.630859 L 78.806641 49.400391 L 81.744141 57.880859 C 81.848307 58.110033 82.037109 58.192708 82.349609 57.984375 L 86.224609 55.337891 C 86.537109 55.129557 86.537109 54.921875 86.349609 54.734375 L 79.556641 48.880859 L 78.994141 48.234375 z M 225.58398 53.607422 C 225.78125 53.582031 225.9845 53.65625 226.14062 53.8125 L 230.51562 58.0625 C 230.74482 58.270833 230.80657 58.541016 230.68164 58.791016 L 218.49414 81.958984 C 218.45254 82.063151 218.43222 82.104818 218.39062 82.146484 C 218.24491 82.271478 218.09831 82.270182 217.86914 82.041016 L 214.28711 78.583984 C 214.12044 78.417318 214.07751 78.25 214.18164 78.0625 L 215.99414 74.853516 C 216.09831 74.666016 216.03646 74.583333 215.82812 74.375 L 210.26562 68.978516 C 210.03657 68.749356 209.95312 68.729167 209.76562 68.8125 L 206.61914 70.728516 C 206.43165 70.811849 206.26498 70.792318 206.11914 70.646484 L 202.55664 67.1875 C 202.32757 66.979167 202.2858 66.791016 202.43164 66.666016 C 202.49413 66.582682 202.64001 66.499349 202.74414 66.416016 C 202.80665 66.395182 225.39063 53.666016 225.39062 53.666016 C 225.45312 53.634766 225.51823 53.615885 225.58398 53.607422 z M 143.61914 54.494141 C 192.8431 54.494141 232.74414 94.401041 232.74414 143.625 C 232.74414 181.64583 208.93295 214.09896 175.41211 226.90625 L 175.41211 250.39648 L 171.42773 254.38086 L 170.21875 255.59961 L 155.72461 255.59961 L 154.50977 254.38086 L 151.75 251.61523 L 150.53125 250.39648 L 146.54688 254.38086 L 145.33789 255.59961 L 130.83789 255.59961 L 129.63086 254.38086 L 125.64648 250.39648 L 125.64648 230.94727 C 85.031978 222.63476 54.490234 186.69792 54.490234 143.625 C 54.490234 94.401041 94.395206 54.494141 143.61914 54.494141 z M 57.595703 56.681641 C 57.759766 56.666016 57.932943 56.729167 58.099609 56.875 L 76.806641 72.958984 C 77.119141 73.229818 77.161458 73.582682 76.890625 73.916016 L 74.119141 77.125 C 73.827474 77.458333 73.453125 77.479818 73.140625 77.208984 L 66.015625 71.083984 C 65.703125 70.813151 65.348958 70.853516 65.078125 71.166016 L 60.287109 76.75 C 60.016269 77.0625 60.037109 77.438151 60.349609 77.708984 L 67.474609 83.833984 C 67.787103 84.104818 67.807943 84.457682 67.537109 84.791016 L 64.765625 88.021484 C 64.494792 88.333984 64.099609 88.374349 63.787109 88.103516 L 45.078125 72.021484 C 44.744798 71.729818 44.744792 71.375 45.015625 71.0625 L 47.787109 67.833984 C 48.057943 67.500651 48.432292 67.458333 48.765625 67.75 L 55.431641 73.478516 C 55.744141 73.749349 56.098307 73.708984 56.369141 73.396484 L 61.162109 67.8125 C 61.432949 67.5 61.412109 67.124349 61.099609 66.853516 L 54.431641 61.125 C 54.098314 60.833333 54.077474 60.499349 54.369141 60.166016 L 57.140625 56.958984 C 57.276042 56.792318 57.431641 56.697266 57.595703 56.681641 z M 223.28711 60.603516 L 222.64062 61.125 L 214.89062 65.75 C 214.68239 65.875 214.64128 66.063151 214.91211 66.333984 L 218.28711 69.603516 C 218.55795 69.874356 218.76581 69.833333 218.89062 69.625 L 223.28711 61.771484 L 223.80664 61.103516 L 223.28711 60.603516 z M 242.71484 72.492188 C 242.90207 72.51836 243.06445 72.638672 243.18164 72.837891 L 245.41211 76.484375 C 245.62044 76.838542 245.55664 77.192708 245.18164 77.421875 L 239.14062 81.109375 C 238.26576 81.630208 237.2858 82.087891 236.55664 82.275391 L 249.57812 83.837891 C 249.8073 83.879557 249.97412 84.005208 250.07812 84.171875 L 252.47461 88.130859 C 252.70377 88.505859 252.61914 88.839193 252.24414 89.068359 C 252.09831 89.151693 251.91145 89.235026 251.76562 89.193359 L 239.47461 87.462891 C 239.30794 87.462891 239.28714 87.463535 239.22461 87.484375 C 239.18301 87.526042 239.16214 87.587891 239.09961 87.712891 L 232.22461 102.81836 C 232.1621 102.96419 232.09896 103.04753 231.95312 103.13086 C 231.57826 103.36003 231.20247 103.27591 230.99414 102.92188 L 228.39062 98.650391 C 228.26582 98.400391 228.24492 98.089193 228.39062 97.818359 L 233.64062 87.212891 C 233.70302 87.108724 233.76624 86.901693 233.66211 86.755859 C 233.62044 86.672526 233.45306 86.629557 233.32812 86.587891 L 230.66211 86.255859 L 224.09961 90.234375 C 223.74544 90.442708 223.37044 90.360026 223.16211 90.005859 L 220.93164 86.359375 C 220.72331 86.005208 220.80795 85.630208 221.16211 85.421875 L 242.24414 72.609375 C 242.33789 72.552083 242.43034 72.514974 242.51953 72.498047 C 242.58643 72.485352 242.65244 72.483459 242.71484 72.492188 z M 256.98438 99.982422 C 257.25378 100.00684 257.45318 100.19727 257.54688 100.49414 L 262.17188 115.51562 C 262.29673 115.91146 262.1509 116.24414 261.73438 116.36914 L 258.13086 117.49414 C 257.73502 117.61914 257.40032 117.41146 257.27539 117.01562 L 254.31836 107.39062 C 254.19336 106.9741 253.86003 106.80664 253.44336 106.93164 L 249.85938 108.03711 C 249.46348 108.16211 249.29694 108.49544 249.42188 108.91211 L 251.85938 116.80664 C 251.98423 117.22331 251.79753 117.53711 251.38086 117.66211 L 247.79688 118.76562 C 247.40104 118.89062 247.08782 118.72331 246.96289 118.30664 L 244.52539 110.41211 C 244.40039 109.99544 244.04623 109.82827 243.65039 109.95312 L 239.88086 111.11914 C 239.48506 111.24414 239.29694 111.57747 239.42188 111.99414 L 242.38086 121.61914 C 242.50586 122.01497 242.36003 122.34961 241.94336 122.47461 L 238.35938 123.57812 C 237.94271 123.70312 237.60917 123.51497 237.48438 123.11914 L 232.85938 108.09961 C 232.73438 107.70378 232.90169 107.34961 233.31836 107.22461 L 256.69336 100.01562 C 256.79753 99.984445 256.89453 99.974284 256.98438 99.982422 z M 41.53125 101.29688 C 42.098957 101.33854 43.541016 106.10872 43.978516 106.47852 C 44.421224 106.84831 49.369142 107.45833 49.509766 108.01562 C 49.645183 108.56771 45.551432 111.41601 45.337891 111.94727 C 45.119133 112.47851 46.072264 117.37565 45.587891 117.67773 C 45.098307 117.97982 41.124365 114.96937 40.556641 114.92773 C 39.983723 114.88607 35.619142 117.30143 35.181641 116.93164 C 34.744141 116.56706 36.384766 111.85417 36.244141 111.29688 C 36.108725 110.73958 32.458984 107.34375 32.677734 106.8125 C 32.891276 106.28125 37.875652 106.38542 38.365234 106.07812 C 38.849609 105.77604 40.958331 101.25521 41.53125 101.29688 z M 258.24609 126.87891 C 261.65896 127.04523 264.93945 130.18164 265.29102 135.25977 C 265.58268 139.50977 263.85417 142.78191 260.6875 144.17773 C 260.25001 144.30277 260.20892 144.32227 260.08398 144.32227 C 259.89648 144.34309 259.72982 144.25977 259.64648 144.00977 L 258.0625 140.44727 C 258.02077 140.34309 257.99932 140.26038 257.97852 140.15625 C 257.95769 139.90625 258.12566 139.6569 258.39648 139.49023 C 259.66732 138.80273 260.37493 137.44727 260.25 135.69727 C 260.125 133.75976 258.97851 132.7194 257.66602 132.80273 C 256.37435 132.88607 255.60417 134.00977 254.6875 137.38477 C 253.27083 142.8431 250.74936 145.46875 247.22852 145.71875 C 242.41602 146.03126 239.10481 142.86394 238.70898 137.13477 C 238.39648 132.48894 240.18685 128.88477 243.47852 127.63477 C 243.89518 127.4681 243.95837 127.46875 244.0625 127.46875 C 244.25001 127.44792 244.43815 127.55208 244.52148 127.78125 L 246.25 131.53125 C 246.29173 131.63542 246.31318 131.73893 246.33398 131.82227 C 246.35481 132.07227 246.18684 132.32292 245.91602 132.46875 C 244.56184 133.21875 243.79167 134.55273 243.9375 136.80273 C 244.08334 138.88607 245.20833 139.88538 246.625 139.78125 C 247.91667 139.69792 248.91667 138.7181 249.75 135.25977 C 251.125 129.67643 253.60417 127.1556 257.5625 126.88477 C 257.79036 126.86914 258.01857 126.86782 258.24609 126.87891 z M 46.71875 138.95312 C 46.864585 138.93235 47.031908 139.09831 47.052734 139.30664 L 47.322266 144.49414 C 47.343098 144.80665 47.261068 145.01628 47.052734 145.16211 L 41.28125 148.45312 C 40.739583 148.70312 39.009766 149.57877 38.384766 149.84961 L 38.384766 149.97461 C 39.968099 149.7871 41.114585 150.24413 43.84375 151.30664 L 47.46875 152.95312 C 47.697918 153.0573 47.801426 153.30735 47.822266 153.57812 L 48.115234 159.01562 C 48.115234 159.22396 47.927082 159.36988 47.78125 159.39062 C 47.677082 159.39062 47.552728 159.37041 47.490234 159.34961 L 34.759766 153.18164 C 34.6556 153.14004 34.552082 153.07814 34.40625 153.07812 C 34.260415 153.09896 34.177734 153.18234 34.052734 153.26562 L 22.71875 160.45312 C 22.59375 160.55726 22.531908 160.55664 22.427734 160.55664 C 22.219401 160.57747 22.11459 160.39128 22.09375 160.09961 L 21.802734 154.82812 C 21.781902 154.39068 21.96875 154.20247 22.21875 154.05664 L 28.072266 150.82812 C 28.593098 150.55735 30.031902 149.76498 30.677734 149.49414 L 30.65625 149.36914 C 29.510415 149.43165 27.59375 148.86913 25.46875 147.93164 L 21.802734 146.28711 C 21.531902 146.16211 21.323574 145.97462 21.302734 145.53711 L 21.03125 140.32812 C 21.010415 140.01568 21.113932 139.87041 21.322266 139.84961 C 21.426431 139.84961 21.552077 139.89004 21.65625 139.93164 L 34.509766 146.18164 C 34.6556 146.26497 34.780606 146.26562 34.884766 146.26562 C 35.009766 146.26563 35.11459 146.22396 35.21875 146.14062 L 46.427734 139.01562 C 46.490236 138.97394 46.59375 138.95312 46.71875 138.95312 z M 239.99023 151.19336 L 264.15625 155.02539 C 264.57292 155.0879 264.78128 155.40169 264.71875 155.81836 L 263.21875 165.21289 C 262.36459 170.65038 258.96874 172.88086 254.15625 172.13086 L 253.55273 172.02539 C 249.53191 171.40039 246.15625 168.08919 247.03125 162.63086 L 247.61523 158.81836 C 247.69857 158.40169 247.48893 158.10925 247.07227 158.04688 L 239.11523 156.77539 C 238.69857 156.7129 238.46872 156.40088 238.53125 155.98438 L 239.19727 151.77539 C 239.25976 151.35872 239.57357 151.13083 239.99023 151.19336 z M 253.46875 159.04688 C 253.03126 158.98437 252.73958 159.19271 252.65625 159.60938 L 252.05273 163.54688 C 251.80273 165.10921 252.67773 166.48502 254.36523 166.75586 L 254.92773 166.83789 C 256.61524 167.10872 257.90625 166.06835 258.15625 164.50586 L 258.75977 160.56836 C 258.8431 160.15169 258.63476 159.85925 258.19727 159.79688 L 253.46875 159.04688 z M 48.724609 164.36328 C 48.994141 164.37305 49.193359 164.55273 49.287109 164.84961 L 50.640625 168.89062 C 50.765625 169.28645 50.619792 169.64128 50.203125 169.78711 L 41.849609 172.53711 C 41.453783 172.66211 41.306641 172.974 41.431641 173.39062 L 43.724609 180.34961 C 43.849609 180.74541 44.160807 180.93157 44.556641 180.80664 L 52.912109 178.05664 C 53.328776 177.9108 53.641276 178.05794 53.787109 178.47461 L 55.119141 182.51562 C 55.244141 182.91145 55.098307 183.24483 54.681641 183.39062 L 31.244141 191.09961 C 30.848307 191.22461 30.515625 191.05795 30.390625 190.66211 L 29.056641 186.61914 C 28.910807 186.20247 29.078776 185.89056 29.474609 185.76562 L 38.412109 182.82812 C 38.807936 182.68234 38.953125 182.34896 38.828125 181.95312 L 36.537109 174.99414 C 36.412109 174.57745 36.098958 174.4108 35.703125 174.55664 L 26.765625 177.49414 C 26.369792 177.61914 26.037109 177.43295 25.912109 177.03711 L 24.556641 172.99414 C 24.431641 172.59831 24.598307 172.24407 24.994141 172.11914 L 48.431641 164.41211 C 48.535807 164.37565 48.634766 164.36003 48.724609 164.36328 z M 236.45898 169.72461 C 236.49967 169.71941 236.54232 169.7246 236.58398 169.74023 C 236.68814 169.7819 236.83337 169.90622 236.9375 169.96875 C 236.97917 170.01042 257.16602 186.28125 257.16602 186.28125 C 257.37438 186.46874 257.43743 186.76107 257.3125 187.05273 L 255 192.67773 C 254.875 192.96947 254.64518 193.13535 254.35352 193.09375 L 228.33398 190.36523 C 228.20894 190.3235 228.16605 190.30205 228.10352 190.28125 C 227.93685 190.21874 227.89587 190.07292 228 189.78125 L 229.89648 185.17773 C 230.00066 184.9694 230.14648 184.86397 230.33398 184.88477 L 234 185.38477 C 234.20833 185.38477 234.29235 185.32357 234.39648 185.05273 L 237.35352 177.88477 C 237.47848 177.5931 237.45768 177.49017 237.29102 177.36523 L 234.35352 175.13477 C 234.20778 175.00977 234.16667 174.8431 234.25 174.63477 L 236.14648 170.05273 C 236.22461 169.84956 236.33691 169.74021 236.45898 169.72461 z M 241.80273 180.91797 C 241.69832 180.93573 241.60352 181.03125 241.52148 181.21875 L 239.72852 185.57227 C 239.58269 185.92643 239.6875 186.09372 239.9375 186.15625 L 248.83398 187.32227 L 249.64648 187.53125 L 249.91602 186.88477 L 249.1875 186.46875 L 242.0625 181.00977 C 242.01042 180.9681 241.95931 180.9401 241.91016 180.92578 C 241.87329 180.91504 241.83754 180.91205 241.80273 180.91797 z M 61.195312 193.80859 C 61.393555 193.82129 61.578125 193.94336 61.703125 194.14648 L 65.056641 199.20898 C 65.244141 199.47981 65.244141 199.77018 65.056641 199.97852 L 48.224609 220 C 48.141276 220.12507 48.098307 220.14522 48.056641 220.16602 C 47.889974 220.27018 47.744141 220.22981 47.556641 219.95898 L 44.806641 215.8125 C 44.681647 215.62501 44.682292 215.43684 44.828125 215.29102 L 47.265625 212.54102 C 47.411458 212.37435 47.391276 212.25066 47.224609 212.02148 L 42.931641 205.5625 C 42.764974 205.2917 42.703776 205.24997 42.474609 205.3125 L 38.994141 206.5 C 38.806641 206.54167 38.640625 206.50001 38.515625 206.3125 L 35.787109 202.1875 C 35.599609 201.91667 35.620443 201.75062 35.787109 201.64648 C 35.870443 201.60475 36.036452 201.52012 36.140625 201.47852 C 36.203125 201.45769 60.994141 193.83398 60.994141 193.83398 C 61.061849 193.81315 61.129235 193.80436 61.195312 193.80859 z M 227.16992 195.76562 C 228.53381 195.83862 229.90821 196.40625 231.27539 197.42188 L 241.00586 204.65039 C 244.52669 207.27539 245.19252 211.23502 241.92188 215.63086 L 240.19336 217.96289 C 237.79753 221.19198 234.37956 222.37956 231.21289 221.15039 C 230.79622 221.00452 230.75452 220.96292 230.65039 220.90039 C 230.50466 220.77539 230.44206 220.61002 230.52539 220.38086 L 231.65039 216.65039 C 231.67119 216.54623 231.71286 216.44253 231.77539 216.35938 C 231.92123 216.17184 232.23502 216.04626 232.50586 216.15039 C 233.92253 216.65039 235.08789 216.25456 236.08789 214.90039 L 237.81836 212.56836 C 238.77669 211.27669 238.38003 209.7142 237.17188 208.81836 L 228.40039 202.31836 C 227.12956 201.36003 225.60872 201.50456 224.65039 202.77539 L 222.92188 205.10938 C 221.92188 206.46337 221.90104 207.65039 222.73438 208.90039 C 222.94249 209.15039 222.90169 209.4629 222.75586 209.65039 C 222.69335 209.73372 222.60872 209.79753 222.52539 209.88086 L 219.27539 212.00586 C 219.06706 212.15159 218.85913 212.12952 218.73438 212.02539 C 218.63022 211.9629 218.42169 211.79753 218.17188 211.44336 C 216.08854 208.77669 216.42122 205.29669 218.83789 202.04688 L 220.54688 199.73438 C 222.65607 196.89583 224.89677 195.64414 227.16992 195.76562 z M 57.453125 200.1875 L 56.681641 200.54102 L 48.162109 203.39648 C 47.912109 203.50066 47.828776 203.66602 48.037109 203.97852 L 50.640625 207.89648 C 50.848958 208.20899 51.056641 208.22851 51.244141 208.04102 L 57.181641 201.3125 L 57.828125 200.77148 L 57.453125 200.1875 z M 74.117188 210.42969 C 74.281248 210.43229 74.442057 210.51042 74.587891 210.65625 L 77.630859 213.65625 C 77.922533 213.94792 77.962891 214.30273 77.650391 214.61523 L 60.337891 232.17773 C 60.046224 232.4902 59.651042 232.48893 59.359375 232.19727 L 56.318359 229.19727 C 56.026693 228.9056 56.026693 228.53126 56.318359 228.21875 L 73.630859 210.65625 C 73.787109 210.5 73.953125 210.42708 74.117188 210.42969 z M 210.61719 212.54492 C 210.78646 212.56315 210.94856 212.6556 211.08398 212.82227 L 226.60352 231.74023 C 226.87442 232.05273 226.81185 232.42643 226.47852 232.69727 L 214.33398 242.65625 C 214.00065 242.92708 213.64583 242.88476 213.375 242.57227 L 210.97852 239.65625 C 210.72848 239.34374 210.75065 238.94857 211.08398 238.67773 L 218.875 232.28125 C 219.20833 232.01041 219.25065 231.67708 218.95898 231.34375 L 216.58398 228.44727 C 216.33398 228.114 215.95833 228.05143 215.625 228.32227 L 209.22852 233.57227 C 208.89518 233.86393 208.54167 233.82357 208.25 233.49023 L 205.875 230.59375 C 205.62497 230.26042 205.64518 229.9069 205.97852 229.61523 L 212.375 224.36523 C 212.70833 224.09439 212.72981 223.74024 212.45898 223.42773 L 209.95898 220.36523 C 209.68814 220.03197 209.33333 219.96939 209 220.24023 L 201.20898 226.63477 C 200.87565 226.90561 200.49936 226.88607 200.22852 226.55273 L 197.85352 223.65625 C 197.58265 223.32292 197.62565 222.94857 197.95898 222.67773 L 210.10352 212.71875 C 210.27018 212.58332 210.44792 212.5267 210.61719 212.54492 z M 84.25 220.15039 C 84.416667 220.11914 84.598307 220.16081 84.775391 220.27539 L 88.109375 222.38086 C 88.338542 222.50586 88.462891 222.7129 88.462891 222.90039 L 87.818359 238.96289 C 87.818359 239.92122 87.671224 241.13021 87.587891 241.42188 L 87.712891 241.48438 C 88.358724 239.63022 89.817708 236.73372 91.046875 234.77539 L 95.443359 227.79688 C 95.672526 227.4427 96.025391 227.35872 96.400391 227.58789 L 99.984375 229.85938 C 100.35937 230.08854 100.42253 230.4427 100.19336 230.79688 L 87.046875 251.67188 C 86.817708 252.02602 86.462891 252.11002 86.087891 251.88086 L 82.796875 249.79688 C 82.567715 249.65104 82.462891 249.50456 82.462891 249.21289 L 82.734375 233.54688 C 82.776042 232.54688 82.921224 231.67122 82.962891 231.58789 L 82.818359 231.50586 C 82.485026 232.65169 81.233724 235.17123 79.837891 237.40039 L 75.462891 244.35938 C 75.233724 244.71354 74.860026 244.79753 74.505859 244.56836 L 70.880859 242.29688 C 70.526693 242.0677 70.442708 241.69205 70.671875 241.33789 L 83.818359 220.46289 C 83.932943 220.2858 84.083333 220.18164 84.25 220.15039 z M 167.11914 229.61523 C 164.40039 230.36002 161.63476 230.97461 158.82227 231.45898 L 158.82227 246.96289 L 159.16211 247.30273 L 166.78125 247.30273 L 167.11914 246.96289 L 167.11914 229.61523 z M 133.94336 232.23438 L 133.94336 235.67188 C 135.30273 235.05729 136.75456 234.85938 138.08789 234.85938 C 139.42122 234.85938 140.875 235.05729 142.23438 235.67188 L 142.23438 232.74414 C 139.43751 232.70254 136.67253 232.53106 133.94336 232.23438 z "
       style="fill:#000006;fill-opacity:1;fill-rule:nonzero;stroke:none;stroke-width:1.33333337" />
    <path
       id="path46"
       transform="scale(0.75)"
       d="M 88.322266 89.435547 A 4.4240451 4.4240451 0 0 0 85.195312 90.732422 L 68.607422 107.32031 A 4.4240451 4.4240451 0 0 0 67.310547 110.44727 L 67.310547 143.625 A 4.4244793 4.4244793 0 0 0 76.158203 143.625 L 76.158203 112.28125 L 90.15625 98.283203 L 127.03125 98.283203 A 4.4244793 4.4244793 0 0 0 127.03125 89.435547 L 88.322266 89.435547 z M 127.03125 91.09375 C 128.55729 91.09375 129.79102 92.333334 129.79102 93.859375 C 129.79102 95.385416 128.55729 96.625 127.03125 96.625 C 125.5 96.625 124.26564 95.385416 124.26562 93.859375 C 124.26562 92.333334 125.5 91.09375 127.03125 91.09375 z M 71.734375 140.85938 C 73.260416 140.85938 74.5 142.09896 74.5 143.625 C 74.5 145.15104 73.260416 146.39062 71.734375 146.39062 C 70.208334 146.39062 68.96875 145.15104 68.96875 143.625 C 68.96875 142.09896 70.208334 140.85938 71.734375 140.85938 z "
       style="color:#000000;font-style:normal;font-variant:normal;font-weight:normal;font-stretch:normal;font-size:medium;line-height:normal;font-family:sans-serif;font-variant-ligatures:normal;font-variant-position:normal;font-variant-caps:normal;font-variant-numeric:normal;font-variant-alternates:normal;font-feature-settings:normal;text-indent:0;text-align:start;text-decoration:none;text-decoration-line:none;text-decoration-style:solid;text-decoration-color:#000000;letter-spacing:normal;word-spacing:normal;text-transform:none;writing-mode:lr-tb;direction:ltr;text-orientation:mixed;dominant-baseline:auto;baseline-shift:baseline;text-anchor:start;white-space:normal;shape-padding:0;clip-rule:nonzero;display:inline;overflow:visible;visibility:visible;opacity:1;isolation:auto;mix-blend-mode:normal;color-interpolation:sRGB;color-interpolation-filters:linearRGB;solid-color:#000000;solid-opacity:1;vector-effect:none;fill:#000000;fill-opacity:1;fill-rule:nonzero;stroke:none;stroke-width:8.84720516;stroke-linecap:round;stroke-linejoin:round;stroke-miterlimit:4;stroke-dasharray:none;stroke-dashoffset:0;stroke-opacity:1;color-rendering:auto;image-rendering:auto;shape-rendering:auto;text-rendering:auto;enable-background:accumulate" />
    <path
       id="path48"
       transform="scale(0.75)"
       d="M 82.724609 111.49219 A 4.4240451 4.4240451 0 0 0 78.367188 115.97852 L 78.367188 149.15625 A 4.4240451 4.4240451 0 0 0 79.664062 152.2832 L 90.726562 163.3418 A 4.4240451 4.4240451 0 0 0 93.853516 164.63867 L 121.5 164.63867 A 4.424805 4.424805 0 1 0 121.5 155.78906 L 95.685547 155.78906 L 87.216797 147.32227 L 87.216797 115.97852 A 4.4240451 4.4240451 0 0 0 82.724609 111.49219 z M 82.791016 113.21289 C 84.317057 113.21289 85.556641 114.44727 85.556641 115.97852 C 85.556641 117.50456 84.317057 118.74023 82.791016 118.74023 C 81.264974 118.74023 80.025391 117.50456 80.025391 115.97852 C 80.025391 114.44727 81.264974 113.21289 82.791016 113.21289 z M 121.5 157.44727 C 123.02604 157.44727 124.26562 158.68685 124.26562 160.21289 C 124.26562 161.73893 123.02604 162.97852 121.5 162.97852 C 119.97396 162.97852 118.73437 161.73893 118.73438 160.21289 C 118.73438 158.68685 119.97396 157.44727 121.5 157.44727 z "
       style="color:#000000;font-style:normal;font-variant:normal;font-weight:normal;font-stretch:normal;font-size:medium;line-height:normal;font-family:sans-serif;font-variant-ligatures:normal;font-variant-position:normal;font-variant-caps:normal;font-variant-numeric:normal;font-variant-alternates:normal;font-feature-settings:normal;text-indent:0;text-align:start;text-decoration:none;text-decoration-line:none;text-decoration-style:solid;text-decoration-color:#000000;letter-spacing:normal;word-spacing:normal;text-transform:none;writing-mode:lr-tb;direction:ltr;text-orientation:mixed;dominant-baseline:auto;baseline-shift:baseline;text-anchor:start;white-space:normal;shape-padding:0;clip-rule:nonzero;display:inline;overflow:visible;visibility:visible;opacity:1;isolation:auto;mix-blend-mode:normal;color-interpolation:sRGB;color-interpolation-filters:linearRGB;solid-color:#000000;solid-opacity:1;vector-effect:none;fill:#000000;fill-opacity:1;fill-rule:nonzero;stroke:none;stroke-width:8.84720516;stroke-linecap:round;stroke-linejoin:round;stroke-miterlimit:4;stroke-dasharray:none;stroke-dashoffset:0;stroke-opacity:1;color-rendering:auto;image-rendering:auto;shape-rendering:auto;text-rendering:auto;enable-background:accumulate" />
    <path
       id="path50"
       transform="scale(0.75)"
       d="M 149.06055 83.861328 A 4.4240451 4.4240451 0 0 0 146.01758 85.201172 L 130.72461 100.49219 L 93.853516 100.49219 A 4.4240451 4.4240451 0 0 0 90.726562 101.78906 L 87.960938 104.55469 A 4.4240451 4.4240451 0 1 0 94.216797 110.81055 L 95.6875 109.3418 L 132.55664 109.3418 A 4.4240451 4.4240451 0 0 0 135.68555 108.04492 L 152.27344 91.455078 A 4.4240451 4.4240451 0 0 0 149.06055 83.861328 z M 149.14648 85.5625 C 150.67252 85.5625 151.91211 86.802082 151.91211 88.328125 C 151.91211 89.854166 150.67252 91.09375 149.14648 91.09375 C 147.62043 91.09375 146.38086 89.854166 146.38086 88.328125 C 146.38086 86.802082 147.62043 85.5625 149.14648 85.5625 z M 91.087891 104.91602 C 92.613933 104.91602 93.853516 106.1556 93.853516 107.68164 C 93.853516 109.20768 92.613933 110.44727 91.087891 110.44727 C 89.561849 110.44727 88.322266 109.20768 88.322266 107.68164 C 88.322266 106.1556 89.561849 104.91602 91.087891 104.91602 z "
       style="color:#000000;font-style:normal;font-variant:normal;font-weight:normal;font-stretch:normal;font-size:medium;line-height:normal;font-family:sans-serif;font-variant-ligatures:normal;font-variant-position:normal;font-variant-caps:normal;font-variant-numeric:normal;font-variant-alternates:normal;font-feature-settings:normal;text-indent:0;text-align:start;text-decoration:none;text-decoration-line:none;text-decoration-style:solid;text-decoration-color:#000000;letter-spacing:normal;word-spacing:normal;text-transform:none;writing-mode:lr-tb;direction:ltr;text-orientation:mixed;dominant-baseline:auto;baseline-shift:baseline;text-anchor:start;white-space:normal;shape-padding:0;clip-rule:nonzero;display:inline;overflow:visible;visibility:visible;opacity:1;isolation:auto;mix-blend-mode:normal;color-interpolation:sRGB;color-interpolation-filters:linearRGB;solid-color:#000000;solid-opacity:1;vector-effect:none;fill:#000000;fill-opacity:1;fill-rule:nonzero;stroke:none;stroke-width:8.84720516;stroke-linecap:round;stroke-linejoin:round;stroke-miterlimit:4;stroke-dasharray:none;stroke-dashoffset:0;stroke-opacity:1;color-rendering:auto;image-rendering:auto;shape-rendering:auto;text-rendering:auto;enable-background:accumulate" />
    <path
       id="path52"
       transform="scale(0.75)"
       d="M 140.78711 108.72656 A 4.4240451 4.4240451 0 0 0 136.42969 113.21289 L 136.42969 122.61133 L 131.45508 122.61133 L 131.45508 115.97852 A 4.4240451 4.4240451 0 0 0 127.03125 111.55469 L 102.14648 111.55469 A 4.4240451 4.4240451 0 0 0 99.017578 112.85156 L 90.726562 121.14258 A 4.4240451 4.4240451 0 0 0 89.429688 124.27148 L 89.429688 143.625 A 4.4240451 4.4240451 0 0 0 90.724609 146.75195 L 96.25 152.2832 A 4.4240451 4.4240451 0 0 0 99.380859 153.58008 L 125.19727 153.58008 L 133.66406 162.04688 L 133.66406 176.80273 A 4.424805 4.424805 0 1 0 142.51367 176.80273 L 142.51367 160.21289 A 4.4240451 4.4240451 0 0 0 141.2168 157.08594 L 130.1582 146.0293 A 4.4240451 4.4240451 0 0 0 127.03125 144.73242 L 101.21289 144.73242 L 98.279297 141.79492 L 98.279297 126.10352 L 103.97852 120.4043 L 122.60742 120.4043 L 122.60742 127.16602 L 122.60742 138.09375 A 4.4244793 4.4244793 0 1 0 131.45508 138.09375 L 131.45508 131.46094 L 136.42969 131.46094 L 136.42969 146.39062 A 4.424805 4.424805 0 0 0 145.2793 146.39062 L 145.2793 113.21289 A 4.4240451 4.4240451 0 0 0 140.78711 108.72656 z M 140.85352 110.44727 C 142.37956 110.44727 143.61914 111.68685 143.61914 113.21289 C 143.61914 114.73893 142.37956 115.97852 140.85352 115.97852 C 139.32746 115.97852 138.08789 114.73893 138.08789 113.21289 C 138.08789 111.68685 139.32746 110.44727 140.85352 110.44727 z M 127.03125 113.21289 C 128.55729 113.21289 129.79102 114.44727 129.79102 115.97852 C 129.79102 117.50456 128.55729 118.74023 127.03125 118.74023 C 125.5 118.74023 124.26564 117.50456 124.26562 115.97852 C 124.26562 114.44727 125.5 113.21289 127.03125 113.21289 z M 127.03125 135.32812 C 128.55729 135.32812 129.79102 136.56771 129.79102 138.09375 C 129.79102 139.61979 128.55729 140.85937 127.03125 140.85938 C 125.5 140.85938 124.26564 139.61979 124.26562 138.09375 C 124.26562 136.56771 125.5 135.32812 127.03125 135.32812 z M 140.85352 143.625 C 142.37956 143.625 143.61914 144.86462 143.61914 146.39062 C 143.61914 147.91666 142.37956 149.15625 140.85352 149.15625 C 139.32746 149.15625 138.08789 147.91666 138.08789 146.39062 C 138.08789 144.86462 139.32746 143.625 140.85352 143.625 z M 138.08789 174.03711 C 139.61393 174.03711 140.85352 175.27669 140.85352 176.80273 C 140.85352 178.32877 139.61393 179.56836 138.08789 179.56836 C 136.56185 179.56836 135.32227 178.32877 135.32227 176.80273 C 135.32227 175.27669 136.56185 174.03711 138.08789 174.03711 z "
       style="color:#000000;font-style:normal;font-variant:normal;font-weight:normal;font-stretch:normal;font-size:medium;line-height:normal;font-family:sans-serif;font-variant-ligatures:normal;font-variant-position:normal;font-variant-caps:normal;font-variant-numeric:normal;font-variant-alternates:normal;font-feature-settings:normal;text-indent:0;text-align:start;text-decoration:none;text-decoration-line:none;text-decoration-style:solid;text-decoration-color:#000000;letter-spacing:normal;word-spacing:normal;text-transform:none;writing-mode:lr-tb;direction:ltr;text-orientation:mixed;dominant-baseline:auto;baseline-shift:baseline;text-anchor:start;white-space:normal;shape-padding:0;clip-rule:nonzero;display:inline;overflow:visible;visibility:visible;opacity:1;isolation:auto;mix-blend-mode:normal;color-interpolation:sRGB;color-interpolation-filters:linearRGB;solid-color:#000000;solid-opacity:1;vector-effect:none;fill:#000000;fill-opacity:1;fill-rule:nonzero;stroke:none;stroke-width:8.84720516;stroke-linecap:round;stroke-linejoin:round;stroke-miterlimit:4;stroke-dasharray:none;stroke-dashoffset:0;stroke-opacity:1;color-rendering:auto;image-rendering:auto;shape-rendering:auto;text-rendering:auto;enable-background:accumulate" />
    <path
       style="fill:#000000;fill-opacity:1;fill-rule:nonzero;stroke:none"
       d="m 116.00781,186.51562 2.07422,2.07032 h 8.29297 l 2.07422,-2.07032 v -26.95703 l -2.07422,-2.07422 h -2.07422 v -29.03125 l -2.07422,-2.07421 -2.07031,2.07421 v 29.03125 h -2.07422 l -2.07422,2.07422 z M 98.382812,126.37891 H 93.199219 L 91.125,128.45312 v 14.51563 l 2.074219,2.07422 4.144531,2.07422 v 39.39843 l 2.074219,2.07032 h 8.296871 l 2.07032,-2.07032 v -39.39843 l 4.14843,-2.07422 2.07422,-2.07422 v -14.51563 l -2.07422,-2.07421 H 108.75 v 11.40625 l -5.18359,2.07421 -5.183598,-2.07421 z m 5.183598,52.8789 c 2.28906,0 3.10937,0.82031 3.10937,3.10938 0,2.28906 -0.82031,3.10937 -3.10937,3.10937 -2.28907,0 -3.10938,-0.82031 -3.10938,-3.10937 0,-2.28907 0.82031,-3.10938 3.10938,-3.10938 z m 0,0"
       id="path54"
       inkscape:connector-curvature="0" />
    <path
       id="path56"
       transform="scale(0.75)"
       d="M 159.96289 83.904297 A 4.4244793 4.4244793 0 1 0 159.96289 92.751953 L 196.83398 92.751953 L 199.77344 95.693359 L 199.77344 103.08398 L 196.83398 106.02344 L 165.73438 106.02344 A 4.424805 4.424805 0 1 0 165.73438 114.87305 L 198.66602 114.87305 A 4.4240451 4.4240451 0 0 0 201.79492 113.57617 L 207.32617 108.04492 A 4.4240451 4.4240451 0 0 0 208.62305 104.91602 L 208.62305 93.859375 A 4.4240451 4.4240451 0 0 0 207.32617 90.732422 L 201.79492 85.201172 A 4.4240451 4.4240451 0 0 0 198.66602 83.904297 L 159.96289 83.904297 z M 160.20898 85.5625 C 161.73502 85.5625 162.96875 86.802082 162.96875 88.328125 C 162.96875 89.854166 161.73502 91.09375 160.20898 91.09375 C 158.67773 91.09375 157.44336 89.854166 157.44336 88.328125 C 157.44336 86.802082 158.67773 85.5625 160.20898 85.5625 z M 165.73438 107.68164 C 167.26041 107.68164 168.5 108.92122 168.5 110.44727 C 168.5 111.97331 167.26041 113.21289 165.73438 113.21289 C 164.20834 113.21289 162.96875 111.97331 162.96875 110.44727 C 162.96875 108.92122 164.20834 107.68164 165.73438 107.68164 z "
       style="color:#000000;font-style:normal;font-variant:normal;font-weight:normal;font-stretch:normal;font-size:medium;line-height:normal;font-family:sans-serif;font-variant-ligatures:normal;font-variant-position:normal;font-variant-caps:normal;font-variant-numeric:normal;font-variant-alternates:normal;font-feature-settings:normal;text-indent:0;text-align:start;text-decoration:none;text-decoration-line:none;text-decoration-style:solid;text-decoration-color:#000000;letter-spacing:normal;word-spacing:normal;text-transform:none;writing-mode:lr-tb;direction:ltr;text-orientation:mixed;dominant-baseline:auto;baseline-shift:baseline;text-anchor:start;white-space:normal;shape-padding:0;clip-rule:nonzero;display:inline;overflow:visible;visibility:visible;opacity:1;isolation:auto;mix-blend-mode:normal;color-interpolation:sRGB;color-interpolation-filters:linearRGB;solid-color:#000000;solid-opacity:1;vector-effect:none;fill:#000000;fill-opacity:1;fill-rule:nonzero;stroke:none;stroke-width:8.84720516;stroke-linecap:round;stroke-linejoin:round;stroke-miterlimit:4;stroke-dasharray:none;stroke-dashoffset:0;stroke-opacity:1;color-rendering:auto;image-rendering:auto;shape-rendering:auto;text-rendering:auto;enable-background:accumulate" />
    <path
       id="path58"
       transform="scale(0.75)"
       d="M 187.78711 144.66992 A 4.4240451 4.4240451 0 0 0 183.42969 149.15625 L 183.42969 152.85156 L 173.66992 162.61719 A 4.4240451 4.4240451 0 0 0 172.37305 165.74414 L 172.37305 171.27148 A 4.42448 4.42448 0 1 0 181.2207 171.27148 L 181.2207 167.57617 L 190.98242 157.81055 A 4.4240451 4.4240451 0 0 0 192.2793 154.68164 L 192.2793 149.15625 A 4.4240451 4.4240451 0 0 0 187.78711 144.66992 z M 187.85352 146.39062 C 189.37957 146.39062 190.61914 147.625 190.61914 149.15625 C 190.61914 150.68229 189.37957 151.91602 187.85352 151.91602 C 186.32748 151.91602 185.08789 150.68229 185.08789 149.15625 C 185.08789 147.625 186.32748 146.39063 187.85352 146.39062 z M 176.79688 168.50586 C 178.32291 168.50586 179.55664 169.74544 179.55664 171.27148 C 179.55664 172.79754 178.32291 174.03711 176.79688 174.03711 C 175.26562 174.03711 174.03125 172.79754 174.03125 171.27148 C 174.03125 169.74544 175.26562 168.50586 176.79688 168.50586 z "
       style="color:#000000;font-style:normal;font-variant:normal;font-weight:normal;font-stretch:normal;font-size:medium;line-height:normal;font-family:sans-serif;font-variant-ligatures:normal;font-variant-position:normal;font-variant-caps:normal;font-variant-numeric:normal;font-variant-alternates:normal;font-feature-settings:normal;text-indent:0;text-align:start;text-decoration:none;text-decoration-line:none;text-decoration-style:solid;text-decoration-color:#000000;letter-spacing:normal;word-spacing:normal;text-transform:none;writing-mode:lr-tb;direction:ltr;text-orientation:mixed;dominant-baseline:auto;baseline-shift:baseline;text-anchor:start;white-space:normal;shape-padding:0;clip-rule:nonzero;display:inline;overflow:visible;visibility:visible;opacity:1;isolation:auto;mix-blend-mode:normal;color-interpolation:sRGB;color-interpolation-filters:linearRGB;solid-color:#000000;solid-opacity:1;vector-effect:none;fill:#000000;fill-opacity:1;fill-rule:nonzero;stroke:none;stroke-width:8.84720516;stroke-linecap:round;stroke-linejoin:round;stroke-miterlimit:4;stroke-dasharray:none;stroke-dashoffset:0;stroke-opacity:1;color-rendering:auto;image-rendering:auto;shape-rendering:auto;text-rendering:auto;enable-background:accumulate" />
    <path
       id="path60"
       transform="scale(0.75)"
       d="M 185.08789 117.08008 A 4.4240451 4.4240451 0 0 0 180.66406 121.50586 L 180.66406 138.09375 A 4.424805 4.424805 0 0 0 189.51367 138.09375 L 189.51367 125.92969 L 194.48633 125.92969 L 194.48633 149.15625 A 4.424805 4.424805 0 1 0 203.33594 149.15625 L 203.33594 121.50586 A 4.4240451 4.4240451 0 0 0 198.91211 117.08008 L 185.08789 117.08008 z M 185.08789 135.32812 C 186.61393 135.32812 187.85352 136.56771 187.85352 138.09375 C 187.85352 139.61979 186.61393 140.85937 185.08789 140.85938 C 183.56184 140.85938 182.32227 139.61979 182.32227 138.09375 C 182.32227 136.56771 183.56184 135.32812 185.08789 135.32812 z M 198.91211 146.39062 C 200.43815 146.39062 201.67773 147.625 201.67773 149.15625 C 201.67773 150.68229 200.43815 151.91602 198.91211 151.91602 C 197.38607 151.91602 196.14648 150.68229 196.14648 149.15625 C 196.14648 147.625 197.38607 146.39063 198.91211 146.39062 z "
       style="color:#000000;font-style:normal;font-variant:normal;font-weight:normal;font-stretch:normal;font-size:medium;line-height:normal;font-family:sans-serif;font-variant-ligatures:normal;font-variant-position:normal;font-variant-caps:normal;font-variant-numeric:normal;font-variant-alternates:normal;font-feature-settings:normal;text-indent:0;text-align:start;text-decoration:none;text-decoration-line:none;text-decoration-style:solid;text-decoration-color:#000000;letter-spacing:normal;word-spacing:normal;text-transform:none;writing-mode:lr-tb;direction:ltr;text-orientation:mixed;dominant-baseline:auto;baseline-shift:baseline;text-anchor:start;white-space:normal;shape-padding:0;clip-rule:nonzero;display:inline;overflow:visible;visibility:visible;opacity:1;isolation:auto;mix-blend-mode:normal;color-interpolation:sRGB;color-interpolation-filters:linearRGB;solid-color:#000000;solid-opacity:1;vector-effect:none;fill:#000000;fill-opacity:1;fill-rule:nonzero;stroke:none;stroke-width:8.84720516;stroke-linecap:round;stroke-linejoin:round;stroke-miterlimit:4;stroke-dasharray:none;stroke-dashoffset:0;stroke-opacity:1;color-rendering:auto;image-rendering:auto;shape-rendering:auto;text-rendering:auto;enable-background:accumulate" />
    <path
       id="path62"
       transform="scale(0.75)"
       d="M 96.615234 78.376953 A 4.4248045 4.4248045 0 0 0 96.615234 87.226562 L 127.03125 87.226562 A 4.4248045 4.4248045 0 0 0 127.03125 78.376953 L 96.615234 78.376953 z M 96.615234 80.037109 C 98.146484 80.037109 99.380859 81.271485 99.380859 82.802734 C 99.380859 84.328777 98.146484 85.5625 96.615234 85.5625 C 95.089192 85.5625 93.853516 84.328777 93.853516 82.802734 C 93.853516 81.271485 95.089192 80.037109 96.615234 80.037109 z M 127.03125 80.037109 C 128.55729 80.037109 129.79102 81.271485 129.79102 82.802734 C 129.79102 84.328777 128.55729 85.5625 127.03125 85.5625 C 125.5 85.5625 124.26564 84.328777 124.26562 82.802734 C 124.26562 81.271485 125.5 80.037109 127.03125 80.037109 z "
       style="color:#000000;font-style:normal;font-variant:normal;font-weight:normal;font-stretch:normal;font-size:medium;line-height:normal;font-family:sans-serif;font-variant-ligatures:normal;font-variant-position:normal;font-variant-caps:normal;font-variant-numeric:normal;font-variant-alternates:normal;font-feature-settings:normal;text-indent:0;text-align:start;text-decoration:none;text-decoration-line:none;text-decoration-style:solid;text-decoration-color:#000000;letter-spacing:normal;word-spacing:normal;text-transform:none;writing-mode:lr-tb;direction:ltr;text-orientation:mixed;dominant-baseline:auto;baseline-shift:baseline;text-anchor:start;white-space:normal;shape-padding:0;clip-rule:nonzero;display:inline;overflow:visible;visibility:visible;opacity:1;isolation:auto;mix-blend-mode:normal;color-interpolation:sRGB;color-interpolation-filters:linearRGB;solid-color:#000000;solid-opacity:1;vector-effect:none;fill:#000000;fill-opacity:1;fill-rule:nonzero;stroke:none;stroke-width:8.84720516;stroke-linecap:round;stroke-linejoin:round;stroke-miterlimit:4;stroke-dasharray:none;stroke-dashoffset:0;stroke-opacity:1;color-rendering:auto;image-rendering:auto;shape-rendering:auto;text-rendering:auto;enable-background:accumulate" />
    <path
       id="path100"
       transform="scale(0.75)"
       d="M 143.61914 72.845703 A 4.4240451 4.4240451 0 0 0 140.49219 74.142578 L 134.96094 79.673828 A 4.4240451 4.4240451 0 1 0 141.2168 85.929688 L 145.45312 81.695312 L 176.79688 81.695312 A 4.4248045 4.4248045 0 0 0 176.79688 72.845703 L 143.61914 72.845703 z M 176.79688 74.505859 C 178.32291 74.505859 179.55664 75.745443 179.55664 77.271484 C 179.55664 78.797526 178.32291 80.037109 176.79688 80.037109 C 175.26562 80.037109 174.03125 78.797526 174.03125 77.271484 C 174.03125 75.745443 175.26562 74.505859 176.79688 74.505859 z M 138.08789 80.037109 C 139.61393 80.037109 140.85352 81.271485 140.85352 82.802734 C 140.85352 84.328777 139.61393 85.5625 138.08789 85.5625 C 136.56185 85.5625 135.32227 84.328777 135.32227 82.802734 C 135.32227 81.271485 136.56185 80.037109 138.08789 80.037109 z "
       style="color:#000000;font-style:normal;font-variant:normal;font-weight:normal;font-stretch:normal;font-size:medium;line-height:normal;font-family:sans-serif;font-variant-ligatures:normal;font-variant-position:normal;font-variant-caps:normal;font-variant-numeric:normal;font-variant-alternates:normal;font-feature-settings:normal;text-indent:0;text-align:start;text-decoration:none;text-decoration-line:none;text-decoration-style:solid;text-decoration-color:#000000;letter-spacing:normal;word-spacing:normal;text-transform:none;writing-mode:lr-tb;direction:ltr;text-orientation:mixed;dominant-baseline:auto;baseline-shift:baseline;text-anchor:start;white-space:normal;shape-padding:0;clip-rule:nonzero;display:inline;overflow:visible;visibility:visible;opacity:1;isolation:auto;mix-blend-mode:normal;color-interpolation:sRGB;color-interpolation-filters:linearRGB;solid-color:#000000;solid-opacity:1;vector-effect:none;fill:#000000;fill-opacity:1;fill-rule:nonzero;stroke:none;stroke-width:8.84720516;stroke-linecap:round;stroke-linejoin:round;stroke-miterlimit:4;stroke-dasharray:none;stroke-dashoffset:0;stroke-opacity:1;color-rendering:auto;image-rendering:auto;shape-rendering:auto;text-rendering:auto;enable-background:accumulate" />
    <path
       id="path110"
       transform="scale(0.75)"
       d="M 209.90625 111.49219 A 4.4240451 4.4240451 0 0 0 205.54883 115.97852 L 205.54883 152.84961 L 202.60938 155.78906 L 198.91211 155.78906 A 4.424805 4.424805 0 1 0 198.91211 164.63867 L 204.44336 164.63867 A 4.4240451 4.4240451 0 0 0 207.57031 163.3418 L 213.10156 157.81055 A 4.4240451 4.4240451 0 0 0 214.39844 154.68164 L 214.39844 115.97852 A 4.4240451 4.4240451 0 0 0 209.90625 111.49219 z M 209.97461 113.21289 C 211.50065 113.21289 212.73437 114.44727 212.73438 115.97852 C 212.73438 117.50456 211.50065 118.74023 209.97461 118.74023 C 208.44336 118.74023 207.20898 117.50456 207.20898 115.97852 C 207.20898 114.44727 208.44336 113.21289 209.97461 113.21289 z M 198.91211 157.44727 C 200.43815 157.44727 201.67773 158.68685 201.67773 160.21289 C 201.67773 161.73893 200.43815 162.97852 198.91211 162.97852 C 197.38607 162.97852 196.14648 161.73893 196.14648 160.21289 C 196.14648 158.68685 197.38607 157.44727 198.91211 157.44727 z "
       style="color:#000000;font-style:normal;font-variant:normal;font-weight:normal;font-stretch:normal;font-size:medium;line-height:normal;font-family:sans-serif;font-variant-ligatures:normal;font-variant-position:normal;font-variant-caps:normal;font-variant-numeric:normal;font-variant-alternates:normal;font-feature-settings:normal;text-indent:0;text-align:start;text-decoration:none;text-decoration-line:none;text-decoration-style:solid;text-decoration-color:#000000;letter-spacing:normal;word-spacing:normal;text-transform:none;writing-mode:lr-tb;direction:ltr;text-orientation:mixed;dominant-baseline:auto;baseline-shift:baseline;text-anchor:start;white-space:normal;shape-padding:0;clip-rule:nonzero;display:inline;overflow:visible;visibility:visible;opacity:1;isolation:auto;mix-blend-mode:normal;color-interpolation:sRGB;color-interpolation-filters:linearRGB;solid-color:#000000;solid-opacity:1;vector-effect:none;fill:#000000;fill-opacity:1;fill-rule:nonzero;stroke:none;stroke-width:8.84720516;stroke-linecap:round;stroke-linejoin:round;stroke-miterlimit:4;stroke-dasharray:none;stroke-dashoffset:0;stroke-opacity:1;color-rendering:auto;image-rendering:auto;shape-rendering:auto;text-rendering:auto;enable-background:accumulate" />
    <path
       id="path118"
       transform="scale(0.75)"
       d="M 104.86523 122.56836 A 4.4240451 4.4240451 0 0 0 101.7832 130.16406 L 104.18359 132.56445 L 101.7832 134.96289 A 4.4256333 4.4256333 0 1 0 108.03906 141.22461 L 110.44336 138.82227 L 112.8418 141.2207 A 4.4240451 4.4240451 0 1 0 119.0957 134.9668 L 116.69727 132.56836 L 119.09961 130.16406 A 4.4240451 4.4240451 0 0 0 115.88086 122.57031 A 4.4240451 4.4240451 0 0 0 112.83789 123.9082 L 110.43945 126.30859 L 108.03906 123.9082 A 4.4240451 4.4240451 0 0 0 104.86523 122.56836 z M 104.91211 124.27148 C 106.43815 124.27148 107.67773 125.51107 107.67773 127.03711 C 107.67773 128.56315 106.43815 129.80273 104.91211 129.80273 C 103.38607 129.80273 102.14648 128.56315 102.14648 127.03711 C 102.14648 125.51107 103.38607 124.27148 104.91211 124.27148 z M 115.96875 124.27148 C 117.49479 124.27148 118.73437 125.51107 118.73438 127.03711 C 118.73438 128.56315 117.49479 129.80273 115.96875 129.80273 C 114.44271 129.80273 113.20312 128.56315 113.20312 127.03711 C 113.20312 125.51107 114.44271 124.27148 115.96875 124.27148 z M 104.91211 135.32812 C 106.43815 135.32812 107.67773 136.56771 107.67773 138.09375 C 107.67773 139.61979 106.43815 140.85938 104.91211 140.85938 C 103.38607 140.85938 102.14648 139.61979 102.14648 138.09375 C 102.14648 136.56771 103.38607 135.32812 104.91211 135.32812 z M 115.96875 135.32812 C 117.49479 135.32812 118.73437 136.56771 118.73438 138.09375 C 118.73438 139.61979 117.49479 140.85937 115.96875 140.85938 C 114.44271 140.85938 113.20312 139.61979 113.20312 138.09375 C 113.20312 136.56771 114.44271 135.32812 115.96875 135.32812 z "
       style="color:#000000;font-style:normal;font-variant:normal;font-weight:normal;font-stretch:normal;font-size:medium;line-height:normal;font-family:sans-serif;font-variant-ligatures:normal;font-variant-position:normal;font-variant-caps:normal;font-variant-numeric:normal;font-variant-alternates:normal;font-feature-settings:normal;text-indent:0;text-align:start;text-decoration:none;text-decoration-line:none;text-decoration-style:solid;text-decoration-color:#000000;letter-spacing:normal;word-spacing:normal;text-transform:none;writing-mode:lr-tb;direction:ltr;text-orientation:mixed;dominant-baseline:auto;baseline-shift:baseline;text-anchor:start;white-space:normal;shape-padding:0;clip-rule:nonzero;display:inline;overflow:visible;visibility:visible;opacity:1;isolation:auto;mix-blend-mode:normal;color-interpolation:sRGB;color-interpolation-filters:linearRGB;solid-color:#000000;solid-opacity:1;vector-effect:none;fill:#000000;fill-opacity:1;fill-rule:nonzero;stroke:none;stroke-width:8.84720516;stroke-linecap:round;stroke-linejoin:round;stroke-miterlimit:4;stroke-dasharray:none;stroke-dashoffset:0;stroke-opacity:1;color-rendering:auto;image-rendering:auto;shape-rendering:auto;text-rendering:auto;enable-background:accumulate" />
    <path
       id="path124"
       transform="scale(0.75)"
       d="M 157.38086 114.31836 A 4.4240451 4.4240451 0 0 0 154.31445 115.61133 L 148.7832 121.14258 A 4.4240451 4.4240451 0 0 0 147.48633 124.27148 L 147.48633 160.21289 A 4.424805 4.424805 0 1 0 156.33594 160.21289 L 156.33594 126.10352 L 157.43945 124.99805 L 158.54492 126.10156 L 158.54492 138.09375 A 4.42448 4.42448 0 1 0 167.39258 138.09375 L 167.39258 124.27148 A 4.4240451 4.4240451 0 0 0 166.09961 121.14258 L 160.57227 115.61133 A 4.4240451 4.4240451 0 0 0 157.38086 114.31836 z M 162.96875 135.32812 C 164.5 135.32812 165.73438 136.56771 165.73438 138.09375 C 165.73438 139.61979 164.5 140.85937 162.96875 140.85938 C 161.44271 140.85938 160.20898 139.61979 160.20898 138.09375 C 160.20898 136.56771 161.44271 135.32812 162.96875 135.32812 z M 151.91211 157.44727 C 153.43816 157.44727 154.67773 158.68685 154.67773 160.21289 C 154.67773 161.73893 153.43816 162.97852 151.91211 162.97852 C 150.38607 162.97852 149.14648 161.73893 149.14648 160.21289 C 149.14648 158.68685 150.38607 157.44727 151.91211 157.44727 z "
       style="color:#000000;font-style:normal;font-variant:normal;font-weight:normal;font-stretch:normal;font-size:medium;line-height:normal;font-family:sans-serif;font-variant-ligatures:normal;font-variant-position:normal;font-variant-caps:normal;font-variant-numeric:normal;font-variant-alternates:normal;font-feature-settings:normal;text-indent:0;text-align:start;text-decoration:none;text-decoration-line:none;text-decoration-style:solid;text-decoration-color:#000000;letter-spacing:normal;word-spacing:normal;text-transform:none;writing-mode:lr-tb;direction:ltr;text-orientation:mixed;dominant-baseline:auto;baseline-shift:baseline;text-anchor:start;white-space:normal;shape-padding:0;clip-rule:nonzero;display:inline;overflow:visible;visibility:visible;opacity:1;isolation:auto;mix-blend-mode:normal;color-interpolation:sRGB;color-interpolation-filters:linearRGB;solid-color:#000000;solid-opacity:1;vector-effect:none;fill:#000000;fill-opacity:1;fill-rule:nonzero;stroke:none;stroke-width:8.84720516;stroke-linecap:round;stroke-linejoin:round;stroke-miterlimit:4;stroke-dasharray:none;stroke-dashoffset:0;stroke-opacity:1;color-rendering:auto;image-rendering:auto;shape-rendering:auto;text-rendering:auto;enable-background:accumulate" />
    <path
       id="path126"
       transform="scale(0.75)"
       d="M 173.96289 117.01758 A 4.4240451 4.4240451 0 0 0 169.60742 121.50586 L 169.60742 138.09375 A 4.42448 4.42448 0 0 0 178.45508 138.09375 L 178.45508 121.50586 A 4.4240451 4.4240451 0 0 0 173.96289 117.01758 z M 174.03125 118.74023 C 175.55729 118.74023 176.79687 119.97982 176.79688 121.50586 C 176.79688 123.0319 175.55729 124.27148 174.03125 124.27148 C 172.50521 124.27148 171.26562 123.0319 171.26562 121.50586 C 171.26562 119.97982 172.50521 118.74023 174.03125 118.74023 z M 174.03125 135.32812 C 175.55729 135.32812 176.79688 136.56771 176.79688 138.09375 C 176.79688 139.61979 175.55729 140.85938 174.03125 140.85938 C 172.50521 140.85938 171.26562 139.61979 171.26562 138.09375 C 171.26562 136.56771 172.50521 135.32812 174.03125 135.32812 z "
       style="color:#000000;font-style:normal;font-variant:normal;font-weight:normal;font-stretch:normal;font-size:medium;line-height:normal;font-family:sans-serif;font-variant-ligatures:normal;font-variant-position:normal;font-variant-caps:normal;font-variant-numeric:normal;font-variant-alternates:normal;font-feature-settings:normal;text-indent:0;text-align:start;text-decoration:none;text-decoration-line:none;text-decoration-style:solid;text-decoration-color:#000000;letter-spacing:normal;word-spacing:normal;text-transform:none;writing-mode:lr-tb;direction:ltr;text-orientation:mixed;dominant-baseline:auto;baseline-shift:baseline;text-anchor:start;white-space:normal;shape-padding:0;clip-rule:nonzero;display:inline;overflow:visible;visibility:visible;opacity:1;isolation:auto;mix-blend-mode:normal;color-interpolation:sRGB;color-interpolation-filters:linearRGB;solid-color:#000000;solid-opacity:1;vector-effect:none;fill:#000000;fill-opacity:1;fill-rule:nonzero;stroke:none;stroke-width:8.84720516;stroke-linecap:round;stroke-linejoin:round;stroke-miterlimit:4;stroke-dasharray:none;stroke-dashoffset:0;stroke-opacity:1;color-rendering:auto;image-rendering:auto;shape-rendering:auto;text-rendering:auto;enable-background:accumulate" />
    <path
       id="path156"
       transform="scale(0.75)"
       d="M 162.96875 144.73242 A 4.4240451 4.4240451 0 0 0 158.54492 149.15625 L 158.54492 160.21289 A 4.4240451 4.4240451 0 0 0 159.8418 163.3418 L 162.60742 166.10742 A 4.4240451 4.4240451 0 1 0 168.86133 159.85156 L 167.39258 158.38086 L 167.39258 153.58008 L 176.79688 153.58008 A 4.42448 4.42448 0 0 0 176.79688 144.73242 L 162.96875 144.73242 z M 176.79688 146.39062 C 178.3229 146.39062 179.55664 147.625 179.55664 149.15625 C 179.55664 150.68229 178.3229 151.91602 176.79688 151.91602 C 175.26562 151.91602 174.03125 150.68229 174.03125 149.15625 C 174.03125 147.625 175.26562 146.39063 176.79688 146.39062 z M 165.73438 160.21289 C 167.26041 160.21289 168.5 161.45246 168.5 162.97852 C 168.5 164.50456 167.26041 165.74414 165.73438 165.74414 C 164.20834 165.74414 162.96875 164.50456 162.96875 162.97852 C 162.96875 161.45246 164.20834 160.21289 165.73438 160.21289 z "
       style="color:#000000;font-style:normal;font-variant:normal;font-weight:normal;font-stretch:normal;font-size:medium;line-height:normal;font-family:sans-serif;font-variant-ligatures:normal;font-variant-position:normal;font-variant-caps:normal;font-variant-numeric:normal;font-variant-alternates:normal;font-feature-settings:normal;text-indent:0;text-align:start;text-decoration:none;text-decoration-line:none;text-decoration-style:solid;text-decoration-color:#000000;letter-spacing:normal;word-spacing:normal;text-transform:none;writing-mode:lr-tb;direction:ltr;text-orientation:mixed;dominant-baseline:auto;baseline-shift:baseline;text-anchor:start;white-space:normal;shape-padding:0;clip-rule:nonzero;display:inline;overflow:visible;visibility:visible;opacity:1;isolation:auto;mix-blend-mode:normal;color-interpolation:sRGB;color-interpolation-filters:linearRGB;solid-color:#000000;solid-opacity:1;vector-effect:none;fill:#000000;fill-opacity:1;fill-rule:nonzero;stroke:none;stroke-width:8.84720516;stroke-linecap:round;stroke-linejoin:round;stroke-miterlimit:4;stroke-dasharray:none;stroke-dashoffset:0;stroke-opacity:1;color-rendering:auto;image-rendering:auto;shape-rendering:auto;text-rendering:auto;enable-background:accumulate" />
    <path
       id="path166"
       transform="scale(0.75)"
       d="M 154.67773 94.966797 A 4.4240451 4.4240451 0 0 0 151.54883 96.259766 L 146.01758 101.78711 A 4.4249436 4.4249436 0 1 0 152.27344 108.04688 L 156.50781 103.81445 L 193.38477 103.81445 A 4.4244793 4.4244793 0 1 0 193.38477 94.966797 L 154.67773 94.966797 z M 193.38477 96.625 C 194.91081 96.625 196.14648 97.859374 196.14648 99.390625 C 196.14648 100.91667 194.91081 102.15039 193.38477 102.15039 C 191.85351 102.15039 190.61914 100.91667 190.61914 99.390625 C 190.61914 97.859374 191.85351 96.625 193.38477 96.625 z M 149.14648 102.15039 C 150.67252 102.15039 151.91211 103.38997 151.91211 104.91602 C 151.91211 106.44206 150.67252 107.68164 149.14648 107.68164 C 147.62043 107.68164 146.38086 106.44206 146.38086 104.91602 C 146.38086 103.38997 147.62043 102.15039 149.14648 102.15039 z "
       style="color:#000000;font-style:normal;font-variant:normal;font-weight:normal;font-stretch:normal;font-size:medium;line-height:normal;font-family:sans-serif;font-variant-ligatures:normal;font-variant-position:normal;font-variant-caps:normal;font-variant-numeric:normal;font-variant-alternates:normal;font-feature-settings:normal;text-indent:0;text-align:start;text-decoration:none;text-decoration-line:none;text-decoration-style:solid;text-decoration-color:#000000;letter-spacing:normal;word-spacing:normal;text-transform:none;writing-mode:lr-tb;direction:ltr;text-orientation:mixed;dominant-baseline:auto;baseline-shift:baseline;text-anchor:start;white-space:normal;shape-padding:0;clip-rule:nonzero;display:inline;overflow:visible;visibility:visible;opacity:1;isolation:auto;mix-blend-mode:normal;color-interpolation:sRGB;color-interpolation-filters:linearRGB;solid-color:#000000;solid-opacity:1;vector-effect:none;fill:#000000;fill-opacity:1;fill-rule:nonzero;stroke:none;stroke-width:8.84720516;stroke-linecap:round;stroke-linejoin:round;stroke-miterlimit:4;stroke-dasharray:none;stroke-dashoffset:0;stroke-opacity:1;color-rendering:auto;image-rendering:auto;shape-rendering:auto;text-rendering:auto;enable-background:accumulate" />
  </g>
</svg>
