<?xml version="1.0" encoding="UTF-8" standalone="no"?>
<svg
   xmlns:dc="http://purl.org/dc/elements/1.1/"
   xmlns:cc="http://creativecommons.org/ns#"
   xmlns:rdf="http://www.w3.org/1999/02/22-rdf-syntax-ns#"
   xmlns:svg="http://www.w3.org/2000/svg"
   xmlns="http://www.w3.org/2000/svg"
   xmlns:sodipodi="http://sodipodi.sourceforge.net/DTD/sodipodi-0.dtd"
   xmlns:inkscape="http://www.inkscape.org/namespaces/inkscape"
   width="50mm"
   height="50mm"
   id="svg2"
   version="1.1"
   inkscape:version="1.0.1 (3bc2e813f5, 2020-09-07)"
   sodipodi:docname="xHain_stickers_5cm_textiles.svg"
   inkscape:export-filename="/home/xHain_stickers_5cm_textiles.png"
   inkscape:export-xdpi="350"
   inkscape:export-ydpi="350">
  <sodipodi:namedview
     id="base"
     pagecolor="#ffffff"
     bordercolor="#666666"
     borderopacity="1.0"
     inkscape:pageopacity="0.0"
     inkscape:pageshadow="2"
     inkscape:zoom="2.6406762"
     inkscape:cx="142.13621"
     inkscape:cy="65.393428"
     inkscape:document-units="mm"
     inkscape:current-layer="layer1"
     showgrid="false"
     inkscape:window-width="1920"
     inkscape:window-height="1032"
     inkscape:window-x="0"
     inkscape:window-y="0"
     inkscape:window-maximized="1"
     showguides="true"
     inkscape:guide-bbox="true"
     units="mm"
     inkscape:document-rotation="0">
    <inkscape:grid
       type="xygrid"
       id="grid2985"
       empspacing="5"
       visible="true"
       enabled="true"
       snapvisiblegridlinesonly="true" />
  </sodipodi:namedview>
  <defs
     id="defs4">
    <marker
       inkscape:stockid="DotS"
       orient="auto"
       refY="0"
       refX="0"
       id="DotS"
       style="overflow:visible">
      <path
         id="path3828"
         d="m -2.5,-1 c 0,2.76 -2.24,5 -5,5 -2.76,0 -5,-2.24 -5,-5 0,-2.76 2.24,-5 5,-5 2.76,0 5,2.24 5,5 z"
         style="fill-rule:evenodd;stroke:#000000;stroke-width:1pt"
         transform="matrix(0.2,0,0,0.2,1.48,0.2)"
         inkscape:connector-curvature="0" />
    </marker>
    <marker
       inkscape:stockid="DotS"
       orient="auto"
       refY="0"
       refX="0"
       id="DotS-1"
       style="overflow:visible">
      <path
         inkscape:connector-curvature="0"
         id="path3828-5"
         d="m -2.5,-1 c 0,2.76 -2.24,5 -5,5 -2.76,0 -5,-2.24 -5,-5 0,-2.76 2.24,-5 5,-5 2.76,0 5,2.24 5,5 z"
         style="fill-rule:evenodd;stroke:#000000;stroke-width:1pt"
         transform="matrix(0.2,0,0,0.2,1.48,0.2)" />
    </marker>
    <marker
       inkscape:stockid="DotS"
       orient="auto"
       refY="0"
       refX="0"
       id="marker4395"
       style="overflow:visible">
      <path
         inkscape:connector-curvature="0"
         id="path4397"
         d="m -2.5,-1 c 0,2.76 -2.24,5 -5,5 -2.76,0 -5,-2.24 -5,-5 0,-2.76 2.24,-5 5,-5 2.76,0 5,2.24 5,5 z"
         style="fill-rule:evenodd;stroke:#000000;stroke-width:1pt"
         transform="matrix(0.2,0,0,0.2,1.48,0.2)" />
    </marker>
    <marker
       inkscape:stockid="DotS"
       orient="auto"
       refY="0"
       refX="0"
       id="DotS-3"
       style="overflow:visible">
      <path
         inkscape:connector-curvature="0"
         id="path3828-0"
         d="m -2.5,-1 c 0,2.76 -2.24,5 -5,5 -2.76,0 -5,-2.24 -5,-5 0,-2.76 2.24,-5 5,-5 2.76,0 5,2.24 5,5 z"
         style="fill-rule:evenodd;stroke:#000000;stroke-width:1pt"
         transform="matrix(0.2,0,0,0.2,1.48,0.2)" />
    </marker>
    <marker
       inkscape:stockid="DotS"
       orient="auto"
       refY="0"
       refX="0"
       id="marker4427"
       style="overflow:visible">
      <path
         inkscape:connector-curvature="0"
         id="path4429"
         d="m -2.5,-1 c 0,2.76 -2.24,5 -5,5 -2.76,0 -5,-2.24 -5,-5 0,-2.76 2.24,-5 5,-5 2.76,0 5,2.24 5,5 z"
         style="fill-rule:evenodd;stroke:#000000;stroke-width:1pt"
         transform="matrix(0.2,0,0,0.2,1.48,0.2)" />
    </marker>
    <marker
       inkscape:stockid="DotS"
       orient="auto"
       refY="0"
       refX="0"
       id="DotS-2"
       style="overflow:visible">
      <path
         inkscape:connector-curvature="0"
         id="path3828-1"
         d="m -2.5,-1 c 0,2.76 -2.24,5 -5,5 -2.76,0 -5,-2.24 -5,-5 0,-2.76 2.24,-5 5,-5 2.76,0 5,2.24 5,5 z"
         style="fill-rule:evenodd;stroke:#000000;stroke-width:1pt"
         transform="matrix(0.2,0,0,0.2,1.48,0.2)" />
    </marker>
    <marker
       inkscape:stockid="DotS"
       orient="auto"
       refY="0"
       refX="0"
       id="marker4427-3"
       style="overflow:visible">
      <path
         inkscape:connector-curvature="0"
         id="path4429-9"
         d="m -2.5,-1 c 0,2.76 -2.24,5 -5,5 -2.76,0 -5,-2.24 -5,-5 0,-2.76 2.24,-5 5,-5 2.76,0 5,2.24 5,5 z"
         style="fill-rule:evenodd;stroke:#000000;stroke-width:1pt"
         transform="matrix(0.2,0,0,0.2,1.48,0.2)" />
    </marker>
    <marker
       inkscape:stockid="DotS"
       orient="auto"
       refY="0"
       refX="0"
       id="DotS-21"
       style="overflow:visible">
      <path
         inkscape:connector-curvature="0"
         id="path3828-6"
         d="m -2.5,-1 c 0,2.76 -2.24,5 -5,5 -2.76,0 -5,-2.24 -5,-5 0,-2.76 2.24,-5 5,-5 2.76,0 5,2.24 5,5 z"
         style="fill-rule:evenodd;stroke:#000000;stroke-width:1pt"
         transform="matrix(0.2,0,0,0.2,1.48,0.2)" />
    </marker>
    <marker
       inkscape:stockid="DotS"
       orient="auto"
       refY="0"
       refX="0"
       id="marker4474"
       style="overflow:visible">
      <path
         inkscape:connector-curvature="0"
         id="path4476"
         d="m -2.5,-1 c 0,2.76 -2.24,5 -5,5 -2.76,0 -5,-2.24 -5,-5 0,-2.76 2.24,-5 5,-5 2.76,0 5,2.24 5,5 z"
         style="fill-rule:evenodd;stroke:#000000;stroke-width:1pt"
         transform="matrix(0.2,0,0,0.2,1.48,0.2)" />
    </marker>
    <marker
       inkscape:stockid="DotS"
       orient="auto"
       refY="0"
       refX="0"
       id="DotS-36"
       style="overflow:visible">
      <path
         inkscape:connector-curvature="0"
         id="path3828-8"
         d="m -2.5,-1 c 0,2.76 -2.24,5 -5,5 -2.76,0 -5,-2.24 -5,-5 0,-2.76 2.24,-5 5,-5 2.76,0 5,2.24 5,5 z"
         style="fill-rule:evenodd;stroke:#000000;stroke-width:1pt"
         transform="matrix(0.2,0,0,0.2,1.48,0.2)" />
    </marker>
    <marker
       inkscape:stockid="DotS"
       orient="auto"
       refY="0"
       refX="0"
       id="marker4516"
       style="overflow:visible">
      <path
         inkscape:connector-curvature="0"
         id="path4518"
         d="m -2.5,-1 c 0,2.76 -2.24,5 -5,5 -2.76,0 -5,-2.24 -5,-5 0,-2.76 2.24,-5 5,-5 2.76,0 5,2.24 5,5 z"
         style="fill-rule:evenodd;stroke:#000000;stroke-width:1pt"
         transform="matrix(0.2,0,0,0.2,1.48,0.2)" />
    </marker>
    <marker
       inkscape:stockid="DotS"
       orient="auto"
       refY="0"
       refX="0"
       id="DotS-11"
       style="overflow:visible">
      <path
         inkscape:connector-curvature="0"
         id="path3828-58"
         d="m -2.5,-1 c 0,2.76 -2.24,5 -5,5 -2.76,0 -5,-2.24 -5,-5 0,-2.76 2.24,-5 5,-5 2.76,0 5,2.24 5,5 z"
         style="fill-rule:evenodd;stroke:#000000;stroke-width:1pt"
         transform="matrix(0.2,0,0,0.2,1.48,0.2)" />
    </marker>
    <marker
       inkscape:stockid="DotS"
       orient="auto"
       refY="0"
       refX="0"
       id="marker4954"
       style="overflow:visible">
      <path
         inkscape:connector-curvature="0"
         id="path4956"
         d="m -2.5,-1 c 0,2.76 -2.24,5 -5,5 -2.76,0 -5,-2.24 -5,-5 0,-2.76 2.24,-5 5,-5 2.76,0 5,2.24 5,5 z"
         style="fill-rule:evenodd;stroke:#000000;stroke-width:1pt"
         transform="matrix(0.2,0,0,0.2,1.48,0.2)" />
    </marker>
    <marker
       inkscape:stockid="DotS"
       orient="auto"
       refY="0"
       refX="0"
       id="DotS-7"
       style="overflow:visible">
      <path
         inkscape:connector-curvature="0"
         id="path3828-3"
         d="m -2.5,-1 c 0,2.76 -2.24,5 -5,5 -2.76,0 -5,-2.24 -5,-5 0,-2.76 2.24,-5 5,-5 2.76,0 5,2.24 5,5 z"
         style="fill-rule:evenodd;stroke:#000000;stroke-width:1pt"
         transform="matrix(0.2,0,0,0.2,1.48,0.2)" />
    </marker>
    <marker
       inkscape:stockid="DotS"
       orient="auto"
       refY="0"
       refX="0"
       id="marker5024"
       style="overflow:visible">
      <path
         inkscape:connector-curvature="0"
         id="path5026"
         d="m -2.5,-1 c 0,2.76 -2.24,5 -5,5 -2.76,0 -5,-2.24 -5,-5 0,-2.76 2.24,-5 5,-5 2.76,0 5,2.24 5,5 z"
         style="fill-rule:evenodd;stroke:#000000;stroke-width:1pt"
         transform="matrix(0.2,0,0,0.2,1.48,0.2)" />
    </marker>
    <marker
       inkscape:stockid="DotS"
       orient="auto"
       refY="0"
       refX="0"
       id="DotS-34"
       style="overflow:visible">
      <path
         inkscape:connector-curvature="0"
         id="path3828-16"
         d="m -2.5,-1 c 0,2.76 -2.24,5 -5,5 -2.76,0 -5,-2.24 -5,-5 0,-2.76 2.24,-5 5,-5 2.76,0 5,2.24 5,5 z"
         style="fill-rule:evenodd;stroke:#000000;stroke-width:1pt"
         transform="matrix(0.2,0,0,0.2,1.48,0.2)" />
    </marker>
    <marker
       inkscape:stockid="DotS"
       orient="auto"
       refY="0"
       refX="0"
       id="marker5056"
       style="overflow:visible">
      <path
         inkscape:connector-curvature="0"
         id="path5058"
         d="m -2.5,-1 c 0,2.76 -2.24,5 -5,5 -2.76,0 -5,-2.24 -5,-5 0,-2.76 2.24,-5 5,-5 2.76,0 5,2.24 5,5 z"
         style="fill-rule:evenodd;stroke:#000000;stroke-width:1pt"
         transform="matrix(0.2,0,0,0.2,1.48,0.2)" />
    </marker>
    <marker
       inkscape:stockid="DotS"
       orient="auto"
       refY="0"
       refX="0"
       id="marker4516-8"
       style="overflow:visible">
      <path
         inkscape:connector-curvature="0"
         id="path4518-5"
         d="m -2.5,-1 c 0,2.76 -2.24,5 -5,5 -2.76,0 -5,-2.24 -5,-5 0,-2.76 2.24,-5 5,-5 2.76,0 5,2.24 5,5 z"
         style="fill-rule:evenodd;stroke:#000000;stroke-width:1pt"
         transform="matrix(0.2,0,0,0.2,1.48,0.2)" />
    </marker>
    <marker
       inkscape:stockid="DotS"
       orient="auto"
       refY="0"
       refX="0"
       id="marker5088"
       style="overflow:visible">
      <path
         inkscape:connector-curvature="0"
         id="path5090"
         d="m -2.5,-1 c 0,2.76 -2.24,5 -5,5 -2.76,0 -5,-2.24 -5,-5 0,-2.76 2.24,-5 5,-5 2.76,0 5,2.24 5,5 z"
         style="fill-rule:evenodd;stroke:#000000;stroke-width:1pt"
         transform="matrix(0.2,0,0,0.2,1.48,0.2)" />
    </marker>
    <marker
       inkscape:stockid="DotS"
       orient="auto"
       refY="0"
       refX="0"
       id="marker4516-9"
       style="overflow:visible">
      <path
         inkscape:connector-curvature="0"
         id="path4518-55"
         d="m -2.5,-1 c 0,2.76 -2.24,5 -5,5 -2.76,0 -5,-2.24 -5,-5 0,-2.76 2.24,-5 5,-5 2.76,0 5,2.24 5,5 z"
         style="fill-rule:evenodd;stroke:#000000;stroke-width:1pt"
         transform="matrix(0.2,0,0,0.2,1.48,0.2)" />
    </marker>
    <marker
       inkscape:stockid="DotS"
       orient="auto"
       refY="0"
       refX="0"
       id="marker5137"
       style="overflow:visible">
      <path
         inkscape:connector-curvature="0"
         id="path5139"
         d="m -2.5,-1 c 0,2.76 -2.24,5 -5,5 -2.76,0 -5,-2.24 -5,-5 0,-2.76 2.24,-5 5,-5 2.76,0 5,2.24 5,5 z"
         style="fill-rule:evenodd;stroke:#000000;stroke-width:1pt"
         transform="matrix(0.2,0,0,0.2,1.48,0.2)" />
    </marker>
    <marker
       inkscape:stockid="DotS"
       orient="auto"
       refY="0"
       refX="0"
       id="DotS-0"
       style="overflow:visible">
      <path
         inkscape:connector-curvature="0"
         id="path3828-4"
         d="m -2.5,-1 c 0,2.76 -2.24,5 -5,5 -2.76,0 -5,-2.24 -5,-5 0,-2.76 2.24,-5 5,-5 2.76,0 5,2.24 5,5 z"
         style="fill-rule:evenodd;stroke:#000000;stroke-width:1pt"
         transform="matrix(0.2,0,0,0.2,1.48,0.2)" />
    </marker>
    <marker
       inkscape:stockid="DotS"
       orient="auto"
       refY="0"
       refX="0"
       id="marker5169"
       style="overflow:visible">
      <path
         inkscape:connector-curvature="0"
         id="path5171"
         d="m -2.5,-1 c 0,2.76 -2.24,5 -5,5 -2.76,0 -5,-2.24 -5,-5 0,-2.76 2.24,-5 5,-5 2.76,0 5,2.24 5,5 z"
         style="fill-rule:evenodd;stroke:#000000;stroke-width:1pt"
         transform="matrix(0.2,0,0,0.2,1.48,0.2)" />
    </marker>
    <marker
       inkscape:stockid="DotS"
       orient="auto"
       refY="0"
       refX="0"
       id="DotS-8"
       style="overflow:visible">
      <path
         inkscape:connector-curvature="0"
         id="path3828-66"
         d="m -2.5,-1 c 0,2.76 -2.24,5 -5,5 -2.76,0 -5,-2.24 -5,-5 0,-2.76 2.24,-5 5,-5 2.76,0 5,2.24 5,5 z"
         style="fill-rule:evenodd;stroke:#000000;stroke-width:1pt"
         transform="matrix(0.2,0,0,0.2,1.48,0.2)" />
    </marker>
    <marker
       inkscape:stockid="DotS"
       orient="auto"
       refY="0"
       refX="0"
       id="marker5218"
       style="overflow:visible">
      <path
         inkscape:connector-curvature="0"
         id="path5220"
         d="m -2.5,-1 c 0,2.76 -2.24,5 -5,5 -2.76,0 -5,-2.24 -5,-5 0,-2.76 2.24,-5 5,-5 2.76,0 5,2.24 5,5 z"
         style="fill-rule:evenodd;stroke:#000000;stroke-width:1pt"
         transform="matrix(0.2,0,0,0.2,1.48,0.2)" />
    </marker>
    <marker
       inkscape:stockid="DotSv"
       orient="auto"
       refY="0"
       refX="0"
       id="DotSv"
       style="overflow:visible">
      <path
         id="path5753"
         d="m -2.5,-1 c 0,2.76 -2.24,5 -5,5 -2.76,0 -5,-2.24 -5,-5 0,-2.76 2.24,-5 5,-5 2.76,0 5,2.24 5,5 z"
         style="fill:#858585;fill-rule:evenodd;stroke:#858585;stroke-width:1pt"
         transform="matrix(0.2,0,0,0.2,1.48,0.2)"
         inkscape:connector-curvature="0" />
    </marker>
    <marker
       inkscape:stockid="DotSs"
       orient="auto"
       refY="0"
       refX="0"
       id="DotSs"
       style="overflow:visible">
      <path
         id="path5756"
         d="m -2.5,-1 c 0,2.76 -2.24,5 -5,5 -2.76,0 -5,-2.24 -5,-5 0,-2.76 2.24,-5 5,-5 2.76,0 5,2.24 5,5 z"
         style="fill:#858585;fill-rule:evenodd;stroke:#858585;stroke-width:1pt"
         transform="matrix(0.2,0,0,0.2,1.48,0.2)"
         inkscape:connector-curvature="0" />
    </marker>
    <marker
       inkscape:stockid="DotSk"
       orient="auto"
       refY="0"
       refX="0"
       id="DotSk"
       style="overflow:visible">
      <path
         id="path5759"
         d="m -2.5,-1 c 0,2.76 -2.24,5 -5,5 -2.76,0 -5,-2.24 -5,-5 0,-2.76 2.24,-5 5,-5 2.76,0 5,2.24 5,5 z"
         style="fill:#858585;fill-rule:evenodd;stroke:#858585;stroke-width:1pt"
         transform="matrix(0.2,0,0,0.2,1.48,0.2)"
         inkscape:connector-curvature="0" />
    </marker>
    <marker
       inkscape:stockid="DotSK"
       orient="auto"
       refY="0"
       refX="0"
       id="DotSK"
       style="overflow:visible">
      <path
         id="path5762"
         d="m -2.5,-1 c 0,2.76 -2.24,5 -5,5 -2.76,0 -5,-2.24 -5,-5 0,-2.76 2.24,-5 5,-5 2.76,0 5,2.24 5,5 z"
         style="fill:#858585;fill-rule:evenodd;stroke:#858585;stroke-width:1pt"
         transform="matrix(0.2,0,0,0.2,1.48,0.2)"
         inkscape:connector-curvature="0" />
    </marker>
    <marker
       inkscape:stockid="DotSQ"
       orient="auto"
       refY="0"
       refX="0"
       id="DotSQ"
       style="overflow:visible">
      <path
         id="path5765"
         d="m -2.5,-1 c 0,2.76 -2.24,5 -5,5 -2.76,0 -5,-2.24 -5,-5 0,-2.76 2.24,-5 5,-5 2.76,0 5,2.24 5,5 z"
         style="fill:#858585;fill-rule:evenodd;stroke:#858585;stroke-width:1pt"
         transform="matrix(0.2,0,0,0.2,1.48,0.2)"
         inkscape:connector-curvature="0" />
    </marker>
    <marker
       inkscape:stockid="DotSg"
       orient="auto"
       refY="0"
       refX="0"
       id="DotSg"
       style="overflow:visible">
      <path
         id="path5768"
         d="m -2.5,-1 c 0,2.76 -2.24,5 -5,5 -2.76,0 -5,-2.24 -5,-5 0,-2.76 2.24,-5 5,-5 2.76,0 5,2.24 5,5 z"
         style="fill:#858585;fill-rule:evenodd;stroke:#858585;stroke-width:1pt"
         transform="matrix(0.2,0,0,0.2,1.48,0.2)"
         inkscape:connector-curvature="0" />
    </marker>
    <marker
       inkscape:stockid="marker4516J"
       orient="auto"
       refY="0"
       refX="0"
       id="marker4516J"
       style="overflow:visible">
      <path
         inkscape:connector-curvature="0"
         id="path5771"
         d="m -2.5,-1 c 0,2.76 -2.24,5 -5,5 -2.76,0 -5,-2.24 -5,-5 0,-2.76 2.24,-5 5,-5 2.76,0 5,2.24 5,5 z"
         style="fill:#858585;fill-rule:evenodd;stroke:#858585;stroke-width:1pt"
         transform="matrix(0.2,0,0,0.2,1.48,0.2)" />
    </marker>
    <marker
       inkscape:stockid="marker4516P"
       orient="auto"
       refY="0"
       refX="0"
       id="marker4516P"
       style="overflow:visible">
      <path
         inkscape:connector-curvature="0"
         id="path5774"
         d="m -2.5,-1 c 0,2.76 -2.24,5 -5,5 -2.76,0 -5,-2.24 -5,-5 0,-2.76 2.24,-5 5,-5 2.76,0 5,2.24 5,5 z"
         style="fill:#858585;fill-rule:evenodd;stroke:#858585;stroke-width:1pt"
         transform="matrix(0.2,0,0,0.2,1.48,0.2)" />
    </marker>
    <marker
       inkscape:stockid="DotSC"
       orient="auto"
       refY="0"
       refX="0"
       id="DotSC"
       style="overflow:visible">
      <path
         id="path5777"
         d="m -2.5,-1 c 0,2.76 -2.24,5 -5,5 -2.76,0 -5,-2.24 -5,-5 0,-2.76 2.24,-5 5,-5 2.76,0 5,2.24 5,5 z"
         style="fill:#858585;fill-rule:evenodd;stroke:#858585;stroke-width:1pt"
         transform="matrix(0.2,0,0,0.2,1.48,0.2)"
         inkscape:connector-curvature="0" />
    </marker>
    <marker
       inkscape:stockid="DotSL"
       orient="auto"
       refY="0"
       refX="0"
       id="DotSL"
       style="overflow:visible">
      <path
         id="path5780"
         d="m -2.5,-1 c 0,2.76 -2.24,5 -5,5 -2.76,0 -5,-2.24 -5,-5 0,-2.76 2.24,-5 5,-5 2.76,0 5,2.24 5,5 z"
         style="fill:#858585;fill-rule:evenodd;stroke:#858585;stroke-width:1pt"
         transform="matrix(0.2,0,0,0.2,1.48,0.2)"
         inkscape:connector-curvature="0" />
    </marker>
    <marker
       inkscape:stockid="DotSf"
       orient="auto"
       refY="0"
       refX="0"
       id="DotSf"
       style="overflow:visible">
      <path
         id="path5783"
         d="m -2.5,-1 c 0,2.76 -2.24,5 -5,5 -2.76,0 -5,-2.24 -5,-5 0,-2.76 2.24,-5 5,-5 2.76,0 5,2.24 5,5 z"
         style="fill:#858585;fill-rule:evenodd;stroke:#858585;stroke-width:1pt"
         transform="matrix(0.2,0,0,0.2,1.48,0.2)"
         inkscape:connector-curvature="0" />
    </marker>
    <marker
       inkscape:stockid="DotS7"
       orient="auto"
       refY="0"
       refX="0"
       id="DotS7"
       style="overflow:visible">
      <path
         id="path5786"
         d="m -2.5,-1 c 0,2.76 -2.24,5 -5,5 -2.76,0 -5,-2.24 -5,-5 0,-2.76 2.24,-5 5,-5 2.76,0 5,2.24 5,5 z"
         style="fill:#858585;fill-rule:evenodd;stroke:#858585;stroke-width:1pt"
         transform="matrix(0.2,0,0,0.2,1.48,0.2)"
         inkscape:connector-curvature="0" />
    </marker>
    <marker
       inkscape:stockid="DotSS"
       orient="auto"
       refY="0"
       refX="0"
       id="DotSS"
       style="overflow:visible">
      <path
         id="path5789"
         d="m -2.5,-1 c 0,2.76 -2.24,5 -5,5 -2.76,0 -5,-2.24 -5,-5 0,-2.76 2.24,-5 5,-5 2.76,0 5,2.24 5,5 z"
         style="fill:#858585;fill-rule:evenodd;stroke:#858585;stroke-width:1pt"
         transform="matrix(0.2,0,0,0.2,1.48,0.2)"
         inkscape:connector-curvature="0" />
    </marker>
    <marker
       inkscape:stockid="DotSy"
       orient="auto"
       refY="0"
       refX="0"
       id="DotSy"
       style="overflow:visible">
      <path
         id="path5792"
         d="m -2.5,-1 c 0,2.76 -2.24,5 -5,5 -2.76,0 -5,-2.24 -5,-5 0,-2.76 2.24,-5 5,-5 2.76,0 5,2.24 5,5 z"
         style="fill:#858585;fill-rule:evenodd;stroke:#858585;stroke-width:1pt"
         transform="matrix(0.2,0,0,0.2,1.48,0.2)"
         inkscape:connector-curvature="0" />
    </marker>
    <marker
       inkscape:stockid="marker4516C"
       orient="auto"
       refY="0"
       refX="0"
       id="marker4516C"
       style="overflow:visible">
      <path
         inkscape:connector-curvature="0"
         id="path5795"
         d="m -2.5,-1 c 0,2.76 -2.24,5 -5,5 -2.76,0 -5,-2.24 -5,-5 0,-2.76 2.24,-5 5,-5 2.76,0 5,2.24 5,5 z"
         style="fill:#858585;fill-rule:evenodd;stroke:#858585;stroke-width:1pt"
         transform="matrix(0.2,0,0,0.2,1.48,0.2)" />
    </marker>
    <marker
       inkscape:stockid="marker45162"
       orient="auto"
       refY="0"
       refX="0"
       id="marker45162"
       style="overflow:visible">
      <path
         inkscape:connector-curvature="0"
         id="path5798"
         d="m -2.5,-1 c 0,2.76 -2.24,5 -5,5 -2.76,0 -5,-2.24 -5,-5 0,-2.76 2.24,-5 5,-5 2.76,0 5,2.24 5,5 z"
         style="fill:#858585;fill-rule:evenodd;stroke:#858585;stroke-width:1pt"
         transform="matrix(0.2,0,0,0.2,1.48,0.2)" />
    </marker>
    <marker
       inkscape:stockid="DotSG"
       orient="auto"
       refY="0"
       refX="0"
       id="DotSG"
       style="overflow:visible">
      <path
         id="path5801"
         d="m -2.5,-1 c 0,2.76 -2.24,5 -5,5 -2.76,0 -5,-2.24 -5,-5 0,-2.76 2.24,-5 5,-5 2.76,0 5,2.24 5,5 z"
         style="fill:#858585;fill-rule:evenodd;stroke:#858585;stroke-width:1pt"
         transform="matrix(0.2,0,0,0.2,1.48,0.2)"
         inkscape:connector-curvature="0" />
    </marker>
    <marker
       inkscape:stockid="DotS5"
       orient="auto"
       refY="0"
       refX="0"
       id="DotS5"
       style="overflow:visible">
      <path
         id="path5804"
         d="m -2.5,-1 c 0,2.76 -2.24,5 -5,5 -2.76,0 -5,-2.24 -5,-5 0,-2.76 2.24,-5 5,-5 2.76,0 5,2.24 5,5 z"
         style="fill:#858585;fill-rule:evenodd;stroke:#858585;stroke-width:1pt"
         transform="matrix(0.2,0,0,0.2,1.48,0.2)"
         inkscape:connector-curvature="0" />
    </marker>
    <marker
       inkscape:stockid="DotSsA"
       orient="auto"
       refY="0"
       refX="0"
       id="DotSsA"
       style="overflow:visible">
      <path
         id="path5807"
         d="m -2.5,-1 c 0,2.76 -2.24,5 -5,5 -2.76,0 -5,-2.24 -5,-5 0,-2.76 2.24,-5 5,-5 2.76,0 5,2.24 5,5 z"
         style="fill:#858585;fill-rule:evenodd;stroke:#858585;stroke-width:1pt"
         transform="matrix(0.2,0,0,0.2,1.48,0.2)"
         inkscape:connector-curvature="0" />
    </marker>
    <marker
       inkscape:stockid="DotSLd"
       orient="auto"
       refY="0"
       refX="0"
       id="DotSLd"
       style="overflow:visible">
      <path
         id="path5810"
         d="m -2.5,-1 c 0,2.76 -2.24,5 -5,5 -2.76,0 -5,-2.24 -5,-5 0,-2.76 2.24,-5 5,-5 2.76,0 5,2.24 5,5 z"
         style="fill:#858585;fill-rule:evenodd;stroke:#858585;stroke-width:1pt"
         transform="matrix(0.2,0,0,0.2,1.48,0.2)"
         inkscape:connector-curvature="0" />
    </marker>
    <marker
       inkscape:stockid="DotSd"
       orient="auto"
       refY="0"
       refX="0"
       id="DotSd"
       style="overflow:visible">
      <path
         id="path5813"
         d="m -2.5,-1 c 0,2.76 -2.24,5 -5,5 -2.76,0 -5,-2.24 -5,-5 0,-2.76 2.24,-5 5,-5 2.76,0 5,2.24 5,5 z"
         style="fill:#858585;fill-rule:evenodd;stroke:#858585;stroke-width:1pt"
         transform="matrix(0.2,0,0,0.2,1.48,0.2)"
         inkscape:connector-curvature="0" />
    </marker>
    <marker
       inkscape:stockid="DotSyI"
       orient="auto"
       refY="0"
       refX="0"
       id="DotSyI"
       style="overflow:visible">
      <path
         id="path5816"
         d="m -2.5,-1 c 0,2.76 -2.24,5 -5,5 -2.76,0 -5,-2.24 -5,-5 0,-2.76 2.24,-5 5,-5 2.76,0 5,2.24 5,5 z"
         style="fill:#858585;fill-rule:evenodd;stroke:#858585;stroke-width:1pt"
         transform="matrix(0.2,0,0,0.2,1.48,0.2)"
         inkscape:connector-curvature="0" />
    </marker>
    <marker
       inkscape:stockid="marker4516y"
       orient="auto"
       refY="0"
       refX="0"
       id="marker4516y"
       style="overflow:visible">
      <path
         inkscape:connector-curvature="0"
         id="path5819"
         d="m -2.5,-1 c 0,2.76 -2.24,5 -5,5 -2.76,0 -5,-2.24 -5,-5 0,-2.76 2.24,-5 5,-5 2.76,0 5,2.24 5,5 z"
         style="fill:#858585;fill-rule:evenodd;stroke:#858585;stroke-width:1pt"
         transform="matrix(0.2,0,0,0.2,1.48,0.2)" />
    </marker>
    <marker
       inkscape:stockid="marker4516I"
       orient="auto"
       refY="0"
       refX="0"
       id="marker4516I"
       style="overflow:visible">
      <path
         inkscape:connector-curvature="0"
         id="path5822"
         d="m -2.5,-1 c 0,2.76 -2.24,5 -5,5 -2.76,0 -5,-2.24 -5,-5 0,-2.76 2.24,-5 5,-5 2.76,0 5,2.24 5,5 z"
         style="fill:#858585;fill-rule:evenodd;stroke:#858585;stroke-width:1pt"
         transform="matrix(0.2,0,0,0.2,1.48,0.2)" />
    </marker>
    <marker
       inkscape:stockid="marker5218b"
       orient="auto"
       refY="0"
       refX="0"
       id="marker5218b"
       style="overflow:visible">
      <path
         inkscape:connector-curvature="0"
         id="path5825"
         d="m -2.5,-1 c 0,2.76 -2.24,5 -5,5 -2.76,0 -5,-2.24 -5,-5 0,-2.76 2.24,-5 5,-5 2.76,0 5,2.24 5,5 z"
         style="fill:#858585;fill-rule:evenodd;stroke:#858585;stroke-width:1pt"
         transform="matrix(0.2,0,0,0.2,1.48,0.2)" />
    </marker>
    <marker
       inkscape:stockid="marker5218X"
       orient="auto"
       refY="0"
       refX="0"
       id="marker5218X"
       style="overflow:visible">
      <path
         inkscape:connector-curvature="0"
         id="path5828"
         d="m -2.5,-1 c 0,2.76 -2.24,5 -5,5 -2.76,0 -5,-2.24 -5,-5 0,-2.76 2.24,-5 5,-5 2.76,0 5,2.24 5,5 z"
         style="fill:#858585;fill-rule:evenodd;stroke:#858585;stroke-width:1pt"
         transform="matrix(0.2,0,0,0.2,1.48,0.2)" />
    </marker>
    <marker
       inkscape:stockid="DotSQL"
       orient="auto"
       refY="0"
       refX="0"
       id="DotSQL"
       style="overflow:visible">
      <path
         id="path6109"
         d="m -2.5,-1 c 0,2.76 -2.24,5 -5,5 -2.76,0 -5,-2.24 -5,-5 0,-2.76 2.24,-5 5,-5 2.76,0 5,2.24 5,5 z"
         style="fill:#ffc400;fill-rule:evenodd;stroke:#ffc400;stroke-width:1pt"
         transform="matrix(0.2,0,0,0.2,1.48,0.2)"
         inkscape:connector-curvature="0" />
    </marker>
    <marker
       inkscape:stockid="DotSgb"
       orient="auto"
       refY="0"
       refX="0"
       id="DotSgb"
       style="overflow:visible">
      <path
         id="path6112"
         d="m -2.5,-1 c 0,2.76 -2.24,5 -5,5 -2.76,0 -5,-2.24 -5,-5 0,-2.76 2.24,-5 5,-5 2.76,0 5,2.24 5,5 z"
         style="fill:#ffc400;fill-rule:evenodd;stroke:#ffc400;stroke-width:1pt"
         transform="matrix(0.2,0,0,0.2,1.48,0.2)"
         inkscape:connector-curvature="0" />
    </marker>
    <marker
       inkscape:stockid="marker4516J6"
       orient="auto"
       refY="0"
       refX="0"
       id="marker4516J6"
       style="overflow:visible">
      <path
         inkscape:connector-curvature="0"
         id="path6115"
         d="m -2.5,-1 c 0,2.76 -2.24,5 -5,5 -2.76,0 -5,-2.24 -5,-5 0,-2.76 2.24,-5 5,-5 2.76,0 5,2.24 5,5 z"
         style="fill:#ffc400;fill-rule:evenodd;stroke:#ffc400;stroke-width:1pt"
         transform="matrix(0.2,0,0,0.2,1.48,0.2)" />
    </marker>
    <marker
       inkscape:stockid="marker4516Pl"
       orient="auto"
       refY="0"
       refX="0"
       id="marker4516Pl"
       style="overflow:visible">
      <path
         inkscape:connector-curvature="0"
         id="path6118"
         d="m -2.5,-1 c 0,2.76 -2.24,5 -5,5 -2.76,0 -5,-2.24 -5,-5 0,-2.76 2.24,-5 5,-5 2.76,0 5,2.24 5,5 z"
         style="fill:#ffc400;fill-rule:evenodd;stroke:#ffc400;stroke-width:1pt"
         transform="matrix(0.2,0,0,0.2,1.48,0.2)" />
    </marker>
    <marker
       inkscape:stockid="DotSSB"
       orient="auto"
       refY="0"
       refX="0"
       id="DotSSB"
       style="overflow:visible">
      <path
         id="path6121"
         d="m -2.5,-1 c 0,2.76 -2.24,5 -5,5 -2.76,0 -5,-2.24 -5,-5 0,-2.76 2.24,-5 5,-5 2.76,0 5,2.24 5,5 z"
         style="fill:#ffc400;fill-rule:evenodd;stroke:#ffc400;stroke-width:1pt"
         transform="matrix(0.2,0,0,0.2,1.48,0.2)"
         inkscape:connector-curvature="0" />
    </marker>
    <marker
       inkscape:stockid="DotSyD"
       orient="auto"
       refY="0"
       refX="0"
       id="DotSyD"
       style="overflow:visible">
      <path
         id="path6124"
         d="m -2.5,-1 c 0,2.76 -2.24,5 -5,5 -2.76,0 -5,-2.24 -5,-5 0,-2.76 2.24,-5 5,-5 2.76,0 5,2.24 5,5 z"
         style="fill:#ffc400;fill-rule:evenodd;stroke:#ffc400;stroke-width:1pt"
         transform="matrix(0.2,0,0,0.2,1.48,0.2)"
         inkscape:connector-curvature="0" />
    </marker>
    <marker
       inkscape:stockid="marker4516Ct"
       orient="auto"
       refY="0"
       refX="0"
       id="marker4516Ct"
       style="overflow:visible">
      <path
         inkscape:connector-curvature="0"
         id="path6127"
         d="m -2.5,-1 c 0,2.76 -2.24,5 -5,5 -2.76,0 -5,-2.24 -5,-5 0,-2.76 2.24,-5 5,-5 2.76,0 5,2.24 5,5 z"
         style="fill:#ffc400;fill-rule:evenodd;stroke:#ffc400;stroke-width:1pt"
         transform="matrix(0.2,0,0,0.2,1.48,0.2)" />
    </marker>
    <marker
       inkscape:stockid="marker451623"
       orient="auto"
       refY="0"
       refX="0"
       id="marker451623"
       style="overflow:visible">
      <path
         inkscape:connector-curvature="0"
         id="path6130"
         d="m -2.5,-1 c 0,2.76 -2.24,5 -5,5 -2.76,0 -5,-2.24 -5,-5 0,-2.76 2.24,-5 5,-5 2.76,0 5,2.24 5,5 z"
         style="fill:#ffc400;fill-rule:evenodd;stroke:#ffc400;stroke-width:1pt"
         transform="matrix(0.2,0,0,0.2,1.48,0.2)" />
    </marker>
    <marker
       inkscape:stockid="marker4516yb"
       orient="auto"
       refY="0"
       refX="0"
       id="marker4516yb"
       style="overflow:visible">
      <path
         inkscape:connector-curvature="0"
         id="path6133"
         d="m -2.5,-1 c 0,2.76 -2.24,5 -5,5 -2.76,0 -5,-2.24 -5,-5 0,-2.76 2.24,-5 5,-5 2.76,0 5,2.24 5,5 z"
         style="fill:#ffc400;fill-rule:evenodd;stroke:#ffc400;stroke-width:1pt"
         transform="matrix(0.2,0,0,0.2,1.48,0.2)" />
    </marker>
    <marker
       inkscape:stockid="marker4516IS"
       orient="auto"
       refY="0"
       refX="0"
       id="marker4516IS"
       style="overflow:visible">
      <path
         inkscape:connector-curvature="0"
         id="path6136"
         d="m -2.5,-1 c 0,2.76 -2.24,5 -5,5 -2.76,0 -5,-2.24 -5,-5 0,-2.76 2.24,-5 5,-5 2.76,0 5,2.24 5,5 z"
         style="fill:#ffc400;fill-rule:evenodd;stroke:#ffc400;stroke-width:1pt"
         transform="matrix(0.2,0,0,0.2,1.48,0.2)" />
    </marker>
    <marker
       inkscape:stockid="DotSsAi"
       orient="auto"
       refY="0"
       refX="0"
       id="DotSsAi"
       style="overflow:visible">
      <path
         id="path6139"
         d="m -2.5,-1 c 0,2.76 -2.24,5 -5,5 -2.76,0 -5,-2.24 -5,-5 0,-2.76 2.24,-5 5,-5 2.76,0 5,2.24 5,5 z"
         style="fill:#ffc400;fill-rule:evenodd;stroke:#ffc400;stroke-width:1pt"
         transform="matrix(0.2,0,0,0.2,1.48,0.2)"
         inkscape:connector-curvature="0" />
    </marker>
    <marker
       inkscape:stockid="DotSLdG"
       orient="auto"
       refY="0"
       refX="0"
       id="DotSLdG"
       style="overflow:visible">
      <path
         id="path6142"
         d="m -2.5,-1 c 0,2.76 -2.24,5 -5,5 -2.76,0 -5,-2.24 -5,-5 0,-2.76 2.24,-5 5,-5 2.76,0 5,2.24 5,5 z"
         style="fill:#ffc400;fill-rule:evenodd;stroke:#ffc400;stroke-width:1pt"
         transform="matrix(0.2,0,0,0.2,1.48,0.2)"
         inkscape:connector-curvature="0" />
    </marker>
    <marker
       inkscape:stockid="DotSd7"
       orient="auto"
       refY="0"
       refX="0"
       id="DotSd7"
       style="overflow:visible">
      <path
         id="path6145"
         d="m -2.5,-1 c 0,2.76 -2.24,5 -5,5 -2.76,0 -5,-2.24 -5,-5 0,-2.76 2.24,-5 5,-5 2.76,0 5,2.24 5,5 z"
         style="fill:#ffc400;fill-rule:evenodd;stroke:#ffc400;stroke-width:1pt"
         transform="matrix(0.2,0,0,0.2,1.48,0.2)"
         inkscape:connector-curvature="0" />
    </marker>
    <marker
       inkscape:stockid="DotSyIp"
       orient="auto"
       refY="0"
       refX="0"
       id="DotSyIp"
       style="overflow:visible">
      <path
         id="path6148"
         d="m -2.5,-1 c 0,2.76 -2.24,5 -5,5 -2.76,0 -5,-2.24 -5,-5 0,-2.76 2.24,-5 5,-5 2.76,0 5,2.24 5,5 z"
         style="fill:#ffc400;fill-rule:evenodd;stroke:#ffc400;stroke-width:1pt"
         transform="matrix(0.2,0,0,0.2,1.48,0.2)"
         inkscape:connector-curvature="0" />
    </marker>
    <marker
       inkscape:stockid="DotSvS"
       orient="auto"
       refY="0"
       refX="0"
       id="DotSvS"
       style="overflow:visible">
      <path
         id="path6151"
         d="m -2.5,-1 c 0,2.76 -2.24,5 -5,5 -2.76,0 -5,-2.24 -5,-5 0,-2.76 2.24,-5 5,-5 2.76,0 5,2.24 5,5 z"
         style="fill:#ffc400;fill-rule:evenodd;stroke:#ffc400;stroke-width:1pt"
         transform="matrix(0.2,0,0,0.2,1.48,0.2)"
         inkscape:connector-curvature="0" />
    </marker>
    <marker
       inkscape:stockid="DotSsJ"
       orient="auto"
       refY="0"
       refX="0"
       id="DotSsJ"
       style="overflow:visible">
      <path
         id="path6154"
         d="m -2.5,-1 c 0,2.76 -2.24,5 -5,5 -2.76,0 -5,-2.24 -5,-5 0,-2.76 2.24,-5 5,-5 2.76,0 5,2.24 5,5 z"
         style="fill:#ffc400;fill-rule:evenodd;stroke:#ffc400;stroke-width:1pt"
         transform="matrix(0.2,0,0,0.2,1.48,0.2)"
         inkscape:connector-curvature="0" />
    </marker>
    <marker
       inkscape:stockid="DotSfb"
       orient="auto"
       refY="0"
       refX="0"
       id="DotSfb"
       style="overflow:visible">
      <path
         id="path6157"
         d="m -2.5,-1 c 0,2.76 -2.24,5 -5,5 -2.76,0 -5,-2.24 -5,-5 0,-2.76 2.24,-5 5,-5 2.76,0 5,2.24 5,5 z"
         style="fill:#ffc400;fill-rule:evenodd;stroke:#ffc400;stroke-width:1pt"
         transform="matrix(0.2,0,0,0.2,1.48,0.2)"
         inkscape:connector-curvature="0" />
    </marker>
    <marker
       inkscape:stockid="DotS7T"
       orient="auto"
       refY="0"
       refX="0"
       id="DotS7T"
       style="overflow:visible">
      <path
         id="path6160"
         d="m -2.5,-1 c 0,2.76 -2.24,5 -5,5 -2.76,0 -5,-2.24 -5,-5 0,-2.76 2.24,-5 5,-5 2.76,0 5,2.24 5,5 z"
         style="fill:#ffc400;fill-rule:evenodd;stroke:#ffc400;stroke-width:1pt"
         transform="matrix(0.2,0,0,0.2,1.48,0.2)"
         inkscape:connector-curvature="0" />
    </marker>
    <marker
       inkscape:stockid="DotSko"
       orient="auto"
       refY="0"
       refX="0"
       id="DotSko"
       style="overflow:visible">
      <path
         id="path6163"
         d="m -2.5,-1 c 0,2.76 -2.24,5 -5,5 -2.76,0 -5,-2.24 -5,-5 0,-2.76 2.24,-5 5,-5 2.76,0 5,2.24 5,5 z"
         style="fill:#ffc400;fill-rule:evenodd;stroke:#ffc400;stroke-width:1pt"
         transform="matrix(0.2,0,0,0.2,1.48,0.2)"
         inkscape:connector-curvature="0" />
    </marker>
    <marker
       inkscape:stockid="DotSKZ"
       orient="auto"
       refY="0"
       refX="0"
       id="DotSKZ"
       style="overflow:visible">
      <path
         id="path6166"
         d="m -2.5,-1 c 0,2.76 -2.24,5 -5,5 -2.76,0 -5,-2.24 -5,-5 0,-2.76 2.24,-5 5,-5 2.76,0 5,2.24 5,5 z"
         style="fill:#ffc400;fill-rule:evenodd;stroke:#ffc400;stroke-width:1pt"
         transform="matrix(0.2,0,0,0.2,1.48,0.2)"
         inkscape:connector-curvature="0" />
    </marker>
    <marker
       inkscape:stockid="DotSCa"
       orient="auto"
       refY="0"
       refX="0"
       id="DotSCa"
       style="overflow:visible">
      <path
         id="path6169"
         d="m -2.5,-1 c 0,2.76 -2.24,5 -5,5 -2.76,0 -5,-2.24 -5,-5 0,-2.76 2.24,-5 5,-5 2.76,0 5,2.24 5,5 z"
         style="fill:#ffc400;fill-rule:evenodd;stroke:#ffc400;stroke-width:1pt"
         transform="matrix(0.2,0,0,0.2,1.48,0.2)"
         inkscape:connector-curvature="0" />
    </marker>
    <marker
       inkscape:stockid="DotSLi"
       orient="auto"
       refY="0"
       refX="0"
       id="DotSLi"
       style="overflow:visible">
      <path
         id="path6172"
         d="m -2.5,-1 c 0,2.76 -2.24,5 -5,5 -2.76,0 -5,-2.24 -5,-5 0,-2.76 2.24,-5 5,-5 2.76,0 5,2.24 5,5 z"
         style="fill:#ffc400;fill-rule:evenodd;stroke:#ffc400;stroke-width:1pt"
         transform="matrix(0.2,0,0,0.2,1.48,0.2)"
         inkscape:connector-curvature="0" />
    </marker>
    <marker
       inkscape:stockid="marker5218bQ"
       orient="auto"
       refY="0"
       refX="0"
       id="marker5218bQ"
       style="overflow:visible">
      <path
         inkscape:connector-curvature="0"
         id="path6175"
         d="m -2.5,-1 c 0,2.76 -2.24,5 -5,5 -2.76,0 -5,-2.24 -5,-5 0,-2.76 2.24,-5 5,-5 2.76,0 5,2.24 5,5 z"
         style="fill:#ffc400;fill-rule:evenodd;stroke:#ffc400;stroke-width:1pt"
         transform="matrix(0.2,0,0,0.2,1.48,0.2)" />
    </marker>
    <marker
       inkscape:stockid="marker5218XM"
       orient="auto"
       refY="0"
       refX="0"
       id="marker5218XM"
       style="overflow:visible">
      <path
         inkscape:connector-curvature="0"
         id="path6178"
         d="m -2.5,-1 c 0,2.76 -2.24,5 -5,5 -2.76,0 -5,-2.24 -5,-5 0,-2.76 2.24,-5 5,-5 2.76,0 5,2.24 5,5 z"
         style="fill:#ffc400;fill-rule:evenodd;stroke:#ffc400;stroke-width:1pt"
         transform="matrix(0.2,0,0,0.2,1.48,0.2)" />
    </marker>
    <marker
       inkscape:stockid="DotSGn"
       orient="auto"
       refY="0"
       refX="0"
       id="DotSGn"
       style="overflow:visible">
      <path
         id="path6181"
         d="m -2.5,-1 c 0,2.76 -2.24,5 -5,5 -2.76,0 -5,-2.24 -5,-5 0,-2.76 2.24,-5 5,-5 2.76,0 5,2.24 5,5 z"
         style="fill:#ffc400;fill-rule:evenodd;stroke:#ffc400;stroke-width:1pt"
         transform="matrix(0.2,0,0,0.2,1.48,0.2)"
         inkscape:connector-curvature="0" />
    </marker>
    <marker
       inkscape:stockid="DotS5R"
       orient="auto"
       refY="0"
       refX="0"
       id="DotS5R"
       style="overflow:visible">
      <path
         id="path6184"
         d="m -2.5,-1 c 0,2.76 -2.24,5 -5,5 -2.76,0 -5,-2.24 -5,-5 0,-2.76 2.24,-5 5,-5 2.76,0 5,2.24 5,5 z"
         style="fill:#ffc400;fill-rule:evenodd;stroke:#ffc400;stroke-width:1pt"
         transform="matrix(0.2,0,0,0.2,1.48,0.2)"
         inkscape:connector-curvature="0" />
    </marker>
    <marker
       inkscape:stockid="DotSd7"
       orient="auto"
       refY="0"
       refX="0"
       id="DotSd7-9"
       style="overflow:visible">
      <path
         inkscape:connector-curvature="0"
         id="path6145-2"
         d="m -2.5,-1 c 0,2.76 -2.24,5 -5,5 -2.76,0 -5,-2.24 -5,-5 0,-2.76 2.24,-5 5,-5 2.76,0 5,2.24 5,5 z"
         style="fill:#ffc400;fill-rule:evenodd;stroke:#ffc400;stroke-width:1pt"
         transform="matrix(0.2,0,0,0.2,1.48,0.2)" />
    </marker>
    <marker
       inkscape:stockid="DotSyIp"
       orient="auto"
       refY="0"
       refX="0"
       id="DotSyIp-9"
       style="overflow:visible">
      <path
         inkscape:connector-curvature="0"
         id="path6148-2"
         d="m -2.5,-1 c 0,2.76 -2.24,5 -5,5 -2.76,0 -5,-2.24 -5,-5 0,-2.76 2.24,-5 5,-5 2.76,0 5,2.24 5,5 z"
         style="fill:#ffc400;fill-rule:evenodd;stroke:#ffc400;stroke-width:1pt"
         transform="matrix(0.2,0,0,0.2,1.48,0.2)" />
    </marker>
    <marker
       inkscape:stockid="DotSGn"
       orient="auto"
       refY="0"
       refX="0"
       id="DotSGn-0"
       style="overflow:visible">
      <path
         inkscape:connector-curvature="0"
         id="path6181-6"
         d="m -2.5,-1 c 0,2.76 -2.24,5 -5,5 -2.76,0 -5,-2.24 -5,-5 0,-2.76 2.24,-5 5,-5 2.76,0 5,2.24 5,5 z"
         style="fill:#ffc400;fill-rule:evenodd;stroke:#ffc400;stroke-width:1pt"
         transform="matrix(0.2,0,0,0.2,1.48,0.2)" />
    </marker>
    <marker
       inkscape:stockid="DotS5R"
       orient="auto"
       refY="0"
       refX="0"
       id="DotS5R-3"
       style="overflow:visible">
      <path
         inkscape:connector-curvature="0"
         id="path6184-9"
         d="m -2.5,-1 c 0,2.76 -2.24,5 -5,5 -2.76,0 -5,-2.24 -5,-5 0,-2.76 2.24,-5 5,-5 2.76,0 5,2.24 5,5 z"
         style="fill:#ffc400;fill-rule:evenodd;stroke:#ffc400;stroke-width:1pt"
         transform="matrix(0.2,0,0,0.2,1.48,0.2)" />
    </marker>
    <marker
       inkscape:stockid="marker5218bQ"
       orient="auto"
       refY="0"
       refX="0"
       id="marker5218bQ-7"
       style="overflow:visible">
      <path
         inkscape:connector-curvature="0"
         id="path6175-9"
         d="m -2.5,-1 c 0,2.76 -2.24,5 -5,5 -2.76,0 -5,-2.24 -5,-5 0,-2.76 2.24,-5 5,-5 2.76,0 5,2.24 5,5 z"
         style="fill:#ffc400;fill-rule:evenodd;stroke:#ffc400;stroke-width:1pt"
         transform="matrix(0.2,0,0,0.2,1.48,0.2)" />
    </marker>
    <marker
       inkscape:stockid="marker5218XM"
       orient="auto"
       refY="0"
       refX="0"
       id="marker5218XM-8"
       style="overflow:visible">
      <path
         inkscape:connector-curvature="0"
         id="path6178-2"
         d="m -2.5,-1 c 0,2.76 -2.24,5 -5,5 -2.76,0 -5,-2.24 -5,-5 0,-2.76 2.24,-5 5,-5 2.76,0 5,2.24 5,5 z"
         style="fill:#ffc400;fill-rule:evenodd;stroke:#ffc400;stroke-width:1pt"
         transform="matrix(0.2,0,0,0.2,1.48,0.2)" />
    </marker>
    <marker
       inkscape:stockid="marker5218bQ"
       orient="auto"
       refY="0"
       refX="0"
       id="marker5218bQ-9"
       style="overflow:visible">
      <path
         inkscape:connector-curvature="0"
         id="path6175-95"
         d="m -2.5,-1 c 0,2.76 -2.24,5 -5,5 -2.76,0 -5,-2.24 -5,-5 0,-2.76 2.24,-5 5,-5 2.76,0 5,2.24 5,5 z"
         style="fill:#ffc400;fill-rule:evenodd;stroke:#ffc400;stroke-width:1pt"
         transform="matrix(0.2,0,0,0.2,1.48,0.2)" />
    </marker>
    <marker
       inkscape:stockid="marker5218XM"
       orient="auto"
       refY="0"
       refX="0"
       id="marker5218XM-4"
       style="overflow:visible">
      <path
         inkscape:connector-curvature="0"
         id="path6178-29"
         d="m -2.5,-1 c 0,2.76 -2.24,5 -5,5 -2.76,0 -5,-2.24 -5,-5 0,-2.76 2.24,-5 5,-5 2.76,0 5,2.24 5,5 z"
         style="fill:#ffc400;fill-rule:evenodd;stroke:#ffc400;stroke-width:1pt"
         transform="matrix(0.2,0,0,0.2,1.48,0.2)" />
    </marker>
    <marker
       inkscape:stockid="DotSGn"
       orient="auto"
       refY="0"
       refX="0"
       id="DotSGn-08"
       style="overflow:visible">
      <path
         inkscape:connector-curvature="0"
         id="path6181-5"
         d="m -2.5,-1 c 0,2.76 -2.24,5 -5,5 -2.76,0 -5,-2.24 -5,-5 0,-2.76 2.24,-5 5,-5 2.76,0 5,2.24 5,5 z"
         style="fill:#ffc400;fill-rule:evenodd;stroke:#ffc400;stroke-width:1pt"
         transform="matrix(0.2,0,0,0.2,1.48,0.2)" />
    </marker>
    <marker
       inkscape:stockid="DotS5R"
       orient="auto"
       refY="0"
       refX="0"
       id="DotS5R-8"
       style="overflow:visible">
      <path
         inkscape:connector-curvature="0"
         id="path6184-1"
         d="m -2.5,-1 c 0,2.76 -2.24,5 -5,5 -2.76,0 -5,-2.24 -5,-5 0,-2.76 2.24,-5 5,-5 2.76,0 5,2.24 5,5 z"
         style="fill:#ffc400;fill-rule:evenodd;stroke:#ffc400;stroke-width:1pt"
         transform="matrix(0.2,0,0,0.2,1.48,0.2)" />
    </marker>
    <marker
       inkscape:stockid="marker4516Ct"
       orient="auto"
       refY="0"
       refX="0"
       id="marker4516Ct-0"
       style="overflow:visible">
      <path
         inkscape:connector-curvature="0"
         id="path6127-3"
         d="m -2.5,-1 c 0,2.76 -2.24,5 -5,5 -2.76,0 -5,-2.24 -5,-5 0,-2.76 2.24,-5 5,-5 2.76,0 5,2.24 5,5 z"
         style="fill:#ffc400;fill-rule:evenodd;stroke:#ffc400;stroke-width:1pt"
         transform="matrix(0.2,0,0,0.2,1.48,0.2)" />
    </marker>
    <marker
       inkscape:stockid="marker451623"
       orient="auto"
       refY="0"
       refX="0"
       id="marker451623-8"
       style="overflow:visible">
      <path
         inkscape:connector-curvature="0"
         id="path6130-8"
         d="m -2.5,-1 c 0,2.76 -2.24,5 -5,5 -2.76,0 -5,-2.24 -5,-5 0,-2.76 2.24,-5 5,-5 2.76,0 5,2.24 5,5 z"
         style="fill:#ffc400;fill-rule:evenodd;stroke:#ffc400;stroke-width:1pt"
         transform="matrix(0.2,0,0,0.2,1.48,0.2)" />
    </marker>
    <marker
       inkscape:stockid="marker5218bQ"
       orient="auto"
       refY="0"
       refX="0"
       id="marker5218bQ-0"
       style="overflow:visible">
      <path
         inkscape:connector-curvature="0"
         id="path6175-8"
         d="m -2.5,-1 c 0,2.76 -2.24,5 -5,5 -2.76,0 -5,-2.24 -5,-5 0,-2.76 2.24,-5 5,-5 2.76,0 5,2.24 5,5 z"
         style="fill:#ffc400;fill-rule:evenodd;stroke:#ffc400;stroke-width:1pt"
         transform="matrix(0.2,0,0,0.2,1.48,0.2)" />
    </marker>
    <marker
       inkscape:stockid="marker5218XM"
       orient="auto"
       refY="0"
       refX="0"
       id="marker5218XM-86"
       style="overflow:visible">
      <path
         inkscape:connector-curvature="0"
         id="path6178-7"
         d="m -2.5,-1 c 0,2.76 -2.24,5 -5,5 -2.76,0 -5,-2.24 -5,-5 0,-2.76 2.24,-5 5,-5 2.76,0 5,2.24 5,5 z"
         style="fill:#ffc400;fill-rule:evenodd;stroke:#ffc400;stroke-width:1pt"
         transform="matrix(0.2,0,0,0.2,1.48,0.2)" />
    </marker>
    <circle
       transform="matrix(0.8755829,0,0,0.8755829,152.4506,-680.83707)"
       id="path6572"
       style="fill:none;stroke:none"
       cx="675.71429"
       cy="777.58148"
       r="584.28571" />
    <circle
       transform="matrix(-1.1162727,-0.04357729,-0.04357729,1.1162727,1532.2608,-838.54723)"
       id="path6572-9"
       style="fill:none;stroke:none"
       cx="675.71429"
       cy="777.58148"
       r="584.28571" />
  </defs>
  <metadata
     id="metadata7">
    <rdf:RDF>
      <cc:Work
         rdf:about="">
        <dc:format>image/svg+xml</dc:format>
        <dc:type
           rdf:resource="http://purl.org/dc/dcmitype/StillImage" />
        <dc:title></dc:title>
      </cc:Work>
    </rdf:RDF>
  </metadata>
  <g
     inkscape:label="Ebene 1"
     inkscape:groupmode="layer"
     id="layer1"
     transform="translate(0,-783.07098)">
    <path
       id="path1730"
       style="color:#000000;font-style:normal;font-variant:normal;font-weight:normal;font-stretch:normal;font-size:medium;line-height:normal;font-family:sans-serif;font-variant-ligatures:normal;font-variant-position:normal;font-variant-caps:normal;font-variant-numeric:normal;font-variant-alternates:normal;font-variant-east-asian:normal;font-feature-settings:normal;font-variation-settings:normal;text-indent:0;text-align:start;text-decoration:none;text-decoration-line:none;text-decoration-style:solid;text-decoration-color:#000000;letter-spacing:normal;word-spacing:normal;text-transform:none;writing-mode:lr-tb;direction:ltr;text-orientation:mixed;dominant-baseline:auto;baseline-shift:baseline;text-anchor:start;white-space:normal;shape-padding:0;shape-margin:0;inline-size:0;clip-rule:nonzero;display:inline;overflow:visible;visibility:visible;isolation:auto;mix-blend-mode:normal;color-interpolation:sRGB;color-interpolation-filters:linearRGB;solid-color:#000000;solid-opacity:1;vector-effect:none;fill:#020203;fill-opacity:1;fill-rule:nonzero;stroke:none;stroke-width:1.99769;stroke-linecap:butt;stroke-linejoin:miter;stroke-miterlimit:4;stroke-dasharray:none;stroke-dashoffset:0;stroke-opacity:1;color-rendering:auto;image-rendering:auto;shape-rendering:auto;text-rendering:auto;enable-background:accumulate;stop-color:#000000"
       d="m 94.345313,783.07098 c -47.88526,0.0123 -88.9287297,36.31233 -93.85742974,84.9707 -5.25728996,51.90239 32.57426974,98.26031 84.47656974,103.51759 51.902337,5.25733 98.268097,-32.57419 103.525387,-84.47657 5.2573,-51.90237 -32.58012,-98.26233 -84.48242,-103.51953 -3.24298,-0.32855 -6.468787,-0.49304 -9.662107,-0.49219 z m 4.875,7.77735 10.316397,1.19335 c 0.27215,0.0315 0.42017,0.22005 0.38868,0.49219 l -0.2793,2.42188 c -0.0315,0.27214 -0.22004,0.42222 -0.49219,0.39062 l -2.90234,-0.33594 c -0.27215,-0.0315 -0.46069,0.11654 -0.49219,0.38868 l -1.44336,12.46679 c -0.0315,0.27214 -0.22004,0.42223 -0.49219,0.39063 l -2.74609,-0.31836 c -0.27216,-0.0315 -0.42213,-0.22005 -0.39063,-0.49219 l 1.44336,-12.4668 c 0.0315,-0.27214 -0.11652,-0.45863 -0.38867,-0.49023 l -2.904297,-0.33594 c -0.27215,-0.0315 -0.42017,-0.22004 -0.38867,-0.49218 l 0.2793,-2.42383 c 0.0315,-0.27222 0.22004,-0.42028 0.49219,-0.38867 z m -10.63086,0.27734 c 2.64831,0.16932 4.35137,1.88533 4.61914,4.63476 0.17578,1.80486 -0.39413,3.22496 -1.79883,4.2793 -0.12224,0.0906 -0.18002,0.17345 -0.16992,0.27735 0.0101,0.10388 0.0427,0.17918 0.0918,0.27929 l 3.14844,5.94531 c 0.14341,0.26127 0.21256,0.42549 0.22266,0.5293 0.0101,0.10389 -0.0833,0.21828 -0.29102,0.23828 l -3.14258,0.30664 c -0.10387,0.0102 -0.20046,-0.0471 -0.27929,-0.18359 l -3.12696,-5.85547 c -0.0646,-0.12442 -0.17415,-0.1659 -0.29101,-0.1543 l -2.2461,0.21875 c -0.27267,0.0266 -0.42502,0.2117 -0.39843,0.48438 l 0.54687,5.60937 c 0.0265,0.27268 -0.12576,0.45818 -0.39844,0.48438 l -2.7539,0.26758 c -0.27268,0.0266 -0.45779,-0.12576 -0.48438,-0.39844 l -1.53906,-15.80273 c -0.0266,-0.27261 0.12576,-0.45818 0.39844,-0.48438 l 6.70117,-0.65234 c 0.4155,-0.0405 0.81307,-0.0476 1.19141,-0.0234 z m 26.142577,1.8125 c 0.0509,-0.0196 0.12136,-0.0144 0.2207,0.0176 l 2.91797,0.93945 c 0.13659,0.044 0.25348,0.1503 0.30078,0.34375 l 0.67969,4.05664 c 0.16945,1.26081 0.26315,2.63299 0.11914,3.08008 l 0.12304,0.041 c 0.14001,-0.43468 0.90424,-1.53175 1.80664,-2.46093 l 2.85938,-2.91602 c 0.11409,-0.14162 0.29575,-0.15143 0.41992,-0.11133 l 3.12891,1.00782 c 0.1614,0.052 0.26665,0.15437 0.22265,0.29101 -0.02,0.062 -0.0657,0.11534 -0.12695,0.17774 l -7.56055,7.47461 -2.02539,6.2832 c -0.084,0.26076 -0.29781,0.36915 -0.55859,0.28515 l -2.63086,-0.84765 c -0.26078,-0.084 -0.37111,-0.29779 -0.28711,-0.5586 l 2.02539,-6.2832 -1.76562,-10.47851 c -0.0133,-0.0865 0.007,-0.14854 0.0273,-0.21094 0.022,-0.0681 0.0527,-0.11123 0.10352,-0.13086 z m -41.923827,0.54101 c 0.17401,0.007 0.31095,0.11724 0.375,0.3125 l 0.75976,2.31836 c 0.0854,0.26027 -0.0229,0.4732 -0.2832,0.5586 l -6.22266,2.04101 c -0.26031,0.0854 -0.36859,0.30021 -0.2832,0.56055 l 0.75976,2.31836 c 0.0854,0.26006 0.30023,0.3686 0.56055,0.2832 l 5.10742,-1.67578 c 0.26032,-0.0854 0.4732,0.0229 0.5586,0.2832 l 0.76172,2.31836 c 0.0854,0.26027 -0.0229,0.4732 -0.28321,0.5586 l -5.10742,1.67578 c -0.26032,0.0854 -0.36859,0.3002 -0.2832,0.56055 l 0.80078,2.4414 c 0.0854,0.26006 0.29828,0.3686 0.55859,0.28321 l 6.22461,-2.04102 c 0.26032,-0.0854 0.47319,0.0228 0.5586,0.2832 l 0.75976,2.31836 c 0.0854,0.26035 -0.0229,0.4732 -0.2832,0.5586 l -9.69336,3.17968 c -0.26032,0.0854 -0.4732,-0.0229 -0.55859,-0.2832 l -4.94922,-15.08594 c -0.0854,-0.26035 0.0229,-0.47319 0.2832,-0.55859 l 9.69336,-3.17969 c 0.0651,-0.0213 0.12754,-0.0315 0.18555,-0.0293 z m 15.32617,0.97266 c -0.12184,-0.009 -0.24678,-0.009 -0.375,0.004 l -3.10352,0.30273 c -0.27268,0.0266 -0.42503,0.2117 -0.39844,0.48438 l 0.27344,2.80468 c 0.0266,0.27268 0.2117,0.42464 0.48438,0.39844 l 3.10351,-0.30273 c 0.9998,-0.0973 1.74995,-0.8769 1.66016,-1.79883 l -0.0449,-0.45508 c -0.0786,-0.80662 -0.74676,-1.37491 -1.59961,-1.4375 z m -33.08399,6.68555 c 1.63287,0.0348 2.98955,0.98476 3.98047,2.68164 l 0.20508,0.34961 c 1.32891,2.27568 1.05316,5.32169 -2.04492,7.13086 l -2.16406,1.26367 c -0.23658,0.13819 -0.29636,0.37089 -0.15821,0.60742 l 2.63672,4.51758 c 0.13816,0.23654 0.0784,0.46728 -0.1582,0.60547 l -2.38867,1.39453 c -0.23658,0.13811 -0.46927,0.0784 -0.60743,-0.1582 l -8.00585,-13.71094 c -0.13816,-0.23661 -0.0764,-0.46931 0.16015,-0.60742 l 5.32813,-3.11133 c 1.15755,-0.67598 2.23707,-0.98377 3.21679,-0.96289 z m 84.029297,2.80664 c 1.08854,-0.037 2.29884,0.34884 3.58203,1.22265 l 1.54102,1.04883 c 3.04086,2.07075 3.431,4.4673 1.77148,6.9043 l -4.42773,6.50195 c -1.59344,2.33997 -4.13924,2.88012 -7.07227,0.88282 l -1.54297,-1.05079 c -3.04086,-2.07075 -3.42905,-4.46534 -1.76953,-6.90234 l 4.42774,-6.50391 c 0.89217,-1.31016 2.09068,-2.05589 3.49023,-2.10351 z m -84.478517,0.72265 c -0.34426,-0.0127 -0.69945,0.0786 -1.0332,0.27344 l -2.23047,1.30274 c -0.23658,0.13819 -0.29831,0.37089 -0.16015,0.60742 l 1.57226,2.6914 c 0.13816,0.23651 0.37084,0.29835 0.60742,0.16016 l 2.23047,-1.30273 c 0.89,-0.51969 1.22912,-1.51895 0.66992,-2.47657 l -0.1914,-0.32617 c -0.3495,-0.5985 -0.89108,-0.90845 -1.46485,-0.92969 z m 85.193367,2.94336 c -0.54971,0.015 -1.06664,0.31961 -1.40625,0.81836 l -3.98633,5.85547 c -0.58009,0.85187 -0.44953,1.83981 0.40234,2.41992 l 1.54297,1.05079 c 0.86265,0.58744 1.84967,0.29699 2.40039,-0.51172 l 3.98633,-5.85547 c 0.58009,-0.85187 0.44954,-1.84176 -0.40235,-2.42188 l -1.54296,-1.04883 c -0.3235,-0.22029 -0.66432,-0.31564 -0.99414,-0.30664 z m -100.160157,3.92969 c 1.19328,-0.007 2.30295,0.56857 3.30859,1.64649 l 5.36524,5.75195 c 1.93118,2.07006 1.8974,4.67309 -0.69727,7.09375 l -1.36523,1.27148 c -2.69006,2.5096 -5.11177,2.361 -7.12305,0.20508 l -5.36719,-5.75195 c -1.92228,-2.06043 -1.89545,-4.67114 0.69922,-7.0918 l 1.36328,-1.27344 c 1.34503,-1.25484 2.62313,-1.8445 3.81641,-1.85156 z m 55.01172,2.6211 c 34.936177,4.5e-4 63.234717,28.30209 63.234367,63.23828 -5.4e-4,34.93549 -28.29881,63.23391 -63.234367,63.23437 -25.74471,-3.1e-4 -48.91466,-15.60187 -58.59571,-39.45703 l -0.89843,-2.21679 -5.82032,13.5664 -8.8164,1.34961 -9.09961,-19.02148 3.25,-4.77149 9.47656,-0.11914 7.75781,-20.43359 0.0156,-0.11719 c 4.02062,-31.59059 30.88505,-55.25188 62.73047,-55.25195 z m 59.533197,0.50781 c 0.10834,0.003 0.21486,0.0544 0.3086,0.15429 l 6.98046,7.44141 c 0.18747,0.19977 0.17833,0.43952 -0.0215,0.62695 l -1.7793,1.66797 c -0.19982,0.18747 -0.43951,0.18031 -0.62695,-0.0195 l -4.48047,-4.77734 c -0.18744,-0.19973 -0.42715,-0.20697 -0.62695,-0.0195 l -2.2168,2.08007 c -0.19978,0.18743 -0.20697,0.42712 -0.0195,0.62696 l 3.67773,3.91992 c 0.18748,0.19977 0.17834,0.43952 -0.0215,0.62695 l -1.7793,1.66992 c -0.19981,0.18747 -0.43951,0.17836 -0.62695,-0.0215 l -3.66797,-3.91016 c -0.19636,-0.20911 -0.43495,-0.21673 -0.63477,-0.0293 l -3.86328,3.62304 c -0.19981,0.18748 -0.43952,0.18032 -0.62695,-0.0195 l -1.89258,-2.01758 c -0.18747,-0.19976 -0.18028,-0.43951 0.0195,-0.62695 l 11.58008,-10.86133 c 0.0999,-0.0937 0.21002,-0.13822 0.31836,-0.13476 z m -114.847657,0.67969 c -0.43052,-0.0288 -0.86734,0.125 -1.24414,0.47656 l -1.36328,1.27148 c -0.76313,0.7119 -0.68981,1.74918 -0.0312,2.45508 l 4.83399,5.17969 c 0.70305,0.7536 1.69562,0.84367 2.44921,0.14062 l 1.36524,-1.27343 c 0.76314,-0.712 0.69675,-1.73768 0.0293,-2.45313 l -4.83204,-5.17969 c -0.35152,-0.3768 -0.7765,-0.58841 -1.20703,-0.61718 z m -11.8789,10.34765 c 0.96903,0.0141 1.97289,0.34774 2.95703,1.00586 1.50738,1.00802 2.24285,2.34679 2.16797,4.10156 -0.007,0.1519 0.0226,0.2508 0.10937,0.3086 0.0868,0.0584 0.16493,0.0801 0.27344,0.10547 l 6.5957,1.33398 c 0.29301,0.0547 0.46208,0.10431 0.54883,0.16211 0.0867,0.058 0.11604,0.20338 0,0.37695 l -1.75586,2.625 c -0.058,0.0869 -0.16281,0.12501 -0.31836,0.0996 l -6.51172,-1.29297 c -0.13745,-0.0291 -0.23746,0.0294 -0.30273,0.12696 l -1.25586,1.875 c -0.1523,0.22775 -0.10469,0.46294 0.12305,0.61523 l 4.68554,3.13281 c 0.22774,0.15229 0.27339,0.38749 0.1211,0.61524 l -1.53711,2.29883 c -0.1523,0.22775 -0.3875,0.27533 -0.61524,0.12304 l -13.19726,-8.82617 c -0.22774,-0.1523 -0.27534,-0.38748 -0.12305,-0.61523 l 3.74219,-5.59571 c 1.16034,-1.73512 2.67791,-2.59962 4.29297,-2.57617 z m -0.0801,3.51758 c -0.53632,0.0308 -1.06771,0.33954 -1.42578,0.875 l -1.73242,2.5918 c -0.1523,0.22767 -0.10665,0.46294 0.12109,0.61523 l 2.3418,1.56641 c 0.22773,0.15229 0.46294,0.10665 0.61523,-0.1211 l 1.73438,-2.59179 c 0.55841,-0.83499 0.43011,-1.91087 -0.33985,-2.42578 l -0.38084,-0.25391 c -0.28873,-0.1931 -0.6118,-0.27433 -0.93359,-0.25586 z m 141.255857,2.875 c 0.0542,0.0197 0.10487,0.0592 0.13477,0.11719 l 1.54296,2.99218 c 0.1017,0.19708 0.10332,0.34311 0.0117,0.47852 l -2.54492,3.48633 v -0.004 c -0.24121,0.30066 -1.03481,1.2671 -1.33398,1.59766 l 0.0351,0.0703 c 0.88593,-0.53072 1.68495,-0.57556 3.5918,-0.66406 l 2.57422,0.008 c 0.17501,-0.002 0.29315,0.11307 0.37695,0.27539 l 1.6211,3.14063 c 0.0658,0.12747 -0.009,0.2686 -0.10157,0.3164 -0.058,0.0301 -0.13303,0.0525 -0.17382,0.0606 l -9.18165,-0.26758 c -0.0759,-0.005 -0.15122,-0.008 -0.23242,0.0332 -0.0811,0.0419 -0.11651,0.11898 -0.16211,0.20118 l -4.78906,7.27148 c -0.0457,0.0824 -0.0749,0.11248 -0.13281,0.14258 -0.12753,0.0658 -0.25214,-0.031 -0.33594,-0.19336 l -1.56641,-3.03906 c -0.13161,-0.25503 -0.0873,-0.42483 0.0391,-0.57813 l 2.59375,-3.45117 c 0.24121,-0.30066 0.90004,-1.1557 1.19922,-1.48633 l -0.0352,-0.0684 c -0.6608,0.34104 -1.9711,0.53535 -3.4707,0.52735 l -2.59766,0.008 c -0.20419,0.003 -0.37423,-0.0711 -0.50586,-0.32617 l -1.54297,-2.99024 c -0.0957,-0.18551 -0.0806,-0.29778 0.0469,-0.36328 0.058,-0.0298 0.14089,-0.0451 0.21679,-0.0371 l 9.27539,0.27735 c 0.10508,0.004 0.18029,-0.0188 0.23829,-0.0488 0.0812,-0.0419 0.12601,-0.0955 0.16601,-0.16016 l 4.74024,-7.20312 c 0.0228,-0.041 0.075,-0.081 0.14453,-0.11719 0.0464,-0.0239 0.10397,-0.0256 0.1582,-0.006 z m -50.20898,0.28516 a 3.1962492,3.1962492 0 0 0 -3.17188,3.2207 l 0.0312,4.14844 a 3.1962492,3.1962492 0 0 0 -3.07031,-2.29883 v -0.002 l -37.427737,0.0508 a 3.1965688,3.1965688 0 0 0 -2.07617,0.76953 l -4.66211,3.99414 a 3.1962492,3.1962492 0 0 0 -0.34961,4.50781 3.1962492,3.1962492 0 0 0 4.50781,0.34766 l 3.76758,-3.22852 36.246097,-0.0469 a 3.1962492,3.1962492 0 0 0 3.07812,-2.35157 l 0.0488,6.36329 -56.874997,0.0527 a 3.1965688,3.1965688 0 0 0 -3.19141,3.27148 l 0.57227,24.81055 a 3.1965688,3.1965688 0 0 0 3.19531,3.12305 h 3.83594 l 0.0234,1.52148 a 3.1962492,3.1962492 0 0 0 2.11914,2.96094 l 0.56054,5.48047 -6.16797,-0.01 a 3.1965688,3.1965688 0 0 0 -3.19921,3.17578 l -0.13086,20.64257 a 3.1965688,3.1965688 0 0 0 3.18359,3.2168 l 81.542967,0.33399 a 3.1965688,3.1965688 0 0 0 3.20898,-3.16797 l 0.57227,-62.2129 a 3.1965688,3.1965688 0 0 0 -3.20117,-3.22461 l -19.65625,0.0176 -0.0918,-12.29492 a 3.1962492,3.1962492 0 0 0 -3.22265,-3.17187 z m 0,1.20312 a 1.997657,1.997657 0 0 1 0.0488,0 1.997657,1.997657 0 0 1 1.99805,1.99805 1.997657,1.997657 0 0 1 -1.99805,1.99804 1.997657,1.997657 0 0 1 -1.99804,-1.99804 1.997657,1.997657 0 0 1 1.94922,-1.99805 z m -6.42969,5.03516 a 1.997657,1.997657 0 0 1 0.0488,0 1.997657,1.997657 0 0 1 1.99804,1.99804 1.997657,1.997657 0 0 1 -1.99804,1.99805 1.997657,1.997657 0 0 1 -1.99805,-1.99805 1.997657,1.997657 0 0 1 1.94922,-1.99804 z m -93.324217,2.9707 c 0.66478,0.0181 1.37008,0.17048 2.10351,0.45313 l 0.37696,0.14453 c 2.45899,0.94767 4.14559,3.49998 2.85547,6.84765 l -0.9004,2.33789 c -0.0985,0.25565 -0.002,0.47367 0.25391,0.57227 l 4.88086,1.88086 c 0.25559,0.0985 0.35438,0.31857 0.25586,0.57422 l -0.99609,2.58008 c -0.0985,0.25441 -0.31663,0.3524 -0.57227,0.2539 l -14.81445,-5.70898 c -0.25559,-0.0985 -0.35438,-0.31663 -0.25586,-0.57227 l 2.21875,-5.75781 c 0.96407,-2.50163 2.59939,-3.65969 4.59375,-3.60547 z m 51.50976,0.9707 a 1.997657,1.997657 0 0 1 0.0488,0 1.997657,1.997657 0 0 1 1.99805,1.99805 1.997657,1.997657 0 0 1 -1.99805,1.99609 1.997657,1.997657 0 0 1 -1.99805,-1.99609 1.997657,1.997657 0 0 1 1.94922,-1.99805 z m -51.36718,2.58203 c -0.72269,0.0131 -1.32946,0.46623 -1.60743,1.1875 l -0.92968,2.41016 c -0.0985,0.25565 -0.002,0.47572 0.2539,0.57422 l 2.91016,1.12109 c 0.25564,0.0986 0.4757,-2.2e-4 0.57422,-0.25586 l 0.92773,-2.41015 c 0.37062,-0.9617 0.0113,-1.9528 -1.02344,-2.35156 l -0.35156,-0.13477 c -0.25868,-0.0997 -0.51301,-0.145 -0.7539,-0.14063 z m 122.193357,4.23438 a 1.997657,1.997657 0 0 1 0.0469,0 1.997657,1.997657 0 0 1 1.99805,1.99805 1.997657,1.997657 0 0 1 -1.99805,1.99804 1.997657,1.997657 0 0 1 -1.99609,-1.99804 1.997657,1.997657 0 0 1 1.94922,-1.99805 z m -82.205077,0.16797 a 1.997657,1.997657 0 0 1 0.0488,0 1.997657,1.997657 0 0 1 1.99804,1.99805 1.997657,1.997657 0 0 1 -1.99804,1.99804 1.997657,1.997657 0 0 1 -1.99805,-1.99804 1.997657,1.997657 0 0 1 1.94922,-1.99805 z m 118.029297,0.57812 c 0.17313,0.0186 0.30304,0.13675 0.35351,0.33594 l 0.67774,2.68164 c 0.0673,0.26552 -0.0547,0.47206 -0.32032,0.53906 l -5.52734,1.39844 c -0.2656,0.0672 -0.38761,0.27347 -0.32031,0.53906 l 1.16797,4.61719 c 0.0673,0.26558 0.27348,0.38731 0.53906,0.32031 l 5.52734,-1.39843 c 0.26558,-0.0673 0.47176,0.0547 0.53906,0.32031 l 0.67774,2.68164 c 0.0673,0.26558 -0.0547,0.47206 -0.32031,0.53906 l -15.51758,3.92969 c -0.26558,0.0672 -0.47176,-0.0567 -0.53906,-0.32227 l -0.67969,-2.68164 c -0.0673,-0.26559 0.0567,-0.47001 0.32226,-0.53711 l 5.90625,-1.49609 c 0.2656,-0.0672 0.38762,-0.27347 0.32032,-0.53906 l -1.16797,-4.61719 c -0.0673,-0.26558 -0.27349,-0.38731 -0.53906,-0.32031 l -5.90626,1.49609 c -0.26557,0.0672 -0.47176,-0.0567 -0.53906,-0.32226 l -0.67968,-2.67969 c -0.0673,-0.26559 0.0567,-0.47206 0.32226,-0.53906 l 15.51758,-3.92969 c 0.0664,-0.0168 0.12783,-0.0218 0.18555,-0.0156 z m -28.69727,6.97852 a 3.1962492,3.1962492 0 0 0 -3.23047,3.16211 l -0.19141,17.625 a 3.1962492,3.1962492 0 0 0 3.16407,3.23047 3.1962492,3.1962492 0 0 0 3.23047,-3.16211 l 0.18945,-17.625 a 3.1962492,3.1962492 0 0 0 -3.16211,-3.23047 z m -23.06055,0.83789 a 4.4006831,4.4668746 0 0 1 0.0586,0 4.4006831,4.4668746 0 0 1 4.40234,4.4668 4.4006831,4.4668746 0 0 1 -4.40234,4.46679 4.4006831,4.4668746 0 0 1 -4.40039,-4.46679 4.4006831,4.4668746 0 0 1 4.34179,-4.4668 z m 22.97852,0.4375 a 1.997657,1.997657 0 0 1 0.0488,0 1.997657,1.997657 0 0 1 1.99804,1.99805 1.997657,1.997657 0 0 1 -1.99804,1.99804 1.997657,1.997657 0 0 1 -1.99805,-1.99804 1.997657,1.997657 0 0 1 1.94922,-1.99805 z m -131.894507,5.84961 c 0.0399,0.003 0.0752,0.0244 0.10937,0.0547 0.0342,0.0303 0.068,0.0706 0.10352,0.12109 0.071,0.10098 0.14761,0.24127 0.22851,0.4082 0.16181,0.33386 0.34157,0.77658 0.51758,1.22657 0.17601,0.45 0.34775,0.90713 0.49609,1.26757 0.0742,0.18022 0.14232,0.33676 0.20118,0.45508 0.0588,0.11832 0.11356,0.19986 0.14062,0.22266 0.0271,0.0228 0.11751,0.0618 0.24414,0.0996 0.12663,0.0378 0.29219,0.0768 0.48242,0.11914 0.38048,0.0847 0.8586,0.17879 1.33203,0.27539 0.47344,0.0966 0.9403,0.19639 1.29688,0.29883 0.17829,0.0512 0.32979,0.10355 0.44141,0.15625 0.0558,0.0264 0.10103,0.0516 0.13671,0.0801 0.0357,0.0286 0.0627,0.0608 0.0723,0.0996 0.01,0.0388 6.6e-4,0.0772 -0.0176,0.11915 -0.0182,0.0419 -0.0469,0.0873 -0.084,0.13671 -0.0741,0.0987 -0.18265,0.21522 -0.31641,0.34375 -0.26752,0.25705 -0.63423,0.56465 -1.00781,0.8711 -0.37358,0.30645 -0.75382,0.61081 -1.05078,0.86328 -0.14848,0.12623 -0.27676,0.23953 -0.3711,0.33203 -0.0944,0.0925 -0.15466,0.16837 -0.16796,0.20117 -0.0134,0.0328 -0.0227,0.13157 -0.0195,0.26367 0.003,0.13211 0.0147,0.30209 0.0332,0.4961 0.0371,0.38801 0.0979,0.87339 0.15234,1.35351 0.0544,0.48012 0.10248,0.95539 0.11524,1.32618 0.006,0.1854 0.004,0.34435 -0.0117,0.46679 -0.008,0.0612 -0.0171,0.11355 -0.0332,0.15625 -0.0161,0.0427 -0.0383,0.0766 -0.0723,0.0977 -0.0339,0.0211 -0.0737,0.0255 -0.11914,0.0215 -0.0455,-0.004 -0.0979,-0.0191 -0.15625,-0.0391 -0.11679,-0.04 -0.26026,-0.10781 -0.42383,-0.19531 -0.32714,-0.17499 -0.73178,-0.4269 -1.13867,-0.6875 -0.40689,-0.26059 -0.81656,-0.52997 -1.14844,-0.73438 -0.16594,-0.1022 -0.31253,-0.18694 -0.42969,-0.24804 -0.11715,-0.0611 -0.20887,-0.0966 -0.24414,-0.0996 -0.0353,-0.002 -0.1312,0.0186 -0.25586,0.0625 -0.12465,0.0439 -0.28215,0.10794 -0.46094,0.18554 -0.35756,0.15516 -0.80043,0.36239 -1.24023,0.5625 -0.4398,0.20011 -0.87591,0.39478 -1.22461,0.52149 -0.17435,0.0634 -0.32598,0.10981 -0.44726,0.13281 -0.0606,0.0118 -0.11454,0.0157 -0.16016,0.0137 -0.0456,-0.002 -0.0847,-0.0114 -0.11524,-0.0371 -0.0306,-0.0257 -0.0468,-0.0628 -0.0566,-0.10742 -0.01,-0.0446 -0.0146,-0.0985 -0.0137,-0.16016 0.002,-0.12342 0.024,-0.28028 0.0566,-0.46289 0.0653,-0.3652 0.18063,-0.82936 0.30274,-1.29687 0.1221,-0.4675 0.24994,-0.93761 0.34179,-1.31641 0.0459,-0.1894 0.0835,-0.35602 0.10547,-0.48633 0.0219,-0.13031 0.0261,-0.22937 0.0176,-0.26367 -0.008,-0.0343 -0.0584,-0.11765 -0.13867,-0.22265 -0.0802,-0.105 -0.19128,-0.2348 -0.32031,-0.38086 -0.25806,-0.29211 -0.59175,-0.64942 -0.91797,-1.00586 -0.32623,-0.35644 -0.64479,-0.71339 -0.87305,-1.00586 -0.1141297,-0.14624 -0.2043597,-0.27652 -0.2636697,-0.38477 -0.0297,-0.0541 -0.0523,-0.10248 -0.0644,-0.14648 -0.0121,-0.044 -0.015,-0.0841 0,-0.1211 0.015,-0.0371 0.0466,-0.0648 0.0859,-0.0879 0.0394,-0.0232 0.0875,-0.0423 0.14649,-0.0605 0.1179697,-0.0364 0.2752197,-0.0664 0.4589797,-0.0918 0.36752,-0.0508 0.84382,-0.083 1.32617,-0.11133 0.48236,-0.0283 0.97074,-0.0523 1.35938,-0.082 0.19432,-0.0148 0.36343,-0.0314 0.49414,-0.0508 0.13071,-0.0194 0.22584,-0.0457 0.25586,-0.0645 0.03,-0.0187 0.0949,-0.0905 0.16992,-0.19922 0.0751,-0.10875 0.16463,-0.25403 0.26367,-0.42188 0.19808,-0.33569 0.43369,-0.76318 0.67188,-1.18359 0.23818,-0.4204 0.47792,-0.83316 0.68554,-1.14063 0.10382,-0.15373 0.20053,-0.28119 0.28516,-0.37109 0.0423,-0.0449 0.081,-0.0804 0.11914,-0.10547 0.0381,-0.0251 0.0754,-0.0421 0.11524,-0.0391 z m 57.14648,0.082 a 1.997657,1.997657 0 0 1 0.002,0 1.997657,1.997657 0 0 1 0.0469,0 1.997657,1.997657 0 0 1 1.99805,1.99805 1.997657,1.997657 0 0 1 -1.99805,1.99804 1.997657,1.997657 0 0 1 -1.99805,-1.99804 1.997657,1.997657 0 0 1 1.94922,-1.99805 z m 32.644527,0.0918 a 1.997657,1.997657 0 0 1 0.0488,0 1.997657,1.997657 0 0 1 1.99805,1.99804 1.997657,1.997657 0 0 1 -1.99805,1.99805 1.997657,1.997657 0 0 1 -1.99805,-1.99805 1.997657,1.997657 0 0 1 1.94922,-1.99804 z m -29.539057,4.93554 26.664057,0.10547 0.0234,19.69141 -36.662107,-0.0566 0.59375,-5.42969 a 3.1962492,3.1962492 0 0 0 2.26953,-3.10742 l -0.0215,-1.42578 h 4.04687 a 3.1965688,3.1965688 0 0 0 3.19531,-3.25 z m 88.099607,0.0293 c 0.0652,-7e-4 0.18245,0.0215 0.24805,0.0469 0.0393,0.0126 16.24218,4.55468 16.24218,4.55468 0.18332,0.0497 0.2773,0.21838 0.2793,0.41407 l 0.0527,3.95312 c 0.003,0.19568 -0.0857,0.3652 -0.26758,0.41993 l -16.21485,5.00976 c -0.0779,0.0277 -0.10337,0.0268 -0.14257,0.0273 -0.13047,0.002 -0.19722,-0.0875 -0.19922,-0.2832 l -0.0449,-3.23633 c -0.002,-0.14351 0.0615,-0.23459 0.19141,-0.27539 l 2.30078,-0.64453 c 0.12996,-0.0408 0.15435,-0.10704 0.15235,-0.30273 l -0.0684,-5.02149 c -0.003,-0.20868 -0.0292,-0.26183 -0.16016,-0.29883 l -2.31641,-0.58203 c -0.13102,-0.0374 -0.19721,-0.12733 -0.19921,-0.25781 l -0.0449,-3.2207 c -0.003,-0.1956 0.061,-0.30274 0.19141,-0.30274 z m -39.53516,3.09375 a 9.8624134,10.010757 0 0 1 9.86133,10.01172 9.8624134,10.010757 0 0 1 -9.86133,10.00977 9.8624134,10.010757 0 0 1 -9.86328,-10.00977 9.8624134,10.010757 0 0 1 9.86328,-10.01172 z m -74.910147,0.94141 a 3.1965688,3.1965688 0 0 0 -2.95118,1.99218 l -4.77148,11.75587 -3.60742,-11.39063 a 3.1965688,3.1965688 0 0 0 -6.03906,-0.1582 l -8.67188,23.07812 -1.62305,-3.38281 a 3.1962492,3.1962492 0 0 0 -4.26562,-1.49805 3.1962492,3.1962492 0 0 0 -1.4961,4.26368 l 4.86524,10.13086 a 3.1965688,3.1965688 0 0 0 5.87305,-0.25782 l 8.05273,-21.43554 3.49023,11.02539 a 3.1965688,3.1965688 0 0 0 6.00782,0.23828 l 6.2207,-15.31446 5.18359,5.58008 a 3.1962492,3.1962492 0 0 0 4.51563,0.16602 3.1962492,3.1962492 0 0 0 0.16601,-4.51758 l -8.5957,-9.25586 a 3.1965688,3.1965688 0 0 0 -2.35351,-1.01953 z m 120.470697,1.27343 c -0.10067,0.0142 -0.1585,0.0973 -0.15625,0.27344 l 0.041,3.06446 c 0.003,0.23472 0.11024,0.31113 0.27929,0.26953 l 5.61328,-1.57617 0.53516,-0.0723 -0.006,-0.45703 -0.53711,-0.0566 -5.6543,-1.4375 c -0.0425,-0.009 -0.0817,-0.0125 -0.11523,-0.008 z m -22.66992,1.23048 a 1.997657,1.997657 0 0 1 0.0469,0 1.997657,1.997657 0 0 1 1.99805,1.99609 1.997657,1.997657 0 0 1 -1.99805,1.99805 1.997657,1.997657 0 0 1 -1.99609,-1.99805 1.997657,1.997657 0 0 1 1.94922,-1.99609 z m -81.845707,2.38085 a 1.997657,1.997657 0 0 1 0.0488,0 1.997657,1.997657 0 0 1 1.99805,1.99805 1.997657,1.997657 0 0 1 -1.99805,1.99805 1.997657,1.997657 0 0 1 -1.99804,-1.99805 1.997657,1.997657 0 0 1 1.94921,-1.99805 z m -7.44336,5.53907 a 1.997657,1.997657 0 0 1 0.0488,0 1.997657,1.997657 0 0 1 1.99805,1.99804 1.997657,1.997657 0 0 1 -1.99805,1.9961 1.997657,1.997657 0 0 1 -1.99804,-1.9961 1.997657,1.997657 0 0 1 1.94921,-1.99804 z m 105.738287,2.62695 15.81836,2.44922 c 0.27074,0.0419 0.41299,0.23713 0.37109,0.50781 l -0.42383,2.73242 c -0.0419,0.27071 -0.23513,0.4127 -0.50586,0.3711 l -15.81836,-2.45117 c -0.27074,-0.0419 -0.41299,-0.23511 -0.37109,-0.50586 l 0.42383,-2.73243 c 0.0419,-0.27071 0.23513,-0.41269 0.50586,-0.37109 z m -58.25196,3.79688 a 1.997657,1.997657 0 0 1 0.002,0 1.997657,1.997657 0 0 1 0.0469,0 1.997657,1.997657 0 0 1 1.99805,1.99804 1.997657,1.997657 0 0 1 -1.99805,1.99805 1.997657,1.997657 0 0 1 -1.99804,-1.99805 1.997657,1.997657 0 0 1 1.94921,-1.99804 z m -46.486327,0.16796 a 1.997657,1.997657 0 0 1 0.0488,0 1.997657,1.997657 0 0 1 1.9961,1.99805 1.997657,1.997657 0 0 1 -1.9961,1.99609 1.997657,1.997657 0 0 1 -1.99804,-1.99609 1.997657,1.997657 0 0 1 1.94921,-1.99805 z m 103.351567,3.85157 c 0.058,-0.002 0.1207,0.007 0.18555,0.0293 l 15.15625,5.14844 c 0.25942,0.0881 0.36544,0.30307 0.27734,0.5625 l -0.82227,2.42188 c -0.0546,0.16054 -0.15856,0.26262 -0.29492,0.29882 l -10.22265,2.0254 c -0.59481,0.12865 -1.3988,0.23065 -1.57618,0.22265 l -0.0351,0.0977 c 1.27818,0.1311 3.33852,0.59811 4.73437,1.07226 l 5.07813,1.72461 c 0.25942,0.0881 0.36544,0.30316 0.27734,0.5625 l -0.89062,2.61914 c -0.0881,0.25961 -0.3031,0.36545 -0.5625,0.27735 l -15.15625,-5.15039 c -0.25942,-0.0881 -0.36545,-0.30307 -0.27735,-0.5625 l 0.81446,-2.39649 c 0.0546,-0.16054 0.14046,-0.25413 0.32226,-0.30273 l 9.92383,-2.19532 c 0.63187,-0.11641 1.21232,-0.16739 1.26172,-0.15039 l 0.0352,-0.0977 c -0.77124,-0.0415 -2.54781,-0.45218 -4.16601,-1.00196 l -5.05274,-1.71679 c -0.25942,-0.0882 -0.36544,-0.30308 -0.27734,-0.5625 l 0.89063,-2.61914 c 0.0661,-0.1947 0.20288,-0.3019 0.37695,-0.30664 z m -143.441407,0.45507 a 1.997657,1.997657 0 0 1 0.0488,0 1.997657,1.997657 0 0 1 1.99609,1.99805 1.997657,1.997657 0 0 1 -1.99609,1.99805 1.997657,1.997657 0 0 1 -1.99805,-1.99805 1.997657,1.997657 0 0 1 1.94922,-1.99805 z m 40.12109,15.91211 a 1.997657,1.997657 0 0 1 0.0469,0 1.997657,1.997657 0 0 1 1.99805,1.9961 1.997657,1.997657 0 0 1 -1.99805,1.99805 1.997657,1.997657 0 0 1 -1.99609,-1.99805 1.997657,1.997657 0 0 1 1.94921,-1.9961 z m 80.943367,0.2793 a 1.997657,1.997657 0 0 1 0.0488,0 1.997657,1.997657 0 0 1 1.99805,1.99805 1.997657,1.997657 0 0 1 -1.99805,1.99609 1.997657,1.997657 0 0 1 -1.99804,-1.99609 1.997657,1.997657 0 0 1 1.94922,-1.99805 z m 18.6289,9.16602 c 0.0398,0.003 0.0732,0.0244 0.10742,0.0547 0.0342,0.0303 0.07,0.0725 0.10547,0.12305 0.071,0.10098 0.14566,0.23932 0.22657,0.40625 0.16179,0.33386 0.34156,0.77657 0.51757,1.22656 0.17601,0.45 0.34971,0.90714 0.49805,1.26758 0.0742,0.18022 0.14237,0.33676 0.20117,0.45508 0.0588,0.11832 0.11157,0.19986 0.13867,0.22266 0.0271,0.0228 0.11751,0.0618 0.24414,0.0996 0.12663,0.0378 0.2922,0.0788 0.48243,0.12109 0.38048,0.0847 0.86055,0.17684 1.33398,0.27344 0.47343,0.0966 0.9403,0.19834 1.29688,0.30078 0.17829,0.0512 0.32784,0.1016 0.43945,0.15429 0.0558,0.0264 0.10297,0.0535 0.13867,0.082 0.0357,0.0286 0.0623,0.0589 0.0723,0.0977 0.01,0.0388 6.2e-4,0.0792 -0.0176,0.1211 -0.0183,0.0419 -0.047,0.0873 -0.084,0.13671 -0.0741,0.0987 -0.1846,0.21327 -0.31836,0.3418 -0.26752,0.25705 -0.63227,0.56465 -1.00585,0.8711 -0.37359,0.30645 -0.75578,0.61276 -1.05274,0.86523 -0.14848,0.12623 -0.27484,0.23953 -0.36914,0.33203 -0.0944,0.0925 -0.15662,0.16837 -0.16992,0.20117 -0.0135,0.0328 -0.0225,0.12962 -0.0195,0.26172 0.003,0.13211 0.0166,0.30209 0.0351,0.4961 0.0371,0.38801 0.098,0.87339 0.15235,1.35351 0.0544,0.48012 0.10243,0.95539 0.11523,1.32617 0.006,0.1854 0.004,0.34436 -0.0117,0.4668 -0.008,0.0612 -0.019,0.11355 -0.0351,0.15625 -0.0161,0.0427 -0.0384,0.0785 -0.0723,0.0996 -0.034,0.0211 -0.0736,0.0235 -0.11914,0.0195 -0.0455,-0.004 -0.0979,-0.0171 -0.15625,-0.0371 -0.11679,-0.04 -0.26025,-0.10781 -0.42383,-0.19531 -0.32714,-0.17499 -0.73177,-0.42885 -1.13867,-0.68945 -0.40689,-0.26059 -0.81656,-0.52802 -1.14844,-0.73243 -0.16593,-0.1022 -0.31252,-0.1889 -0.42969,-0.25 -0.11715,-0.0611 -0.20884,-0.0947 -0.24414,-0.0976 -0.0353,-0.003 -0.1312,0.0186 -0.25586,0.0625 -0.12465,0.0439 -0.28214,0.10794 -0.46093,0.18554 -0.35756,0.15516 -0.79847,0.36239 -1.23828,0.5625 -0.4398,0.20011 -0.87787,0.39283 -1.22657,0.51954 -0.17435,0.0634 -0.32597,0.10981 -0.44726,0.13281 -0.0606,0.0118 -0.11456,0.0176 -0.16016,0.0156 -0.0456,-0.002 -0.0846,-0.0114 -0.11523,-0.0371 -0.0306,-0.0257 -0.0466,-0.0628 -0.0566,-0.10742 -0.009,-0.0446 -0.0127,-0.0985 -0.0117,-0.16015 0.002,-0.12342 0.022,-0.28224 0.0547,-0.46485 0.0653,-0.3652 0.18063,-0.82741 0.30273,-1.29492 0.12211,-0.4675 0.25,-0.93956 0.3418,-1.31836 0.046,-0.1894 0.0836,-0.35602 0.10547,-0.48633 0.022,-0.13031 0.0256,-0.22742 0.0176,-0.26172 -0.009,-0.0343 -0.0585,-0.11961 -0.13867,-0.22461 -0.0802,-0.105 -0.18933,-0.23479 -0.31836,-0.38085 -0.25806,-0.29211 -0.59175,-0.64942 -0.91797,-1.00586 -0.32623,-0.35644 -0.64478,-0.71144 -0.87304,-1.00391 -0.11413,-0.14624 -0.20633,-0.27652 -0.26563,-0.38477 -0.0297,-0.0541 -0.0524,-0.10248 -0.0645,-0.14648 -0.0121,-0.044 -0.015,-0.0861 0,-0.12305 0.015,-0.0371 0.0465,-0.0628 0.0859,-0.0859 0.0394,-0.0232 0.0894,-0.0423 0.14843,-0.0606 0.11797,-0.0364 0.27327,-0.0664 0.45704,-0.0918 0.3675,-0.0508 0.84381,-0.085 1.32617,-0.11328 0.48236,-0.0283 0.97073,-0.0504 1.35937,-0.0801 0.19433,-0.0148 0.36343,-0.0314 0.49414,-0.0508 0.13071,-0.0194 0.22586,-0.0457 0.25586,-0.0644 0.03,-0.0187 0.0948,-0.0924 0.16992,-0.20117 0.0751,-0.10875 0.16468,-0.25403 0.26368,-0.42188 0.19807,-0.33569 0.43368,-0.76318 0.67187,-1.18359 0.23818,-0.4204 0.47988,-0.83316 0.6875,-1.14063 0.10381,-0.15373 0.1986,-0.28119 0.2832,-0.37109 0.0423,-0.0449 0.081,-0.0804 0.11914,-0.10547 0.0382,-0.0251 0.0773,-0.0421 0.11719,-0.0391 z m -118.728517,3.28515 c 0.10839,10e-4 0.21467,0.0506 0.31055,0.14844 l 7.26953,7.41602 c 0.19176,0.19568 0.1898,0.4352 -0.006,0.62695 l -1.74218,1.70898 c -0.19566,0.19007 -0.43518,0.18779 -0.62696,-0.008 l -2.04492,-2.08789 c -0.19177,-0.19737 -0.43325,-0.19956 -0.62891,-0.008 l -8.96289,8.78515 c -0.19565,0.19007 -0.43518,0.18787 -0.62695,-0.008 l -1.93555,-1.97656 v 0.004 c -0.19185,-0.1956 -0.18979,-0.43521 0.006,-0.62696 l 8.96289,-8.78515 c 0.19567,-0.19175 0.19764,-0.43127 0.006,-0.62696 l -2.04492,-2.08789 c -0.19175,-0.1956 -0.18979,-0.43512 0.006,-0.62695 l 1.74219,-1.70703 c 0.0978,-0.095 0.20802,-0.14193 0.3164,-0.14063 z m 10.66211,10.27344 c 0.10633,-0.0211 0.22211,0.006 0.33594,0.082 l 8.47656,5.67578 c 0.22767,0.15237 0.27545,0.38757 0.12305,0.61524 l -1.35742,2.02734 c -0.1524,0.22767 -0.38757,0.27353 -0.61524,0.12109 l -5.44335,-3.64257 c -0.22767,-0.15237 -0.46284,-0.10658 -0.61524,0.12109 l -1.35742,2.02734 c -0.1524,0.22767 -0.10462,0.46287 0.12305,0.61524 l 4.46679,2.99023 c 0.22767,0.15237 0.27349,0.38757 0.1211,0.61524 l -1.35743,2.02734 c -0.15239,0.22767 -0.38756,0.2755 -0.61523,0.12305 l -4.4668,-2.99024 c -0.22766,-0.15245 -0.46283,-0.10657 -0.61523,0.1211 l -1.42969,2.13672 c -0.15239,0.22767 -0.10462,0.46285 0.12305,0.61523 l 5.4414,3.64258 c 0.22767,0.15237 0.27545,0.38756 0.12305,0.61523 l -1.35742,2.02735 c -0.1524,0.22767 -0.38757,0.27354 -0.61523,0.12109 l -8.47852,-5.67383 c -0.22767,-0.15237 -0.27349,-0.38756 -0.12109,-0.61523 l 8.83203,-13.19531 c 0.0762,-0.11384 0.17297,-0.18208 0.27929,-0.20313 z m 85.011717,1.9375 c 1.11128,-0.0313 2.15638,0.29867 3.05274,0.98438 0.21479,0.18713 0.2367,0.21965 0.2793,0.28515 0.064,0.0984 0.0658,0.22059 -0.0371,0.34961 l -1.52149,2.01563 c -0.0405,0.0575 -0.0879,0.10317 -0.14258,0.13867 -0.1313,0.0851 -0.32074,0.0831 -0.5039,-0.0312 -0.79006,-0.49804 -1.78442,-0.47359 -2.73633,0.14453 -1.06134,0.68917 -1.28729,1.66065 -0.81836,2.38281 0.45471,0.70019 1.32334,0.78878 3.51562,0.23633 3.54991,-0.90513 5.83673,-0.30548 7.08008,1.60938 1.70518,2.6259 0.97109,5.4973 -2.1582,7.52929 -2.52749,1.64123 -5.14875,1.77272 -6.90039,0.29688 -0.2148,-0.18713 -0.2367,-0.21966 -0.2793,-0.28516 -0.0639,-0.0984 -0.0658,-0.22254 0.0371,-0.35156 l 1.58203,-2.16211 c 0.0405,-0.0574 0.0879,-0.10327 0.14258,-0.13867 0.1313,-0.085 0.32074,-0.0831 0.50391,0.0312 0.84036,0.52763 1.84485,0.5438 3.07031,-0.25196 1.12698,-0.73179 1.34819,-1.68601 0.84375,-2.46289 -0.45471,-0.70027 -1.33409,-0.95161 -3.54883,-0.33789 -3.60901,1.00578 -5.82298,0.37421 -7.22265,-1.78125 -1.28598,-1.98043 -0.63977,-5.10708 2.31445,-7.02539 1.1598,-0.75314 2.33599,-1.14443 3.44726,-1.17578 z m -73.416007,5.33008 c 0.0538,-0.0208 0.11707,-0.0239 0.17773,0 l 3.13086,1.23828 c 0.20627,0.0815 0.30416,0.18932 0.32422,0.35156 l 0.375,4.30078 c 0.0161,0.38513 0.0566,1.63625 0.0488,2.08204 l 0.0723,0.0273 c 0.31808,-0.9825 0.88983,-1.54204 2.26758,-2.86328 l 1.94336,-1.68555 c 0.13033,-0.1171 0.29498,-0.10804 0.46484,-0.041 l 3.28711,1.29882 c 0.1336,0.0527 0.1712,0.20759 0.13282,0.30469 -0.0239,0.0606 -0.0653,0.12856 -0.0918,0.16016 l -7.08984,5.83984 c -0.0604,0.0462 -0.12074,0.0909 -0.1543,0.17578 -0.0336,0.0849 -0.01,0.16591 0.01,0.25781 l 1.17774,8.62891 c 0.02,0.0919 0.0181,0.13246 -0.006,0.19336 -0.0527,0.1333 -0.21099,0.14122 -0.38086,0.0742 l -3.17773,-1.25586 c -0.26693,-0.10551 -0.34587,-0.26232 -0.35157,-0.46094 l -0.31847,-4.30656 c -0.0162,-0.38513 -0.082,-1.46242 -0.0742,-1.9082 l -0.0723,-0.0293 c -0.27327,0.69157 -1.13356,1.69813 -2.26563,2.68164 l -1.95312,1.71289 c -0.15205,0.1366 -0.32877,0.19145 -0.5957,0.0859 l -3.13086,-1.23633 c -0.19416,-0.0767 -0.25391,-0.1712 -0.20117,-0.30469 0.024,-0.0607 0.0763,-0.12372 0.13671,-0.16992 l 7.16797,-5.89258 c 0.0821,-0.0657 0.12252,-0.13441 0.14649,-0.19531 0.0335,-0.0849 0.0339,-0.15371 0.0215,-0.22851 l -1.16992,-8.54297 c -0.01,-0.0459 0.002,-0.1112 0.0312,-0.1836 0.0192,-0.0485 0.0634,-0.0886 0.11719,-0.10937 z m 62.335937,0.7168 c 0.17413,-0.002 0.31487,0.10117 0.38867,0.29296 l 0.87695,2.27735 c 0.0984,0.25565 0.002,0.47386 -0.2539,0.57226 l -6.11133,2.35352 c -0.25534,0.0984 -0.35426,0.31858 -0.25586,0.57422 l 0.87695,2.27539 c 0.0984,0.25457 0.31855,0.35426 0.57422,0.25586 l 5.01562,-1.93164 c 0.25567,-0.0984 0.47387,-0.002 0.57227,0.2539 l 0.87695,2.27735 c 0.0984,0.25564 0.002,0.47386 -0.2539,0.57226 l -5.01563,1.93164 c -0.25535,0.0984 -0.35426,0.31857 -0.25586,0.57422 l 0.92383,2.39844 c 0.0984,0.25457 0.31856,0.35231 0.57422,0.25391 l 6.11133,-2.35352 c 0.25567,-0.0984 0.47386,2.2e-4 0.57226,0.25586 l 0.87696,2.27539 c 0.0984,0.25565 0.002,0.47582 -0.25391,0.57422 l -9.52148,3.66406 c -0.25567,0.0985 -0.47387,0.002 -0.57227,-0.2539 l -5.70508,-14.81641 c -0.0984,-0.25572 -0.002,-0.47582 0.25391,-0.57422 l 9.52148,-3.66406 c 0.0639,-0.0246 0.12555,-0.0383 0.1836,-0.0391 z m -47.763677,4.72656 c 0.0571,-0.0107 0.12001,-0.0115 0.1875,0 l 10.23242,1.76562 c 0.26999,0.0466 0.40983,0.24174 0.36329,0.51172 l -0.41602,2.4043 c -0.0466,0.27 -0.24174,0.40753 -0.51172,0.36133 l -2.8789,-0.4961 c -0.26999,-0.0465 -0.46713,0.0913 -0.51368,0.36133 l -2.13281,12.36719 c -0.0466,0.26997 -0.24174,0.40948 -0.51172,0.36328 l -2.72656,-0.4707 c -0.26999,-0.0466 -0.40788,-0.24371 -0.36133,-0.51367 l 2.13281,-12.36719 c 0.0466,-0.26998 -0.0913,-0.46552 -0.36132,-0.51172 l -2.88086,-0.49609 c -0.26998,-0.0466 -0.40788,-0.2437 -0.36133,-0.51368 l 0.41601,-2.40429 c 0.0349,-0.20248 0.15303,-0.32936 0.32422,-0.36133 z m 26.953127,1.14453 c 0.27046,-0.0436 0.46605,0.0967 0.50977,0.36719 l 2.02148,12.51953 c 0.0437,0.27046 0.23735,0.41109 0.50781,0.36719 l 5.98828,-0.9668 c 0.27047,-0.0437 0.46617,0.0967 0.50977,0.36719 l 0.38867,2.4082 c 0.0437,0.27045 -0.0967,0.46391 -0.36719,0.50781 l -9.5957,1.54883 c -0.27046,0.0436 -0.46411,-0.0967 -0.50781,-0.36719 l -2.55274,-15.80273 c -0.0437,-0.27044 0.0967,-0.46391 0.36719,-0.50781 z m -11.439447,0.62695 2.76562,0.0176 c 0.27396,0.002 0.44341,0.17328 0.44141,0.44727 l -0.10157,16.00781 c -0.002,0.27398 -0.17135,0.43945 -0.44531,0.43945 l -2.76562,-0.0176 c -0.27397,-0.002 -0.44291,-0.17132 -0.44141,-0.44531 l 0.10156,-16.00781 c 0.002,-0.27399 0.17136,-0.44141 0.44532,-0.44141 z" />
  </g>
</svg>
