<?xml version="1.0" encoding="UTF-8" standalone="no"?>
<svg
   xmlns:dc="http://purl.org/dc/elements/1.1/"
   xmlns:cc="http://creativecommons.org/ns#"
   xmlns:rdf="http://www.w3.org/1999/02/22-rdf-syntax-ns#"
   xmlns:svg="http://www.w3.org/2000/svg"
   xmlns="http://www.w3.org/2000/svg"
   xmlns:sodipodi="http://sodipodi.sourceforge.net/DTD/sodipodi-0.dtd"
   xmlns:inkscape="http://www.inkscape.org/namespaces/inkscape"
   width="50mm"
   height="50mm"
   id="svg2"
   version="1.1"
   inkscape:version="1.0.1 (3bc2e813f5, 2020-09-07)"
   sodipodi:docname="xHain_stickers_5cm_avx.svg"
   inkscape:export-filename="./xHain_logo3_rev2_large.png"
   inkscape:export-xdpi="1368.9301"
   inkscape:export-ydpi="1368.9301">
  <sodipodi:namedview
     id="base"
     pagecolor="#ffffff"
     bordercolor="#666666"
     borderopacity="1.0"
     inkscape:pageopacity="0.0"
     inkscape:pageshadow="2"
     inkscape:zoom="1.2899206"
     inkscape:cx="3.1208023"
     inkscape:cy="-40.086508"
     inkscape:document-units="mm"
     inkscape:current-layer="layer1"
     showgrid="false"
     inkscape:window-width="1920"
     inkscape:window-height="1032"
     inkscape:window-x="0"
     inkscape:window-y="0"
     inkscape:window-maximized="1"
     showguides="true"
     inkscape:guide-bbox="true"
     units="mm"
     inkscape:document-rotation="0">
    <inkscape:grid
       type="xygrid"
       id="grid2985"
       empspacing="5"
       visible="true"
       enabled="true"
       snapvisiblegridlinesonly="true" />
  </sodipodi:namedview>
  <defs
     id="defs4">
    <marker
       inkscape:stockid="DotS"
       orient="auto"
       refY="0"
       refX="0"
       id="DotS"
       style="overflow:visible">
      <path
         id="path3828"
         d="m -2.5,-1 c 0,2.76 -2.24,5 -5,5 -2.76,0 -5,-2.24 -5,-5 0,-2.76 2.24,-5 5,-5 2.76,0 5,2.24 5,5 z"
         style="fill-rule:evenodd;stroke:#000000;stroke-width:1pt"
         transform="matrix(0.2,0,0,0.2,1.48,0.2)"
         inkscape:connector-curvature="0" />
    </marker>
    <marker
       inkscape:stockid="DotS"
       orient="auto"
       refY="0"
       refX="0"
       id="DotS-1"
       style="overflow:visible">
      <path
         inkscape:connector-curvature="0"
         id="path3828-5"
         d="m -2.5,-1 c 0,2.76 -2.24,5 -5,5 -2.76,0 -5,-2.24 -5,-5 0,-2.76 2.24,-5 5,-5 2.76,0 5,2.24 5,5 z"
         style="fill-rule:evenodd;stroke:#000000;stroke-width:1pt"
         transform="matrix(0.2,0,0,0.2,1.48,0.2)" />
    </marker>
    <marker
       inkscape:stockid="DotS"
       orient="auto"
       refY="0"
       refX="0"
       id="marker4395"
       style="overflow:visible">
      <path
         inkscape:connector-curvature="0"
         id="path4397"
         d="m -2.5,-1 c 0,2.76 -2.24,5 -5,5 -2.76,0 -5,-2.24 -5,-5 0,-2.76 2.24,-5 5,-5 2.76,0 5,2.24 5,5 z"
         style="fill-rule:evenodd;stroke:#000000;stroke-width:1pt"
         transform="matrix(0.2,0,0,0.2,1.48,0.2)" />
    </marker>
    <marker
       inkscape:stockid="DotS"
       orient="auto"
       refY="0"
       refX="0"
       id="DotS-3"
       style="overflow:visible">
      <path
         inkscape:connector-curvature="0"
         id="path3828-0"
         d="m -2.5,-1 c 0,2.76 -2.24,5 -5,5 -2.76,0 -5,-2.24 -5,-5 0,-2.76 2.24,-5 5,-5 2.76,0 5,2.24 5,5 z"
         style="fill-rule:evenodd;stroke:#000000;stroke-width:1pt"
         transform="matrix(0.2,0,0,0.2,1.48,0.2)" />
    </marker>
    <marker
       inkscape:stockid="DotS"
       orient="auto"
       refY="0"
       refX="0"
       id="marker4427"
       style="overflow:visible">
      <path
         inkscape:connector-curvature="0"
         id="path4429"
         d="m -2.5,-1 c 0,2.76 -2.24,5 -5,5 -2.76,0 -5,-2.24 -5,-5 0,-2.76 2.24,-5 5,-5 2.76,0 5,2.24 5,5 z"
         style="fill-rule:evenodd;stroke:#000000;stroke-width:1pt"
         transform="matrix(0.2,0,0,0.2,1.48,0.2)" />
    </marker>
    <marker
       inkscape:stockid="DotS"
       orient="auto"
       refY="0"
       refX="0"
       id="DotS-2"
       style="overflow:visible">
      <path
         inkscape:connector-curvature="0"
         id="path3828-1"
         d="m -2.5,-1 c 0,2.76 -2.24,5 -5,5 -2.76,0 -5,-2.24 -5,-5 0,-2.76 2.24,-5 5,-5 2.76,0 5,2.24 5,5 z"
         style="fill-rule:evenodd;stroke:#000000;stroke-width:1pt"
         transform="matrix(0.2,0,0,0.2,1.48,0.2)" />
    </marker>
    <marker
       inkscape:stockid="DotS"
       orient="auto"
       refY="0"
       refX="0"
       id="marker4427-3"
       style="overflow:visible">
      <path
         inkscape:connector-curvature="0"
         id="path4429-9"
         d="m -2.5,-1 c 0,2.76 -2.24,5 -5,5 -2.76,0 -5,-2.24 -5,-5 0,-2.76 2.24,-5 5,-5 2.76,0 5,2.24 5,5 z"
         style="fill-rule:evenodd;stroke:#000000;stroke-width:1pt"
         transform="matrix(0.2,0,0,0.2,1.48,0.2)" />
    </marker>
    <marker
       inkscape:stockid="DotS"
       orient="auto"
       refY="0"
       refX="0"
       id="DotS-21"
       style="overflow:visible">
      <path
         inkscape:connector-curvature="0"
         id="path3828-6"
         d="m -2.5,-1 c 0,2.76 -2.24,5 -5,5 -2.76,0 -5,-2.24 -5,-5 0,-2.76 2.24,-5 5,-5 2.76,0 5,2.24 5,5 z"
         style="fill-rule:evenodd;stroke:#000000;stroke-width:1pt"
         transform="matrix(0.2,0,0,0.2,1.48,0.2)" />
    </marker>
    <marker
       inkscape:stockid="DotS"
       orient="auto"
       refY="0"
       refX="0"
       id="marker4474"
       style="overflow:visible">
      <path
         inkscape:connector-curvature="0"
         id="path4476"
         d="m -2.5,-1 c 0,2.76 -2.24,5 -5,5 -2.76,0 -5,-2.24 -5,-5 0,-2.76 2.24,-5 5,-5 2.76,0 5,2.24 5,5 z"
         style="fill-rule:evenodd;stroke:#000000;stroke-width:1pt"
         transform="matrix(0.2,0,0,0.2,1.48,0.2)" />
    </marker>
    <marker
       inkscape:stockid="DotS"
       orient="auto"
       refY="0"
       refX="0"
       id="DotS-36"
       style="overflow:visible">
      <path
         inkscape:connector-curvature="0"
         id="path3828-8"
         d="m -2.5,-1 c 0,2.76 -2.24,5 -5,5 -2.76,0 -5,-2.24 -5,-5 0,-2.76 2.24,-5 5,-5 2.76,0 5,2.24 5,5 z"
         style="fill-rule:evenodd;stroke:#000000;stroke-width:1pt"
         transform="matrix(0.2,0,0,0.2,1.48,0.2)" />
    </marker>
    <marker
       inkscape:stockid="DotS"
       orient="auto"
       refY="0"
       refX="0"
       id="marker4516"
       style="overflow:visible">
      <path
         inkscape:connector-curvature="0"
         id="path4518"
         d="m -2.5,-1 c 0,2.76 -2.24,5 -5,5 -2.76,0 -5,-2.24 -5,-5 0,-2.76 2.24,-5 5,-5 2.76,0 5,2.24 5,5 z"
         style="fill-rule:evenodd;stroke:#000000;stroke-width:1pt"
         transform="matrix(0.2,0,0,0.2,1.48,0.2)" />
    </marker>
    <marker
       inkscape:stockid="DotS"
       orient="auto"
       refY="0"
       refX="0"
       id="DotS-11"
       style="overflow:visible">
      <path
         inkscape:connector-curvature="0"
         id="path3828-58"
         d="m -2.5,-1 c 0,2.76 -2.24,5 -5,5 -2.76,0 -5,-2.24 -5,-5 0,-2.76 2.24,-5 5,-5 2.76,0 5,2.24 5,5 z"
         style="fill-rule:evenodd;stroke:#000000;stroke-width:1pt"
         transform="matrix(0.2,0,0,0.2,1.48,0.2)" />
    </marker>
    <marker
       inkscape:stockid="DotS"
       orient="auto"
       refY="0"
       refX="0"
       id="marker4954"
       style="overflow:visible">
      <path
         inkscape:connector-curvature="0"
         id="path4956"
         d="m -2.5,-1 c 0,2.76 -2.24,5 -5,5 -2.76,0 -5,-2.24 -5,-5 0,-2.76 2.24,-5 5,-5 2.76,0 5,2.24 5,5 z"
         style="fill-rule:evenodd;stroke:#000000;stroke-width:1pt"
         transform="matrix(0.2,0,0,0.2,1.48,0.2)" />
    </marker>
    <marker
       inkscape:stockid="DotS"
       orient="auto"
       refY="0"
       refX="0"
       id="DotS-7"
       style="overflow:visible">
      <path
         inkscape:connector-curvature="0"
         id="path3828-3"
         d="m -2.5,-1 c 0,2.76 -2.24,5 -5,5 -2.76,0 -5,-2.24 -5,-5 0,-2.76 2.24,-5 5,-5 2.76,0 5,2.24 5,5 z"
         style="fill-rule:evenodd;stroke:#000000;stroke-width:1pt"
         transform="matrix(0.2,0,0,0.2,1.48,0.2)" />
    </marker>
    <marker
       inkscape:stockid="DotS"
       orient="auto"
       refY="0"
       refX="0"
       id="marker5024"
       style="overflow:visible">
      <path
         inkscape:connector-curvature="0"
         id="path5026"
         d="m -2.5,-1 c 0,2.76 -2.24,5 -5,5 -2.76,0 -5,-2.24 -5,-5 0,-2.76 2.24,-5 5,-5 2.76,0 5,2.24 5,5 z"
         style="fill-rule:evenodd;stroke:#000000;stroke-width:1pt"
         transform="matrix(0.2,0,0,0.2,1.48,0.2)" />
    </marker>
    <marker
       inkscape:stockid="DotS"
       orient="auto"
       refY="0"
       refX="0"
       id="DotS-34"
       style="overflow:visible">
      <path
         inkscape:connector-curvature="0"
         id="path3828-16"
         d="m -2.5,-1 c 0,2.76 -2.24,5 -5,5 -2.76,0 -5,-2.24 -5,-5 0,-2.76 2.24,-5 5,-5 2.76,0 5,2.24 5,5 z"
         style="fill-rule:evenodd;stroke:#000000;stroke-width:1pt"
         transform="matrix(0.2,0,0,0.2,1.48,0.2)" />
    </marker>
    <marker
       inkscape:stockid="DotS"
       orient="auto"
       refY="0"
       refX="0"
       id="marker5056"
       style="overflow:visible">
      <path
         inkscape:connector-curvature="0"
         id="path5058"
         d="m -2.5,-1 c 0,2.76 -2.24,5 -5,5 -2.76,0 -5,-2.24 -5,-5 0,-2.76 2.24,-5 5,-5 2.76,0 5,2.24 5,5 z"
         style="fill-rule:evenodd;stroke:#000000;stroke-width:1pt"
         transform="matrix(0.2,0,0,0.2,1.48,0.2)" />
    </marker>
    <marker
       inkscape:stockid="DotS"
       orient="auto"
       refY="0"
       refX="0"
       id="marker4516-8"
       style="overflow:visible">
      <path
         inkscape:connector-curvature="0"
         id="path4518-5"
         d="m -2.5,-1 c 0,2.76 -2.24,5 -5,5 -2.76,0 -5,-2.24 -5,-5 0,-2.76 2.24,-5 5,-5 2.76,0 5,2.24 5,5 z"
         style="fill-rule:evenodd;stroke:#000000;stroke-width:1pt"
         transform="matrix(0.2,0,0,0.2,1.48,0.2)" />
    </marker>
    <marker
       inkscape:stockid="DotS"
       orient="auto"
       refY="0"
       refX="0"
       id="marker5088"
       style="overflow:visible">
      <path
         inkscape:connector-curvature="0"
         id="path5090"
         d="m -2.5,-1 c 0,2.76 -2.24,5 -5,5 -2.76,0 -5,-2.24 -5,-5 0,-2.76 2.24,-5 5,-5 2.76,0 5,2.24 5,5 z"
         style="fill-rule:evenodd;stroke:#000000;stroke-width:1pt"
         transform="matrix(0.2,0,0,0.2,1.48,0.2)" />
    </marker>
    <marker
       inkscape:stockid="DotS"
       orient="auto"
       refY="0"
       refX="0"
       id="marker4516-9"
       style="overflow:visible">
      <path
         inkscape:connector-curvature="0"
         id="path4518-55"
         d="m -2.5,-1 c 0,2.76 -2.24,5 -5,5 -2.76,0 -5,-2.24 -5,-5 0,-2.76 2.24,-5 5,-5 2.76,0 5,2.24 5,5 z"
         style="fill-rule:evenodd;stroke:#000000;stroke-width:1pt"
         transform="matrix(0.2,0,0,0.2,1.48,0.2)" />
    </marker>
    <marker
       inkscape:stockid="DotS"
       orient="auto"
       refY="0"
       refX="0"
       id="marker5137"
       style="overflow:visible">
      <path
         inkscape:connector-curvature="0"
         id="path5139"
         d="m -2.5,-1 c 0,2.76 -2.24,5 -5,5 -2.76,0 -5,-2.24 -5,-5 0,-2.76 2.24,-5 5,-5 2.76,0 5,2.24 5,5 z"
         style="fill-rule:evenodd;stroke:#000000;stroke-width:1pt"
         transform="matrix(0.2,0,0,0.2,1.48,0.2)" />
    </marker>
    <marker
       inkscape:stockid="DotS"
       orient="auto"
       refY="0"
       refX="0"
       id="DotS-0"
       style="overflow:visible">
      <path
         inkscape:connector-curvature="0"
         id="path3828-4"
         d="m -2.5,-1 c 0,2.76 -2.24,5 -5,5 -2.76,0 -5,-2.24 -5,-5 0,-2.76 2.24,-5 5,-5 2.76,0 5,2.24 5,5 z"
         style="fill-rule:evenodd;stroke:#000000;stroke-width:1pt"
         transform="matrix(0.2,0,0,0.2,1.48,0.2)" />
    </marker>
    <marker
       inkscape:stockid="DotS"
       orient="auto"
       refY="0"
       refX="0"
       id="marker5169"
       style="overflow:visible">
      <path
         inkscape:connector-curvature="0"
         id="path5171"
         d="m -2.5,-1 c 0,2.76 -2.24,5 -5,5 -2.76,0 -5,-2.24 -5,-5 0,-2.76 2.24,-5 5,-5 2.76,0 5,2.24 5,5 z"
         style="fill-rule:evenodd;stroke:#000000;stroke-width:1pt"
         transform="matrix(0.2,0,0,0.2,1.48,0.2)" />
    </marker>
    <marker
       inkscape:stockid="DotS"
       orient="auto"
       refY="0"
       refX="0"
       id="DotS-8"
       style="overflow:visible">
      <path
         inkscape:connector-curvature="0"
         id="path3828-66"
         d="m -2.5,-1 c 0,2.76 -2.24,5 -5,5 -2.76,0 -5,-2.24 -5,-5 0,-2.76 2.24,-5 5,-5 2.76,0 5,2.24 5,5 z"
         style="fill-rule:evenodd;stroke:#000000;stroke-width:1pt"
         transform="matrix(0.2,0,0,0.2,1.48,0.2)" />
    </marker>
    <marker
       inkscape:stockid="DotS"
       orient="auto"
       refY="0"
       refX="0"
       id="marker5218"
       style="overflow:visible">
      <path
         inkscape:connector-curvature="0"
         id="path5220"
         d="m -2.5,-1 c 0,2.76 -2.24,5 -5,5 -2.76,0 -5,-2.24 -5,-5 0,-2.76 2.24,-5 5,-5 2.76,0 5,2.24 5,5 z"
         style="fill-rule:evenodd;stroke:#000000;stroke-width:1pt"
         transform="matrix(0.2,0,0,0.2,1.48,0.2)" />
    </marker>
    <marker
       inkscape:stockid="DotSv"
       orient="auto"
       refY="0"
       refX="0"
       id="DotSv"
       style="overflow:visible">
      <path
         id="path5753"
         d="m -2.5,-1 c 0,2.76 -2.24,5 -5,5 -2.76,0 -5,-2.24 -5,-5 0,-2.76 2.24,-5 5,-5 2.76,0 5,2.24 5,5 z"
         style="fill:#858585;fill-rule:evenodd;stroke:#858585;stroke-width:1pt"
         transform="matrix(0.2,0,0,0.2,1.48,0.2)"
         inkscape:connector-curvature="0" />
    </marker>
    <marker
       inkscape:stockid="DotSs"
       orient="auto"
       refY="0"
       refX="0"
       id="DotSs"
       style="overflow:visible">
      <path
         id="path5756"
         d="m -2.5,-1 c 0,2.76 -2.24,5 -5,5 -2.76,0 -5,-2.24 -5,-5 0,-2.76 2.24,-5 5,-5 2.76,0 5,2.24 5,5 z"
         style="fill:#858585;fill-rule:evenodd;stroke:#858585;stroke-width:1pt"
         transform="matrix(0.2,0,0,0.2,1.48,0.2)"
         inkscape:connector-curvature="0" />
    </marker>
    <marker
       inkscape:stockid="DotSk"
       orient="auto"
       refY="0"
       refX="0"
       id="DotSk"
       style="overflow:visible">
      <path
         id="path5759"
         d="m -2.5,-1 c 0,2.76 -2.24,5 -5,5 -2.76,0 -5,-2.24 -5,-5 0,-2.76 2.24,-5 5,-5 2.76,0 5,2.24 5,5 z"
         style="fill:#858585;fill-rule:evenodd;stroke:#858585;stroke-width:1pt"
         transform="matrix(0.2,0,0,0.2,1.48,0.2)"
         inkscape:connector-curvature="0" />
    </marker>
    <marker
       inkscape:stockid="DotSK"
       orient="auto"
       refY="0"
       refX="0"
       id="DotSK"
       style="overflow:visible">
      <path
         id="path5762"
         d="m -2.5,-1 c 0,2.76 -2.24,5 -5,5 -2.76,0 -5,-2.24 -5,-5 0,-2.76 2.24,-5 5,-5 2.76,0 5,2.24 5,5 z"
         style="fill:#858585;fill-rule:evenodd;stroke:#858585;stroke-width:1pt"
         transform="matrix(0.2,0,0,0.2,1.48,0.2)"
         inkscape:connector-curvature="0" />
    </marker>
    <marker
       inkscape:stockid="DotSQ"
       orient="auto"
       refY="0"
       refX="0"
       id="DotSQ"
       style="overflow:visible">
      <path
         id="path5765"
         d="m -2.5,-1 c 0,2.76 -2.24,5 -5,5 -2.76,0 -5,-2.24 -5,-5 0,-2.76 2.24,-5 5,-5 2.76,0 5,2.24 5,5 z"
         style="fill:#858585;fill-rule:evenodd;stroke:#858585;stroke-width:1pt"
         transform="matrix(0.2,0,0,0.2,1.48,0.2)"
         inkscape:connector-curvature="0" />
    </marker>
    <marker
       inkscape:stockid="DotSg"
       orient="auto"
       refY="0"
       refX="0"
       id="DotSg"
       style="overflow:visible">
      <path
         id="path5768"
         d="m -2.5,-1 c 0,2.76 -2.24,5 -5,5 -2.76,0 -5,-2.24 -5,-5 0,-2.76 2.24,-5 5,-5 2.76,0 5,2.24 5,5 z"
         style="fill:#858585;fill-rule:evenodd;stroke:#858585;stroke-width:1pt"
         transform="matrix(0.2,0,0,0.2,1.48,0.2)"
         inkscape:connector-curvature="0" />
    </marker>
    <marker
       inkscape:stockid="marker4516J"
       orient="auto"
       refY="0"
       refX="0"
       id="marker4516J"
       style="overflow:visible">
      <path
         inkscape:connector-curvature="0"
         id="path5771"
         d="m -2.5,-1 c 0,2.76 -2.24,5 -5,5 -2.76,0 -5,-2.24 -5,-5 0,-2.76 2.24,-5 5,-5 2.76,0 5,2.24 5,5 z"
         style="fill:#858585;fill-rule:evenodd;stroke:#858585;stroke-width:1pt"
         transform="matrix(0.2,0,0,0.2,1.48,0.2)" />
    </marker>
    <marker
       inkscape:stockid="marker4516P"
       orient="auto"
       refY="0"
       refX="0"
       id="marker4516P"
       style="overflow:visible">
      <path
         inkscape:connector-curvature="0"
         id="path5774"
         d="m -2.5,-1 c 0,2.76 -2.24,5 -5,5 -2.76,0 -5,-2.24 -5,-5 0,-2.76 2.24,-5 5,-5 2.76,0 5,2.24 5,5 z"
         style="fill:#858585;fill-rule:evenodd;stroke:#858585;stroke-width:1pt"
         transform="matrix(0.2,0,0,0.2,1.48,0.2)" />
    </marker>
    <marker
       inkscape:stockid="DotSC"
       orient="auto"
       refY="0"
       refX="0"
       id="DotSC"
       style="overflow:visible">
      <path
         id="path5777"
         d="m -2.5,-1 c 0,2.76 -2.24,5 -5,5 -2.76,0 -5,-2.24 -5,-5 0,-2.76 2.24,-5 5,-5 2.76,0 5,2.24 5,5 z"
         style="fill:#858585;fill-rule:evenodd;stroke:#858585;stroke-width:1pt"
         transform="matrix(0.2,0,0,0.2,1.48,0.2)"
         inkscape:connector-curvature="0" />
    </marker>
    <marker
       inkscape:stockid="DotSL"
       orient="auto"
       refY="0"
       refX="0"
       id="DotSL"
       style="overflow:visible">
      <path
         id="path5780"
         d="m -2.5,-1 c 0,2.76 -2.24,5 -5,5 -2.76,0 -5,-2.24 -5,-5 0,-2.76 2.24,-5 5,-5 2.76,0 5,2.24 5,5 z"
         style="fill:#858585;fill-rule:evenodd;stroke:#858585;stroke-width:1pt"
         transform="matrix(0.2,0,0,0.2,1.48,0.2)"
         inkscape:connector-curvature="0" />
    </marker>
    <marker
       inkscape:stockid="DotSf"
       orient="auto"
       refY="0"
       refX="0"
       id="DotSf"
       style="overflow:visible">
      <path
         id="path5783"
         d="m -2.5,-1 c 0,2.76 -2.24,5 -5,5 -2.76,0 -5,-2.24 -5,-5 0,-2.76 2.24,-5 5,-5 2.76,0 5,2.24 5,5 z"
         style="fill:#858585;fill-rule:evenodd;stroke:#858585;stroke-width:1pt"
         transform="matrix(0.2,0,0,0.2,1.48,0.2)"
         inkscape:connector-curvature="0" />
    </marker>
    <marker
       inkscape:stockid="DotS7"
       orient="auto"
       refY="0"
       refX="0"
       id="DotS7"
       style="overflow:visible">
      <path
         id="path5786"
         d="m -2.5,-1 c 0,2.76 -2.24,5 -5,5 -2.76,0 -5,-2.24 -5,-5 0,-2.76 2.24,-5 5,-5 2.76,0 5,2.24 5,5 z"
         style="fill:#858585;fill-rule:evenodd;stroke:#858585;stroke-width:1pt"
         transform="matrix(0.2,0,0,0.2,1.48,0.2)"
         inkscape:connector-curvature="0" />
    </marker>
    <marker
       inkscape:stockid="DotSS"
       orient="auto"
       refY="0"
       refX="0"
       id="DotSS"
       style="overflow:visible">
      <path
         id="path5789"
         d="m -2.5,-1 c 0,2.76 -2.24,5 -5,5 -2.76,0 -5,-2.24 -5,-5 0,-2.76 2.24,-5 5,-5 2.76,0 5,2.24 5,5 z"
         style="fill:#858585;fill-rule:evenodd;stroke:#858585;stroke-width:1pt"
         transform="matrix(0.2,0,0,0.2,1.48,0.2)"
         inkscape:connector-curvature="0" />
    </marker>
    <marker
       inkscape:stockid="DotSy"
       orient="auto"
       refY="0"
       refX="0"
       id="DotSy"
       style="overflow:visible">
      <path
         id="path5792"
         d="m -2.5,-1 c 0,2.76 -2.24,5 -5,5 -2.76,0 -5,-2.24 -5,-5 0,-2.76 2.24,-5 5,-5 2.76,0 5,2.24 5,5 z"
         style="fill:#858585;fill-rule:evenodd;stroke:#858585;stroke-width:1pt"
         transform="matrix(0.2,0,0,0.2,1.48,0.2)"
         inkscape:connector-curvature="0" />
    </marker>
    <marker
       inkscape:stockid="marker4516C"
       orient="auto"
       refY="0"
       refX="0"
       id="marker4516C"
       style="overflow:visible">
      <path
         inkscape:connector-curvature="0"
         id="path5795"
         d="m -2.5,-1 c 0,2.76 -2.24,5 -5,5 -2.76,0 -5,-2.24 -5,-5 0,-2.76 2.24,-5 5,-5 2.76,0 5,2.24 5,5 z"
         style="fill:#858585;fill-rule:evenodd;stroke:#858585;stroke-width:1pt"
         transform="matrix(0.2,0,0,0.2,1.48,0.2)" />
    </marker>
    <marker
       inkscape:stockid="marker45162"
       orient="auto"
       refY="0"
       refX="0"
       id="marker45162"
       style="overflow:visible">
      <path
         inkscape:connector-curvature="0"
         id="path5798"
         d="m -2.5,-1 c 0,2.76 -2.24,5 -5,5 -2.76,0 -5,-2.24 -5,-5 0,-2.76 2.24,-5 5,-5 2.76,0 5,2.24 5,5 z"
         style="fill:#858585;fill-rule:evenodd;stroke:#858585;stroke-width:1pt"
         transform="matrix(0.2,0,0,0.2,1.48,0.2)" />
    </marker>
    <marker
       inkscape:stockid="DotSG"
       orient="auto"
       refY="0"
       refX="0"
       id="DotSG"
       style="overflow:visible">
      <path
         id="path5801"
         d="m -2.5,-1 c 0,2.76 -2.24,5 -5,5 -2.76,0 -5,-2.24 -5,-5 0,-2.76 2.24,-5 5,-5 2.76,0 5,2.24 5,5 z"
         style="fill:#858585;fill-rule:evenodd;stroke:#858585;stroke-width:1pt"
         transform="matrix(0.2,0,0,0.2,1.48,0.2)"
         inkscape:connector-curvature="0" />
    </marker>
    <marker
       inkscape:stockid="DotS5"
       orient="auto"
       refY="0"
       refX="0"
       id="DotS5"
       style="overflow:visible">
      <path
         id="path5804"
         d="m -2.5,-1 c 0,2.76 -2.24,5 -5,5 -2.76,0 -5,-2.24 -5,-5 0,-2.76 2.24,-5 5,-5 2.76,0 5,2.24 5,5 z"
         style="fill:#858585;fill-rule:evenodd;stroke:#858585;stroke-width:1pt"
         transform="matrix(0.2,0,0,0.2,1.48,0.2)"
         inkscape:connector-curvature="0" />
    </marker>
    <marker
       inkscape:stockid="DotSsA"
       orient="auto"
       refY="0"
       refX="0"
       id="DotSsA"
       style="overflow:visible">
      <path
         id="path5807"
         d="m -2.5,-1 c 0,2.76 -2.24,5 -5,5 -2.76,0 -5,-2.24 -5,-5 0,-2.76 2.24,-5 5,-5 2.76,0 5,2.24 5,5 z"
         style="fill:#858585;fill-rule:evenodd;stroke:#858585;stroke-width:1pt"
         transform="matrix(0.2,0,0,0.2,1.48,0.2)"
         inkscape:connector-curvature="0" />
    </marker>
    <marker
       inkscape:stockid="DotSLd"
       orient="auto"
       refY="0"
       refX="0"
       id="DotSLd"
       style="overflow:visible">
      <path
         id="path5810"
         d="m -2.5,-1 c 0,2.76 -2.24,5 -5,5 -2.76,0 -5,-2.24 -5,-5 0,-2.76 2.24,-5 5,-5 2.76,0 5,2.24 5,5 z"
         style="fill:#858585;fill-rule:evenodd;stroke:#858585;stroke-width:1pt"
         transform="matrix(0.2,0,0,0.2,1.48,0.2)"
         inkscape:connector-curvature="0" />
    </marker>
    <marker
       inkscape:stockid="DotSd"
       orient="auto"
       refY="0"
       refX="0"
       id="DotSd"
       style="overflow:visible">
      <path
         id="path5813"
         d="m -2.5,-1 c 0,2.76 -2.24,5 -5,5 -2.76,0 -5,-2.24 -5,-5 0,-2.76 2.24,-5 5,-5 2.76,0 5,2.24 5,5 z"
         style="fill:#858585;fill-rule:evenodd;stroke:#858585;stroke-width:1pt"
         transform="matrix(0.2,0,0,0.2,1.48,0.2)"
         inkscape:connector-curvature="0" />
    </marker>
    <marker
       inkscape:stockid="DotSyI"
       orient="auto"
       refY="0"
       refX="0"
       id="DotSyI"
       style="overflow:visible">
      <path
         id="path5816"
         d="m -2.5,-1 c 0,2.76 -2.24,5 -5,5 -2.76,0 -5,-2.24 -5,-5 0,-2.76 2.24,-5 5,-5 2.76,0 5,2.24 5,5 z"
         style="fill:#858585;fill-rule:evenodd;stroke:#858585;stroke-width:1pt"
         transform="matrix(0.2,0,0,0.2,1.48,0.2)"
         inkscape:connector-curvature="0" />
    </marker>
    <marker
       inkscape:stockid="marker4516y"
       orient="auto"
       refY="0"
       refX="0"
       id="marker4516y"
       style="overflow:visible">
      <path
         inkscape:connector-curvature="0"
         id="path5819"
         d="m -2.5,-1 c 0,2.76 -2.24,5 -5,5 -2.76,0 -5,-2.24 -5,-5 0,-2.76 2.24,-5 5,-5 2.76,0 5,2.24 5,5 z"
         style="fill:#858585;fill-rule:evenodd;stroke:#858585;stroke-width:1pt"
         transform="matrix(0.2,0,0,0.2,1.48,0.2)" />
    </marker>
    <marker
       inkscape:stockid="marker4516I"
       orient="auto"
       refY="0"
       refX="0"
       id="marker4516I"
       style="overflow:visible">
      <path
         inkscape:connector-curvature="0"
         id="path5822"
         d="m -2.5,-1 c 0,2.76 -2.24,5 -5,5 -2.76,0 -5,-2.24 -5,-5 0,-2.76 2.24,-5 5,-5 2.76,0 5,2.24 5,5 z"
         style="fill:#858585;fill-rule:evenodd;stroke:#858585;stroke-width:1pt"
         transform="matrix(0.2,0,0,0.2,1.48,0.2)" />
    </marker>
    <marker
       inkscape:stockid="marker5218b"
       orient="auto"
       refY="0"
       refX="0"
       id="marker5218b"
       style="overflow:visible">
      <path
         inkscape:connector-curvature="0"
         id="path5825"
         d="m -2.5,-1 c 0,2.76 -2.24,5 -5,5 -2.76,0 -5,-2.24 -5,-5 0,-2.76 2.24,-5 5,-5 2.76,0 5,2.24 5,5 z"
         style="fill:#858585;fill-rule:evenodd;stroke:#858585;stroke-width:1pt"
         transform="matrix(0.2,0,0,0.2,1.48,0.2)" />
    </marker>
    <marker
       inkscape:stockid="marker5218X"
       orient="auto"
       refY="0"
       refX="0"
       id="marker5218X"
       style="overflow:visible">
      <path
         inkscape:connector-curvature="0"
         id="path5828"
         d="m -2.5,-1 c 0,2.76 -2.24,5 -5,5 -2.76,0 -5,-2.24 -5,-5 0,-2.76 2.24,-5 5,-5 2.76,0 5,2.24 5,5 z"
         style="fill:#858585;fill-rule:evenodd;stroke:#858585;stroke-width:1pt"
         transform="matrix(0.2,0,0,0.2,1.48,0.2)" />
    </marker>
    <marker
       inkscape:stockid="DotSQL"
       orient="auto"
       refY="0"
       refX="0"
       id="DotSQL"
       style="overflow:visible">
      <path
         id="path6109"
         d="m -2.5,-1 c 0,2.76 -2.24,5 -5,5 -2.76,0 -5,-2.24 -5,-5 0,-2.76 2.24,-5 5,-5 2.76,0 5,2.24 5,5 z"
         style="fill:#ffc400;fill-rule:evenodd;stroke:#ffc400;stroke-width:1pt"
         transform="matrix(0.2,0,0,0.2,1.48,0.2)"
         inkscape:connector-curvature="0" />
    </marker>
    <marker
       inkscape:stockid="DotSgb"
       orient="auto"
       refY="0"
       refX="0"
       id="DotSgb"
       style="overflow:visible">
      <path
         id="path6112"
         d="m -2.5,-1 c 0,2.76 -2.24,5 -5,5 -2.76,0 -5,-2.24 -5,-5 0,-2.76 2.24,-5 5,-5 2.76,0 5,2.24 5,5 z"
         style="fill:#ffc400;fill-rule:evenodd;stroke:#ffc400;stroke-width:1pt"
         transform="matrix(0.2,0,0,0.2,1.48,0.2)"
         inkscape:connector-curvature="0" />
    </marker>
    <marker
       inkscape:stockid="marker4516J6"
       orient="auto"
       refY="0"
       refX="0"
       id="marker4516J6"
       style="overflow:visible">
      <path
         inkscape:connector-curvature="0"
         id="path6115"
         d="m -2.5,-1 c 0,2.76 -2.24,5 -5,5 -2.76,0 -5,-2.24 -5,-5 0,-2.76 2.24,-5 5,-5 2.76,0 5,2.24 5,5 z"
         style="fill:#ffc400;fill-rule:evenodd;stroke:#ffc400;stroke-width:1pt"
         transform="matrix(0.2,0,0,0.2,1.48,0.2)" />
    </marker>
    <marker
       inkscape:stockid="marker4516Pl"
       orient="auto"
       refY="0"
       refX="0"
       id="marker4516Pl"
       style="overflow:visible">
      <path
         inkscape:connector-curvature="0"
         id="path6118"
         d="m -2.5,-1 c 0,2.76 -2.24,5 -5,5 -2.76,0 -5,-2.24 -5,-5 0,-2.76 2.24,-5 5,-5 2.76,0 5,2.24 5,5 z"
         style="fill:#ffc400;fill-rule:evenodd;stroke:#ffc400;stroke-width:1pt"
         transform="matrix(0.2,0,0,0.2,1.48,0.2)" />
    </marker>
    <marker
       inkscape:stockid="DotSSB"
       orient="auto"
       refY="0"
       refX="0"
       id="DotSSB"
       style="overflow:visible">
      <path
         id="path6121"
         d="m -2.5,-1 c 0,2.76 -2.24,5 -5,5 -2.76,0 -5,-2.24 -5,-5 0,-2.76 2.24,-5 5,-5 2.76,0 5,2.24 5,5 z"
         style="fill:#ffc400;fill-rule:evenodd;stroke:#ffc400;stroke-width:1pt"
         transform="matrix(0.2,0,0,0.2,1.48,0.2)"
         inkscape:connector-curvature="0" />
    </marker>
    <marker
       inkscape:stockid="DotSyD"
       orient="auto"
       refY="0"
       refX="0"
       id="DotSyD"
       style="overflow:visible">
      <path
         id="path6124"
         d="m -2.5,-1 c 0,2.76 -2.24,5 -5,5 -2.76,0 -5,-2.24 -5,-5 0,-2.76 2.24,-5 5,-5 2.76,0 5,2.24 5,5 z"
         style="fill:#ffc400;fill-rule:evenodd;stroke:#ffc400;stroke-width:1pt"
         transform="matrix(0.2,0,0,0.2,1.48,0.2)"
         inkscape:connector-curvature="0" />
    </marker>
    <marker
       inkscape:stockid="marker4516Ct"
       orient="auto"
       refY="0"
       refX="0"
       id="marker4516Ct"
       style="overflow:visible">
      <path
         inkscape:connector-curvature="0"
         id="path6127"
         d="m -2.5,-1 c 0,2.76 -2.24,5 -5,5 -2.76,0 -5,-2.24 -5,-5 0,-2.76 2.24,-5 5,-5 2.76,0 5,2.24 5,5 z"
         style="fill:#ffc400;fill-rule:evenodd;stroke:#ffc400;stroke-width:1pt"
         transform="matrix(0.2,0,0,0.2,1.48,0.2)" />
    </marker>
    <marker
       inkscape:stockid="marker451623"
       orient="auto"
       refY="0"
       refX="0"
       id="marker451623"
       style="overflow:visible">
      <path
         inkscape:connector-curvature="0"
         id="path6130"
         d="m -2.5,-1 c 0,2.76 -2.24,5 -5,5 -2.76,0 -5,-2.24 -5,-5 0,-2.76 2.24,-5 5,-5 2.76,0 5,2.24 5,5 z"
         style="fill:#ffc400;fill-rule:evenodd;stroke:#ffc400;stroke-width:1pt"
         transform="matrix(0.2,0,0,0.2,1.48,0.2)" />
    </marker>
    <marker
       inkscape:stockid="marker4516yb"
       orient="auto"
       refY="0"
       refX="0"
       id="marker4516yb"
       style="overflow:visible">
      <path
         inkscape:connector-curvature="0"
         id="path6133"
         d="m -2.5,-1 c 0,2.76 -2.24,5 -5,5 -2.76,0 -5,-2.24 -5,-5 0,-2.76 2.24,-5 5,-5 2.76,0 5,2.24 5,5 z"
         style="fill:#ffc400;fill-rule:evenodd;stroke:#ffc400;stroke-width:1pt"
         transform="matrix(0.2,0,0,0.2,1.48,0.2)" />
    </marker>
    <marker
       inkscape:stockid="marker4516IS"
       orient="auto"
       refY="0"
       refX="0"
       id="marker4516IS"
       style="overflow:visible">
      <path
         inkscape:connector-curvature="0"
         id="path6136"
         d="m -2.5,-1 c 0,2.76 -2.24,5 -5,5 -2.76,0 -5,-2.24 -5,-5 0,-2.76 2.24,-5 5,-5 2.76,0 5,2.24 5,5 z"
         style="fill:#ffc400;fill-rule:evenodd;stroke:#ffc400;stroke-width:1pt"
         transform="matrix(0.2,0,0,0.2,1.48,0.2)" />
    </marker>
    <marker
       inkscape:stockid="DotSsAi"
       orient="auto"
       refY="0"
       refX="0"
       id="DotSsAi"
       style="overflow:visible">
      <path
         id="path6139"
         d="m -2.5,-1 c 0,2.76 -2.24,5 -5,5 -2.76,0 -5,-2.24 -5,-5 0,-2.76 2.24,-5 5,-5 2.76,0 5,2.24 5,5 z"
         style="fill:#ffc400;fill-rule:evenodd;stroke:#ffc400;stroke-width:1pt"
         transform="matrix(0.2,0,0,0.2,1.48,0.2)"
         inkscape:connector-curvature="0" />
    </marker>
    <marker
       inkscape:stockid="DotSLdG"
       orient="auto"
       refY="0"
       refX="0"
       id="DotSLdG"
       style="overflow:visible">
      <path
         id="path6142"
         d="m -2.5,-1 c 0,2.76 -2.24,5 -5,5 -2.76,0 -5,-2.24 -5,-5 0,-2.76 2.24,-5 5,-5 2.76,0 5,2.24 5,5 z"
         style="fill:#ffc400;fill-rule:evenodd;stroke:#ffc400;stroke-width:1pt"
         transform="matrix(0.2,0,0,0.2,1.48,0.2)"
         inkscape:connector-curvature="0" />
    </marker>
    <marker
       inkscape:stockid="DotSd7"
       orient="auto"
       refY="0"
       refX="0"
       id="DotSd7"
       style="overflow:visible">
      <path
         id="path6145"
         d="m -2.5,-1 c 0,2.76 -2.24,5 -5,5 -2.76,0 -5,-2.24 -5,-5 0,-2.76 2.24,-5 5,-5 2.76,0 5,2.24 5,5 z"
         style="fill:#ffc400;fill-rule:evenodd;stroke:#ffc400;stroke-width:1pt"
         transform="matrix(0.2,0,0,0.2,1.48,0.2)"
         inkscape:connector-curvature="0" />
    </marker>
    <marker
       inkscape:stockid="DotSyIp"
       orient="auto"
       refY="0"
       refX="0"
       id="DotSyIp"
       style="overflow:visible">
      <path
         id="path6148"
         d="m -2.5,-1 c 0,2.76 -2.24,5 -5,5 -2.76,0 -5,-2.24 -5,-5 0,-2.76 2.24,-5 5,-5 2.76,0 5,2.24 5,5 z"
         style="fill:#ffc400;fill-rule:evenodd;stroke:#ffc400;stroke-width:1pt"
         transform="matrix(0.2,0,0,0.2,1.48,0.2)"
         inkscape:connector-curvature="0" />
    </marker>
    <marker
       inkscape:stockid="DotSvS"
       orient="auto"
       refY="0"
       refX="0"
       id="DotSvS"
       style="overflow:visible">
      <path
         id="path6151"
         d="m -2.5,-1 c 0,2.76 -2.24,5 -5,5 -2.76,0 -5,-2.24 -5,-5 0,-2.76 2.24,-5 5,-5 2.76,0 5,2.24 5,5 z"
         style="fill:#ffc400;fill-rule:evenodd;stroke:#ffc400;stroke-width:1pt"
         transform="matrix(0.2,0,0,0.2,1.48,0.2)"
         inkscape:connector-curvature="0" />
    </marker>
    <marker
       inkscape:stockid="DotSsJ"
       orient="auto"
       refY="0"
       refX="0"
       id="DotSsJ"
       style="overflow:visible">
      <path
         id="path6154"
         d="m -2.5,-1 c 0,2.76 -2.24,5 -5,5 -2.76,0 -5,-2.24 -5,-5 0,-2.76 2.24,-5 5,-5 2.76,0 5,2.24 5,5 z"
         style="fill:#ffc400;fill-rule:evenodd;stroke:#ffc400;stroke-width:1pt"
         transform="matrix(0.2,0,0,0.2,1.48,0.2)"
         inkscape:connector-curvature="0" />
    </marker>
    <marker
       inkscape:stockid="DotSfb"
       orient="auto"
       refY="0"
       refX="0"
       id="DotSfb"
       style="overflow:visible">
      <path
         id="path6157"
         d="m -2.5,-1 c 0,2.76 -2.24,5 -5,5 -2.76,0 -5,-2.24 -5,-5 0,-2.76 2.24,-5 5,-5 2.76,0 5,2.24 5,5 z"
         style="fill:#ffc400;fill-rule:evenodd;stroke:#ffc400;stroke-width:1pt"
         transform="matrix(0.2,0,0,0.2,1.48,0.2)"
         inkscape:connector-curvature="0" />
    </marker>
    <marker
       inkscape:stockid="DotS7T"
       orient="auto"
       refY="0"
       refX="0"
       id="DotS7T"
       style="overflow:visible">
      <path
         id="path6160"
         d="m -2.5,-1 c 0,2.76 -2.24,5 -5,5 -2.76,0 -5,-2.24 -5,-5 0,-2.76 2.24,-5 5,-5 2.76,0 5,2.24 5,5 z"
         style="fill:#ffc400;fill-rule:evenodd;stroke:#ffc400;stroke-width:1pt"
         transform="matrix(0.2,0,0,0.2,1.48,0.2)"
         inkscape:connector-curvature="0" />
    </marker>
    <marker
       inkscape:stockid="DotSko"
       orient="auto"
       refY="0"
       refX="0"
       id="DotSko"
       style="overflow:visible">
      <path
         id="path6163"
         d="m -2.5,-1 c 0,2.76 -2.24,5 -5,5 -2.76,0 -5,-2.24 -5,-5 0,-2.76 2.24,-5 5,-5 2.76,0 5,2.24 5,5 z"
         style="fill:#ffc400;fill-rule:evenodd;stroke:#ffc400;stroke-width:1pt"
         transform="matrix(0.2,0,0,0.2,1.48,0.2)"
         inkscape:connector-curvature="0" />
    </marker>
    <marker
       inkscape:stockid="DotSKZ"
       orient="auto"
       refY="0"
       refX="0"
       id="DotSKZ"
       style="overflow:visible">
      <path
         id="path6166"
         d="m -2.5,-1 c 0,2.76 -2.24,5 -5,5 -2.76,0 -5,-2.24 -5,-5 0,-2.76 2.24,-5 5,-5 2.76,0 5,2.24 5,5 z"
         style="fill:#ffc400;fill-rule:evenodd;stroke:#ffc400;stroke-width:1pt"
         transform="matrix(0.2,0,0,0.2,1.48,0.2)"
         inkscape:connector-curvature="0" />
    </marker>
    <marker
       inkscape:stockid="DotSCa"
       orient="auto"
       refY="0"
       refX="0"
       id="DotSCa"
       style="overflow:visible">
      <path
         id="path6169"
         d="m -2.5,-1 c 0,2.76 -2.24,5 -5,5 -2.76,0 -5,-2.24 -5,-5 0,-2.76 2.24,-5 5,-5 2.76,0 5,2.24 5,5 z"
         style="fill:#ffc400;fill-rule:evenodd;stroke:#ffc400;stroke-width:1pt"
         transform="matrix(0.2,0,0,0.2,1.48,0.2)"
         inkscape:connector-curvature="0" />
    </marker>
    <marker
       inkscape:stockid="DotSLi"
       orient="auto"
       refY="0"
       refX="0"
       id="DotSLi"
       style="overflow:visible">
      <path
         id="path6172"
         d="m -2.5,-1 c 0,2.76 -2.24,5 -5,5 -2.76,0 -5,-2.24 -5,-5 0,-2.76 2.24,-5 5,-5 2.76,0 5,2.24 5,5 z"
         style="fill:#ffc400;fill-rule:evenodd;stroke:#ffc400;stroke-width:1pt"
         transform="matrix(0.2,0,0,0.2,1.48,0.2)"
         inkscape:connector-curvature="0" />
    </marker>
    <marker
       inkscape:stockid="marker5218bQ"
       orient="auto"
       refY="0"
       refX="0"
       id="marker5218bQ"
       style="overflow:visible">
      <path
         inkscape:connector-curvature="0"
         id="path6175"
         d="m -2.5,-1 c 0,2.76 -2.24,5 -5,5 -2.76,0 -5,-2.24 -5,-5 0,-2.76 2.24,-5 5,-5 2.76,0 5,2.24 5,5 z"
         style="fill:#ffc400;fill-rule:evenodd;stroke:#ffc400;stroke-width:1pt"
         transform="matrix(0.2,0,0,0.2,1.48,0.2)" />
    </marker>
    <marker
       inkscape:stockid="marker5218XM"
       orient="auto"
       refY="0"
       refX="0"
       id="marker5218XM"
       style="overflow:visible">
      <path
         inkscape:connector-curvature="0"
         id="path6178"
         d="m -2.5,-1 c 0,2.76 -2.24,5 -5,5 -2.76,0 -5,-2.24 -5,-5 0,-2.76 2.24,-5 5,-5 2.76,0 5,2.24 5,5 z"
         style="fill:#ffc400;fill-rule:evenodd;stroke:#ffc400;stroke-width:1pt"
         transform="matrix(0.2,0,0,0.2,1.48,0.2)" />
    </marker>
    <marker
       inkscape:stockid="DotSGn"
       orient="auto"
       refY="0"
       refX="0"
       id="DotSGn"
       style="overflow:visible">
      <path
         id="path6181"
         d="m -2.5,-1 c 0,2.76 -2.24,5 -5,5 -2.76,0 -5,-2.24 -5,-5 0,-2.76 2.24,-5 5,-5 2.76,0 5,2.24 5,5 z"
         style="fill:#ffc400;fill-rule:evenodd;stroke:#ffc400;stroke-width:1pt"
         transform="matrix(0.2,0,0,0.2,1.48,0.2)"
         inkscape:connector-curvature="0" />
    </marker>
    <marker
       inkscape:stockid="DotS5R"
       orient="auto"
       refY="0"
       refX="0"
       id="DotS5R"
       style="overflow:visible">
      <path
         id="path6184"
         d="m -2.5,-1 c 0,2.76 -2.24,5 -5,5 -2.76,0 -5,-2.24 -5,-5 0,-2.76 2.24,-5 5,-5 2.76,0 5,2.24 5,5 z"
         style="fill:#ffc400;fill-rule:evenodd;stroke:#ffc400;stroke-width:1pt"
         transform="matrix(0.2,0,0,0.2,1.48,0.2)"
         inkscape:connector-curvature="0" />
    </marker>
    <marker
       inkscape:stockid="DotSd7"
       orient="auto"
       refY="0"
       refX="0"
       id="DotSd7-9"
       style="overflow:visible">
      <path
         inkscape:connector-curvature="0"
         id="path6145-2"
         d="m -2.5,-1 c 0,2.76 -2.24,5 -5,5 -2.76,0 -5,-2.24 -5,-5 0,-2.76 2.24,-5 5,-5 2.76,0 5,2.24 5,5 z"
         style="fill:#ffc400;fill-rule:evenodd;stroke:#ffc400;stroke-width:1pt"
         transform="matrix(0.2,0,0,0.2,1.48,0.2)" />
    </marker>
    <marker
       inkscape:stockid="DotSyIp"
       orient="auto"
       refY="0"
       refX="0"
       id="DotSyIp-9"
       style="overflow:visible">
      <path
         inkscape:connector-curvature="0"
         id="path6148-2"
         d="m -2.5,-1 c 0,2.76 -2.24,5 -5,5 -2.76,0 -5,-2.24 -5,-5 0,-2.76 2.24,-5 5,-5 2.76,0 5,2.24 5,5 z"
         style="fill:#ffc400;fill-rule:evenodd;stroke:#ffc400;stroke-width:1pt"
         transform="matrix(0.2,0,0,0.2,1.48,0.2)" />
    </marker>
    <marker
       inkscape:stockid="DotSGn"
       orient="auto"
       refY="0"
       refX="0"
       id="DotSGn-0"
       style="overflow:visible">
      <path
         inkscape:connector-curvature="0"
         id="path6181-6"
         d="m -2.5,-1 c 0,2.76 -2.24,5 -5,5 -2.76,0 -5,-2.24 -5,-5 0,-2.76 2.24,-5 5,-5 2.76,0 5,2.24 5,5 z"
         style="fill:#ffc400;fill-rule:evenodd;stroke:#ffc400;stroke-width:1pt"
         transform="matrix(0.2,0,0,0.2,1.48,0.2)" />
    </marker>
    <marker
       inkscape:stockid="DotS5R"
       orient="auto"
       refY="0"
       refX="0"
       id="DotS5R-3"
       style="overflow:visible">
      <path
         inkscape:connector-curvature="0"
         id="path6184-9"
         d="m -2.5,-1 c 0,2.76 -2.24,5 -5,5 -2.76,0 -5,-2.24 -5,-5 0,-2.76 2.24,-5 5,-5 2.76,0 5,2.24 5,5 z"
         style="fill:#ffc400;fill-rule:evenodd;stroke:#ffc400;stroke-width:1pt"
         transform="matrix(0.2,0,0,0.2,1.48,0.2)" />
    </marker>
    <marker
       inkscape:stockid="marker5218bQ"
       orient="auto"
       refY="0"
       refX="0"
       id="marker5218bQ-7"
       style="overflow:visible">
      <path
         inkscape:connector-curvature="0"
         id="path6175-9"
         d="m -2.5,-1 c 0,2.76 -2.24,5 -5,5 -2.76,0 -5,-2.24 -5,-5 0,-2.76 2.24,-5 5,-5 2.76,0 5,2.24 5,5 z"
         style="fill:#ffc400;fill-rule:evenodd;stroke:#ffc400;stroke-width:1pt"
         transform="matrix(0.2,0,0,0.2,1.48,0.2)" />
    </marker>
    <marker
       inkscape:stockid="marker5218XM"
       orient="auto"
       refY="0"
       refX="0"
       id="marker5218XM-8"
       style="overflow:visible">
      <path
         inkscape:connector-curvature="0"
         id="path6178-2"
         d="m -2.5,-1 c 0,2.76 -2.24,5 -5,5 -2.76,0 -5,-2.24 -5,-5 0,-2.76 2.24,-5 5,-5 2.76,0 5,2.24 5,5 z"
         style="fill:#ffc400;fill-rule:evenodd;stroke:#ffc400;stroke-width:1pt"
         transform="matrix(0.2,0,0,0.2,1.48,0.2)" />
    </marker>
    <marker
       inkscape:stockid="marker5218bQ"
       orient="auto"
       refY="0"
       refX="0"
       id="marker5218bQ-9"
       style="overflow:visible">
      <path
         inkscape:connector-curvature="0"
         id="path6175-95"
         d="m -2.5,-1 c 0,2.76 -2.24,5 -5,5 -2.76,0 -5,-2.24 -5,-5 0,-2.76 2.24,-5 5,-5 2.76,0 5,2.24 5,5 z"
         style="fill:#ffc400;fill-rule:evenodd;stroke:#ffc400;stroke-width:1pt"
         transform="matrix(0.2,0,0,0.2,1.48,0.2)" />
    </marker>
    <marker
       inkscape:stockid="marker5218XM"
       orient="auto"
       refY="0"
       refX="0"
       id="marker5218XM-4"
       style="overflow:visible">
      <path
         inkscape:connector-curvature="0"
         id="path6178-29"
         d="m -2.5,-1 c 0,2.76 -2.24,5 -5,5 -2.76,0 -5,-2.24 -5,-5 0,-2.76 2.24,-5 5,-5 2.76,0 5,2.24 5,5 z"
         style="fill:#ffc400;fill-rule:evenodd;stroke:#ffc400;stroke-width:1pt"
         transform="matrix(0.2,0,0,0.2,1.48,0.2)" />
    </marker>
    <marker
       inkscape:stockid="DotSGn"
       orient="auto"
       refY="0"
       refX="0"
       id="DotSGn-08"
       style="overflow:visible">
      <path
         inkscape:connector-curvature="0"
         id="path6181-5"
         d="m -2.5,-1 c 0,2.76 -2.24,5 -5,5 -2.76,0 -5,-2.24 -5,-5 0,-2.76 2.24,-5 5,-5 2.76,0 5,2.24 5,5 z"
         style="fill:#ffc400;fill-rule:evenodd;stroke:#ffc400;stroke-width:1pt"
         transform="matrix(0.2,0,0,0.2,1.48,0.2)" />
    </marker>
    <marker
       inkscape:stockid="DotS5R"
       orient="auto"
       refY="0"
       refX="0"
       id="DotS5R-8"
       style="overflow:visible">
      <path
         inkscape:connector-curvature="0"
         id="path6184-1"
         d="m -2.5,-1 c 0,2.76 -2.24,5 -5,5 -2.76,0 -5,-2.24 -5,-5 0,-2.76 2.24,-5 5,-5 2.76,0 5,2.24 5,5 z"
         style="fill:#ffc400;fill-rule:evenodd;stroke:#ffc400;stroke-width:1pt"
         transform="matrix(0.2,0,0,0.2,1.48,0.2)" />
    </marker>
    <marker
       inkscape:stockid="marker4516Ct"
       orient="auto"
       refY="0"
       refX="0"
       id="marker4516Ct-0"
       style="overflow:visible">
      <path
         inkscape:connector-curvature="0"
         id="path6127-3"
         d="m -2.5,-1 c 0,2.76 -2.24,5 -5,5 -2.76,0 -5,-2.24 -5,-5 0,-2.76 2.24,-5 5,-5 2.76,0 5,2.24 5,5 z"
         style="fill:#ffc400;fill-rule:evenodd;stroke:#ffc400;stroke-width:1pt"
         transform="matrix(0.2,0,0,0.2,1.48,0.2)" />
    </marker>
    <marker
       inkscape:stockid="marker451623"
       orient="auto"
       refY="0"
       refX="0"
       id="marker451623-8"
       style="overflow:visible">
      <path
         inkscape:connector-curvature="0"
         id="path6130-8"
         d="m -2.5,-1 c 0,2.76 -2.24,5 -5,5 -2.76,0 -5,-2.24 -5,-5 0,-2.76 2.24,-5 5,-5 2.76,0 5,2.24 5,5 z"
         style="fill:#ffc400;fill-rule:evenodd;stroke:#ffc400;stroke-width:1pt"
         transform="matrix(0.2,0,0,0.2,1.48,0.2)" />
    </marker>
    <marker
       inkscape:stockid="marker5218bQ"
       orient="auto"
       refY="0"
       refX="0"
       id="marker5218bQ-0"
       style="overflow:visible">
      <path
         inkscape:connector-curvature="0"
         id="path6175-8"
         d="m -2.5,-1 c 0,2.76 -2.24,5 -5,5 -2.76,0 -5,-2.24 -5,-5 0,-2.76 2.24,-5 5,-5 2.76,0 5,2.24 5,5 z"
         style="fill:#ffc400;fill-rule:evenodd;stroke:#ffc400;stroke-width:1pt"
         transform="matrix(0.2,0,0,0.2,1.48,0.2)" />
    </marker>
    <marker
       inkscape:stockid="marker5218XM"
       orient="auto"
       refY="0"
       refX="0"
       id="marker5218XM-86"
       style="overflow:visible">
      <path
         inkscape:connector-curvature="0"
         id="path6178-7"
         d="m -2.5,-1 c 0,2.76 -2.24,5 -5,5 -2.76,0 -5,-2.24 -5,-5 0,-2.76 2.24,-5 5,-5 2.76,0 5,2.24 5,5 z"
         style="fill:#ffc400;fill-rule:evenodd;stroke:#ffc400;stroke-width:1pt"
         transform="matrix(0.2,0,0,0.2,1.48,0.2)" />
    </marker>
    <circle
       transform="matrix(0.8755829,0,0,0.8755829,152.4506,-680.83707)"
       id="path6572"
       style="fill:none;stroke:none"
       cx="675.71429"
       cy="777.58148"
       r="584.28571" />
    <circle
       transform="matrix(-1.1162727,-0.04357729,-0.04357729,1.1162727,1532.2608,-838.54723)"
       id="path6572-9"
       style="fill:none;stroke:none"
       cx="675.71429"
       cy="777.58148"
       r="584.28571" />
  </defs>
  <metadata
     id="metadata7">
    <rdf:RDF>
      <cc:Work
         rdf:about="">
        <dc:format>image/svg+xml</dc:format>
        <dc:type
           rdf:resource="http://purl.org/dc/dcmitype/StillImage" />
        <dc:title></dc:title>
      </cc:Work>
    </rdf:RDF>
  </metadata>
  <g
     inkscape:label="Ebene 1"
     inkscape:groupmode="layer"
     id="layer1"
     transform="translate(0,-783.07098)">
    <path
       id="path1741"
       style="color:#000000;font-style:normal;font-variant:normal;font-weight:normal;font-stretch:normal;font-size:medium;line-height:normal;font-family:sans-serif;font-variant-ligatures:normal;font-variant-position:normal;font-variant-caps:normal;font-variant-numeric:normal;font-variant-alternates:normal;font-variant-east-asian:normal;font-feature-settings:normal;font-variation-settings:normal;text-indent:0;text-align:start;text-decoration:none;text-decoration-line:none;text-decoration-style:solid;text-decoration-color:#000000;letter-spacing:normal;word-spacing:normal;text-transform:none;writing-mode:lr-tb;direction:ltr;text-orientation:mixed;dominant-baseline:auto;baseline-shift:baseline;text-anchor:start;white-space:normal;shape-padding:0;shape-margin:0;inline-size:0;clip-rule:nonzero;display:inline;overflow:visible;visibility:visible;isolation:auto;mix-blend-mode:normal;color-interpolation:sRGB;color-interpolation-filters:linearRGB;solid-color:#000000;solid-opacity:1;vector-effect:none;fill:#000000;fill-opacity:1;fill-rule:nonzero;stroke:none;stroke-width:1.99847;stroke-linecap:butt;stroke-linejoin:miter;stroke-miterlimit:4;stroke-dasharray:none;stroke-dashoffset:0;stroke-opacity:1;color-rendering:auto;image-rendering:auto;shape-rendering:auto;text-rendering:auto;enable-background:accumulate;stop-color:#000000"
       d="m 94.345329,783.07098 c -47.885496,0.0125 -88.9286959,36.31205 -93.85741585,84.9707 -5.25732015,51.90261 32.57202985,98.2603 84.47460985,103.51759 51.902617,5.25737 98.268077,-32.5739 103.525387,-84.47657 5.25734,-51.90265 -32.57985,-98.26026 -84.48242,-103.51758 -3.24298,-0.32849 -6.466821,-0.49497 -9.660161,-0.49414 z m 0.11914,7.33398 3.05664,0.23438 c 0.14309,0.0109 0.28185,0.0866 0.37305,0.26367 l 1.60937,3.78516 c 0.45914,1.18635 0.867731,2.50046 0.832031,2.96875 l 0.13086,0.01 c 0.0347,-0.4553 0.52304,-1.70031 1.1836,-2.81445 l 2.09765,-3.50391 c 0.0779,-0.16419 0.25274,-0.21703 0.38282,-0.20703 l 3.27734,0.25 c 0.1691,0.0129 0.2941,0.0874 0.2832,0.23047 -0.005,0.065 -0.0352,0.12998 -0.0801,0.20508 l -5.60743,9.03125 -0.50195,6.58203 c -0.0208,0.27318 -0.20338,0.429 -0.47656,0.4082 l -2.757821,-0.20898 c -0.27316,-0.0208 -0.429,-0.20338 -0.4082,-0.47656 l 0.50196,-6.58204 -4.16211,-9.77734 c -0.0332,-0.081 -0.0284,-0.14584 -0.0234,-0.21094 0.0109,-0.14312 0.0809,-0.2034 0.28906,-0.1875 z m -5.48047,0.37696 c 0.27198,-0.0329 0.46123,0.11474 0.49414,0.38672 l 0.29297,2.42187 c 0.0329,0.27197 -0.11474,0.46124 -0.38672,0.49414 l -2.902336,0.35156 c -0.27198,0.0329 -0.41963,0.2202 -0.38672,0.49219 l 1.50781,12.45899 c 0.0329,0.27199 -0.11474,0.46124 -0.38672,0.49414 l -2.74609,0.33203 c -0.27199,0.0329 -0.46123,-0.11473 -0.49414,-0.38672 l -1.50781,-12.45899 c -0.0329,-0.27198 -0.22021,-0.41961 -0.49219,-0.38671 l -2.90235,0.3496 c -0.27198,0.0329 -0.46123,-0.11472 -0.49414,-0.38671 l -0.29297,-2.42188 c -0.0329,-0.27199 0.11669,-0.46124 0.38868,-0.49414 z m -19.498046,3.91015 c 2.09399,0.027 3.7169,1.27959 4.49024,3.51758 0.59225,1.71396 0.36781,3.22694 -0.75196,4.58008 -0.0974,0.11658 -0.13366,0.21185 -0.0996,0.31055 0.0341,0.0986 0.0852,0.1641 0.15625,0.25 l 4.44921,5.04687 c 0.20046,0.22059 0.30578,0.36429 0.33985,0.46289 0.0341,0.0987 -0.0312,0.23073 -0.22852,0.29883 l -2.98437,1.03125 c -0.0986,0.0341 -0.20593,0.003 -0.31446,-0.11133 l -4.40625,-4.96484 c -0.0919,-0.1063 -0.20933,-0.12239 -0.32031,-0.084 l -2.13281,0.73828 c -0.25894,0.0895 -0.36292,0.30356 -0.27344,0.5625 l 1.83985,5.32813 c 0.0895,0.25895 -0.0145,0.473 -0.27344,0.5625 l -2.61524,0.9043 c -0.25894,0.0895 -0.47302,-0.0145 -0.5625,-0.27344 l -5.18554,-15.00781 c -0.0895,-0.25894 0.0145,-0.47496 0.27343,-0.56446 l 6.36329,-2.19726 c 0.78915,-0.27269 1.53833,-0.39961 2.23632,-0.39063 z m 52.470707,0.60938 c 0.7029,0.0296 1.47121,0.19541 2.30078,0.50976 l 1.74609,0.66016 c 3.44025,1.30365 4.37679,3.5437 3.33203,6.30078 l -2.7871,7.35547 c -1.00317,2.64729 -3.35363,3.76522 -6.67188,2.50781 l -1.74414,-0.66015 c -3.44025,-1.30364 -4.3768,-3.54175 -3.33203,-6.29883 l 2.78711,-7.35742 c 0.7489,-1.97632 2.26042,-3.10645 4.36914,-3.01758 z m -52.863277,2.79297 c -0.2334,-0.003 -0.47718,0.035 -0.72071,0.11914 l -2.94726,1.01953 c -0.25895,0.0895 -0.36292,0.30355 -0.27344,0.5625 l 0.91992,2.66406 c 0.0895,0.25897 0.30551,0.36294 0.56445,0.27344 l 2.94727,-1.01758 c 0.94945,-0.32808 1.49588,-1.26126 1.19336,-2.13672 l -0.15039,-0.43164 c -0.22689,-0.65661 -0.83301,-1.043 -1.5332,-1.05273 z m 53.275387,0.70898 c -0.67994,0.034 -1.24735,0.49871 -1.50391,1.17578 l -2.50976,6.625 c -0.3652,0.96376 -0.007,1.89457 0.95703,2.25977 l 1.74414,0.66211 c 0.97596,0.36983 1.86812,-0.14364 2.21484,-1.0586 l 2.50977,-6.625 c 0.36522,-0.96376 0.007,-1.89455 -0.95703,-2.25976 l -1.74415,-0.66016 c -0.24398,-0.0925 -0.48429,-0.13048 -0.71093,-0.11914 z m -68.761717,1.95117 c 0.17075,-0.0342 0.32769,0.0399 0.43554,0.21485 l 1.28125,2.07617 c 0.14381,0.23319 0.0887,0.46753 -0.14453,0.61133 l -5.57422,3.4375 c -0.23319,0.1438 -0.28833,0.37618 -0.14453,0.60937 l 1.2793,2.07617 c 0.1438,0.23323 0.37814,0.29029 0.61133,0.14649 l 4.57422,-2.82227 c 0.23319,-0.1438 0.46752,-0.0887 0.61132,0.14453 l 1.2793,2.07618 c 0.1438,0.23318 0.0887,0.46752 -0.14453,0.61132 l -4.57422,2.82032 c -0.23319,0.14381 -0.28833,0.37812 -0.14453,0.61132 l 1.34961,2.1875 c 0.1438,0.23323 0.37618,0.28834 0.60937,0.14454 l 5.57422,-3.4375 c 0.23319,-0.1438 0.46753,-0.0886 0.61133,0.14453 l 1.2793,2.07617 c 0.1438,0.23319 0.0887,0.46753 -0.14453,0.61133 l -8.6836,5.35351 c -0.23319,0.1438 -0.46557,0.0887 -0.60937,-0.14453 l -8.33399,-13.51367 c -0.1438,-0.23319 -0.0887,-0.46558 0.14454,-0.60938 l 8.68359,-5.35546 c 0.0583,-0.0359 0.11691,-0.0589 0.17383,-0.0703 z m 84.068357,1.60742 c 0.10615,-0.0219 0.22148,0.003 0.33594,0.0781 l 8.52539,5.60547 c 0.2289,0.15053 0.27749,0.38632 0.12695,0.61523 l -1.3418,2.03711 c -0.15053,0.22891 -0.38437,0.27749 -0.61328,0.12696 l -5.47265,-3.59766 c -0.2289,-0.15053 -0.46275,-0.10195 -0.61329,0.12695 l -1.66992,2.53906 c -0.15053,0.2289 -0.1039,0.4647 0.125,0.61524 l 4.49219,2.95312 c 0.2289,0.15053 0.27748,0.38438 0.12695,0.61329 l -1.34179,2.03906 c -0.15053,0.22891 -0.38439,0.27748 -0.61329,0.12695 l -4.48046,-2.94531 c -0.23981,-0.15771 -0.47447,-0.10977 -0.625,0.11914 l -2.91016,4.42578 c -0.15054,0.2289 -0.38633,0.27749 -0.61523,0.12695 l -2.31055,-1.51953 c -0.2289,-0.15054 -0.2775,-0.38633 -0.12695,-0.61523 l 8.7246,-13.26563 c 0.0753,-0.11445 0.1712,-0.18315 0.27735,-0.20508 z m -98.599607,9.88868 c 1.25553,0.0232 2.46108,0.63848 3.54883,1.77343 l 0.27929,0.29297 c 1.82344,1.90258 2.26788,4.92776 -0.32226,7.41016 l -1.8086,1.73437 c -0.19779,0.18957 -0.20323,0.42916 -0.0137,0.62696 l 3.61914,3.77734 c 0.18957,0.19779 0.18412,0.43738 -0.0137,0.62695 l -1.99609,1.91407 c -0.1978,0.18959 -0.43739,0.18411 -0.62696,-0.0137 l -10.98633,-11.46289 c -0.18956,-0.19779 -0.18412,-0.43738 0.0137,-0.62695 l 4.45507,-4.26953 c 1.29037,-1.23673 2.59604,-1.8064 3.85157,-1.7832 z m 55.060546,1.91015 h 0.002 0.0859 c 34.773581,-1.9e-4 62.939641,28.16786 62.939451,62.94141 2.4e-4,19.72573 -9.24435,38.30997 -24.97852,50.20704 l -0.66992,0.50585 2.57227,5.01954 -2.14063,5.09375 -3.27929,1.8125 -5.61914,-1.34571 -2.33399,-4.18945 -0.83398,0.37305 c -8.07351,3.6039 -16.81489,5.46499 -25.656251,5.46484 -10.077456,3.3e-4 -20.009126,-2.41703 -28.957036,-7.05273 l -0.44726,-0.23243 -14.76758,7.23829 -5.72461,-0.002 -5.13477,-5.66992 -0.0508,-6.76172 9.40821,-7.13672 -0.74024,-0.80859 c -10.6331,-11.60666 -16.52933,-26.77537 -16.52929,-42.51563 -2.2e-4,-34.74004 28.11562,-62.89416 62.855466,-62.94141 z m -55.281256,1.68946 c -0.45667,-0.003 -0.90921,0.1825 -1.28125,0.53906 l -1.86523,1.78711 c -0.19779,0.18956 -0.20324,0.43111 -0.0137,0.6289 l 2.1582,2.25 c 0.18957,0.19777 0.42916,0.20325 0.62695,0.0137 l 1.86524,-1.78711 c 0.74407,-0.71312 0.83955,-1.76386 0.0723,-2.56446 l -0.26171,-0.27343 c -0.38365,-0.40032 -0.84411,-0.59097 -1.30079,-0.59375 z m 116.937507,0.0781 c 0.0573,0.007 0.1156,0.0326 0.1582,0.082 l 2.19922,2.54883 c 0.14499,0.16789 0.18054,0.30986 0.12304,0.46289 l -1.6621,3.98438 c -0.16436,0.34867 -0.70815,1.47394 -0.92188,1.86523 l 0.0508,0.0586 c 0.73758,-0.7228 1.50441,-0.95307 3.33789,-1.48437 l 2.50391,-0.59375 c 0.16966,-0.043 0.31035,0.0414 0.42969,0.17969 l 2.31054,2.67773 c 0.0937,0.10863 0.0536,0.26188 -0.0254,0.33008 -0.0494,0.0426 -0.1161,0.0839 -0.1543,0.0996 l -8.99023,1.88476 c -0.075,0.0129 -0.14965,0.0243 -0.21875,0.084 -0.0691,0.0597 -0.0843,0.14182 -0.10937,0.23242 l -2.96094,8.19141 c -0.0251,0.0906 -0.0463,0.12537 -0.0957,0.16797 -0.10862,0.0938 -0.25176,0.0289 -0.37109,-0.10938 l -2.23437,-2.58789 c -0.1876,-0.21726 -0.18281,-0.39368 -0.0957,-0.57227 l 1.71485,-3.96093 c 0.16436,-0.34867 0.60657,-1.33331 0.82031,-1.72461 l -0.0508,-0.0606 c -0.56293,0.48588 -1.79283,0.97816 -3.25195,1.32422 l -2.52344,0.61133 c -0.19793,0.0502 -0.38082,0.0181 -0.56836,-0.19922 l -2.19922,-2.54883 c -0.1364,-0.15802 -0.14574,-0.26948 -0.0371,-0.36328 0.0494,-0.0426 0.12617,-0.0729 0.20117,-0.0859 l 9.08203,-1.89648 c 0.10323,-0.0202 0.17131,-0.0609 0.22071,-0.10352 0.0692,-0.0597 0.1012,-0.12116 0.125,-0.19336 l 2.92773,-8.11133 c 0.0126,-0.0453 0.054,-0.0972 0.11328,-0.14843 0.0395,-0.0341 0.095,-0.0475 0.15235,-0.041 z m -53.47071,3.11914 c -10.203941,-0.14924 -18.665207,8.06948 -18.814447,18.27344 -0.0835,5.71006 2.45572,10.87193 6.494136,14.33984 h -3.312496 c -1.76461,2.8e-4 -3.19504,1.43071 -3.19531,3.19532 v 4.49218 l -21.0918,-11.11914 c -0.46947,-0.24693 -0.99302,-0.37312 -1.52344,-0.36719 -1.75087,0.0185 -3.16086,1.4424 -3.16211,3.19336 l -0.0332,41.38477 c -0.002,2.426 2.5942,3.96914 4.72461,2.8086 l 21.08594,-11.49805 v 3.16211 c 2.7e-4,1.76461 1.4307,3.19503 3.19531,3.19531 h 18.457027 a 3.1954947,3.1954947 0 0 0 -1.14062,0.36524 3.1954947,3.1954947 0 0 0 -1.2793,4.33398 l 7.0918,13.03711 -13.927741,24.42188 a 3.1954947,3.1954947 0 0 0 1.19141,4.35742 3.1954947,3.1954947 0 0 0 4.359371,-1.19141 l 11.96875,-20.98633 11.08203,20.36914 a 3.1954947,3.1954947 0 0 0 4.33204,1.2793 3.1954947,3.1954947 0 0 0 1.28125,-4.33398 l -12.97071,-23.84375 7.57031,-13.27539 a 3.1954947,3.1954947 0 0 0 -1.1914,-4.35938 3.1954947,3.1954947 0 0 0 -0.35547,-0.17383 h 17.22852 c 1.76537,8e-4 3.19698,-1.42994 3.19726,-3.19531 v -32.05664 c -2.8e-4,-1.76537 -1.43189,-3.19612 -3.19726,-3.19532 h -3.42969 c 1.94267,-2.14304 3.15589,-4.959 3.20117,-8.05468 0.0989,-6.75924 -5.36772,-12.38943 -12.12695,-12.48829 -2.94924,-0.0431 -5.68245,0.97415 -7.83594,2.69532 -1.73756,-8.29923 -9.05863,-14.63671 -17.87305,-14.76563 z m -0.0918,6.39063 c 6.75037,0.0987 12.07529,5.58165 11.97656,12.33203 -0.0987,6.75037 -5.58165,12.07334 -12.33203,11.97461 -6.750371,-0.0987 -12.075301,-5.58165 -11.976571,-12.33203 0.0987,-6.75037 5.58166,-12.07333 12.332041,-11.97461 z m -75.785157,0.51562 c 0.8874,0.003 1.79858,0.32551 2.7207,0.93555 l 6.5625,4.33984 c 2.36106,1.56199 2.93445,4.09911 0.97656,7.0586 l -1.02929,1.55664 c -2.02987,3.06829 -4.42187,3.49005 -6.88086,1.86328 l -6.56055,-4.3418 c -2.35018,-1.5548 -2.93445,-4.0991 -0.97656,-7.05859 l 1.02929,-1.55664 c 1.26867,-1.91769 2.6792,-2.80104 4.15821,-2.79688 z m 0.041,3.85938 c -0.54907,-0.0209 -1.06842,0.2362 -1.42382,0.77343 l -1.0293,1.55664 c -0.57585,0.87044 -0.26219,1.85993 0.54297,2.39258 l 5.9082,3.90821 c 0.85956,0.56865 1.84736,0.42401 2.41602,-0.43555 l 1.02929,-1.55469 c 0.57585,-0.87044 0.27307,-1.85467 -0.54297,-2.39453 l -5.9082,-3.9082 c -0.32233,-0.21325 -0.66274,-0.32534 -0.99219,-0.33789 z m 141.486327,1.73047 c 0.17271,-0.0223 0.32633,0.0622 0.42188,0.24414 l 1.28515,2.44921 c 0.12739,0.24254 0.057,0.47026 -0.18554,0.59766 l -5.04883,2.65234 c -0.24253,0.1274 -0.31294,0.35511 -0.18555,0.59766 l 2.21485,4.2168 c 0.1274,0.24253 0.35511,0.31293 0.59765,0.18554 l 5.04883,-2.65039 c 0.24254,-0.1274 0.47026,-0.057 0.59766,0.18555 l 1.28711,2.44922 c 0.1274,0.24255 0.055,0.47222 -0.1875,0.59961 l -14.17188,7.44336 c -0.24254,0.1274 -0.47026,0.055 -0.59765,-0.1875 l -1.28711,-2.44727 c -0.12739,-0.24254 -0.055,-0.47221 0.1875,-0.59961 l 5.39257,-2.83398 c 0.24253,-0.1274 0.31489,-0.35512 0.1875,-0.59766 l -2.21484,-4.21679 c -0.1274,-0.24252 -0.35706,-0.31295 -0.59961,-0.18555 l -5.39258,2.83203 c -0.24255,0.1274 -0.47221,0.057 -0.59961,-0.18555 l -1.28515,-2.44922 c -0.1274,-0.24254 -0.057,-0.47025 0.18554,-0.59765 l 14.17188,-7.44336 c 0.0606,-0.0319 0.12016,-0.0512 0.17773,-0.0586 z m -40.03515,5.96484 c 3.30565,0.0484 5.87844,2.69825 5.83007,6.00391 -0.0483,3.30565 -2.6963,5.87842 -6.00195,5.83007 -3.30566,-0.0484 -5.87842,-2.6963 -5.83008,-6.00195 0.0483,-3.30566 2.6963,-5.88037 6.00196,-5.83203 z m -109.933597,5.04883 c 0.67493,-0.006 1.39047,0.12496 2.13086,0.39843 1.70107,0.6283 2.72958,1.75867 3.06641,3.48243 0.0282,0.14951 0.0798,0.23919 0.17773,0.27539 0.0979,0.0362 0.17955,0.0377 0.29102,0.0371 l 6.72461,-0.24219 c 0.29767,-0.0152 0.47436,-0.005 0.57226,0.0312 0.0979,0.0362 0.16021,0.16943 0.0879,0.36523 l -1.09375,2.96094 c -0.0362,0.0979 -0.12989,0.16233 -0.28711,0.17383 l -6.63281,0.26172 c -0.14046,0.004 -0.22493,0.0832 -0.26562,0.19336 l -0.78321,2.11718 c -0.0949,0.25699 0.007,0.47542 0.26367,0.57032 l 5.28516,1.95312 c 0.257,0.0949 0.35859,0.31137 0.26367,0.56836 l -0.95898,2.5957 c -0.0949,0.2574 -0.31332,0.35662 -0.57031,0.26172 l -14.89258,-5.50195 c -0.257,-0.0949 -0.35664,-0.31137 -0.26172,-0.56836 l 2.33203,-6.31445 c 0.86788,-2.34968 2.52601,-3.60168 4.55078,-3.61914 z m 0.0801,3.49023 c -0.64327,0.0525 -1.23023,0.51904 -1.49805,1.24414 l -1.08008,2.92383 c -0.0949,0.25699 0.007,0.47541 0.26368,0.57031 l 2.64257,0.97657 c 0.257,0.0949 0.4754,-0.005 0.57032,-0.26172 l 1.08008,-2.92578 c 0.34805,-0.94231 -0.0276,-1.95641 -0.89649,-2.27735 l -0.42969,-0.1582 c -0.21722,-0.0802 -0.43792,-0.1093 -0.65234,-0.0918 z m 98.435547,2.01758 c 0.0163,-2e-4 0.0326,-2e-4 0.0488,0 1.10358,-2.1e-4 1.99825,0.89447 1.99804,1.99805 1.5e-4,0.36649 -0.10053,0.72596 -0.29101,1.03906 -0.23314,0.35152 -0.50977,0.55859 -0.50977,0.55859 -0.34556,0.25868 -0.76561,0.39847 -1.19726,0.39844 -0.43166,3e-5 -0.85171,-0.13976 -1.19727,-0.39844 0,0 -0.36093,-0.25527 -0.56445,-0.6582 -0.15466,-0.28902 -0.23582,-0.61166 -0.23633,-0.93945 -5.3e-4,-1.08479 0.86475,-1.97175 1.94922,-1.99805 z m -55.519527,1.17578 c 0.0163,-2e-4 0.0325,-2e-4 0.0488,0 1.10358,-2.1e-4 1.99826,0.89447 1.99805,1.99805 2.1e-4,1.10358 -0.89447,1.99826 -1.99805,1.99804 -1.10358,2.2e-4 -1.99826,-0.89446 -1.99804,-1.99804 -5.3e-4,-1.08479 0.86475,-1.97174 1.94922,-1.99805 z m 79.156247,3.73633 c 0.0163,-2e-4 0.0325,-2e-4 0.0488,0 1.10358,-2.2e-4 1.99826,0.89447 1.99805,1.99805 -8.6e-4,1.10281 -0.89523,1.99631 -1.99805,1.99609 -1.10281,2.1e-4 -1.99718,-0.89328 -1.99804,-1.99609 -5.3e-4,-1.08479 0.86475,-1.97175 1.94922,-1.99805 z m -53.300787,0.0195 c 0.0156,-1.8e-4 0.0313,-1.8e-4 0.0469,0 1.10358,-2.1e-4 1.99826,0.89447 1.99805,1.99805 2.1e-4,1.10358 -0.89447,1.99826 -1.99805,1.99804 -1.10282,-8.6e-4 -1.99631,-0.89523 -1.99609,-1.99804 -5.3e-4,-1.08479 0.86475,-1.97174 1.94921,-1.99805 z m 73.880867,0.12109 c 0.0411,0.003 16.85351,0.63672 16.85351,0.63672 0.18988,0.006 0.32094,0.14825 0.36914,0.33789 l 0.97461,3.83008 c 0.0483,0.18964 0.002,0.37706 -0.16211,0.47266 l -14.59765,8.65625 c -0.0694,0.0446 -0.0949,0.0505 -0.13282,0.0605 -0.12643,0.0322 -0.21156,-0.0408 -0.25976,-0.23046 l -0.79883,-3.13477 c -0.0354,-0.13907 0.006,-0.24435 0.12305,-0.31445 l 2.08593,-1.16407 c 0.1168,-0.0701 0.12633,-0.13848 0.0781,-0.32812 l -1.23828,-4.86719 c -0.0515,-0.20228 -0.0905,-0.2489 -0.22657,-0.2539 l -2.38867,-0.0234 c -0.13608,-0.006 -0.2217,-0.0787 -0.2539,-0.20508 l -0.79493,-3.12305 c -0.0483,-0.18964 -0.0112,-0.30579 0.11524,-0.33789 0.0632,-0.0156 0.1842,-0.0207 0.25391,-0.0117 z m -96.632817,3.23243 19.3418,10.19726 0.002,9.94727 -19.36914,10.56446 z m 103.589847,0.51562 c -0.17404,0.004 -0.25918,0.0927 -0.20118,0.32031 l 0.75586,2.97266 c 0.0579,0.22762 0.17929,0.27707 0.33399,0.19727 l 5.0918,-2.84375 0.50195,-0.19532 -0.11328,-0.44336 -0.53321,0.0703 z m -77.808601,1.1875 h 47.306641 v 25.66407 H 89.884389 Z m -76.667966,1.99805 c 0.35899,-0.008 0.73347,0.0126 1.12305,0.0644 l 0.40039,0.0547 c 2.61228,0.34743 4.84994,2.43391 4.37695,5.99023 l -0.33203,2.48242 c -0.0361,0.27158 0.11124,0.4639 0.38281,0.5 l 5.18555,0.68946 c 0.27158,0.0361 0.41698,0.22648 0.38086,0.49804 l -0.36523,2.74024 c -0.0361,0.27157 -0.22648,0.41901 -0.49805,0.38281 L 8.1324431,871.35995 c -0.27158,-0.0361 -0.41698,-0.22647 -0.38086,-0.49805 l 0.81445,-6.11718 c 0.41236,-3.10048 2.1375099,-4.63568 4.6503899,-4.69336 z m 0.3086,3.48047 c -0.89448,0.0489 -1.53541,0.69201 -1.6543,1.58593 l -0.33984,2.56055 c -0.0361,0.27157 0.10928,0.4639 0.38085,0.5 l 3.0918,0.41016 c 0.27158,0.0361 0.46193,-0.10929 0.49805,-0.38086 l 0.33984,-2.56055 c 0.13588,-1.02164 -0.44374,-1.90264 -1.54297,-2.04883 l -0.375,-0.0488 c -0.1374,-0.0183 -0.27065,-0.0246 -0.39843,-0.0176 z M 180.234,868.47913 c 0.27305,-0.0224 0.45612,0.1332 0.47852,0.40625 l 0.22656,2.75586 c 0.0224,0.27305 -0.13321,0.45612 -0.40625,0.47852 l -15.95313,1.31054 c -0.27303,0.0224 -0.45611,-0.1332 -0.47851,-0.40625 l -0.22656,-2.75586 c -0.0224,-0.27305 0.1332,-0.45611 0.40625,-0.47851 z m -15.28906,9.22071 15.93945,1.46875 c 0.27281,0.0251 0.42549,0.20961 0.40039,0.48242 l -0.23437,2.54492 c -0.0156,0.16889 -0.0927,0.29413 -0.2168,0.36133 l -9.4668,4.35547 c -0.54835,0.26392 -1.30875,0.54754 -1.48242,0.58399 l -0.01,0.10351 c 1.27346,-0.17095 3.38554,-0.19968 4.85351,-0.0644 l 5.33985,0.49218 c 0.27281,0.0252 0.42549,0.20962 0.40039,0.48243 l -0.25391,2.7539 c -0.0251,0.27281 -0.20961,0.42549 -0.48242,0.40039 l -15.93945,-1.46679 c -0.27281,-0.0251 -0.42549,-0.20961 -0.4004,-0.48243 l 0.23047,-2.52148 c 0.0156,-0.16889 0.0787,-0.27954 0.24414,-0.36914 l 9.13672,-4.45312 c 0.58733,-0.26037 1.14146,-0.44446 1.19336,-0.43946 l 0.01,-0.10351 c -0.75963,0.13924 -2.58334,0.15481 -4.28516,-0.002 l -5.3125,-0.49023 c -0.27281,-0.0251 -0.42549,-0.20961 -0.40039,-0.48242 l 0.25391,-2.75391 c 0.0251,-0.27281 0.20961,-0.42549 0.48242,-0.40039 z m -78.144527,7.08203 c 0.0163,-2e-4 0.0325,-2e-4 0.0488,0 1.10359,-2.1e-4 1.99827,0.89447 1.99805,1.99805 -8.7e-4,1.10282 -0.89523,1.9963 -1.99805,1.99609 -1.10281,2.1e-4 -1.99718,-0.89327 -1.99804,-1.99609 -5.3e-4,-1.08478 0.86475,-1.97175 1.94922,-1.99805 z m 53.349607,0.0234 h 0.002 c 0.0156,-1.8e-4 0.0312,-1.8e-4 0.0469,0 1.10358,-2.1e-4 1.99826,0.89447 1.99804,1.99805 2.1e-4,1.10357 -0.89447,1.99825 -1.99804,1.99804 -1.10358,2.2e-4 -1.99826,-0.89446 -1.99805,-1.99804 -5.3e-4,-1.08479 0.86475,-1.97175 1.94922,-1.99805 z M 105.9215,890.108 h 14.78516 a 3.1954947,3.1954947 0 0 0 -1.55274,1.36719 l -5.61328,9.83789 -5.19922,-9.56055 A 3.1954947,3.1954947 0 0 0 105.9215,890.108 Z m -44.982417,0.20899 c 0.0163,-2e-4 0.0326,-2e-4 0.0488,0 1.10357,-2.1e-4 1.99825,0.89446 1.99804,1.99804 2.2e-4,1.10358 -0.89446,1.99826 -1.99804,1.99805 -1.10358,2.1e-4 -1.99827,-0.89447 -1.99805,-1.99805 -5.3e-4,-1.08478 0.86476,-1.97174 1.94922,-1.99804 z m 60.931637,0.73828 a 1.9976598,1.9976598 0 0 1 0.0488,0 1.9976598,1.9976598 0 0 1 1.99805,1.99805 1.9976598,1.9976598 0 0 1 -1.99805,1.99804 1.9976598,1.9976598 0 0 1 -1.99805,-1.99804 1.9976598,1.9976598 0 0 1 1.94922,-1.99805 z m -16.38281,0.19922 a 1.9976598,1.9976598 0 0 1 0.002,0 1.9976598,1.9976598 0 0 1 0.0469,0 1.9976598,1.9976598 0 0 1 1.99804,1.99804 1.9976598,1.9976598 0 0 1 -1.99804,1.9961 1.9976598,1.9976598 0 0 1 -1.99805,-1.9961 1.9976598,1.9976598 0 0 1 1.94922,-1.99804 z m -83.833987,4.74804 c 0.0399,0.003 0.0752,0.0224 0.10938,0.0527 0.0342,0.0302 0.068,0.0725 0.10351,0.12305 0.071,0.10098 0.14762,0.23932 0.22852,0.40625 0.16181,0.33385 0.34157,0.77657 0.51758,1.22656 0.176,0.44999 0.34775,0.90714 0.49609,1.26758 0.0742,0.18022 0.14232,0.33675 0.20117,0.45507 0.0589,0.11832 0.11357,0.19986 0.14063,0.22266 0.0271,0.0228 0.11751,0.0618 0.24414,0.0996 0.12662,0.0378 0.29218,0.0788 0.48242,0.12109 0.38048,0.0846 0.86055,0.17684 1.33398,0.27344 0.47344,0.0966 0.9403,0.19833 1.29688,0.30078 0.17829,0.0512 0.32784,0.1016 0.43945,0.1543 0.0558,0.0264 0.10299,0.0535 0.13867,0.082 0.0357,0.0285 0.0607,0.0589 0.0703,0.0977 0.01,0.0388 6.6e-4,0.0792 -0.0176,0.12109 -0.0182,0.0419 -0.0469,0.0873 -0.084,0.13672 -0.0741,0.0987 -0.18264,0.21327 -0.3164,0.3418 -0.26752,0.25706 -0.63228,0.56464 -1.00586,0.87109 -0.37358,0.30645 -0.75577,0.61277 -1.05274,0.86523 -0.14848,0.12624 -0.2748,0.23954 -0.36914,0.33204 -0.0943,0.0925 -0.15662,0.16837 -0.16992,0.20117 -0.0134,0.0328 -0.0227,0.13156 -0.0195,0.26367 0.003,0.1321 0.0166,0.30209 0.0352,0.49609 0.0371,0.38801 0.096,0.87145 0.15039,1.35157 0.0544,0.48012 0.10442,0.95538 0.11718,1.32617 0.006,0.18539 0.004,0.34435 -0.0117,0.46679 -0.008,0.0612 -0.0191,0.11355 -0.0352,0.15625 -0.0161,0.0427 -0.0383,0.0785 -0.0723,0.0996 -0.0339,0.0211 -0.0737,0.0235 -0.11914,0.0195 -0.0454,-0.004 -0.0979,-0.0171 -0.15625,-0.0371 -0.11678,-0.04 -0.26025,-0.10782 -0.42382,-0.19532 -0.32715,-0.17499 -0.73178,-0.42885 -1.13868,-0.68945 -0.40689,-0.26059 -0.81655,-0.52801 -1.14843,-0.73242 -0.16594,-0.1022 -0.31254,-0.1889 -0.42969,-0.25 -0.11716,-0.0611 -0.20887,-0.0947 -0.24414,-0.0977 -0.0353,-0.002 -0.13121,0.0186 -0.25586,0.0625 -0.12465,0.0439 -0.28216,0.10795 -0.46094,0.18555 -0.35756,0.15516 -0.80043,0.36239 -1.24023,0.5625 -0.43981,0.20011 -0.87592,0.39282 -1.22461,0.51953 -0.17435,0.0634 -0.32599,0.10981 -0.44727,0.13281 -0.0606,0.0118 -0.11453,0.0176 -0.16015,0.0156 -0.0456,-0.002 -0.0847,-0.0114 -0.11524,-0.0371 -0.0306,-0.0257 -0.0468,-0.0628 -0.0566,-0.10742 -0.01,-0.0446 -0.0127,-0.0985 -0.0117,-0.16016 0.002,-0.12342 0.022,-0.28028 0.0547,-0.46289 0.0653,-0.3652 0.18063,-0.82937 0.30273,-1.29688 0.12211,-0.4675 0.24995,-0.93956 0.3418,-1.31836 0.0459,-0.18939 0.0835,-0.35601 0.10547,-0.48632 0.0219,-0.13031 0.0261,-0.22742 0.0176,-0.26172 -0.009,-0.0343 -0.0584,-0.11961 -0.13867,-0.22461 -0.0802,-0.105 -0.18934,-0.2348 -0.31836,-0.38086 -0.25806,-0.29212 -0.5937,-0.64747 -0.91993,-1.00391 -0.32622,-0.35644 -0.64478,-0.71339 -0.87304,-1.00586 -0.11413,-0.14624 -0.20436,-0.27651 -0.26367,-0.38476 -0.0297,-0.0541 -0.0523,-0.10249 -0.0645,-0.14649 -0.0121,-0.044 -0.015,-0.0841 0,-0.12109 0.015,-0.0371 0.0466,-0.0648 0.0859,-0.0879 0.0394,-0.0232 0.0875,-0.0424 0.14648,-0.0606 0.11798,-0.0364 0.27523,-0.0664 0.45899,-0.0918 0.36752,-0.0507 0.84381,-0.085 1.32617,-0.11329 0.48236,-0.0283 0.97073,-0.0504 1.35938,-0.0801 0.19432,-0.0148 0.36342,-0.0314 0.49414,-0.0508 0.13071,-0.0194 0.22584,-0.0457 0.25586,-0.0644 0.03,-0.0187 0.0949,-0.0924 0.16992,-0.20117 0.0751,-0.10875 0.16463,-0.25401 0.26367,-0.42188 0.19807,-0.33566 0.43369,-0.76318 0.67187,-1.18359 0.23819,-0.4204 0.47793,-0.83315 0.68555,-1.14062 0.10381,-0.15373 0.20053,-0.2812 0.28516,-0.3711 0.0423,-0.0449 0.081,-0.0804 0.11914,-0.10547 0.0381,-0.0251 0.0754,-0.0401 0.11523,-0.0371 z m 58.44336,3.49219 c -1.82073,0 -3.53009,0.47409 -5.01562,1.30078 0.73756,4.1586 2.19626,7.58545 4.68945,9.95118 0.007,0.006 0.0127,0.0131 0.0195,0.0195 1.0398,1.03968 3.12963,2.88602 5.01563,4.46484 0.92191,0.77177 1.79241,1.47514 2.47851,2.00586 1.935796,-1.87752 3.142576,-4.50251 3.142576,-7.41211 0,-5.70529 -4.624196,-10.33008 -10.330076,-10.33008 z m -6.92578,2.67969 c -2.08733,1.89017 -3.40625,4.61279 -3.40625,7.65039 0,5.70529 4.62615,10.33203 10.33203,10.33203 2.00573,0 3.86837,-0.58322 5.45313,-1.57226 -0.64536,-0.50881 -1.33819,-1.06109 -2.11914,-1.71485 -1.90924,-1.59827 -3.97824,-3.41401 -5.13477,-4.56836 -8.5e-4,-0.001 8.3e-4,-0.003 0,-0.004 -2.70899,-2.57179 -4.27801,-6.09248 -5.125,-10.12305 z m 89.001957,7.94922 c 0.0398,0.003 0.0752,0.0224 0.10937,0.0527 0.0342,0.0302 0.068,0.0725 0.10352,0.12305 0.071,0.10098 0.14761,0.23932 0.22851,0.40625 0.1618,0.33385 0.33962,0.77657 0.51563,1.22656 0.17601,0.44999 0.34969,0.90714 0.49804,1.26758 0.0742,0.18022 0.14228,0.33676 0.20117,0.45508 0.0588,0.11832 0.11158,0.19985 0.13868,0.22265 0.0271,0.0228 0.11752,0.0618 0.24414,0.0996 0.12663,0.0378 0.29218,0.0788 0.48242,0.1211 0.38047,0.0846 0.86055,0.17684 1.33398,0.27344 0.47343,0.0966 0.9403,0.19833 1.29688,0.30078 0.17829,0.0512 0.3298,0.10159 0.4414,0.15429 0.0558,0.0264 0.10102,0.0535 0.13672,0.082 0.0357,0.0285 0.0623,0.0589 0.0723,0.0977 0.01,0.0388 6.2e-4,0.0792 -0.0176,0.12109 -0.0183,0.0419 -0.047,0.0873 -0.084,0.13672 -0.0741,0.0987 -0.18461,0.21327 -0.31836,0.3418 -0.26752,0.25706 -0.63228,0.56464 -1.00586,0.87109 -0.37358,0.30645 -0.75578,0.61278 -1.05274,0.86524 -0.14848,0.12624 -0.27484,0.23953 -0.36914,0.33203 -0.0943,0.0925 -0.15662,0.16837 -0.16992,0.20117 -0.0135,0.0328 -0.0225,0.12961 -0.0195,0.26172 0.003,0.1321 0.0167,0.30209 0.0352,0.49609 0.0371,0.38801 0.0979,0.8734 0.15234,1.35352 0.0544,0.48012 0.10253,0.95538 0.11523,1.32617 0.006,0.18539 0.004,0.34436 -0.0117,0.4668 -0.008,0.0612 -0.0191,0.11355 -0.0352,0.15625 -0.0161,0.0427 -0.0364,0.0785 -0.0703,0.0996 -0.0339,0.0211 -0.0757,0.0235 -0.1211,0.0195 -0.0454,-0.004 -0.0978,-0.0171 -0.15625,-0.0371 -0.11679,-0.04 -0.26026,-0.10781 -0.42382,-0.19531 -0.32715,-0.17499 -0.73178,-0.42886 -1.13868,-0.68946 -0.40689,-0.26059 -0.8146,-0.52801 -1.14648,-0.73242 -0.16594,-0.1022 -0.31448,-0.1889 -0.43164,-0.25 -0.11715,-0.0611 -0.20884,-0.0947 -0.24414,-0.0977 -0.0353,-0.002 -0.12926,0.0186 -0.25391,0.0625 -0.12465,0.0439 -0.28411,0.10794 -0.46289,0.18554 -0.35756,0.15516 -0.79848,0.36239 -1.23828,0.5625 -0.4398,0.20011 -0.87786,0.39282 -1.22656,0.51953 -0.17434,0.0634 -0.32599,0.10982 -0.44727,0.13282 -0.0606,0.0118 -0.11457,0.0176 -0.16015,0.0156 -0.0456,-0.002 -0.0846,-0.0114 -0.11524,-0.0371 -0.0306,-0.0257 -0.0466,-0.0628 -0.0566,-0.10742 -0.009,-0.0446 -0.0127,-0.0985 -0.0117,-0.16016 0.002,-0.12342 0.022,-0.28028 0.0547,-0.46289 0.0653,-0.3652 0.18062,-0.82936 0.30273,-1.29687 0.1221,-0.4675 0.25,-0.93956 0.3418,-1.31836 0.046,-0.1894 0.0836,-0.35602 0.10547,-0.48633 0.022,-0.13031 0.0266,-0.22742 0.0176,-0.26172 -0.008,-0.0343 -0.0585,-0.11961 -0.13867,-0.22461 -0.0802,-0.105 -0.18933,-0.2348 -0.31836,-0.38086 -0.25806,-0.29212 -0.59175,-0.64746 -0.91797,-1.0039 -0.32623,-0.35644 -0.64479,-0.71339 -0.87305,-1.00586 -0.11413,-0.14624 -0.20632,-0.27652 -0.26562,-0.38477 -0.0297,-0.0541 -0.0504,-0.10248 -0.0625,-0.14648 -0.0121,-0.044 -0.017,-0.0841 -0.002,-0.1211 0.015,-0.0371 0.0465,-0.0648 0.0859,-0.0879 0.0394,-0.0232 0.0894,-0.0423 0.14844,-0.0605 0.11797,-0.0364 0.27327,-0.0664 0.45703,-0.0918 0.36752,-0.0508 0.84381,-0.085 1.32617,-0.11328 0.48236,-0.0283 0.97072,-0.0504 1.35938,-0.0801 0.19431,-0.0148 0.36342,-0.0314 0.49414,-0.0508 0.13071,-0.0194 0.22585,-0.0457 0.25586,-0.0645 0.03,-0.0187 0.0948,-0.0924 0.16992,-0.20118 0.0751,-0.10875 0.16467,-0.25402 0.26367,-0.42187 0.19808,-0.33569 0.43369,-0.76317 0.67187,-1.1836 0.23819,-0.42039 0.47988,-0.83315 0.6875,-1.14062 0.10381,-0.15373 0.19861,-0.28119 0.28321,-0.37109 0.0423,-0.0449 0.081,-0.0804 0.11914,-0.10547 0.0382,-0.0251 0.0773,-0.0401 0.11719,-0.0371 z m -94.560547,0.57031 a 0.99862356,0.99862356 0 0 0 -0.54493,0.17578 c 0,0 -6.58071,4.49641 -13.11914,9.26367 -3.26921,2.38363 -6.52703,4.8325 -8.96484,6.83789 -1.2189,1.0027 -2.23184,1.89022 -2.95898,2.63086 -0.36358,0.37032 -0.65395,0.70018 -0.88086,1.0293 -0.22692,0.32912 -0.51346,0.63783 -0.38477,1.32422 0.26874,1.43329 1.26342,2.75226 2.5332,3.7793 1.26979,1.02703 2.87807,1.77943 4.54883,1.51562 0.61418,-0.097 1.21749,-0.36494 2.20508,-0.7832 0.98759,-0.41825 2.24138,-0.9857 3.67188,-1.6543 2.86098,-1.3372 6.42638,-3.07739 9.91406,-4.80469 6.97536,-3.45463 13.63476,-6.85937 13.63476,-6.85937 a 0.99862356,0.99862356 0 0 0 -0.10547,-1.82422 c -2.18526,-0.8179 -4.655,-2.0904 -5.9121,-3.65234 a 0.99862356,0.99862356 0 0 0 -0.0117,-0.0137 c -1.3489,-1.61869 -2.48646,-2.68367 -2.60938,-6.00195 a 0.99862356,0.99862356 0 0 0 -1.01562,-0.96289 z m 59.628897,20.5918 a 1.9976598,1.9976598 0 0 1 0.0488,0 1.9976598,1.9976598 0 0 1 1.9961,1.99804 1.9976598,1.9976598 0 0 1 -1.9961,1.99805 1.9976598,1.9976598 0 0 1 -1.99804,-1.99805 1.9976598,1.9976598 0 0 1 1.94921,-1.99804 z m -28.603511,0.58984 a 1.9976598,1.9976598 0 0 1 0.0488,0 1.9976598,1.9976598 0 0 1 1.998041,1.9961 1.9976598,1.9976598 0 0 1 -1.998041,1.99804 1.9976598,1.9976598 0 0 1 -1.99805,-1.99804 1.9976598,1.9976598 0 0 1 1.94922,-1.9961 z m -32.988276,5.99414 c 0.11851,-0.0166 0.24724,0.006 0.37109,0.0606 l 5.00391,2.21875 c 0.2477,0.10984 0.41145,0.31961 0.375,0.58008 l -3.07813,23.29687 c -0.0109,0.1138 -0.0269,0.14601 -0.0488,0.19531 -0.0732,0.1651 -0.22496,0.19772 -0.47265,0.0879 l -4.09571,-1.81641 c -0.18164,-0.0805 -0.26,-0.21518 -0.23632,-0.40235 l 0.51953,-3.26562 c 0.0237,-0.18706 -0.0433,-0.25737 -0.29102,-0.36719 l -6.35742,-2.81836 c -0.26421,-0.1176 -0.34599,-0.11382 -0.46875,0.0293 l -2.07227,2.57813 c -0.12276,0.14278 -0.27432,0.17476 -0.43945,0.10156 l -4.07812,-1.8086 c -0.2477,-0.10983 -0.34277,-0.25085 -0.26954,-0.41601 0.0366,-0.0825 0.13545,-0.21736 0.20508,-0.28516 0.0385,-0.0422 15.12305,-17.79492 15.12305,-17.79492 0.0843,-0.10093 0.19203,-0.15722 0.31055,-0.17383 z m 52.478507,2.74024 c 0.19366,-0.0445 0.35823,0.1033 0.39063,0.24414 0.0194,0.088 0.0265,0.197 0.0215,0.2539 l -3.51172,12.22461 c -0.0319,0.10019 -0.0654,0.19903 -0.0371,0.32227 0.0283,0.12323 0.1182,0.19565 0.21289,0.28515 l 8.11133,8.92383 c 0.0947,0.0895 0.12433,0.13846 0.14453,0.22656 0.0445,0.19362 -0.13048,0.32652 -0.37695,0.38282 l -4.61133,1.05859 c -0.38731,0.0889 -0.59948,-0.0278 -0.76172,-0.25 l -3.74023,-4.66406 c -0.32045,-0.42675 -1.24137,-1.60627 -1.58203,-2.12109 l -0.10547,0.0234 c 0.23052,1.00347 0.0382,2.82786 -0.48242,4.83789 l -0.88672,3.48438 c -0.0666,0.27484 -0.22401,0.4775 -0.61133,0.5664 l -4.54101,1.04297 c -0.28168,0.0647 -0.42621,0.006 -0.47071,-0.1875 -0.0202,-0.0881 -0.009,-0.20254 0.0234,-0.30273 l 3.55859,-12.3457 c 0.0422,-0.13942 0.0358,-0.2499 0.0156,-0.3379 -0.0283,-0.12322 -0.0831,-0.20184 -0.15625,-0.27734 l -8.0332,-8.83203 c -0.0473,-0.0447 -0.0851,-0.12878 -0.10938,-0.23437 -0.0324,-0.14089 0.0759,-0.31272 0.25195,-0.35352 l 4.54102,-1.04297 c 0.29928,-0.0687 0.49636,-0.0209 0.64648,0.14844 l 3.80274,4.61133 c 0.32045,0.42674 1.34487,1.82305 1.68554,2.33789 l 0.10547,-0.0234 c -0.4075,-1.37056 -0.19426,-2.45874 0.3418,-5.04688 l 0.89453,-3.44726 c 0.0571,-0.23553 0.25352,-0.35551 0.5,-0.41211 z m -39.740227,2.4707 4.43945,0.43555 c 0.19775,0.0194 0.31526,0.12157 0.35156,0.30664 l 2.74414,16.4414 0.0137,0.78125 0.61132,0.0605 0.16602,-0.76367 5.867186,-15.59766 c 0.0716,-0.17435 0.20695,-0.25207 0.38672,-0.23437 l 4.54687,0.44726 c 0.26965,0.0264 0.40442,0.13082 0.38672,0.31055 -0.007,0.0719 -0.0552,0.1941 -0.10351,0.31641 l -8.76758,21.66406 c -0.0966,0.24478 -0.341666,0.34651 -0.611326,0.32031 l -5.41211,-0.53125 c -0.26966,-0.0264 -0.49181,-0.17487 -0.53906,-0.43359 l -4.48633,-23.0918 c -0.0127,-0.0557 -0.021,-0.14727 -0.0156,-0.20117 0.0176,-0.17977 0.15221,-0.25687 0.42188,-0.23047 z m -12.67578,1.4707 -0.38282,0.64063 -5.07812,6.28515 c -0.14473,0.19268 -0.12146,0.3604 0.17578,0.49219 l 3.88086,1.7207 c 0.29724,0.1318 0.4563,0.0433 0.50195,-0.19335 l 1.26367,-7.97461 0.2168,-0.71485 z" />
  </g>
</svg>
