<?xml version="1.0" encoding="UTF-8" standalone="no"?>
<svg
   xmlns:dc="http://purl.org/dc/elements/1.1/"
   xmlns:cc="http://creativecommons.org/ns#"
   xmlns:rdf="http://www.w3.org/1999/02/22-rdf-syntax-ns#"
   xmlns:svg="http://www.w3.org/2000/svg"
   xmlns="http://www.w3.org/2000/svg"
   xmlns:sodipodi="http://sodipodi.sourceforge.net/DTD/sodipodi-0.dtd"
   xmlns:inkscape="http://www.inkscape.org/namespaces/inkscape"
   width="50mm"
   height="50mm"
   id="svg2"
   version="1.1"
   inkscape:version="1.0.1 (3bc2e813f5, 2020-09-07)"
   sodipodi:docname="xHain_stickers_5cm_3dlab.svg"
   inkscape:export-filename="/home/sticker_preview.png"
   inkscape:export-xdpi="1368.9301"
   inkscape:export-ydpi="1368.9301">
  <sodipodi:namedview
     id="base"
     pagecolor="#ffffff"
     bordercolor="#666666"
     borderopacity="1.0"
     inkscape:pageopacity="0.0"
     inkscape:pageshadow="2"
     inkscape:zoom="2.7750628"
     inkscape:cx="141.13922"
     inkscape:cy="116.08237"
     inkscape:document-units="mm"
     inkscape:current-layer="layer1"
     showgrid="false"
     inkscape:window-width="1920"
     inkscape:window-height="1032"
     inkscape:window-x="0"
     inkscape:window-y="0"
     inkscape:window-maximized="1"
     showguides="true"
     inkscape:guide-bbox="true"
     units="mm"
     inkscape:document-rotation="0">
    <inkscape:grid
       type="xygrid"
       id="grid2985"
       empspacing="5"
       visible="true"
       enabled="true"
       snapvisiblegridlinesonly="true" />
  </sodipodi:namedview>
  <defs
     id="defs4">
    <marker
       inkscape:stockid="DotS"
       orient="auto"
       refY="0"
       refX="0"
       id="DotS"
       style="overflow:visible">
      <path
         id="path3828"
         d="m -2.5,-1 c 0,2.76 -2.24,5 -5,5 -2.76,0 -5,-2.24 -5,-5 0,-2.76 2.24,-5 5,-5 2.76,0 5,2.24 5,5 z"
         style="fill-rule:evenodd;stroke:#000000;stroke-width:1pt"
         transform="matrix(0.2,0,0,0.2,1.48,0.2)"
         inkscape:connector-curvature="0" />
    </marker>
    <marker
       inkscape:stockid="DotS"
       orient="auto"
       refY="0"
       refX="0"
       id="DotS-1"
       style="overflow:visible">
      <path
         inkscape:connector-curvature="0"
         id="path3828-5"
         d="m -2.5,-1 c 0,2.76 -2.24,5 -5,5 -2.76,0 -5,-2.24 -5,-5 0,-2.76 2.24,-5 5,-5 2.76,0 5,2.24 5,5 z"
         style="fill-rule:evenodd;stroke:#000000;stroke-width:1pt"
         transform="matrix(0.2,0,0,0.2,1.48,0.2)" />
    </marker>
    <marker
       inkscape:stockid="DotS"
       orient="auto"
       refY="0"
       refX="0"
       id="marker4395"
       style="overflow:visible">
      <path
         inkscape:connector-curvature="0"
         id="path4397"
         d="m -2.5,-1 c 0,2.76 -2.24,5 -5,5 -2.76,0 -5,-2.24 -5,-5 0,-2.76 2.24,-5 5,-5 2.76,0 5,2.24 5,5 z"
         style="fill-rule:evenodd;stroke:#000000;stroke-width:1pt"
         transform="matrix(0.2,0,0,0.2,1.48,0.2)" />
    </marker>
    <marker
       inkscape:stockid="DotS"
       orient="auto"
       refY="0"
       refX="0"
       id="DotS-3"
       style="overflow:visible">
      <path
         inkscape:connector-curvature="0"
         id="path3828-0"
         d="m -2.5,-1 c 0,2.76 -2.24,5 -5,5 -2.76,0 -5,-2.24 -5,-5 0,-2.76 2.24,-5 5,-5 2.76,0 5,2.24 5,5 z"
         style="fill-rule:evenodd;stroke:#000000;stroke-width:1pt"
         transform="matrix(0.2,0,0,0.2,1.48,0.2)" />
    </marker>
    <marker
       inkscape:stockid="DotS"
       orient="auto"
       refY="0"
       refX="0"
       id="marker4427"
       style="overflow:visible">
      <path
         inkscape:connector-curvature="0"
         id="path4429"
         d="m -2.5,-1 c 0,2.76 -2.24,5 -5,5 -2.76,0 -5,-2.24 -5,-5 0,-2.76 2.24,-5 5,-5 2.76,0 5,2.24 5,5 z"
         style="fill-rule:evenodd;stroke:#000000;stroke-width:1pt"
         transform="matrix(0.2,0,0,0.2,1.48,0.2)" />
    </marker>
    <marker
       inkscape:stockid="DotS"
       orient="auto"
       refY="0"
       refX="0"
       id="DotS-2"
       style="overflow:visible">
      <path
         inkscape:connector-curvature="0"
         id="path3828-1"
         d="m -2.5,-1 c 0,2.76 -2.24,5 -5,5 -2.76,0 -5,-2.24 -5,-5 0,-2.76 2.24,-5 5,-5 2.76,0 5,2.24 5,5 z"
         style="fill-rule:evenodd;stroke:#000000;stroke-width:1pt"
         transform="matrix(0.2,0,0,0.2,1.48,0.2)" />
    </marker>
    <marker
       inkscape:stockid="DotS"
       orient="auto"
       refY="0"
       refX="0"
       id="marker4427-3"
       style="overflow:visible">
      <path
         inkscape:connector-curvature="0"
         id="path4429-9"
         d="m -2.5,-1 c 0,2.76 -2.24,5 -5,5 -2.76,0 -5,-2.24 -5,-5 0,-2.76 2.24,-5 5,-5 2.76,0 5,2.24 5,5 z"
         style="fill-rule:evenodd;stroke:#000000;stroke-width:1pt"
         transform="matrix(0.2,0,0,0.2,1.48,0.2)" />
    </marker>
    <marker
       inkscape:stockid="DotS"
       orient="auto"
       refY="0"
       refX="0"
       id="DotS-21"
       style="overflow:visible">
      <path
         inkscape:connector-curvature="0"
         id="path3828-6"
         d="m -2.5,-1 c 0,2.76 -2.24,5 -5,5 -2.76,0 -5,-2.24 -5,-5 0,-2.76 2.24,-5 5,-5 2.76,0 5,2.24 5,5 z"
         style="fill-rule:evenodd;stroke:#000000;stroke-width:1pt"
         transform="matrix(0.2,0,0,0.2,1.48,0.2)" />
    </marker>
    <marker
       inkscape:stockid="DotS"
       orient="auto"
       refY="0"
       refX="0"
       id="marker4474"
       style="overflow:visible">
      <path
         inkscape:connector-curvature="0"
         id="path4476"
         d="m -2.5,-1 c 0,2.76 -2.24,5 -5,5 -2.76,0 -5,-2.24 -5,-5 0,-2.76 2.24,-5 5,-5 2.76,0 5,2.24 5,5 z"
         style="fill-rule:evenodd;stroke:#000000;stroke-width:1pt"
         transform="matrix(0.2,0,0,0.2,1.48,0.2)" />
    </marker>
    <marker
       inkscape:stockid="DotS"
       orient="auto"
       refY="0"
       refX="0"
       id="DotS-36"
       style="overflow:visible">
      <path
         inkscape:connector-curvature="0"
         id="path3828-8"
         d="m -2.5,-1 c 0,2.76 -2.24,5 -5,5 -2.76,0 -5,-2.24 -5,-5 0,-2.76 2.24,-5 5,-5 2.76,0 5,2.24 5,5 z"
         style="fill-rule:evenodd;stroke:#000000;stroke-width:1pt"
         transform="matrix(0.2,0,0,0.2,1.48,0.2)" />
    </marker>
    <marker
       inkscape:stockid="DotS"
       orient="auto"
       refY="0"
       refX="0"
       id="marker4516"
       style="overflow:visible">
      <path
         inkscape:connector-curvature="0"
         id="path4518"
         d="m -2.5,-1 c 0,2.76 -2.24,5 -5,5 -2.76,0 -5,-2.24 -5,-5 0,-2.76 2.24,-5 5,-5 2.76,0 5,2.24 5,5 z"
         style="fill-rule:evenodd;stroke:#000000;stroke-width:1pt"
         transform="matrix(0.2,0,0,0.2,1.48,0.2)" />
    </marker>
    <marker
       inkscape:stockid="DotS"
       orient="auto"
       refY="0"
       refX="0"
       id="DotS-11"
       style="overflow:visible">
      <path
         inkscape:connector-curvature="0"
         id="path3828-58"
         d="m -2.5,-1 c 0,2.76 -2.24,5 -5,5 -2.76,0 -5,-2.24 -5,-5 0,-2.76 2.24,-5 5,-5 2.76,0 5,2.24 5,5 z"
         style="fill-rule:evenodd;stroke:#000000;stroke-width:1pt"
         transform="matrix(0.2,0,0,0.2,1.48,0.2)" />
    </marker>
    <marker
       inkscape:stockid="DotS"
       orient="auto"
       refY="0"
       refX="0"
       id="marker4954"
       style="overflow:visible">
      <path
         inkscape:connector-curvature="0"
         id="path4956"
         d="m -2.5,-1 c 0,2.76 -2.24,5 -5,5 -2.76,0 -5,-2.24 -5,-5 0,-2.76 2.24,-5 5,-5 2.76,0 5,2.24 5,5 z"
         style="fill-rule:evenodd;stroke:#000000;stroke-width:1pt"
         transform="matrix(0.2,0,0,0.2,1.48,0.2)" />
    </marker>
    <marker
       inkscape:stockid="DotS"
       orient="auto"
       refY="0"
       refX="0"
       id="DotS-7"
       style="overflow:visible">
      <path
         inkscape:connector-curvature="0"
         id="path3828-3"
         d="m -2.5,-1 c 0,2.76 -2.24,5 -5,5 -2.76,0 -5,-2.24 -5,-5 0,-2.76 2.24,-5 5,-5 2.76,0 5,2.24 5,5 z"
         style="fill-rule:evenodd;stroke:#000000;stroke-width:1pt"
         transform="matrix(0.2,0,0,0.2,1.48,0.2)" />
    </marker>
    <marker
       inkscape:stockid="DotS"
       orient="auto"
       refY="0"
       refX="0"
       id="marker5024"
       style="overflow:visible">
      <path
         inkscape:connector-curvature="0"
         id="path5026"
         d="m -2.5,-1 c 0,2.76 -2.24,5 -5,5 -2.76,0 -5,-2.24 -5,-5 0,-2.76 2.24,-5 5,-5 2.76,0 5,2.24 5,5 z"
         style="fill-rule:evenodd;stroke:#000000;stroke-width:1pt"
         transform="matrix(0.2,0,0,0.2,1.48,0.2)" />
    </marker>
    <marker
       inkscape:stockid="DotS"
       orient="auto"
       refY="0"
       refX="0"
       id="DotS-34"
       style="overflow:visible">
      <path
         inkscape:connector-curvature="0"
         id="path3828-16"
         d="m -2.5,-1 c 0,2.76 -2.24,5 -5,5 -2.76,0 -5,-2.24 -5,-5 0,-2.76 2.24,-5 5,-5 2.76,0 5,2.24 5,5 z"
         style="fill-rule:evenodd;stroke:#000000;stroke-width:1pt"
         transform="matrix(0.2,0,0,0.2,1.48,0.2)" />
    </marker>
    <marker
       inkscape:stockid="DotS"
       orient="auto"
       refY="0"
       refX="0"
       id="marker5056"
       style="overflow:visible">
      <path
         inkscape:connector-curvature="0"
         id="path5058"
         d="m -2.5,-1 c 0,2.76 -2.24,5 -5,5 -2.76,0 -5,-2.24 -5,-5 0,-2.76 2.24,-5 5,-5 2.76,0 5,2.24 5,5 z"
         style="fill-rule:evenodd;stroke:#000000;stroke-width:1pt"
         transform="matrix(0.2,0,0,0.2,1.48,0.2)" />
    </marker>
    <marker
       inkscape:stockid="DotS"
       orient="auto"
       refY="0"
       refX="0"
       id="marker4516-8"
       style="overflow:visible">
      <path
         inkscape:connector-curvature="0"
         id="path4518-5"
         d="m -2.5,-1 c 0,2.76 -2.24,5 -5,5 -2.76,0 -5,-2.24 -5,-5 0,-2.76 2.24,-5 5,-5 2.76,0 5,2.24 5,5 z"
         style="fill-rule:evenodd;stroke:#000000;stroke-width:1pt"
         transform="matrix(0.2,0,0,0.2,1.48,0.2)" />
    </marker>
    <marker
       inkscape:stockid="DotS"
       orient="auto"
       refY="0"
       refX="0"
       id="marker5088"
       style="overflow:visible">
      <path
         inkscape:connector-curvature="0"
         id="path5090"
         d="m -2.5,-1 c 0,2.76 -2.24,5 -5,5 -2.76,0 -5,-2.24 -5,-5 0,-2.76 2.24,-5 5,-5 2.76,0 5,2.24 5,5 z"
         style="fill-rule:evenodd;stroke:#000000;stroke-width:1pt"
         transform="matrix(0.2,0,0,0.2,1.48,0.2)" />
    </marker>
    <marker
       inkscape:stockid="DotS"
       orient="auto"
       refY="0"
       refX="0"
       id="marker4516-9"
       style="overflow:visible">
      <path
         inkscape:connector-curvature="0"
         id="path4518-55"
         d="m -2.5,-1 c 0,2.76 -2.24,5 -5,5 -2.76,0 -5,-2.24 -5,-5 0,-2.76 2.24,-5 5,-5 2.76,0 5,2.24 5,5 z"
         style="fill-rule:evenodd;stroke:#000000;stroke-width:1pt"
         transform="matrix(0.2,0,0,0.2,1.48,0.2)" />
    </marker>
    <marker
       inkscape:stockid="DotS"
       orient="auto"
       refY="0"
       refX="0"
       id="marker5137"
       style="overflow:visible">
      <path
         inkscape:connector-curvature="0"
         id="path5139"
         d="m -2.5,-1 c 0,2.76 -2.24,5 -5,5 -2.76,0 -5,-2.24 -5,-5 0,-2.76 2.24,-5 5,-5 2.76,0 5,2.24 5,5 z"
         style="fill-rule:evenodd;stroke:#000000;stroke-width:1pt"
         transform="matrix(0.2,0,0,0.2,1.48,0.2)" />
    </marker>
    <marker
       inkscape:stockid="DotS"
       orient="auto"
       refY="0"
       refX="0"
       id="DotS-0"
       style="overflow:visible">
      <path
         inkscape:connector-curvature="0"
         id="path3828-4"
         d="m -2.5,-1 c 0,2.76 -2.24,5 -5,5 -2.76,0 -5,-2.24 -5,-5 0,-2.76 2.24,-5 5,-5 2.76,0 5,2.24 5,5 z"
         style="fill-rule:evenodd;stroke:#000000;stroke-width:1pt"
         transform="matrix(0.2,0,0,0.2,1.48,0.2)" />
    </marker>
    <marker
       inkscape:stockid="DotS"
       orient="auto"
       refY="0"
       refX="0"
       id="marker5169"
       style="overflow:visible">
      <path
         inkscape:connector-curvature="0"
         id="path5171"
         d="m -2.5,-1 c 0,2.76 -2.24,5 -5,5 -2.76,0 -5,-2.24 -5,-5 0,-2.76 2.24,-5 5,-5 2.76,0 5,2.24 5,5 z"
         style="fill-rule:evenodd;stroke:#000000;stroke-width:1pt"
         transform="matrix(0.2,0,0,0.2,1.48,0.2)" />
    </marker>
    <marker
       inkscape:stockid="DotS"
       orient="auto"
       refY="0"
       refX="0"
       id="DotS-8"
       style="overflow:visible">
      <path
         inkscape:connector-curvature="0"
         id="path3828-66"
         d="m -2.5,-1 c 0,2.76 -2.24,5 -5,5 -2.76,0 -5,-2.24 -5,-5 0,-2.76 2.24,-5 5,-5 2.76,0 5,2.24 5,5 z"
         style="fill-rule:evenodd;stroke:#000000;stroke-width:1pt"
         transform="matrix(0.2,0,0,0.2,1.48,0.2)" />
    </marker>
    <marker
       inkscape:stockid="DotS"
       orient="auto"
       refY="0"
       refX="0"
       id="marker5218"
       style="overflow:visible">
      <path
         inkscape:connector-curvature="0"
         id="path5220"
         d="m -2.5,-1 c 0,2.76 -2.24,5 -5,5 -2.76,0 -5,-2.24 -5,-5 0,-2.76 2.24,-5 5,-5 2.76,0 5,2.24 5,5 z"
         style="fill-rule:evenodd;stroke:#000000;stroke-width:1pt"
         transform="matrix(0.2,0,0,0.2,1.48,0.2)" />
    </marker>
    <marker
       inkscape:stockid="DotSv"
       orient="auto"
       refY="0"
       refX="0"
       id="DotSv"
       style="overflow:visible">
      <path
         id="path5753"
         d="m -2.5,-1 c 0,2.76 -2.24,5 -5,5 -2.76,0 -5,-2.24 -5,-5 0,-2.76 2.24,-5 5,-5 2.76,0 5,2.24 5,5 z"
         style="fill:#858585;fill-rule:evenodd;stroke:#858585;stroke-width:1pt"
         transform="matrix(0.2,0,0,0.2,1.48,0.2)"
         inkscape:connector-curvature="0" />
    </marker>
    <marker
       inkscape:stockid="DotSs"
       orient="auto"
       refY="0"
       refX="0"
       id="DotSs"
       style="overflow:visible">
      <path
         id="path5756"
         d="m -2.5,-1 c 0,2.76 -2.24,5 -5,5 -2.76,0 -5,-2.24 -5,-5 0,-2.76 2.24,-5 5,-5 2.76,0 5,2.24 5,5 z"
         style="fill:#858585;fill-rule:evenodd;stroke:#858585;stroke-width:1pt"
         transform="matrix(0.2,0,0,0.2,1.48,0.2)"
         inkscape:connector-curvature="0" />
    </marker>
    <marker
       inkscape:stockid="DotSk"
       orient="auto"
       refY="0"
       refX="0"
       id="DotSk"
       style="overflow:visible">
      <path
         id="path5759"
         d="m -2.5,-1 c 0,2.76 -2.24,5 -5,5 -2.76,0 -5,-2.24 -5,-5 0,-2.76 2.24,-5 5,-5 2.76,0 5,2.24 5,5 z"
         style="fill:#858585;fill-rule:evenodd;stroke:#858585;stroke-width:1pt"
         transform="matrix(0.2,0,0,0.2,1.48,0.2)"
         inkscape:connector-curvature="0" />
    </marker>
    <marker
       inkscape:stockid="DotSK"
       orient="auto"
       refY="0"
       refX="0"
       id="DotSK"
       style="overflow:visible">
      <path
         id="path5762"
         d="m -2.5,-1 c 0,2.76 -2.24,5 -5,5 -2.76,0 -5,-2.24 -5,-5 0,-2.76 2.24,-5 5,-5 2.76,0 5,2.24 5,5 z"
         style="fill:#858585;fill-rule:evenodd;stroke:#858585;stroke-width:1pt"
         transform="matrix(0.2,0,0,0.2,1.48,0.2)"
         inkscape:connector-curvature="0" />
    </marker>
    <marker
       inkscape:stockid="DotSQ"
       orient="auto"
       refY="0"
       refX="0"
       id="DotSQ"
       style="overflow:visible">
      <path
         id="path5765"
         d="m -2.5,-1 c 0,2.76 -2.24,5 -5,5 -2.76,0 -5,-2.24 -5,-5 0,-2.76 2.24,-5 5,-5 2.76,0 5,2.24 5,5 z"
         style="fill:#858585;fill-rule:evenodd;stroke:#858585;stroke-width:1pt"
         transform="matrix(0.2,0,0,0.2,1.48,0.2)"
         inkscape:connector-curvature="0" />
    </marker>
    <marker
       inkscape:stockid="DotSg"
       orient="auto"
       refY="0"
       refX="0"
       id="DotSg"
       style="overflow:visible">
      <path
         id="path5768"
         d="m -2.5,-1 c 0,2.76 -2.24,5 -5,5 -2.76,0 -5,-2.24 -5,-5 0,-2.76 2.24,-5 5,-5 2.76,0 5,2.24 5,5 z"
         style="fill:#858585;fill-rule:evenodd;stroke:#858585;stroke-width:1pt"
         transform="matrix(0.2,0,0,0.2,1.48,0.2)"
         inkscape:connector-curvature="0" />
    </marker>
    <marker
       inkscape:stockid="marker4516J"
       orient="auto"
       refY="0"
       refX="0"
       id="marker4516J"
       style="overflow:visible">
      <path
         inkscape:connector-curvature="0"
         id="path5771"
         d="m -2.5,-1 c 0,2.76 -2.24,5 -5,5 -2.76,0 -5,-2.24 -5,-5 0,-2.76 2.24,-5 5,-5 2.76,0 5,2.24 5,5 z"
         style="fill:#858585;fill-rule:evenodd;stroke:#858585;stroke-width:1pt"
         transform="matrix(0.2,0,0,0.2,1.48,0.2)" />
    </marker>
    <marker
       inkscape:stockid="marker4516P"
       orient="auto"
       refY="0"
       refX="0"
       id="marker4516P"
       style="overflow:visible">
      <path
         inkscape:connector-curvature="0"
         id="path5774"
         d="m -2.5,-1 c 0,2.76 -2.24,5 -5,5 -2.76,0 -5,-2.24 -5,-5 0,-2.76 2.24,-5 5,-5 2.76,0 5,2.24 5,5 z"
         style="fill:#858585;fill-rule:evenodd;stroke:#858585;stroke-width:1pt"
         transform="matrix(0.2,0,0,0.2,1.48,0.2)" />
    </marker>
    <marker
       inkscape:stockid="DotSC"
       orient="auto"
       refY="0"
       refX="0"
       id="DotSC"
       style="overflow:visible">
      <path
         id="path5777"
         d="m -2.5,-1 c 0,2.76 -2.24,5 -5,5 -2.76,0 -5,-2.24 -5,-5 0,-2.76 2.24,-5 5,-5 2.76,0 5,2.24 5,5 z"
         style="fill:#858585;fill-rule:evenodd;stroke:#858585;stroke-width:1pt"
         transform="matrix(0.2,0,0,0.2,1.48,0.2)"
         inkscape:connector-curvature="0" />
    </marker>
    <marker
       inkscape:stockid="DotSL"
       orient="auto"
       refY="0"
       refX="0"
       id="DotSL"
       style="overflow:visible">
      <path
         id="path5780"
         d="m -2.5,-1 c 0,2.76 -2.24,5 -5,5 -2.76,0 -5,-2.24 -5,-5 0,-2.76 2.24,-5 5,-5 2.76,0 5,2.24 5,5 z"
         style="fill:#858585;fill-rule:evenodd;stroke:#858585;stroke-width:1pt"
         transform="matrix(0.2,0,0,0.2,1.48,0.2)"
         inkscape:connector-curvature="0" />
    </marker>
    <marker
       inkscape:stockid="DotSf"
       orient="auto"
       refY="0"
       refX="0"
       id="DotSf"
       style="overflow:visible">
      <path
         id="path5783"
         d="m -2.5,-1 c 0,2.76 -2.24,5 -5,5 -2.76,0 -5,-2.24 -5,-5 0,-2.76 2.24,-5 5,-5 2.76,0 5,2.24 5,5 z"
         style="fill:#858585;fill-rule:evenodd;stroke:#858585;stroke-width:1pt"
         transform="matrix(0.2,0,0,0.2,1.48,0.2)"
         inkscape:connector-curvature="0" />
    </marker>
    <marker
       inkscape:stockid="DotS7"
       orient="auto"
       refY="0"
       refX="0"
       id="DotS7"
       style="overflow:visible">
      <path
         id="path5786"
         d="m -2.5,-1 c 0,2.76 -2.24,5 -5,5 -2.76,0 -5,-2.24 -5,-5 0,-2.76 2.24,-5 5,-5 2.76,0 5,2.24 5,5 z"
         style="fill:#858585;fill-rule:evenodd;stroke:#858585;stroke-width:1pt"
         transform="matrix(0.2,0,0,0.2,1.48,0.2)"
         inkscape:connector-curvature="0" />
    </marker>
    <marker
       inkscape:stockid="DotSS"
       orient="auto"
       refY="0"
       refX="0"
       id="DotSS"
       style="overflow:visible">
      <path
         id="path5789"
         d="m -2.5,-1 c 0,2.76 -2.24,5 -5,5 -2.76,0 -5,-2.24 -5,-5 0,-2.76 2.24,-5 5,-5 2.76,0 5,2.24 5,5 z"
         style="fill:#858585;fill-rule:evenodd;stroke:#858585;stroke-width:1pt"
         transform="matrix(0.2,0,0,0.2,1.48,0.2)"
         inkscape:connector-curvature="0" />
    </marker>
    <marker
       inkscape:stockid="DotSy"
       orient="auto"
       refY="0"
       refX="0"
       id="DotSy"
       style="overflow:visible">
      <path
         id="path5792"
         d="m -2.5,-1 c 0,2.76 -2.24,5 -5,5 -2.76,0 -5,-2.24 -5,-5 0,-2.76 2.24,-5 5,-5 2.76,0 5,2.24 5,5 z"
         style="fill:#858585;fill-rule:evenodd;stroke:#858585;stroke-width:1pt"
         transform="matrix(0.2,0,0,0.2,1.48,0.2)"
         inkscape:connector-curvature="0" />
    </marker>
    <marker
       inkscape:stockid="marker4516C"
       orient="auto"
       refY="0"
       refX="0"
       id="marker4516C"
       style="overflow:visible">
      <path
         inkscape:connector-curvature="0"
         id="path5795"
         d="m -2.5,-1 c 0,2.76 -2.24,5 -5,5 -2.76,0 -5,-2.24 -5,-5 0,-2.76 2.24,-5 5,-5 2.76,0 5,2.24 5,5 z"
         style="fill:#858585;fill-rule:evenodd;stroke:#858585;stroke-width:1pt"
         transform="matrix(0.2,0,0,0.2,1.48,0.2)" />
    </marker>
    <marker
       inkscape:stockid="marker45162"
       orient="auto"
       refY="0"
       refX="0"
       id="marker45162"
       style="overflow:visible">
      <path
         inkscape:connector-curvature="0"
         id="path5798"
         d="m -2.5,-1 c 0,2.76 -2.24,5 -5,5 -2.76,0 -5,-2.24 -5,-5 0,-2.76 2.24,-5 5,-5 2.76,0 5,2.24 5,5 z"
         style="fill:#858585;fill-rule:evenodd;stroke:#858585;stroke-width:1pt"
         transform="matrix(0.2,0,0,0.2,1.48,0.2)" />
    </marker>
    <marker
       inkscape:stockid="DotSG"
       orient="auto"
       refY="0"
       refX="0"
       id="DotSG"
       style="overflow:visible">
      <path
         id="path5801"
         d="m -2.5,-1 c 0,2.76 -2.24,5 -5,5 -2.76,0 -5,-2.24 -5,-5 0,-2.76 2.24,-5 5,-5 2.76,0 5,2.24 5,5 z"
         style="fill:#858585;fill-rule:evenodd;stroke:#858585;stroke-width:1pt"
         transform="matrix(0.2,0,0,0.2,1.48,0.2)"
         inkscape:connector-curvature="0" />
    </marker>
    <marker
       inkscape:stockid="DotS5"
       orient="auto"
       refY="0"
       refX="0"
       id="DotS5"
       style="overflow:visible">
      <path
         id="path5804"
         d="m -2.5,-1 c 0,2.76 -2.24,5 -5,5 -2.76,0 -5,-2.24 -5,-5 0,-2.76 2.24,-5 5,-5 2.76,0 5,2.24 5,5 z"
         style="fill:#858585;fill-rule:evenodd;stroke:#858585;stroke-width:1pt"
         transform="matrix(0.2,0,0,0.2,1.48,0.2)"
         inkscape:connector-curvature="0" />
    </marker>
    <marker
       inkscape:stockid="DotSsA"
       orient="auto"
       refY="0"
       refX="0"
       id="DotSsA"
       style="overflow:visible">
      <path
         id="path5807"
         d="m -2.5,-1 c 0,2.76 -2.24,5 -5,5 -2.76,0 -5,-2.24 -5,-5 0,-2.76 2.24,-5 5,-5 2.76,0 5,2.24 5,5 z"
         style="fill:#858585;fill-rule:evenodd;stroke:#858585;stroke-width:1pt"
         transform="matrix(0.2,0,0,0.2,1.48,0.2)"
         inkscape:connector-curvature="0" />
    </marker>
    <marker
       inkscape:stockid="DotSLd"
       orient="auto"
       refY="0"
       refX="0"
       id="DotSLd"
       style="overflow:visible">
      <path
         id="path5810"
         d="m -2.5,-1 c 0,2.76 -2.24,5 -5,5 -2.76,0 -5,-2.24 -5,-5 0,-2.76 2.24,-5 5,-5 2.76,0 5,2.24 5,5 z"
         style="fill:#858585;fill-rule:evenodd;stroke:#858585;stroke-width:1pt"
         transform="matrix(0.2,0,0,0.2,1.48,0.2)"
         inkscape:connector-curvature="0" />
    </marker>
    <marker
       inkscape:stockid="DotSd"
       orient="auto"
       refY="0"
       refX="0"
       id="DotSd"
       style="overflow:visible">
      <path
         id="path5813"
         d="m -2.5,-1 c 0,2.76 -2.24,5 -5,5 -2.76,0 -5,-2.24 -5,-5 0,-2.76 2.24,-5 5,-5 2.76,0 5,2.24 5,5 z"
         style="fill:#858585;fill-rule:evenodd;stroke:#858585;stroke-width:1pt"
         transform="matrix(0.2,0,0,0.2,1.48,0.2)"
         inkscape:connector-curvature="0" />
    </marker>
    <marker
       inkscape:stockid="DotSyI"
       orient="auto"
       refY="0"
       refX="0"
       id="DotSyI"
       style="overflow:visible">
      <path
         id="path5816"
         d="m -2.5,-1 c 0,2.76 -2.24,5 -5,5 -2.76,0 -5,-2.24 -5,-5 0,-2.76 2.24,-5 5,-5 2.76,0 5,2.24 5,5 z"
         style="fill:#858585;fill-rule:evenodd;stroke:#858585;stroke-width:1pt"
         transform="matrix(0.2,0,0,0.2,1.48,0.2)"
         inkscape:connector-curvature="0" />
    </marker>
    <marker
       inkscape:stockid="marker4516y"
       orient="auto"
       refY="0"
       refX="0"
       id="marker4516y"
       style="overflow:visible">
      <path
         inkscape:connector-curvature="0"
         id="path5819"
         d="m -2.5,-1 c 0,2.76 -2.24,5 -5,5 -2.76,0 -5,-2.24 -5,-5 0,-2.76 2.24,-5 5,-5 2.76,0 5,2.24 5,5 z"
         style="fill:#858585;fill-rule:evenodd;stroke:#858585;stroke-width:1pt"
         transform="matrix(0.2,0,0,0.2,1.48,0.2)" />
    </marker>
    <marker
       inkscape:stockid="marker4516I"
       orient="auto"
       refY="0"
       refX="0"
       id="marker4516I"
       style="overflow:visible">
      <path
         inkscape:connector-curvature="0"
         id="path5822"
         d="m -2.5,-1 c 0,2.76 -2.24,5 -5,5 -2.76,0 -5,-2.24 -5,-5 0,-2.76 2.24,-5 5,-5 2.76,0 5,2.24 5,5 z"
         style="fill:#858585;fill-rule:evenodd;stroke:#858585;stroke-width:1pt"
         transform="matrix(0.2,0,0,0.2,1.48,0.2)" />
    </marker>
    <marker
       inkscape:stockid="marker5218b"
       orient="auto"
       refY="0"
       refX="0"
       id="marker5218b"
       style="overflow:visible">
      <path
         inkscape:connector-curvature="0"
         id="path5825"
         d="m -2.5,-1 c 0,2.76 -2.24,5 -5,5 -2.76,0 -5,-2.24 -5,-5 0,-2.76 2.24,-5 5,-5 2.76,0 5,2.24 5,5 z"
         style="fill:#858585;fill-rule:evenodd;stroke:#858585;stroke-width:1pt"
         transform="matrix(0.2,0,0,0.2,1.48,0.2)" />
    </marker>
    <marker
       inkscape:stockid="marker5218X"
       orient="auto"
       refY="0"
       refX="0"
       id="marker5218X"
       style="overflow:visible">
      <path
         inkscape:connector-curvature="0"
         id="path5828"
         d="m -2.5,-1 c 0,2.76 -2.24,5 -5,5 -2.76,0 -5,-2.24 -5,-5 0,-2.76 2.24,-5 5,-5 2.76,0 5,2.24 5,5 z"
         style="fill:#858585;fill-rule:evenodd;stroke:#858585;stroke-width:1pt"
         transform="matrix(0.2,0,0,0.2,1.48,0.2)" />
    </marker>
    <marker
       inkscape:stockid="DotSQL"
       orient="auto"
       refY="0"
       refX="0"
       id="DotSQL"
       style="overflow:visible">
      <path
         id="path6109"
         d="m -2.5,-1 c 0,2.76 -2.24,5 -5,5 -2.76,0 -5,-2.24 -5,-5 0,-2.76 2.24,-5 5,-5 2.76,0 5,2.24 5,5 z"
         style="fill:#ffc400;fill-rule:evenodd;stroke:#ffc400;stroke-width:1pt"
         transform="matrix(0.2,0,0,0.2,1.48,0.2)"
         inkscape:connector-curvature="0" />
    </marker>
    <marker
       inkscape:stockid="DotSgb"
       orient="auto"
       refY="0"
       refX="0"
       id="DotSgb"
       style="overflow:visible">
      <path
         id="path6112"
         d="m -2.5,-1 c 0,2.76 -2.24,5 -5,5 -2.76,0 -5,-2.24 -5,-5 0,-2.76 2.24,-5 5,-5 2.76,0 5,2.24 5,5 z"
         style="fill:#ffc400;fill-rule:evenodd;stroke:#ffc400;stroke-width:1pt"
         transform="matrix(0.2,0,0,0.2,1.48,0.2)"
         inkscape:connector-curvature="0" />
    </marker>
    <marker
       inkscape:stockid="marker4516J6"
       orient="auto"
       refY="0"
       refX="0"
       id="marker4516J6"
       style="overflow:visible">
      <path
         inkscape:connector-curvature="0"
         id="path6115"
         d="m -2.5,-1 c 0,2.76 -2.24,5 -5,5 -2.76,0 -5,-2.24 -5,-5 0,-2.76 2.24,-5 5,-5 2.76,0 5,2.24 5,5 z"
         style="fill:#ffc400;fill-rule:evenodd;stroke:#ffc400;stroke-width:1pt"
         transform="matrix(0.2,0,0,0.2,1.48,0.2)" />
    </marker>
    <marker
       inkscape:stockid="marker4516Pl"
       orient="auto"
       refY="0"
       refX="0"
       id="marker4516Pl"
       style="overflow:visible">
      <path
         inkscape:connector-curvature="0"
         id="path6118"
         d="m -2.5,-1 c 0,2.76 -2.24,5 -5,5 -2.76,0 -5,-2.24 -5,-5 0,-2.76 2.24,-5 5,-5 2.76,0 5,2.24 5,5 z"
         style="fill:#ffc400;fill-rule:evenodd;stroke:#ffc400;stroke-width:1pt"
         transform="matrix(0.2,0,0,0.2,1.48,0.2)" />
    </marker>
    <marker
       inkscape:stockid="DotSSB"
       orient="auto"
       refY="0"
       refX="0"
       id="DotSSB"
       style="overflow:visible">
      <path
         id="path6121"
         d="m -2.5,-1 c 0,2.76 -2.24,5 -5,5 -2.76,0 -5,-2.24 -5,-5 0,-2.76 2.24,-5 5,-5 2.76,0 5,2.24 5,5 z"
         style="fill:#ffc400;fill-rule:evenodd;stroke:#ffc400;stroke-width:1pt"
         transform="matrix(0.2,0,0,0.2,1.48,0.2)"
         inkscape:connector-curvature="0" />
    </marker>
    <marker
       inkscape:stockid="DotSyD"
       orient="auto"
       refY="0"
       refX="0"
       id="DotSyD"
       style="overflow:visible">
      <path
         id="path6124"
         d="m -2.5,-1 c 0,2.76 -2.24,5 -5,5 -2.76,0 -5,-2.24 -5,-5 0,-2.76 2.24,-5 5,-5 2.76,0 5,2.24 5,5 z"
         style="fill:#ffc400;fill-rule:evenodd;stroke:#ffc400;stroke-width:1pt"
         transform="matrix(0.2,0,0,0.2,1.48,0.2)"
         inkscape:connector-curvature="0" />
    </marker>
    <marker
       inkscape:stockid="marker4516Ct"
       orient="auto"
       refY="0"
       refX="0"
       id="marker4516Ct"
       style="overflow:visible">
      <path
         inkscape:connector-curvature="0"
         id="path6127"
         d="m -2.5,-1 c 0,2.76 -2.24,5 -5,5 -2.76,0 -5,-2.24 -5,-5 0,-2.76 2.24,-5 5,-5 2.76,0 5,2.24 5,5 z"
         style="fill:#ffc400;fill-rule:evenodd;stroke:#ffc400;stroke-width:1pt"
         transform="matrix(0.2,0,0,0.2,1.48,0.2)" />
    </marker>
    <marker
       inkscape:stockid="marker451623"
       orient="auto"
       refY="0"
       refX="0"
       id="marker451623"
       style="overflow:visible">
      <path
         inkscape:connector-curvature="0"
         id="path6130"
         d="m -2.5,-1 c 0,2.76 -2.24,5 -5,5 -2.76,0 -5,-2.24 -5,-5 0,-2.76 2.24,-5 5,-5 2.76,0 5,2.24 5,5 z"
         style="fill:#ffc400;fill-rule:evenodd;stroke:#ffc400;stroke-width:1pt"
         transform="matrix(0.2,0,0,0.2,1.48,0.2)" />
    </marker>
    <marker
       inkscape:stockid="marker4516yb"
       orient="auto"
       refY="0"
       refX="0"
       id="marker4516yb"
       style="overflow:visible">
      <path
         inkscape:connector-curvature="0"
         id="path6133"
         d="m -2.5,-1 c 0,2.76 -2.24,5 -5,5 -2.76,0 -5,-2.24 -5,-5 0,-2.76 2.24,-5 5,-5 2.76,0 5,2.24 5,5 z"
         style="fill:#ffc400;fill-rule:evenodd;stroke:#ffc400;stroke-width:1pt"
         transform="matrix(0.2,0,0,0.2,1.48,0.2)" />
    </marker>
    <marker
       inkscape:stockid="marker4516IS"
       orient="auto"
       refY="0"
       refX="0"
       id="marker4516IS"
       style="overflow:visible">
      <path
         inkscape:connector-curvature="0"
         id="path6136"
         d="m -2.5,-1 c 0,2.76 -2.24,5 -5,5 -2.76,0 -5,-2.24 -5,-5 0,-2.76 2.24,-5 5,-5 2.76,0 5,2.24 5,5 z"
         style="fill:#ffc400;fill-rule:evenodd;stroke:#ffc400;stroke-width:1pt"
         transform="matrix(0.2,0,0,0.2,1.48,0.2)" />
    </marker>
    <marker
       inkscape:stockid="DotSsAi"
       orient="auto"
       refY="0"
       refX="0"
       id="DotSsAi"
       style="overflow:visible">
      <path
         id="path6139"
         d="m -2.5,-1 c 0,2.76 -2.24,5 -5,5 -2.76,0 -5,-2.24 -5,-5 0,-2.76 2.24,-5 5,-5 2.76,0 5,2.24 5,5 z"
         style="fill:#ffc400;fill-rule:evenodd;stroke:#ffc400;stroke-width:1pt"
         transform="matrix(0.2,0,0,0.2,1.48,0.2)"
         inkscape:connector-curvature="0" />
    </marker>
    <marker
       inkscape:stockid="DotSLdG"
       orient="auto"
       refY="0"
       refX="0"
       id="DotSLdG"
       style="overflow:visible">
      <path
         id="path6142"
         d="m -2.5,-1 c 0,2.76 -2.24,5 -5,5 -2.76,0 -5,-2.24 -5,-5 0,-2.76 2.24,-5 5,-5 2.76,0 5,2.24 5,5 z"
         style="fill:#ffc400;fill-rule:evenodd;stroke:#ffc400;stroke-width:1pt"
         transform="matrix(0.2,0,0,0.2,1.48,0.2)"
         inkscape:connector-curvature="0" />
    </marker>
    <marker
       inkscape:stockid="DotSd7"
       orient="auto"
       refY="0"
       refX="0"
       id="DotSd7"
       style="overflow:visible">
      <path
         id="path6145"
         d="m -2.5,-1 c 0,2.76 -2.24,5 -5,5 -2.76,0 -5,-2.24 -5,-5 0,-2.76 2.24,-5 5,-5 2.76,0 5,2.24 5,5 z"
         style="fill:#ffc400;fill-rule:evenodd;stroke:#ffc400;stroke-width:1pt"
         transform="matrix(0.2,0,0,0.2,1.48,0.2)"
         inkscape:connector-curvature="0" />
    </marker>
    <marker
       inkscape:stockid="DotSyIp"
       orient="auto"
       refY="0"
       refX="0"
       id="DotSyIp"
       style="overflow:visible">
      <path
         id="path6148"
         d="m -2.5,-1 c 0,2.76 -2.24,5 -5,5 -2.76,0 -5,-2.24 -5,-5 0,-2.76 2.24,-5 5,-5 2.76,0 5,2.24 5,5 z"
         style="fill:#ffc400;fill-rule:evenodd;stroke:#ffc400;stroke-width:1pt"
         transform="matrix(0.2,0,0,0.2,1.48,0.2)"
         inkscape:connector-curvature="0" />
    </marker>
    <marker
       inkscape:stockid="DotSvS"
       orient="auto"
       refY="0"
       refX="0"
       id="DotSvS"
       style="overflow:visible">
      <path
         id="path6151"
         d="m -2.5,-1 c 0,2.76 -2.24,5 -5,5 -2.76,0 -5,-2.24 -5,-5 0,-2.76 2.24,-5 5,-5 2.76,0 5,2.24 5,5 z"
         style="fill:#ffc400;fill-rule:evenodd;stroke:#ffc400;stroke-width:1pt"
         transform="matrix(0.2,0,0,0.2,1.48,0.2)"
         inkscape:connector-curvature="0" />
    </marker>
    <marker
       inkscape:stockid="DotSsJ"
       orient="auto"
       refY="0"
       refX="0"
       id="DotSsJ"
       style="overflow:visible">
      <path
         id="path6154"
         d="m -2.5,-1 c 0,2.76 -2.24,5 -5,5 -2.76,0 -5,-2.24 -5,-5 0,-2.76 2.24,-5 5,-5 2.76,0 5,2.24 5,5 z"
         style="fill:#ffc400;fill-rule:evenodd;stroke:#ffc400;stroke-width:1pt"
         transform="matrix(0.2,0,0,0.2,1.48,0.2)"
         inkscape:connector-curvature="0" />
    </marker>
    <marker
       inkscape:stockid="DotSfb"
       orient="auto"
       refY="0"
       refX="0"
       id="DotSfb"
       style="overflow:visible">
      <path
         id="path6157"
         d="m -2.5,-1 c 0,2.76 -2.24,5 -5,5 -2.76,0 -5,-2.24 -5,-5 0,-2.76 2.24,-5 5,-5 2.76,0 5,2.24 5,5 z"
         style="fill:#ffc400;fill-rule:evenodd;stroke:#ffc400;stroke-width:1pt"
         transform="matrix(0.2,0,0,0.2,1.48,0.2)"
         inkscape:connector-curvature="0" />
    </marker>
    <marker
       inkscape:stockid="DotS7T"
       orient="auto"
       refY="0"
       refX="0"
       id="DotS7T"
       style="overflow:visible">
      <path
         id="path6160"
         d="m -2.5,-1 c 0,2.76 -2.24,5 -5,5 -2.76,0 -5,-2.24 -5,-5 0,-2.76 2.24,-5 5,-5 2.76,0 5,2.24 5,5 z"
         style="fill:#ffc400;fill-rule:evenodd;stroke:#ffc400;stroke-width:1pt"
         transform="matrix(0.2,0,0,0.2,1.48,0.2)"
         inkscape:connector-curvature="0" />
    </marker>
    <marker
       inkscape:stockid="DotSko"
       orient="auto"
       refY="0"
       refX="0"
       id="DotSko"
       style="overflow:visible">
      <path
         id="path6163"
         d="m -2.5,-1 c 0,2.76 -2.24,5 -5,5 -2.76,0 -5,-2.24 -5,-5 0,-2.76 2.24,-5 5,-5 2.76,0 5,2.24 5,5 z"
         style="fill:#ffc400;fill-rule:evenodd;stroke:#ffc400;stroke-width:1pt"
         transform="matrix(0.2,0,0,0.2,1.48,0.2)"
         inkscape:connector-curvature="0" />
    </marker>
    <marker
       inkscape:stockid="DotSKZ"
       orient="auto"
       refY="0"
       refX="0"
       id="DotSKZ"
       style="overflow:visible">
      <path
         id="path6166"
         d="m -2.5,-1 c 0,2.76 -2.24,5 -5,5 -2.76,0 -5,-2.24 -5,-5 0,-2.76 2.24,-5 5,-5 2.76,0 5,2.24 5,5 z"
         style="fill:#ffc400;fill-rule:evenodd;stroke:#ffc400;stroke-width:1pt"
         transform="matrix(0.2,0,0,0.2,1.48,0.2)"
         inkscape:connector-curvature="0" />
    </marker>
    <marker
       inkscape:stockid="DotSCa"
       orient="auto"
       refY="0"
       refX="0"
       id="DotSCa"
       style="overflow:visible">
      <path
         id="path6169"
         d="m -2.5,-1 c 0,2.76 -2.24,5 -5,5 -2.76,0 -5,-2.24 -5,-5 0,-2.76 2.24,-5 5,-5 2.76,0 5,2.24 5,5 z"
         style="fill:#ffc400;fill-rule:evenodd;stroke:#ffc400;stroke-width:1pt"
         transform="matrix(0.2,0,0,0.2,1.48,0.2)"
         inkscape:connector-curvature="0" />
    </marker>
    <marker
       inkscape:stockid="DotSLi"
       orient="auto"
       refY="0"
       refX="0"
       id="DotSLi"
       style="overflow:visible">
      <path
         id="path6172"
         d="m -2.5,-1 c 0,2.76 -2.24,5 -5,5 -2.76,0 -5,-2.24 -5,-5 0,-2.76 2.24,-5 5,-5 2.76,0 5,2.24 5,5 z"
         style="fill:#ffc400;fill-rule:evenodd;stroke:#ffc400;stroke-width:1pt"
         transform="matrix(0.2,0,0,0.2,1.48,0.2)"
         inkscape:connector-curvature="0" />
    </marker>
    <marker
       inkscape:stockid="marker5218bQ"
       orient="auto"
       refY="0"
       refX="0"
       id="marker5218bQ"
       style="overflow:visible">
      <path
         inkscape:connector-curvature="0"
         id="path6175"
         d="m -2.5,-1 c 0,2.76 -2.24,5 -5,5 -2.76,0 -5,-2.24 -5,-5 0,-2.76 2.24,-5 5,-5 2.76,0 5,2.24 5,5 z"
         style="fill:#ffc400;fill-rule:evenodd;stroke:#ffc400;stroke-width:1pt"
         transform="matrix(0.2,0,0,0.2,1.48,0.2)" />
    </marker>
    <marker
       inkscape:stockid="marker5218XM"
       orient="auto"
       refY="0"
       refX="0"
       id="marker5218XM"
       style="overflow:visible">
      <path
         inkscape:connector-curvature="0"
         id="path6178"
         d="m -2.5,-1 c 0,2.76 -2.24,5 -5,5 -2.76,0 -5,-2.24 -5,-5 0,-2.76 2.24,-5 5,-5 2.76,0 5,2.24 5,5 z"
         style="fill:#ffc400;fill-rule:evenodd;stroke:#ffc400;stroke-width:1pt"
         transform="matrix(0.2,0,0,0.2,1.48,0.2)" />
    </marker>
    <marker
       inkscape:stockid="DotSGn"
       orient="auto"
       refY="0"
       refX="0"
       id="DotSGn"
       style="overflow:visible">
      <path
         id="path6181"
         d="m -2.5,-1 c 0,2.76 -2.24,5 -5,5 -2.76,0 -5,-2.24 -5,-5 0,-2.76 2.24,-5 5,-5 2.76,0 5,2.24 5,5 z"
         style="fill:#ffc400;fill-rule:evenodd;stroke:#ffc400;stroke-width:1pt"
         transform="matrix(0.2,0,0,0.2,1.48,0.2)"
         inkscape:connector-curvature="0" />
    </marker>
    <marker
       inkscape:stockid="DotS5R"
       orient="auto"
       refY="0"
       refX="0"
       id="DotS5R"
       style="overflow:visible">
      <path
         id="path6184"
         d="m -2.5,-1 c 0,2.76 -2.24,5 -5,5 -2.76,0 -5,-2.24 -5,-5 0,-2.76 2.24,-5 5,-5 2.76,0 5,2.24 5,5 z"
         style="fill:#ffc400;fill-rule:evenodd;stroke:#ffc400;stroke-width:1pt"
         transform="matrix(0.2,0,0,0.2,1.48,0.2)"
         inkscape:connector-curvature="0" />
    </marker>
    <marker
       inkscape:stockid="DotSd7"
       orient="auto"
       refY="0"
       refX="0"
       id="DotSd7-9"
       style="overflow:visible">
      <path
         inkscape:connector-curvature="0"
         id="path6145-2"
         d="m -2.5,-1 c 0,2.76 -2.24,5 -5,5 -2.76,0 -5,-2.24 -5,-5 0,-2.76 2.24,-5 5,-5 2.76,0 5,2.24 5,5 z"
         style="fill:#ffc400;fill-rule:evenodd;stroke:#ffc400;stroke-width:1pt"
         transform="matrix(0.2,0,0,0.2,1.48,0.2)" />
    </marker>
    <marker
       inkscape:stockid="DotSyIp"
       orient="auto"
       refY="0"
       refX="0"
       id="DotSyIp-9"
       style="overflow:visible">
      <path
         inkscape:connector-curvature="0"
         id="path6148-2"
         d="m -2.5,-1 c 0,2.76 -2.24,5 -5,5 -2.76,0 -5,-2.24 -5,-5 0,-2.76 2.24,-5 5,-5 2.76,0 5,2.24 5,5 z"
         style="fill:#ffc400;fill-rule:evenodd;stroke:#ffc400;stroke-width:1pt"
         transform="matrix(0.2,0,0,0.2,1.48,0.2)" />
    </marker>
    <marker
       inkscape:stockid="DotSGn"
       orient="auto"
       refY="0"
       refX="0"
       id="DotSGn-0"
       style="overflow:visible">
      <path
         inkscape:connector-curvature="0"
         id="path6181-6"
         d="m -2.5,-1 c 0,2.76 -2.24,5 -5,5 -2.76,0 -5,-2.24 -5,-5 0,-2.76 2.24,-5 5,-5 2.76,0 5,2.24 5,5 z"
         style="fill:#ffc400;fill-rule:evenodd;stroke:#ffc400;stroke-width:1pt"
         transform="matrix(0.2,0,0,0.2,1.48,0.2)" />
    </marker>
    <marker
       inkscape:stockid="DotS5R"
       orient="auto"
       refY="0"
       refX="0"
       id="DotS5R-3"
       style="overflow:visible">
      <path
         inkscape:connector-curvature="0"
         id="path6184-9"
         d="m -2.5,-1 c 0,2.76 -2.24,5 -5,5 -2.76,0 -5,-2.24 -5,-5 0,-2.76 2.24,-5 5,-5 2.76,0 5,2.24 5,5 z"
         style="fill:#ffc400;fill-rule:evenodd;stroke:#ffc400;stroke-width:1pt"
         transform="matrix(0.2,0,0,0.2,1.48,0.2)" />
    </marker>
    <marker
       inkscape:stockid="marker5218bQ"
       orient="auto"
       refY="0"
       refX="0"
       id="marker5218bQ-7"
       style="overflow:visible">
      <path
         inkscape:connector-curvature="0"
         id="path6175-9"
         d="m -2.5,-1 c 0,2.76 -2.24,5 -5,5 -2.76,0 -5,-2.24 -5,-5 0,-2.76 2.24,-5 5,-5 2.76,0 5,2.24 5,5 z"
         style="fill:#ffc400;fill-rule:evenodd;stroke:#ffc400;stroke-width:1pt"
         transform="matrix(0.2,0,0,0.2,1.48,0.2)" />
    </marker>
    <marker
       inkscape:stockid="marker5218XM"
       orient="auto"
       refY="0"
       refX="0"
       id="marker5218XM-8"
       style="overflow:visible">
      <path
         inkscape:connector-curvature="0"
         id="path6178-2"
         d="m -2.5,-1 c 0,2.76 -2.24,5 -5,5 -2.76,0 -5,-2.24 -5,-5 0,-2.76 2.24,-5 5,-5 2.76,0 5,2.24 5,5 z"
         style="fill:#ffc400;fill-rule:evenodd;stroke:#ffc400;stroke-width:1pt"
         transform="matrix(0.2,0,0,0.2,1.48,0.2)" />
    </marker>
    <marker
       inkscape:stockid="marker5218bQ"
       orient="auto"
       refY="0"
       refX="0"
       id="marker5218bQ-9"
       style="overflow:visible">
      <path
         inkscape:connector-curvature="0"
         id="path6175-95"
         d="m -2.5,-1 c 0,2.76 -2.24,5 -5,5 -2.76,0 -5,-2.24 -5,-5 0,-2.76 2.24,-5 5,-5 2.76,0 5,2.24 5,5 z"
         style="fill:#ffc400;fill-rule:evenodd;stroke:#ffc400;stroke-width:1pt"
         transform="matrix(0.2,0,0,0.2,1.48,0.2)" />
    </marker>
    <marker
       inkscape:stockid="marker5218XM"
       orient="auto"
       refY="0"
       refX="0"
       id="marker5218XM-4"
       style="overflow:visible">
      <path
         inkscape:connector-curvature="0"
         id="path6178-29"
         d="m -2.5,-1 c 0,2.76 -2.24,5 -5,5 -2.76,0 -5,-2.24 -5,-5 0,-2.76 2.24,-5 5,-5 2.76,0 5,2.24 5,5 z"
         style="fill:#ffc400;fill-rule:evenodd;stroke:#ffc400;stroke-width:1pt"
         transform="matrix(0.2,0,0,0.2,1.48,0.2)" />
    </marker>
    <marker
       inkscape:stockid="DotSGn"
       orient="auto"
       refY="0"
       refX="0"
       id="DotSGn-08"
       style="overflow:visible">
      <path
         inkscape:connector-curvature="0"
         id="path6181-5"
         d="m -2.5,-1 c 0,2.76 -2.24,5 -5,5 -2.76,0 -5,-2.24 -5,-5 0,-2.76 2.24,-5 5,-5 2.76,0 5,2.24 5,5 z"
         style="fill:#ffc400;fill-rule:evenodd;stroke:#ffc400;stroke-width:1pt"
         transform="matrix(0.2,0,0,0.2,1.48,0.2)" />
    </marker>
    <marker
       inkscape:stockid="DotS5R"
       orient="auto"
       refY="0"
       refX="0"
       id="DotS5R-8"
       style="overflow:visible">
      <path
         inkscape:connector-curvature="0"
         id="path6184-1"
         d="m -2.5,-1 c 0,2.76 -2.24,5 -5,5 -2.76,0 -5,-2.24 -5,-5 0,-2.76 2.24,-5 5,-5 2.76,0 5,2.24 5,5 z"
         style="fill:#ffc400;fill-rule:evenodd;stroke:#ffc400;stroke-width:1pt"
         transform="matrix(0.2,0,0,0.2,1.48,0.2)" />
    </marker>
    <marker
       inkscape:stockid="marker4516Ct"
       orient="auto"
       refY="0"
       refX="0"
       id="marker4516Ct-0"
       style="overflow:visible">
      <path
         inkscape:connector-curvature="0"
         id="path6127-3"
         d="m -2.5,-1 c 0,2.76 -2.24,5 -5,5 -2.76,0 -5,-2.24 -5,-5 0,-2.76 2.24,-5 5,-5 2.76,0 5,2.24 5,5 z"
         style="fill:#ffc400;fill-rule:evenodd;stroke:#ffc400;stroke-width:1pt"
         transform="matrix(0.2,0,0,0.2,1.48,0.2)" />
    </marker>
    <marker
       inkscape:stockid="marker451623"
       orient="auto"
       refY="0"
       refX="0"
       id="marker451623-8"
       style="overflow:visible">
      <path
         inkscape:connector-curvature="0"
         id="path6130-8"
         d="m -2.5,-1 c 0,2.76 -2.24,5 -5,5 -2.76,0 -5,-2.24 -5,-5 0,-2.76 2.24,-5 5,-5 2.76,0 5,2.24 5,5 z"
         style="fill:#ffc400;fill-rule:evenodd;stroke:#ffc400;stroke-width:1pt"
         transform="matrix(0.2,0,0,0.2,1.48,0.2)" />
    </marker>
    <marker
       inkscape:stockid="marker5218bQ"
       orient="auto"
       refY="0"
       refX="0"
       id="marker5218bQ-0"
       style="overflow:visible">
      <path
         inkscape:connector-curvature="0"
         id="path6175-8"
         d="m -2.5,-1 c 0,2.76 -2.24,5 -5,5 -2.76,0 -5,-2.24 -5,-5 0,-2.76 2.24,-5 5,-5 2.76,0 5,2.24 5,5 z"
         style="fill:#ffc400;fill-rule:evenodd;stroke:#ffc400;stroke-width:1pt"
         transform="matrix(0.2,0,0,0.2,1.48,0.2)" />
    </marker>
    <marker
       inkscape:stockid="marker5218XM"
       orient="auto"
       refY="0"
       refX="0"
       id="marker5218XM-86"
       style="overflow:visible">
      <path
         inkscape:connector-curvature="0"
         id="path6178-7"
         d="m -2.5,-1 c 0,2.76 -2.24,5 -5,5 -2.76,0 -5,-2.24 -5,-5 0,-2.76 2.24,-5 5,-5 2.76,0 5,2.24 5,5 z"
         style="fill:#ffc400;fill-rule:evenodd;stroke:#ffc400;stroke-width:1pt"
         transform="matrix(0.2,0,0,0.2,1.48,0.2)" />
    </marker>
    <circle
       transform="matrix(0.8755829,0,0,0.8755829,152.4506,-680.83707)"
       id="path6572"
       style="fill:none;stroke:none"
       cx="675.71429"
       cy="777.58148"
       r="584.28571" />
    <circle
       transform="matrix(-1.1162727,-0.04357729,-0.04357729,1.1162727,1532.2608,-838.54723)"
       id="path6572-9"
       style="fill:none;stroke:none"
       cx="675.71429"
       cy="777.58148"
       r="584.28571" />
  </defs>
  <metadata
     id="metadata7">
    <rdf:RDF>
      <cc:Work
         rdf:about="">
        <dc:format>image/svg+xml</dc:format>
        <dc:type
           rdf:resource="http://purl.org/dc/dcmitype/StillImage" />
        <dc:title></dc:title>
      </cc:Work>
    </rdf:RDF>
  </metadata>
  <g
     inkscape:label="Ebene 1"
     inkscape:groupmode="layer"
     id="layer1"
     transform="translate(0,-783.07098)">
    <path
       id="path1729"
       style="color:#000000;font-style:normal;font-variant:normal;font-weight:normal;font-stretch:normal;font-size:medium;line-height:normal;font-family:sans-serif;font-variant-ligatures:normal;font-variant-position:normal;font-variant-caps:normal;font-variant-numeric:normal;font-variant-alternates:normal;font-variant-east-asian:normal;font-feature-settings:normal;font-variation-settings:normal;text-indent:0;text-align:start;text-decoration:none;text-decoration-line:none;text-decoration-style:solid;text-decoration-color:#000000;letter-spacing:normal;word-spacing:normal;text-transform:none;writing-mode:lr-tb;direction:ltr;text-orientation:mixed;dominant-baseline:auto;baseline-shift:baseline;text-anchor:start;white-space:normal;shape-padding:0;shape-margin:0;inline-size:0;clip-rule:nonzero;display:inline;overflow:visible;visibility:visible;isolation:auto;mix-blend-mode:normal;color-interpolation:sRGB;color-interpolation-filters:linearRGB;solid-color:#000000;solid-opacity:1;vector-effect:none;fill:#000000;fill-opacity:1;fill-rule:nonzero;stroke:none;stroke-width:1.99828;stroke-linecap:butt;stroke-linejoin:miter;stroke-miterlimit:4;stroke-dasharray:none;stroke-dashoffset:0;stroke-opacity:1;color-rendering:auto;image-rendering:auto;shape-rendering:auto;text-rendering:auto;enable-background:accumulate;stop-color:#000000"
       d="m 94.347263,783.07098 c -47.8855,0.0125 -88.93065,36.31205 -93.85937,84.9707 -5.25733,51.90261 32.57398,98.26028 84.47656,103.51759 51.902617,5.25735 98.268077,-32.5739 103.525387,-84.47657 5.25733,-51.90266 -32.57984,-98.26025 -84.48242,-103.51758 -3.24297,-0.32848 -6.466817,-0.49496 -9.660157,-0.49414 z m -2.95312,8.11914 c 0.27263,-0.027 0.45927,0.12581 0.48632,0.39844 l 0.24024,2.42578 c 0.027,0.27263 -0.12581,0.45923 -0.39844,0.48633 l -6.51758,0.64648 c -0.27262,0.027 -0.42353,0.21176 -0.39648,0.48438 l 0.24023,2.42773 c 0.027,0.27264 0.21371,0.42554 0.48633,0.39844 l 5.34766,-0.53125 c 0.27263,-0.027 0.45732,0.12582 0.48437,0.39844 l 0.24219,2.42773 c 0.027,0.27263 -0.12581,0.45727 -0.39844,0.48437 l -5.34765,0.53125 c -0.27263,0.027 -0.42549,0.21175 -0.39844,0.48438 l 0.2539,2.55664 c 0.027,0.27263 0.21175,0.42544 0.48438,0.39844 l 6.51758,-0.64649 c 0.27263,-0.027 0.45727,0.1258 0.48437,0.39844 l 0.24219,2.42774 c 0.027,0.27262 -0.12582,0.45727 -0.39844,0.48437 l -10.15234,1.00781 c -0.27264,0.027 -0.45733,-0.12581 -0.48438,-0.39843 l -1.5664,-15.79883 c -0.027,-0.27264 0.12386,-0.45923 0.39648,-0.48633 z m 8.2539,0.082 6.681637,0.8125 c 3.31532,0.40339 5.05516,2.62575 4.67383,5.75977 -0.21903,1.80012 -1.08203,3.06179 -2.68164,3.78711 -0.13897,0.062 -0.21201,0.13271 -0.22461,0.23632 -0.0127,0.1036 0.003,0.18464 0.0293,0.29297 l 1.78711,6.48633 c 0.0835,0.28615 0.11416,0.46085 0.10156,0.56445 -0.0126,0.10359 -0.12873,0.19317 -0.33594,0.16797 l -3.13476,-0.38086 c -0.1036,-0.0126 -0.18503,-0.0879 -0.23243,-0.23828 l -1.78515,-6.39453 c -0.036,-0.13579 -0.13344,-0.20064 -0.25,-0.21484 l -2.24024,-0.27149 c -0.27197,-0.0331 -0.46104,0.11477 -0.49414,0.38672 l -0.68164,5.59375 c -0.0331,0.27196 -0.22023,0.41982 -0.49219,0.38672 l -2.746087,-0.33398 c -0.27196,-0.0331 -0.41982,-0.22218 -0.38672,-0.49414 l 1.91797,-15.75977 c 0.0331,-0.27196 0.22217,-0.41982 0.49414,-0.38672 z m 18.105467,3.04492 c 0.058,-10e-4 0.11887,0.0108 0.18359,0.0332 l 9.8125,3.39843 c 0.25888,0.0897 0.36509,0.30362 0.27539,0.5625 l -0.79882,2.30664 c -0.0896,0.25889 -0.30558,0.36314 -0.56446,0.27344 l -2.76172,-0.95703 c -0.25889,-0.0897 -0.47475,0.0165 -0.56445,0.27539 l -4.10742,11.85938 c -0.0897,0.25888 -0.30556,0.36313 -0.56445,0.27343 l -2.61328,-0.90625 c -0.2589,-0.0897 -0.36314,-0.30557 -0.27344,-0.56445 l 4.10742,-11.85742 c 0.0897,-0.25888 -0.0146,-0.47475 -0.27344,-0.56445 l -2.76172,-0.95704 c -0.25888,-0.0897 -0.36313,-0.30557 -0.27343,-0.56445 l 0.79687,-2.30469 c 0.0673,-0.19416 0.20676,-0.30287 0.38086,-0.30664 z m -46.173827,0.38672 c 2.12537,0.0549 3.59426,1.36593 4.31446,3.61133 l 0.12304,0.38477 c 0.80486,2.50937 -0.12284,5.4238 -3.53906,6.51953 l -2.38672,0.76562 c -0.26085,0.0837 -0.37079,0.29773 -0.28711,0.5586 l 1.59961,4.98046 c 0.0837,0.26087 -0.0262,0.4749 -0.28711,0.5586 l -2.63476,0.84375 c -0.26088,0.0837 -0.47297,-0.0262 -0.55664,-0.28711 l -4.84961,-15.11719 c -0.0837,-0.26087 0.0262,-0.47489 0.28711,-0.55859 l 5.875,-1.88477 c 0.85095,-0.27294 1.63334,-0.39331 2.34179,-0.375 z m 31.291017,0.3125 c -0.27195,-0.0331 -0.45909,0.11477 -0.49219,0.38672 l -0.3418,2.79688 c -0.0331,0.27196 0.11475,0.46104 0.38672,0.49414 l 3.0957,0.37695 c 0.99721,0.12133 1.89789,-0.47896 2.00977,-1.39844 l 0.0547,-0.45312 c 0.11188,-0.91949 -0.5941,-1.70364 -1.61719,-1.82813 z m -31.828127,3.11328 c -0.23488,-0.0135 -0.48121,0.019 -0.72656,0.0977 l -2.45898,0.78906 c -0.26088,0.0837 -0.37078,0.29772 -0.28711,0.5586 l 0.95312,2.96875 c 0.0837,0.2609 0.29576,0.3708 0.55664,0.2871 l 2.46094,-0.78906 c 0.98139,-0.31477 1.52618,-1.21751 1.1875,-2.27344 l -0.11523,-0.35937 c -0.25401,-0.79195 -0.86566,-1.23879 -1.57032,-1.2793 z m 61.587887,1.61719 c 0.0539,-0.008 0.12088,0.0137 0.21094,0.0664 l 2.64453,1.54882 c 0.12384,0.0725 0.21375,0.20131 0.21875,0.4004 l -0.21289,4.10742 c -0.10738,1.26756 -0.31538,2.62793 -0.55273,3.0332 l 0.11328,0.0664 c 0.23076,-0.394 1.21475,-1.29991 2.29687,-2.01172 l 3.42188,-2.22852 c 0.142,-0.1134 0.32102,-0.0836 0.43359,-0.0176 l 2.83789,1.66016 c 0.14644,0.0857 0.22485,0.2082 0.15235,0.33203 -0.033,0.0563 -0.0887,0.10064 -0.16211,0.14844 l -8.99805,5.66016 -3.33594,5.69531 c -0.13846,0.23639 -0.37101,0.29665 -0.60742,0.1582 l -2.38672,-1.39648 c -0.23639,-0.13845 -0.29666,-0.37102 -0.1582,-0.60743 l 3.33594,-5.69726 0.54492,-10.61133 c 0.006,-0.0873 0.0393,-0.14292 0.0723,-0.19922 0.0363,-0.0619 0.077,-0.0993 0.13086,-0.10742 z m -78.259757,1.82422 c 1.58882,-0.0367 2.85149,0.82065 3.78711,2.4082 l 3.99414,6.77539 c 1.43737,2.43893 0.8403,4.97175 -2.2168,6.77344 l -1.60742,0.94727 c -3.16949,1.86793 -5.50105,1.19828 -6.99805,-1.3418 l -3.99414,-6.77734 c -1.43075,-2.42769 -0.8403,-4.9698 2.2168,-6.77149 l 1.60547,-0.94726 c 1.18856,-0.70048 2.25959,-1.04442 3.21289,-1.06641 z m -0.52344,3.67969 c -0.32479,-0.0234 -0.66703,0.0557 -1,0.25195 l -1.60742,0.94727 c -0.89915,0.5299 -1.04876,1.55697 -0.5586,2.38867 l 3.59571,6.10351 c 0.52328,0.8879 1.47342,1.19124 2.36133,0.66797 l 1.60742,-0.94726 c 0.89914,-0.52991 1.05733,-1.54768 0.56054,-2.39063 l -3.5957,-6.10156 c -0.32705,-0.55494 -0.82197,-0.88092 -1.36328,-0.91992 z m -14.47266,7.4707 c 1.28,0.0123 2.5319,0.59756 3.62305,1.73828 1.25348,1.31041 1.68143,2.77764 1.22852,4.47461 -0.0402,0.14674 -0.0331,0.24872 0.0391,0.32422 0.0721,0.0754 0.14567,0.11371 0.24609,0.16211 l 6.14844,2.73047 c 0.27422,0.11682 0.42981,0.20194 0.50195,0.27734 0.0722,0.0754 0.0688,0.22291 -0.082,0.36719 l -2.28125,2.18359 c -0.0754,0.0721 -0.1857,0.088 -0.33203,0.0293 l -6.07812,-2.67188 c -0.12789,-0.0582 -0.23937,-0.0246 -0.32422,0.0566 l -1.63086,1.56055 c -0.19798,0.18938 -0.20305,0.42897 -0.0137,0.62695 l 3.89648,4.07227 c 0.18937,0.19798 0.18431,0.43758 -0.0137,0.62695 l -2,1.91211 c -0.19798,0.1893 -0.43758,0.18431 -0.62695,-0.0137 l -10.97461,-11.47266 c -0.18938,-0.19798 -0.18431,-0.43953 0.0137,-0.6289 l 4.86523,-4.65235 c 1.20672,-1.15431 2.51493,-1.71539 3.79492,-1.70312 z m 55.11133,1.43945 c 35.026627,0 63.398437,28.37373 63.398437,63.4004 0,18.68626 -8.08332,35.46736 -20.94141,47.07031 l -0.33007,0.29883 v 22.22851 l -4.26368,3.84571 H 92.630463 l -4.02734,-3.83203 v -6.63868 l -0.9082,-0.084 c -1.96749,-0.18049 -3.96585,-0.43325 -6.01953,-0.77734 -28.87487,-5.92137 -50.58985,-31.47207 -50.58985,-62.11133 0,-35.02664 28.37376,-63.4004 63.40039,-63.4004 z m 58.621097,1.53711 c 1.35006,-0.0611 2.77502,0.57926 4.14257,2.03321 l 1.2793,1.35937 c 2.52059,2.67981 2.38008,5.10299 0.23242,7.12305 l -5.72851,5.38867 c -2.06213,1.93961 -4.66449,1.91486 -7.09571,-0.66992 l -1.27929,-1.35742 c -2.5206,-2.67981 -2.38203,-5.103 -0.23438,-7.12305 l 5.73047,-5.39063 c 0.89802,-0.84467 1.90308,-1.31577 2.95313,-1.36328 z m -113.941407,0.53906 c -0.43638,0.018 -0.88543,0.20825 -1.25781,0.56446 l -2.25391,2.15429 c -0.19798,0.18937 -0.20304,0.43093 -0.0137,0.62891 l 1.94726,2.03516 c 0.18938,0.19805 0.42898,0.20304 0.62696,0.0137 l 2.2539,-2.1543 c 0.72592,-0.69437 0.83363,-1.77205 0.19336,-2.4414 l -0.3164,-0.33008 c -0.32014,-0.33467 -0.74331,-0.4887 -1.17969,-0.47071 z m 114.429687,3.23047 c -0.43631,0.007 -0.87106,0.19273 -1.22266,0.52344 l -5.16016,4.85352 c -0.75073,0.70613 -0.83697,1.70044 -0.13086,2.45117 l 1.27735,1.35742 c 0.71507,0.76026 1.74236,0.69185 2.45508,0.0215 l 5.16015,-4.85351 c 0.75072,-0.70613 0.83699,-1.70043 0.13086,-2.45117 l -1.27929,-1.35938 c -0.35753,-0.38008 -0.79417,-0.55038 -1.23047,-0.54297 z m -126.244137,6.8418 c 0.94895,0.0293 1.93174,0.38311 2.91406,1.03516 l 0.33789,0.22265 c 2.1956,1.45742 3.29075,4.31367 1.30664,7.30274 l -1.38672,2.08789 c -0.15151,0.22826 -0.10325,0.46372 0.125,0.61523 l 4.35938,2.89258 c 0.22825,0.15151 0.27456,0.38697 0.12304,0.61523 l -1.52929,2.30274 c -0.15152,0.22826 -0.38698,0.2765 -0.61524,0.125 l -13.22851,-8.78125 c -0.22826,-0.15151 -0.27456,-0.38502 -0.12305,-0.61328 l 3.41211,-5.14258 c 1.23556,-1.86138 2.7231,-2.71097 4.30469,-2.66211 z m 82.408197,2.87305 -11.988277,0.008 a 3.1965764,3.1965764 0 0 0 -3.19336,3.22266 l 0.01,1.16601 h -42.08203 a 3.1962568,3.1962568 0 0 0 -3.19531,3.19531 3.1962568,3.1962568 0 0 0 3.19531,3.19532 h 42.13672 l 0.0293,3.33984 a 3.1965764,3.1965764 0 0 0 0.61133,1.85156 l 5.927727,8.16211 a 3.1965764,3.1965764 0 0 0 5.1543,0.0234 l 5.93945,-8.01367 a 3.1965764,3.1965764 0 0 0 0.62695,-1.89649 l 0.008,-3.46679 h 23.74609 a 3.1962568,3.1962568 0 0 0 3.19531,-3.19532 3.1962568,3.1962568 0 0 0 -3.19531,-3.19531 H 112.9551 l 0.002,-1.1914 a 3.1965764,3.1965764 0 0 0 -3.19726,-3.20508 z m 56.51367,0.31445 c 0.17132,-0.0312 0.32878,0.0459 0.43359,0.22266 l 5.20313,8.77539 c 0.13975,0.23564 0.0794,0.46767 -0.15625,0.60742 l -2.09766,1.24414 c -0.23565,0.13975 -0.46768,0.0794 -0.60742,-0.15625 l -3.3418,-5.63281 c -0.13973,-0.23566 -0.37178,-0.29405 -0.60742,-0.1543 l -2.61328,1.55078 c -0.23566,0.13975 -0.29601,0.37178 -0.15625,0.60742 l 2.74219,4.62305 c 0.13975,0.23564 0.0794,0.46768 -0.15625,0.60742 l -2.09766,1.24414 c -0.23565,0.13975 -0.46767,0.0814 -0.60742,-0.15429 l -2.73437,-4.61329 c -0.1464,-0.24689 -0.3796,-0.30575 -0.61524,-0.16601 l -4.55664,2.70312 c -0.23564,0.13975 -0.46767,0.0794 -0.60742,-0.15625 l -1.41016,-2.3789 c -0.13974,-0.23564 -0.0813,-0.46767 0.1543,-0.60742 l 13.65625,-8.09961 c 0.0589,-0.0349 0.11867,-0.056 0.17578,-0.0664 z m -138.943357,0.41406 c -0.57973,0.004 -1.11837,0.30903 -1.47461,0.84571 l -1.42968,2.15234 c -0.15152,0.22825 -0.10326,0.46371 0.125,0.61523 l 2.59765,1.72461 c 0.22826,0.15151 0.46372,0.10326 0.61524,-0.125 l 1.42773,-2.15039 c 0.56998,-0.85867 0.43366,-1.90431 -0.49023,-2.51758 l -0.31446,-0.20898 c -0.34646,-0.22998 -0.7088,-0.33818 -1.05664,-0.33594 z m 82.242187,0.52149 a 1.9976617,1.9976617 0 0 1 0.0488,0 1.9976617,1.9976617 0 0 1 0.0977,0.004 1.9976617,1.9976617 0 0 1 0.0215,0 1.9976617,1.9976617 0 0 1 0.0488,0.004 1.9976617,1.9976617 0 0 1 0.01,0.002 1.9976617,1.9976617 0 0 1 0.0801,0.008 1.9976617,1.9976617 0 0 1 0.0644,0.01 1.9976617,1.9976617 0 0 1 0.0645,0.0117 1.9976617,1.9976617 0 0 1 0.0488,0.01 1.9976617,1.9976617 0 0 1 0.082,0.0195 1.9976617,1.9976617 0 0 1 0.0449,0.0137 1.9976617,1.9976617 0 0 1 0.0684,0.0195 1.9976617,1.9976617 0 0 1 0.0449,0.0156 1.9976617,1.9976617 0 0 1 0.0352,0.0137 1.9976617,1.9976617 0 0 1 0.0586,0.0234 1.9976617,1.9976617 0 0 1 0.082,0.0371 1.9976617,1.9976617 0 0 1 0.0723,0.0352 1.9976617,1.9976617 0 0 1 0.0762,0.043 1.9976617,1.9976617 0 0 1 0.0371,0.0215 1.9976617,1.9976617 0 0 1 0.14258,0.0957 1.9976617,1.9976617 0 0 1 0.0742,0.0566 1.9976617,1.9976617 0 0 1 0.0898,0.0762 1.9976617,1.9976617 0 0 1 0.0176,0.0176 1.9976617,1.9976617 0 0 1 0.0508,0.0488 1.9976617,1.9976617 0 0 1 0.0488,0.0508 1.9976617,1.9976617 0 0 1 0.0488,0.0527 1.9976617,1.9976617 0 0 1 0.0449,0.0547 1.9976617,1.9976617 0 0 1 0.0566,0.0742 1.9976617,1.9976617 0 0 1 0.0957,0.14257 1.9976617,1.9976617 0 0 1 0.0215,0.0371 1.9976617,1.9976617 0 0 1 0.043,0.0762 1.9976617,1.9976617 0 0 1 0.004,0.008 1.9976617,1.9976617 0 0 1 0.0312,0.0645 1.9976617,1.9976617 0 0 1 0.0371,0.082 1.9976617,1.9976617 0 0 1 0.0234,0.0586 1.9976617,1.9976617 0 0 1 0.0137,0.0351 1.9976617,1.9976617 0 0 1 0.0254,0.0781 1.9976617,1.9976617 0 0 1 0.01,0.0351 1.9976617,1.9976617 0 0 1 0.0215,0.0742 1.9976617,1.9976617 0 0 1 0.0117,0.0527 1.9976617,1.9976617 0 0 1 0.01,0.0488 1.9976617,1.9976617 0 0 1 0.0117,0.0644 1.9976617,1.9976617 0 0 1 0.01,0.0645 1.9976617,1.9976617 0 0 1 0.008,0.0801 1.9976617,1.9976617 0 0 1 0.002,0.0195 1.9976617,1.9976617 0 0 1 0.004,0.0606 1.9976617,1.9976617 0 0 1 0.004,0.0976 1.9976617,1.9976617 0 0 1 -0.004,0.0977 1.9976617,1.9976617 0 0 1 -0.004,0.0703 1.9976617,1.9976617 0 0 1 -0.006,0.0684 1.9976617,1.9976617 0 0 1 -0.002,0.0156 1.9976617,1.9976617 0 0 1 -0.0176,0.10351 1.9976617,1.9976617 0 0 1 -0.0195,0.0977 1.9976617,1.9976617 0 0 1 -0.0156,0.0645 1.9976617,1.9976617 0 0 1 -0.0137,0.0449 1.9976617,1.9976617 0 0 1 -0.01,0.0312 1.9976617,1.9976617 0 0 1 -0.0801,0.21485 1.9976617,1.9976617 0 0 1 -0.0195,0.043 1.9976617,1.9976617 0 0 1 -0.0312,0.0625 1.9976617,1.9976617 0 0 1 -0.0586,0.10547 1.9976617,1.9976617 0 0 1 -1.71679,0.97851 1.9976617,1.9976617 0 0 1 -1.63281,-0.84961 1.9976617,1.9976617 0 0 1 -0.0664,-0.0996 1.9976617,1.9976617 0 0 1 -0.043,-0.0723 1.9976617,1.9976617 0 0 1 -0.0312,-0.0547 1.9976617,1.9976617 0 0 1 -0.0391,-0.082 1.9976617,1.9976617 0 0 1 -0.0469,-0.10938 1.9976617,1.9976617 0 0 1 -0.0273,-0.0742 1.9976617,1.9976617 0 0 1 -0.0234,-0.0703 1.9976617,1.9976617 0 0 1 0,-0.002 1.9976617,1.9976617 0 0 1 -0.0312,-0.10938 1.9976617,1.9976617 0 0 1 -0.0176,-0.0859 1.9976617,1.9976617 0 0 1 -0.0195,-0.11719 1.9976617,1.9976617 0 0 1 -0.01,-0.0879 1.9976617,1.9976617 0 0 1 -0.006,-0.0586 1.9976617,1.9976617 0 0 1 0,-0.0195 1.9976617,1.9976617 0 0 1 -0.004,-0.10547 1.9976617,1.9976617 0 0 1 0.004,-0.0976 1.9976617,1.9976617 0 0 1 0.004,-0.0606 1.9976617,1.9976617 0 0 1 0.002,-0.0195 1.9976617,1.9976617 0 0 1 0.008,-0.0801 1.9976617,1.9976617 0 0 1 0.01,-0.0645 1.9976617,1.9976617 0 0 1 0.0117,-0.0644 1.9976617,1.9976617 0 0 1 0.01,-0.0488 1.9976617,1.9976617 0 0 1 0.0117,-0.0527 1.9976617,1.9976617 0 0 1 0.0215,-0.0742 1.9976617,1.9976617 0 0 1 0.01,-0.0351 1.9976617,1.9976617 0 0 1 0.0254,-0.0781 1.9976617,1.9976617 0 0 1 0.0137,-0.0351 1.9976617,1.9976617 0 0 1 0.0234,-0.0586 1.9976617,1.9976617 0 0 1 0.0371,-0.082 1.9976617,1.9976617 0 0 1 0.0469,-0.0957 1.9976617,1.9976617 0 0 1 0.0234,-0.041 1.9976617,1.9976617 0 0 1 0.0371,-0.0605 1.9976617,1.9976617 0 0 1 0.0117,-0.0215 1.9976617,1.9976617 0 0 1 0.0586,-0.0859 1.9976617,1.9976617 0 0 1 0.006,-0.008 1.9976617,1.9976617 0 0 1 0.0684,-0.0898 1.9976617,1.9976617 0 0 1 0.0762,-0.0899 1.9976617,1.9976617 0 0 1 0.0488,-0.0527 1.9976617,1.9976617 0 0 1 0.0215,-0.0215 1.9976617,1.9976617 0 0 1 0.0234,-0.0215 1.9976617,1.9976617 0 0 1 0.0762,-0.0703 1.9976617,1.9976617 0 0 1 0.0547,-0.0469 1.9976617,1.9976617 0 0 1 0.0195,-0.0137 1.9976617,1.9976617 0 0 1 0.0469,-0.0352 1.9976617,1.9976617 0 0 1 0.0273,-0.0215 1.9976617,1.9976617 0 0 1 0.0996,-0.0664 1.9976617,1.9976617 0 0 1 0.0234,-0.0137 1.9976617,1.9976617 0 0 1 0.0371,-0.0215 1.9976617,1.9976617 0 0 1 0.084,-0.0469 1.9976617,1.9976617 0 0 1 0.0625,-0.0312 1.9976617,1.9976617 0 0 1 0.0137,-0.006 1.9976617,1.9976617 0 0 1 0.0645,-0.0293 1.9976617,1.9976617 0 0 1 0.0684,-0.0274 1.9976617,1.9976617 0 0 1 0.0195,-0.006 1.9976617,1.9976617 0 0 1 0.10156,-0.0351 1.9976617,1.9976617 0 0 1 0.10742,-0.0293 1.9976617,1.9976617 0 0 1 0.0332,-0.008 1.9976617,1.9976617 0 0 1 0.0586,-0.0117 1.9976617,1.9976617 0 0 1 0.0644,-0.0117 1.9976617,1.9976617 0 0 1 0.0801,-0.0137 1.9976617,1.9976617 0 0 1 0.0117,0 1.9976617,1.9976617 0 0 1 0.11133,-0.01 1.9976617,1.9976617 0 0 1 0.0703,-0.004 z m -11.666017,0.0273 a 1.9976617,1.9976617 0 0 1 0.0488,0 1.9976617,1.9976617 0 0 1 0.0977,0.004 1.9976617,1.9976617 0 0 1 0.0215,0 1.9976617,1.9976617 0 0 1 0.0488,0.004 1.9976617,1.9976617 0 0 1 0.0684,0.006 1.9976617,1.9976617 0 0 1 0.0215,0.004 1.9976617,1.9976617 0 0 1 0.0645,0.01 1.9976617,1.9976617 0 0 1 0.0645,0.0117 1.9976617,1.9976617 0 0 1 0.084,0.0176 1.9976617,1.9976617 0 0 1 0.0176,0.004 1.9976617,1.9976617 0 0 1 0.0977,0.0273 1.9976617,1.9976617 0 0 1 0.0449,0.0137 1.9976617,1.9976617 0 0 1 0.0664,0.0234 1.9976617,1.9976617 0 0 1 0.0137,0.006 1.9976617,1.9976617 0 0 1 0.0586,0.0234 1.9976617,1.9976617 0 0 1 0.082,0.0371 1.9976617,1.9976617 0 0 1 0.0645,0.0312 1.9976617,1.9976617 0 0 1 0.008,0.004 1.9976617,1.9976617 0 0 1 0.0762,0.043 1.9976617,1.9976617 0 0 1 0.0195,0.01 1.9976617,1.9976617 0 0 1 0.0176,0.0117 1.9976617,1.9976617 0 0 1 0.14258,0.0957 1.9976617,1.9976617 0 0 1 0.0742,0.0566 1.9976617,1.9976617 0 0 1 0.0547,0.0449 1.9976617,1.9976617 0 0 1 0.0234,0.0215 1.9976617,1.9976617 0 0 1 0.0645,0.0586 1.9976617,1.9976617 0 0 1 0.0156,0.0176 1.9976617,1.9976617 0 0 1 0.0664,0.0684 1.9976617,1.9976617 0 0 1 0.01,0.0117 1.9976617,1.9976617 0 0 1 0.0664,0.0781 1.9976617,1.9976617 0 0 1 0.0566,0.0742 1.9976617,1.9976617 0 0 1 0.0156,0.0195 1.9976617,1.9976617 0 0 1 0.0273,0.041 1.9976617,1.9976617 0 0 1 0.0391,0.0586 1.9976617,1.9976617 0 0 1 0.0137,0.0234 1.9976617,1.9976617 0 0 1 0.0215,0.0371 1.9976617,1.9976617 0 0 1 0.043,0.0762 1.9976617,1.9976617 0 0 1 0.0352,0.0723 1.9976617,1.9976617 0 0 1 0.0371,0.082 1.9976617,1.9976617 0 0 1 0.0117,0.0254 1.9976617,1.9976617 0 0 1 0.0117,0.0332 1.9976617,1.9976617 0 0 1 0.0293,0.0801 1.9976617,1.9976617 0 0 1 0.01,0.0332 1.9976617,1.9976617 0 0 1 0.0234,0.0801 1.9976617,1.9976617 0 0 1 0.008,0.0293 1.9976617,1.9976617 0 0 1 0.0195,0.0859 1.9976617,1.9976617 0 0 1 0.002,0.0156 1.9976617,1.9976617 0 0 1 0.0117,0.0645 1.9976617,1.9976617 0 0 1 0.01,0.0645 1.9976617,1.9976617 0 0 1 0.01,0.0898 1.9976617,1.9976617 0 0 1 0,0.01 1.9976617,1.9976617 0 0 1 0.004,0.0606 1.9976617,1.9976617 0 0 1 0.004,0.0977 1.9976617,1.9976617 0 0 1 -0.004,0.0976 1.9976617,1.9976617 0 0 1 -0.004,0.0703 1.9976617,1.9976617 0 0 1 0,0.01 1.9976617,1.9976617 0 0 1 -0.01,0.0801 1.9976617,1.9976617 0 0 1 -0.01,0.0644 1.9976617,1.9976617 0 0 1 -0.0117,0.0645 1.9976617,1.9976617 0 0 1 -0.002,0.0156 1.9976617,1.9976617 0 0 1 -0.008,0.0332 1.9976617,1.9976617 0 0 1 -0.0195,0.082 1.9976617,1.9976617 0 0 1 -0.0195,0.0684 1.9976617,1.9976617 0 0 1 -0.004,0.008 1.9976617,1.9976617 0 0 1 -0.0801,0.21484 1.9976617,1.9976617 0 0 1 -0.0547,0.11328 1.9976617,1.9976617 0 0 1 -0.0547,0.0977 1.9976617,1.9976617 0 0 1 -0.0625,0.0996 1.9976617,1.9976617 0 0 1 -0.002,0.002 1.9976617,1.9976617 0 0 1 -1.65235,0.87695 1.9976617,1.9976617 0 0 1 -1.65234,-0.87695 1.9976617,1.9976617 0 0 1 -0.0644,-0.0996 1.9976617,1.9976617 0 0 1 -0.002,-0.002 1.9976617,1.9976617 0 0 1 -0.0547,-0.10156 1.9976617,1.9976617 0 0 1 -0.002,-0.002 1.9976617,1.9976617 0 0 1 -0.0508,-0.10547 1.9976617,1.9976617 0 0 1 -0.002,-0.002 1.9976617,1.9976617 0 0 1 -0.043,-0.10937 1.9976617,1.9976617 0 0 1 -0.002,-0.002 1.9976617,1.9976617 0 0 1 -0.0352,-0.10937 1.9976617,1.9976617 0 0 1 -0.0234,-0.084 1.9976617,1.9976617 0 0 1 -0.01,-0.0332 1.9976617,1.9976617 0 0 1 -0.006,-0.0234 1.9976617,1.9976617 0 0 1 -0.0312,-0.17773 1.9976617,1.9976617 0 0 1 -0.006,-0.0332 1.9976617,1.9976617 0 0 1 -0.01,-0.11524 1.9976617,1.9976617 0 0 1 0,-0.002 1.9976617,1.9976617 0 0 1 -0.004,-0.11719 1.9976617,1.9976617 0 0 1 0,-0.002 1.9976617,1.9976617 0 0 1 0.0137,-0.23633 1.9976617,1.9976617 0 0 1 0,-0.002 1.9976617,1.9976617 0 0 1 0.11132,-0.45899 1.9976617,1.9976617 0 0 1 0,-0.002 1.9976617,1.9976617 0 0 1 0.0449,-0.10938 1.9976617,1.9976617 0 0 1 0.10937,-0.21093 1.9976617,1.9976617 0 0 1 0.13281,-0.19727 1.9976617,1.9976617 0 0 1 0.15625,-0.17969 1.9976617,1.9976617 0 0 1 0.084,-0.082 1.9976617,1.9976617 0 0 1 0.0918,-0.0781 1.9976617,1.9976617 0 0 1 0.29492,-0.19727 1.9976617,1.9976617 0 0 1 0.21484,-0.10156 1.9976617,1.9976617 0 0 1 0.22461,-0.0742 1.9976617,1.9976617 0 0 1 0.11719,-0.0273 1.9976617,1.9976617 0 0 1 0.35351,-0.041 z m -45.3789,4.25781 a 1.9976617,1.9976617 0 0 1 0.0488,0 1.9976617,1.9976617 0 0 1 1.99804,1.99805 1.9976617,1.9976617 0 0 1 -1.99804,1.99805 1.9976617,1.9976617 0 0 1 -1.99805,-1.99805 1.9976617,1.9976617 0 0 1 1.94922,-1.99805 z m 84.029287,0.0899 a 1.9976617,1.9976617 0 0 1 0.0488,0 1.9976617,1.9976617 0 0 1 1.99805,1.99804 1.9976617,1.9976617 0 0 1 -1.99805,1.99805 1.9976617,1.9976617 0 0 1 -1.99804,-1.99805 1.9976617,1.9976617 0 0 1 1.94921,-1.99804 z m -32.82812,14.42383 a 1.9976617,1.9976617 0 0 1 0.0195,0 1.9976617,1.9976617 0 0 1 0.002,0 1.9976617,1.9976617 0 0 1 0.0469,0 1.9976617,1.9976617 0 0 1 0.0977,0.004 1.9976617,1.9976617 0 0 1 0.0215,0 1.9976617,1.9976617 0 0 1 0.0488,0.004 1.9976617,1.9976617 0 0 1 0.0684,0.006 1.9976617,1.9976617 0 0 1 0.0215,0.004 1.9976617,1.9976617 0 0 1 0.0644,0.01 1.9976617,1.9976617 0 0 1 0.0645,0.0117 1.9976617,1.9976617 0 0 1 0.084,0.0176 1.9976617,1.9976617 0 0 1 0.0176,0.004 1.9976617,1.9976617 0 0 1 0.0742,0.0215 1.9976617,1.9976617 0 0 1 0.0352,0.01 1.9976617,1.9976617 0 0 1 0.0996,0.0332 1.9976617,1.9976617 0 0 1 0.0137,0.006 1.9976617,1.9976617 0 0 1 0.0586,0.0234 1.9976617,1.9976617 0 0 1 0.082,0.0371 1.9976617,1.9976617 0 0 1 0.0644,0.0312 1.9976617,1.9976617 0 0 1 0.008,0.004 1.9976617,1.9976617 0 0 1 0.0762,0.043 1.9976617,1.9976617 0 0 1 0.0371,0.0215 1.9976617,1.9976617 0 0 1 0.14258,0.0957 1.9976617,1.9976617 0 0 1 0.0742,0.0566 1.9976617,1.9976617 0 0 1 0.0547,0.0449 1.9976617,1.9976617 0 0 1 0.0234,0.0215 1.9976617,1.9976617 0 0 1 0.0644,0.0586 1.9976617,1.9976617 0 0 1 0.0156,0.0176 1.9976617,1.9976617 0 0 1 0.0664,0.0684 1.9976617,1.9976617 0 0 1 0.01,0.0117 1.9976617,1.9976617 0 0 1 0.0664,0.0781 1.9976617,1.9976617 0 0 1 0.0566,0.0742 1.9976617,1.9976617 0 0 1 0.082,0.11915 1.9976617,1.9976617 0 0 1 0.0137,0.0234 1.9976617,1.9976617 0 0 1 0.0215,0.0371 1.9976617,1.9976617 0 0 1 0.043,0.0762 1.9976617,1.9976617 0 0 1 0.0352,0.0723 1.9976617,1.9976617 0 0 1 0.0371,0.082 1.9976617,1.9976617 0 0 1 0.0117,0.0254 1.9976617,1.9976617 0 0 1 0.0117,0.0332 1.9976617,1.9976617 0 0 1 0.0293,0.0801 1.9976617,1.9976617 0 0 1 0.01,0.0332 1.9976617,1.9976617 0 0 1 0.0234,0.0801 1.9976617,1.9976617 0 0 1 0.008,0.0293 1.9976617,1.9976617 0 0 1 0.0195,0.0859 1.9976617,1.9976617 0 0 1 0.002,0.0156 1.9976617,1.9976617 0 0 1 0.0117,0.0645 1.9976617,1.9976617 0 0 1 0.01,0.0644 1.9976617,1.9976617 0 0 1 0.01,0.0898 1.9976617,1.9976617 0 0 1 0,0.01 1.9976617,1.9976617 0 0 1 0.004,0.0606 1.9976617,1.9976617 0 0 1 0.004,0.0977 1.9976617,1.9976617 0 0 1 -0.004,0.0977 1.9976617,1.9976617 0 0 1 -0.004,0.0606 1.9976617,1.9976617 0 0 1 -0.002,0.0195 1.9976617,1.9976617 0 0 1 -0.008,0.0801 1.9976617,1.9976617 0 0 1 -0.01,0.0645 1.9976617,1.9976617 0 0 1 -0.0117,0.0644 1.9976617,1.9976617 0 0 1 -0.01,0.0488 1.9976617,1.9976617 0 0 1 -0.0117,0.0527 1.9976617,1.9976617 0 0 1 -0.0215,0.0742 1.9976617,1.9976617 0 0 1 -0.01,0.0352 1.9976617,1.9976617 0 0 1 -0.0254,0.0781 1.9976617,1.9976617 0 0 1 -0.0137,0.0352 1.9976617,1.9976617 0 0 1 -0.0234,0.0586 1.9976617,1.9976617 0 0 1 -0.0371,0.082 1.9976617,1.9976617 0 0 1 -0.0352,0.0723 1.9976617,1.9976617 0 0 1 -0.043,0.0762 1.9976617,1.9976617 0 0 1 -0.0215,0.0371 1.9976617,1.9976617 0 0 1 -0.0957,0.14258 1.9976617,1.9976617 0 0 1 -0.0566,0.0742 1.9976617,1.9976617 0 0 1 -0.0664,0.0781 1.9976617,1.9976617 0 0 1 -0.0273,0.0293 1.9976617,1.9976617 0 0 1 -0.0488,0.0508 1.9976617,1.9976617 0 0 1 -0.0508,0.0488 1.9976617,1.9976617 0 0 1 -0.0293,0.0273 1.9976617,1.9976617 0 0 1 -0.0781,0.0664 1.9976617,1.9976617 0 0 1 -0.0742,0.0566 1.9976617,1.9976617 0 0 1 -0.14258,0.0957 1.9976617,1.9976617 0 0 1 -0.0371,0.0215 1.9976617,1.9976617 0 0 1 -0.0762,0.043 1.9976617,1.9976617 0 0 1 -0.0723,0.0351 1.9976617,1.9976617 0 0 1 -0.082,0.0371 1.9976617,1.9976617 0 0 1 -0.0586,0.0234 1.9976617,1.9976617 0 0 1 -0.0352,0.0137 1.9976617,1.9976617 0 0 1 -0.0781,0.0254 1.9976617,1.9976617 0 0 1 -0.0352,0.01 1.9976617,1.9976617 0 0 1 -0.0742,0.0215 1.9976617,1.9976617 0 0 1 -0.0527,0.0117 1.9976617,1.9976617 0 0 1 -0.0488,0.01 1.9976617,1.9976617 0 0 1 -0.0645,0.0117 1.9976617,1.9976617 0 0 1 -0.0644,0.01 1.9976617,1.9976617 0 0 1 -0.0898,0.01 1.9976617,1.9976617 0 0 1 -0.01,0 1.9976617,1.9976617 0 0 1 -0.0391,0.004 1.9976617,1.9976617 0 0 1 -0.0215,0 1.9976617,1.9976617 0 0 1 -0.0977,0.004 1.9976617,1.9976617 0 0 1 -0.0977,-0.004 1.9976617,1.9976617 0 0 1 -0.0215,0 1.9976617,1.9976617 0 0 1 -0.13867,-0.0137 1.9976617,1.9976617 0 0 1 -0.0645,-0.01 1.9976617,1.9976617 0 0 1 -0.0644,-0.0117 1.9976617,1.9976617 0 0 1 -0.0488,-0.01 1.9976617,1.9976617 0 0 1 -0.0527,-0.0117 1.9976617,1.9976617 0 0 1 -0.0742,-0.0215 1.9976617,1.9976617 0 0 1 -0.0352,-0.01 1.9976617,1.9976617 0 0 1 -0.0781,-0.0254 1.9976617,1.9976617 0 0 1 -0.0352,-0.0137 1.9976617,1.9976617 0 0 1 -0.0586,-0.0234 1.9976617,1.9976617 0 0 1 -0.082,-0.0371 1.9976617,1.9976617 0 0 1 -0.0645,-0.0312 1.9976617,1.9976617 0 0 1 -0.008,-0.004 1.9976617,1.9976617 0 0 1 -0.0762,-0.043 1.9976617,1.9976617 0 0 1 -0.0371,-0.0215 1.9976617,1.9976617 0 0 1 -0.082,-0.0527 1.9976617,1.9976617 0 0 1 -0.041,-0.0273 1.9976617,1.9976617 0 0 1 -0.0195,-0.0156 1.9976617,1.9976617 0 0 1 -0.0742,-0.0566 1.9976617,1.9976617 0 0 1 -0.0547,-0.0449 1.9976617,1.9976617 0 0 1 -0.0234,-0.0215 1.9976617,1.9976617 0 0 1 -0.0293,-0.0273 1.9976617,1.9976617 0 0 1 -0.0508,-0.0488 1.9976617,1.9976617 0 0 1 -0.0488,-0.0508 1.9976617,1.9976617 0 0 1 -0.0273,-0.0293 1.9976617,1.9976617 0 0 1 -0.0664,-0.0781 1.9976617,1.9976617 0 0 1 -0.0566,-0.0742 1.9976617,1.9976617 0 0 1 -0.043,-0.0606 1.9976617,1.9976617 0 0 1 -0.0391,-0.0586 1.9976617,1.9976617 0 0 1 -0.0137,-0.0234 1.9976617,1.9976617 0 0 1 -0.0215,-0.0371 1.9976617,1.9976617 0 0 1 -0.043,-0.0762 1.9976617,1.9976617 0 0 1 -0.0351,-0.0723 1.9976617,1.9976617 0 0 1 -0.0371,-0.082 1.9976617,1.9976617 0 0 1 -0.0234,-0.0586 1.9976617,1.9976617 0 0 1 -0.0137,-0.0352 1.9976617,1.9976617 0 0 1 -0.0254,-0.0781 1.9976617,1.9976617 0 0 1 -0.01,-0.0352 1.9976617,1.9976617 0 0 1 -0.0215,-0.0742 1.9976617,1.9976617 0 0 1 -0.0117,-0.0527 1.9976617,1.9976617 0 0 1 -0.01,-0.0488 1.9976617,1.9976617 0 0 1 -0.0117,-0.0644 1.9976617,1.9976617 0 0 1 -0.01,-0.0645 1.9976617,1.9976617 0 0 1 -0.008,-0.0801 1.9976617,1.9976617 0 0 1 -0.002,-0.0195 1.9976617,1.9976617 0 0 1 -0.004,-0.0606 1.9976617,1.9976617 0 0 1 -0.004,-0.0977 1.9976617,1.9976617 0 0 1 0.004,-0.11914 1.9976617,1.9976617 0 0 1 0,-0.002 1.9976617,1.9976617 0 0 1 0.01,-0.11524 1.9976617,1.9976617 0 0 1 0,-0.004 1.9976617,1.9976617 0 0 1 0.0176,-0.11524 1.9976617,1.9976617 0 0 1 0,-0.002 1.9976617,1.9976617 0 0 1 0.0254,-0.11328 1.9976617,1.9976617 0 0 1 0,-0.002 1.9976617,1.9976617 0 0 1 0.0312,-0.11329 1.9976617,1.9976617 0 0 1 0,-0.002 1.9976617,1.9976617 0 0 1 0.0195,-0.0566 1.9976617,1.9976617 0 0 1 0.0195,-0.0566 1.9976617,1.9976617 0 0 1 0.043,-0.10742 1.9976617,1.9976617 0 0 1 0.002,-0.002 1.9976617,1.9976617 0 0 1 0.0488,-0.10547 1.9976617,1.9976617 0 0 1 0.002,-0.002 1.9976617,1.9976617 0 0 1 0.0566,-0.10156 1.9976617,1.9976617 0 0 1 0,-0.002 1.9976617,1.9976617 0 0 1 0.041,-0.0625 1.9976617,1.9976617 0 0 1 0.0234,-0.0371 1.9976617,1.9976617 0 0 1 0.0684,-0.0957 1.9976617,1.9976617 0 0 1 0.002,-0.002 1.9976617,1.9976617 0 0 1 0.0723,-0.0898 1.9976617,1.9976617 0 0 1 0.002,-0.002 1.9976617,1.9976617 0 0 1 0.16407,-0.16797 1.9976617,1.9976617 0 0 1 0.002,-0.002 1.9976617,1.9976617 0 0 1 0.18359,-0.14648 1.9976617,1.9976617 0 0 1 0.002,-0.002 1.9976617,1.9976617 0 0 1 0.0976,-0.0645 1.9976617,1.9976617 0 0 1 0.002,-0.002 1.9976617,1.9976617 0 0 1 0.041,-0.0234 1.9976617,1.9976617 0 0 1 0.11328,-0.0625 1.9976617,1.9976617 0 0 1 0.0508,-0.0254 1.9976617,1.9976617 0 0 1 0.002,-0.002 1.9976617,1.9976617 0 0 1 0.0605,-0.0254 1.9976617,1.9976617 0 0 1 0.20703,-0.0762 1.9976617,1.9976617 0 0 1 0.0645,-0.0195 1.9976617,1.9976617 0 0 1 0.004,-0.002 1.9976617,1.9976617 0 0 1 0.21094,-0.043 1.9976617,1.9976617 0 0 1 0.23633,-0.0234 z m 72.89062,0.375 c 0.1009,-0.0267 0.22842,0.0477 0.26172,0.17382 l 0.85938,3.25391 c 0.0567,0.21443 0.0269,0.35837 -0.0918,0.4707 l -3.24023,2.85157 c -0.30057,0.24133 -1.2848,1.01349 -1.64844,1.27148 l 0.0195,0.0762 c 0.97979,-0.32632 1.76956,-0.1973 3.65039,0.12891 l 2.51172,0.56445 c 0.17135,0.0357 0.26199,0.17498 0.30859,0.35156 l 0.90235,3.41797 c 0.0367,0.13876 -0.0651,0.26041 -0.16602,0.28711 -0.0631,0.0164 -0.14249,0.0235 -0.18359,0.0215 l -8.90625,-2.25 c -0.0731,-0.021 -0.14608,-0.041 -0.23438,-0.0176 -0.0883,0.0233 -0.13887,0.0897 -0.20117,0.16015 l -6.25,6.06446 c -0.0623,0.0704 -0.0971,0.0927 -0.16015,0.10937 -0.13875,0.0367 -0.23856,-0.0851 -0.28516,-0.26172 l -0.87305,-3.30468 c -0.0733,-0.27749 0.006,-0.43432 0.16211,-0.55664 l 3.2793,-2.8086 c 0.30057,-0.24133 1.1305,-0.93341 1.49414,-1.1914 l -0.0195,-0.0762 c -0.71895,0.18994 -2.04075,0.0942 -3.50391,-0.23437 l -2.53516,-0.5586 c -0.19991,-0.0416 -0.35052,-0.15024 -0.42382,-0.42773 l -0.85938,-3.25391 c -0.0533,-0.20182 -0.0138,-0.30705 0.125,-0.34375 0.0631,-0.0164 0.14565,-0.0114 0.21875,0.01 l 8.99414,2.2793 c 0.10163,0.027 0.18114,0.0206 0.24414,0.004 0.0883,-0.0233 0.14417,-0.0666 0.19727,-0.12109 l 6.18555,-6.00586 c 0.0312,-0.0352 0.0923,-0.064 0.16796,-0.084 z m -158.896477,6.07031 c 0.0399,0.003 0.0752,0.0244 0.10938,0.0547 0.0342,0.0302 0.068,0.0725 0.10351,0.12304 0.071,0.10097 0.14762,0.23932 0.22852,0.40625 0.1618,0.33386 0.34157,0.77657 0.51757,1.22656 0.17601,0.44999 0.34971,0.90714 0.49805,1.26758 0.0742,0.18022 0.14232,0.33676 0.20117,0.45508 0.0589,0.11832 0.11162,0.19986 0.13868,0.22266 0.027,0.0228 0.11751,0.0618 0.24414,0.0996 0.12662,0.0378 0.29218,0.0788 0.48242,0.12109 0.38048,0.0846 0.86055,0.17684 1.33398,0.27344 0.47343,0.0966 0.9403,0.19833 1.29688,0.30078 0.17829,0.0512 0.32784,0.1016 0.43945,0.1543 0.0558,0.0264 0.10299,0.0535 0.13867,0.082 0.0357,0.0285 0.0627,0.0589 0.0723,0.0976 0.01,0.0388 -0.001,0.0792 -0.0195,0.1211 -0.0182,0.0419 -0.045,0.0873 -0.082,0.13672 -0.0741,0.0987 -0.1846,0.21327 -0.31836,0.34179 -0.26752,0.25706 -0.63228,0.56465 -1.00586,0.8711 -0.37358,0.30644 -0.75578,0.61276 -1.05274,0.86523 -0.14848,0.12623 -0.2748,0.23953 -0.36914,0.33203 -0.0943,0.0925 -0.15662,0.16837 -0.16992,0.20117 -0.0134,0.0328 -0.0227,0.12962 -0.0195,0.26172 0.003,0.13211 0.0166,0.30209 0.0351,0.4961 0.0371,0.38801 0.0979,0.87339 0.15235,1.35351 0.0544,0.48011 0.10247,0.95539 0.11523,1.32617 0.006,0.1854 0.004,0.34436 -0.0117,0.4668 -0.008,0.0612 -0.0191,0.11355 -0.0352,0.15625 -0.0161,0.0427 -0.0383,0.0785 -0.0723,0.0996 -0.0339,0.0211 -0.0737,0.0235 -0.11914,0.0195 -0.0454,-0.004 -0.0979,-0.0171 -0.15625,-0.0371 -0.11679,-0.04 -0.26026,-0.10781 -0.42383,-0.19531 -0.32714,-0.17499 -0.73178,-0.42885 -1.13867,-0.68945 -0.40689,-0.2606 -0.81656,-0.52802 -1.14844,-0.73243 -0.16593,-0.1022 -0.31253,-0.1889 -0.42968,-0.25 -0.11716,-0.0611 -0.20886,-0.0947 -0.24414,-0.0977 -0.0353,-0.002 -0.13121,0.0186 -0.25586,0.0625 -0.12466,0.0439 -0.28216,0.10795 -0.46094,0.18555 -0.35757,0.15516 -0.79848,0.36238 -1.23828,0.5625 -0.43981,0.20011 -0.87787,0.39282 -1.22656,0.51953 -0.17435,0.0634 -0.32599,0.10981 -0.44727,0.13281 -0.0606,0.0119 -0.11454,0.0176 -0.16016,0.0156 -0.0456,-0.002 -0.0847,-0.0114 -0.11523,-0.0371 -0.0306,-0.0257 -0.0468,-0.0628 -0.0566,-0.10742 -0.01,-0.0446 -0.0127,-0.0984 -0.0117,-0.16015 0.002,-0.12342 0.022,-0.28225 0.0547,-0.46485 0.0653,-0.36521 0.18063,-0.82741 0.30273,-1.29492 0.12211,-0.46751 0.24995,-0.93956 0.3418,-1.31836 0.0459,-0.1894 0.0835,-0.35602 0.10547,-0.48633 0.0219,-0.13031 0.0261,-0.22742 0.0176,-0.26172 -0.009,-0.0343 -0.0584,-0.1196 -0.13868,-0.2246 -0.0802,-0.105 -0.18933,-0.2348 -0.31836,-0.38086 -0.25806,-0.29212 -0.59369,-0.64942 -0.91992,-1.00586 -0.32622,-0.35644 -0.64283,-0.71144 -0.87109,-1.00391 -0.11413,-0.14624 -0.20632,-0.27652 -0.26563,-0.38477 -0.0297,-0.0541 -0.0523,-0.10248 -0.0645,-0.14648 -0.0121,-0.044 -0.015,-0.0861 0,-0.12305 0.015,-0.0371 0.0466,-0.0628 0.0859,-0.0859 0.0394,-0.0232 0.0875,-0.0423 0.14648,-0.0606 0.11797,-0.0364 0.27523,-0.0664 0.45899,-0.0918 0.36752,-0.0508 0.84381,-0.085 1.32617,-0.11328 0.48236,-0.0283 0.97073,-0.0504 1.35937,-0.0801 0.19433,-0.0148 0.36343,-0.0314 0.49414,-0.0508 0.13072,-0.0194 0.22584,-0.0457 0.25586,-0.0645 0.03,-0.0187 0.0949,-0.0924 0.16993,-0.20117 0.0751,-0.10875 0.16463,-0.25403 0.26367,-0.42188 0.19807,-0.33569 0.43369,-0.76318 0.67187,-1.18359 0.23819,-0.42041 0.47793,-0.83316 0.68555,-1.14063 0.10381,-0.15374 0.20053,-0.28129 0.28516,-0.37109 0.0423,-0.0449 0.081,-0.0804 0.11914,-0.10547 0.0381,-0.0251 0.0754,-0.0421 0.11523,-0.0391 z m 86.023437,0.60547 a 3.1962568,3.1962568 0 0 0 -3.17383,3.21679 l 0.0176,2.82422 -6.160157,3.90625 h -23.0664 a 3.1962568,3.1962568 0 0 0 -3.19532,3.19531 3.1962568,3.1962568 0 0 0 3.19532,3.19727 h 23.99414 a 3.1965764,3.1965764 0 0 0 1.71093,-0.49805 l 8.441407,-5.35156 a 3.1965764,3.1965764 0 0 0 1.48633,-2.71875 l -0.0332,-4.5957 a 3.1962568,3.1962568 0 0 0 -3.21679,-3.17578 z m -0.0195,1.22851 a 1.9976617,1.9976617 0 0 1 0.0488,0 1.9976617,1.9976617 0 0 1 1.99805,1.99805 1.9976617,1.9976617 0 0 1 -1.99805,1.99805 1.9976617,1.9976617 0 0 1 -1.99804,-1.99805 1.9976617,1.9976617 0 0 1 1.94922,-1.99805 z m -32.400387,9.8418 a 1.9976617,1.9976617 0 0 1 0.002,0 1.9976617,1.9976617 0 0 1 0.0469,0 1.9976617,1.9976617 0 0 1 1.99805,1.99805 1.9976617,1.9976617 0 0 1 -1.99805,1.99609 1.9976617,1.9976617 0 0 1 -1.99804,-1.99609 1.9976617,1.9976617 0 0 1 1.94922,-1.99805 z m 109.365227,1.63281 c 0.27385,-0.008 0.44708,0.15584 0.45508,0.42969 l 0.084,2.76367 c 0.008,0.27384 -0.15587,0.44903 -0.42968,0.45703 l -5.69922,0.16992 c -0.27385,0.008 -0.43769,0.18319 -0.42969,0.45704 l 0.14062,4.75977 c 0.008,0.27385 0.1832,0.43768 0.45703,0.42968 l 5.69922,-0.16992 c 0.27385,-0.008 0.44903,0.15585 0.45704,0.42969 l 0.082,2.76562 c 0.008,0.27385 -0.15585,0.44902 -0.42969,0.45704 l -16,0.47656 c -0.27384,0.008 -0.44903,-0.15584 -0.45703,-0.42969 l -0.082,-2.76367 c -0.008,-0.27384 0.15584,-0.44903 0.42968,-0.45703 l 6.08985,-0.18164 c 0.27384,-0.008 0.43769,-0.1832 0.42969,-0.45703 l -0.14258,-4.75978 c -0.008,-0.27384 -0.18319,-0.43768 -0.45703,-0.42968 l -6.08985,0.18164 c -0.27385,0.008 -0.44708,-0.15585 -0.45508,-0.42969 l -0.084,-2.76562 c -0.008,-0.27385 0.1578,-0.44904 0.43164,-0.45704 z m -109.328117,7.01173 a 3.1962568,3.1962568 0 0 0 -3.19532,3.19726 3.1962568,3.1962568 0 0 0 3.19532,3.19727 h 45.294917 a 3.1962568,3.1962568 0 0 0 3.19531,-3.19727 3.1962568,3.1962568 0 0 0 -3.19531,-3.19726 z m 0.0273,1.19726 a 1.9976617,1.9976617 0 0 1 0.0469,0 1.9976617,1.9976617 0 0 1 1.99805,1.99805 1.9976617,1.9976617 0 0 1 -1.99805,1.99609 1.9976617,1.9976617 0 0 1 -1.99609,-1.99609 1.9976617,1.9976617 0 0 1 1.94922,-1.99805 z m 45.134757,0 a 1.9976617,1.9976617 0 0 1 0.0488,0 1.9976617,1.9976617 0 0 1 1.99805,1.99805 1.9976617,1.9976617 0 0 1 -1.99805,1.99804 1.9976617,1.9976617 0 0 1 -1.99804,-1.99804 1.9976617,1.9976617 0 0 1 1.94921,-1.99805 z m 48.15625,7.93359 c 0.0639,0.0132 0.17383,0.0628 0.23243,0.10157 0.0357,0.0207 14.86914,7.96093 14.86914,7.96093 0.16826,0.0882 0.22339,0.27324 0.18359,0.46485 l -0.80273,3.87109 c -0.0398,0.19161 -0.16408,0.33952 -0.35352,0.35352 l -16.91406,1.38086 c -0.0819,0.009 -0.10819,0.004 -0.14649,-0.004 -0.12831,-0.0265 -0.17261,-0.13067 -0.13281,-0.32226 l 0.6582,-3.16797 c 0.0292,-0.14051 0.11042,-0.21672 0.2461,-0.22852 l 2.38672,-0.13086 c 0.13564,-0.0118 0.17309,-0.0701 0.21289,-0.26172 l 1.02148,-4.91797 c 0.0424,-0.20438 0.026,-0.25938 -0.0937,-0.32422 l -2.13672,-1.07031 c -0.11981,-0.0648 -0.16322,-0.16718 -0.13672,-0.29492 l 0.6543,-3.15625 c 0.0398,-0.19165 0.12421,-0.28041 0.25195,-0.25391 z m -93.318347,0.71094 a 3.1962568,3.1962568 0 0 0 -3.19532,3.19531 3.1962568,3.1962568 0 0 0 3.19532,3.19532 H 116.6578 a 3.1962568,3.1962568 0 0 0 3.19531,-3.19532 3.1962568,3.1962568 0 0 0 -3.19531,-3.19531 z m -50.85743,0.35742 c 0.0768,-0.0154 0.11638,-0.0229 0.40039,0 2.32582,0.18543 4.27833,2.0945 4.78125,4.60157 l 0.0586,0.29492 c 0.73129,3.64548 -0.89344,6.22008 -3.51563,6.74609 -1.59889,0.32074 -2.97586,-0.10802 -3.70312,-1.21289 -0.0947,-0.14067 -0.15977,-0.12749 -0.21094,-0.11719 -0.0767,0.0154 -0.1178,0.0769 -0.14844,0.18946 -0.31387,1.42017 -1.43227,2.46939 -3.17187,2.81836 -2.86522,0.57477 -5.41079,-1.09828 -6.15235,-4.79493 l -0.0527,-0.26757 c -0.50292,-2.50706 0.50963,-5.27954 2.58398,-6.34766 0.25322,-0.13061 0.29239,-0.13694 0.36914,-0.15234 0.11513,-0.0231 0.23054,0.0189 0.3125,0.16211 l 1.31055,2.16015 c 0.0384,0.0588 0.0679,0.1324 0.0781,0.1836 0.0308,0.1535 -0.0358,0.35263 -0.21485,0.45507 -0.80056,0.45332 -1.4298,1.63017 -1.17578,2.89649 l 0.0566,0.28125 c 0.29252,1.45819 1.37086,2.18819 2.44531,1.97265 1.17679,-0.23606 1.74159,-1.40125 1.51563,-2.79296 l -0.26758,-1.66211 c -0.0411,-0.27118 0.079,-0.46954 0.34766,-0.52344 l 1.8789,-0.37695 c 0.26862,-0.0539 0.45677,0.0816 0.52344,0.34765 l 0.39453,1.63867 c 0.33342,1.39676 1.10895,2.0781 2.20899,1.85743 0.95933,-0.19245 1.64178,-1.23334 1.32617,-2.80664 l -0.0586,-0.29493 c -0.21554,-1.07446 -1.14031,-1.83406 -2.14844,-1.95117 -0.2047,-0.0255 -0.34226,-0.18439 -0.37305,-0.33789 -0.0103,-0.0512 -0.0153,-0.14292 0,-0.19922 l 0.37695,-2.49609 c 0.0204,-0.16375 0.10949,-0.24839 0.22461,-0.27149 z m 50.88477,0.79102 a 1.9976617,1.9976617 0 0 1 0.0469,0 1.9976617,1.9976617 0 0 1 1.99805,1.99805 1.9976617,1.9976617 0 0 1 -1.99805,1.99609 1.9976617,1.9976617 0 0 1 -1.99609,-1.99609 1.9976617,1.9976617 0 0 1 1.94922,-1.99805 z m 45.134757,0 a 1.9976617,1.9976617 0 0 1 0.0488,0 1.9976617,1.9976617 0 0 1 1.99805,1.99805 1.9976617,1.9976617 0 0 1 -1.99805,1.99804 1.9976617,1.9976617 0 0 1 -1.99804,-1.99804 1.9976617,1.9976617 0 0 1 1.94921,-1.99805 z m 52.88868,4.62891 c -0.10141,-0.008 -0.17517,0.06 -0.21094,0.23242 l -0.62305,3.00195 c -0.0477,0.22991 0.0389,0.32822 0.21289,0.32422 l 5.82227,-0.32422 0.53711,0.0449 0.0937,-0.44726 -0.51172,-0.17188 -5.21094,-2.62695 c -0.0395,-0.0182 -0.0756,-0.0306 -0.10937,-0.0332 z m -98.050777,0.82031 a 3.1962568,3.1962568 0 0 0 -3.19532,3.19726 3.1962568,3.1962568 0 0 0 3.19532,3.19727 H 116.6578 a 3.1962568,3.1962568 0 0 0 3.19531,-3.19727 3.1962568,3.1962568 0 0 0 -3.19531,-3.19726 z m 0.0273,1.17773 a 1.9976617,1.9976617 0 0 1 0.0469,0 1.9976617,1.9976617 0 0 1 1.99805,1.99805 1.9976617,1.9976617 0 0 1 -1.99805,1.99805 1.9976617,1.9976617 0 0 1 -1.99609,-1.99805 1.9976617,1.9976617 0 0 1 1.94922,-1.99805 z m 45.134757,0 a 1.9976617,1.9976617 0 0 1 0.0488,0 1.9976617,1.9976617 0 0 1 1.99805,1.99805 1.9976617,1.9976617 0 0 1 -1.99805,1.99805 1.9976617,1.9976617 0 0 1 -1.99804,-1.99805 1.9976617,1.9976617 0 0 1 1.94921,-1.99805 z m -45.162097,5.42188 a 3.1962568,3.1962568 0 0 0 -3.19532,3.19726 3.1962568,3.1962568 0 0 0 3.19532,3.19532 h 45.294917 a 3.1962568,3.1962568 0 0 0 3.19531,-3.19532 3.1962568,3.1962568 0 0 0 -3.19531,-3.19726 z m -44.08594,0.97461 c 0.17394,-0.008 0.31992,0.0883 0.40039,0.27734 l 2.70703,6.36328 c 1.39985,3.2891 0.34805,5.84882 -2.54492,7.08008 l -6.01367,2.55859 c -2.89297,1.23126 -5.47245,0.2029 -6.86719,-3.07422 l -2.70703,-6.36132 c -0.10729,-0.25207 -0.0177,-0.47475 0.23437,-0.58203 l 14.60938,-6.21875 c 0.063,-0.0268 0.12365,-0.0402 0.18164,-0.043 z m 44.11328,0.26367 a 1.9976617,1.9976617 0 0 1 0.0469,0 1.9976617,1.9976617 0 0 1 1.99805,1.99609 1.9976617,1.9976617 0 0 1 -1.99805,1.99805 1.9976617,1.9976617 0 0 1 -1.99609,-1.99805 1.9976617,1.9976617 0 0 1 1.94922,-1.99609 z m 45.134757,0 a 1.9976617,1.9976617 0 0 1 0.0488,0 1.9976617,1.9976617 0 0 1 1.99805,1.99805 1.9976617,1.9976617 0 0 1 -1.99805,1.99804 1.9976617,1.9976617 0 0 1 -1.99804,-1.99804 1.9976617,1.9976617 0 0 1 1.94921,-1.99805 z m 44.08204,1.45508 c 0.058,9.6e-4 0.11978,0.0142 0.18359,0.0391 l 14.91406,5.81445 c 0.25508,0.0995 0.35146,0.32093 0.25195,0.57617 l -1.0039,2.57618 c -0.0995,0.25509 -0.31899,0.35155 -0.57422,0.25195 l -14.91406,-5.81641 c -0.25509,-0.0995 -0.35146,-0.31897 -0.25196,-0.57422 l 1.00391,-2.57617 c 0.0747,-0.19131 0.21651,-0.29391 0.39063,-0.29101 z m -134.960937,2.94531 c -0.058,0.003 -0.11862,0.0162 -0.18164,0.043 l -8.48633,3.61328 c -0.25208,0.10729 -0.34166,0.32799 -0.23438,0.58008 l 1.29102,3.03711 c 0.40361,0.94834 1.34099,1.41668 2.36133,0.98242 l 5.97656,-2.54492 c 1.02034,-0.43426 1.37041,-1.44817 0.9668,-2.39649 l -1.29297,-3.03711 c -0.0805,-0.18909 -0.22644,-0.28559 -0.40039,-0.27734 z m 45.7168,0.96094 a 3.1962568,3.1962568 0 0 0 -3.19532,3.19726 3.1962568,3.1962568 0 0 0 3.19532,3.19531 h 45.294917 a 3.1962568,3.1962568 0 0 0 3.19531,-3.19531 3.1962568,3.1962568 0 0 0 -3.19531,-3.19726 z m 0.0273,1.25 a 1.9976617,1.9976617 0 0 1 0.0469,0 1.9976617,1.9976617 0 0 1 1.99805,1.99804 1.9976617,1.9976617 0 0 1 -1.99805,1.99805 1.9976617,1.9976617 0 0 1 -1.99609,-1.99805 1.9976617,1.9976617 0 0 1 1.94922,-1.99804 z m 45.134757,0.002 a 1.9976617,1.9976617 0 0 1 0.0488,0 1.9976617,1.9976617 0 0 1 1.99805,1.99609 1.9976617,1.9976617 0 0 1 -1.99805,1.99805 1.9976617,1.9976617 0 0 1 -1.99804,-1.99805 1.9976617,1.9976617 0 0 1 1.94921,-1.99609 z m 41.22071,2.21094 c 0.057,0.011 0.11528,0.0328 0.17383,0.0684 l 13.68359,8.30859 c 0.23415,0.14218 0.29062,0.3752 0.14844,0.60938 l -1.32617,2.18554 c -0.088,0.14501 -0.21059,0.22252 -0.35157,0.22852 l -10.41992,-0.23633 c -0.60855,-0.003 -1.41584,-0.0816 -1.58789,-0.125 l -0.0527,0.0898 c 1.21952,0.40464 3.12853,1.30526 4.38867,2.07032 l 4.58398,2.7832 c 0.23415,0.14218 0.29063,0.37519 0.14844,0.60937 l -1.43555,2.36329 c -0.14218,0.23415 -0.37519,0.29062 -0.60937,0.14843 l -13.68164,-8.30664 c -0.23416,-0.14218 -0.29257,-0.37519 -0.15039,-0.60937 l 1.31445,-2.16406 c 0.088,-0.14503 0.19288,-0.21661 0.38086,-0.22461 l 10.16211,0.004 c 0.64201,0.0235 1.22102,0.0999 1.26562,0.12695 l 0.0547,-0.0898 c -0.74397,-0.20749 -2.38875,-0.99201 -3.84961,-1.8789 l -4.56055,-2.76954 c -0.23416,-0.14219 -0.29061,-0.37518 -0.14843,-0.60937 l 1.43359,-2.36328 c 0.10664,-0.17563 0.26456,-0.25173 0.43555,-0.21875 z m -105.595707,6.375 a 3.1962568,3.1962568 0 0 0 -3.19726,3.19531 3.1962568,3.1962568 0 0 0 3.19726,3.19727 h 84.179687 a 3.1962568,3.1962568 0 0 0 3.19531,-3.19727 3.1962568,3.1962568 0 0 0 -3.19531,-3.19531 z m 0.0117,1.14258 a 1.9976617,1.9976617 0 0 1 0.002,0 1.9976617,1.9976617 0 0 1 0.0469,0 1.9976617,1.9976617 0 0 1 1.99805,1.99804 1.9976617,1.9976617 0 0 1 -1.99805,1.9961 1.9976617,1.9976617 0 0 1 -1.99805,-1.9961 1.9976617,1.9976617 0 0 1 1.94922,-1.99804 z m 84.029297,0.0273 a 1.9976617,1.9976617 0 0 1 0.0488,0 1.9976617,1.9976617 0 0 1 1.99805,1.99805 1.9976617,1.9976617 0 0 1 -1.99805,1.99804 1.9976617,1.9976617 0 0 1 -1.99805,-1.99804 1.9976617,1.9976617 0 0 1 1.94922,-1.99805 z m -108.039057,0.61328 c 0.10613,0.022 0.20216,0.0925 0.27734,0.20703 l 3.83789,5.84375 c 0.15036,0.22902 0.10207,0.46488 -0.12695,0.61524 l -2.03906,1.33789 c -0.22902,0.15036 -0.46488,0.10206 -0.61524,-0.12696 l -3.83789,-5.8457 c -0.15036,-0.22902 -0.10011,-0.46292 0.12891,-0.61328 l 2.03906,-1.33984 c 0.11451,-0.0752 0.2298,-0.10014 0.33594,-0.0781 z m 11.78125,5.23828 c 0.1083,0.004 0.21578,0.0575 0.30859,0.1582 l 1.87305,2.03321 c 0.18562,0.2015 0.1761,0.44133 -0.0254,0.62695 l -9.32617,8.5918 c -0.2015,0.18563 -0.21102,0.42545 -0.0254,0.62695 l 4.10937,4.46289 c 0.18563,0.2015 0.1761,0.43937 -0.0254,0.625 l -1.79492,1.6543 c -0.2015,0.18593 -0.44133,0.17607 -0.62696,-0.0254 l -6.58398,-7.14844 c -0.18563,-0.2015 -0.1761,-0.44132 0.0254,-0.62695 l 11.77344,-10.84571 c 0.10075,-0.0928 0.21005,-0.13725 0.31836,-0.13281 z m 54.87304,0.37305 0.004,0.002 a 3.1962568,3.1962568 0 0 0 -0.11523,0.004 3.1962568,3.1962568 0 0 0 -0.10157,0.006 3.1962568,3.1962568 0 0 0 -0.16211,0.0156 3.1962568,3.1962568 0 0 0 -0.25976,0.043 3.1962568,3.1962568 0 0 0 -0.0176,0.002 3.1962568,3.1962568 0 0 0 -0.11133,0.0274 3.1962568,3.1962568 0 0 0 -0.12695,0.0351 3.1962568,3.1962568 0 0 0 -0.0723,0.0234 3.1962568,3.1962568 0 0 0 -0.0664,0.0195 3.1962568,3.1962568 0 0 0 -0.0391,0.0156 3.1962568,3.1962568 0 0 0 -0.082,0.0312 3.1962568,3.1962568 0 0 0 -0.0137,0.006 3.1962568,3.1962568 0 0 0 -0.11328,0.0469 3.1962568,3.1962568 0 0 0 -0.10351,0.0488 3.1962568,3.1962568 0 0 0 -0.0664,0.0332 3.1962568,3.1962568 0 0 0 -0.0508,0.0274 3.1962568,3.1962568 0 0 0 -0.0156,0.008 3.1962568,3.1962568 0 0 0 -0.11523,0.0644 3.1962568,3.1962568 0 0 0 -0.10547,0.0684 3.1962568,3.1962568 0 0 0 -0.0488,0.0332 3.1962568,3.1962568 0 0 0 -0.0566,0.0371 3.1962568,3.1962568 0 0 0 -0.0566,0.043 3.1962568,3.1962568 0 0 0 -0.0508,0.0371 3.1962568,3.1962568 0 0 0 -0.0566,0.0488 3.1962568,3.1962568 0 0 0 -0.0508,0.041 3.1962568,3.1962568 0 0 0 -0.002,0.002 3.1962568,3.1962568 0 0 0 -0.0879,0.0762 3.1962568,3.1962568 0 0 0 -0.0703,0.0684 3.1962568,3.1962568 0 0 0 -0.0273,0.0273 3.1962568,3.1962568 0 0 0 -0.043,0.043 3.1962568,3.1962568 0 0 0 -0.0449,0.0488 3.1962568,3.1962568 0 0 0 -0.0117,0.0117 3.1962568,3.1962568 0 0 0 -0.0762,0.0859 3.1962568,3.1962568 0 0 0 -0.01,0.0137 3.1962568,3.1962568 0 0 0 -0.0781,0.0957 3.1962568,3.1962568 0 0 0 -0.0137,0.0176 3.1962568,3.1962568 0 0 0 -0.0703,0.0957 3.1962568,3.1962568 0 0 0 -0.0664,0.0996 3.1962568,3.1962568 0 0 0 -0.0195,0.0274 3.1962568,3.1962568 0 0 0 -0.0566,0.0937 3.1962568,3.1962568 0 0 0 -0.0566,0.0996 3.1962568,3.1962568 0 0 0 -0.008,0.0137 3.1962568,3.1962568 0 0 0 -0.0547,0.10742 3.1962568,3.1962568 0 0 0 -0.006,0.0117 3.1962568,3.1962568 0 0 0 -0.0488,0.10547 3.1962568,3.1962568 0 0 0 -0.0469,0.11133 3.1962568,3.1962568 0 0 0 -0.006,0.0117 3.1962568,3.1962568 0 0 0 -0.004,0.0137 3.1962568,3.1962568 0 0 0 -0.0391,0.10742 3.1962568,3.1962568 0 0 0 -0.0234,0.0703 3.1962568,3.1962568 0 0 0 -0.0215,0.0703 3.1962568,3.1962568 0 0 0 0,0.002 3.1962568,3.1962568 0 0 0 -0.0312,0.11132 3.1962568,3.1962568 0 0 0 -0.004,0.0156 3.1962568,3.1962568 0 0 0 -0.0254,0.11133 3.1962568,3.1962568 0 0 0 -0.0137,0.0664 3.1962568,3.1962568 0 0 0 -0.0234,0.15625 3.1962568,3.1962568 0 0 0 -0.008,0.0391 3.1962568,3.1962568 0 0 0 -0.0117,0.11914 3.1962568,3.1962568 0 0 0 -0.002,0.0176 3.1962568,3.1962568 0 0 0 0,0.0117 3.1962568,3.1962568 0 0 0 -0.008,0.11524 3.1962568,3.1962568 0 0 0 -0.004,0.11133 3.1962568,3.1962568 0 0 0 0,0.0254 3.1962568,3.1962568 0 0 0 0,0.004 3.1962568,3.1962568 0 0 0 0,0.0117 l 0.10156,18.89063 a 3.1965764,3.1965764 0 0 0 2.70508,3.14062 3.1965764,3.1965764 0 0 0 0.29883,0.0332 3.1965764,3.1965764 0 0 0 0.19336,0.006 h 27.347647 8.28907 a 3.1965764,3.1965764 0 0 0 3.19726,-3.21484 l -0.10351,-18.86523 a 3.1962568,3.1962568 0 0 0 0,-0.006 3.1962568,3.1962568 0 0 0 0,-0.0176 3.1962568,3.1962568 0 0 0 0,-0.0156 3.1962568,3.1962568 0 0 0 -0.002,-0.11718 3.1962568,3.1962568 0 0 0 -0.008,-0.11328 3.1962568,3.1962568 0 0 0 -0.002,-0.0176 3.1962568,3.1962568 0 0 0 -0.0117,-0.11328 3.1962568,3.1962568 0 0 0 -0.0449,-0.25977 3.1962568,3.1962568 0 0 0 -0.002,-0.0176 3.1962568,3.1962568 0 0 0 -0.0273,-0.11328 3.1962568,3.1962568 0 0 0 -0.0352,-0.12695 3.1962568,3.1962568 0 0 0 -0.006,-0.0156 3.1962568,3.1962568 0 0 0 -0.0117,-0.0391 3.1962568,3.1962568 0 0 0 -0.0273,-0.0859 3.1962568,3.1962568 0 0 0 -0.0273,-0.0723 3.1962568,3.1962568 0 0 0 -0.0195,-0.0527 3.1962568,3.1962568 0 0 0 -0.0176,-0.041 3.1962568,3.1962568 0 0 0 -0.0332,-0.0801 3.1962568,3.1962568 0 0 0 -0.0488,-0.10547 3.1962568,3.1962568 0 0 0 -0.008,-0.0137 3.1962568,3.1962568 0 0 0 -0.0527,-0.10352 3.1962568,3.1962568 0 0 0 -0.008,-0.0137 3.1962568,3.1962568 0 0 0 -0.0586,-0.0996 3.1962568,3.1962568 0 0 0 -0.008,-0.0156 3.1962568,3.1962568 0 0 0 -0.0625,-0.0957 3.1962568,3.1962568 0 0 0 -0.008,-0.0156 3.1962568,3.1962568 0 0 0 -0.0644,-0.0937 3.1962568,3.1962568 0 0 0 -0.0117,-0.0137 3.1962568,3.1962568 0 0 0 -0.0684,-0.0918 3.1962568,3.1962568 0 0 0 -0.01,-0.0137 3.1962568,3.1962568 0 0 0 -0.0742,-0.0899 3.1962568,3.1962568 0 0 0 -0.01,-0.0137 3.1962568,3.1962568 0 0 0 -0.0762,-0.0859 3.1962568,3.1962568 0 0 0 -0.0117,-0.0117 3.1962568,3.1962568 0 0 0 -0.0801,-0.082 3.1962568,3.1962568 0 0 0 -0.0117,-0.0117 3.1962568,3.1962568 0 0 0 -0.084,-0.0801 3.1962568,3.1962568 0 0 0 -0.0117,-0.0117 3.1962568,3.1962568 0 0 0 -0.0859,-0.0762 3.1962568,3.1962568 0 0 0 -0.0137,-0.01 3.1962568,3.1962568 0 0 0 -0.0898,-0.0723 3.1962568,3.1962568 0 0 0 -0.0137,-0.0117 3.1962568,3.1962568 0 0 0 -0.0117,-0.008 3.1962568,3.1962568 0 0 0 -0.0937,-0.0703 3.1962568,3.1962568 0 0 0 -0.0469,-0.0312 3.1962568,3.1962568 0 0 0 -0.0488,-0.0332 3.1962568,3.1962568 0 0 0 -0.10156,-0.0644 3.1962568,3.1962568 0 0 0 -0.01,-0.006 3.1962568,3.1962568 0 0 0 -0.0156,-0.01 3.1962568,3.1962568 0 0 0 -0.0977,-0.0547 3.1962568,3.1962568 0 0 0 -0.11719,-0.0605 3.1962568,3.1962568 0 0 0 -0.0156,-0.008 3.1962568,3.1962568 0 0 0 -0.10547,-0.0488 3.1962568,3.1962568 0 0 0 -0.11328,-0.0469 3.1962568,3.1962568 0 0 0 -0.01,-0.004 3.1962568,3.1962568 0 0 0 -0.0137,-0.008 3.1962568,3.1962568 0 0 0 -0.10937,-0.0391 3.1962568,3.1962568 0 0 0 -0.0156,-0.006 3.1962568,3.1962568 0 0 0 -0.10937,-0.0332 3.1962568,3.1962568 0 0 0 -0.0156,-0.006 3.1962568,3.1962568 0 0 0 -0.1289,-0.0352 3.1962568,3.1962568 0 0 0 -0.0586,-0.0137 3.1962568,3.1962568 0 0 0 -0.0527,-0.0117 3.1962568,3.1962568 0 0 0 -0.10547,-0.0215 3.1962568,3.1962568 0 0 0 -0.0234,-0.004 3.1962568,3.1962568 0 0 0 -0.0176,-0.004 3.1962568,3.1962568 0 0 0 -0.11328,-0.0156 3.1962568,3.1962568 0 0 0 -0.0176,-0.002 3.1962568,3.1962568 0 0 0 -0.11328,-0.0117 3.1962568,3.1962568 0 0 0 -0.0176,-0.002 3.1962568,3.1962568 0 0 0 -0.11523,-0.006 3.1962568,3.1962568 0 0 0 -0.11328,-0.004 3.1962568,3.1962568 0 0 0 -0.0234,0 h -0.0156 -8.25196 -0.0391 -27.332027 a 3.1962568,3.1962568 0 0 0 -0.0156,0 z m 3.23438,6.39453 h 20.957027 l 0.0664,12.49609 H 98.107033 Z m 28.308587,4.43945 c 2.34158,0 4.24024,1.8967 4.24024,4.23828 0,2.34158 -1.89866,4.24024 -4.24024,4.24024 -2.34156,0 -4.24022,-1.89866 -4.24023,-4.24024 0,-2.34158 1.89867,-4.23828 4.24023,-4.23828 z m -74.650387,0.15625 c 0.0862,0.007 0.17316,0.0416 0.25196,0.0996 l 3.18359,2.34375 c 0.1576,0.116 0.24007,0.29073 0.17383,0.46875 l -5.79492,15.94922 c -0.0254,0.0787 -0.0413,0.0993 -0.0645,0.13086 -0.0773,0.10531 -0.19005,0.10428 -0.34765,-0.0117 l -2.60547,-1.91797 c -0.11558,-0.0851 -0.15129,-0.19206 -0.10547,-0.32031 l 0.875,-2.22266 c 0.0458,-0.12825 0.009,-0.18868 -0.14844,-0.30468 l -4.04492,-2.97461 c -0.16811,-0.1233 -0.22513,-0.13268 -0.33398,-0.0508 l -1.86329,1.49609 c -0.10885,0.0789 -0.2211,0.0773 -0.32617,0 l -2.59375,-1.91016 c -0.1576,-0.11599 -0.20429,-0.23089 -0.12695,-0.33593 0.0387,-0.0526 0.12977,-0.13097 0.18945,-0.16797 0.0337,-0.0237 13.43555,-10.19727 13.43555,-10.19727 0.0752,-0.0581 0.15993,-0.0809 0.24609,-0.0742 z m -0.99609,4.72266 -0.36914,0.39258 -4.56055,3.64062 c -0.13205,0.11337 -0.14029,0.23574 0.0488,0.375 l 2.46875,1.81836 c 0.18912,0.13878 0.31379,0.10118 0.38281,-0.0586 l 2.13281,-5.42774 0.26563,-0.4707 z m 10.29101,1.80078 c 0.0579,0.004 0.1194,0.0202 0.18165,0.0488 l 6.1289,2.81445 c 2.90459,1.33404 4.08453,3.61388 2.85938,6.28125 -0.60441,1.316 -1.80141,2.2307 -3.10157,2.2793 -0.16308,0.0112 -0.20673,0.0772 -0.22851,0.125 -0.0327,0.0711 -0.0184,0.1629 0.0547,0.25391 0.94884,1.1536 1.15556,2.61218 0.41406,4.19531 -1.36866,2.91739 -3.71047,3.60885 -6.29492,2.42187 l -6.82813,-3.13672 c -0.24895,-0.11437 -0.3331,-0.33895 -0.21875,-0.58789 l 6.62695,-14.42968 c 0.0858,-0.18672 0.23261,-0.27876 0.40625,-0.26563 z m 1.98633,4.42774 c -0.17364,-0.0131 -0.32244,0.0809 -0.4082,0.26757 l -1.07227,2.33594 c -0.11434,0.24894 -0.0302,0.47351 0.21875,0.58789 l 2.79688,1.28516 c 1.01956,0.46829 1.82705,0.17981 2.30078,-0.85156 0.47373,-1.03147 0.16214,-1.82078 -0.85742,-2.28907 l -2.79688,-1.28515 c -0.0622,-0.0286 -0.12376,-0.0464 -0.18164,-0.0508 z m -2.77734,6.04687 c -0.17365,-0.0131 -0.32049,0.0809 -0.40625,0.26758 l -1.18164,2.57226 c -0.11435,0.24894 -0.0322,0.47352 0.2168,0.58789 l 3.04687,1.4004 c 0.86544,0.39746 1.84197,0.0846 2.33203,-0.98243 0.46828,-1.0195 0.0861,-1.99902 -0.7793,-2.39648 l -3.04687,-1.40039 c -0.0622,-0.0286 -0.12376,-0.0445 -0.18164,-0.0488 z" />
  </g>
</svg>
