<?xml version="1.0" encoding="UTF-8" standalone="no"?>
<svg
   xmlns:dc="http://purl.org/dc/elements/1.1/"
   xmlns:cc="http://creativecommons.org/ns#"
   xmlns:rdf="http://www.w3.org/1999/02/22-rdf-syntax-ns#"
   xmlns:svg="http://www.w3.org/2000/svg"
   xmlns="http://www.w3.org/2000/svg"
   xmlns:sodipodi="http://sodipodi.sourceforge.net/DTD/sodipodi-0.dtd"
   xmlns:inkscape="http://www.inkscape.org/namespaces/inkscape"
   width="50mm"
   height="50mm"
   id="svg2"
   version="1.1"
   inkscape:version="1.0.2 (e86c870879, 2021-01-15, custom)"
   sodipodi:docname="xHain_stickers_5cm_scubar.svg"
   inkscape:export-filename="/home/xHain_stickers_5cm_scubar.png"
   inkscape:export-xdpi="350"
   inkscape:export-ydpi="350">
  <sodipodi:namedview
     id="base"
     pagecolor="#ffffff"
     bordercolor="#666666"
     borderopacity="1.0"
     inkscape:pageopacity="0.0"
     inkscape:pageshadow="2"
     inkscape:zoom="4.1280896"
     inkscape:cx="88.939242"
     inkscape:cy="93.491827"
     inkscape:document-units="mm"
     inkscape:current-layer="layer1"
     showgrid="false"
     inkscape:window-width="1920"
     inkscape:window-height="1032"
     inkscape:window-x="0"
     inkscape:window-y="0"
     inkscape:window-maximized="1"
     showguides="true"
     inkscape:guide-bbox="true"
     units="mm"
     inkscape:document-rotation="0">
    <inkscape:grid
       type="xygrid"
       id="grid2985"
       empspacing="5"
       visible="true"
       enabled="true"
       snapvisiblegridlinesonly="true" />
  </sodipodi:namedview>
  <defs
     id="defs4">
    <marker
       inkscape:stockid="DotS"
       orient="auto"
       refY="0"
       refX="0"
       id="DotS"
       style="overflow:visible">
      <path
         id="path3828"
         d="m -2.5,-1 c 0,2.76 -2.24,5 -5,5 -2.76,0 -5,-2.24 -5,-5 0,-2.76 2.24,-5 5,-5 2.76,0 5,2.24 5,5 z"
         style="fill-rule:evenodd;stroke:#000000;stroke-width:1pt"
         transform="matrix(0.2,0,0,0.2,1.48,0.2)"
         inkscape:connector-curvature="0" />
    </marker>
    <marker
       inkscape:stockid="DotS"
       orient="auto"
       refY="0"
       refX="0"
       id="DotS-1"
       style="overflow:visible">
      <path
         inkscape:connector-curvature="0"
         id="path3828-5"
         d="m -2.5,-1 c 0,2.76 -2.24,5 -5,5 -2.76,0 -5,-2.24 -5,-5 0,-2.76 2.24,-5 5,-5 2.76,0 5,2.24 5,5 z"
         style="fill-rule:evenodd;stroke:#000000;stroke-width:1pt"
         transform="matrix(0.2,0,0,0.2,1.48,0.2)" />
    </marker>
    <marker
       inkscape:stockid="DotS"
       orient="auto"
       refY="0"
       refX="0"
       id="marker4395"
       style="overflow:visible">
      <path
         inkscape:connector-curvature="0"
         id="path4397"
         d="m -2.5,-1 c 0,2.76 -2.24,5 -5,5 -2.76,0 -5,-2.24 -5,-5 0,-2.76 2.24,-5 5,-5 2.76,0 5,2.24 5,5 z"
         style="fill-rule:evenodd;stroke:#000000;stroke-width:1pt"
         transform="matrix(0.2,0,0,0.2,1.48,0.2)" />
    </marker>
    <marker
       inkscape:stockid="DotS"
       orient="auto"
       refY="0"
       refX="0"
       id="DotS-3"
       style="overflow:visible">
      <path
         inkscape:connector-curvature="0"
         id="path3828-0"
         d="m -2.5,-1 c 0,2.76 -2.24,5 -5,5 -2.76,0 -5,-2.24 -5,-5 0,-2.76 2.24,-5 5,-5 2.76,0 5,2.24 5,5 z"
         style="fill-rule:evenodd;stroke:#000000;stroke-width:1pt"
         transform="matrix(0.2,0,0,0.2,1.48,0.2)" />
    </marker>
    <marker
       inkscape:stockid="DotS"
       orient="auto"
       refY="0"
       refX="0"
       id="marker4427"
       style="overflow:visible">
      <path
         inkscape:connector-curvature="0"
         id="path4429"
         d="m -2.5,-1 c 0,2.76 -2.24,5 -5,5 -2.76,0 -5,-2.24 -5,-5 0,-2.76 2.24,-5 5,-5 2.76,0 5,2.24 5,5 z"
         style="fill-rule:evenodd;stroke:#000000;stroke-width:1pt"
         transform="matrix(0.2,0,0,0.2,1.48,0.2)" />
    </marker>
    <marker
       inkscape:stockid="DotS"
       orient="auto"
       refY="0"
       refX="0"
       id="DotS-2"
       style="overflow:visible">
      <path
         inkscape:connector-curvature="0"
         id="path3828-1"
         d="m -2.5,-1 c 0,2.76 -2.24,5 -5,5 -2.76,0 -5,-2.24 -5,-5 0,-2.76 2.24,-5 5,-5 2.76,0 5,2.24 5,5 z"
         style="fill-rule:evenodd;stroke:#000000;stroke-width:1pt"
         transform="matrix(0.2,0,0,0.2,1.48,0.2)" />
    </marker>
    <marker
       inkscape:stockid="DotS"
       orient="auto"
       refY="0"
       refX="0"
       id="marker4427-3"
       style="overflow:visible">
      <path
         inkscape:connector-curvature="0"
         id="path4429-9"
         d="m -2.5,-1 c 0,2.76 -2.24,5 -5,5 -2.76,0 -5,-2.24 -5,-5 0,-2.76 2.24,-5 5,-5 2.76,0 5,2.24 5,5 z"
         style="fill-rule:evenodd;stroke:#000000;stroke-width:1pt"
         transform="matrix(0.2,0,0,0.2,1.48,0.2)" />
    </marker>
    <marker
       inkscape:stockid="DotS"
       orient="auto"
       refY="0"
       refX="0"
       id="DotS-21"
       style="overflow:visible">
      <path
         inkscape:connector-curvature="0"
         id="path3828-6"
         d="m -2.5,-1 c 0,2.76 -2.24,5 -5,5 -2.76,0 -5,-2.24 -5,-5 0,-2.76 2.24,-5 5,-5 2.76,0 5,2.24 5,5 z"
         style="fill-rule:evenodd;stroke:#000000;stroke-width:1pt"
         transform="matrix(0.2,0,0,0.2,1.48,0.2)" />
    </marker>
    <marker
       inkscape:stockid="DotS"
       orient="auto"
       refY="0"
       refX="0"
       id="marker4474"
       style="overflow:visible">
      <path
         inkscape:connector-curvature="0"
         id="path4476"
         d="m -2.5,-1 c 0,2.76 -2.24,5 -5,5 -2.76,0 -5,-2.24 -5,-5 0,-2.76 2.24,-5 5,-5 2.76,0 5,2.24 5,5 z"
         style="fill-rule:evenodd;stroke:#000000;stroke-width:1pt"
         transform="matrix(0.2,0,0,0.2,1.48,0.2)" />
    </marker>
    <marker
       inkscape:stockid="DotS"
       orient="auto"
       refY="0"
       refX="0"
       id="DotS-36"
       style="overflow:visible">
      <path
         inkscape:connector-curvature="0"
         id="path3828-8"
         d="m -2.5,-1 c 0,2.76 -2.24,5 -5,5 -2.76,0 -5,-2.24 -5,-5 0,-2.76 2.24,-5 5,-5 2.76,0 5,2.24 5,5 z"
         style="fill-rule:evenodd;stroke:#000000;stroke-width:1pt"
         transform="matrix(0.2,0,0,0.2,1.48,0.2)" />
    </marker>
    <marker
       inkscape:stockid="DotS"
       orient="auto"
       refY="0"
       refX="0"
       id="marker4516"
       style="overflow:visible">
      <path
         inkscape:connector-curvature="0"
         id="path4518"
         d="m -2.5,-1 c 0,2.76 -2.24,5 -5,5 -2.76,0 -5,-2.24 -5,-5 0,-2.76 2.24,-5 5,-5 2.76,0 5,2.24 5,5 z"
         style="fill-rule:evenodd;stroke:#000000;stroke-width:1pt"
         transform="matrix(0.2,0,0,0.2,1.48,0.2)" />
    </marker>
    <marker
       inkscape:stockid="DotS"
       orient="auto"
       refY="0"
       refX="0"
       id="DotS-11"
       style="overflow:visible">
      <path
         inkscape:connector-curvature="0"
         id="path3828-58"
         d="m -2.5,-1 c 0,2.76 -2.24,5 -5,5 -2.76,0 -5,-2.24 -5,-5 0,-2.76 2.24,-5 5,-5 2.76,0 5,2.24 5,5 z"
         style="fill-rule:evenodd;stroke:#000000;stroke-width:1pt"
         transform="matrix(0.2,0,0,0.2,1.48,0.2)" />
    </marker>
    <marker
       inkscape:stockid="DotS"
       orient="auto"
       refY="0"
       refX="0"
       id="marker4954"
       style="overflow:visible">
      <path
         inkscape:connector-curvature="0"
         id="path4956"
         d="m -2.5,-1 c 0,2.76 -2.24,5 -5,5 -2.76,0 -5,-2.24 -5,-5 0,-2.76 2.24,-5 5,-5 2.76,0 5,2.24 5,5 z"
         style="fill-rule:evenodd;stroke:#000000;stroke-width:1pt"
         transform="matrix(0.2,0,0,0.2,1.48,0.2)" />
    </marker>
    <marker
       inkscape:stockid="DotS"
       orient="auto"
       refY="0"
       refX="0"
       id="DotS-7"
       style="overflow:visible">
      <path
         inkscape:connector-curvature="0"
         id="path3828-3"
         d="m -2.5,-1 c 0,2.76 -2.24,5 -5,5 -2.76,0 -5,-2.24 -5,-5 0,-2.76 2.24,-5 5,-5 2.76,0 5,2.24 5,5 z"
         style="fill-rule:evenodd;stroke:#000000;stroke-width:1pt"
         transform="matrix(0.2,0,0,0.2,1.48,0.2)" />
    </marker>
    <marker
       inkscape:stockid="DotS"
       orient="auto"
       refY="0"
       refX="0"
       id="marker5024"
       style="overflow:visible">
      <path
         inkscape:connector-curvature="0"
         id="path5026"
         d="m -2.5,-1 c 0,2.76 -2.24,5 -5,5 -2.76,0 -5,-2.24 -5,-5 0,-2.76 2.24,-5 5,-5 2.76,0 5,2.24 5,5 z"
         style="fill-rule:evenodd;stroke:#000000;stroke-width:1pt"
         transform="matrix(0.2,0,0,0.2,1.48,0.2)" />
    </marker>
    <marker
       inkscape:stockid="DotS"
       orient="auto"
       refY="0"
       refX="0"
       id="DotS-34"
       style="overflow:visible">
      <path
         inkscape:connector-curvature="0"
         id="path3828-16"
         d="m -2.5,-1 c 0,2.76 -2.24,5 -5,5 -2.76,0 -5,-2.24 -5,-5 0,-2.76 2.24,-5 5,-5 2.76,0 5,2.24 5,5 z"
         style="fill-rule:evenodd;stroke:#000000;stroke-width:1pt"
         transform="matrix(0.2,0,0,0.2,1.48,0.2)" />
    </marker>
    <marker
       inkscape:stockid="DotS"
       orient="auto"
       refY="0"
       refX="0"
       id="marker5056"
       style="overflow:visible">
      <path
         inkscape:connector-curvature="0"
         id="path5058"
         d="m -2.5,-1 c 0,2.76 -2.24,5 -5,5 -2.76,0 -5,-2.24 -5,-5 0,-2.76 2.24,-5 5,-5 2.76,0 5,2.24 5,5 z"
         style="fill-rule:evenodd;stroke:#000000;stroke-width:1pt"
         transform="matrix(0.2,0,0,0.2,1.48,0.2)" />
    </marker>
    <marker
       inkscape:stockid="DotS"
       orient="auto"
       refY="0"
       refX="0"
       id="marker4516-8"
       style="overflow:visible">
      <path
         inkscape:connector-curvature="0"
         id="path4518-5"
         d="m -2.5,-1 c 0,2.76 -2.24,5 -5,5 -2.76,0 -5,-2.24 -5,-5 0,-2.76 2.24,-5 5,-5 2.76,0 5,2.24 5,5 z"
         style="fill-rule:evenodd;stroke:#000000;stroke-width:1pt"
         transform="matrix(0.2,0,0,0.2,1.48,0.2)" />
    </marker>
    <marker
       inkscape:stockid="DotS"
       orient="auto"
       refY="0"
       refX="0"
       id="marker5088"
       style="overflow:visible">
      <path
         inkscape:connector-curvature="0"
         id="path5090"
         d="m -2.5,-1 c 0,2.76 -2.24,5 -5,5 -2.76,0 -5,-2.24 -5,-5 0,-2.76 2.24,-5 5,-5 2.76,0 5,2.24 5,5 z"
         style="fill-rule:evenodd;stroke:#000000;stroke-width:1pt"
         transform="matrix(0.2,0,0,0.2,1.48,0.2)" />
    </marker>
    <marker
       inkscape:stockid="DotS"
       orient="auto"
       refY="0"
       refX="0"
       id="marker4516-9"
       style="overflow:visible">
      <path
         inkscape:connector-curvature="0"
         id="path4518-55"
         d="m -2.5,-1 c 0,2.76 -2.24,5 -5,5 -2.76,0 -5,-2.24 -5,-5 0,-2.76 2.24,-5 5,-5 2.76,0 5,2.24 5,5 z"
         style="fill-rule:evenodd;stroke:#000000;stroke-width:1pt"
         transform="matrix(0.2,0,0,0.2,1.48,0.2)" />
    </marker>
    <marker
       inkscape:stockid="DotS"
       orient="auto"
       refY="0"
       refX="0"
       id="marker5137"
       style="overflow:visible">
      <path
         inkscape:connector-curvature="0"
         id="path5139"
         d="m -2.5,-1 c 0,2.76 -2.24,5 -5,5 -2.76,0 -5,-2.24 -5,-5 0,-2.76 2.24,-5 5,-5 2.76,0 5,2.24 5,5 z"
         style="fill-rule:evenodd;stroke:#000000;stroke-width:1pt"
         transform="matrix(0.2,0,0,0.2,1.48,0.2)" />
    </marker>
    <marker
       inkscape:stockid="DotS"
       orient="auto"
       refY="0"
       refX="0"
       id="DotS-0"
       style="overflow:visible">
      <path
         inkscape:connector-curvature="0"
         id="path3828-4"
         d="m -2.5,-1 c 0,2.76 -2.24,5 -5,5 -2.76,0 -5,-2.24 -5,-5 0,-2.76 2.24,-5 5,-5 2.76,0 5,2.24 5,5 z"
         style="fill-rule:evenodd;stroke:#000000;stroke-width:1pt"
         transform="matrix(0.2,0,0,0.2,1.48,0.2)" />
    </marker>
    <marker
       inkscape:stockid="DotS"
       orient="auto"
       refY="0"
       refX="0"
       id="marker5169"
       style="overflow:visible">
      <path
         inkscape:connector-curvature="0"
         id="path5171"
         d="m -2.5,-1 c 0,2.76 -2.24,5 -5,5 -2.76,0 -5,-2.24 -5,-5 0,-2.76 2.24,-5 5,-5 2.76,0 5,2.24 5,5 z"
         style="fill-rule:evenodd;stroke:#000000;stroke-width:1pt"
         transform="matrix(0.2,0,0,0.2,1.48,0.2)" />
    </marker>
    <marker
       inkscape:stockid="DotS"
       orient="auto"
       refY="0"
       refX="0"
       id="DotS-8"
       style="overflow:visible">
      <path
         inkscape:connector-curvature="0"
         id="path3828-66"
         d="m -2.5,-1 c 0,2.76 -2.24,5 -5,5 -2.76,0 -5,-2.24 -5,-5 0,-2.76 2.24,-5 5,-5 2.76,0 5,2.24 5,5 z"
         style="fill-rule:evenodd;stroke:#000000;stroke-width:1pt"
         transform="matrix(0.2,0,0,0.2,1.48,0.2)" />
    </marker>
    <marker
       inkscape:stockid="DotS"
       orient="auto"
       refY="0"
       refX="0"
       id="marker5218"
       style="overflow:visible">
      <path
         inkscape:connector-curvature="0"
         id="path5220"
         d="m -2.5,-1 c 0,2.76 -2.24,5 -5,5 -2.76,0 -5,-2.24 -5,-5 0,-2.76 2.24,-5 5,-5 2.76,0 5,2.24 5,5 z"
         style="fill-rule:evenodd;stroke:#000000;stroke-width:1pt"
         transform="matrix(0.2,0,0,0.2,1.48,0.2)" />
    </marker>
    <marker
       inkscape:stockid="DotSv"
       orient="auto"
       refY="0"
       refX="0"
       id="DotSv"
       style="overflow:visible">
      <path
         id="path5753"
         d="m -2.5,-1 c 0,2.76 -2.24,5 -5,5 -2.76,0 -5,-2.24 -5,-5 0,-2.76 2.24,-5 5,-5 2.76,0 5,2.24 5,5 z"
         style="fill:#858585;fill-rule:evenodd;stroke:#858585;stroke-width:1pt"
         transform="matrix(0.2,0,0,0.2,1.48,0.2)"
         inkscape:connector-curvature="0" />
    </marker>
    <marker
       inkscape:stockid="DotSs"
       orient="auto"
       refY="0"
       refX="0"
       id="DotSs"
       style="overflow:visible">
      <path
         id="path5756"
         d="m -2.5,-1 c 0,2.76 -2.24,5 -5,5 -2.76,0 -5,-2.24 -5,-5 0,-2.76 2.24,-5 5,-5 2.76,0 5,2.24 5,5 z"
         style="fill:#858585;fill-rule:evenodd;stroke:#858585;stroke-width:1pt"
         transform="matrix(0.2,0,0,0.2,1.48,0.2)"
         inkscape:connector-curvature="0" />
    </marker>
    <marker
       inkscape:stockid="DotSk"
       orient="auto"
       refY="0"
       refX="0"
       id="DotSk"
       style="overflow:visible">
      <path
         id="path5759"
         d="m -2.5,-1 c 0,2.76 -2.24,5 -5,5 -2.76,0 -5,-2.24 -5,-5 0,-2.76 2.24,-5 5,-5 2.76,0 5,2.24 5,5 z"
         style="fill:#858585;fill-rule:evenodd;stroke:#858585;stroke-width:1pt"
         transform="matrix(0.2,0,0,0.2,1.48,0.2)"
         inkscape:connector-curvature="0" />
    </marker>
    <marker
       inkscape:stockid="DotSK"
       orient="auto"
       refY="0"
       refX="0"
       id="DotSK"
       style="overflow:visible">
      <path
         id="path5762"
         d="m -2.5,-1 c 0,2.76 -2.24,5 -5,5 -2.76,0 -5,-2.24 -5,-5 0,-2.76 2.24,-5 5,-5 2.76,0 5,2.24 5,5 z"
         style="fill:#858585;fill-rule:evenodd;stroke:#858585;stroke-width:1pt"
         transform="matrix(0.2,0,0,0.2,1.48,0.2)"
         inkscape:connector-curvature="0" />
    </marker>
    <marker
       inkscape:stockid="DotSQ"
       orient="auto"
       refY="0"
       refX="0"
       id="DotSQ"
       style="overflow:visible">
      <path
         id="path5765"
         d="m -2.5,-1 c 0,2.76 -2.24,5 -5,5 -2.76,0 -5,-2.24 -5,-5 0,-2.76 2.24,-5 5,-5 2.76,0 5,2.24 5,5 z"
         style="fill:#858585;fill-rule:evenodd;stroke:#858585;stroke-width:1pt"
         transform="matrix(0.2,0,0,0.2,1.48,0.2)"
         inkscape:connector-curvature="0" />
    </marker>
    <marker
       inkscape:stockid="DotSg"
       orient="auto"
       refY="0"
       refX="0"
       id="DotSg"
       style="overflow:visible">
      <path
         id="path5768"
         d="m -2.5,-1 c 0,2.76 -2.24,5 -5,5 -2.76,0 -5,-2.24 -5,-5 0,-2.76 2.24,-5 5,-5 2.76,0 5,2.24 5,5 z"
         style="fill:#858585;fill-rule:evenodd;stroke:#858585;stroke-width:1pt"
         transform="matrix(0.2,0,0,0.2,1.48,0.2)"
         inkscape:connector-curvature="0" />
    </marker>
    <marker
       inkscape:stockid="marker4516J"
       orient="auto"
       refY="0"
       refX="0"
       id="marker4516J"
       style="overflow:visible">
      <path
         inkscape:connector-curvature="0"
         id="path5771"
         d="m -2.5,-1 c 0,2.76 -2.24,5 -5,5 -2.76,0 -5,-2.24 -5,-5 0,-2.76 2.24,-5 5,-5 2.76,0 5,2.24 5,5 z"
         style="fill:#858585;fill-rule:evenodd;stroke:#858585;stroke-width:1pt"
         transform="matrix(0.2,0,0,0.2,1.48,0.2)" />
    </marker>
    <marker
       inkscape:stockid="marker4516P"
       orient="auto"
       refY="0"
       refX="0"
       id="marker4516P"
       style="overflow:visible">
      <path
         inkscape:connector-curvature="0"
         id="path5774"
         d="m -2.5,-1 c 0,2.76 -2.24,5 -5,5 -2.76,0 -5,-2.24 -5,-5 0,-2.76 2.24,-5 5,-5 2.76,0 5,2.24 5,5 z"
         style="fill:#858585;fill-rule:evenodd;stroke:#858585;stroke-width:1pt"
         transform="matrix(0.2,0,0,0.2,1.48,0.2)" />
    </marker>
    <marker
       inkscape:stockid="DotSC"
       orient="auto"
       refY="0"
       refX="0"
       id="DotSC"
       style="overflow:visible">
      <path
         id="path5777"
         d="m -2.5,-1 c 0,2.76 -2.24,5 -5,5 -2.76,0 -5,-2.24 -5,-5 0,-2.76 2.24,-5 5,-5 2.76,0 5,2.24 5,5 z"
         style="fill:#858585;fill-rule:evenodd;stroke:#858585;stroke-width:1pt"
         transform="matrix(0.2,0,0,0.2,1.48,0.2)"
         inkscape:connector-curvature="0" />
    </marker>
    <marker
       inkscape:stockid="DotSL"
       orient="auto"
       refY="0"
       refX="0"
       id="DotSL"
       style="overflow:visible">
      <path
         id="path5780"
         d="m -2.5,-1 c 0,2.76 -2.24,5 -5,5 -2.76,0 -5,-2.24 -5,-5 0,-2.76 2.24,-5 5,-5 2.76,0 5,2.24 5,5 z"
         style="fill:#858585;fill-rule:evenodd;stroke:#858585;stroke-width:1pt"
         transform="matrix(0.2,0,0,0.2,1.48,0.2)"
         inkscape:connector-curvature="0" />
    </marker>
    <marker
       inkscape:stockid="DotSf"
       orient="auto"
       refY="0"
       refX="0"
       id="DotSf"
       style="overflow:visible">
      <path
         id="path5783"
         d="m -2.5,-1 c 0,2.76 -2.24,5 -5,5 -2.76,0 -5,-2.24 -5,-5 0,-2.76 2.24,-5 5,-5 2.76,0 5,2.24 5,5 z"
         style="fill:#858585;fill-rule:evenodd;stroke:#858585;stroke-width:1pt"
         transform="matrix(0.2,0,0,0.2,1.48,0.2)"
         inkscape:connector-curvature="0" />
    </marker>
    <marker
       inkscape:stockid="DotS7"
       orient="auto"
       refY="0"
       refX="0"
       id="DotS7"
       style="overflow:visible">
      <path
         id="path5786"
         d="m -2.5,-1 c 0,2.76 -2.24,5 -5,5 -2.76,0 -5,-2.24 -5,-5 0,-2.76 2.24,-5 5,-5 2.76,0 5,2.24 5,5 z"
         style="fill:#858585;fill-rule:evenodd;stroke:#858585;stroke-width:1pt"
         transform="matrix(0.2,0,0,0.2,1.48,0.2)"
         inkscape:connector-curvature="0" />
    </marker>
    <marker
       inkscape:stockid="DotSS"
       orient="auto"
       refY="0"
       refX="0"
       id="DotSS"
       style="overflow:visible">
      <path
         id="path5789"
         d="m -2.5,-1 c 0,2.76 -2.24,5 -5,5 -2.76,0 -5,-2.24 -5,-5 0,-2.76 2.24,-5 5,-5 2.76,0 5,2.24 5,5 z"
         style="fill:#858585;fill-rule:evenodd;stroke:#858585;stroke-width:1pt"
         transform="matrix(0.2,0,0,0.2,1.48,0.2)"
         inkscape:connector-curvature="0" />
    </marker>
    <marker
       inkscape:stockid="DotSy"
       orient="auto"
       refY="0"
       refX="0"
       id="DotSy"
       style="overflow:visible">
      <path
         id="path5792"
         d="m -2.5,-1 c 0,2.76 -2.24,5 -5,5 -2.76,0 -5,-2.24 -5,-5 0,-2.76 2.24,-5 5,-5 2.76,0 5,2.24 5,5 z"
         style="fill:#858585;fill-rule:evenodd;stroke:#858585;stroke-width:1pt"
         transform="matrix(0.2,0,0,0.2,1.48,0.2)"
         inkscape:connector-curvature="0" />
    </marker>
    <marker
       inkscape:stockid="marker4516C"
       orient="auto"
       refY="0"
       refX="0"
       id="marker4516C"
       style="overflow:visible">
      <path
         inkscape:connector-curvature="0"
         id="path5795"
         d="m -2.5,-1 c 0,2.76 -2.24,5 -5,5 -2.76,0 -5,-2.24 -5,-5 0,-2.76 2.24,-5 5,-5 2.76,0 5,2.24 5,5 z"
         style="fill:#858585;fill-rule:evenodd;stroke:#858585;stroke-width:1pt"
         transform="matrix(0.2,0,0,0.2,1.48,0.2)" />
    </marker>
    <marker
       inkscape:stockid="marker45162"
       orient="auto"
       refY="0"
       refX="0"
       id="marker45162"
       style="overflow:visible">
      <path
         inkscape:connector-curvature="0"
         id="path5798"
         d="m -2.5,-1 c 0,2.76 -2.24,5 -5,5 -2.76,0 -5,-2.24 -5,-5 0,-2.76 2.24,-5 5,-5 2.76,0 5,2.24 5,5 z"
         style="fill:#858585;fill-rule:evenodd;stroke:#858585;stroke-width:1pt"
         transform="matrix(0.2,0,0,0.2,1.48,0.2)" />
    </marker>
    <marker
       inkscape:stockid="DotSG"
       orient="auto"
       refY="0"
       refX="0"
       id="DotSG"
       style="overflow:visible">
      <path
         id="path5801"
         d="m -2.5,-1 c 0,2.76 -2.24,5 -5,5 -2.76,0 -5,-2.24 -5,-5 0,-2.76 2.24,-5 5,-5 2.76,0 5,2.24 5,5 z"
         style="fill:#858585;fill-rule:evenodd;stroke:#858585;stroke-width:1pt"
         transform="matrix(0.2,0,0,0.2,1.48,0.2)"
         inkscape:connector-curvature="0" />
    </marker>
    <marker
       inkscape:stockid="DotS5"
       orient="auto"
       refY="0"
       refX="0"
       id="DotS5"
       style="overflow:visible">
      <path
         id="path5804"
         d="m -2.5,-1 c 0,2.76 -2.24,5 -5,5 -2.76,0 -5,-2.24 -5,-5 0,-2.76 2.24,-5 5,-5 2.76,0 5,2.24 5,5 z"
         style="fill:#858585;fill-rule:evenodd;stroke:#858585;stroke-width:1pt"
         transform="matrix(0.2,0,0,0.2,1.48,0.2)"
         inkscape:connector-curvature="0" />
    </marker>
    <marker
       inkscape:stockid="DotSsA"
       orient="auto"
       refY="0"
       refX="0"
       id="DotSsA"
       style="overflow:visible">
      <path
         id="path5807"
         d="m -2.5,-1 c 0,2.76 -2.24,5 -5,5 -2.76,0 -5,-2.24 -5,-5 0,-2.76 2.24,-5 5,-5 2.76,0 5,2.24 5,5 z"
         style="fill:#858585;fill-rule:evenodd;stroke:#858585;stroke-width:1pt"
         transform="matrix(0.2,0,0,0.2,1.48,0.2)"
         inkscape:connector-curvature="0" />
    </marker>
    <marker
       inkscape:stockid="DotSLd"
       orient="auto"
       refY="0"
       refX="0"
       id="DotSLd"
       style="overflow:visible">
      <path
         id="path5810"
         d="m -2.5,-1 c 0,2.76 -2.24,5 -5,5 -2.76,0 -5,-2.24 -5,-5 0,-2.76 2.24,-5 5,-5 2.76,0 5,2.24 5,5 z"
         style="fill:#858585;fill-rule:evenodd;stroke:#858585;stroke-width:1pt"
         transform="matrix(0.2,0,0,0.2,1.48,0.2)"
         inkscape:connector-curvature="0" />
    </marker>
    <marker
       inkscape:stockid="DotSd"
       orient="auto"
       refY="0"
       refX="0"
       id="DotSd"
       style="overflow:visible">
      <path
         id="path5813"
         d="m -2.5,-1 c 0,2.76 -2.24,5 -5,5 -2.76,0 -5,-2.24 -5,-5 0,-2.76 2.24,-5 5,-5 2.76,0 5,2.24 5,5 z"
         style="fill:#858585;fill-rule:evenodd;stroke:#858585;stroke-width:1pt"
         transform="matrix(0.2,0,0,0.2,1.48,0.2)"
         inkscape:connector-curvature="0" />
    </marker>
    <marker
       inkscape:stockid="DotSyI"
       orient="auto"
       refY="0"
       refX="0"
       id="DotSyI"
       style="overflow:visible">
      <path
         id="path5816"
         d="m -2.5,-1 c 0,2.76 -2.24,5 -5,5 -2.76,0 -5,-2.24 -5,-5 0,-2.76 2.24,-5 5,-5 2.76,0 5,2.24 5,5 z"
         style="fill:#858585;fill-rule:evenodd;stroke:#858585;stroke-width:1pt"
         transform="matrix(0.2,0,0,0.2,1.48,0.2)"
         inkscape:connector-curvature="0" />
    </marker>
    <marker
       inkscape:stockid="marker4516y"
       orient="auto"
       refY="0"
       refX="0"
       id="marker4516y"
       style="overflow:visible">
      <path
         inkscape:connector-curvature="0"
         id="path5819"
         d="m -2.5,-1 c 0,2.76 -2.24,5 -5,5 -2.76,0 -5,-2.24 -5,-5 0,-2.76 2.24,-5 5,-5 2.76,0 5,2.24 5,5 z"
         style="fill:#858585;fill-rule:evenodd;stroke:#858585;stroke-width:1pt"
         transform="matrix(0.2,0,0,0.2,1.48,0.2)" />
    </marker>
    <marker
       inkscape:stockid="marker4516I"
       orient="auto"
       refY="0"
       refX="0"
       id="marker4516I"
       style="overflow:visible">
      <path
         inkscape:connector-curvature="0"
         id="path5822"
         d="m -2.5,-1 c 0,2.76 -2.24,5 -5,5 -2.76,0 -5,-2.24 -5,-5 0,-2.76 2.24,-5 5,-5 2.76,0 5,2.24 5,5 z"
         style="fill:#858585;fill-rule:evenodd;stroke:#858585;stroke-width:1pt"
         transform="matrix(0.2,0,0,0.2,1.48,0.2)" />
    </marker>
    <marker
       inkscape:stockid="marker5218b"
       orient="auto"
       refY="0"
       refX="0"
       id="marker5218b"
       style="overflow:visible">
      <path
         inkscape:connector-curvature="0"
         id="path5825"
         d="m -2.5,-1 c 0,2.76 -2.24,5 -5,5 -2.76,0 -5,-2.24 -5,-5 0,-2.76 2.24,-5 5,-5 2.76,0 5,2.24 5,5 z"
         style="fill:#858585;fill-rule:evenodd;stroke:#858585;stroke-width:1pt"
         transform="matrix(0.2,0,0,0.2,1.48,0.2)" />
    </marker>
    <marker
       inkscape:stockid="marker5218X"
       orient="auto"
       refY="0"
       refX="0"
       id="marker5218X"
       style="overflow:visible">
      <path
         inkscape:connector-curvature="0"
         id="path5828"
         d="m -2.5,-1 c 0,2.76 -2.24,5 -5,5 -2.76,0 -5,-2.24 -5,-5 0,-2.76 2.24,-5 5,-5 2.76,0 5,2.24 5,5 z"
         style="fill:#858585;fill-rule:evenodd;stroke:#858585;stroke-width:1pt"
         transform="matrix(0.2,0,0,0.2,1.48,0.2)" />
    </marker>
    <marker
       inkscape:stockid="DotSQL"
       orient="auto"
       refY="0"
       refX="0"
       id="DotSQL"
       style="overflow:visible">
      <path
         id="path6109"
         d="m -2.5,-1 c 0,2.76 -2.24,5 -5,5 -2.76,0 -5,-2.24 -5,-5 0,-2.76 2.24,-5 5,-5 2.76,0 5,2.24 5,5 z"
         style="fill:#ffc400;fill-rule:evenodd;stroke:#ffc400;stroke-width:1pt"
         transform="matrix(0.2,0,0,0.2,1.48,0.2)"
         inkscape:connector-curvature="0" />
    </marker>
    <marker
       inkscape:stockid="DotSgb"
       orient="auto"
       refY="0"
       refX="0"
       id="DotSgb"
       style="overflow:visible">
      <path
         id="path6112"
         d="m -2.5,-1 c 0,2.76 -2.24,5 -5,5 -2.76,0 -5,-2.24 -5,-5 0,-2.76 2.24,-5 5,-5 2.76,0 5,2.24 5,5 z"
         style="fill:#ffc400;fill-rule:evenodd;stroke:#ffc400;stroke-width:1pt"
         transform="matrix(0.2,0,0,0.2,1.48,0.2)"
         inkscape:connector-curvature="0" />
    </marker>
    <marker
       inkscape:stockid="marker4516J6"
       orient="auto"
       refY="0"
       refX="0"
       id="marker4516J6"
       style="overflow:visible">
      <path
         inkscape:connector-curvature="0"
         id="path6115"
         d="m -2.5,-1 c 0,2.76 -2.24,5 -5,5 -2.76,0 -5,-2.24 -5,-5 0,-2.76 2.24,-5 5,-5 2.76,0 5,2.24 5,5 z"
         style="fill:#ffc400;fill-rule:evenodd;stroke:#ffc400;stroke-width:1pt"
         transform="matrix(0.2,0,0,0.2,1.48,0.2)" />
    </marker>
    <marker
       inkscape:stockid="marker4516Pl"
       orient="auto"
       refY="0"
       refX="0"
       id="marker4516Pl"
       style="overflow:visible">
      <path
         inkscape:connector-curvature="0"
         id="path6118"
         d="m -2.5,-1 c 0,2.76 -2.24,5 -5,5 -2.76,0 -5,-2.24 -5,-5 0,-2.76 2.24,-5 5,-5 2.76,0 5,2.24 5,5 z"
         style="fill:#ffc400;fill-rule:evenodd;stroke:#ffc400;stroke-width:1pt"
         transform="matrix(0.2,0,0,0.2,1.48,0.2)" />
    </marker>
    <marker
       inkscape:stockid="DotSSB"
       orient="auto"
       refY="0"
       refX="0"
       id="DotSSB"
       style="overflow:visible">
      <path
         id="path6121"
         d="m -2.5,-1 c 0,2.76 -2.24,5 -5,5 -2.76,0 -5,-2.24 -5,-5 0,-2.76 2.24,-5 5,-5 2.76,0 5,2.24 5,5 z"
         style="fill:#ffc400;fill-rule:evenodd;stroke:#ffc400;stroke-width:1pt"
         transform="matrix(0.2,0,0,0.2,1.48,0.2)"
         inkscape:connector-curvature="0" />
    </marker>
    <marker
       inkscape:stockid="DotSyD"
       orient="auto"
       refY="0"
       refX="0"
       id="DotSyD"
       style="overflow:visible">
      <path
         id="path6124"
         d="m -2.5,-1 c 0,2.76 -2.24,5 -5,5 -2.76,0 -5,-2.24 -5,-5 0,-2.76 2.24,-5 5,-5 2.76,0 5,2.24 5,5 z"
         style="fill:#ffc400;fill-rule:evenodd;stroke:#ffc400;stroke-width:1pt"
         transform="matrix(0.2,0,0,0.2,1.48,0.2)"
         inkscape:connector-curvature="0" />
    </marker>
    <marker
       inkscape:stockid="marker4516Ct"
       orient="auto"
       refY="0"
       refX="0"
       id="marker4516Ct"
       style="overflow:visible">
      <path
         inkscape:connector-curvature="0"
         id="path6127"
         d="m -2.5,-1 c 0,2.76 -2.24,5 -5,5 -2.76,0 -5,-2.24 -5,-5 0,-2.76 2.24,-5 5,-5 2.76,0 5,2.24 5,5 z"
         style="fill:#ffc400;fill-rule:evenodd;stroke:#ffc400;stroke-width:1pt"
         transform="matrix(0.2,0,0,0.2,1.48,0.2)" />
    </marker>
    <marker
       inkscape:stockid="marker451623"
       orient="auto"
       refY="0"
       refX="0"
       id="marker451623"
       style="overflow:visible">
      <path
         inkscape:connector-curvature="0"
         id="path6130"
         d="m -2.5,-1 c 0,2.76 -2.24,5 -5,5 -2.76,0 -5,-2.24 -5,-5 0,-2.76 2.24,-5 5,-5 2.76,0 5,2.24 5,5 z"
         style="fill:#ffc400;fill-rule:evenodd;stroke:#ffc400;stroke-width:1pt"
         transform="matrix(0.2,0,0,0.2,1.48,0.2)" />
    </marker>
    <marker
       inkscape:stockid="marker4516yb"
       orient="auto"
       refY="0"
       refX="0"
       id="marker4516yb"
       style="overflow:visible">
      <path
         inkscape:connector-curvature="0"
         id="path6133"
         d="m -2.5,-1 c 0,2.76 -2.24,5 -5,5 -2.76,0 -5,-2.24 -5,-5 0,-2.76 2.24,-5 5,-5 2.76,0 5,2.24 5,5 z"
         style="fill:#ffc400;fill-rule:evenodd;stroke:#ffc400;stroke-width:1pt"
         transform="matrix(0.2,0,0,0.2,1.48,0.2)" />
    </marker>
    <marker
       inkscape:stockid="marker4516IS"
       orient="auto"
       refY="0"
       refX="0"
       id="marker4516IS"
       style="overflow:visible">
      <path
         inkscape:connector-curvature="0"
         id="path6136"
         d="m -2.5,-1 c 0,2.76 -2.24,5 -5,5 -2.76,0 -5,-2.24 -5,-5 0,-2.76 2.24,-5 5,-5 2.76,0 5,2.24 5,5 z"
         style="fill:#ffc400;fill-rule:evenodd;stroke:#ffc400;stroke-width:1pt"
         transform="matrix(0.2,0,0,0.2,1.48,0.2)" />
    </marker>
    <marker
       inkscape:stockid="DotSsAi"
       orient="auto"
       refY="0"
       refX="0"
       id="DotSsAi"
       style="overflow:visible">
      <path
         id="path6139"
         d="m -2.5,-1 c 0,2.76 -2.24,5 -5,5 -2.76,0 -5,-2.24 -5,-5 0,-2.76 2.24,-5 5,-5 2.76,0 5,2.24 5,5 z"
         style="fill:#ffc400;fill-rule:evenodd;stroke:#ffc400;stroke-width:1pt"
         transform="matrix(0.2,0,0,0.2,1.48,0.2)"
         inkscape:connector-curvature="0" />
    </marker>
    <marker
       inkscape:stockid="DotSLdG"
       orient="auto"
       refY="0"
       refX="0"
       id="DotSLdG"
       style="overflow:visible">
      <path
         id="path6142"
         d="m -2.5,-1 c 0,2.76 -2.24,5 -5,5 -2.76,0 -5,-2.24 -5,-5 0,-2.76 2.24,-5 5,-5 2.76,0 5,2.24 5,5 z"
         style="fill:#ffc400;fill-rule:evenodd;stroke:#ffc400;stroke-width:1pt"
         transform="matrix(0.2,0,0,0.2,1.48,0.2)"
         inkscape:connector-curvature="0" />
    </marker>
    <marker
       inkscape:stockid="DotSd7"
       orient="auto"
       refY="0"
       refX="0"
       id="DotSd7"
       style="overflow:visible">
      <path
         id="path6145"
         d="m -2.5,-1 c 0,2.76 -2.24,5 -5,5 -2.76,0 -5,-2.24 -5,-5 0,-2.76 2.24,-5 5,-5 2.76,0 5,2.24 5,5 z"
         style="fill:#ffc400;fill-rule:evenodd;stroke:#ffc400;stroke-width:1pt"
         transform="matrix(0.2,0,0,0.2,1.48,0.2)"
         inkscape:connector-curvature="0" />
    </marker>
    <marker
       inkscape:stockid="DotSyIp"
       orient="auto"
       refY="0"
       refX="0"
       id="DotSyIp"
       style="overflow:visible">
      <path
         id="path6148"
         d="m -2.5,-1 c 0,2.76 -2.24,5 -5,5 -2.76,0 -5,-2.24 -5,-5 0,-2.76 2.24,-5 5,-5 2.76,0 5,2.24 5,5 z"
         style="fill:#ffc400;fill-rule:evenodd;stroke:#ffc400;stroke-width:1pt"
         transform="matrix(0.2,0,0,0.2,1.48,0.2)"
         inkscape:connector-curvature="0" />
    </marker>
    <marker
       inkscape:stockid="DotSvS"
       orient="auto"
       refY="0"
       refX="0"
       id="DotSvS"
       style="overflow:visible">
      <path
         id="path6151"
         d="m -2.5,-1 c 0,2.76 -2.24,5 -5,5 -2.76,0 -5,-2.24 -5,-5 0,-2.76 2.24,-5 5,-5 2.76,0 5,2.24 5,5 z"
         style="fill:#ffc400;fill-rule:evenodd;stroke:#ffc400;stroke-width:1pt"
         transform="matrix(0.2,0,0,0.2,1.48,0.2)"
         inkscape:connector-curvature="0" />
    </marker>
    <marker
       inkscape:stockid="DotSsJ"
       orient="auto"
       refY="0"
       refX="0"
       id="DotSsJ"
       style="overflow:visible">
      <path
         id="path6154"
         d="m -2.5,-1 c 0,2.76 -2.24,5 -5,5 -2.76,0 -5,-2.24 -5,-5 0,-2.76 2.24,-5 5,-5 2.76,0 5,2.24 5,5 z"
         style="fill:#ffc400;fill-rule:evenodd;stroke:#ffc400;stroke-width:1pt"
         transform="matrix(0.2,0,0,0.2,1.48,0.2)"
         inkscape:connector-curvature="0" />
    </marker>
    <marker
       inkscape:stockid="DotSfb"
       orient="auto"
       refY="0"
       refX="0"
       id="DotSfb"
       style="overflow:visible">
      <path
         id="path6157"
         d="m -2.5,-1 c 0,2.76 -2.24,5 -5,5 -2.76,0 -5,-2.24 -5,-5 0,-2.76 2.24,-5 5,-5 2.76,0 5,2.24 5,5 z"
         style="fill:#ffc400;fill-rule:evenodd;stroke:#ffc400;stroke-width:1pt"
         transform="matrix(0.2,0,0,0.2,1.48,0.2)"
         inkscape:connector-curvature="0" />
    </marker>
    <marker
       inkscape:stockid="DotS7T"
       orient="auto"
       refY="0"
       refX="0"
       id="DotS7T"
       style="overflow:visible">
      <path
         id="path6160"
         d="m -2.5,-1 c 0,2.76 -2.24,5 -5,5 -2.76,0 -5,-2.24 -5,-5 0,-2.76 2.24,-5 5,-5 2.76,0 5,2.24 5,5 z"
         style="fill:#ffc400;fill-rule:evenodd;stroke:#ffc400;stroke-width:1pt"
         transform="matrix(0.2,0,0,0.2,1.48,0.2)"
         inkscape:connector-curvature="0" />
    </marker>
    <marker
       inkscape:stockid="DotSko"
       orient="auto"
       refY="0"
       refX="0"
       id="DotSko"
       style="overflow:visible">
      <path
         id="path6163"
         d="m -2.5,-1 c 0,2.76 -2.24,5 -5,5 -2.76,0 -5,-2.24 -5,-5 0,-2.76 2.24,-5 5,-5 2.76,0 5,2.24 5,5 z"
         style="fill:#ffc400;fill-rule:evenodd;stroke:#ffc400;stroke-width:1pt"
         transform="matrix(0.2,0,0,0.2,1.48,0.2)"
         inkscape:connector-curvature="0" />
    </marker>
    <marker
       inkscape:stockid="DotSKZ"
       orient="auto"
       refY="0"
       refX="0"
       id="DotSKZ"
       style="overflow:visible">
      <path
         id="path6166"
         d="m -2.5,-1 c 0,2.76 -2.24,5 -5,5 -2.76,0 -5,-2.24 -5,-5 0,-2.76 2.24,-5 5,-5 2.76,0 5,2.24 5,5 z"
         style="fill:#ffc400;fill-rule:evenodd;stroke:#ffc400;stroke-width:1pt"
         transform="matrix(0.2,0,0,0.2,1.48,0.2)"
         inkscape:connector-curvature="0" />
    </marker>
    <marker
       inkscape:stockid="DotSCa"
       orient="auto"
       refY="0"
       refX="0"
       id="DotSCa"
       style="overflow:visible">
      <path
         id="path6169"
         d="m -2.5,-1 c 0,2.76 -2.24,5 -5,5 -2.76,0 -5,-2.24 -5,-5 0,-2.76 2.24,-5 5,-5 2.76,0 5,2.24 5,5 z"
         style="fill:#ffc400;fill-rule:evenodd;stroke:#ffc400;stroke-width:1pt"
         transform="matrix(0.2,0,0,0.2,1.48,0.2)"
         inkscape:connector-curvature="0" />
    </marker>
    <marker
       inkscape:stockid="DotSLi"
       orient="auto"
       refY="0"
       refX="0"
       id="DotSLi"
       style="overflow:visible">
      <path
         id="path6172"
         d="m -2.5,-1 c 0,2.76 -2.24,5 -5,5 -2.76,0 -5,-2.24 -5,-5 0,-2.76 2.24,-5 5,-5 2.76,0 5,2.24 5,5 z"
         style="fill:#ffc400;fill-rule:evenodd;stroke:#ffc400;stroke-width:1pt"
         transform="matrix(0.2,0,0,0.2,1.48,0.2)"
         inkscape:connector-curvature="0" />
    </marker>
    <marker
       inkscape:stockid="marker5218bQ"
       orient="auto"
       refY="0"
       refX="0"
       id="marker5218bQ"
       style="overflow:visible">
      <path
         inkscape:connector-curvature="0"
         id="path6175"
         d="m -2.5,-1 c 0,2.76 -2.24,5 -5,5 -2.76,0 -5,-2.24 -5,-5 0,-2.76 2.24,-5 5,-5 2.76,0 5,2.24 5,5 z"
         style="fill:#ffc400;fill-rule:evenodd;stroke:#ffc400;stroke-width:1pt"
         transform="matrix(0.2,0,0,0.2,1.48,0.2)" />
    </marker>
    <marker
       inkscape:stockid="marker5218XM"
       orient="auto"
       refY="0"
       refX="0"
       id="marker5218XM"
       style="overflow:visible">
      <path
         inkscape:connector-curvature="0"
         id="path6178"
         d="m -2.5,-1 c 0,2.76 -2.24,5 -5,5 -2.76,0 -5,-2.24 -5,-5 0,-2.76 2.24,-5 5,-5 2.76,0 5,2.24 5,5 z"
         style="fill:#ffc400;fill-rule:evenodd;stroke:#ffc400;stroke-width:1pt"
         transform="matrix(0.2,0,0,0.2,1.48,0.2)" />
    </marker>
    <marker
       inkscape:stockid="DotSGn"
       orient="auto"
       refY="0"
       refX="0"
       id="DotSGn"
       style="overflow:visible">
      <path
         id="path6181"
         d="m -2.5,-1 c 0,2.76 -2.24,5 -5,5 -2.76,0 -5,-2.24 -5,-5 0,-2.76 2.24,-5 5,-5 2.76,0 5,2.24 5,5 z"
         style="fill:#ffc400;fill-rule:evenodd;stroke:#ffc400;stroke-width:1pt"
         transform="matrix(0.2,0,0,0.2,1.48,0.2)"
         inkscape:connector-curvature="0" />
    </marker>
    <marker
       inkscape:stockid="DotS5R"
       orient="auto"
       refY="0"
       refX="0"
       id="DotS5R"
       style="overflow:visible">
      <path
         id="path6184"
         d="m -2.5,-1 c 0,2.76 -2.24,5 -5,5 -2.76,0 -5,-2.24 -5,-5 0,-2.76 2.24,-5 5,-5 2.76,0 5,2.24 5,5 z"
         style="fill:#ffc400;fill-rule:evenodd;stroke:#ffc400;stroke-width:1pt"
         transform="matrix(0.2,0,0,0.2,1.48,0.2)"
         inkscape:connector-curvature="0" />
    </marker>
    <marker
       inkscape:stockid="DotSd7"
       orient="auto"
       refY="0"
       refX="0"
       id="DotSd7-9"
       style="overflow:visible">
      <path
         inkscape:connector-curvature="0"
         id="path6145-2"
         d="m -2.5,-1 c 0,2.76 -2.24,5 -5,5 -2.76,0 -5,-2.24 -5,-5 0,-2.76 2.24,-5 5,-5 2.76,0 5,2.24 5,5 z"
         style="fill:#ffc400;fill-rule:evenodd;stroke:#ffc400;stroke-width:1pt"
         transform="matrix(0.2,0,0,0.2,1.48,0.2)" />
    </marker>
    <marker
       inkscape:stockid="DotSyIp"
       orient="auto"
       refY="0"
       refX="0"
       id="DotSyIp-9"
       style="overflow:visible">
      <path
         inkscape:connector-curvature="0"
         id="path6148-2"
         d="m -2.5,-1 c 0,2.76 -2.24,5 -5,5 -2.76,0 -5,-2.24 -5,-5 0,-2.76 2.24,-5 5,-5 2.76,0 5,2.24 5,5 z"
         style="fill:#ffc400;fill-rule:evenodd;stroke:#ffc400;stroke-width:1pt"
         transform="matrix(0.2,0,0,0.2,1.48,0.2)" />
    </marker>
    <marker
       inkscape:stockid="DotSGn"
       orient="auto"
       refY="0"
       refX="0"
       id="DotSGn-0"
       style="overflow:visible">
      <path
         inkscape:connector-curvature="0"
         id="path6181-6"
         d="m -2.5,-1 c 0,2.76 -2.24,5 -5,5 -2.76,0 -5,-2.24 -5,-5 0,-2.76 2.24,-5 5,-5 2.76,0 5,2.24 5,5 z"
         style="fill:#ffc400;fill-rule:evenodd;stroke:#ffc400;stroke-width:1pt"
         transform="matrix(0.2,0,0,0.2,1.48,0.2)" />
    </marker>
    <marker
       inkscape:stockid="DotS5R"
       orient="auto"
       refY="0"
       refX="0"
       id="DotS5R-3"
       style="overflow:visible">
      <path
         inkscape:connector-curvature="0"
         id="path6184-9"
         d="m -2.5,-1 c 0,2.76 -2.24,5 -5,5 -2.76,0 -5,-2.24 -5,-5 0,-2.76 2.24,-5 5,-5 2.76,0 5,2.24 5,5 z"
         style="fill:#ffc400;fill-rule:evenodd;stroke:#ffc400;stroke-width:1pt"
         transform="matrix(0.2,0,0,0.2,1.48,0.2)" />
    </marker>
    <marker
       inkscape:stockid="marker5218bQ"
       orient="auto"
       refY="0"
       refX="0"
       id="marker5218bQ-7"
       style="overflow:visible">
      <path
         inkscape:connector-curvature="0"
         id="path6175-9"
         d="m -2.5,-1 c 0,2.76 -2.24,5 -5,5 -2.76,0 -5,-2.24 -5,-5 0,-2.76 2.24,-5 5,-5 2.76,0 5,2.24 5,5 z"
         style="fill:#ffc400;fill-rule:evenodd;stroke:#ffc400;stroke-width:1pt"
         transform="matrix(0.2,0,0,0.2,1.48,0.2)" />
    </marker>
    <marker
       inkscape:stockid="marker5218XM"
       orient="auto"
       refY="0"
       refX="0"
       id="marker5218XM-8"
       style="overflow:visible">
      <path
         inkscape:connector-curvature="0"
         id="path6178-2"
         d="m -2.5,-1 c 0,2.76 -2.24,5 -5,5 -2.76,0 -5,-2.24 -5,-5 0,-2.76 2.24,-5 5,-5 2.76,0 5,2.24 5,5 z"
         style="fill:#ffc400;fill-rule:evenodd;stroke:#ffc400;stroke-width:1pt"
         transform="matrix(0.2,0,0,0.2,1.48,0.2)" />
    </marker>
    <marker
       inkscape:stockid="marker5218bQ"
       orient="auto"
       refY="0"
       refX="0"
       id="marker5218bQ-9"
       style="overflow:visible">
      <path
         inkscape:connector-curvature="0"
         id="path6175-95"
         d="m -2.5,-1 c 0,2.76 -2.24,5 -5,5 -2.76,0 -5,-2.24 -5,-5 0,-2.76 2.24,-5 5,-5 2.76,0 5,2.24 5,5 z"
         style="fill:#ffc400;fill-rule:evenodd;stroke:#ffc400;stroke-width:1pt"
         transform="matrix(0.2,0,0,0.2,1.48,0.2)" />
    </marker>
    <marker
       inkscape:stockid="marker5218XM"
       orient="auto"
       refY="0"
       refX="0"
       id="marker5218XM-4"
       style="overflow:visible">
      <path
         inkscape:connector-curvature="0"
         id="path6178-29"
         d="m -2.5,-1 c 0,2.76 -2.24,5 -5,5 -2.76,0 -5,-2.24 -5,-5 0,-2.76 2.24,-5 5,-5 2.76,0 5,2.24 5,5 z"
         style="fill:#ffc400;fill-rule:evenodd;stroke:#ffc400;stroke-width:1pt"
         transform="matrix(0.2,0,0,0.2,1.48,0.2)" />
    </marker>
    <marker
       inkscape:stockid="DotSGn"
       orient="auto"
       refY="0"
       refX="0"
       id="DotSGn-08"
       style="overflow:visible">
      <path
         inkscape:connector-curvature="0"
         id="path6181-5"
         d="m -2.5,-1 c 0,2.76 -2.24,5 -5,5 -2.76,0 -5,-2.24 -5,-5 0,-2.76 2.24,-5 5,-5 2.76,0 5,2.24 5,5 z"
         style="fill:#ffc400;fill-rule:evenodd;stroke:#ffc400;stroke-width:1pt"
         transform="matrix(0.2,0,0,0.2,1.48,0.2)" />
    </marker>
    <marker
       inkscape:stockid="DotS5R"
       orient="auto"
       refY="0"
       refX="0"
       id="DotS5R-8"
       style="overflow:visible">
      <path
         inkscape:connector-curvature="0"
         id="path6184-1"
         d="m -2.5,-1 c 0,2.76 -2.24,5 -5,5 -2.76,0 -5,-2.24 -5,-5 0,-2.76 2.24,-5 5,-5 2.76,0 5,2.24 5,5 z"
         style="fill:#ffc400;fill-rule:evenodd;stroke:#ffc400;stroke-width:1pt"
         transform="matrix(0.2,0,0,0.2,1.48,0.2)" />
    </marker>
    <marker
       inkscape:stockid="marker4516Ct"
       orient="auto"
       refY="0"
       refX="0"
       id="marker4516Ct-0"
       style="overflow:visible">
      <path
         inkscape:connector-curvature="0"
         id="path6127-3"
         d="m -2.5,-1 c 0,2.76 -2.24,5 -5,5 -2.76,0 -5,-2.24 -5,-5 0,-2.76 2.24,-5 5,-5 2.76,0 5,2.24 5,5 z"
         style="fill:#ffc400;fill-rule:evenodd;stroke:#ffc400;stroke-width:1pt"
         transform="matrix(0.2,0,0,0.2,1.48,0.2)" />
    </marker>
    <marker
       inkscape:stockid="marker451623"
       orient="auto"
       refY="0"
       refX="0"
       id="marker451623-8"
       style="overflow:visible">
      <path
         inkscape:connector-curvature="0"
         id="path6130-8"
         d="m -2.5,-1 c 0,2.76 -2.24,5 -5,5 -2.76,0 -5,-2.24 -5,-5 0,-2.76 2.24,-5 5,-5 2.76,0 5,2.24 5,5 z"
         style="fill:#ffc400;fill-rule:evenodd;stroke:#ffc400;stroke-width:1pt"
         transform="matrix(0.2,0,0,0.2,1.48,0.2)" />
    </marker>
    <marker
       inkscape:stockid="marker5218bQ"
       orient="auto"
       refY="0"
       refX="0"
       id="marker5218bQ-0"
       style="overflow:visible">
      <path
         inkscape:connector-curvature="0"
         id="path6175-8"
         d="m -2.5,-1 c 0,2.76 -2.24,5 -5,5 -2.76,0 -5,-2.24 -5,-5 0,-2.76 2.24,-5 5,-5 2.76,0 5,2.24 5,5 z"
         style="fill:#ffc400;fill-rule:evenodd;stroke:#ffc400;stroke-width:1pt"
         transform="matrix(0.2,0,0,0.2,1.48,0.2)" />
    </marker>
    <marker
       inkscape:stockid="marker5218XM"
       orient="auto"
       refY="0"
       refX="0"
       id="marker5218XM-86"
       style="overflow:visible">
      <path
         inkscape:connector-curvature="0"
         id="path6178-7"
         d="m -2.5,-1 c 0,2.76 -2.24,5 -5,5 -2.76,0 -5,-2.24 -5,-5 0,-2.76 2.24,-5 5,-5 2.76,0 5,2.24 5,5 z"
         style="fill:#ffc400;fill-rule:evenodd;stroke:#ffc400;stroke-width:1pt"
         transform="matrix(0.2,0,0,0.2,1.48,0.2)" />
    </marker>
    <circle
       transform="matrix(0.8755829,0,0,0.8755829,152.4506,-680.83707)"
       id="path6572"
       style="fill:none;stroke:none"
       cx="675.71429"
       cy="777.58148"
       r="584.28571" />
    <circle
       transform="matrix(-1.1162727,-0.04357729,-0.04357729,1.1162727,1532.2608,-838.54723)"
       id="path6572-9"
       style="fill:none;stroke:none"
       cx="675.71429"
       cy="777.58148"
       r="584.28571" />
  </defs>
  <metadata
     id="metadata7">
    <rdf:RDF>
      <cc:Work
         rdf:about="">
        <dc:format>image/svg+xml</dc:format>
        <dc:type
           rdf:resource="http://purl.org/dc/dcmitype/StillImage" />
        <dc:title />
      </cc:Work>
    </rdf:RDF>
  </metadata>
  <g
     inkscape:label="Ebene 1"
     inkscape:groupmode="layer"
     id="layer1"
     transform="translate(0,-783.07098)">
    <path
       id="path5802-1-3-0"
       style="fill:#000000;fill-opacity:1;stroke:none;stroke-width:0.582589;stroke-miterlimit:4;stroke-dasharray:none;stroke-opacity:1"
       d="m 94.347271,783.07098 c -47.8855,0.0125 -88.9306597,36.31206 -93.85937975,84.97071 -5.25731995,51.9026 32.57398975,98.26029 84.47655975,103.51758 51.902619,5.25737 98.268089,-32.57391 103.525399,-84.47657 5.25734,-51.90262 -32.57985,-98.26221 -84.48242,-103.51953 -3.24298,-0.32849 -6.466819,-0.49302 -9.660159,-0.49219 z m -4.83008,7.86133 c 0.27211,-0.0318 0.46035,0.11656 0.49218,0.38867 l 0.28321,2.42383 c 0.0318,0.27211 -0.11852,0.46039 -0.39063,0.49219 l -6.5039,0.75976 c -0.27212,0.0318 -0.42051,0.22008 -0.38868,0.49219 l 0.35352,3.01953 c 0.0318,0.2721 0.22007,0.42048 0.49219,0.38868 l 5.33789,-0.62305 c 0.27211,-0.0318 0.46036,0.11656 0.49219,0.38867 l 0.2832,2.42188 c 0.0318,0.27211 -0.11656,0.46038 -0.38867,0.49218 l -5.32617,0.62305 c -0.28508,0.0333 -0.43418,0.22202 -0.40235,0.49414 l 0.61524,5.26172 c 0.0318,0.27211 -0.11657,0.45843 -0.38868,0.49023 l -2.74804,0.32227 c -0.27211,0.0318 -0.45841,-0.11656 -0.49024,-0.38867 l -1.8457,-15.76953 c -0.0318,-0.27211 0.11851,-0.46039 0.39062,-0.49219 z m 12.332029,0.0508 3.32227,0.53711 c 0.21893,0.0355 0.33632,0.12122 0.39062,0.27539 l 1.28907,4.1211 c 0.0982,0.37274 0.40243,1.58435 0.49023,2.02148 l 0.0781,0.0137 c 0.10041,-1.02781 0.53854,-1.69765 1.60156,-3.2832 l 1.53711,-2.06446 c 0.1023,-0.1423 0.26501,-0.16787 0.44531,-0.13867 l 3.49023,0.56641 c 0.14166,0.023 0.21192,0.16456 0.19532,0.26758 -0.0105,0.0644 -0.0375,0.14123 -0.0566,0.17773 l -5.67579,7.2207 c -0.049,0.0581 -0.0987,0.11693 -0.11328,0.20703 -0.0146,0.0901 0.0274,0.16245 0.0664,0.24805 l 2.99609,8.17774 c 0.0392,0.0856 0.0456,0.12515 0.0352,0.18945 -0.0229,0.1416 -0.17323,0.1835 -0.35352,0.1543 l -3.375,-0.54688 c -0.28332,-0.0459 -0.3933,-0.18219 -0.4414,-0.375 l -1.23242,-4.13867 c -0.0982,-0.37274 -0.39267,-1.41053 -0.48047,-1.84766 l -0.0781,-0.0137 c -0.11891,0.73405 -0.74335,1.90246 -1.63867,3.10547 l -1.54101,2.08985 c -0.11935,0.16566 -0.27918,0.25869 -0.5625,0.21289 l -3.324219,-0.53907 c -0.20601,-0.0334 -0.28472,-0.11224 -0.26172,-0.2539 0.0105,-0.0644 0.0486,-0.13722 0.0977,-0.19532 l 5.740239,-7.29101 c 0.0661,-0.0818 0.0912,-0.1564 0.10156,-0.2207 0.0146,-0.0901 -0.001,-0.15977 -0.0293,-0.23047 l -2.9707,-8.0918 c -0.0191,-0.0428 -0.0203,-0.1102 -0.008,-0.1875 0.0167,-0.10301 0.13684,-0.18887 0.26562,-0.16797 z m -33.142579,3.79883 c 2.11756,-0.0683 3.51328,1.07832 4.24219,3.16602 l 2.59375,7.42773 c 0.93318,2.67275 -0.14787,5.03928 -3.49805,6.20898 l -1.75976,0.61524 c -3.47336,1.21269 -5.63164,0.10002 -6.60352,-2.68359 l -2.59375,-7.42774 c -0.92888,-2.66043 0.14786,-5.03928 3.49805,-6.20898 l 1.76172,-0.61524 c 0.86833,-0.30317 1.65352,-0.45966 2.35937,-0.48242 z m 52.630859,0.24609 c 0.058,0.002 0.12022,0.017 0.1836,0.043 l 2.55859,1.04883 c 0.25349,0.1039 0.3461,0.32463 0.24219,0.57813 l -2.16211,5.27539 c -0.1039,0.2535 -0.0113,0.47421 0.24219,0.57812 l 4.40625,1.80664 c 0.25349,0.10391 0.47421,0.0113 0.57812,-0.24218 l 2.16211,-5.2754 c 0.10392,-0.25349 0.32659,-0.34609 0.58008,-0.24218 l 2.55859,1.04883 c 0.25348,0.10391 0.3461,0.32462 0.24219,0.57812 l -6.07226,14.8125 c -0.10391,0.25349 -0.32463,0.3461 -0.57813,0.24219 l -2.55859,-1.04883 c -0.25349,-0.10391 -0.3461,-0.32659 -0.24219,-0.58008 l 2.31055,-5.63672 c 0.1039,-0.2535 0.0113,-0.47421 -0.24219,-0.57812 l -4.40625,-1.80664 c -0.25349,-0.10391 -0.47422,-0.0113 -0.57813,0.24218 l -2.31054,5.63672 c -0.10392,0.25348 -0.32659,0.3461 -0.58008,0.24219 l -2.55859,-1.04883 c -0.25349,-0.10391 -0.34611,-0.32463 -0.24219,-0.57812 l 6.07226,-14.81055 c 0.0779,-0.19011 0.22049,-0.29107 0.39453,-0.28516 z m -53.189449,3.27149 c -0.22401,-0.0127 -0.46182,0.0205 -0.70508,0.10547 l -1.75977,0.61523 c -0.98535,0.34403 -1.3358,1.32293 -1.01758,2.23438 l 2.33594,6.6875 c 0.33973,0.97303 1.21252,1.45691 2.18555,1.11718 l 1.76172,-0.61523 c 0.98536,-0.34402 1.33815,-1.31061 1.01562,-2.23438 l -2.33398,-6.6875 c -0.2548,-0.72977 -0.81039,-1.1846 -1.48242,-1.22265 z m -19.10743,4.94336 c 0.0637,-0.003 0.1203,0.0198 0.16211,0.0781 0.038,0.053 0.0545,0.12063 0.0684,0.20703 l 1.50977,10.52344 3.84766,5.36523 c 0.15965,0.22264 0.12107,0.45949 -0.10157,0.61914 l -2.24804,1.61133 c -0.22264,0.15965 -0.45949,0.12108 -0.61914,-0.10156 l -3.84571,-5.36524 -9.47265,-4.81445 c -0.0774,-0.0408 -0.11629,-0.0935 -0.1543,-0.14649 -0.0836,-0.11662 -0.0681,-0.20843 0.10156,-0.33007 l 2.49219,-1.78516 c 0.11662,-0.0836 0.26948,-0.11411 0.45313,-0.0371 l 3.66601,1.86523 c 1.1143,0.61366 2.27319,1.35662 2.54688,1.73829 l 0.10546,-0.0762 c -0.26608,-0.37107 -0.6922,-1.63794 -0.90234,-2.91602 l -0.64453,-4.0332 c -0.0458,-0.17583 0.0541,-0.3283 0.16016,-0.4043 l 2.67187,-1.91602 c 0.0689,-0.0493 0.13944,-0.0785 0.20312,-0.082 z m 93.892589,2.66797 c 0.0862,0.006 0.17251,0.0405 0.25195,0.0977 l 3.20898,2.30859 c 0.15888,0.11424 0.24399,0.2861 0.17969,0.46484 l -5.61914,16.01368 c -0.0245,0.0787 -0.0397,0.10101 -0.0625,0.13281 -0.0762,0.1056 -0.18683,0.10447 -0.3457,-0.01 l -2.62695,-1.88867 c -0.11618,-0.0838 -0.15378,-0.1896 -0.10938,-0.31836 l 0.85156,-2.23242 c 0.0444,-0.12877 0.007,-0.18848 -0.15234,-0.30274 l -4.07813,-2.93164 c -0.16947,-0.1219 -0.22799,-0.13193 -0.33593,-0.0488 l -1.84571,1.51758 c -0.10793,0.0825 -0.22025,0.082 -0.32617,0.006 l -2.61523,-1.88086 c -0.15885,-0.11425 -0.20501,-0.22807 -0.12891,-0.33398 0.0381,-0.053 0.12625,-0.13418 0.18555,-0.17188 0.0334,-0.0242 13.32226,-10.3457 13.32226,-10.3457 0.0745,-0.0589 0.15986,-0.082 0.2461,-0.0762 z m -0.94336,4.73242 -0.36524,0.39648 -4.51953,3.69141 c -0.13078,0.11485 -0.13792,0.2379 0.0527,0.375 l 2.48828,1.79101 c 0.19065,0.13707 0.31551,0.098 0.38281,-0.0625 l 2.07227,-5.45312 0.25976,-0.4707 z m -107.349619,3.90234 c 0.10834,-0.004 0.21835,0.0412 0.31836,0.13477 l 1.78125,1.66601 c 0.20003,0.1872 0.20869,0.42693 0.0215,0.62696 l -1.99804,2.13476 c -0.18721,0.20003 -0.17855,0.43976 0.0215,0.62696 l 9.16406,8.57617 c 0.20003,0.1872 0.20673,0.42692 0.0195,0.62695 l -1.88867,2.01953 c -0.1872,0.20006 -0.42692,0.20673 -0.62696,0.0195 l -9.16406,-8.57422 c -0.20003,-0.18728 -0.43975,-0.1805 -0.62695,0.0195 l -1.9961,2.13477 c -0.1872,0.20006 -0.42692,0.20673 -0.62695,0.0195 l -1.78125,-1.66602 c -0.20003,-0.1872 -0.20868,-0.42692 -0.0215,-0.62695 l 7.0957,-7.58203 c 0.0936,-0.10003 0.20026,-0.15266 0.3086,-0.15625 z m 59.84962,0.36524 c 26.648909,-1.7e-4 50.373649,16.85026 59.152339,42.01172 l 0.40039,1.14843 11.81836,-6.95312 2.66016,4.32422 -11.50391,18.24414 0.0195,0.31836 c 0.0677,1.18364 0.10113,2.3691 0.10157,3.55469 1.4e-4,34.61234 -28.03608,62.64857 -62.648439,62.64843 -10.43453,-4.1e-4 -20.70548,-2.60583 -29.87696,-7.58203 l -1.47852,-0.80273 0.0293,9.67773 -17.1914,0.006 -0.18164,-21.1582 -12.82813,-15.23438 3.35938,-4.27734 -0.20899,-0.53125 c -2.82507,-7.25052 -4.27348,-14.96465 -4.27343,-22.74609 6.7e-4,-34.61184 28.03859,-62.64858 62.65039,-62.64844 z m 59.999999,0.51172 c 0.10839,5.3e-4 0.21811,0.0491 0.31445,0.14648 l 1.94531,1.9668 c 0.19303,0.19475 0.19085,0.43426 -0.004,0.62695 l -11.37891,11.25781 c -0.19476,0.19304 -0.43426,0.19281 -0.62695,-0.002 l -1.94531,-1.96679 c -0.19303,-0.19475 -0.1928,-0.43428 0.002,-0.62696 l 11.37891,-11.25781 c 0.0974,-0.0965 0.20606,-0.14507 0.31445,-0.14453 z m 7.38867,7.82617 c 0.10666,0.0193 0.20515,0.0866 0.2832,0.19922 l 1.45703,2.10156 c 0.0966,0.13937 0.11831,0.28478 0.0664,0.41601 l -4.45311,9.42188 c -0.25042,0.55464 -0.65013,1.2589 -0.75977,1.39844 l 0.0586,0.0859 c 0.86566,-0.9495 2.46627,-2.32797 3.67774,-3.16797 l 4.40625,-3.05469 c 0.22515,-0.15611 0.46108,-0.11381 0.61719,0.11133 l 1.57617,2.27344 c 0.1561,0.22514 0.11381,0.46107 -0.11133,0.61718 l -13.15625,9.1211 c -0.22514,0.15611 -0.46108,0.11186 -0.61719,-0.11328 l -1.4414,-2.07813 c -0.0967,-0.13937 -0.11999,-0.26643 -0.0508,-0.4414 l 4.13672,-9.28125 c 0.28258,-0.57696 0.58806,-1.07567 0.63086,-1.10547 l -0.0605,-0.0859 c -0.49215,0.59526 -1.87681,1.77814 -3.28125,2.75195 l -4.38477,3.04102 c -0.22514,0.15611 -0.46109,0.11381 -0.61719,-0.11133 l -1.57621,-2.27344 c -0.15611,-0.22514 -0.1138,-0.46108 0.11133,-0.61719 l 13.1543,-9.12109 c 0.11256,-0.078 0.22732,-0.1072 0.33398,-0.0879 z m -137.273439,5.93164 c 0.96855,-0.0339 1.98842,0.25071 3.0039,0.85937 1.5554,0.93226 2.35715,2.23391 2.36914,3.99024 7e-5,0.15214 0.0335,0.24718 0.12305,0.30078 0.0895,0.0537 0.16966,0.0717 0.2793,0.0918 l 6.65234,1.00586 c 0.29535,0.0401 0.46712,0.0831 0.55664,0.13672 0.0895,0.0537 0.12685,0.1979 0.0195,0.37695 l -1.62304,2.70703 c -0.0537,0.0895 -0.15783,0.13499 -0.31446,0.11719 l -6.5664,-0.9707 c -0.13873,-0.0223 -0.23652,0.0399 -0.29688,0.14062 l -1.16015,1.93555 c -0.14085,0.23498 -0.0826,0.46853 0.15234,0.60937 l 4.83398,2.89649 c 0.23499,0.14085 0.29319,0.37438 0.15235,0.60937 l -1.42188,2.3711 c -0.14084,0.23501 -0.37438,0.29514 -0.60937,0.15429 l -13.617189,-8.16406 c -0.23499,-0.14085 -0.293191,-0.37243 -0.152344,-0.60742 l 3.460933,-5.77344 c 1.07312,-1.79039 2.54396,-2.73065 4.15821,-2.78711 z m 0.0957,3.51758 c -0.53415,0.0573 -1.04971,0.3928 -1.38086,0.94531 l -1.60352,2.67383 c -0.14084,0.23499 -0.0827,0.46852 0.15235,0.60937 l 2.41796,1.44922 c 0.23499,0.14084 0.46658,0.0826 0.60743,-0.15234 l 1.60351,-2.67578 c 0.51644,-0.86163 0.3355,-1.92811 -0.45898,-2.4043 l -0.39258,-0.23438 c -0.29793,-0.17857 -0.62483,-0.2453 -0.94531,-0.21093 z m 94.796879,11.73828 c 0,0 -8.34135,1.1064 -11.29297,3.01172 -2.95163,1.90531 -8.841859,8.44579 -14.679689,14.07812 -0.0299,-0.61245 -0.0797,-1.18147 -0.18359,-1.60547 -0.61002,-2.48998 -3.66787,-10.96172 -7.0918,-13.18164 -0.63115,-0.40921 -1.3696,-0.57996 -2.16211,-0.56836 v 0.002 c -3.43422,0.0504 -7.9122,3.50177 -9.33985,5.60352 -4.25527,6.26448 -3.28235,9.65775 -4.14062,11.11328 -0.51836,0.28888 -0.95112,0.59362 -1.29102,0.91602 -0.76727,0.22436 -0.81405,-0.76267 -4.43164,-2.26368 -3.37648,-1.40094 -5.23898,0.34214 -5.84375,3.94532 -0.6004,3.57717 -0.0753,6.2681 2.15625,8.82812 -4.19709,9.09026 -5.30239,13.54533 -2.08008,20.69141 0.2497,0.55375 0.54476,1.07199 0.85547,1.57617 -0.36289,0.23235 -0.62933,0.5883 -0.75,1.00196 l -2.46875,8.46289 -9.62109,-0.21094 c -0.0143,-0.29885 -0.0507,-0.5912 -0.11328,-0.875 -0.0194,-0.10713 -0.0537,-0.20794 -0.0801,-0.3125 -0.0215,-0.075 -0.0437,-0.14911 -0.0684,-0.22266 -0.42414,-1.39402 -1.43805,-2.52864 -2.77149,-3.08008 -0.67046,-0.31185 -1.4105,-0.49804 -2.19726,-0.49804 -2.89042,0 -5.24024,2.34982 -5.24024,5.24023 0,2.89042 2.34982,5.2422 5.24024,5.24219 0.74315,0 1.44864,-0.15941 2.08984,-0.43945 l 8.64453,14.06836 v 11.25585 l -3.54687,-0.043 c -0.85676,-0.0105 -1.56003,0.67449 -1.57032,1.53125 -0.0105,0.85675 0.67645,1.56001 1.53321,1.57031 l 10.6289,0.13086 c 0.85617,0.0105 1.5592,-0.67509 1.57032,-1.53125 0.0105,-0.85675 -0.6745,-1.55806 -1.53125,-1.56836 l -3.98047,-0.0508 v -11.83203 l 9.21093,-18.19727 -4.48046,-0.0977 c 0.60109,-2.0605 1.20351,-4.12117 1.80468,-6.18164 l 0.44532,0.0254 c 0.64823,0.62215 1.13798,0.90952 1.83719,1.43251 0,0 0.40572,-0.32844 0.6589,-0.51649 3.74228,-2.76145 8.05062,-6.06835 14.12891,-7.48633 0.58225,-0.66917 1.23016,-1.58011 1.56054,-2.61133 0.68253,-2.1304 1.69225,-7.37585 2.27149,-5.70898 0.50281,1.44698 0.005,6.39297 -0.14258,7.73633 1.30072,-0.11266 2.4704,-0.11596 3.50976,-0.0352 0.61249,-0.78556 1.28149,-1.79561 1.74414,-2.96094 0.98106,-2.47106 1.60281,-8.30239 1.95899,-8.21875 0.0509,0.0119 0.0964,0.14538 0.13672,0.42578 0.30627,2.1283 0.99032,9.14195 0.2207,11.60938 0.069,0.026 0.14652,0.0497 0.21289,0.0762 1.79897,0.71662 2.73242,1.68555 2.73243,1.68555 0.43673,0.47359 0.407,1.21151 -0.0664,1.64844 -0.47359,0.43672 -1.21151,0.407 -1.64844,-0.0664 0,0 -0.44909,-0.53043 -1.88281,-1.10156 -1.43374,-0.57114 -3.7652,-1.08728 -7.30078,-0.68946 -7.08164,0.79683 -11.67731,4.34844 -16.04883,7.57422 -0.043,0.031 -0.0699,0.0608 -0.11664,0.0857 3.26955,2.05799 6.52275,3.18722 7.91351,3.71509 6.38126,2.24409 17.17305,0.9932 25.55274,-2.9707 1.987399,-0.94011 3.794689,-1.8153 5.521479,-2.67578 0.74632,3.97024 -2.28647,7.71214 6.65625,14.2793 2.57526,1.89118 11.33147,0.119 12.38477,-3.82813 1.0533,-3.94714 -7.51888,-0.47239 -7.99024,-1.50976 -0.69896,-1.61402 2.53007,-6.3162 1.95118,-6.93946 -0.62758,-1.01322 -5.07026,0.66744 -5.09766,-0.11914 -0.0265,-0.75942 2.15665,-3.40271 1.94336,-7.24414 1.86899,-1.12131 3.77271,-2.32015 5.82031,-3.68359 6.35763,-4.23339 14.36885,-6.95299 17.82227,-9.82031 2.37664,2.17737 6.74923,6.33151 8.28906,8.85742 2.14316,3.51554 4.01758,8.80664 4.01758,8.80664 0,0 2.13779,-10.48815 1.34765,-14.29688 -0.79016,-3.8087 -2.9536,-1.59454 -4.83398,-3.12109 -1.88037,-1.52656 -2.04489,-2.81186 0.17969,-4.43555 2.22456,-1.62367 6.32617,-1.23242 6.32617,-1.23242 0,0 -2.70237,-1.55859 -4.68555,-3.22657 -1.98316,-1.66797 -1.07729,-2.59789 1.46289,-5.02148 2.54018,-2.42362 6.81836,-1.5918 6.81836,-1.5918 l 7.4043,-11.72851 c 0,0 -21.45928,12.13956 -28.48828,18.89062 -2.23281,-0.34724 -5.23636,-0.56841 -8.38672,-1.48047 -4.06803,-1.17774 -13.80735,-2.67147 -19.83008,-4.35156 l 7.41602,-5.63476 -7.66602,-3.31641 5.24805,-4.93164 -3.70899,0.006 c 0,0 4.21275,-2.99847 5.92383,-5.60156 1.71105,-2.60309 3.69922,-4.20704 3.69922,-4.20704 z m -105.568367,0.5 c 0.05801,-0.002 0.120534,0.008 0.185547,0.0293 l 2.314453,0.76758 c 0.260045,0.0862 0.36745,0.30049 0.28125,0.56054 l -2.060547,6.2168 c -0.0862,0.26006 0.02315,0.47435 0.283204,0.56055 l 2.314453,0.76757 c 0.260051,0.0862 0.474345,-0.0231 0.560547,-0.2832 l 1.691411,-5.10156 c 0.0862,-0.26008 0.30049,-0.36745 0.56054,-0.28125 l 2.31641,0.76758 c 0.26004,0.0862 0.36745,0.30049 0.28125,0.56054 l -1.69141,5.10157 c -0.0862,0.26005 0.0212,0.47434 0.28125,0.56054 l 2.43946,0.8086 c 0.26005,0.0862 0.47434,-0.0212 0.56054,-0.28125 l 2.06055,-6.2168 c 0.0862,-0.26008 0.30049,-0.36745 0.56055,-0.28125 l 2.3164,0.76758 c 0.26005,0.0862 0.36745,0.3005 0.28125,0.56054 l -3.21094,9.68555 c -0.0862,0.26007 -0.30049,0.36745 -0.56054,0.28125 L 10.62461,855.49093 c -0.260045,-0.0862 -0.36745,-0.30049 -0.28125,-0.56055 l 3.210937,-9.6836 c 0.06465,-0.19506 0.200965,-0.30445 0.375,-0.31054 z m 68.791018,4.90234 c 0.56793,0.0212 1.13229,0.13161 1.6875,0.33594 2.22084,0.81732 3.9133,3.00629 4.83984,5.96094 0.92654,2.95466 1.06576,6.6505 0.17969,10.35547 -0.88607,3.70497 -2.62756,6.70682 -4.70313,8.55664 -2.07556,1.84982 -4.45689,2.54192 -6.67773,1.72461 -2.22085,-0.81732 -3.91135,-3.00824 -4.83789,-5.9629 -0.92654,-2.95466 -1.06772,-6.64855 -0.18164,-10.35351 0.88606,-3.70497 2.62756,-6.70877 4.70312,-8.55859 1.55668,-1.38736 3.28644,-2.12222 4.99024,-2.0586 z m -38.72461,7.85742 c -2.19785,0 -3.99219,1.79433 -3.99219,3.99219 0,2.19785 1.79434,3.99219 3.99219,3.99219 2.19785,0 3.99023,-1.79434 3.99023,-3.99219 0,-2.19786 -1.79238,-3.99219 -3.99023,-3.99219 z m 0,1.10547 c 1.60065,-10e-6 2.88476,1.28606 2.88476,2.88672 0,1.60064 -1.28412,2.88672 -2.88476,2.88672 -1.60065,0 -2.88867,-1.28608 -2.88867,-2.88672 0,-1.60066 1.28802,-2.88673 2.88867,-2.88672 z m -31.36133,3.46485 c 0.358688,-0.0168 0.732348,-0.004 1.123047,0.0391 l 0.402344,0.043 c 2.619793,0.28536 4.906083,2.32016 4.517578,5.88671 l -0.271484,2.49024 c -0.02967,0.27236 0.120223,0.45858 0.392578,0.48828 l 5.201177,0.56641 c 0.27235,0.0297 0.42223,0.21787 0.39257,0.49023 l -0.30078,2.74805 c -0.0297,0.27236 -0.21592,0.42423 -0.48828,0.39453 l -15.7831987,-1.7207 c -0.272355,-0.0297 -0.422238,-0.21593 -0.392578,-0.48828 l 0.667969,-6.13477 c 0.338705,-3.10938 2.0282477,-4.68546 4.5390617,-4.80273 z m 50.86719,0.38476 c 0.82375,-10e-4 1.69051,0.36225 2.50195,1.0293 1.08192,0.88937 2.0427,2.31478 2.59766,4.05664 0.24316,0.76322 0.36948,1.51669 0.42383,2.24219 -0.30113,-1.25792 -1.30848,-2.13165 -2.45899,-2.13282 -1.40856,-3.9e-4 -2.55065,1.29299 -2.55078,2.88868 1.3e-4,1.59569 1.14222,2.88906 2.55078,2.88867 1.12925,-10e-4 2.12337,-0.84348 2.44336,-2.07031 -0.0402,0.34775 -0.0965,0.68345 -0.18164,0.99609 -0.36803,1.35134 -1.12695,2.31686 -2.17383,2.65039 -1.04688,0.33354 -2.22472,-0.0149 -3.30664,-0.9043 -1.08191,-0.88937 -2.04269,-2.31478 -2.59765,-4.05664 -0.55496,-1.74185 -0.59654,-3.46118 -0.22852,-4.8125 0.36803,-1.35133 1.12694,-2.31686 2.17383,-2.65039 0.26172,-0.0834 0.53205,-0.12461 0.80664,-0.125 z m 17.33008,0.59375 c -2.16793,0.0336 -3.9081,1.82939 -3.90821,4.0332 3.7e-4,2.22763 1.77715,4.03326 3.96875,4.03321 2.19161,5e-5 3.96839,-1.80558 3.96875,-4.03321 -3.6e-4,-2.22762 -1.77714,-4.03325 -3.96875,-4.0332 -0.0202,-1.5e-4 -0.0404,-1.5e-4 -0.0606,0 z m -67.806645,2.49414 c -0.893066,0.0701 -1.517579,0.7285 -1.615234,1.625 l -0.279297,2.56836 c -0.02967,0.27236 0.120223,0.45858 0.392578,0.48828 l 3.09961,0.33789 c 0.272355,0.0297 0.458621,-0.12021 0.488281,-0.39257 l 0.279297,-2.56836 c 0.111607,-1.02457 -0.489409,-1.88969 -1.591797,-2.00977 l -0.375,-0.041 c -0.137799,-0.015 -0.270857,-0.0178 -0.398438,-0.008 z m 37.601565,5.45313 c -1.52759,0 -2.77735,1.24975 -2.77735,2.77734 0,1.52759 1.24976,2.77732 2.77735,2.77735 1.52759,0 2.77734,-1.24976 2.77734,-2.77735 0,-1.52759 -1.24975,-2.77735 -2.77734,-2.77734 z m 0,1.10547 c 0.93038,0 1.67383,0.74149 1.67383,1.67187 0,0.93038 -0.74345,1.67188 -1.67383,1.67188 -0.93038,0 -1.67188,-0.7415 -1.67188,-1.67188 0,-0.93038 0.7415,-1.67187 1.67188,-1.67187 z m 123.746099,1.39062 c 0.0399,0.003 0.0752,0.0244 0.10938,0.0547 0.0341,0.0302 0.068,0.0706 0.10351,0.12109 0.071,0.10098 0.14762,0.24128 0.22852,0.40821 0.16181,0.33386 0.33961,0.77657 0.51562,1.22656 0.17601,0.44999 0.34971,0.90714 0.49805,1.26758 0.0742,0.18022 0.14237,0.33675 0.20117,0.45507 0.0589,0.11832 0.11157,0.19986 0.13867,0.22266 0.0271,0.0228 0.11751,0.0618 0.24414,0.0996 0.12663,0.0378 0.29219,0.0788 0.48242,0.12109 0.38049,0.0846 0.86056,0.17684 1.33399,0.27344 0.47343,0.0966 0.94029,0.19833 1.29687,0.30078 0.17829,0.0512 0.3298,0.1016 0.44141,0.1543 0.0558,0.0264 0.10102,0.0535 0.13672,0.082 0.0357,0.0285 0.0623,0.0589 0.0723,0.0977 0.01,0.0388 6.2e-4,0.0792 -0.0176,0.12109 -0.0183,0.0419 -0.0469,0.0873 -0.084,0.13672 -0.0741,0.0987 -0.18264,0.21328 -0.3164,0.3418 -0.26752,0.25706 -0.63424,0.56464 -1.00782,0.87109 -0.37358,0.30644 -0.75382,0.61276 -1.05078,0.86523 -0.14848,0.12623 -0.27679,0.23954 -0.37109,0.33204 -0.0943,0.0925 -0.15662,0.16837 -0.16992,0.20117 -0.0134,0.0328 -0.0225,0.12962 -0.0195,0.26172 0.003,0.13211 0.0166,0.30208 0.0351,0.49609 0.0371,0.38801 0.0979,0.8734 0.15235,1.35352 0.0544,0.48011 0.10243,0.95539 0.11523,1.32617 0.006,0.1854 0.004,0.34435 -0.0117,0.46679 -0.008,0.0612 -0.0191,0.11355 -0.0352,0.15625 -0.0161,0.0427 -0.0364,0.0785 -0.0703,0.0996 -0.034,0.0211 -0.0756,0.0235 -0.12109,0.0195 -0.0455,-0.004 -0.0959,-0.0171 -0.1543,-0.0371 -0.11679,-0.04 -0.2622,-0.10782 -0.42578,-0.19532 -0.32714,-0.17499 -0.73178,-0.42885 -1.13867,-0.68945 -0.40689,-0.2606 -0.81461,-0.52801 -1.14649,-0.73242 -0.16594,-0.1022 -0.31253,-0.1889 -0.42968,-0.25 -0.11716,-0.0611 -0.20884,-0.0947 -0.24414,-0.0977 -0.0353,-0.002 -0.1312,0.0186 -0.25586,0.0625 -0.12465,0.0439 -0.28216,0.10795 -0.46094,0.18555 -0.35757,0.15516 -0.80042,0.36238 -1.24024,0.5625 -0.4398,0.20011 -0.87787,0.39282 -1.22656,0.51953 -0.17435,0.0633 -0.32598,0.10991 -0.44726,0.13281 -0.0606,0.0119 -0.11261,0.0176 -0.15821,0.0156 -0.0456,-0.002 -0.0866,-0.0114 -0.11718,-0.0371 -0.0306,-0.0257 -0.0466,-0.0628 -0.0566,-0.10742 -0.009,-0.0446 -0.0127,-0.0985 -0.0117,-0.16016 0.002,-0.12342 0.022,-0.28224 0.0547,-0.46484 0.0653,-0.36521 0.18063,-0.82742 0.30274,-1.29493 0.1221,-0.46751 0.25195,-0.93955 0.34375,-1.31836 0.046,-0.18935 0.0816,-0.35601 0.10351,-0.48632 0.022,-0.13031 0.0256,-0.22742 0.0176,-0.26172 -0.009,-0.0343 -0.0585,-0.11961 -0.13867,-0.22461 -0.0802,-0.105 -0.18933,-0.2348 -0.31836,-0.38086 -0.25806,-0.29212 -0.59175,-0.64942 -0.91797,-1.00586 -0.32623,-0.35644 -0.64478,-0.71144 -0.87304,-1.00391 -0.11414,-0.14624 -0.20633,-0.27651 -0.26563,-0.38476 -0.0297,-0.0541 -0.0504,-0.10249 -0.0625,-0.14649 -0.0121,-0.044 -0.0169,-0.086 -0.002,-0.12304 0.015,-0.037 0.0465,-0.0628 0.0859,-0.0859 0.0394,-0.0232 0.0894,-0.0423 0.14844,-0.0605 0.11797,-0.0364 0.27327,-0.0664 0.45703,-0.0918 0.36752,-0.0508 0.84382,-0.085 1.32618,-0.11329 0.48236,-0.0283 0.97073,-0.0504 1.35937,-0.0801 0.19432,-0.0148 0.36343,-0.0314 0.49414,-0.0508 0.13071,-0.0194 0.22586,-0.0457 0.25586,-0.0644 0.03,-0.0187 0.0948,-0.0924 0.16992,-0.20117 0.0751,-0.10875 0.16467,-0.25401 0.26367,-0.42188 0.19807,-0.33566 0.43564,-0.76318 0.67383,-1.18359 0.23818,-0.42041 0.47792,-0.83315 0.68555,-1.14062 0.10381,-0.15374 0.1986,-0.2813 0.2832,-0.3711 0.0423,-0.0449 0.083,-0.0804 0.1211,-0.10546 0.0382,-0.0251 0.0754,-0.0421 0.11523,-0.0391 z M 41.368751,878.196 c -1.744,0 -3.16992,1.42592 -3.16992,3.16993 0,1.74401 1.42591,3.16992 3.16992,3.16992 1.74401,0 3.16797,-1.42591 3.16797,-3.16992 0,-1.74401 -1.42397,-3.16993 -3.16797,-3.16993 z m 0,1.10547 c 1.1468,0 2.0625,0.91766 2.0625,2.06446 0,1.1468 -0.9157,2.06445 -2.0625,2.06445 -1.1468,0 -2.06641,-0.91765 -2.06641,-2.06445 0,-1.1468 0.91961,-2.06446 2.06641,-2.06446 z m -20.81641,0.58594 c 2.28615,0.13468 3.9154,1.72564 4.26758,4.81055 l 0.21094,1.85351 c 0.41729,3.65522 -1.1429,5.51518 -4.07227,5.84961 l -7.816403,0.89258 c -2.799747,0.31964 -4.8826617,-1.25564 -5.2851557,-4.78125 l -0.210938,-1.85352 c -0.417292,-3.65523 1.1429,-5.51323 4.0722657,-5.84765 l 7.814451,-0.89258 c 0.35159,-0.0401 0.69294,-0.0505 1.01953,-0.0312 z m -0.63476,3.69336 c -0.11691,-0.007 -0.23591,-0.002 -0.35742,0.0117 l -7.039067,0.80273 c -1.023982,0.1169 -1.687213,0.86274 -1.570312,1.88672 l 0.210937,1.85352 c 0.11838,1.03694 0.995904,1.59387 1.955078,1.48437 l 7.039064,-0.80469 c 1.02398,-0.11691 1.68721,-0.86077 1.57031,-1.88476 l -0.21094,-1.85352 c -0.10358,-0.90732 -0.77928,-1.44949 -1.59765,-1.49609 z m 5.81054,11.12695 c 0.0982,-0.0352 0.23228,0.0262 0.30274,0.22266 l 1.06445,2.97265 c 0.0352,0.0983 0.006,0.20657 -0.10742,0.31641 l -4.91406,4.46485 c -0.10519,0.0931 -0.11776,0.20783 -0.0781,0.31835 l 0.76172,2.125 c 0.0925,0.25781 0.30852,0.36008 0.5664,0.26758 l 5.30469,-1.90234 c 0.25789,-0.0925 0.47588,0.01 0.56836,0.26758 l 0.93359,2.60351 c 0.0925,0.25788 -0.01,0.47586 -0.26758,0.56836 l -14.945309,5.35938 c -0.257885,0.0925 -0.475879,-0.0116 -0.568359,-0.26953 l -2.271484,-6.33594 c -1.127345,-3.14375 0.077,-5.69603 3.048828,-6.76172 1.706959,-0.61211 3.221847,-0.40673 4.587894,0.69727 0.11771,0.0963 0.21426,0.1309 0.3125,0.0957 0.0982,-0.0352 0.16301,-0.0861 0.24804,-0.1582 l 4.99414,-4.50782 c 0.21826,-0.20301 0.36075,-0.30855 0.45899,-0.34375 z m -8.541011,7.31641 c -0.216088,-0.0211 -0.438275,0.004 -0.65625,0.082 l -0.429688,0.1543 c -0.871898,0.31265 -1.254141,1.29547 -0.90625,2.26562 l 1.052735,2.93555 c 0.09248,0.2578 0.310472,0.36008 0.568359,0.26758 L 19.46836,906.778 c 0.257901,-0.0925 0.360061,-0.30851 0.267581,-0.5664 l -1.052737,-2.93555 c -0.254314,-0.70919 -0.847832,-1.18882 -1.496094,-1.25195 z m 148.19922,0.42969 c 0.62209,0.0342 1.27342,0.19883 1.93946,0.49414 1.53023,0.6785 2.40986,1.77902 2.61914,3.38672 0.0173,0.13938 0.0603,0.22457 0.14843,0.26367 0.0881,0.0391 0.16292,0.0467 0.26563,0.0527 l 6.20898,0.16992 c 0.27512,0.003 0.43729,0.0234 0.52539,0.0625 0.0881,0.0391 0.1367,0.16566 0.0586,0.3418 l -1.18164,2.66406 c -0.039,0.0881 -0.12794,0.14058 -0.27344,0.14258 l -6.125,-0.14844 c -0.12961,-0.005 -0.21391,0.065 -0.25781,0.16407 l -0.84375,1.90429 c -0.1025,0.23118 -0.0222,0.43657 0.20898,0.53907 l 4.75586,2.10937 c 0.23114,0.10251 0.30953,0.30984 0.20703,0.54102 l -1.03515,2.33398 c -0.10251,0.23114 -0.30788,0.30954 -0.53907,0.20703 l -13.39843,-5.93945 c -0.23114,-0.1025 -0.3115,-0.30984 -0.20899,-0.54102 l 2.51953,-5.67968 c 0.9372,-2.1137 2.53998,-3.17091 4.40625,-3.06836 z m -0.13086,3.2207 c -0.59567,0.0107 -1.16391,0.40632 -1.45312,1.05859 l -1.16602,2.63086 c -0.10251,0.23119 -0.0242,0.43852 0.20703,0.54102 l 2.37891,1.05469 c 0.23118,0.10251 0.43656,0.0222 0.53906,-0.20899 l 1.16797,-2.63086 c 0.37585,-0.84769 0.0883,-1.80578 -0.69336,-2.15234 l -0.38476,-0.16992 c -0.19541,-0.0866 -0.39715,-0.12661 -0.59571,-0.12305 z m -140.445309,9.04687 c 1.60706,-0.0315 3.25085,0.74206 4.45312,2.63477 l 1.3418,2.11328 c 0.14689,0.23128 0.38202,0.28361 0.61328,0.13672 l 4.41601,-2.80469 c 0.23126,-0.1469 0.46444,-0.0945 0.61133,0.13672 l 1.48242,2.33399 c 0.1469,0.23126 0.0945,0.46639 -0.13671,0.61328 l -13.40039,8.5117 c -0.23126,0.1469 -0.46639,0.0945 -0.61329,-0.13672 l -3.30859,-5.20703 c -1.916641,-3.01732 -1.204707,-5.57202 1.44922,-7.25782 l 0.3418,-0.21679 c 0.83417,-0.52988 1.78576,-0.83855 2.75,-0.85743 z m 129.726559,3.01758 14.78516,5.17578 c 0.0727,0.0225 0.0936,0.0376 0.12305,0.0586 0.0976,0.0702 0.0956,0.17358 -0.01,0.32031 l -1.74023,2.42578 c -0.0773,0.10804 -0.17604,0.14051 -0.29493,0.0996 l -2.0625,-0.7832 c -0.11888,-0.0409 -0.17198,-0.006 -0.27734,0.14062 l -2.70508,3.76563 c -0.1124,0.1565 -0.11977,0.21094 -0.043,0.31054 l 1.40039,1.70118 c 0.0765,0.0996 0.0761,0.20493 0.006,0.30273 l -1.73437,2.41602 c -0.10537,0.1467 -0.21079,0.18934 -0.30859,0.11914 -0.0489,-0.0351 -0.12341,-0.11913 -0.15821,-0.17383 -0.0223,-0.0308 -9.55859,-12.28906 -9.55859,-12.28906 -0.10891,-0.13747 -0.0858,-0.31421 0.0195,-0.46094 l 2.12891,-2.96289 c 0.10536,-0.1467 0.26464,-0.22522 0.42968,-0.16602 z m -129.556639,0.44336 c -0.34386,-0.0117 -0.70368,0.0837 -1.05469,0.30664 l -0.32031,0.20313 c -0.93603,0.59457 -1.11511,1.65153 -0.5625,2.52148 l 1.38476,2.17969 c 0.1469,0.23129 0.38203,0.28361 0.61328,0.13672 l 2.63086,-1.67188 c 0.23126,-0.1469 0.28362,-0.38006 0.13672,-0.61132 l -1.38476,-2.17969 c -0.34538,-0.54372 -0.87027,-0.86528 -1.44336,-0.88477 z m 131.523439,3.44531 -0.24609,0.3418 0.36718,0.33594 3.41016,4.16992 c 0.10609,0.12068 0.21926,0.12724 0.3457,-0.0488 l 1.65039,-2.29687 c 0.12644,-0.17607 0.0916,-0.29152 -0.0566,-0.35352 l -5.03515,-1.91015 z m -9.07031,6.58594 c 1.09083,-0.0471 2.13847,0.40631 3.05469,1.4043 0.904,0.98468 1.25507,2.3291 0.83203,3.45312 -0.0488,0.14276 -0.007,0.20279 0.0254,0.23829 0.0489,0.0532 0.13277,0.0746 0.23632,0.0449 1.32091,-0.3953 2.63436,-0.0484 3.7168,1.14843 1.99385,2.20742 1.74638,4.44531 -0.1875,6.22071 l -5.10937,4.6914 c -0.18629,0.17107 -0.40905,0.16097 -0.58008,-0.0254 l -9.91016,-10.79492 c -0.17105,-0.18629 -0.16286,-0.4071 0.0234,-0.57812 l 4.58789,-4.21094 c 1.0867,-0.99765 2.21971,-1.54465 3.31055,-1.5918 z m -0.17774,3.26563 c -0.37978,-0.013 -0.76503,0.15761 -1.14648,0.50781 l -2.09375,1.92187 c -0.18627,0.17103 -0.19641,0.39184 -0.0254,0.57813 l 1.60351,1.74805 c 0.17102,0.18627 0.39378,0.19641 0.58008,0.0254 l 2.09375,-1.92188 c 0.76293,-0.70039 0.80424,-1.4919 0.0957,-2.26367 -0.35427,-0.38589 -0.72764,-0.58268 -1.10743,-0.5957 z m 4.33203,4.44726 c -0.41114,-0.0272 -0.81488,0.11681 -1.13867,0.41406 l -2.28125,2.0918 c -0.18629,0.17103 -0.19447,0.39379 -0.0234,0.58008 l 1.76563,1.92383 c 0.17102,0.18627 0.39379,0.19641 0.58008,0.0254 l 2.27929,-2.09375 c 0.64809,-0.59451 0.73102,-1.53756 -0.002,-2.33594 -0.35019,-0.38145 -0.76854,-0.57831 -1.17969,-0.60547 z m -15.80859,0.82227 c 0.15826,-0.0282 0.3043,0.0435 0.40039,0.20703 l 5.61133,9.55273 c 1.32384,2.25304 0.76943,4.59065 -2.05469,6.25 l -1.48437,0.8711 c -2.92795,1.7204 -5.08635,1.09002 -6.45899,-1.2461 l -5.61328,-9.55273 c -0.12812,-0.21804 -0.0716,-0.43243 0.14649,-0.56055 l 2.20117,-1.29297 c 0.21804,-0.12811 0.43243,-0.0716 0.56054,0.14649 l 5.42969,9.24023 c 0.48194,0.82027 1.35944,1.10107 2.17969,0.61914 l 1.48437,-0.87304 c 0.83063,-0.48802 0.96671,-1.42026 0.51954,-2.20508 l -5.42969,-9.24024 c -0.12812,-0.21804 -0.0716,-0.43242 0.14648,-0.56054 l 2.20117,-1.29297 c 0.0545,-0.032 0.10741,-0.0531 0.16016,-0.0625 z m -15.63086,8.15234 c 1.60517,-0.0804 2.98453,0.56062 3.84375,1.82617 0.14847,0.21719 0.16078,0.25172 0.1836,0.32032 0.0342,0.10282 0.007,0.21338 -0.11524,0.30468 l -1.82812,1.44727 c -0.0495,0.042 -0.10306,0.0705 -0.16016,0.0898 -0.13711,0.0457 -0.32722,0.008 -0.44141,-0.14453 -0.50621,-0.71993 -1.22187,-0.92501 -2.18164,-0.60547 l -1.64648,0.54688 c -0.91403,0.30428 -1.24829,1.20335 -0.9668,2.04883 L 118.9,956.9401 c 0.30051,0.90266 1.10126,1.35911 2.00391,1.0586 l 1.64453,-0.54688 c 0.95978,-0.31953 1.38247,-0.87898 1.38281,-1.79297 7e-5,-0.19045 0.13047,-0.33536 0.26758,-0.38086 0.0571,-0.0224 0.11694,-0.0234 0.18164,-0.0234 l 2.33203,0.0625 c 0.15233,8e-5 0.23924,0.0709 0.27344,0.17383 0.0229,0.0685 0.0727,0.21764 0.084,0.48046 0.0945,2.03738 -1.25447,3.62808 -3.5625,4.39649 l -1.63477,0.54492 c -3.22209,1.07268 -5.19696,0.0159 -6.05664,-2.56641 l -2.29492,-6.88867 c -0.82544,-2.4794 0.20466,-4.65086 3.3125,-5.68554 l 1.64453,-0.54688 c 0.57415,-0.19114 1.13487,-0.2974 1.66992,-0.32422 z m -44.343749,3.50391 c 0.0399,0.003 0.0732,0.0244 0.10742,0.0547 0.0342,0.0303 0.07,0.0706 0.10547,0.12109 0.071,0.10097 0.14566,0.24127 0.22656,0.4082 0.16181,0.33386 0.34158,0.77658 0.51758,1.22656 0.17601,0.45 0.3497,0.90714 0.49804,1.26758 0.0742,0.18022 0.14233,0.33676 0.20118,0.45508 0.0588,0.11832 0.11161,0.19986 0.13867,0.22266 0.0271,0.0228 0.11751,0.0618 0.24414,0.0996 0.12663,0.0378 0.29218,0.0788 0.48242,0.12109 0.38048,0.0846 0.86055,0.17684 1.33399,0.27344 0.47343,0.0966 0.94029,0.19638 1.29687,0.29883 0.17829,0.0512 0.32784,0.10355 0.43945,0.15625 0.0558,0.0264 0.103,0.0516 0.13868,0.0801 0.0357,0.0285 0.0627,0.0608 0.0723,0.0996 0.01,0.0388 6.6e-4,0.0792 -0.0176,0.1211 -0.0182,0.0419 -0.0469,0.0854 -0.084,0.13476 -0.0741,0.0987 -0.1846,0.21523 -0.31836,0.34375 -0.26752,0.25706 -0.63228,0.56465 -1.00586,0.8711 -0.37358,0.30644 -0.75578,0.61081 -1.05274,0.86328 -0.14848,0.12623 -0.2748,0.23953 -0.36914,0.33203 -0.0943,0.0925 -0.15662,0.17032 -0.16992,0.20312 -0.0133,0.0328 -0.0227,0.12962 -0.0195,0.26172 0.003,0.13211 0.0166,0.30209 0.0352,0.4961 0.0371,0.38801 0.0979,0.87339 0.15234,1.35351 0.0544,0.48011 0.10248,0.95539 0.11524,1.32617 0.006,0.1854 0.004,0.34436 -0.0117,0.4668 -0.008,0.0612 -0.0191,0.11355 -0.0352,0.15625 -0.0161,0.0427 -0.0364,0.0766 -0.0703,0.0977 -0.0339,0.0211 -0.0756,0.0255 -0.12109,0.0215 -0.0455,-0.004 -0.0979,-0.0191 -0.15625,-0.0391 -0.11679,-0.04 -0.26026,-0.10781 -0.42383,-0.19531 -0.32714,-0.17499 -0.73178,-0.4269 -1.13867,-0.6875 -0.4069,-0.2606 -0.81461,-0.52997 -1.14649,-0.73438 -0.16594,-0.1022 -0.31449,-0.18696 -0.43164,-0.24804 -0.11715,-0.0611 -0.20887,-0.0966 -0.24414,-0.0996 -0.0353,-0.002 -0.13121,0.0186 -0.25586,0.0625 -0.12465,0.0439 -0.28215,0.1099 -0.46094,0.1875 -0.35756,0.15516 -0.79847,0.36238 -1.23828,0.5625 -0.4398,0.20011 -0.87786,0.39282 -1.22656,0.51953 -0.17435,0.0633 -0.32599,0.10981 -0.44727,0.13281 -0.0606,0.0118 -0.11453,0.0157 -0.16015,0.0137 -0.0456,-0.002 -0.0847,-0.009 -0.11524,-0.0352 -0.0306,-0.0257 -0.0468,-0.0648 -0.0566,-0.10937 -0.01,-0.0446 -0.0127,-0.0965 -0.0117,-0.1582 0.002,-0.12342 0.022,-0.28225 0.0547,-0.46485 0.0653,-0.36521 0.18063,-0.82936 0.30274,-1.29687 0.1221,-0.46751 0.24994,-0.93761 0.34179,-1.31641 0.0459,-0.1894 0.0835,-0.35602 0.10547,-0.48633 0.0219,-0.13031 0.0261,-0.22937 0.0176,-0.26367 -0.008,-0.0343 -0.0584,-0.11765 -0.13867,-0.22265 -0.0802,-0.105 -0.18933,-0.2348 -0.31836,-0.38086 -0.25806,-0.29212 -0.59174,-0.64942 -0.91797,-1.00586 -0.32622,-0.35644 -0.64478,-0.71144 -0.87304,-1.00391 -0.11413,-0.14624 -0.20632,-0.27655 -0.26563,-0.38476 -0.0297,-0.0541 -0.0523,-0.10249 -0.0644,-0.14649 -0.0121,-0.044 -0.015,-0.0861 0,-0.12305 0.015,-0.0371 0.0466,-0.0628 0.0859,-0.0859 0.0394,-0.0232 0.0894,-0.0443 0.14844,-0.0625 0.11797,-0.0364 0.27327,-0.0664 0.45703,-0.0918 0.36752,-0.0508 0.84381,-0.083 1.32617,-0.11133 0.48236,-0.0283 0.97073,-0.0523 1.35938,-0.082 0.19432,-0.0148 0.36343,-0.0314 0.49414,-0.0508 0.13071,-0.0194 0.22584,-0.0438 0.25586,-0.0625 0.03,-0.0187 0.0949,-0.0924 0.16992,-0.20117 0.0751,-0.10875 0.16463,-0.25403 0.26367,-0.42188 0.19808,-0.33569 0.43369,-0.76318 0.67188,-1.18359 0.23818,-0.42041 0.47987,-0.83316 0.6875,-1.14063 0.10381,-0.15374 0.19857,-0.28119 0.2832,-0.37109 0.0423,-0.0449 0.081,-0.0804 0.11914,-0.10547 0.0381,-0.0251 0.0773,-0.0421 0.11719,-0.0391 z m 28.771489,0.24414 c 2.09415,-0.014 3.7335,0.88802 4.55468,2.51562 0.10328,0.24185 0.10819,0.27791 0.11719,0.34961 0.0135,0.10751 -0.0345,0.20989 -0.17187,0.27539 l -2.07422,1.0625 c -0.0567,0.0316 -0.11413,0.0506 -0.17383,0.0586 -0.14337,0.018 -0.30002,-0.0579 -0.40625,-0.22656 -0.45634,-0.73143 -1.29257,-1.11157 -2.33203,-0.98047 -1.15895,0.14605 -1.73612,0.86187 -1.63672,1.65039 0.0964,0.7647 0.78042,1.18732 2.82422,1.60937 3.3137,0.67468 4.97273,2.09272 5.23633,4.1836 0.36152,2.86753 -1.40126,4.95784 -4.81836,5.38867 -2.75996,0.3479 -4.99112,-0.59694 -5.853519,-2.52735 -0.10328,-0.24185 -0.10819,-0.27595 -0.11719,-0.34765 -0.0136,-0.10751 0.0345,-0.21185 0.17188,-0.27735 l 2.183589,-1.16211 c 0.0567,-0.0316 0.11608,-0.0506 0.17578,-0.0586 0.14337,-0.018 0.29808,0.0598 0.4043,0.22852 0.48627,0.77618 1.31614,1.1941 2.6543,1.02539 1.23064,-0.15515 1.79639,-0.8587 1.68945,-1.70703 -0.0964,-0.76463 -0.72543,-1.32887 -2.8125,-1.70899 -3.40326,-0.6148 -4.988419,-2.02905 -5.285159,-4.38281 -0.27264,-2.16256 1.520179,-4.49955 4.746099,-4.90625 0.31662,-0.0399 0.62466,-0.0605 0.92383,-0.0625 z"
       sodipodi:nodetypes="cscsscccccccccccccccccccccccccccccccccccsccccccccccccccccsccccsccccccccssccccccccsscccsccccccssccssccccccccsssccccccccsccccccccccsscccccccccccccccsccscccccccccsccccccccccccccccscccccccccccccccccccsccccccccssccccccccccccccccccccccccsssccccccccccsccccccccsscccsccccscsccsccccccscscsccccccsssccccccccccccccccccssccssscccccsscccscssccscscscssscsscccscccccscscccccccccccccccccccccsccssssssssssssssssssssssccccccccccccsssscccccsscssssccccccsccccccccssscssssssscssssscssssscscccsssscccsscsscssssscssssccscccscccssssccscssscssscsssscsssssssssssccccccccssccccccccscccccccccccccccscccccsccccccccssscsccccccccccccsccccssccccccccssccccccscccccscccccccccccccscccccsccccccccscccccccccsscsccccccccssccccccsssccccccsssccccccccccccccccsscsccccccccccscccccccccccscssssssssssscsssssssssssssssscssssscsssscssssssscsssssssscscscsssssssscscccccccscscccccccsscsss" />
  </g>
</svg>
