<?xml version="1.0" encoding="UTF-8" standalone="no"?>
<svg
   xmlns:dc="http://purl.org/dc/elements/1.1/"
   xmlns:cc="http://creativecommons.org/ns#"
   xmlns:rdf="http://www.w3.org/1999/02/22-rdf-syntax-ns#"
   xmlns:svg="http://www.w3.org/2000/svg"
   xmlns="http://www.w3.org/2000/svg"
   xmlns:sodipodi="http://sodipodi.sourceforge.net/DTD/sodipodi-0.dtd"
   xmlns:inkscape="http://www.inkscape.org/namespaces/inkscape"
   width="50mm"
   height="50mm"
   id="svg2"
   version="1.1"
   inkscape:version="1.0.1 (3bc2e813f5, 2020-09-07)"
   sodipodi:docname="xHain_stickers_5cm_private.svg"
   inkscape:export-filename="/home/sticker_preview.png"
   inkscape:export-xdpi="1368.9301"
   inkscape:export-ydpi="1368.9301">
  <sodipodi:namedview
     id="base"
     pagecolor="#ffffff"
     bordercolor="#666666"
     borderopacity="1.0"
     inkscape:pageopacity="0.0"
     inkscape:pageshadow="2"
     inkscape:zoom="2.2137886"
     inkscape:cx="36.178287"
     inkscape:cy="158.20874"
     inkscape:document-units="mm"
     inkscape:current-layer="layer1"
     showgrid="false"
     inkscape:window-width="1920"
     inkscape:window-height="1032"
     inkscape:window-x="0"
     inkscape:window-y="0"
     inkscape:window-maximized="1"
     showguides="true"
     inkscape:guide-bbox="true"
     units="mm"
     inkscape:document-rotation="0">
    <inkscape:grid
       type="xygrid"
       id="grid2985"
       empspacing="5"
       visible="true"
       enabled="true"
       snapvisiblegridlinesonly="true" />
  </sodipodi:namedview>
  <defs
     id="defs4">
    <marker
       inkscape:stockid="DotS"
       orient="auto"
       refY="0"
       refX="0"
       id="DotS"
       style="overflow:visible">
      <path
         id="path3828"
         d="m -2.5,-1 c 0,2.76 -2.24,5 -5,5 -2.76,0 -5,-2.24 -5,-5 0,-2.76 2.24,-5 5,-5 2.76,0 5,2.24 5,5 z"
         style="fill-rule:evenodd;stroke:#000000;stroke-width:1pt"
         transform="matrix(0.2,0,0,0.2,1.48,0.2)"
         inkscape:connector-curvature="0" />
    </marker>
    <marker
       inkscape:stockid="DotS"
       orient="auto"
       refY="0"
       refX="0"
       id="DotS-1"
       style="overflow:visible">
      <path
         inkscape:connector-curvature="0"
         id="path3828-5"
         d="m -2.5,-1 c 0,2.76 -2.24,5 -5,5 -2.76,0 -5,-2.24 -5,-5 0,-2.76 2.24,-5 5,-5 2.76,0 5,2.24 5,5 z"
         style="fill-rule:evenodd;stroke:#000000;stroke-width:1pt"
         transform="matrix(0.2,0,0,0.2,1.48,0.2)" />
    </marker>
    <marker
       inkscape:stockid="DotS"
       orient="auto"
       refY="0"
       refX="0"
       id="marker4395"
       style="overflow:visible">
      <path
         inkscape:connector-curvature="0"
         id="path4397"
         d="m -2.5,-1 c 0,2.76 -2.24,5 -5,5 -2.76,0 -5,-2.24 -5,-5 0,-2.76 2.24,-5 5,-5 2.76,0 5,2.24 5,5 z"
         style="fill-rule:evenodd;stroke:#000000;stroke-width:1pt"
         transform="matrix(0.2,0,0,0.2,1.48,0.2)" />
    </marker>
    <marker
       inkscape:stockid="DotS"
       orient="auto"
       refY="0"
       refX="0"
       id="DotS-3"
       style="overflow:visible">
      <path
         inkscape:connector-curvature="0"
         id="path3828-0"
         d="m -2.5,-1 c 0,2.76 -2.24,5 -5,5 -2.76,0 -5,-2.24 -5,-5 0,-2.76 2.24,-5 5,-5 2.76,0 5,2.24 5,5 z"
         style="fill-rule:evenodd;stroke:#000000;stroke-width:1pt"
         transform="matrix(0.2,0,0,0.2,1.48,0.2)" />
    </marker>
    <marker
       inkscape:stockid="DotS"
       orient="auto"
       refY="0"
       refX="0"
       id="marker4427"
       style="overflow:visible">
      <path
         inkscape:connector-curvature="0"
         id="path4429"
         d="m -2.5,-1 c 0,2.76 -2.24,5 -5,5 -2.76,0 -5,-2.24 -5,-5 0,-2.76 2.24,-5 5,-5 2.76,0 5,2.24 5,5 z"
         style="fill-rule:evenodd;stroke:#000000;stroke-width:1pt"
         transform="matrix(0.2,0,0,0.2,1.48,0.2)" />
    </marker>
    <marker
       inkscape:stockid="DotS"
       orient="auto"
       refY="0"
       refX="0"
       id="DotS-2"
       style="overflow:visible">
      <path
         inkscape:connector-curvature="0"
         id="path3828-1"
         d="m -2.5,-1 c 0,2.76 -2.24,5 -5,5 -2.76,0 -5,-2.24 -5,-5 0,-2.76 2.24,-5 5,-5 2.76,0 5,2.24 5,5 z"
         style="fill-rule:evenodd;stroke:#000000;stroke-width:1pt"
         transform="matrix(0.2,0,0,0.2,1.48,0.2)" />
    </marker>
    <marker
       inkscape:stockid="DotS"
       orient="auto"
       refY="0"
       refX="0"
       id="marker4427-3"
       style="overflow:visible">
      <path
         inkscape:connector-curvature="0"
         id="path4429-9"
         d="m -2.5,-1 c 0,2.76 -2.24,5 -5,5 -2.76,0 -5,-2.24 -5,-5 0,-2.76 2.24,-5 5,-5 2.76,0 5,2.24 5,5 z"
         style="fill-rule:evenodd;stroke:#000000;stroke-width:1pt"
         transform="matrix(0.2,0,0,0.2,1.48,0.2)" />
    </marker>
    <marker
       inkscape:stockid="DotS"
       orient="auto"
       refY="0"
       refX="0"
       id="DotS-21"
       style="overflow:visible">
      <path
         inkscape:connector-curvature="0"
         id="path3828-6"
         d="m -2.5,-1 c 0,2.76 -2.24,5 -5,5 -2.76,0 -5,-2.24 -5,-5 0,-2.76 2.24,-5 5,-5 2.76,0 5,2.24 5,5 z"
         style="fill-rule:evenodd;stroke:#000000;stroke-width:1pt"
         transform="matrix(0.2,0,0,0.2,1.48,0.2)" />
    </marker>
    <marker
       inkscape:stockid="DotS"
       orient="auto"
       refY="0"
       refX="0"
       id="marker4474"
       style="overflow:visible">
      <path
         inkscape:connector-curvature="0"
         id="path4476"
         d="m -2.5,-1 c 0,2.76 -2.24,5 -5,5 -2.76,0 -5,-2.24 -5,-5 0,-2.76 2.24,-5 5,-5 2.76,0 5,2.24 5,5 z"
         style="fill-rule:evenodd;stroke:#000000;stroke-width:1pt"
         transform="matrix(0.2,0,0,0.2,1.48,0.2)" />
    </marker>
    <marker
       inkscape:stockid="DotS"
       orient="auto"
       refY="0"
       refX="0"
       id="DotS-36"
       style="overflow:visible">
      <path
         inkscape:connector-curvature="0"
         id="path3828-8"
         d="m -2.5,-1 c 0,2.76 -2.24,5 -5,5 -2.76,0 -5,-2.24 -5,-5 0,-2.76 2.24,-5 5,-5 2.76,0 5,2.24 5,5 z"
         style="fill-rule:evenodd;stroke:#000000;stroke-width:1pt"
         transform="matrix(0.2,0,0,0.2,1.48,0.2)" />
    </marker>
    <marker
       inkscape:stockid="DotS"
       orient="auto"
       refY="0"
       refX="0"
       id="marker4516"
       style="overflow:visible">
      <path
         inkscape:connector-curvature="0"
         id="path4518"
         d="m -2.5,-1 c 0,2.76 -2.24,5 -5,5 -2.76,0 -5,-2.24 -5,-5 0,-2.76 2.24,-5 5,-5 2.76,0 5,2.24 5,5 z"
         style="fill-rule:evenodd;stroke:#000000;stroke-width:1pt"
         transform="matrix(0.2,0,0,0.2,1.48,0.2)" />
    </marker>
    <marker
       inkscape:stockid="DotS"
       orient="auto"
       refY="0"
       refX="0"
       id="DotS-11"
       style="overflow:visible">
      <path
         inkscape:connector-curvature="0"
         id="path3828-58"
         d="m -2.5,-1 c 0,2.76 -2.24,5 -5,5 -2.76,0 -5,-2.24 -5,-5 0,-2.76 2.24,-5 5,-5 2.76,0 5,2.24 5,5 z"
         style="fill-rule:evenodd;stroke:#000000;stroke-width:1pt"
         transform="matrix(0.2,0,0,0.2,1.48,0.2)" />
    </marker>
    <marker
       inkscape:stockid="DotS"
       orient="auto"
       refY="0"
       refX="0"
       id="marker4954"
       style="overflow:visible">
      <path
         inkscape:connector-curvature="0"
         id="path4956"
         d="m -2.5,-1 c 0,2.76 -2.24,5 -5,5 -2.76,0 -5,-2.24 -5,-5 0,-2.76 2.24,-5 5,-5 2.76,0 5,2.24 5,5 z"
         style="fill-rule:evenodd;stroke:#000000;stroke-width:1pt"
         transform="matrix(0.2,0,0,0.2,1.48,0.2)" />
    </marker>
    <marker
       inkscape:stockid="DotS"
       orient="auto"
       refY="0"
       refX="0"
       id="DotS-7"
       style="overflow:visible">
      <path
         inkscape:connector-curvature="0"
         id="path3828-3"
         d="m -2.5,-1 c 0,2.76 -2.24,5 -5,5 -2.76,0 -5,-2.24 -5,-5 0,-2.76 2.24,-5 5,-5 2.76,0 5,2.24 5,5 z"
         style="fill-rule:evenodd;stroke:#000000;stroke-width:1pt"
         transform="matrix(0.2,0,0,0.2,1.48,0.2)" />
    </marker>
    <marker
       inkscape:stockid="DotS"
       orient="auto"
       refY="0"
       refX="0"
       id="marker5024"
       style="overflow:visible">
      <path
         inkscape:connector-curvature="0"
         id="path5026"
         d="m -2.5,-1 c 0,2.76 -2.24,5 -5,5 -2.76,0 -5,-2.24 -5,-5 0,-2.76 2.24,-5 5,-5 2.76,0 5,2.24 5,5 z"
         style="fill-rule:evenodd;stroke:#000000;stroke-width:1pt"
         transform="matrix(0.2,0,0,0.2,1.48,0.2)" />
    </marker>
    <marker
       inkscape:stockid="DotS"
       orient="auto"
       refY="0"
       refX="0"
       id="DotS-34"
       style="overflow:visible">
      <path
         inkscape:connector-curvature="0"
         id="path3828-16"
         d="m -2.5,-1 c 0,2.76 -2.24,5 -5,5 -2.76,0 -5,-2.24 -5,-5 0,-2.76 2.24,-5 5,-5 2.76,0 5,2.24 5,5 z"
         style="fill-rule:evenodd;stroke:#000000;stroke-width:1pt"
         transform="matrix(0.2,0,0,0.2,1.48,0.2)" />
    </marker>
    <marker
       inkscape:stockid="DotS"
       orient="auto"
       refY="0"
       refX="0"
       id="marker5056"
       style="overflow:visible">
      <path
         inkscape:connector-curvature="0"
         id="path5058"
         d="m -2.5,-1 c 0,2.76 -2.24,5 -5,5 -2.76,0 -5,-2.24 -5,-5 0,-2.76 2.24,-5 5,-5 2.76,0 5,2.24 5,5 z"
         style="fill-rule:evenodd;stroke:#000000;stroke-width:1pt"
         transform="matrix(0.2,0,0,0.2,1.48,0.2)" />
    </marker>
    <marker
       inkscape:stockid="DotS"
       orient="auto"
       refY="0"
       refX="0"
       id="marker4516-8"
       style="overflow:visible">
      <path
         inkscape:connector-curvature="0"
         id="path4518-5"
         d="m -2.5,-1 c 0,2.76 -2.24,5 -5,5 -2.76,0 -5,-2.24 -5,-5 0,-2.76 2.24,-5 5,-5 2.76,0 5,2.24 5,5 z"
         style="fill-rule:evenodd;stroke:#000000;stroke-width:1pt"
         transform="matrix(0.2,0,0,0.2,1.48,0.2)" />
    </marker>
    <marker
       inkscape:stockid="DotS"
       orient="auto"
       refY="0"
       refX="0"
       id="marker5088"
       style="overflow:visible">
      <path
         inkscape:connector-curvature="0"
         id="path5090"
         d="m -2.5,-1 c 0,2.76 -2.24,5 -5,5 -2.76,0 -5,-2.24 -5,-5 0,-2.76 2.24,-5 5,-5 2.76,0 5,2.24 5,5 z"
         style="fill-rule:evenodd;stroke:#000000;stroke-width:1pt"
         transform="matrix(0.2,0,0,0.2,1.48,0.2)" />
    </marker>
    <marker
       inkscape:stockid="DotS"
       orient="auto"
       refY="0"
       refX="0"
       id="marker4516-9"
       style="overflow:visible">
      <path
         inkscape:connector-curvature="0"
         id="path4518-55"
         d="m -2.5,-1 c 0,2.76 -2.24,5 -5,5 -2.76,0 -5,-2.24 -5,-5 0,-2.76 2.24,-5 5,-5 2.76,0 5,2.24 5,5 z"
         style="fill-rule:evenodd;stroke:#000000;stroke-width:1pt"
         transform="matrix(0.2,0,0,0.2,1.48,0.2)" />
    </marker>
    <marker
       inkscape:stockid="DotS"
       orient="auto"
       refY="0"
       refX="0"
       id="marker5137"
       style="overflow:visible">
      <path
         inkscape:connector-curvature="0"
         id="path5139"
         d="m -2.5,-1 c 0,2.76 -2.24,5 -5,5 -2.76,0 -5,-2.24 -5,-5 0,-2.76 2.24,-5 5,-5 2.76,0 5,2.24 5,5 z"
         style="fill-rule:evenodd;stroke:#000000;stroke-width:1pt"
         transform="matrix(0.2,0,0,0.2,1.48,0.2)" />
    </marker>
    <marker
       inkscape:stockid="DotS"
       orient="auto"
       refY="0"
       refX="0"
       id="DotS-0"
       style="overflow:visible">
      <path
         inkscape:connector-curvature="0"
         id="path3828-4"
         d="m -2.5,-1 c 0,2.76 -2.24,5 -5,5 -2.76,0 -5,-2.24 -5,-5 0,-2.76 2.24,-5 5,-5 2.76,0 5,2.24 5,5 z"
         style="fill-rule:evenodd;stroke:#000000;stroke-width:1pt"
         transform="matrix(0.2,0,0,0.2,1.48,0.2)" />
    </marker>
    <marker
       inkscape:stockid="DotS"
       orient="auto"
       refY="0"
       refX="0"
       id="marker5169"
       style="overflow:visible">
      <path
         inkscape:connector-curvature="0"
         id="path5171"
         d="m -2.5,-1 c 0,2.76 -2.24,5 -5,5 -2.76,0 -5,-2.24 -5,-5 0,-2.76 2.24,-5 5,-5 2.76,0 5,2.24 5,5 z"
         style="fill-rule:evenodd;stroke:#000000;stroke-width:1pt"
         transform="matrix(0.2,0,0,0.2,1.48,0.2)" />
    </marker>
    <marker
       inkscape:stockid="DotS"
       orient="auto"
       refY="0"
       refX="0"
       id="DotS-8"
       style="overflow:visible">
      <path
         inkscape:connector-curvature="0"
         id="path3828-66"
         d="m -2.5,-1 c 0,2.76 -2.24,5 -5,5 -2.76,0 -5,-2.24 -5,-5 0,-2.76 2.24,-5 5,-5 2.76,0 5,2.24 5,5 z"
         style="fill-rule:evenodd;stroke:#000000;stroke-width:1pt"
         transform="matrix(0.2,0,0,0.2,1.48,0.2)" />
    </marker>
    <marker
       inkscape:stockid="DotS"
       orient="auto"
       refY="0"
       refX="0"
       id="marker5218"
       style="overflow:visible">
      <path
         inkscape:connector-curvature="0"
         id="path5220"
         d="m -2.5,-1 c 0,2.76 -2.24,5 -5,5 -2.76,0 -5,-2.24 -5,-5 0,-2.76 2.24,-5 5,-5 2.76,0 5,2.24 5,5 z"
         style="fill-rule:evenodd;stroke:#000000;stroke-width:1pt"
         transform="matrix(0.2,0,0,0.2,1.48,0.2)" />
    </marker>
    <marker
       inkscape:stockid="DotSv"
       orient="auto"
       refY="0"
       refX="0"
       id="DotSv"
       style="overflow:visible">
      <path
         id="path5753"
         d="m -2.5,-1 c 0,2.76 -2.24,5 -5,5 -2.76,0 -5,-2.24 -5,-5 0,-2.76 2.24,-5 5,-5 2.76,0 5,2.24 5,5 z"
         style="fill:#858585;fill-rule:evenodd;stroke:#858585;stroke-width:1pt"
         transform="matrix(0.2,0,0,0.2,1.48,0.2)"
         inkscape:connector-curvature="0" />
    </marker>
    <marker
       inkscape:stockid="DotSs"
       orient="auto"
       refY="0"
       refX="0"
       id="DotSs"
       style="overflow:visible">
      <path
         id="path5756"
         d="m -2.5,-1 c 0,2.76 -2.24,5 -5,5 -2.76,0 -5,-2.24 -5,-5 0,-2.76 2.24,-5 5,-5 2.76,0 5,2.24 5,5 z"
         style="fill:#858585;fill-rule:evenodd;stroke:#858585;stroke-width:1pt"
         transform="matrix(0.2,0,0,0.2,1.48,0.2)"
         inkscape:connector-curvature="0" />
    </marker>
    <marker
       inkscape:stockid="DotSk"
       orient="auto"
       refY="0"
       refX="0"
       id="DotSk"
       style="overflow:visible">
      <path
         id="path5759"
         d="m -2.5,-1 c 0,2.76 -2.24,5 -5,5 -2.76,0 -5,-2.24 -5,-5 0,-2.76 2.24,-5 5,-5 2.76,0 5,2.24 5,5 z"
         style="fill:#858585;fill-rule:evenodd;stroke:#858585;stroke-width:1pt"
         transform="matrix(0.2,0,0,0.2,1.48,0.2)"
         inkscape:connector-curvature="0" />
    </marker>
    <marker
       inkscape:stockid="DotSK"
       orient="auto"
       refY="0"
       refX="0"
       id="DotSK"
       style="overflow:visible">
      <path
         id="path5762"
         d="m -2.5,-1 c 0,2.76 -2.24,5 -5,5 -2.76,0 -5,-2.24 -5,-5 0,-2.76 2.24,-5 5,-5 2.76,0 5,2.24 5,5 z"
         style="fill:#858585;fill-rule:evenodd;stroke:#858585;stroke-width:1pt"
         transform="matrix(0.2,0,0,0.2,1.48,0.2)"
         inkscape:connector-curvature="0" />
    </marker>
    <marker
       inkscape:stockid="DotSQ"
       orient="auto"
       refY="0"
       refX="0"
       id="DotSQ"
       style="overflow:visible">
      <path
         id="path5765"
         d="m -2.5,-1 c 0,2.76 -2.24,5 -5,5 -2.76,0 -5,-2.24 -5,-5 0,-2.76 2.24,-5 5,-5 2.76,0 5,2.24 5,5 z"
         style="fill:#858585;fill-rule:evenodd;stroke:#858585;stroke-width:1pt"
         transform="matrix(0.2,0,0,0.2,1.48,0.2)"
         inkscape:connector-curvature="0" />
    </marker>
    <marker
       inkscape:stockid="DotSg"
       orient="auto"
       refY="0"
       refX="0"
       id="DotSg"
       style="overflow:visible">
      <path
         id="path5768"
         d="m -2.5,-1 c 0,2.76 -2.24,5 -5,5 -2.76,0 -5,-2.24 -5,-5 0,-2.76 2.24,-5 5,-5 2.76,0 5,2.24 5,5 z"
         style="fill:#858585;fill-rule:evenodd;stroke:#858585;stroke-width:1pt"
         transform="matrix(0.2,0,0,0.2,1.48,0.2)"
         inkscape:connector-curvature="0" />
    </marker>
    <marker
       inkscape:stockid="marker4516J"
       orient="auto"
       refY="0"
       refX="0"
       id="marker4516J"
       style="overflow:visible">
      <path
         inkscape:connector-curvature="0"
         id="path5771"
         d="m -2.5,-1 c 0,2.76 -2.24,5 -5,5 -2.76,0 -5,-2.24 -5,-5 0,-2.76 2.24,-5 5,-5 2.76,0 5,2.24 5,5 z"
         style="fill:#858585;fill-rule:evenodd;stroke:#858585;stroke-width:1pt"
         transform="matrix(0.2,0,0,0.2,1.48,0.2)" />
    </marker>
    <marker
       inkscape:stockid="marker4516P"
       orient="auto"
       refY="0"
       refX="0"
       id="marker4516P"
       style="overflow:visible">
      <path
         inkscape:connector-curvature="0"
         id="path5774"
         d="m -2.5,-1 c 0,2.76 -2.24,5 -5,5 -2.76,0 -5,-2.24 -5,-5 0,-2.76 2.24,-5 5,-5 2.76,0 5,2.24 5,5 z"
         style="fill:#858585;fill-rule:evenodd;stroke:#858585;stroke-width:1pt"
         transform="matrix(0.2,0,0,0.2,1.48,0.2)" />
    </marker>
    <marker
       inkscape:stockid="DotSC"
       orient="auto"
       refY="0"
       refX="0"
       id="DotSC"
       style="overflow:visible">
      <path
         id="path5777"
         d="m -2.5,-1 c 0,2.76 -2.24,5 -5,5 -2.76,0 -5,-2.24 -5,-5 0,-2.76 2.24,-5 5,-5 2.76,0 5,2.24 5,5 z"
         style="fill:#858585;fill-rule:evenodd;stroke:#858585;stroke-width:1pt"
         transform="matrix(0.2,0,0,0.2,1.48,0.2)"
         inkscape:connector-curvature="0" />
    </marker>
    <marker
       inkscape:stockid="DotSL"
       orient="auto"
       refY="0"
       refX="0"
       id="DotSL"
       style="overflow:visible">
      <path
         id="path5780"
         d="m -2.5,-1 c 0,2.76 -2.24,5 -5,5 -2.76,0 -5,-2.24 -5,-5 0,-2.76 2.24,-5 5,-5 2.76,0 5,2.24 5,5 z"
         style="fill:#858585;fill-rule:evenodd;stroke:#858585;stroke-width:1pt"
         transform="matrix(0.2,0,0,0.2,1.48,0.2)"
         inkscape:connector-curvature="0" />
    </marker>
    <marker
       inkscape:stockid="DotSf"
       orient="auto"
       refY="0"
       refX="0"
       id="DotSf"
       style="overflow:visible">
      <path
         id="path5783"
         d="m -2.5,-1 c 0,2.76 -2.24,5 -5,5 -2.76,0 -5,-2.24 -5,-5 0,-2.76 2.24,-5 5,-5 2.76,0 5,2.24 5,5 z"
         style="fill:#858585;fill-rule:evenodd;stroke:#858585;stroke-width:1pt"
         transform="matrix(0.2,0,0,0.2,1.48,0.2)"
         inkscape:connector-curvature="0" />
    </marker>
    <marker
       inkscape:stockid="DotS7"
       orient="auto"
       refY="0"
       refX="0"
       id="DotS7"
       style="overflow:visible">
      <path
         id="path5786"
         d="m -2.5,-1 c 0,2.76 -2.24,5 -5,5 -2.76,0 -5,-2.24 -5,-5 0,-2.76 2.24,-5 5,-5 2.76,0 5,2.24 5,5 z"
         style="fill:#858585;fill-rule:evenodd;stroke:#858585;stroke-width:1pt"
         transform="matrix(0.2,0,0,0.2,1.48,0.2)"
         inkscape:connector-curvature="0" />
    </marker>
    <marker
       inkscape:stockid="DotSS"
       orient="auto"
       refY="0"
       refX="0"
       id="DotSS"
       style="overflow:visible">
      <path
         id="path5789"
         d="m -2.5,-1 c 0,2.76 -2.24,5 -5,5 -2.76,0 -5,-2.24 -5,-5 0,-2.76 2.24,-5 5,-5 2.76,0 5,2.24 5,5 z"
         style="fill:#858585;fill-rule:evenodd;stroke:#858585;stroke-width:1pt"
         transform="matrix(0.2,0,0,0.2,1.48,0.2)"
         inkscape:connector-curvature="0" />
    </marker>
    <marker
       inkscape:stockid="DotSy"
       orient="auto"
       refY="0"
       refX="0"
       id="DotSy"
       style="overflow:visible">
      <path
         id="path5792"
         d="m -2.5,-1 c 0,2.76 -2.24,5 -5,5 -2.76,0 -5,-2.24 -5,-5 0,-2.76 2.24,-5 5,-5 2.76,0 5,2.24 5,5 z"
         style="fill:#858585;fill-rule:evenodd;stroke:#858585;stroke-width:1pt"
         transform="matrix(0.2,0,0,0.2,1.48,0.2)"
         inkscape:connector-curvature="0" />
    </marker>
    <marker
       inkscape:stockid="marker4516C"
       orient="auto"
       refY="0"
       refX="0"
       id="marker4516C"
       style="overflow:visible">
      <path
         inkscape:connector-curvature="0"
         id="path5795"
         d="m -2.5,-1 c 0,2.76 -2.24,5 -5,5 -2.76,0 -5,-2.24 -5,-5 0,-2.76 2.24,-5 5,-5 2.76,0 5,2.24 5,5 z"
         style="fill:#858585;fill-rule:evenodd;stroke:#858585;stroke-width:1pt"
         transform="matrix(0.2,0,0,0.2,1.48,0.2)" />
    </marker>
    <marker
       inkscape:stockid="marker45162"
       orient="auto"
       refY="0"
       refX="0"
       id="marker45162"
       style="overflow:visible">
      <path
         inkscape:connector-curvature="0"
         id="path5798"
         d="m -2.5,-1 c 0,2.76 -2.24,5 -5,5 -2.76,0 -5,-2.24 -5,-5 0,-2.76 2.24,-5 5,-5 2.76,0 5,2.24 5,5 z"
         style="fill:#858585;fill-rule:evenodd;stroke:#858585;stroke-width:1pt"
         transform="matrix(0.2,0,0,0.2,1.48,0.2)" />
    </marker>
    <marker
       inkscape:stockid="DotSG"
       orient="auto"
       refY="0"
       refX="0"
       id="DotSG"
       style="overflow:visible">
      <path
         id="path5801"
         d="m -2.5,-1 c 0,2.76 -2.24,5 -5,5 -2.76,0 -5,-2.24 -5,-5 0,-2.76 2.24,-5 5,-5 2.76,0 5,2.24 5,5 z"
         style="fill:#858585;fill-rule:evenodd;stroke:#858585;stroke-width:1pt"
         transform="matrix(0.2,0,0,0.2,1.48,0.2)"
         inkscape:connector-curvature="0" />
    </marker>
    <marker
       inkscape:stockid="DotS5"
       orient="auto"
       refY="0"
       refX="0"
       id="DotS5"
       style="overflow:visible">
      <path
         id="path5804"
         d="m -2.5,-1 c 0,2.76 -2.24,5 -5,5 -2.76,0 -5,-2.24 -5,-5 0,-2.76 2.24,-5 5,-5 2.76,0 5,2.24 5,5 z"
         style="fill:#858585;fill-rule:evenodd;stroke:#858585;stroke-width:1pt"
         transform="matrix(0.2,0,0,0.2,1.48,0.2)"
         inkscape:connector-curvature="0" />
    </marker>
    <marker
       inkscape:stockid="DotSsA"
       orient="auto"
       refY="0"
       refX="0"
       id="DotSsA"
       style="overflow:visible">
      <path
         id="path5807"
         d="m -2.5,-1 c 0,2.76 -2.24,5 -5,5 -2.76,0 -5,-2.24 -5,-5 0,-2.76 2.24,-5 5,-5 2.76,0 5,2.24 5,5 z"
         style="fill:#858585;fill-rule:evenodd;stroke:#858585;stroke-width:1pt"
         transform="matrix(0.2,0,0,0.2,1.48,0.2)"
         inkscape:connector-curvature="0" />
    </marker>
    <marker
       inkscape:stockid="DotSLd"
       orient="auto"
       refY="0"
       refX="0"
       id="DotSLd"
       style="overflow:visible">
      <path
         id="path5810"
         d="m -2.5,-1 c 0,2.76 -2.24,5 -5,5 -2.76,0 -5,-2.24 -5,-5 0,-2.76 2.24,-5 5,-5 2.76,0 5,2.24 5,5 z"
         style="fill:#858585;fill-rule:evenodd;stroke:#858585;stroke-width:1pt"
         transform="matrix(0.2,0,0,0.2,1.48,0.2)"
         inkscape:connector-curvature="0" />
    </marker>
    <marker
       inkscape:stockid="DotSd"
       orient="auto"
       refY="0"
       refX="0"
       id="DotSd"
       style="overflow:visible">
      <path
         id="path5813"
         d="m -2.5,-1 c 0,2.76 -2.24,5 -5,5 -2.76,0 -5,-2.24 -5,-5 0,-2.76 2.24,-5 5,-5 2.76,0 5,2.24 5,5 z"
         style="fill:#858585;fill-rule:evenodd;stroke:#858585;stroke-width:1pt"
         transform="matrix(0.2,0,0,0.2,1.48,0.2)"
         inkscape:connector-curvature="0" />
    </marker>
    <marker
       inkscape:stockid="DotSyI"
       orient="auto"
       refY="0"
       refX="0"
       id="DotSyI"
       style="overflow:visible">
      <path
         id="path5816"
         d="m -2.5,-1 c 0,2.76 -2.24,5 -5,5 -2.76,0 -5,-2.24 -5,-5 0,-2.76 2.24,-5 5,-5 2.76,0 5,2.24 5,5 z"
         style="fill:#858585;fill-rule:evenodd;stroke:#858585;stroke-width:1pt"
         transform="matrix(0.2,0,0,0.2,1.48,0.2)"
         inkscape:connector-curvature="0" />
    </marker>
    <marker
       inkscape:stockid="marker4516y"
       orient="auto"
       refY="0"
       refX="0"
       id="marker4516y"
       style="overflow:visible">
      <path
         inkscape:connector-curvature="0"
         id="path5819"
         d="m -2.5,-1 c 0,2.76 -2.24,5 -5,5 -2.76,0 -5,-2.24 -5,-5 0,-2.76 2.24,-5 5,-5 2.76,0 5,2.24 5,5 z"
         style="fill:#858585;fill-rule:evenodd;stroke:#858585;stroke-width:1pt"
         transform="matrix(0.2,0,0,0.2,1.48,0.2)" />
    </marker>
    <marker
       inkscape:stockid="marker4516I"
       orient="auto"
       refY="0"
       refX="0"
       id="marker4516I"
       style="overflow:visible">
      <path
         inkscape:connector-curvature="0"
         id="path5822"
         d="m -2.5,-1 c 0,2.76 -2.24,5 -5,5 -2.76,0 -5,-2.24 -5,-5 0,-2.76 2.24,-5 5,-5 2.76,0 5,2.24 5,5 z"
         style="fill:#858585;fill-rule:evenodd;stroke:#858585;stroke-width:1pt"
         transform="matrix(0.2,0,0,0.2,1.48,0.2)" />
    </marker>
    <marker
       inkscape:stockid="marker5218b"
       orient="auto"
       refY="0"
       refX="0"
       id="marker5218b"
       style="overflow:visible">
      <path
         inkscape:connector-curvature="0"
         id="path5825"
         d="m -2.5,-1 c 0,2.76 -2.24,5 -5,5 -2.76,0 -5,-2.24 -5,-5 0,-2.76 2.24,-5 5,-5 2.76,0 5,2.24 5,5 z"
         style="fill:#858585;fill-rule:evenodd;stroke:#858585;stroke-width:1pt"
         transform="matrix(0.2,0,0,0.2,1.48,0.2)" />
    </marker>
    <marker
       inkscape:stockid="marker5218X"
       orient="auto"
       refY="0"
       refX="0"
       id="marker5218X"
       style="overflow:visible">
      <path
         inkscape:connector-curvature="0"
         id="path5828"
         d="m -2.5,-1 c 0,2.76 -2.24,5 -5,5 -2.76,0 -5,-2.24 -5,-5 0,-2.76 2.24,-5 5,-5 2.76,0 5,2.24 5,5 z"
         style="fill:#858585;fill-rule:evenodd;stroke:#858585;stroke-width:1pt"
         transform="matrix(0.2,0,0,0.2,1.48,0.2)" />
    </marker>
    <marker
       inkscape:stockid="DotSQL"
       orient="auto"
       refY="0"
       refX="0"
       id="DotSQL"
       style="overflow:visible">
      <path
         id="path6109"
         d="m -2.5,-1 c 0,2.76 -2.24,5 -5,5 -2.76,0 -5,-2.24 -5,-5 0,-2.76 2.24,-5 5,-5 2.76,0 5,2.24 5,5 z"
         style="fill:#ffc400;fill-rule:evenodd;stroke:#ffc400;stroke-width:1pt"
         transform="matrix(0.2,0,0,0.2,1.48,0.2)"
         inkscape:connector-curvature="0" />
    </marker>
    <marker
       inkscape:stockid="DotSgb"
       orient="auto"
       refY="0"
       refX="0"
       id="DotSgb"
       style="overflow:visible">
      <path
         id="path6112"
         d="m -2.5,-1 c 0,2.76 -2.24,5 -5,5 -2.76,0 -5,-2.24 -5,-5 0,-2.76 2.24,-5 5,-5 2.76,0 5,2.24 5,5 z"
         style="fill:#ffc400;fill-rule:evenodd;stroke:#ffc400;stroke-width:1pt"
         transform="matrix(0.2,0,0,0.2,1.48,0.2)"
         inkscape:connector-curvature="0" />
    </marker>
    <marker
       inkscape:stockid="marker4516J6"
       orient="auto"
       refY="0"
       refX="0"
       id="marker4516J6"
       style="overflow:visible">
      <path
         inkscape:connector-curvature="0"
         id="path6115"
         d="m -2.5,-1 c 0,2.76 -2.24,5 -5,5 -2.76,0 -5,-2.24 -5,-5 0,-2.76 2.24,-5 5,-5 2.76,0 5,2.24 5,5 z"
         style="fill:#ffc400;fill-rule:evenodd;stroke:#ffc400;stroke-width:1pt"
         transform="matrix(0.2,0,0,0.2,1.48,0.2)" />
    </marker>
    <marker
       inkscape:stockid="marker4516Pl"
       orient="auto"
       refY="0"
       refX="0"
       id="marker4516Pl"
       style="overflow:visible">
      <path
         inkscape:connector-curvature="0"
         id="path6118"
         d="m -2.5,-1 c 0,2.76 -2.24,5 -5,5 -2.76,0 -5,-2.24 -5,-5 0,-2.76 2.24,-5 5,-5 2.76,0 5,2.24 5,5 z"
         style="fill:#ffc400;fill-rule:evenodd;stroke:#ffc400;stroke-width:1pt"
         transform="matrix(0.2,0,0,0.2,1.48,0.2)" />
    </marker>
    <marker
       inkscape:stockid="DotSSB"
       orient="auto"
       refY="0"
       refX="0"
       id="DotSSB"
       style="overflow:visible">
      <path
         id="path6121"
         d="m -2.5,-1 c 0,2.76 -2.24,5 -5,5 -2.76,0 -5,-2.24 -5,-5 0,-2.76 2.24,-5 5,-5 2.76,0 5,2.24 5,5 z"
         style="fill:#ffc400;fill-rule:evenodd;stroke:#ffc400;stroke-width:1pt"
         transform="matrix(0.2,0,0,0.2,1.48,0.2)"
         inkscape:connector-curvature="0" />
    </marker>
    <marker
       inkscape:stockid="DotSyD"
       orient="auto"
       refY="0"
       refX="0"
       id="DotSyD"
       style="overflow:visible">
      <path
         id="path6124"
         d="m -2.5,-1 c 0,2.76 -2.24,5 -5,5 -2.76,0 -5,-2.24 -5,-5 0,-2.76 2.24,-5 5,-5 2.76,0 5,2.24 5,5 z"
         style="fill:#ffc400;fill-rule:evenodd;stroke:#ffc400;stroke-width:1pt"
         transform="matrix(0.2,0,0,0.2,1.48,0.2)"
         inkscape:connector-curvature="0" />
    </marker>
    <marker
       inkscape:stockid="marker4516Ct"
       orient="auto"
       refY="0"
       refX="0"
       id="marker4516Ct"
       style="overflow:visible">
      <path
         inkscape:connector-curvature="0"
         id="path6127"
         d="m -2.5,-1 c 0,2.76 -2.24,5 -5,5 -2.76,0 -5,-2.24 -5,-5 0,-2.76 2.24,-5 5,-5 2.76,0 5,2.24 5,5 z"
         style="fill:#ffc400;fill-rule:evenodd;stroke:#ffc400;stroke-width:1pt"
         transform="matrix(0.2,0,0,0.2,1.48,0.2)" />
    </marker>
    <marker
       inkscape:stockid="marker451623"
       orient="auto"
       refY="0"
       refX="0"
       id="marker451623"
       style="overflow:visible">
      <path
         inkscape:connector-curvature="0"
         id="path6130"
         d="m -2.5,-1 c 0,2.76 -2.24,5 -5,5 -2.76,0 -5,-2.24 -5,-5 0,-2.76 2.24,-5 5,-5 2.76,0 5,2.24 5,5 z"
         style="fill:#ffc400;fill-rule:evenodd;stroke:#ffc400;stroke-width:1pt"
         transform="matrix(0.2,0,0,0.2,1.48,0.2)" />
    </marker>
    <marker
       inkscape:stockid="marker4516yb"
       orient="auto"
       refY="0"
       refX="0"
       id="marker4516yb"
       style="overflow:visible">
      <path
         inkscape:connector-curvature="0"
         id="path6133"
         d="m -2.5,-1 c 0,2.76 -2.24,5 -5,5 -2.76,0 -5,-2.24 -5,-5 0,-2.76 2.24,-5 5,-5 2.76,0 5,2.24 5,5 z"
         style="fill:#ffc400;fill-rule:evenodd;stroke:#ffc400;stroke-width:1pt"
         transform="matrix(0.2,0,0,0.2,1.48,0.2)" />
    </marker>
    <marker
       inkscape:stockid="marker4516IS"
       orient="auto"
       refY="0"
       refX="0"
       id="marker4516IS"
       style="overflow:visible">
      <path
         inkscape:connector-curvature="0"
         id="path6136"
         d="m -2.5,-1 c 0,2.76 -2.24,5 -5,5 -2.76,0 -5,-2.24 -5,-5 0,-2.76 2.24,-5 5,-5 2.76,0 5,2.24 5,5 z"
         style="fill:#ffc400;fill-rule:evenodd;stroke:#ffc400;stroke-width:1pt"
         transform="matrix(0.2,0,0,0.2,1.48,0.2)" />
    </marker>
    <marker
       inkscape:stockid="DotSsAi"
       orient="auto"
       refY="0"
       refX="0"
       id="DotSsAi"
       style="overflow:visible">
      <path
         id="path6139"
         d="m -2.5,-1 c 0,2.76 -2.24,5 -5,5 -2.76,0 -5,-2.24 -5,-5 0,-2.76 2.24,-5 5,-5 2.76,0 5,2.24 5,5 z"
         style="fill:#ffc400;fill-rule:evenodd;stroke:#ffc400;stroke-width:1pt"
         transform="matrix(0.2,0,0,0.2,1.48,0.2)"
         inkscape:connector-curvature="0" />
    </marker>
    <marker
       inkscape:stockid="DotSLdG"
       orient="auto"
       refY="0"
       refX="0"
       id="DotSLdG"
       style="overflow:visible">
      <path
         id="path6142"
         d="m -2.5,-1 c 0,2.76 -2.24,5 -5,5 -2.76,0 -5,-2.24 -5,-5 0,-2.76 2.24,-5 5,-5 2.76,0 5,2.24 5,5 z"
         style="fill:#ffc400;fill-rule:evenodd;stroke:#ffc400;stroke-width:1pt"
         transform="matrix(0.2,0,0,0.2,1.48,0.2)"
         inkscape:connector-curvature="0" />
    </marker>
    <marker
       inkscape:stockid="DotSd7"
       orient="auto"
       refY="0"
       refX="0"
       id="DotSd7"
       style="overflow:visible">
      <path
         id="path6145"
         d="m -2.5,-1 c 0,2.76 -2.24,5 -5,5 -2.76,0 -5,-2.24 -5,-5 0,-2.76 2.24,-5 5,-5 2.76,0 5,2.24 5,5 z"
         style="fill:#ffc400;fill-rule:evenodd;stroke:#ffc400;stroke-width:1pt"
         transform="matrix(0.2,0,0,0.2,1.48,0.2)"
         inkscape:connector-curvature="0" />
    </marker>
    <marker
       inkscape:stockid="DotSyIp"
       orient="auto"
       refY="0"
       refX="0"
       id="DotSyIp"
       style="overflow:visible">
      <path
         id="path6148"
         d="m -2.5,-1 c 0,2.76 -2.24,5 -5,5 -2.76,0 -5,-2.24 -5,-5 0,-2.76 2.24,-5 5,-5 2.76,0 5,2.24 5,5 z"
         style="fill:#ffc400;fill-rule:evenodd;stroke:#ffc400;stroke-width:1pt"
         transform="matrix(0.2,0,0,0.2,1.48,0.2)"
         inkscape:connector-curvature="0" />
    </marker>
    <marker
       inkscape:stockid="DotSvS"
       orient="auto"
       refY="0"
       refX="0"
       id="DotSvS"
       style="overflow:visible">
      <path
         id="path6151"
         d="m -2.5,-1 c 0,2.76 -2.24,5 -5,5 -2.76,0 -5,-2.24 -5,-5 0,-2.76 2.24,-5 5,-5 2.76,0 5,2.24 5,5 z"
         style="fill:#ffc400;fill-rule:evenodd;stroke:#ffc400;stroke-width:1pt"
         transform="matrix(0.2,0,0,0.2,1.48,0.2)"
         inkscape:connector-curvature="0" />
    </marker>
    <marker
       inkscape:stockid="DotSsJ"
       orient="auto"
       refY="0"
       refX="0"
       id="DotSsJ"
       style="overflow:visible">
      <path
         id="path6154"
         d="m -2.5,-1 c 0,2.76 -2.24,5 -5,5 -2.76,0 -5,-2.24 -5,-5 0,-2.76 2.24,-5 5,-5 2.76,0 5,2.24 5,5 z"
         style="fill:#ffc400;fill-rule:evenodd;stroke:#ffc400;stroke-width:1pt"
         transform="matrix(0.2,0,0,0.2,1.48,0.2)"
         inkscape:connector-curvature="0" />
    </marker>
    <marker
       inkscape:stockid="DotSfb"
       orient="auto"
       refY="0"
       refX="0"
       id="DotSfb"
       style="overflow:visible">
      <path
         id="path6157"
         d="m -2.5,-1 c 0,2.76 -2.24,5 -5,5 -2.76,0 -5,-2.24 -5,-5 0,-2.76 2.24,-5 5,-5 2.76,0 5,2.24 5,5 z"
         style="fill:#ffc400;fill-rule:evenodd;stroke:#ffc400;stroke-width:1pt"
         transform="matrix(0.2,0,0,0.2,1.48,0.2)"
         inkscape:connector-curvature="0" />
    </marker>
    <marker
       inkscape:stockid="DotS7T"
       orient="auto"
       refY="0"
       refX="0"
       id="DotS7T"
       style="overflow:visible">
      <path
         id="path6160"
         d="m -2.5,-1 c 0,2.76 -2.24,5 -5,5 -2.76,0 -5,-2.24 -5,-5 0,-2.76 2.24,-5 5,-5 2.76,0 5,2.24 5,5 z"
         style="fill:#ffc400;fill-rule:evenodd;stroke:#ffc400;stroke-width:1pt"
         transform="matrix(0.2,0,0,0.2,1.48,0.2)"
         inkscape:connector-curvature="0" />
    </marker>
    <marker
       inkscape:stockid="DotSko"
       orient="auto"
       refY="0"
       refX="0"
       id="DotSko"
       style="overflow:visible">
      <path
         id="path6163"
         d="m -2.5,-1 c 0,2.76 -2.24,5 -5,5 -2.76,0 -5,-2.24 -5,-5 0,-2.76 2.24,-5 5,-5 2.76,0 5,2.24 5,5 z"
         style="fill:#ffc400;fill-rule:evenodd;stroke:#ffc400;stroke-width:1pt"
         transform="matrix(0.2,0,0,0.2,1.48,0.2)"
         inkscape:connector-curvature="0" />
    </marker>
    <marker
       inkscape:stockid="DotSKZ"
       orient="auto"
       refY="0"
       refX="0"
       id="DotSKZ"
       style="overflow:visible">
      <path
         id="path6166"
         d="m -2.5,-1 c 0,2.76 -2.24,5 -5,5 -2.76,0 -5,-2.24 -5,-5 0,-2.76 2.24,-5 5,-5 2.76,0 5,2.24 5,5 z"
         style="fill:#ffc400;fill-rule:evenodd;stroke:#ffc400;stroke-width:1pt"
         transform="matrix(0.2,0,0,0.2,1.48,0.2)"
         inkscape:connector-curvature="0" />
    </marker>
    <marker
       inkscape:stockid="DotSCa"
       orient="auto"
       refY="0"
       refX="0"
       id="DotSCa"
       style="overflow:visible">
      <path
         id="path6169"
         d="m -2.5,-1 c 0,2.76 -2.24,5 -5,5 -2.76,0 -5,-2.24 -5,-5 0,-2.76 2.24,-5 5,-5 2.76,0 5,2.24 5,5 z"
         style="fill:#ffc400;fill-rule:evenodd;stroke:#ffc400;stroke-width:1pt"
         transform="matrix(0.2,0,0,0.2,1.48,0.2)"
         inkscape:connector-curvature="0" />
    </marker>
    <marker
       inkscape:stockid="DotSLi"
       orient="auto"
       refY="0"
       refX="0"
       id="DotSLi"
       style="overflow:visible">
      <path
         id="path6172"
         d="m -2.5,-1 c 0,2.76 -2.24,5 -5,5 -2.76,0 -5,-2.24 -5,-5 0,-2.76 2.24,-5 5,-5 2.76,0 5,2.24 5,5 z"
         style="fill:#ffc400;fill-rule:evenodd;stroke:#ffc400;stroke-width:1pt"
         transform="matrix(0.2,0,0,0.2,1.48,0.2)"
         inkscape:connector-curvature="0" />
    </marker>
    <marker
       inkscape:stockid="marker5218bQ"
       orient="auto"
       refY="0"
       refX="0"
       id="marker5218bQ"
       style="overflow:visible">
      <path
         inkscape:connector-curvature="0"
         id="path6175"
         d="m -2.5,-1 c 0,2.76 -2.24,5 -5,5 -2.76,0 -5,-2.24 -5,-5 0,-2.76 2.24,-5 5,-5 2.76,0 5,2.24 5,5 z"
         style="fill:#ffc400;fill-rule:evenodd;stroke:#ffc400;stroke-width:1pt"
         transform="matrix(0.2,0,0,0.2,1.48,0.2)" />
    </marker>
    <marker
       inkscape:stockid="marker5218XM"
       orient="auto"
       refY="0"
       refX="0"
       id="marker5218XM"
       style="overflow:visible">
      <path
         inkscape:connector-curvature="0"
         id="path6178"
         d="m -2.5,-1 c 0,2.76 -2.24,5 -5,5 -2.76,0 -5,-2.24 -5,-5 0,-2.76 2.24,-5 5,-5 2.76,0 5,2.24 5,5 z"
         style="fill:#ffc400;fill-rule:evenodd;stroke:#ffc400;stroke-width:1pt"
         transform="matrix(0.2,0,0,0.2,1.48,0.2)" />
    </marker>
    <marker
       inkscape:stockid="DotSGn"
       orient="auto"
       refY="0"
       refX="0"
       id="DotSGn"
       style="overflow:visible">
      <path
         id="path6181"
         d="m -2.5,-1 c 0,2.76 -2.24,5 -5,5 -2.76,0 -5,-2.24 -5,-5 0,-2.76 2.24,-5 5,-5 2.76,0 5,2.24 5,5 z"
         style="fill:#ffc400;fill-rule:evenodd;stroke:#ffc400;stroke-width:1pt"
         transform="matrix(0.2,0,0,0.2,1.48,0.2)"
         inkscape:connector-curvature="0" />
    </marker>
    <marker
       inkscape:stockid="DotS5R"
       orient="auto"
       refY="0"
       refX="0"
       id="DotS5R"
       style="overflow:visible">
      <path
         id="path6184"
         d="m -2.5,-1 c 0,2.76 -2.24,5 -5,5 -2.76,0 -5,-2.24 -5,-5 0,-2.76 2.24,-5 5,-5 2.76,0 5,2.24 5,5 z"
         style="fill:#ffc400;fill-rule:evenodd;stroke:#ffc400;stroke-width:1pt"
         transform="matrix(0.2,0,0,0.2,1.48,0.2)"
         inkscape:connector-curvature="0" />
    </marker>
    <marker
       inkscape:stockid="DotSd7"
       orient="auto"
       refY="0"
       refX="0"
       id="DotSd7-9"
       style="overflow:visible">
      <path
         inkscape:connector-curvature="0"
         id="path6145-2"
         d="m -2.5,-1 c 0,2.76 -2.24,5 -5,5 -2.76,0 -5,-2.24 -5,-5 0,-2.76 2.24,-5 5,-5 2.76,0 5,2.24 5,5 z"
         style="fill:#ffc400;fill-rule:evenodd;stroke:#ffc400;stroke-width:1pt"
         transform="matrix(0.2,0,0,0.2,1.48,0.2)" />
    </marker>
    <marker
       inkscape:stockid="DotSyIp"
       orient="auto"
       refY="0"
       refX="0"
       id="DotSyIp-9"
       style="overflow:visible">
      <path
         inkscape:connector-curvature="0"
         id="path6148-2"
         d="m -2.5,-1 c 0,2.76 -2.24,5 -5,5 -2.76,0 -5,-2.24 -5,-5 0,-2.76 2.24,-5 5,-5 2.76,0 5,2.24 5,5 z"
         style="fill:#ffc400;fill-rule:evenodd;stroke:#ffc400;stroke-width:1pt"
         transform="matrix(0.2,0,0,0.2,1.48,0.2)" />
    </marker>
    <marker
       inkscape:stockid="DotSGn"
       orient="auto"
       refY="0"
       refX="0"
       id="DotSGn-0"
       style="overflow:visible">
      <path
         inkscape:connector-curvature="0"
         id="path6181-6"
         d="m -2.5,-1 c 0,2.76 -2.24,5 -5,5 -2.76,0 -5,-2.24 -5,-5 0,-2.76 2.24,-5 5,-5 2.76,0 5,2.24 5,5 z"
         style="fill:#ffc400;fill-rule:evenodd;stroke:#ffc400;stroke-width:1pt"
         transform="matrix(0.2,0,0,0.2,1.48,0.2)" />
    </marker>
    <marker
       inkscape:stockid="DotS5R"
       orient="auto"
       refY="0"
       refX="0"
       id="DotS5R-3"
       style="overflow:visible">
      <path
         inkscape:connector-curvature="0"
         id="path6184-9"
         d="m -2.5,-1 c 0,2.76 -2.24,5 -5,5 -2.76,0 -5,-2.24 -5,-5 0,-2.76 2.24,-5 5,-5 2.76,0 5,2.24 5,5 z"
         style="fill:#ffc400;fill-rule:evenodd;stroke:#ffc400;stroke-width:1pt"
         transform="matrix(0.2,0,0,0.2,1.48,0.2)" />
    </marker>
    <marker
       inkscape:stockid="marker5218bQ"
       orient="auto"
       refY="0"
       refX="0"
       id="marker5218bQ-7"
       style="overflow:visible">
      <path
         inkscape:connector-curvature="0"
         id="path6175-9"
         d="m -2.5,-1 c 0,2.76 -2.24,5 -5,5 -2.76,0 -5,-2.24 -5,-5 0,-2.76 2.24,-5 5,-5 2.76,0 5,2.24 5,5 z"
         style="fill:#ffc400;fill-rule:evenodd;stroke:#ffc400;stroke-width:1pt"
         transform="matrix(0.2,0,0,0.2,1.48,0.2)" />
    </marker>
    <marker
       inkscape:stockid="marker5218XM"
       orient="auto"
       refY="0"
       refX="0"
       id="marker5218XM-8"
       style="overflow:visible">
      <path
         inkscape:connector-curvature="0"
         id="path6178-2"
         d="m -2.5,-1 c 0,2.76 -2.24,5 -5,5 -2.76,0 -5,-2.24 -5,-5 0,-2.76 2.24,-5 5,-5 2.76,0 5,2.24 5,5 z"
         style="fill:#ffc400;fill-rule:evenodd;stroke:#ffc400;stroke-width:1pt"
         transform="matrix(0.2,0,0,0.2,1.48,0.2)" />
    </marker>
    <marker
       inkscape:stockid="marker5218bQ"
       orient="auto"
       refY="0"
       refX="0"
       id="marker5218bQ-9"
       style="overflow:visible">
      <path
         inkscape:connector-curvature="0"
         id="path6175-95"
         d="m -2.5,-1 c 0,2.76 -2.24,5 -5,5 -2.76,0 -5,-2.24 -5,-5 0,-2.76 2.24,-5 5,-5 2.76,0 5,2.24 5,5 z"
         style="fill:#ffc400;fill-rule:evenodd;stroke:#ffc400;stroke-width:1pt"
         transform="matrix(0.2,0,0,0.2,1.48,0.2)" />
    </marker>
    <marker
       inkscape:stockid="marker5218XM"
       orient="auto"
       refY="0"
       refX="0"
       id="marker5218XM-4"
       style="overflow:visible">
      <path
         inkscape:connector-curvature="0"
         id="path6178-29"
         d="m -2.5,-1 c 0,2.76 -2.24,5 -5,5 -2.76,0 -5,-2.24 -5,-5 0,-2.76 2.24,-5 5,-5 2.76,0 5,2.24 5,5 z"
         style="fill:#ffc400;fill-rule:evenodd;stroke:#ffc400;stroke-width:1pt"
         transform="matrix(0.2,0,0,0.2,1.48,0.2)" />
    </marker>
    <marker
       inkscape:stockid="DotSGn"
       orient="auto"
       refY="0"
       refX="0"
       id="DotSGn-08"
       style="overflow:visible">
      <path
         inkscape:connector-curvature="0"
         id="path6181-5"
         d="m -2.5,-1 c 0,2.76 -2.24,5 -5,5 -2.76,0 -5,-2.24 -5,-5 0,-2.76 2.24,-5 5,-5 2.76,0 5,2.24 5,5 z"
         style="fill:#ffc400;fill-rule:evenodd;stroke:#ffc400;stroke-width:1pt"
         transform="matrix(0.2,0,0,0.2,1.48,0.2)" />
    </marker>
    <marker
       inkscape:stockid="DotS5R"
       orient="auto"
       refY="0"
       refX="0"
       id="DotS5R-8"
       style="overflow:visible">
      <path
         inkscape:connector-curvature="0"
         id="path6184-1"
         d="m -2.5,-1 c 0,2.76 -2.24,5 -5,5 -2.76,0 -5,-2.24 -5,-5 0,-2.76 2.24,-5 5,-5 2.76,0 5,2.24 5,5 z"
         style="fill:#ffc400;fill-rule:evenodd;stroke:#ffc400;stroke-width:1pt"
         transform="matrix(0.2,0,0,0.2,1.48,0.2)" />
    </marker>
    <marker
       inkscape:stockid="marker4516Ct"
       orient="auto"
       refY="0"
       refX="0"
       id="marker4516Ct-0"
       style="overflow:visible">
      <path
         inkscape:connector-curvature="0"
         id="path6127-3"
         d="m -2.5,-1 c 0,2.76 -2.24,5 -5,5 -2.76,0 -5,-2.24 -5,-5 0,-2.76 2.24,-5 5,-5 2.76,0 5,2.24 5,5 z"
         style="fill:#ffc400;fill-rule:evenodd;stroke:#ffc400;stroke-width:1pt"
         transform="matrix(0.2,0,0,0.2,1.48,0.2)" />
    </marker>
    <marker
       inkscape:stockid="marker451623"
       orient="auto"
       refY="0"
       refX="0"
       id="marker451623-8"
       style="overflow:visible">
      <path
         inkscape:connector-curvature="0"
         id="path6130-8"
         d="m -2.5,-1 c 0,2.76 -2.24,5 -5,5 -2.76,0 -5,-2.24 -5,-5 0,-2.76 2.24,-5 5,-5 2.76,0 5,2.24 5,5 z"
         style="fill:#ffc400;fill-rule:evenodd;stroke:#ffc400;stroke-width:1pt"
         transform="matrix(0.2,0,0,0.2,1.48,0.2)" />
    </marker>
    <marker
       inkscape:stockid="marker5218bQ"
       orient="auto"
       refY="0"
       refX="0"
       id="marker5218bQ-0"
       style="overflow:visible">
      <path
         inkscape:connector-curvature="0"
         id="path6175-8"
         d="m -2.5,-1 c 0,2.76 -2.24,5 -5,5 -2.76,0 -5,-2.24 -5,-5 0,-2.76 2.24,-5 5,-5 2.76,0 5,2.24 5,5 z"
         style="fill:#ffc400;fill-rule:evenodd;stroke:#ffc400;stroke-width:1pt"
         transform="matrix(0.2,0,0,0.2,1.48,0.2)" />
    </marker>
    <marker
       inkscape:stockid="marker5218XM"
       orient="auto"
       refY="0"
       refX="0"
       id="marker5218XM-86"
       style="overflow:visible">
      <path
         inkscape:connector-curvature="0"
         id="path6178-7"
         d="m -2.5,-1 c 0,2.76 -2.24,5 -5,5 -2.76,0 -5,-2.24 -5,-5 0,-2.76 2.24,-5 5,-5 2.76,0 5,2.24 5,5 z"
         style="fill:#ffc400;fill-rule:evenodd;stroke:#ffc400;stroke-width:1pt"
         transform="matrix(0.2,0,0,0.2,1.48,0.2)" />
    </marker>
    <circle
       transform="matrix(0.8755829,0,0,0.8755829,152.4506,-680.83707)"
       id="path6572"
       style="fill:none;stroke:none"
       cx="675.71429"
       cy="777.58148"
       r="584.28571" />
    <circle
       transform="matrix(-1.1162727,-0.04357729,-0.04357729,1.1162727,1532.2608,-838.54723)"
       id="path6572-9"
       style="fill:none;stroke:none"
       cx="675.71429"
       cy="777.58148"
       r="584.28571" />
  </defs>
  <metadata
     id="metadata7">
    <rdf:RDF>
      <cc:Work
         rdf:about="">
        <dc:format>image/svg+xml</dc:format>
        <dc:type
           rdf:resource="http://purl.org/dc/dcmitype/StillImage" />
        <dc:title></dc:title>
      </cc:Work>
    </rdf:RDF>
  </metadata>
  <g
     inkscape:label="Ebene 1"
     inkscape:groupmode="layer"
     id="layer1"
     transform="translate(0,-783.07098)">
    <path
       id="path1658"
       style="color:#000000;font-style:normal;font-variant:normal;font-weight:normal;font-stretch:normal;font-size:medium;line-height:normal;font-family:sans-serif;font-variant-ligatures:normal;font-variant-position:normal;font-variant-caps:normal;font-variant-numeric:normal;font-variant-alternates:normal;font-variant-east-asian:normal;font-feature-settings:normal;font-variation-settings:normal;text-indent:0;text-align:start;text-decoration:none;text-decoration-line:none;text-decoration-style:solid;text-decoration-color:#000000;letter-spacing:normal;word-spacing:normal;text-transform:none;writing-mode:lr-tb;direction:ltr;text-orientation:mixed;dominant-baseline:auto;baseline-shift:baseline;text-anchor:start;white-space:normal;shape-padding:0;shape-margin:0;inline-size:0;clip-rule:nonzero;display:inline;overflow:visible;visibility:visible;isolation:auto;mix-blend-mode:normal;color-interpolation:sRGB;color-interpolation-filters:linearRGB;solid-color:#000000;solid-opacity:1;vector-effect:none;fill:#000000;fill-opacity:1;fill-rule:nonzero;stroke:none;stroke-width:1.99769;stroke-linecap:butt;stroke-linejoin:miter;stroke-miterlimit:4;stroke-dasharray:none;stroke-dashoffset:0;stroke-opacity:1;color-rendering:auto;image-rendering:auto;shape-rendering:auto;text-rendering:auto;enable-background:accumulate;stop-color:#000000"
       d="M 94.349229,783.07098 C 46.470179,783.08548 5.4166389,819.37641 0.48790888,868.03582 -4.7694911,919.93921 33.061489,966.3039 84.964469,971.56121 136.86746,976.81867 183.22664,938.98214 188.484,887.07879 c 0.3285,-3.24317 0.49301,-6.46694 0.49219,-9.66016 -0.0125,-47.88619 -36.30978,-88.93254 -84.96875,-93.86133 -3.24392,-0.32859 -6.466271,-0.48728 -9.658211,-0.48632 z m 0.85157,7.71289 c 0.27366,-0.013 0.45184,0.14821 0.46484,0.42187 l 0.11523,2.4375 c 0.013,0.27366 -0.14821,0.45185 -0.42187,0.46485 l -2.91797,0.13867 c -0.27366,0.013 -0.43686,0.18923 -0.42383,0.46289 l 0.59571,12.53711 c 0.013,0.27367 -0.14822,0.45184 -0.42188,0.46484 l -2.76172,0.13086 c -0.27366,0.013 -0.45182,-0.1482 -0.46484,-0.42187 l -0.5957,-12.53711 c -0.013,-0.27366 -0.18923,-0.43488 -0.46289,-0.42188 l -2.91993,0.13867 c -0.27366,0.013 -0.45182,-0.14821 -0.46484,-0.42187 l -0.11523,-2.4375 c -0.013,-0.27366 0.14821,-0.44989 0.42187,-0.46289 z m 7.576171,0.44726 10.07617,1.58985 c 0.27066,0.0427 0.41184,0.23718 0.36914,0.50781 l -0.37891,2.4082 c -0.0427,0.27065 -0.23718,0.41184 -0.50781,0.36914 l -6.46875,-1.01953 c -0.27061,-0.0427 -0.46511,0.0985 -0.50781,0.36914 l -0.38086,2.41016 c -0.0427,0.27063 0.0985,0.46316 0.36914,0.50586 l 5.31055,0.83789 c 0.27065,0.0427 0.41184,0.23719 0.36914,0.50781 l -0.38086,2.41016 c -0.0427,0.27066 -0.23523,0.41184 -0.50586,0.36914 l -5.31055,-0.83789 c -0.27062,-0.0427 -0.46511,0.0985 -0.50781,0.36914 l -0.40039,2.53906 c -0.0427,0.27062 0.0985,0.46511 0.36914,0.50781 l 6.4707,1.01953 c 0.27065,0.0427 0.41184,0.23719 0.36914,0.50782 l -0.38086,2.4082 c -0.0427,0.27066 -0.23718,0.41184 -0.50781,0.36914 l -10.07617,-1.58789 c -0.270661,-0.0427 -0.411841,-0.23719 -0.369141,-0.50781 l 2.472651,-15.6836 c 0.0427,-0.27066 0.2372,-0.41184 0.50782,-0.36914 z m -27.242191,1.54492 c 0.18982,-0.0476 0.37566,-4.1e-4 0.4707,0.16407 l 8.60547,14.6289 c 0.0443,0.0696 0.0511,0.0948 0.0606,0.13282 0.0317,0.12654 -0.0426,0.21216 -0.23242,0.25976 l -3.13672,0.78711 c -0.1392,0.0349 -0.24478,-0.006 -0.31445,-0.12305 l -1.15625,-2.09179 c -0.0697,-0.117 -0.13831,-0.12573 -0.32813,-0.0781 l -4.87305,1.22071 c -0.20248,0.0508 -0.24575,0.0885 -0.25195,0.2246 l -0.0332,2.39063 c -0.006,0.13606 -0.0805,0.22025 -0.20703,0.25195 l -3.125,0.78516 c -0.18982,0.0476 -0.30614,0.009 -0.33789,-0.11719 -0.0158,-0.0633 -0.0193,-0.1843 -0.01,-0.2539 0.003,-0.0411 0.69531,-16.85352 0.69531,-16.85352 0.006,-0.18986 0.15003,-0.31959 0.33985,-0.36719 z m -11.74805,3.16016 c 0.0597,0.008 0.10274,0.0408 0.13086,0.0996 0.0225,0.0471 0.0389,0.14068 0.0547,0.23438 l 2.67188,16.66796 c 0.0317,0.1873 -0.0812,0.34139 -0.25782,0.42579 l -3.54492,1.69335 c -0.17657,0.0844 -0.36831,0.0759 -0.49414,-0.0664 l -11.39844,-12.59961 c -0.0287,-0.0296 -0.0691,-0.0819 -0.0859,-0.11719 -0.0562,-0.11772 -7.9e-4,-0.21638 0.17578,-0.30078 l 2.9082,-1.38867 c 0.12949,-0.0619 0.23852,-0.0423 0.33008,0.0586 l 7.83789,9.13867 0.30078,0.47657 0.39844,-0.19141 -0.18164,-0.5332 -2.19922,-11.83203 c -0.0209,-0.13459 0.0346,-0.23277 0.15234,-0.28907 l 2.97852,-1.42382 c 0.0883,-0.0421 0.16298,-0.0604 0.22265,-0.0527 z m 62.357421,1.0332 c 0.0578,0.005 0.11767,0.0217 0.17969,0.0508 l 5.58789,2.61718 c 3.23709,1.51633 4.00948,4.05314 2.67578,6.90039 l -0.17187,0.36719 c -1.11787,2.38654 -3.78233,3.88905 -7.03125,2.36719 l -2.26758,-1.0625 c -0.2481,-0.11622 -0.47363,-0.0333 -0.58984,0.21484 l -2.21875,4.73633 c -0.11622,0.24813 -0.34175,0.32911 -0.58985,0.21289 l -2.50586,-1.17187 c -0.24813,-0.11622 -0.32911,-0.34175 -0.21289,-0.58985 l 6.73438,-14.3789 c 0.0872,-0.1861 0.23665,-0.27812 0.41015,-0.26368 z m -51.232421,0.5625 -0.44335,0.11133 0.0664,0.53516 -0.0957,5.83398 c 0.003,0.17407 0.0906,0.26023 0.31836,0.20313 l 2.97461,-0.7461 c 0.22777,-0.0571 0.27843,-0.17704 0.19922,-0.33203 l -2.82618,-5.10156 z m 53.128911,4 c -0.17354,-0.0144 -0.32104,0.0776 -0.4082,0.26368 l -1.32422,2.82421 c -0.11622,0.2481 -0.0333,0.47363 0.21484,0.58985 l 2.33789,1.0957 c 0.93333,0.43719 1.94759,0.14875 2.41797,-0.85547 l 0.16016,-0.34375 c 0.47039,-1.00422 0.0544,-1.99054 -0.87891,-2.42773 l -2.33984,-1.0957 c -0.062,-0.0291 -0.12184,-0.046 -0.17969,-0.0508 z m -81.658201,3.66407 c 0.10656,0.0198 0.20376,0.0882 0.28125,0.20117 l 9.05469,13.19922 c 0.15497,0.22592 0.11264,0.4622 -0.11329,0.61718 l -2.28125,1.56446 c -0.22592,0.15498 -0.46221,0.11068 -0.61718,-0.11524 l -9.05469,-13.19922 c -0.15498,-0.22592 -0.11069,-0.4622 0.11523,-0.61718 l 2.2793,-1.56446 c 0.11296,-0.0775 0.22938,-0.10578 0.33594,-0.0859 z m 96.091791,0.43554 c 0.10751,-0.0138 0.22165,0.0198 0.33008,0.10352 l 5.32813,4.11328 c 2.64359,2.04102 3.00361,4.84079 1.07421,7.33984 -1.10819,1.4354 -2.49459,2.07877 -4.24023,1.88477 -0.1511,-0.0178 -0.25065,0.005 -0.31445,0.0879 -0.0638,0.0826 -0.0902,0.16105 -0.12305,0.26758 l -1.7793,6.48828 c -0.0745,0.28861 -0.13737,0.45451 -0.20117,0.53711 -0.0638,0.0826 -0.20978,0.10022 -0.375,-0.0273 l -2.49804,-1.92774 c -0.083,-0.0638 -0.11618,-0.17271 -0.0801,-0.32617 l 1.73437,-6.4082 c 0.0384,-0.13515 -0.0126,-0.23875 -0.10547,-0.31055 l -1.78711,-1.38086 c -0.21686,-0.16746 -0.45366,-0.13678 -0.62109,0.0801 l -3.44531,4.46094 c -0.16743,0.21682 -0.40424,0.24749 -0.6211,0.0801 l -2.18945,-1.68945 c -0.21682,-0.16743 -0.2475,-0.40619 -0.0801,-0.62305 l 9.70117,-12.5664 c 0.0837,-0.10841 0.18547,-0.16977 0.29297,-0.1836 z m 0.85938,4.86524 c -0.10751,0.0138 -0.20926,0.0752 -0.29297,0.18359 l -1.72266,2.23047 c -0.16746,0.21686 -0.13678,0.45562 0.0801,0.62305 l 2.46875,1.90429 c 0.79515,0.6139 1.87535,0.55937 2.44141,-0.17382 l 0.27929,-0.36133 c 0.56606,-0.7332 0.35877,-1.76665 -0.45703,-2.39649 l -2.46679,-1.90625 c -0.10843,-0.0837 -0.22257,-0.11734 -0.33008,-0.10351 z m -105.009771,2.3457 c 1.28007,0.001 2.5376,0.57781 3.63868,1.70899 1.26485,1.29945 1.70567,2.762 1.26757,4.46289 -0.0389,0.14709 -0.0318,0.24941 0.041,0.32421 0.0728,0.0748 0.1472,0.11266 0.24805,0.16016 l 6.17187,2.67578 c 0.27523,0.11442 0.43111,0.19864 0.50391,0.27344 0.0728,0.0748 0.0714,0.22354 -0.0781,0.36914 l -2.26172,2.20117 c -0.0748,0.0728 -0.18714,0.0905 -0.33398,0.0332 l -6.09961,-2.61915 c -0.12839,-0.0571 -0.24008,-0.0233 -0.32422,0.0586 l -1.61719,1.57617 c -0.19636,0.1911 -0.1989,0.43063 -0.008,0.62695 l 3.93164,4.03711 c 0.19105,0.19632 0.18655,0.43781 -0.01,0.62891 l -1.98047,1.92773 c -0.19632,0.19155 -0.43586,0.18851 -0.62696,-0.008 l -11.07617,-11.37695 c -0.19105,-0.19632 -0.18655,-0.43586 0.01,-0.62696 l 4.82422,-4.69531 c 1.1966,-1.16475 2.49922,-1.7394 3.77929,-1.73828 z m 56.16211,1.3125 c 35.027121,0 63.400391,28.37485 63.400391,63.40235 0,35.02744 -28.37327,63.40039 -63.400391,63.40039 -27.05363,0 -50.13051,-16.94455 -59.24023,-40.78516 l -0.24609,-0.64063 h -16.42579 -0.82226 l -0.58789,-0.58789 -1.99805,-2 -0.58594,-0.58203 v -0.82617 -7.99023 -0.82813 l 0.58594,-0.58203 1.99805,-1.99805 1.58594,-1.58789 -1.58594,-1.58398 -1.99805,-2 -0.58594,-0.58203 v -0.82617 -7.99219 -0.82617 l 0.58594,-0.58204 1.99805,-1.99804 0.58789,-0.58985 h 0.82226 13.63282 l 0.16211,-0.79687 c 5.91146,-28.88847 31.46833,-50.61719 62.11718,-50.61719 z m -56.33984,2.20703 c -0.43621,0.0218 -0.88464,0.21478 -1.25391,0.57422 l -2.23437,2.17578 c -0.19637,0.1911 -0.19891,0.43064 -0.008,0.62696 l 1.96484,2.01953 c 0.1911,0.19586 0.43064,0.1989 0.62695,0.008 l 2.23438,-2.17383 c 0.71983,-0.7007 0.81796,-1.77961 0.17187,-2.44336 l -0.31836,-0.32617 c -0.32304,-0.33188 -0.74738,-0.48274 -1.18359,-0.46094 z m 118.816401,3.35742 c 1.35095,0.037 2.72584,0.77882 3.98438,2.32813 l 1.17578,1.44922 c 2.31965,2.85559 2.00726,5.26206 -0.28125,7.12109 l -6.10742,4.95899 c -2.19736,1.785 -4.78992,1.57269 -7.02735,-1.18164 l -1.17578,-1.44922 c -2.31966,-2.8556 -2.00725,-5.26206 0.28125,-7.1211 l 6.10743,-4.95898 c 0.95691,-0.77734 1.99223,-1.17525 3.04296,-1.14649 z m 0.2129,3.79493 c -0.43572,-0.0243 -0.88315,0.12924 -1.25782,0.43359 l -5.49804,4.4668 c -0.79996,0.64984 -0.95649,1.63557 -0.30664,2.43554 l 1.17578,1.44727 c 0.65806,0.8101 1.6878,0.81419 2.44726,0.19726 l 5.49805,-4.46679 c 0.79997,-0.64984 0.95648,-1.63557 0.30664,-2.43555 l -1.17578,-1.44726 c -0.32903,-0.40505 -0.75375,-0.60661 -1.18945,-0.63086 z m -130.755861,3.02148 c 0.94918,0.021 1.93585,0.3663 2.92383,1.00977 l 0.33789,0.2207 c 2.20826,1.43822 3.32906,4.28469 1.37109,7.29101 l -1.36719,2.09961 c -0.14952,0.22957 -0.10066,0.46377 0.12891,0.61329 l 4.38281,2.85546 c 0.22957,0.14952 0.28038,0.38371 0.13086,0.61329 l -1.50977,2.31835 c -0.14951,0.22961 -0.3837,0.27843 -0.61328,0.12891 l -13.30468,-8.66406 c -0.22958,-0.14951 -0.27843,-0.38567 -0.12891,-0.61524 l 3.36719,-5.16992 c 1.21928,-1.87212 2.69928,-2.73623 4.28125,-2.70117 z m 0.01,3.60352 c -0.57968,0.009 -1.1172,0.31764 -1.46875,0.85742 l -1.4082,2.16601 c -0.14952,0.22957 -0.10067,0.46377 0.12891,0.61328 l 2.61328,1.70118 c 0.22957,0.14953 0.46376,0.10067 0.61328,-0.12891 l 1.41015,-2.16406 c 0.56248,-0.86363 0.4175,-1.90847 -0.51171,-2.51367 l -0.31836,-0.20704 c -0.34846,-0.22695 -0.71079,-0.32949 -1.0586,-0.32421 z m 142.712891,4.34179 c 0.1732,-0.0181 0.32304,0.0697 0.41406,0.25391 l 2.73438,5.5332 c 1.58372,3.20469 0.60386,5.66756 -2.21484,7.06055 l -0.36329,0.17969 c -2.36256,1.16757 -5.38316,0.68123 -6.97265,-2.53516 l -1.10938,-2.24609 c -0.12137,-0.24563 -0.34814,-0.32257 -0.59375,-0.20118 l -4.68945,2.31836 c -0.2456,0.12138 -0.47237,0.0445 -0.59375,-0.20117 l -1.22656,-2.48047 c -0.12138,-0.24561 -0.0444,-0.47237 0.20117,-0.59375 l 14.23437,-7.03515 c 0.0614,-0.0303 0.12196,-0.0467 0.17969,-0.0527 z m -1.36523,4.74805 c -0.0577,0.006 -0.11829,0.0243 -0.17969,0.0547 l -2.79492,1.38086 c -0.24564,0.12138 -0.32255,0.34813 -0.20117,0.59375 l 1.14453,2.3164 c 0.45662,0.92398 1.42968,1.33116 2.42383,0.83985 l 0.33984,-0.16797 c 0.99415,-0.4913 1.28474,-1.52329 0.82812,-2.44727 l -1.14453,-2.31445 c -0.091,-0.18423 -0.24281,-0.27393 -0.41601,-0.25586 z m 8.78711,12.14453 c 0.17315,0.0187 0.30123,0.13673 0.35156,0.33594 l 2.50195,9.89258 c 0.0671,0.26562 -0.0566,0.47001 -0.32226,0.53711 l -2.36524,0.59961 c -0.26561,0.0671 -0.47196,-0.0566 -0.53906,-0.32227 l -1.60547,-6.34961 c -0.0672,-0.26561 -0.27151,-0.38741 -0.53711,-0.32031 l -2.36523,0.59765 c -0.26563,0.0671 -0.38937,0.27345 -0.32227,0.53907 l 1.31836,5.21093 c 0.0671,0.26562 -0.0567,0.47197 -0.32226,0.53907 l -2.36524,0.59765 c -0.26561,0.0672 -0.47196,-0.0566 -0.53906,-0.32226 l -1.31641,-5.21094 c -0.0672,-0.26562 -0.27345,-0.38741 -0.53906,-0.32031 l -2.49219,0.6289 c -0.26562,0.0671 -0.38741,0.27345 -0.32031,0.53907 l 1.60352,6.34961 c 0.0671,0.26561 -0.0547,0.47196 -0.32032,0.53906 l -2.36523,0.59765 c -0.26562,0.0671 -0.47196,-0.0566 -0.53906,-0.32226 l -2.5,-9.89063 c -0.0672,-0.26561 0.0547,-0.47196 0.32031,-0.53906 l 15.39258,-3.89062 c 0.0664,-0.0168 0.12978,-0.0219 0.1875,-0.0156 z m -140.701171,11.74219 -1.99805,1.99805 -1.99805,2.45312 h -13.29297 l -1.99804,1.99805 v 7.99219 l 1.99804,1.99609 h 13.29297 l 1.99805,2.45508 1.99805,1.99804 h 13.98242 l 1.99805,-1.99804 v -3.45313 h -10.98633 l -1.99805,-4.99414 1.99805,-4.99414 h 10.98633 v -3.45312 l -1.99805,-1.99805 z m 144.242181,6.20898 c 0.27385,-0.008 0.44708,0.15583 0.45508,0.42969 l 0.19531,6.73047 c 0.0964,3.33844 -1.8422,5.39122 -4.99804,5.48242 -1.81266,0.0524 -3.18837,-0.61262 -4.14453,-2.08594 -0.082,-0.12807 -0.1613,-0.19245 -0.26563,-0.18945 -0.10432,0.003 -0.18196,0.032 -0.28516,0.0742 l -6.14648,2.73633 c -0.27046,0.12536 -0.43864,0.18254 -0.54297,0.18554 -0.10432,0.003 -0.21275,-0.0999 -0.21875,-0.30859 l -0.0898,-3.1543 c -0.003,-0.10432 0.0596,-0.19817 0.20117,-0.26757 l 6.05469,-2.72071 c 0.12885,-0.0559 0.17682,-0.16192 0.17382,-0.27929 l -0.0644,-2.25586 c -0.008,-0.27386 -0.18122,-0.43769 -0.45508,-0.42969 l -5.63476,0.16211 c -0.27385,0.008 -0.44708,-0.15583 -0.45508,-0.42969 l -0.0801,-2.76562 c -0.008,-0.27385 0.15584,-0.44708 0.42969,-0.45508 z m -157.535151,1.24024 c 2.20658,0 2.99609,0.78949 2.99609,2.99609 0,2.2066 -0.78951,2.9961 -2.99609,2.9961 -2.20658,0 -2.9961,-0.7895 -2.9961,-2.9961 0,-2.2066 0.78952,-2.99609 2.9961,-2.99609 z m 154.314451,2.50781 -2.81641,0.0801 c -0.27385,0.008 -0.43768,0.18318 -0.42968,0.45703 l 0.0898,3.11719 c 0.029,1.00415 0.75575,1.80404 1.68164,1.77734 l 0.45703,-0.0117 c 0.92588,-0.0268 1.59415,-0.84285 1.56445,-1.87304 l -0.0898,-3.11719 c -0.008,-0.27386 -0.18318,-0.43769 -0.45703,-0.42969 z m -158.310551,12.47461 -1.99804,1.99805 v 7.99023 l 1.99804,1.99805 h 31.53321 l 1.99804,-1.99805 v -1.99805 H 153.12267 l 1.99805,-1.99804 -1.99805,-1.9961 H 52.105089 v -1.99804 l -1.99804,-1.99805 h -27.53711 z m 158.740241,1.78711 c 0.0572,-0.01 0.12015,-0.009 0.1875,0.004 l 2.39843,0.44532 c 0.26942,0.05 0.40537,0.24821 0.35547,0.51758 l -1.89453,10.21093 c -0.05,0.26941 -0.2482,0.40342 -0.51758,0.35352 l -2.39843,-0.44336 c -0.26942,-0.05 -0.40537,-0.24821 -0.35547,-0.51758 l 0.5332,-2.87305 c 0.05,-0.26937 -0.0861,-0.46767 -0.35547,-0.51757 l -12.33984,-2.28907 c -0.26942,-0.05 -0.40537,-0.24819 -0.35547,-0.51757 l 0.50586,-2.71875 c 0.05,-0.26932 0.24625,-0.40537 0.51562,-0.35547 l 12.33985,2.28906 c 0.26938,0.05 0.46768,-0.0861 0.51758,-0.35547 l 0.5332,-2.87305 c 0.0375,-0.20199 0.15849,-0.3296 0.33008,-0.35937 z m -117.335941,8.19336 c -3.00261,0 -4.52539,1.59993 -4.52539,3.98437 v 6.65625 c 0,2.49484 1.41239,3.98633 4.52539,3.98633 h 1.57813 c 3.0026,0 4.52734,-1.59084 4.52734,-3.98633 v -6.65625 c 0,-2.49483 -1.41435,-3.98437 -4.52734,-3.98437 z m 12.41016,0.10937 c -0.16559,0 -0.25391,0.0556 -0.25391,0.16602 0,0.0552 0.12118,0.54136 0.1543,0.67383 l 2.84765,13.22461 c 0.0331,0.13246 0.16586,0.23242 0.35352,0.23242 h 2.28516 c 0.1987,0 0.32107,-0.0994 0.36523,-0.25391 l 1.88672,-7 c 0.16559,-0.62923 0.29772,-1.4236 0.375,-2.59375 h 0.0879 c 0,1.4682 0.2,3.34591 0.49805,4.42774 l 1.42382,5.1875 c 0.0331,0.13246 0.16586,0.23242 0.35352,0.23242 h 2.40625 c 0.19871,0 0.33016,-0.0883 0.36328,-0.25391 l 2.9375,-13.66601 c 0.011,-0.0442 0.043,-0.17782 0.043,-0.21094 0,-0.11039 -0.0883,-0.16602 -0.25391,-0.16602 h -2.63671 c -0.1104,0 -0.19863,0.0556 -0.22071,0.16602 l -0.99414,4.69141 c -0.30909,1.47924 -0.49609,3.31279 -0.49609,4.42773 h -0.0899 c -0.0773,-1.08182 -0.19837,-1.9314 -0.375,-2.59375 l -1.74414,-6.52539 c -0.0331,-0.11039 -0.10912,-0.16602 -0.26367,-0.16602 h -2.27539 c -0.19871,0 -0.25399,0.0888 -0.28711,0.19922 l -1.25781,4.65821 c -0.36429,1.33571 -0.61796,3.19136 -0.66211,4.42773 h -0.0879 c -0.0442,-0.6513 -0.18929,-1.58919 -0.37695,-2.59375 l -1.2461,-6.52539 c -0.022,-0.11039 -0.0889,-0.16602 -0.23242,-0.16602 z m 22.77539,0 c -0.23182,0 -0.375,0.14514 -0.375,0.37696 v 13.54492 c 0,0.23182 0.14318,0.375 0.375,0.375 h 2.33984 c 0.23182,0 0.375,-0.14318 0.375,-0.375 v -4.51563 c 0,-1.44612 -0.15346,-2.98014 -0.33008,-3.60937 h 0.0879 c 0,0.0442 0.19795,0.49602 0.46289,0.9707 l 4.460941,7.35156 c 0.0883,0.13247 0.18657,0.17774 0.33008,0.17774 h 2.14258 c 0.23181,0 0.375,-0.14318 0.375,-0.375 v -13.54492 c 0,-0.23182 -0.14319,-0.37696 -0.375,-0.37696 h -2.3418 c -0.23182,0 -0.375,0.14514 -0.375,0.37696 v 4.53711 c 0,1.24741 0.18879,3.02423 0.43164,4.08398 h -0.0898 c -0.0442,-0.14351 -0.34053,-0.76157 -0.60547,-1.20312 l -4.406251,-7.63868 c -0.0662,-0.0994 -0.17681,-0.15625 -0.32031,-0.15625 z m 17.773431,0.11133 c -0.23182,0 -0.375,0.14317 -0.375,0.375 v 13.43555 c 0,0.23182 0.14318,0.375 0.375,0.375 h 8.63282 c 0.23182,0 0.375,-0.14318 0.375,-0.375 v -2.06445 c 0,-0.23182 -0.14318,-0.375 -0.375,-0.375 h -5.54102 c -0.23182,0 -0.375,-0.14514 -0.375,-0.37696 v -2.17383 c 0,-0.23182 0.14318,-0.375 0.375,-0.375 h 4.54688 c 0.23182,0 0.37695,-0.14318 0.37695,-0.375 v -2.06445 c 0,-0.23182 -0.14513,-0.37695 -0.37695,-0.37695 h -4.54688 c -0.23182,0 -0.375,-0.14317 -0.375,-0.375 v -2.06446 c 0,-0.23183 0.14318,-0.375 0.375,-0.375 h 5.54102 c 0.23182,0 0.375,-0.14317 0.375,-0.375 v -2.06445 c 0,-0.23183 -0.14318,-0.375 -0.375,-0.375 z m 16.09766,0 c -0.23182,0 -0.37695,0.14317 -0.37695,0.375 v 13.43555 c 0,0.23182 0.14513,0.375 0.37695,0.375 h 2.33984 c 0.23181,0 0.375,-0.14318 0.375,-0.375 v -4.76953 c 0,-0.23182 0.14318,-0.375 0.375,-0.375 h 1.91016 c 0.0994,0 0.18827,0.044 0.23242,0.15429 l 2.15235,5.1875 c 0.0552,0.12143 0.13239,0.17774 0.2207,0.17774 h 2.67187 c 0.17662,0 0.26368,-0.0894 0.26368,-0.17774 0,-0.0883 -0.0433,-0.23107 -0.14258,-0.46289 l -2.16407,-5.26562 c -0.0331,-0.0883 -0.0547,-0.15388 -0.0547,-0.24219 0,-0.0883 0.0537,-0.15447 0.16406,-0.2207 1.26948,-0.77274 1.86719,-1.9226 1.86719,-3.45703 0,-2.67146 -1.68964,-4.35938 -4.51563,-4.35938 z m -69.056641,2.59375 h 1.57813 c 0.87208,0 1.43554,0.62986 1.43554,1.50195 v 5.99414 c 0,0.82794 -0.55242,1.50196 -1.43554,1.50196 h -1.57813 c -0.87208,0 -1.43359,-0.62987 -1.43359,-1.50196 v -5.99414 c 0,-0.81689 0.55047,-1.50195 1.43359,-1.50195 z m 72.146481,0.2207 h 2.63868 c 0.87208,0 1.54492,0.58535 1.54492,1.36915 v 0.38671 c 0,0.78378 -0.69492,1.37891 -1.54492,1.37891 h -2.63868 c -0.23182,0 -0.375,-0.14318 -0.375,-0.375 v -2.38477 c 0,-0.23183 0.14318,-0.375 0.375,-0.375 z m 27.75586,3.47266 c 0.058,0.002 0.12004,0.0155 0.1836,0.041 l 6.125,2.46093 10.57617,-1.02343 c 0.0872,-0.007 0.14848,0.0166 0.20898,0.041 0.1332,0.0535 0.16765,0.13833 0.0899,0.33203 l -1.14258,2.84571 c -0.0535,0.13317 -0.167,0.24179 -0.36328,0.27539 l -4.09571,0.39257 c -1.26957,0.0805 -2.64426,0.0755 -3.08007,-0.0996 l -0.0488,0.12109 c 0.42369,0.17022 1.4647,1.01106 2.32812,1.97656 l 2.70703,3.05664 c 0.133,0.12375 0.13064,0.30473 0.082,0.42578 l -1.22461,3.05079 c -0.0632,0.1574 -0.17348,0.25467 -0.30664,0.20117 -0.0605,-0.0243 -0.10997,-0.0732 -0.16797,-0.13867 l -6.92383,-8.06836 -6.12695,-2.46094 c -0.25424,-0.10213 -0.34823,-0.32195 -0.2461,-0.57617 l 1.03125,-2.56641 c 0.0766,-0.19069 0.22045,-0.2918 0.39453,-0.28711 z M 35.773299,911.5866 c 0.0528,0.0124 0.0987,0.0492 0.13477,0.10742 l 1.77344,2.85938 c 0.8797,1.41941 0.55661,2.79339 -0.78516,3.625 -0.77069,0.47765 -1.53116,0.53574 -2.31445,0.13867 -0.0676,-0.0347 -0.11972,-0.0412 -0.16407,-0.0137 -0.0444,0.0275 -0.0695,0.0593 -0.10351,0.10351 l -1.97266,2.72657 c -0.0855,0.12211 -0.14314,0.18734 -0.1875,0.21484 -0.0444,0.0275 -0.11689,0.0106 -0.17187,-0.0781 l -0.83008,-1.3418 c -0.0275,-0.0444 -0.0243,-0.10052 0.0195,-0.16602 l 1.93555,-2.69531 c 0.0417,-0.0565 0.0368,-0.11416 0.006,-0.16406 l -0.59375,-0.95899 c -0.0722,-0.1165 -0.19021,-0.14436 -0.30664,-0.0723 l -2.39454,1.48437 c -0.11643,0.0721 -0.23448,0.0442 -0.30664,-0.0723 l -0.72851,-1.17578 c -0.0722,-0.11643 -0.0442,-0.23259 0.0723,-0.30469 l 6.74805,-4.18164 c 0.0582,-0.0361 0.11716,-0.0476 0.16992,-0.0352 z m -0.45312,2.42969 c -0.0528,-0.0124 -0.10975,-0.003 -0.16797,0.0332 l -1.19727,0.74219 c -0.11644,0.0722 -0.14442,0.1902 -0.0723,0.30664 l 0.82031,1.32422 c 0.2646,0.42689 0.78212,0.59165 1.17578,0.34766 l 0.19336,-0.1211 c 0.39366,-0.24398 0.4785,-0.76315 0.20703,-1.20117 l -0.82226,-1.32617 c -0.0361,-0.0582 -0.084,-0.0931 -0.13672,-0.10547 z m 117.992181,3.49414 c 1.03164,-0.0387 2.06373,0.36723 3.07813,1.16406 l 6.1875,4.85938 c 2.21604,1.74073 2.59045,4.32464 0.39844,7.11523 l -1.15235,1.4668 c -2.2726,2.89318 -4.68918,3.11819 -7.00781,1.29687 l -6.18555,-4.85937 c -2.2263,-1.7488 -2.5924,-4.32464 -0.40039,-7.11524 l 1.15235,-1.46679 c 1.27833,-1.62742 2.6033,-2.41124 3.92968,-2.46094 z m -112.437491,1.83008 c 0.0539,0.005 0.10495,0.035 0.14843,0.0879 l 3.23828,3.94141 c 0.087,0.10586 0.0746,0.2255 -0.0312,0.3125 l -0.9414,0.77343 c -0.10585,0.0869 -0.22555,0.0746 -0.3125,-0.0312 l -2.08008,-2.52929 c -0.087,-0.1058 -0.2047,-0.11825 -0.31055,-0.0312 l -0.94336,0.77539 c -0.10585,0.087 -0.1182,0.20469 -0.0312,0.31054 l 1.70703,2.07813 c 0.087,0.10585 0.0746,0.2255 -0.0312,0.3125 l -0.9414,0.77344 c -0.10585,0.0869 -0.22555,0.0746 -0.3125,-0.0312 l -1.70703,-2.07618 c -0.087,-0.1059 -0.2047,-0.11825 -0.31055,-0.0312 l -0.99414,0.81641 c -0.10585,0.087 -0.1182,0.20665 -0.0312,0.3125 l 2.08008,2.5293 c 0.087,0.10585 0.0746,0.2255 -0.0312,0.3125 l -0.94336,0.77539 c -0.10585,0.0869 -0.2236,0.0746 -0.31055,-0.0312 l -3.23828,-3.94141 c -0.087,-0.10585 -0.0765,-0.2255 0.0293,-0.3125 l 6.13476,-5.03906 c 0.0529,-0.0435 0.11013,-0.0619 0.16407,-0.0566 z m 112.281241,2.02344 c -0.42984,0.0377 -0.83792,0.25685 -1.15625,0.6621 l -1.15234,1.4668 c -0.64471,0.82077 -0.4218,1.82527 0.34766,2.42969 l 5.57031,4.37695 c 0.81049,0.63666 1.80671,0.57222 2.44336,-0.23828 l 1.15234,-1.4668 c 0.64471,-0.82076 0.41155,-1.83332 -0.34765,-2.42968 l -5.57227,-4.37696 c -0.40525,-0.31832 -0.85532,-0.46152 -1.28516,-0.42382 z m -106.873281,4.26757 c 0.0542,-0.002 0.10838,0.0194 0.1582,0.0664 l 3.77735,3.56445 c 0.0996,0.094 0.10376,0.2128 0.01,0.3125 l -0.83789,0.88672 c -0.094,0.0995 -0.21285,0.10377 -0.3125,0.01 l -1.0625,-1.00196 c -0.0996,-0.0942 -0.22045,-0.0918 -0.31445,0.008 l -4.30664,4.56445 c -0.094,0.0995 -0.21285,0.10377 -0.3125,0.01 l -1.00586,-0.94922 c -0.0996,-0.094 -0.10377,-0.2129 -0.01,-0.3125 l 4.30664,-4.56446 c 0.094,-0.0996 0.0899,-0.22045 -0.01,-0.31445 l -1.0625,-1.00195 c -0.0996,-0.094 -0.10377,-0.21486 -0.01,-0.31446 l 0.83789,-0.88671 c 0.047,-0.0498 0.10012,-0.0746 0.1543,-0.0762 z m -13.50977,0.46094 c 0.0442,0.004 0.0898,0.025 0.12305,0.0625 l 1.7168,1.9375 c 0.11316,0.12768 0.14229,0.23523 0.0996,0.35352 l -1.23829,3.08203 c -0.1229,0.26985 -0.52899,1.14218 -0.68945,1.44531 l 0.0391,0.0449 c 0.56004,-0.56341 1.14783,-0.74863 2.55274,-1.17578 l 1.91992,-0.48242 c 0.13006,-0.0348 0.23884,0.0296 0.33203,0.13477 l 1.80469,2.03515 c 0.0732,0.0826 0.0445,0.20256 -0.0156,0.25586 -0.0375,0.0333 -0.0899,0.0656 -0.11914,0.0781 l -6.89648,1.53906 c -0.0575,0.0107 -0.11345,0.0198 -0.16602,0.0664 -0.0526,0.0466 -0.0636,0.11164 -0.082,0.18164 l -2.19531,6.33008 c -0.0184,0.0698 -0.0347,0.0958 -0.0723,0.12891 -0.0826,0.0733 -0.19196,0.025 -0.28515,-0.0801 l -1.74414,-1.96875 c -0.14644,-0.16523 -0.14528,-0.29925 -0.0801,-0.4375 l 1.2793,-3.06445 c 0.1229,-0.26984 0.45282,-1.03281 0.61328,-1.33594 l -0.0391,-0.0449 c -0.42808,0.37941 -1.36944,0.76989 -2.48828,1.05078 l -1.93554,0.49609 c -0.15174,0.0406 -0.29302,0.0168 -0.43946,-0.14843 l -1.71679,-1.9375 c -0.1065,-0.12017 -0.11582,-0.2061 -0.0332,-0.2793 0.0376,-0.0333 0.0968,-0.0576 0.1543,-0.0684 l 6.9668,-1.54883 c 0.0792,-0.0165 0.13237,-0.0507 0.16992,-0.084 0.0526,-0.0466 0.0762,-0.0946 0.0937,-0.15039 l 2.16992,-6.26758 c 0.009,-0.035 0.0389,-0.0753 0.084,-0.11524 0.03,-0.0266 0.073,-0.0376 0.11718,-0.0332 z m 109.480471,2.61133 c 0.10785,0.0109 0.21217,0.0697 0.29883,0.17578 l 10.04297,12.29492 c 0.17332,0.21218 0.14967,0.45166 -0.0625,0.625 l -7.90039,6.45313 c -0.21218,0.17303 -0.45168,0.14968 -0.625,-0.0625 l -1.54297,-1.88867 c -0.17332,-0.21218 -0.14967,-0.45167 0.0625,-0.625 l 5.07226,-4.14258 c 0.21218,-0.17334 0.23583,-0.41283 0.0625,-0.625 l -1.92187,-2.35352 c -0.17332,-0.21217 -0.41283,-0.23582 -0.625,-0.0625 l -4.16211,3.40039 c -0.21218,0.17303 -0.45168,0.14773 -0.625,-0.0644 l -1.54297,-1.88867 c -0.17332,-0.21218 -0.14967,-0.44972 0.0625,-0.62305 l 4.15234,-3.39258 c 0.22228,-0.18158 0.24755,-0.42063 0.0742,-0.63281 l -3.35156,-4.10156 c -0.17332,-0.21217 -0.14967,-0.45168 0.0625,-0.625 l 2.14258,-1.75 v 0.002 c 0.10609,-0.0867 0.21832,-0.12415 0.32617,-0.11328 z m -89.603511,2.59766 c 0.0535,-0.009 0.1104,0.007 0.16601,0.0469 l 1.12305,0.80664 c 0.11123,0.08 0.13075,0.19737 0.0508,0.30859 l -3.38867,4.71485 c -0.30082,0.41841 -0.24848,0.91401 0.16992,1.21484 l 0.75781,0.54492 c 0.4237,0.30462 0.91615,0.16881 1.20703,-0.22461 l 3.38868,-4.71484 c 0.08,-0.1112 0.19932,-0.13078 0.31054,-0.0508 l 1.1211,0.80859 c 0.11123,0.08 0.13074,0.19737 0.0508,0.3086 l -3.50196,4.87304 c -0.8263,1.14928 -2.10629,1.38538 -3.54687,0.34961 l -0.75781,-0.54296 c -1.49355,-1.07383 -1.65364,-2.28294 -0.79688,-3.47461 l 3.50391,-4.8711 c 0.04,-0.0556 0.0891,-0.0889 0.14258,-0.0976 z m -11.30079,4.18164 c 0.0829,-0.008 0.17026,0.0194 0.25196,0.0859 l 1.64844,1.34375 c 0.16339,0.1331 0.18192,0.31708 0.0488,0.48047 l -2.76953,3.40039 c -0.1331,0.1634 -0.11456,0.34736 0.0488,0.48047 l 2.83984,2.3125 c 0.1634,0.1329 0.34737,0.11457 0.48047,-0.0488 l 2.76953,-3.40039 c 0.1331,-0.16335 0.31708,-0.1819 0.48047,-0.0488 l 1.65039,1.34376 c 0.1634,0.1331 0.18193,0.31707 0.0488,0.48046 l -7.77734,9.54688 c -0.1331,0.16367 -0.31708,0.18193 -0.48047,0.0488 l -1.64844,-1.34375 c -0.16339,-0.13311 -0.18193,-0.31708 -0.0488,-0.48047 l 2.95899,-3.63281 c 0.1331,-0.1634 0.11456,-0.34737 -0.0488,-0.48047 l -2.83984,-2.3125 c -0.1634,-0.1329 -0.34737,-0.11457 -0.48047,0.0488 l -2.95899,3.63281 c -0.1331,0.16367 -0.31707,0.18388 -0.48047,0.0508 l -1.65039,-1.34375 v -0.002 c -0.16339,-0.1331 -0.18192,-0.31708 -0.0488,-0.48047 l 7.77734,-9.54688 c 0.0666,-0.0817 0.14557,-0.12629 0.22851,-0.13476 z m 19.18165,1.25195 c 0.0517,-0.0161 0.11122,-0.0104 0.17187,0.0215 l 2.98047,1.56446 c 1.47867,0.77594 1.89952,2.12365 1.16601,3.52148 -0.4213,0.80287 -1.04936,1.23942 -1.92578,1.29492 -0.0759,0.005 -0.12223,0.0241 -0.14648,0.0703 -0.0242,0.0462 -0.0302,0.0871 -0.0371,0.14257 l -0.31445,3.34961 c -0.0117,0.1486 -0.0285,0.23505 -0.0527,0.28125 -0.0242,0.0462 -0.0951,0.0701 -0.1875,0.0215 l -1.39648,-0.73438 c -0.0462,-0.0242 -0.0729,-0.0736 -0.0684,-0.15234 l 0.29883,-3.30664 c 0.007,-0.0697 -0.0261,-0.11753 -0.0781,-0.14453 l -1,-0.52344 c -0.1213,-0.0637 -0.23518,-0.0295 -0.29883,0.0918 l -1.31054,2.49609 c -0.0636,0.121 -0.17753,0.15695 -0.29883,0.0937 l -1.22461,-0.64258 c -0.12129,-0.0637 -0.1574,-0.17946 -0.0937,-0.30078 l 3.68945,-7.0293 c 0.0318,-0.0607 0.0752,-0.0991 0.12696,-0.11523 z m 0.8457,2.32227 c -0.0517,0.0161 -0.0971,0.0546 -0.12891,0.11523 l -0.65429,1.24805 c -0.0637,0.1213 -0.0276,0.23512 0.0937,0.29882 l 1.38085,0.72461 c 0.44476,0.23337 0.9723,0.11324 1.1875,-0.29687 l 0.10547,-0.20313 c 0.2152,-0.4101 0.0227,-0.90117 -0.43359,-1.14062 l -1.37891,-0.72461 c -0.0607,-0.0318 -0.12013,-0.0376 -0.17187,-0.0215 z m 7.61914,1.69335 1.20508,0.42969 c 0.0799,0.0285 0.12937,0.0818 0.14648,0.15039 l 0.9336,5.12696 c 0.0597,0.29842 0.1035,0.70046 0.0996,0.78906 l 0.0488,0.0176 c 0.0754,-0.63801 0.32446,-1.66323 0.57227,-2.35743 l 0.90039,-2.52539 c 0.0461,-0.12634 0.15419,-0.18096 0.2832,-0.13476 l 1.30274,0.46484 c 0.12891,0.0461 0.18085,0.15419 0.13476,0.28321 l -2.6914,7.53906 c -0.0461,0.12627 -0.1542,0.18096 -0.28321,0.13476 l -1.1914,-0.42578 c -0.0798,-0.0285 -0.12563,-0.0728 -0.14844,-0.16406 l -1.02149,-4.97852 c -0.0532,-0.31677 -0.0752,-0.60811 -0.0664,-0.63281 l -0.0488,-0.0176 c -0.0267,0.38529 -0.24592,1.26943 -0.5332,2.07422 l -0.89649,2.51367 c -0.0461,0.12634 -0.15419,0.18097 -0.2832,0.13477 l -1.30273,-0.46484 c -0.12902,-0.0461 -0.18082,-0.15419 -0.13477,-0.28321 l 2.69141,-7.53906 c 0.046,-0.12931 0.15419,-0.18087 0.2832,-0.13477 z m 12.96289,3.85938 5.13672,0.75586 c 0.13554,0.0199 0.20739,0.11451 0.1875,0.25 l -0.17774,1.20703 c -0.0199,0.13561 -0.11643,0.2075 -0.25195,0.1875 l -1.44531,-0.21289 c -0.13553,-0.0199 -0.23199,0.0519 -0.25195,0.1875 l -0.91211,6.20898 c -0.0199,0.13561 -0.11643,0.2075 -0.25196,0.1875 l -1.36914,-0.20117 c -0.13554,-0.0199 -0.2055,-0.11645 -0.18554,-0.25195 l 0.9121,-6.20899 c 0.0199,-0.13557 -0.052,-0.23195 -0.1875,-0.25195 l -1.44531,-0.21094 c -0.13554,-0.02 -0.20739,-0.11637 -0.1875,-0.25195 l 0.17774,-1.20703 c 0.0199,-0.13561 0.11643,-0.2075 0.25195,-0.1875 z m -27.71289,0.32617 c 0.0664,-0.003 0.13577,0.0153 0.20117,0.0527 l 2.64258,1.50586 c 0.1308,0.0745 0.20849,0.19982 0.17383,0.34179 l -2.99805,12.70508 c -0.0124,0.0619 -0.0222,0.0812 -0.0371,0.10742 -0.0497,0.0871 -0.13678,0.0963 -0.26758,0.0215 l -2.16211,-1.23243 c -0.0959,-0.0547 -0.13288,-0.1342 -0.10937,-0.23632 l 0.4707,-1.77539 c 0.0235,-0.10205 -0.01,-0.14395 -0.14062,-0.21875 l -3.35743,-1.91407 c -0.13951,-0.0791 -0.18588,-0.0823 -0.26171,-0.01 l -1.28907,1.31054 c -0.0758,0.0724 -0.16084,0.0806 -0.24804,0.0312 l -2.1543,-1.22656 c -0.13085,-0.0745 -0.17467,-0.15694 -0.125,-0.24414 0.0248,-0.0436 0.0866,-0.11258 0.12891,-0.14648 0.0236,-0.0212 9.35156,-8.99414 9.35156,-8.99414 0.0522,-0.051 0.1152,-0.0755 0.18164,-0.0781 z m 38.57422,0.61914 0.93164,0.0117 c 1.8393,0.0264 2.66172,0.91848 2.64062,2.39258 l -0.0566,3.93359 c -0.0203,1.41537 -0.93294,2.34181 -2.70703,2.31641 l -0.93359,-0.0137 c -1.83934,-0.0264 -2.66175,-0.91856 -2.64063,-2.39258 l 0.0566,-3.93359 c 0.0202,-1.40882 0.93487,-2.33986 2.70899,-2.31446 z m 29.167971,1.45313 c 0.0371,0.015 0.0648,0.0465 0.0879,0.0859 0.0232,0.0394 0.0424,0.0894 0.0605,0.14844 0.0364,0.11797 0.0664,0.27327 0.0918,0.45703 0.0507,0.36753 0.085,0.84383 0.11328,1.32617 0.0283,0.48237 0.0504,0.97072 0.0801,1.35938 0.0148,0.19432 0.0314,0.36538 0.0508,0.49609 0.0194,0.13072 0.0457,0.22391 0.0645,0.25391 0.0187,0.03 0.0924,0.0948 0.20118,0.16992 0.10875,0.0751 0.25402,0.16467 0.42187,0.26367 0.3357,0.19808 0.76319,0.43564 1.18359,0.67383 0.42041,0.23819 0.83315,0.47792 1.14063,0.68555 0.15373,0.10381 0.28119,0.1986 0.37109,0.2832 0.0449,0.0423 0.0804,0.083 0.10547,0.1211 0.0251,0.0382 0.0401,0.0753 0.0371,0.11523 -0.003,0.0399 -0.0224,0.0752 -0.0527,0.10938 -0.0302,0.0341 -0.0726,0.068 -0.12305,0.10351 -0.10098,0.071 -0.23932,0.14762 -0.40625,0.22852 -0.33386,0.16181 -0.77656,0.33961 -1.22656,0.51562 -0.44999,0.17601 -0.90713,0.3497 -1.26758,0.49805 -0.18022,0.0742 -0.33676,0.14227 -0.45508,0.20117 -0.11832,0.0588 -0.19986,0.11157 -0.22266,0.13867 -0.0228,0.0271 -0.0618,0.11751 -0.0996,0.24414 -0.0378,0.12663 -0.0788,0.29218 -0.12109,0.48242 -0.0847,0.38049 -0.17684,0.86055 -0.27344,1.33399 -0.0966,0.47344 -0.19833,0.94028 -0.30078,1.29687 -0.0512,0.17829 -0.10159,0.3298 -0.15429,0.44141 -0.0264,0.0558 -0.0535,0.10102 -0.082,0.13672 -0.0286,0.0357 -0.0589,0.0623 -0.0976,0.0723 -0.0388,0.01 -0.0792,6.3e-4 -0.1211,-0.0176 -0.0419,-0.0183 -0.0873,-0.0469 -0.13671,-0.084 -0.0987,-0.0741 -0.21327,-0.18264 -0.3418,-0.3164 -0.25706,-0.26753 -0.56465,-0.63423 -0.8711,-1.00782 -0.30646,-0.37359 -0.61275,-0.75381 -0.86523,-1.05078 -0.12623,-0.14848 -0.23953,-0.27669 -0.33203,-0.37109 -0.0925,-0.0943 -0.16837,-0.15662 -0.20117,-0.16992 -0.0328,-0.0135 -0.12961,-0.0206 -0.26172,-0.0176 -0.1321,0.003 -0.30404,0.0147 -0.49805,0.0332 -0.38801,0.0371 -0.87144,0.098 -1.35156,0.15234 -0.48012,0.0544 -0.95538,0.10244 -1.32617,0.11524 -0.18539,0.006 -0.34436,0.004 -0.4668,-0.0117 -0.0612,-0.008 -0.11355,-0.0191 -0.15625,-0.0352 -0.0427,-0.0161 -0.0785,-0.0364 -0.0996,-0.0703 -0.0211,-0.034 -0.0235,-0.0757 -0.0195,-0.12109 0.005,-0.0454 0.0171,-0.0959 0.0371,-0.1543 0.04,-0.11679 0.10781,-0.26221 0.19531,-0.42578 0.17499,-0.32715 0.42885,-0.73177 0.68946,-1.13867 0.26058,-0.4069 0.52801,-0.81461 0.73242,-1.14649 0.10221,-0.16594 0.1889,-0.31252 0.25,-0.42968 0.0611,-0.11716 0.0946,-0.20884 0.0976,-0.24414 0.002,-0.0353 -0.0186,-0.13121 -0.0625,-0.25586 -0.0439,-0.12466 -0.10794,-0.28215 -0.18554,-0.46094 -0.15516,-0.35757 -0.36238,-0.80042 -0.5625,-1.24024 -0.20011,-0.43981 -0.39282,-0.87786 -0.51953,-1.22656 -0.0634,-0.17435 -0.10982,-0.32598 -0.13282,-0.44726 -0.0118,-0.0606 -0.0176,-0.11261 -0.0156,-0.15821 0.002,-0.0456 0.0114,-0.0866 0.0371,-0.11718 0.0257,-0.0306 0.0628,-0.0466 0.10742,-0.0566 0.0446,-0.009 0.0985,-0.0127 0.16015,-0.0117 0.12343,0.002 0.2803,0.022 0.4629,0.0547 0.36521,0.0653 0.82936,0.18063 1.29687,0.30274 0.46752,0.12211 0.93955,0.25185 1.31836,0.34375 0.1894,0.046 0.35602,0.0816 0.48633,0.10351 0.13031,0.022 0.22742,0.0266 0.26172,0.0176 0.0343,-0.009 0.11961,-0.0585 0.22461,-0.13867 0.105,-0.0802 0.2348,-0.18933 0.38086,-0.31836 0.29212,-0.25806 0.64746,-0.59173 1.0039,-0.91797 0.35644,-0.32623 0.71338,-0.64478 1.00586,-0.87305 0.14623,-0.11413 0.27652,-0.20632 0.38477,-0.26562 0.0541,-0.0297 0.10248,-0.0504 0.14648,-0.0625 0.044,-0.0121 0.0841,-0.017 0.1211,-0.002 z m -29.193361,0.20898 c -0.52182,-0.007 -0.85248,0.39237 -0.85938,0.875 l -0.0508,3.54102 c -0.007,0.51531 0.31874,0.89239 0.83398,0.90039 l 0.9336,0.0117 c 0.52179,0.007 0.85433,-0.38582 0.86133,-0.875 l 0.0488,-3.54102 c 0.007,-0.51523 -0.31872,-0.89044 -0.83398,-0.89844 z m -38.88672,1.41602 -0.24805,0.33203 -3.15625,3.1914 c -0.0907,0.0985 -0.0867,0.19185 0.0703,0.28125 l 2.04883,1.16797 c 0.15696,0.0895 0.2487,0.0501 0.28711,-0.0781 l 1.14258,-4.33985 0.16016,-0.38085 z m 9.49609,0.95312 c 0.0446,0.002 0.0919,0.0131 0.14063,0.0332 l 1.96484,0.8125 c 0.19478,0.0805 0.26606,0.25054 0.18555,0.44531 l -4.70313,11.3789 c -0.0805,0.19497 -0.2525,0.26615 -0.44726,0.18555 l -1.96485,-0.8125 c -0.19477,-0.0805 -0.26605,-0.25055 -0.18554,-0.44531 l 4.70507,-11.38086 c 0.0604,-0.14623 0.17083,-0.22179 0.30469,-0.2168 z m 6.28516,2.53125 c 0.0445,-0.004 0.0936,0 0.14453,0.0137 l 1.89844,0.50782 c 0.12602,0.0338 0.21125,0.10812 0.24609,0.21093 l 2.07227,7.74414 c 0.12885,0.45003 0.2446,1.0628 0.25,1.19922 l 0.0762,0.0215 c 0.0359,-0.98769 0.28876,-2.59207 0.58203,-3.6875 l 1.06836,-3.98438 c 0.0545,-0.20359 0.2144,-0.29689 0.41797,-0.24219 l 2.05469,0.55079 c 0.20359,0.0545 0.29472,0.21442 0.24023,0.41797 l -3.18359,11.89453 c -0.0545,0.20359 -0.21439,0.29493 -0.41797,0.24023 l -1.88086,-0.50195 c -0.12602,-0.0337 -0.2036,-0.0973 -0.25,-0.23438 l -2.1875,-7.5039 c -0.12104,-0.47917 -0.18815,-0.92439 -0.17774,-0.96289 l -0.0781,-0.0195 c 0.007,0.59408 -0.21861,1.97812 -0.5586,3.24805 l -1.06054,3.96485 c -0.0545,0.2035 -0.2144,0.29493 -0.41797,0.24023 l -2.05469,-0.54883 v -0.002 c -0.20358,-0.0545 -0.29669,-0.2124 -0.24219,-0.41602 l 3.18555,-11.89648 c 0.0409,-0.15264 0.14007,-0.24143 0.27344,-0.25391 z" />
  </g>
</svg>
