<?xml version="1.0" encoding="UTF-8" standalone="no"?>
<svg
   width="100%"
   height="100%"
   viewBox="0 0 842 596"
   version="1.1"
   xml:space="preserve"
   style="fill-rule:evenodd;clip-rule:evenodd;"
   id="svg1490"
   sodipodi:docname="branch-Hobelhoehle-design.svg"
   inkscape:version="1.2.1 (9c6d41e4, 2022-07-14)"
   xmlns:inkscape="http://www.inkscape.org/namespaces/inkscape"
   xmlns:sodipodi="http://sodipodi.sourceforge.net/DTD/sodipodi-0.dtd"
   xmlns="http://www.w3.org/2000/svg"
   xmlns:svg="http://www.w3.org/2000/svg"><defs
   id="defs1494">
        
        
        
        
        
        
        
        
        
        
        
    
            
        </defs><sodipodi:namedview
   id="namedview1492"
   pagecolor="#ffffff"
   bordercolor="#666666"
   borderopacity="1.0"
   inkscape:showpageshadow="2"
   inkscape:pageopacity="0.0"
   inkscape:pagecheckerboard="0"
   inkscape:deskcolor="#d1d1d1"
   showgrid="false"
   inkscape:zoom="1.47981"
   inkscape:cx="315.91894"
   inkscape:cy="299.70064"
   inkscape:window-width="2560"
   inkscape:window-height="1381"
   inkscape:window-x="0"
   inkscape:window-y="31"
   inkscape:window-maximized="1"
   inkscape:current-layer="svg1490" />
    <g
   transform="matrix(4.5848925,0,0,3.1069478,-193.43059,-134.51936)"
   id="g1463">
            <path
   d="m 134,54.25 v 6.5 c 0,1.794 -0.987,3.25 -2.202,3.25 H 111.202 C 109.987,64 109,62.544 109,60.75 v -6.5 c 0,-1.794 0.987,-3.25 2.202,-3.25 h 20.596 c 1.215,0 2.202,1.456 2.202,3.25 z"
   style="fill:#010001"
   id="path1461" />
        </g><g
   transform="translate(-182.58834,-134.86995)"
   id="g1483">
            <text
   x="506.448"
   y="182.60001"
   style="font-size:18px;font-family:PTMono-Regular, 'PT Mono', monospace;fill:#ffffff"
   id="text1481">#000000</text>
        </g><g
   id="g1877"
   transform="matrix(1.1308362,0,0,1.1308362,-620.77025,-887.37899)"
   style="stroke-width:0.884301"><path
     id="path3092"
     style="display:inline;fill:#fafafa;fill-opacity:1;fill-rule:evenodd;stroke:#000000;stroke-width:3.33738;stroke-linecap:round;stroke-linejoin:round;stroke-miterlimit:100.1;paint-order:stroke fill markers"
     d="m 679.81616,794.27438 c -66.66702,1.2e-4 -120.71119,54.04429 -120.71094,120.71094 -2.5e-4,66.66666 54.04392,120.71078 120.71094,120.71098 66.66702,-2e-4 120.71119,-54.04432 120.71094,-120.71098 2.5e-4,-66.66665 -54.04392,-120.71082 -120.71094,-120.71094 z"
     inkscape:label="white-bg"
     sodipodi:nodetypes="ccccc" /><path
     id="path10671"
     style="fill:#0b040f;fill-rule:evenodd;stroke:#fe002f;stroke-width:0;stroke-linecap:round;stroke-linejoin:round;stroke-miterlimit:100.1;paint-order:fill markers stroke"
     d="m 657.49517,940.32435 c -1.23472,-0.0276 -2.48371,0.12522 -3.55078,0.5332 -2.84553,1.088 -6.5286,3.17886 -7.44922,8.53516 -0.83479,4.85696 -0.79338,8.61368 -1.43227,10.04447 1.43393,-0.93131 5.46982,-0.63969 5.46982,-0.63969 0,0 -4.58374,0.34352 -6.46138,1.48975 -1.0043,1.088 -1.37277,1.94358 -1.50976,3.57176 -0.14884,1.76913 1.17187,4.53175 1.17187,4.53175 l 26.89649,0.0136 0.0136,12.02735 33.28125,-0.037 0.008,-9.85547 c -2.88046,-5.00652 -7.17363,-10.1964 -8.22461,-11.18555 -1.42276,-1.33907 -7.38585,-7.69594 -8.87305,-8.20312 -1.57449,-0.53696 -5.84126,-1.07416 -9.09286,-1.15523 -0.57945,-0.0144 -1.13162,-0.0847 -1.61849,-0.0787 -1.0964,0.0136 -1.86169,0.13055 -1.86169,0.13055 0,0 0.806,-0.27451 1.83216,-0.28865 -0.81229,-0.94711 -11.58089,-6.9461 -13.44466,-8.14897 -1.07641,-0.6947 -3.09644,-1.23931 -5.1543,-1.28515 z m 30.00195,26.89648 c 0.80649,0.78492 5.26636,4.77617 5.11915,5.61914 -1.7974,-0.51774 -6.66891,-0.0196 -9.10057,0.0506 1.45781,-0.22635 3.91348,-0.58937 5.06734,-0.52698 -0.31321,-1.29696 -1.29279,-4.10833 -1.08592,-5.1428 z"
     sodipodi:nodetypes="csscccscccccssssccsscccccsc"
     inkscape:label="person" /><path
     id="path3546"
     style="color:#000000;fill:#000000;fill-rule:evenodd;stroke-width:3.00801;stroke-linecap:round;stroke-linejoin:round;stroke-miterlimit:100.1;-inkscape-stroke:none;paint-order:fill markers stroke"
     d="m 669.95598,916.02695 a 0.42247703,0.43931585 0 0 0 -0.42187,0.44141 v 0.97656 a 0.42247703,0.43931585 0 0 0 0.42187,0.43945 h 3.51563 l -3.7207,4.67383 a 0.42247703,0.43931585 0 0 0 -0.0977,0.27931 v 0.97656 a 0.42247703,0.43931585 0 0 0 0.42383,0.4375 h 5.63281 a 0.42247703,0.43931585 0 0 0 0.42188,-0.4375 v -0.97656 a 0.42247703,0.43931585 0 0 0 -0.42188,-0.43946 h -3.51758 l 3.72071,-4.67382 a 0.42247703,0.43931585 0 0 0 0.0977,-0.27931 v -0.97656 a 0.42247703,0.43931585 0 0 0 -0.42187,-0.44141 z m 8.74024,9.5625 a 0.3127753,0.32524169 0 0 0 -0.31249,0.32617 v 0.72266 a 0.3127753,0.32524169 0 0 0 0.31249,0.32617 h 2.60352 l -2.75586,3.45899 a 0.3127753,0.32524169 0 0 0 -0.0703,0.20704 v 0.72266 a 0.3127753,0.32524169 0 0 0 0.31249,0.32421 h 4.16992 a 0.3127753,0.32524169 0 0 0 0.31249,-0.32421 v -0.72266 a 0.3127753,0.32524169 0 0 0 -0.31249,-0.32617 h -2.60351 l 2.7539,-3.45898 a 0.3127753,0.32524169 0 0 0 0.0723,-0.20705 v -0.72265 a 0.3127753,0.32524169 0 0 0 -0.31249,-0.32618 z m -5.32422,9.63476 a 0.26878122,0.27949414 0 0 0 -0.26952,0.27931 v 0.62305 a 0.26878122,0.27949414 0 0 0 0.26952,0.27931 h 2.23437 l -2.36523,2.97265 a 0.26878122,0.27949414 0 0 0 -0.0625,0.17776 v 0.62109 a 0.26878122,0.27949414 0 0 0 0.26951,0.27931 h 3.58399 a 0.26878122,0.27949414 0 0 0 0.26759,-0.27931 v -0.62109 a 0.26878122,0.27949414 0 0 0 -0.26759,-0.27931 h -2.23828 l 2.36718,-2.97266 a 0.26878122,0.27949414 0 0 0 0.0625,-0.17775 v -0.6211 a 0.26878122,0.27949414 0 0 0 -0.26952,-0.28123 z"
     inkscape:label="Z Z Z" /><path
     id="path9918"
     style="fill:#fe002f;fill-opacity:1;fill-rule:evenodd;stroke:#fe002f;stroke-width:0;stroke-linecap:round;stroke-linejoin:round;stroke-miterlimit:100.1;paint-order:fill markers stroke"
     d="m 706.04205,917.58607 v 2.11133 h 62.83203 a 91.820603,91.820603 0 0 0 0.0781,-2.11133 z m -113.53711,33.91015 a 91.820603,91.820603 0 0 0 0.91992,2.10938 h 45.94726 v -2.10938 z m 113.53711,12.80469 v 2.11133 h 47.91992 a 91.820603,91.820603 0 0 0 1.32812,-2.11133 z m -35.5918,25.46875 v 2.11133 H 704.044 v -2.11133 z"
     inkscape:label="paper red" /><path
     id="rect1248"
     style="fill:#050505;fill-opacity:1;fill-rule:evenodd;stroke-width:0.8843;stroke-linecap:round;stroke-linejoin:round;stroke-miterlimit:100.1;stroke-opacity:0.5;paint-order:fill markers stroke"
     inkscape:label="paper"
     d="m 706.04205,913.65247 v 2.11133 h 62.95117 c -0.0178,-0.70405 -0.044,-1.40787 -0.0781,-2.11133 z m 0,8.58594 v 2.11133 h 62.55664 c 0.0687,-0.70305 0.12922,-1.40688 0.18164,-2.11133 z m 0,4.50781 v 2.11133 h 62.04882 c 0.0876,-0.70283 0.16702,-1.40666 0.2383,-2.11133 z m 0,3.64649 v 2.10937 h 61.43359 c 0.14102,-0.70155 0.27383,-1.40472 0.39844,-2.10937 z m 0,4.50781 v 2.11133 h 60.54492 c 0.15277,-0.70206 0.29734,-1.40588 0.43359,-2.11133 z m -118.66211,0.14453 c 0.14017,0.70484 0.28862,1.40801 0.44531,2.10937 h 51.54687 v -2.10937 z m 0.89648,3.78906 c 0.17978,0.70534 0.36795,1.40851 0.56445,2.10938 h 50.53125 v -2.10938 z m 117.76563,0.14256 v 2.11133 h 59.45312 c 0.19718,-0.7015 0.38599,-1.40533 0.56641,-2.11133 z m 0,3.64649 v 2.10937 h 58.35156 c 0.2383,-0.70032 0.46814,-1.4035 0.68945,-2.10937 z m -116.4961,0.8633 c 0.23753,0.70609 0.48364,1.40927 0.73828,2.10937 h 49.08789 v -2.10937 z m 116.4961,3.93164 v 2.11133 h 56.67383 c 0.25466,-0.70075 0.50076,-1.40458 0.73828,-2.11133 z m -115.07032,0.14453 c 0.23752,0.70675 0.48363,1.41058 0.73828,2.11133 h 47.66211 v -2.11133 z m 115.07032,4.2207 v 2.11133 h 54.78125 c 0.31612,-0.69989 0.62342,-1.40372 0.92187,-2.11133 z m 0,4.07617 v 2.11133 h 52.81836 c 0.37761,-0.69896 0.74612,-1.4028 1.10547,-2.11133 z m -111.49219,0.28906 c 0.36261,0.70793 0.73437,1.41112 1.11523,2.10938 h 43.70703 v -2.10938 z m 111.49219,3.64453 v 2.11133 h 50.74023 c 0.38088,-0.69891 0.75266,-1.40274 1.11523,-2.11133 z m -109.49024,0.14453 c 0.36261,0.70793 0.73437,1.41111 1.11524,2.10938 h 41.70507 v -2.10938 z m 2.62305,4.50781 c 0.43248,0.70975 0.87458,1.41359 1.32617,2.11133 h 38.87109 v -2.11133 z m 2.42187,3.78907 c 0.50945,0.71116 1.02904,1.41501 1.5586,2.11133 h 36.21679 v -2.11132 z m 104.44532,0.71875 v 2.11133 h 44.64648 c 0.52956,-0.69631 1.04915,-1.40016 1.55859,-2.11133 z m -64.62305,0.53123 v 2.11133 h 26.9375 v -2.11133 z m -36.81445,2.8262 c 0.55146,0.712 1.11337,1.41585 1.68554,2.11132 h 33.08203 v -2.11132 z m 101.4375,0.43164 v 2.11133 h 41.67187 c 0.58922,-0.69512 1.16806,-1.39898 1.73633,-2.11133 z m -64.62305,0.44823 v 2.10937 h 26.9375 v -2.10937 z m 64.62305,3.34083 v 2.11133 h 38.40234 c 0.61873,-0.6945 1.22688,-1.39835 1.82422,-2.11133 z m -97.56641,0.43164 c 0.61737,0.71342 1.2457,1.41728 1.88476,2.11133 h 29.01172 v -2.11133 z m 32.94336,0 v 2.11133 h 26.9375 v -2.11133 z m 0,3.93359 v 2.11133 h 26.9375 v -2.11133 z m -29.0918,0.14453 c 0.69166,0.7145 1.39488,1.41772 2.10938,2.10938 h 24.93554 v -2.10938 z m 93.71485,0.14257 v 2.11132 H 739.794 c 0.71517,-0.69228 1.41904,-1.39615 2.11133,-2.11132 z m -35.5918,0.32228 v 2.11133 H 704.044 v -2.11133 z m -24.17188,3.56055 c -0.0295,0.005 -0.0511,0.037 -0.0508,0.0742 10e-5,0.0219 0.008,0.0426 0.0215,0.0566 0.011,0.0113 0.025,0.0178 0.039,0.0178 6.5e-4,-2e-5 0.001,-2e-5 0.002,0 6.5e-4,-2e-5 10e-4,-2e-5 0.002,0 6.5e-4,-2e-5 10e-4,-2e-5 0.002,0 6.4e-4,-6.7e-4 10e-4,-10e-4 0.002,-0.002 6.5e-4,-10e-6 10e-4,-10e-6 0.002,0 6.5e-4,-10e-6 10e-4,-10e-6 0.002,0 6.5e-4,-10e-6 10e-4,-10e-6 0.002,0 6.4e-4,-6.7e-4 0.001,-10e-4 0.002,-0.002 6.5e-4,-2e-5 10e-4,-2e-5 0.002,0 6.5e-4,-2e-5 10e-4,-2e-5 0.002,0 6.4e-4,-6.7e-4 10e-4,-10e-4 0.002,-0.002 6.5e-4,-1e-5 10e-4,-1e-5 0.002,0 6.4e-4,-6.6e-4 0.001,-0.001 0.002,-0.002 6.4e-4,-6.7e-4 10e-4,-10e-4 0.002,-0.002 6.5e-4,-2e-5 10e-4,-2e-5 0.002,0 6.4e-4,-6.7e-4 10e-4,-10e-4 0.002,-0.002 6.4e-4,-6.7e-4 10e-4,-10e-4 0.002,-0.002 6.5e-4,-10e-6 10e-4,-10e-6 0.002,0 -10e-6,-6.5e-4 -10e-6,-10e-4 0,-0.002 6.4e-4,-6.7e-4 10e-4,-0.001 0.002,-0.002 6.4e-4,-6.7e-4 0.001,-10e-4 0.002,-0.002 6.4e-4,-6.7e-4 10e-4,-0.001 0.002,-0.002 6.4e-4,-6.7e-4 10e-4,-10e-4 0.002,-0.002 6.4e-4,-6.7e-4 10e-4,-10e-4 0.002,-0.002 0,-6.5e-4 0,-10e-4 0,-0.002 6.4e-4,-6.7e-4 10e-4,-10e-4 0.002,-0.002 -10e-6,-6.5e-4 -10e-6,-0.001 0,-0.002 6.4e-4,-6.7e-4 0.001,-10e-4 0.002,-0.002 6.4e-4,-6.7e-4 10e-4,-10e-4 0.002,-0.002 0,-6.5e-4 0,-10e-4 0,-0.002 0,-6.5e-4 0,-10e-4 0,-0.002 6.4e-4,-6.6e-4 10e-4,-0.001 0.002,-0.002 0,-6.5e-4 0,-10e-4 0,-0.002 6.4e-4,-6.7e-4 10e-4,-0.001 0.002,-0.002 -10e-6,-6.5e-4 -10e-6,-10e-4 0,-0.002 -10e-6,-6.5e-4 -10e-6,-10e-4 0,-0.002 -10e-6,-6.5e-4 -10e-6,-10e-4 0,-0.002 6.5e-4,-10e-6 10e-4,-10e-6 0.002,0 0,-6.5e-4 0,-10e-4 0,-0.002 0,-6.5e-4 0,-0.001 0,-0.002 0,-6.5e-4 0,-10e-4 0,-0.002 0,-6.5e-4 0,-10e-4 0,-0.002 6.4e-4,-6.7e-4 10e-4,-10e-4 0.002,-0.002 -10e-6,-6.5e-4 -10e-6,-10e-4 0,-0.002 -10e-6,-6.5e-4 -10e-6,-0.001 0,-0.002 -10e-6,-6.5e-4 -10e-6,-10e-4 0,-0.002 -10e-6,-6.5e-4 -10e-6,-0.001 0,-0.002 -10e-6,-6.5e-4 -10e-6,-10e-4 0,-0.002 -10e-6,-6.5e-4 -10e-6,-10e-4 0,-0.002 -10e-6,-6.5e-4 -10e-6,-10e-4 0,-0.002 -10e-6,-6.5e-4 -10e-6,-10e-4 0,-0.002 -10e-6,-6.5e-4 -10e-6,-0.001 0,-0.002 -10e-6,-6.5e-4 -10e-6,-10e-4 0,-0.002 -10e-6,-6.5e-4 -10e-6,-10e-4 0,-0.002 -10e-6,-6.5e-4 -10e-6,-10e-4 0,-0.002 -10e-6,-6.5e-4 -10e-6,-10e-4 0,-0.002 -10e-6,-6.5e-4 -10e-6,-0.001 0,-0.002 -6.6e-4,-6.3e-4 -10e-4,-10e-4 -0.002,-0.002 0,-6.5e-4 0,-0.001 0,-0.002 0,-6.5e-4 0,-10e-4 0,-0.002 0,-6.5e-4 0,-10e-4 0,-0.002 0,-6.5e-4 0,-10e-4 0,-0.002 -6.6e-4,-6.3e-4 -0.001,-10e-4 -0.002,-0.002 -10e-6,-6.5e-4 -10e-6,-0.001 0,-0.002 -10e-6,-6.5e-4 -10e-6,-10e-4 0,-0.002 -6.6e-4,-6.4e-4 -10e-4,-10e-4 -0.002,-0.002 0,-6.5e-4 0,-10e-4 0,-0.002 0,-6.5e-4 0,-10e-4 0,-0.002 -6.6e-4,-6.3e-4 -0.001,-0.001 -0.002,-0.002 0,-6.5e-4 0,-10e-4 0,-0.002 -6.6e-4,-6.3e-4 -10e-4,-0.001 -0.002,-0.002 -10e-6,-6.5e-4 -10e-6,-10e-4 0,-0.002 -6.5e-4,10e-6 -10e-4,10e-6 -0.002,0 -10e-6,-6.5e-4 -10e-6,-10e-4 0,-0.002 -6.6e-4,-6.3e-4 -10e-4,-10e-4 -0.002,-0.002 0,-6.5e-4 0,-10e-4 0,-0.002 -6.6e-4,-6.4e-4 -10e-4,-0.001 -0.002,-0.002 -1e-5,-6.5e-4 -1e-5,-10e-4 0,-0.002 -6.5e-4,2e-5 -0.001,2e-5 -0.002,0 -6.6e-4,-6.3e-4 -10e-4,-10e-4 -0.002,-0.002 0,-6.5e-4 0,-10e-4 0,-0.002 -6.5e-4,10e-6 -10e-4,10e-6 -0.002,0 -10e-6,-6.5e-4 -10e-6,-10e-4 0,-0.002 -6.5e-4,2e-5 -10e-4,2e-5 -0.002,0 -10e-6,-6.5e-4 -10e-6,-0.001 0,-0.002 -6.5e-4,10e-6 -10e-4,10e-6 -0.002,0 -6.7e-4,-6.4e-4 -0.001,-10e-4 -0.002,-0.002 -6.6e-4,-6.4e-4 -10e-4,-10e-4 -0.002,-0.002 -6.6e-4,-6.3e-4 -0.001,-10e-4 -0.002,-0.002 -6.5e-4,2e-5 -10e-4,2e-5 -0.002,0 0,-6.5e-4 0,-10e-4 0,-0.002 -6.5e-4,1e-5 -10e-4,1e-5 -0.002,0 -6.5e-4,1e-5 -10e-4,1e-5 -0.002,0 -10e-6,-6.5e-4 -10e-6,-10e-4 0,-0.002 -6.5e-4,2e-5 -10e-4,2e-5 -0.002,0 -6.5e-4,2e-5 -0.001,2e-5 -0.002,0 -6.6e-4,-6.3e-4 -10e-4,-10e-4 -0.002,-0.002 -6.5e-4,10e-6 -10e-4,10e-6 -0.002,0 -6.5e-4,10e-6 -10e-4,10e-6 -0.002,0 -6.6e-4,-6.3e-4 -10e-4,-0.001 -0.002,-0.002 -6.5e-4,10e-6 -0.001,10e-6 -0.002,0 -6.5e-4,10e-6 -10e-4,10e-6 -0.002,0 -6.5e-4,10e-6 -0.001,10e-6 -0.002,0 -6.5e-4,10e-6 -10e-4,10e-6 -0.002,0 -6.5e-4,10e-6 -10e-4,10e-6 -0.002,0 -0.003,-3.3e-4 -0.006,-3.3e-4 -0.01,0 z m 24.17188,0.0508 v 2.11133 h 1.39062 c -0.003,0.006 -0.005,0.014 -0.006,0.0215 2.2e-4,0.0231 0.007,0.0449 0.0178,0.0586 10e-4,0.002 0.003,0.004 0.004,0.006 0.002,0.002 0.004,0.003 0.006,0.004 6.7e-4,6.3e-4 10e-4,10e-4 0.002,0.002 0.002,0.002 0.004,0.003 0.006,0.004 0.002,2.3e-4 0.004,2.3e-4 0.006,0 6.5e-4,-3e-5 10e-4,-3e-5 0.002,0 6.5e-4,-3e-5 10e-4,-3e-5 0.002,0 6.5e-4,-3e-5 10e-4,-3e-5 0.002,0 6.5e-4,-3e-5 0.001,-3e-5 0.002,0 6.5e-4,-3e-5 10e-4,-3e-5 0.002,0 6.5e-4,-3e-5 10e-4,-3e-5 0.002,0 0,-6.5e-4 0,-10e-4 0,-0.002 6.5e-4,-2e-5 10e-4,-2e-5 0.002,0 6.5e-4,-2e-5 10e-4,-2e-5 0.002,0 0,-6.5e-4 0,-10e-4 0,-0.002 6.5e-4,-2e-5 0.001,-2e-5 0.002,0 6.5e-4,-2e-5 10e-4,-2e-5 0.002,0 -10e-6,-6.5e-4 -10e-6,-0.001 0,-0.002 6.5e-4,-3e-5 10e-4,-3e-5 0.002,0 0,-6.5e-4 0,-10e-4 0,-0.002 6.5e-4,-3e-5 10e-4,-3e-5 0.002,0 0,-6.5e-4 0,-10e-4 0,-0.002 6.5e-4,-3e-5 10e-4,-3e-5 0.002,0 -10e-6,-6.5e-4 -10e-6,-10e-4 0,-0.002 6.5e-4,-3e-5 0.001,-3e-5 0.002,0 0,-6.5e-4 0,-10e-4 0,-0.002 6.5e-4,-3e-5 10e-4,-3e-5 0.002,0 0,-6.5e-4 0,-0.001 0,-0.002 6.4e-4,-6.8e-4 0.001,-10e-4 0.002,-0.002 0,-6.5e-4 0,-10e-4 0,-0.002 6.5e-4,-3e-5 10e-4,-3e-5 0.002,0 -10e-6,-6.5e-4 -10e-6,-10e-4 0,-0.002 6.4e-4,-6.8e-4 10e-4,-10e-4 0.002,-0.002 0,-6.5e-4 0,-0.001 0,-0.002 6.4e-4,-6.8e-4 10e-4,-10e-4 0.002,-0.002 -10e-6,-6.5e-4 -10e-6,-0.001 0,-0.002 -10e-6,-6.5e-4 -10e-6,-10e-4 0,-0.002 6.5e-4,-3e-5 10e-4,-3e-5 0.002,0 0,-6.5e-4 0,-10e-4 0,-0.002 0,-6.5e-4 0,-10e-4 0,-0.002 6.4e-4,-6.8e-4 0.001,-10e-4 0.002,-0.002 0,-6.5e-4 0,-0.001 0,-0.002 0,-6.5e-4 0,-10e-4 0,-0.002 0,-6.5e-4 0,-10e-4 0,-0.002 6.4e-4,-6.8e-4 10e-4,-10e-4 0.002,-0.002 0,-6.5e-4 0,-10e-4 0,-0.002 0,-6.5e-4 0,-0.001 0,-0.002 0,-6.5e-4 0,-10e-4 0,-0.002 6.5e-4,-6.8e-4 10e-4,-0.001 0.002,-0.002 -1e-5,-6.5e-4 -1e-5,-10e-4 0,-0.002 -1e-5,-6.5e-4 -1e-5,-10e-4 0,-0.002 -1e-5,-6.5e-4 -1e-5,-10e-4 0,-0.002 -1e-5,-6.5e-4 -1e-5,-10e-4 0,-0.002 -1e-5,-6.5e-4 -1e-5,-0.001 0,-0.002 -1e-5,-6.5e-4 -1e-5,-10e-4 0,-0.002 -1e-5,-6.5e-4 -1e-5,-10e-4 0,-0.002 -1e-5,-6.5e-4 -1e-5,-10e-4 0,-0.002 -1e-5,-6.5e-4 -1e-5,-10e-4 0,-0.002 -1e-5,-6.5e-4 -1e-5,-0.001 0,-0.002 -1e-5,-6.5e-4 -1e-5,-10e-4 0,-0.002 -1e-5,-6.5e-4 -1e-5,-0.001 0,-0.002 -1e-5,-6.6e-4 -1e-5,-10e-4 0,-0.002 -1e-5,-6.5e-4 -1e-5,-10e-4 0,-0.002 -1e-5,-6.5e-4 -1e-5,-10e-4 0,-0.002 -1e-5,-6.5e-4 -1e-5,-10e-4 0,-0.002 -1e-5,-6.5e-4 -1e-5,-0.001 0,-0.002 -1e-5,-6.5e-4 -1e-5,-10e-4 0,-0.002 -1e-5,-6.5e-4 -1e-5,-10e-4 0,-0.002 -1e-5,-6.5e-4 -1e-5,-10e-4 0,-0.002 -1e-5,-6.5e-4 -1e-5,-10e-4 0,-0.002 -1e-5,-6.5e-4 -1e-5,-0.001 0,-0.002 h 32.12305 v -2.11133 z m 35.5918,0 v 2.11133 h 29.20507 c 0.83005,-0.68931 1.64789,-1.39319 2.45313,-2.11133 z m -89.03321,0.2871 c 0.80524,0.71813 1.62308,1.42202 2.45313,2.11132 h 19.91015 v -2.11132 z m 24.41016,0.28906 v 2.10937 h 26.9375 v -2.10937 z m -19.17774,3.93164 c 0.94006,0.72218 1.89401,1.42609 2.86133,2.11132 h 14.26953 v -2.11132 z m 19.17774,0 v 2.11132 h 26.9375 v -2.11132 z m 64.62305,0 v 2.11132 h 23.22851 c 0.96797,-0.68521 1.92258,-1.38912 2.86328,-2.11132 z M 641.419,993.4142 v 2.11133 h 26.9375 v -2.11133 z m -13.02344,0.43164 c 1.1341,0.72901 2.28412,1.43296 3.44922,2.11133 h 7.52734 v -2.11133 z m 42.05469,0 v 2.11133 H 704.044 v -2.11133 z m 35.5918,0 v 2.11133 h 16.48632 c 1.1651,-0.67837 2.31512,-1.38232 3.44922,-2.11133 z m -70.20704,4.2207 c 1.16695,0.58563 2.34626,1.14631 3.53711,1.68164 v -1.68164 z m 5.58399,0 v 2.11136 h 26.9375 v -2.11136 z m 29.03125,0 v 2.11136 H 704.044 v -2.11136 z m 35.5918,0 v 2.11136 h 7.97656 c 1.52535,-0.66275 3.03242,-1.36678 4.51953,-2.11136 z m -60.46875,4.22066 c 2.13585,0.784 4.3001,1.4882 6.48828,2.1114 h 16.29492 v -2.1114 z m 24.87695,0 v 2.1114 h 31.86133 c 0.57897,-0.1493 1.15647,-0.3043 1.73242,-0.4649 v -1.6465 z m 35.5918,0 v 0.9649 c 0.92498,-0.307 1.84502,-0.6286 2.75976,-0.9649 z m -44.78321,4.2207 c 2.35236,0.4158 4.72005,0.7396 7.09766,0.9707 v -0.9707 z m 9.19141,0 v 1.1973 c 2.2416,0.1664 4.48856,0.2504 6.73633,0.2519 5.34128,-0.019 10.67074,-0.5038 15.92773,-1.4492 z"
     sodipodi:nodetypes="ccccccccccccccccccccccccccccccccccccccccccccccccccccccccccccccccccccccccccccccccccccccccccccccccccccccccccccccccccccccccccccccccccccccccccccccccccccccccccccccsssccssccscccsccscccssssccccscsccccssccsssccsssssssssssssccsssccsccscccccccccccccccccccsscccsccsccsccssssccccccccccccccccccccccccccccccccccccccccccsccsccssccssccsssssssssssssssssssssccccccccccccccccccccccccccccccccccccccccccccccccccccccccccccccccccccccccccccccccccccccccccccccccc" /><path
     id="path2637"
     style="display:inline;fill:#000000;fill-opacity:1;stroke:#fefefe;stroke-width:0;stroke-miterlimit:4;stroke-dasharray:none;stroke-opacity:1"
     inkscape:label="shadow"
     d="m 624.41074,822.7644 -45.03862,49.32642 10.10844,68.91931 138.5341,-78.65296 19.35296,138.87953 36.94121,-92.43589 -50.68712,-93.35268 z"
     sodipodi:nodetypes="cccccccc" /><path
     style="color:#000000;display:inline;fill:#000010;stroke-width:1.40374;-inkscape-stroke:none"
     d="m 679.63101,792.38737 c -62.13318,0.0162 -115.38295,47.09902 -121.77935,110.24748 -6.82286,67.35836 42.2495,127.49155 109.60773,134.31435 67.35827,6.8229 127.49925,-42.24951 134.32208,-109.60786 6.82287,-67.35835 -42.25739,-127.49152 -109.61563,-134.3144 -4.20989,-0.42642 -8.39262,-0.64064 -12.53483,-0.63957 z m 0.18558,37.37163 c 47.06853,-1.2e-4 85.22514,38.15654 85.22502,85.22515 1.2e-4,47.0686 -38.15649,85.22525 -85.22502,85.22515 -47.06855,10e-5 -85.22517,-38.15655 -85.22505,-85.22515 -1.2e-4,-47.06861 38.1565,-85.22527 85.22503,-85.22515 z"
     id="path9934"
     inkscape:label="black ring" /><path
     id="path11349"
     style="color:#000000;fill:#fe002f;stroke-width:1.00267;-inkscape-stroke:none"
     d="m 679.63384,791.02357 c -62.22634,0.0162 -115.64303,46.74696 -122.93164,109.67187 l -0.043,0.37697 2.57617,1.46094 0.0957,-0.85547 c 6.82788,-61.91005 59.21666,-107.91576 120.30273,-107.93166 4.09512,-10e-4 8.22916,0.20699 12.39454,0.62891 66.62648,6.74875 115.14326,66.20358 108.39453,132.83008 -1.45613,14.3756 -5.36516,27.90738 -11.27149,40.22265 l -0.0664,0.13282 0.37697,5.30859 0.92968,-1.82422 c 6.71866,-13.24079 11.15465,-27.91485 12.74022,-43.56836 6.89696,-68.08983 -42.7346,-128.90773 -110.82422,-135.80469 -4.25442,-0.43093 -8.48458,-0.64952 -12.67383,-0.64843 z m 0.18361,37.375 c -47.80385,-1.3e-4 -86.58803,38.78399 -86.5879,86.58789 -1.3e-4,47.80389 38.78409,86.58214 86.58789,86.58204 47.80377,10e-5 86.58214,-38.7782 86.58203,-86.58204 1.1e-4,-47.80385 -38.77822,-86.58802 -86.58203,-86.58789 z m 0,2.72265 c 46.33312,-1.2e-4 83.85949,37.53199 83.85938,83.86524 1.1e-4,46.33324 -37.52621,83.85949 -83.85938,83.85937 -46.33321,1.2e-4 -83.86537,-37.52618 -83.86525,-83.85937 -1.2e-4,-46.3332 37.53211,-83.86536 83.86524,-83.86524 z m -123.52736,73.62695 -0.0664,0.88672 c -1.80447,23.69668 3.21774,46.41738 13.43554,66.17774 l 0.94336,1.81641 0.33203,-5.31446 -0.0664,-0.13281 c -9.07646,-18.5479 -13.51804,-39.62312 -11.98047,-61.58789 l 0.0234,-0.36132 z m 229.82032,68.61524 -0.92383,1.62305 c -14.44693,25.34264 -37.67847,44.70474 -65.14453,54.38284 l -1.54297,0.5468 4.14062,1.4024 0.18554,-0.066 c 26.52789,-9.8392 49.04247,-28.564 63.54298,-52.90627 l 0.0879,-0.15428 z m -212.15626,0.73828 -0.11718,1.86719 -0.18555,2.98242 0.0898,0.14843 c 16.95367,28.00087 44.77242,49.01917 78.26953,56.68557 l 0.25781,0.059 2.84961,-2.1641 -1.19531,-0.2656 c -34.13558,-7.4186 -62.36755,-28.9574 -79.03125,-57.69532 z m 139.05274,57.51951 -0.16993,0.045 c -14.28704,4.0462 -29.56158,5.5135 -45.23633,3.9257 -2.61219,-0.2646 -5.19315,-0.6165 -7.75,-1.041 l -0.24416,-0.037 -2.96093,2.2519 1.27148,0.2286 c 3.09159,0.5514 6.22861,0.9849 9.4043,1.3066 16.82164,1.7039 33.19983,-0.042 48.43164,-4.6641 l 1.69141,-0.5176 z"
     inkscape:label="outer ring red" /><path
     id="path11321"
     style="color:#000000;fill:#0b040f;fill-rule:evenodd;stroke-width:1.00267;stroke-linecap:round;stroke-linejoin:round;stroke-miterlimit:100.1;-inkscape-stroke:none;paint-order:fill markers stroke"
     inkscape:label="red border bgr"
     d="m 723.7022,868.27747 -2.6914,3.62109 58.70703,43.38087 c -3e-5,0.006 0,0.0117 0,0.0174 -1.3e-4,1.11662 0.48815,2.16741 1.32227,2.89649 l -0.0155,-0.23048 0.22069,0.4043 c -0.072,-0.0546 -0.13758,-0.11482 -0.20508,-0.17382 l 4.27343,59.90234 a 0.56698587,0.56698587 0 0 0 1.05469,0.25002 c 1.41886,-2.38188 2.7616,-4.81389 4.02344,-7.30078 a 0.56698587,0.56698587 0 0 0 0.0586,-0.29492 l -3.80859,-53.3125 c 0.44104,-0.64098 0.7892,-1.35639 0.78906,-2.14062 -2.2e-4,-2.12385 -1.72968,-3.86111 -3.85351,-3.86133 -0.41956,4e-5 -0.82233,0.0701 -1.20117,0.19532 z m -166.68945,31.97461 a 0.56698587,0.56698587 0 0 0 -0.31055,0.44336 c -0.069,0.59537 -0.13758,1.19223 -0.19922,1.80078 -0.10609,1.04744 -0.19979,2.09464 -0.27929,3.13867 a 0.56698587,0.56698587 0 0 0 0.28711,0.53907 l 16.63867,9.4414 -3.55078,55.90235 a 0.56698587,0.56698587 0 0 0 0.0605,0.29492 c 1.28017,2.4757 2.64114,4.90731 4.08203,7.28711 a 0.56698587,0.56698587 0 0 0 1.04688,-0.25195 l 4.11914,-64.72461 a 0.56698587,0.56698587 0 0 0 -0.53125,-0.60547 l -0.76758,-0.043 0.50195,-0.88672 a 0.56698587,0.56698587 0 0 0 -0.21484,-0.77539 l -20.34375,-11.54492 a 0.56698587,0.56698587 0 0 0 -0.53906,-0.0156 z M 677.2647,1015.5958 a 0.56698587,0.56698587 0 0 0 -0.42187,0.1094 l -25.04688,19.0762 a 0.56698587,0.56698587 0 0 0 0.21483,1.0039 c 1.94903,0.4461 3.91879,0.8544 5.90625,1.209 a 0.56698587,0.56698587 0 0 0 0.44141,-0.1094 l 20.55859,-15.6504 36.49023,12.3945 a 0.56698587,0.56698587 0 0 0 0.34572,0.01 c 2.38712,-0.7244 4.74457,-1.5215 7.07226,-2.3848 a 0.56698587,0.56698587 0 0 0 -0.0155,-1.0703 l -42.68176,-14.506 a 0.56698587,0.56698587 0 0 0 -0.72265,0.3555 l -0.49414,1.4609 -1.27149,-1.6758 a 0.56698587,0.56698587 0 0 0 -0.375,-0.2207 z" /><path
     style="fill:#000000;fill-opacity:1;fill-rule:evenodd;stroke:#fe002f;stroke-width:2.40641;stroke-linecap:round;stroke-linejoin:round;stroke-miterlimit:100.1;stroke-dasharray:none;stroke-opacity:1;paint-order:fill markers stroke"
     d="m 693.60416,881.259 c 8.50408,8.39816 28.85031,18.41238 40.69246,20.02846 l -3.93592,-28.90225 c 3.48021,-7.06939 4.49188,-9.17849 1.34643,-10.82211 -0.17057,-0.0894 -2.80696,4.99365 -2.80696,4.99365 0,0 2.53078,-5.17523 2.33166,-5.27196 -0.40145,-0.19487 -0.84243,-0.40705 -1.32369,-0.64434 -0.86414,-0.42535 -2.03537,-1.02244 -2.67015,-1.32518 -0.0532,-0.0253 -2.7354,5.12557 -2.7354,5.12557 0,0 2.52734,-5.23578 2.47021,-5.26198 -3.25205,-1.4908 -4.54973,0.59253 -7.9987,7.59844 z"
     id="path6069"
     sodipodi:nodetypes="cccscssscscc"
     inkscape:label="lamp" /><path
     id="path9409"
     style="color:#000000;display:inline;fill:#fe002f;fill-rule:evenodd;stroke:#fe002f;stroke-width:1.00267;stroke-linecap:round;stroke-linejoin:round;stroke-miterlimit:100.1;stroke-dasharray:none;stroke-opacity:1;paint-order:fill markers stroke"
     d="m 724.24908,867.18177 c -2.2467,2e-5 -4.08203,1.83534 -4.08203,4.08203 0,2.24669 1.83533,4.08983 4.08203,4.08984 0.0336,0 0.068,-0.001 0.10156,-0.002 l 55.23242,40.81446 c 0.18319,0.83761 0.6253,1.58043 1.23828,2.14062 l 4.34375,60.94336 c 0.48227,-0.78914 0.95875,-1.58162 1.42383,-2.38281 l -4.11328,-57.63868 c 0.35093,0.0987 0.72036,0.15039 1.10157,0.15039 0.6491,1e-5 1.26442,-0.15371 1.81054,-0.42578 l 3.79492,53.19727 c 0.47716,-0.91196 0.94533,-1.82999 1.40039,-2.75586 l -3.69336,-51.7168 c 0.48456,-0.67117 0.77149,-1.49384 0.77149,-2.38086 0,-2.24669 -1.83729,-4.08204 -4.08398,-4.08203 -0.13252,0 -0.26321,0.007 -0.39258,0.0197 l -54.89454,-40.55677 c -0.2863,-1.97097 -1.99342,-3.4961 -4.04101,-3.49609 z m -0.0644,1.58789 c 0.0215,-5.4e-4 0.0428,0 0.0644,0 1.38881,0 2.49609,1.10532 2.49609,2.49414 0,1.38881 -1.10728,2.50391 -2.49609,2.50391 -1.38881,-10e-6 -2.49414,-1.11511 -2.49414,-2.50391 0,-1.3671 1.07148,-2.4603 2.42968,-2.49414 z m 3.94531,3.76172 53.23633,39.33984 c -0.83662,0.54136 -1.46248,1.37851 -1.73047,2.36133 l -53.35353,-39.42578 c 0.86483,-0.50134 1.53129,-1.31087 1.84766,-2.27539 z m -170.76758,27.4043 c -0.0697,0.56918 -0.13123,1.14103 -0.19336,1.71288 l 16.37499,9.28907 c -0.78813,0.60202 -1.35337,1.48397 -1.54297,2.49414 l -15.13867,-8.58789 c -0.0484,0.58396 -0.0927,1.16723 -0.13282,1.75 l 15.35938,8.71484 c 0.15416,0.53569 0.41639,1.0268 0.75977,1.44922 l -3.39649,53.4043 c 0.46215,0.9222 0.93533,1.83667 1.41992,2.74609 L 574.3663,917.922 c 0.50444,0.22485 1.06295,0.34961 1.64844,0.34961 0.4456,0 0.87521,-0.0713 1.27735,-0.20508 l -3.78907,59.5254 c 0.47116,0.79862 0.95078,1.59153 1.43946,2.3789 l 4.0039,-62.94922 c 0.71126,-0.73723 1.15039,-1.7412 1.15039,-2.83984 0,-2.2467 -1.83532,-4.08204 -4.08203,-4.08203 -0.2189,0 -0.43476,0.0193 -0.64453,0.0527 z m 18.58593,11.75195 c 0.0215,-5.4e-4 0.0447,0 0.0664,0 1.38881,-10e-6 2.49414,1.10532 2.49414,2.49414 0,1.38882 -1.10533,2.50391 -2.49414,2.50391 -1.3888,-1e-5 -2.49609,-1.1151 -2.49609,-2.50391 0,-1.36711 1.07147,-2.4603 2.42969,-2.49414 z m 207.56445,1.11523 c 0.0215,-5.4e-4 0.0428,0 0.0644,0 1.38879,-10e-6 2.49609,1.10534 2.49609,2.49414 0,1.38882 -1.10729,2.4961 -2.49609,2.4961 -1.38881,-10e-6 -2.50195,-1.10729 -2.50195,-2.4961 0,-1.36709 1.07907,-2.4603 2.43749,-2.49414 z m -104.3418,101.61324 c -0.17121,5e-4 -0.34548,0.012 -0.51953,0.035 -1.2024,0.1572 -2.21369,0.8323 -2.84766,1.7676 l -24.66406,18.7773 c 0.67171,0.1597 1.34712,0.3122 2.02344,0.461 l 21.94336,-16.7129 c 0.006,0.094 0.011,0.1884 0.0234,0.2832 0.12631,0.9658 0.58555,1.8099 1.24609,2.4336 l -19.40429,14.7734 c 0.70522,0.1321 1.41319,0.2567 2.12304,0.377 l 18.73242,-14.2637 c 0.58568,0.2079 1.22519,0.2869 1.88086,0.2012 0.45251,-0.059 0.87847,-0.1913 1.26758,-0.3828 l 33.29883,11.3144 c 0.87205,-0.254 1.74092,-0.5162 2.60547,-0.789 l -34.46289,-11.711 c 0.5967,-0.7781 0.91761,-1.7685 0.83398,-2.8066 l 38.20118,12.9785 c 0.78591,-0.2824 1.56679,-0.5751 2.3457,-0.8731 l -41.19336,-13.998 c -0.7413,-1.1384 -2.02582,-1.8689 -3.43359,-1.8652 z m -0.0566,1.586 c 1.27163,-0.039 2.37413,0.8789 2.54297,2.1699 0.18009,1.3771 -0.77136,2.6246 -2.14844,2.8047 -1.37707,0.1801 -2.62654,-0.7792 -2.80664,-2.1563 -0.1801,-1.377 0.77916,-2.6167 2.15625,-2.7968 0.0861,-0.011 0.1711,-0.019 0.25587,-0.022 z"
     inkscape:label="red structure" /><path
     id="path11559"
     style="font-size:9.87778px;line-height:1.35;font-family:'Politics Head';-inkscape-font-specification:'Politics Head';letter-spacing:0.0529167px;fill:#ffffff;stroke:#ffffff;stroke-width:0.434492"
     d="m 684.56158,799.32239 c -0.30554,0.017 -0.5119,0.21983 -0.54883,0.55274 l -2.46484,22.23046 c -0.0422,0.38048 0.16641,0.64334 0.54687,0.68555 l 3.8418,0.42578 c 0.38047,0.0422 0.64137,-0.16837 0.6836,-0.54881 l 0.82227,-7.41015 c 0.26328,-2.37346 0.2886,-4.91949 0.11327,-5.98438 l 0.14453,0.0156 c -0.008,0.0725 0.23754,0.85237 0.58594,1.67969 l 5.98048,12.8789 c 0.12071,0.23356 0.2762,0.32348 0.51172,0.34961 l 3.51368,0.39062 c 0.38047,0.0422 0.64334,-0.16835 0.68555,-0.54883 l 2.46484,-22.23047 c 0.0422,-0.38047 -0.16638,-0.64139 -0.54686,-0.6836 l -3.84184,-0.42772 c -0.38047,-0.0422 -0.64138,0.16835 -0.68359,0.54883 l -0.82617,7.44531 c -0.22711,2.04734 -0.24276,4.99966 -0.037,6.78321 l -0.14453,-0.0156 c -0.0464,-0.2436 -0.42298,-1.313 -0.77743,-2.08595 l -5.83789,-13.33984 c -0.0907,-0.17508 -0.26249,-0.28638 -0.49804,-0.31251 l -3.55077,-0.39258 c -0.0476,-0.005 -0.0931,-0.008 -0.13671,-0.006 z m -19.25782,1.36719 c -0.52971,-0.003 -1.08192,0.0404 -1.6582,0.13086 l -9.29297,1.45898 c -0.37819,0.0594 -0.57693,0.32885 -0.51757,0.70703 l 3.4414,21.91797 c 0.0594,0.37818 0.32886,0.57499 0.70703,0.51563 h 0.002 l 3.8164,-0.59961 c 0.37819,-0.0594 0.57694,-0.3308 0.51758,-0.70898 l -1.22266,-7.7793 c -0.0594,-0.37818 0.13939,-0.64767 0.51758,-0.70703 l 3.11523,-0.49024 c 0.16211,-0.0254 0.31767,0.0246 0.41798,0.19336 l 4.83984,7.91211 c 0.12098,0.18404 0.26026,0.25503 0.40431,0.23241 l 4.35937,-0.68359 c 0.28816,-0.0452 0.40933,-0.21335 0.38672,-0.35742 -0.0227,-0.14407 -0.13179,-0.36613 -0.35346,-0.71878 l -4.87702,-8.03707 c -0.0765,-0.13567 -0.12968,-0.23681 -0.15228,-0.3809 -0.0227,-0.14406 0.0498,-0.26603 0.2129,-0.40235 1.87314,-1.58567 2.5511,-3.61203 2.1582,-6.11523 -0.5985,-3.81334 -3.11425,-6.06846 -6.82224,-6.08789 z m -0.49023,4.67773 c 1.25273,-0.0356 2.29664,0.71626 2.47851,1.87501 l 0.0977,0.6289 c 0.20069,1.27861 -0.7813,2.42884 -2.16797,2.64648 l -4.30274,0.67579 c -0.37819,0.0594 -0.64962,-0.13745 -0.70898,-0.51563 l -0.61133,-3.89062 c -0.0594,-0.37818 0.13939,-0.64768 0.51758,-0.70703 l 4.30273,-0.67578 c 0.13334,-0.0209 0.26494,-0.0334 0.39454,-0.0371 z m -23.75781,0.76368 c -0.081,0.004 -0.16592,0.0248 -0.25391,0.0625 l -13.10547,5.60938 c -0.35191,0.15063 -0.47681,0.46252 -0.32618,0.81445 l 8.73048,20.39453 c 0.15065,0.35192 0.46255,0.4768 0.81445,0.32618 l 13.10351,-5.60938 c 0.35195,-0.15063 0.47682,-0.46253 0.32618,-0.81445 l -1.33985,-3.13281 c -0.15065,-0.35192 -0.46256,-0.4768 -0.81445,-0.32618 l -8.41211,3.59961 c -0.35191,0.15063 -0.66381,0.0277 -0.81445,-0.32421 l -1.41405,-3.30274 c -0.15065,-0.35192 -0.0257,-0.66187 0.32617,-0.8125 l 6.9043,-2.95508 c 0.35195,-0.15063 0.47681,-0.46253 0.32617,-0.81445 l -1.34179,-3.13477 c -0.15065,-0.35192 -0.46058,-0.47485 -0.8125,-0.32422 l -6.90432,2.95508 c -0.35195,0.15063 -0.66381,0.0257 -0.81445,-0.32617 l -1.34178,-3.13477 c -0.15065,-0.35191 -0.0257,-0.66186 0.32617,-0.8125 l 8.41406,-3.60156 c 0.35195,-0.15063 0.47486,-0.46253 0.32421,-0.81445 l -1.33985,-3.13281 c -0.11301,-0.26394 -0.31752,-0.40069 -0.56056,-0.38867 z m 78.51562,0.31055 c -0.15458,0.004 -0.29631,0.067 -0.39647,0.19925 0,0 -14.35776,18.61771 -14.39453,18.66211 -0.067,0.0717 -0.1604,0.2119 -0.19336,0.29687 -0.0659,0.16993 0.038,0.30737 0.29295,0.40625 l 4.19727,1.62891 c 0.16993,0.0659 0.32254,0.0271 0.43946,-0.12303 l 1.96484,-2.69922 c 0.1169,-0.15017 0.19877,-0.15819 0.4707,-0.0527 l 6.54297,2.53906 c 0.25493,0.0989 0.32546,0.16574 0.31053,0.35547 l -0.36718,3.31641 c -0.0151,0.18973 0.0709,0.32205 0.2578,0.39453 l 4.21484,1.63476 c 0.25497,0.0989 0.40672,0.0605 0.47265,-0.10938 0.0197,-0.051 0.0336,-0.086 0.039,-0.20118 l 1.98828,-23.62891 c 0.0242,-0.26432 -0.14937,-0.46948 -0.40431,-0.56835 l -5.15036,-1.99804 c -0.0956,-0.0371 -0.19242,-0.0553 -0.28513,-0.0527 z m 0.29103,6.74218 0.5957,0.23047 -0.18554,0.73047 -0.89257,8.09961 c -0.0348,0.24073 -0.19023,0.3373 -0.49617,0.21859 l -3.99416,-1.54883 c -0.30591,-0.11865 -0.33785,-0.28712 -0.20126,-0.48824 l 4.81836,-6.57813 z m 22.40233,4.03125 c -0.17102,0.007 -0.33176,0.0997 -0.45898,0.27345 l -13.21484,18.04688 c -0.22617,0.30886 -0.17601,0.63905 0.13281,0.86522 l 3.11914,2.2832 c 0.30887,0.22617 0.63905,0.17602 0.86523,-0.13281 l 4.40625,-6.01562 c 1.41093,-1.92663 2.70148,-4.12218 3.08008,-5.13282 l 0.11716,0.086 c -0.0431,0.0587 -0.21993,0.85715 -0.33006,1.74805 l -1.23047,14.14453 c -0.0117,0.26264 0.0763,0.41864 0.26747,0.55865 l 2.85352,2.08984 c 0.30886,0.22617 0.64102,0.17605 0.86719,-0.13281 l 13.21484,-18.04688 c 0.22617,-0.30885 0.17409,-0.63904 -0.13477,-0.86523 l -3.11719,-2.28321 c -0.30887,-0.22616 -0.63905,-0.17602 -0.86523,0.13283 l -4.42774,6.04492 c -1.21706,1.6619 -2.7017,4.21249 -3.4121,5.86133 l -0.11721,-0.086 c 0.0812,-0.23429 0.2874,-1.34854 0.36522,-2.19531 l 1.58594,-14.47461 c 0.009,-0.19699 -0.0862,-0.37752 -0.27738,-0.51756 l -2.88085,-2.11132 c -0.13511,-0.0989 -0.27518,-0.14619 -0.40818,-0.14061 z m -125.22265,0.19531 c -0.0838,0.006 -0.18014,0.0502 -0.28906,0.13282 l -3.67579,2.78711 c -0.14524,0.11015 -0.19158,0.26117 -0.12498,0.43945 l 6.34374,15.57227 0.40041,0.67968 -0.49414,0.37501 -0.54494,-0.56835 -13.30078,-10.29883 c -0.15371,-0.11221 -0.31094,-0.1075 -0.4707,0.0137 l -3.58789,2.7207 c -0.21785,0.16523 -0.26446,0.3157 -0.15428,0.46094 0.0333,0.0435 0.10284,0.10416 0.15038,0.1367 l 19.1504,14.0293 c 0.21229,0.15927 0.47744,0.11834 0.69531,-0.0469 l 4.37305,-3.31641 c 0.21785,-0.16524 0.32851,-0.40885 0.2324,-0.65625 l -8.35352,-22.05666 c -0.0481,-0.12366 -0.0968,-0.24844 -0.14064,-0.30664 -0.0551,-0.0726 -0.12518,-0.10403 -0.20897,-0.0977 z m 148.24414,21.87501 c -1.41334,-0.006 -2.81042,0.54261 -4.11133,1.58787 l -8.56837,6.88476 c -3.21153,2.58046 -3.66907,5.93996 -0.44922,9.94727 l 1.63282,2.03321 c 2.30642,2.87048 5.27568,3.94573 8.11719,2.73828 0.36687,-0.15458 0.55144,-0.30263 0.63671,-0.37111 0.1279,-0.10273 0.18372,-0.2662 0.10352,-0.48243 l -1.13867,-3.33984 c -0.0287,-0.0939 -0.0716,-0.17514 -0.12896,-0.24608 -0.13701,-0.17054 -0.41139,-0.27795 -0.68164,-0.17776 -1.29717,0.48106 -2.31433,0.17413 -3.27344,-1.01953 l -1.64453,-2.04492 c -0.90201,-1.12262 -0.6734,-2.49837 0.44922,-3.40039 l 7.7168,-6.20117 c 1.05155,-0.84494 2.50258,-0.84191 3.41601,0.29492 l 1.64454,2.04688 c 0.95911,1.19365 1.04409,2.3183 0.28905,3.41601 -0.15605,0.24235 -0.10968,0.53261 0.0272,0.70313 0.0569,0.0711 0.12737,0.12952 0.21286,0.17775 l 3.01563,1.83398 c 0.19385,0.12488 0.36623,0.1047 0.49414,0.002 0.0853,-0.0684 0.12752,-0.10265 0.35743,-0.42772 1.79105,-2.5148 1.52157,-5.76092 -0.77344,-8.61719 l -1.64438,-2.04687 c -1.79539,-2.23459 -3.76236,-3.28271 -5.69916,-3.29101 z m -171.26954,0.6582 c -1.95659,-0.0429 -3.91181,1.04754 -5.79297,3.45117 l -1.60546,2.05273 c -3.05592,3.90467 -2.5246,7.51465 0.57617,9.94141 l 8.65625,6.77344 c 3.24432,2.5391 6.61884,2.21814 9.78711,-1.83008 l 1.60742,-2.05273 c 3.05591,-3.90467 2.53895,-7.50342 -0.57617,-9.94141 l -8.65625,-6.77344 c -1.31801,-1.03151 -2.65737,-1.59173 -3.9961,-1.62109 z m -0.29101,5.3789 c 0.53089,0.008 1.07611,0.20935 1.57226,0.59766 l 7.79493,6.10156 c 1.07665,0.84263 1.39099,2.2461 0.49219,3.39453 l -1.60743,2.05274 c -0.88757,1.13407 -2.27804,1.22545 -3.41211,0.33789 l -7.79492,-6.10156 c -1.0623,-0.83139 -1.39097,-2.24611 -0.49218,-3.39454 l 1.60742,-2.05273 c 0.49925,-0.63792 1.15727,-0.94602 1.83984,-0.93555 z m 189.18359,15.88868 c -0.0985,-0.002 -0.20391,0.0219 -0.31253,0.0723 l -20.13866,9.3047 c -0.34753,0.16056 -0.4633,0.47476 -0.30274,0.82227 l 5.97851,12.9414 c 0.16055,0.34753 0.47475,0.46331 0.82226,0.30274 l 3.09573,-1.42968 c 0.34753,-0.16055 0.46329,-0.47476 0.30274,-0.82226 l -3.83984,-8.3086 c -0.16055,-0.34753 -0.0447,-0.66172 0.30274,-0.82227 l 3.25978,-1.50582 c 0.34753,-0.16056 0.66367,-0.0448 0.82423,0.30274 l 3.15051,6.81829 c 0.16055,0.34753 0.47476,0.4633 0.82226,0.30274 l 3.09378,-1.42963 c 0.34753,-0.16056 0.4633,-0.47671 0.30274,-0.82422 l -3.15047,-6.81638 c -0.16055,-0.34753 -0.0448,-0.66169 0.30274,-0.82226 l 3.09373,-1.43169 c 0.34752,-0.16056 0.66364,-0.0448 0.82422,0.30274 l 3.83788,8.30859 c 0.16055,0.34753 0.47472,0.46332 0.82227,0.30274 l 3.09372,-1.43169 c 0.34749,-0.16055 0.4633,-0.47476 0.30274,-0.82227 l -5.97852,-12.93944 c -0.1104,-0.23891 -0.29318,-0.36964 -0.50978,-0.37501 z m -203.99805,3.08203 c -2.70248,0.0102 -5.0237,1.78215 -6.32226,4.82031 l -1.06055,2.48047 c -1.94156,4.54257 -0.52217,7.9043 3.11524,9.45898 l 10.10742,4.32031 c 3.77151,1.612 6.97508,0.42309 8.98828,-4.2871 l 1.02344,-2.39648 c 1.94873,-4.55933 0.52413,-7.9043 -3.11328,-9.45899 l -5.66602,-2.42188 c -0.35202,-0.15046 -0.66205,-0.0257 -0.8125,0.32618 l -2.85937,6.68945 c -0.15046,0.35203 -0.0259,0.66205 0.32617,0.8125 l 2.59961,1.11133 c 0.35202,0.15046 0.66205,0.0257 0.8125,-0.32618 l 0.92383,-2.16211 c 0.15045,-0.35202 0.46245,-0.47661 0.81444,-0.32617 l 1.42383,0.60742 c 1.25717,0.53734 1.92277,1.81331 1.34962,3.1543 l -1.09766,2.56444 c -0.56599,1.32422 -1.88672,1.77107 -3.21093,1.20509 l -9.10157,-3.89063 c -1.2404,-0.53016 -1.92081,-1.81331 -1.34766,-3.15429 l 1.06055,-2.48047 c 0.60181,-1.40803 1.48674,-2.04013 2.81055,-1.89062 0.28724,0.0238 0.52145,-0.15432 0.60742,-0.35547 0,0 0.0543,-0.17529 0.0567,-0.27345 l 0.19727,-3.52344 c 0.0189,-0.22979 -0.0795,-0.37111 -0.2304,-0.43557 -0.10049,-0.043 -0.14993,-0.0634 -0.54492,-0.11328 -0.28703,-0.037 -0.57005,-0.0557 -0.84961,-0.0547 z"
     inkscape:label="Governance" /></g>
<path
   d="m 420.945,90.725466 v 20.195154 c 0,5.57387 -4.52528,10.09758 -10.09593,10.09758 h -94.43044 c -5.57065,0 -10.09594,-4.52371 -10.09594,-10.09758 V 90.725466 c 0,-5.573858 4.52529,-10.097576 10.09594,-10.097576 h 94.43044 c 5.57065,0 10.09593,4.523718 10.09593,10.097576 z"
   style="fill:#fe002f;fill-opacity:1;stroke-width:3.77426"
   id="path2001" /><g
   transform="translate(-182.58834,-78.177038)"
   id="g2007">
            <text
   x="506.448"
   y="182.60001"
   style="font-size:18px;font-family:PTMono-Regular, 'PT Mono', monospace;fill:#ffffff"
   id="text2005">#fe002f</text>
        </g><g
   transform="matrix(4.5848925,0,0,3.1069478,-193.43059,-21.133528)"
   id="g2011"
   style="fill:#fffefe;fill-opacity:1;stroke:#000000;stroke-width:0.264953;stroke-dasharray:none;stroke-opacity:1">
            <path
   d="m 134,54.25 v 6.5 c 0,1.794 -0.987,3.25 -2.202,3.25 H 111.202 C 109.987,64 109,62.544 109,60.75 v -6.5 c 0,-1.794 0.987,-3.25 2.202,-3.25 h 20.596 c 1.215,0 2.202,1.456 2.202,3.25 z"
   style="fill:#fffefe;fill-opacity:1;stroke:#000000;stroke-width:0.264953;stroke-dasharray:none;stroke-opacity:1"
   id="path2009" />
        </g><g
   transform="translate(-182.58834,-21.484118)"
   id="g2015"
   style="fill:#000000;fill-opacity:1">
            <text
   x="506.448"
   y="182.60001"
   style="font-size:18px;font-family:PTMono-Regular, 'PT Mono', monospace;fill:#000000;fill-opacity:1"
   id="text2013">#ffffff</text>
        </g></svg>
