<?xml version="1.0" encoding="UTF-8" standalone="no"?>
<svg
   width="100%"
   height="100%"
   viewBox="0 0 842 596"
   version="1.1"
   xml:space="preserve"
   style="fill-rule:evenodd;clip-rule:evenodd;"
   id="svg1490"
   sodipodi:docname="branch-Governance-design.svg"
   inkscape:version="1.2.1 (9c6d41e4, 2022-07-14)"
   xmlns:inkscape="http://www.inkscape.org/namespaces/inkscape"
   xmlns:sodipodi="http://sodipodi.sourceforge.net/DTD/sodipodi-0.dtd"
   xmlns="http://www.w3.org/2000/svg"
   xmlns:svg="http://www.w3.org/2000/svg"><defs
   id="defs1494">
        
        
        
        
        
        
        
        
        
        
        
    
            
        </defs><sodipodi:namedview
   id="namedview1492"
   pagecolor="#ffffff"
   bordercolor="#666666"
   borderopacity="1.0"
   inkscape:showpageshadow="2"
   inkscape:pageopacity="0.0"
   inkscape:pagecheckerboard="0"
   inkscape:deskcolor="#d1d1d1"
   showgrid="false"
   inkscape:zoom="1.47981"
   inkscape:cx="178.73916"
   inkscape:cy="288.88844"
   inkscape:window-width="2560"
   inkscape:window-height="1381"
   inkscape:window-x="0"
   inkscape:window-y="31"
   inkscape:window-maximized="1"
   inkscape:current-layer="svg1490" />
    <g
   transform="matrix(4.5848925,0,0,3.1069478,-193.43059,-134.51936)"
   id="g1463">
            <path
   d="m 134,54.25 v 6.5 c 0,1.794 -0.987,3.25 -2.202,3.25 H 111.202 C 109.987,64 109,62.544 109,60.75 v -6.5 c 0,-1.794 0.987,-3.25 2.202,-3.25 h 20.596 c 1.215,0 2.202,1.456 2.202,3.25 z"
   style="fill:#010001"
   id="path1461" />
        </g><g
   transform="translate(-182.58834,-134.86995)"
   id="g1483">
            <text
   x="506.448"
   y="182.60001"
   style="font-size:18px;font-family:PTMono-Regular, 'PT Mono', monospace;fill:#ffffff"
   id="text1481">#000000</text>
        </g>
<path
   d="m 420.945,90.725466 v 20.195154 c 0,5.57387 -4.52528,10.09758 -10.09593,10.09758 h -94.43044 c -5.57065,0 -10.09594,-4.52371 -10.09594,-10.09758 V 90.725466 c 0,-5.573858 4.52529,-10.097576 10.09594,-10.097576 h 94.43044 c 5.57065,0 10.09593,4.523718 10.09593,10.097576 z"
   style="fill:#0a2124;fill-opacity:1;stroke-width:3.77426"
   id="path2001" /><g
   transform="translate(-182.58834,-78.177038)"
   id="g2007">
            <text
   x="506.448"
   y="182.60001"
   style="font-size:18px;font-family:PTMono-Regular, 'PT Mono', monospace;fill:#ffffff"
   id="text2005">#0a2124</text>
        </g><g
   transform="matrix(4.5848925,0,0,3.1069478,-193.43059,92.252304)"
   id="g2011"
   style="fill:#fffefe;fill-opacity:1;stroke:#000000;stroke-width:0.264953;stroke-dasharray:none;stroke-opacity:1">
            <path
   d="m 134,54.25 v 6.5 c 0,1.794 -0.987,3.25 -2.202,3.25 H 111.202 C 109.987,64 109,62.544 109,60.75 v -6.5 c 0,-1.794 0.987,-3.25 2.202,-3.25 h 20.596 c 1.215,0 2.202,1.456 2.202,3.25 z"
   style="fill:#fffefe;fill-opacity:1;stroke:#000000;stroke-width:0.264953;stroke-dasharray:none;stroke-opacity:1"
   id="path2009" />
        </g><g
   transform="translate(-182.58834,91.901714)"
   id="g2015"
   style="fill:#000000;fill-opacity:1">
            <text
   x="506.448"
   y="182.60001"
   style="font-size:18px;font-family:PTMono-Regular, 'PT Mono', monospace;fill:#000000;fill-opacity:1"
   id="text2013">#ffffff</text>
        </g><path
   d="m 420.945,204.11132 v 20.19516 c 0,5.57387 -4.52528,10.09758 -10.09593,10.09758 h -94.43044 c -5.57065,0 -10.09594,-4.52371 -10.09594,-10.09758 v -20.19516 c 0,-5.57386 4.52529,-10.09757 10.09594,-10.09757 h 94.43044 c 5.57065,0 10.09593,4.52371 10.09593,10.09757 z"
   style="fill:#aed919;fill-opacity:1;stroke-width:3.77426"
   id="path7033" /><g
   transform="translate(-182.58834,35.208794)"
   id="g7037">
            <text
   x="506.448"
   y="182.60001"
   style="font-size:18px;font-family:PTMono-Regular, 'PT Mono', monospace;fill:#000000;fill-opacity:1"
   id="text7035">#aed919</text>
        </g><g
   id="g599"
   transform="matrix(1.133562,0,0,1.133562,29.380531,-261.03453)"
   style="stroke-width:0.882175"><path
     id="path3092"
     style="display:inline;fill:#fefefe;fill-opacity:1;fill-rule:evenodd;stroke:#000000;stroke-width:3.32935;stroke-linecap:round;stroke-linejoin:round;stroke-miterlimit:100.1;paint-order:stroke fill markers"
     d="m 105.41809,239.47341 c -66.667026,1.2e-4 -120.711195,54.04429 -120.710945,120.71094 -2.48e-4,66.66666 54.043923,120.71082 120.710945,120.71094 66.66702,-1.2e-4 120.71118,-54.04428 120.71093,-120.71094 2.5e-4,-66.66665 -54.04391,-120.71082 -120.71093,-120.71094 z"
     inkscape:label="white-bg"
     sodipodi:nodetypes="ccccc" /><path
     id="path10671"
     style="fill:#000000;fill-opacity:1;fill-rule:evenodd;stroke:#fe002f;stroke-width:0;stroke-linecap:round;stroke-linejoin:round;stroke-miterlimit:100.1;paint-order:fill markers stroke"
     d="m 83.097096,385.52338 c -1.234718,-0.0276 -2.483709,0.12521 -3.550783,0.5332 -2.845534,1.088 -6.528601,3.17885 -7.449218,8.53516 -0.834792,4.85696 -0.793379,8.61368 -1.432275,10.04447 1.433938,-0.93132 5.469823,-0.63969 5.469823,-0.63969 0,0 -4.583735,0.34352 -6.461378,1.48975 -1.004304,1.088 -1.37277,1.94358 -1.509762,3.57176 -0.148838,1.76913 1.171872,4.53175 1.171872,4.53175 l 26.896487,0.0136 0.01361,12.02735 33.281248,-0.037 0.008,-9.85547 c -2.88047,-5.00652 -7.17364,-10.1964 -8.22462,-11.18555 -1.42276,-1.33907 -7.38585,-7.69595 -8.87304,-8.20312 -1.5745,-0.53696 -5.84127,-1.07416 -9.09287,-1.15523 -0.57944,-0.0144 -1.13161,-0.0847 -1.61849,-0.0787 -1.09639,0.0136 -1.861678,0.13055 -1.861678,0.13055 0,0 0.805988,-0.27451 1.832158,-0.28865 -0.81229,-0.94711 -11.580894,-6.9461 -13.444662,-8.14897 -1.07641,-0.69471 -3.096439,-1.23931 -5.154297,-1.28515 z m 30.001954,26.89648 c 0.80649,0.78492 5.26635,4.77617 5.11914,5.61914 -1.79739,-0.51774 -6.6689,-0.0197 -9.10057,0.0506 1.45781,-0.22636 3.91348,-0.58938 5.06734,-0.52698 -0.31321,-1.29696 -1.29279,-4.10833 -1.08591,-5.1428 z"
     sodipodi:nodetypes="csscccscccccssssccsscccccsc"
     inkscape:label="person" /><path
     id="path3546"
     style="color:#000000;fill:#000000;fill-rule:evenodd;stroke-width:3.00078;stroke-linecap:round;stroke-linejoin:round;stroke-miterlimit:100.1;paint-order:fill markers stroke"
     d="m 95.557908,361.22598 a 0.42247703,0.43931585 0 0 0 -0.421875,0.44141 v 0.97656 a 0.42247703,0.43931585 0 0 0 0.421875,0.43945 h 3.515626 l -3.720703,4.67383 a 0.42247703,0.43931585 0 0 0 -0.09766,0.27931 v 0.97656 a 0.42247703,0.43931585 0 0 0 0.423825,0.4375 h 5.632804 a 0.42247703,0.43931585 0 0 0 0.42188,-0.4375 v -0.97656 a 0.42247703,0.43931585 0 0 0 -0.42188,-0.43946 h -3.517569 l 3.720699,-4.67382 a 0.42247703,0.43931585 0 0 0 0.0977,-0.27931 v -0.97656 a 0.42247703,0.43931585 0 0 0 -0.42187,-0.44141 z m 8.740232,9.5625 a 0.3127753,0.32524169 0 0 0 -0.31249,0.32617 v 0.72266 a 0.3127753,0.32524169 0 0 0 0.31249,0.32617 h 2.60352 l -2.75586,3.45899 a 0.3127753,0.32524169 0 0 0 -0.0703,0.20704 v 0.72266 a 0.3127753,0.32524169 0 0 0 0.31249,0.32421 h 4.16992 a 0.3127753,0.32524169 0 0 0 0.3125,-0.32421 v -0.72266 a 0.3127753,0.32524169 0 0 0 -0.3125,-0.32617 h -2.60351 l 2.75391,-3.45898 a 0.3127753,0.32524169 0 0 0 0.0723,-0.20705 v -0.72265 a 0.3127753,0.32524169 0 0 0 -0.31249,-0.32618 z m -5.324216,9.63476 a 0.26878122,0.27949414 0 0 0 -0.269518,0.27931 v 0.62305 a 0.26878122,0.27949414 0 0 0 0.269518,0.27931 h 2.234376 l -2.365238,2.97265 a 0.26878122,0.27949414 0 0 0 -0.06251,0.17775 v 0.6211 a 0.26878122,0.27949414 0 0 0 0.269518,0.27931 h 3.58398 a 0.26878122,0.27949414 0 0 0 0.26759,-0.27931 v -0.6211 a 0.26878122,0.27949414 0 0 0 -0.26759,-0.2793 h -2.23828 l 2.36719,-2.97266 a 0.26878122,0.27949414 0 0 0 0.0625,-0.17775 v -0.6211 a 0.26878122,0.27949414 0 0 0 -0.26952,-0.28123 z"
     inkscape:label="Z Z Z" /><path
     id="path9918"
     style="fill:#000000;fill-opacity:1;fill-rule:evenodd;stroke:#fe002f;stroke-width:0;stroke-linecap:round;stroke-linejoin:round;stroke-miterlimit:100.1;paint-order:fill markers stroke"
     inkscape:label="paper"
     d="m 131.94645,358.8515 v 2.11133 h 62.64844 c -0.0178,-0.70405 -0.044,-1.40788 -0.0781,-2.11133 z m -0.40234,3.93359 v 2.11133 h 62.93164 c 0.034,-0.70345 0.0602,-1.40727 0.0781,-2.11133 z m 0.50195,4.65235 v 2.11132 h 62.1543 c 0.0687,-0.70305 0.12922,-1.40687 0.18164,-2.11132 z m -1.54688,4.50781 v 2.11133 h 63.19336 c 0.0876,-0.70284 0.16702,-1.40666 0.2383,-2.11133 z m 1.14453,3.64648 v 2.10938 h 61.4336 c 0.14101,-0.70155 0.27383,-1.40473 0.39844,-2.10938 z m 0.50391,4.50782 v 2.11132 h 60.04102 c 0.15277,-0.70205 0.29734,-1.40588 0.43359,-2.11132 z m -118.398436,0.14452 c 0.140179,0.70485 0.288627,1.40802 0.445312,2.10938 h 51.546877 v -2.10938 z m 0.435546,3.78907 c 0.179785,0.70534 0.367949,1.40851 0.564454,2.10937 h 50.53125 v -2.10937 z m 117.86133,0.14256 v 2.11133 h 59.05078 c 0.19718,-0.7015 0.38599,-1.40533 0.56641,-2.11133 z m -0.50195,3.64649 v 2.10937 h 58.45117 c 0.2383,-0.70032 0.46814,-1.4035 0.68945,-2.10937 z m -116.396489,0.86329 c 0.237528,0.7061 0.48364,1.40927 0.738281,2.10938 h 49.087891 v -2.10938 z m 115.552739,3.93164 v 2.11133 h 57.61719 c 0.25466,-0.70075 0.50076,-1.40458 0.73828,-2.11133 z m -113.820317,0.14453 c 0.237513,0.70675 0.483625,1.41058 0.738281,2.11133 H 65.87809 v -2.11133 z m 1.226563,3.93359 c 0.297819,0.70694 0.604481,1.41013 0.919922,2.10938 h 45.847655 v -2.10937 z m 113.839844,0.2871 v 2.11132 h 54.47852 c 0.31612,-0.69989 0.62342,-1.40372 0.92187,-2.11132 z m -0.5039,4.07617 v 2.11132 h 53.01953 c 0.37761,-0.69896 0.74612,-1.40279 1.10547,-2.11132 z m -111.904303,0.28906 c 0.362608,0.70792 0.73437,1.41111 1.115233,2.10937 h 43.707032 v -2.10937 z m 112.207033,3.64453 v 2.11132 h 50.63867 c 0.38088,-0.69891 0.75266,-1.40274 1.11524,-2.11132 z m -109.5918,0.14453 c 0.362608,0.70792 0.73437,1.4111 1.115237,2.10937 h 41.705076 v -2.10937 z m 109.39063,4.36327 v 2.11133 h 48.01953 c 0.45225,-0.69773 0.89499,-1.40157 1.32812,-2.11133 z m -107.841802,0.14453 c 0.43248,0.70975 0.874579,1.41359 1.326172,2.11133 h 38.871096 v -2.11133 z m 3.496093,3.78907 c 0.509446,0.71116 1.029033,1.41501 1.558594,2.11132 h 36.318361 v -2.11132 z m 104.847659,0.71875 v 2.11132 h 44.24414 c 0.52956,-0.69631 1.04915,-1.40016 1.5586,-2.11132 z m -65.573072,0.60949 v 2.11132 H 93.41049 v -2.11132 z m -36.266775,2.74793 c 0.551464,0.712 1.113377,1.41585 1.685549,2.11133 h 32.578125 v -2.11133 z m 101.236337,0.43164 v 2.11133 h 41.87304 c 0.58922,-0.69512 1.16806,-1.39898 1.73633,-2.11133 z m -64.421882,0.44726 v 2.10938 h 27.138671 v -2.10938 z m 64.925782,3.3418 v 2.11133 h 38.09961 c 0.61873,-0.6945 1.22687,-1.39836 1.82422,-2.11133 z m -97.869142,0.43167 c 0.61737,0.71342 1.245702,1.41728 1.884767,2.11134 h 28.912108 v -2.11134 z m 32.94336,0 v 2.11134 h 26.736329 v -2.11134 z m 0,3.9336 v 2.11133 h 26.634766 v -2.11133 z m -29.091795,0.14453 c 0.691654,0.7145 1.394872,1.41772 2.109373,2.10938 h 25.13672 v -2.10938 z m 93.714837,0.14256 v 2.11133 h 33.75196 c 0.71517,-0.69228 1.41904,-1.39615 2.11133,-2.11133 z m -35.591791,0.32228 v 2.11133 h 33.191411 v -2.11133 z m -24.171875,3.56055 c -0.02948,0.005 -0.05114,0.037 -0.0508,0.0742 1.02e-4,0.0219 0.0079,0.0426 0.02154,0.0566 0.01096,0.0113 0.02495,0.0178 0.03908,0.0178 h 0.0019 0.002 0.002 l 0.002,-0.002 h 0.002 0.002 0.002 l 0.002,-0.002 h 0.002 0.002 l 0.002,-0.002 h 0.002 l 0.002,-0.002 0.002,-0.002 h 0.002 l 0.002,-0.002 0.002,-0.002 h 0.002 v -0.002 l 0.002,-0.002 0.002,-0.002 0.002,-0.002 0.002,-0.002 0.002,-0.002 v -0.002 l 0.002,-0.002 v -0.002 l 0.002,-0.002 0.0019,-0.002 v -0.002 -0.002 l 0.002,-0.002 v -0.002 l 0.002,-0.002 v -0.002 -0.002 -0.002 h 0.002 v -0.002 -0.002 -0.002 -0.002 l 0.002,-0.002 v -0.002 -0.002 -0.002 -0.002 -0.002 -0.002 -0.002 -0.002 -0.002 -0.002 -0.002 -0.002 -0.002 -0.002 l -0.002,-0.002 v -0.002 -0.002 -0.002 -0.002 l -0.002,-0.002 v -0.002 -0.002 l -0.002,-0.002 v -0.002 -0.002 l -0.002,-0.002 v -0.002 l -0.0019,-0.002 v -0.002 h -0.002 v -0.002 l -0.002,-0.002 v -0.002 l -0.002,-0.002 v -0.002 h -0.002 l -0.002,-0.002 v -0.002 h -0.002 v -0.002 h -0.002 v -0.002 h -0.002 l -0.002,-0.002 -0.002,-0.002 -0.002,-0.002 h -0.002 v -0.002 h -0.002 -0.002 v -0.002 h -0.002 -0.002 l -0.002,-0.002 h -0.002 -0.002 l -0.002,-0.002 h -0.002 -0.002 -0.002 -0.002 -0.0019 c -0.0032,-3.4e-4 -0.0064,-3.4e-4 -0.0098,0 z m 24.474611,0.0508 v 2.11133 h 1.390624 c -0.0026,0.006 -0.0049,0.014 -0.006,0.0215 2.19e-4,0.0231 0.0068,0.0449 0.01776,0.0586 0.0012,0.002 0.0027,0.004 0.0038,0.006 0.0019,0.002 0.0036,0.003 0.0057,0.004 l 0.002,0.002 c 0.0019,0.002 0.0038,0.003 0.0057,0.004 0.0019,2.3e-4 0.0036,2.3e-4 0.006,0 h 0.002 0.002 0.002 0.002 0.0019 0.002 v -0.002 h 0.002 0.002 v -0.002 h 0.002 0.002 v -0.002 h 0.002 v -0.002 h 0.002 v -0.002 h 0.0019 v -0.002 h 0.002 v -0.002 h 0.002 v -0.002 l 0.002,-0.002 v -0.002 h 0.0019 v -0.002 l 0.002,-0.002 v -0.002 l 0.002,-0.002 v -0.002 -0.002 h 0.002 v -0.002 -0.002 l 0.002,-0.002 v -0.002 -0.002 -0.002 l 0.002,-0.002 v -0.002 -0.002 -0.002 l 0.002,-0.002 v -0.002 -0.002 -0.002 -0.002 -0.002 -0.002 -0.002 -0.002 -0.002 -0.002 -0.002 -0.002 -0.002 -0.002 -0.002 -0.002 -0.002 -0.002 -0.002 -0.002 -0.002 -0.002 h 31.820311 v -2.11133 z m 35.792965,0 v 2.11133 h 28.70117 c 0.83005,-0.68931 1.64789,-1.3932 2.45313,-2.11133 z m -89.537107,0.28709 c 0.805236,0.71813 1.623077,1.42202 2.453125,2.11133 h 19.910155 v -2.11133 z m 24.410155,0.28906 v 2.10937 H 94.05973 v -2.10937 z m -19.177735,3.93164 c 0.940059,0.72218 1.894012,1.42609 2.861329,2.11133 h 14.269531 v -2.11133 z m 19.177735,0 v 2.11133 h 26.433596 v -2.11133 z m 64.523442,0 v 2.11133 h 23.32812 c 0.96797,-0.68522 1.92258,-1.38913 2.86328,-2.11133 z m -35.693364,0.14452 V 437.08 H 129.4445 v -2.11133 z m -28.830078,3.64454 v 2.11132 H 93.95817 v -2.11132 z m -13.023436,0.43164 c 1.134097,0.72901 2.28412,1.43296 3.449216,2.11132 h 7.527345 v -2.11132 z m 41.853514,0 v 2.11132 h 33.794924 v -2.11132 z m 35.792964,0 v 2.11132 h 16.48633 c 1.1651,-0.67836 2.31512,-1.38231 3.44922,-2.11132 z m -70.207026,4.2207 c 1.166945,0.58563 2.346252,1.1463 3.537109,1.68164 v -1.68164 z m 5.583984,0 v 2.11133 H 93.95817 v -2.11133 z m 29.031251,0 v 2.11133 h 33.593751 v -2.11133 z m 35.591791,0 v 2.11133 h 7.97657 c 1.52535,-0.66272 3.03242,-1.36676 4.51953,-2.11133 z m -60.468744,4.2207 c 2.135853,0.78392 4.300112,1.48818 6.488281,2.11133 H 93.95817 v -2.11133 z m 24.876953,0 v 2.11133 h 31.861331 c 0.57897,-0.14929 1.15647,-0.30425 1.73242,-0.46484 v -1.64649 z m 35.591791,0 v 0.96485 c 0.92499,-0.30694 1.84503,-0.62861 2.75977,-0.96485 z m -44.783198,4.22071 c 2.352359,0.41577 4.720044,0.73958 7.097658,0.9707 v -0.9707 z m 9.191407,0 v 1.19726 c 2.241596,0.16642 4.488561,0.25043 6.736331,0.25195 5.34128,-0.0189 10.67075,-0.5038 15.92773,-1.44922 z"
     sodipodi:nodetypes="ccccccccccccccccccccccccccccccccccccccccccccccccccccccccccccccccccccccccccccccccccccccccccccccccccccccccccccccccccccccccccccccccccccccccccccccccccccccccccccccccccccccccccccssccccccccccccccccccccccccccccccccccccccccccccccccccccccccccccccccccccccccccccccccccccccccccccccccccccccccccccccccccccccccccccccccccccccccccccccccccccccccccccccccccccccccccccccccccccccccccccccccccccccccccccccccccccccccccccccccccccccccccccccccccccccccccccccccccccccccccccccccccccccccccc" /><path
     id="path2637"
     style="display:inline;fill:#0a2124;fill-opacity:1;stroke:#fefefe;stroke-width:0;stroke-miterlimit:4;stroke-dasharray:none;stroke-opacity:1"
     inkscape:label="shadow"
     d="M 50.012665,267.96343 4.9740444,317.28985 15.082481,386.20916 153.61658,307.5562 l 19.35297,138.87949 36.9412,-92.43585 -50.68712,-93.35268 z"
     sodipodi:nodetypes="cccccccc" /><path
     style="color:#000000;display:inline;fill:#a2a2a2;fill-opacity:1;stroke-width:1.40036"
     d="m 105.23294,237.5864 c -62.133182,0.0162 -115.382956,47.09902 -121.779361,110.24748 -6.822858,67.35836 42.249505,127.49153 109.607739,134.31436 67.358262,6.82292 127.499242,-42.24952 134.322082,-109.60787 6.82286,-67.35835 -42.2574,-127.49152 -109.61563,-134.3144 -4.2099,-0.42642 -8.39263,-0.64064 -12.53483,-0.63957 z m 0.18557,37.37163 c 47.06853,-1.2e-4 85.22514,38.15654 85.22502,85.22515 1.2e-4,47.0686 -38.15649,85.22527 -85.22502,85.22515 -47.068551,1.2e-4 -85.225169,-38.15655 -85.225044,-85.22515 -1.25e-4,-47.06861 38.156493,-85.22527 85.225024,-85.22515 z"
     id="path9934"
     inkscape:label="black ring" /><path
     id="path11349"
     style="color:#000000;fill:#aed919;fill-opacity:1;stroke-width:1.00026"
     d="m 105.23577,236.22259 c -62.226343,0.0162 -115.643039,46.74697 -122.931646,109.67188 l -0.04297,0.37697 2.576172,1.46094 0.0957,-0.85547 c 6.8278827,-61.91005 59.216662,-107.91576 120.302744,-107.93166 4.09511,-10e-4 8.22916,0.20699 12.39453,0.62891 66.62648,6.74875 115.14327,66.20358 108.39453,132.83008 -1.45613,14.3756 -5.36516,27.90738 -11.27148,40.22265 l -0.0664,0.13282 0.37697,5.30859 0.92968,-1.82422 c 6.71866,-13.24079 11.15465,-27.91485 12.74022,-43.56836 6.89696,-68.08983 -42.7346,-128.90773 -110.82421,-135.80469 -4.25442,-0.43094 -8.48459,-0.64952 -12.67383,-0.64844 z m 0.18361,37.375 c -47.803855,-1.2e-4 -86.588039,38.784 -86.587912,86.5879 -1.27e-4,47.80388 38.784095,86.58215 86.587892,86.58203 47.80377,1.2e-4 86.58215,-38.77819 86.58203,-86.58203 1.2e-4,-47.80385 -38.77821,-86.58802 -86.58203,-86.5879 z m 0,2.72266 c 46.33311,-1.2e-4 83.85949,37.53199 83.85937,83.86524 1.2e-4,46.33324 -37.52621,83.85949 -83.85937,83.85937 -46.333214,1.2e-4 -83.865378,-37.52618 -83.865254,-83.85937 -1.24e-4,-46.3332 37.532108,-83.86536 83.865234,-83.86524 z m -123.527365,73.62695 -0.06641,0.88672 c -1.804463,23.69668 3.217742,46.41737 13.4355465,66.17774 l 0.9433595,1.81641 0.3320315,-5.31446 -0.066406,-0.13281 C -12.606315,394.8329 -17.0479,373.75768 -15.510329,351.79291 l 0.02344,-0.36132 z m 229.820315,68.61524 -0.92383,1.62305 c -14.44693,25.34269 -37.67847,44.70471 -65.14453,54.38281 l -1.54297,0.54688 4.14063,1.40234 0.18553,-0.0664 c 26.5279,-9.83918 49.04248,-28.56397 63.54298,-52.90625 l 0.0879,-0.15428 z m -212.15625279,0.73828 -0.11718803,1.86719 -0.18554835,2.98242 0.0898432,0.14842 C 16.296853,452.2996 44.115601,473.31795 77.612718,480.98432 l 0.257802,0.0586 2.849609,-2.16406 -1.19531,-0.26563 C 45.389248,471.19465 17.157273,449.65584 0.49357732,420.91791 Z m 139.05273279,57.51953 -0.16992,0.0449 c -14.28705,4.04624 -29.56159,5.51352 -45.236335,3.92578 -2.612194,-0.2646 -5.193154,-0.61659 -7.75,-1.04101 l -0.244158,-0.037 -2.960938,2.25195 1.271486,0.22851 c 3.091593,0.55149 6.228604,0.98497 9.404296,1.30664 16.821639,1.70392 33.199839,-0.0418 48.431639,-4.66406 l 1.69141,-0.51758 z"
     inkscape:label="outer ring red" /><path
     style="fill:#000000;fill-opacity:1;fill-rule:evenodd;stroke:#aed919;stroke-width:2.40063;stroke-linecap:round;stroke-linejoin:round;stroke-miterlimit:100.1;stroke-dasharray:none;stroke-opacity:1;paint-order:fill markers stroke"
     d="m 119.20608,326.45803 c 8.50408,8.39815 28.85031,18.41238 40.69246,20.02846 l -3.93591,-28.90226 c 3.48021,-7.06938 4.49187,-9.17848 1.34643,-10.8221 -0.17057,-0.0894 -2.80696,4.99365 -2.80696,4.99365 0,0 2.53077,-5.17523 2.33165,-5.27196 -0.40145,-0.19487 -0.84242,-0.40705 -1.32368,-0.64434 -0.86415,-0.42535 -2.03538,-1.02244 -2.67015,-1.32518 -0.0532,-0.0253 -2.7354,5.12556 -2.7354,5.12556 0,0 2.52733,-5.23578 2.47021,-5.26197 -3.25206,-1.49081 -4.54973,0.59253 -7.99871,7.59844 z"
     id="path6069"
     sodipodi:nodetypes="cccscssscscc"
     inkscape:label="lamp" /><path
     id="path11321"
     style="color:#000000;fill:#0a2124;fill-opacity:1;fill-rule:evenodd;stroke-width:1.00026;stroke-linecap:round;stroke-linejoin:round;stroke-miterlimit:100.1;paint-order:fill markers stroke"
     inkscape:label="red border bgr"
     d="m 149.30387,313.4765 -2.6914,3.62109 60.03193,44.67861 5.32564,61.76882 c 1.41886,-2.38187 2.7616,-4.81388 4.02344,-7.30078 -0.0216,0.0287 -4.2634,-57.67925 -4.2634,-57.67925 z m -166.999999,32.41797 c -0.06896,0.59536 -0.137578,1.19223 -0.199219,1.80078 -0.106097,1.04744 -0.199795,2.09464 -0.279297,3.13867 l 16.9257815,9.98047 -3.5507812,55.90234 c -0.00677,0.10197 0.014173,0.20387 0.060548,0.29492 1.2801679,2.4757 2.6411342,4.90731 4.08203113,7.2871 0.28803402,0.4644 1.00167384,0.29265 1.0468751,-0.25194 C -0.97258383,406.71419 4.4952954,357.6031 4.4952954,357.6031 Z M 104.4402,460.239 77.61245,480.98432 c 1.949034,0.44606 3.918788,0.85442 5.906249,1.20899 L 104.5187,466.43353 141.35465,478.836 c 2.38712,-0.72441 4.74458,-1.52143 7.07226,-2.38476 z"
     sodipodi:nodetypes="ccccccccsccccccccccccccc" /><path
     id="path9409"
     style="color:#000000;display:inline;fill:#aed919;fill-opacity:1;fill-rule:evenodd;stroke:#aed919;stroke-width:1.00026;stroke-linecap:round;stroke-linejoin:round;stroke-miterlimit:100.1;stroke-dasharray:none;stroke-opacity:1;paint-order:fill markers stroke"
     d="m 149.851,312.3808 c -2.24669,2e-5 -4.08203,1.83534 -4.08203,4.08203 0,2.24669 1.83533,4.08983 4.08203,4.08984 0.0336,0 0.068,-10e-4 0.10156,-0.002 l 55.23242,40.81446 c 0.1832,0.83761 0.6253,1.58043 1.23828,2.14062 l 4.34375,60.94336 c 0.48227,-0.78914 0.95875,-1.58163 1.42383,-2.38281 l -4.11327,-57.63868 c 0.35093,0.0987 0.72035,0.15039 1.10156,0.15039 0.64911,0 1.26443,-0.15371 1.81054,-0.42578 l 3.79493,53.19727 c 0.47716,-0.91196 0.94532,-1.82999 1.40039,-2.75586 l -3.69336,-51.7168 c 0.48455,-0.67117 0.77148,-1.49384 0.77148,-2.38086 0,-2.24669 -1.83729,-4.08204 -4.08398,-4.08203 -0.13251,0 -0.26321,0.007 -0.39258,0.0197 l -54.89453,-40.55677 c -0.2863,-1.97097 -1.99343,-3.4961 -4.04102,-3.49609 z m -0.0644,1.58789 c 0.0215,-5.4e-4 0.0427,0 0.0644,0 1.38881,0 2.49609,1.10532 2.49609,2.49414 0,1.38881 -1.10728,2.50391 -2.49609,2.50391 -1.3888,-1e-5 -2.49414,-1.11511 -2.49414,-2.50391 0,-1.3671 1.07148,-2.4603 2.42969,-2.49414 z m 3.94532,3.76172 53.23632,39.33984 c -0.83662,0.54136 -1.46247,1.37851 -1.73046,2.36133 L 151.8842,320.0058 c 0.86484,-0.50134 1.5313,-1.31087 1.84766,-2.27539 z M -17.035704,345.1347 c -0.06975,0.56919 -0.131232,1.14104 -0.19336,1.71289 l 16.37498499,9.28907 c -0.78812529,0.60202 -1.35336609,1.48397 -1.54296869,2.49414 L -17.53572,350.04291 c -0.04839,0.58395 -0.09273,1.16723 -0.132812,1.75 l 15.3593749,8.71484 c 0.1541594,0.53569 0.4163921,1.0268 0.7597656,1.44922 l -3.3964842,53.4043 c 0.4621485,0.9222 0.9353269,1.83667 1.4199216,2.74609 l 3.4941408,-54.98633 c 0.50443125,0.22485 1.0629472,0.34961 1.6484376,0.34961 0.4455949,0 0.8752131,-0.0713 1.2773438,-0.20508 l -3.78906255,59.5254 c 0.47115743,0.79862 0.95077948,1.59153 1.43945312,2.3789 L 4.5482647,362.22064 c 0.7112595,-0.73723 1.1503915,-1.7412 1.1503907,-2.83984 -1.5e-6,-2.2467 -1.8353246,-4.08204 -4.0820311,-4.08203 -0.2188989,0 -0.4347568,0.0193 -0.6445312,0.0527 z m 18.585922,11.75196 c 0.021543,-5.4e-4 0.044708,0 0.066406,0 1.3888123,-1e-5 2.4941397,1.10532 2.4941405,2.49414 7e-7,1.38882 -1.105327,2.50391 -2.4941405,2.50391 -1.3888022,-10e-6 -2.49609456,-1.11511 -2.4960938,-2.50391 1.13e-6,-1.36711 1.07147566,-2.4603 2.4296878,-2.49414 z m 207.564452,1.11523 c 0.0216,-5.4e-4 0.0428,0 0.0644,0 1.3888,-10e-6 2.49609,1.10534 2.49609,2.49414 0,1.38882 -1.10729,2.4961 -2.49609,2.4961 -1.3888,-2e-5 -2.50195,-1.10729 -2.50195,-2.4961 0,-1.36709 1.07907,-2.4603 2.4375,-2.49414 z M 104.77288,459.61517 c -0.17122,4.5e-4 -0.34549,0.0125 -0.51953,0.0352 -1.20241,0.15723 -2.21369,0.83235 -2.84766,1.76758 L 76.741624,480.1953 c 0.671705,0.15964 1.347122,0.31215 2.023438,0.46093 l 21.943358,-16.71289 c 0.006,0.0941 0.011,0.18841 0.0234,0.2832 0.12632,0.96583 0.58555,1.80989 1.2461,2.4336 l -19.404299,14.77343 c 0.705218,0.1321 1.413192,0.25671 2.123047,0.37697 l 18.732422,-14.26367 c 0.58568,0.20791 1.22518,0.2869 1.88086,0.20118 0.45251,-0.0592 0.87846,-0.19124 1.26758,-0.38281 l 33.29882,11.31445 c 0.87205,-0.25402 1.74092,-0.51626 2.60547,-0.78906 l -34.46289,-11.71094 c 0.59671,-0.77808 0.91761,-1.76848 0.83399,-2.80664 l 38.20117,12.97852 c 0.78592,-0.28241 1.56679,-0.57512 2.3457,-0.87305 l -41.19336,-13.99805 c -0.7413,-1.13834 -2.02582,-1.8689 -3.43359,-1.86523 z m -0.0567,1.58594 c 1.27163,-0.0389 2.37414,0.8789 2.54297,2.16992 0.18009,1.37709 -0.77136,2.62462 -2.14844,2.80469 -1.37706,0.18009 -2.62654,-0.77918 -2.80664,-2.15625 -0.18009,-1.37709 0.77916,-2.61678 2.15625,-2.79687 0.0861,-0.0113 0.1711,-0.0189 0.25588,-0.0215 z"
     inkscape:label="red structure" /><path
     id="path7189"
     style="font-size:11.2889px;line-height:1.35;font-family:'Politics Head';-inkscape-font-specification:'Politics Head';letter-spacing:-0.264583px;fill:#002225;stroke:#000000;stroke-width:0.433447"
     d="m 110.42887,243.50579 c -0.34938,0.0163 -0.58527,0.24491 -0.63085,0.625 l -3.04493,25.38087 c -0.0521,0.43436 0.18474,0.73501 0.61914,0.7871 l 4.38672,0.52539 c 0.43439,0.0521 0.73502,-0.18473 0.78711,-0.61914 l 1.01367,-8.45898 c 0.32504,-2.70974 0.38094,-5.6211 0.1914,-6.83984 l 0.16603,0.0215 c -0.01,0.0827 0.26064,0.97483 0.6504,1.92383 l 6.70312,14.7793 c 0.1358,0.26804 0.31313,0.37203 0.58204,0.40429 l 4.01172,0.48242 c 0.43438,0.0521 0.73697,-0.18473 0.78906,-0.61913 l 3.04297,-25.38086 c 0.0521,-0.4344 -0.18278,-0.73502 -0.61719,-0.78711 l -4.38674,-0.52734 c -0.43437,-0.0521 -0.735,0.18475 -0.78711,0.61914 l -1.01953,8.50195 c -0.28037,2.33741 -0.32821,5.70965 -0.11131,7.75 l -0.16599,-0.0195 c -0.0505,-0.2788 -0.47002,-1.50365 -0.86721,-2.39061 l -6.53515,-15.30468 c -0.1019,-0.20097 -0.29749,-0.32908 -0.56643,-0.36132 l -4.05469,-0.48634 c -0.0543,-0.007 -0.10631,-0.008 -0.15628,-0.006 z m -20.619136,1.62305 c -0.605378,0.005 -1.237387,0.0635 -1.894534,0.17578 l -10.597655,1.81055 c -0.431252,0.0737 -0.651799,0.38514 -0.578124,0.81641 l 4.269528,24.99218 c 0.07366,0.43125 0.385175,0.65178 0.816408,0.57813 l 4.353513,-0.74219 c 0.431256,-0.0737 0.653757,-0.38709 0.580082,-0.81836 l -1.515624,-8.87109 c -0.07366,-0.43125 0.146872,-0.74469 0.578124,-0.81836 l 3.552733,-0.60547 c 0.184819,-0.0316 0.363288,0.0215 0.480476,0.21288 l 5.654279,8.96876 c 0.141355,0.2083 0.302552,0.28586 0.46681,0.25781 l 4.96875,-0.84961 c 0.32859,-0.0562 0.46549,-0.24794 0.4375,-0.41211 -0.028,-0.1643 -0.1575,-0.41674 -0.41601,-0.81641 l -5.697276,-9.10937 c -0.08965,-0.15376 -0.151937,-0.26911 -0.179679,-0.4336 -0.02797,-0.16429 0.05397,-0.3046 0.238299,-0.46289 2.116056,-1.84094 2.858702,-4.167 2.371087,-7.02149 -0.742825,-4.34846 -3.651043,-6.88658 -7.888672,-6.85156 z m -0.341783,5.34961 c 1.3656,0.002 2.49495,0.83163 2.712889,2.10742 l 0.123023,0.71876 c 0.249071,1.45804 -0.856229,2.78847 -2.437485,3.05858 l -4.908208,0.8379 c -0.431256,0.0737 -0.742738,-0.14883 -0.816408,-0.58008 l -0.757815,-4.43555 c -0.07366,-0.43125 0.146873,-0.74274 0.578128,-0.8164 l 4.908201,-0.83985 c 0.202809,-0.0347 0.402576,-0.051 0.59766,-0.0508 z m -25.902346,1.00977 c -0.112554,-0.002 -0.231798,0.0257 -0.355464,0.084 l -14.738276,6.94336 c -0.395788,0.18644 -0.526284,0.54562 -0.339855,0.9414 l 10.804691,22.93751 c 0.186444,0.39579 0.547555,0.52433 0.943358,0.33789 l 14.73828,-6.94141 c 0.395788,-0.18645 0.524333,-0.54758 0.337889,-0.94336 l -1.660169,-3.52344 c -0.186428,-0.39579 -0.54562,-0.52628 -0.941408,-0.33984 l -9.460936,4.45703 c -0.395785,0.18644 -0.756919,0.0579 -0.943359,-0.33789 l -1.750001,-3.71289 c -0.186444,-0.39579 -0.05594,-0.75692 0.339856,-0.94336 l 7.765625,-3.6582 c 0.395788,-0.18644 0.524334,-0.54758 0.33789,-0.94336 l -1.660165,-3.52344 c -0.186429,-0.39579 -0.547575,-0.52628 -0.943359,-0.33984 l -7.763675,3.6582 c -0.395785,0.18644 -0.756922,0.0579 -0.943359,-0.33789 L 55.67301,261.7773 c -0.186444,-0.39579 -0.05594,-0.75496 0.339856,-0.94141 l 9.460936,-4.45703 c 0.395788,-0.18644 0.524337,-0.54758 0.33789,-0.94336 l -1.660162,-3.52344 c -0.128126,-0.27214 -0.338305,-0.41956 -0.585951,-0.42382 z m 85.447265,0.46874 c -0.17673,-9.8e-4 -0.33959,0.0656 -0.45899,0.21289 0,0 -17.09891,20.72801 -17.14257,20.77734 -0.0793,0.0794 -0.19162,0.23424 -0.23244,0.33007 -0.0817,0.19164 0.031,0.35403 0.31842,0.47651 l 4.73438,2.01758 c 0.19162,0.0817 0.36669,0.0421 0.50586,-0.12499 l 2.3457,-3.00781 c 0.1392,-0.16715 0.23237,-0.17377 0.53906,-0.043 l 7.37891,3.14453 c 0.28747,0.12253 0.36601,0.20183 0.34182,0.41796 l -0.54493,3.77539 c -0.0242,0.21619 0.0704,0.36911 0.28124,0.45899 l 4.75195,2.02734 c 0.28747,0.12254 0.46326,0.0823 0.54492,-0.10938 0.0246,-0.0575 0.0401,-0.0953 0.0508,-0.22658 l 3.16016,-26.91602 c 0.0378,-0.30098 -0.15398,-0.54151 -0.4414,-0.66407 l -5.80856,-2.47462 c -0.10779,-0.0459 -0.21819,-0.0717 -0.32424,-0.0723 z m 0.0801,7.7129 0.67188,0.28515 -0.24023,0.82813 -1.32422,9.21874 c -0.0487,0.27366 -0.22923,0.37749 -0.57422,0.23047 l -4.50394,-1.91992 c -0.34499,-0.14701 -0.37462,-0.33979 -0.21093,-0.56445 l 5.75196,-7.33203 z m 24.21094,4.93554 c -0.19559,-0.003 -0.3846,0.0913 -0.54101,0.28127 l -16.24612,19.73632 c -0.27802,0.33782 -0.24015,0.72002 0.0977,0.99805 l 3.40821,2.80664 c 0.33781,0.27802 0.72001,0.24015 0.99804,-0.0977 l 5.41407,-6.57813 c 1.73441,-2.10717 3.35035,-4.5295 3.84765,-5.6582 l 0.12892,0.10742 c -0.053,0.0642 -0.30697,0.96128 -0.49023,1.9707 l -2.31836,16.0625 c -0.0302,0.29893 0.0604,0.48217 0.26952,0.6543 l 3.12109,2.56836 c 0.33782,0.27802 0.72002,0.24015 0.99805,-0.0977 l 16.24414,-19.73632 c 0.27802,-0.33781 0.24208,-0.71806 -0.0957,-0.9961 l -3.41017,-2.80663 c -0.33782,-0.27803 -0.72002,-0.24209 -0.99805,0.0957 l -5.44141,6.61133 c -1.49609,1.81763 -3.35434,4.63328 -4.27148,6.46875 l -0.12892,-0.10742 c 0.10775,-0.26207 0.41505,-1.5193 0.55859,-2.48047 l 2.74414,-16.41405 c 0.0227,-0.22422 -0.0721,-0.43725 -0.28123,-0.60937 l -3.15236,-2.59571 c -0.14778,-0.12165 -0.30297,-0.18137 -0.45506,-0.1836 z m -135.58594,0.11328 c -0.09524,0.0127 -0.203338,0.0705 -0.32228,0.17187 l -4.013669,3.41797 c -0.158589,0.1351 -0.200807,0.30869 -0.113273,0.5078 l 8.248048,17.35938 0.50005,0.74997 -0.539066,0.45898 -0.660151,-0.61328 -15.84375,-10.88867 c -0.182664,-0.11808 -0.360718,-0.10175 -0.535154,0.0469 l -3.916082,3.33599 c -0.237884,0.20266 -0.281613,0.37659 -0.146495,0.53516 0.04055,0.0476 0.123326,0.11437 0.179679,0.14842 l 22.759767,14.76562 c 0.252586,0.16796 0.553138,0.10307 0.791014,-0.0996 l 4.773437,-4.0664 c 0.237884,-0.20266 0.350325,-0.48956 0.224618,-0.76563 L 38.141774,265.15813 c -0.06297,-0.13796 -0.125443,-0.27652 -0.179641,-0.33987 -0.0675,-0.0793 -0.148876,-0.11233 -0.24412,-0.0996 z m 158.77148,25.60743 c -1.43589,0.006 -2.88668,0.50548 -4.2871,1.46093 l -10.37696,7.08008 c -3.88935,2.65356 -4.70952,6.44185 -1.39843,11.29492 l 1.67774,2.46094 c 2.37175,3.47632 5.65865,4.96793 9.0039,3.8457 0.43185,-0.14332 0.6565,-0.29673 0.75976,-0.36718 0.15492,-0.10568 0.23225,-0.28558 0.16014,-0.53906 l -1,-3.90625 c -0.0242,-0.10949 -0.0663,-0.20889 -0.12499,-0.29492 -0.14079,-0.20659 -0.44294,-0.35372 -0.75977,-0.26366 -1.52088,0.43236 -2.65239,-0.006 -3.63867,-1.45117 l -1.6914,-2.47852 c -0.92757,-1.35955 -0.5451,-2.90641 0.81445,-3.83399 l 9.34571,-6.37499 c 1.2735,-0.86887 2.92787,-0.73614 3.86719,0.64062 l 1.68944,2.47852 c 0.98628,1.4456 0.98349,2.73271 0.0253,3.91601 -0.19945,0.26219 -0.17216,0.59818 -0.0314,0.80469 0.0587,0.086 0.13357,0.15999 0.22658,0.22265 l 3.27343,2.35742 c 0.20973,0.15954 0.40569,0.15062 0.56055,0.0449 0.10318,-0.0705 0.15432,-0.1053 0.44533,-0.45506 2.26503,-2.70549 2.2487,-6.42567 -0.11131,-9.88477 l -1.69126,-2.47855 c -1.99604,-2.92561 -4.34512,-4.2895 -6.73828,-4.2793 z m -182.160178,0.65625 c -2.361843,-0.008 -4.614592,1.40185 -6.6425773,4.46289 l -1.6445299,2.48242 c -3.1297184,4.72398 -2.1986654,8.79003 1.5527335,11.27539 l 10.4726577,6.9375 c 3.92507,2.60042 7.74155,1.93086 10.986327,-2.9668 l 1.646483,-2.48242 c 3.129718,-4.72398 2.216028,-8.77852 -1.552732,-11.27539 l -10.472659,-6.9375 c -1.471902,-0.97516 -2.928596,-1.49117 -4.345703,-1.49609 z m -0.07031,6.16015 c 0.566471,-0.007 1.157452,0.17367 1.714844,0.54297 l 9.431643,6.24805 c 1.302565,0.86297 1.78574,2.43286 0.865232,3.82226 l -1.644529,2.48438 c -0.908999,1.37204 -2.487341,1.60236 -3.859374,0.69336 l -9.42969,-6.24805 c -1.285201,-0.85147 -1.7857443,-2.43285 -0.865235,-3.82226 l 1.644532,-2.48438 c 0.539718,-0.81465 1.314663,-1.2263 2.142577,-1.23633 z m 200.074218,18.62891 c -0.0927,-0.002 -0.19159,0.0132 -0.29492,0.0488 l -23.95898,8.29297 c -0.41344,0.14309 -0.5806,0.48891 -0.4375,0.90234 l 5.32812,15.39453 c 0.1431,0.41344 0.48693,0.58062 0.9004,0.4375 l 3.68163,-1.27344 c 0.41345,-0.14309 0.5806,-0.48891 0.4375,-0.90234 l -3.41992,-9.88282 c -0.14309,-0.41344 0.0242,-0.75728 0.4375,-0.90039 l 3.87891,-1.34179 c 0.41344,-0.1431 0.75729,0.0242 0.90039,0.4375 l 2.80859,8.11132 c 0.1431,0.41344 0.48694,0.58062 0.90039,0.4375 l 3.68165,-1.27539 c 0.41344,-0.14309 0.58061,-0.48693 0.43749,-0.90038 l -2.80664,-8.11133 c -0.1431,-0.41344 0.0242,-0.75729 0.4375,-0.90039 l 3.68164,-1.27539 c 0.41344,-0.1431 0.75729,0.0242 0.90039,0.4375 l 3.41992,9.88476 c 0.14309,0.41344 0.48891,0.5806 0.90235,0.4375 l 3.68163,-1.27539 c 0.41345,-0.14309 0.58062,-0.48693 0.43751,-0.90039 l -5.33008,-15.39648 c -0.10734,-0.31008 -0.32738,-0.48029 -0.60547,-0.48633 z M 0.36441914,318.83587 c -3.37406744,0.0563 -6.07096634,2.40011 -7.27148604,6.25391 l -0.9160139,2.94336 c -1.6791749,5.39034 0.3224164,9.048 4.638669,10.39257 l 11.99414,3.73634 c 4.4753798,1.39414 7.9794808,-0.32886 9.7207148,-5.91796 l 0.886716,-2.8457 c 1.68537,-5.41024 -0.32437,-9.04606 -4.640626,-10.39063 l -6.7226536,-2.0957 c -0.417707,-0.13013 -0.7565919,0.0491 -0.8867286,0.46678 l -2.4726535,7.93555 c -0.130114,0.4177 0.049073,0.75661 0.4667841,0.88672 l 3.082029,0.96094 c 0.4177066,0.13013 0.7566074,-0.0471 0.8867241,-0.46483 l 0.7988296,-2.56641 c 0.1301139,-0.41771 0.4709829,-0.5969 0.8886829,-0.46678 l 1.689453,0.52734 c 1.491791,0.46472 2.39607,1.8365 1.900386,3.42774 l -0.949219,3.04492 c -0.489501,1.57136 -1.938408,2.23169 -3.5097582,1.7422 L -0.85237369,333.041 C -2.324271,332.58247 -3.2484763,331.20452 -2.7527576,329.61326 l 0.917966,-2.94335 c 0.5204837,-1.67082 1.45215347,-2.4926 2.9746103,-2.47657 0.3293556,-0.006 0.5760393,-0.23592 0.6503917,-0.47461 0,0 0.041998,-0.20651 0.033222,-0.31835 l -0.1855445,-4.02734 c -0.00522,-0.26347 -0.1333758,-0.41305 -0.312412,-0.46881 -0.1192705,-0.037 -0.1779402,-0.0556 -0.63281008,-0.0664 -0.11022614,-0.003 -0.21929575,-0.004 -0.32811213,-0.002 z"
     inkscape:label="Governance" /></g><path
   d="m 420.945,147.41839 v 20.19516 c 0,5.57387 -4.52528,10.09758 -10.09593,10.09758 h -94.43044 c -5.57065,0 -10.09594,-4.52371 -10.09594,-10.09758 v -20.19516 c 0,-5.57386 4.52529,-10.09757 10.09594,-10.09757 h 94.43044 c 5.57065,0 10.09593,4.52371 10.09593,10.09757 z"
   style="fill:#a2a2a2;fill-opacity:1;stroke-width:3.77426"
   id="path655" /><g
   transform="translate(-182.58834,-21.484122)"
   id="g659">
            <text
   x="506.448"
   y="182.60001"
   style="font-size:18px;font-family:PTMono-Regular, 'PT Mono', monospace;fill:#ffffff"
   id="text657">#a2a2a2</text>
        </g></svg>
