<?xml version="1.0" encoding="UTF-8" standalone="no"?>
<!DOCTYPE svg PUBLIC "-//W3C//DTD SVG 1.1//EN" "http://www.w3.org/Graphics/SVG/1.1/DTD/svg11.dtd">
<svg width="100%" height="100%" viewBox="0 0 842 596" version="1.1" xmlns="http://www.w3.org/2000/svg" xmlns:xlink="http://www.w3.org/1999/xlink" xml:space="preserve" xmlns:serif="http://www.serif.com/" style="fill-rule:evenodd;clip-rule:evenodd;">
    <g id="Layer-1" serif:id="Layer 1" transform="matrix(1.30791,0,0,1.30791,269.442693,106.042924)">
        <g id="g103666" transform="matrix(1.295984,0,0,1.295984,-899.53246,-1455.372253)">
            <path id="path5802-1-3-3" d="M661.86,1103.871L661.971,1103.871C707.791,1103.871 744.935,1141.015 744.934,1186.834C744.935,1212.834 732.747,1237.329 712.009,1253.01L715.126,1259.09L711.94,1266.672L706.85,1269.487L698.516,1267.489L695.79,1262.592C685.148,1267.342 673.625,1269.797 661.971,1269.797C648.688,1269.798 635.6,1266.609 623.805,1260.498L604.962,1269.737L596.655,1269.737L589.276,1261.586L589.204,1251.67L600.796,1242.877C586.781,1227.578 579.007,1207.582 579.009,1186.834C579.008,1141.059 616.084,1103.933 661.86,1103.871Z" style="fill:white;fill-rule:nonzero;stroke:rgb(190,0,0);stroke-width:2.59px;"/>
            <path id="path5802-1-3-36" d="M662.132,1066.125C600.655,1066.141 547.968,1112.726 541.639,1175.207C534.889,1241.854 583.442,1301.351 650.089,1308.102C716.735,1314.853 776.24,1266.299 782.991,1199.653C789.742,1133.006 741.18,1073.509 674.534,1066.758C670.369,1066.336 666.23,1066.124 662.132,1066.125ZM661.86,1103.871C661.897,1103.871 661.972,1103.871 661.972,1103.871C707.484,1103.871 744.934,1141.322 744.934,1186.834C744.934,1186.834 744.934,1186.834 744.934,1186.834C744.935,1212.814 732.731,1237.341 712.009,1253.01L715.126,1259.09L711.94,1266.672L706.85,1269.487L698.516,1267.489L695.79,1262.592C685.149,1267.342 673.625,1269.797 661.971,1269.797C648.689,1269.798 635.599,1266.608 623.805,1260.498L604.962,1269.737L596.655,1269.737L589.276,1261.586L589.204,1251.67L600.796,1242.877C586.786,1227.584 579.009,1207.579 579.009,1186.838C579.008,1141.368 616.39,1103.936 661.86,1103.875L661.86,1103.871Z" style="fill:rgb(255,143,48);fill-rule:nonzero;stroke:rgb(190,0,0);stroke-width:2.59px;"/>
            <g id="path1942-5-7" transform="matrix(-0.994739,-0.102442,0.102442,-0.994739,0,0)">
                <circle cx="-780.237" cy="-1113.211" r="90.704" style="fill:none;"/>
            </g>
            <path id="path1824-5" d="M556.198,1143.812C550.656,1157.529 547.807,1172.185 547.807,1186.979C547.807,1233.855 576.411,1276.261 619.873,1293.822C633.59,1299.363 648.246,1302.212 663.04,1302.212C709.916,1302.212 752.323,1273.609 769.883,1230.146C793.563,1171.534 764.819,1103.818 706.207,1080.137C692.491,1074.595 677.834,1071.746 663.04,1071.746C616.164,1071.746 573.758,1100.349 556.198,1143.812Z" style="fill:none;fill-rule:nonzero;"/>
            <path id="text1875-5-3" d="M565.424,1168.408C565.359,1168.706 565.209,1168.76 565.005,1168.664L558.274,1165.197L557.613,1164.967L557.739,1164.388L558.435,1164.452L565.994,1164.098C566.219,1164.098 566.33,1164.222 566.266,1164.52L565.424,1168.408ZM570.757,1164.177C570.81,1163.928 570.861,1163.853 571.038,1163.839L574.134,1163.696C574.31,1163.682 574.418,1163.584 574.458,1163.402L575.346,1159.299C575.4,1159.051 575.342,1158.918 575.177,1158.882C575.127,1158.871 575.094,1158.864 574.988,1158.872L553.026,1160.472C552.781,1160.488 552.618,1160.678 552.564,1160.926L551.479,1165.938C551.425,1166.187 551.494,1166.427 551.711,1166.543C551.711,1166.543 570.868,1177.014 570.914,1177.041C570.99,1177.092 571.131,1177.157 571.214,1177.175C571.379,1177.211 571.491,1177.096 571.545,1176.848L572.43,1172.762C572.465,1172.597 572.408,1172.463 572.253,1172.378L569.493,1170.966C569.339,1170.881 569.32,1170.807 569.377,1170.542L570.757,1164.177ZM579.886,1149.739L580.921,1147.551C582.89,1143.389 581.685,1140.235 578.365,1138.665L564.287,1132.006C563.966,1131.854 563.673,1131.959 563.521,1132.28L561.987,1135.524C561.835,1135.846 561.939,1136.139 562.261,1136.291L575.879,1142.732C577.02,1143.29 577.598,1144.482 577.019,1145.706L575.984,1147.894C575.413,1149.103 574.171,1149.471 572.962,1148.899L559.344,1142.457C559.023,1142.305 558.73,1142.41 558.578,1142.731L557.043,1145.975C556.891,1146.297 556.996,1146.59 557.317,1146.742L571.395,1153.4C574.838,1155.029 577.845,1154.055 579.886,1149.739ZM586.783,1136.197L592.403,1129.204C595.298,1125.602 594.896,1122.022 591.716,1119.466L585.106,1114.154C581.926,1111.599 578.354,1111.963 575.448,1115.579L569.828,1122.572C569.606,1122.849 569.639,1123.158 569.916,1123.381L585.974,1136.285C586.251,1136.508 586.56,1136.474 586.783,1136.197L586.783,1136.197ZM586.388,1129.799C586.165,1130.076 585.855,1130.11 585.578,1129.887L576.25,1122.39C575.973,1122.167 575.939,1121.858 576.162,1121.581L578.845,1118.243C579.682,1117.2 581.055,1116.979 582.176,1117.88L588.747,1123.161C589.869,1124.062 589.908,1125.418 589.07,1126.461L586.388,1129.799ZM600.897,1120.309L603.594,1117.941C603.861,1117.707 603.881,1117.396 603.647,1117.129L589.943,1101.522C589.708,1101.255 589.398,1101.235 589.131,1101.469L586.434,1103.837C586.167,1104.071 586.147,1104.382 586.381,1104.649L600.085,1120.256C600.32,1120.523 600.63,1120.543 600.897,1120.309ZM616.002,1109.547C619.93,1107.146 620.652,1103.848 618.737,1100.714L613.414,1092.004C611.419,1088.74 608.379,1087.92 604.306,1090.409L602.24,1091.672C598.312,1094.072 597.599,1097.385 599.505,1100.505L604.828,1109.214C606.823,1112.478 609.863,1113.298 613.936,1110.809L616.002,1109.547ZM613.751,1105.864L611.685,1107.126C610.544,1107.823 609.305,1107.45 608.607,1106.309L603.814,1098.466C603.161,1097.398 603.336,1096.061 604.491,1095.355L606.557,1094.092C607.698,1093.395 608.938,1093.768 609.635,1094.909L614.428,1102.752C615.09,1103.835 614.906,1105.158 613.751,1105.864ZM629.674,1079.598C629.583,1079.446 629.447,1079.394 629.267,1079.441L625.218,1080.486C624.972,1080.549 624.879,1080.66 624.921,1080.824C624.934,1080.873 624.971,1080.951 625.001,1080.996L636.377,1099.877C636.502,1100.09 636.744,1100.15 636.99,1100.086L641.924,1098.813C642.17,1098.75 642.353,1098.58 642.359,1098.333L643.108,1076.445C643.111,1076.322 643.114,1076.199 643.098,1076.133C643.055,1075.969 642.903,1075.921 642.657,1075.984L638.511,1077.055C638.347,1077.097 638.253,1077.209 638.246,1077.385L638.098,1093L638.198,1093.726L637.641,1093.869L637.377,1093.186L629.674,1079.598ZM652.545,1097.066L656.12,1096.759C656.475,1096.729 656.675,1096.49 656.645,1096.136L654.868,1075.443C654.837,1075.088 654.599,1074.888 654.245,1074.918L650.67,1075.225C650.316,1075.255 650.115,1075.494 650.146,1075.848L651.922,1096.541C651.953,1096.896 652.191,1097.096 652.545,1097.066ZM662.704,1096.284L671.641,1097.069C676.244,1097.473 678.997,1095.149 679.354,1091.086L680.096,1082.638C680.453,1078.574 678.165,1075.807 673.544,1075.401L664.607,1074.616C664.253,1074.585 664.015,1074.785 663.984,1075.139L662.181,1095.66C662.15,1096.014 662.35,1096.253 662.704,1096.284ZM667.803,1092.399C667.449,1092.368 667.249,1092.129 667.28,1091.775L668.327,1079.854C668.358,1079.499 668.597,1079.3 668.951,1079.331L673.217,1079.706C674.549,1079.822 675.496,1080.84 675.37,1082.274L674.633,1090.671C674.507,1092.104 673.401,1092.891 672.069,1092.774L667.803,1092.399ZM696.418,1103.038C696.757,1103.146 697.033,1103.004 697.142,1102.665L698.109,1099.651C698.217,1099.313 698.075,1099.036 697.736,1098.927L689.645,1096.332C689.307,1096.224 689.164,1095.947 689.273,1095.608L690.291,1092.433C690.4,1092.095 690.676,1091.952 691.015,1092.061L697.656,1094.191C697.994,1094.299 698.271,1094.157 698.379,1093.818L699.346,1090.804C699.455,1090.466 699.312,1090.189 698.974,1090.081L692.333,1087.951C691.995,1087.842 691.852,1087.565 691.961,1087.227L692.928,1084.213C693.036,1083.874 693.313,1083.732 693.651,1083.841L701.743,1086.436C702.081,1086.544 702.358,1086.402 702.467,1086.063L703.433,1083.049C703.542,1082.711 703.399,1082.434 703.061,1082.325L690.456,1078.283C690.118,1078.174 689.841,1078.317 689.733,1078.655L683.441,1098.271C683.333,1098.61 683.475,1098.886 683.814,1098.995L696.418,1103.038ZM708.957,1110.011C712.926,1112.345 716.175,1111.429 718.038,1108.263L723.213,1099.466C725.153,1096.168 724.444,1093.1 720.33,1090.68L718.244,1089.452C714.275,1087.118 711.018,1088.049 709.164,1091.2L703.988,1099.997C702.048,1103.295 702.757,1106.363 706.871,1108.783L708.957,1110.011ZM711.146,1106.29L709.06,1105.063C707.907,1104.385 707.652,1103.116 708.33,1101.963L712.991,1094.041C713.626,1092.961 714.888,1092.486 716.055,1093.173L718.141,1094.4C719.294,1095.078 719.549,1096.347 718.871,1097.5L714.21,1105.422C713.566,1106.516 712.313,1106.977 711.146,1106.29ZM740.35,1113.807L742.322,1108.563C742.389,1108.362 742.336,1108.18 742.141,1107.969L739.172,1104.767C739.057,1104.642 738.865,1104.635 738.766,1104.728C738.691,1104.797 738.641,1104.867 738.627,1104.926L735.205,1115.576C735.177,1115.671 735.138,1115.754 735.051,1115.834C734.989,1115.891 734.903,1115.948 734.77,1115.979L723.078,1118.854C722.982,1118.874 722.884,1118.919 722.822,1118.976C722.686,1119.103 722.704,1119.247 722.888,1119.446L725.857,1122.649C726.111,1122.922 726.349,1122.955 726.603,1122.88L729.848,1121.973C731.724,1121.457 733.295,1120.762 734.003,1120.107L734.072,1120.181C733.813,1120.698 733.284,1121.995 733.087,1122.455L731.045,1127.672C730.94,1127.907 730.944,1128.135 731.197,1128.408L734.212,1131.661C734.373,1131.834 734.561,1131.913 734.698,1131.787C734.76,1131.729 734.786,1131.682 734.814,1131.564L738.276,1120.807C738.305,1120.688 738.321,1120.581 738.408,1120.501C738.495,1120.42 738.591,1120.4 738.688,1120.379L750.259,1117.524C750.308,1117.502 750.393,1117.445 750.456,1117.388C750.555,1117.296 750.598,1117.094 750.472,1116.957L747.353,1113.593C747.192,1113.419 747.005,1113.316 746.786,1113.38L743.567,1114.264C741.214,1115.037 740.231,1115.371 739.308,1116.342L739.239,1116.268C739.498,1115.751 740.153,1114.267 740.35,1113.807L740.35,1113.807ZM736.994,1135.53L738.772,1138.647C738.948,1138.956 739.248,1139.038 739.557,1138.862L746.423,1134.944C746.732,1134.768 747.032,1134.85 747.208,1135.159L750.27,1140.525C750.446,1140.833 750.364,1141.134 750.056,1141.31L743.19,1145.228C742.881,1145.404 742.799,1145.704 742.975,1146.013L744.754,1149.13C744.93,1149.438 745.23,1149.52 745.539,1149.344L763.578,1139.051C763.887,1138.875 763.969,1138.574 763.793,1138.265L762.014,1135.149C761.838,1134.84 761.538,1134.758 761.229,1134.934L754.804,1138.6C754.496,1138.776 754.195,1138.694 754.019,1138.385L750.957,1133.019C750.781,1132.711 750.863,1132.41 751.172,1132.234L757.596,1128.568C757.905,1128.392 757.987,1128.092 757.811,1127.783L756.033,1124.666C755.856,1124.357 755.556,1124.275 755.247,1124.452L737.208,1134.745C736.899,1134.921 736.817,1135.221 736.994,1135.53ZM756.017,1157.631C755.932,1157.338 756.038,1157.219 756.263,1157.206L763.833,1157.032L764.523,1156.917L764.689,1157.486L764.047,1157.762L757.578,1161.689C757.381,1161.8 757.223,1161.74 757.137,1161.448L756.017,1157.631ZM753.357,1163.897C753.429,1164.141 753.42,1164.232 753.272,1164.328L750.621,1165.935C750.473,1166.031 750.425,1166.169 750.478,1166.347L751.659,1170.376C751.731,1170.619 751.845,1170.709 752.008,1170.661C752.056,1170.647 752.089,1170.637 752.177,1170.576L770.699,1158.669C770.907,1158.537 770.959,1158.293 770.888,1158.049L769.444,1153.127C769.372,1152.884 769.197,1152.706 768.95,1152.708C768.95,1152.708 747.119,1152.674 747.065,1152.672C746.975,1152.662 746.819,1152.672 746.738,1152.698C746.575,1152.746 746.532,1152.899 746.604,1153.143L747.781,1157.155C747.828,1157.317 747.943,1157.407 748.12,1157.408L751.218,1157.328C751.395,1157.328 751.447,1157.384 751.523,1157.645L753.357,1163.897ZM751.946,1174.76L752.371,1178.324C752.413,1178.677 752.658,1178.869 753.011,1178.827L773.634,1176.367C773.987,1176.325 774.18,1176.081 774.138,1175.728L773.713,1172.164C773.671,1171.811 773.426,1171.619 773.073,1171.661L752.45,1174.121C752.097,1174.163 751.904,1174.407 751.946,1174.76ZM753.081,1184.888L752.876,1188.471C752.856,1188.826 753.063,1189.058 753.418,1189.078L760.33,1189.472C762.544,1189.598 764.907,1189.495 765.885,1189.28L765.877,1189.415C765.81,1189.415 765.1,1189.676 764.35,1190.04L752.706,1196.227C752.495,1196.35 752.419,1196.498 752.406,1196.718L752.22,1199.997C752.199,1200.352 752.407,1200.584 752.761,1200.604L773.497,1201.785C773.852,1201.805 774.085,1201.598 774.105,1201.243L774.309,1197.661C774.329,1197.306 774.122,1197.074 773.767,1197.053L766.821,1196.658C764.912,1196.549 762.174,1196.682 760.531,1196.961L760.539,1196.825C760.762,1196.77 761.735,1196.368 762.434,1196.001L774.512,1189.924C774.67,1189.831 774.764,1189.667 774.777,1189.447L774.966,1186.135C774.986,1185.78 774.779,1185.548 774.424,1185.528L753.688,1184.347C753.333,1184.327 753.101,1184.534 753.081,1184.888L753.081,1184.888Z" style="fill:white;fill-rule:nonzero;"/>
            <g id="path1942-2-2-6" transform="matrix(-0.358368,0.93358,0.93358,0.358368,0,0)">
                <circle cx="871.359" cy="1043.398" r="111.031" style="fill:none;"/>
            </g>
            <circle id="path10316" cx="643.752" cy="1230.173" r="12.513" style="fill:rgb(232,107,0);stroke:rgb(232,107,0);stroke-width:1.79px;stroke-linecap:round;stroke-linejoin:round;"/>
            <path id="path10318" d="M627.47,1231.715C627.641,1236.343 629.441,1238.228 631.155,1240.285C633.068,1242.662 636.449,1244.329 639.382,1245.427C639.382,1245.427 604.846,1263.08 601.589,1263.594C598.333,1264.109 594.39,1260.509 593.876,1257.767C593.362,1255.025 627.47,1231.715 627.47,1231.715Z" style="fill:rgb(232,107,0);fill-rule:nonzero;stroke:rgb(232,107,0);stroke-width:2.59px;stroke-linecap:round;stroke-linejoin:round;"/>
            <path id="path10322" d="M636.125,1217.746C636.931,1223.711 638.824,1228.773 642.467,1232.229C645.123,1234.886 652.579,1241.142 653.436,1241.399" style="fill:none;fill-rule:nonzero;stroke:white;stroke-width:2.59px;stroke-linecap:round;stroke-linejoin:round;"/>
            <g id="g1893" transform="matrix(1,0,0,1,532.15701,274.19888)">
                <path id="path10330" d="M86.594,878.841L86.55,932.54L119.98,914.309L119.978,896.438L86.594,878.841Z" style="fill:none;fill-rule:nonzero;stroke:rgb(255,177,38);stroke-width:8.29px;stroke-linecap:round;stroke-linejoin:round;"/>
                <g id="path10334" transform="matrix(0.999893,0.014624,-0.014624,0.999893,0,0)">
                    <circle cx="186.137" cy="866.311" r="11.824" style="fill:none;stroke:rgb(255,177,38);stroke-width:8.29px;stroke-linecap:round;stroke-linejoin:round;"/>
                </g>
                <g id="path10336" transform="matrix(0.999893,0.014624,-0.014624,0.999893,0,0)">
                    <circle cx="152.556" cy="859.231" r="19.918" style="fill:none;stroke:rgb(255,177,38);stroke-width:8.29px;stroke-linecap:round;stroke-linejoin:round;"/>
                </g>
                <rect id="rect1686" x="120.04" y="883.771" width="69.673" height="41.591" style="fill:none;stroke:rgb(255,177,38);stroke-width:8.29px;stroke-linecap:round;stroke-linejoin:round;"/>
            </g>
            <path id="path1702" d="M697.921,1207.537L667.736,1260.461M676.647,1207.824L704.887,1259.733" style="fill:none;fill-rule:nonzero;stroke:rgb(201,139,86);stroke-width:8.29px;stroke-linecap:round;stroke-linejoin:round;"/>
            <circle id="path7538-9-26-6-4-6-0-6" cx="721.633" cy="1158.123" r="3.888" style="fill:rgb(190,0,0);"/>
            <circle id="path7538-9-26-6-4-6-0-6-3" cx="721.626" cy="1199.42" r="3.888" style="fill:rgb(190,0,0);"/>
            <circle id="path7538-9-26-6-4-6-0-6-2" cx="652.405" cy="1199.389" r="3.888" style="fill:rgb(190,0,0);"/>
            <circle id="path7538-9-26-6-4-6-0-6-27" cx="652.474" cy="1158.15" r="3.888" style="fill:rgb(190,0,0);"/>
            <circle id="path7538-9-26-6-4-6-0-6-36" cx="618.928" cy="1153.276" r="3.888" style="fill:rgb(190,0,0);"/>
            <circle id="path7538-9-26-6-4-6-0-6-6" cx="618.85" cy="1206.572" r="3.888" style="fill:rgb(190,0,0);"/>
            <circle id="path7538-9-26-6-4-6-0-6-7" cx="704.876" cy="1259.73" r="3.888" style="fill:rgb(190,0,0);"/>
            <circle id="path7538-9-26-6-4-6-0-6-23" cx="667.764" cy="1260.493" r="3.888" style="fill:rgb(190,0,0);"/>
            <circle id="path7538-9-26-6-4-6-0-6-22" cx="697.908" cy="1207.53" r="3.888" style="fill:rgb(190,0,0);"/>
            <circle id="path7538-9-26-6-4-6-0-6-361" cx="676.652" cy="1207.788" r="3.888" style="fill:rgb(190,0,0);"/>
            <circle id="path7614-7-64-1-47-56-7-7" cx="721.633" cy="1158.123" r="2.592" style="fill:white;"/>
            <circle id="path7614-7-64-1-47-56-7-7-5" cx="721.626" cy="1199.42" r="2.592" style="fill:white;"/>
            <circle id="path7614-7-64-1-47-56-7-7-9" cx="652.405" cy="1199.389" r="2.592" style="fill:white;"/>
            <circle id="path7614-7-64-1-47-56-7-7-0" cx="652.474" cy="1158.15" r="2.592" style="fill:white;"/>
            <circle id="path7614-7-64-1-47-56-7-7-06" cx="618.928" cy="1153.276" r="2.592" style="fill:white;"/>
            <circle id="path7614-7-64-1-47-56-7-7-1" cx="618.85" cy="1206.572" r="2.592" style="fill:white;"/>
            <circle id="path7614-7-64-1-47-56-7-7-92" cx="704.876" cy="1259.73" r="2.592" style="fill:white;"/>
            <circle id="path7614-7-64-1-47-56-7-7-7" cx="667.764" cy="1260.493" r="2.592" style="fill:white;"/>
            <circle id="path7614-7-64-1-47-56-7-7-8" cx="697.908" cy="1207.53" r="2.592" style="fill:white;"/>
            <circle id="path7614-7-64-1-47-56-7-7-2" cx="676.652" cy="1207.788" r="2.592" style="fill:white;"/>
            <g id="g2253" transform="matrix(1,0,0,1,517.70014,268.85667)">
                <circle id="path7538-9-26-6-4-6-0-6-0" cx="173.264" cy="882.893" r="3.888" style="fill:rgb(190,0,0);"/>
                <circle id="path7614-7-64-1-47-56-7-7-3" cx="173.264" cy="882.893" r="2.592" style="fill:white;"/>
            </g>
            <g id="text1950-9" transform="matrix(1,0,0,1,532.15701,274.19888)">
                <path d="M85.96,1010.348C85.575,1010.178 85.543,1009.959 85.731,1009.709L92.312,1001.548L92.808,1000.717L93.558,1001.049L93.277,1001.975L91.647,1012.325C91.588,1012.632 91.384,1012.747 90.998,1012.576L85.96,1010.348ZM90.21,1018.762C90.531,1018.905 90.619,1018.995 90.589,1019.238L89.918,1023.477C89.888,1023.72 89.991,1023.893 90.226,1023.998L95.542,1026.349C95.864,1026.491 96.061,1026.45 96.156,1026.236C96.184,1026.172 96.203,1026.128 96.217,1025.981L100.181,995.751C100.228,995.413 100.016,995.14 99.694,994.998L93.199,992.125C92.878,991.983 92.533,992.01 92.314,992.272C92.314,992.272 72.765,1015.327 72.715,1015.382C72.624,1015.47 72.496,1015.644 72.449,1015.752C72.354,1015.966 72.478,1016.149 72.8,1016.291L78.094,1018.632C78.308,1018.727 78.506,1018.686 78.665,1018.5L81.35,1015.152C81.509,1014.966 81.614,1014.961 81.957,1015.113L90.21,1018.762ZM115.512,999.761C115.465,999.521 115.313,999.388 115.056,999.363L109.295,998.795C108.945,998.761 108.771,998.861 108.748,999.095C108.741,999.165 108.753,999.284 108.769,999.356L114.578,1029.32C114.639,1029.656 114.926,1029.849 115.276,1029.883L122.297,1030.575C122.646,1030.609 122.966,1030.476 123.091,1030.159L134.48,1002.054C134.543,1001.895 134.605,1001.737 134.615,1001.643C134.638,1001.41 134.463,1001.275 134.113,1001.241L128.212,1000.659C127.978,1000.636 127.804,1000.737 127.711,1000.963L120.088,1021.196L119.873,1022.187L119.08,1022.109L119.062,1021.095L115.512,999.761ZM150.083,1005.592L145.15,999.607C144.955,999.387 144.701,999.325 144.312,999.415L138.419,1000.768C138.19,1000.82 138.05,1001.045 138.092,1001.228C138.123,1001.365 138.172,1001.474 138.234,1001.532L148.656,1012.99C148.751,1013.088 148.823,1013.192 148.859,1013.352C148.885,1013.466 148.894,1013.609 148.839,1013.789L144.221,1029.807C144.179,1029.937 144.165,1030.085 144.191,1030.199C144.249,1030.45 144.435,1030.528 144.8,1030.444L150.694,1029.091C151.196,1028.975 151.4,1028.712 151.487,1028.356L152.637,1023.835C153.313,1021.227 153.563,1018.861 153.264,1017.559L153.401,1017.528C153.843,1018.196 155.036,1019.726 155.452,1020.279L160.304,1026.331C160.515,1026.62 160.79,1026.773 161.293,1026.658L167.278,1025.283C167.597,1025.21 167.823,1025.038 167.765,1024.787C167.739,1024.672 167.7,1024.609 167.577,1024.493L157.055,1012.914C156.932,1012.798 156.814,1012.704 156.778,1012.544C156.741,1012.385 156.784,1012.255 156.826,1012.125L161.384,996.265C161.391,996.191 161.382,996.049 161.356,995.934C161.314,995.752 161.102,995.56 160.851,995.618L154.66,997.039C154.34,997.112 154.087,997.267 154.013,997.572L152.852,1002.047C152.157,1005.405 151.879,1006.816 152.408,1008.594L152.271,1008.626C151.829,1007.958 150.499,1006.147 150.083,1005.593L150.083,1005.592Z" style="fill:white;fill-rule:nonzero;"/>
            </g>
            <g id="g2323" transform="matrix(1,0,0,1,532.15701,273.61338)">
                <path id="path1824-9-2" d="M71.753,1015.069C88.908,1025.018 108.304,1030.421 128.11,1030.767C170.503,1031.507 210.097,1008.999 231.3,972.107C241.206,954.87 246.587,935.383 246.934,915.484C247.677,872.893 225.28,833.117 188.563,811.822C171.409,801.872 152.012,796.47 132.206,796.124C89.813,795.384 50.219,817.892 29.016,854.784C-3.024,910.533 16.268,982.888 71.753,1015.069Z" style="fill:none;fill-rule:nonzero;"/>
                <path id="text2307" d="M85.96,1010.348C85.575,1010.178 85.543,1009.959 85.731,1009.709L92.312,1001.548L92.808,1000.717L93.558,1001.049L93.277,1001.975L91.647,1012.325C91.588,1012.632 91.384,1012.747 90.998,1012.576L85.96,1010.348ZM90.21,1018.762C90.531,1018.905 90.619,1018.995 90.589,1019.238L89.918,1023.477C89.888,1023.72 89.991,1023.893 90.226,1023.998L95.542,1026.349C95.864,1026.491 96.061,1026.45 96.156,1026.236C96.184,1026.172 96.203,1026.128 96.217,1025.981L100.181,995.751C100.228,995.413 100.016,995.14 99.694,994.998L93.199,992.125C92.878,991.983 92.533,992.01 92.314,992.272C92.314,992.272 72.765,1015.327 72.715,1015.382C72.624,1015.47 72.496,1015.644 72.449,1015.752C72.354,1015.966 72.478,1016.149 72.8,1016.291L78.094,1018.632C78.308,1018.727 78.506,1018.686 78.665,1018.5L81.35,1015.152C81.509,1014.966 81.614,1014.961 81.957,1015.113L90.21,1018.762ZM115.512,999.761C115.465,999.521 115.313,999.388 115.056,999.363L109.295,998.795C108.945,998.761 108.771,998.861 108.748,999.095C108.741,999.165 108.753,999.284 108.769,999.356L114.578,1029.32C114.639,1029.656 114.926,1029.849 115.276,1029.883L122.297,1030.575C122.646,1030.609 122.966,1030.476 123.091,1030.159L134.48,1002.054C134.543,1001.895 134.605,1001.737 134.615,1001.643C134.638,1001.41 134.463,1001.275 134.113,1001.241L128.212,1000.659C127.978,1000.636 127.804,1000.737 127.711,1000.963L120.088,1021.196L119.873,1022.187L119.08,1022.109L119.062,1021.095L115.512,999.761ZM150.083,1005.592L145.15,999.607C144.955,999.387 144.701,999.325 144.312,999.415L138.419,1000.768C138.19,1000.82 138.05,1001.045 138.092,1001.228C138.123,1001.365 138.172,1001.474 138.234,1001.532L148.656,1012.99C148.751,1013.088 148.823,1013.192 148.859,1013.352C148.885,1013.466 148.894,1013.609 148.839,1013.789L144.221,1029.807C144.179,1029.937 144.165,1030.085 144.191,1030.199C144.249,1030.45 144.435,1030.528 144.8,1030.444L150.694,1029.091C151.196,1028.975 151.4,1028.712 151.487,1028.356L152.637,1023.835C153.313,1021.227 153.563,1018.861 153.264,1017.559L153.401,1017.528C153.843,1018.196 155.036,1019.726 155.452,1020.279L160.304,1026.331C160.515,1026.62 160.79,1026.773 161.293,1026.658L167.278,1025.283C167.597,1025.21 167.823,1025.038 167.765,1024.787C167.739,1024.672 167.7,1024.609 167.577,1024.493L157.055,1012.914C156.932,1012.798 156.814,1012.704 156.778,1012.544C156.741,1012.385 156.784,1012.255 156.826,1012.125L161.384,996.265C161.391,996.191 161.382,996.049 161.356,995.934C161.314,995.752 161.102,995.56 160.851,995.618L154.66,997.039C154.34,997.112 154.087,997.267 154.013,997.572L152.852,1002.047C152.157,1005.405 151.879,1006.816 152.408,1008.594L152.271,1008.626C151.829,1007.958 150.499,1006.147 150.083,1005.593L150.083,1005.592Z" style="fill:white;fill-rule:nonzero;"/>
            </g>
        </g>
        <g transform="matrix(3.745064,0,0,3.745064,-220.945808,-159.724049)">
            <path d="M123,33.5L123,38.5C123,39.88 121.88,41 120.5,41L99.5,41C98.12,41 97,39.88 97,38.5L97,33.5C97,32.12 98.12,31 99.5,31L120.5,31C121.88,31 123,32.12 123,33.5Z" style="fill:rgb(252,143,47);"/>
        </g>
        <g transform="matrix(0.764579,0,0,0.764579,-226.618461,-161.76132)">
            <text x="506.448px" y="182.6px" style="font-family:'PTMono-Regular', 'PT Mono', monospace;font-size:18px;">#FF8F30</text>
        </g>
        <g transform="matrix(3.745064,0,0,3.745064,-220.945808,-112.286569)">
            <path d="M123,33.5L123,38.5C123,39.88 121.88,41 120.5,41L99.5,41C98.12,41 97,39.88 97,38.5L97,33.5C97,32.12 98.12,31 99.5,31L120.5,31C121.88,31 123,32.12 123,33.5Z" style="fill:rgb(253,177,35);"/>
        </g>
        <g transform="matrix(0.764579,0,0,0.764579,-226.618461,-114.32384)">
            <text x="506.448px" y="182.6px" style="font-family:'PTMono-Regular', 'PT Mono', monospace;font-size:18px;">#FFB126</text>
        </g>
        <g transform="matrix(3.745064,0,0,3.745064,-220.945808,-64.84909)">
            <path d="M123,33.5L123,38.5C123,39.88 121.88,41 120.5,41L99.5,41C98.12,41 97,39.88 97,38.5L97,33.5C97,32.12 98.12,31 99.5,31L120.5,31C121.88,31 123,32.12 123,33.5Z" style="fill:rgb(201,139,86);"/>
        </g>
        <g transform="matrix(3.745064,0,0,3.745064,-220.945808,-17.41161)">
            <path d="M123,33.5L123,38.5C123,39.88 121.88,41 120.5,41L99.5,41C98.12,41 97,39.88 97,38.5L97,33.5C97,32.12 98.12,31 99.5,31L120.5,31C121.88,31 123,32.12 123,33.5Z" style="fill:rgb(232,107,7);"/>
        </g>
        <g transform="matrix(3.745064,0,0,3.745064,-220.945808,30.025869)">
            <path d="M123,33.5L123,38.5C123,39.88 121.88,41 120.5,41L99.5,41C98.12,41 97,39.88 97,38.5L97,33.5C97,32.12 98.12,31 99.5,31L120.5,31C121.88,31 123,32.12 123,33.5Z" style="fill:rgb(190,9,2);"/>
        </g>
        <g transform="matrix(3.745064,0,0,3.745064,-220.945808,77.463348)">
            <path d="M123,33.5L123,38.5C123,39.88 121.88,41 120.5,41L99.5,41C98.12,41 97,39.88 97,38.5L97,33.5C97,32.12 98.12,31 99.5,31L120.5,31C121.88,31 123,32.12 123,33.5Z" style="fill:rgb(1,0,1);"/>
        </g>
        <g transform="matrix(3.745064,0,0,3.745064,-220.945808,124.900828)">
            <path d="M123,33.5L123,38.5C123,39.88 121.88,41 120.5,41L99.5,41C98.12,41 97,39.88 97,38.5L97,33.5C97,32.12 98.12,31 99.5,31L120.5,31C121.88,31 123,32.12 123,33.5Z" style="fill:rgb(254,255,254);stroke:black;stroke-width:0.2px;stroke-linecap:round;stroke-linejoin:round;stroke-miterlimit:1.5;"/>
        </g>
        <g transform="matrix(0.764579,0,0,0.764579,-226.618461,-66.886361)">
            <text x="506.448px" y="182.6px" style="font-family:'PTMono-Regular', 'PT Mono', monospace;font-size:18px;">#C98B56</text>
        </g>
        <g transform="matrix(0.764579,0,0,0.764579,-226.618461,-19.448881)">
            <text x="506.448px" y="182.6px" style="font-family:'PTMono-Regular', 'PT Mono', monospace;font-size:18px;">#E86B00</text>
        </g>
        <g transform="matrix(0.764579,0,0,0.764579,-226.618461,27.988598)">
            <text x="506.448px" y="182.6px" style="font-family:'PTMono-Regular', 'PT Mono', monospace;font-size:18px;fill:white;">#BE0000</text>
        </g>
        <g transform="matrix(0.764579,0,0,0.764579,-226.618461,75.426078)">
            <text x="506.448px" y="182.6px" style="font-family:'PTMono-Regular', 'PT Mono', monospace;font-size:18px;fill:white;">#000000</text>
        </g>
        <g transform="matrix(0.764579,0,0,0.764579,-226.618461,122.863557)">
            <text x="506.448px" y="182.6px" style="font-family:'PTMono-Regular', 'PT Mono', monospace;font-size:18px;">#FFFFFF</text>
        </g>
    </g>
</svg>
