<?xml version="1.0" encoding="UTF-8" standalone="no"?>
<!-- Created with Inkscape (http://www.inkscape.org/) -->

<svg
   width="64.87513mm"
   height="64.874756mm"
   viewBox="0 0 64.87513 64.874756"
   version="1.1"
   id="svg4940"
   inkscape:version="1.2.1 (9c6d41e4, 2022-07-14)"
   sodipodi:docname="branch-logo-AVX.svg"
   inkscape:export-filename="branch-logo-AVX.png"
   inkscape:export-xdpi="195.76068"
   inkscape:export-ydpi="195.76068"
   xmlns:inkscape="http://www.inkscape.org/namespaces/inkscape"
   xmlns:sodipodi="http://sodipodi.sourceforge.net/DTD/sodipodi-0.dtd"
   xmlns:xlink="http://www.w3.org/1999/xlink"
   xmlns="http://www.w3.org/2000/svg"
   xmlns:svg="http://www.w3.org/2000/svg">
  <sodipodi:namedview
     id="namedview4942"
     pagecolor="#ffffff"
     bordercolor="#666666"
     borderopacity="1.0"
     inkscape:showpageshadow="2"
     inkscape:pageopacity="0.0"
     inkscape:pagecheckerboard="0"
     inkscape:deskcolor="#d1d1d1"
     inkscape:document-units="mm"
     showgrid="false"
     inkscape:zoom="0.914906"
     inkscape:cx="-27.871716"
     inkscape:cy="262.86853"
     inkscape:window-width="2560"
     inkscape:window-height="1381"
     inkscape:window-x="0"
     inkscape:window-y="31"
     inkscape:window-maximized="1"
     inkscape:current-layer="layer1" />
  <defs
     id="defs4937" />
  <g
     inkscape:label="Layer 1"
     inkscape:groupmode="layer"
     id="layer1"
     transform="translate(-45.93342,-76.587935)">
    <g
       id="g103666"
       transform="matrix(0.26458333,0,0,0.26458333,-96.866569,-205.14804)">
      <path
         id="path5802-1-3-3"
         style="fill:#ffffff;fill-opacity:1;stroke:#be0000;stroke-width:2.593;stroke-miterlimit:4;stroke-dasharray:none;stroke-opacity:1"
         d="m 661.86013,1103.8715 h 0.11133 c 45.81924,-3e-4 82.96314,37.1436 82.96289,82.9629 3.2e-4,25.9992 -12.18756,50.495 -32.92578,66.1757 l 3.11719,6.0801 -3.18555,7.5821 -5.08984,2.8144 -8.33398,-1.998 -2.72657,-4.8965 c -10.64162,4.7502 -22.16464,7.2053 -33.81836,7.2051 -13.28297,4e-4 -26.37187,-3.1886 -38.16601,-9.2989 l -18.84375,9.2383 h -8.30664 l -7.37891,-8.1504 -0.0723,-9.916 11.5918,-8.793 c -14.01478,-15.2994 -21.78816,-35.2948 -21.78711,-56.0429 -2.9e-4,-45.7758 37.0758,-82.9018 82.85156,-82.9629 z"
         sodipodi:nodetypes="cscccccccccccccccsc" />
      <path
         id="path5802-1-3-36"
         style="fill:#ff8f30;fill-opacity:1;stroke:#be0000;stroke-width:2.593;stroke-miterlimit:4;stroke-dasharray:none;stroke-opacity:1"
         d="m 662.13162,1066.1254 c -61.47644,0.016 -114.16339,46.6011 -120.49219,109.082 -6.75074,66.6463 41.80294,126.1438 108.44922,132.8945 66.64631,6.7508 126.15162,-41.8029 132.90234,-108.4492 6.75075,-66.6463 -41.81075,-126.1438 -108.45703,-132.8945 -4.1654,-0.4219 -8.30392,-0.6339 -12.40234,-0.6328 z m -0.27149,37.7461 a 82.96244,82.96244 0 0 1 0.11133,0 82.96244,82.96244 0 0 1 82.96289,82.9629 82.96244,82.96244 0 0 1 -32.92578,66.1757 l 3.11719,6.0801 -3.18555,7.582 -5.08984,2.8145 -8.33398,-1.9981 -2.72657,-4.8964 a 82.96244,82.96244 0 0 1 -33.81836,7.205 82.96244,82.96244 0 0 1 -38.16601,-9.2988 l -18.84375,9.2383 h -8.30664 l -7.37891,-8.1504 -0.0723,-9.916 11.5918,-8.793 a 82.96244,82.96244 0 0 1 -21.78711,-56.0389 82.96244,82.96244 0 0 1 82.85156,-82.9629 z" />
      <circle
         style="fill:none;fill-opacity:1;stroke:none;stroke-opacity:1"
         id="path1942-5-7"
         cx="-780.2373"
         cy="-1113.2114"
         r="90.70443"
         transform="rotate(-174.12018)" />
      <path
         id="path1824-5"
         style="fill:none;fill-opacity:1;stroke:none;stroke-opacity:0.995984"
         d="m 556.19823,1143.8122 a 115.233,115.233 0 0 0 63.67511,150.0093 115.233,115.233 0 0 0 150.00925,-63.6753 115.233,115.233 0 0 0 -63.67514,-150.0092 115.233,115.233 0 0 0 -150.00922,63.6752 z" />
      <text
         xml:space="preserve"
         style="font-style:normal;font-weight:normal;font-size:34.6667px;line-height:1.25;font-family:sans-serif;fill:#000000;fill-opacity:1;stroke:none"
         id="text1875-5-3"><textPath
           xlink:href="#path1942-5-7"
           id="textPath1944-6-5"
           style="font-style:normal;font-variant:normal;font-weight:normal;font-stretch:normal;font-size:34.6667px;font-family:'Politics Head';-inkscape-font-specification:'Politics Head';fill:#ffffff;fill-opacity:1">audio video xhain</textPath></text>
      <circle
         style="fill:none;fill-opacity:1;stroke:none;stroke-opacity:1"
         id="path1942-2-2-6"
         cx="871.35907"
         cy="1043.3983"
         transform="matrix(-0.35836796,0.93358042,0.93358042,0.35836796,0,0)"
         r="111.03123" />
      <circle
         r="12.512966"
         cy="1230.1726"
         cx="643.75208"
         id="path10316"
         style="fill:#e86b00;fill-opacity:1;stroke:#e86b00;stroke-width:1.78531;stroke-linecap:round;stroke-linejoin:round;stroke-miterlimit:4;stroke-dasharray:none;stroke-dashoffset:0;stroke-opacity:1;paint-order:normal" />
      <path
         sodipodi:nodetypes="cccssc"
         inkscape:connector-curvature="0"
         id="path10318"
         d="m 627.4696,1231.7151 c 0.17143,4.6276 1.97104,6.513 3.68498,8.5697 1.91307,2.377 5.29437,4.0442 8.22694,5.1418 0,0 -34.53598,17.6537 -37.79247,18.1678 -3.25649,0.5142 -7.19857,-3.085 -7.71275,-5.8274 -0.51419,-2.7423 33.5933,-26.0519 33.5933,-26.0519 z"
         style="fill:#e86b00;fill-opacity:1;stroke:#e86b00;stroke-width:2.59116;stroke-linecap:round;stroke-linejoin:round;stroke-miterlimit:4;stroke-dasharray:none;stroke-opacity:1" />
      <path
         sodipodi:nodetypes="ccc"
         inkscape:connector-curvature="0"
         id="path10322"
         d="m 636.12502,1217.7464 c 0.80559,5.9646 2.69894,11.0261 6.34159,14.4829 2.65662,2.6566 10.11227,8.9125 10.96924,9.1696"
         style="fill:none;fill-opacity:1;stroke:#ffffff;stroke-width:2.59116;stroke-linecap:round;stroke-linejoin:round;stroke-miterlimit:4;stroke-dasharray:none;stroke-opacity:1" />
      <g
         id="g1893"
         style="stroke:#ffb126;stroke-opacity:1"
         transform="translate(532.15701,274.19888)">
        <path
           inkscape:connector-curvature="0"
           id="path10330"
           d="m 86.594364,878.84057 -0.04468,53.69895 33.430406,-18.23015 -0.002,-17.87087 z"
           style="fill:none;fill-opacity:1;stroke:#ffb126;stroke-width:8.29228;stroke-linecap:round;stroke-linejoin:round;stroke-miterlimit:4;stroke-dasharray:none;stroke-opacity:1"
           sodipodi:nodetypes="ccccc" />
        <circle
           r="11.824103"
           cy="866.31055"
           cx="186.13672"
           id="path10334"
           style="fill:none;fill-opacity:1;stroke:#ffb126;stroke-width:8.29228;stroke-linecap:round;stroke-linejoin:round;stroke-miterlimit:4;stroke-dasharray:none;stroke-dashoffset:0;stroke-opacity:1;paint-order:normal"
           transform="rotate(0.83793145)" />
        <circle
           r="19.917736"
           cy="859.2312"
           cx="152.55554"
           id="path10336"
           style="fill:none;fill-opacity:1;stroke:#ffb126;stroke-width:8.29228;stroke-linecap:round;stroke-linejoin:round;stroke-miterlimit:4;stroke-dasharray:none;stroke-dashoffset:0;stroke-opacity:1;paint-order:normal"
           transform="rotate(0.83793145)" />
        <rect
           style="fill:none;stroke:#ffb126;stroke-width:8.29228;stroke-linecap:round;stroke-linejoin:round;stroke-miterlimit:4;stroke-dasharray:none;stroke-opacity:1"
           id="rect1686"
           width="69.673256"
           height="41.591423"
           x="120.0398"
           y="883.77124" />
      </g>
      <path
         id="path1702"
         style="fill:none;stroke:#c98b56;stroke-width:8.29228;stroke-linecap:round;stroke-linejoin:round;stroke-miterlimit:4;stroke-dasharray:none;stroke-opacity:1"
         d="m 697.92069,1207.5371 -30.18456,52.9243 m 8.91104,-52.6371 28.24006,51.9089"
         sodipodi:nodetypes="cccc" />
      <circle
         style="fill:#be0000;fill-opacity:1;stroke:none;stroke-width:0.259195"
         id="path7538-9-26-6-4-6-0-6"
         cx="721.63281"
         cy="1158.1228"
         r="3.8879318" />
      <circle
         style="fill:#be0000;fill-opacity:1;stroke:none;stroke-width:0.259195"
         id="path7538-9-26-6-4-6-0-6-3"
         cx="721.62628"
         cy="1199.4205"
         r="3.8879318" />
      <circle
         style="fill:#be0000;fill-opacity:1;stroke:none;stroke-width:0.259195"
         id="path7538-9-26-6-4-6-0-6-2"
         cx="652.40472"
         cy="1199.3895"
         r="3.8879318" />
      <circle
         style="fill:#be0000;fill-opacity:1;stroke:none;stroke-width:0.259195"
         id="path7538-9-26-6-4-6-0-6-27"
         cx="652.47412"
         cy="1158.1498"
         r="3.8879318" />
      <circle
         style="fill:#be0000;fill-opacity:1;stroke:none;stroke-width:0.259195"
         id="path7538-9-26-6-4-6-0-6-36"
         cx="618.9281"
         cy="1153.2756"
         r="3.8879318" />
      <circle
         style="fill:#be0000;fill-opacity:1;stroke:none;stroke-width:0.259195"
         id="path7538-9-26-6-4-6-0-6-6"
         cx="618.84991"
         cy="1206.5723"
         r="3.8879318" />
      <circle
         style="fill:#be0000;fill-opacity:1;stroke:none;stroke-width:0.259195"
         id="path7538-9-26-6-4-6-0-6-7"
         cx="704.8764"
         cy="1259.7297"
         r="3.8879318" />
      <circle
         style="fill:#be0000;fill-opacity:1;stroke:none;stroke-width:0.259195"
         id="path7538-9-26-6-4-6-0-6-23"
         cx="667.76398"
         cy="1260.4928"
         r="3.8879318" />
      <circle
         style="fill:#be0000;fill-opacity:1;stroke:none;stroke-width:0.259195"
         id="path7538-9-26-6-4-6-0-6-22"
         cx="697.90765"
         cy="1207.5303"
         r="3.8879318" />
      <circle
         style="fill:#be0000;fill-opacity:1;stroke:none;stroke-width:0.259195"
         id="path7538-9-26-6-4-6-0-6-361"
         cx="676.65173"
         cy="1207.7877"
         r="3.8879318" />
      <circle
         style="fill:#ffffff;fill-opacity:1;stroke:none;stroke-width:0.259195"
         id="path7614-7-64-1-47-56-7-7"
         cx="721.63281"
         cy="1158.1228"
         r="2.5919547" />
      <circle
         style="fill:#ffffff;fill-opacity:1;stroke:none;stroke-width:0.259195"
         id="path7614-7-64-1-47-56-7-7-5"
         cx="721.62628"
         cy="1199.4205"
         r="2.5919547" />
      <circle
         style="fill:#ffffff;fill-opacity:1;stroke:none;stroke-width:0.259195"
         id="path7614-7-64-1-47-56-7-7-9"
         cx="652.40472"
         cy="1199.3895"
         r="2.5919547" />
      <circle
         style="fill:#ffffff;fill-opacity:1;stroke:none;stroke-width:0.259195"
         id="path7614-7-64-1-47-56-7-7-0"
         cx="652.47412"
         cy="1158.1498"
         r="2.5919547" />
      <circle
         style="fill:#ffffff;fill-opacity:1;stroke:none;stroke-width:0.259195"
         id="path7614-7-64-1-47-56-7-7-06"
         cx="618.9281"
         cy="1153.2756"
         r="2.5919547" />
      <circle
         style="fill:#ffffff;fill-opacity:1;stroke:none;stroke-width:0.259195"
         id="path7614-7-64-1-47-56-7-7-1"
         cx="618.84991"
         cy="1206.5723"
         r="2.5919547" />
      <circle
         style="fill:#ffffff;fill-opacity:1;stroke:none;stroke-width:0.259195"
         id="path7614-7-64-1-47-56-7-7-92"
         cx="704.8764"
         cy="1259.7297"
         r="2.5919547" />
      <circle
         style="fill:#ffffff;fill-opacity:1;stroke:none;stroke-width:0.259195"
         id="path7614-7-64-1-47-56-7-7-7"
         cx="667.76398"
         cy="1260.4928"
         r="2.5919547" />
      <circle
         style="fill:#ffffff;fill-opacity:1;stroke:none;stroke-width:0.259195"
         id="path7614-7-64-1-47-56-7-7-8"
         cx="697.90765"
         cy="1207.5303"
         r="2.5919547" />
      <circle
         style="fill:#ffffff;fill-opacity:1;stroke:none;stroke-width:0.259195"
         id="path7614-7-64-1-47-56-7-7-2"
         cx="676.65173"
         cy="1207.7877"
         r="2.5919547" />
      <g
         id="g2253"
         transform="translate(517.70014,268.85667)">
        <circle
           style="fill:#be0000;fill-opacity:1;stroke:none;stroke-width:0.259195"
           id="path7538-9-26-6-4-6-0-6-0"
           cx="173.26442"
           cy="882.89294"
           r="3.8879318" />
        <circle
           style="fill:#ffffff;fill-opacity:1;stroke:none;stroke-width:0.259195"
           id="path7614-7-64-1-47-56-7-7-3"
           cx="173.26442"
           cy="882.89294"
           r="2.5919547" />
      </g>
      <text
         xml:space="preserve"
         style="font-style:normal;font-weight:normal;font-size:48px;line-height:1.25;font-family:sans-serif;letter-spacing:10.36px;fill:#000000;fill-opacity:1;stroke:none"
         id="text1950-9"
         x="-283.89362"
         y="-436.3707"
         transform="translate(532.15701,274.19888)"><textPath
           xlink:href="#path1824-9-2"
           id="textPath1952-1"
           style="font-style:normal;font-variant:normal;font-weight:normal;font-stretch:normal;font-size:48px;font-family:'Politics Head';-inkscape-font-specification:'Politics Head';fill:#ffffff;fill-opacity:1">avx</textPath></text>
      <g
         id="g2323"
         transform="translate(532.15701,273.61338)">
        <path
           id="path1824-9-2"
           style="fill:none;fill-opacity:1;stroke:none;stroke-width:1.01591;stroke-opacity:1"
           d="M 71.752947,1015.0688 A 116.79357,117.33935 1 0 0 231.29984,972.10683 116.79357,117.33935 1 0 0 188.5632,811.8219 116.79357,117.33935 1 0 0 29.016447,854.78403 a 116.79357,117.33935 1 0 0 42.7365,160.28477 z" />
        <text
           xml:space="preserve"
           style="font-style:normal;font-weight:normal;font-size:48px;line-height:1.25;font-family:sans-serif;letter-spacing:10.36px;fill:#000000;fill-opacity:1;stroke:none"
           id="text2307"
           x="-283.89362"
           y="-436.3707"><textPath
             xlink:href="#path1824-9-2"
             id="textPath2305"
             style="font-style:normal;font-variant:normal;font-weight:normal;font-stretch:normal;font-size:48px;font-family:'Politics Head';-inkscape-font-specification:'Politics Head';fill:#ffffff;fill-opacity:1">avx</textPath></text>
      </g>
    </g>
  </g>
</svg>
