<?xml version="1.0" encoding="UTF-8" standalone="no"?>
<!DOCTYPE svg PUBLIC "-//W3C//DTD SVG 1.1//EN" "http://www.w3.org/Graphics/SVG/1.1/DTD/svg11.dtd">
<svg width="100%" height="100%" viewBox="0 0 842 596" version="1.1" xmlns="http://www.w3.org/2000/svg" xmlns:xlink="http://www.w3.org/1999/xlink" xml:space="preserve" xmlns:serif="http://www.serif.com/" style="fill-rule:evenodd;clip-rule:evenodd;">
    <g id="Layer-1" serif:id="Layer 1" transform="matrix(1.183278,0,0,1.183278,286.844799,90.308538)">
        <g id="g104033" transform="matrix(1.140065,0,0,1.140065,-250.0485,-1273.7546)">
            <circle id="path4602" cx="134.641" cy="1177.305" r="119.427" style="fill:white;"/>
            <path id="path5802-1-36" d="M134.462,1056C72.986,1056.016 20.299,1102.601 13.97,1165.082C7.219,1231.728 55.773,1291.226 122.419,1297.977C189.066,1304.727 248.571,1256.174 255.322,1189.527C262.072,1122.881 213.511,1063.384 146.865,1056.633C142.699,1056.211 138.561,1055.999 134.462,1056ZM134.849,1093.746C180.57,1093.747 218.193,1131.37 218.193,1177.092C218.192,1222.813 180.57,1260.435 134.849,1260.436C100.992,1260.435 70.354,1239.804 57.622,1208.432L51.013,1223.844L37.909,1225.85L25.368,1199.627L30.386,1192.262L42.472,1192.112L52.171,1166.569C57.444,1125.139 93.085,1093.746 134.849,1093.746Z" style="fill:rgb(122,142,250);fill-rule:nonzero;stroke:rgb(4,22,117);stroke-width:2.59px;"/>
            <path id="text1875-2-1" d="M56.505,1260.473L59.564,1263.264C59.867,1263.54 60.226,1263.524 60.502,1263.221L73.164,1249.339C73.44,1249.036 73.799,1249.02 74.102,1249.296L77.334,1252.244C77.638,1252.521 77.996,1252.504 78.273,1252.201L80.734,1249.503C81.01,1249.2 80.994,1248.841 80.691,1248.565L69.205,1238.088C68.901,1237.811 68.543,1237.828 68.266,1238.131L65.805,1240.829C65.529,1241.132 65.545,1241.491 65.848,1241.767L69.08,1244.716C69.384,1244.992 69.4,1245.351 69.124,1245.654L56.462,1259.536C56.185,1259.839 56.202,1260.197 56.505,1260.474L56.505,1260.473ZM86.081,1280.986C86.438,1281.186 86.784,1281.089 86.985,1280.731L88.771,1277.545C88.971,1277.188 88.874,1276.842 88.516,1276.641L79.964,1271.846C79.607,1271.646 79.509,1271.3 79.71,1270.942L81.592,1267.586C81.792,1267.229 82.138,1267.131 82.496,1267.332L89.514,1271.267C89.872,1271.468 90.218,1271.371 90.418,1271.013L92.205,1267.827C92.405,1267.469 92.308,1267.124 91.95,1266.923L84.931,1262.988C84.574,1262.787 84.476,1262.441 84.677,1262.084L86.463,1258.898C86.664,1258.54 87.009,1258.443 87.367,1258.643L95.919,1263.438C96.277,1263.639 96.623,1263.542 96.823,1263.184L98.609,1259.998C98.81,1259.641 98.713,1259.295 98.355,1259.094L85.033,1251.625C84.675,1251.424 84.329,1251.521 84.129,1251.879L72.504,1272.612C72.303,1272.97 72.401,1273.316 72.758,1273.516L86.081,1280.986ZM108.366,1268.654L107.148,1262.306C107.094,1262.068 106.932,1261.921 106.613,1261.831L101.762,1260.466C101.574,1260.413 101.381,1260.521 101.339,1260.672C101.307,1260.785 101.299,1260.884 101.321,1260.951L104.366,1273.494C104.396,1273.604 104.408,1273.709 104.37,1273.84C104.344,1273.934 104.293,1274.042 104.181,1274.152L94.405,1284.022C94.322,1284.1 94.253,1284.203 94.226,1284.297C94.168,1284.503 94.273,1284.634 94.574,1284.719L99.425,1286.084C99.839,1286.2 100.093,1286.094 100.299,1285.863L102.946,1283.016C104.482,1281.379 105.61,1279.748 105.911,1278.677L106.024,1278.709C106.081,1279.374 106.342,1280.969 106.425,1281.54L107.556,1287.904C107.595,1288.199 107.735,1288.422 108.149,1288.538L113.075,1289.924C113.338,1289.998 113.571,1289.962 113.629,1289.755C113.656,1289.661 113.653,1289.599 113.609,1289.465L110.54,1276.793C110.496,1276.659 110.447,1276.544 110.484,1276.413C110.521,1276.281 110.604,1276.203 110.687,1276.125L120.356,1266.347C120.391,1266.296 120.442,1266.188 120.468,1266.094C120.51,1265.944 120.432,1265.719 120.225,1265.66L115.13,1264.227C114.866,1264.153 114.62,1264.165 114.443,1264.359L111.807,1267.168C109.957,1269.346 109.19,1270.266 108.866,1271.778L108.754,1271.746C108.697,1271.081 108.448,1269.225 108.365,1268.654L108.366,1268.654ZM127.59,1291.397L131.727,1291.583C132.136,1291.601 132.401,1291.359 132.42,1290.949L133.261,1272.179C133.28,1271.769 133.545,1271.527 133.955,1271.545L138.325,1271.741C138.735,1271.759 139,1271.517 139.018,1271.107L139.182,1267.459C139.2,1267.049 138.958,1266.784 138.548,1266.766L123.017,1266.069C122.607,1266.051 122.342,1266.293 122.324,1266.703L122.16,1270.351C122.142,1270.761 122.384,1271.026 122.794,1271.045L127.165,1271.241C127.574,1271.259 127.817,1271.524 127.798,1271.934L126.957,1290.704C126.938,1291.114 127.18,1291.379 127.59,1291.397ZM148.391,1290.804L152.493,1290.233C152.899,1290.176 153.115,1289.89 153.059,1289.484L149.757,1265.748C149.701,1265.342 149.415,1265.125 149.008,1265.182L144.907,1265.752C144.501,1265.809 144.284,1266.095 144.341,1266.501L147.642,1290.238C147.699,1290.644 147.985,1290.86 148.391,1290.804ZM164.626,1287.814L178.426,1283.198C178.815,1283.068 178.975,1282.746 178.845,1282.357L177.686,1278.894C177.556,1278.505 177.234,1278.344 176.845,1278.474L168.233,1281.356C167.844,1281.486 167.522,1281.326 167.392,1280.937L161.369,1262.933C161.239,1262.544 160.918,1262.384 160.529,1262.514L156.602,1263.828C156.213,1263.958 156.053,1264.279 156.183,1264.668L163.786,1287.395C163.916,1287.784 164.238,1287.944 164.626,1287.814ZM201.382,1270.423C201.731,1270.208 201.814,1269.858 201.598,1269.509L199.68,1266.401C199.465,1266.052 199.115,1265.97 198.766,1266.185L190.422,1271.334C190.073,1271.55 189.724,1271.467 189.509,1271.118L187.488,1267.844C187.272,1267.495 187.355,1267.145 187.704,1266.93L194.552,1262.704C194.901,1262.488 194.984,1262.139 194.768,1261.79L192.85,1258.682C192.635,1258.333 192.285,1258.25 191.936,1258.465L185.089,1262.691C184.739,1262.907 184.39,1262.824 184.175,1262.475L182.256,1259.367C182.041,1259.018 182.124,1258.668 182.473,1258.453L190.817,1253.304C191.166,1253.088 191.248,1252.739 191.033,1252.39L189.115,1249.282C188.899,1248.933 188.55,1248.85 188.201,1249.065L175.203,1257.087C174.854,1257.302 174.772,1257.652 174.987,1258.001L187.47,1278.228C187.686,1278.577 188.035,1278.66 188.384,1278.445L201.382,1270.423ZM215.493,1258.58C219.448,1254.636 219.633,1250.203 216.323,1246.884C213.909,1244.464 210.374,1244.293 205.454,1246.717C202.414,1248.205 201.116,1248.341 200.233,1247.456C199.323,1246.543 199.352,1245.052 200.694,1243.714C201.897,1242.514 203.347,1242.171 204.659,1242.656C204.962,1242.767 205.239,1242.712 205.405,1242.547C205.474,1242.478 205.529,1242.395 205.571,1242.298L207.177,1238.875C207.288,1238.654 207.247,1238.475 207.123,1238.35C207.04,1238.267 206.999,1238.226 206.626,1238.018C203.576,1236.564 200.094,1237.388 197.163,1240.312C193.429,1244.036 193.45,1248.814 195.946,1251.317C198.664,1254.042 202.102,1254.281 207.077,1251.691C210.132,1250.107 211.499,1250.206 212.381,1251.091C213.361,1252.073 213.331,1253.537 211.907,1254.957C210.358,1256.502 208.88,1256.79 207.486,1256.277C207.182,1256.166 206.906,1256.221 206.74,1256.387C206.671,1256.456 206.615,1256.538 206.574,1256.635L204.925,1260.293C204.814,1260.513 204.856,1260.693 204.98,1260.818C205.062,1260.901 205.104,1260.942 205.476,1261.15C208.499,1262.77 212.298,1261.766 215.493,1258.58Z" style="fill:white;fill-rule:nonzero;"/>
            <g id="path1942-2-6" transform="matrix(-0.737279,0.675589,0.675589,0.737279,0,0)">
                <circle cx="696.323" cy="959.374" r="113.85" style="fill:none;"/>
            </g>
            <g id="path1942-32" transform="matrix(-0.96363,-0.267238,0.267238,-0.96363,0,0)">
                <circle cx="-443.972" cy="-1097.548" r="90.704" style="fill:none;"/>
            </g>
            <path id="path2987-9-0-1-3" d="M149.918,1162.629L149.962,1196.463L89.131,1196.371L88.963,1223.152L194.765,1223.587L195.506,1142.866L87.913,1142.969L88.657,1175.162L107.177,1175.162L106.964,1162.458L149.918,1162.629Z" style="fill:rgb(122,142,250);fill-rule:nonzero;stroke:rgb(44,66,170);stroke-width:8.29px;stroke-linecap:round;stroke-linejoin:round;"/>
            <path id="path11012" d="M96.65,1182.748L97.686,1192.879L98.958,1181.257L96.65,1182.748Z" style="fill:rgb(44,66,170);fill-rule:nonzero;stroke:rgb(44,66,170);stroke-width:0.96px;"/>
            <ellipse id="path11022" cx="174.193" cy="1183.665" rx="12.796" ry="12.989" style="fill:rgb(44,66,170);"/>
            <ellipse id="path11022-9" cx="174.4" cy="1157.631" rx="5.71" ry="5.796" style="fill:rgb(44,66,170);"/>
            <path id="path4536-0-2-3-62-62-7" d="M203.952,1177.765L204.2,1154.896" style="fill:none;fill-rule:nonzero;stroke:rgb(44,66,170);stroke-width:8.29px;stroke-linecap:round;stroke-linejoin:round;"/>
            <path id="path4536-0-2-3-62-62-7-1" d="M97.809,1181.222L97.722,1175.404" style="fill:none;fill-rule:nonzero;stroke:rgb(44,66,170);stroke-width:8.29px;stroke-linecap:round;stroke-linejoin:round;"/>
            <path id="path4536-0-2-3-62-62-7-1-2" d="M165.876,1141.985L165.73,1122.82" style="fill:none;fill-rule:nonzero;stroke:rgb(44,66,170);stroke-width:8.29px;stroke-linecap:round;stroke-linejoin:round;"/>
            <path id="path4536-0-2-3-62-62-7-1-2-7" d="M157.642,1129.399L109.079,1129.463L103.029,1134.646" style="fill:none;fill-rule:nonzero;stroke:rgb(23,59,255);stroke-width:8.29px;stroke-linecap:round;stroke-linejoin:round;"/>
            <path id="path4536-0-2-3-62-62-7-1-2-7-0" d="M88.167,1188.052L77.013,1176.043L66.492,1201.944L58.344,1176.209L43.678,1215.243L37.365,1202.099" style="fill:none;fill-rule:nonzero;stroke:rgb(23,59,255);stroke-width:8.29px;stroke-linecap:round;stroke-linejoin:round;"/>
            <circle id="path7538-9-26-6-4-55" cx="165.76" cy="1122.827" r="3.888" style="fill:rgb(255,204,0);"/>
            <circle id="path7614-7-64-1-47-47" cx="165.76" cy="1122.827" r="2.592" style="fill:white;"/>
            <circle id="path7538-9-26-6-4-3-5" cx="157.417" cy="1129.361" r="3.888" style="fill:rgb(255,204,0);"/>
            <circle id="path7614-7-64-1-47-6-6" cx="157.417" cy="1129.361" r="2.592" style="fill:white;"/>
            <circle id="path7538-9-26-6-4-6-37" cx="103.163" cy="1134.474" r="3.888" style="fill:rgb(255,204,0);"/>
            <circle id="path7614-7-64-1-47-2" cx="103.163" cy="1134.474" r="2.592" style="fill:white;"/>
            <circle id="path7538-9-26-6-4-1" cx="88.399" cy="1143.536" r="3.888" style="fill:rgb(255,204,0);"/>
            <circle id="path7614-7-64-1-47-8-5" cx="88.399" cy="1143.536" r="2.592" style="fill:white;"/>
            <circle id="path7538-9-26-6-4-9-4" cx="195.059" cy="1143.319" r="3.888" style="fill:rgb(255,204,0);"/>
            <circle id="path7614-7-64-1-47-20" cx="195.059" cy="1143.319" r="2.592" style="fill:white;"/>
            <circle id="path7538-9-26-6-4-37-4" cx="194.466" cy="1223.162" r="3.888" style="fill:rgb(255,204,0);"/>
            <circle id="path7614-7-64-1-47-5-3" cx="194.466" cy="1223.162" r="2.592" style="fill:white;"/>
            <circle id="path7538-9-26-6-4-2-0" cx="89.442" cy="1222.799" r="3.888" style="fill:rgb(255,204,0);"/>
            <circle id="path7614-7-64-1-47-89" cx="89.442" cy="1222.799" r="2.592" style="fill:white;"/>
            <circle id="path7538-9-26-6-4-61" cx="97.763" cy="1180.827" r="3.888" style="fill:rgb(255,204,0);"/>
            <circle id="path7614-7-64-1-47-29" cx="97.763" cy="1180.827" r="2.592" style="fill:white;"/>
            <circle id="path7538-9-26-6-4-19" cx="174.337" cy="1157.603" r="3.888" style="fill:rgb(255,204,0);"/>
            <circle id="path7614-7-64-1-47-4-6" cx="174.337" cy="1157.603" r="2.592" style="fill:white;"/>
            <circle id="path7538-9-26-6-4-10" cx="203.956" cy="1177.736" r="3.888" style="fill:rgb(255,204,0);"/>
            <circle id="path7614-7-64-1-47-63-8" cx="203.956" cy="1177.736" r="2.592" style="fill:white;"/>
            <circle id="path7538-9-26-6-4-615" cx="88.104" cy="1188.013" r="3.888" style="fill:rgb(255,204,0);"/>
            <circle id="path7614-7-64-1-47-54" cx="88.104" cy="1188.013" r="2.592" style="fill:white;"/>
            <circle id="path7538-9-26-6-4-19-6" cx="174.385" cy="1183.46" r="3.888" style="fill:rgb(255,204,0);"/>
            <circle id="path7614-7-64-1-47-4-5" cx="174.385" cy="1183.46" r="2.592" style="fill:white;"/>
            <circle id="path7538-9-26-6-4-615-9" cx="37.385" cy="1202.155" r="3.888" style="fill:rgb(255,204,0);"/>
            <circle id="path7614-7-64-1-47-54-3" cx="37.385" cy="1202.155" r="2.592" style="fill:white;"/>
            <circle id="path7538-9-26-6-4-5-4" cx="149.572" cy="1162.812" r="3.888" style="fill:rgb(255,204,0);"/>
            <circle id="path7614-7-64-1-47-25" cx="149.572" cy="1162.812" r="2.592" style="fill:white;"/>
            <circle id="path7538-9-26-6-4-44" cx="149.719" cy="1196.348" r="3.888" style="fill:rgb(255,204,0);"/>
            <circle id="path7614-7-64-1-47-3-3" cx="149.719" cy="1196.348" r="2.592" style="fill:white;"/>
            <circle id="path7538-9-26-6-4-8-1" cx="107.216" cy="1162.692" r="3.888" style="fill:rgb(255,204,0);"/>
            <circle id="path7614-7-64-1-47-68" cx="107.216" cy="1162.692" r="2.592" style="fill:white;"/>
            <circle id="path7538-9-26-6-4-43" cx="89.401" cy="1196.566" r="3.888" style="fill:rgb(255,204,0);"/>
            <circle id="path7614-7-64-1-47-1-92" cx="89.401" cy="1196.566" r="2.592" style="fill:white;"/>
            <circle id="path7538-9-26-6-4-4-06" cx="204.2" cy="1154.995" r="3.888" style="fill:rgb(255,204,0);"/>
            <circle id="path7614-7-64-1-47-50" cx="204.2" cy="1154.995" r="2.592" style="fill:white;"/>
            <path id="text1875-6" d="M67.226,1118.57L70.237,1115.729C70.536,1115.447 70.546,1115.088 70.265,1114.79L64.782,1108.98C63.026,1107.119 60.964,1105.332 59.973,1104.737L60.087,1104.629C60.14,1104.686 60.946,1105.027 61.863,1105.317L76.529,1109.362C76.804,1109.425 76.985,1109.362 77.17,1109.188L79.926,1106.587C80.224,1106.306 80.234,1105.947 79.953,1105.648L63.506,1088.218C63.225,1087.92 62.866,1087.909 62.567,1088.191L59.556,1091.033C59.257,1091.314 59.247,1091.673 59.529,1091.971L65.038,1097.81C66.552,1099.415 68.952,1101.474 70.551,1102.543L70.437,1102.65C70.206,1102.519 69.072,1102.086 68.195,1101.839L53.251,1097.357C53.046,1097.31 52.836,1097.372 52.652,1097.547L49.867,1100.174C49.569,1100.456 49.559,1100.815 49.84,1101.113L66.287,1118.543C66.568,1118.842 66.927,1118.852 67.226,1118.57L67.226,1118.57ZM75.567,1077.429L77.484,1076.417C78.158,1076.062 78.444,1075.138 78.088,1074.465L77.569,1073.48C77.204,1072.789 76.307,1072.512 75.616,1072.876L73.699,1073.888C72.956,1074.28 72.73,1075.15 73.095,1075.841L73.614,1076.825C73.97,1077.499 74.893,1077.785 75.567,1077.429ZM83.686,1073.145L85.603,1072.134C86.277,1071.778 86.563,1070.855 86.207,1070.181L85.688,1069.196C85.323,1068.505 84.426,1068.228 83.735,1068.592L81.817,1069.604C81.075,1069.996 80.849,1070.866 81.214,1071.557L81.733,1072.542C82.089,1073.215 83.012,1073.501 83.686,1073.145ZM86.88,1091.755C86.569,1091.919 86.41,1091.826 86.343,1091.574L84.409,1083.054L84.122,1082.301L84.727,1081.982L85.187,1082.644L91.111,1089.059C91.281,1089.256 91.25,1089.449 90.939,1089.613L86.88,1091.755ZM94.576,1093.325C94.835,1093.188 94.94,1093.177 95.083,1093.325L97.508,1095.954C97.651,1096.099 97.818,1096.122 98.008,1096.022L102.292,1093.762C102.551,1093.625 102.626,1093.475 102.535,1093.302C102.508,1093.25 102.489,1093.216 102.4,1093.13L84.686,1074.917C84.489,1074.712 84.2,1074.709 83.941,1074.846L78.707,1077.608C78.448,1077.745 78.287,1077.984 78.346,1078.262C78.346,1078.262 83.316,1102.957 83.326,1103.018C83.337,1103.123 83.384,1103.296 83.43,1103.383C83.521,1103.555 83.705,1103.569 83.964,1103.432L88.23,1101.181C88.403,1101.09 88.479,1100.939 88.439,1100.739L87.638,1097.253C87.599,1097.053 87.649,1096.982 87.926,1096.836L94.576,1093.325ZM107.154,1092.188L111.202,1091.319C111.603,1091.233 111.799,1090.932 111.712,1090.531L109.8,1081.612C109.714,1081.211 109.909,1080.91 110.31,1080.824L117.28,1079.329C117.681,1079.243 117.983,1079.438 118.069,1079.839L119.982,1088.757C120.068,1089.158 120.369,1089.353 120.77,1089.267L124.819,1088.399C125.22,1088.313 125.415,1088.012 125.329,1087.611L120.304,1064.179C120.218,1063.778 119.916,1063.583 119.515,1063.669L115.466,1064.537C115.065,1064.623 114.87,1064.924 114.956,1065.325L116.746,1073.671C116.832,1074.072 116.637,1074.373 116.236,1074.459L109.266,1075.954C108.865,1076.04 108.563,1075.845 108.477,1075.444L106.687,1067.099C106.601,1066.698 106.3,1066.503 105.899,1066.589L101.85,1067.457C101.449,1067.543 101.254,1067.844 101.34,1068.245L106.365,1091.678C106.451,1092.079 106.753,1092.274 107.154,1092.188ZM147.717,1088.915C148.126,1088.938 148.394,1088.699 148.417,1088.29L148.625,1084.643C148.648,1084.234 148.409,1083.966 148,1083.943L138.211,1083.385C137.801,1083.362 137.562,1083.094 137.586,1082.685L137.804,1078.843C137.828,1078.434 138.095,1078.195 138.505,1078.218L146.539,1078.675C146.948,1078.698 147.216,1078.46 147.24,1078.05L147.447,1074.404C147.47,1073.994 147.231,1073.726 146.822,1073.703L138.788,1073.246C138.378,1073.223 138.139,1072.954 138.163,1072.545L138.37,1068.898C138.394,1068.489 138.661,1068.25 139.071,1068.273L148.86,1068.83C149.269,1068.853 149.537,1068.614 149.561,1068.205L149.768,1064.559C149.791,1064.149 149.552,1063.881 149.143,1063.858L133.894,1062.99C133.485,1062.967 133.217,1063.206 133.193,1063.615L131.843,1087.346C131.819,1087.756 132.058,1088.024 132.468,1088.047L147.717,1088.915ZM160.96,1092.7L163.619,1093.554C167.375,1094.761 170.665,1093.972 172.494,1091.216C172.731,1090.861 172.809,1090.619 172.845,1090.508C172.899,1090.34 172.854,1090.162 172.654,1090.016L169.664,1087.701C169.583,1087.634 169.496,1087.585 169.403,1087.555C169.18,1087.484 168.872,1087.545 168.689,1087.798C167.813,1088.993 166.723,1089.32 165.161,1088.818L162.484,1087.958C161.015,1087.486 160.407,1086.121 160.879,1084.652L164.123,1074.555C164.566,1073.179 165.866,1072.325 167.353,1072.803L170.031,1073.664C171.593,1074.166 172.332,1075.121 172.304,1076.548C172.307,1076.857 172.52,1077.089 172.743,1077.161C172.836,1077.191 172.935,1077.202 173.04,1077.195L176.819,1077.055C177.066,1077.055 177.207,1076.934 177.26,1076.766C177.296,1076.655 177.314,1076.599 177.328,1076.173C177.447,1072.867 175.292,1070.123 171.555,1068.922L168.877,1068.062C163.819,1066.436 160.393,1068.289 159.096,1072.324L155.493,1083.537C154.143,1087.74 155.716,1091.015 160.96,1092.7L160.96,1092.7ZM176.216,1098.192L179.688,1100.448C180.032,1100.671 180.383,1100.596 180.607,1100.252L184.66,1094.012L187.153,1093.186C187.272,1093.147 187.44,1093.139 187.522,1093.196C187.653,1093.281 187.693,1093.47 187.689,1093.584L187.56,1105.075C187.558,1105.401 187.697,1105.653 187.927,1105.803L191.989,1108.441C192.333,1108.664 192.684,1108.59 192.918,1108.23C193.003,1108.098 193.034,1107.979 193.032,1107.838L192.672,1091.72C192.67,1091.579 192.659,1091.525 192.691,1091.476C192.723,1091.427 192.76,1091.405 192.906,1091.36L204.38,1087.68C204.515,1087.651 204.67,1087.519 204.766,1087.372C204.989,1087.028 204.915,1086.677 204.571,1086.453L200.804,1084.006C200.623,1083.889 200.433,1083.859 200.223,1083.932L188.175,1088.031C188.711,1087.564 189.373,1086.76 189.916,1085.924L193.661,1080.159C193.884,1079.815 193.81,1079.464 193.466,1079.24L189.993,1076.985C189.649,1076.761 189.298,1076.836 189.075,1077.18L176.02,1097.277C175.797,1097.621 175.872,1097.972 176.216,1098.196L176.216,1098.192ZM206.009,1123.539C206.284,1123.843 206.642,1123.861 206.947,1123.586L209.654,1121.135C209.959,1120.86 209.976,1120.501 209.701,1120.197L203.122,1112.928C202.846,1112.624 202.864,1112.265 203.168,1111.99L206.021,1109.408C206.325,1109.133 206.684,1109.151 206.959,1109.455L212.359,1115.421C212.634,1115.725 212.993,1115.743 213.297,1115.468L216.005,1113.017C216.309,1112.742 216.327,1112.383 216.051,1112.079L210.652,1106.113C210.376,1105.809 210.394,1105.45 210.698,1105.175L213.406,1102.724C213.71,1102.449 214.069,1102.467 214.344,1102.771L220.924,1110.041C221.199,1110.345 221.557,1110.362 221.862,1110.088L224.569,1107.637C224.874,1107.361 224.891,1107.003 224.616,1106.699L214.367,1095.375C214.092,1095.071 213.733,1095.053 213.429,1095.328L195.806,1111.278C195.502,1111.553 195.484,1111.912 195.759,1112.216L206.009,1123.539Z" style="fill:white;fill-rule:nonzero;"/>
            <g id="path1942-3" transform="matrix(-0.955094,0.296302,-0.296302,-0.955094,0,0)">
                <circle cx="220.237" cy="-1164.33" r="88.987" style="fill:none;"/>
            </g>
        </g>
        <g transform="matrix(3.641499,0,0,3.641499,-292.997478,-146.215166)">
            <path d="M129,26.75L129,32.25C129,33.768 127.768,35 126.25,35L106.75,35C105.232,35 104,33.768 104,32.25L104,26.75C104,25.232 105.232,24 106.75,24L126.25,24C127.768,24 129,25.232 129,26.75Z" style="fill:rgb(253,204,12);"/>
        </g>
        <g transform="matrix(3.641499,0,0,3.641499,-292.997478,-95.234178)">
            <path d="M129,26.75L129,32.25C129,33.768 127.768,35 126.25,35L106.75,35C105.232,35 104,33.768 104,32.25L104,26.75C104,25.232 105.232,24 106.75,24L126.25,24C127.768,24 129,25.232 129,26.75Z" style="fill:rgb(122,142,250);"/>
        </g>
        <g transform="matrix(3.641499,0,0,3.641499,-292.997478,-44.253191)">
            <path d="M129,26.75L129,32.25C129,33.768 127.768,35 126.25,35L106.75,35C105.232,35 104,33.768 104,32.25L104,26.75C104,25.232 105.232,24 106.75,24L126.25,24C127.768,24 129,25.232 129,26.75Z" style="fill:rgb(30,59,253);"/>
        </g>
        <g transform="matrix(3.641499,0,0,3.641499,-292.997478,6.727797)">
            <path d="M129,26.75L129,32.25C129,33.768 127.768,35 126.25,35L106.75,35C105.232,35 104,33.768 104,32.25L104,26.75C104,25.232 105.232,24 106.75,24L126.25,24C127.768,24 129,25.232 129,26.75Z" style="fill:rgb(40,66,170);"/>
        </g>
        <g transform="matrix(3.641499,0,0,3.641499,-292.997478,57.708784)">
            <path d="M129,26.75L129,32.25C129,33.768 127.768,35 126.25,35L106.75,35C105.232,35 104,33.768 104,32.25L104,26.75C104,25.232 105.232,24 106.75,24L126.25,24C127.768,24 129,25.232 129,26.75Z" style="fill:rgb(14,22,117);"/>
        </g>
        <g transform="matrix(3.641499,0,0,3.641499,-292.997478,108.689772)">
            <path d="M129,26.75L129,32.25C129,33.768 127.768,35 126.25,35L106.75,35C105.232,35 104,33.768 104,32.25L104,26.75C104,25.232 105.232,24 106.75,24L126.25,24C127.768,24 129,25.232 129,26.75Z" style="fill:rgb(1,0,1);"/>
        </g>
        <g transform="matrix(3.641499,0,0,3.641499,-292.997478,159.670759)">
            <path d="M129,26.75L129,32.25C129,33.768 127.768,35 126.25,35L106.75,35C105.232,35 104,33.768 104,32.25L104,26.75C104,25.232 105.232,24 106.75,24L126.25,24C127.768,24 129,25.232 129,26.75Z" style="fill:rgb(254,255,254);stroke:black;stroke-width:0.23px;stroke-linecap:round;stroke-linejoin:round;stroke-miterlimit:1.5;"/>
        </g>
        <g transform="matrix(0.84511,0,0,0.84511,-330.38032,-190.065562)">
            <text x="506.448px" y="182.6px" style="font-family:'PTMono-Regular', 'PT Mono', monospace;font-size:18px;">#FFCC00</text>
        </g>
        <g transform="matrix(0.84511,0,0,0.84511,-330.38032,-139.084575)">
            <text x="506.448px" y="182.6px" style="font-family:'PTMono-Regular', 'PT Mono', monospace;font-size:18px;">#7A8EFA</text>
        </g>
        <g transform="matrix(0.84511,0,0,0.84511,-330.38032,-88.103587)">
            <text x="506.448px" y="182.6px" style="font-family:'PTMono-Regular', 'PT Mono', monospace;font-size:18px;fill:white;">#173BFF</text>
        </g>
        <g transform="matrix(0.84511,0,0,0.84511,-330.38032,-37.122599)">
            <text x="506.448px" y="182.6px" style="font-family:'PTMono-Regular', 'PT Mono', monospace;font-size:18px;fill:white;">#2C42AA</text>
        </g>
        <g transform="matrix(0.84511,0,0,0.84511,-330.38032,13.858388)">
            <text x="506.448px" y="182.6px" style="font-family:'PTMono-Regular', 'PT Mono', monospace;font-size:18px;fill:white;">#041675</text>
        </g>
        <g transform="matrix(0.84511,0,0,0.84511,-330.38032,64.839376)">
            <text x="506.448px" y="182.6px" style="font-family:'PTMono-Regular', 'PT Mono', monospace;font-size:18px;fill:white;">#000000</text>
        </g>
        <g transform="matrix(0.84511,0,0,0.84511,-330.38032,115.820363)">
            <text x="506.448px" y="182.6px" style="font-family:'PTMono-Regular', 'PT Mono', monospace;font-size:18px;">#FFFFFF</text>
        </g>
    </g>
</svg>
