<?xml version="1.0" encoding="UTF-8" standalone="no"?>
<!-- Created with Inkscape (http://www.inkscape.org/) -->

<svg
   width="64.874863mm"
   height="64.874496mm"
   viewBox="0 0 64.874863 64.874496"
   version="1.1"
   id="svg7409"
   inkscape:version="1.3 (0e150ed, 2023-07-21)"
   sodipodi:docname="branch-logo-Textiles-flat.svg"
   inkscape:export-filename="branch-logo-Textiles.png"
   inkscape:export-xdpi="195.76149"
   inkscape:export-ydpi="195.76149"
   xmlns:inkscape="http://www.inkscape.org/namespaces/inkscape"
   xmlns:sodipodi="http://sodipodi.sourceforge.net/DTD/sodipodi-0.dtd"
   xmlns="http://www.w3.org/2000/svg"
   xmlns:svg="http://www.w3.org/2000/svg">
  <sodipodi:namedview
     id="namedview7411"
     pagecolor="#ffffff"
     bordercolor="#666666"
     borderopacity="1.0"
     inkscape:showpageshadow="2"
     inkscape:pageopacity="0.0"
     inkscape:pagecheckerboard="0"
     inkscape:deskcolor="#d1d1d1"
     inkscape:document-units="mm"
     showgrid="false"
     inkscape:zoom="0.914906"
     inkscape:cx="-10.930085"
     inkscape:cy="191.27648"
     inkscape:window-width="1472"
     inkscape:window-height="891"
     inkscape:window-x="0"
     inkscape:window-y="37"
     inkscape:window-maximized="1"
     inkscape:current-layer="layer1" />
  <defs
     id="defs7406" />
  <g
     inkscape:label="Layer 1"
     inkscape:groupmode="layer"
     id="layer1"
     transform="translate(-36.101029,-97.988268)">
    <g
       id="g104033"
       transform="matrix(0.26458333,0,0,0.26458333,32.913445,-181.06888)">
      <circle
         id="path4602"
         style="fill:#ffffff;fill-opacity:1;stroke:none;stroke-width:0.349398"
         cx="134.64095"
         cy="1177.3047"
         r="119.42689" />
      <path
         id="path5802-1-36"
         style="fill:#7a8efa;fill-opacity:1;stroke:#041675;stroke-width:2.592;stroke-miterlimit:4;stroke-dasharray:none;stroke-opacity:1"
         d="m 134.46218,1056.0002 c -61.476445,0.016 -114.163386,46.6011 -120.492188,109.082 -6.7507459,66.6463 41.802942,126.1438 108.449218,132.8945 66.64631,6.7508 126.15163,-41.8029 132.90235,-108.4492 6.75075,-66.6463 -41.81076,-126.1438 -108.45704,-132.8945 -4.1654,-0.422 -8.30392,-0.6339 -12.40234,-0.6328 z m 0.38672,37.746 a 83.344971,83.344971 0 0 1 83.34375,83.3458 83.344971,83.344971 0 0 1 -83.34375,83.3437 83.344971,83.344971 0 0 1 -77.226564,-52.0039 l -6.609375,15.4121 -13.103516,2.0059 -12.541015,-26.2227 5.017578,-7.3652 12.085937,-0.1504 9.699219,-25.543 a 83.344971,83.344971 0 0 1 82.677736,-72.8223 z" />
      <path
         style="font-size:40px;line-height:1.25;font-family:'Politics Head';-inkscape-font-specification:'Politics Head, Normal';letter-spacing:4.78px;fill:#ffffff"
         d="m 56.504672,1260.4734 3.059171,2.7904 c 0.303031,0.2764 0.66173,0.2599 0.938136,-0.043 l 12.66203,-13.8817 c 0.276406,-0.3031 0.635105,-0.3195 0.938136,-0.043 l 3.232332,2.9483 c 0.303031,0.2764 0.66173,0.2599 0.938136,-0.043 l 2.46133,-2.6984 c 0.276406,-0.3031 0.259924,-0.6618 -0.04311,-0.9382 l -11.486322,-10.4771 c -0.303031,-0.2764 -0.66173,-0.2599 -0.938136,0.043 l -2.46133,2.6984 c -0.276406,0.3031 -0.259924,0.6618 0.04311,0.9382 l 3.232332,2.9483 c 0.303031,0.2764 0.319513,0.6351 0.04311,0.9382 l -12.662029,13.8817 c -0.276407,0.303 -0.259924,0.6617 0.04311,0.9381 z m 29.575984,20.5123 c 0.357759,0.2006 0.703404,0.1033 0.903995,-0.2545 l 1.786214,-3.1858 c 0.200591,-0.3577 0.103296,-0.7034 -0.254462,-0.904 l -8.552142,-4.795 c -0.357759,-0.2006 -0.455054,-0.5463 -0.254463,-0.904 l 1.881734,-3.3561 c 0.200591,-0.3578 0.546236,-0.4551 0.903995,-0.2545 l 7.018889,3.9354 c 0.357759,0.2006 0.703404,0.1033 0.903995,-0.2545 l 1.786214,-3.1857 c 0.200591,-0.3578 0.103297,-0.7034 -0.254462,-0.904 l -7.01889,-3.9354 c -0.357758,-0.2006 -0.455053,-0.5463 -0.254462,-0.904 l 1.786214,-3.1858 c 0.200591,-0.3577 0.546236,-0.455 0.903995,-0.2544 l 8.552142,4.795 c 0.357759,0.2006 0.703404,0.1033 0.903995,-0.2544 l 1.786214,-3.1858 c 0.200591,-0.3577 0.103296,-0.7034 -0.254463,-0.904 l -13.32226,-7.4696 c -0.357759,-0.2006 -0.703404,-0.1033 -0.903995,0.2545 l -11.62472,20.7329 c -0.200591,0.3578 -0.103297,0.7035 0.254462,0.904 z m 22.284904,-12.3315 -1.21707,-6.348 c -0.0546,-0.2386 -0.2162,-0.3855 -0.53582,-0.4754 l -4.85079,-1.3645 c -0.18801,-0.053 -0.38073,0.055 -0.42305,0.2056 -0.0317,0.1128 -0.0394,0.2121 -0.0176,0.2791 l 3.04521,12.5433 c 0.03,0.1098 0.0411,0.2144 0.004,0.346 -0.0264,0.094 -0.077,0.2016 -0.18921,0.312 l -9.776282,9.8698 c -0.08285,0.078 -0.152186,0.1804 -0.178631,0.2744 -0.05818,0.2068 0.04699,0.3379 0.347809,0.4225 l 4.850785,1.3646 c 0.413632,0.1163 0.668049,0.01 0.873709,-0.2209 l 2.64709,-2.8466 c 1.53596,-1.6374 2.66415,-3.2678 2.96563,-4.3395 l 0.11281,0.032 c 0.0564,0.6651 0.31774,2.2604 0.40056,2.8315 l 1.13128,6.3644 c 0.0388,0.295 0.17918,0.5171 0.59281,0.6335 l 4.92599,1.3857 c 0.26322,0.074 0.49648,0.038 0.55466,-0.1686 0.0265,-0.094 0.0235,-0.1557 -0.02,-0.2897 l -3.06988,-12.672 c -0.0435,-0.1339 -0.0922,-0.2491 -0.0552,-0.3807 0.037,-0.1316 0.11987,-0.2098 0.20272,-0.2879 l 9.66934,-9.7782 c 0.0347,-0.051 0.0852,-0.1586 0.11165,-0.2526 0.0423,-0.1504 -0.0364,-0.3754 -0.24322,-0.4336 l -5.09521,-1.4333 c -0.26322,-0.074 -0.50999,-0.062 -0.68627,0.1315 l -2.63651,2.809 c -1.85033,2.178 -2.61656,3.0986 -2.94038,4.6104 l -0.11281,-0.032 c -0.0564,-0.6651 -0.30539,-2.5206 -0.38821,-3.0917 z m 19.22466,22.7428 4.13647,0.1855 c 0.40974,0.018 0.67477,-0.2239 0.69314,-0.6336 l 0.84164,-18.7702 c 0.0184,-0.4098 0.28339,-0.6521 0.69314,-0.6337 l 4.37061,0.196 c 0.40974,0.018 0.67477,-0.2239 0.69314,-0.6337 l 0.1636,-3.6486 c 0.0184,-0.4098 -0.2239,-0.6748 -0.63365,-0.6932 l -15.53127,-0.6964 c -0.40974,-0.018 -0.67477,0.2239 -0.69314,0.6337 l -0.1636,3.6486 c -0.0184,0.4098 0.2239,0.6748 0.63365,0.6932 l 4.3706,0.1959 c 0.40975,0.018 0.65203,0.2834 0.63365,0.6932 l -0.84163,18.7702 c -0.0184,0.4097 0.2239,0.6748 0.63365,0.6931 z m 20.80121,-0.5932 4.10114,-0.5704 c 0.40625,-0.057 0.62276,-0.3429 0.56626,-0.7492 l -3.30135,-23.7363 c -0.0565,-0.4063 -0.34297,-0.6228 -0.74921,-0.5663 l -4.10115,0.5704 c -0.40625,0.057 -0.62276,0.343 -0.56625,0.7492 l 3.30134,23.7364 c 0.0565,0.4062 0.34297,0.6227 0.74922,0.5662 z m 16.23505,-2.9899 13.79909,-4.6163 c 0.38897,-0.1301 0.5492,-0.4515 0.41908,-0.8405 l -1.15873,-3.4636 c -0.13012,-0.389 -0.45146,-0.5492 -0.84043,-0.4191 l -8.61286,2.8813 c -0.38896,0.1301 -0.71031,-0.03 -0.84043,-0.4191 l -6.02289,-18.0036 c -0.13012,-0.389 -0.45147,-0.5492 -0.84044,-0.4191 l -3.92672,1.3137 c -0.38896,0.1301 -0.5492,0.4514 -0.41908,0.8404 l 7.60297,22.7268 c 0.13013,0.389 0.45147,0.5492 0.84044,0.4191 z m 36.75527,-17.3907 c 0.34904,-0.2154 0.43176,-0.5648 0.21635,-0.9138 l -1.91815,-3.1081 c -0.21541,-0.3491 -0.56483,-0.4318 -0.91387,-0.2164 l -8.34367,5.1493 c -0.34904,0.2154 -0.69846,0.1327 -0.91387,-0.2164 l -2.02073,-3.2743 c -0.21541,-0.349 -0.13268,-0.6984 0.21636,-0.9138 l 6.84779,-4.2261 c 0.34904,-0.2154 0.43176,-0.5649 0.21635,-0.9139 l -1.91815,-3.1081 c -0.21541,-0.349 -0.56483,-0.4318 -0.91387,-0.2164 l -6.84779,4.2261 c -0.34904,0.2154 -0.69846,0.1327 -0.91387,-0.2163 l -1.91815,-3.1081 c -0.21541,-0.3491 -0.13269,-0.6985 0.21635,-0.9139 l 8.34367,-5.1493 c 0.34904,-0.2154 0.43176,-0.5648 0.21635,-0.9138 l -1.91815,-3.1081 c -0.21541,-0.3491 -0.56483,-0.4318 -0.91387,-0.2164 l -12.99751,8.0214 c -0.34904,0.2154 -0.43176,0.5648 -0.21635,0.9139 l 12.4834,20.2276 c 0.21541,0.349 0.56483,0.4317 0.91387,0.2163 z m 14.11087,-11.8428 c 3.95514,-3.9446 4.14061,-8.3775 0.83049,-11.6965 -2.41363,-2.4201 -5.94894,-2.5906 -10.86879,-0.1665 -3.04034,1.4875 -4.33873,1.6238 -5.22143,0.7388 -0.91028,-0.9128 -0.88066,-2.4043 0.46076,-3.7421 1.20314,-1.1999 2.65372,-1.5433 3.96509,-1.0581 0.30369,0.1109 0.57997,0.056 0.74592,-0.1095 0.0691,-0.069 0.1245,-0.1518 0.16606,-0.2484 l 1.60663,-3.4229 c 0.11078,-0.2208 0.0696,-0.4004 -0.0545,-0.5249 -0.0828,-0.083 -0.12413,-0.1244 -0.49674,-0.3321 -3.05022,-1.4542 -6.53162,-0.6302 -9.4634,2.2937 -3.73387,3.7239 -3.71265,8.5024 -1.21626,11.0055 2.71706,2.7244 6.1556,2.9638 11.13091,0.374 3.05429,-1.5841 4.42141,-1.4856 5.30411,-0.6006 0.97925,0.9819 0.94967,2.4458 -0.47474,3.8664 -1.54886,1.5447 -3.02699,1.8328 -4.42119,1.3199 -0.30368,-0.1109 -0.57997,-0.056 -0.74592,0.1095 -0.0691,0.069 -0.1245,0.1517 -0.16606,0.2484 l -1.64837,3.6576 c -0.11078,0.2208 -0.0696,0.4004 0.0545,0.5249 0.0828,0.083 0.12413,0.1244 0.49674,0.3321 3.02237,1.6199 6.82166,0.6168 10.01619,-2.5692 z"
         id="text1875-2-1"
         aria-label="textiles" />
      <circle
         style="fill:none;fill-opacity:1;stroke:none;stroke-opacity:1"
         id="path1942-2-6"
         cx="696.32288"
         cy="959.37427"
         transform="matrix(-0.73727879,0.67558862,0.67558862,0.73727879,0,0)"
         r="113.84999" />
      <circle
         style="fill:none;fill-opacity:1;stroke:none;stroke-opacity:1"
         id="path1942-32"
         cx="-443.97198"
         cy="-1097.5483"
         r="90.70443"
         transform="rotate(-164.5)" />
      <path
         sodipodi:nodetypes="ccccccccccc"
         inkscape:connector-curvature="0"
         id="path2987-9-0-1-3"
         d="m 149.91804,1162.6287 0.0442,33.8347 -60.831271,-0.092 -0.16805,26.7808 105.802401,0.4347 0.74115,-80.7213 -107.593511,0.1033 0.7436,32.193 h 18.520861 l -0.21354,-12.7038 z"
         style="fill:#7a8efa;fill-opacity:1;stroke:#2c42aa;stroke-width:8.29425;stroke-linecap:round;stroke-linejoin:round;stroke-miterlimit:4;stroke-dasharray:none;stroke-opacity:1;marker-start:none;marker-end:none" />
      <path
         inkscape:connector-curvature="0"
         id="path11012"
         d="m 96.649629,1182.7484 1.03655,10.1308 1.27199,-11.622 z"
         style="fill:#2c42aa;fill-opacity:1;stroke:#2c42aa;stroke-width:0.956896px;stroke-linecap:butt;stroke-linejoin:miter;stroke-opacity:1"
         sodipodi:nodetypes="cccc" />
      <ellipse
         cy="1183.6649"
         cx="174.19302"
         id="path11022"
         style="fill:#2c42aa;fill-opacity:1;stroke:none;stroke-width:1.32437;stroke-linecap:round;stroke-linejoin:round;stroke-miterlimit:4;stroke-dasharray:none;stroke-dashoffset:0;stroke-opacity:1;paint-order:normal"
         rx="12.796455"
         ry="12.98893" />
      <ellipse
         cy="1157.6309"
         cx="174.39987"
         id="path11022-9"
         style="fill:#2c42aa;fill-opacity:1;stroke:none;stroke-width:0.590945;stroke-linecap:round;stroke-linejoin:round;stroke-miterlimit:4;stroke-dasharray:none;stroke-dashoffset:0;stroke-opacity:1;paint-order:normal"
         rx="5.7098746"
         ry="5.7957578" />
      <path
         sodipodi:nodetypes="cc"
         inkscape:connector-curvature="0"
         id="path4536-0-2-3-62-62-7"
         d="m 203.95228,1177.765 0.24788,-22.8688"
         style="fill:none;stroke:#2c42aa;stroke-width:8.29425;stroke-linecap:round;stroke-linejoin:round;stroke-miterlimit:4;stroke-dasharray:none;stroke-opacity:1;marker-start:none;marker-end:none" />
      <path
         sodipodi:nodetypes="cc"
         inkscape:connector-curvature="0"
         id="path4536-0-2-3-62-62-7-1"
         d="m 97.808849,1181.2215 -0.0866,-5.8172"
         style="fill:none;stroke:#2c42aa;stroke-width:8.29425;stroke-linecap:round;stroke-linejoin:round;stroke-miterlimit:4;stroke-dasharray:none;stroke-opacity:1;marker-start:none;marker-end:none" />
      <path
         sodipodi:nodetypes="cc"
         inkscape:connector-curvature="0"
         id="path4536-0-2-3-62-62-7-1-2"
         d="m 165.87551,1141.9845 -0.14601,-19.1641"
         style="fill:none;stroke:#2c42aa;stroke-width:8.29425;stroke-linecap:round;stroke-linejoin:round;stroke-miterlimit:4;stroke-dasharray:none;stroke-opacity:1;marker-start:none;marker-end:none" />
      <path
         sodipodi:nodetypes="ccc"
         inkscape:connector-curvature="0"
         id="path4536-0-2-3-62-62-7-1-2-7"
         d="m 157.64196,1129.3992 -48.56255,0.064 -6.05029,5.183"
         style="fill:none;stroke:#173bff;stroke-width:8.29425;stroke-linecap:round;stroke-linejoin:round;stroke-miterlimit:4;stroke-dasharray:none;stroke-opacity:1;marker-start:none;marker-end:none" />
      <path
         sodipodi:nodetypes="cccccc"
         inkscape:connector-curvature="0"
         id="path4536-0-2-3-62-62-7-1-2-7-0"
         d="m 88.166889,1188.0517 -11.15429,-12.0092 -10.520318,25.9013 -8.148289,-25.7348 -14.666472,39.0344 -6.3124,-13.1441"
         style="fill:none;stroke:#173bff;stroke-width:8.29425;stroke-linecap:round;stroke-linejoin:round;stroke-miterlimit:4;stroke-dasharray:none;stroke-opacity:1;marker-start:none;marker-end:none" />
      <circle
         style="fill:#ffcc00;fill-opacity:1;stroke:none;stroke-width:0.259195"
         id="path7538-9-26-6-4-55"
         cx="165.75952"
         cy="1122.8267"
         r="3.8879318" />
      <circle
         style="fill:#ffffff;fill-opacity:1;stroke:none;stroke-width:0.259195"
         id="path7614-7-64-1-47-47"
         cx="165.75952"
         cy="1122.8267"
         r="2.5919547" />
      <circle
         style="fill:#ffcc00;fill-opacity:1;stroke:none;stroke-width:0.259195"
         id="path7538-9-26-6-4-3-5"
         cx="157.41721"
         cy="1129.361"
         r="3.8879318" />
      <circle
         style="fill:#ffffff;fill-opacity:1;stroke:none;stroke-width:0.259195"
         id="path7614-7-64-1-47-6-6"
         cx="157.41721"
         cy="1129.361"
         r="2.5919547" />
      <circle
         style="fill:#ffcc00;fill-opacity:1;stroke:none;stroke-width:0.259195"
         id="path7538-9-26-6-4-6-37"
         cx="103.16271"
         cy="1134.4735"
         r="3.8879318" />
      <circle
         style="fill:#ffffff;fill-opacity:1;stroke:none;stroke-width:0.259195"
         id="path7614-7-64-1-47-2"
         cx="103.16271"
         cy="1134.4735"
         r="2.5919547" />
      <circle
         style="fill:#ffcc00;fill-opacity:1;stroke:none;stroke-width:0.259195"
         id="path7538-9-26-6-4-1"
         cx="88.39872"
         cy="1143.5365"
         r="3.8879318" />
      <circle
         style="fill:#ffffff;fill-opacity:1;stroke:none;stroke-width:0.259195"
         id="path7614-7-64-1-47-8-5"
         cx="88.39872"
         cy="1143.5365"
         r="2.5919547" />
      <circle
         style="fill:#ffcc00;fill-opacity:1;stroke:none;stroke-width:0.259195"
         id="path7538-9-26-6-4-9-4"
         cx="195.0585"
         cy="1143.3185"
         r="3.8879318" />
      <circle
         style="fill:#ffffff;fill-opacity:1;stroke:none;stroke-width:0.259195"
         id="path7614-7-64-1-47-20"
         cx="195.0585"
         cy="1143.3185"
         r="2.5919547" />
      <circle
         style="fill:#ffcc00;fill-opacity:1;stroke:none;stroke-width:0.259195"
         id="path7538-9-26-6-4-37-4"
         cx="194.46642"
         cy="1223.1617"
         r="3.8879318" />
      <circle
         style="fill:#ffffff;fill-opacity:1;stroke:none;stroke-width:0.259195"
         id="path7614-7-64-1-47-5-3"
         cx="194.46642"
         cy="1223.1617"
         r="2.5919547" />
      <circle
         style="fill:#ffcc00;fill-opacity:1;stroke:none;stroke-width:0.259195"
         id="path7538-9-26-6-4-2-0"
         cx="89.441582"
         cy="1222.7987"
         r="3.8879318" />
      <circle
         style="fill:#ffffff;fill-opacity:1;stroke:none;stroke-width:0.259195"
         id="path7614-7-64-1-47-89"
         cx="89.441582"
         cy="1222.7987"
         r="2.5919547" />
      <circle
         style="fill:#ffcc00;fill-opacity:1;stroke:none;stroke-width:0.259195"
         id="path7538-9-26-6-4-61"
         cx="97.763458"
         cy="1180.827"
         r="3.8879318" />
      <circle
         style="fill:#ffffff;fill-opacity:1;stroke:none;stroke-width:0.259195"
         id="path7614-7-64-1-47-29"
         cx="97.763458"
         cy="1180.827"
         r="2.5919547" />
      <circle
         style="fill:#ffcc00;fill-opacity:1;stroke:none;stroke-width:0.259195"
         id="path7538-9-26-6-4-19"
         cx="174.3365"
         cy="1157.6027"
         r="3.8879318" />
      <circle
         style="fill:#ffffff;fill-opacity:1;stroke:none;stroke-width:0.259195"
         id="path7614-7-64-1-47-4-6"
         cx="174.3365"
         cy="1157.6027"
         r="2.5919547" />
      <circle
         style="fill:#ffcc00;fill-opacity:1;stroke:none;stroke-width:0.259195"
         id="path7538-9-26-6-4-10"
         cx="203.95578"
         cy="1177.7362"
         r="3.8879318" />
      <circle
         style="fill:#ffffff;fill-opacity:1;stroke:none;stroke-width:0.259195"
         id="path7614-7-64-1-47-63-8"
         cx="203.95578"
         cy="1177.7362"
         r="2.5919547" />
      <circle
         style="fill:#ffcc00;fill-opacity:1;stroke:none;stroke-width:0.259195"
         id="path7538-9-26-6-4-615"
         cx="88.104454"
         cy="1188.0126"
         r="3.8879318" />
      <circle
         style="fill:#ffffff;fill-opacity:1;stroke:none;stroke-width:0.259195"
         id="path7614-7-64-1-47-54"
         cx="88.104454"
         cy="1188.0126"
         r="2.5919547" />
      <circle
         style="fill:#ffcc00;fill-opacity:1;stroke:none;stroke-width:0.259195"
         id="path7538-9-26-6-4-19-6"
         cx="174.38484"
         cy="1183.46"
         r="3.8879318" />
      <circle
         style="fill:#ffffff;fill-opacity:1;stroke:none;stroke-width:0.259195"
         id="path7614-7-64-1-47-4-5"
         cx="174.38484"
         cy="1183.46"
         r="2.5919547" />
      <circle
         style="fill:#ffcc00;fill-opacity:1;stroke:none;stroke-width:0.259195"
         id="path7538-9-26-6-4-615-9"
         cx="37.385269"
         cy="1202.1545"
         r="3.8879318" />
      <circle
         style="fill:#ffffff;fill-opacity:1;stroke:none;stroke-width:0.259195"
         id="path7614-7-64-1-47-54-3"
         cx="37.385269"
         cy="1202.1545"
         r="2.5919547" />
      <circle
         style="fill:#ffcc00;fill-opacity:1;stroke:none;stroke-width:0.259195"
         id="path7538-9-26-6-4-5-4"
         cx="149.57152"
         cy="1162.8116"
         r="3.8879318" />
      <circle
         style="fill:#ffffff;fill-opacity:1;stroke:none;stroke-width:0.259195"
         id="path7614-7-64-1-47-25"
         cx="149.57152"
         cy="1162.8116"
         r="2.5919547" />
      <circle
         style="fill:#ffcc00;fill-opacity:1;stroke:none;stroke-width:0.259195"
         id="path7538-9-26-6-4-44"
         cx="149.71878"
         cy="1196.3481"
         r="3.8879318" />
      <circle
         style="fill:#ffffff;fill-opacity:1;stroke:none;stroke-width:0.259195"
         id="path7614-7-64-1-47-3-3"
         cx="149.71878"
         cy="1196.3481"
         r="2.5919547" />
      <circle
         style="fill:#ffcc00;fill-opacity:1;stroke:none;stroke-width:0.259195"
         id="path7538-9-26-6-4-8-1"
         cx="107.2158"
         cy="1162.6917"
         r="3.8879318" />
      <circle
         style="fill:#ffffff;fill-opacity:1;stroke:none;stroke-width:0.259195"
         id="path7614-7-64-1-47-68"
         cx="107.2158"
         cy="1162.6917"
         r="2.5919547" />
      <circle
         style="fill:#ffcc00;fill-opacity:1;stroke:none;stroke-width:0.259195"
         id="path7538-9-26-6-4-43"
         cx="89.401398"
         cy="1196.5657"
         r="3.8879318" />
      <circle
         style="fill:#ffffff;fill-opacity:1;stroke:none;stroke-width:0.259195"
         id="path7614-7-64-1-47-1-92"
         cx="89.401398"
         cy="1196.5657"
         r="2.5919547" />
      <circle
         style="fill:#ffcc00;fill-opacity:1;stroke:none;stroke-width:0.259195"
         id="path7538-9-26-6-4-4-06"
         cx="204.20009"
         cy="1154.9955"
         r="3.8879318" />
      <circle
         style="fill:#ffffff;fill-opacity:1;stroke:none;stroke-width:0.259195"
         id="path7614-7-64-1-47-50"
         cx="204.20009"
         cy="1154.9955"
         r="2.5919547" />
      <path
         style="font-size:40px;line-height:1.25;font-family:'Politics Head';-inkscape-font-specification:'Politics Head';fill:#ffffff"
         d="m 67.225666,1118.5703 3.011612,-2.8417 c 0.29832,-0.2815 0.308742,-0.6404 0.02726,-0.9387 l -5.482237,-5.8101 c -1.755925,-1.861 -3.817962,-3.6479 -4.809281,-4.2432 l 0.113645,-0.1072 c 0.05362,0.057 0.858883,0.398 1.776193,0.6871 l 14.666176,4.0458 c 0.274494,0.063 0.455962,-6e-4 0.640636,-0.1748 l 2.755909,-2.6004 c 0.29832,-0.2815 0.308742,-0.6404 0.02726,-0.9387 L 63.506122,1088.218 c -0.281484,-0.2984 -0.640411,-0.3088 -0.938731,-0.027 l -3.011612,2.8416 c -0.29832,0.2815 -0.308742,0.6405 -0.02726,0.9388 l 5.509046,5.8385 c 1.514652,1.6053 3.914194,3.6645 5.513505,4.7334 l -0.113646,0.1072 c -0.231075,-0.131 -1.365254,-0.5647 -2.242351,-0.8112 l -14.943652,-4.4821 c -0.205871,-0.047 -0.414948,0.015 -0.599622,0.1898 l -2.784321,2.6272 c -0.29832,0.2815 -0.308742,0.6404 -0.02726,0.9387 l 16.446714,17.4304 c 0.281484,0.2983 0.64041,0.3088 0.93873,0.027 z m 8.341328,-41.1412 1.917428,-1.0117 c 0.673691,-0.3555 0.959277,-1.2791 0.603811,-1.9528 l -0.519528,-0.9846 c -0.364581,-0.691 -1.261794,-0.9684 -1.952759,-0.6038 l -1.917428,1.0117 c -0.742787,0.3919 -0.968391,1.2618 -0.603811,1.9528 l 0.519528,0.9846 c 0.355466,0.6737 1.279068,0.9593 1.952759,0.6038 z m 8.118838,-4.2838 1.917427,-1.0117 c 0.673691,-0.3555 0.959277,-1.2791 0.603811,-1.9528 l -0.519527,-0.9846 c -0.364581,-0.691 -1.261795,-0.9684 -1.95276,-0.6038 l -1.917427,1.0117 c -0.742788,0.3919 -0.968392,1.2618 -0.603811,1.9527 l 0.519527,0.9847 c 0.355467,0.6737 1.279069,0.9593 1.95276,0.6038 z m 3.194004,18.6093 c -0.310934,0.164 -0.470221,0.071 -0.536887,-0.1805 l -1.933673,-8.5197 -0.287325,-0.7538 0.604594,-0.319 0.460066,0.6626 5.923996,6.4143 c 0.170311,0.1972 0.139582,0.3901 -0.171352,0.5541 z m 7.696454,1.5702 c 0.259112,-0.1367 0.363712,-0.1477 0.506679,-0 l 2.425153,2.6291 c 0.142968,0.1454 0.309459,0.168 0.499475,0.068 l 4.283983,-2.2604 c 0.25911,-0.1367 0.33446,-0.2868 0.24331,-0.4596 -0.0273,-0.052 -0.0456,-0.086 -0.13481,-0.1718 l -17.714516,-18.213 c -0.1967,-0.2054 -0.485065,-0.2079 -0.744177,-0.071 l -5.234059,2.7617 c -0.259112,0.1367 -0.419874,0.3761 -0.361367,0.6544 0,0 4.969603,24.6949 4.979672,24.7558 0.01103,0.1046 0.05851,0.2783 0.10408,0.3647 0.09114,0.1727 0.27491,0.1862 0.534022,0.049 l 4.266708,-2.2512 c 0.172742,-0.091 0.248088,-0.2414 0.208765,-0.4414 l -0.801386,-3.4859 c -0.03932,-0.2001 0.01154,-0.2711 0.287931,-0.417 z m 12.57758,-1.1373 4.04857,-0.8682 c 0.40104,-0.086 0.59606,-0.3875 0.51005,-0.7886 l -1.9126,-8.9183 c -0.086,-0.401 0.10902,-0.7025 0.51005,-0.7885 l 6.97042,-1.4949 c 0.40104,-0.086 0.70254,0.109 0.78855,0.5101 l 1.9126,8.9183 c 0.086,0.401 0.3875,0.596 0.78854,0.51 l 4.04857,-0.8682 c 0.40104,-0.086 0.59606,-0.3875 0.51005,-0.7886 l -5.02517,-23.432 c -0.086,-0.401 -0.38751,-0.5961 -0.78855,-0.5101 l -4.04857,0.8683 c -0.40104,0.086 -0.59606,0.3875 -0.51005,0.7885 l 1.78973,8.3454 c 0.086,0.4011 -0.10901,0.7026 -0.51005,0.7886 l -6.97042,1.4948 c -0.40103,0.086 -0.70254,-0.109 -0.78854,-0.51 l -1.78974,-8.3454 c -0.086,-0.4011 -0.3875,-0.5961 -0.78854,-0.5101 l -4.04857,0.8683 c -0.40104,0.086 -0.59606,0.3875 -0.51005,0.7885 l 5.02517,23.4321 c 0.086,0.401 0.38751,0.596 0.78855,0.51 z m 40.5628,-3.2725 c 0.40949,0.023 0.67741,-0.2158 0.70072,-0.6253 l 0.20754,-3.6464 c 0.0233,-0.4095 -0.21576,-0.6774 -0.62526,-0.7007 l -9.78884,-0.5572 c -0.4095,-0.023 -0.64857,-0.2912 -0.62526,-0.7007 l 0.21864,-3.8414 c 0.0233,-0.4095 0.29123,-0.6486 0.70072,-0.6253 l 8.03387,0.4573 c 0.4095,0.023 0.67742,-0.2158 0.70073,-0.6253 l 0.20753,-3.6464 c 0.0233,-0.4095 -0.21576,-0.6775 -0.62525,-0.7008 l -8.03387,-0.4572 c -0.4095,-0.023 -0.64857,-0.2912 -0.62526,-0.7007 l 0.20754,-3.6465 c 0.0233,-0.4095 0.29123,-0.6485 0.70072,-0.6252 l 9.78885,0.5571 c 0.40949,0.023 0.67741,-0.2158 0.70072,-0.6253 l 0.20754,-3.6464 c 0.0233,-0.4095 -0.21576,-0.6774 -0.62526,-0.7007 l -15.24876,-0.8679 c -0.40949,-0.023 -0.67741,0.2158 -0.70072,0.6252 l -1.35066,23.7312 c -0.0233,0.4095 0.21576,0.6774 0.62526,0.7007 z m 13.2432,3.7845 2.65905,0.8545 c 3.75615,1.207 7.04595,0.4178 8.87527,-2.3383 0.23705,-0.3546 0.31473,-0.5964 0.35058,-0.7079 0.0538,-0.1674 0.009,-0.346 -0.19063,-0.4921 l -2.98989,-2.3148 c -0.081,-0.067 -0.16802,-0.1155 -0.26099,-0.1454 -0.22314,-0.072 -0.53127,-0.01 -0.71387,0.2425 -0.87649,1.1954 -1.96623,1.5222 -3.52819,1.0203 l -2.67765,-0.8604 c -1.46899,-0.4721 -2.07674,-1.8367 -1.60469,-3.3057 l 3.24455,-10.097 c 0.44217,-1.376 1.74237,-2.2301 3.22996,-1.7521 l 2.67765,0.8604 c 1.56196,0.502 2.30116,1.4575 2.27338,2.8846 0.003,0.3088 0.21587,0.5412 0.43901,0.6129 0.093,0.03 0.19192,0.041 0.29685,0.034 l 3.77862,-0.1398 c 0.24704,-0 0.38781,-0.1215 0.44159,-0.2889 0.0359,-0.1116 0.0538,-0.1673 0.0677,-0.5937 0.1186,-3.3058 -2.03591,-6.0496 -5.77346,-7.2506 l -2.67765,-0.8605 c -5.05778,-1.6252 -8.4843,0.2278 -9.78092,4.2629 l -3.60307,11.2127 c -1.3504,4.2024 0.22307,7.4775 5.46681,9.1625 z m 15.25565,5.4924 3.47238,2.2556 c 0.34396,0.2234 0.6952,0.1488 0.91862,-0.1952 l 4.05355,-6.2405 2.49297,-0.8261 c 0.11871,-0.039 0.28656,-0.047 0.36846,0.01 0.13103,0.085 0.17121,0.2742 0.16715,0.388 l -0.12826,11.4918 c -0.002,0.3251 0.13692,0.578 0.36622,0.727 l 4.06203,2.6385 c 0.34397,0.2234 0.6952,0.1488 0.92927,-0.2115 0.0851,-0.1311 0.11619,-0.2506 0.11451,-0.3914 l -0.36036,-16.1179 c -0.002,-0.1408 -0.0132,-0.1948 0.0188,-0.244 0.0319,-0.049 0.0696,-0.071 0.2153,-0.1163 l 11.47342,-3.6799 c 0.1351,-0.029 0.29062,-0.1606 0.38638,-0.308 0.22342,-0.344 0.1488,-0.6952 -0.19516,-0.9187 l -3.7672,-2.447 c -0.18018,-0.117 -0.37014,-0.1472 -0.58055,-0.074 l -12.04808,4.0985 c 0.53616,-0.4669 1.19832,-1.2711 1.74092,-2.1065 l 3.745,-5.7654 c 0.22343,-0.344 0.14881,-0.6952 -0.19515,-0.9186 l -3.47239,-2.2556 c -0.34396,-0.2234 -0.6952,-0.1488 -0.91862,0.1952 l -13.05433,20.0972 c -0.22342,0.344 -0.1488,0.6952 0.19516,0.9186 z m 29.79304,25.3472 c 0.27523,0.3041 0.63387,0.322 0.93796,0.047 l 2.70791,-2.4509 c 0.30409,-0.2752 0.32196,-0.6338 0.0467,-0.9379 l -6.57941,-7.2694 c -0.27523,-0.3041 -0.25736,-0.6627 0.0467,-0.9379 l 2.85271,-2.582 c 0.3041,-0.2752 0.66273,-0.2573 0.93797,0.047 l 5.39982,5.966 c 0.27524,0.3041 0.63387,0.322 0.93797,0.047 l 2.7079,-2.4509 c 0.3041,-0.2753 0.32196,-0.6339 0.0467,-0.938 l -5.39983,-5.9661 c -0.27523,-0.3041 -0.25736,-0.6627 0.0467,-0.9379 l 2.70791,-2.4509 c 0.30409,-0.2753 0.66272,-0.2574 0.93796,0.047 l 6.5794,7.2693 c 0.27523,0.3041 0.63387,0.322 0.93796,0.047 l 2.70791,-2.4509 c 0.30409,-0.2753 0.32196,-0.6339 0.0467,-0.938 l -10.24919,-11.3239 c -0.27524,-0.3041 -0.63387,-0.322 -0.93796,-0.047 l -17.6231,15.9505 c -0.30409,0.2752 -0.32196,0.6339 -0.0467,0.938 z"
         id="text1875-6"
         aria-label="            NÄhecke" />
      <circle
         style="fill:none;fill-opacity:1;stroke:none;stroke-opacity:1"
         id="path1942-3"
         cx="220.23703"
         cy="-1164.33"
         r="88.98661"
         transform="rotate(162.76439)" />
    </g>
  </g>
</svg>
