<?xml version="1.0" encoding="UTF-8" standalone="no"?>
<!DOCTYPE svg PUBLIC "-//W3C//DTD SVG 1.1//EN" "http://www.w3.org/Graphics/SVG/1.1/DTD/svg11.dtd">
<svg width="100%" height="100%" viewBox="0 0 842 596" version="1.1" xmlns="http://www.w3.org/2000/svg" xmlns:xlink="http://www.w3.org/1999/xlink" xml:space="preserve" xmlns:serif="http://www.serif.com/" style="fill-rule:evenodd;clip-rule:evenodd;">
    <g id="Ebene-1" serif:id="Ebene 1">
    </g>
    <g id="Ebene-2" serif:id="Ebene 2" transform="matrix(1,0,0,1,30.502148,-337.854492)">
        <g id="white" transform="matrix(1.597487,0,0,1.597487,-500.707635,-522.869491)">
            <path d="M537.03,665.964C537.03,729.663 484.613,782.079 420.914,782.079L420.914,782.079C357.215,782.079 304.798,729.663 304.798,665.964L304.798,665.964C304.798,602.265 357.215,549.848 420.914,549.848L420.914,549.848C484.613,549.848 537.03,602.265 537.03,665.964L537.03,665.964Z" style="fill:white;fill-rule:nonzero;"/>
        </g>
        <g id="path8564" transform="matrix(1.597487,0,0,1.597487,-500.707635,-522.869491)">
            <path d="M404.271,638.044C403.427,640.103 402.468,642.035 401.801,643.599C400.295,647.134 397.03,650.832 395.999,654.596C394.905,658.587 396.064,662.648 395.112,666.583C394.871,667.582 394.657,668.587 394.497,669.601C390.78,693.18 394.934,706.15 397.322,713.33C407.856,714.927 437.385,714.764 447.373,713.209C447.884,708.934 448.578,708.681 448.875,704.372C449.25,698.916 449.367,693.442 449.207,687.975C448.898,677.399 449.704,666.809 447.026,656.562C445.807,651.9 442.234,647.292 440.477,642.805C438.953,638.913 437.088,634.664 437.628,630.366C437.919,627.933 439.601,625.425 441.404,623.826C443.676,621.81 446.796,620.38 449.804,619.897L446.707,617.975C444.63,619.308 437.595,623.334 435.531,619.719C434.186,617.362 436.595,614.867 438.619,613.933C440.339,613.14 442.283,612.978 444.177,613.011L443.394,610.407C442.021,611.293 440.087,611.197 438.809,610.179C437.531,609.162 437.003,607.299 437.559,605.762C436.912,605.718 436.265,605.674 435.618,605.629C435.883,608.042 435.645,610.57 434.514,612.718C433.854,613.971 432.856,615.073 431.66,615.82C430.121,616.781 428.102,615.961 427.642,614.207C426.838,611.146 427.904,607.821 430.431,605.649L428.415,604.007C423.694,609.653 422.198,602.735 422.198,602.735L419.688,603.323L422.019,607.675C424.352,610.798 423.418,613.356 422.463,614.777C421.84,615.703 420.91,616.401 419.835,616.697C414.907,618.055 414.083,609.57 414.083,609.57C413.632,606.926 415.626,603.288 415.626,603.288L413.257,603.267C409.274,609.867 407.842,603.22 407.842,603.22L405.33,604.011C406.321,606.795 408.409,608.032 408.409,608.032C413.516,612.408 407.805,615.338 407.805,615.338C399.984,619.467 399.441,603.96 399.441,603.96L397.405,604.552C399.431,612.964 393.265,607.765 393.265,607.765L391.365,610.237C394.173,610.883 395.945,611.931 397.047,613.091C400.521,616.748 397.491,622.773 392.462,622.379C389.196,622.123 386.307,619.84 386.307,619.84L384.975,621.199C390.885,624.652 383.925,625.15 383.925,625.15C383.925,625.15 383.9,628.095 383.9,628.095C387.508,627.9 391.152,627.196 394.453,625.69C397.456,624.32 399.988,622.326 403.272,624.741C407.546,627.884 406.215,633.301 404.271,638.044" style="fill:rgb(105,66,17);fill-rule:nonzero;"/>
        </g>
        <g id="smile" transform="matrix(1.041147,-0.043221,0.043221,1.041147,-380.730593,148.246183)">
            <path id="path10470" d="M487.52,422.12C487.52,422.12 500.79,425.21 503.2,425.61C505.61,426.01 541.11,422.26 542.05,421.59C542.99,420.92 540.44,430.56 539.5,432.31C537.23,436.46 528.79,440.34 521.55,441.28C515.39,441.42 499.04,439.94 495.03,437.53C491.81,434.05 487.12,423.6 487.52,422.12Z" style="fill:white;"/>
            <path id="path10055" d="M542.97,419.94C527.13,424.78 511.58,426.13 495.44,423.22C492.81,422.58 489.5,421.68 486.94,420.81C486.73,424.37 487.77,429.08 489.62,432.09C490.78,434.4 492.65,436.96 494.94,438.25C500.76,441.67 508.35,442.52 514.97,442.41C521.85,442.13 529.28,441.46 535.47,438.28C537.46,437.29 538.97,435.2 539.78,433.12C541.69,429.63 543.46,425.46 543.38,421.38L542.97,419.94ZM541.78,422.34C541.72,423.58 541.03,426.46 540.62,426.5C540.87,424.89 539.44,422.34 541.78,422.34ZM539.12,423.4C538.96,425.1 539.47,426.6 538.99,428.22C537.94,429.6 534.78,431.36 535.31,428.33C535.58,426.53 533.47,424.13 536.09,424.22C537.24,423.87 537.99,423.79 539.12,423.4ZM488.66,423.25C490.13,422.67 489.03,426.76 489.12,426.12C488.58,425.49 488.68,424.22 488.66,423.25ZM490.22,423.69C491.27,424.32 494.17,424.23 493.97,425.25C493.47,426.72 494.26,428.94 493.44,429.91C490.9,430.34 489.65,427.67 490.22,425.53L490.22,423.69ZM533.33,425.21C533.6,427.73 534.1,429.59 533.8,432.12C532.89,433.64 531.68,434.82 530.71,432.85C529.34,431.01 529.72,428.6 529.12,426.42C530.02,425.52 531.85,425.82 533.33,425.21ZM495.12,425.06C496.43,425.83 499.55,425.06 499.69,426.69C499.32,428.81 500.39,431.68 497.81,432.62C495.62,434.31 495.12,430.8 494.94,429.28C494.79,427.89 494.89,426.44 495.12,425.06ZM500.72,426.19C502.44,426.74 505.49,426.4 506.41,427.28C506.5,429.28 506.89,431.46 506.28,433.38C504.39,434.3 500.03,434.85 500.59,431.53C500.34,429.81 501.11,427.6 500.72,426.19ZM527.32,426.34C527.85,428.86 528.43,431.17 528.08,433.75C527.2,435 523.87,435.28 523.66,433.62C523.77,431.35 523.35,429.11 523.34,426.84C524.78,426.67 525.9,426.59 527.32,426.34ZM521.69,427.05C522.15,429.55 521.83,431.92 522.23,434.41C522.2,436.59 520.3,435.87 518.85,435.62C517.02,435.53 515.18,434.73 515.88,432.75C516.16,431.07 515.04,428.36 515.91,427.38C517.99,427.33 519.62,427.26 521.69,427.05ZM507.9,427.06C510.05,427.53 512.53,426.83 514.01,427.75C513.91,430.2 514.14,432.27 514.5,434.68C513.55,435.98 511.55,435.56 510.08,435.55C507.15,435.78 507.51,433.08 507.9,430.98C507.93,429.7 507.72,428.34 507.9,427.06ZM490.5,429.94C491.41,431.29 493.3,430.42 492.74,432.31C492.73,433.56 493.02,434.87 492.22,433.25C491.58,432.18 491.02,431.07 490.5,429.94ZM538.44,430.12C538.91,431.91 537.92,433.46 536.6,434.6C535.8,434.53 536.22,432.27 535.56,431.69C535.67,430.9 537.71,430.89 538.44,430.12ZM494.4,431.26C494.3,433 495.39,434.15 496.47,434.44C496.26,435.56 497.05,438.05 495.33,436.42C492.55,435.59 494.54,433.31 494.4,431.26ZM499.75,432.41C499.21,434.36 501.13,434.97 502.18,435.06C502.25,436.52 502.25,437.65 502.32,439.1C500.53,438.72 498.2,438.63 498.1,436.55C497.91,434.49 497.84,433.34 499.75,432.41ZM529.36,433.9C530.88,434.78 531.11,436.39 530.44,437.64C529.09,438.18 527.4,439.5 527.9,436.95C526.85,434.48 529.97,436.67 529.36,433.9ZM534.72,433.67C535.11,435.21 535.2,436.47 533.25,436.69C531.53,438.19 531.44,434.68 533.16,434.72C533.73,434.36 534.36,434.27 534.72,433.67ZM506.56,434.34C506.58,436.32 508.99,436.07 508.22,438.14C508.29,439.48 508.87,441.04 507,440.19C505.94,439.7 503.94,440.36 504.24,438.66C504.18,437.38 504.27,436.09 504.21,434.81C505.24,434.88 505.64,434.86 506.56,434.34ZM523.79,435.76C525.27,436.19 526.77,435.33 526.34,437.47C527.35,439.78 524.08,439.19 522.69,439.75C521.73,440.17 522.04,437 522.57,436.8C523.32,436.58 523.69,436.57 523.79,435.76ZM516.21,436.02C517.83,436.97 518.85,437.27 520.71,437.09C519.1,437.19 522.03,440.43 519.6,439.94C518.19,440.16 517.7,440.29 516.27,440.36C516.27,440.27 516.29,437.39 516.21,436.02ZM513.78,436.69C514.62,436.62 514.86,436.91 514.54,438.3C514.43,439.04 514.37,439.91 514.51,440.34C514.51,440.39 512.04,440.46 510.07,440.3C510.36,438.86 509.05,436.36 511,436.81C512.04,437.03 512.94,436.75 513.78,436.69Z"/>
        </g>
        <g id="path8568" transform="matrix(1.597487,0,0,1.597487,-500.707635,-522.869491)">
            <path d="M465.224,615.856C464.911,615.833 464.606,615.853 464.311,615.906C464.105,614.912 463.492,614.057 462.643,613.535C462.894,613.086 463.057,612.578 463.098,612.03C463.234,610.225 462.033,608.631 460.332,608.212C460.567,607.774 460.719,607.283 460.759,606.755C460.91,604.742 459.401,602.987 457.388,602.836C457.049,602.81 456.719,602.836 456.401,602.898C456.332,602.104 456.009,601.374 455.503,600.802C456.378,600.196 456.982,599.216 457.068,598.072C457.179,596.602 456.401,595.273 455.191,594.602C455.418,594.171 455.564,593.689 455.603,593.173C455.755,591.16 454.245,589.405 452.232,589.253C450.786,589.145 449.476,589.896 448.795,591.072C448.311,590.386 447.595,589.872 446.751,589.647C446.779,589.502 446.803,589.356 446.814,589.205C446.966,587.192 445.456,585.437 443.443,585.285C441.815,585.163 440.357,586.127 439.778,587.565C439.222,586.452 438.115,585.649 436.784,585.548C436.935,583.535 435.426,581.781 433.413,581.629C431.605,581.493 430.01,582.698 429.592,584.403C429.263,584.275 428.91,584.192 428.54,584.164C427.568,584.091 426.658,584.407 425.958,584.978C425.436,583.771 424.28,582.886 422.878,582.781C421.568,582.682 420.37,583.29 419.65,584.279C419.099,583.845 418.417,583.564 417.665,583.507C417.662,583.507 417.659,583.508 417.658,583.507C417.664,583.454 417.674,583.401 417.678,583.346C417.812,581.554 416.689,577.89 415.008,577.457C415.063,577.246 415.103,577.028 415.12,576.803C415.271,574.79 413.762,573.035 411.749,572.884C409.825,572.739 408.141,574.112 407.863,575.992C406.206,576.233 404.877,577.593 404.746,579.332C404.691,580.065 404.858,580.761 405.187,581.361C404.425,581.445 403.728,581.765 403.176,582.253C402.565,581.523 401.674,581.031 400.65,580.954C400.294,580.927 399.947,580.954 399.615,581.025C399.004,580.288 398.108,579.79 397.078,579.712C395.065,579.561 393.31,581.07 393.158,583.083C393.082,584.101 393.431,585.052 394.054,585.764C393.352,586.237 392.819,586.948 392.579,587.792C392.3,587.699 391.946,589.714 391.639,589.691C390.535,589.608 389.51,590.027 388.783,590.752C388.189,590.167 387.393,589.779 386.495,589.712C384.482,589.56 382.727,591.069 382.576,593.082C382.518,593.848 382.702,594.577 383.062,595.194C381.239,595.274 379.722,596.704 379.582,598.569C379.54,599.118 379.626,599.647 379.809,600.13C377.914,600.129 376.31,601.587 376.165,603.508C374.152,603.356 372.397,604.865 372.246,606.879C372.125,608.483 373.06,609.92 374.463,610.515C373.835,611.117 373.416,611.941 373.346,612.876C373.324,613.159 373.34,613.436 373.38,613.705C371.929,614.101 370.815,615.369 370.696,616.954C370.636,617.753 370.84,618.508 371.23,619.141C370.449,619.753 369.917,620.675 369.836,621.742C369.688,623.717 371.14,625.441 373.097,625.647C372.925,626.027 372.811,626.44 372.778,626.881C372.656,628.506 373.617,629.962 375.052,630.543C375.044,630.6 375.034,630.657 375.029,630.716C374.878,632.729 376.387,634.483 378.4,634.635C379.578,634.724 380.664,634.241 381.396,633.425C382.003,634.094 382.855,634.543 383.827,634.616C385.84,634.767 387.595,633.258 387.746,631.245C387.866,629.652 386.945,628.225 385.559,627.622C385.679,627.303 385.758,626.964 385.785,626.607C385.808,626.305 385.789,626.01 385.74,625.724C387.701,625.806 389.388,624.321 389.536,622.35C389.572,621.879 389.513,621.423 389.382,620.998C391.181,620.893 392.671,619.474 392.81,617.627C392.843,617.194 392.795,616.775 392.685,616.38C393.599,615.778 394.237,614.778 394.326,613.602C394.348,613.304 394.33,613.014 394.284,612.732C395.874,612.698 397.243,611.634 397.696,610.143C397.874,610.184 398.056,610.217 398.245,610.231C399.465,610.323 400.587,609.803 401.318,608.932C401.882,609.402 402.59,609.71 403.378,609.769C404.322,609.84 405.207,609.543 405.899,609.002C406.502,609.64 407.332,610.067 408.276,610.138C410,610.267 411.531,609.178 412.031,607.598C412.574,608.01 413.236,608.278 413.965,608.333C414.154,608.347 414.339,608.342 414.522,608.328C415.088,609.409 416.178,610.184 417.484,610.283C418.516,610.36 419.478,610 420.194,609.36C420.805,610.1 421.702,610.6 422.734,610.678C423.648,610.747 424.506,610.471 425.187,609.964C425.447,610.045 425.718,610.101 426.001,610.122C427.027,610.2 427.984,609.844 428.698,609.212C429.057,610.564 430.174,611.627 431.6,611.875C432.028,613.272 433.274,614.335 434.819,614.452C436.319,614.564 437.674,613.755 438.331,612.503C438.868,613.672 440.005,614.521 441.378,614.625C442.096,614.679 442.779,614.518 443.37,614.203C443.09,614.673 442.909,615.211 442.865,615.794C442.752,617.298 443.566,618.657 444.824,619.312C444.718,619.612 444.645,619.929 444.62,620.262C444.476,622.168 445.823,623.841 447.675,624.142C447.554,624.462 447.474,624.804 447.447,625.163C447.295,627.177 448.804,628.931 450.817,629.083C451.587,629.141 452.317,628.955 452.936,628.592C453.542,629.258 454.392,629.704 455.36,629.777C457.374,629.928 459.128,628.419 459.28,626.406C459.284,626.353 459.282,626.301 459.284,626.249C459.611,626.375 459.961,626.458 460.329,626.485C462.342,626.637 464.097,625.127 464.248,623.114C464.249,623.105 464.248,623.096 464.249,623.087C464.389,623.114 464.53,623.136 464.676,623.146C466.689,623.298 468.444,621.788 468.595,619.775C468.747,617.762 467.237,616.007 465.224,615.856" style="fill:rgb(140,170,39);fill-rule:nonzero;stroke:black;stroke-width:1.13px;"/>
        </g>
        <g id="eyes" transform="matrix(1.596112,-0.066259,0.066259,1.596112,-545.978798,-474.309689)">
            <path id="path6030" d="M421.77,647.569C421.77,654.47 417.052,660.149 411.319,660.149C411.319,660.149 411.319,660.149 411.319,660.149C405.586,660.149 400.868,654.47 400.868,647.569L400.868,647.569C400.868,640.668 405.586,634.989 411.319,634.989L411.319,634.989C417.052,634.989 421.77,640.668 421.77,647.569Z" style="fill:white;fill-rule:nonzero;"/>
            <path id="path6241" d="M417.066,650.249C417.066,652.463 415.245,654.284 413.031,654.284C410.818,654.284 408.996,652.463 408.996,650.249C408.996,650.249 408.996,650.249 408.996,650.249C408.996,648.036 410.818,646.214 413.031,646.214C413.031,646.214 413.031,646.214 413.031,646.214C415.245,646.214 417.066,648.036 417.066,650.249C417.066,650.249 417.066,650.249 417.066,650.249Z" style="fill-rule:nonzero;"/>
            <path id="path6244" d="M423.9,647.569C423.9,654.47 428.618,660.149 434.351,660.149C434.351,660.149 434.351,660.149 434.351,660.149C440.084,660.149 444.802,654.47 444.802,647.569L444.802,647.569C444.802,640.668 440.084,634.989 434.351,634.989L434.351,634.989C428.618,634.989 423.9,640.668 423.9,647.569Z" style="fill:white;fill-rule:nonzero;"/>
            <path id="path6246" d="M428.604,650.249C428.604,652.463 430.425,654.284 432.639,654.284C434.852,654.284 436.674,652.463 436.674,650.249C436.674,650.249 436.674,650.249 436.674,650.249C436.674,648.036 434.852,646.214 432.639,646.214C432.639,646.214 432.639,646.214 432.639,646.214C430.425,646.214 428.604,648.036 428.604,650.249C428.604,650.249 428.604,650.249 428.604,650.249Z" style="fill-rule:nonzero;"/>
        </g>
        <g id="pot" transform="matrix(1.597487,0,0,1.597487,-500.707635,-522.869491)">
            <path d="M378.211,708.378L378.211,722.612L385.328,722.612L399.563,779.549L442.265,779.549L456.5,722.612L463.617,722.612L463.617,708.378L378.211,708.378Z" style="fill:rgb(140,170,39);fill-rule:nonzero;stroke:rgb(209,183,85);stroke-width:1.13px;"/>
        </g>
        <g id="pot-line" serif:id="pot line" transform="matrix(1.597487,0,0,1.597487,-500.707635,-522.869491)">
            <path d="M384.957,722.611L456.487,722.226" style="fill:none;fill-rule:nonzero;stroke:rgb(209,183,85);stroke-width:1px;"/>
        </g>
        <g id="the-ring" serif:id="the ring" transform="matrix(1.597487,0,0,1.597487,-500.707635,-522.869491)">
            <path d="M420.914,545.4C354.329,545.401 300.352,599.378 300.352,665.963C300.351,732.548 354.329,786.527 420.914,786.527C487.499,786.527 541.477,732.548 541.477,665.963C541.476,599.378 487.499,545.401 420.914,545.4ZM420.914,577.473C433.974,577.473 446.326,580.508 457.302,585.911C457.302,585.911 461.963,594.55 461.805,594.305C486.656,608.517 503.404,635.284 503.404,665.963C503.405,711.522 466.473,748.455 420.914,748.455C375.355,748.455 338.423,711.522 338.424,665.963C338.424,640.491 349.969,617.715 368.113,602.583C369.947,601.054 371.848,599.602 373.812,598.234C374.868,597.498 375.942,596.786 377.034,596.099C377.221,596.289 379.508,590.161 379.508,590.161L391.647,577.64L413.352,569.275C413.352,569.275 420.826,577.473 420.914,577.473Z" style="fill:rgb(105,66,17);fill-rule:nonzero;stroke:rgb(209,183,85);stroke-width:2.65px;stroke-linecap:round;stroke-linejoin:round;stroke-miterlimit:1;"/>
        </g>
        <g id="BAUMSCHULE" transform="matrix(1.4935,0.378448,-0.378448,1.4935,-23.406591,-1424.560535)">
            <path d="M335.972,1269.597C338.351,1273.563 342.128,1274.787 346.644,1272.128C349.093,1270.684 350.156,1268.537 349.942,1266.117C349.927,1265.928 349.993,1265.79 350.102,1265.725C350.175,1265.68 350.295,1265.634 350.524,1265.769C352.314,1266.897 354.759,1266.766 356.779,1265.555C360.873,1263.1 361.383,1258.959 358.71,1254.501L353.068,1245.094C352.839,1244.712 352.46,1244.617 352.078,1244.847L329.934,1258.127C329.552,1258.356 329.457,1258.734 329.687,1259.116L335.972,1269.597ZM346.844,1255.754C346.614,1255.372 346.709,1254.993 347.091,1254.764L350.676,1252.614C351.058,1252.385 351.436,1252.48 351.665,1252.862L354.241,1257.156C355.179,1258.721 354.873,1260.067 353.29,1261.017C351.707,1261.966 350.357,1261.613 349.419,1260.048L346.844,1255.754ZM337.2,1261.537C336.971,1261.155 337.065,1260.777 337.448,1260.548L341.396,1258.18C341.778,1257.951 342.156,1258.045 342.386,1258.427L345.19,1263.104C345.987,1264.432 345.601,1266.098 344.036,1267.037C342.398,1268.019 340.801,1267.542 340.004,1266.214L337.2,1261.537ZM360.201,1283.908C359.92,1283.649 359.957,1283.452 360.19,1283.292L368.211,1278.219L368.878,1277.651L369.424,1278.154L368.913,1278.866L364.497,1287.26C364.357,1287.506 364.149,1287.545 363.868,1287.286L360.201,1283.908ZM361.388,1292.358C361.622,1292.573 361.671,1292.676 361.574,1292.876L359.763,1296.313C359.666,1296.512 359.704,1296.691 359.875,1296.849L363.745,1300.414C363.979,1300.63 364.161,1300.653 364.304,1300.496C364.347,1300.449 364.376,1300.418 364.431,1300.296L376.645,1275.545C376.784,1275.269 376.681,1274.973 376.447,1274.758L371.719,1270.402C371.485,1270.186 371.182,1270.109 370.918,1270.27C370.918,1270.27 347.44,1284.326 347.381,1284.358C347.278,1284.407 347.117,1284.519 347.046,1284.597C346.902,1284.753 346.955,1284.946 347.189,1285.162L351.043,1288.712C351.199,1288.856 351.38,1288.879 351.571,1288.765L354.849,1286.679C355.039,1286.566 355.13,1286.592 355.38,1286.822L361.388,1292.358ZM381.847,1311.633L384.569,1312.973C389.747,1315.522 393.723,1314.073 395.756,1309.943L404.377,1292.43C404.573,1292.03 404.448,1291.661 404.048,1291.464L400.012,1289.478C399.613,1289.281 399.243,1289.407 399.047,1289.806L390.707,1306.748C389.985,1308.166 388.481,1308.868 386.958,1308.119L384.236,1306.779C382.732,1306.039 382.296,1304.476 383.036,1302.972L391.375,1286.03C391.572,1285.63 391.446,1285.261 391.047,1285.064L387.011,1283.078C386.611,1282.881 386.242,1283.007 386.045,1283.406L377.425,1300.919C375.316,1305.202 376.479,1308.991 381.847,1311.633ZM407.212,1321.248L411.644,1321.884C412.085,1321.947 412.397,1321.713 412.46,1321.272L413.494,1314.068C414.063,1310.099 414.111,1305.583 414.144,1305.352L414.249,1305.367C414.297,1305.481 414.763,1308.806 415.155,1310.406L417.238,1318.742C417.304,1319.03 417.538,1319.193 417.916,1319.247L421.235,1319.723C421.529,1319.765 421.799,1319.675 421.94,1319.438L426.397,1312.126C427.223,1310.701 428.551,1307.719 428.566,1307.614L428.734,1307.638C428.701,1307.869 427.522,1312.201 426.971,1316.044L425.943,1323.206C425.88,1323.647 426.114,1323.959 426.555,1324.023L430.902,1324.646C431.343,1324.709 431.656,1324.476 431.719,1324.035L435.416,1298.265C435.479,1297.824 435.245,1297.512 434.804,1297.449L430.058,1296.768C429.743,1296.723 429.47,1296.834 429.352,1297.053L421.658,1309.752C421.282,1310.427 420.922,1311.297 420.916,1311.339L420.705,1311.309C420.711,1311.267 420.643,1310.4 420.439,1309.578L416.478,1295.206C416.406,1294.96 416.196,1294.779 415.881,1294.734L411.114,1294.05C410.673,1293.987 410.361,1294.221 410.298,1294.662L406.601,1320.431C406.537,1320.872 406.771,1321.185 407.212,1321.248L407.212,1321.248ZM454.573,1323.126C460.568,1322.187 463.563,1318.411 462.776,1313.381C462.201,1309.712 459.204,1307.304 453.333,1306.29C449.711,1305.655 448.484,1304.945 448.274,1303.603C448.057,1302.22 449.036,1300.928 451.069,1300.61C452.893,1300.325 454.387,1300.95 455.229,1302.214C455.425,1302.505 455.703,1302.633 455.954,1302.594C456.059,1302.578 456.16,1302.54 456.259,1302.482L459.857,1300.501C460.095,1300.378 460.174,1300.194 460.144,1300.005C460.125,1299.879 460.115,1299.816 459.92,1299.396C458.17,1296.17 454.584,1294.669 450.141,1295.365C444.481,1296.251 441.447,1300.463 442.041,1304.257C442.687,1308.387 445.555,1310.794 451.581,1311.697C455.277,1312.257 456.415,1313.217 456.625,1314.558C456.858,1316.046 455.897,1317.314 453.737,1317.652C451.39,1318.019 449.907,1317.328 449.01,1315.987C448.814,1315.695 448.536,1315.567 448.285,1315.606C448.18,1315.622 448.078,1315.66 447.98,1315.718L444.195,1317.879C443.957,1318.002 443.878,1318.186 443.908,1318.375C443.927,1318.501 443.937,1318.563 444.132,1318.984C445.752,1322.338 449.731,1323.884 454.573,1323.126ZM484.317,1314.371L487.082,1313.122C490.987,1311.357 493.062,1308.323 492.527,1304.77C492.46,1304.312 492.346,1304.06 492.294,1303.944C492.215,1303.77 492.049,1303.659 491.782,1303.687L487.686,1304.001C487.572,1304.011 487.467,1304.03 487.37,1304.074C487.138,1304.179 486.937,1304.456 486.972,1304.79C487.137,1306.391 486.497,1307.449 484.873,1308.183L482.089,1309.441C480.561,1310.131 479.077,1309.475 478.387,1307.947L473.642,1297.449C472.996,1296.018 473.421,1294.383 474.968,1293.684L477.752,1292.425C479.376,1291.691 480.668,1291.922 481.685,1293.092C481.913,1293.339 482.254,1293.371 482.486,1293.266C482.582,1293.222 482.67,1293.159 482.749,1293.077L485.692,1290.211C485.889,1290.029 485.915,1289.83 485.837,1289.656C485.784,1289.54 485.758,1289.482 485.459,1289.129C483.145,1286.379 479.41,1285.739 475.524,1287.495L472.739,1288.753C467.481,1291.13 466.071,1295.12 467.967,1299.315L473.236,1310.974C475.21,1315.344 478.865,1316.835 484.317,1314.371ZM506.501,1301.499L509.893,1298.544C510.229,1298.251 510.256,1297.862 509.963,1297.526L503.455,1290.055C503.163,1289.719 503.189,1289.33 503.525,1289.037L509.365,1283.951C509.701,1283.658 510.09,1283.685 510.382,1284.021L516.891,1291.492C517.183,1291.828 517.572,1291.855 517.908,1291.562L521.3,1288.608C521.636,1288.315 521.663,1287.926 521.37,1287.59L504.271,1267.96C503.978,1267.624 503.589,1267.597 503.253,1267.89L499.861,1270.844C499.525,1271.137 499.499,1271.526 499.791,1271.862L505.881,1278.853C506.174,1279.189 506.147,1279.578 505.811,1279.871L499.972,1284.957C499.636,1285.25 499.247,1285.223 498.954,1284.887L492.864,1277.896C492.571,1277.56 492.182,1277.533 491.846,1277.826L488.455,1280.78C488.119,1281.073 488.092,1281.462 488.384,1281.798L505.484,1301.428C505.776,1301.764 506.165,1301.791 506.501,1301.498L506.501,1301.499ZM536.239,1269.734L537.832,1267.152C540.862,1262.241 539.799,1258.145 535.881,1255.727L519.269,1245.478C518.89,1245.244 518.51,1245.334 518.276,1245.713L515.914,1249.541C515.68,1249.92 515.77,1250.3 516.149,1250.534L532.22,1260.449C533.563,1261.302 534.119,1262.867 533.227,1264.311L531.634,1266.893C530.754,1268.32 529.157,1268.606 527.73,1267.726L511.66,1257.81C511.281,1257.577 510.901,1257.666 510.667,1258.046L508.305,1261.874C508.071,1262.253 508.161,1262.632 508.54,1262.866L525.152,1273.116C529.215,1275.622 533.097,1274.826 536.239,1269.734ZM547.811,1245.284L552.064,1230.06C552.184,1229.631 551.992,1229.291 551.563,1229.171L547.742,1228.104C547.313,1227.984 546.973,1228.176 546.853,1228.604L544.199,1238.107C544.079,1238.536 543.739,1238.727 543.31,1238.607L523.447,1233.059C523.018,1232.939 522.678,1233.131 522.558,1233.56L521.348,1237.892C521.229,1238.321 521.42,1238.661 521.849,1238.781L546.923,1245.784C547.352,1245.904 547.692,1245.712 547.811,1245.284ZM554.05,1198.792C554.051,1198.347 553.776,1198.07 553.331,1198.069L549.363,1198.056C548.918,1198.056 548.641,1198.329 548.639,1198.775L548.604,1209.426C548.603,1209.871 548.326,1210.146 547.881,1210.145L543.701,1210.131C543.255,1210.131 542.981,1209.852 542.982,1209.407L543.011,1200.665C543.012,1200.22 542.737,1199.943 542.292,1199.942L538.324,1199.929C537.879,1199.929 537.602,1200.202 537.6,1200.648L537.572,1209.389C537.571,1209.835 537.294,1210.109 536.848,1210.108L532.88,1210.095C532.435,1210.095 532.16,1209.817 532.161,1209.371L532.196,1198.72C532.197,1198.275 531.923,1197.998 531.477,1197.997L527.51,1197.984C527.064,1197.984 526.788,1198.257 526.786,1198.703L526.732,1215.294C526.731,1215.74 527.005,1216.017 527.451,1216.018L553.272,1216.103C553.717,1216.103 553.994,1215.83 553.995,1215.384L554.05,1198.792Z" style="fill:white;fill-rule:nonzero;"/>
        </g>
        <g id="dots" transform="matrix(1.597487,0,0,1.597487,-500.707635,-522.869491)">
            <path id="DOT" d="M387.075,618.971C387.075,620.776 385.589,622.262 383.784,622.262C381.978,622.262 380.492,620.776 380.492,618.971C380.492,617.165 381.978,615.679 383.784,615.679C385.589,615.679 387.075,617.165 387.075,618.971Z" style="fill:white;fill-rule:nonzero;stroke:rgb(255,204,0);stroke-width:1.24px;"/>
            <path id="DOT1" serif:id="DOT" d="M396.71,596.28C396.71,598.085 395.225,599.571 393.419,599.571C391.614,599.571 390.128,598.085 390.128,596.28C390.128,594.474 391.614,592.988 393.419,592.988C395.225,592.988 396.71,594.474 396.71,596.28Z" style="fill:white;fill-rule:nonzero;stroke:rgb(255,204,0);stroke-width:1.24px;"/>
            <path id="DOT2" serif:id="DOT" d="M438.211,595.317C438.211,597.123 436.725,598.609 434.92,598.609C433.114,598.609 431.629,597.123 431.629,595.317C431.629,593.512 433.114,592.026 434.92,592.026C436.725,592.026 438.211,593.512 438.211,595.317Z" style="fill:white;fill-rule:nonzero;stroke:rgb(255,204,0);stroke-width:1.24px;"/>
            <path id="DOT3" serif:id="DOT" d="M453.166,612.079C453.166,613.885 451.681,615.37 449.875,615.37C448.069,615.37 446.584,613.885 446.584,612.079C446.584,610.274 448.069,608.788 449.875,608.788C451.681,608.788 453.166,610.274 453.166,612.079Z" style="fill:white;fill-rule:nonzero;stroke:rgb(255,204,0);stroke-width:1.24px;"/>
            <path id="DOT4" serif:id="DOT" d="M417.787,599.126C417.787,600.931 416.301,602.417 414.496,602.417C412.69,602.417 411.204,600.931 411.204,599.126C411.204,597.32 412.69,595.834 414.496,595.834C416.301,595.834 417.787,597.32 417.787,599.126Z" style="fill:white;fill-rule:nonzero;stroke:rgb(255,204,0);stroke-width:1.24px;"/>
        </g>
        <g transform="matrix(5.135521,0,0,4.055521,-144.860059,347.091146)">
            <path d="M132,25L132,31C132,32.656 130.938,34 129.631,34L109.369,34C108.062,34 107,32.656 107,31L107,25C107,23.344 108.062,22 109.369,22L129.631,22C130.938,22 132,23.344 132,25Z" style="fill:rgb(209,183,85);"/>
        </g>
        <g transform="matrix(5.135521,0,0,4.055521,-144.860059,413.331325)">
            <path d="M132,25L132,31C132,32.656 130.938,34 129.631,34L109.369,34C108.062,34 107,32.656 107,31L107,25C107,23.344 108.062,22 109.369,22L129.631,22C130.938,22 132,23.344 132,25Z" style="fill:rgb(253,204,12);"/>
        </g>
        <g transform="matrix(5.135521,0,0,4.055521,-144.860059,479.571503)">
            <path d="M132,25L132,31C132,32.656 130.938,34 129.631,34L109.369,34C108.062,34 107,32.656 107,31L107,25C107,23.344 108.062,22 109.369,22L129.631,22C130.938,22 132,23.344 132,25Z" style="fill:rgb(105,66,16);"/>
        </g>
        <g transform="matrix(5.135521,0,0,4.055521,-144.860059,545.811681)">
            <path d="M132,25L132,31C132,32.656 130.938,34 129.631,34L109.369,34C108.062,34 107,32.656 107,31L107,25C107,23.344 108.062,22 109.369,22L129.631,22C130.938,22 132,23.344 132,25Z" style="fill:rgb(140,170,37);"/>
        </g>
        <g transform="matrix(1,0,0,1,-77.387316,281.645738)">
            <text x="506.448px" y="182.6px" style="font-family:'PTMono-Regular', 'PT Mono', monospace;font-size:18px;">#D1B755</text>
        </g>
        <g transform="matrix(1,0,0,1,-77.387316,347.885916)">
            <text x="506.448px" y="182.6px" style="font-family:'PTMono-Regular', 'PT Mono', monospace;font-size:18px;">#FFCC00</text>
        </g>
        <g transform="matrix(1,0,0,1,-77.387316,414.126094)">
            <text x="506.448px" y="182.6px" style="font-family:'PTMono-Regular', 'PT Mono', monospace;font-size:18px;fill:white;">#694211</text>
        </g>
        <g transform="matrix(1,0,0,1,-77.387316,480.366273)">
            <text x="506.448px" y="182.6px" style="font-family:'PTMono-Regular', 'PT Mono', monospace;font-size:18px;">#8CAA27</text>
        </g>
    </g>
</svg>
