<?xml version="1.0" encoding="utf-8"?>
<!-- Generator: Adobe Illustrator 16.0.3, SVG Export Plug-In . SVG Version: 6.00 Build 0)  -->
<!DOCTYPE svg PUBLIC "-//W3C//DTD SVG 1.1//EN" "http://www.w3.org/Graphics/SVG/1.1/DTD/svg11.dtd">
<svg version="1.1" id="Layer_1" xmlns="http://www.w3.org/2000/svg" xmlns:xlink="http://www.w3.org/1999/xlink" x="0px" y="0px"
	 width="380px" height="380px" viewBox="0 0 380 380" enable-background="new 0 0 380 380" xml:space="preserve">
<path fill="#FFFFFF" d="M364.506,16.909L364.506,16.909 M381.417,0H0v380h381.417V0L381.417,0z"/>
<rect x="16.91" y="16.909" fill="#247F52" width="347.596" height="346.181"/>
<path fill="#FFFFFF" d="M295.252,249.457V41.032H86.458V336.99l20.879,20.548h208.794l-20.879-20.548v-43.731l27.676,0.064
	l8.475,0.019v-8.474C331.403,268.803,316.935,251.113,295.252,249.457z"/>
<path id="path1479-6-9" fill="#247F52" d="M138.316,94.015c0,13.833,10.526,24.387,24.261,24.387
	c13.733,0,24.288-10.554,24.288-24.387c0-13.807-10.554-24.361-24.288-24.361C148.843,69.653,138.316,80.208,138.316,94.015z
	 M165.512,124.44c-7.793-0.173-8.683,2.271-12.406,6.24c-10.01,12.352-20.956,25.522-30.722,37.036
	c-1.356,1.627-2.12,2.32-5.35,2.293c-5.981-0.101-11.227,0.008-15.856,0.278H81.29c-6.479,0-11.69,5.214-11.69,11.692
	c0,6.478,5.211,11.69,11.69,11.69h41.778c0.286,0.002,0.558,0.014,0.845,0.014c0.19,0,0.284-0.023,0.465-0.027
	c0.121-0.002,0.237-0.006,0.355-0.014c4.939-0.094,6.006-0.967,9.539-4.498l21.425-25.326c5.942,12.995,11.539,24.046,17.456,36.595
	c0.667,1.283,2.246,4.165,1.063,6.41l-58.883,118.897l21.601-0.072c11.294,0.249,16.002-7.546,19.973-14.523
	c15.928-32.104,31.93-64.182,47.884-96.287l3.01,57.131c0.788,9.888,7.469,12.4,16.223,12.671l98.925,0.228
	c0-11.37-11.268-26.389-29.614-27.102c0,0-35.331,0.396-53.803,0.47c-2.342,0-2.982-1.307-3.255-3.255
	c-0.858-14.698-1.674-29.491-2.586-44.188c-0.571-7.296-1.212-12.353-3.329-17.876c-6.901-14.795-13.807-29.519-20.716-44.262
	l25.279-0.295c0.664-0.023,1.181,0.123,1.526,0.715l18.297,32.053c7.547,13.761,27.937,3.725,21.104-10.871l-22.437-37.529
	c-3.946-5.868-5.748-7.892-16.001-8.21c0,0-47.911-0.076-71.902-0.076V124.44z"/>
<polygon fill="#247F52" points="180.453,359.526 148.739,359.526 121.148,333.097 152.862,333.097 "/>
</svg>
