<?xml version="1.0" encoding="UTF-8" standalone="no"?>
<svg
   height="200"
   width="200"
   version="1.0"
   id="svg22"
   sodipodi:docname="ISO_7010_F001.svg"
   inkscape:version="1.2.2 (b0a8486541, 2022-12-01)"
   xmlns:inkscape="http://www.inkscape.org/namespaces/inkscape"
   xmlns:sodipodi="http://sodipodi.sourceforge.net/DTD/sodipodi-0.dtd"
   xmlns="http://www.w3.org/2000/svg"
   xmlns:svg="http://www.w3.org/2000/svg"
   xmlns:rdf="http://www.w3.org/1999/02/22-rdf-syntax-ns#"
   xmlns:cc="http://creativecommons.org/ns#"
   xmlns:dc="http://purl.org/dc/elements/1.1/">
  <defs
     id="defs26" />
  <sodipodi:namedview
     pagecolor="#ffffff"
     bordercolor="#666666"
     borderopacity="1"
     objecttolerance="10"
     gridtolerance="10"
     guidetolerance="10"
     inkscape:pageopacity="0"
     inkscape:pageshadow="2"
     inkscape:window-width="1920"
     inkscape:window-height="1008"
     id="namedview24"
     showgrid="false"
     inkscape:zoom="3.7186616"
     inkscape:cx="86.052466"
     inkscape:cy="100.03599"
     inkscape:window-x="0"
     inkscape:window-y="0"
     inkscape:window-maximized="1"
     inkscape:current-layer="svg22"
     inkscape:showpageshadow="2"
     inkscape:pagecheckerboard="0"
     inkscape:deskcolor="#d1d1d1" />
  <metadata
     id="metadata2">
    <rdf:RDF>
      <cc:Work
         rdf:about="">
        <dc:format>image/svg+xml</dc:format>
        <dc:type
           rdf:resource="http://purl.org/dc/dcmitype/StillImage" />
      </cc:Work>
    </rdf:RDF>
  </metadata>
  <rect
     style="color:#000000;fill:#ffffff;enable-background:accumulate"
     height="200"
     width="200"
     y="0"
     x="0"
     fill="#ab2323"
     id="rect20" />
  <path
     d="m5.4189,5.423,189.16,0,0,189.15-189.16,0,0-189.15z"
     fill-rule="evenodd"
     fill="#a92121"
     id="path6" />
  <path
     d="m50,50,0-12-5,0c-16.763,17.711-15,11-15.935,25.799l-6.388,0.02405c0.323-24.823-1.677-17.823,21.782-38.958l8.541,0.135v-5h16v6c4.5631,0.1005,8.964,0.60059,13,2v9c-3.0449,0.87653-6.8647,1.3052-11,2l-0.208,10.963c10.633,3.325,17.309,7.857,17.208,19.037l-1,111h-54v-111c1.982-15.259,9.445-18.737,17-19z"
     fill="#ffffff"
     id="path8" />
  <path
     d="M140.84,85.974c-6.68-14.582-5.84-27.467-15.84-33.587,22.31-2.387,22.11,14.733,34.2,34.732,6.1612,10.209,9.2957,12.113,19.261,19.134-10.883,1.1136-23.49,2.7543-37.621-20.278z"
     fill="#ffffff"
     id="path10" />
  <path
     d="m178.22,148.83c-10.099,8.9642-25.395,7.8304-35.73,0.12286-9.0844-9.1994-13.227-19.521-28.507-22.043,24.088-14.798,35.883,7.0306,42.401,12.638,8.5275,6.854,14.675,6.4324,21.836,9.2819z"
     fill="#ffffff"
     id="path12" />
  <path
     d="m178.54,116.43,0,22.555c-33.72-6.9045-47.46-29.05-47.786-53.98,18.753,20.208,21.384,26.81,47.786,31.426z"
     fill="#ffffff"
     id="path14" />
  <path
     d="m178.4,180.29c-28.332,0.93009-42.124-5.7542-47.35-30.64,22.613,15.749,29.453,12.343,46.581,10.089,0.73556,6.7642,0.76879,13.754,0.76879,20.551z"
     fill="#ffffff"
     id="path16" />
  <path
     d="m177.52,73.365,0.75669,21.609c-20.65-11.003-28.25-32.075-21.28-51.974,7.0102,16.483,7.1352,23.157,20.522,30.365z"
     fill="#ffffff"
     id="path18" />
</svg>
