<?xml version="1.0" encoding="UTF-8" standalone="no"?>
<svg
   width="64.875mm"
   height="64.875mm"
   id="svg2"
   version="1.1"
   inkscape:version="1.1.2 (0a00cf5339, 2022-02-04)"
   sodipodi:docname="hobelhoehle-65mm.svg.2024_03_03_13_16_14.0.svg"
   inkscape:export-filename="./xHain_logo3_rev2_large.png"
   inkscape:export-xdpi="1368.9301"
   inkscape:export-ydpi="1368.9301"
   xmlns:inkscape="http://www.inkscape.org/namespaces/inkscape"
   xmlns:sodipodi="http://sodipodi.sourceforge.net/DTD/sodipodi-0.dtd"
   xmlns="http://www.w3.org/2000/svg"
   xmlns:svg="http://www.w3.org/2000/svg"
   xmlns:rdf="http://www.w3.org/1999/02/22-rdf-syntax-ns#"
   xmlns:cc="http://creativecommons.org/ns#"
   xmlns:dc="http://purl.org/dc/elements/1.1/">
  <sodipodi:namedview
     id="base"
     pagecolor="#ffffff"
     bordercolor="#666666"
     borderopacity="1.0"
     inkscape:pageopacity="0.0"
     inkscape:pageshadow="2"
     inkscape:zoom="2.507128"
     inkscape:cx="186.86721"
     inkscape:cy="139.8014"
     inkscape:document-units="mm"
     inkscape:current-layer="layer1"
     showgrid="true"
     inkscape:window-width="1920"
     inkscape:window-height="1016"
     inkscape:window-x="0"
     inkscape:window-y="27"
     inkscape:window-maximized="1"
     showguides="true"
     inkscape:guide-bbox="true"
     units="mm"
     inkscape:document-rotation="0"
     inkscape:pagecheckerboard="0">
    <inkscape:grid
       type="xygrid"
       id="grid2985"
       empspacing="5"
       visible="true"
       enabled="true"
       snapvisiblegridlinesonly="true"
       dotted="false"
       spacingx="0.2"
       spacingy="0.2" />
  </sodipodi:namedview>
  <defs
     id="defs4">
    <marker
       inkscape:stockid="DotS"
       orient="auto"
       refY="0"
       refX="0"
       id="DotS"
       style="overflow:visible">
      <path
         id="path3828"
         d="m -2.5,-1 c 0,2.76 -2.24,5 -5,5 -2.76,0 -5,-2.24 -5,-5 0,-2.76 2.24,-5 5,-5 2.76,0 5,2.24 5,5 z"
         style="fill-rule:evenodd;stroke:#000000;stroke-width:1pt"
         transform="matrix(0.2,0,0,0.2,1.48,0.2)"
         inkscape:connector-curvature="0" />
    </marker>
    <marker
       inkscape:stockid="DotS"
       orient="auto"
       refY="0"
       refX="0"
       id="DotS-1"
       style="overflow:visible">
      <path
         inkscape:connector-curvature="0"
         id="path3828-5"
         d="m -2.5,-1 c 0,2.76 -2.24,5 -5,5 -2.76,0 -5,-2.24 -5,-5 0,-2.76 2.24,-5 5,-5 2.76,0 5,2.24 5,5 z"
         style="fill-rule:evenodd;stroke:#000000;stroke-width:1pt"
         transform="matrix(0.2,0,0,0.2,1.48,0.2)" />
    </marker>
    <marker
       inkscape:stockid="DotS"
       orient="auto"
       refY="0"
       refX="0"
       id="marker4395"
       style="overflow:visible">
      <path
         inkscape:connector-curvature="0"
         id="path4397"
         d="m -2.5,-1 c 0,2.76 -2.24,5 -5,5 -2.76,0 -5,-2.24 -5,-5 0,-2.76 2.24,-5 5,-5 2.76,0 5,2.24 5,5 z"
         style="fill-rule:evenodd;stroke:#000000;stroke-width:1pt"
         transform="matrix(0.2,0,0,0.2,1.48,0.2)" />
    </marker>
    <marker
       inkscape:stockid="DotS"
       orient="auto"
       refY="0"
       refX="0"
       id="DotS-3"
       style="overflow:visible">
      <path
         inkscape:connector-curvature="0"
         id="path3828-0"
         d="m -2.5,-1 c 0,2.76 -2.24,5 -5,5 -2.76,0 -5,-2.24 -5,-5 0,-2.76 2.24,-5 5,-5 2.76,0 5,2.24 5,5 z"
         style="fill-rule:evenodd;stroke:#000000;stroke-width:1pt"
         transform="matrix(0.2,0,0,0.2,1.48,0.2)" />
    </marker>
    <marker
       inkscape:stockid="DotS"
       orient="auto"
       refY="0"
       refX="0"
       id="marker4427"
       style="overflow:visible">
      <path
         inkscape:connector-curvature="0"
         id="path4429"
         d="m -2.5,-1 c 0,2.76 -2.24,5 -5,5 -2.76,0 -5,-2.24 -5,-5 0,-2.76 2.24,-5 5,-5 2.76,0 5,2.24 5,5 z"
         style="fill-rule:evenodd;stroke:#000000;stroke-width:1pt"
         transform="matrix(0.2,0,0,0.2,1.48,0.2)" />
    </marker>
    <marker
       inkscape:stockid="DotS"
       orient="auto"
       refY="0"
       refX="0"
       id="DotS-2"
       style="overflow:visible">
      <path
         inkscape:connector-curvature="0"
         id="path3828-1"
         d="m -2.5,-1 c 0,2.76 -2.24,5 -5,5 -2.76,0 -5,-2.24 -5,-5 0,-2.76 2.24,-5 5,-5 2.76,0 5,2.24 5,5 z"
         style="fill-rule:evenodd;stroke:#000000;stroke-width:1pt"
         transform="matrix(0.2,0,0,0.2,1.48,0.2)" />
    </marker>
    <marker
       inkscape:stockid="DotS"
       orient="auto"
       refY="0"
       refX="0"
       id="marker4427-3"
       style="overflow:visible">
      <path
         inkscape:connector-curvature="0"
         id="path4429-9"
         d="m -2.5,-1 c 0,2.76 -2.24,5 -5,5 -2.76,0 -5,-2.24 -5,-5 0,-2.76 2.24,-5 5,-5 2.76,0 5,2.24 5,5 z"
         style="fill-rule:evenodd;stroke:#000000;stroke-width:1pt"
         transform="matrix(0.2,0,0,0.2,1.48,0.2)" />
    </marker>
    <marker
       inkscape:stockid="DotS"
       orient="auto"
       refY="0"
       refX="0"
       id="DotS-21"
       style="overflow:visible">
      <path
         inkscape:connector-curvature="0"
         id="path3828-6"
         d="m -2.5,-1 c 0,2.76 -2.24,5 -5,5 -2.76,0 -5,-2.24 -5,-5 0,-2.76 2.24,-5 5,-5 2.76,0 5,2.24 5,5 z"
         style="fill-rule:evenodd;stroke:#000000;stroke-width:1pt"
         transform="matrix(0.2,0,0,0.2,1.48,0.2)" />
    </marker>
    <marker
       inkscape:stockid="DotS"
       orient="auto"
       refY="0"
       refX="0"
       id="marker4474"
       style="overflow:visible">
      <path
         inkscape:connector-curvature="0"
         id="path4476"
         d="m -2.5,-1 c 0,2.76 -2.24,5 -5,5 -2.76,0 -5,-2.24 -5,-5 0,-2.76 2.24,-5 5,-5 2.76,0 5,2.24 5,5 z"
         style="fill-rule:evenodd;stroke:#000000;stroke-width:1pt"
         transform="matrix(0.2,0,0,0.2,1.48,0.2)" />
    </marker>
    <marker
       inkscape:stockid="DotS"
       orient="auto"
       refY="0"
       refX="0"
       id="DotS-36"
       style="overflow:visible">
      <path
         inkscape:connector-curvature="0"
         id="path3828-8"
         d="m -2.5,-1 c 0,2.76 -2.24,5 -5,5 -2.76,0 -5,-2.24 -5,-5 0,-2.76 2.24,-5 5,-5 2.76,0 5,2.24 5,5 z"
         style="fill-rule:evenodd;stroke:#000000;stroke-width:1pt"
         transform="matrix(0.2,0,0,0.2,1.48,0.2)" />
    </marker>
    <marker
       inkscape:stockid="DotS"
       orient="auto"
       refY="0"
       refX="0"
       id="marker4516"
       style="overflow:visible">
      <path
         inkscape:connector-curvature="0"
         id="path4518"
         d="m -2.5,-1 c 0,2.76 -2.24,5 -5,5 -2.76,0 -5,-2.24 -5,-5 0,-2.76 2.24,-5 5,-5 2.76,0 5,2.24 5,5 z"
         style="fill-rule:evenodd;stroke:#000000;stroke-width:1pt"
         transform="matrix(0.2,0,0,0.2,1.48,0.2)" />
    </marker>
    <marker
       inkscape:stockid="DotS"
       orient="auto"
       refY="0"
       refX="0"
       id="DotS-11"
       style="overflow:visible">
      <path
         inkscape:connector-curvature="0"
         id="path3828-58"
         d="m -2.5,-1 c 0,2.76 -2.24,5 -5,5 -2.76,0 -5,-2.24 -5,-5 0,-2.76 2.24,-5 5,-5 2.76,0 5,2.24 5,5 z"
         style="fill-rule:evenodd;stroke:#000000;stroke-width:1pt"
         transform="matrix(0.2,0,0,0.2,1.48,0.2)" />
    </marker>
    <marker
       inkscape:stockid="DotS"
       orient="auto"
       refY="0"
       refX="0"
       id="marker4954"
       style="overflow:visible">
      <path
         inkscape:connector-curvature="0"
         id="path4956"
         d="m -2.5,-1 c 0,2.76 -2.24,5 -5,5 -2.76,0 -5,-2.24 -5,-5 0,-2.76 2.24,-5 5,-5 2.76,0 5,2.24 5,5 z"
         style="fill-rule:evenodd;stroke:#000000;stroke-width:1pt"
         transform="matrix(0.2,0,0,0.2,1.48,0.2)" />
    </marker>
    <marker
       inkscape:stockid="DotS"
       orient="auto"
       refY="0"
       refX="0"
       id="DotS-7"
       style="overflow:visible">
      <path
         inkscape:connector-curvature="0"
         id="path3828-3"
         d="m -2.5,-1 c 0,2.76 -2.24,5 -5,5 -2.76,0 -5,-2.24 -5,-5 0,-2.76 2.24,-5 5,-5 2.76,0 5,2.24 5,5 z"
         style="fill-rule:evenodd;stroke:#000000;stroke-width:1pt"
         transform="matrix(0.2,0,0,0.2,1.48,0.2)" />
    </marker>
    <marker
       inkscape:stockid="DotS"
       orient="auto"
       refY="0"
       refX="0"
       id="marker5024"
       style="overflow:visible">
      <path
         inkscape:connector-curvature="0"
         id="path5026"
         d="m -2.5,-1 c 0,2.76 -2.24,5 -5,5 -2.76,0 -5,-2.24 -5,-5 0,-2.76 2.24,-5 5,-5 2.76,0 5,2.24 5,5 z"
         style="fill-rule:evenodd;stroke:#000000;stroke-width:1pt"
         transform="matrix(0.2,0,0,0.2,1.48,0.2)" />
    </marker>
    <marker
       inkscape:stockid="DotS"
       orient="auto"
       refY="0"
       refX="0"
       id="DotS-34"
       style="overflow:visible">
      <path
         inkscape:connector-curvature="0"
         id="path3828-16"
         d="m -2.5,-1 c 0,2.76 -2.24,5 -5,5 -2.76,0 -5,-2.24 -5,-5 0,-2.76 2.24,-5 5,-5 2.76,0 5,2.24 5,5 z"
         style="fill-rule:evenodd;stroke:#000000;stroke-width:1pt"
         transform="matrix(0.2,0,0,0.2,1.48,0.2)" />
    </marker>
    <marker
       inkscape:stockid="DotS"
       orient="auto"
       refY="0"
       refX="0"
       id="marker5056"
       style="overflow:visible">
      <path
         inkscape:connector-curvature="0"
         id="path5058"
         d="m -2.5,-1 c 0,2.76 -2.24,5 -5,5 -2.76,0 -5,-2.24 -5,-5 0,-2.76 2.24,-5 5,-5 2.76,0 5,2.24 5,5 z"
         style="fill-rule:evenodd;stroke:#000000;stroke-width:1pt"
         transform="matrix(0.2,0,0,0.2,1.48,0.2)" />
    </marker>
    <marker
       inkscape:stockid="DotS"
       orient="auto"
       refY="0"
       refX="0"
       id="marker4516-8"
       style="overflow:visible">
      <path
         inkscape:connector-curvature="0"
         id="path4518-5"
         d="m -2.5,-1 c 0,2.76 -2.24,5 -5,5 -2.76,0 -5,-2.24 -5,-5 0,-2.76 2.24,-5 5,-5 2.76,0 5,2.24 5,5 z"
         style="fill-rule:evenodd;stroke:#000000;stroke-width:1pt"
         transform="matrix(0.2,0,0,0.2,1.48,0.2)" />
    </marker>
    <marker
       inkscape:stockid="DotS"
       orient="auto"
       refY="0"
       refX="0"
       id="marker5088"
       style="overflow:visible">
      <path
         inkscape:connector-curvature="0"
         id="path5090"
         d="m -2.5,-1 c 0,2.76 -2.24,5 -5,5 -2.76,0 -5,-2.24 -5,-5 0,-2.76 2.24,-5 5,-5 2.76,0 5,2.24 5,5 z"
         style="fill-rule:evenodd;stroke:#000000;stroke-width:1pt"
         transform="matrix(0.2,0,0,0.2,1.48,0.2)" />
    </marker>
    <marker
       inkscape:stockid="DotS"
       orient="auto"
       refY="0"
       refX="0"
       id="marker4516-9"
       style="overflow:visible">
      <path
         inkscape:connector-curvature="0"
         id="path4518-55"
         d="m -2.5,-1 c 0,2.76 -2.24,5 -5,5 -2.76,0 -5,-2.24 -5,-5 0,-2.76 2.24,-5 5,-5 2.76,0 5,2.24 5,5 z"
         style="fill-rule:evenodd;stroke:#000000;stroke-width:1pt"
         transform="matrix(0.2,0,0,0.2,1.48,0.2)" />
    </marker>
    <marker
       inkscape:stockid="DotS"
       orient="auto"
       refY="0"
       refX="0"
       id="marker5137"
       style="overflow:visible">
      <path
         inkscape:connector-curvature="0"
         id="path5139"
         d="m -2.5,-1 c 0,2.76 -2.24,5 -5,5 -2.76,0 -5,-2.24 -5,-5 0,-2.76 2.24,-5 5,-5 2.76,0 5,2.24 5,5 z"
         style="fill-rule:evenodd;stroke:#000000;stroke-width:1pt"
         transform="matrix(0.2,0,0,0.2,1.48,0.2)" />
    </marker>
    <marker
       inkscape:stockid="DotS"
       orient="auto"
       refY="0"
       refX="0"
       id="DotS-0"
       style="overflow:visible">
      <path
         inkscape:connector-curvature="0"
         id="path3828-4"
         d="m -2.5,-1 c 0,2.76 -2.24,5 -5,5 -2.76,0 -5,-2.24 -5,-5 0,-2.76 2.24,-5 5,-5 2.76,0 5,2.24 5,5 z"
         style="fill-rule:evenodd;stroke:#000000;stroke-width:1pt"
         transform="matrix(0.2,0,0,0.2,1.48,0.2)" />
    </marker>
    <marker
       inkscape:stockid="DotS"
       orient="auto"
       refY="0"
       refX="0"
       id="marker5169"
       style="overflow:visible">
      <path
         inkscape:connector-curvature="0"
         id="path5171"
         d="m -2.5,-1 c 0,2.76 -2.24,5 -5,5 -2.76,0 -5,-2.24 -5,-5 0,-2.76 2.24,-5 5,-5 2.76,0 5,2.24 5,5 z"
         style="fill-rule:evenodd;stroke:#000000;stroke-width:1pt"
         transform="matrix(0.2,0,0,0.2,1.48,0.2)" />
    </marker>
    <marker
       inkscape:stockid="DotS"
       orient="auto"
       refY="0"
       refX="0"
       id="DotS-8"
       style="overflow:visible">
      <path
         inkscape:connector-curvature="0"
         id="path3828-66"
         d="m -2.5,-1 c 0,2.76 -2.24,5 -5,5 -2.76,0 -5,-2.24 -5,-5 0,-2.76 2.24,-5 5,-5 2.76,0 5,2.24 5,5 z"
         style="fill-rule:evenodd;stroke:#000000;stroke-width:1pt"
         transform="matrix(0.2,0,0,0.2,1.48,0.2)" />
    </marker>
    <marker
       inkscape:stockid="DotS"
       orient="auto"
       refY="0"
       refX="0"
       id="marker5218"
       style="overflow:visible">
      <path
         inkscape:connector-curvature="0"
         id="path5220"
         d="m -2.5,-1 c 0,2.76 -2.24,5 -5,5 -2.76,0 -5,-2.24 -5,-5 0,-2.76 2.24,-5 5,-5 2.76,0 5,2.24 5,5 z"
         style="fill-rule:evenodd;stroke:#000000;stroke-width:1pt"
         transform="matrix(0.2,0,0,0.2,1.48,0.2)" />
    </marker>
    <marker
       inkscape:stockid="DotSv"
       orient="auto"
       refY="0"
       refX="0"
       id="DotSv"
       style="overflow:visible">
      <path
         id="path5753"
         d="m -2.5,-1 c 0,2.76 -2.24,5 -5,5 -2.76,0 -5,-2.24 -5,-5 0,-2.76 2.24,-5 5,-5 2.76,0 5,2.24 5,5 z"
         style="fill:#858585;fill-rule:evenodd;stroke:#858585;stroke-width:1pt"
         transform="matrix(0.2,0,0,0.2,1.48,0.2)"
         inkscape:connector-curvature="0" />
    </marker>
    <marker
       inkscape:stockid="DotSs"
       orient="auto"
       refY="0"
       refX="0"
       id="DotSs"
       style="overflow:visible">
      <path
         id="path5756"
         d="m -2.5,-1 c 0,2.76 -2.24,5 -5,5 -2.76,0 -5,-2.24 -5,-5 0,-2.76 2.24,-5 5,-5 2.76,0 5,2.24 5,5 z"
         style="fill:#858585;fill-rule:evenodd;stroke:#858585;stroke-width:1pt"
         transform="matrix(0.2,0,0,0.2,1.48,0.2)"
         inkscape:connector-curvature="0" />
    </marker>
    <marker
       inkscape:stockid="DotSk"
       orient="auto"
       refY="0"
       refX="0"
       id="DotSk"
       style="overflow:visible">
      <path
         id="path5759"
         d="m -2.5,-1 c 0,2.76 -2.24,5 -5,5 -2.76,0 -5,-2.24 -5,-5 0,-2.76 2.24,-5 5,-5 2.76,0 5,2.24 5,5 z"
         style="fill:#858585;fill-rule:evenodd;stroke:#858585;stroke-width:1pt"
         transform="matrix(0.2,0,0,0.2,1.48,0.2)"
         inkscape:connector-curvature="0" />
    </marker>
    <marker
       inkscape:stockid="DotSK"
       orient="auto"
       refY="0"
       refX="0"
       id="DotSK"
       style="overflow:visible">
      <path
         id="path5762"
         d="m -2.5,-1 c 0,2.76 -2.24,5 -5,5 -2.76,0 -5,-2.24 -5,-5 0,-2.76 2.24,-5 5,-5 2.76,0 5,2.24 5,5 z"
         style="fill:#858585;fill-rule:evenodd;stroke:#858585;stroke-width:1pt"
         transform="matrix(0.2,0,0,0.2,1.48,0.2)"
         inkscape:connector-curvature="0" />
    </marker>
    <marker
       inkscape:stockid="DotSQ"
       orient="auto"
       refY="0"
       refX="0"
       id="DotSQ"
       style="overflow:visible">
      <path
         id="path5765"
         d="m -2.5,-1 c 0,2.76 -2.24,5 -5,5 -2.76,0 -5,-2.24 -5,-5 0,-2.76 2.24,-5 5,-5 2.76,0 5,2.24 5,5 z"
         style="fill:#858585;fill-rule:evenodd;stroke:#858585;stroke-width:1pt"
         transform="matrix(0.2,0,0,0.2,1.48,0.2)"
         inkscape:connector-curvature="0" />
    </marker>
    <marker
       inkscape:stockid="DotSg"
       orient="auto"
       refY="0"
       refX="0"
       id="DotSg"
       style="overflow:visible">
      <path
         id="path5768"
         d="m -2.5,-1 c 0,2.76 -2.24,5 -5,5 -2.76,0 -5,-2.24 -5,-5 0,-2.76 2.24,-5 5,-5 2.76,0 5,2.24 5,5 z"
         style="fill:#858585;fill-rule:evenodd;stroke:#858585;stroke-width:1pt"
         transform="matrix(0.2,0,0,0.2,1.48,0.2)"
         inkscape:connector-curvature="0" />
    </marker>
    <marker
       inkscape:stockid="marker4516J"
       orient="auto"
       refY="0"
       refX="0"
       id="marker4516J"
       style="overflow:visible">
      <path
         inkscape:connector-curvature="0"
         id="path5771"
         d="m -2.5,-1 c 0,2.76 -2.24,5 -5,5 -2.76,0 -5,-2.24 -5,-5 0,-2.76 2.24,-5 5,-5 2.76,0 5,2.24 5,5 z"
         style="fill:#858585;fill-rule:evenodd;stroke:#858585;stroke-width:1pt"
         transform="matrix(0.2,0,0,0.2,1.48,0.2)" />
    </marker>
    <marker
       inkscape:stockid="marker4516P"
       orient="auto"
       refY="0"
       refX="0"
       id="marker4516P"
       style="overflow:visible">
      <path
         inkscape:connector-curvature="0"
         id="path5774"
         d="m -2.5,-1 c 0,2.76 -2.24,5 -5,5 -2.76,0 -5,-2.24 -5,-5 0,-2.76 2.24,-5 5,-5 2.76,0 5,2.24 5,5 z"
         style="fill:#858585;fill-rule:evenodd;stroke:#858585;stroke-width:1pt"
         transform="matrix(0.2,0,0,0.2,1.48,0.2)" />
    </marker>
    <marker
       inkscape:stockid="DotSC"
       orient="auto"
       refY="0"
       refX="0"
       id="DotSC"
       style="overflow:visible">
      <path
         id="path5777"
         d="m -2.5,-1 c 0,2.76 -2.24,5 -5,5 -2.76,0 -5,-2.24 -5,-5 0,-2.76 2.24,-5 5,-5 2.76,0 5,2.24 5,5 z"
         style="fill:#858585;fill-rule:evenodd;stroke:#858585;stroke-width:1pt"
         transform="matrix(0.2,0,0,0.2,1.48,0.2)"
         inkscape:connector-curvature="0" />
    </marker>
    <marker
       inkscape:stockid="DotSL"
       orient="auto"
       refY="0"
       refX="0"
       id="DotSL"
       style="overflow:visible">
      <path
         id="path5780"
         d="m -2.5,-1 c 0,2.76 -2.24,5 -5,5 -2.76,0 -5,-2.24 -5,-5 0,-2.76 2.24,-5 5,-5 2.76,0 5,2.24 5,5 z"
         style="fill:#858585;fill-rule:evenodd;stroke:#858585;stroke-width:1pt"
         transform="matrix(0.2,0,0,0.2,1.48,0.2)"
         inkscape:connector-curvature="0" />
    </marker>
    <marker
       inkscape:stockid="DotSf"
       orient="auto"
       refY="0"
       refX="0"
       id="DotSf"
       style="overflow:visible">
      <path
         id="path5783"
         d="m -2.5,-1 c 0,2.76 -2.24,5 -5,5 -2.76,0 -5,-2.24 -5,-5 0,-2.76 2.24,-5 5,-5 2.76,0 5,2.24 5,5 z"
         style="fill:#858585;fill-rule:evenodd;stroke:#858585;stroke-width:1pt"
         transform="matrix(0.2,0,0,0.2,1.48,0.2)"
         inkscape:connector-curvature="0" />
    </marker>
    <marker
       inkscape:stockid="DotS7"
       orient="auto"
       refY="0"
       refX="0"
       id="DotS7"
       style="overflow:visible">
      <path
         id="path5786"
         d="m -2.5,-1 c 0,2.76 -2.24,5 -5,5 -2.76,0 -5,-2.24 -5,-5 0,-2.76 2.24,-5 5,-5 2.76,0 5,2.24 5,5 z"
         style="fill:#858585;fill-rule:evenodd;stroke:#858585;stroke-width:1pt"
         transform="matrix(0.2,0,0,0.2,1.48,0.2)"
         inkscape:connector-curvature="0" />
    </marker>
    <marker
       inkscape:stockid="DotSS"
       orient="auto"
       refY="0"
       refX="0"
       id="DotSS"
       style="overflow:visible">
      <path
         id="path5789"
         d="m -2.5,-1 c 0,2.76 -2.24,5 -5,5 -2.76,0 -5,-2.24 -5,-5 0,-2.76 2.24,-5 5,-5 2.76,0 5,2.24 5,5 z"
         style="fill:#858585;fill-rule:evenodd;stroke:#858585;stroke-width:1pt"
         transform="matrix(0.2,0,0,0.2,1.48,0.2)"
         inkscape:connector-curvature="0" />
    </marker>
    <marker
       inkscape:stockid="DotSy"
       orient="auto"
       refY="0"
       refX="0"
       id="DotSy"
       style="overflow:visible">
      <path
         id="path5792"
         d="m -2.5,-1 c 0,2.76 -2.24,5 -5,5 -2.76,0 -5,-2.24 -5,-5 0,-2.76 2.24,-5 5,-5 2.76,0 5,2.24 5,5 z"
         style="fill:#858585;fill-rule:evenodd;stroke:#858585;stroke-width:1pt"
         transform="matrix(0.2,0,0,0.2,1.48,0.2)"
         inkscape:connector-curvature="0" />
    </marker>
    <marker
       inkscape:stockid="marker4516C"
       orient="auto"
       refY="0"
       refX="0"
       id="marker4516C"
       style="overflow:visible">
      <path
         inkscape:connector-curvature="0"
         id="path5795"
         d="m -2.5,-1 c 0,2.76 -2.24,5 -5,5 -2.76,0 -5,-2.24 -5,-5 0,-2.76 2.24,-5 5,-5 2.76,0 5,2.24 5,5 z"
         style="fill:#858585;fill-rule:evenodd;stroke:#858585;stroke-width:1pt"
         transform="matrix(0.2,0,0,0.2,1.48,0.2)" />
    </marker>
    <marker
       inkscape:stockid="marker45162"
       orient="auto"
       refY="0"
       refX="0"
       id="marker45162"
       style="overflow:visible">
      <path
         inkscape:connector-curvature="0"
         id="path5798"
         d="m -2.5,-1 c 0,2.76 -2.24,5 -5,5 -2.76,0 -5,-2.24 -5,-5 0,-2.76 2.24,-5 5,-5 2.76,0 5,2.24 5,5 z"
         style="fill:#858585;fill-rule:evenodd;stroke:#858585;stroke-width:1pt"
         transform="matrix(0.2,0,0,0.2,1.48,0.2)" />
    </marker>
    <marker
       inkscape:stockid="DotSG"
       orient="auto"
       refY="0"
       refX="0"
       id="DotSG"
       style="overflow:visible">
      <path
         id="path5801"
         d="m -2.5,-1 c 0,2.76 -2.24,5 -5,5 -2.76,0 -5,-2.24 -5,-5 0,-2.76 2.24,-5 5,-5 2.76,0 5,2.24 5,5 z"
         style="fill:#858585;fill-rule:evenodd;stroke:#858585;stroke-width:1pt"
         transform="matrix(0.2,0,0,0.2,1.48,0.2)"
         inkscape:connector-curvature="0" />
    </marker>
    <marker
       inkscape:stockid="DotS5"
       orient="auto"
       refY="0"
       refX="0"
       id="DotS5"
       style="overflow:visible">
      <path
         id="path5804"
         d="m -2.5,-1 c 0,2.76 -2.24,5 -5,5 -2.76,0 -5,-2.24 -5,-5 0,-2.76 2.24,-5 5,-5 2.76,0 5,2.24 5,5 z"
         style="fill:#858585;fill-rule:evenodd;stroke:#858585;stroke-width:1pt"
         transform="matrix(0.2,0,0,0.2,1.48,0.2)"
         inkscape:connector-curvature="0" />
    </marker>
    <marker
       inkscape:stockid="DotSsA"
       orient="auto"
       refY="0"
       refX="0"
       id="DotSsA"
       style="overflow:visible">
      <path
         id="path5807"
         d="m -2.5,-1 c 0,2.76 -2.24,5 -5,5 -2.76,0 -5,-2.24 -5,-5 0,-2.76 2.24,-5 5,-5 2.76,0 5,2.24 5,5 z"
         style="fill:#858585;fill-rule:evenodd;stroke:#858585;stroke-width:1pt"
         transform="matrix(0.2,0,0,0.2,1.48,0.2)"
         inkscape:connector-curvature="0" />
    </marker>
    <marker
       inkscape:stockid="DotSLd"
       orient="auto"
       refY="0"
       refX="0"
       id="DotSLd"
       style="overflow:visible">
      <path
         id="path5810"
         d="m -2.5,-1 c 0,2.76 -2.24,5 -5,5 -2.76,0 -5,-2.24 -5,-5 0,-2.76 2.24,-5 5,-5 2.76,0 5,2.24 5,5 z"
         style="fill:#858585;fill-rule:evenodd;stroke:#858585;stroke-width:1pt"
         transform="matrix(0.2,0,0,0.2,1.48,0.2)"
         inkscape:connector-curvature="0" />
    </marker>
    <marker
       inkscape:stockid="DotSd"
       orient="auto"
       refY="0"
       refX="0"
       id="DotSd"
       style="overflow:visible">
      <path
         id="path5813"
         d="m -2.5,-1 c 0,2.76 -2.24,5 -5,5 -2.76,0 -5,-2.24 -5,-5 0,-2.76 2.24,-5 5,-5 2.76,0 5,2.24 5,5 z"
         style="fill:#858585;fill-rule:evenodd;stroke:#858585;stroke-width:1pt"
         transform="matrix(0.2,0,0,0.2,1.48,0.2)"
         inkscape:connector-curvature="0" />
    </marker>
    <marker
       inkscape:stockid="DotSyI"
       orient="auto"
       refY="0"
       refX="0"
       id="DotSyI"
       style="overflow:visible">
      <path
         id="path5816"
         d="m -2.5,-1 c 0,2.76 -2.24,5 -5,5 -2.76,0 -5,-2.24 -5,-5 0,-2.76 2.24,-5 5,-5 2.76,0 5,2.24 5,5 z"
         style="fill:#858585;fill-rule:evenodd;stroke:#858585;stroke-width:1pt"
         transform="matrix(0.2,0,0,0.2,1.48,0.2)"
         inkscape:connector-curvature="0" />
    </marker>
    <marker
       inkscape:stockid="marker4516y"
       orient="auto"
       refY="0"
       refX="0"
       id="marker4516y"
       style="overflow:visible">
      <path
         inkscape:connector-curvature="0"
         id="path5819"
         d="m -2.5,-1 c 0,2.76 -2.24,5 -5,5 -2.76,0 -5,-2.24 -5,-5 0,-2.76 2.24,-5 5,-5 2.76,0 5,2.24 5,5 z"
         style="fill:#858585;fill-rule:evenodd;stroke:#858585;stroke-width:1pt"
         transform="matrix(0.2,0,0,0.2,1.48,0.2)" />
    </marker>
    <marker
       inkscape:stockid="marker4516I"
       orient="auto"
       refY="0"
       refX="0"
       id="marker4516I"
       style="overflow:visible">
      <path
         inkscape:connector-curvature="0"
         id="path5822"
         d="m -2.5,-1 c 0,2.76 -2.24,5 -5,5 -2.76,0 -5,-2.24 -5,-5 0,-2.76 2.24,-5 5,-5 2.76,0 5,2.24 5,5 z"
         style="fill:#858585;fill-rule:evenodd;stroke:#858585;stroke-width:1pt"
         transform="matrix(0.2,0,0,0.2,1.48,0.2)" />
    </marker>
    <marker
       inkscape:stockid="marker5218b"
       orient="auto"
       refY="0"
       refX="0"
       id="marker5218b"
       style="overflow:visible">
      <path
         inkscape:connector-curvature="0"
         id="path5825"
         d="m -2.5,-1 c 0,2.76 -2.24,5 -5,5 -2.76,0 -5,-2.24 -5,-5 0,-2.76 2.24,-5 5,-5 2.76,0 5,2.24 5,5 z"
         style="fill:#858585;fill-rule:evenodd;stroke:#858585;stroke-width:1pt"
         transform="matrix(0.2,0,0,0.2,1.48,0.2)" />
    </marker>
    <marker
       inkscape:stockid="marker5218X"
       orient="auto"
       refY="0"
       refX="0"
       id="marker5218X"
       style="overflow:visible">
      <path
         inkscape:connector-curvature="0"
         id="path5828"
         d="m -2.5,-1 c 0,2.76 -2.24,5 -5,5 -2.76,0 -5,-2.24 -5,-5 0,-2.76 2.24,-5 5,-5 2.76,0 5,2.24 5,5 z"
         style="fill:#858585;fill-rule:evenodd;stroke:#858585;stroke-width:1pt"
         transform="matrix(0.2,0,0,0.2,1.48,0.2)" />
    </marker>
    <marker
       inkscape:stockid="DotSQL"
       orient="auto"
       refY="0"
       refX="0"
       id="DotSQL"
       style="overflow:visible">
      <path
         id="path6109"
         d="m -2.5,-1 c 0,2.76 -2.24,5 -5,5 -2.76,0 -5,-2.24 -5,-5 0,-2.76 2.24,-5 5,-5 2.76,0 5,2.24 5,5 z"
         style="fill:#ffc400;fill-rule:evenodd;stroke:#ffc400;stroke-width:1pt"
         transform="matrix(0.2,0,0,0.2,1.48,0.2)"
         inkscape:connector-curvature="0" />
    </marker>
    <marker
       inkscape:stockid="DotSgb"
       orient="auto"
       refY="0"
       refX="0"
       id="DotSgb"
       style="overflow:visible">
      <path
         id="path6112"
         d="m -2.5,-1 c 0,2.76 -2.24,5 -5,5 -2.76,0 -5,-2.24 -5,-5 0,-2.76 2.24,-5 5,-5 2.76,0 5,2.24 5,5 z"
         style="fill:#ffc400;fill-rule:evenodd;stroke:#ffc400;stroke-width:1pt"
         transform="matrix(0.2,0,0,0.2,1.48,0.2)"
         inkscape:connector-curvature="0" />
    </marker>
    <marker
       inkscape:stockid="marker4516J6"
       orient="auto"
       refY="0"
       refX="0"
       id="marker4516J6"
       style="overflow:visible">
      <path
         inkscape:connector-curvature="0"
         id="path6115"
         d="m -2.5,-1 c 0,2.76 -2.24,5 -5,5 -2.76,0 -5,-2.24 -5,-5 0,-2.76 2.24,-5 5,-5 2.76,0 5,2.24 5,5 z"
         style="fill:#ffc400;fill-rule:evenodd;stroke:#ffc400;stroke-width:1pt"
         transform="matrix(0.2,0,0,0.2,1.48,0.2)" />
    </marker>
    <marker
       inkscape:stockid="marker4516Pl"
       orient="auto"
       refY="0"
       refX="0"
       id="marker4516Pl"
       style="overflow:visible">
      <path
         inkscape:connector-curvature="0"
         id="path6118"
         d="m -2.5,-1 c 0,2.76 -2.24,5 -5,5 -2.76,0 -5,-2.24 -5,-5 0,-2.76 2.24,-5 5,-5 2.76,0 5,2.24 5,5 z"
         style="fill:#ffc400;fill-rule:evenodd;stroke:#ffc400;stroke-width:1pt"
         transform="matrix(0.2,0,0,0.2,1.48,0.2)" />
    </marker>
    <marker
       inkscape:stockid="DotSSB"
       orient="auto"
       refY="0"
       refX="0"
       id="DotSSB"
       style="overflow:visible">
      <path
         id="path6121"
         d="m -2.5,-1 c 0,2.76 -2.24,5 -5,5 -2.76,0 -5,-2.24 -5,-5 0,-2.76 2.24,-5 5,-5 2.76,0 5,2.24 5,5 z"
         style="fill:#ffc400;fill-rule:evenodd;stroke:#ffc400;stroke-width:1pt"
         transform="matrix(0.2,0,0,0.2,1.48,0.2)"
         inkscape:connector-curvature="0" />
    </marker>
    <marker
       inkscape:stockid="DotSyD"
       orient="auto"
       refY="0"
       refX="0"
       id="DotSyD"
       style="overflow:visible">
      <path
         id="path6124"
         d="m -2.5,-1 c 0,2.76 -2.24,5 -5,5 -2.76,0 -5,-2.24 -5,-5 0,-2.76 2.24,-5 5,-5 2.76,0 5,2.24 5,5 z"
         style="fill:#ffc400;fill-rule:evenodd;stroke:#ffc400;stroke-width:1pt"
         transform="matrix(0.2,0,0,0.2,1.48,0.2)"
         inkscape:connector-curvature="0" />
    </marker>
    <marker
       inkscape:stockid="marker4516Ct"
       orient="auto"
       refY="0"
       refX="0"
       id="marker4516Ct"
       style="overflow:visible">
      <path
         inkscape:connector-curvature="0"
         id="path6127"
         d="m -2.5,-1 c 0,2.76 -2.24,5 -5,5 -2.76,0 -5,-2.24 -5,-5 0,-2.76 2.24,-5 5,-5 2.76,0 5,2.24 5,5 z"
         style="fill:#ffc400;fill-rule:evenodd;stroke:#ffc400;stroke-width:1pt"
         transform="matrix(0.2,0,0,0.2,1.48,0.2)" />
    </marker>
    <marker
       inkscape:stockid="marker451623"
       orient="auto"
       refY="0"
       refX="0"
       id="marker451623"
       style="overflow:visible">
      <path
         inkscape:connector-curvature="0"
         id="path6130"
         d="m -2.5,-1 c 0,2.76 -2.24,5 -5,5 -2.76,0 -5,-2.24 -5,-5 0,-2.76 2.24,-5 5,-5 2.76,0 5,2.24 5,5 z"
         style="fill:#ffc400;fill-rule:evenodd;stroke:#ffc400;stroke-width:1pt"
         transform="matrix(0.2,0,0,0.2,1.48,0.2)" />
    </marker>
    <marker
       inkscape:stockid="marker4516yb"
       orient="auto"
       refY="0"
       refX="0"
       id="marker4516yb"
       style="overflow:visible">
      <path
         inkscape:connector-curvature="0"
         id="path6133"
         d="m -2.5,-1 c 0,2.76 -2.24,5 -5,5 -2.76,0 -5,-2.24 -5,-5 0,-2.76 2.24,-5 5,-5 2.76,0 5,2.24 5,5 z"
         style="fill:#ffc400;fill-rule:evenodd;stroke:#ffc400;stroke-width:1pt"
         transform="matrix(0.2,0,0,0.2,1.48,0.2)" />
    </marker>
    <marker
       inkscape:stockid="marker4516IS"
       orient="auto"
       refY="0"
       refX="0"
       id="marker4516IS"
       style="overflow:visible">
      <path
         inkscape:connector-curvature="0"
         id="path6136"
         d="m -2.5,-1 c 0,2.76 -2.24,5 -5,5 -2.76,0 -5,-2.24 -5,-5 0,-2.76 2.24,-5 5,-5 2.76,0 5,2.24 5,5 z"
         style="fill:#ffc400;fill-rule:evenodd;stroke:#ffc400;stroke-width:1pt"
         transform="matrix(0.2,0,0,0.2,1.48,0.2)" />
    </marker>
    <marker
       inkscape:stockid="DotSsAi"
       orient="auto"
       refY="0"
       refX="0"
       id="DotSsAi"
       style="overflow:visible">
      <path
         id="path6139"
         d="m -2.5,-1 c 0,2.76 -2.24,5 -5,5 -2.76,0 -5,-2.24 -5,-5 0,-2.76 2.24,-5 5,-5 2.76,0 5,2.24 5,5 z"
         style="fill:#ffc400;fill-rule:evenodd;stroke:#ffc400;stroke-width:1pt"
         transform="matrix(0.2,0,0,0.2,1.48,0.2)"
         inkscape:connector-curvature="0" />
    </marker>
    <marker
       inkscape:stockid="DotSLdG"
       orient="auto"
       refY="0"
       refX="0"
       id="DotSLdG"
       style="overflow:visible">
      <path
         id="path6142"
         d="m -2.5,-1 c 0,2.76 -2.24,5 -5,5 -2.76,0 -5,-2.24 -5,-5 0,-2.76 2.24,-5 5,-5 2.76,0 5,2.24 5,5 z"
         style="fill:#ffc400;fill-rule:evenodd;stroke:#ffc400;stroke-width:1pt"
         transform="matrix(0.2,0,0,0.2,1.48,0.2)"
         inkscape:connector-curvature="0" />
    </marker>
    <marker
       inkscape:stockid="DotSd7"
       orient="auto"
       refY="0"
       refX="0"
       id="DotSd7"
       style="overflow:visible">
      <path
         id="path6145"
         d="m -2.5,-1 c 0,2.76 -2.24,5 -5,5 -2.76,0 -5,-2.24 -5,-5 0,-2.76 2.24,-5 5,-5 2.76,0 5,2.24 5,5 z"
         style="fill:#ffc400;fill-rule:evenodd;stroke:#ffc400;stroke-width:1pt"
         transform="matrix(0.2,0,0,0.2,1.48,0.2)"
         inkscape:connector-curvature="0" />
    </marker>
    <marker
       inkscape:stockid="DotSyIp"
       orient="auto"
       refY="0"
       refX="0"
       id="DotSyIp"
       style="overflow:visible">
      <path
         id="path6148"
         d="m -2.5,-1 c 0,2.76 -2.24,5 -5,5 -2.76,0 -5,-2.24 -5,-5 0,-2.76 2.24,-5 5,-5 2.76,0 5,2.24 5,5 z"
         style="fill:#ffc400;fill-rule:evenodd;stroke:#ffc400;stroke-width:1pt"
         transform="matrix(0.2,0,0,0.2,1.48,0.2)"
         inkscape:connector-curvature="0" />
    </marker>
    <marker
       inkscape:stockid="DotSvS"
       orient="auto"
       refY="0"
       refX="0"
       id="DotSvS"
       style="overflow:visible">
      <path
         id="path6151"
         d="m -2.5,-1 c 0,2.76 -2.24,5 -5,5 -2.76,0 -5,-2.24 -5,-5 0,-2.76 2.24,-5 5,-5 2.76,0 5,2.24 5,5 z"
         style="fill:#ffc400;fill-rule:evenodd;stroke:#ffc400;stroke-width:1pt"
         transform="matrix(0.2,0,0,0.2,1.48,0.2)"
         inkscape:connector-curvature="0" />
    </marker>
    <marker
       inkscape:stockid="DotSsJ"
       orient="auto"
       refY="0"
       refX="0"
       id="DotSsJ"
       style="overflow:visible">
      <path
         id="path6154"
         d="m -2.5,-1 c 0,2.76 -2.24,5 -5,5 -2.76,0 -5,-2.24 -5,-5 0,-2.76 2.24,-5 5,-5 2.76,0 5,2.24 5,5 z"
         style="fill:#ffc400;fill-rule:evenodd;stroke:#ffc400;stroke-width:1pt"
         transform="matrix(0.2,0,0,0.2,1.48,0.2)"
         inkscape:connector-curvature="0" />
    </marker>
    <marker
       inkscape:stockid="DotSfb"
       orient="auto"
       refY="0"
       refX="0"
       id="DotSfb"
       style="overflow:visible">
      <path
         id="path6157"
         d="m -2.5,-1 c 0,2.76 -2.24,5 -5,5 -2.76,0 -5,-2.24 -5,-5 0,-2.76 2.24,-5 5,-5 2.76,0 5,2.24 5,5 z"
         style="fill:#ffc400;fill-rule:evenodd;stroke:#ffc400;stroke-width:1pt"
         transform="matrix(0.2,0,0,0.2,1.48,0.2)"
         inkscape:connector-curvature="0" />
    </marker>
    <marker
       inkscape:stockid="DotS7T"
       orient="auto"
       refY="0"
       refX="0"
       id="DotS7T"
       style="overflow:visible">
      <path
         id="path6160"
         d="m -2.5,-1 c 0,2.76 -2.24,5 -5,5 -2.76,0 -5,-2.24 -5,-5 0,-2.76 2.24,-5 5,-5 2.76,0 5,2.24 5,5 z"
         style="fill:#ffc400;fill-rule:evenodd;stroke:#ffc400;stroke-width:1pt"
         transform="matrix(0.2,0,0,0.2,1.48,0.2)"
         inkscape:connector-curvature="0" />
    </marker>
    <marker
       inkscape:stockid="DotSko"
       orient="auto"
       refY="0"
       refX="0"
       id="DotSko"
       style="overflow:visible">
      <path
         id="path6163"
         d="m -2.5,-1 c 0,2.76 -2.24,5 -5,5 -2.76,0 -5,-2.24 -5,-5 0,-2.76 2.24,-5 5,-5 2.76,0 5,2.24 5,5 z"
         style="fill:#ffc400;fill-rule:evenodd;stroke:#ffc400;stroke-width:1pt"
         transform="matrix(0.2,0,0,0.2,1.48,0.2)"
         inkscape:connector-curvature="0" />
    </marker>
    <marker
       inkscape:stockid="DotSKZ"
       orient="auto"
       refY="0"
       refX="0"
       id="DotSKZ"
       style="overflow:visible">
      <path
         id="path6166"
         d="m -2.5,-1 c 0,2.76 -2.24,5 -5,5 -2.76,0 -5,-2.24 -5,-5 0,-2.76 2.24,-5 5,-5 2.76,0 5,2.24 5,5 z"
         style="fill:#ffc400;fill-rule:evenodd;stroke:#ffc400;stroke-width:1pt"
         transform="matrix(0.2,0,0,0.2,1.48,0.2)"
         inkscape:connector-curvature="0" />
    </marker>
    <marker
       inkscape:stockid="DotSCa"
       orient="auto"
       refY="0"
       refX="0"
       id="DotSCa"
       style="overflow:visible">
      <path
         id="path6169"
         d="m -2.5,-1 c 0,2.76 -2.24,5 -5,5 -2.76,0 -5,-2.24 -5,-5 0,-2.76 2.24,-5 5,-5 2.76,0 5,2.24 5,5 z"
         style="fill:#ffc400;fill-rule:evenodd;stroke:#ffc400;stroke-width:1pt"
         transform="matrix(0.2,0,0,0.2,1.48,0.2)"
         inkscape:connector-curvature="0" />
    </marker>
    <marker
       inkscape:stockid="DotSLi"
       orient="auto"
       refY="0"
       refX="0"
       id="DotSLi"
       style="overflow:visible">
      <path
         id="path6172"
         d="m -2.5,-1 c 0,2.76 -2.24,5 -5,5 -2.76,0 -5,-2.24 -5,-5 0,-2.76 2.24,-5 5,-5 2.76,0 5,2.24 5,5 z"
         style="fill:#ffc400;fill-rule:evenodd;stroke:#ffc400;stroke-width:1pt"
         transform="matrix(0.2,0,0,0.2,1.48,0.2)"
         inkscape:connector-curvature="0" />
    </marker>
    <marker
       inkscape:stockid="marker5218bQ"
       orient="auto"
       refY="0"
       refX="0"
       id="marker5218bQ"
       style="overflow:visible">
      <path
         inkscape:connector-curvature="0"
         id="path6175"
         d="m -2.5,-1 c 0,2.76 -2.24,5 -5,5 -2.76,0 -5,-2.24 -5,-5 0,-2.76 2.24,-5 5,-5 2.76,0 5,2.24 5,5 z"
         style="fill:#ffc400;fill-rule:evenodd;stroke:#ffc400;stroke-width:1pt"
         transform="matrix(0.2,0,0,0.2,1.48,0.2)" />
    </marker>
    <marker
       inkscape:stockid="marker5218XM"
       orient="auto"
       refY="0"
       refX="0"
       id="marker5218XM"
       style="overflow:visible">
      <path
         inkscape:connector-curvature="0"
         id="path6178"
         d="m -2.5,-1 c 0,2.76 -2.24,5 -5,5 -2.76,0 -5,-2.24 -5,-5 0,-2.76 2.24,-5 5,-5 2.76,0 5,2.24 5,5 z"
         style="fill:#ffc400;fill-rule:evenodd;stroke:#ffc400;stroke-width:1pt"
         transform="matrix(0.2,0,0,0.2,1.48,0.2)" />
    </marker>
    <marker
       inkscape:stockid="DotSGn"
       orient="auto"
       refY="0"
       refX="0"
       id="DotSGn"
       style="overflow:visible">
      <path
         id="path6181"
         d="m -2.5,-1 c 0,2.76 -2.24,5 -5,5 -2.76,0 -5,-2.24 -5,-5 0,-2.76 2.24,-5 5,-5 2.76,0 5,2.24 5,5 z"
         style="fill:#ffc400;fill-rule:evenodd;stroke:#ffc400;stroke-width:1pt"
         transform="matrix(0.2,0,0,0.2,1.48,0.2)"
         inkscape:connector-curvature="0" />
    </marker>
    <marker
       inkscape:stockid="DotS5R"
       orient="auto"
       refY="0"
       refX="0"
       id="DotS5R"
       style="overflow:visible">
      <path
         id="path6184"
         d="m -2.5,-1 c 0,2.76 -2.24,5 -5,5 -2.76,0 -5,-2.24 -5,-5 0,-2.76 2.24,-5 5,-5 2.76,0 5,2.24 5,5 z"
         style="fill:#ffc400;fill-rule:evenodd;stroke:#ffc400;stroke-width:1pt"
         transform="matrix(0.2,0,0,0.2,1.48,0.2)"
         inkscape:connector-curvature="0" />
    </marker>
    <marker
       inkscape:stockid="DotSd7"
       orient="auto"
       refY="0"
       refX="0"
       id="DotSd7-9"
       style="overflow:visible">
      <path
         inkscape:connector-curvature="0"
         id="path6145-2"
         d="m -2.5,-1 c 0,2.76 -2.24,5 -5,5 -2.76,0 -5,-2.24 -5,-5 0,-2.76 2.24,-5 5,-5 2.76,0 5,2.24 5,5 z"
         style="fill:#ffc400;fill-rule:evenodd;stroke:#ffc400;stroke-width:1pt"
         transform="matrix(0.2,0,0,0.2,1.48,0.2)" />
    </marker>
    <marker
       inkscape:stockid="DotSyIp"
       orient="auto"
       refY="0"
       refX="0"
       id="DotSyIp-9"
       style="overflow:visible">
      <path
         inkscape:connector-curvature="0"
         id="path6148-2"
         d="m -2.5,-1 c 0,2.76 -2.24,5 -5,5 -2.76,0 -5,-2.24 -5,-5 0,-2.76 2.24,-5 5,-5 2.76,0 5,2.24 5,5 z"
         style="fill:#ffc400;fill-rule:evenodd;stroke:#ffc400;stroke-width:1pt"
         transform="matrix(0.2,0,0,0.2,1.48,0.2)" />
    </marker>
    <marker
       inkscape:stockid="DotSGn"
       orient="auto"
       refY="0"
       refX="0"
       id="DotSGn-0"
       style="overflow:visible">
      <path
         inkscape:connector-curvature="0"
         id="path6181-6"
         d="m -2.5,-1 c 0,2.76 -2.24,5 -5,5 -2.76,0 -5,-2.24 -5,-5 0,-2.76 2.24,-5 5,-5 2.76,0 5,2.24 5,5 z"
         style="fill:#ffc400;fill-rule:evenodd;stroke:#ffc400;stroke-width:1pt"
         transform="matrix(0.2,0,0,0.2,1.48,0.2)" />
    </marker>
    <marker
       inkscape:stockid="DotS5R"
       orient="auto"
       refY="0"
       refX="0"
       id="DotS5R-3"
       style="overflow:visible">
      <path
         inkscape:connector-curvature="0"
         id="path6184-9"
         d="m -2.5,-1 c 0,2.76 -2.24,5 -5,5 -2.76,0 -5,-2.24 -5,-5 0,-2.76 2.24,-5 5,-5 2.76,0 5,2.24 5,5 z"
         style="fill:#ffc400;fill-rule:evenodd;stroke:#ffc400;stroke-width:1pt"
         transform="matrix(0.2,0,0,0.2,1.48,0.2)" />
    </marker>
    <marker
       inkscape:stockid="marker5218bQ"
       orient="auto"
       refY="0"
       refX="0"
       id="marker5218bQ-7"
       style="overflow:visible">
      <path
         inkscape:connector-curvature="0"
         id="path6175-9"
         d="m -2.5,-1 c 0,2.76 -2.24,5 -5,5 -2.76,0 -5,-2.24 -5,-5 0,-2.76 2.24,-5 5,-5 2.76,0 5,2.24 5,5 z"
         style="fill:#ffc400;fill-rule:evenodd;stroke:#ffc400;stroke-width:1pt"
         transform="matrix(0.2,0,0,0.2,1.48,0.2)" />
    </marker>
    <marker
       inkscape:stockid="marker5218XM"
       orient="auto"
       refY="0"
       refX="0"
       id="marker5218XM-8"
       style="overflow:visible">
      <path
         inkscape:connector-curvature="0"
         id="path6178-2"
         d="m -2.5,-1 c 0,2.76 -2.24,5 -5,5 -2.76,0 -5,-2.24 -5,-5 0,-2.76 2.24,-5 5,-5 2.76,0 5,2.24 5,5 z"
         style="fill:#ffc400;fill-rule:evenodd;stroke:#ffc400;stroke-width:1pt"
         transform="matrix(0.2,0,0,0.2,1.48,0.2)" />
    </marker>
    <marker
       inkscape:stockid="marker5218bQ"
       orient="auto"
       refY="0"
       refX="0"
       id="marker5218bQ-9"
       style="overflow:visible">
      <path
         inkscape:connector-curvature="0"
         id="path6175-95"
         d="m -2.5,-1 c 0,2.76 -2.24,5 -5,5 -2.76,0 -5,-2.24 -5,-5 0,-2.76 2.24,-5 5,-5 2.76,0 5,2.24 5,5 z"
         style="fill:#ffc400;fill-rule:evenodd;stroke:#ffc400;stroke-width:1pt"
         transform="matrix(0.2,0,0,0.2,1.48,0.2)" />
    </marker>
    <marker
       inkscape:stockid="marker5218XM"
       orient="auto"
       refY="0"
       refX="0"
       id="marker5218XM-4"
       style="overflow:visible">
      <path
         inkscape:connector-curvature="0"
         id="path6178-29"
         d="m -2.5,-1 c 0,2.76 -2.24,5 -5,5 -2.76,0 -5,-2.24 -5,-5 0,-2.76 2.24,-5 5,-5 2.76,0 5,2.24 5,5 z"
         style="fill:#ffc400;fill-rule:evenodd;stroke:#ffc400;stroke-width:1pt"
         transform="matrix(0.2,0,0,0.2,1.48,0.2)" />
    </marker>
    <marker
       inkscape:stockid="DotSGn"
       orient="auto"
       refY="0"
       refX="0"
       id="DotSGn-08"
       style="overflow:visible">
      <path
         inkscape:connector-curvature="0"
         id="path6181-5"
         d="m -2.5,-1 c 0,2.76 -2.24,5 -5,5 -2.76,0 -5,-2.24 -5,-5 0,-2.76 2.24,-5 5,-5 2.76,0 5,2.24 5,5 z"
         style="fill:#ffc400;fill-rule:evenodd;stroke:#ffc400;stroke-width:1pt"
         transform="matrix(0.2,0,0,0.2,1.48,0.2)" />
    </marker>
    <marker
       inkscape:stockid="DotS5R"
       orient="auto"
       refY="0"
       refX="0"
       id="DotS5R-8"
       style="overflow:visible">
      <path
         inkscape:connector-curvature="0"
         id="path6184-1"
         d="m -2.5,-1 c 0,2.76 -2.24,5 -5,5 -2.76,0 -5,-2.24 -5,-5 0,-2.76 2.24,-5 5,-5 2.76,0 5,2.24 5,5 z"
         style="fill:#ffc400;fill-rule:evenodd;stroke:#ffc400;stroke-width:1pt"
         transform="matrix(0.2,0,0,0.2,1.48,0.2)" />
    </marker>
    <marker
       inkscape:stockid="marker4516Ct"
       orient="auto"
       refY="0"
       refX="0"
       id="marker4516Ct-0"
       style="overflow:visible">
      <path
         inkscape:connector-curvature="0"
         id="path6127-3"
         d="m -2.5,-1 c 0,2.76 -2.24,5 -5,5 -2.76,0 -5,-2.24 -5,-5 0,-2.76 2.24,-5 5,-5 2.76,0 5,2.24 5,5 z"
         style="fill:#ffc400;fill-rule:evenodd;stroke:#ffc400;stroke-width:1pt"
         transform="matrix(0.2,0,0,0.2,1.48,0.2)" />
    </marker>
    <marker
       inkscape:stockid="marker451623"
       orient="auto"
       refY="0"
       refX="0"
       id="marker451623-8"
       style="overflow:visible">
      <path
         inkscape:connector-curvature="0"
         id="path6130-8"
         d="m -2.5,-1 c 0,2.76 -2.24,5 -5,5 -2.76,0 -5,-2.24 -5,-5 0,-2.76 2.24,-5 5,-5 2.76,0 5,2.24 5,5 z"
         style="fill:#ffc400;fill-rule:evenodd;stroke:#ffc400;stroke-width:1pt"
         transform="matrix(0.2,0,0,0.2,1.48,0.2)" />
    </marker>
    <marker
       inkscape:stockid="marker5218bQ"
       orient="auto"
       refY="0"
       refX="0"
       id="marker5218bQ-0"
       style="overflow:visible">
      <path
         inkscape:connector-curvature="0"
         id="path6175-8"
         d="m -2.5,-1 c 0,2.76 -2.24,5 -5,5 -2.76,0 -5,-2.24 -5,-5 0,-2.76 2.24,-5 5,-5 2.76,0 5,2.24 5,5 z"
         style="fill:#ffc400;fill-rule:evenodd;stroke:#ffc400;stroke-width:1pt"
         transform="matrix(0.2,0,0,0.2,1.48,0.2)" />
    </marker>
    <marker
       inkscape:stockid="marker5218XM"
       orient="auto"
       refY="0"
       refX="0"
       id="marker5218XM-86"
       style="overflow:visible">
      <path
         inkscape:connector-curvature="0"
         id="path6178-7"
         d="m -2.5,-1 c 0,2.76 -2.24,5 -5,5 -2.76,0 -5,-2.24 -5,-5 0,-2.76 2.24,-5 5,-5 2.76,0 5,2.24 5,5 z"
         style="fill:#ffc400;fill-rule:evenodd;stroke:#ffc400;stroke-width:1pt"
         transform="matrix(0.2,0,0,0.2,1.48,0.2)" />
    </marker>
    <circle
       transform="matrix(0.8755829,0,0,0.8755829,152.4506,-680.83707)"
       id="path6572"
       style="fill:none;stroke:none"
       cx="675.71429"
       cy="777.58148"
       r="584.28571" />
    <circle
       transform="matrix(-1.1162727,-0.04357729,-0.04357729,1.1162727,1532.2608,-838.54723)"
       id="path6572-9"
       style="fill:none;stroke:none"
       cx="675.71429"
       cy="777.58148"
       r="584.28571" />
  </defs>
  <metadata
     id="metadata7">
    <rdf:RDF>
      <cc:Work
         rdf:about="">
        <dc:format>image/svg+xml</dc:format>
        <dc:type
           rdf:resource="http://purl.org/dc/dcmitype/StillImage" />
      </cc:Work>
    </rdf:RDF>
  </metadata>
  <g
     inkscape:label="Ebene 1"
     inkscape:groupmode="layer"
     id="layer1"
     transform="translate(0,-783.07098)">
    <path
       id="path2045"
       style="font-variation-settings:normal;opacity:1;fill:#ff00a6;fill-opacity:1;stroke:#000000;stroke-width:3.125;stroke-linecap:butt;stroke-linejoin:miter;stroke-miterlimit:4;stroke-dasharray:none;stroke-dashoffset:0;stroke-opacity:1;stop-color:#000000;stop-opacity:1"
       inkscape:label="saw"
       d="m 65,180.12891 c 0,0 -7.690763,11.6312 -5,12.98632 5.440596,1.28461 10.572849,2.49524 15.439453,3.66407 0.09795,-0.31905 0.203379,-0.63736 0.324219,-0.94922 0.136986,-0.35353 0.287746,-0.70192 0.455078,-1.04688 0.167332,-0.34496 0.350168,-0.68633 0.548828,-1.02343 0.198661,-0.33711 0.413559,-0.67004 0.644531,-1 0.313558,-0.44794 0.603398,-0.91675 0.900391,-1.37891 C 75.291731,188.57254 75,180.12891 75,180.12891 Z"
       transform="translate(0,783.07098)" />
    <path
       style="font-variation-settings:normal;opacity:1;vector-effect:none;fill:#ff00a6;fill-opacity:1;stroke:#000000;stroke-width:3.77953;stroke-linecap:butt;stroke-linejoin:miter;stroke-miterlimit:4;stroke-dasharray:none;stroke-dashoffset:0;stroke-opacity:1;-inkscape-stroke:none;stop-color:#000000;stop-opacity:1"
       d="m 60,968.07098 c 1.694063,1.15223 1.282936,5.19054 3.376726,6.44687 2.166385,1.29989 5.408058,0.15975 7.660032,-0.24966 0.657229,-0.11948 1.300252,-0.37797 1.976644,-0.21636 0.393585,0.094 0.76688,0.49638 1.115043,0.68356 1.398561,0.75188 2.706979,1.48417 4.042699,2.34843 1.315127,0.85094 2.975655,1.16663 4.232151,2.09968 0.591079,0.43892 1.089964,0.96313 1.711768,1.35709 0.691754,0.43828 1.56656,0.52414 2.317224,0.8557 0.618391,0.27314 1.208023,0.85749 1.778578,1.22179 0.924031,0.58999 2.116087,1.19467 3.114006,1.58214 2.081324,0.80813 4.372701,0.93374 6.470583,1.72664 3.486936,1.31789 6.914826,3.33404 10.682136,3.74413 3.41536,0.37179 6.80693,0.85778 10.25202,0.85778 1.21578,0 2.22255,0.22508 3.39671,0.30882 0.21532,0.0154 1.44552,0.2466 1.06971,0.2466 -0.7411,0 1.18368,0.84176 1.24533,0.85789 0.74738,0.19552 1.19419,1.18576 1.69558,1.72486 1.63006,1.75269 6.67128,8.61406 5.24866,10.69526 -0.86434,1.2644 -2.79116,2.2738 -4.17684,2.9483 -6.48112,3.1545 -13.79199,2.9207 -20.81093,3.1271 -11.86221,0.3489 -24.206605,0.3358 -35.699593,-3.1825 -4.225631,-1.2935 -6.407431,-2.4042 -10.792907,-4.3171 -7.547226,-3.29215 -14.553204,-6.01148 -15.414471,-15.05476 -0.511948,-5.37543 2.726632,-10.2296 5.893837,-14.25573 1.449004,-1.84196 2.808474,-3.70047 4.497985,-5.32451 0.462448,-0.44453 2.56632,-2.94632 3.470446,-2.68799 0.518792,0.14823 0.223899,0.96872 0.276738,1.36501 0.07716,0.57868 0.886862,0.76343 1.370135,1.09096"
       id="path21205" />
    <path
       id="path5802-1-2"
       style="display:inline;fill:#ff00a6;fill-opacity:1;stroke:#000000;stroke-width:3.77953;stroke-miterlimit:4;stroke-dasharray:none;stroke-opacity:1"
       d="m 123.00824,784.96075 c -61.476454,0.016 -114.1633936,46.60113 -120.4921936,109.08203 -6.75074,66.6463 41.8029396,126.14382 108.4492236,132.89452 66.64631,6.7508 126.15163,-41.80292 132.90235,-108.44921 6.75075,-66.6463 -41.81076,-126.14378 -108.45704,-132.89453 -4.1654,-0.42192 -8.30392,-0.63387 -12.40234,-0.63281 z m 0.17969,37.74609 c 46.14749,0 83.17019,37.41273 83.55664,83.5586 0.33256,39.71127 -28.00736,66.1667 -47.44603,74.77031 l 5.02266,6.42947 -0.59491,6.59977 -20.09488,14.85301 -7.53077,-0.3983 -14.29172,-18.70442 c -5.84952,-0.41559 -10.25614,-0.90696 -15.46865,-1.68461 -9.518964,-1.94789 -18.447884,-5.51472 -26.486834,-10.4002 -2.00974,-1.22137 -3.96386,-2.52516 -5.85766,-3.90667 l -9.42881,-0.17013 -4.9365,-5.05945 0.1827,-7.87415 c -1.50905,-1.95238 -12.14025,-17.15972 -15.11467,-25.72396 -3.13001,-9.01223 -5.06917,-18.63591 -5.06917,-28.73067 0,-46.14749 37.4111,-83.5586 83.558604,-83.5586 z"
       sodipodi:nodetypes="cscsscsscccccccsccccsss" />
    <g
       id="g5745">
      <path
         id="path4764"
         style="font-size:32px;line-height:1.25;font-family:'Politics Head';-inkscape-font-specification:'Politics Head, Normal';letter-spacing:4.56px;fill:#ffffff"
         d="m 20.015491,858.2917 c -1.003325,0.1123 -1.011879,1.35631 -1.394287,2.06935 -0.187694,0.81028 -0.883583,1.5873 -0.658447,2.44432 0.401289,0.80827 1.483588,0.78805 2.197685,1.18611 1.749536,0.67261 3.506656,1.32795 5.251533,2.01116 -0.674033,1.79531 -1.359602,3.58804 -2.050781,5.37695 -2.366351,-0.87111 -4.70634,-1.83128 -7.082031,-2.66797 -0.892874,-0.16949 -1.210442,0.84159 -1.414411,1.49915 -0.277008,0.90729 -0.806224,1.75914 -0.935198,2.70007 0.09241,1.02546 1.358448,1.03499 2.073337,1.41751 5.584742,2.11208 11.150402,4.29138 16.746975,6.36179 0.892875,0.1695 1.210359,-0.84162 1.414697,-1.49903 0.277567,-0.90799 0.807548,-1.76043 0.936865,-2.70214 -0.0934,-1.02534 -1.36045,-1.03464 -2.075354,-1.41735 -1.666249,-0.6392 -3.337906,-1.26568 -5.000817,-1.91273 0.678114,-1.79506 1.358486,-3.59106 2.054687,-5.37891 2.219831,0.81294 4.411947,1.71971 6.640625,2.5 0.892875,0.1695 1.210307,-0.84163 1.414874,-1.49896 0.277457,-0.90738 0.807646,-1.75909 0.936689,-2.70025 -0.09342,-1.02531 -1.360433,-1.03469 -2.075291,-1.41752 -5.584742,-2.11208 -11.150402,-4.29137 -16.746975,-6.36178 -0.07815,0.005 -0.156854,-0.038 -0.234375,-0.01 z m -4.597656,24.05664 c -2.138314,0.11128 -3.966315,1.69802 -4.631065,3.69214 -0.645005,1.7716 -0.7941261,3.6782 -1.0176178,5.537 -0.2114577,2.27375 0.6774518,4.80545 2.7814948,5.92711 1.88042,1.00981 4.088665,0.93385 6.135447,1.34527 2.307686,0.28583 4.593514,0.80808 6.917288,0.92622 2.02393,0.0493 3.985548,-1.14727 4.828246,-2.99403 0.935016,-1.91298 1.049726,-4.08582 1.332033,-6.16253 0.213593,-2.2334 -0.57824,-4.74816 -2.613333,-5.92006 -1.831214,-1.11354 -4.062764,-1.00855 -6.101765,-1.42276 -2.360022,-0.29504 -4.698356,-0.82009 -7.074088,-0.95375 -0.185599,0.004 -0.371114,0.018 -0.55664,0.0254 z m 1.339843,5.43555 c 2.977872,0.44214 5.968956,0.83962 8.933594,1.35156 0.939831,0.25319 1.2557,1.33775 0.967806,2.18993 -0.242145,0.96789 -2.86e-4,2.36663 -1.096712,2.86281 -1.042902,0.33789 -2.131502,-0.16763 -3.187758,-0.22225 -2.205842,-0.36538 -4.444115,-0.58834 -6.630608,-1.0391 -0.891312,-0.29286 -1.127016,-1.34142 -0.865865,-2.15508 0.242382,-0.95696 8.79e-4,-2.34778 1.07095,-2.85115 0.251662,-0.1126 0.535396,-0.14556 0.808593,-0.13672 z m 12.105469,16.76367 c -6.403122,0.42478 -12.815512,0.78556 -19.21289,1.25 -0.8875731,0.21343 -0.7576977,1.26806 -0.6693399,1.95287 0.2230521,2.98448 0.3158228,5.98273 0.6186057,8.95885 0.2657234,2.13854 1.8059052,4.11785 3.9506742,4.6098 2.235311,0.57456 5.021265,0.29955 6.518028,-1.65628 0.27139,-0.15513 0.424569,-1.0866 0.677735,-0.67188 1.889476,2.23254 5.564679,2.18365 7.738281,0.4043 1.898479,-1.60062 2.190375,-4.29819 1.935462,-6.62065 -0.175961,-2.4989 -0.285995,-5.00727 -0.501868,-7.50044 -0.108856,-0.46973 -0.583885,-0.77309 -1.054688,-0.72657 z m -3.511719,5.60938 c 0.196395,0.38695 0.0773,1.07887 0.165641,1.56923 -0.03682,1.06973 0.396281,2.22769 -0.0797,3.23741 -0.599866,0.74737 -2.00442,0.82223 -2.628906,0.0742 -0.51608,-0.9998 -0.271241,-2.19952 -0.438181,-3.28357 0.107725,-0.39944 -0.33687,-1.26538 0.07509,-1.41225 0.968692,-0.0616 1.937351,-0.12411 2.906062,-0.18504 z m -7.953124,0.50586 c 0.191984,0.42038 0.08629,1.13276 0.171296,1.65735 -0.02552,1.03756 0.335524,2.12571 0.0123,3.13171 -0.64076,1.38107 -3.226897,1.16446 -3.304012,-0.49197 -0.08784,-1.35837 -0.183094,-2.71745 -0.256535,-4.07639 1.124531,-0.0841 2.251502,-0.14604 3.376954,-0.2207 z m 13.515624,13.62304 c -6.215331,1.63334 -12.411432,3.37114 -18.61914,5.04493 -0.774625,0.1871 -0.867582,1.12135 -0.558152,1.73635 1.065357,3.84502 2.062324,7.71533 3.16948,11.5449 0.396987,0.81362 1.39091,0.47268 2.042199,0.25178 0.805759,-0.31227 1.780572,-0.2888 2.473426,-0.83577 0.591627,-0.76244 -0.115936,-1.69197 -0.217355,-2.5047 -0.54524,-2.01778 -1.106819,-4.03191 -1.64202,-6.05194 1.00349,-0.28204 2.010856,-0.55884 3.019531,-0.82226 0.618274,2.14976 1.142989,4.3336 1.794922,6.4707 0.396987,0.81362 1.39091,0.47269 2.042199,0.25178 0.80385,-0.31122 1.775038,-0.28891 2.467567,-0.83186 0.602091,-0.75719 -0.114232,-1.69405 -0.213006,-2.50677 -0.421721,-1.56591 -0.859648,-3.12821 -1.271369,-4.69635 0.953344,-0.26843 1.91061,-0.53145 2.86914,-0.78126 0.740907,2.6024 1.389629,5.23835 2.164063,7.82813 0.396987,0.81362 1.39091,0.47269 2.042199,0.25178 0.80385,-0.31122 1.775038,-0.28891 2.467566,-0.83186 0.602122,-0.7572 -0.114285,-1.69403 -0.213134,-2.50673 -0.960485,-3.48126 -1.873629,-6.97927 -2.863037,-10.4503 -0.164603,-0.36243 -0.556873,-0.59697 -0.955079,-0.56055 z m 5.59375,17.58985 c -1.677537,0.678 -3.269463,1.58714 -4.915453,2.35002 -4.277097,2.11759 -8.593376,4.16957 -12.846265,6.32771 -0.727771,0.5401 -0.201785,1.45665 0.136311,2.05426 1.629162,3.28016 3.191932,6.59999 4.861736,9.8559 0.540095,0.72777 1.456635,0.20176 2.054301,-0.13622 0.730477,-0.45754 1.692233,-0.61816 2.266011,-1.28566 0.446507,-0.85726 -0.431922,-1.64219 -0.682835,-2.42101 -0.812654,-1.70623 -1.731686,-3.43597 -2.479274,-5.12782 4.610588,-2.27853 9.256238,-4.49877 13.84375,-6.8164 0.732571,-0.53796 0.211629,-1.45948 -0.130701,-2.05804 -0.494696,-0.83508 -0.735326,-1.85702 -1.398596,-2.57087 -0.197238,-0.15152 -0.463764,-0.20941 -0.708985,-0.17187 z m 7.949219,15.21484 c -0.956294,0.39383 -1.671786,1.2379 -2.53167,1.80945 -4.41813,3.44472 -8.880165,6.84041 -13.271064,10.31555 -0.616116,0.67462 0.08403,1.47713 0.541715,1.99445 0.628995,0.70825 1.083065,1.59893 1.815707,2.20086 0.923683,0.46351 1.594083,-0.6188 2.292883,-1.03039 1.536039,-1.18726 3.065409,-2.38371 4.605554,-3.56531 1.182872,1.51058 2.359562,3.02843 3.527344,4.55078 -1.974378,1.56788 -4.008664,3.06809 -5.962891,4.65821 -0.609198,0.67705 0.08939,1.47304 0.545364,1.99074 0.629096,0.70883 1.08302,1.60026 1.815965,2.20261 0.924281,0.46051 1.594132,-0.62063 2.293061,-1.03211 4.707965,-3.66932 9.459792,-7.28965 14.140532,-10.98937 0.616116,-0.67462 -0.08403,-1.47713 -0.541714,-1.99445 -0.629146,-0.70813 -1.083026,-1.5994 -1.815708,-2.20086 -0.923698,-0.46352 -1.594065,0.61883 -2.292819,1.03047 -1.412326,1.09153 -2.818209,2.19234 -4.234524,3.27812 -1.178653,-1.51264 -2.373636,-3.03173 -3.523438,-4.55664 1.852753,-1.4662 3.758329,-2.8732 5.587891,-4.36523 0.609198,-0.67705 -0.08939,-1.47305 -0.545364,-1.99074 -0.645197,-0.71924 -1.095198,-1.6436 -1.864793,-2.23387 -0.183857,-0.0697 -0.387956,-0.11913 -0.582031,-0.0723 z m 17.199219,13.4668 c -0.959427,0.0513 -1.561245,0.95914 -2.00168,1.70234 -0.412536,0.92002 0.207217,1.88798 0.994642,2.36282 0.640953,0.61476 1.511481,1.32905 2.453933,0.91468 0.721906,-0.33652 1.270053,-1.05562 1.564824,-1.78062 0.294613,-0.97806 -0.482868,-1.78267 -1.226722,-2.28105 -0.518942,-0.43477 -1.04335,-0.98563 -1.784997,-0.91817 z m -3.691406,4.19531 c -2.04376,0.059 -3.70973,1.48471 -4.866258,3.05769 -1.961119,2.4104 -4.031999,4.73667 -5.92485,7.19954 -1.22673,1.65281 -1.451771,4.00624 -0.364264,5.78705 1.117613,1.94647 3.031732,3.23037 4.736706,4.61654 1.820505,1.36917 4.431594,1.98677 6.503466,0.8049 1.872293,-1.0365 2.949809,-2.9797 4.364102,-4.51277 1.464016,-1.8494 3.119624,-3.55598 4.447582,-5.50764 1.094819,-1.70458 1.088981,-4.00145 -0.04895,-5.68277 -1.174711,-1.81264 -2.989242,-3.07007 -4.656693,-4.39081 -1.220772,-0.85066 -2.680487,-1.44761 -4.190846,-1.37173 z m 9.341797,0.50195 c -0.961608,0.046 -1.56658,0.95824 -2.00754,1.70235 -0.412536,0.92001 0.207217,1.88797 0.994643,2.36282 0.640953,0.61475 1.511481,1.32905 2.453932,0.91468 0.721906,-0.33652 1.270053,-1.05562 1.564824,-1.78063 0.294426,-0.97776 -0.483695,-1.78049 -1.226722,-2.27909 -0.518194,-0.431 -1.039867,-0.98657 -1.779137,-0.92013 z m -8.410157,4.95118 c 1.01374,0.13012 1.62034,1.11561 2.427791,1.64668 0.842734,0.49282 0.998123,1.70261 0.306584,2.39238 -1.895539,2.24437 -3.729567,4.54579 -5.662109,6.75586 -0.694952,0.66925 -1.781444,0.38224 -2.353222,-0.30013 -0.703108,-0.71867 -2.054476,-1.24317 -1.892872,-2.45183 0.279209,-1.08584 1.291227,-1.77202 1.904657,-2.66843 1.410849,-1.65644 2.749666,-3.3811 4.202765,-4.99758 0.298688,-0.2437 0.677525,-0.39531 1.066406,-0.37695 z m 14.451172,4.99218 c -0.922628,0.23082 -1.027737,1.38797 -1.517136,2.06571 -2.703711,5.2497 -5.470807,10.47275 -8.135208,15.73904 -0.265886,0.8694 0.699913,1.2956 1.330093,1.5747 0.865663,0.3796 1.650202,0.9929 2.564439,1.2358 1.038217,0.044 1.195392,-1.2283 1.657249,-1.8961 0.897296,-1.7217 1.780544,-3.4516 2.686501,-5.16837 1.706943,0.87665 3.412865,1.75937 5.111328,2.65237 -1.138328,2.25 -2.355153,4.4663 -3.458984,6.7305 -0.270258,0.8694 0.697855,1.298 1.328139,1.5766 0.869185,0.3782 1.654518,1.0019 2.574204,1.2359 1.032314,0.03 1.185855,-1.2312 1.647766,-1.8979 2.734385,-5.3083 5.532176,-10.58987 8.227234,-15.91465 0.270257,-0.86945 -0.697823,-1.29808 -1.328252,-1.57644 -0.869718,-0.37834 -1.655857,-1.00158 -2.576045,-1.23606 -1.031085,-0.0289 -1.18357,1.23183 -1.645679,1.89797 -0.825615,1.58312 -1.63725,3.17428 -2.471508,4.75242 -1.706326,-0.87823 -3.412979,-1.75905 -5.111328,-2.65235 1.066302,-2.11148 2.212513,-4.18866 3.24414,-6.31445 0.265725,-0.86964 -0.698792,-1.29816 -1.330092,-1.57666 -0.917563,-0.37846 -1.729653,-1.10351 -2.722642,-1.24365 z m 19.085938,8.94922 c -1.016595,0.22359 -0.896308,1.50951 -1.233371,2.27954 -1.603991,5.71769 -3.273679,11.42289 -4.836942,17.14819 -0.08579,0.9043 0.946822,1.1284 1.619755,1.2749 3.526174,0.9824 7.039689,2.0317 10.573605,2.9732 0.904193,0.087 1.131335,-0.9443 1.27675,-1.6178 0.148569,-0.8509 0.669963,-1.673 0.561143,-2.5482 -0.34745,-0.9007 -1.509658,-0.7734 -2.258086,-1.1064 -1.824206,-0.522 -3.657868,-1.0273 -5.476292,-1.5597 1.380503,-4.9631 2.843404,-9.9096 4.189453,-14.87888 0.08749,-0.9042 -0.944298,-1.1313 -1.617783,-1.27689 -0.93219,-0.18858 -1.848177,-0.67416 -2.798232,-0.68796 z m 16.91016,4.31055 c -0.90708,0.0838 -0.93032,1.14321 -0.94671,1.83238 -0.49779,6.0977 -1.06063,12.1945 -1.51813,18.2926 0.0811,0.9089 1.14521,0.9365 1.83627,0.9506 3.83985,0.3068 7.67879,0.6795 11.51919,0.9459 0.90724,-0.083 0.93164,-1.1435 0.94688,-1.8323 -0.0166,-0.8648 0.33977,-1.7738 0.0629,-2.613 -0.51458,-0.8149 -1.63032,-0.4674 -2.42835,-0.6517 -2.08229,-0.1781 -4.16606,-0.345 -6.24743,-0.5299 0.0799,-1.0406 0.16751,-2.0818 0.26172,-3.1211 2.22769,0.1597 4.45375,0.4064 6.68164,0.5332 0.9081,-0.08 0.93748,-1.1418 0.95078,-1.8324 -0.0166,-0.8647 0.33977,-1.7737 0.0629,-2.6129 -0.51662,-0.8132 -1.63132,-0.4683 -2.43033,-0.6515 -1.61483,-0.1384 -3.23115,-0.2656 -4.84506,-0.411 0.0753,-0.9891 0.15844,-1.9789 0.24805,-2.9668 2.69514,0.1997 5.38864,0.4854 8.08398,0.6523 0.9081,-0.08 0.93749,-1.1417 0.95079,-1.8323 -0.0166,-0.8648 0.33977,-1.7738 0.0629,-2.61302 -0.51663,-0.81304 -1.6313,-0.46839 -2.43029,-0.65185 -3.60727,-0.28716 -7.21386,-0.64042 -10.82166,-0.88721 z" />
      <path
         id="path4814"
         style="font-size:34.6667px;line-height:1.25;font-family:'Politics Head';-inkscape-font-specification:'Politics Head';fill:#ffffff;stroke:none;stroke-opacity:1"
         d="m 112.55065,793.43233 c -1.32411,0.14625 -2.68548,0.0948 -3.98828,0.35547 -0.93894,0.4614 -0.47011,1.64371 -0.48549,2.44717 0.48602,6.52147 0.90528,13.05358 1.43276,19.56845 0.20655,0.85733 1.22242,0.80674 1.9034,0.68873 4.00802,-0.30542 8.02685,-0.54289 12.02824,-0.8899 0.85743,-0.20581 0.80842,-1.22297 0.6908,-1.90342 -0.13153,-0.93026 -0.009,-1.91924 -0.29432,-2.81533 -0.48383,-0.89055 -1.62911,-0.41614 -2.41981,-0.44025 -2.17009,0.13301 -4.3848,0.36325 -6.52745,0.43634 -0.43516,-5.56325 -0.77035,-11.14108 -1.23438,-16.69922 -0.1208,-0.49046 -0.61189,-0.79829 -1.10547,-0.74804 z m 22.7168,0.26562 c -2.30241,0.10882 -4.57021,1.49213 -5.39757,3.6981 -0.72617,1.90596 -0.71023,3.99247 -1.07198,5.9827 -0.28363,2.4363 -0.77692,4.8545 -0.91767,7.30347 -0.0903,2.11322 1.04831,4.23278 2.95055,5.20301 2.09792,1.14071 4.55168,1.22203 6.86883,1.52218 2.51084,0.21865 5.29805,-0.76755 6.55755,-3.07233 0.38404,-0.66281 0.97801,-1.80142 0.0786,-2.31486 -1.12886,-0.52902 -2.17827,-1.26353 -3.34961,-1.68164 -0.87782,-0.12429 -1.1079,0.83117 -1.5918,1.32226 -1.02703,0.85346 -2.42779,0.209 -3.60342,0.15244 -0.92279,-0.003 -2.0116,-0.45837 -2.08017,-1.51181 0.0758,-1.79773 0.47008,-3.57759 0.66706,-5.36834 0.26588,-1.61627 0.36255,-3.27034 0.73919,-4.86213 0.34559,-0.97167 1.48614,-1.2083 2.38151,-0.93778 1.17621,0.26429 2.7315,0.0272 3.49935,1.16434 0.31416,0.5782 0.2511,1.50608 1.08203,1.64453 1.02725,0.0327 2.03523,-0.40375 3.05421,-0.54773 0.64865,-0.0458 1.52393,-0.34786 1.39501,-1.1593 -0.15618,-2.59801 -2.09472,-4.84342 -4.52998,-5.64144 -1.78399,-0.58938 -3.68514,-0.71624 -5.54303,-0.91573 -0.39646,-0.0231 -0.79265,10e-4 -1.18871,0.0201 z m -36.3711,1.80274 c -4.390221,1.19115 -8.768379,2.46658 -13.144531,3.71875 -0.76919,0.28687 -0.70689,1.23264 -0.418085,1.84865 1.860229,6.48767 3.657503,12.99809 5.556757,19.47166 0.375559,0.79965 1.363127,0.54342 2.005876,0.28919 4.062144,-1.17162 8.147283,-2.27966 12.195303,-3.49036 0.79964,-0.37556 0.54344,-1.36314 0.28914,-2.00587 -0.31842,-0.88518 -0.40053,-1.87819 -0.86336,-2.69921 -0.69136,-0.78677 -1.74242,-0.0357 -2.55419,0.0937 -2.265944,0.63458 -4.530679,1.30633 -6.797378,1.91806 -0.313906,-1.10128 -0.691362,-2.25018 -0.925782,-3.33985 2.318394,-0.69685 4.67191,-1.29439 6.98047,-2.01757 0.79965,-0.37556 0.54345,-1.36314 0.28915,-2.00587 -0.31842,-0.88518 -0.40054,-1.87819 -0.86337,-2.69921 -0.691366,-0.7868 -1.742408,-0.0356 -2.554139,0.0938 -1.775426,0.48081 -3.580285,1.06497 -5.338439,1.48429 -0.291219,-1.0433 -0.656944,-2.13001 -0.873047,-3.16015 2.80745,-0.83519 5.649614,-1.57216 8.447265,-2.4336 0.79965,-0.37555 0.54345,-1.36313 0.28915,-2.00586 -0.35222,-0.92255 -0.37742,-2.00957 -0.966883,-2.8164 -0.21526,-0.17105 -0.476972,-0.26725 -0.753907,-0.24414 z m 59.41993,3.58008 c -2.31888,10e-4 -4.44851,1.53569 -5.35017,3.64418 -1.40969,3.5948 -2.78174,7.20936 -4.11272,10.83433 -0.66586,2.01457 -0.30895,4.4142 1.25955,5.92093 1.79474,1.82515 4.36999,2.45988 6.68771,3.34665 2.25521,0.73319 5.01089,0.58423 6.76838,-1.17256 1.67292,-1.59269 2.08396,-3.97922 2.97424,-6.01922 0.8742,-2.43465 1.9293,-4.81086 2.68475,-7.2841 0.60158,-2.06194 -0.021,-4.43325 -1.68511,-5.82621 -1.81822,-1.60682 -4.23479,-2.22807 -6.45772,-3.05879 -0.89772,-0.26317 -1.83217,-0.41236 -2.76891,-0.38521 z m -82.337898,3.39062 c -1.056105,0.36339 -1.952805,1.12546 -2.94735,1.64096 -0.553027,0.37534 -1.647162,0.69282 -1.363197,1.56802 1.153277,3.22673 2.093825,6.53409 3.441406,9.6875 -2.557369,-2.47305 -5.071087,-5.00138 -7.664063,-7.43164 -0.7765,-0.39005 -1.44371,0.48647 -2.115152,0.75899 -0.710733,0.52976 -1.694456,0.77906 -2.212972,1.5164 -0.189444,0.82035 0.357629,1.62484 0.48326,2.43308 0.842409,2.83134 1.46211,5.73867 2.594864,8.47513 -2.424186,-2.71647 -4.802925,-5.48525 -7.27539,-8.1543 -0.803123,-0.33067 -1.449524,0.54418 -2.140616,0.81977 -0.838327,0.59454 -1.89814,0.93098 -2.590357,1.69888 -0.309791,0.82613 0.72073,1.26906 1.114688,1.85045 4.645342,4.98484 9.271435,9.99201 13.928785,14.96293 0.866489,0.62276 1.712631,-0.37789 2.47248,-0.72239 0.70124,-0.53733 1.712914,-0.75784 2.189629,-1.53737 0.226747,-0.84487 -0.345886,-1.67145 -0.474164,-2.50125 -0.828924,-2.95466 -1.657849,-5.90933 -2.486773,-8.86399 1.821092,2.37439 4.177349,4.25674 6.271304,6.37721 0.68658,0.54274 1.189516,1.39164 2.005677,1.72598 0.927312,0.0864 1.61921,-0.7613 2.424329,-1.11162 0.669923,-0.53088 1.745669,-0.71856 2.068221,-1.58532 0.03271,-0.91182 -0.529447,-1.74523 -0.734108,-2.62376 -2.100787,-6.21561 -4.183396,-12.43851 -6.295189,-18.64968 -0.164513,-0.22181 -0.411969,-0.37881 -0.695312,-0.33398 z m 83.609378,2.1582 c 1.08707,0.25042 2.13211,0.71692 3.1582,1.15235 0.98185,0.55234 0.83447,1.84349 0.37692,2.69376 -1.0756,2.77766 -2.07876,5.58751 -3.19918,8.3453 -0.4572,0.90555 -1.63872,1.08654 -2.46969,0.59834 -0.95654,-0.48923 -2.33339,-0.5249 -2.84867,-1.60615 -0.40197,-1.18176 0.49325,-2.27073 0.78443,-3.37343 0.90506,-2.30933 1.71451,-4.6626 2.67709,-6.94555 0.30317,-0.53827 0.89403,-0.90706 1.5209,-0.86462 z m 20.70703,3.69532 c -0.96739,0.0828 -1.24748,1.23411 -1.83571,1.84682 -3.73729,5.24709 -7.53446,10.45763 -11.2346,15.72739 -0.38009,0.79106 0.43138,1.39657 1.02735,1.74121 0.91061,0.5709 1.70057,1.37769 2.68359,1.80958 1.03186,0.18812 1.38987,-1.05481 1.94393,-1.6627 1.40581,-1.99591 2.89836,-3.93498 4.17325,-6.01894 -0.5443,2.36011 -1.18106,4.70936 -1.65429,7.08007 0.15361,0.95144 1.26784,1.24397 1.89916,1.83628 0.58287,0.45322 1.38909,1.15549 2.11763,0.54452 1.92424,-1.16973 3.85728,-2.32584 5.77618,-3.50384 -1.87956,2.32886 -3.576,4.80561 -5.29297,7.25195 -0.38011,0.79107 0.43144,1.39647 1.02718,1.74143 0.89243,0.55661 1.66178,1.35357 2.62711,1.77029 1.03296,0.18939 1.39162,-1.05411 1.94571,-1.66283 3.77551,-5.30125 7.61084,-10.56599 11.34922,-15.88991 0.38074,-0.79096 -0.43147,-1.3968 -1.02739,-1.74115 -0.97703,-0.62043 -1.83714,-1.47298 -2.88617,-1.95246 -0.87172,-0.11373 -1.51172,0.7212 -2.26458,1.04756 -2.88491,1.76053 -5.77787,3.50879 -8.6578,5.27691 0.84204,-3.98447 1.74521,-7.96539 2.52539,-11.95898 -0.10863,-0.95278 -1.23174,-1.23509 -1.84661,-1.81844 -0.78589,-0.46261 -1.42564,-1.2413 -2.32331,-1.47062 z m 23.9043,19.58398 c -0.8891,0.0738 -1.39536,0.98566 -2.10006,1.43684 -4.83369,4.11616 -9.71495,8.18547 -14.51908,12.33074 -0.57553,0.67053 0.0676,1.46503 0.56395,1.94442 2.74827,3.21622 5.44552,6.48478 8.22511,9.66886 0.6727,0.56812 1.45913,-0.0767 1.93876,-0.56958 0.67364,-0.65217 1.53676,-1.13787 2.0964,-1.89136 0.44096,-0.91848 -0.62308,-1.56632 -1.07096,-2.22056 -1.52262,-1.83334 -3.14553,-3.6417 -4.60678,-5.49038 0.87666,-0.73157 1.74857,-1.54817 2.64844,-2.20898 1.59248,1.82616 3.10922,3.72754 4.72461,5.5293 0.67349,0.56776 1.46093,-0.0759 1.94051,-0.56982 0.67448,-0.65469 1.54263,-1.14098 2.10051,-1.89893 0.43363,-0.95489 -0.68588,-1.60313 -1.13973,-2.28886 -1.17276,-1.42068 -2.44818,-2.81638 -3.55949,-4.25216 0.83321,-0.6962 1.66436,-1.47217 2.51953,-2.09961 1.91847,2.21313 3.766,4.4961 5.70508,6.6875 0.67095,0.57547 1.46798,-0.0668 1.94807,-0.56425 0.67341,-0.65432 1.54077,-1.14024 2.09685,-1.89864 0.43365,-0.91648 -0.62704,-1.55949 -1.07286,-2.21279 -2.61903,-3.06358 -5.18694,-6.1796 -7.8373,-9.21104 -0.17116,-0.13312 -0.38291,-0.22221 -0.60156,-0.2207 z m 17.41601,24.24219 c -1.1766,0.39706 -2.28771,1.0124 -3.41992,1.52929 -0.71802,0.45449 -0.41618,1.37995 -0.049,1.96007 0.41873,0.96084 0.93442,1.92885 1.29515,2.88564 -5.00824,2.33616 -10.06093,4.59384 -15.04883,6.96679 -0.72462,0.49622 -0.3192,1.42712 0.0278,2.02168 0.51205,0.95156 0.79811,2.05317 1.44683,2.91582 0.80136,0.67359 1.72823,-0.23006 2.50894,-0.48293 4.49823,-2.06265 8.99199,-4.15914 13.49301,-6.20066 0.66011,1.25796 1.11034,2.64381 1.86133,3.84766 0.76381,0.71051 1.70223,-0.14203 2.4591,-0.40992 0.70972,-0.45102 1.78071,-0.52052 2.18543,-1.33813 0.21502,-0.89464 -0.55898,-1.64769 -0.8077,-2.46109 -1.69333,-3.61921 -3.30214,-7.28358 -5.04777,-10.87485 -0.22537,-0.25779 -0.56174,-0.40678 -0.9043,-0.35937 z m 4.98243,22.29492 c -2.22951,0.22932 -4.38749,0.90773 -6.58588,1.32853 -2.08868,0.52634 -4.25342,0.79168 -6.28474,1.52082 -2.01005,0.735 -3.47149,2.67397 -3.61423,4.81038 -0.22105,2.28845 0.51878,4.52275 1.02282,6.72663 0.63485,2.29719 2.32811,4.49632 4.77843,4.95739 2.24947,0.46281 4.45173,-0.48832 6.64257,-0.85892 2.48276,-0.59568 5.01548,-1.00653 7.46606,-1.72261 2.05361,-0.62597 3.69782,-2.44549 3.95064,-4.60028 0.34991,-2.36786 -0.43886,-4.69961 -0.95112,-6.98373 -0.6265,-2.34051 -2.34364,-4.59857 -4.83941,-5.05316 -0.52048,-0.11165 -1.05411,-0.14119 -1.58514,-0.12505 z m -0.11914,5.85156 c 0.99068,-0.009 1.63276,0.9206 1.68759,1.83401 0.12063,1.06852 0.87795,2.31918 0.0976,3.29099 -0.8112,0.84439 -2.11047,0.72401 -3.15421,1.06761 -2.4298,0.51186 -4.84448,1.1159 -7.28329,1.57302 -1.056,0.11482 -1.816,-0.85356 -1.86142,-1.83401 -0.12064,-1.06852 -0.87795,-2.31918 -0.0976,-3.29099 0.81119,-0.84444 2.11049,-0.72392 3.15425,-1.06742 2.42709,-0.51188 4.83954,-1.11289 7.27543,-1.57125 0.0606,10e-5 0.12109,-0.002 0.18165,-0.002 z m -12.33789,29.54688 c -0.9519,0.0104 -0.80614,1.21407 -0.95139,1.86616 -0.13324,1.21557 -0.42771,2.42343 -0.47049,3.6436 0.18034,0.92548 1.26703,1.19936 1.8866,1.77846 1.3341,0.9418 2.64596,1.94292 4.1427,2.61803 -2.21636,0.67108 -4.43995,1.35102 -6.62305,2.11133 -0.7896,0.5721 -0.51517,1.70897 -0.75751,2.54012 -0.0851,1.06335 -0.44169,2.12992 -0.35968,3.1923 0.19082,0.73432 1.0664,0.57436 1.56589,0.27847 3.39115,-1.29645 6.7999,-2.66504 10.18021,-3.91714 3.21211,2.4146 6.39712,4.87767 9.625,7.26367 0.66998,0.37681 1.39248,-0.2743 1.30495,-0.98383 0.1717,-1.51938 0.5272,-3.03418 0.59055,-4.5565 -0.22413,-0.85678 -1.25644,-1.12021 -1.85244,-1.68828 -1.28591,-0.9306 -2.59939,-1.84794 -4.03525,-2.53311 2.18066,-0.6205 4.32889,-1.37571 6.46674,-2.12006 0.77214,-0.52429 0.51503,-1.62576 0.74256,-2.42081 0.11058,-1.01712 0.35999,-2.02825 0.3864,-3.04898 -0.20093,-0.78997 -1.1524,-0.6721 -1.69613,-0.33386 -3.30986,1.27441 -6.61268,2.58199 -9.92692,3.83582 -3.29633,-2.45883 -6.5419,-4.99168 -9.84765,-7.4375 -0.12409,-0.0237 -0.24081,-0.11347 -0.37109,-0.0879 z m -3.48438,21.06054 c -1.05547,0.12154 -1.07007,1.43184 -1.48047,2.18255 -0.21931,0.84535 -0.87553,1.63622 -0.77148,2.5323 0.29173,0.90148 1.44276,0.89357 2.15507,1.29332 1.96919,0.78521 3.9975,1.51942 5.93086,2.33558 -0.76932,1.94603 -1.49421,3.96391 -2.31054,5.85938 -2.55534,-0.96464 -5.08456,-2.01562 -7.65039,-2.94336 -0.86248,-0.1807 -1.25177,0.76223 -1.43886,1.42511 -0.3299,1.02854 -0.9182,1.9986 -1.09435,3.06317 0.0736,1.04541 1.36719,1.08611 2.09324,1.47162 6.07043,2.34254 12.12065,4.75404 18.20364,7.05377 0.86245,0.18069 1.25193,-0.76216 1.43848,-1.42526 0.32942,-1.02846 0.91674,-1.99866 1.09277,-3.06302 -0.0687,-1.04766 -1.36551,-1.08779 -2.09129,-1.47357 -1.84021,-0.73983 -3.75897,-1.41525 -5.55129,-2.1944 0.7662,-1.94606 1.49756,-3.94536 2.30078,-5.85351 2.40456,0.9021 4.77966,1.89957 7.19531,2.76367 0.90942,0.17461 1.2565,-0.84345 1.46693,-1.52041 0.31767,-0.9939 0.88726,-1.93091 1.05456,-2.96006 -0.043,-1.01953 -1.29245,-1.08615 -1.99814,-1.44696 -6.10147,-2.35403 -12.18276,-4.77694 -18.29678,-7.0882 -0.0825,0.002 -0.16598,-0.0397 -0.24805,-0.0117 z m -7.77344,18.71289 c -0.81992,0.12609 -1.04216,1.12259 -1.55133,1.66476 -0.53014,0.85219 -1.23972,1.61956 -1.66351,2.52274 -0.0915,0.82984 0.83003,1.29661 1.22107,1.9329 0.24781,0.47039 1.22239,0.90438 0.57447,1.41965 -1.12261,1.62207 -2.24521,3.24414 -3.36781,4.86621 -1.04557,-0.31342 -2.05061,-0.86401 -3.12109,-1.03711 -0.80175,0.17068 -1.02001,1.14887 -1.53168,1.69452 -0.52424,0.87592 -1.29882,1.63722 -1.66559,2.58673 -0.0882,0.88902 1.06334,0.92479 1.65375,1.18328 6.69538,2.19714 13.3762,4.45791 20.08063,6.61554 1.00296,0.0235 1.29363,-1.17549 1.85784,-1.79413 0.70436,-1.09367 1.56178,-2.10735 2.17536,-3.24883 0.23509,-0.90905 -0.77301,-1.45831 -1.17582,-2.14623 -4.3259,-5.34401 -8.6075,-10.72943 -12.96089,-16.04776 -0.13304,-0.12262 -0.33858,-0.23985 -0.5254,-0.21227 z m 6.88477,16.58008 c -2.16146,-0.77669 -4.32292,-1.55338 -6.48438,-2.33008 0.67578,-0.97591 1.35157,-1.95182 2.02735,-2.92773 1.48567,1.7526 2.97135,3.50521 4.45703,5.25781 z m -20.28711,1.19141 c -0.87744,0.15762 -1.29645,1.11208 -1.95429,1.62821 -0.50473,0.68322 -1.49249,1.13196 -1.57891,2.04952 0.11946,0.91241 1.11286,1.33774 1.6365,2.00848 4.60139,4.46178 9.15839,8.97691 13.78732,13.40559 0.72594,0.49129 1.44391,-0.21697 1.87509,-0.75425 0.70546,-0.8159 1.62149,-1.47962 2.20304,-2.38638 0.35039,-0.95484 -0.76723,-1.50036 -1.27595,-2.10809 -4.69682,-4.55423 -9.34931,-9.16177 -14.07366,-13.68292 -0.18375,-0.11373 -0.40295,-0.18156 -0.61914,-0.16016 z m -7.29102,7.31836 c -0.94075,0.31836 -1.63834,1.12303 -2.49973,1.64552 -0.5846,0.44469 -1.63708,0.91059 -1.33425,1.82909 0.84526,1.41758 1.92691,2.70024 2.85882,4.06821 1.04591,1.4481 2.06396,2.92096 3.24079,4.26773 -3.85545,-1.61412 -7.68556,-3.30326 -11.55664,-4.8711 -0.8982,-0.10244 -1.48359,0.80321 -2.2112,1.18924 -0.60081,0.57305 -1.8035,0.88456 -1.74193,1.88889 0.24722,0.89415 1.03655,1.53376 1.49889,2.32406 3.68187,5.0793 7.30823,10.20634 11.02455,15.25604 0.62505,0.6196 1.46417,0.043 1.98116,-0.4129 0.83606,-0.6846 1.86094,-1.1781 2.58525,-1.97775 0.50694,-0.91646 -0.55632,-1.65315 -0.95492,-2.37136 -1.81509,-2.44162 -3.44766,-5.03237 -5.52751,-7.26341 3.99898,1.78215 7.97413,3.63385 11.98789,5.37284 0.90257,0.1052 1.49555,-0.80413 2.22565,-1.1924 0.60314,-0.57769 1.77291,-0.872 1.77865,-1.86012 -0.19982,-0.89427 -1.00161,-1.5139 -1.44824,-2.29176 -3.70138,-5.1099 -7.35201,-10.26015 -11.08496,-15.34496 -0.22525,-0.19469 -0.52498,-0.30813 -0.82227,-0.25586 z" />
      <path
         sodipodi:type="star"
         style="fill:#ffffff;fill-opacity:1;stroke:#ffffff;stroke-opacity:1"
         id="path6846-31"
         sodipodi:sides="5"
         sodipodi:cx="-130"
         sodipodi:cy="859.01007"
         sodipodi:r1="77.195747"
         sodipodi:r2="41.685707"
         sodipodi:arg1="0.78539816"
         sodipodi:arg2="1.4137167"
         inkscape:flatsided="false"
         inkscape:rounded="0.1"
         inkscape:randomized="0"
         transform="matrix(0.08792345,-0.14583241,0.14583241,0.08792345,-68.86056,747.40522)"
         d="m -75.414363,913.59571 c -3.528537,3.52853 -43.135887,-14.19378 -48.064557,-13.41315 -4.92867,0.78062 -37.121,29.87489 -41.56722,27.60943 -4.44621,-2.26546 0.16936,-45.41079 -2.0961,-49.857 -2.26546,-4.44622 -39.88372,-26.07233 -39.1031,-31.00099 0.78062,-4.92867 43.24056,-13.87164 46.76909,-17.40018 3.52854,-3.52853 12.47151,-45.98846 17.40017,-46.76909 4.92867,-0.78062 26.55478,36.83764 31.001,39.1031 4.44621,2.26546 47.591535,-2.35011 49.856994,2.0961 2.26546,4.44622 -26.828803,36.63855 -27.609427,41.56722 -0.780624,4.92867 16.941686,44.53602 13.41315,48.06456 z" />
    </g>
    <path
       id="path6277"
       style="fill:#ab00a6;fill-opacity:1;stroke:#000000;stroke-width:3.78;stroke-opacity:1;stroke-miterlimit:4;stroke-dasharray:none"
       inkscape:label="halfcicrle"
       d="M 122.92578,41.666016 A 81.639832,81.639832 0 0 0 71.646484,60 H 174.30273 A 81.639832,81.639832 0 0 0 122.92578,41.666016 Z"
       transform="translate(0,783.07098)" />
    <rect
       style="fill:#ab00a6;fill-opacity:1;stroke:#000000;stroke-width:3.66267;stroke-miterlimit:4;stroke-dasharray:none;stroke-opacity:1"
       id="rect6737"
       width="51.337334"
       height="20.117334"
       x="99.531334"
       y="853.01233" />
    <path
       id="rect6865"
       style="fill:none;stroke:#000000;stroke-width:3.78;stroke-miterlimit:4;stroke-dasharray:none;stroke-opacity:1"
       d="m 100.78505,874.96098 h 48.42555 l -9.6851,20.01546 h -29.05536 z"
       sodipodi:nodetypes="ccccc" />
    <rect
       style="fill:none;fill-opacity:1;stroke:#000000;stroke-width:3.78;stroke-miterlimit:4;stroke-dasharray:none;stroke-opacity:1"
       id="rect7211"
       width="24"
       height="7"
       x="113.29965"
       y="894.961" />
    <path
       style="fill:none;stroke:#000000;stroke-width:3.66485;stroke-linecap:butt;stroke-linejoin:miter;stroke-miterlimit:4;stroke-dasharray:none;stroke-opacity:1"
       d="m 110,843.07098 v 9.4"
       id="path7406" />
    <path
       style="fill:none;stroke:#000000;stroke-width:3.70363;stroke-linecap:butt;stroke-linejoin:miter;stroke-miterlimit:4;stroke-dasharray:none;stroke-opacity:1"
       d="m 140,843.07098 v 9.6"
       id="path7408" />
    <path
       id="rect7874"
       style="fill:#ff00a6;fill-opacity:1;stroke:#000000;stroke-width:3.63462;stroke-miterlimit:4;stroke-dasharray:none;stroke-opacity:1"
       d="m 135,918.07098 v 25 H 71.970703 v 15 H 135 175 v -40 z" />
    <path
       style="fill:none;stroke:#000000;stroke-width:3.85486;stroke-linecap:butt;stroke-linejoin:miter;stroke-miterlimit:4;stroke-dasharray:none;stroke-opacity:1"
       d="M 58,958.07098 H 188"
       id="path8103"
       inkscape:label="base" />
    <path
       style="font-variation-settings:normal;opacity:1;vector-effect:none;fill:#ff00a6;fill-opacity:1;stroke:#000000;stroke-width:3.77953;stroke-linecap:butt;stroke-linejoin:miter;stroke-miterlimit:4;stroke-dasharray:none;stroke-dashoffset:0;stroke-opacity:1;-inkscape-stroke:none;stop-color:#000000;stop-opacity:1"
       d="m 115,903.07098 v 40"
       id="path8975" />
    <path
       id="path11745"
       style="font-variation-settings:normal;opacity:1;fill:#ff00a6;fill-opacity:1;stroke:#000000;stroke-width:3.125;stroke-linecap:butt;stroke-linejoin:miter;stroke-miterlimit:4;stroke-dasharray:none;stroke-dashoffset:0;stroke-opacity:1;stop-color:#000000;stop-opacity:1"
       inkscape:label="saw"
       d="m 78.3125,191.38086 c -0.296993,0.46216 -0.586833,0.93097 -0.900391,1.37891 -0.253061,0.37893 0.79888,-0.47409 1.090647,-0.82408 -0.12084,0.31186 1.59519,2.74526 1.497244,3.06431 44.33081,10.64706 56.36168,20.57873 70,45 l 35,-1 -10.04492,-17.08984 c 0,0 -9.859,13.04188 -15.13672,2.61328 -4.8193,-9.52282 10.0918,-9.38867 10.0918,-9.38867 l -15.13672,-13.55079 c 0,0 -13.0934,9.56481 -17.60938,5.25391 -7.16328,-6.83797 7.11719,-14.13086 7.11719,-14.13086 L 129.54883,186 c 0,0 -8.09129,13.62607 -18.18164,10.23828 -5.04518,0 0,-13.55078 0,-13.55078 l -14.089846,-1.65625 c 0,0 -11.767326,11.24609 -16.8125,11.24609 -0.838827,0 -1.549944,-0.33645 -2.152344,-0.89648 z"
       transform="translate(0,783.07098)"
       sodipodi:nodetypes="cccccccsccscccccsc" />
    <path
       style="font-variation-settings:normal;opacity:1;vector-effect:none;fill:#ff00a6;fill-opacity:1;stroke:#000000;stroke-width:3.77953;stroke-linecap:butt;stroke-linejoin:miter;stroke-miterlimit:4;stroke-dasharray:none;stroke-dashoffset:0;stroke-opacity:1;-inkscape-stroke:none;stop-color:#000000;stop-opacity:1"
       d="m 135,903.07098 v 40"
       id="path8977" />
    <path
       style="font-variation-settings:normal;opacity:1;vector-effect:none;fill:#ff00a6;fill-opacity:1;stroke:#000000;stroke-width:3.77953;stroke-linecap:butt;stroke-linejoin:miter;stroke-miterlimit:4;stroke-dasharray:none;stroke-dashoffset:0;stroke-opacity:1;-inkscape-stroke:none;stop-color:#000000;stop-opacity:1"
       d="m 135,903.07098 -20,20"
       id="path9178" />
    <path
       style="font-variation-settings:normal;display:inline;opacity:1;vector-effect:none;fill:#ff00a6;fill-opacity:1;stroke:#000000;stroke-width:3.77953;stroke-linecap:butt;stroke-linejoin:miter;stroke-miterlimit:4;stroke-dasharray:none;stroke-dashoffset:0;stroke-opacity:1;-inkscape-stroke:none;stop-color:#000000;stop-opacity:1"
       d="m 135,921.07098 -20,20"
       id="path9180" />
  </g>
</svg>
