<?xml version="1.0" encoding="UTF-8" standalone="no"?>
<svg
   width="64.875mm"
   height="64.875mm"
   id="svg2"
   version="1.1"
   inkscape:version="1.1 (c68e22c387, 2021-05-23)"
   sodipodi:docname="maschinenraum-65mm.svg"
   inkscape:export-filename="/home/ku3i/piraten/Gestaltung/hackspace/xHain_logo3_rev2_large.png"
   inkscape:export-xdpi="1368.9301"
   inkscape:export-ydpi="1368.9301"
   xmlns:inkscape="http://www.inkscape.org/namespaces/inkscape"
   xmlns:sodipodi="http://sodipodi.sourceforge.net/DTD/sodipodi-0.dtd"
   xmlns="http://www.w3.org/2000/svg"
   xmlns:svg="http://www.w3.org/2000/svg"
   xmlns:rdf="http://www.w3.org/1999/02/22-rdf-syntax-ns#"
   xmlns:cc="http://creativecommons.org/ns#"
   xmlns:dc="http://purl.org/dc/elements/1.1/">
  <sodipodi:namedview
     id="base"
     pagecolor="#ffffff"
     bordercolor="#666666"
     borderopacity="1.0"
     inkscape:pageopacity="0.0"
     inkscape:pageshadow="2"
     inkscape:zoom="2.0454834"
     inkscape:cx="65.265746"
     inkscape:cy="99.487485"
     inkscape:document-units="mm"
     inkscape:current-layer="layer1"
     showgrid="false"
     inkscape:window-width="1920"
     inkscape:window-height="1137"
     inkscape:window-x="1912"
     inkscape:window-y="-8"
     inkscape:window-maximized="1"
     showguides="true"
     inkscape:guide-bbox="true"
     units="mm"
     inkscape:document-rotation="0"
     inkscape:pagecheckerboard="0">
    <inkscape:grid
       type="xygrid"
       id="grid2985"
       empspacing="5"
       visible="true"
       enabled="true"
       snapvisiblegridlinesonly="true" />
  </sodipodi:namedview>
  <defs
     id="defs4">
    <marker
       inkscape:stockid="DotS"
       orient="auto"
       refY="0"
       refX="0"
       id="DotS"
       style="overflow:visible">
      <path
         id="path3828"
         d="m -2.5,-1 c 0,2.76 -2.24,5 -5,5 -2.76,0 -5,-2.24 -5,-5 0,-2.76 2.24,-5 5,-5 2.76,0 5,2.24 5,5 z"
         style="fill-rule:evenodd;stroke:#000000;stroke-width:1pt"
         transform="matrix(0.2,0,0,0.2,1.48,0.2)"
         inkscape:connector-curvature="0" />
    </marker>
    <marker
       inkscape:stockid="DotS"
       orient="auto"
       refY="0"
       refX="0"
       id="DotS-1"
       style="overflow:visible">
      <path
         inkscape:connector-curvature="0"
         id="path3828-5"
         d="m -2.5,-1 c 0,2.76 -2.24,5 -5,5 -2.76,0 -5,-2.24 -5,-5 0,-2.76 2.24,-5 5,-5 2.76,0 5,2.24 5,5 z"
         style="fill-rule:evenodd;stroke:#000000;stroke-width:1pt"
         transform="matrix(0.2,0,0,0.2,1.48,0.2)" />
    </marker>
    <marker
       inkscape:stockid="DotS"
       orient="auto"
       refY="0"
       refX="0"
       id="marker4395"
       style="overflow:visible">
      <path
         inkscape:connector-curvature="0"
         id="path4397"
         d="m -2.5,-1 c 0,2.76 -2.24,5 -5,5 -2.76,0 -5,-2.24 -5,-5 0,-2.76 2.24,-5 5,-5 2.76,0 5,2.24 5,5 z"
         style="fill-rule:evenodd;stroke:#000000;stroke-width:1pt"
         transform="matrix(0.2,0,0,0.2,1.48,0.2)" />
    </marker>
    <marker
       inkscape:stockid="DotS"
       orient="auto"
       refY="0"
       refX="0"
       id="DotS-3"
       style="overflow:visible">
      <path
         inkscape:connector-curvature="0"
         id="path3828-0"
         d="m -2.5,-1 c 0,2.76 -2.24,5 -5,5 -2.76,0 -5,-2.24 -5,-5 0,-2.76 2.24,-5 5,-5 2.76,0 5,2.24 5,5 z"
         style="fill-rule:evenodd;stroke:#000000;stroke-width:1pt"
         transform="matrix(0.2,0,0,0.2,1.48,0.2)" />
    </marker>
    <marker
       inkscape:stockid="DotS"
       orient="auto"
       refY="0"
       refX="0"
       id="marker4427"
       style="overflow:visible">
      <path
         inkscape:connector-curvature="0"
         id="path4429"
         d="m -2.5,-1 c 0,2.76 -2.24,5 -5,5 -2.76,0 -5,-2.24 -5,-5 0,-2.76 2.24,-5 5,-5 2.76,0 5,2.24 5,5 z"
         style="fill-rule:evenodd;stroke:#000000;stroke-width:1pt"
         transform="matrix(0.2,0,0,0.2,1.48,0.2)" />
    </marker>
    <marker
       inkscape:stockid="DotS"
       orient="auto"
       refY="0"
       refX="0"
       id="DotS-2"
       style="overflow:visible">
      <path
         inkscape:connector-curvature="0"
         id="path3828-1"
         d="m -2.5,-1 c 0,2.76 -2.24,5 -5,5 -2.76,0 -5,-2.24 -5,-5 0,-2.76 2.24,-5 5,-5 2.76,0 5,2.24 5,5 z"
         style="fill-rule:evenodd;stroke:#000000;stroke-width:1pt"
         transform="matrix(0.2,0,0,0.2,1.48,0.2)" />
    </marker>
    <marker
       inkscape:stockid="DotS"
       orient="auto"
       refY="0"
       refX="0"
       id="marker4427-3"
       style="overflow:visible">
      <path
         inkscape:connector-curvature="0"
         id="path4429-9"
         d="m -2.5,-1 c 0,2.76 -2.24,5 -5,5 -2.76,0 -5,-2.24 -5,-5 0,-2.76 2.24,-5 5,-5 2.76,0 5,2.24 5,5 z"
         style="fill-rule:evenodd;stroke:#000000;stroke-width:1pt"
         transform="matrix(0.2,0,0,0.2,1.48,0.2)" />
    </marker>
    <marker
       inkscape:stockid="DotS"
       orient="auto"
       refY="0"
       refX="0"
       id="DotS-21"
       style="overflow:visible">
      <path
         inkscape:connector-curvature="0"
         id="path3828-6"
         d="m -2.5,-1 c 0,2.76 -2.24,5 -5,5 -2.76,0 -5,-2.24 -5,-5 0,-2.76 2.24,-5 5,-5 2.76,0 5,2.24 5,5 z"
         style="fill-rule:evenodd;stroke:#000000;stroke-width:1pt"
         transform="matrix(0.2,0,0,0.2,1.48,0.2)" />
    </marker>
    <marker
       inkscape:stockid="DotS"
       orient="auto"
       refY="0"
       refX="0"
       id="marker4474"
       style="overflow:visible">
      <path
         inkscape:connector-curvature="0"
         id="path4476"
         d="m -2.5,-1 c 0,2.76 -2.24,5 -5,5 -2.76,0 -5,-2.24 -5,-5 0,-2.76 2.24,-5 5,-5 2.76,0 5,2.24 5,5 z"
         style="fill-rule:evenodd;stroke:#000000;stroke-width:1pt"
         transform="matrix(0.2,0,0,0.2,1.48,0.2)" />
    </marker>
    <marker
       inkscape:stockid="DotS"
       orient="auto"
       refY="0"
       refX="0"
       id="DotS-36"
       style="overflow:visible">
      <path
         inkscape:connector-curvature="0"
         id="path3828-8"
         d="m -2.5,-1 c 0,2.76 -2.24,5 -5,5 -2.76,0 -5,-2.24 -5,-5 0,-2.76 2.24,-5 5,-5 2.76,0 5,2.24 5,5 z"
         style="fill-rule:evenodd;stroke:#000000;stroke-width:1pt"
         transform="matrix(0.2,0,0,0.2,1.48,0.2)" />
    </marker>
    <marker
       inkscape:stockid="DotS"
       orient="auto"
       refY="0"
       refX="0"
       id="marker4516"
       style="overflow:visible">
      <path
         inkscape:connector-curvature="0"
         id="path4518"
         d="m -2.5,-1 c 0,2.76 -2.24,5 -5,5 -2.76,0 -5,-2.24 -5,-5 0,-2.76 2.24,-5 5,-5 2.76,0 5,2.24 5,5 z"
         style="fill-rule:evenodd;stroke:#000000;stroke-width:1pt"
         transform="matrix(0.2,0,0,0.2,1.48,0.2)" />
    </marker>
    <marker
       inkscape:stockid="DotS"
       orient="auto"
       refY="0"
       refX="0"
       id="DotS-11"
       style="overflow:visible">
      <path
         inkscape:connector-curvature="0"
         id="path3828-58"
         d="m -2.5,-1 c 0,2.76 -2.24,5 -5,5 -2.76,0 -5,-2.24 -5,-5 0,-2.76 2.24,-5 5,-5 2.76,0 5,2.24 5,5 z"
         style="fill-rule:evenodd;stroke:#000000;stroke-width:1pt"
         transform="matrix(0.2,0,0,0.2,1.48,0.2)" />
    </marker>
    <marker
       inkscape:stockid="DotS"
       orient="auto"
       refY="0"
       refX="0"
       id="marker4954"
       style="overflow:visible">
      <path
         inkscape:connector-curvature="0"
         id="path4956"
         d="m -2.5,-1 c 0,2.76 -2.24,5 -5,5 -2.76,0 -5,-2.24 -5,-5 0,-2.76 2.24,-5 5,-5 2.76,0 5,2.24 5,5 z"
         style="fill-rule:evenodd;stroke:#000000;stroke-width:1pt"
         transform="matrix(0.2,0,0,0.2,1.48,0.2)" />
    </marker>
    <marker
       inkscape:stockid="DotS"
       orient="auto"
       refY="0"
       refX="0"
       id="DotS-7"
       style="overflow:visible">
      <path
         inkscape:connector-curvature="0"
         id="path3828-3"
         d="m -2.5,-1 c 0,2.76 -2.24,5 -5,5 -2.76,0 -5,-2.24 -5,-5 0,-2.76 2.24,-5 5,-5 2.76,0 5,2.24 5,5 z"
         style="fill-rule:evenodd;stroke:#000000;stroke-width:1pt"
         transform="matrix(0.2,0,0,0.2,1.48,0.2)" />
    </marker>
    <marker
       inkscape:stockid="DotS"
       orient="auto"
       refY="0"
       refX="0"
       id="marker5024"
       style="overflow:visible">
      <path
         inkscape:connector-curvature="0"
         id="path5026"
         d="m -2.5,-1 c 0,2.76 -2.24,5 -5,5 -2.76,0 -5,-2.24 -5,-5 0,-2.76 2.24,-5 5,-5 2.76,0 5,2.24 5,5 z"
         style="fill-rule:evenodd;stroke:#000000;stroke-width:1pt"
         transform="matrix(0.2,0,0,0.2,1.48,0.2)" />
    </marker>
    <marker
       inkscape:stockid="DotS"
       orient="auto"
       refY="0"
       refX="0"
       id="DotS-34"
       style="overflow:visible">
      <path
         inkscape:connector-curvature="0"
         id="path3828-16"
         d="m -2.5,-1 c 0,2.76 -2.24,5 -5,5 -2.76,0 -5,-2.24 -5,-5 0,-2.76 2.24,-5 5,-5 2.76,0 5,2.24 5,5 z"
         style="fill-rule:evenodd;stroke:#000000;stroke-width:1pt"
         transform="matrix(0.2,0,0,0.2,1.48,0.2)" />
    </marker>
    <marker
       inkscape:stockid="DotS"
       orient="auto"
       refY="0"
       refX="0"
       id="marker5056"
       style="overflow:visible">
      <path
         inkscape:connector-curvature="0"
         id="path5058"
         d="m -2.5,-1 c 0,2.76 -2.24,5 -5,5 -2.76,0 -5,-2.24 -5,-5 0,-2.76 2.24,-5 5,-5 2.76,0 5,2.24 5,5 z"
         style="fill-rule:evenodd;stroke:#000000;stroke-width:1pt"
         transform="matrix(0.2,0,0,0.2,1.48,0.2)" />
    </marker>
    <marker
       inkscape:stockid="DotS"
       orient="auto"
       refY="0"
       refX="0"
       id="marker4516-8"
       style="overflow:visible">
      <path
         inkscape:connector-curvature="0"
         id="path4518-5"
         d="m -2.5,-1 c 0,2.76 -2.24,5 -5,5 -2.76,0 -5,-2.24 -5,-5 0,-2.76 2.24,-5 5,-5 2.76,0 5,2.24 5,5 z"
         style="fill-rule:evenodd;stroke:#000000;stroke-width:1pt"
         transform="matrix(0.2,0,0,0.2,1.48,0.2)" />
    </marker>
    <marker
       inkscape:stockid="DotS"
       orient="auto"
       refY="0"
       refX="0"
       id="marker5088"
       style="overflow:visible">
      <path
         inkscape:connector-curvature="0"
         id="path5090"
         d="m -2.5,-1 c 0,2.76 -2.24,5 -5,5 -2.76,0 -5,-2.24 -5,-5 0,-2.76 2.24,-5 5,-5 2.76,0 5,2.24 5,5 z"
         style="fill-rule:evenodd;stroke:#000000;stroke-width:1pt"
         transform="matrix(0.2,0,0,0.2,1.48,0.2)" />
    </marker>
    <marker
       inkscape:stockid="DotS"
       orient="auto"
       refY="0"
       refX="0"
       id="marker4516-9"
       style="overflow:visible">
      <path
         inkscape:connector-curvature="0"
         id="path4518-55"
         d="m -2.5,-1 c 0,2.76 -2.24,5 -5,5 -2.76,0 -5,-2.24 -5,-5 0,-2.76 2.24,-5 5,-5 2.76,0 5,2.24 5,5 z"
         style="fill-rule:evenodd;stroke:#000000;stroke-width:1pt"
         transform="matrix(0.2,0,0,0.2,1.48,0.2)" />
    </marker>
    <marker
       inkscape:stockid="DotS"
       orient="auto"
       refY="0"
       refX="0"
       id="marker5137"
       style="overflow:visible">
      <path
         inkscape:connector-curvature="0"
         id="path5139"
         d="m -2.5,-1 c 0,2.76 -2.24,5 -5,5 -2.76,0 -5,-2.24 -5,-5 0,-2.76 2.24,-5 5,-5 2.76,0 5,2.24 5,5 z"
         style="fill-rule:evenodd;stroke:#000000;stroke-width:1pt"
         transform="matrix(0.2,0,0,0.2,1.48,0.2)" />
    </marker>
    <marker
       inkscape:stockid="DotS"
       orient="auto"
       refY="0"
       refX="0"
       id="DotS-0"
       style="overflow:visible">
      <path
         inkscape:connector-curvature="0"
         id="path3828-4"
         d="m -2.5,-1 c 0,2.76 -2.24,5 -5,5 -2.76,0 -5,-2.24 -5,-5 0,-2.76 2.24,-5 5,-5 2.76,0 5,2.24 5,5 z"
         style="fill-rule:evenodd;stroke:#000000;stroke-width:1pt"
         transform="matrix(0.2,0,0,0.2,1.48,0.2)" />
    </marker>
    <marker
       inkscape:stockid="DotS"
       orient="auto"
       refY="0"
       refX="0"
       id="marker5169"
       style="overflow:visible">
      <path
         inkscape:connector-curvature="0"
         id="path5171"
         d="m -2.5,-1 c 0,2.76 -2.24,5 -5,5 -2.76,0 -5,-2.24 -5,-5 0,-2.76 2.24,-5 5,-5 2.76,0 5,2.24 5,5 z"
         style="fill-rule:evenodd;stroke:#000000;stroke-width:1pt"
         transform="matrix(0.2,0,0,0.2,1.48,0.2)" />
    </marker>
    <marker
       inkscape:stockid="DotS"
       orient="auto"
       refY="0"
       refX="0"
       id="DotS-8"
       style="overflow:visible">
      <path
         inkscape:connector-curvature="0"
         id="path3828-66"
         d="m -2.5,-1 c 0,2.76 -2.24,5 -5,5 -2.76,0 -5,-2.24 -5,-5 0,-2.76 2.24,-5 5,-5 2.76,0 5,2.24 5,5 z"
         style="fill-rule:evenodd;stroke:#000000;stroke-width:1pt"
         transform="matrix(0.2,0,0,0.2,1.48,0.2)" />
    </marker>
    <marker
       inkscape:stockid="DotS"
       orient="auto"
       refY="0"
       refX="0"
       id="marker5218"
       style="overflow:visible">
      <path
         inkscape:connector-curvature="0"
         id="path5220"
         d="m -2.5,-1 c 0,2.76 -2.24,5 -5,5 -2.76,0 -5,-2.24 -5,-5 0,-2.76 2.24,-5 5,-5 2.76,0 5,2.24 5,5 z"
         style="fill-rule:evenodd;stroke:#000000;stroke-width:1pt"
         transform="matrix(0.2,0,0,0.2,1.48,0.2)" />
    </marker>
    <marker
       inkscape:stockid="DotSv"
       orient="auto"
       refY="0"
       refX="0"
       id="DotSv"
       style="overflow:visible">
      <path
         id="path5753"
         d="m -2.5,-1 c 0,2.76 -2.24,5 -5,5 -2.76,0 -5,-2.24 -5,-5 0,-2.76 2.24,-5 5,-5 2.76,0 5,2.24 5,5 z"
         style="fill:#858585;fill-rule:evenodd;stroke:#858585;stroke-width:1pt"
         transform="matrix(0.2,0,0,0.2,1.48,0.2)"
         inkscape:connector-curvature="0" />
    </marker>
    <marker
       inkscape:stockid="DotSs"
       orient="auto"
       refY="0"
       refX="0"
       id="DotSs"
       style="overflow:visible">
      <path
         id="path5756"
         d="m -2.5,-1 c 0,2.76 -2.24,5 -5,5 -2.76,0 -5,-2.24 -5,-5 0,-2.76 2.24,-5 5,-5 2.76,0 5,2.24 5,5 z"
         style="fill:#858585;fill-rule:evenodd;stroke:#858585;stroke-width:1pt"
         transform="matrix(0.2,0,0,0.2,1.48,0.2)"
         inkscape:connector-curvature="0" />
    </marker>
    <marker
       inkscape:stockid="DotSk"
       orient="auto"
       refY="0"
       refX="0"
       id="DotSk"
       style="overflow:visible">
      <path
         id="path5759"
         d="m -2.5,-1 c 0,2.76 -2.24,5 -5,5 -2.76,0 -5,-2.24 -5,-5 0,-2.76 2.24,-5 5,-5 2.76,0 5,2.24 5,5 z"
         style="fill:#858585;fill-rule:evenodd;stroke:#858585;stroke-width:1pt"
         transform="matrix(0.2,0,0,0.2,1.48,0.2)"
         inkscape:connector-curvature="0" />
    </marker>
    <marker
       inkscape:stockid="DotSK"
       orient="auto"
       refY="0"
       refX="0"
       id="DotSK"
       style="overflow:visible">
      <path
         id="path5762"
         d="m -2.5,-1 c 0,2.76 -2.24,5 -5,5 -2.76,0 -5,-2.24 -5,-5 0,-2.76 2.24,-5 5,-5 2.76,0 5,2.24 5,5 z"
         style="fill:#858585;fill-rule:evenodd;stroke:#858585;stroke-width:1pt"
         transform="matrix(0.2,0,0,0.2,1.48,0.2)"
         inkscape:connector-curvature="0" />
    </marker>
    <marker
       inkscape:stockid="DotSQ"
       orient="auto"
       refY="0"
       refX="0"
       id="DotSQ"
       style="overflow:visible">
      <path
         id="path5765"
         d="m -2.5,-1 c 0,2.76 -2.24,5 -5,5 -2.76,0 -5,-2.24 -5,-5 0,-2.76 2.24,-5 5,-5 2.76,0 5,2.24 5,5 z"
         style="fill:#858585;fill-rule:evenodd;stroke:#858585;stroke-width:1pt"
         transform="matrix(0.2,0,0,0.2,1.48,0.2)"
         inkscape:connector-curvature="0" />
    </marker>
    <marker
       inkscape:stockid="DotSg"
       orient="auto"
       refY="0"
       refX="0"
       id="DotSg"
       style="overflow:visible">
      <path
         id="path5768"
         d="m -2.5,-1 c 0,2.76 -2.24,5 -5,5 -2.76,0 -5,-2.24 -5,-5 0,-2.76 2.24,-5 5,-5 2.76,0 5,2.24 5,5 z"
         style="fill:#858585;fill-rule:evenodd;stroke:#858585;stroke-width:1pt"
         transform="matrix(0.2,0,0,0.2,1.48,0.2)"
         inkscape:connector-curvature="0" />
    </marker>
    <marker
       inkscape:stockid="marker4516J"
       orient="auto"
       refY="0"
       refX="0"
       id="marker4516J"
       style="overflow:visible">
      <path
         inkscape:connector-curvature="0"
         id="path5771"
         d="m -2.5,-1 c 0,2.76 -2.24,5 -5,5 -2.76,0 -5,-2.24 -5,-5 0,-2.76 2.24,-5 5,-5 2.76,0 5,2.24 5,5 z"
         style="fill:#858585;fill-rule:evenodd;stroke:#858585;stroke-width:1pt"
         transform="matrix(0.2,0,0,0.2,1.48,0.2)" />
    </marker>
    <marker
       inkscape:stockid="marker4516P"
       orient="auto"
       refY="0"
       refX="0"
       id="marker4516P"
       style="overflow:visible">
      <path
         inkscape:connector-curvature="0"
         id="path5774"
         d="m -2.5,-1 c 0,2.76 -2.24,5 -5,5 -2.76,0 -5,-2.24 -5,-5 0,-2.76 2.24,-5 5,-5 2.76,0 5,2.24 5,5 z"
         style="fill:#858585;fill-rule:evenodd;stroke:#858585;stroke-width:1pt"
         transform="matrix(0.2,0,0,0.2,1.48,0.2)" />
    </marker>
    <marker
       inkscape:stockid="DotSC"
       orient="auto"
       refY="0"
       refX="0"
       id="DotSC"
       style="overflow:visible">
      <path
         id="path5777"
         d="m -2.5,-1 c 0,2.76 -2.24,5 -5,5 -2.76,0 -5,-2.24 -5,-5 0,-2.76 2.24,-5 5,-5 2.76,0 5,2.24 5,5 z"
         style="fill:#858585;fill-rule:evenodd;stroke:#858585;stroke-width:1pt"
         transform="matrix(0.2,0,0,0.2,1.48,0.2)"
         inkscape:connector-curvature="0" />
    </marker>
    <marker
       inkscape:stockid="DotSL"
       orient="auto"
       refY="0"
       refX="0"
       id="DotSL"
       style="overflow:visible">
      <path
         id="path5780"
         d="m -2.5,-1 c 0,2.76 -2.24,5 -5,5 -2.76,0 -5,-2.24 -5,-5 0,-2.76 2.24,-5 5,-5 2.76,0 5,2.24 5,5 z"
         style="fill:#858585;fill-rule:evenodd;stroke:#858585;stroke-width:1pt"
         transform="matrix(0.2,0,0,0.2,1.48,0.2)"
         inkscape:connector-curvature="0" />
    </marker>
    <marker
       inkscape:stockid="DotSf"
       orient="auto"
       refY="0"
       refX="0"
       id="DotSf"
       style="overflow:visible">
      <path
         id="path5783"
         d="m -2.5,-1 c 0,2.76 -2.24,5 -5,5 -2.76,0 -5,-2.24 -5,-5 0,-2.76 2.24,-5 5,-5 2.76,0 5,2.24 5,5 z"
         style="fill:#858585;fill-rule:evenodd;stroke:#858585;stroke-width:1pt"
         transform="matrix(0.2,0,0,0.2,1.48,0.2)"
         inkscape:connector-curvature="0" />
    </marker>
    <marker
       inkscape:stockid="DotS7"
       orient="auto"
       refY="0"
       refX="0"
       id="DotS7"
       style="overflow:visible">
      <path
         id="path5786"
         d="m -2.5,-1 c 0,2.76 -2.24,5 -5,5 -2.76,0 -5,-2.24 -5,-5 0,-2.76 2.24,-5 5,-5 2.76,0 5,2.24 5,5 z"
         style="fill:#858585;fill-rule:evenodd;stroke:#858585;stroke-width:1pt"
         transform="matrix(0.2,0,0,0.2,1.48,0.2)"
         inkscape:connector-curvature="0" />
    </marker>
    <marker
       inkscape:stockid="DotSS"
       orient="auto"
       refY="0"
       refX="0"
       id="DotSS"
       style="overflow:visible">
      <path
         id="path5789"
         d="m -2.5,-1 c 0,2.76 -2.24,5 -5,5 -2.76,0 -5,-2.24 -5,-5 0,-2.76 2.24,-5 5,-5 2.76,0 5,2.24 5,5 z"
         style="fill:#858585;fill-rule:evenodd;stroke:#858585;stroke-width:1pt"
         transform="matrix(0.2,0,0,0.2,1.48,0.2)"
         inkscape:connector-curvature="0" />
    </marker>
    <marker
       inkscape:stockid="DotSy"
       orient="auto"
       refY="0"
       refX="0"
       id="DotSy"
       style="overflow:visible">
      <path
         id="path5792"
         d="m -2.5,-1 c 0,2.76 -2.24,5 -5,5 -2.76,0 -5,-2.24 -5,-5 0,-2.76 2.24,-5 5,-5 2.76,0 5,2.24 5,5 z"
         style="fill:#858585;fill-rule:evenodd;stroke:#858585;stroke-width:1pt"
         transform="matrix(0.2,0,0,0.2,1.48,0.2)"
         inkscape:connector-curvature="0" />
    </marker>
    <marker
       inkscape:stockid="marker4516C"
       orient="auto"
       refY="0"
       refX="0"
       id="marker4516C"
       style="overflow:visible">
      <path
         inkscape:connector-curvature="0"
         id="path5795"
         d="m -2.5,-1 c 0,2.76 -2.24,5 -5,5 -2.76,0 -5,-2.24 -5,-5 0,-2.76 2.24,-5 5,-5 2.76,0 5,2.24 5,5 z"
         style="fill:#858585;fill-rule:evenodd;stroke:#858585;stroke-width:1pt"
         transform="matrix(0.2,0,0,0.2,1.48,0.2)" />
    </marker>
    <marker
       inkscape:stockid="marker45162"
       orient="auto"
       refY="0"
       refX="0"
       id="marker45162"
       style="overflow:visible">
      <path
         inkscape:connector-curvature="0"
         id="path5798"
         d="m -2.5,-1 c 0,2.76 -2.24,5 -5,5 -2.76,0 -5,-2.24 -5,-5 0,-2.76 2.24,-5 5,-5 2.76,0 5,2.24 5,5 z"
         style="fill:#858585;fill-rule:evenodd;stroke:#858585;stroke-width:1pt"
         transform="matrix(0.2,0,0,0.2,1.48,0.2)" />
    </marker>
    <marker
       inkscape:stockid="DotSG"
       orient="auto"
       refY="0"
       refX="0"
       id="DotSG"
       style="overflow:visible">
      <path
         id="path5801"
         d="m -2.5,-1 c 0,2.76 -2.24,5 -5,5 -2.76,0 -5,-2.24 -5,-5 0,-2.76 2.24,-5 5,-5 2.76,0 5,2.24 5,5 z"
         style="fill:#858585;fill-rule:evenodd;stroke:#858585;stroke-width:1pt"
         transform="matrix(0.2,0,0,0.2,1.48,0.2)"
         inkscape:connector-curvature="0" />
    </marker>
    <marker
       inkscape:stockid="DotS5"
       orient="auto"
       refY="0"
       refX="0"
       id="DotS5"
       style="overflow:visible">
      <path
         id="path5804"
         d="m -2.5,-1 c 0,2.76 -2.24,5 -5,5 -2.76,0 -5,-2.24 -5,-5 0,-2.76 2.24,-5 5,-5 2.76,0 5,2.24 5,5 z"
         style="fill:#858585;fill-rule:evenodd;stroke:#858585;stroke-width:1pt"
         transform="matrix(0.2,0,0,0.2,1.48,0.2)"
         inkscape:connector-curvature="0" />
    </marker>
    <marker
       inkscape:stockid="DotSsA"
       orient="auto"
       refY="0"
       refX="0"
       id="DotSsA"
       style="overflow:visible">
      <path
         id="path5807"
         d="m -2.5,-1 c 0,2.76 -2.24,5 -5,5 -2.76,0 -5,-2.24 -5,-5 0,-2.76 2.24,-5 5,-5 2.76,0 5,2.24 5,5 z"
         style="fill:#858585;fill-rule:evenodd;stroke:#858585;stroke-width:1pt"
         transform="matrix(0.2,0,0,0.2,1.48,0.2)"
         inkscape:connector-curvature="0" />
    </marker>
    <marker
       inkscape:stockid="DotSLd"
       orient="auto"
       refY="0"
       refX="0"
       id="DotSLd"
       style="overflow:visible">
      <path
         id="path5810"
         d="m -2.5,-1 c 0,2.76 -2.24,5 -5,5 -2.76,0 -5,-2.24 -5,-5 0,-2.76 2.24,-5 5,-5 2.76,0 5,2.24 5,5 z"
         style="fill:#858585;fill-rule:evenodd;stroke:#858585;stroke-width:1pt"
         transform="matrix(0.2,0,0,0.2,1.48,0.2)"
         inkscape:connector-curvature="0" />
    </marker>
    <marker
       inkscape:stockid="DotSd"
       orient="auto"
       refY="0"
       refX="0"
       id="DotSd"
       style="overflow:visible">
      <path
         id="path5813"
         d="m -2.5,-1 c 0,2.76 -2.24,5 -5,5 -2.76,0 -5,-2.24 -5,-5 0,-2.76 2.24,-5 5,-5 2.76,0 5,2.24 5,5 z"
         style="fill:#858585;fill-rule:evenodd;stroke:#858585;stroke-width:1pt"
         transform="matrix(0.2,0,0,0.2,1.48,0.2)"
         inkscape:connector-curvature="0" />
    </marker>
    <marker
       inkscape:stockid="DotSyI"
       orient="auto"
       refY="0"
       refX="0"
       id="DotSyI"
       style="overflow:visible">
      <path
         id="path5816"
         d="m -2.5,-1 c 0,2.76 -2.24,5 -5,5 -2.76,0 -5,-2.24 -5,-5 0,-2.76 2.24,-5 5,-5 2.76,0 5,2.24 5,5 z"
         style="fill:#858585;fill-rule:evenodd;stroke:#858585;stroke-width:1pt"
         transform="matrix(0.2,0,0,0.2,1.48,0.2)"
         inkscape:connector-curvature="0" />
    </marker>
    <marker
       inkscape:stockid="marker4516y"
       orient="auto"
       refY="0"
       refX="0"
       id="marker4516y"
       style="overflow:visible">
      <path
         inkscape:connector-curvature="0"
         id="path5819"
         d="m -2.5,-1 c 0,2.76 -2.24,5 -5,5 -2.76,0 -5,-2.24 -5,-5 0,-2.76 2.24,-5 5,-5 2.76,0 5,2.24 5,5 z"
         style="fill:#858585;fill-rule:evenodd;stroke:#858585;stroke-width:1pt"
         transform="matrix(0.2,0,0,0.2,1.48,0.2)" />
    </marker>
    <marker
       inkscape:stockid="marker4516I"
       orient="auto"
       refY="0"
       refX="0"
       id="marker4516I"
       style="overflow:visible">
      <path
         inkscape:connector-curvature="0"
         id="path5822"
         d="m -2.5,-1 c 0,2.76 -2.24,5 -5,5 -2.76,0 -5,-2.24 -5,-5 0,-2.76 2.24,-5 5,-5 2.76,0 5,2.24 5,5 z"
         style="fill:#858585;fill-rule:evenodd;stroke:#858585;stroke-width:1pt"
         transform="matrix(0.2,0,0,0.2,1.48,0.2)" />
    </marker>
    <marker
       inkscape:stockid="marker5218b"
       orient="auto"
       refY="0"
       refX="0"
       id="marker5218b"
       style="overflow:visible">
      <path
         inkscape:connector-curvature="0"
         id="path5825"
         d="m -2.5,-1 c 0,2.76 -2.24,5 -5,5 -2.76,0 -5,-2.24 -5,-5 0,-2.76 2.24,-5 5,-5 2.76,0 5,2.24 5,5 z"
         style="fill:#858585;fill-rule:evenodd;stroke:#858585;stroke-width:1pt"
         transform="matrix(0.2,0,0,0.2,1.48,0.2)" />
    </marker>
    <marker
       inkscape:stockid="marker5218X"
       orient="auto"
       refY="0"
       refX="0"
       id="marker5218X"
       style="overflow:visible">
      <path
         inkscape:connector-curvature="0"
         id="path5828"
         d="m -2.5,-1 c 0,2.76 -2.24,5 -5,5 -2.76,0 -5,-2.24 -5,-5 0,-2.76 2.24,-5 5,-5 2.76,0 5,2.24 5,5 z"
         style="fill:#858585;fill-rule:evenodd;stroke:#858585;stroke-width:1pt"
         transform="matrix(0.2,0,0,0.2,1.48,0.2)" />
    </marker>
    <marker
       inkscape:stockid="DotSQL"
       orient="auto"
       refY="0"
       refX="0"
       id="DotSQL"
       style="overflow:visible">
      <path
         id="path6109"
         d="m -2.5,-1 c 0,2.76 -2.24,5 -5,5 -2.76,0 -5,-2.24 -5,-5 0,-2.76 2.24,-5 5,-5 2.76,0 5,2.24 5,5 z"
         style="fill:#ffc400;fill-rule:evenodd;stroke:#ffc400;stroke-width:1pt"
         transform="matrix(0.2,0,0,0.2,1.48,0.2)"
         inkscape:connector-curvature="0" />
    </marker>
    <marker
       inkscape:stockid="DotSgb"
       orient="auto"
       refY="0"
       refX="0"
       id="DotSgb"
       style="overflow:visible">
      <path
         id="path6112"
         d="m -2.5,-1 c 0,2.76 -2.24,5 -5,5 -2.76,0 -5,-2.24 -5,-5 0,-2.76 2.24,-5 5,-5 2.76,0 5,2.24 5,5 z"
         style="fill:#ffc400;fill-rule:evenodd;stroke:#ffc400;stroke-width:1pt"
         transform="matrix(0.2,0,0,0.2,1.48,0.2)"
         inkscape:connector-curvature="0" />
    </marker>
    <marker
       inkscape:stockid="marker4516J6"
       orient="auto"
       refY="0"
       refX="0"
       id="marker4516J6"
       style="overflow:visible">
      <path
         inkscape:connector-curvature="0"
         id="path6115"
         d="m -2.5,-1 c 0,2.76 -2.24,5 -5,5 -2.76,0 -5,-2.24 -5,-5 0,-2.76 2.24,-5 5,-5 2.76,0 5,2.24 5,5 z"
         style="fill:#ffc400;fill-rule:evenodd;stroke:#ffc400;stroke-width:1pt"
         transform="matrix(0.2,0,0,0.2,1.48,0.2)" />
    </marker>
    <marker
       inkscape:stockid="marker4516Pl"
       orient="auto"
       refY="0"
       refX="0"
       id="marker4516Pl"
       style="overflow:visible">
      <path
         inkscape:connector-curvature="0"
         id="path6118"
         d="m -2.5,-1 c 0,2.76 -2.24,5 -5,5 -2.76,0 -5,-2.24 -5,-5 0,-2.76 2.24,-5 5,-5 2.76,0 5,2.24 5,5 z"
         style="fill:#ffc400;fill-rule:evenodd;stroke:#ffc400;stroke-width:1pt"
         transform="matrix(0.2,0,0,0.2,1.48,0.2)" />
    </marker>
    <marker
       inkscape:stockid="DotSSB"
       orient="auto"
       refY="0"
       refX="0"
       id="DotSSB"
       style="overflow:visible">
      <path
         id="path6121"
         d="m -2.5,-1 c 0,2.76 -2.24,5 -5,5 -2.76,0 -5,-2.24 -5,-5 0,-2.76 2.24,-5 5,-5 2.76,0 5,2.24 5,5 z"
         style="fill:#ffc400;fill-rule:evenodd;stroke:#ffc400;stroke-width:1pt"
         transform="matrix(0.2,0,0,0.2,1.48,0.2)"
         inkscape:connector-curvature="0" />
    </marker>
    <marker
       inkscape:stockid="DotSyD"
       orient="auto"
       refY="0"
       refX="0"
       id="DotSyD"
       style="overflow:visible">
      <path
         id="path6124"
         d="m -2.5,-1 c 0,2.76 -2.24,5 -5,5 -2.76,0 -5,-2.24 -5,-5 0,-2.76 2.24,-5 5,-5 2.76,0 5,2.24 5,5 z"
         style="fill:#ffc400;fill-rule:evenodd;stroke:#ffc400;stroke-width:1pt"
         transform="matrix(0.2,0,0,0.2,1.48,0.2)"
         inkscape:connector-curvature="0" />
    </marker>
    <marker
       inkscape:stockid="marker4516Ct"
       orient="auto"
       refY="0"
       refX="0"
       id="marker4516Ct"
       style="overflow:visible">
      <path
         inkscape:connector-curvature="0"
         id="path6127"
         d="m -2.5,-1 c 0,2.76 -2.24,5 -5,5 -2.76,0 -5,-2.24 -5,-5 0,-2.76 2.24,-5 5,-5 2.76,0 5,2.24 5,5 z"
         style="fill:#ffc400;fill-rule:evenodd;stroke:#ffc400;stroke-width:1pt"
         transform="matrix(0.2,0,0,0.2,1.48,0.2)" />
    </marker>
    <marker
       inkscape:stockid="marker451623"
       orient="auto"
       refY="0"
       refX="0"
       id="marker451623"
       style="overflow:visible">
      <path
         inkscape:connector-curvature="0"
         id="path6130"
         d="m -2.5,-1 c 0,2.76 -2.24,5 -5,5 -2.76,0 -5,-2.24 -5,-5 0,-2.76 2.24,-5 5,-5 2.76,0 5,2.24 5,5 z"
         style="fill:#ffc400;fill-rule:evenodd;stroke:#ffc400;stroke-width:1pt"
         transform="matrix(0.2,0,0,0.2,1.48,0.2)" />
    </marker>
    <marker
       inkscape:stockid="marker4516yb"
       orient="auto"
       refY="0"
       refX="0"
       id="marker4516yb"
       style="overflow:visible">
      <path
         inkscape:connector-curvature="0"
         id="path6133"
         d="m -2.5,-1 c 0,2.76 -2.24,5 -5,5 -2.76,0 -5,-2.24 -5,-5 0,-2.76 2.24,-5 5,-5 2.76,0 5,2.24 5,5 z"
         style="fill:#ffc400;fill-rule:evenodd;stroke:#ffc400;stroke-width:1pt"
         transform="matrix(0.2,0,0,0.2,1.48,0.2)" />
    </marker>
    <marker
       inkscape:stockid="marker4516IS"
       orient="auto"
       refY="0"
       refX="0"
       id="marker4516IS"
       style="overflow:visible">
      <path
         inkscape:connector-curvature="0"
         id="path6136"
         d="m -2.5,-1 c 0,2.76 -2.24,5 -5,5 -2.76,0 -5,-2.24 -5,-5 0,-2.76 2.24,-5 5,-5 2.76,0 5,2.24 5,5 z"
         style="fill:#ffc400;fill-rule:evenodd;stroke:#ffc400;stroke-width:1pt"
         transform="matrix(0.2,0,0,0.2,1.48,0.2)" />
    </marker>
    <marker
       inkscape:stockid="DotSsAi"
       orient="auto"
       refY="0"
       refX="0"
       id="DotSsAi"
       style="overflow:visible">
      <path
         id="path6139"
         d="m -2.5,-1 c 0,2.76 -2.24,5 -5,5 -2.76,0 -5,-2.24 -5,-5 0,-2.76 2.24,-5 5,-5 2.76,0 5,2.24 5,5 z"
         style="fill:#ffc400;fill-rule:evenodd;stroke:#ffc400;stroke-width:1pt"
         transform="matrix(0.2,0,0,0.2,1.48,0.2)"
         inkscape:connector-curvature="0" />
    </marker>
    <marker
       inkscape:stockid="DotSLdG"
       orient="auto"
       refY="0"
       refX="0"
       id="DotSLdG"
       style="overflow:visible">
      <path
         id="path6142"
         d="m -2.5,-1 c 0,2.76 -2.24,5 -5,5 -2.76,0 -5,-2.24 -5,-5 0,-2.76 2.24,-5 5,-5 2.76,0 5,2.24 5,5 z"
         style="fill:#ffc400;fill-rule:evenodd;stroke:#ffc400;stroke-width:1pt"
         transform="matrix(0.2,0,0,0.2,1.48,0.2)"
         inkscape:connector-curvature="0" />
    </marker>
    <marker
       inkscape:stockid="DotSd7"
       orient="auto"
       refY="0"
       refX="0"
       id="DotSd7"
       style="overflow:visible">
      <path
         id="path6145"
         d="m -2.5,-1 c 0,2.76 -2.24,5 -5,5 -2.76,0 -5,-2.24 -5,-5 0,-2.76 2.24,-5 5,-5 2.76,0 5,2.24 5,5 z"
         style="fill:#ffc400;fill-rule:evenodd;stroke:#ffc400;stroke-width:1pt"
         transform="matrix(0.2,0,0,0.2,1.48,0.2)"
         inkscape:connector-curvature="0" />
    </marker>
    <marker
       inkscape:stockid="DotSyIp"
       orient="auto"
       refY="0"
       refX="0"
       id="DotSyIp"
       style="overflow:visible">
      <path
         id="path6148"
         d="m -2.5,-1 c 0,2.76 -2.24,5 -5,5 -2.76,0 -5,-2.24 -5,-5 0,-2.76 2.24,-5 5,-5 2.76,0 5,2.24 5,5 z"
         style="fill:#ffc400;fill-rule:evenodd;stroke:#ffc400;stroke-width:1pt"
         transform="matrix(0.2,0,0,0.2,1.48,0.2)"
         inkscape:connector-curvature="0" />
    </marker>
    <marker
       inkscape:stockid="DotSvS"
       orient="auto"
       refY="0"
       refX="0"
       id="DotSvS"
       style="overflow:visible">
      <path
         id="path6151"
         d="m -2.5,-1 c 0,2.76 -2.24,5 -5,5 -2.76,0 -5,-2.24 -5,-5 0,-2.76 2.24,-5 5,-5 2.76,0 5,2.24 5,5 z"
         style="fill:#ffc400;fill-rule:evenodd;stroke:#ffc400;stroke-width:1pt"
         transform="matrix(0.2,0,0,0.2,1.48,0.2)"
         inkscape:connector-curvature="0" />
    </marker>
    <marker
       inkscape:stockid="DotSsJ"
       orient="auto"
       refY="0"
       refX="0"
       id="DotSsJ"
       style="overflow:visible">
      <path
         id="path6154"
         d="m -2.5,-1 c 0,2.76 -2.24,5 -5,5 -2.76,0 -5,-2.24 -5,-5 0,-2.76 2.24,-5 5,-5 2.76,0 5,2.24 5,5 z"
         style="fill:#ffc400;fill-rule:evenodd;stroke:#ffc400;stroke-width:1pt"
         transform="matrix(0.2,0,0,0.2,1.48,0.2)"
         inkscape:connector-curvature="0" />
    </marker>
    <marker
       inkscape:stockid="DotSfb"
       orient="auto"
       refY="0"
       refX="0"
       id="DotSfb"
       style="overflow:visible">
      <path
         id="path6157"
         d="m -2.5,-1 c 0,2.76 -2.24,5 -5,5 -2.76,0 -5,-2.24 -5,-5 0,-2.76 2.24,-5 5,-5 2.76,0 5,2.24 5,5 z"
         style="fill:#ffc400;fill-rule:evenodd;stroke:#ffc400;stroke-width:1pt"
         transform="matrix(0.2,0,0,0.2,1.48,0.2)"
         inkscape:connector-curvature="0" />
    </marker>
    <marker
       inkscape:stockid="DotS7T"
       orient="auto"
       refY="0"
       refX="0"
       id="DotS7T"
       style="overflow:visible">
      <path
         id="path6160"
         d="m -2.5,-1 c 0,2.76 -2.24,5 -5,5 -2.76,0 -5,-2.24 -5,-5 0,-2.76 2.24,-5 5,-5 2.76,0 5,2.24 5,5 z"
         style="fill:#ffc400;fill-rule:evenodd;stroke:#ffc400;stroke-width:1pt"
         transform="matrix(0.2,0,0,0.2,1.48,0.2)"
         inkscape:connector-curvature="0" />
    </marker>
    <marker
       inkscape:stockid="DotSko"
       orient="auto"
       refY="0"
       refX="0"
       id="DotSko"
       style="overflow:visible">
      <path
         id="path6163"
         d="m -2.5,-1 c 0,2.76 -2.24,5 -5,5 -2.76,0 -5,-2.24 -5,-5 0,-2.76 2.24,-5 5,-5 2.76,0 5,2.24 5,5 z"
         style="fill:#ffc400;fill-rule:evenodd;stroke:#ffc400;stroke-width:1pt"
         transform="matrix(0.2,0,0,0.2,1.48,0.2)"
         inkscape:connector-curvature="0" />
    </marker>
    <marker
       inkscape:stockid="DotSKZ"
       orient="auto"
       refY="0"
       refX="0"
       id="DotSKZ"
       style="overflow:visible">
      <path
         id="path6166"
         d="m -2.5,-1 c 0,2.76 -2.24,5 -5,5 -2.76,0 -5,-2.24 -5,-5 0,-2.76 2.24,-5 5,-5 2.76,0 5,2.24 5,5 z"
         style="fill:#ffc400;fill-rule:evenodd;stroke:#ffc400;stroke-width:1pt"
         transform="matrix(0.2,0,0,0.2,1.48,0.2)"
         inkscape:connector-curvature="0" />
    </marker>
    <marker
       inkscape:stockid="DotSCa"
       orient="auto"
       refY="0"
       refX="0"
       id="DotSCa"
       style="overflow:visible">
      <path
         id="path6169"
         d="m -2.5,-1 c 0,2.76 -2.24,5 -5,5 -2.76,0 -5,-2.24 -5,-5 0,-2.76 2.24,-5 5,-5 2.76,0 5,2.24 5,5 z"
         style="fill:#ffc400;fill-rule:evenodd;stroke:#ffc400;stroke-width:1pt"
         transform="matrix(0.2,0,0,0.2,1.48,0.2)"
         inkscape:connector-curvature="0" />
    </marker>
    <marker
       inkscape:stockid="DotSLi"
       orient="auto"
       refY="0"
       refX="0"
       id="DotSLi"
       style="overflow:visible">
      <path
         id="path6172"
         d="m -2.5,-1 c 0,2.76 -2.24,5 -5,5 -2.76,0 -5,-2.24 -5,-5 0,-2.76 2.24,-5 5,-5 2.76,0 5,2.24 5,5 z"
         style="fill:#ffc400;fill-rule:evenodd;stroke:#ffc400;stroke-width:1pt"
         transform="matrix(0.2,0,0,0.2,1.48,0.2)"
         inkscape:connector-curvature="0" />
    </marker>
    <marker
       inkscape:stockid="marker5218bQ"
       orient="auto"
       refY="0"
       refX="0"
       id="marker5218bQ"
       style="overflow:visible">
      <path
         inkscape:connector-curvature="0"
         id="path6175"
         d="m -2.5,-1 c 0,2.76 -2.24,5 -5,5 -2.76,0 -5,-2.24 -5,-5 0,-2.76 2.24,-5 5,-5 2.76,0 5,2.24 5,5 z"
         style="fill:#ffc400;fill-rule:evenodd;stroke:#ffc400;stroke-width:1pt"
         transform="matrix(0.2,0,0,0.2,1.48,0.2)" />
    </marker>
    <marker
       inkscape:stockid="marker5218XM"
       orient="auto"
       refY="0"
       refX="0"
       id="marker5218XM"
       style="overflow:visible">
      <path
         inkscape:connector-curvature="0"
         id="path6178"
         d="m -2.5,-1 c 0,2.76 -2.24,5 -5,5 -2.76,0 -5,-2.24 -5,-5 0,-2.76 2.24,-5 5,-5 2.76,0 5,2.24 5,5 z"
         style="fill:#ffc400;fill-rule:evenodd;stroke:#ffc400;stroke-width:1pt"
         transform="matrix(0.2,0,0,0.2,1.48,0.2)" />
    </marker>
    <marker
       inkscape:stockid="DotSGn"
       orient="auto"
       refY="0"
       refX="0"
       id="DotSGn"
       style="overflow:visible">
      <path
         id="path6181"
         d="m -2.5,-1 c 0,2.76 -2.24,5 -5,5 -2.76,0 -5,-2.24 -5,-5 0,-2.76 2.24,-5 5,-5 2.76,0 5,2.24 5,5 z"
         style="fill:#ffc400;fill-rule:evenodd;stroke:#ffc400;stroke-width:1pt"
         transform="matrix(0.2,0,0,0.2,1.48,0.2)"
         inkscape:connector-curvature="0" />
    </marker>
    <marker
       inkscape:stockid="DotS5R"
       orient="auto"
       refY="0"
       refX="0"
       id="DotS5R"
       style="overflow:visible">
      <path
         id="path6184"
         d="m -2.5,-1 c 0,2.76 -2.24,5 -5,5 -2.76,0 -5,-2.24 -5,-5 0,-2.76 2.24,-5 5,-5 2.76,0 5,2.24 5,5 z"
         style="fill:#ffc400;fill-rule:evenodd;stroke:#ffc400;stroke-width:1pt"
         transform="matrix(0.2,0,0,0.2,1.48,0.2)"
         inkscape:connector-curvature="0" />
    </marker>
    <marker
       inkscape:stockid="DotSd7"
       orient="auto"
       refY="0"
       refX="0"
       id="DotSd7-9"
       style="overflow:visible">
      <path
         inkscape:connector-curvature="0"
         id="path6145-2"
         d="m -2.5,-1 c 0,2.76 -2.24,5 -5,5 -2.76,0 -5,-2.24 -5,-5 0,-2.76 2.24,-5 5,-5 2.76,0 5,2.24 5,5 z"
         style="fill:#ffc400;fill-rule:evenodd;stroke:#ffc400;stroke-width:1pt"
         transform="matrix(0.2,0,0,0.2,1.48,0.2)" />
    </marker>
    <marker
       inkscape:stockid="DotSyIp"
       orient="auto"
       refY="0"
       refX="0"
       id="DotSyIp-9"
       style="overflow:visible">
      <path
         inkscape:connector-curvature="0"
         id="path6148-2"
         d="m -2.5,-1 c 0,2.76 -2.24,5 -5,5 -2.76,0 -5,-2.24 -5,-5 0,-2.76 2.24,-5 5,-5 2.76,0 5,2.24 5,5 z"
         style="fill:#ffc400;fill-rule:evenodd;stroke:#ffc400;stroke-width:1pt"
         transform="matrix(0.2,0,0,0.2,1.48,0.2)" />
    </marker>
    <marker
       inkscape:stockid="DotSGn"
       orient="auto"
       refY="0"
       refX="0"
       id="DotSGn-0"
       style="overflow:visible">
      <path
         inkscape:connector-curvature="0"
         id="path6181-6"
         d="m -2.5,-1 c 0,2.76 -2.24,5 -5,5 -2.76,0 -5,-2.24 -5,-5 0,-2.76 2.24,-5 5,-5 2.76,0 5,2.24 5,5 z"
         style="fill:#ffc400;fill-rule:evenodd;stroke:#ffc400;stroke-width:1pt"
         transform="matrix(0.2,0,0,0.2,1.48,0.2)" />
    </marker>
    <marker
       inkscape:stockid="DotS5R"
       orient="auto"
       refY="0"
       refX="0"
       id="DotS5R-3"
       style="overflow:visible">
      <path
         inkscape:connector-curvature="0"
         id="path6184-9"
         d="m -2.5,-1 c 0,2.76 -2.24,5 -5,5 -2.76,0 -5,-2.24 -5,-5 0,-2.76 2.24,-5 5,-5 2.76,0 5,2.24 5,5 z"
         style="fill:#ffc400;fill-rule:evenodd;stroke:#ffc400;stroke-width:1pt"
         transform="matrix(0.2,0,0,0.2,1.48,0.2)" />
    </marker>
    <marker
       inkscape:stockid="marker5218bQ"
       orient="auto"
       refY="0"
       refX="0"
       id="marker5218bQ-7"
       style="overflow:visible">
      <path
         inkscape:connector-curvature="0"
         id="path6175-9"
         d="m -2.5,-1 c 0,2.76 -2.24,5 -5,5 -2.76,0 -5,-2.24 -5,-5 0,-2.76 2.24,-5 5,-5 2.76,0 5,2.24 5,5 z"
         style="fill:#ffc400;fill-rule:evenodd;stroke:#ffc400;stroke-width:1pt"
         transform="matrix(0.2,0,0,0.2,1.48,0.2)" />
    </marker>
    <marker
       inkscape:stockid="marker5218XM"
       orient="auto"
       refY="0"
       refX="0"
       id="marker5218XM-8"
       style="overflow:visible">
      <path
         inkscape:connector-curvature="0"
         id="path6178-2"
         d="m -2.5,-1 c 0,2.76 -2.24,5 -5,5 -2.76,0 -5,-2.24 -5,-5 0,-2.76 2.24,-5 5,-5 2.76,0 5,2.24 5,5 z"
         style="fill:#ffc400;fill-rule:evenodd;stroke:#ffc400;stroke-width:1pt"
         transform="matrix(0.2,0,0,0.2,1.48,0.2)" />
    </marker>
    <marker
       inkscape:stockid="marker5218bQ"
       orient="auto"
       refY="0"
       refX="0"
       id="marker5218bQ-9"
       style="overflow:visible">
      <path
         inkscape:connector-curvature="0"
         id="path6175-95"
         d="m -2.5,-1 c 0,2.76 -2.24,5 -5,5 -2.76,0 -5,-2.24 -5,-5 0,-2.76 2.24,-5 5,-5 2.76,0 5,2.24 5,5 z"
         style="fill:#ffc400;fill-rule:evenodd;stroke:#ffc400;stroke-width:1pt"
         transform="matrix(0.2,0,0,0.2,1.48,0.2)" />
    </marker>
    <marker
       inkscape:stockid="marker5218XM"
       orient="auto"
       refY="0"
       refX="0"
       id="marker5218XM-4"
       style="overflow:visible">
      <path
         inkscape:connector-curvature="0"
         id="path6178-29"
         d="m -2.5,-1 c 0,2.76 -2.24,5 -5,5 -2.76,0 -5,-2.24 -5,-5 0,-2.76 2.24,-5 5,-5 2.76,0 5,2.24 5,5 z"
         style="fill:#ffc400;fill-rule:evenodd;stroke:#ffc400;stroke-width:1pt"
         transform="matrix(0.2,0,0,0.2,1.48,0.2)" />
    </marker>
    <marker
       inkscape:stockid="DotSGn"
       orient="auto"
       refY="0"
       refX="0"
       id="DotSGn-08"
       style="overflow:visible">
      <path
         inkscape:connector-curvature="0"
         id="path6181-5"
         d="m -2.5,-1 c 0,2.76 -2.24,5 -5,5 -2.76,0 -5,-2.24 -5,-5 0,-2.76 2.24,-5 5,-5 2.76,0 5,2.24 5,5 z"
         style="fill:#ffc400;fill-rule:evenodd;stroke:#ffc400;stroke-width:1pt"
         transform="matrix(0.2,0,0,0.2,1.48,0.2)" />
    </marker>
    <marker
       inkscape:stockid="DotS5R"
       orient="auto"
       refY="0"
       refX="0"
       id="DotS5R-8"
       style="overflow:visible">
      <path
         inkscape:connector-curvature="0"
         id="path6184-1"
         d="m -2.5,-1 c 0,2.76 -2.24,5 -5,5 -2.76,0 -5,-2.24 -5,-5 0,-2.76 2.24,-5 5,-5 2.76,0 5,2.24 5,5 z"
         style="fill:#ffc400;fill-rule:evenodd;stroke:#ffc400;stroke-width:1pt"
         transform="matrix(0.2,0,0,0.2,1.48,0.2)" />
    </marker>
    <marker
       inkscape:stockid="marker4516Ct"
       orient="auto"
       refY="0"
       refX="0"
       id="marker4516Ct-0"
       style="overflow:visible">
      <path
         inkscape:connector-curvature="0"
         id="path6127-3"
         d="m -2.5,-1 c 0,2.76 -2.24,5 -5,5 -2.76,0 -5,-2.24 -5,-5 0,-2.76 2.24,-5 5,-5 2.76,0 5,2.24 5,5 z"
         style="fill:#ffc400;fill-rule:evenodd;stroke:#ffc400;stroke-width:1pt"
         transform="matrix(0.2,0,0,0.2,1.48,0.2)" />
    </marker>
    <marker
       inkscape:stockid="marker451623"
       orient="auto"
       refY="0"
       refX="0"
       id="marker451623-8"
       style="overflow:visible">
      <path
         inkscape:connector-curvature="0"
         id="path6130-8"
         d="m -2.5,-1 c 0,2.76 -2.24,5 -5,5 -2.76,0 -5,-2.24 -5,-5 0,-2.76 2.24,-5 5,-5 2.76,0 5,2.24 5,5 z"
         style="fill:#ffc400;fill-rule:evenodd;stroke:#ffc400;stroke-width:1pt"
         transform="matrix(0.2,0,0,0.2,1.48,0.2)" />
    </marker>
    <marker
       inkscape:stockid="marker5218bQ"
       orient="auto"
       refY="0"
       refX="0"
       id="marker5218bQ-0"
       style="overflow:visible">
      <path
         inkscape:connector-curvature="0"
         id="path6175-8"
         d="m -2.5,-1 c 0,2.76 -2.24,5 -5,5 -2.76,0 -5,-2.24 -5,-5 0,-2.76 2.24,-5 5,-5 2.76,0 5,2.24 5,5 z"
         style="fill:#ffc400;fill-rule:evenodd;stroke:#ffc400;stroke-width:1pt"
         transform="matrix(0.2,0,0,0.2,1.48,0.2)" />
    </marker>
    <marker
       inkscape:stockid="marker5218XM"
       orient="auto"
       refY="0"
       refX="0"
       id="marker5218XM-86"
       style="overflow:visible">
      <path
         inkscape:connector-curvature="0"
         id="path6178-7"
         d="m -2.5,-1 c 0,2.76 -2.24,5 -5,5 -2.76,0 -5,-2.24 -5,-5 0,-2.76 2.24,-5 5,-5 2.76,0 5,2.24 5,5 z"
         style="fill:#ffc400;fill-rule:evenodd;stroke:#ffc400;stroke-width:1pt"
         transform="matrix(0.2,0,0,0.2,1.48,0.2)" />
    </marker>
    <circle
       transform="matrix(0.8755829,0,0,0.8755829,152.4506,-680.83707)"
       id="path6572"
       style="fill:none;stroke:none"
       cx="675.71429"
       cy="777.58148"
       r="584.28571" />
    <circle
       transform="matrix(-1.1162727,-0.04357729,-0.04357729,1.1162727,1532.2608,-838.54723)"
       id="path6572-9"
       style="fill:none;stroke:none"
       cx="675.71429"
       cy="777.58148"
       r="584.28571" />
  </defs>
  <metadata
     id="metadata7">
    <rdf:RDF>
      <cc:Work
         rdf:about="">
        <dc:format>image/svg+xml</dc:format>
        <dc:type
           rdf:resource="http://purl.org/dc/dcmitype/StillImage" />
      </cc:Work>
    </rdf:RDF>
  </metadata>
  <g
     inkscape:label="Ebene 1"
     inkscape:groupmode="layer"
     id="layer1"
     transform="translate(0,-783.07098)">
    <path
       id="path1594"
       style="color:#000000;fill:#b10000;-inkscape-stroke:none"
       d="m 154.73036,880.80735 c -0.1422,0.004 -0.28501,0.0315 -0.42383,0.084 l -4.54492,1.71679 c -0.57024,0.21489 -0.91457,0.79717 -0.82813,1.4004 l 1.42969,9.94922 c -1.44225,1.11411 -2.76037,2.40633 -3.91601,3.86523 l -10.44532,-2.18359 c -0.59591,-0.12427 -1.19823,0.18176 -1.44922,0.73633 l -2.00195,4.42773 c -0.24423,0.54047 -0.0916,1.17772 0.37109,1.54883 l 8.75977,7.01758 c -0.17878,1.58357 -0.18553,3.1681 -0.0352,4.73047 l -8.49804,5.55859 c -0.50987,0.33371 -0.71939,0.97688 -0.50391,1.54688 l 1.7168,4.54687 c 0.20972,0.5545 0.76813,0.89677 1.35742,0.83203 l 10.23242,-1.1289 c 1.25301,1.7227 2.75549,3.28139 4.48242,4.61523 l -1.71289,8.19336 c -0.12427,0.59591 0.18176,1.19823 0.73633,1.44922 l 4.42774,2.00195 c 0.54047,0.24422 1.17771,0.0915 1.54882,-0.37109 l 5.44532,-6.79688 c 2.18301,0.33399 4.37726,0.34329 6.51953,0.0508 l 5.7539,8.19727 c 0.34112,0.48589 0.96817,0.67883 1.52344,0.46875 l 4.54688,-1.7168 c 0.57024,-0.21489 0.91456,-0.79717 0.82812,-1.40039 l -1.47851,-10.29883 c 1.12265,-0.88684 2.16797,-1.88216 3.11718,-2.98242 l 11.49805,2.01367 c 0.58421,0.10238 1.16362,-0.2038 1.4082,-0.74414 l 2.00196,-4.42773 c 0.25154,-0.55519 0.0834,-1.21061 -0.4043,-1.57617 l -9.21875,-6.90235 c 0.21137,-1.48979 0.27247,-2.98264 0.18945,-4.46093 l 9.21094,-6.02735 c 0.50987,-0.33371 0.71939,-0.97688 0.50391,-1.54687 l -1.7168,-4.54492 c -0.20972,-0.55451 -0.76813,-0.89678 -1.35742,-0.83204 l -10.66406,1.17774 c -1.18135,-1.71774 -2.60501,-3.28176 -4.2461,-4.63867 l 1.9043,-9.10157 c 0.12427,-0.5959 -0.18176,-1.19821 -0.73633,-1.44922 l -4.42969,-2.00195 c -0.54047,-0.24423 -1.17772,-0.0915 -1.54883,0.37109 l -5.84179,7.29297 c -2.27635,-0.38805 -4.56943,-0.4173 -6.80664,-0.12109 l -5.60547,-7.98633 c -0.25584,-0.36442 -0.67301,-0.56432 -1.09961,-0.55274 z m 10.19336,18.67578 c 1.70687,0.0441 3.43521,0.42541 5.0957,1.17578 6.64198,3.00151 9.56596,10.74672 6.56445,17.38867 -3.00151,6.64196 -10.74473,9.56401 -17.38671,6.5625 -6.64198,-3.0015 -9.56597,-10.74476 -6.56446,-17.38672 2.25113,-4.98146 7.17041,-7.87259 12.29102,-7.74023 z" />
    <path
       id="path5802-1"
       d="M 123.00987,784.96075 C 61.533255,784.97675 8.8448704,831.56064 2.5160513,894.04154 -4.2347123,960.68784 44.318885,1020.1852 110.96535,1026.9359 c 66.64649,6.7508 126.15209,-41.80269 132.90282,-108.44898 6.75077,-66.6463 -41.81093,-126.14363 -108.45739,-132.89438 -4.16541,-0.42192 -8.30248,-0.63285 -12.40091,-0.63179 z m 0.1782,37.74534 c 46.14761,0 83.55835,37.41065 83.55835,83.55814 0,35.64284 -22.32758,66.06734 -53.7508,78.07453 v 20.41974 1.6038 l -1.14208,1.1421 -2.59196,2.5919 -1.13398,1.1421 h -1.61188 -10.36785 -1.61187 l -1.13398,-1.1421 -2.59197,-2.5919 -1.14208,-1.1421 -1.14209,1.1421 -2.59195,2.5919 -1.13399,1.1421 h -1.61187 -10.36785 -1.61187 l -1.13399,-1.1421 -2.59196,-2.5919 -1.14209,-1.1421 v -1.6038 -16.629 c -38.075946,-7.79156 -66.710608,-41.48622 -66.710608,-81.86527 0,-46.14749 37.410741,-83.55814 83.558368,-83.55814 z m 22.03167,164.17603 c -2.54537,0.69409 -5.13991,1.27199 -7.77588,1.72525 v 10.9672 3.57213 l 0.31589,0.3159 h 7.1441 l 0.31589,-0.3159 z m -31.10355,2.45425 v 3.2237 c 1.27438,-0.5773 2.63964,-0.7613 3.88795,-0.7613 1.24831,0 2.61357,0.184 3.88795,0.7613 v -2.7458 c -2.62405,-0.04 -5.21583,-0.2016 -7.7759,-0.4779 z"
       style="fill:#b10000;fill-opacity:1;stroke:#000000;stroke-width:3.77953;stroke-miterlimit:4;stroke-dasharray:none;stroke-opacity:1"
       inkscape:connector-curvature="0" />
    <path
       d="m 133.55591,1004.7585 2.59196,2.592 h 10.36785 l 2.59196,-2.592 v -33.69541 l -2.59196,-2.59195 h -2.59197 v -36.28736 l -2.59195,-2.59196 -2.59197,2.59196 v 36.28736 h -2.59196 l -2.59196,2.59195 v 28.51148 z m -22.03167,-75.16668 h -6.47991 l -2.59196,2.59196 v 18.14368 l 2.59196,2.59195 5.18392,2.59196 v 49.24713 l 2.59197,2.592 h 10.36785 l 2.59196,-2.592 v -49.24713 l 5.18392,-2.59196 2.59196,-2.59195 v -18.14368 l -2.59196,-2.59196 h -6.47991 v 14.25575 l -6.4799,2.59196 -6.4799,-2.59196 z m 6.4799,66.09485 c 2.863,0 3.88795,1.0249 3.88795,3.8879 0,2.86303 -1.02495,3.88803 -3.88795,3.88803 -2.863,0 -3.88795,-1.025 -3.88795,-3.88803 0,-2.863 1.02495,-3.8879 3.88795,-3.8879 z"
       style="fill:#810000;fill-opacity:1;stroke:none;stroke-width:0.259195"
       id="path4991"
       inkscape:connector-curvature="0" />
    <path
       sodipodi:type="star"
       style="fill:#ffffff;fill-opacity:1;stroke:#ffffff;stroke-opacity:1"
       id="path6846"
       sodipodi:sides="5"
       sodipodi:cx="-130"
       sodipodi:cy="859.01007"
       sodipodi:r1="77.195747"
       sodipodi:r2="41.685707"
       sodipodi:arg1="0.78539816"
       sodipodi:arg2="1.4137167"
       inkscape:flatsided="false"
       inkscape:rounded="0.1"
       inkscape:randomized="0"
       transform="matrix(0.08047195,-0.13347278,0.13347315,0.08047174,-45.137583,741.57714)"
       d="m -75.414363,913.59571 c -3.528537,3.52853 -43.135887,-14.19378 -48.064557,-13.41315 -4.92867,0.78062 -37.121,29.87489 -41.56722,27.60943 -4.44621,-2.26546 0.16936,-45.41079 -2.0961,-49.857 -2.26546,-4.44622 -39.88372,-26.07233 -39.1031,-31.00099 0.78062,-4.92867 43.24056,-13.87164 46.76909,-17.40018 3.52854,-3.52853 12.47151,-45.98846 17.40017,-46.76909 4.92867,-0.78062 26.55478,36.83764 31.001,39.1031 4.44621,2.26546 47.591535,-2.35011 49.856994,2.0961 2.26546,4.44622 -26.828803,36.63855 -27.609427,41.56722 -0.780624,4.92867 16.941686,44.53602 13.41315,48.06456 z" />
    <path
       id="path1723"
       style="font-size:34.6667px;line-height:1.25;font-family:'Politics Head';-inkscape-font-specification:'Politics Head';fill:#ffffff;stroke-width:1"
       d="m 125.64247,793.76633 c -0.88054,0.0773 -0.9787,1.09075 -0.96351,1.78008 -0.49825,6.72304 -1.06538,13.44613 -1.52087,20.16914 0.0841,0.87449 1.09314,0.97208 1.78203,0.9577 4.0108,0.29018 8.02165,0.65052 12.03243,0.89777 0.87437,-0.0848 0.97509,-1.09148 0.95964,-1.78203 0.007,-0.93928 0.27416,-1.89894 0.12434,-2.82735 -0.34845,-0.95135 -1.55097,-0.65145 -2.32951,-0.79238 -2.17074,-0.17547 -4.35167,-0.31461 -6.51619,-0.5123 0.38311,-5.57552 0.88631,-11.15108 1.24609,-16.72657 -0.0841,-0.87447 -1.09312,-0.97219 -1.78205,-0.95744 -1.01033,-0.0581 -2.02237,-0.19138 -3.0324,-0.20662 z m -10.07031,0.29297 c -4.50265,0.56307 -9.00689,1.14041 -13.50391,1.74609 -0.81975,0.22328 -0.80925,1.19415 -0.63104,1.8583 0.86797,6.64737 1.69916,13.30091 2.59002,19.94444 0.22328,0.81975 1.19415,0.80925 1.8583,0.63104 4.22678,-0.56486 8.46982,-1.05619 12.68663,-1.6662 0.88216,-0.2807 0.70143,-1.34253 0.56032,-2.03709 -0.20551,-0.91376 -0.0714,-1.93904 -0.49978,-2.78322 -0.64799,-0.78085 -1.74609,-0.17977 -2.58295,-0.18791 -2.30025,0.27611 -4.63744,0.639 -6.91509,0.86174 -0.13394,-1.13588 -0.33986,-2.30974 -0.41407,-3.42578 2.40147,-0.3387 4.82238,-0.58517 7.21485,-0.96289 0.88094,-0.282 0.69845,-1.3427 0.55884,-2.03716 -0.20502,-0.91309 -0.0699,-1.93776 -0.4983,-2.7812 -0.64595,-0.78438 -1.74651,-0.18108 -2.58291,-0.18955 -1.79754,0.21016 -3.62776,0.51231 -5.40537,0.66611 -0.12562,-1.07878 -0.3271,-2.19707 -0.39258,-3.25586 2.90482,-0.40342 5.82877,-0.71591 8.72461,-1.1582 0.88216,-0.28071 0.70143,-1.34253 0.56033,-2.0371 -0.19711,-0.90912 -0.0855,-1.91173 -0.48025,-2.76368 -0.1955,-0.26831 -0.51596,-0.42923 -0.84765,-0.42188 z m -23.605473,3.50977 c -1.099408,0.19966 -2.098055,0.82469 -3.158316,1.18685 -0.606009,0.29632 -1.72679,0.43408 -1.579965,1.35026 0.663315,3.36377 1.105051,6.77607 1.972656,10.0957 -2.157766,-2.82871 -4.27702,-5.69583 -6.476563,-8.48828 -0.748655,-0.50098 -1.56126,0.29513 -2.302329,0.47433 -0.751797,0.40439 -1.72785,0.49738 -2.320718,1.13504 -0.307612,0.78364 0.114845,1.65855 0.119528,2.477 0.417564,2.92641 0.594938,5.89636 1.316019,8.77105 -1.972124,-3.02671 -3.918146,-6.07997 -5.933593,-9.07617 -0.675615,-0.58434 -1.507308,0.22199 -2.205912,0.38753 -0.925508,0.44864 -1.986765,0.67247 -2.829245,1.26091 -0.583856,0.66701 0.325724,1.3376 0.640384,1.90522 3.895861,5.67134 7.766183,11.36525 11.677976,17.02251 0.766316,0.74097 1.749574,-0.12347 2.552409,-0.35109 0.773272,-0.42812 1.806671,-0.4942 2.392903,-1.19774 0.348053,-0.83623 -0.107696,-1.76978 -0.11278,-2.64258 -0.378422,-3.00976 -0.756844,-6.01953 -1.135267,-9.02929 1.469485,2.6415 3.541806,4.87434 5.31724,7.30585 0.618071,0.63317 0.958537,1.6245 1.801901,1.9793 0.99624,0.017 1.8616,-0.66146 2.798467,-0.94364 0.707073,-0.37643 1.995557,-0.47415 1.97497,-1.5212 -1.277687,-7.22354 -2.57284,-14.44617 -3.871093,-21.66602 -0.122064,-0.24783 -0.355515,-0.43792 -0.638672,-0.43554 z m 58.886723,0.0762 c -2.35371,0.0569 -4.52273,1.64671 -5.32937,3.85123 -1.02214,3.06209 -1.83418,6.19669 -2.7764,9.28636 -0.65017,1.96054 -1.20154,4.21287 -0.19618,6.15786 1.13803,2.29683 3.70725,3.3006 6.04076,3.91197 2.23806,0.75639 4.79359,1.2804 7.02655,0.21925 1.30502,-0.63391 2.53125,-1.74853 2.91432,-3.18448 -0.007,-0.87717 -1.06752,-1.14064 -1.60227,-1.67209 -0.73403,-0.4031 -1.30806,-1.27638 -2.19851,-1.28104 -0.90528,0.0949 -1.10627,1.34532 -2.08203,1.35156 -1.2825,0.0429 -2.47722,-0.58857 -3.70703,-0.8789 -1.05705,-0.3491 -1.24107,-1.64685 -0.82294,-2.54789 0.87888,-2.91899 1.67692,-5.86672 2.60419,-8.76852 0.39662,-0.92654 1.5468,-1.19504 2.41116,-0.77996 1.14089,0.45422 2.67564,0.42871 3.39157,1.57879 0.34541,0.63332 0.0207,1.6418 0.89258,1.92773 1.01329,0.18097 2.07144,-0.0997 3.10076,-0.0924 0.6505,0.0506 1.55653,-0.11855 1.55354,-0.94075 0.22486,-2.59183 -1.35628,-5.09878 -3.64638,-6.24917 -1.61693,-0.8229 -3.4137,-1.2115 -5.15533,-1.68003 -0.79284,-0.17259 -1.60795,-0.24857 -2.41899,-0.20947 z m 21.79492,8.71289 c -2.30187,0.12486 -4.19413,1.8216 -5.15862,3.82673 -1.69832,3.08378 -3.49251,6.11817 -5.13184,9.23236 -0.96922,1.93915 -0.85792,4.42195 0.55413,6.1206 1.5257,1.94509 3.87799,2.92869 5.97852,4.10547 2.12067,1.06326 4.87037,1.31963 6.86942,-0.155 1.91505,-1.35172 2.67714,-3.68911 3.87976,-5.60151 1.19679,-2.21748 2.54018,-4.36128 3.64367,-6.62583 0.93833,-1.96636 0.70144,-4.45288 -0.76475,-6.10127 -1.5324,-1.83407 -3.79382,-2.79973 -5.83696,-3.93435 -1.24926,-0.59763 -2.64018,-0.9679 -4.03333,-0.8672 z m 1.5625,5.68164 c 1.06069,0.28774 1.9493,1.01341 2.92383,1.50586 0.95573,0.57994 0.83295,1.87946 0.23006,2.6672 -1.50734,2.64509 -2.94607,5.33362 -4.49569,7.95194 -0.58554,0.83093 -1.77996,0.83106 -2.53234,0.23183 -0.88736,-0.63663 -2.31419,-0.88925 -2.5956,-2.09767 -0.14731,-1.19435 0.84603,-2.10818 1.29017,-3.13361 1.23119,-2.14518 2.38165,-4.34265 3.6614,-6.4564 0.35067,-0.46184 0.93477,-0.74599 1.51817,-0.66915 z m 19.85351,6.72852 c -0.87895,0.1603 -1.29504,1.117 -1.95222,1.63602 -4.44623,4.60993 -8.94428,9.17609 -13.35832,13.81319 -0.50515,0.72458 0.20966,1.45362 0.7521,1.88304 0.81611,0.69869 1.47772,1.61475 2.38657,2.18532 0.95509,0.34121 1.49284,-0.77543 2.09929,-1.28466 1.70676,-1.79179 3.49506,-3.51075 5.08626,-5.4087 -0.88901,2.23041 -1.82484,4.44856 -2.67383,6.69141 -0.064,1.00115 1.05754,1.47227 1.59885,2.16442 0.50911,0.53421 1.20377,1.34818 2.0134,0.85021 2.07735,-0.87116 4.15822,-1.73434 6.23345,-2.61033 -2.20451,2.02087 -4.24458,4.22026 -6.30469,6.38281 -0.50395,0.72461 0.21392,1.45175 0.754,1.88114 0.80062,0.68199 1.44395,1.58515 2.3378,2.13839 0.95426,0.34078 1.49102,-0.77641 2.09761,-1.2844 4.5397,-4.7063 9.1312,-9.36884 13.63872,-14.10232 0.504,-0.72525 -0.21286,-1.45345 -0.75409,-1.883 -0.87434,-0.75698 -1.59661,-1.72832 -2.56482,-2.35459 -0.81189,-0.251 -1.54139,0.45859 -2.30253,0.66104 -3.14304,1.32717 -6.2918,2.64234 -9.4313,3.97694 1.41806,-3.81594 2.90021,-7.61569 4.25977,-11.44922 0.0402,-0.95969 -1.03369,-1.40786 -1.55603,-2.07637 -0.7167,-0.56376 -1.22149,-1.46366 -2.09046,-1.79667 -0.0893,-0.004 -0.18071,-0.0304 -0.26953,-0.0137 z m 20.7168,22.90039 c -1.00439,0.28195 -1.80906,1.06016 -2.73213,1.54046 -5.16141,3.21661 -10.365,6.37459 -15.50029,9.6275 -0.66661,0.57827 -0.15197,1.46143 0.26874,2.01029 2.24026,3.58422 4.42144,7.21095 6.69806,10.76901 0.57826,0.66661 1.46142,0.15197 2.0103,-0.26872 0.76344,-0.54978 1.70063,-0.8984 2.35884,-1.57308 0.56303,-0.87948 -0.44208,-1.68562 -0.78963,-2.42963 -1.22352,-2.00742 -2.51988,-4.00779 -3.69866,-6.01958 0.97722,-0.59849 1.95976,-1.25929 2.94727,-1.80274 1.30196,2.04254 2.52289,4.1425 3.85352,6.16406 0.57762,0.67032 1.46132,0.15336 2.0103,-0.26677 0.76345,-0.54977 1.70063,-0.8984 2.35884,-1.57307 0.563,-0.87946 -0.44204,-1.68565 -0.78948,-2.42973 -0.95523,-1.57653 -1.98739,-3.14506 -2.89607,-4.72652 0.9287,-0.56674 1.86498,-1.20336 2.80273,-1.71094 1.56925,2.47439 3.05847,5.00548 4.65625,7.45899 0.57827,0.66661 1.46143,0.15196 2.0103,-0.26873 0.76345,-0.54977 1.70064,-0.8984 2.35884,-1.57307 0.56305,-0.87949 -0.44209,-1.68562 -0.7897,-2.42959 -2.12024,-3.39154 -4.1844,-6.82195 -6.3392,-10.18955 -0.21021,-0.20571 -0.50248,-0.3408 -0.79883,-0.30859 z m 13.76562,26.5625 c -1.1864,0.29277 -2.37488,0.64237 -3.53515,1.02734 -0.78991,0.38636 -0.5267,1.36602 -0.27027,2.00632 0.2625,0.9791 0.62217,1.98077 0.82691,2.9468 -5.29805,1.57569 -10.63069,3.0574 -15.91602,4.66602 -0.78823,0.38756 -0.52407,1.36503 -0.26879,2.0045 0.3651,1.01687 0.48744,2.1456 0.99731,3.09706 0.69601,0.78542 1.74604,0.0288 2.5574,-0.10676 4.75421,-1.36857 9.51436,-2.80053 14.26487,-4.12957 0.4621,1.34007 0.70377,2.77075 1.26562,4.06836 0.64605,0.82311 1.7063,0.11536 2.49458,-0.0378 0.76705,-0.34082 1.8324,-0.2507 2.35503,-0.99538 0.35683,-0.85218 -0.30695,-1.71737 -0.43101,-2.56024 -1.14083,-3.8299 -2.18945,-7.69276 -3.38735,-11.50226 -0.20535,-0.32454 -0.56778,-0.51654 -0.95313,-0.48437 z m 0.34376,22.75976 c -3.68281,0.28178 -7.37733,0.45419 -11.05342,0.80135 -2.10617,0.25085 -4.09433,1.6378 -4.77294,3.69246 -0.85487,2.37153 -0.37151,4.93166 -0.2049,7.37533 0.27403,2.35468 1.56128,4.79681 3.89032,5.6594 2.14753,0.8568 4.48824,0.22978 6.7149,0.1858 2.57587,-0.22337 5.17351,-0.26007 7.73541,-0.60528 2.12406,-0.31634 4.02152,-1.87196 4.58925,-3.96758 0.69852,-2.27542 0.25653,-4.68155 0.10138,-7.00281 -0.2741,-2.39494 -1.59364,-4.88136 -3.9753,-5.72819 -0.95935,-0.37097 -2.00356,-0.47001 -3.0247,-0.41048 z m 0.0488,5.75781 c 1.02765,-0.0513 1.847,0.89782 1.75486,1.90087 -0.0445,1.06755 0.46074,2.26924 -0.16111,3.23781 -0.82907,0.99297 -2.26586,0.62112 -3.39376,0.8144 -2.51018,0.14946 -5.01905,0.38853 -7.53007,0.48247 -1.01118,-0.0365 -1.65754,-1.0365 -1.56834,-1.98891 0.0466,-1.07361 -0.50287,-2.34435 0.27342,-3.26109 0.90594,-0.85077 2.2655,-0.50272 3.38803,-0.69665 2.41244,-0.1602 4.82389,-0.34237 7.23697,-0.4889 z m -15.55468,21.23633 c -0.74159,0.35408 -0.5716,1.37937 -0.83407,2.04328 -0.19171,1.13709 -0.63575,2.24996 -0.68156,3.40203 0.20793,0.89747 1.22508,1.25568 1.80627,1.88753 1.22772,1.0253 2.43428,2.09966 3.84217,2.87615 -2.26132,0.49183 -4.52906,0.99637 -6.76563,1.57617 -0.83411,0.50733 -0.65476,1.66235 -0.96098,2.47257 -0.17055,1.05278 -0.60743,2.08696 -0.61324,3.15243 0.1321,0.74982 1.01778,0.65859 1.53974,0.40216 3.48476,-1.0209 6.99013,-2.11689 10.46222,-3.09161 3.00786,2.66366 5.98831,5.3679 9.01367,8.00586 0.63864,0.42407 1.41027,-0.16116 1.38102,-0.87652 0.29291,-1.50087 0.76256,-2.9818 0.95063,-4.49477 -0.15882,-0.87242 -1.16352,-1.21798 -1.7142,-1.83167 -1.20838,-1.02985 -2.44297,-2.05185 -3.82253,-2.84587 2.22504,-0.44163 4.42684,-1.02729 6.61878,-1.59909 0.80887,-0.46133 0.64394,-1.57811 0.93321,-2.35216 0.19106,-1.00552 0.52252,-1.99327 0.6277,-3.00969 -0.14017,-0.80393 -1.09358,-0.75841 -1.66282,-0.46508 -3.40088,1.00604 -6.79601,2.0473 -10.20046,3.03149 -3.09296,-2.71508 -6.12925,-5.50052 -9.23242,-8.20313 -0.20908,-0.0976 -0.46628,-0.17639 -0.6875,-0.0801 z m -5.02149,20.69922 c -0.9377,0.25118 -1.01399,1.43069 -1.49021,2.1339 -0.27466,0.79421 -0.96574,1.50044 -0.92971,2.37001 0.21748,0.92455 1.36971,1.00355 2.04784,1.46023 1.90682,0.93162 3.83235,1.83432 5.72755,2.78391 -0.89785,1.89664 -1.81345,3.79789 -2.74414,5.67773 -2.48582,-1.15186 -4.92843,-2.4152 -7.42188,-3.54687 -0.84588,-0.24139 -1.30126,0.66476 -1.53974,1.31002 -0.41041,0.99748 -1.06882,1.91769 -1.3333,2.96146 -0.0308,1.01808 1.20602,1.17692 1.8796,1.59367 5.89738,2.83177 11.77039,5.72755 17.6829,8.51961 0.8454,0.241 1.30264,-0.66477 1.54134,-1.31019 0.4096,-0.99721 1.06796,-1.91671 1.32975,-2.96129 0.0308,-1.01809 -1.20603,-1.17691 -1.87963,-1.59362 -1.81479,-0.88739 -3.65067,-1.74411 -5.4524,-2.65052 0.89777,-1.89856 1.8129,-3.79944 2.74805,-5.67774 2.33366,1.0784 4.6231,2.27144 6.96484,3.32813 0.84586,0.24131 1.30135,-0.66468 1.53957,-1.31011 0.41062,-0.9974 1.06729,-1.91814 1.33348,-2.96138 0.0308,-1.01807 -1.20603,-1.17692 -1.8796,-1.59367 -5.89367,-2.82992 -11.76132,-5.72332 -17.67118,-8.51375 -0.14063,-0.0406 -0.30991,-0.0501 -0.45313,-0.0195 z m -9.29492,18.05859 c -0.77581,0.43938 -1.16899,1.34528 -1.79061,1.96882 -0.47296,0.71972 -1.27968,1.27158 -1.52189,2.11126 0.14962,0.84594 0.93175,1.42227 1.34544,2.1527 0.56689,0.49881 0.59033,0.98206 -0.0257,1.447 -1.16322,1.42575 -2.32644,2.8515 -3.48965,4.27726 -1.0163,-0.395 -1.97396,-1.01811 -3.02539,-1.2793 -0.81757,0.0949 -1.11077,1.06389 -1.66566,1.56599 -0.59217,0.82881 -1.41532,1.52694 -1.86169,2.43987 -0.17152,0.88296 0.98685,1.01599 1.55493,1.31918 6.49987,2.71716 12.97952,5.49632 19.49195,8.17496 0.99981,0.10881 1.38812,-1.06935 1.99963,-1.64217 0.78756,-1.03401 1.72144,-1.97583 2.42224,-3.06486 0.30888,-0.88811 -0.65538,-1.51526 -1.00246,-2.23304 -3.89245,-5.66895 -7.73964,-11.37546 -11.66016,-17.0211 -0.18303,-0.21532 -0.5034,-0.32415 -0.77097,-0.21657 z m 5.82422,17.03907 c -2.0931,-0.94531 -4.1862,-1.89063 -6.2793,-2.83594 0.75,-0.91927 1.5,-1.83854 2.25,-2.75781 1.3431,1.86458 2.6862,3.72916 4.0293,5.59375 z m -20.32031,-0.41407 c -0.88993,0.0836 -1.37639,1.00758 -2.07742,1.47033 -0.55628,0.63878 -1.57449,1.01119 -1.73118,1.91639 0.0408,0.92012 1.00274,1.42346 1.47041,2.13399 4.21873,4.8033 8.40216,9.64034 12.64287,14.42265 0.63695,0.5669 1.4422,0.009 1.89402,-0.50584 0.7935,-0.77942 1.78134,-1.39064 2.4595,-2.2715 0.42368,-0.92466 -0.64569,-1.55773 -1.10553,-2.20397 -4.30715,-4.90368 -8.57904,-9.84106 -12.90814,-14.72376 -0.18169,-0.14561 -0.40985,-0.24041 -0.64453,-0.23829 z m -7.84766,6.71876 c -1.00785,0.27003 -1.81981,1.0416 -2.74804,1.51181 -0.60146,0.35436 -1.57876,0.76695 -1.35157,1.64443 0.7671,1.53542 1.77377,2.95784 2.62887,4.4516 0.89238,1.47107 1.75991,2.96047 2.78715,4.34333 -3.71489,-1.91798 -7.39888,-3.90728 -11.13282,-5.78125 -0.88768,-0.16876 -1.54137,0.68407 -2.29809,1.01114 -0.64537,0.52353 -1.87462,0.73899 -1.88745,1.74862 0.19605,0.93728 0.94688,1.66433 1.36076,2.51655 3.24737,5.33013 6.43463,10.70369 9.71931,16.00689 0.61324,0.6956 1.513,0.099 2.09232,-0.3096 0.85886,-0.5951 1.88361,-0.9903 2.64401,-1.706 0.57664,-0.8371 -0.36784,-1.6458 -0.70727,-2.3619 -1.63172,-2.6041 -3.06305,-5.34709 -4.97632,-7.76312 3.84293,2.09424 7.65523,4.25926 11.51717,6.30962 0.89241,0.1787 1.55468,-0.6815 2.31389,-1.0106 0.64626,-0.528 1.83491,-0.72715 1.92089,-1.71113 -0.14267,-0.93679 -0.91489,-1.64497 -1.31304,-2.48559 -3.26449,-5.36149 -6.47459,-10.75979 -9.7729,-16.0984 -0.20741,-0.20986 -0.49952,-0.34848 -0.79687,-0.3164 z" />
    <path
       id="path1819"
       style="font-size:25.3333px;line-height:1.25;font-family:'Politics Head';-inkscape-font-specification:'Politics Head, Normal';letter-spacing:2.37px;fill:#ffffff"
       d="m 38.341687,836.25071 c -0.869206,0.10403 -1.101888,1.14874 -1.637678,1.70548 -0.399469,0.54829 -1.160794,1.34323 -0.499041,1.9996 1.580335,1.12506 3.147763,2.27335 4.771484,3.33593 -1.49421,-0.31933 -2.973071,-0.74045 -4.476562,-0.99804 -0.871693,0.25899 -1.134891,1.29701 -1.710258,1.9156 -0.614588,0.63256 0.004,1.40294 0.378583,1.96944 0.578006,0.94001 1.156013,1.88002 1.734019,2.82003 -1.551282,-1.16409 -3.144975,-2.28102 -4.75,-3.36523 -0.86918,-0.38122 -1.31809,0.67231 -1.730055,1.22288 -0.354862,0.68287 -1.378844,1.37029 -0.877367,2.22243 1.226639,1.04329 2.637619,1.88142 3.932391,2.84873 2.974624,2.07984 5.916616,4.21478 8.911359,6.26065 0.869191,0.38122 1.318091,-0.67232 1.729964,-1.22295 0.365251,-0.70799 1.227317,-1.27362 1.143083,-2.13838 -1.449324,-2.49317 -3.028609,-4.9177 -4.527344,-7.38477 2.846057,0.55914 5.679297,1.22483 8.533203,1.71875 0.864807,-0.23159 1.114843,-1.27178 1.682807,-1.87271 0.399635,-0.547 1.157636,-1.34155 0.496881,-1.99643 -4.226495,-2.99745 -8.452484,-6.00364 -12.707032,-8.95898 -0.115306,-0.0635 -0.267623,-0.0843 -0.398437,-0.082 z m -11.046875,16.23437 c -0.73859,0.26468 -0.785565,1.23646 -1.185634,1.8241 -0.204356,0.6958 -0.959621,1.36407 -0.644444,2.11731 0.524154,0.55111 1.157059,0.99263 1.722656,1.50195 -0.639323,1.34961 -1.278646,2.69922 -1.917969,4.04883 -0.834215,-0.0586 -1.692578,-0.51561 -2.513672,-0.29102 -0.636521,0.66135 -0.833523,1.64556 -1.294956,2.43416 -0.273437,0.49748 -0.769472,1.38137 -0.0058,1.70061 5.392959,0.90562 10.810661,1.72423 16.214844,2.57617 0.977567,-0.0107 1.060487,-1.23972 1.490189,-1.88666 0.319528,-0.86211 0.962569,-1.63834 1.064498,-2.5606 -0.283679,-0.8294 -1.213818,-1.22265 -1.774215,-1.86035 -3.566818,-3.16576 -7.092834,-6.38691 -10.684769,-9.51856 -0.132662,-0.0723 -0.319059,-0.14412 -0.470703,-0.0859 z m 6.488281,11.04688 c -1.427083,-0.26302 -2.854167,-0.52604 -4.28125,-0.78907 0.321615,-0.67773 0.643229,-1.35546 0.964844,-2.0332 1.105469,0.94076 2.210937,1.88151 3.316406,2.82227 z m -11.128906,5.87109 c -2.54449,0.23531 -4.284248,2.57017 -4.900672,4.88181 -0.688913,2.12947 -0.428137,4.7979 1.431922,6.26468 1.568923,1.28749 3.937738,1.67623 5.700747,0.54596 1.773259,-0.97156 2.741347,-2.81004 4.068784,-4.24714 0.403862,-0.58125 1.399591,-0.59195 1.583984,0.17774 0.267177,1.1399 -0.591171,2.42509 -1.789062,2.5039 -0.930926,0.40442 -0.454262,1.55929 -0.500791,2.32766 0.02817,0.64929 -0.08611,1.72848 0.832822,1.76805 2.383292,0.12661 4.427887,-1.7328 5.16447,-3.89667 0.958097,-2.34423 0.651812,-5.44241 -1.482829,-7.04669 -1.797992,-1.31277 -4.451909,-1.14292 -6.101244,0.34474 -1.389161,1.03325 -2.069095,2.70948 -3.35774,3.83104 -0.592533,0.60667 -1.70161,0.0829 -1.589844,-0.76172 0.04316,-1.12097 0.752384,-2.35651 1.972656,-2.44727 0.939466,-0.30131 0.555617,-1.42937 0.54779,-2.15024 -0.149448,-0.68623 0.197712,-1.7823 -0.668884,-2.06655 -0.296513,-0.0791 -0.609785,-0.0402 -0.912109,-0.0293 z m -4.146485,15.40039 c -1.91288,0.0867 -3.443856,1.63952 -3.908315,3.43143 -0.38291,1.49334 -0.631063,3.04103 -0.660044,4.5842 -0.0011,2.03718 1.319416,4.15659 3.388672,4.59765 0.8967,0.0271 1.011421,-1.0955 1.443037,-1.66625 0.324547,-0.59416 0.976427,-1.44368 0.279619,-2.03101 -0.676483,-0.29308 -1.125126,-0.98466 -0.914062,-1.73242 0.237275,-0.81234 -0.0083,-1.88612 0.693359,-2.49024 0.849491,-0.44846 1.756289,0.0701 2.675255,0.0928 1.730236,0.28769 3.490851,0.44941 5.201729,0.81789 0.94825,0.33142 0.651584,1.44497 0.520296,2.18411 -0.06195,0.83672 -0.263859,2.01073 -1.319155,2.05755 -0.785864,0.16896 -0.796956,1.08935 -0.561243,1.69717 0.243771,0.7262 0.129438,1.63335 0.635462,2.23447 0.714999,0.4068 1.608565,-0.005 2.315705,-0.27271 1.941139,-0.87941 2.869914,-3.03727 3.030547,-5.05653 0.378479,-1.95634 0.499002,-4.27689 -0.968773,-5.83809 -1.393688,-1.57365 -3.641982,-1.50778 -5.545279,-1.84538 -2.001223,-0.23507 -3.98314,-0.71546 -5.998468,-0.78087 -0.102781,0.005 -0.205561,0.0108 -0.308342,0.0162 z m -4.410156,16.58594 c -0.811643,-0.0292 -1.033686,0.88746 -0.902115,1.53159 0.0947,0.83654 -0.150753,1.74621 0.1736,2.53677 0.570466,0.71699 1.609252,0.26183 2.386966,0.37314 1.365803,-0.0183 2.731606,-0.0365 4.097409,-0.0548 0.01888,1.45182 0.03776,2.90364 0.05664,4.35547 -1.993553,0.0573 -4.001018,-0.006 -5.986328,0.12304 -0.921853,0.31712 -0.539076,1.46052 -0.599752,2.18661 0.08722,0.72761 -0.279542,1.87358 0.642721,2.18839 2.193324,0.0829 4.407069,-0.0463 6.608007,-0.043 3.029029,-0.0567 6.063658,-0.0522 9.089258,-0.14648 0.964485,-0.22488 0.649913,-1.39291 0.679219,-2.10614 -0.107249,-0.75056 0.300007,-1.88868 -0.595234,-2.27667 -1.673419,-0.12082 -3.373685,0.0292 -5.056989,0.009 -0.898785,0.30603 -0.585527,-0.63263 -0.642209,-1.19139 -0.01368,-1.05186 -0.02736,-2.10372 -0.04104,-3.15557 1.871065,-0.0571 3.756231,0.0104 5.619141,-0.11914 0.919111,-0.32006 0.53327,-1.45964 0.595859,-2.18465 -0.08832,-0.7264 0.281403,-1.87993 -0.644687,-2.1884 -2.258735,-0.0818 -4.537775,0.0474 -6.804094,0.0449 -2.892125,0.0391 -5.78425,0.0782 -8.676375,0.11725 z M 30.120984,917.78 c -5.123399,0.72065 -10.25748,1.41937 -15.371094,2.19141 -0.925715,0.34676 -0.462064,1.46382 -0.401482,2.17439 0.204162,0.7302 -0.05984,1.91806 0.881951,2.18303 1.673471,-0.0958 3.340078,-0.45723 5.010955,-0.65145 3.526452,-0.51519 7.066885,-0.97018 10.584748,-1.52238 0.925577,-0.34673 0.462128,-1.46383 0.402358,-2.17451 -0.203573,-0.72 0.05615,-1.87757 -0.839858,-2.16533 -0.08964,-0.002 -0.177043,-0.0578 -0.267578,-0.0352 z m 1.046875,7.76563 c -4.994093,1.35533 -10.000368,2.69292 -14.978516,4.09961 -0.867677,0.46622 -0.273074,1.50865 -0.12409,2.20665 0.292188,0.69919 0.180515,1.90869 1.147528,2.05507 1.584922,-0.28179 3.12896,-0.83682 4.698658,-1.21992 0.719239,-0.19359 1.437199,-0.39511 2.139232,-0.64532 -1.979133,2.11884 -4.028887,4.17971 -5.964843,6.33399 -0.273032,0.8047 0.311372,1.61079 0.416351,2.40862 0.05351,0.65324 0.512875,1.47835 1.286773,1.22614 4.947266,-1.36541 9.915081,-2.67287 14.84961,-4.07422 0.867442,-0.46808 0.273454,-1.50973 0.123863,-2.20853 -0.292545,-0.69823 -0.180484,-1.90865 -1.147301,-2.05318 -1.616321,0.29154 -3.192174,0.8535 -4.793423,1.24534 -0.826014,0.21328 -1.638035,0.47599 -2.435092,0.78005 2.104318,-2.14818 4.268399,-4.24762 6.335937,-6.42578 0.338135,-0.77384 -0.265906,-1.58087 -0.36401,-2.35866 -0.13609,-0.63362 -0.341936,-1.50851 -1.190677,-1.36986 z m 4.490234,15.16211 c -2.585746,1.0523 -5.111156,2.28156 -7.674058,3.40078 -2.172581,0.99479 -4.378682,1.92934 -6.53102,2.96055 -0.792044,0.58984 -0.04253,1.53531 0.214469,2.20005 1.202467,2.63477 2.345616,5.30254 3.584359,7.91713 0.590231,0.79187 1.535009,0.0392 2.200324,-0.21582 0.618806,-0.30287 1.741485,-0.53239 1.547723,-1.46191 -0.812135,-1.95202 -1.728552,-3.86676 -2.580078,-5.80469 0.691406,-0.3112 1.382812,-0.62239 2.074219,-0.93359 0.756511,1.60118 1.396909,3.26988 2.220703,4.83203 0.659455,0.71259 1.550986,-0.0933 2.240596,-0.32358 0.620337,-0.26926 1.684315,-0.56436 1.446904,-1.46548 -0.679417,-1.59171 -1.414701,-3.16093 -2.115235,-4.74414 0.654948,-0.29362 1.309896,-0.58724 1.964844,-0.88086 0.906838,1.93885 1.699916,3.94378 2.673828,5.84375 0.659935,0.71468 1.550433,-0.0934 2.240186,-0.32449 0.618399,-0.27083 1.684553,-0.56123 1.447314,-1.46262 -1.370449,-3.08033 -2.72485,-6.17562 -4.160156,-9.22461 -0.198274,-0.22508 -0.494314,-0.35976 -0.794922,-0.3125 z m 6.105469,12.51172 c -0.957971,0.32362 -1.72684,1.08742 -2.611762,1.57895 -3.562163,2.34888 -7.166623,4.64521 -10.702691,7.02652 -0.678909,0.71134 0.210258,1.51531 0.56495,2.13323 0.493927,0.57562 0.761126,1.7648 1.728019,1.60114 1.528681,-0.83625 2.940493,-1.90352 4.425836,-2.82534 0.510403,-0.33571 1.018402,-0.67685 1.499945,-1.05357 -1.231262,2.62411 -2.547024,5.21485 -3.726563,7.85938 -0.0133,0.85185 0.79216,1.44027 1.139188,2.16876 0.249136,0.60585 0.945079,1.24844 1.601047,0.76874 4.288273,-2.82305 8.618674,-5.59375 12.880859,-8.44922 0.677532,-0.71139 -0.2131,-1.51549 -0.566277,-2.13365 -0.493259,-0.57657 -0.760792,-1.76579 -1.728645,-1.60072 -1.50075,0.81803 -2.884389,1.86751 -4.341738,2.77123 -0.664749,0.42146 -1.294023,0.89407 -1.910215,1.38306 1.345346,-2.71469 2.789616,-5.39008 4.074219,-8.1289 -0.02517,-0.87528 -0.835609,-1.48296 -1.200631,-2.23627 -0.25365,-0.4138 -0.551115,-0.94419 -1.125541,-0.86334 z m 8.910156,13.00195 c -0.834268,0.12858 -1.285628,1.01133 -1.944174,1.46796 -3.303966,3.04134 -6.657486,6.03613 -9.930826,9.10626 -0.562374,0.81026 0.445822,1.46999 0.897099,2.02282 0.577863,0.48959 1.037387,1.61957 1.964229,1.29944 1.327759,-1.02125 2.496593,-2.2609 3.765189,-3.36328 0.47596,-0.80191 0.867695,0.251 1.292311,0.57981 0.730829,0.3982 0.103273,1.00322 -0.09279,1.54255 -0.705464,1.59055 -1.540099,3.13958 -2.169792,4.7546 -0.0027,0.77547 0.865145,1.17899 1.258766,1.77314 0.544329,0.44365 0.8971,1.39971 1.717797,1.31084 0.74052,-0.40015 0.835946,-1.39101 1.263128,-2.05729 0.702004,-1.48872 1.404008,-2.97743 2.106012,-4.46615 1.908549,0.6053 3.984841,-0.27921 5.202055,-1.79083 1.456375,-1.53578 1.754273,-4.00361 0.635495,-5.81464 -1.005953,-1.64087 -2.506563,-2.90281 -3.739338,-4.36711 -0.688029,-0.62348 -1.160967,-1.53826 -1.992743,-1.97273 -0.07757,-0.006 -0.15416,-0.0339 -0.232422,-0.0254 z m 1.933594,7.83789 c 0.596201,0.54482 0.465896,1.52864 -0.238281,1.91602 -0.68861,0.60848 -1.608644,-0.0416 -2.021915,-0.66365 -0.506367,-0.55417 -1.012734,-1.10835 -1.519101,-1.66252 0.617839,-0.56511 1.235677,-1.13021 1.853516,-1.69532 0.641927,0.70183 1.283854,1.40365 1.925781,2.10547 z m 10.990234,4.85156 c -0.822407,0.14838 -1.40951,0.89601 -2.132876,1.28937 -3.907056,2.73459 -7.85792,5.41664 -11.738218,8.18329 -0.591698,0.63531 0.288923,1.23474 0.762369,1.57522 0.723169,0.49281 1.31786,1.23578 2.122397,1.57322 0.771885,-0.0149 1.276227,-0.79582 1.923652,-1.14661 0.493768,-0.45216 0.957152,0.54991 1.437462,0.74189 0.775462,0.62254 1.550924,1.24507 2.326386,1.86761 -0.251627,0.79607 -0.890101,1.52101 -0.86914,2.37109 0.493505,0.77652 1.409403,1.19703 2.070623,1.83082 0.419987,0.37631 1.14706,1.05723 1.642267,0.40942 2.048504,-4.79392 3.983638,-9.64915 5.988829,-14.46649 0.311025,-0.53744 0.53864,-1.33874 -0.109773,-1.73089 -1.05587,-0.79591 -2.028015,-1.72925 -3.132962,-2.4452 -0.09699,-0.0147 -0.189079,-0.0839 -0.291016,-0.0527 z m -3.572265,10.14258 c -0.584636,-0.4694 -1.169271,-0.9388 -1.753907,-1.4082 1.171875,-0.85742 2.34375,-1.71485 3.515625,-2.57227 -0.587239,1.32683 -1.174479,2.65365 -1.761718,3.98047 z m 12.535156,-3.23242 c -0.85439,0.18922 -0.984949,1.25036 -1.466378,1.8556 -1.708564,3.03279 -3.49819,6.02325 -5.157096,9.08198 -0.857392,1.6535 -0.546241,3.8021 0.825607,5.0837 1.226577,1.2109 2.813871,1.9748 4.333815,2.7475 1.784194,0.8514 4.134885,0.6728 5.496333,-0.8641 1.166676,-1.3463 1.842998,-3.0355 2.789084,-4.53402 1.259193,-2.23235 2.574905,-4.43921 3.799729,-6.68707 0.29587,-0.94482 -0.869026,-1.26941 -1.469131,-1.65678 -0.700833,-0.28774 -1.476928,-1.22443 -2.263291,-0.64009 -0.9214,1.31923 -1.621728,2.80168 -2.461083,4.1814 -1.162197,1.96324 -2.212524,4.00502 -3.445565,5.91856 -0.615536,0.7404 -1.529992,0.1475 -2.139831,-0.2526 -0.623992,-0.30428 -1.539567,-0.77902 -1.258209,-1.63447 1.10654,-2.1629 2.406715,-4.23688 3.586815,-6.36594 0.698089,-1.30375 1.547512,-2.54209 2.157326,-3.88406 0.103517,-0.96561 -1.080688,-1.16498 -1.682017,-1.61703 -0.541749,-0.23489 -1.025104,-0.77005 -1.646108,-0.73258 z m 13.480469,7.41602 c -0.939176,0.15276 -0.894771,1.34273 -1.255382,2.02432 -1.539194,4.3677 -3.140109,8.71884 -4.641103,13.09674 -0.123464,0.9817 1.080668,1.0912 1.737979,1.3672 0.737878,0.1603 1.666373,0.9382 2.334287,0.2246 0.678583,-1.5139 1.142976,-3.1328 1.725736,-4.6914 0.195221,-0.5952 0.368745,-1.2921 0.3351,-0.2421 0.08447,1.2894 0.06483,2.5912 0.212601,3.873 0.479916,0.7726 1.554606,0.7452 2.304958,1.1334 0.774288,0.4227 1.352082,-0.3815 1.796569,-0.8943 0.750663,-0.8102 1.501326,-1.6203 2.251989,-2.4305 -0.707212,1.8082 -1.35425,3.6467 -1.96875,5.4863 -0.117882,0.98 1.081764,1.0894 1.739672,1.3659 0.725371,0.1718 1.703286,0.9437 2.320875,0.1595 1.028814,-2.5939 1.889881,-5.2663 2.855232,-7.89 0.800383,-2.2954 1.663998,-4.5738 2.426021,-6.87954 0.1214,-0.98043 -1.080891,-1.08904 -1.737629,-1.36617 -0.763008,-0.14868 -1.579765,-0.885 -2.346359,-0.43656 -1.963941,2.07297 -3.877493,4.19957 -5.822265,6.29297 -0.225642,-2.8932 -0.352731,-5.80165 -0.638672,-8.68555 -0.459263,-0.76739 -1.524036,-0.7297 -2.255909,-1.11454 -0.45666,-0.12126 -0.892663,-0.41446 -1.37495,-0.39327 z" />
    <path
       id="path2158"
       style="color:#000000;fill:#810000;-inkscape-stroke:none"
       d="m 106.98036,836.56125 c -0.67208,-0.0122 -1.30307,0.3713 -1.5957,0.9961 l -5.25586,11.25586 c -3.06193,0.21362 -6.033582,0.89544 -8.830082,1.98047 l -9.748047,-8.55664 c -0.296642,-0.26028 -0.661919,-0.40338 -1.035156,-0.42579 -0.373237,-0.0224 -0.754433,0.0759 -1.080078,0.29883 l -5.333985,3.64453 c -0.66843,0.45689 -0.929874,1.31672 -0.628906,2.06836 l 4.970703,12.4043 c -1.51216,1.89112 -2.807609,3.97455 -3.841797,6.2207 l -14.18164,0.45899 c -0.808726,0.0267 -1.49058,0.61112 -1.640625,1.40625 l -1.195313,6.34961 c -0.144931,0.77466 0.252788,1.54921 0.966797,1.88281 l 13.521485,6.31445 c 0.266229,2.10183 0.754684,4.14999 1.439453,6.1211 l -9.234375,9.85156 c -0.553,0.59062 -0.621994,1.48593 -0.166016,2.1543 l 3.644531,5.33398 c 0.444604,0.65153 1.274058,0.91918 2.015625,0.65039 l 12.863282,-4.67383 c 2.159571,1.83248 4.588384,3.37358 7.238281,4.55469 l 0.359375,11.12305 c 0.02577,0.80947 0.610423,1.49237 1.40625,1.64257 l 6.349609,1.19336 c 0.775311,0.1459 1.550969,-0.25197 1.884766,-0.96679 l 4.898433,-10.48828 c 2.92529,-0.25396 5.7636,-0.92968 8.43946,-1.98047 l 10.00586,8.78125 c 0.59248,0.52017 1.46197,0.5732 2.11328,0.1289 l 5.33398,-3.64453 c 0.66843,-0.45688 0.92987,-1.31672 0.62891,-2.06836 l -5.14453,-12.83984 c 1.1728,-1.49897 2.21041,-3.1135 3.09179,-4.83398 l 15.48633,-1.00586 c 0.78729,-0.051 1.43998,-0.62898 1.58594,-1.4043 l 1.19531,-6.34961 c 0.15011,-0.79597 -0.27298,-1.58935 -1.01758,-1.9082 l -14.07421,-6.02149 c -0.19465,-1.99131 -0.5867,-3.94025 -1.15821,-5.82422 l 10.00782,-10.67578 c 0.55402,-0.59094 0.62304,-1.48747 0.16601,-2.15625 l -3.64453,-5.33398 c -0.33387,-0.48812 -0.88439,-0.75997 -1.45117,-0.75196 -0.18893,0.003 -0.37917,0.0362 -0.56446,0.10352 l -13.40429,4.86914 c -2.06501,-1.8477 -4.3959,-3.41881 -6.94141,-4.65625 l -0.40039,-12.35547 c -0.0258,-0.80946 -0.61043,-1.49237 -1.40625,-1.64258 l -6.34961,-1.19336 c -0.0969,-0.0183 -0.19305,-0.0295 -0.28906,-0.0312 z m -5.0586,25.4375 c 1.16327,-0.0169 2.34683,0.0807 3.53711,0.30469 9.5223,1.79177 15.72927,10.87813 13.9375,20.40039 -1.79176,9.52228 -10.87613,15.72927 -20.398433,13.9375 -9.522311,-1.79177 -15.731218,-10.87616 -13.939453,-20.39844 1.567792,-8.33197 8.720458,-14.126 16.863276,-14.24414 z" />
  </g>
</svg>
