<?xml version="1.0" encoding="UTF-8" standalone="no"?>
<svg
   width="71.249992mm"
   height="79.249992mm"
   id="svg2"
   version="1.1"
   inkscape:version="1.1 (c4e8f9ed74, 2021-05-24)"
   sodipodi:docname="xroots_65mm.svg"
   inkscape:export-filename="./xHain_logo3_rev2_large.png"
   inkscape:export-xdpi="1368.9301"
   inkscape:export-ydpi="1368.9301"
   xmlns:inkscape="http://www.inkscape.org/namespaces/inkscape"
   xmlns:sodipodi="http://sodipodi.sourceforge.net/DTD/sodipodi-0.dtd"
   xmlns:xlink="http://www.w3.org/1999/xlink"
   xmlns="http://www.w3.org/2000/svg"
   xmlns:svg="http://www.w3.org/2000/svg"
   xmlns:rdf="http://www.w3.org/1999/02/22-rdf-syntax-ns#"
   xmlns:cc="http://creativecommons.org/ns#"
   xmlns:dc="http://purl.org/dc/elements/1.1/">
  <sodipodi:namedview
     id="base"
     pagecolor="#ffffff"
     bordercolor="#666666"
     borderopacity="1.0"
     inkscape:pageopacity="0.0"
     inkscape:pageshadow="2"
     inkscape:zoom="4.1924458"
     inkscape:cx="139.53669"
     inkscape:cy="141.80267"
     inkscape:document-units="mm"
     inkscape:current-layer="layer1"
     showgrid="false"
     inkscape:window-width="1920"
     inkscape:window-height="1032"
     inkscape:window-x="0"
     inkscape:window-y="0"
     inkscape:window-maximized="1"
     showguides="true"
     inkscape:guide-bbox="true"
     units="mm"
     inkscape:document-rotation="0"
     inkscape:pagecheckerboard="0">
    <inkscape:grid
       type="xygrid"
       id="grid2985"
       empspacing="5"
       visible="true"
       enabled="true"
       snapvisiblegridlinesonly="true" />
  </sodipodi:namedview>
  <defs
     id="defs4">
    <marker
       inkscape:stockid="DotS"
       orient="auto"
       refY="0"
       refX="0"
       id="DotS"
       style="overflow:visible">
      <path
         id="path3828"
         d="m -2.5,-1 c 0,2.76 -2.24,5 -5,5 -2.76,0 -5,-2.24 -5,-5 0,-2.76 2.24,-5 5,-5 2.76,0 5,2.24 5,5 z"
         style="fill-rule:evenodd;stroke:#000000;stroke-width:1pt"
         transform="matrix(0.2,0,0,0.2,1.48,0.2)"
         inkscape:connector-curvature="0" />
    </marker>
    <marker
       inkscape:stockid="DotS"
       orient="auto"
       refY="0"
       refX="0"
       id="DotS-1"
       style="overflow:visible">
      <path
         inkscape:connector-curvature="0"
         id="path3828-5"
         d="m -2.5,-1 c 0,2.76 -2.24,5 -5,5 -2.76,0 -5,-2.24 -5,-5 0,-2.76 2.24,-5 5,-5 2.76,0 5,2.24 5,5 z"
         style="fill-rule:evenodd;stroke:#000000;stroke-width:1pt"
         transform="matrix(0.2,0,0,0.2,1.48,0.2)" />
    </marker>
    <marker
       inkscape:stockid="DotS"
       orient="auto"
       refY="0"
       refX="0"
       id="marker4395"
       style="overflow:visible">
      <path
         inkscape:connector-curvature="0"
         id="path4397"
         d="m -2.5,-1 c 0,2.76 -2.24,5 -5,5 -2.76,0 -5,-2.24 -5,-5 0,-2.76 2.24,-5 5,-5 2.76,0 5,2.24 5,5 z"
         style="fill-rule:evenodd;stroke:#000000;stroke-width:1pt"
         transform="matrix(0.2,0,0,0.2,1.48,0.2)" />
    </marker>
    <marker
       inkscape:stockid="DotS"
       orient="auto"
       refY="0"
       refX="0"
       id="DotS-3"
       style="overflow:visible">
      <path
         inkscape:connector-curvature="0"
         id="path3828-0"
         d="m -2.5,-1 c 0,2.76 -2.24,5 -5,5 -2.76,0 -5,-2.24 -5,-5 0,-2.76 2.24,-5 5,-5 2.76,0 5,2.24 5,5 z"
         style="fill-rule:evenodd;stroke:#000000;stroke-width:1pt"
         transform="matrix(0.2,0,0,0.2,1.48,0.2)" />
    </marker>
    <marker
       inkscape:stockid="DotS"
       orient="auto"
       refY="0"
       refX="0"
       id="marker4427"
       style="overflow:visible">
      <path
         inkscape:connector-curvature="0"
         id="path4429"
         d="m -2.5,-1 c 0,2.76 -2.24,5 -5,5 -2.76,0 -5,-2.24 -5,-5 0,-2.76 2.24,-5 5,-5 2.76,0 5,2.24 5,5 z"
         style="fill-rule:evenodd;stroke:#000000;stroke-width:1pt"
         transform="matrix(0.2,0,0,0.2,1.48,0.2)" />
    </marker>
    <marker
       inkscape:stockid="DotS"
       orient="auto"
       refY="0"
       refX="0"
       id="DotS-2"
       style="overflow:visible">
      <path
         inkscape:connector-curvature="0"
         id="path3828-1"
         d="m -2.5,-1 c 0,2.76 -2.24,5 -5,5 -2.76,0 -5,-2.24 -5,-5 0,-2.76 2.24,-5 5,-5 2.76,0 5,2.24 5,5 z"
         style="fill-rule:evenodd;stroke:#000000;stroke-width:1pt"
         transform="matrix(0.2,0,0,0.2,1.48,0.2)" />
    </marker>
    <marker
       inkscape:stockid="DotS"
       orient="auto"
       refY="0"
       refX="0"
       id="marker4427-3"
       style="overflow:visible">
      <path
         inkscape:connector-curvature="0"
         id="path4429-9"
         d="m -2.5,-1 c 0,2.76 -2.24,5 -5,5 -2.76,0 -5,-2.24 -5,-5 0,-2.76 2.24,-5 5,-5 2.76,0 5,2.24 5,5 z"
         style="fill-rule:evenodd;stroke:#000000;stroke-width:1pt"
         transform="matrix(0.2,0,0,0.2,1.48,0.2)" />
    </marker>
    <marker
       inkscape:stockid="DotS"
       orient="auto"
       refY="0"
       refX="0"
       id="DotS-21"
       style="overflow:visible">
      <path
         inkscape:connector-curvature="0"
         id="path3828-6"
         d="m -2.5,-1 c 0,2.76 -2.24,5 -5,5 -2.76,0 -5,-2.24 -5,-5 0,-2.76 2.24,-5 5,-5 2.76,0 5,2.24 5,5 z"
         style="fill-rule:evenodd;stroke:#000000;stroke-width:1pt"
         transform="matrix(0.2,0,0,0.2,1.48,0.2)" />
    </marker>
    <marker
       inkscape:stockid="DotS"
       orient="auto"
       refY="0"
       refX="0"
       id="marker4474"
       style="overflow:visible">
      <path
         inkscape:connector-curvature="0"
         id="path4476"
         d="m -2.5,-1 c 0,2.76 -2.24,5 -5,5 -2.76,0 -5,-2.24 -5,-5 0,-2.76 2.24,-5 5,-5 2.76,0 5,2.24 5,5 z"
         style="fill-rule:evenodd;stroke:#000000;stroke-width:1pt"
         transform="matrix(0.2,0,0,0.2,1.48,0.2)" />
    </marker>
    <marker
       inkscape:stockid="DotS"
       orient="auto"
       refY="0"
       refX="0"
       id="DotS-36"
       style="overflow:visible">
      <path
         inkscape:connector-curvature="0"
         id="path3828-8"
         d="m -2.5,-1 c 0,2.76 -2.24,5 -5,5 -2.76,0 -5,-2.24 -5,-5 0,-2.76 2.24,-5 5,-5 2.76,0 5,2.24 5,5 z"
         style="fill-rule:evenodd;stroke:#000000;stroke-width:1pt"
         transform="matrix(0.2,0,0,0.2,1.48,0.2)" />
    </marker>
    <marker
       inkscape:stockid="DotS"
       orient="auto"
       refY="0"
       refX="0"
       id="marker4516"
       style="overflow:visible">
      <path
         inkscape:connector-curvature="0"
         id="path4518"
         d="m -2.5,-1 c 0,2.76 -2.24,5 -5,5 -2.76,0 -5,-2.24 -5,-5 0,-2.76 2.24,-5 5,-5 2.76,0 5,2.24 5,5 z"
         style="fill-rule:evenodd;stroke:#000000;stroke-width:1pt"
         transform="matrix(0.2,0,0,0.2,1.48,0.2)" />
    </marker>
    <marker
       inkscape:stockid="DotS"
       orient="auto"
       refY="0"
       refX="0"
       id="DotS-11"
       style="overflow:visible">
      <path
         inkscape:connector-curvature="0"
         id="path3828-58"
         d="m -2.5,-1 c 0,2.76 -2.24,5 -5,5 -2.76,0 -5,-2.24 -5,-5 0,-2.76 2.24,-5 5,-5 2.76,0 5,2.24 5,5 z"
         style="fill-rule:evenodd;stroke:#000000;stroke-width:1pt"
         transform="matrix(0.2,0,0,0.2,1.48,0.2)" />
    </marker>
    <marker
       inkscape:stockid="DotS"
       orient="auto"
       refY="0"
       refX="0"
       id="marker4954"
       style="overflow:visible">
      <path
         inkscape:connector-curvature="0"
         id="path4956"
         d="m -2.5,-1 c 0,2.76 -2.24,5 -5,5 -2.76,0 -5,-2.24 -5,-5 0,-2.76 2.24,-5 5,-5 2.76,0 5,2.24 5,5 z"
         style="fill-rule:evenodd;stroke:#000000;stroke-width:1pt"
         transform="matrix(0.2,0,0,0.2,1.48,0.2)" />
    </marker>
    <marker
       inkscape:stockid="DotS"
       orient="auto"
       refY="0"
       refX="0"
       id="DotS-7"
       style="overflow:visible">
      <path
         inkscape:connector-curvature="0"
         id="path3828-3"
         d="m -2.5,-1 c 0,2.76 -2.24,5 -5,5 -2.76,0 -5,-2.24 -5,-5 0,-2.76 2.24,-5 5,-5 2.76,0 5,2.24 5,5 z"
         style="fill-rule:evenodd;stroke:#000000;stroke-width:1pt"
         transform="matrix(0.2,0,0,0.2,1.48,0.2)" />
    </marker>
    <marker
       inkscape:stockid="DotS"
       orient="auto"
       refY="0"
       refX="0"
       id="marker5024"
       style="overflow:visible">
      <path
         inkscape:connector-curvature="0"
         id="path5026"
         d="m -2.5,-1 c 0,2.76 -2.24,5 -5,5 -2.76,0 -5,-2.24 -5,-5 0,-2.76 2.24,-5 5,-5 2.76,0 5,2.24 5,5 z"
         style="fill-rule:evenodd;stroke:#000000;stroke-width:1pt"
         transform="matrix(0.2,0,0,0.2,1.48,0.2)" />
    </marker>
    <marker
       inkscape:stockid="DotS"
       orient="auto"
       refY="0"
       refX="0"
       id="DotS-34"
       style="overflow:visible">
      <path
         inkscape:connector-curvature="0"
         id="path3828-16"
         d="m -2.5,-1 c 0,2.76 -2.24,5 -5,5 -2.76,0 -5,-2.24 -5,-5 0,-2.76 2.24,-5 5,-5 2.76,0 5,2.24 5,5 z"
         style="fill-rule:evenodd;stroke:#000000;stroke-width:1pt"
         transform="matrix(0.2,0,0,0.2,1.48,0.2)" />
    </marker>
    <marker
       inkscape:stockid="DotS"
       orient="auto"
       refY="0"
       refX="0"
       id="marker5056"
       style="overflow:visible">
      <path
         inkscape:connector-curvature="0"
         id="path5058"
         d="m -2.5,-1 c 0,2.76 -2.24,5 -5,5 -2.76,0 -5,-2.24 -5,-5 0,-2.76 2.24,-5 5,-5 2.76,0 5,2.24 5,5 z"
         style="fill-rule:evenodd;stroke:#000000;stroke-width:1pt"
         transform="matrix(0.2,0,0,0.2,1.48,0.2)" />
    </marker>
    <marker
       inkscape:stockid="DotS"
       orient="auto"
       refY="0"
       refX="0"
       id="marker4516-8"
       style="overflow:visible">
      <path
         inkscape:connector-curvature="0"
         id="path4518-5"
         d="m -2.5,-1 c 0,2.76 -2.24,5 -5,5 -2.76,0 -5,-2.24 -5,-5 0,-2.76 2.24,-5 5,-5 2.76,0 5,2.24 5,5 z"
         style="fill-rule:evenodd;stroke:#000000;stroke-width:1pt"
         transform="matrix(0.2,0,0,0.2,1.48,0.2)" />
    </marker>
    <marker
       inkscape:stockid="DotS"
       orient="auto"
       refY="0"
       refX="0"
       id="marker5088"
       style="overflow:visible">
      <path
         inkscape:connector-curvature="0"
         id="path5090"
         d="m -2.5,-1 c 0,2.76 -2.24,5 -5,5 -2.76,0 -5,-2.24 -5,-5 0,-2.76 2.24,-5 5,-5 2.76,0 5,2.24 5,5 z"
         style="fill-rule:evenodd;stroke:#000000;stroke-width:1pt"
         transform="matrix(0.2,0,0,0.2,1.48,0.2)" />
    </marker>
    <marker
       inkscape:stockid="DotS"
       orient="auto"
       refY="0"
       refX="0"
       id="marker4516-9"
       style="overflow:visible">
      <path
         inkscape:connector-curvature="0"
         id="path4518-55"
         d="m -2.5,-1 c 0,2.76 -2.24,5 -5,5 -2.76,0 -5,-2.24 -5,-5 0,-2.76 2.24,-5 5,-5 2.76,0 5,2.24 5,5 z"
         style="fill-rule:evenodd;stroke:#000000;stroke-width:1pt"
         transform="matrix(0.2,0,0,0.2,1.48,0.2)" />
    </marker>
    <marker
       inkscape:stockid="DotS"
       orient="auto"
       refY="0"
       refX="0"
       id="marker5137"
       style="overflow:visible">
      <path
         inkscape:connector-curvature="0"
         id="path5139"
         d="m -2.5,-1 c 0,2.76 -2.24,5 -5,5 -2.76,0 -5,-2.24 -5,-5 0,-2.76 2.24,-5 5,-5 2.76,0 5,2.24 5,5 z"
         style="fill-rule:evenodd;stroke:#000000;stroke-width:1pt"
         transform="matrix(0.2,0,0,0.2,1.48,0.2)" />
    </marker>
    <marker
       inkscape:stockid="DotS"
       orient="auto"
       refY="0"
       refX="0"
       id="DotS-0"
       style="overflow:visible">
      <path
         inkscape:connector-curvature="0"
         id="path3828-4"
         d="m -2.5,-1 c 0,2.76 -2.24,5 -5,5 -2.76,0 -5,-2.24 -5,-5 0,-2.76 2.24,-5 5,-5 2.76,0 5,2.24 5,5 z"
         style="fill-rule:evenodd;stroke:#000000;stroke-width:1pt"
         transform="matrix(0.2,0,0,0.2,1.48,0.2)" />
    </marker>
    <marker
       inkscape:stockid="DotS"
       orient="auto"
       refY="0"
       refX="0"
       id="marker5169"
       style="overflow:visible">
      <path
         inkscape:connector-curvature="0"
         id="path5171"
         d="m -2.5,-1 c 0,2.76 -2.24,5 -5,5 -2.76,0 -5,-2.24 -5,-5 0,-2.76 2.24,-5 5,-5 2.76,0 5,2.24 5,5 z"
         style="fill-rule:evenodd;stroke:#000000;stroke-width:1pt"
         transform="matrix(0.2,0,0,0.2,1.48,0.2)" />
    </marker>
    <marker
       inkscape:stockid="DotS"
       orient="auto"
       refY="0"
       refX="0"
       id="DotS-8"
       style="overflow:visible">
      <path
         inkscape:connector-curvature="0"
         id="path3828-66"
         d="m -2.5,-1 c 0,2.76 -2.24,5 -5,5 -2.76,0 -5,-2.24 -5,-5 0,-2.76 2.24,-5 5,-5 2.76,0 5,2.24 5,5 z"
         style="fill-rule:evenodd;stroke:#000000;stroke-width:1pt"
         transform="matrix(0.2,0,0,0.2,1.48,0.2)" />
    </marker>
    <marker
       inkscape:stockid="DotS"
       orient="auto"
       refY="0"
       refX="0"
       id="marker5218"
       style="overflow:visible">
      <path
         inkscape:connector-curvature="0"
         id="path5220"
         d="m -2.5,-1 c 0,2.76 -2.24,5 -5,5 -2.76,0 -5,-2.24 -5,-5 0,-2.76 2.24,-5 5,-5 2.76,0 5,2.24 5,5 z"
         style="fill-rule:evenodd;stroke:#000000;stroke-width:1pt"
         transform="matrix(0.2,0,0,0.2,1.48,0.2)" />
    </marker>
    <marker
       inkscape:stockid="DotSv"
       orient="auto"
       refY="0"
       refX="0"
       id="DotSv"
       style="overflow:visible">
      <path
         id="path5753"
         d="m -2.5,-1 c 0,2.76 -2.24,5 -5,5 -2.76,0 -5,-2.24 -5,-5 0,-2.76 2.24,-5 5,-5 2.76,0 5,2.24 5,5 z"
         style="fill:#858585;fill-rule:evenodd;stroke:#858585;stroke-width:1pt"
         transform="matrix(0.2,0,0,0.2,1.48,0.2)"
         inkscape:connector-curvature="0" />
    </marker>
    <marker
       inkscape:stockid="DotSs"
       orient="auto"
       refY="0"
       refX="0"
       id="DotSs"
       style="overflow:visible">
      <path
         id="path5756"
         d="m -2.5,-1 c 0,2.76 -2.24,5 -5,5 -2.76,0 -5,-2.24 -5,-5 0,-2.76 2.24,-5 5,-5 2.76,0 5,2.24 5,5 z"
         style="fill:#858585;fill-rule:evenodd;stroke:#858585;stroke-width:1pt"
         transform="matrix(0.2,0,0,0.2,1.48,0.2)"
         inkscape:connector-curvature="0" />
    </marker>
    <marker
       inkscape:stockid="DotSk"
       orient="auto"
       refY="0"
       refX="0"
       id="DotSk"
       style="overflow:visible">
      <path
         id="path5759"
         d="m -2.5,-1 c 0,2.76 -2.24,5 -5,5 -2.76,0 -5,-2.24 -5,-5 0,-2.76 2.24,-5 5,-5 2.76,0 5,2.24 5,5 z"
         style="fill:#858585;fill-rule:evenodd;stroke:#858585;stroke-width:1pt"
         transform="matrix(0.2,0,0,0.2,1.48,0.2)"
         inkscape:connector-curvature="0" />
    </marker>
    <marker
       inkscape:stockid="DotSK"
       orient="auto"
       refY="0"
       refX="0"
       id="DotSK"
       style="overflow:visible">
      <path
         id="path5762"
         d="m -2.5,-1 c 0,2.76 -2.24,5 -5,5 -2.76,0 -5,-2.24 -5,-5 0,-2.76 2.24,-5 5,-5 2.76,0 5,2.24 5,5 z"
         style="fill:#858585;fill-rule:evenodd;stroke:#858585;stroke-width:1pt"
         transform="matrix(0.2,0,0,0.2,1.48,0.2)"
         inkscape:connector-curvature="0" />
    </marker>
    <marker
       inkscape:stockid="DotSQ"
       orient="auto"
       refY="0"
       refX="0"
       id="DotSQ"
       style="overflow:visible">
      <path
         id="path5765"
         d="m -2.5,-1 c 0,2.76 -2.24,5 -5,5 -2.76,0 -5,-2.24 -5,-5 0,-2.76 2.24,-5 5,-5 2.76,0 5,2.24 5,5 z"
         style="fill:#858585;fill-rule:evenodd;stroke:#858585;stroke-width:1pt"
         transform="matrix(0.2,0,0,0.2,1.48,0.2)"
         inkscape:connector-curvature="0" />
    </marker>
    <marker
       inkscape:stockid="DotSg"
       orient="auto"
       refY="0"
       refX="0"
       id="DotSg"
       style="overflow:visible">
      <path
         id="path5768"
         d="m -2.5,-1 c 0,2.76 -2.24,5 -5,5 -2.76,0 -5,-2.24 -5,-5 0,-2.76 2.24,-5 5,-5 2.76,0 5,2.24 5,5 z"
         style="fill:#858585;fill-rule:evenodd;stroke:#858585;stroke-width:1pt"
         transform="matrix(0.2,0,0,0.2,1.48,0.2)"
         inkscape:connector-curvature="0" />
    </marker>
    <marker
       inkscape:stockid="marker4516J"
       orient="auto"
       refY="0"
       refX="0"
       id="marker4516J"
       style="overflow:visible">
      <path
         inkscape:connector-curvature="0"
         id="path5771"
         d="m -2.5,-1 c 0,2.76 -2.24,5 -5,5 -2.76,0 -5,-2.24 -5,-5 0,-2.76 2.24,-5 5,-5 2.76,0 5,2.24 5,5 z"
         style="fill:#858585;fill-rule:evenodd;stroke:#858585;stroke-width:1pt"
         transform="matrix(0.2,0,0,0.2,1.48,0.2)" />
    </marker>
    <marker
       inkscape:stockid="marker4516P"
       orient="auto"
       refY="0"
       refX="0"
       id="marker4516P"
       style="overflow:visible">
      <path
         inkscape:connector-curvature="0"
         id="path5774"
         d="m -2.5,-1 c 0,2.76 -2.24,5 -5,5 -2.76,0 -5,-2.24 -5,-5 0,-2.76 2.24,-5 5,-5 2.76,0 5,2.24 5,5 z"
         style="fill:#858585;fill-rule:evenodd;stroke:#858585;stroke-width:1pt"
         transform="matrix(0.2,0,0,0.2,1.48,0.2)" />
    </marker>
    <marker
       inkscape:stockid="DotSC"
       orient="auto"
       refY="0"
       refX="0"
       id="DotSC"
       style="overflow:visible">
      <path
         id="path5777"
         d="m -2.5,-1 c 0,2.76 -2.24,5 -5,5 -2.76,0 -5,-2.24 -5,-5 0,-2.76 2.24,-5 5,-5 2.76,0 5,2.24 5,5 z"
         style="fill:#858585;fill-rule:evenodd;stroke:#858585;stroke-width:1pt"
         transform="matrix(0.2,0,0,0.2,1.48,0.2)"
         inkscape:connector-curvature="0" />
    </marker>
    <marker
       inkscape:stockid="DotSL"
       orient="auto"
       refY="0"
       refX="0"
       id="DotSL"
       style="overflow:visible">
      <path
         id="path5780"
         d="m -2.5,-1 c 0,2.76 -2.24,5 -5,5 -2.76,0 -5,-2.24 -5,-5 0,-2.76 2.24,-5 5,-5 2.76,0 5,2.24 5,5 z"
         style="fill:#858585;fill-rule:evenodd;stroke:#858585;stroke-width:1pt"
         transform="matrix(0.2,0,0,0.2,1.48,0.2)"
         inkscape:connector-curvature="0" />
    </marker>
    <marker
       inkscape:stockid="DotSf"
       orient="auto"
       refY="0"
       refX="0"
       id="DotSf"
       style="overflow:visible">
      <path
         id="path5783"
         d="m -2.5,-1 c 0,2.76 -2.24,5 -5,5 -2.76,0 -5,-2.24 -5,-5 0,-2.76 2.24,-5 5,-5 2.76,0 5,2.24 5,5 z"
         style="fill:#858585;fill-rule:evenodd;stroke:#858585;stroke-width:1pt"
         transform="matrix(0.2,0,0,0.2,1.48,0.2)"
         inkscape:connector-curvature="0" />
    </marker>
    <marker
       inkscape:stockid="DotS7"
       orient="auto"
       refY="0"
       refX="0"
       id="DotS7"
       style="overflow:visible">
      <path
         id="path5786"
         d="m -2.5,-1 c 0,2.76 -2.24,5 -5,5 -2.76,0 -5,-2.24 -5,-5 0,-2.76 2.24,-5 5,-5 2.76,0 5,2.24 5,5 z"
         style="fill:#858585;fill-rule:evenodd;stroke:#858585;stroke-width:1pt"
         transform="matrix(0.2,0,0,0.2,1.48,0.2)"
         inkscape:connector-curvature="0" />
    </marker>
    <marker
       inkscape:stockid="DotSS"
       orient="auto"
       refY="0"
       refX="0"
       id="DotSS"
       style="overflow:visible">
      <path
         id="path5789"
         d="m -2.5,-1 c 0,2.76 -2.24,5 -5,5 -2.76,0 -5,-2.24 -5,-5 0,-2.76 2.24,-5 5,-5 2.76,0 5,2.24 5,5 z"
         style="fill:#858585;fill-rule:evenodd;stroke:#858585;stroke-width:1pt"
         transform="matrix(0.2,0,0,0.2,1.48,0.2)"
         inkscape:connector-curvature="0" />
    </marker>
    <marker
       inkscape:stockid="DotSy"
       orient="auto"
       refY="0"
       refX="0"
       id="DotSy"
       style="overflow:visible">
      <path
         id="path5792"
         d="m -2.5,-1 c 0,2.76 -2.24,5 -5,5 -2.76,0 -5,-2.24 -5,-5 0,-2.76 2.24,-5 5,-5 2.76,0 5,2.24 5,5 z"
         style="fill:#858585;fill-rule:evenodd;stroke:#858585;stroke-width:1pt"
         transform="matrix(0.2,0,0,0.2,1.48,0.2)"
         inkscape:connector-curvature="0" />
    </marker>
    <marker
       inkscape:stockid="marker4516C"
       orient="auto"
       refY="0"
       refX="0"
       id="marker4516C"
       style="overflow:visible">
      <path
         inkscape:connector-curvature="0"
         id="path5795"
         d="m -2.5,-1 c 0,2.76 -2.24,5 -5,5 -2.76,0 -5,-2.24 -5,-5 0,-2.76 2.24,-5 5,-5 2.76,0 5,2.24 5,5 z"
         style="fill:#858585;fill-rule:evenodd;stroke:#858585;stroke-width:1pt"
         transform="matrix(0.2,0,0,0.2,1.48,0.2)" />
    </marker>
    <marker
       inkscape:stockid="marker45162"
       orient="auto"
       refY="0"
       refX="0"
       id="marker45162"
       style="overflow:visible">
      <path
         inkscape:connector-curvature="0"
         id="path5798"
         d="m -2.5,-1 c 0,2.76 -2.24,5 -5,5 -2.76,0 -5,-2.24 -5,-5 0,-2.76 2.24,-5 5,-5 2.76,0 5,2.24 5,5 z"
         style="fill:#858585;fill-rule:evenodd;stroke:#858585;stroke-width:1pt"
         transform="matrix(0.2,0,0,0.2,1.48,0.2)" />
    </marker>
    <marker
       inkscape:stockid="DotSG"
       orient="auto"
       refY="0"
       refX="0"
       id="DotSG"
       style="overflow:visible">
      <path
         id="path5801"
         d="m -2.5,-1 c 0,2.76 -2.24,5 -5,5 -2.76,0 -5,-2.24 -5,-5 0,-2.76 2.24,-5 5,-5 2.76,0 5,2.24 5,5 z"
         style="fill:#858585;fill-rule:evenodd;stroke:#858585;stroke-width:1pt"
         transform="matrix(0.2,0,0,0.2,1.48,0.2)"
         inkscape:connector-curvature="0" />
    </marker>
    <marker
       inkscape:stockid="DotS5"
       orient="auto"
       refY="0"
       refX="0"
       id="DotS5"
       style="overflow:visible">
      <path
         id="path5804"
         d="m -2.5,-1 c 0,2.76 -2.24,5 -5,5 -2.76,0 -5,-2.24 -5,-5 0,-2.76 2.24,-5 5,-5 2.76,0 5,2.24 5,5 z"
         style="fill:#858585;fill-rule:evenodd;stroke:#858585;stroke-width:1pt"
         transform="matrix(0.2,0,0,0.2,1.48,0.2)"
         inkscape:connector-curvature="0" />
    </marker>
    <marker
       inkscape:stockid="DotSsA"
       orient="auto"
       refY="0"
       refX="0"
       id="DotSsA"
       style="overflow:visible">
      <path
         id="path5807"
         d="m -2.5,-1 c 0,2.76 -2.24,5 -5,5 -2.76,0 -5,-2.24 -5,-5 0,-2.76 2.24,-5 5,-5 2.76,0 5,2.24 5,5 z"
         style="fill:#858585;fill-rule:evenodd;stroke:#858585;stroke-width:1pt"
         transform="matrix(0.2,0,0,0.2,1.48,0.2)"
         inkscape:connector-curvature="0" />
    </marker>
    <marker
       inkscape:stockid="DotSLd"
       orient="auto"
       refY="0"
       refX="0"
       id="DotSLd"
       style="overflow:visible">
      <path
         id="path5810"
         d="m -2.5,-1 c 0,2.76 -2.24,5 -5,5 -2.76,0 -5,-2.24 -5,-5 0,-2.76 2.24,-5 5,-5 2.76,0 5,2.24 5,5 z"
         style="fill:#858585;fill-rule:evenodd;stroke:#858585;stroke-width:1pt"
         transform="matrix(0.2,0,0,0.2,1.48,0.2)"
         inkscape:connector-curvature="0" />
    </marker>
    <marker
       inkscape:stockid="DotSd"
       orient="auto"
       refY="0"
       refX="0"
       id="DotSd"
       style="overflow:visible">
      <path
         id="path5813"
         d="m -2.5,-1 c 0,2.76 -2.24,5 -5,5 -2.76,0 -5,-2.24 -5,-5 0,-2.76 2.24,-5 5,-5 2.76,0 5,2.24 5,5 z"
         style="fill:#858585;fill-rule:evenodd;stroke:#858585;stroke-width:1pt"
         transform="matrix(0.2,0,0,0.2,1.48,0.2)"
         inkscape:connector-curvature="0" />
    </marker>
    <marker
       inkscape:stockid="DotSyI"
       orient="auto"
       refY="0"
       refX="0"
       id="DotSyI"
       style="overflow:visible">
      <path
         id="path5816"
         d="m -2.5,-1 c 0,2.76 -2.24,5 -5,5 -2.76,0 -5,-2.24 -5,-5 0,-2.76 2.24,-5 5,-5 2.76,0 5,2.24 5,5 z"
         style="fill:#858585;fill-rule:evenodd;stroke:#858585;stroke-width:1pt"
         transform="matrix(0.2,0,0,0.2,1.48,0.2)"
         inkscape:connector-curvature="0" />
    </marker>
    <marker
       inkscape:stockid="marker4516y"
       orient="auto"
       refY="0"
       refX="0"
       id="marker4516y"
       style="overflow:visible">
      <path
         inkscape:connector-curvature="0"
         id="path5819"
         d="m -2.5,-1 c 0,2.76 -2.24,5 -5,5 -2.76,0 -5,-2.24 -5,-5 0,-2.76 2.24,-5 5,-5 2.76,0 5,2.24 5,5 z"
         style="fill:#858585;fill-rule:evenodd;stroke:#858585;stroke-width:1pt"
         transform="matrix(0.2,0,0,0.2,1.48,0.2)" />
    </marker>
    <marker
       inkscape:stockid="marker4516I"
       orient="auto"
       refY="0"
       refX="0"
       id="marker4516I"
       style="overflow:visible">
      <path
         inkscape:connector-curvature="0"
         id="path5822"
         d="m -2.5,-1 c 0,2.76 -2.24,5 -5,5 -2.76,0 -5,-2.24 -5,-5 0,-2.76 2.24,-5 5,-5 2.76,0 5,2.24 5,5 z"
         style="fill:#858585;fill-rule:evenodd;stroke:#858585;stroke-width:1pt"
         transform="matrix(0.2,0,0,0.2,1.48,0.2)" />
    </marker>
    <marker
       inkscape:stockid="marker5218b"
       orient="auto"
       refY="0"
       refX="0"
       id="marker5218b"
       style="overflow:visible">
      <path
         inkscape:connector-curvature="0"
         id="path5825"
         d="m -2.5,-1 c 0,2.76 -2.24,5 -5,5 -2.76,0 -5,-2.24 -5,-5 0,-2.76 2.24,-5 5,-5 2.76,0 5,2.24 5,5 z"
         style="fill:#858585;fill-rule:evenodd;stroke:#858585;stroke-width:1pt"
         transform="matrix(0.2,0,0,0.2,1.48,0.2)" />
    </marker>
    <marker
       inkscape:stockid="marker5218X"
       orient="auto"
       refY="0"
       refX="0"
       id="marker5218X"
       style="overflow:visible">
      <path
         inkscape:connector-curvature="0"
         id="path5828"
         d="m -2.5,-1 c 0,2.76 -2.24,5 -5,5 -2.76,0 -5,-2.24 -5,-5 0,-2.76 2.24,-5 5,-5 2.76,0 5,2.24 5,5 z"
         style="fill:#858585;fill-rule:evenodd;stroke:#858585;stroke-width:1pt"
         transform="matrix(0.2,0,0,0.2,1.48,0.2)" />
    </marker>
    <marker
       inkscape:stockid="DotSQL"
       orient="auto"
       refY="0"
       refX="0"
       id="DotSQL"
       style="overflow:visible">
      <path
         id="path6109"
         d="m -2.5,-1 c 0,2.76 -2.24,5 -5,5 -2.76,0 -5,-2.24 -5,-5 0,-2.76 2.24,-5 5,-5 2.76,0 5,2.24 5,5 z"
         style="fill:#ffc400;fill-rule:evenodd;stroke:#ffc400;stroke-width:1pt"
         transform="matrix(0.2,0,0,0.2,1.48,0.2)"
         inkscape:connector-curvature="0" />
    </marker>
    <marker
       inkscape:stockid="DotSgb"
       orient="auto"
       refY="0"
       refX="0"
       id="DotSgb"
       style="overflow:visible">
      <path
         id="path6112"
         d="m -2.5,-1 c 0,2.76 -2.24,5 -5,5 -2.76,0 -5,-2.24 -5,-5 0,-2.76 2.24,-5 5,-5 2.76,0 5,2.24 5,5 z"
         style="fill:#ffc400;fill-rule:evenodd;stroke:#ffc400;stroke-width:1pt"
         transform="matrix(0.2,0,0,0.2,1.48,0.2)"
         inkscape:connector-curvature="0" />
    </marker>
    <marker
       inkscape:stockid="marker4516J6"
       orient="auto"
       refY="0"
       refX="0"
       id="marker4516J6"
       style="overflow:visible">
      <path
         inkscape:connector-curvature="0"
         id="path6115"
         d="m -2.5,-1 c 0,2.76 -2.24,5 -5,5 -2.76,0 -5,-2.24 -5,-5 0,-2.76 2.24,-5 5,-5 2.76,0 5,2.24 5,5 z"
         style="fill:#ffc400;fill-rule:evenodd;stroke:#ffc400;stroke-width:1pt"
         transform="matrix(0.2,0,0,0.2,1.48,0.2)" />
    </marker>
    <marker
       inkscape:stockid="marker4516Pl"
       orient="auto"
       refY="0"
       refX="0"
       id="marker4516Pl"
       style="overflow:visible">
      <path
         inkscape:connector-curvature="0"
         id="path6118"
         d="m -2.5,-1 c 0,2.76 -2.24,5 -5,5 -2.76,0 -5,-2.24 -5,-5 0,-2.76 2.24,-5 5,-5 2.76,0 5,2.24 5,5 z"
         style="fill:#ffc400;fill-rule:evenodd;stroke:#ffc400;stroke-width:1pt"
         transform="matrix(0.2,0,0,0.2,1.48,0.2)" />
    </marker>
    <marker
       inkscape:stockid="DotSSB"
       orient="auto"
       refY="0"
       refX="0"
       id="DotSSB"
       style="overflow:visible">
      <path
         id="path6121"
         d="m -2.5,-1 c 0,2.76 -2.24,5 -5,5 -2.76,0 -5,-2.24 -5,-5 0,-2.76 2.24,-5 5,-5 2.76,0 5,2.24 5,5 z"
         style="fill:#ffc400;fill-rule:evenodd;stroke:#ffc400;stroke-width:1pt"
         transform="matrix(0.2,0,0,0.2,1.48,0.2)"
         inkscape:connector-curvature="0" />
    </marker>
    <marker
       inkscape:stockid="DotSyD"
       orient="auto"
       refY="0"
       refX="0"
       id="DotSyD"
       style="overflow:visible">
      <path
         id="path6124"
         d="m -2.5,-1 c 0,2.76 -2.24,5 -5,5 -2.76,0 -5,-2.24 -5,-5 0,-2.76 2.24,-5 5,-5 2.76,0 5,2.24 5,5 z"
         style="fill:#ffc400;fill-rule:evenodd;stroke:#ffc400;stroke-width:1pt"
         transform="matrix(0.2,0,0,0.2,1.48,0.2)"
         inkscape:connector-curvature="0" />
    </marker>
    <marker
       inkscape:stockid="marker4516Ct"
       orient="auto"
       refY="0"
       refX="0"
       id="marker4516Ct"
       style="overflow:visible">
      <path
         inkscape:connector-curvature="0"
         id="path6127"
         d="m -2.5,-1 c 0,2.76 -2.24,5 -5,5 -2.76,0 -5,-2.24 -5,-5 0,-2.76 2.24,-5 5,-5 2.76,0 5,2.24 5,5 z"
         style="fill:#ffc400;fill-rule:evenodd;stroke:#ffc400;stroke-width:1pt"
         transform="matrix(0.2,0,0,0.2,1.48,0.2)" />
    </marker>
    <marker
       inkscape:stockid="marker451623"
       orient="auto"
       refY="0"
       refX="0"
       id="marker451623"
       style="overflow:visible">
      <path
         inkscape:connector-curvature="0"
         id="path6130"
         d="m -2.5,-1 c 0,2.76 -2.24,5 -5,5 -2.76,0 -5,-2.24 -5,-5 0,-2.76 2.24,-5 5,-5 2.76,0 5,2.24 5,5 z"
         style="fill:#ffc400;fill-rule:evenodd;stroke:#ffc400;stroke-width:1pt"
         transform="matrix(0.2,0,0,0.2,1.48,0.2)" />
    </marker>
    <marker
       inkscape:stockid="marker4516yb"
       orient="auto"
       refY="0"
       refX="0"
       id="marker4516yb"
       style="overflow:visible">
      <path
         inkscape:connector-curvature="0"
         id="path6133"
         d="m -2.5,-1 c 0,2.76 -2.24,5 -5,5 -2.76,0 -5,-2.24 -5,-5 0,-2.76 2.24,-5 5,-5 2.76,0 5,2.24 5,5 z"
         style="fill:#ffc400;fill-rule:evenodd;stroke:#ffc400;stroke-width:1pt"
         transform="matrix(0.2,0,0,0.2,1.48,0.2)" />
    </marker>
    <marker
       inkscape:stockid="marker4516IS"
       orient="auto"
       refY="0"
       refX="0"
       id="marker4516IS"
       style="overflow:visible">
      <path
         inkscape:connector-curvature="0"
         id="path6136"
         d="m -2.5,-1 c 0,2.76 -2.24,5 -5,5 -2.76,0 -5,-2.24 -5,-5 0,-2.76 2.24,-5 5,-5 2.76,0 5,2.24 5,5 z"
         style="fill:#ffc400;fill-rule:evenodd;stroke:#ffc400;stroke-width:1pt"
         transform="matrix(0.2,0,0,0.2,1.48,0.2)" />
    </marker>
    <marker
       inkscape:stockid="DotSsAi"
       orient="auto"
       refY="0"
       refX="0"
       id="DotSsAi"
       style="overflow:visible">
      <path
         id="path6139"
         d="m -2.5,-1 c 0,2.76 -2.24,5 -5,5 -2.76,0 -5,-2.24 -5,-5 0,-2.76 2.24,-5 5,-5 2.76,0 5,2.24 5,5 z"
         style="fill:#ffc400;fill-rule:evenodd;stroke:#ffc400;stroke-width:1pt"
         transform="matrix(0.2,0,0,0.2,1.48,0.2)"
         inkscape:connector-curvature="0" />
    </marker>
    <marker
       inkscape:stockid="DotSLdG"
       orient="auto"
       refY="0"
       refX="0"
       id="DotSLdG"
       style="overflow:visible">
      <path
         id="path6142"
         d="m -2.5,-1 c 0,2.76 -2.24,5 -5,5 -2.76,0 -5,-2.24 -5,-5 0,-2.76 2.24,-5 5,-5 2.76,0 5,2.24 5,5 z"
         style="fill:#ffc400;fill-rule:evenodd;stroke:#ffc400;stroke-width:1pt"
         transform="matrix(0.2,0,0,0.2,1.48,0.2)"
         inkscape:connector-curvature="0" />
    </marker>
    <marker
       inkscape:stockid="DotSd7"
       orient="auto"
       refY="0"
       refX="0"
       id="DotSd7"
       style="overflow:visible">
      <path
         id="path6145"
         d="m -2.5,-1 c 0,2.76 -2.24,5 -5,5 -2.76,0 -5,-2.24 -5,-5 0,-2.76 2.24,-5 5,-5 2.76,0 5,2.24 5,5 z"
         style="fill:#ffc400;fill-rule:evenodd;stroke:#ffc400;stroke-width:1pt"
         transform="matrix(0.2,0,0,0.2,1.48,0.2)"
         inkscape:connector-curvature="0" />
    </marker>
    <marker
       inkscape:stockid="DotSyIp"
       orient="auto"
       refY="0"
       refX="0"
       id="DotSyIp"
       style="overflow:visible">
      <path
         id="path6148"
         d="m -2.5,-1 c 0,2.76 -2.24,5 -5,5 -2.76,0 -5,-2.24 -5,-5 0,-2.76 2.24,-5 5,-5 2.76,0 5,2.24 5,5 z"
         style="fill:#ffc400;fill-rule:evenodd;stroke:#ffc400;stroke-width:1pt"
         transform="matrix(0.2,0,0,0.2,1.48,0.2)"
         inkscape:connector-curvature="0" />
    </marker>
    <marker
       inkscape:stockid="DotSvS"
       orient="auto"
       refY="0"
       refX="0"
       id="DotSvS"
       style="overflow:visible">
      <path
         id="path6151"
         d="m -2.5,-1 c 0,2.76 -2.24,5 -5,5 -2.76,0 -5,-2.24 -5,-5 0,-2.76 2.24,-5 5,-5 2.76,0 5,2.24 5,5 z"
         style="fill:#ffc400;fill-rule:evenodd;stroke:#ffc400;stroke-width:1pt"
         transform="matrix(0.2,0,0,0.2,1.48,0.2)"
         inkscape:connector-curvature="0" />
    </marker>
    <marker
       inkscape:stockid="DotSsJ"
       orient="auto"
       refY="0"
       refX="0"
       id="DotSsJ"
       style="overflow:visible">
      <path
         id="path6154"
         d="m -2.5,-1 c 0,2.76 -2.24,5 -5,5 -2.76,0 -5,-2.24 -5,-5 0,-2.76 2.24,-5 5,-5 2.76,0 5,2.24 5,5 z"
         style="fill:#ffc400;fill-rule:evenodd;stroke:#ffc400;stroke-width:1pt"
         transform="matrix(0.2,0,0,0.2,1.48,0.2)"
         inkscape:connector-curvature="0" />
    </marker>
    <marker
       inkscape:stockid="DotSfb"
       orient="auto"
       refY="0"
       refX="0"
       id="DotSfb"
       style="overflow:visible">
      <path
         id="path6157"
         d="m -2.5,-1 c 0,2.76 -2.24,5 -5,5 -2.76,0 -5,-2.24 -5,-5 0,-2.76 2.24,-5 5,-5 2.76,0 5,2.24 5,5 z"
         style="fill:#ffc400;fill-rule:evenodd;stroke:#ffc400;stroke-width:1pt"
         transform="matrix(0.2,0,0,0.2,1.48,0.2)"
         inkscape:connector-curvature="0" />
    </marker>
    <marker
       inkscape:stockid="DotS7T"
       orient="auto"
       refY="0"
       refX="0"
       id="DotS7T"
       style="overflow:visible">
      <path
         id="path6160"
         d="m -2.5,-1 c 0,2.76 -2.24,5 -5,5 -2.76,0 -5,-2.24 -5,-5 0,-2.76 2.24,-5 5,-5 2.76,0 5,2.24 5,5 z"
         style="fill:#ffc400;fill-rule:evenodd;stroke:#ffc400;stroke-width:1pt"
         transform="matrix(0.2,0,0,0.2,1.48,0.2)"
         inkscape:connector-curvature="0" />
    </marker>
    <marker
       inkscape:stockid="DotSko"
       orient="auto"
       refY="0"
       refX="0"
       id="DotSko"
       style="overflow:visible">
      <path
         id="path6163"
         d="m -2.5,-1 c 0,2.76 -2.24,5 -5,5 -2.76,0 -5,-2.24 -5,-5 0,-2.76 2.24,-5 5,-5 2.76,0 5,2.24 5,5 z"
         style="fill:#ffc400;fill-rule:evenodd;stroke:#ffc400;stroke-width:1pt"
         transform="matrix(0.2,0,0,0.2,1.48,0.2)"
         inkscape:connector-curvature="0" />
    </marker>
    <marker
       inkscape:stockid="DotSKZ"
       orient="auto"
       refY="0"
       refX="0"
       id="DotSKZ"
       style="overflow:visible">
      <path
         id="path6166"
         d="m -2.5,-1 c 0,2.76 -2.24,5 -5,5 -2.76,0 -5,-2.24 -5,-5 0,-2.76 2.24,-5 5,-5 2.76,0 5,2.24 5,5 z"
         style="fill:#ffc400;fill-rule:evenodd;stroke:#ffc400;stroke-width:1pt"
         transform="matrix(0.2,0,0,0.2,1.48,0.2)"
         inkscape:connector-curvature="0" />
    </marker>
    <marker
       inkscape:stockid="DotSCa"
       orient="auto"
       refY="0"
       refX="0"
       id="DotSCa"
       style="overflow:visible">
      <path
         id="path6169"
         d="m -2.5,-1 c 0,2.76 -2.24,5 -5,5 -2.76,0 -5,-2.24 -5,-5 0,-2.76 2.24,-5 5,-5 2.76,0 5,2.24 5,5 z"
         style="fill:#ffc400;fill-rule:evenodd;stroke:#ffc400;stroke-width:1pt"
         transform="matrix(0.2,0,0,0.2,1.48,0.2)"
         inkscape:connector-curvature="0" />
    </marker>
    <marker
       inkscape:stockid="DotSLi"
       orient="auto"
       refY="0"
       refX="0"
       id="DotSLi"
       style="overflow:visible">
      <path
         id="path6172"
         d="m -2.5,-1 c 0,2.76 -2.24,5 -5,5 -2.76,0 -5,-2.24 -5,-5 0,-2.76 2.24,-5 5,-5 2.76,0 5,2.24 5,5 z"
         style="fill:#ffc400;fill-rule:evenodd;stroke:#ffc400;stroke-width:1pt"
         transform="matrix(0.2,0,0,0.2,1.48,0.2)"
         inkscape:connector-curvature="0" />
    </marker>
    <marker
       inkscape:stockid="marker5218bQ"
       orient="auto"
       refY="0"
       refX="0"
       id="marker5218bQ"
       style="overflow:visible">
      <path
         inkscape:connector-curvature="0"
         id="path6175"
         d="m -2.5,-1 c 0,2.76 -2.24,5 -5,5 -2.76,0 -5,-2.24 -5,-5 0,-2.76 2.24,-5 5,-5 2.76,0 5,2.24 5,5 z"
         style="fill:#ffc400;fill-rule:evenodd;stroke:#ffc400;stroke-width:1pt"
         transform="matrix(0.2,0,0,0.2,1.48,0.2)" />
    </marker>
    <marker
       inkscape:stockid="marker5218XM"
       orient="auto"
       refY="0"
       refX="0"
       id="marker5218XM"
       style="overflow:visible">
      <path
         inkscape:connector-curvature="0"
         id="path6178"
         d="m -2.5,-1 c 0,2.76 -2.24,5 -5,5 -2.76,0 -5,-2.24 -5,-5 0,-2.76 2.24,-5 5,-5 2.76,0 5,2.24 5,5 z"
         style="fill:#ffc400;fill-rule:evenodd;stroke:#ffc400;stroke-width:1pt"
         transform="matrix(0.2,0,0,0.2,1.48,0.2)" />
    </marker>
    <marker
       inkscape:stockid="DotSGn"
       orient="auto"
       refY="0"
       refX="0"
       id="DotSGn"
       style="overflow:visible">
      <path
         id="path6181"
         d="m -2.5,-1 c 0,2.76 -2.24,5 -5,5 -2.76,0 -5,-2.24 -5,-5 0,-2.76 2.24,-5 5,-5 2.76,0 5,2.24 5,5 z"
         style="fill:#ffc400;fill-rule:evenodd;stroke:#ffc400;stroke-width:1pt"
         transform="matrix(0.2,0,0,0.2,1.48,0.2)"
         inkscape:connector-curvature="0" />
    </marker>
    <marker
       inkscape:stockid="DotS5R"
       orient="auto"
       refY="0"
       refX="0"
       id="DotS5R"
       style="overflow:visible">
      <path
         id="path6184"
         d="m -2.5,-1 c 0,2.76 -2.24,5 -5,5 -2.76,0 -5,-2.24 -5,-5 0,-2.76 2.24,-5 5,-5 2.76,0 5,2.24 5,5 z"
         style="fill:#ffc400;fill-rule:evenodd;stroke:#ffc400;stroke-width:1pt"
         transform="matrix(0.2,0,0,0.2,1.48,0.2)"
         inkscape:connector-curvature="0" />
    </marker>
    <marker
       inkscape:stockid="DotSd7"
       orient="auto"
       refY="0"
       refX="0"
       id="DotSd7-9"
       style="overflow:visible">
      <path
         inkscape:connector-curvature="0"
         id="path6145-2"
         d="m -2.5,-1 c 0,2.76 -2.24,5 -5,5 -2.76,0 -5,-2.24 -5,-5 0,-2.76 2.24,-5 5,-5 2.76,0 5,2.24 5,5 z"
         style="fill:#ffc400;fill-rule:evenodd;stroke:#ffc400;stroke-width:1pt"
         transform="matrix(0.2,0,0,0.2,1.48,0.2)" />
    </marker>
    <marker
       inkscape:stockid="DotSyIp"
       orient="auto"
       refY="0"
       refX="0"
       id="DotSyIp-9"
       style="overflow:visible">
      <path
         inkscape:connector-curvature="0"
         id="path6148-2"
         d="m -2.5,-1 c 0,2.76 -2.24,5 -5,5 -2.76,0 -5,-2.24 -5,-5 0,-2.76 2.24,-5 5,-5 2.76,0 5,2.24 5,5 z"
         style="fill:#ffc400;fill-rule:evenodd;stroke:#ffc400;stroke-width:1pt"
         transform="matrix(0.2,0,0,0.2,1.48,0.2)" />
    </marker>
    <marker
       inkscape:stockid="DotSGn"
       orient="auto"
       refY="0"
       refX="0"
       id="DotSGn-0"
       style="overflow:visible">
      <path
         inkscape:connector-curvature="0"
         id="path6181-6"
         d="m -2.5,-1 c 0,2.76 -2.24,5 -5,5 -2.76,0 -5,-2.24 -5,-5 0,-2.76 2.24,-5 5,-5 2.76,0 5,2.24 5,5 z"
         style="fill:#ffc400;fill-rule:evenodd;stroke:#ffc400;stroke-width:1pt"
         transform="matrix(0.2,0,0,0.2,1.48,0.2)" />
    </marker>
    <marker
       inkscape:stockid="DotS5R"
       orient="auto"
       refY="0"
       refX="0"
       id="DotS5R-3"
       style="overflow:visible">
      <path
         inkscape:connector-curvature="0"
         id="path6184-9"
         d="m -2.5,-1 c 0,2.76 -2.24,5 -5,5 -2.76,0 -5,-2.24 -5,-5 0,-2.76 2.24,-5 5,-5 2.76,0 5,2.24 5,5 z"
         style="fill:#ffc400;fill-rule:evenodd;stroke:#ffc400;stroke-width:1pt"
         transform="matrix(0.2,0,0,0.2,1.48,0.2)" />
    </marker>
    <marker
       inkscape:stockid="marker5218bQ"
       orient="auto"
       refY="0"
       refX="0"
       id="marker5218bQ-7"
       style="overflow:visible">
      <path
         inkscape:connector-curvature="0"
         id="path6175-9"
         d="m -2.5,-1 c 0,2.76 -2.24,5 -5,5 -2.76,0 -5,-2.24 -5,-5 0,-2.76 2.24,-5 5,-5 2.76,0 5,2.24 5,5 z"
         style="fill:#ffc400;fill-rule:evenodd;stroke:#ffc400;stroke-width:1pt"
         transform="matrix(0.2,0,0,0.2,1.48,0.2)" />
    </marker>
    <marker
       inkscape:stockid="marker5218XM"
       orient="auto"
       refY="0"
       refX="0"
       id="marker5218XM-8"
       style="overflow:visible">
      <path
         inkscape:connector-curvature="0"
         id="path6178-2"
         d="m -2.5,-1 c 0,2.76 -2.24,5 -5,5 -2.76,0 -5,-2.24 -5,-5 0,-2.76 2.24,-5 5,-5 2.76,0 5,2.24 5,5 z"
         style="fill:#ffc400;fill-rule:evenodd;stroke:#ffc400;stroke-width:1pt"
         transform="matrix(0.2,0,0,0.2,1.48,0.2)" />
    </marker>
    <marker
       inkscape:stockid="marker5218bQ"
       orient="auto"
       refY="0"
       refX="0"
       id="marker5218bQ-9"
       style="overflow:visible">
      <path
         inkscape:connector-curvature="0"
         id="path6175-95"
         d="m -2.5,-1 c 0,2.76 -2.24,5 -5,5 -2.76,0 -5,-2.24 -5,-5 0,-2.76 2.24,-5 5,-5 2.76,0 5,2.24 5,5 z"
         style="fill:#ffc400;fill-rule:evenodd;stroke:#ffc400;stroke-width:1pt"
         transform="matrix(0.2,0,0,0.2,1.48,0.2)" />
    </marker>
    <marker
       inkscape:stockid="marker5218XM"
       orient="auto"
       refY="0"
       refX="0"
       id="marker5218XM-4"
       style="overflow:visible">
      <path
         inkscape:connector-curvature="0"
         id="path6178-29"
         d="m -2.5,-1 c 0,2.76 -2.24,5 -5,5 -2.76,0 -5,-2.24 -5,-5 0,-2.76 2.24,-5 5,-5 2.76,0 5,2.24 5,5 z"
         style="fill:#ffc400;fill-rule:evenodd;stroke:#ffc400;stroke-width:1pt"
         transform="matrix(0.2,0,0,0.2,1.48,0.2)" />
    </marker>
    <marker
       inkscape:stockid="DotSGn"
       orient="auto"
       refY="0"
       refX="0"
       id="DotSGn-08"
       style="overflow:visible">
      <path
         inkscape:connector-curvature="0"
         id="path6181-5"
         d="m -2.5,-1 c 0,2.76 -2.24,5 -5,5 -2.76,0 -5,-2.24 -5,-5 0,-2.76 2.24,-5 5,-5 2.76,0 5,2.24 5,5 z"
         style="fill:#ffc400;fill-rule:evenodd;stroke:#ffc400;stroke-width:1pt"
         transform="matrix(0.2,0,0,0.2,1.48,0.2)" />
    </marker>
    <marker
       inkscape:stockid="DotS5R"
       orient="auto"
       refY="0"
       refX="0"
       id="DotS5R-8"
       style="overflow:visible">
      <path
         inkscape:connector-curvature="0"
         id="path6184-1"
         d="m -2.5,-1 c 0,2.76 -2.24,5 -5,5 -2.76,0 -5,-2.24 -5,-5 0,-2.76 2.24,-5 5,-5 2.76,0 5,2.24 5,5 z"
         style="fill:#ffc400;fill-rule:evenodd;stroke:#ffc400;stroke-width:1pt"
         transform="matrix(0.2,0,0,0.2,1.48,0.2)" />
    </marker>
    <marker
       inkscape:stockid="marker4516Ct"
       orient="auto"
       refY="0"
       refX="0"
       id="marker4516Ct-0"
       style="overflow:visible">
      <path
         inkscape:connector-curvature="0"
         id="path6127-3"
         d="m -2.5,-1 c 0,2.76 -2.24,5 -5,5 -2.76,0 -5,-2.24 -5,-5 0,-2.76 2.24,-5 5,-5 2.76,0 5,2.24 5,5 z"
         style="fill:#ffc400;fill-rule:evenodd;stroke:#ffc400;stroke-width:1pt"
         transform="matrix(0.2,0,0,0.2,1.48,0.2)" />
    </marker>
    <marker
       inkscape:stockid="marker451623"
       orient="auto"
       refY="0"
       refX="0"
       id="marker451623-8"
       style="overflow:visible">
      <path
         inkscape:connector-curvature="0"
         id="path6130-8"
         d="m -2.5,-1 c 0,2.76 -2.24,5 -5,5 -2.76,0 -5,-2.24 -5,-5 0,-2.76 2.24,-5 5,-5 2.76,0 5,2.24 5,5 z"
         style="fill:#ffc400;fill-rule:evenodd;stroke:#ffc400;stroke-width:1pt"
         transform="matrix(0.2,0,0,0.2,1.48,0.2)" />
    </marker>
    <marker
       inkscape:stockid="marker5218bQ"
       orient="auto"
       refY="0"
       refX="0"
       id="marker5218bQ-0"
       style="overflow:visible">
      <path
         inkscape:connector-curvature="0"
         id="path6175-8"
         d="m -2.5,-1 c 0,2.76 -2.24,5 -5,5 -2.76,0 -5,-2.24 -5,-5 0,-2.76 2.24,-5 5,-5 2.76,0 5,2.24 5,5 z"
         style="fill:#ffc400;fill-rule:evenodd;stroke:#ffc400;stroke-width:1pt"
         transform="matrix(0.2,0,0,0.2,1.48,0.2)" />
    </marker>
    <marker
       inkscape:stockid="marker5218XM"
       orient="auto"
       refY="0"
       refX="0"
       id="marker5218XM-86"
       style="overflow:visible">
      <path
         inkscape:connector-curvature="0"
         id="path6178-7"
         d="m -2.5,-1 c 0,2.76 -2.24,5 -5,5 -2.76,0 -5,-2.24 -5,-5 0,-2.76 2.24,-5 5,-5 2.76,0 5,2.24 5,5 z"
         style="fill:#ffc400;fill-rule:evenodd;stroke:#ffc400;stroke-width:1pt"
         transform="matrix(0.2,0,0,0.2,1.48,0.2)" />
    </marker>
    <path
       transform="matrix(0.8755829,0,0,0.8755829,152.4506,-680.83707)"
       id="path6572"
       style="fill:none;stroke:none"
       cx="675.71429"
       cy="777.58148"
       r="584.28571" />
    <path
       transform="matrix(-1.1162727,-0.04357729,-0.04357729,1.1162727,1532.2608,-838.54723)"
       id="path6572-9"
       style="fill:none;stroke:none"
       cx="675.71429"
       cy="777.58148"
       r="584.28571" />
  </defs>
  <metadata
     id="metadata7">
    <rdf:RDF>
      <cc:Work
         rdf:about="">
        <dc:format>image/svg+xml</dc:format>
        <dc:type
           rdf:resource="http://purl.org/dc/dcmitype/StillImage" />
        <dc:title />
      </cc:Work>
    </rdf:RDF>
  </metadata>
  <g
     inkscape:label="Ebene 1"
     inkscape:groupmode="layer"
     id="layer1"
     transform="translate(0,-783.07098)">
    <path
       id="path2035"
       style="fill:#004400;fill-opacity:1;stroke:none;stroke-width:1.002;stroke-linecap:round;stroke-linejoin:round;stroke-miterlimit:4;stroke-dasharray:none;stroke-opacity:1"
       d="m 106.21331,859.19512 c 0,0 -0.24839,15.7386 -0.91992,17.76368 -0.67154,2.02507 -0.9565,4.55485 -5.16602,7.5625 -1.191026,0.85098 -4.183586,1.65429 -4.183586,1.65429 0,0 -10.718453,-0.54755 -12.750002,-0.59765 -2.03156,-0.0501 -6.384505,-1.12934 -9.365235,-1.75 -2.980728,-0.62066 -6.346487,1.81223 -9.597656,4.20508 -3.251169,2.39284 -3.864358,3.66976 -2.529297,2.7246 1.335061,-0.94515 5.725776,-2.51846 7.875,-4.26953 2.149224,-1.75108 4.025923,-0.0483 8.220703,1.04688 4.194767,1.09521 14.408107,1.09704 15.775387,1.19726 1.36728,0.10022 -7.470025,4.86508 -9.136715,6.13086 -1.66669,1.26579 -5.446488,1.70702 -6.976563,2.70508 -1.530081,0.99807 -7.932483,3.57688 -10.673828,5.58985 -2.530952,1.93114 -5.373047,8.26367 -5.373046,8.26367 0,0 7.583607,-7.56326 8.802734,-8.50977 1.219126,-0.94651 8.443087,-2.96091 10.304687,-4.05469 1.85736,-1.09129 3.875868,-1.24962 7.765625,-2.73632 3.218676,-1.28362 8.166016,-1.66016 8.166016,-1.66016 0,0 -5.93736,3.83269 -18.572266,11.61914 -1.580035,0.78108 -11.409348,2.16277 -12.671875,2.94922 -1.056791,0.68232 -5.667975,3.73023 -8.724609,9.24219 -3.056634,5.51196 -2.898158,7.6831 -3.986328,9.15234 -1.088171,1.46923 -4.011719,3.86133 -4.011719,3.86133 l -14.945312,11.67578 c 0,0 -1.269495,2.39004 -0.667969,2.04492 0.601526,-0.34511 16.058594,-11.60937 16.058594,-11.60937 0,0 -4.189352,5.89973 -5.884766,7.8457 -1.695413,1.94596 -7.958984,6.27344 -7.958984,6.27344 l 4.816406,6.0664 c 0,0 2.027879,-5.56468 2.552734,-6.64648 0.524855,-1.08181 3.098621,-3.1382 4.863282,-3.96484 1.76466,-0.82663 7.589238,-8.11684 8.52539,-10.04493 0.936152,-1.92808 3.299943,-8.53723 5.298828,-12.79101 1.998884,-4.25378 5.761719,-4.4707 5.761719,-4.4707 0,0 -3.8061,9.08557 -4.056641,14.125 -0.250542,5.03944 0.557337,9.46066 0.4375,10.18164 -0.119838,0.72098 -0.844069,2.3678 -2.123046,4.98242 -1.278977,2.61461 -7.150879,8.78018 -9.806641,15.09179 -2.655763,6.3116 -1.048828,13.27344 -1.048828,13.27344 0,0 2.255846,-6.49714 3.164062,-11.65429 0.908216,-5.15716 2.3925,-2.76508 4.236328,-5.45899 1.843828,-2.69391 5.503907,-7.7168 5.503907,-7.7168 0,0 -3.244355,10.13353 -4.841797,14.31055 -1.597441,4.17701 -4.75,9.05469 -4.75,9.05469 l 4.121093,3.81836 1.957032,-4.99414 0.943359,6.97461 2.6875,1.35351 c 0,0 -1.391263,-12.19493 -0.660156,-14.16211 0.731107,-1.96717 2.672096,-6.47158 5.101562,-11.66015 2.429466,-5.18856 1.03125,-8.35157 1.03125,-8.35157 0,0 7.811673,8.84934 9.552735,11.1875 9.89e-4,10e-4 0.0029,0.003 0.0039,0.004 -2.904185,3.35964 -6.869141,7.77539 -6.869141,7.77539 0,0 3.859479,-3.28283 7.56836,-6.68555 1.492157,2.5864 2.94161,6.76712 4.365234,9.96289 1.64617,3.69534 1.457031,15.34766 1.457031,15.34766 l 1.101563,-11.52734 c 0,0 -1.619849,-9.87138 -3.917969,-12.72071 -0.528656,-0.65545 -1.104161,-1.44333 -1.693359,-2.28125 2.78513,-2.60989 5.204673,-5.07036 5.382812,-5.91992 0.436927,-2.0837 2.435458,-7.40578 3.738275,-10.86328 1.30283,-3.45751 4.14025,-3.97001 6.29492,-8.42969 2.15467,-4.45968 6.069296,-11.87539 6.720706,-15.83398 0.65141,-3.95858 3.29883,-13.53516 3.29883,-13.53516 l 5.37304,-2.92969 c 0,0 -1.30146,17.93891 -1.35156,20.0918 -0.0501,2.15289 -5.69681,13.65235 -6.69141,15.84766 -0.99459,2.19531 -6.189206,6.87909 -9.212886,9.77539 -3.02367,2.89629 -3.78279,10.80179 -4.33398,14.46875 -0.55119,3.66696 0.30469,10.23828 0.30469,10.23828 0,0 1.69857,-12.43231 2.0332,-14.14844 0.33463,-1.71613 2.38419,-6.20033 4.83008,-7.63867 2.44589,-1.43834 8.419916,-11.18359 8.419916,-11.18359 0,0 -4.05711,10.3861 -5.207026,13.63672 -1.14992,3.25062 -4.39005,9.9311 -5.14063,15.53906 -0.75058,5.60795 -1.30135,9.24012 -1.5957,10.0918 -0.29434,0.85167 -8.537105,14.29296 -8.537105,14.29296 l 2.470703,0.88086 5.617182,-7.11328 c 0,0 -1.1537,7.69586 -1.00586,8.75586 0.14785,1.06 8.09766,1.69727 8.09766,1.69727 l 0.10156,-5.4668 c 0,0 7.065116,6.45742 6.099606,5.57813 -0.96551,-0.8793 -4.01195,-9.39627 -4.70117,-10.78516 -0.68922,-1.38889 0.10174,-2.33848 0.55273,-6.74805 0.45098,-4.40957 1.93557,-7.32611 3.27539,-14.82226 1.33981,-7.49615 8.2168,-15.56836 8.2168,-15.56836 0,0 1.89327,1.73902 3.97852,3.9082 -2.67817,2.59884 -6.3047,6.14222 -3.91993,4.51172 1.0366,-0.70873 2.69854,-2.20265 4.5293,-3.88477 0.89319,0.95279 1.78637,1.94991 2.57422,2.94141 2.83636,3.56953 5.52691,6.02945 5.92969,6.89062 0.40278,0.86117 3.4499,6.7696 3.69922,8.45704 0.24933,1.68744 -1.20508,3.30859 -1.20508,3.30859 0,0 -3.29013,6.80051 -4.58399,8.54492 -1.29386,1.74441 -1.09436,7.08639 -0.99414,9.66211 0.10021,2.5756 1.75586,2.7793 1.75586,2.7793 0,0 -0.50194,-4.35085 -0.25586,-6.08985 0.24607,-1.73895 1.43255,-5.50211 2.42578,-7.02929 0.99322,-1.52718 3.2461,-7.06446 3.2461,-7.06446 0,0 0.47882,3.16434 0.57812,4.26758 0.0993,1.10324 -1.39843,5.93023 -1.39843,9.23438 0,3.30419 1.21875,6.01953 1.21874,6.01953 l 0.84766,0.92187 c 0,0 -0.53711,-3.62345 -0.53711,-5.8457 0,-2.22227 1.21875,-6.83533 1.21875,-7.76953 0,-0.9342 1.2987,-7.76432 0.99805,-9.26758 -0.30065,-1.50326 -2.75195,-7.66406 -2.75195,-7.66406 0,0 3.2567,4.31329 8.35742,7.36328 5.10067,3.04999 3.95397,5.0502 5.15234,8.24023 1.19838,3.19003 -0.35615,4.35778 -0.40625,7.47266 -0.0501,3.11485 0.32031,2.10742 0.32031,2.10742 l 4.60938,2.9043 2.78125,-6.74024 c 0,0 -2.36134,-10.56816 -2.85742,-12.71093 -0.49607,-2.14277 -3.45523,-4.06915 -4.55274,-5.65821 -1.09751,-1.58905 -7.99255,-7.15298 -11.78125,-10.08984 -3.3013,-2.55904 -4.48745,-4.95917 -8.61523,-10.47266 1.09105,-0.97836 2.16915,-1.92194 3.17383,-2.74218 0,0 5.95429,-8.45783 6.50195,-9.78321 0,0 2.09228,2.9583 2.5,7.6836 0.41081,4.76118 -1.95313,8.36523 -1.95313,8.36523 2.56874,-1.15152 5.07138,-9.14626 2.91993,-16.56445 -1.61732,-4.55859 -1.26504,-7.63114 -1.49414,-9.40235 -1.44407,-9.09376 -1.64392,-13.15022 -2.27149,-18.9375 l 7.69141,10.20508 c 2.22982,2.63353 -1.526,10.26769 -1.42578,13.625 0.10022,3.35732 1.38814,4.95417 2.50976,6.10547 1.12163,1.1513 -0.42001,4.96745 -2.27734,10.02344 -1.85732,5.05599 1.77734,7.95117 1.77734,7.95117 l 3.96485,5.6543 c 0,0 -1.80285,-6.2016 -3.55664,-8.70703 -1.75381,-2.50544 0.0109,-5.03574 0.36523,-6.1543 0.35426,-1.11857 1.50391,-7.86914 1.50391,-7.86914 0,0 0.7793,0.78468 2.01562,2.81445 1.23633,2.02977 4.81995,6.8092 5.46484,8.01758 0.6449,1.20839 3.3809,8.35112 4.98438,10.35547 1.60348,2.00435 3.51964,4.46183 5.68555,5.54883 0.55142,0.27674 1.1314,0.55616 1.71289,0.84375 0.50642,3.11862 1.81642,7.3024 2.56836,9.64453 0.99194,3.08967 6.04882,8.01758 6.04882,8.01758 l 1.84961,-0.0254 c 0,0 -5.57226,-8.83375 -5.57226,-9.8379 0,-0.6286 -0.83661,-3.40077 -1.53711,-5.875 0.40001,0.29139 0.76594,0.59284 1.0625,0.91211 1.35236,1.45597 12.32639,9.82129 12.32639,9.82129 0,0 -8.95724,-9.00811 -11.10569,-11.10644 -0.9317,-0.90997 -1.91153,-1.52531 -2.9375,-2.05078 -0.11099,-0.4592 -0.2006,-0.86907 -0.23828,-1.15039 -0.25055,-1.87058 0.95117,-8.33345 0.95117,-9.77539 0,-1.44194 0.62366,-6.68101 0.52344,-8.63477 -0.10022,-1.95376 -3.42773,-6.8418 -3.42773,-6.8418 0,0 5.65473,4.0288 8.31054,6.03321 2.65582,2.00442 7.31972,5.16467 9.94922,6.89648 3.4155,2.24948 9.61768,12.60045 9.62695,12.5 l 0.64844,-7.00976 c 0.10401,-1.12752 -7.95907,-12.07452 -12.67578,-14.08399 -3.59914,-2.39654 -10.5187,-7.10719 -13.16406,-9.65234 -2.64535,-2.54516 -11.47461,-10.87305 -11.47461,-10.87305 0,0 5.27925,0.15039 8.01367,0.15039 2.73442,0 10.01542,3.99286 11.26172,4.39258 1.24631,0.39971 10.35224,5.79495 13.11719,6.99414 0.25873,0.11221 0.60529,0.24705 0.94922,0.38086 3.59396,5.92571 8.44726,15.4707 8.44726,15.4707 l 0.49219,-0.7207 c 0,0 -3.28336,-8.16438 -6.13672,-13.75586 3.68221,1.24042 8.82958,2.73607 13.22266,3.5625 6.25735,1.17713 3.27539,-1.16797 3.27539,-1.16797 0.007,0.004 -12.26882,-3.78729 -15.69727,-4.75391 -0.49012,-0.13818 -1.48313,-0.52366 -2.66797,-1.00781 -0.46176,-0.71522 -0.88216,-1.25895 -1.22656,-1.53711 -2.59526,-2.09606 -10.0462,-9.61394 -10.97656,-10.75586 -0.93036,-1.14192 -5.87102,-9.25566 -10.23047,-11.86133 -4.35946,-2.60565 -9.52764,-2.46562 -13.08789,-4.74414 -3.56024,-2.27853 -9.16797,-6.37695 -9.16797,-6.37695 0,0 15.87774,0.4898 18.29101,0.33008 2.41328,-0.15972 9.40235,4.03711 9.40235,4.03711 l 9.59765,6.74414 c 0,0 -6.7752,-7.57836 -8.83593,-8.76563 -2.06072,-1.18726 -6.47087,-3.71582 -8.53516,-4.31054 -2.06429,-0.59471 -17.11732,-1.53748 -19.57812,-1.71094 -2.46081,-0.17346 -12.83203,-5.15625 -12.83203,-5.15625 0,0 -2.44595,-3.49794 -3.44727,-6.42969 -1.00132,-2.93176 -1.11523,-18.80469 -1.11523,-18.80469 z m 32.25391,35.15626 c 1.39242,0 1e-4,2.7e-4 3.9746,1.1875 6.46933,1.93245 7.40869,7.57465 12.21485,9.82812 4.80615,2.25347 9.01761,2.40997 13.67773,5.01562 4.66013,2.60565 5.77926,6.38176 7.23242,8.48633 1.45316,2.10457 7.50444,6.11524 9.79493,7.50977 0.1773,0.10795 0.41069,0.34887 0.66601,0.64648 -2.46843,-1.08481 -4.9495,-2.23463 -6.03711,-2.83789 -2.2554,-1.251 -6.10165,-4.51427 -8.92383,-5.44726 -2.82217,-0.93299 -9.37548,-3.59948 -14.00586,-2.60743 -4.63036,0.99204 -3.87695,0.4375 -3.87695,0.4375 l -10.03125,-16.32226 c 0,0 -6.07796,-5.89648 -4.68554,-5.89648 z m -12.5293,4.92773 c 0.60927,-0.0824 1.47459,0.82202 1.75976,6.23242 0.45627,8.65664 3.686,16.84217 2.52735,20.57422 -2.09242,6.73976 -0.27165,8.62158 -7.43946,17.66406 -0.34335,-0.44831 -0.65441,-0.86419 -1.03711,-1.35156 -5.86272,-7.46621 -3.86914,-5.84375 -3.86914,-5.84375 0,0 2.34737,-7.59744 3.19922,-11.65625 1.33217,-7.14085 4.22071,-25.16602 4.22071,-25.16602 0,0 0.2731,-0.40369 0.63867,-0.45312 z m -24.41016,3.64648 -3.587886,14.75586 c 0,0 -8.77922,7.19009 -11.115233,8.18946 -2.336007,0.99936 -6.03982,4.30293 -6.84375,5.35547 -0.80394,1.05253 -5.214844,13.74609 -5.214844,13.74609 0,0 3.032842,-5.93111 3.916016,-8.68555 0.88318,-2.75443 5.261484,-5.82447 7.464843,-6.84765 2.203368,-1.02319 9.822268,-6.11524 9.822268,-6.11524 0,0 -0.84116,2.40228 -2.80469,5.02344 -1.96353,2.62115 -6.060863,8.01805 -6.408202,10.90039 -0.347351,2.88234 -4.516812,11.75837 -5.513672,13.28906 -0.22595,0.34695 -0.881823,1.14608 -1.712891,2.12696 -1.71991,-2.53414 -3.462678,-5.30787 -4.554687,-6.89844 -1.650789,-2.40447 -5.235213,-7.2631 -6.353516,-9 -1.118303,-1.7369 0.311284,-8.40119 0.511719,-11.88672 0.200436,-3.48553 4.431401,-8.42575 6.376953,-10.82227 1.945551,-2.39653 10.890197,-5.68679 13.312496,-6.48047 2.4223,-0.79368 12.705076,-6.65039 12.705076,-6.65039 z m 42.58789,14.90625 c 0,0 2.49409,3.26806 4.13867,4.66211 1.64459,1.39406 1.99143,4.04801 4.78321,6.63282 2.79178,2.58481 6.50218,4.80983 8.2539,6.86523 1.75172,2.0554 2.28544,6.73953 3.48243,10.48047 1.19699,3.74095 -1.19865,10.22008 -1.39649,13.04101 -0.0149,0.21192 0.005,0.47819 0.0137,0.72657 -0.45995,-0.20861 -0.91775,-0.41053 -1.39648,-0.65821 -2.68654,-1.3899 -2.34317,-2.74898 -3.0332,-4.47656 -0.69003,-1.72759 -3.30704,-8.02635 -4.78125,-9.40039 -1.47422,-1.37403 -3.54062,-4.7108 -5.22461,-7.01953 -1.68398,-2.30873 -3.14457,-4.48344 -4.45704,-5.76953 -1.31246,-1.28609 -2.04426,-3.94186 -2.39257,-6.18164 -0.41907,-2.69479 2.00976,-8.90235 2.00976,-8.90235 z m 65.88517,68.21833 c 3.11487,4.23595 4.23595,5.64475 4.708,10.71635 0.47204,5.07158 0.53069,8.40208 0.53069,8.40208 0,0 0.33513,1.4053 -1.10922,-3.6272 -1.44435,-5.03238 -0.59294,-5.17218 -2.5238,-9.10988 -1.93087,-3.9378 -4.03624,-6.90696 -4.03624,-6.90696 z m -19.4989,12.84485 c 2.75086,6.21438 4.09773,6.95148 4.39194,14.02948 0.2942,7.0781 -1.97138,18.4531 -1.97138,18.4531 0,0 0.18408,-8.5463 0.24309,-11.85 0.059,-3.3036 -3.63698,-12.7188 -5.04122,-14.2882 -1.40425,-1.5693 1.95198,-7.29878 1.95198,-7.29878 z m -44.47882,51.50438 c -1.88816,3.3633 -8.05155,16.9117 -8.05155,16.9117 0,0 2.09463,-9.2883 3.20513,-10.8407 1.11049,-1.5525 0.71805,-2.6968 2.01614,-6.7681 1.29809,-4.0714 1.28808,-6.3741 1.17007,-9.5481 -0.11801,-3.174 -0.41302,-9.7418 -2.62383,-16.3264 l 3.03685,-7.7077 1.69148,8.0707 c 0,0 0.47046,9.5895 0.7628,11.6679 -0.16577,0.9324 0.24542,11.2372 1.8671,15.6007 2.098,5.6452 -2.29283,8.4212 -2.29283,8.4212 0,0 1.80423,-2.2857 1.22455,-5.9457 -0.19197,-1.2121 -1.92808,-4.2046 -2.00591,-3.5355 z m -16.1237,-28.903 c 1.88814,9.1559 4.62596,18.5056 4.62596,18.5056 0,0 -2.51979,-12.6384 -2.10847,-17.6944 0.41133,-5.056 -2.51749,-0.8112 -2.51749,-0.8112 z m -29.31407,-4.7158 c 0.85964,8.3887 0.0537,12.6152 -0.948946,16.2122 -1.00269,3.597 -2.93861,11.4214 -3.40507,13.5069 -0.46647,2.0855 -0.60686,9.662 0.80925,12.3762 1.4161,2.7142 4.247746,8.2323 4.247746,8.2323 0,0 -3.398486,-6.6476 -3.516506,-12.2526 -0.11801,-5.6049 -0.37575,-10.7203 2.06823,-14.2427 2.443976,-3.5223 3.375376,-10.9319 3.375376,-10.9319 0,0 3.84747,1.1282 4.20149,11.3921 0.91212,4.5524 1.10688,4.4122 3.26841,11.0149 0,0 -0.28904,0.7173 2.58317,6.0952 1.39079,2.6041 2.91822,4.6237 3.05018,7.3804 0.24162,5.0475 0.52785,9.2517 0.52785,9.2517 0,0 1.5226,-4.6054 0.89401,-10.7289 -0.62858,-6.1235 -0.95532,-2.7586 -3.59993,-8.5894 -2.64461,-5.8309 -2.18441,-6.5473 -2.64461,-7.6789 -0.4602,-1.1316 0.25009,-1.6418 -1.87308,-11.7008 -2.12317,-10.0591 -4.21779,-22.3942 -4.21779,-22.3942 z m -15.977498,4.5125 c -2.655211,11.5632 -4.772507,12.9619 -5.893602,16.6792 -1.121094,3.7173 -2.363053,8.4787 -0.415905,11.3699 1.947148,2.8912 1.972337,13.9794 1.972337,13.9794 0,0 1.103485,-7.4124 1.336425,-11.8284 0.232939,-4.4161 -1.880212,-6.6301 -1.766536,-8.8935 0.113676,-2.2633 5.432483,-10.8823 7.133726,-14.1176 1.701247,-3.2354 2.174477,-11.2245 2.174477,-11.2245 l -2.799522,-0.6793 z m -9.239839,-5.1853 c -1.613487,5.4776 -1.286684,6.9856 -3.292839,10.1719 -2.006154,3.1862 -7.400108,4.7985 -7.400108,4.7985 0,0 5.808335,-1.5681 7.794065,-6.8364 1.985731,-5.2683 2.041313,-12.0851 2.041313,-12.0851 z M 45.056747,988.23051 c -5.656751,8.30971 -7.046791,10.40691 -7.733535,12.28329 -0.686743,1.8764 -1.285549,22.7312 -1.285549,22.7312 -0.01091,0 1.451646,-10.9061 1.787673,-18.0525 0.449299,-9.55548 7.208002,-9.17958 8.263258,-10.46798 1.055256,-1.2885 -1.330137,2.2228 -2.097195,6.93698 -0.767058,4.7143 0.166994,10.6049 0.934052,15.0892 0.767058,4.4844 2.994332,12.1132 2.994332,12.1132 0,0 -1.063902,-6.9084 -0.827883,-17.2932 0.23602,-10.3848 3.81421,-21.77468 3.81421,-21.77468 z M 18.737534,963.44889 c -5.191306,6.01846 -5.545709,4.88478 -7.246353,10.94217 -1.700644,6.05739 -4.505018,19.73336 -3.652759,17.02146 0.85226,-2.712 4.812145,-14.60541 9.227615,-19.55192 4.415471,-4.9465 7.13441,-7.18499 7.13441,-7.18499 z" />
    <path
       style="fill:#00fb00;fill-opacity:1;stroke:none;stroke-width:1px;stroke-linecap:butt;stroke-linejoin:miter;stroke-opacity:1"
       d="m 168.76641,855.60464 c 1.8993,4.18835 2.73316,7.64032 3.61842,8.72457 0.88526,1.08426 6.95666,3.28746 7.86338,3.08499 0.90673,-0.20244 4.26287,0.10439 4.26287,0.10439 0,0 0,0 -0.12747,-2.92188 -0.24665,-5.65344 -4.90464,-7.27775 -6.53814,-7.96253 -2.56664,-0.65124 -6.28518,-0.97494 -9.07906,-1.02954 z"
       id="path2043-3"
       sodipodi:nodetypes="csscscc" />
    <path
       style="fill:#00fb00;fill-opacity:1;stroke:none;stroke-width:1px;stroke-linecap:butt;stroke-linejoin:miter;stroke-opacity:1"
       d="m 144.21426,851.26178 c -0.0435,-2.27519 -2.60465,-5.88555 -4.70045,-7.4517 -1.92448,-1.43813 -7.31078,-1.86504 -10.00349,-0.44058 l 1.17301,1.4227 c 1.63142,1.97867 1.65019,3.92377 2.69826,5.16222 1.04808,1.23845 5.17048,2.50932 6.49149,2.20265 1.32101,-0.30668 4.34118,-0.89529 4.34118,-0.89529 z"
       id="path2039"
       sodipodi:nodetypes="cscsssc" />
    <path
       style="fill:#00fb00;fill-opacity:1;stroke:none;stroke-width:1px;stroke-linecap:butt;stroke-linejoin:miter;stroke-opacity:1"
       d="m 145.61682,859.74849 c 2.62545,3.7758 4.06985,7.02004 5.1366,7.92631 1.06676,0.90628 7.43649,1.97513 8.29165,1.61202 0.85516,-0.36309 4.21145,-0.66828 4.21145,-0.66828 0,0 0,0 -0.65379,-2.85065 -1.26502,-5.51561 -6.13996,-6.27073 -7.87037,-6.6488 -2.64209,-0.17632 -6.35786,0.17783 -9.11554,0.6294 z"
       id="path2043"
       sodipodi:nodetypes="csscscc" />
    <path
       style="fill:#00fb00;fill-opacity:1;stroke:none;stroke-width:1px;stroke-linecap:butt;stroke-linejoin:miter;stroke-opacity:1"
       d="m 153.43026,845.00051 c -3.17406,-0.41205 -7.33331,0.70268 -9.06569,-0.45572 -1.73239,-1.15839 -4.80748,-5.59816 -4.80748,-6.17493 0,-0.57677 -1.71338,-3.05529 -1.71338,-3.05529 0,0 2.29506,-1.28848 5.22435,-1.06752 2.92459,0.2206 4.65516,1.72531 6.17866,2.79643 1.1896,1.09246 3.67631,5.2489 5.02833,7.49963 z"
       id="path2041"
       sodipodi:nodetypes="csscsccc" />
    <path
       style="fill:#004400;fill-opacity:1;stroke:none;stroke-width:1.00157;stroke-linecap:butt;stroke-linejoin:round;stroke-miterlimit:4;stroke-dasharray:none;stroke-opacity:1"
       d="m 124.15593,868.29079 c 2.11684,0.39329 11.6917,-3.8446 13.81932,-6.36686 2.12762,-2.52225 4.56445,-4.05572 4.60906,-8.05139 0.0446,-3.99568 -1.94714,-5.90634 -1.94714,-5.90634 0,0 2.65712,1.55831 3.09376,4.84745 0.43665,3.28915 -0.0136,5.33083 -0.0136,5.33083 1.05164,-0.70911 3.45218,-3.33204 4.02718,-4.22944 1.46453,-2.28569 5.65768,-5.2757 6.09195,-8.67528 0.18488,-1.44731 -0.51299,-5.4586 -0.778,-6.39694 -0.265,-0.93833 -2.02734,-5.02821 -2.02734,-5.02821 0,0 3.79005,5.50214 4.05918,6.59826 0.26912,1.09611 0.01,5.43552 -0.43636,7.07664 -0.44269,1.62955 -8.99411,11.95223 -8.99411,11.95223 0,0 -0.69376,0.79572 2.64153,-0.0627 1.15906,-0.29831 17.71826,-5.5448 27.07779,-0.6928 -7.78055,-2.1853 -18.25293,-0.71586 -21.59713,0.43728 -3.56106,1.22792 -12.63387,5.50914 -13.36511,6.21351 -0.73124,0.70437 -14.57219,7.36566 -14.57219,7.36566 z"
       id="path2037"
       sodipodi:nodetypes="csscssssscsscscsscc" />
    <path
       style="fill:#00fb00;fill-opacity:1;stroke:none;stroke-width:1px;stroke-linecap:butt;stroke-linejoin:miter;stroke-opacity:1"
       d="m 149.29164,857.03158 c 0,0 -0.48526,-1.34446 1.07634,-4.5488 1.56161,-3.20434 3.14238,-5.07623 4.81423,-5.69175 1.67186,-0.61553 5.82649,-0.55054 6.50265,-0.92683 0.67615,-0.3763 1.16421,-1.24141 1.16421,-1.24141 0,0 -0.004,0.92004 0.13034,2.78928 0.1342,1.86923 0.0148,3.97238 -3.01341,6.89017 -2.84061,2.73704 -6.47395,3.1265 -6.47395,3.1265 z"
       id="path2045"
       sodipodi:nodetypes="csssccscc" />
    <path
       style="fill:none;stroke:#004400;stroke-width:3.77953;stroke-linecap:round;stroke-linejoin:round;stroke-miterlimit:4;stroke-dasharray:none;stroke-opacity:1"
       d="m 138.68895,879.09427 h 77.30417"
       id="path2051"
       sodipodi:nodetypes="cc" />
    <path
       style="fill:none;stroke:#004400;stroke-width:3.77953;stroke-linecap:round;stroke-linejoin:round;stroke-miterlimit:4;stroke-dasharray:none;stroke-opacity:1"
       d="M 95.300734,879.09427 H 28.744503"
       id="path2053" />
    <text
       xml:space="preserve"
       style="font-style:normal;font-variant:normal;font-weight:normal;font-stretch:normal;font-size:220px;line-height:0%;font-family:'Politics Head';-inkscape-font-specification:'Politics Head';text-align:start;letter-spacing:0px;word-spacing:0px;writing-mode:lr-tb;text-anchor:start;fill:#ffffff;fill-opacity:1;stroke:none;stroke-width:1.00252;stroke-miterlimit:4;stroke-dasharray:none"
       id="text6589"
       transform="rotate(-156.16781,130,-27.433404)"
       x="-624.39868"
       y="-1683.5013"><textPath
         xlink:href="#path6572"
         id="textPath6593"><tspan
           style="font-style:normal;font-variant:normal;font-weight:normal;font-stretch:normal;font-size:220px;line-height:125%;font-family:'Politics Head';-inkscape-font-specification:'Politics Head';text-align:start;writing-mode:lr-tb;text-anchor:start;fill:#ffffff;stroke-width:1.00252;stroke-miterlimit:4;stroke-dasharray:none"
           id="tspan6591"
           dx="0 0"><tspan
   style="font-size:75.9485px;stroke-width:1.00252;stroke-miterlimit:4;stroke-dasharray:none"
   id="tspan2681">              </tspan>xroots</tspan></textPath></text>
    <text
       xml:space="preserve"
       style="font-style:normal;font-variant:normal;font-weight:normal;font-stretch:normal;font-size:220px;line-height:0%;font-family:'Politics Head';-inkscape-font-specification:'Politics Head';text-align:start;letter-spacing:20.5061px;word-spacing:0px;writing-mode:lr-tb;text-anchor:start;fill:#ffffff;fill-opacity:1;stroke:none;stroke-width:1.00252;stroke-miterlimit:4;stroke-dasharray:none"
       id="text6924"
       x="3.8912513e-06"
       transform="translate(260)"><textPath
         xlink:href="#path6572-9"
         id="textPath6931"><tspan
           id="tspan6926"
           style="fill:#ffffff;stroke-width:1.00252;stroke-miterlimit:4;stroke-dasharray:none">welcome to xhain</tspan></textPath></text>
    <path
       id="path5802-1"
       style="fill:#004400;fill-opacity:1;stroke:#ffc400;stroke-width:3.77953;stroke-miterlimit:4;stroke-dasharray:none;stroke-opacity:1"
       d="m 123.00823,784.96075 c -61.476437,0.016 -114.163381,46.60114 -120.492183,109.08203 -6.7507448,66.6463 41.802948,126.14382 108.449213,132.89452 66.64631,6.7508 126.15163,-41.80292 132.90235,-108.44921 6.75075,-66.64628 -41.81076,-126.14377 -108.45704,-132.89453 -4.1654,-0.42192 -8.30392,-0.63387 -12.40234,-0.63281 z m 0.18359,37.74609 a 83.55542,83.55542 0 0 1 77.33204,51.91797 h 15.51757 a 4.4692912,4.4692912 0 0 1 4.46875,4.47071 4.4692912,4.4692912 0 0 1 -4.46875,4.46875 h -12.4375 a 83.55542,83.55542 0 0 1 3.14258,22.69726 83.55542,83.55542 0 0 1 -83.55469,83.55664 83.55542,83.55542 0 0 1 -83.554679,-83.55664 83.55542,83.55542 0 0 1 3.142578,-22.69726 H 28.744563 a 4.4692912,4.4692912 0 0 1 -4.46875,-4.46875 4.4692912,4.4692912 0 0 1 4.46875,-4.47071 h 17.115234 a 83.55542,83.55542 0 0 1 77.332023,-51.91797 z" />
    <path
       sodipodi:type="star"
       style="fill:#ffffff;fill-opacity:1;stroke:#ffffff;stroke-opacity:1"
       id="path6846-4"
       sodipodi:sides="5"
       sodipodi:cx="-130"
       sodipodi:cy="859.01007"
       sodipodi:r1="77.195747"
       sodipodi:r2="41.685707"
       sodipodi:arg1="0.78539816"
       sodipodi:arg2="1.4137167"
       inkscape:flatsided="false"
       inkscape:rounded="0.1"
       inkscape:randomized="0"
       transform="matrix(0.08873082,-0.14717154,0.14717154,0.08873082,-76.187437,754.01699)"
       d="m -75.414363,913.59571 c -3.528537,3.52853 -43.135887,-14.19378 -48.064557,-13.41315 -4.92867,0.78062 -37.121,29.87489 -41.56722,27.60943 -4.44621,-2.26546 0.16936,-45.41079 -2.0961,-49.857 -2.26546,-4.44622 -39.88372,-26.07233 -39.1031,-31.00099 0.78062,-4.92867 43.24056,-13.87164 46.76909,-17.40018 3.52854,-3.52853 12.47151,-45.98846 17.40017,-46.76909 4.92867,-0.78062 26.55478,36.83764 31.001,39.1031 4.44621,2.26546 47.591535,-2.35011 49.856994,2.0961 2.26546,4.44622 -26.828803,36.63855 -27.609427,41.56722 -0.780624,4.92867 16.941686,44.53602 13.41315,48.06456 z" />
    <path
       id="path1598"
       style="font-size:37.3333px;line-height:1.25;font-family:'Politics Head';-inkscape-font-specification:'Politics Head';fill:#ffffff"
       d="m 113.85393,792.39044 c -2.67618,0.2762 -5.57336,0.20856 -7.92187,1.7207 -2.12632,1.27845 -3.15237,3.87574 -2.8726,6.28724 0.42198,3.9991 0.75778,8.01057 1.25333,12.00031 0.34037,2.20877 1.83446,4.27754 4.01492,4.95892 2.54866,0.88122 5.27127,0.27882 7.87165,0.023 2.49825,-0.34086 5.08375,-1.71771 6.01395,-4.1874 0.94332,-2.32362 0.19387,-4.84378 0.0563,-7.2397 -0.32316,-2.78096 -0.48307,-5.58562 -0.91199,-8.35136 -0.3879,-2.24207 -2.02739,-4.26168 -4.26585,-4.84409 -1.04348,-0.3246 -2.15064,-0.39814 -3.23779,-0.36758 z m 22.57032,0.58008 c -2.41976,0.0936 -4.83149,1.48158 -5.77431,3.77321 -0.82902,1.92907 -0.82339,4.08035 -1.2223,6.11765 -0.36676,2.70039 -0.89462,5.3831 -1.15378,8.09546 -0.13838,2.17358 0.85781,4.43228 2.75958,5.56978 2.24029,1.43456 4.98481,1.5267 7.53706,1.9201 2.50596,0.28966 5.34809,-0.4051 6.86546,-2.5641 1.48881,-2.0186 1.38658,-4.64522 1.84783,-7.00054 0.38081,-2.79865 0.92378,-5.57948 1.1971,-8.39008 0.13918,-2.17348 -0.85622,-4.43183 -2.75764,-5.56978 -2.24045,-1.43408 -4.98493,-1.52717 -7.53706,-1.92205 -0.58595,-0.0593 -1.17408,-0.0622 -1.76194,-0.0297 z m 21.9375,4.7871 c -1.0868,0.096 -1.13025,1.43137 -1.54978,2.19632 -0.21306,0.84002 -0.95979,1.64867 -0.6846,2.54783 0.45983,0.81551 1.55608,0.83304 2.30792,1.25654 0.72325,0.32026 1.52574,0.55076 2.2038,0.92314 -2.17166,5.54759 -4.46247,11.05913 -6.60937,16.61524 -0.19423,0.88102 0.75265,1.30612 1.43806,1.5003 1.09968,0.38271 2.14369,0.97 3.27678,1.23212 1.06675,0.001 1.17951,-1.28331 1.54563,-2.01655 2.02676,-5.01589 3.99409,-10.07381 6.05788,-15.06353 1.43642,0.4808 2.80838,1.20846 4.26563,1.62305 1.01477,0.0762 1.21274,-1.12052 1.52243,-1.82683 0.25957,-0.90474 0.91509,-1.73827 0.89749,-2.69856 -0.23405,-0.9746 -1.45102,-0.9892 -2.18462,-1.40323 -4.08262,-1.61427 -8.14275,-3.29954 -12.23921,-4.87021 -0.0825,0.001 -0.16557,-0.0396 -0.24804,-0.0156 z m -69.742186,0.29297 c -2.413943,0.14219 -4.581345,1.34334 -6.847879,2.0681 -1.705605,0.64611 -3.444052,1.22112 -5.130638,1.90847 -0.780509,0.44918 -0.45774,1.43114 -0.146711,2.06954 2.486369,6.75947 4.93679,13.53371 7.445539,20.28397 0.407428,0.7713 1.376841,0.55233 2.003062,0.22036 1.106036,-0.46172 2.307587,-0.73348 3.358267,-1.3063 0.78907,-0.71559 0.015,-1.7408 -0.20228,-2.53136 -0.728007,-2.06466 -1.568156,-4.12711 -2.227408,-6.19325 0.981874,-0.39589 1.990278,-0.73472 2.982418,-1.10742 2.15789,2.31172 4.25809,4.68459 6.45118,6.95899 0.75751,0.42375 1.53238,-0.3011 2.27766,-0.45099 0.98556,-0.41574 2.069096,-0.65021 2.995766,-1.17597 0.65023,-0.52025 0.0575,-1.31831 -0.40345,-1.73392 -2.116856,-2.32742 -4.264236,-4.63076 -6.362166,-6.97311 1.28103,-1.51755 1.88068,-3.75118 1.36667,-5.74209 -0.59822,-2.78053 -2.56183,-5.47461 -5.4539,-6.11634 -0.68961,-0.15811 -1.3997,-0.21445 -2.10613,-0.17868 z m 25.246086,0.0234 c 1.20384,0.0448 1.74991,1.33149 1.70906,2.38209 0.30195,3.22872 0.70683,6.45255 0.94524,9.68432 -0.0178,1.07149 -1.04199,1.82058 -2.06396,1.76314 -1.14531,-0.002 -2.41187,0.56358 -3.46924,-0.0737 -1.08303,-0.8131 -0.76006,-2.3247 -0.99074,-3.49176 -0.25355,-2.75662 -0.60957,-5.50839 -0.80028,-8.26801 0.026,-1.11918 1.10979,-1.8469 2.16349,-1.77875 0.83528,-0.0615 1.66899,-0.21521 2.50643,-0.21734 z m 24.03711,0.58399 c 1.13273,0.19504 2.31663,0.22542 3.4082,0.59375 1.10566,0.497 1.07175,1.86429 0.82206,2.86136 -0.49865,3.12669 -0.89368,6.27492 -1.45487,9.38864 -0.28229,1.04887 -1.47725,1.5208 -2.4639,1.20415 -1.07941,-0.28074 -2.39929,-0.0556 -3.26581,-0.87561 -0.91955,-1.04672 -0.21705,-2.4773 -0.14614,-3.68318 0.43068,-2.71825 0.77962,-5.45266 1.26062,-8.16099 0.23405,-0.79785 0.99116,-1.39638 1.83984,-1.32812 z m -49.074216,5.16601 c 1.19968,0.11464 1.80164,1.48368 1.70118,2.55274 -0.2863,1.40775 -1.88155,1.64989 -2.99848,2.09683 -0.862507,0.29108 -1.718883,0.67997 -2.585509,0.91098 -0.478884,-1.28318 -1.011347,-2.59176 -1.398438,-3.88672 1.554007,-0.55929 3.087158,-1.22753 4.679055,-1.66661 0.199227,-0.0379 0.401712,-0.0261 0.602192,-0.007 z m -21.261716,2.45117 c -1.261524,0.6632 -2.397269,1.5884 -3.6119,2.34888 -0.617364,0.39088 -1.542313,0.87803 -1.297356,1.76393 0.277852,2.30441 0.424266,4.65044 1.112381,6.87938 -2.0881,-1.32544 -4.275386,-2.50195 -6.435916,-3.69785 -0.925004,-0.23745 -1.588687,0.7024 -2.343359,1.07645 -0.922739,0.66474 -1.939592,1.21536 -2.806662,1.94757 -0.469073,0.69089 0.270015,1.33739 0.898961,1.52027 3.42305,1.74202 6.88168,3.44233 10.282679,5.2102 0.421822,4.41083 0.730856,8.83749 1.160157,13.24805 0.181445,0.76708 1.121188,0.73338 1.583061,0.24685 1.309384,-0.92976 2.722656,-1.73047 3.973579,-2.73318 0.591358,-0.76218 0.05739,-1.77575 0.07186,-2.63769 -0.218738,-1.81925 -0.36244,-3.66651 -0.933185,-5.41895 2.154449,1.3073 4.328987,2.59799 6.53125,3.81641 0.972231,0.22564 1.654524,-0.75685 2.444795,-1.14263 0.939243,-0.70023 2.035953,-1.22706 2.879194,-2.03428 0.459815,-0.58973 -0.163799,-1.22382 -0.739644,-1.3823 -3.538171,-1.78161 -7.068906,-3.5793 -10.611688,-5.35095 -0.387167,-4.32699 -0.717527,-8.66753 -1.138672,-12.98633 -0.127701,-0.44049 -0.546923,-0.77885 -1.019532,-0.67383 z m 113.835932,3.67774 c -2.38104,0.11972 -4.66513,1.56456 -5.62487,3.77581 -1.21881,2.2908 -0.74144,5.09458 0.53055,7.25391 0.93992,1.92188 2.75236,3.33825 3.38009,5.41742 0.41893,1.22778 -0.98108,2.41157 -2.13928,1.90442 -1.55876,-0.56183 -3.12991,-2.07594 -2.76172,-3.875 0.15781,-0.81885 -0.6257,-1.36068 -1.35946,-1.399 -1.16852,-0.24034 -2.32309,-0.62646 -3.49992,-0.78264 -0.97637,0.15635 -1.01365,1.39293 -1.18004,2.16794 -0.39535,3.14553 1.62956,6.03898 4.07857,7.80258 2.34621,1.77946 5.53859,2.95568 8.43155,1.87128 2.94599,-1.13406 5.19523,-4.32658 4.66945,-7.53953 -0.36809,-2.78262 -2.16268,-5.04725 -3.72986,-7.26784 -0.51701,-0.83395 -1.3484,-2.00324 -0.58607,-2.93482 0.94104,-1.03743 2.50301,-0.3102 3.31445,0.52539 0.77377,0.70643 1.01734,1.79357 0.83594,2.79687 0.0855,1.08485 1.34823,1.07783 2.13694,1.32199 0.91204,0.14795 1.80326,0.63441 2.7322,0.54911 0.88255,-0.48055 0.84487,-1.68341 0.94986,-2.56147 0.16449,-3.21369 -2.06651,-6.03268 -4.72125,-7.59224 -1.62787,-0.99089 -3.54196,-1.56414 -5.45713,-1.43418 z" />
    <path
       id="path1637"
       style="font-size:37.3333px;line-height:1.25;font-family:'Politics Head';-inkscape-font-specification:'Politics Head';letter-spacing:3.84px;fill:#ffffff"
       d="m 31.631282,897.91583 c -7.586766,2.17495 -15.210693,4.23486 -22.792969,6.41992 -0.880322,0.5523 -0.390978,1.70863 -0.434578,2.54022 0.144557,0.9346 -0.06139,1.95718 0.311531,2.83869 0.563678,0.7313 1.646674,0.54727 2.444844,0.82889 3.386051,0.6896 6.76838,1.40143 10.156718,2.07736 -3.157243,0.53547 -6.101476,1.85358 -9.142115,2.808 -0.913536,0.37289 -1.933975,0.54035 -2.785619,1.03379 -0.672243,0.70153 -0.174326,1.75541 -0.242054,2.607 0.129085,0.93181 -0.03329,1.93307 0.296742,2.82074 0.519609,0.771 1.618794,0.4979 2.403392,0.74152 7.191155,1.08948 14.381588,2.1884 21.57317,3.27215 0.896235,-0.0551 0.766942,-1.14064 0.69147,-1.76922 -0.124767,-1.28908 -0.06969,-2.61585 -0.300845,-3.88312 -0.432141,-0.75939 -1.494373,-0.48231 -2.219285,-0.71212 -3.200244,-0.43141 -6.377741,-1.07161 -9.604934,-1.2664 3.69289,-1.21973 7.396744,-2.42912 11.066419,-3.70783 0.765471,-0.5353 0.261403,-1.60028 0.328625,-2.37337 -0.129328,-0.90907 0.03451,-1.88622 -0.279809,-2.75474 -0.565322,-0.6711 -1.601238,-0.49607 -2.374326,-0.7713 -3.282165,-0.61916 -6.524243,-1.51424 -9.863956,-1.76971 3.842535,-0.97562 7.696878,-1.92687 11.523438,-2.95508 0.784145,-0.45485 0.288852,-1.5148 0.35436,-2.23921 -0.12962,-1.12112 -0.01745,-2.29431 -0.295311,-3.38451 -0.12435,-0.30464 -0.498958,-0.48446 -0.814908,-0.40167 z m 182.667968,0.85351 c -0.84094,0.0515 -1.07791,0.99297 -0.97863,1.68973 0.0281,1.2309 -0.15102,2.48053 -0.002,3.7009 0.37995,0.99524 1.61735,0.64697 2.43292,0.73122 3.40756,0.0169 6.82755,0.30226 10.22528,-0.0711 -4.17175,2.31709 -8.3865,4.5721 -12.53157,6.9277 -0.664,0.69235 -0.26862,1.76927 -0.40424,2.63172 0.10388,0.85838 -0.33945,1.91609 0.303,2.62613 0.72594,0.54329 1.72042,0.19775 2.5594,0.32326 6.92669,0.12834 13.85434,0.29991 20.78044,0.40135 0.86828,-0.0921 1.02037,-1.07969 0.93798,-1.78384 -0.0281,-1.19824 0.15095,-2.41517 0.001,-3.60288 -0.38169,-0.99451 -1.61868,-0.64738 -2.43487,-0.73136 -3.16108,-0.0202 -6.32657,-0.24515 -9.48505,-0.0343 3.93053,-2.30132 7.90555,-4.5371 11.8086,-6.87891 0.64151,-0.69628 0.25257,-1.75433 0.38833,-2.61017 -0.10054,-0.84726 0.33558,-1.89134 -0.3024,-2.591 -0.72593,-0.54329 -1.72042,-0.19775 -2.5594,-0.32326 -6.91307,-0.13126 -13.82667,-0.29292 -20.73942,-0.40526 z m -1.50977,22.91993 c -0.85616,-0.0429 -1.1583,0.89442 -1.20884,1.58615 -0.18738,1.18194 -0.58741,2.34591 -0.65053,3.53885 0.18657,1.0506 1.47381,0.93345 2.26011,1.16411 6.92066,1.40883 13.83454,2.85909 20.75942,4.24214 0.8698,0.0605 1.19419,-0.88135 1.24204,-1.58811 0.18738,-1.18195 0.58741,-2.34591 0.65054,-3.53885 -0.18658,-1.05061 -1.47382,-0.93345 -2.26012,-1.16412 -6.93188,-1.40522 -13.85559,-2.87517 -20.79262,-4.24017 z m -178.447261,5.48632 c -1.611464,0.37848 -3.164947,1.02362 -4.754985,1.50014 -5.645944,1.87353 -11.319052,3.68107 -16.94814,5.59557 -0.798471,0.4191 -0.514467,1.41664 -0.222965,2.06667 1.444147,4.33821 2.821793,8.70379 4.306949,13.02512 0.420275,0.79826 1.41656,0.51134 2.066771,0.2213 0.952462,-0.38397 2.028305,-0.52386 2.907839,-1.05528 0.77952,-0.73245 -0.01219,-1.77644 -0.184882,-2.59697 -0.786007,-2.46001 -1.657536,-4.9138 -2.39129,-7.37764 1.187791,-0.39988 2.410104,-0.85501 3.607422,-1.1582 0.862938,2.46863 1.604733,4.98853 2.488281,7.44922 0.417411,0.79846 1.415758,0.5142 2.064682,0.22283 0.952532,-0.38441 2.028228,-0.52538 2.907974,-1.05682 0.781705,-0.73097 -0.01,-1.7771 -0.182968,-2.59696 -0.610573,-1.93995 -1.328063,-3.88256 -1.873672,-5.82101 1.130099,-0.37554 2.289878,-0.81698 3.427734,-1.09961 1.033534,2.98881 1.945814,6.02892 3,9.00977 0.420261,0.79821 1.416622,0.51153 2.066635,0.22088 0.951648,-0.3825 2.023056,-0.52703 2.904068,-1.05291 0.786199,-0.72964 -0.0083,-1.7783 -0.181062,-2.5989 -1.372898,-4.11495 -2.671636,-8.25961 -4.090422,-12.35618 -0.177403,-0.33656 -0.538725,-0.54605 -0.917969,-0.54102 z m 174.298821,9.19336 c -1.00764,0.24663 -1.01397,1.51408 -1.44775,2.27842 -0.47714,1.3187 -1.1285,2.59235 -1.50147,3.93838 -0.0384,0.95699 1.08043,1.27895 1.63837,1.86428 5.85703,4.58848 11.68004,9.22681 17.55811,13.78446 0.68535,0.44463 1.24363,-0.36155 1.36974,-0.96468 0.50674,-1.33292 1.10182,-2.63693 1.55683,-3.98679 -0.042,-0.92731 -1.15588,-1.19783 -1.72204,-1.77358 -0.32848,-0.42322 -1.43418,-0.62616 -1.03995,-1.25422 0.81235,-2.03375 1.62142,-4.07234 2.43582,-6.10306 1.1516,0.10966 2.29903,0.33559 3.45312,0.375 0.83679,-0.29081 0.82398,-1.37161 1.21549,-2.04487 0.35478,-1.06638 0.96748,-2.07688 1.16588,-3.17817 -0.0803,-0.93412 -1.25118,-0.72164 -1.90234,-0.83674 -7.57336,-0.69887 -15.14454,-1.44388 -22.71926,-2.11405 z m 13.03321,7.10743 c -0.48568,1.21874 -0.97136,2.4375 -1.45703,3.65624 -2.03516,-1.52083 -4.07032,-3.04166 -6.10547,-4.5625 2.52083,0.30209 5.04166,0.60417 7.5625,0.90626 z M 41.268,945.53497 c -0.99502,0.22779 -1.797294,0.98394 -2.71389,1.42276 -5.784113,3.37503 -11.589362,6.71648 -17.360328,10.11239 -0.686871,0.53633 -0.302545,1.45212 0.133177,2.01136 2.220197,3.77892 4.377135,7.60249 6.636354,11.35388 0.57823,0.68818 1.488455,0.19724 2.062648,-0.21859 0.849936,-0.57045 1.865121,-0.93405 2.617039,-1.62907 0.613666,-0.8394 -0.322954,-1.68879 -0.662855,-2.42308 -1.17862,-2.07849 -2.46542,-4.13545 -3.577379,-6.22731 5.169591,-3.05651 10.396184,-6.02822 15.566406,-9.08593 0.68685,-0.53631 0.302616,-1.45216 -0.133299,-2.01128 -0.661983,-1.01139 -1.12246,-2.18001 -1.907717,-3.09615 -0.183056,-0.14361 -0.427927,-0.22544 -0.660156,-0.20898 z m 161.29101,5.11328 c -0.98724,0.0847 -1.26833,1.25176 -1.85805,1.88189 -0.45343,0.80906 -1.27466,1.45754 -1.47203,2.38374 0.007,1.00138 1.18577,1.29365 1.80407,1.86684 1.74622,1.25841 3.56762,2.45805 5.2682,3.7523 -1.29554,1.87096 -2.59934,3.76766 -3.95117,5.58789 -2.30011,-1.54539 -4.52414,-3.22558 -6.83203,-4.75977 -0.81227,-0.38396 -1.43708,0.43731 -1.78519,1.05619 -0.62628,0.98158 -1.44052,1.86108 -1.957,2.90279 -0.24776,1.03803 0.97655,1.44232 1.60531,1.96859 5.77879,4.06022 11.53622,8.15445 17.32828,12.19352 0.77215,0.40334 1.44743,-0.32672 1.77232,-0.95699 0.64535,-1.00892 1.47779,-1.91652 2.01479,-2.98441 0.24776,-1.03802 -0.97655,-1.44232 -1.60531,-1.96859 -1.94827,-1.40476 -3.985,-2.74544 -5.87906,-4.18962 1.29857,-1.86684 2.59874,-3.76248 3.95117,-5.58007 2.44904,1.65046 4.82253,3.43485 7.2793,5.07422 0.81226,0.38396 1.43707,-0.43731 1.78518,-1.05619 0.6254,-0.98323 1.44504,-1.86184 1.957,-2.9067 0.24425,-1.03677 -0.98053,-1.43781 -1.60726,-1.96469 -5.79236,-4.06105 -11.54858,-8.1806 -17.36344,-12.20524 -0.13457,-0.0646 -0.30561,-0.0973 -0.45508,-0.0957 z M 50.150813,963.09161 c -2.191319,0.0344 -4.010772,1.43833 -5.493887,2.91746 -2.588146,2.40045 -5.264262,4.71039 -7.79663,7.16827 -1.559836,1.60452 -2.276542,4.05304 -1.496266,6.19658 0.822837,2.51048 2.88188,4.29855 4.59733,6.20402 1.862428,1.89696 4.718595,3.10143 7.348525,2.22545 0.74902,-0.29708 1.826247,-0.56362 2.020615,-1.45983 -0.141682,-1.00869 -0.749155,-1.91583 -1.071185,-2.88415 -0.244262,-0.70131 -0.59486,-1.71806 -1.53233,-1.58655 -0.758362,0.27175 -1.661595,0.56325 -2.38086,0.008 -1.006789,-0.79474 -1.791629,-1.8421 -2.650542,-2.78738 -0.755725,-0.9567 -0.115369,-2.22713 0.770158,-2.83255 2.429212,-2.177 4.79179,-4.43639 7.261244,-6.56366 0.881656,-0.63919 2.107811,-0.25457 2.679556,0.61013 0.787416,1.03058 2.10501,1.8332 2.265756,3.21799 0.119783,0.83723 -0.912762,1.57326 -0.298575,2.38043 0.659127,0.70161 1.682434,0.94524 2.485106,1.46265 0.672198,0.30212 1.584567,1.13776 2.245144,0.36913 1.725573,-2.19345 1.736258,-5.40132 0.309492,-7.75038 -0.965805,-1.66986 -2.414621,-2.98778 -3.705643,-4.4001 -1.474581,-1.45043 -3.430448,-2.57428 -5.557008,-2.49532 z m 140.312497,4.04687 c -0.77531,0.0953 -1.1992,0.92166 -1.81588,1.33239 -0.88577,0.86935 -1.95186,1.58193 -2.72904,2.54652 -0.32255,0.80802 0.26574,1.64505 0.35902,2.45753 0.43828,1.7352 0.88227,3.4898 1.64684,5.11474 -2.24766,-1.03238 -4.57635,-1.89451 -6.87912,-2.78812 -0.98065,-0.097 -1.52356,0.96377 -2.24953,1.45223 -0.79891,0.76249 -1.70855,1.42288 -2.44167,2.24604 -0.36988,0.74699 0.44935,1.28763 1.09686,1.38211 3.62882,1.26557 7.3017,2.46118 10.90314,3.77024 1.01212,4.31174 1.92191,8.65212 2.95313,12.95898 0.28301,0.73542 1.2081,0.57164 1.59703,0.027 1.16965,-1.10102 2.46638,-2.08489 3.56508,-3.2516 0.48638,-0.83136 -0.18355,-1.76644 -0.28589,-2.62024 -0.46694,-1.77201 -0.85804,-3.58352 -1.66528,-5.24109 2.31516,1.00022 4.64522,1.98938 6.99609,2.89258 0.99215,0.0842 1.53059,-0.97915 2.26113,-1.46916 0.83451,-0.81891 1.84097,-1.49281 2.57174,-2.39997 0.3827,-0.64534 -0.32212,-1.19542 -0.91626,-1.27252 -3.74826,-1.28266 -7.49126,-2.58232 -11.24278,-3.85444 -0.9738,-4.23412 -1.89316,-8.48827 -2.89649,-12.71094 -0.15456,-0.3201 -0.45713,-0.59041 -0.82812,-0.57227 z M 65.443782,977.6502 c -2.327535,0.16246 -4.210163,1.84048 -5.371029,3.75956 -2.09514,3.08715 -4.30051,6.10342 -6.325709,9.23559 -1.153415,1.91523 -1.307815,4.45993 -0.06186,6.37176 1.380495,2.27371 3.803003,3.56679 5.923521,5.04149 2.124159,1.3628 4.982628,1.9885 7.296012,0.7166 2.222196,-1.1604 3.290247,-3.55988 4.738756,-5.47324 1.571051,-2.34582 3.284946,-4.60113 4.761244,-7.00723 1.103394,-1.91904 1.177896,-4.43101 -0.07597,-6.30036 -1.40552,-2.238 -3.809658,-3.51898 -5.920119,-4.98675 -1.487184,-0.89234 -3.208651,-1.50917 -4.964843,-1.35742 z m 1.634765,6.12891 c 1.136547,0.29475 1.969627,1.23108 2.966797,1.8125 1.055326,0.61983 1.020638,2.10853 0.241494,2.93621 -1.918153,2.73265 -3.761534,5.523 -5.725869,8.22004 -0.718713,0.8239 -1.99415,0.71002 -2.746934,-10e-4 -0.861789,-0.74037 -2.192799,-1.12955 -2.571425,-2.29783 -0.278632,-1.34826 0.967718,-2.29699 1.561343,-3.36023 1.587545,-2.24487 3.08238,-4.56276 4.728672,-6.76141 0.398758,-0.40159 0.978578,-0.63225 1.545922,-0.54828 z m 96.892573,3.31836 c -2.4818,0.20431 -4.69651,1.45674 -6.93164,2.44531 -2.24374,1.11426 -4.21638,3.24356 -4.30116,5.85967 -0.14476,2.46242 1.31438,4.59317 2.16329,6.80235 1.16846,2.5711 2.18567,5.2155 3.45428,7.7383 1.05011,1.9492 3.1516,3.3298 5.39956,3.2493 2.62432,-0.018 4.96255,-1.3746 7.306,-2.3878 2.27517,-1.0921 4.31119,-3.1929 4.44483,-5.8302 0.18087,-2.5008 -1.29753,-4.6694 -2.16347,-6.90787 -1.15339,-2.54414 -2.16948,-5.15555 -3.41075,-7.65656 -1.178,-2.19281 -3.41672,-3.55292 -5.96094,-3.3125 z m -81.832026,0.12695 c -1.080778,0.13369 -1.082367,1.46627 -1.477789,2.24343 -2.386363,6.57612 -4.813683,13.13905 -7.174555,19.72335 -0.188029,0.8514 0.692398,1.3133 1.386111,1.4626 1.137214,0.3575 2.22509,0.9235 3.391233,1.1604 1.065618,-0.035 1.135795,-1.3212 1.47981,-2.0652 0.932411,-2.6233 1.983058,-5.2087 2.731128,-7.8937 0.09248,2.6605 0.172137,5.3257 0.3125,7.9824 0.308267,0.9506 1.521933,0.9391 2.28457,1.3348 0.762551,0.2358 1.792921,0.9263 2.451885,0.1236 1.734937,-1.8633 3.505237,-3.695 5.218627,-5.5776 -1.3216,3.011 -2.36119,6.1368 -3.48243,9.2246 -0.18824,0.8517 0.69248,1.3139 1.38614,1.4645 1.11417,0.3493 2.17895,0.9067 3.32285,1.1332 1.06473,-0.036 1.13861,-1.3207 1.48154,-2.0653 2.4092,-6.6387 4.859356,-13.2643 7.243066,-19.91123 0.18822,-0.85166 -0.69242,-1.31404 -1.38624,-1.46421 -1.20256,-0.39259 -2.366066,-0.95137 -3.592276,-1.24478 -0.92134,0.0101 -1.3219,1.04106 -1.96198,1.55802 -2.55755,2.74719 -5.14094,5.47202 -7.682549,8.233 -0.258747,-4.38943 -0.505384,-8.78691 -0.827525,-13.16963 -0.301361,-0.96706 -1.538002,-0.93502 -2.306623,-1.3427 -0.934898,-0.26491 -1.830251,-0.81998 -2.797493,-0.90955 z m 81.451166,5.87891 c 1.40102,0.23515 1.64481,1.84806 2.1912,2.90537 1.11059,2.60712 2.31778,5.1784 3.36935,7.8075 0.31873,1.0729 -0.49696,2.0907 -1.51864,2.3469 -1.09957,0.3487 -2.18149,1.3411 -3.38956,0.8972 -1.18222,-0.5983 -1.29422,-1.9736 -1.88604,-3.0433 -1.07559,-2.5169 -2.23562,-5.00188 -3.2585,-7.53867 -0.32433,-1.07465 0.4835,-2.11233 1.51293,-2.36802 0.98301,-0.32751 1.90552,-1.08438 2.97926,-1.00698 z m -15.61523,0.22851 c -4.87829,0.94073 -9.75827,1.89486 -14.62696,2.88282 -0.82679,0.2766 -0.7621,1.27182 -0.53284,1.94074 0.27035,1.02522 0.28583,2.1418 0.70863,3.1139 0.6282,0.867 1.76406,0.2089 2.59873,0.1382 0.87981,-0.1477 1.77284,-0.3984 2.64541,-0.4858 1.20294,5.8345 2.27307,11.7068 3.49414,17.5371 0.31213,0.8482 1.34276,0.6876 2.02322,0.4783 1.13113,-0.2762 2.32559,-0.3531 3.42014,-0.7459 0.89651,-0.5801 0.29206,-1.7184 0.20022,-2.5338 -1.02725,-5.3126 -2.13043,-10.6282 -3.11038,-15.93888 1.46865,-0.3763 3.01185,-0.5136 4.46094,-0.955 0.89294,-0.48899 0.40928,-1.59933 0.28386,-2.36103 -0.25633,-0.88323 -0.20184,-1.8848 -0.66082,-2.69369 -0.21801,-0.26488 -0.5639,-0.40659 -0.90429,-0.37696 z m -41.24024,1.90039 c -0.85105,0.0413 -1.0636,1.00071 -1.04574,1.69227 -0.74524,7.1966 -1.53132,14.3906 -2.25113,21.589 0.025,0.8697 0.99203,1.1054 1.70007,1.0829 4.58326,0.4626 9.16484,1.0013 13.74915,1.4171 0.89766,-0.056 1.0477,-1.0814 1.04825,-1.7918 0.0396,-1.0256 0.35095,-2.0638 0.22714,-3.0832 -0.34447,-1.0141 -1.62525,-0.7244 -2.4449,-0.901 -2.56552,-0.2906 -5.16436,-0.502 -7.7094,-0.8412 0.12224,-1.2472 0.21146,-2.5428 0.41602,-3.7617 2.60724,0.2256 5.21225,0.5805 7.82031,0.7793 0.89788,-0.056 1.04708,-1.0814 1.04871,-1.7917 0.04,-1.0257 0.35247,-2.0638 0.22863,-3.0833 -0.34445,-1.0142 -1.62525,-0.7243 -2.44494,-0.9006 -2.02076,-0.2365 -4.08824,-0.3798 -6.08045,-0.6737 0.12319,-1.1848 0.19797,-2.4238 0.40235,-3.5761 3.15011,0.2837 6.29819,0.695 9.44921,0.9511 0.89767,-0.056 1.04771,-1.0813 1.04826,-1.7917 0.0396,-1.02558 0.35095,-2.06381 0.22713,-3.08324 -0.3429,-1.01472 -1.62434,-0.72412 -2.44297,-0.90074 -4.31531,-0.43444 -8.62961,-0.94275 -12.9457,-1.33169 z" />
    <path
       sodipodi:type="star"
       style="fill:#ffffff;fill-opacity:1;stroke:#ffffff;stroke-opacity:1"
       id="path6846-4-3"
       sodipodi:sides="5"
       sodipodi:cx="-130"
       sodipodi:cy="859.01007"
       sodipodi:r1="77.195747"
       sodipodi:r2="41.685707"
       sodipodi:arg1="0.78539816"
       sodipodi:arg2="1.4137167"
       inkscape:flatsided="false"
       inkscape:rounded="0.1"
       inkscape:randomized="0"
       transform="matrix(0.08873082,-0.14717154,0.14717154,0.08873082,94.113954,754.01699)"
       d="m -75.414363,913.59571 c -3.528537,3.52853 -43.135887,-14.19378 -48.064557,-13.41315 -4.92867,0.78062 -37.121,29.87489 -41.56722,27.60943 -4.44621,-2.26546 0.16936,-45.41079 -2.0961,-49.857 -2.26546,-4.44622 -39.88372,-26.07233 -39.1031,-31.00099 0.78062,-4.92867 43.24056,-13.87164 46.76909,-17.40018 3.52854,-3.52853 12.47151,-45.98846 17.40017,-46.76909 4.92867,-0.78062 26.55478,36.83764 31.001,39.1031 4.44621,2.26546 47.591535,-2.35011 49.856994,2.0961 2.26546,4.44622 -26.828803,36.63855 -27.609427,41.56722 -0.780624,4.92867 16.941686,44.53602 13.41315,48.06456 z" />
    <path
       style="fill:#00fb00;fill-opacity:1;stroke:none;stroke-width:1px;stroke-linecap:butt;stroke-linejoin:miter;stroke-opacity:1"
       d="m 155.28853,843.9134 c -1.27212,-4.41579 -1.40643,-5.79373 -0.48327,-8.31709 0.92313,-2.52336 5.69797,-7.83298 7.21674,-8.55724 1.51875,-0.72425 5.17457,-0.44375 5.17457,-0.44375 0,0 -0.39467,-0.19309 -0.93004,1.89922 -0.53541,2.09228 0.10624,4.03545 0.0105,5.65869 -0.0957,1.62325 -1.18164,4.90693 -2.44414,6.03537 -1.10097,1.1536 -8.54438,3.72479 -8.54438,3.72479 z"
       id="path2047"
       sodipodi:nodetypes="ccscssccc" />
    <path
       style="fill:#00fb00;fill-opacity:1;stroke:none;stroke-width:1px;stroke-linecap:butt;stroke-linejoin:miter;stroke-opacity:1"
       d="m 147.22941,817.64422 c 0,0 -2.45674,1.86361 -2.2778,5.37002 0.17894,3.50641 -1.6825,4.0759 0.28013,6.61833 1.96264,2.54243 5.50995,5.98556 5.50995,5.98556 0,0 0.75714,2.16655 2.18748,-2.52273 1.43035,-4.68928 1.78445,-7.52025 -0.17031,-9.22734 -2.33503,-2.03919 -3.05916,-2.82373 -4.17019,-4.11369 -1.11102,-1.28996 -1.35926,-2.11015 -1.35926,-2.11015 z"
       id="path2049"
       sodipodi:nodetypes="csscsssc" />
  </g>
</svg>
