<?xml version="1.0" encoding="UTF-8" standalone="no"?>
<!-- Created with Inkscape (http://www.inkscape.org/) -->

<svg
   width="210mm"
   height="297mm"
   viewBox="0 0 210 297"
   version="1.1"
   id="svg5"
   inkscape:version="1.1 (c68e22c387, 2021-05-23)"
   sodipodi:docname="symbols.svg"
   xmlns:inkscape="http://www.inkscape.org/namespaces/inkscape"
   xmlns:sodipodi="http://sodipodi.sourceforge.net/DTD/sodipodi-0.dtd"
   xmlns="http://www.w3.org/2000/svg"
   xmlns:svg="http://www.w3.org/2000/svg">
  <sodipodi:namedview
     id="namedview7"
     pagecolor="#ffffff"
     bordercolor="#666666"
     borderopacity="1.0"
     inkscape:pageshadow="2"
     inkscape:pageopacity="0.0"
     inkscape:pagecheckerboard="0"
     inkscape:document-units="mm"
     showgrid="false"
     inkscape:zoom="0.67081229"
     inkscape:cx="327.9606"
     inkscape:cy="447.96436"
     inkscape:window-width="1920"
     inkscape:window-height="1137"
     inkscape:window-x="1912"
     inkscape:window-y="-8"
     inkscape:window-maximized="1"
     inkscape:current-layer="layer1" />
  <defs
     id="defs2" />
  <g
     inkscape:label="Layer 1"
     inkscape:groupmode="layer"
     id="layer1">
    <rect
       style="fill:#000000;fill-opacity:1;stroke:none;stroke-width:5.74698;stroke-linecap:round;stroke-linejoin:round;stroke-miterlimit:4;stroke-dasharray:none;stroke-opacity:1;paint-order:fill markers stroke"
       id="rect26835"
       width="107.88918"
       height="142.30025"
       x="18.418924"
       y="88.683105"
       ry="1.509321" />
    <g
       id="g35070"
       inkscape:export-filename="C:\Users\jze\Desktop\tmp\xHainCI\Hinweisschilder\quiet.png"
       inkscape:export-xdpi="1368.9301"
       inkscape:export-ydpi="1368.9301">
      <ellipse
         style="fill:#ffffff;fill-opacity:1;stroke:#db0000;stroke-width:4.72975;stroke-linecap:round;stroke-linejoin:round;stroke-miterlimit:4;stroke-dasharray:none;stroke-opacity:1;paint-order:fill markers stroke"
         id="path846-8"
         cx="49.894474"
         cy="40.230659"
         rx="26.2656"
         ry="25.969784" />
      <path
         style="fill:#000000;fill-opacity:1;stroke:none;stroke-width:0.264583px;stroke-linecap:butt;stroke-linejoin:miter;stroke-opacity:1"
         d="m 53.937249,17.15737 c -2.958166,3.155378 -3.658289,3.872941 -4.141433,6.162849 -0.772262,3.660212 -1.25734,4.214264 -1.57769,6.951694 -0.323815,2.767039 1.725598,3.993525 1.725598,3.993525 0,0 -1.08466,2.366534 -2.120021,3.993525 -1.132943,1.780336 -3.401891,3.056773 -2.415836,4.535857 0.986057,1.479084 4.387949,0.887455 3.500499,2.760956 -1.598037,2.647843 0.577883,2.028745 0.493028,2.908866 -1.652073,2.024948 1.179012,1.260952 0.88745,2.218625 -0.295817,1.479082 -0.887451,3.352589 -0.09861,4.733066 0.788845,1.380479 3.697711,1.42978 5.571215,1.133966 1.873507,-0.295818 4.190739,-0.838149 4.486556,-0.443726 0.227941,2.740777 0.518856,3.18025 2.169321,4.634462 0,0 7.691237,-0.788844 7.789842,-1.380479 0.0986,-0.591632 4.930277,-11.339639 4.930277,-11.339639 0,0 1.577689,-9.663348 1.577689,-10.25498 0,-0.591635 -4.63446,-12.818726 -4.63446,-12.818726 L 59.656373,14.988048 Z"
         id="path1288"
         sodipodi:nodetypes="csscsscccssccscsccc" />
      <path
         style="fill:#000000;stroke:none;stroke-width:0.264583px;stroke-linecap:butt;stroke-linejoin:miter;stroke-opacity:1;fill-opacity:1"
         d="m 36.25683,59.614596 c 0,-0.836698 0.176063,-2.636125 0.176063,-2.636125 0,0 0.02682,-1.737449 0.685283,-2.005823 0.746551,-0.304276 1.332503,0.323247 1.332503,0.323247 0,0 0.355755,-1.948063 1.50301,-1.981171 1.817439,-0.05245 1.971262,0.721897 1.971262,0.721897 0,0 -0.186706,-1.56491 1.625539,-1.611401 1.64874,-0.0423 1.840273,1.193052 1.979721,0.914155 0,0 0.104094,-1.659801 -0.233825,-4.429995 -0.331707,-2.719263 -0.261668,-4.723728 1.026173,-4.703938 1.16372,0.01788 1.257822,0.96128 1.57829,3.904581 0.158488,1.455617 0.393697,3.256638 0.463423,4.023609 0.06972,0.766972 0.09437,1.693814 0.09437,2.042437 0,0.348623 0.554328,0.151735 0.479615,1.267009 -0.07368,1.099805 -0.252281,2.555895 -0.138724,3.010124 0.11496,0.459838 1.227907,1.436151 1.073299,2.814363 -0.122902,1.095572 -0.507767,2.948857 -1.344464,3.646106 -0.836698,0.697245 -12.062368,-1.603669 -12.062368,-1.603669 z"
         id="path3997"
         sodipodi:nodetypes="ccscscsssssssscsscc" />
      <ellipse
         style="fill:none;stroke:#db0000;stroke-width:4.72975;stroke-linecap:round;stroke-linejoin:round;stroke-miterlimit:4;stroke-dasharray:none;stroke-opacity:1;paint-order:fill markers stroke"
         id="path846"
         cx="49.894421"
         cy="40.231075"
         rx="26.2656"
         ry="25.969784" />
    </g>
    <g
       id="g35040"
       inkscape:export-filename="C:\Users\jze\Desktop\tmp\xHainCI\Hinweisschilder\stehpinkler.png"
       inkscape:export-xdpi="1368.9301"
       inkscape:export-ydpi="1368.9301">
      <ellipse
         style="fill:#ffffff;fill-opacity:1;stroke:#db0000;stroke-width:4.72975;stroke-linecap:round;stroke-linejoin:round;stroke-miterlimit:4;stroke-dasharray:none;stroke-opacity:1;paint-order:fill markers stroke"
         id="path846-8-7"
         cx="134.10347"
         cy="42.794659"
         rx="26.2656"
         ry="25.969784" />
      <g
         id="g13112"
         transform="matrix(0.91301736,0,0,0.91301736,10.4713,5.3786111)">
        <circle
           style="fill:#000000;fill-opacity:1;stroke:none;stroke-width:2.67647;stroke-linecap:round;stroke-linejoin:round;stroke-miterlimit:4;stroke-dasharray:none;stroke-opacity:1;paint-order:fill markers stroke"
           id="path8797"
           cx="135.63197"
           cy="22.925797"
           r="4.4865541" />
        <path
           style="fill:#000000;stroke-width:0.152238"
           d="m 128.12285,48.227582 0.0247,-0.857829 -0.6256,-0.747127 c -1.47269,-1.758765 -2.02939,-2.755729 -0.90583,-5.193317 l 0.47232,-1.024712 -1.24587,-1.499361 c -0.68523,-0.824649 -0.72272,-1.670629 -0.80643,-1.879957 -0.30489,-0.762508 -0.1327,-1.712263 1.90796,-4.508677 1.10034,-1.507895 1.68401,-2.671453 1.89963,-3.067756 0.77698,-1.428062 1.60868,-2.014576 2.85677,-2.014576 1.862,0 3.30356,1.518716 3.30682,3.483804 0.002,1.14582 -1.72304,12.43068 -1.85793,12.74805 -0.0999,0.235091 -4.87549,5.690452 -4.97865,5.690452 -0.0263,0 -0.0478,-0.508047 -0.0478,-1.128994 z"
           id="path9145" />
        <path
           style="fill:#000000;stroke-width:0.152238"
           d="m 128.27875,65.366243 c -0.44592,-0.289838 -0.39731,-1.537715 -0.28563,-2.407825 0.0569,-0.443593 0.12975,-1.274365 0.12975,-3.99742 v -3.450885 l 1.86492,-2.17135 1.61841,-1.924835 0.0399,5.699809 c 0.0312,4.462562 0.32951,5.489073 0.48498,5.618117 0.10923,0.09065 0.10971,0.375343 1.10892,0.632649 0.99921,0.257305 1.91094,0.56152 2.02608,0.676032 0.29215,0.290583 0.26104,0.94952 -0.0617,1.306102 -0.25561,0.282444 0.008,0.373385 -3.49204,0.151523 -1.34743,-0.215987 -2.37603,0.555469 -3.43359,-0.131917 z"
           id="path9139" />
        <path
           id="path6946"
           style="fill:#000000;stroke-width:0.152238"
           d="m 151.08594,37.365234 c -0.97629,0.159045 -0.95492,1.37303 -1.12595,2.126336 -0.63754,4.003936 -1.52747,11.646471 -1.89358,12.016242 -0.52862,0.19835 -13.14173,-0.04529 -13.58546,0.252442 -0.46577,0.447569 -0.12971,3.024902 0.91694,4.247451 1.13446,1.517904 2.76858,2.736512 4.69319,2.964189 1.26185,0.158219 2.78975,0.312786 3.46689,1.565101 0.73046,1.375482 0.42977,2.989067 0.5985,4.492604 -0.0662,0.631876 0.30936,1.368014 1.02126,1.339546 0.86752,-0.182828 0.93313,-1.204467 0.88514,-1.921837 -0.006,-2.073368 -0.0985,-4.50843 -1.76151,-5.991283 -1.39183,-1.265869 -3.37689,-1.155936 -5.07284,-1.672818 -1.4201,-0.590419 -3.21115,-2.823197 -3.0293,-3.335937 0.46012,-0.251542 8.97135,0 13.45703,0 0.71105,-0.418524 0.44878,-1.300552 0.60366,-1.984417 0.40225,-3.6447 1.1253,-7.247274 1.66978,-10.873005 0.10252,-0.994463 0.53805,-2.302453 -0.36133,-3.058594 -0.13745,-0.107451 -0.3067,-0.17332 -0.48242,-0.166016 z"
           sodipodi:nodetypes="sccccccccccccccccss" />
        <path
           id="path6946-1"
           style="fill:#000000;stroke-width:0.152238"
           d="m 141.09414,51.634129 -0.25022,-0.381884 c -0.13762,-0.210035 -0.20908,-0.448455 -0.15879,-0.529822 0.18015,-0.291482 0.51089,-0.13896 0.83465,0.384896 l 0.32931,0.532834 c 0,0 -1.00346,0.03365 -0.75495,-0.006 z m -1.16965,-1.727026 c -0.42217,-0.553481 -0.50032,-1.007241 -0.17349,-1.007241 0.21783,0 1.00762,0.933885 1.00762,1.19146 0,0.3875 -0.4787,0.28178 -0.83413,-0.184219 z m -1.34484,-1.586461 c -0.43754,-0.45669 -0.50872,-0.71137 -0.24447,-0.874685 0.21959,-0.135714 1.0533,0.676133 1.0533,1.025676 0,0.401682 -0.34017,0.338179 -0.80883,-0.150991 z m -1.43669,-1.336477 c -0.88197,-0.695103 -0.47985,-1.160332 0.42482,-0.491481 0.45276,0.334735 0.61529,0.886261 0.26026,0.883111 -0.10467,-9.13e-4 -0.41295,-0.177161 -0.68508,-0.39163 z"
           sodipodi:nodetypes="cssscscssssssssssss" />
      </g>
      <ellipse
         style="fill:none;stroke:#db0000;stroke-width:4.72975;stroke-linecap:round;stroke-linejoin:round;stroke-miterlimit:4;stroke-dasharray:none;stroke-opacity:1;paint-order:fill markers stroke"
         id="path846-9"
         cx="134.10358"
         cy="42.794819"
         rx="26.2656"
         ry="25.969784" />
      <path
         id="path9141"
         style="fill:#db0000;fill-opacity:1;stroke-width:0.17033"
         d="m 151.25,23.882812 c -1.77002,0.200456 -2.54554,2.023483 -3.70633,3.116398 -9.89128,11.380719 -19.88107,22.674768 -29.68625,34.129696 -1.02013,1.380461 0.31827,3.711462 2.06055,3.292969 1.38234,-0.322984 1.98032,-1.784097 2.95471,-2.668533 9.42121,-10.641076 18.74778,-21.371154 28.05896,-32.104904 0.8037,-1.013147 1.73564,-1.956615 2.41427,-3.052029 0.48657,-1.304332 -0.7706,-2.756098 -2.09591,-2.713597 z" />
    </g>
    <g
       id="g29860"
       transform="translate(6.7051794,11.996044)"
       inkscape:export-filename="C:\Users\jze\Desktop\tmp\xHainCI\Hinweisschilder\you.png"
       inkscape:export-xdpi="1368.9301"
       inkscape:export-ydpi="1368.9301">
      <path
         id="path13240-6-6"
         style="fill:#ffffff;fill-opacity:1;stroke-width:0.0758173"
         d="m 43.670554,83.800305 c -0.01334,3.3e-4 -0.02683,9.9e-4 -0.04021,0.002 -1.057558,0.36433 -1.91054,1.14865 -2.764187,1.84919 -2.321519,2.15676 -5.132929,3.8432 -7.084074,6.39595 -1.631536,2.1933 -2.245534,4.9133 -3.180121,7.43999 -0.518666,1.663695 -1.357681,3.193265 -2.150789,4.736715 -1.178022,2.11312 -1.022374,4.59503 -1.328528,6.91572 -0.102264,1.31455 -0.607481,2.56577 -1.360036,3.64167 -0.549762,0.95577 -1.430724,1.83765 -1.440462,3.00728 0.264146,1.61453 1.079077,3.08843 1.986338,4.43062 1.096299,1.53392 2.249179,3.06653 3.777913,4.19414 0.86981,0.33107 1.820103,0.22483 2.736577,0.3163 1.323812,0.0314 2.48734,0.72242 3.576549,1.40476 0.982764,0.67153 2.139787,1.02101 3.316364,1.14006 1.277917,0.13113 2.578944,0.17591 3.840332,-0.0627 1.931588,-0.53775 3.686558,-1.70772 4.873868,-3.33107 0.19698,-0.751 0.0563,-1.55995 0.0924,-2.33505 -0.0788,-0.22511 0.15237,-0.54896 -0.0669,-0.70252 -2.08561,-0.26351 -4.076314,-1.0002 -5.971618,-1.88491 -2.024881,-0.9926 -4.084073,-1.92866 -6.029835,-3.07268 -0.399252,-0.12387 -0.168948,-0.76823 0.213368,-0.66592 1.762857,0.8475 3.496584,1.76341 5.261589,2.60964 1.868907,0.91542 3.800836,1.75284 5.863886,2.11088 0.40249,0.0244 0.8064,0.23331 1.20278,0.13474 0.9736,-0.6451 1.80855,-1.52783 2.38547,-2.55112 0.14957,-0.39054 0.47795,-0.72945 0.51196,-1.15057 -0.99885,-1.43645 -1.11675,-3.28594 -0.85167,-4.96899 -0.0784,-0.17227 0.20623,-0.4305 0.0249,-0.52187 -1.48758,-1.11011 -2.93137,-2.29353 -4.47684,-3.32927 -1.02195,-0.65988 -2.039974,-1.36152 -3.174418,-1.78617 -1.013846,-0.39826 -2.121475,-0.15157 -3.162715,-0.37092 -0.357525,0.0164 -0.417459,-0.50853 -0.09963,-0.6179 1.118404,-0.0643 2.28383,-0.11727 3.372483,0.20677 2.7094,1.13047 5.02874,2.97474 7.32295,4.77303 0.29801,0.27209 0.59844,0.55355 0.68572,-0.0189 1.13673,-2.6352 2.91025,-5.0251 5.25469,-6.70295 -0.12552,-0.64285 -0.20191,-1.2976 -0.38983,-1.92662 -0.24957,-1.16159 -1.31901,-1.82744 -2.26363,-2.39627 -0.41095,-0.17989 -0.73454,-0.5702 -1.19048,-0.6245 -1.82916,1.13303 -3.9035,1.98818 -6.07935,2.05296 -2.265531,0.14222 -4.701589,-0.8257 -5.907394,-2.817905 -0.783281,-1.16633 -0.915347,-2.61412 -0.83877,-3.98168 -0.07845,-0.29271 0.104112,-0.81476 0.482856,-0.67071 0.30501,0.26821 0.221324,0.76625 0.256881,1.14036 -0.04586,1.11704 0.17194,2.26242 0.80936,3.20713 1.088809,1.666655 3.191031,2.455275 5.126547,2.368965 2.62231,-0.11804 5.14756,-1.33553 7.12729,-3.049585 2.342,-2.0259 4.13041,-4.94088 4.04439,-8.0933 0.0267,-1.83485 -1.05832,-3.6866 -2.73537,-4.51675 -2.36821,-1.13958 -5.18046,-0.64764 -7.4622,0.48316 -1.19784,0.535 -2.22007,1.35939 -3.24734,2.15829 -0.289984,0.30849 -0.706974,-0.16357 -0.499961,-0.47055 1.394681,-1.40394 3.169591,-2.40414 5.035011,-3.04208 -1.6985,-0.37688 -3.38524,-0.79374 -5.107333,-1.03533 v -3e-4 c -0.09299,-0.008 -0.185397,-0.0236 -0.278791,-0.0213 z m 10.100344,5.10404 c 0.13524,0.005 0.24833,0.0424 0.35441,0.11194 0.26116,0.17112 0.57842,0.59776 0.70223,0.9447 0.13935,0.39049 0.13298,1.09127 -0.0132,1.45667 -0.14714,0.36774 -0.38601,0.52163 -1.2433,0.80036 -1.20647,0.39224 -1.98434,0.88147 -2.83411,1.78227 -0.91671,0.97176 -1.39885,1.88868 -1.71325,3.25845 -0.28247,1.23065 -0.44211,1.70375 -0.63621,1.8861 -0.35262,0.33127 -1.24829,0.40724 -1.92632,0.16325 -1.09836,-0.39524 -1.450856,-0.87578 -1.30631,-1.78017 0.13106,-0.82009 0.68699,-2.63573 0.99842,-3.26054 0.66198,-1.32814 1.84184,-2.65994 3.09549,-3.49403 0.80277,-0.53409 1.39432,-0.81865 2.35095,-1.13076 0.35445,-0.11564 0.9123,-0.32927 1.2397,-0.47475 0.33506,-0.14888 0.58601,-0.23302 0.78835,-0.25688 0.0506,-0.006 0.0981,-0.008 0.14315,-0.007 z m 4.51375,4.45853 c -0.87849,2.45462 -2.55561,4.57521 -4.59808,6.17239 0.83606,0.512595 1.7095,0.985115 2.43498,1.653835 1.04502,0.86543 1.15057,2.30625 1.39305,3.53872 0.638,-0.17322 1.3026,-0.20723 1.96083,-0.20315 0.66807,0.0389 1.35668,-0.013 2.00884,0.13623 0.32226,0.10101 0.2874,0.59096 -0.0555,0.63411 -1.19131,0.15933 -2.42244,-0.17299 -3.59995,0.15064 -1.08521,0.42495 -2.00463,1.27461 -2.77319,2.15499 -1.22353,1.46579 -2.3342,3.07703 -2.97876,4.88707 -0.58002,1.75116 -0.6066,3.79792 0.44204,5.38043 0.48837,0.83877 1.43612,1.37585 2.39267,1.35163 0.32972,-0.0538 0.64619,-0.11996 0.95221,-0.19566 -0.0685,0.009 -0.17562,0.0208 -0.20767,0.0255 -0.0834,0.0122 -0.34651,-0.006 -0.58459,-0.0393 -1.11224,-0.15817 -1.80275,-0.96484 -2.08176,-2.43198 -0.23238,-1.22191 0.0424,-3.01042 0.59509,-3.87365 0.65304,-1.01992 2.08017,-1.64723 3.7476,-1.64723 1.82824,0 2.34634,0.34651 2.75128,1.84019 0.0879,0.32407 0.28196,0.88713 0.43124,1.25111 0.36428,0.88814 0.41696,1.46687 0.17886,1.95873 -0.21169,0.43728 -0.99642,1.24579 -1.61272,1.66403 0.57403,-0.29503 1.12425,-0.60505 1.67214,-0.90659 1.48455,-0.83607 3.08088,-1.53732 4.32558,-2.72247 0.86343,-0.90444 1.5948,-1.94157 2.20211,-3.03368 0.69313,-1.21219 0.70726,-2.63525 0.66592,-3.99158 -0.13039,-2.21452 -0.5316,-4.49694 -1.68294,-6.44307 -1.58648,-2.696915 -4.2793,-4.428505 -6.69635,-6.329025 z" />
      <path
         id="path13428"
         style="fill:#ffffff;fill-opacity:1;stroke-width:0.264583"
         d="m 78.755772,83.590262 c -0.992523,0.02223 -1.938745,0.611222 -2.303219,1.656747 -0.18071,0.518388 -0.28422,4.020942 -0.28422,9.607682 0,7.492039 -0.0587,8.840209 -0.396875,9.120889 -0.27041,0.22442 -0.396875,0.82511 -0.396875,1.88464 v 1.55494 h -1.837614 c -2.288518,0 -3.140556,0.58368 -3.371887,2.30839 -0.137739,1.02692 -0.06985,1.19674 0.846461,2.11305 l 0.99632,0.99632 -0.150379,3.70727 c -0.160858,3.96042 -0.481171,5.42954 -1.82831,8.3907 -0.443651,0.9752 -0.735536,1.95745 -0.649057,2.18281 0.13499,0.35178 0.936521,0.4098 5.669422,0.4098 5.39989,0 5.540777,-0.0139 6.886917,-0.68472 0.75583,-0.37665 1.793888,-1.1753 2.306836,-1.77456 1.423471,-1.66301 1.502595,-3.04609 1.714624,-8.12251 l 0.174151,-4.17339 c 0.209735,-0.0123 0.525632,-0.33477 0.792716,-0.82423 0.1529,1.55138 0.340667,3.53845 0.532267,5.65391 0.395391,4.36563 0.807784,8.18371 0.916223,8.48424 0.19711,0.54625 0.409914,0.60063 6.068364,1.55391 1.307928,0.22035 5.734403,-0.0701 8.027933,-0.52658 1.88057,-0.37426 2.38286,-0.57404 2.5616,-1.01958 0.12229,-0.30485 0.53169,-4.00729 0.90951,-8.2274 0.37781,-4.2201 0.75369,-8.11941 0.83509,-8.66511 0.25694,-1.72352 -0.27626,-1.06995 -0.75706,0.92811 -0.58845,2.44542 -1.95968,4.47939 -3.90416,5.79035 -0.80037,0.5396 -1.69348,1.19842 -1.98437,1.46399 -0.441622,0.40314 -0.987344,0.48266 -3.307293,0.48266 h -2.778125 l -2.030886,-1.40457 c -1.117039,-0.77254 -2.344943,-1.81584 -2.728515,-2.31872 -0.724125,-0.94938 -1.474253,-2.502 -1.873787,-3.79925 0.08223,-0.95523 -0.204436,-1.99575 -1.297078,-2.728 -0.470709,-0.17534 -1.110601,-0.32741 -2.339393,-0.24856 l -1.25677,0.0806 v -1.47226 c 0,-1.14488 -0.117677,-1.57313 -0.529167,-1.92546 -0.510368,-0.437 -0.529167,-0.78031 -0.529167,-9.674866 V 85.149338 L 80.686403,84.37626 c -0.550744,-0.550746 -1.251538,-0.801201 -1.930631,-0.785998 z m 0.235128,1.619023 c 0.170603,-0.0083 0.309403,0.10527 0.500229,0.362251 0.314198,0.423119 0.38137,2.065883 0.38137,9.326563 V 103.711 h -0.929658 -0.929143 l 0.06925,-9.033043 c 0.0646,-8.387071 0.103997,-9.054224 0.548288,-9.326562 0.143658,-0.08806 0.257305,-0.137118 0.359667,-0.14211 z m 17.313671,9.759092 c -0.825836,0.0021 -1.660861,0.216303 -2.538862,0.640789 -0.719802,0.347999 -1.665637,0.71292 -2.102197,0.811319 -1.21621,0.274182 -1.921306,0.841335 -2.108917,1.695505 -0.13635,0.620819 -0.348485,0.809435 -1.060915,0.943094 -1.72335,0.3233 -3.269467,2.981026 -2.533695,4.355806 0.19712,0.36838 0.205417,0.55707 0.02429,0.55707 -0.59341,0 -0.227463,0.82979 0.583427,1.32292 0.76713,0.46653 3.177815,1.10769 5.360397,1.42575 0.43656,0.0636 2.996412,0.0794 5.688542,0.0346 7.110459,-0.11836 10.132609,-1.01295 10.858769,-3.21325 0.64528,-1.95523 -0.1971,-3.795993 -2.23036,-4.874633 -0.65296,-0.346401 -1.31131,-0.902237 -1.46296,-1.235067 -0.32402,-0.71115 -1.77586,-1.660396 -2.54248,-1.661396 -0.29505,-5.29e-4 -0.79678,0.181459 -1.11466,0.404109 -0.53545,0.375039 -0.68228,0.345855 -1.998324,-0.396875 -0.961729,-0.542761 -1.886103,-0.812297 -2.822051,-0.809771 z m 0.159163,1.066086 c 1.489191,0 2.528329,0.589552 3.223059,1.828313 l 0.532787,0.949812 -0.590665,0.685228 c -0.367159,0.425752 -0.985067,0.747944 -1.632458,0.851114 -0.659828,0.10516 -1.268677,0.42736 -1.661395,0.87953 -0.832432,0.95839 -1.87357,0.97463 -2.646352,0.0413 -0.36077,-0.43569 -0.979731,-0.78694 -1.57458,-0.89348 -1.826779,-0.32715 -2.48552,-1.645496 -1.376659,-2.754357 1.04181,-1.041821 2.551528,-0.539202 3.622516,1.206127 0.29613,0.482581 0.316129,0.472834 0.330729,-0.163296 0.0085,-0.372372 -0.159443,-0.908155 -0.373102,-1.190625 -0.213651,-0.282471 -0.391877,-0.583411 -0.396875,-0.66921 -0.01831,-0.339389 1.403956,-0.770496 2.542995,-0.770496 z m 5.814116,0.547769 c 0.35263,-5e-6 0.72647,0.131128 1.10071,0.393259 0.83205,0.582789 0.73427,0.820518 -0.40411,0.982368 -0.5457,0.07758 -1.18505,0.219411 -1.42059,0.314709 -0.62575,0.253262 -0.82399,-0.777258 -0.24959,-1.297077 0.28966,-0.262139 0.62096,-0.393253 0.97358,-0.393259 z m 1.38648,2.293401 c 1.19593,-0.01172 2.27175,0.493818 3.1626,1.508437 0.84295,0.96007 1.07462,2.0204 0.60358,2.76417 -0.18673,0.29484 -0.28819,0.26154 -0.51832,-0.16846 -0.34787,-0.65004 -1.4555,-0.96778 -2.12442,-0.60979 -0.56135,0.30016 -0.85013,1.12699 -0.55913,1.59784 0.1292,0.20905 0.25413,0.0923 0.36225,-0.33848 0.28115,-1.12019 1.56384,-1.21129 1.90531,-0.13539 0.23263,0.73294 -0.11943,1.0028 -1.91048,1.46244 -2.08628,0.53541 -11.967652,0.71009 -14.405321,0.25476 -1.830131,-0.34185 -2.94666,-1.17938 -3.301609,-2.47633 -0.381061,-1.39231 1.926688,-3.566356 2.915068,-2.746087 0.396399,0.328987 0.387792,0.405657 -0.105936,0.931207 -0.6115,0.65091 -0.73278,2.29693 -0.201539,2.73782 0.26315,0.21838 0.336931,0.0464 0.336931,-0.78703 0,-0.74606 0.152411,-1.17802 0.507463,-1.43764 1.31808,-0.9638 3.297179,0.10297 3.33778,1.79937 0.01148,0.48004 0.08661,0.6932 0.166915,0.47491 0.230251,-0.62618 0.91917,-1.32292 1.30793,-1.32292 0.195311,0 0.523886,0.38696 0.730705,0.8599 l 0.376204,0.85989 0.0217,-0.87178 c 0.06595,-2.66408 3.972729,-2.91096 3.998729,-0.25269 0.008,0.80747 0.0318,0.82946 0.39118,0.35449 0.45821,-0.60549 0.2706,-1.64337 -0.43873,-2.42672 -0.495696,-0.54744 -0.49041,-0.55508 0.83871,-1.278474 0.90986,-0.49521 1.78415,-0.745418 2.60242,-0.753443 z m -26.437664,6.687447 h 1.719792 1.719791 v 0.92604 0.92604 h -1.719791 -1.719792 v -0.92604 z m 8.600509,0.63355 c -0.03473,0.003 -0.05817,0.0101 -0.06925,0.0212 -0.662279,0.66228 2.186495,2.07093 5.001247,2.47323 0.934,0.13349 3.557751,0.25743 5.830652,0.27543 5.890606,0.0466 10.068546,-0.77151 10.915096,-2.13733 0.46316,-0.74725 0.0456,-0.79904 -1.85673,-0.22996 -4.7144,1.41032 -13.200792,1.41032 -17.91519,0 -0.872945,-0.26114 -1.662716,-0.42497 -1.905828,-0.40256 z m 2.534213,2.61018 c -0.38736,-0.013 -0.332115,0.52012 0.159679,1.96887 0.6184,1.82171 1.78921,3.39191 3.275769,4.39302 l 1.294495,0.87178 3.70055,-0.0212 c 3.696579,-0.0212 3.702109,-0.0224 4.842599,-0.83767 1.4303,-1.02243 3.00884,-3.28206 3.43493,-4.91701 0.17895,-0.68655 0.26414,-1.30941 0.18914,-1.38442 -0.075,-0.0749 -0.50808,-0.03 -0.96222,0.10026 -3.49387,1.00203 -12.367872,0.92539 -15.741672,-0.13591 -0.07343,-0.0231 -0.137935,-0.0359 -0.19327,-0.0377 z m -11.498006,0.23668 c 0.770864,10e-4 1.600531,0.007 2.451529,0.0171 5.43692,0.0655 6.222669,0.12795 6.46679,0.51522 0.201879,0.32028 0.181451,0.55686 -0.0739,0.86455 -0.308161,0.37132 -1.170435,0.41485 -6.995957,0.35295 l -6.644555,-0.0708 -0.08268,-0.7183 c -0.0653,-0.56611 0.0469,-0.74998 0.529166,-0.86817 0.252445,-0.0619 2.037012,-0.0964 4.349607,-0.0925 z m -3.285587,3.66334 h 5.280297 5.280298 l -0.08217,4.84932 c -0.0814,4.78452 -0.09259,4.86322 -0.810802,5.94744 -0.40966,0.61843 -1.206736,1.34331 -1.823146,1.65778 l -1.095023,0.55862 0.176734,-0.6196 c 0.846269,-2.96256 0.969928,-3.81633 0.899686,-6.22081 -0.0753,-2.57775 -0.08188,-2.60088 -0.737423,-2.60088 -0.650179,0 -0.664596,0.0451 -0.830955,2.64584 -0.1699,2.65613 -0.540295,4.55168 -1.201995,6.15156 -0.326551,0.78951 -0.452622,0.8599 -1.542542,0.8599 -0.652891,0 -1.185269,-0.0893 -1.183391,-0.19844 0.0021,-0.10914 0.233455,-0.93379 0.515215,-1.83245 0.723231,-2.30677 0.987899,-6.65748 0.447519,-7.36182 -0.32539,-0.42411 -0.501181,-0.47095 -0.8847,-0.23668 -0.39574,0.24175 -0.507254,0.791 -0.644922,3.175 -0.149101,2.58226 -0.598085,4.60682 -1.328087,5.99137 -0.171458,0.32519 -0.564724,0.46302 -1.321366,0.46302 -0.918678,0 -1.050607,-0.0682 -0.896067,-0.46302 1.39282,-3.55851 1.562796,-4.43298 1.672765,-8.59896 z" />
    </g>
    <path
       id="path23559"
       style="fill:#db0000;fill-opacity:1;stroke-width:0.0717341"
       d="m 166.46505,83.769942 c -0.55992,-8.58e-4 -1.1564,0.07748 -1.79111,0.234611 -0.77876,0.192799 -3.07993,1.076238 -4.01939,1.543058 -1.38297,0.68721 -3.51334,1.442357 -5.67872,2.012796 -1.84149,0.485111 -1.74189,0.449525 -1.76889,0.633553 -0.0512,0.348552 0.31059,0.546801 1.34307,0.736391 0.86021,0.157898 2.01818,0.184814 2.63912,0.06149 0.71555,-0.14211 1.58821,-0.426569 2.96364,-0.96635 2.67827,-1.05105 3.58536,-1.242426 4.62039,-0.974617 1.08735,0.281339 1.50707,0.670502 1.45676,1.350822 -0.0154,0.208529 -0.0584,0.4098 -0.0956,0.447001 -0.0372,0.03724 -0.55087,0.101959 -1.14153,0.14366 -3.52732,0.249129 -4.91212,0.682588 -6.66936,2.08773 -0.33623,0.268859 -0.97437,0.600096 -3.33572,1.731676 -2.17694,1.04321 -3.60914,2.492074 -3.87366,3.918625 -0.10958,0.591 -0.0901,1.485966 0.0377,1.733227 0.0602,0.116438 0.16123,0.211873 0.22428,0.211873 0.063,0 0.41803,-0.290182 0.7891,-0.644922 2.4826,-2.373381 5.46521,-4.02318 8.37985,-4.634859 1.15872,-0.243232 4.37367,-0.37909 4.95163,-0.209291 0.43561,0.127982 0.82471,0.472699 1.06299,0.942578 0.0975,0.192291 0.2412,0.407943 0.31987,0.479041 0.24072,0.21748 0.95821,0.288494 2.33888,0.230995 l 1.26504,-0.05271 0.045,-0.177769 c 0.0301,-0.119848 -0.002,-0.240239 -0.0977,-0.368969 -0.13877,-0.18633 -0.16611,-0.192058 -1.10329,-0.22996 -0.85856,-0.03476 -1.00036,-0.05951 -1.32964,-0.230476 -0.75968,-0.394441 -1.15521,-1.141621 -1.08262,-2.045869 0.0686,-0.85448 0.62461,-1.610863 1.32757,-1.806094 0.14695,-0.0408 0.71888,-0.0782 1.27124,-0.0832 1.45543,-0.01288 1.46472,-0.01663 1.61489,-0.618567 0.0978,-0.392088 0.2486,-0.466921 0.92087,-0.456819 0.65711,0.0099 0.98436,-0.0846 1.04232,-0.300757 0.0233,-0.08709 0.0428,-0.411734 0.0434,-0.721402 10e-4,-0.597781 -0.11991,-0.976958 -0.36742,-1.150319 -0.0977,-0.06842 -0.15285,-0.238064 -0.2005,-0.617532 -0.0433,-0.34481 -0.11083,-0.568674 -0.19792,-0.655775 -0.23267,-0.232669 -3.47397,-1.19535 -4.93613,-1.466061 -0.30979,-0.05735 -0.63247,-0.0863 -0.96842,-0.08682 z m 11.68146,6.77478 c -1.01341,-0.0013 -2.64816,0.01157 -4.43591,0.03669 -5.75559,0.0809 -5.47315,0.05348 -5.76244,0.548804 -0.45911,0.786119 -0.15613,1.655998 0.65268,1.873787 0.18084,0.0486 1.51135,0.05547 3.96409,0.02067 2.03063,-0.0288 4.18712,-0.03624 4.79196,-0.01654 l 1.09968,0.03617 0.23306,0.254764 c 0.27255,0.297741 0.64868,1.274869 0.76739,1.993678 0.10251,0.620749 0.002,1.140103 -0.32815,1.687753 -0.13293,0.22075 -0.28076,0.519946 -0.32866,0.665075 -0.14067,0.426241 -0.0393,1.29059 0.36071,3.074227 3.04059,13.55747 3.94346,17.63735 4.778,21.59196 0.66649,3.1583 0.70401,3.30295 0.87798,3.40445 0.16011,0.0934 0.20432,0.091 0.62012,-0.0351 0.19606,-0.0595 1.19663,-0.27104 2.22363,-0.47026 1.02701,-0.19922 2.12557,-0.42584 2.4412,-0.50384 0.51399,-0.12698 1.68667,-0.48507 1.74356,-0.53227 0.0228,-0.0189 -0.90011,-2.99027 -7.05331,-22.70197 -0.6589,-2.110781 -1.24618,-3.998855 -1.30483,-4.196126 -0.14706,-0.494591 -0.3734,-0.767784 -0.97566,-1.176674 -0.93862,-0.63727 -1.02472,-0.786921 -1.50946,-2.625161 -0.57073,-2.164292 -0.93156,-2.747124 -1.80403,-2.912483 -0.0592,-0.01121 -0.44357,-0.01679 -1.05161,-0.01757 z m -9.45731,5.558832 c -1.47589,0 -1.50852,0.0095 -1.87172,0.55449 -0.33383,0.500949 -0.78857,0.842939 -1.20768,0.907436 -0.14098,0.02169 -0.61802,0.153782 -1.05988,0.29404 -2.50746,0.795919 -4.64102,2.92839 -5.42706,5.42344 -0.4348,1.38015 -0.41083,0.10059 -0.40462,21.63072 0.003,10.82108 0.0253,19.73059 0.0496,19.79879 0.0243,0.0682 0.0702,0.15799 0.10231,0.19999 0.0667,0.0872 19.48234,0.10105 19.61896,0.014 0.0441,-0.0282 0.1003,-0.20496 0.12454,-0.39326 0.0242,-0.18829 0.0459,-9.09027 0.0486,-19.78226 0.005,-19.12502 0.003,-19.45362 -0.1385,-20.26853 -0.30814,-1.77976 -1.10228,-3.30824 -2.3797,-4.580079 -1.12685,-1.12195 -2.37159,-1.823434 -3.95531,-2.228805 -0.94099,-0.240861 -1.26553,-0.444302 -1.64228,-1.028361 -0.34222,-0.530522 -0.38043,-0.541571 -1.85725,-0.541571 z m -7.00939,9.776666 h 13.72785 c 0.49164,0 0.88728,0.39564 0.88728,0.88728 v 4.2199 c 0,0.49165 -0.39564,0.8878 -0.88728,0.8878 h -13.72785 c -0.49165,0 -0.8878,-0.39615 -0.8878,-0.8878 v -4.2199 c 0,-0.49164 0.39615,-0.88728 0.8878,-0.88728 z"
       inkscape:export-filename="C:\Users\jze\Desktop\tmp\xHainCI\Hinweisschilder\fireextinguisher.png"
       inkscape:export-xdpi="1368.9301"
       inkscape:export-ydpi="1368.9301" />
    <path
       id="rect29907"
       style="fill:#fefffe;fill-opacity:1;stroke-width:2.66525;stroke-linecap:round;stroke-linejoin:round;paint-order:fill markers stroke"
       d="m 50.684964,166.60189 c -7.16982,0 -13.0326,5.8639 -13.0326,13.0337 v 9.14971 c -1.69328,0.71825 -3.05073,1.78674 -3.05073,3.66996 v 16.5045 c 0,2.24218 1.89657,3.41346 4.04734,4.04707 8.02441,2.36404 15.62844,2.36188 24.07334,0 2.15931,-0.60391 4.04707,-1.80489 4.04707,-4.04707 v -16.5045 c 0,-1.88094 -1.3673,-2.91134 -3.05072,-3.6493 v -9.17037 c 0,-7.16981 -5.86389,-13.0337 -13.0337,-13.0337 z m 0,4.79744 c 4.57708,0 8.23627,3.65917 8.23627,8.23626 v 7.62255 c -2.71773,-0.65581 -5.45401,-0.9651 -8.19633,-0.94868 -2.7565,0.0165 -5.51899,0.36155 -8.27512,1.01094 v -7.68481 c 0,-4.57709 3.65809,-8.23626 8.23518,-8.23626 z m 5.4e-4,23.21113 a 3.3113813,3.3113813 0 0 1 3.31159,3.31132 3.3113813,3.3113813 0 0 1 -1.71254,2.89785 v 5.57946 a 1.5991472,1.5991472 0 0 1 -1.59932,1.59932 1.5991472,1.5991472 0 0 1 -1.59905,-1.59932 v -5.57973 a 3.3113813,3.3113813 0 0 1 -1.71199,-2.89758 3.3113813,3.3113813 0 0 1 3.31131,-3.31132 z"
       inkscape:export-filename="C:\Users\jze\Desktop\tmp\xHainCI\Hinweisschilder\lock.png"
       inkscape:export-xdpi="1368.9301"
       inkscape:export-ydpi="1368.9301" />
  </g>
</svg>
