<?xml version="1.0" encoding="UTF-8" standalone="no"?>
<svg
   xmlns:dc="http://purl.org/dc/elements/1.1/"
   xmlns:cc="http://creativecommons.org/ns#"
   xmlns:rdf="http://www.w3.org/1999/02/22-rdf-syntax-ns#"
   xmlns:svg="http://www.w3.org/2000/svg"
   xmlns="http://www.w3.org/2000/svg"
   xmlns:sodipodi="http://sodipodi.sourceforge.net/DTD/sodipodi-0.dtd"
   xmlns:inkscape="http://www.inkscape.org/namespaces/inkscape"
   width="50mm"
   height="50mm"
   id="svg2"
   version="1.1"
   inkscape:version="1.0.2 (e86c870879, 2021-01-15)"
   sodipodi:docname="xHain_stickers_5cm_textiles_v2.svg"
   inkscape:export-filename="/home/xHain_stickers_5cm_textiles.png"
   inkscape:export-xdpi="350"
   inkscape:export-ydpi="350">
  <sodipodi:namedview
     id="base"
     pagecolor="#ffffff"
     bordercolor="#666666"
     borderopacity="1.0"
     inkscape:pageopacity="0.0"
     inkscape:pageshadow="2"
     inkscape:zoom="2.9288315"
     inkscape:cx="49.188192"
     inkscape:cy="99.542753"
     inkscape:document-units="mm"
     inkscape:current-layer="layer1"
     showgrid="false"
     inkscape:window-width="1920"
     inkscape:window-height="1032"
     inkscape:window-x="0"
     inkscape:window-y="0"
     inkscape:window-maximized="1"
     showguides="true"
     inkscape:guide-bbox="true"
     units="mm"
     inkscape:document-rotation="0">
    <inkscape:grid
       type="xygrid"
       id="grid2985"
       empspacing="5"
       visible="true"
       enabled="true"
       snapvisiblegridlinesonly="true" />
  </sodipodi:namedview>
  <defs
     id="defs4">
    <marker
       inkscape:stockid="DotS"
       orient="auto"
       refY="0"
       refX="0"
       id="DotS"
       style="overflow:visible">
      <path
         id="path3828"
         d="m -2.5,-1 c 0,2.76 -2.24,5 -5,5 -2.76,0 -5,-2.24 -5,-5 0,-2.76 2.24,-5 5,-5 2.76,0 5,2.24 5,5 z"
         style="fill-rule:evenodd;stroke:#000000;stroke-width:1pt"
         transform="matrix(0.2,0,0,0.2,1.48,0.2)"
         inkscape:connector-curvature="0" />
    </marker>
    <marker
       inkscape:stockid="DotS"
       orient="auto"
       refY="0"
       refX="0"
       id="DotS-1"
       style="overflow:visible">
      <path
         inkscape:connector-curvature="0"
         id="path3828-5"
         d="m -2.5,-1 c 0,2.76 -2.24,5 -5,5 -2.76,0 -5,-2.24 -5,-5 0,-2.76 2.24,-5 5,-5 2.76,0 5,2.24 5,5 z"
         style="fill-rule:evenodd;stroke:#000000;stroke-width:1pt"
         transform="matrix(0.2,0,0,0.2,1.48,0.2)" />
    </marker>
    <marker
       inkscape:stockid="DotS"
       orient="auto"
       refY="0"
       refX="0"
       id="marker4395"
       style="overflow:visible">
      <path
         inkscape:connector-curvature="0"
         id="path4397"
         d="m -2.5,-1 c 0,2.76 -2.24,5 -5,5 -2.76,0 -5,-2.24 -5,-5 0,-2.76 2.24,-5 5,-5 2.76,0 5,2.24 5,5 z"
         style="fill-rule:evenodd;stroke:#000000;stroke-width:1pt"
         transform="matrix(0.2,0,0,0.2,1.48,0.2)" />
    </marker>
    <marker
       inkscape:stockid="DotS"
       orient="auto"
       refY="0"
       refX="0"
       id="DotS-3"
       style="overflow:visible">
      <path
         inkscape:connector-curvature="0"
         id="path3828-0"
         d="m -2.5,-1 c 0,2.76 -2.24,5 -5,5 -2.76,0 -5,-2.24 -5,-5 0,-2.76 2.24,-5 5,-5 2.76,0 5,2.24 5,5 z"
         style="fill-rule:evenodd;stroke:#000000;stroke-width:1pt"
         transform="matrix(0.2,0,0,0.2,1.48,0.2)" />
    </marker>
    <marker
       inkscape:stockid="DotS"
       orient="auto"
       refY="0"
       refX="0"
       id="marker4427"
       style="overflow:visible">
      <path
         inkscape:connector-curvature="0"
         id="path4429"
         d="m -2.5,-1 c 0,2.76 -2.24,5 -5,5 -2.76,0 -5,-2.24 -5,-5 0,-2.76 2.24,-5 5,-5 2.76,0 5,2.24 5,5 z"
         style="fill-rule:evenodd;stroke:#000000;stroke-width:1pt"
         transform="matrix(0.2,0,0,0.2,1.48,0.2)" />
    </marker>
    <marker
       inkscape:stockid="DotS"
       orient="auto"
       refY="0"
       refX="0"
       id="DotS-2"
       style="overflow:visible">
      <path
         inkscape:connector-curvature="0"
         id="path3828-1"
         d="m -2.5,-1 c 0,2.76 -2.24,5 -5,5 -2.76,0 -5,-2.24 -5,-5 0,-2.76 2.24,-5 5,-5 2.76,0 5,2.24 5,5 z"
         style="fill-rule:evenodd;stroke:#000000;stroke-width:1pt"
         transform="matrix(0.2,0,0,0.2,1.48,0.2)" />
    </marker>
    <marker
       inkscape:stockid="DotS"
       orient="auto"
       refY="0"
       refX="0"
       id="marker4427-3"
       style="overflow:visible">
      <path
         inkscape:connector-curvature="0"
         id="path4429-9"
         d="m -2.5,-1 c 0,2.76 -2.24,5 -5,5 -2.76,0 -5,-2.24 -5,-5 0,-2.76 2.24,-5 5,-5 2.76,0 5,2.24 5,5 z"
         style="fill-rule:evenodd;stroke:#000000;stroke-width:1pt"
         transform="matrix(0.2,0,0,0.2,1.48,0.2)" />
    </marker>
    <marker
       inkscape:stockid="DotS"
       orient="auto"
       refY="0"
       refX="0"
       id="DotS-21"
       style="overflow:visible">
      <path
         inkscape:connector-curvature="0"
         id="path3828-6"
         d="m -2.5,-1 c 0,2.76 -2.24,5 -5,5 -2.76,0 -5,-2.24 -5,-5 0,-2.76 2.24,-5 5,-5 2.76,0 5,2.24 5,5 z"
         style="fill-rule:evenodd;stroke:#000000;stroke-width:1pt"
         transform="matrix(0.2,0,0,0.2,1.48,0.2)" />
    </marker>
    <marker
       inkscape:stockid="DotS"
       orient="auto"
       refY="0"
       refX="0"
       id="marker4474"
       style="overflow:visible">
      <path
         inkscape:connector-curvature="0"
         id="path4476"
         d="m -2.5,-1 c 0,2.76 -2.24,5 -5,5 -2.76,0 -5,-2.24 -5,-5 0,-2.76 2.24,-5 5,-5 2.76,0 5,2.24 5,5 z"
         style="fill-rule:evenodd;stroke:#000000;stroke-width:1pt"
         transform="matrix(0.2,0,0,0.2,1.48,0.2)" />
    </marker>
    <marker
       inkscape:stockid="DotS"
       orient="auto"
       refY="0"
       refX="0"
       id="DotS-36"
       style="overflow:visible">
      <path
         inkscape:connector-curvature="0"
         id="path3828-8"
         d="m -2.5,-1 c 0,2.76 -2.24,5 -5,5 -2.76,0 -5,-2.24 -5,-5 0,-2.76 2.24,-5 5,-5 2.76,0 5,2.24 5,5 z"
         style="fill-rule:evenodd;stroke:#000000;stroke-width:1pt"
         transform="matrix(0.2,0,0,0.2,1.48,0.2)" />
    </marker>
    <marker
       inkscape:stockid="DotS"
       orient="auto"
       refY="0"
       refX="0"
       id="marker4516"
       style="overflow:visible">
      <path
         inkscape:connector-curvature="0"
         id="path4518"
         d="m -2.5,-1 c 0,2.76 -2.24,5 -5,5 -2.76,0 -5,-2.24 -5,-5 0,-2.76 2.24,-5 5,-5 2.76,0 5,2.24 5,5 z"
         style="fill-rule:evenodd;stroke:#000000;stroke-width:1pt"
         transform="matrix(0.2,0,0,0.2,1.48,0.2)" />
    </marker>
    <marker
       inkscape:stockid="DotS"
       orient="auto"
       refY="0"
       refX="0"
       id="DotS-11"
       style="overflow:visible">
      <path
         inkscape:connector-curvature="0"
         id="path3828-58"
         d="m -2.5,-1 c 0,2.76 -2.24,5 -5,5 -2.76,0 -5,-2.24 -5,-5 0,-2.76 2.24,-5 5,-5 2.76,0 5,2.24 5,5 z"
         style="fill-rule:evenodd;stroke:#000000;stroke-width:1pt"
         transform="matrix(0.2,0,0,0.2,1.48,0.2)" />
    </marker>
    <marker
       inkscape:stockid="DotS"
       orient="auto"
       refY="0"
       refX="0"
       id="marker4954"
       style="overflow:visible">
      <path
         inkscape:connector-curvature="0"
         id="path4956"
         d="m -2.5,-1 c 0,2.76 -2.24,5 -5,5 -2.76,0 -5,-2.24 -5,-5 0,-2.76 2.24,-5 5,-5 2.76,0 5,2.24 5,5 z"
         style="fill-rule:evenodd;stroke:#000000;stroke-width:1pt"
         transform="matrix(0.2,0,0,0.2,1.48,0.2)" />
    </marker>
    <marker
       inkscape:stockid="DotS"
       orient="auto"
       refY="0"
       refX="0"
       id="DotS-7"
       style="overflow:visible">
      <path
         inkscape:connector-curvature="0"
         id="path3828-3"
         d="m -2.5,-1 c 0,2.76 -2.24,5 -5,5 -2.76,0 -5,-2.24 -5,-5 0,-2.76 2.24,-5 5,-5 2.76,0 5,2.24 5,5 z"
         style="fill-rule:evenodd;stroke:#000000;stroke-width:1pt"
         transform="matrix(0.2,0,0,0.2,1.48,0.2)" />
    </marker>
    <marker
       inkscape:stockid="DotS"
       orient="auto"
       refY="0"
       refX="0"
       id="marker5024"
       style="overflow:visible">
      <path
         inkscape:connector-curvature="0"
         id="path5026"
         d="m -2.5,-1 c 0,2.76 -2.24,5 -5,5 -2.76,0 -5,-2.24 -5,-5 0,-2.76 2.24,-5 5,-5 2.76,0 5,2.24 5,5 z"
         style="fill-rule:evenodd;stroke:#000000;stroke-width:1pt"
         transform="matrix(0.2,0,0,0.2,1.48,0.2)" />
    </marker>
    <marker
       inkscape:stockid="DotS"
       orient="auto"
       refY="0"
       refX="0"
       id="DotS-34"
       style="overflow:visible">
      <path
         inkscape:connector-curvature="0"
         id="path3828-16"
         d="m -2.5,-1 c 0,2.76 -2.24,5 -5,5 -2.76,0 -5,-2.24 -5,-5 0,-2.76 2.24,-5 5,-5 2.76,0 5,2.24 5,5 z"
         style="fill-rule:evenodd;stroke:#000000;stroke-width:1pt"
         transform="matrix(0.2,0,0,0.2,1.48,0.2)" />
    </marker>
    <marker
       inkscape:stockid="DotS"
       orient="auto"
       refY="0"
       refX="0"
       id="marker5056"
       style="overflow:visible">
      <path
         inkscape:connector-curvature="0"
         id="path5058"
         d="m -2.5,-1 c 0,2.76 -2.24,5 -5,5 -2.76,0 -5,-2.24 -5,-5 0,-2.76 2.24,-5 5,-5 2.76,0 5,2.24 5,5 z"
         style="fill-rule:evenodd;stroke:#000000;stroke-width:1pt"
         transform="matrix(0.2,0,0,0.2,1.48,0.2)" />
    </marker>
    <marker
       inkscape:stockid="DotS"
       orient="auto"
       refY="0"
       refX="0"
       id="marker4516-8"
       style="overflow:visible">
      <path
         inkscape:connector-curvature="0"
         id="path4518-5"
         d="m -2.5,-1 c 0,2.76 -2.24,5 -5,5 -2.76,0 -5,-2.24 -5,-5 0,-2.76 2.24,-5 5,-5 2.76,0 5,2.24 5,5 z"
         style="fill-rule:evenodd;stroke:#000000;stroke-width:1pt"
         transform="matrix(0.2,0,0,0.2,1.48,0.2)" />
    </marker>
    <marker
       inkscape:stockid="DotS"
       orient="auto"
       refY="0"
       refX="0"
       id="marker5088"
       style="overflow:visible">
      <path
         inkscape:connector-curvature="0"
         id="path5090"
         d="m -2.5,-1 c 0,2.76 -2.24,5 -5,5 -2.76,0 -5,-2.24 -5,-5 0,-2.76 2.24,-5 5,-5 2.76,0 5,2.24 5,5 z"
         style="fill-rule:evenodd;stroke:#000000;stroke-width:1pt"
         transform="matrix(0.2,0,0,0.2,1.48,0.2)" />
    </marker>
    <marker
       inkscape:stockid="DotS"
       orient="auto"
       refY="0"
       refX="0"
       id="marker4516-9"
       style="overflow:visible">
      <path
         inkscape:connector-curvature="0"
         id="path4518-55"
         d="m -2.5,-1 c 0,2.76 -2.24,5 -5,5 -2.76,0 -5,-2.24 -5,-5 0,-2.76 2.24,-5 5,-5 2.76,0 5,2.24 5,5 z"
         style="fill-rule:evenodd;stroke:#000000;stroke-width:1pt"
         transform="matrix(0.2,0,0,0.2,1.48,0.2)" />
    </marker>
    <marker
       inkscape:stockid="DotS"
       orient="auto"
       refY="0"
       refX="0"
       id="marker5137"
       style="overflow:visible">
      <path
         inkscape:connector-curvature="0"
         id="path5139"
         d="m -2.5,-1 c 0,2.76 -2.24,5 -5,5 -2.76,0 -5,-2.24 -5,-5 0,-2.76 2.24,-5 5,-5 2.76,0 5,2.24 5,5 z"
         style="fill-rule:evenodd;stroke:#000000;stroke-width:1pt"
         transform="matrix(0.2,0,0,0.2,1.48,0.2)" />
    </marker>
    <marker
       inkscape:stockid="DotS"
       orient="auto"
       refY="0"
       refX="0"
       id="DotS-0"
       style="overflow:visible">
      <path
         inkscape:connector-curvature="0"
         id="path3828-4"
         d="m -2.5,-1 c 0,2.76 -2.24,5 -5,5 -2.76,0 -5,-2.24 -5,-5 0,-2.76 2.24,-5 5,-5 2.76,0 5,2.24 5,5 z"
         style="fill-rule:evenodd;stroke:#000000;stroke-width:1pt"
         transform="matrix(0.2,0,0,0.2,1.48,0.2)" />
    </marker>
    <marker
       inkscape:stockid="DotS"
       orient="auto"
       refY="0"
       refX="0"
       id="marker5169"
       style="overflow:visible">
      <path
         inkscape:connector-curvature="0"
         id="path5171"
         d="m -2.5,-1 c 0,2.76 -2.24,5 -5,5 -2.76,0 -5,-2.24 -5,-5 0,-2.76 2.24,-5 5,-5 2.76,0 5,2.24 5,5 z"
         style="fill-rule:evenodd;stroke:#000000;stroke-width:1pt"
         transform="matrix(0.2,0,0,0.2,1.48,0.2)" />
    </marker>
    <marker
       inkscape:stockid="DotS"
       orient="auto"
       refY="0"
       refX="0"
       id="DotS-8"
       style="overflow:visible">
      <path
         inkscape:connector-curvature="0"
         id="path3828-66"
         d="m -2.5,-1 c 0,2.76 -2.24,5 -5,5 -2.76,0 -5,-2.24 -5,-5 0,-2.76 2.24,-5 5,-5 2.76,0 5,2.24 5,5 z"
         style="fill-rule:evenodd;stroke:#000000;stroke-width:1pt"
         transform="matrix(0.2,0,0,0.2,1.48,0.2)" />
    </marker>
    <marker
       inkscape:stockid="DotS"
       orient="auto"
       refY="0"
       refX="0"
       id="marker5218"
       style="overflow:visible">
      <path
         inkscape:connector-curvature="0"
         id="path5220"
         d="m -2.5,-1 c 0,2.76 -2.24,5 -5,5 -2.76,0 -5,-2.24 -5,-5 0,-2.76 2.24,-5 5,-5 2.76,0 5,2.24 5,5 z"
         style="fill-rule:evenodd;stroke:#000000;stroke-width:1pt"
         transform="matrix(0.2,0,0,0.2,1.48,0.2)" />
    </marker>
    <marker
       inkscape:stockid="DotSv"
       orient="auto"
       refY="0"
       refX="0"
       id="DotSv"
       style="overflow:visible">
      <path
         id="path5753"
         d="m -2.5,-1 c 0,2.76 -2.24,5 -5,5 -2.76,0 -5,-2.24 -5,-5 0,-2.76 2.24,-5 5,-5 2.76,0 5,2.24 5,5 z"
         style="fill:#858585;fill-rule:evenodd;stroke:#858585;stroke-width:1pt"
         transform="matrix(0.2,0,0,0.2,1.48,0.2)"
         inkscape:connector-curvature="0" />
    </marker>
    <marker
       inkscape:stockid="DotSs"
       orient="auto"
       refY="0"
       refX="0"
       id="DotSs"
       style="overflow:visible">
      <path
         id="path5756"
         d="m -2.5,-1 c 0,2.76 -2.24,5 -5,5 -2.76,0 -5,-2.24 -5,-5 0,-2.76 2.24,-5 5,-5 2.76,0 5,2.24 5,5 z"
         style="fill:#858585;fill-rule:evenodd;stroke:#858585;stroke-width:1pt"
         transform="matrix(0.2,0,0,0.2,1.48,0.2)"
         inkscape:connector-curvature="0" />
    </marker>
    <marker
       inkscape:stockid="DotSk"
       orient="auto"
       refY="0"
       refX="0"
       id="DotSk"
       style="overflow:visible">
      <path
         id="path5759"
         d="m -2.5,-1 c 0,2.76 -2.24,5 -5,5 -2.76,0 -5,-2.24 -5,-5 0,-2.76 2.24,-5 5,-5 2.76,0 5,2.24 5,5 z"
         style="fill:#858585;fill-rule:evenodd;stroke:#858585;stroke-width:1pt"
         transform="matrix(0.2,0,0,0.2,1.48,0.2)"
         inkscape:connector-curvature="0" />
    </marker>
    <marker
       inkscape:stockid="DotSK"
       orient="auto"
       refY="0"
       refX="0"
       id="DotSK"
       style="overflow:visible">
      <path
         id="path5762"
         d="m -2.5,-1 c 0,2.76 -2.24,5 -5,5 -2.76,0 -5,-2.24 -5,-5 0,-2.76 2.24,-5 5,-5 2.76,0 5,2.24 5,5 z"
         style="fill:#858585;fill-rule:evenodd;stroke:#858585;stroke-width:1pt"
         transform="matrix(0.2,0,0,0.2,1.48,0.2)"
         inkscape:connector-curvature="0" />
    </marker>
    <marker
       inkscape:stockid="DotSQ"
       orient="auto"
       refY="0"
       refX="0"
       id="DotSQ"
       style="overflow:visible">
      <path
         id="path5765"
         d="m -2.5,-1 c 0,2.76 -2.24,5 -5,5 -2.76,0 -5,-2.24 -5,-5 0,-2.76 2.24,-5 5,-5 2.76,0 5,2.24 5,5 z"
         style="fill:#858585;fill-rule:evenodd;stroke:#858585;stroke-width:1pt"
         transform="matrix(0.2,0,0,0.2,1.48,0.2)"
         inkscape:connector-curvature="0" />
    </marker>
    <marker
       inkscape:stockid="DotSg"
       orient="auto"
       refY="0"
       refX="0"
       id="DotSg"
       style="overflow:visible">
      <path
         id="path5768"
         d="m -2.5,-1 c 0,2.76 -2.24,5 -5,5 -2.76,0 -5,-2.24 -5,-5 0,-2.76 2.24,-5 5,-5 2.76,0 5,2.24 5,5 z"
         style="fill:#858585;fill-rule:evenodd;stroke:#858585;stroke-width:1pt"
         transform="matrix(0.2,0,0,0.2,1.48,0.2)"
         inkscape:connector-curvature="0" />
    </marker>
    <marker
       inkscape:stockid="marker4516J"
       orient="auto"
       refY="0"
       refX="0"
       id="marker4516J"
       style="overflow:visible">
      <path
         inkscape:connector-curvature="0"
         id="path5771"
         d="m -2.5,-1 c 0,2.76 -2.24,5 -5,5 -2.76,0 -5,-2.24 -5,-5 0,-2.76 2.24,-5 5,-5 2.76,0 5,2.24 5,5 z"
         style="fill:#858585;fill-rule:evenodd;stroke:#858585;stroke-width:1pt"
         transform="matrix(0.2,0,0,0.2,1.48,0.2)" />
    </marker>
    <marker
       inkscape:stockid="marker4516P"
       orient="auto"
       refY="0"
       refX="0"
       id="marker4516P"
       style="overflow:visible">
      <path
         inkscape:connector-curvature="0"
         id="path5774"
         d="m -2.5,-1 c 0,2.76 -2.24,5 -5,5 -2.76,0 -5,-2.24 -5,-5 0,-2.76 2.24,-5 5,-5 2.76,0 5,2.24 5,5 z"
         style="fill:#858585;fill-rule:evenodd;stroke:#858585;stroke-width:1pt"
         transform="matrix(0.2,0,0,0.2,1.48,0.2)" />
    </marker>
    <marker
       inkscape:stockid="DotSC"
       orient="auto"
       refY="0"
       refX="0"
       id="DotSC"
       style="overflow:visible">
      <path
         id="path5777"
         d="m -2.5,-1 c 0,2.76 -2.24,5 -5,5 -2.76,0 -5,-2.24 -5,-5 0,-2.76 2.24,-5 5,-5 2.76,0 5,2.24 5,5 z"
         style="fill:#858585;fill-rule:evenodd;stroke:#858585;stroke-width:1pt"
         transform="matrix(0.2,0,0,0.2,1.48,0.2)"
         inkscape:connector-curvature="0" />
    </marker>
    <marker
       inkscape:stockid="DotSL"
       orient="auto"
       refY="0"
       refX="0"
       id="DotSL"
       style="overflow:visible">
      <path
         id="path5780"
         d="m -2.5,-1 c 0,2.76 -2.24,5 -5,5 -2.76,0 -5,-2.24 -5,-5 0,-2.76 2.24,-5 5,-5 2.76,0 5,2.24 5,5 z"
         style="fill:#858585;fill-rule:evenodd;stroke:#858585;stroke-width:1pt"
         transform="matrix(0.2,0,0,0.2,1.48,0.2)"
         inkscape:connector-curvature="0" />
    </marker>
    <marker
       inkscape:stockid="DotSf"
       orient="auto"
       refY="0"
       refX="0"
       id="DotSf"
       style="overflow:visible">
      <path
         id="path5783"
         d="m -2.5,-1 c 0,2.76 -2.24,5 -5,5 -2.76,0 -5,-2.24 -5,-5 0,-2.76 2.24,-5 5,-5 2.76,0 5,2.24 5,5 z"
         style="fill:#858585;fill-rule:evenodd;stroke:#858585;stroke-width:1pt"
         transform="matrix(0.2,0,0,0.2,1.48,0.2)"
         inkscape:connector-curvature="0" />
    </marker>
    <marker
       inkscape:stockid="DotS7"
       orient="auto"
       refY="0"
       refX="0"
       id="DotS7"
       style="overflow:visible">
      <path
         id="path5786"
         d="m -2.5,-1 c 0,2.76 -2.24,5 -5,5 -2.76,0 -5,-2.24 -5,-5 0,-2.76 2.24,-5 5,-5 2.76,0 5,2.24 5,5 z"
         style="fill:#858585;fill-rule:evenodd;stroke:#858585;stroke-width:1pt"
         transform="matrix(0.2,0,0,0.2,1.48,0.2)"
         inkscape:connector-curvature="0" />
    </marker>
    <marker
       inkscape:stockid="DotSS"
       orient="auto"
       refY="0"
       refX="0"
       id="DotSS"
       style="overflow:visible">
      <path
         id="path5789"
         d="m -2.5,-1 c 0,2.76 -2.24,5 -5,5 -2.76,0 -5,-2.24 -5,-5 0,-2.76 2.24,-5 5,-5 2.76,0 5,2.24 5,5 z"
         style="fill:#858585;fill-rule:evenodd;stroke:#858585;stroke-width:1pt"
         transform="matrix(0.2,0,0,0.2,1.48,0.2)"
         inkscape:connector-curvature="0" />
    </marker>
    <marker
       inkscape:stockid="DotSy"
       orient="auto"
       refY="0"
       refX="0"
       id="DotSy"
       style="overflow:visible">
      <path
         id="path5792"
         d="m -2.5,-1 c 0,2.76 -2.24,5 -5,5 -2.76,0 -5,-2.24 -5,-5 0,-2.76 2.24,-5 5,-5 2.76,0 5,2.24 5,5 z"
         style="fill:#858585;fill-rule:evenodd;stroke:#858585;stroke-width:1pt"
         transform="matrix(0.2,0,0,0.2,1.48,0.2)"
         inkscape:connector-curvature="0" />
    </marker>
    <marker
       inkscape:stockid="marker4516C"
       orient="auto"
       refY="0"
       refX="0"
       id="marker4516C"
       style="overflow:visible">
      <path
         inkscape:connector-curvature="0"
         id="path5795"
         d="m -2.5,-1 c 0,2.76 -2.24,5 -5,5 -2.76,0 -5,-2.24 -5,-5 0,-2.76 2.24,-5 5,-5 2.76,0 5,2.24 5,5 z"
         style="fill:#858585;fill-rule:evenodd;stroke:#858585;stroke-width:1pt"
         transform="matrix(0.2,0,0,0.2,1.48,0.2)" />
    </marker>
    <marker
       inkscape:stockid="marker45162"
       orient="auto"
       refY="0"
       refX="0"
       id="marker45162"
       style="overflow:visible">
      <path
         inkscape:connector-curvature="0"
         id="path5798"
         d="m -2.5,-1 c 0,2.76 -2.24,5 -5,5 -2.76,0 -5,-2.24 -5,-5 0,-2.76 2.24,-5 5,-5 2.76,0 5,2.24 5,5 z"
         style="fill:#858585;fill-rule:evenodd;stroke:#858585;stroke-width:1pt"
         transform="matrix(0.2,0,0,0.2,1.48,0.2)" />
    </marker>
    <marker
       inkscape:stockid="DotSG"
       orient="auto"
       refY="0"
       refX="0"
       id="DotSG"
       style="overflow:visible">
      <path
         id="path5801"
         d="m -2.5,-1 c 0,2.76 -2.24,5 -5,5 -2.76,0 -5,-2.24 -5,-5 0,-2.76 2.24,-5 5,-5 2.76,0 5,2.24 5,5 z"
         style="fill:#858585;fill-rule:evenodd;stroke:#858585;stroke-width:1pt"
         transform="matrix(0.2,0,0,0.2,1.48,0.2)"
         inkscape:connector-curvature="0" />
    </marker>
    <marker
       inkscape:stockid="DotS5"
       orient="auto"
       refY="0"
       refX="0"
       id="DotS5"
       style="overflow:visible">
      <path
         id="path5804"
         d="m -2.5,-1 c 0,2.76 -2.24,5 -5,5 -2.76,0 -5,-2.24 -5,-5 0,-2.76 2.24,-5 5,-5 2.76,0 5,2.24 5,5 z"
         style="fill:#858585;fill-rule:evenodd;stroke:#858585;stroke-width:1pt"
         transform="matrix(0.2,0,0,0.2,1.48,0.2)"
         inkscape:connector-curvature="0" />
    </marker>
    <marker
       inkscape:stockid="DotSsA"
       orient="auto"
       refY="0"
       refX="0"
       id="DotSsA"
       style="overflow:visible">
      <path
         id="path5807"
         d="m -2.5,-1 c 0,2.76 -2.24,5 -5,5 -2.76,0 -5,-2.24 -5,-5 0,-2.76 2.24,-5 5,-5 2.76,0 5,2.24 5,5 z"
         style="fill:#858585;fill-rule:evenodd;stroke:#858585;stroke-width:1pt"
         transform="matrix(0.2,0,0,0.2,1.48,0.2)"
         inkscape:connector-curvature="0" />
    </marker>
    <marker
       inkscape:stockid="DotSLd"
       orient="auto"
       refY="0"
       refX="0"
       id="DotSLd"
       style="overflow:visible">
      <path
         id="path5810"
         d="m -2.5,-1 c 0,2.76 -2.24,5 -5,5 -2.76,0 -5,-2.24 -5,-5 0,-2.76 2.24,-5 5,-5 2.76,0 5,2.24 5,5 z"
         style="fill:#858585;fill-rule:evenodd;stroke:#858585;stroke-width:1pt"
         transform="matrix(0.2,0,0,0.2,1.48,0.2)"
         inkscape:connector-curvature="0" />
    </marker>
    <marker
       inkscape:stockid="DotSd"
       orient="auto"
       refY="0"
       refX="0"
       id="DotSd"
       style="overflow:visible">
      <path
         id="path5813"
         d="m -2.5,-1 c 0,2.76 -2.24,5 -5,5 -2.76,0 -5,-2.24 -5,-5 0,-2.76 2.24,-5 5,-5 2.76,0 5,2.24 5,5 z"
         style="fill:#858585;fill-rule:evenodd;stroke:#858585;stroke-width:1pt"
         transform="matrix(0.2,0,0,0.2,1.48,0.2)"
         inkscape:connector-curvature="0" />
    </marker>
    <marker
       inkscape:stockid="DotSyI"
       orient="auto"
       refY="0"
       refX="0"
       id="DotSyI"
       style="overflow:visible">
      <path
         id="path5816"
         d="m -2.5,-1 c 0,2.76 -2.24,5 -5,5 -2.76,0 -5,-2.24 -5,-5 0,-2.76 2.24,-5 5,-5 2.76,0 5,2.24 5,5 z"
         style="fill:#858585;fill-rule:evenodd;stroke:#858585;stroke-width:1pt"
         transform="matrix(0.2,0,0,0.2,1.48,0.2)"
         inkscape:connector-curvature="0" />
    </marker>
    <marker
       inkscape:stockid="marker4516y"
       orient="auto"
       refY="0"
       refX="0"
       id="marker4516y"
       style="overflow:visible">
      <path
         inkscape:connector-curvature="0"
         id="path5819"
         d="m -2.5,-1 c 0,2.76 -2.24,5 -5,5 -2.76,0 -5,-2.24 -5,-5 0,-2.76 2.24,-5 5,-5 2.76,0 5,2.24 5,5 z"
         style="fill:#858585;fill-rule:evenodd;stroke:#858585;stroke-width:1pt"
         transform="matrix(0.2,0,0,0.2,1.48,0.2)" />
    </marker>
    <marker
       inkscape:stockid="marker4516I"
       orient="auto"
       refY="0"
       refX="0"
       id="marker4516I"
       style="overflow:visible">
      <path
         inkscape:connector-curvature="0"
         id="path5822"
         d="m -2.5,-1 c 0,2.76 -2.24,5 -5,5 -2.76,0 -5,-2.24 -5,-5 0,-2.76 2.24,-5 5,-5 2.76,0 5,2.24 5,5 z"
         style="fill:#858585;fill-rule:evenodd;stroke:#858585;stroke-width:1pt"
         transform="matrix(0.2,0,0,0.2,1.48,0.2)" />
    </marker>
    <marker
       inkscape:stockid="marker5218b"
       orient="auto"
       refY="0"
       refX="0"
       id="marker5218b"
       style="overflow:visible">
      <path
         inkscape:connector-curvature="0"
         id="path5825"
         d="m -2.5,-1 c 0,2.76 -2.24,5 -5,5 -2.76,0 -5,-2.24 -5,-5 0,-2.76 2.24,-5 5,-5 2.76,0 5,2.24 5,5 z"
         style="fill:#858585;fill-rule:evenodd;stroke:#858585;stroke-width:1pt"
         transform="matrix(0.2,0,0,0.2,1.48,0.2)" />
    </marker>
    <marker
       inkscape:stockid="marker5218X"
       orient="auto"
       refY="0"
       refX="0"
       id="marker5218X"
       style="overflow:visible">
      <path
         inkscape:connector-curvature="0"
         id="path5828"
         d="m -2.5,-1 c 0,2.76 -2.24,5 -5,5 -2.76,0 -5,-2.24 -5,-5 0,-2.76 2.24,-5 5,-5 2.76,0 5,2.24 5,5 z"
         style="fill:#858585;fill-rule:evenodd;stroke:#858585;stroke-width:1pt"
         transform="matrix(0.2,0,0,0.2,1.48,0.2)" />
    </marker>
    <marker
       inkscape:stockid="DotSQL"
       orient="auto"
       refY="0"
       refX="0"
       id="DotSQL"
       style="overflow:visible">
      <path
         id="path6109"
         d="m -2.5,-1 c 0,2.76 -2.24,5 -5,5 -2.76,0 -5,-2.24 -5,-5 0,-2.76 2.24,-5 5,-5 2.76,0 5,2.24 5,5 z"
         style="fill:#ffc400;fill-rule:evenodd;stroke:#ffc400;stroke-width:1pt"
         transform="matrix(0.2,0,0,0.2,1.48,0.2)"
         inkscape:connector-curvature="0" />
    </marker>
    <marker
       inkscape:stockid="DotSgb"
       orient="auto"
       refY="0"
       refX="0"
       id="DotSgb"
       style="overflow:visible">
      <path
         id="path6112"
         d="m -2.5,-1 c 0,2.76 -2.24,5 -5,5 -2.76,0 -5,-2.24 -5,-5 0,-2.76 2.24,-5 5,-5 2.76,0 5,2.24 5,5 z"
         style="fill:#ffc400;fill-rule:evenodd;stroke:#ffc400;stroke-width:1pt"
         transform="matrix(0.2,0,0,0.2,1.48,0.2)"
         inkscape:connector-curvature="0" />
    </marker>
    <marker
       inkscape:stockid="marker4516J6"
       orient="auto"
       refY="0"
       refX="0"
       id="marker4516J6"
       style="overflow:visible">
      <path
         inkscape:connector-curvature="0"
         id="path6115"
         d="m -2.5,-1 c 0,2.76 -2.24,5 -5,5 -2.76,0 -5,-2.24 -5,-5 0,-2.76 2.24,-5 5,-5 2.76,0 5,2.24 5,5 z"
         style="fill:#ffc400;fill-rule:evenodd;stroke:#ffc400;stroke-width:1pt"
         transform="matrix(0.2,0,0,0.2,1.48,0.2)" />
    </marker>
    <marker
       inkscape:stockid="marker4516Pl"
       orient="auto"
       refY="0"
       refX="0"
       id="marker4516Pl"
       style="overflow:visible">
      <path
         inkscape:connector-curvature="0"
         id="path6118"
         d="m -2.5,-1 c 0,2.76 -2.24,5 -5,5 -2.76,0 -5,-2.24 -5,-5 0,-2.76 2.24,-5 5,-5 2.76,0 5,2.24 5,5 z"
         style="fill:#ffc400;fill-rule:evenodd;stroke:#ffc400;stroke-width:1pt"
         transform="matrix(0.2,0,0,0.2,1.48,0.2)" />
    </marker>
    <marker
       inkscape:stockid="DotSSB"
       orient="auto"
       refY="0"
       refX="0"
       id="DotSSB"
       style="overflow:visible">
      <path
         id="path6121"
         d="m -2.5,-1 c 0,2.76 -2.24,5 -5,5 -2.76,0 -5,-2.24 -5,-5 0,-2.76 2.24,-5 5,-5 2.76,0 5,2.24 5,5 z"
         style="fill:#ffc400;fill-rule:evenodd;stroke:#ffc400;stroke-width:1pt"
         transform="matrix(0.2,0,0,0.2,1.48,0.2)"
         inkscape:connector-curvature="0" />
    </marker>
    <marker
       inkscape:stockid="DotSyD"
       orient="auto"
       refY="0"
       refX="0"
       id="DotSyD"
       style="overflow:visible">
      <path
         id="path6124"
         d="m -2.5,-1 c 0,2.76 -2.24,5 -5,5 -2.76,0 -5,-2.24 -5,-5 0,-2.76 2.24,-5 5,-5 2.76,0 5,2.24 5,5 z"
         style="fill:#ffc400;fill-rule:evenodd;stroke:#ffc400;stroke-width:1pt"
         transform="matrix(0.2,0,0,0.2,1.48,0.2)"
         inkscape:connector-curvature="0" />
    </marker>
    <marker
       inkscape:stockid="marker4516Ct"
       orient="auto"
       refY="0"
       refX="0"
       id="marker4516Ct"
       style="overflow:visible">
      <path
         inkscape:connector-curvature="0"
         id="path6127"
         d="m -2.5,-1 c 0,2.76 -2.24,5 -5,5 -2.76,0 -5,-2.24 -5,-5 0,-2.76 2.24,-5 5,-5 2.76,0 5,2.24 5,5 z"
         style="fill:#ffc400;fill-rule:evenodd;stroke:#ffc400;stroke-width:1pt"
         transform="matrix(0.2,0,0,0.2,1.48,0.2)" />
    </marker>
    <marker
       inkscape:stockid="marker451623"
       orient="auto"
       refY="0"
       refX="0"
       id="marker451623"
       style="overflow:visible">
      <path
         inkscape:connector-curvature="0"
         id="path6130"
         d="m -2.5,-1 c 0,2.76 -2.24,5 -5,5 -2.76,0 -5,-2.24 -5,-5 0,-2.76 2.24,-5 5,-5 2.76,0 5,2.24 5,5 z"
         style="fill:#ffc400;fill-rule:evenodd;stroke:#ffc400;stroke-width:1pt"
         transform="matrix(0.2,0,0,0.2,1.48,0.2)" />
    </marker>
    <marker
       inkscape:stockid="marker4516yb"
       orient="auto"
       refY="0"
       refX="0"
       id="marker4516yb"
       style="overflow:visible">
      <path
         inkscape:connector-curvature="0"
         id="path6133"
         d="m -2.5,-1 c 0,2.76 -2.24,5 -5,5 -2.76,0 -5,-2.24 -5,-5 0,-2.76 2.24,-5 5,-5 2.76,0 5,2.24 5,5 z"
         style="fill:#ffc400;fill-rule:evenodd;stroke:#ffc400;stroke-width:1pt"
         transform="matrix(0.2,0,0,0.2,1.48,0.2)" />
    </marker>
    <marker
       inkscape:stockid="marker4516IS"
       orient="auto"
       refY="0"
       refX="0"
       id="marker4516IS"
       style="overflow:visible">
      <path
         inkscape:connector-curvature="0"
         id="path6136"
         d="m -2.5,-1 c 0,2.76 -2.24,5 -5,5 -2.76,0 -5,-2.24 -5,-5 0,-2.76 2.24,-5 5,-5 2.76,0 5,2.24 5,5 z"
         style="fill:#ffc400;fill-rule:evenodd;stroke:#ffc400;stroke-width:1pt"
         transform="matrix(0.2,0,0,0.2,1.48,0.2)" />
    </marker>
    <marker
       inkscape:stockid="DotSsAi"
       orient="auto"
       refY="0"
       refX="0"
       id="DotSsAi"
       style="overflow:visible">
      <path
         id="path6139"
         d="m -2.5,-1 c 0,2.76 -2.24,5 -5,5 -2.76,0 -5,-2.24 -5,-5 0,-2.76 2.24,-5 5,-5 2.76,0 5,2.24 5,5 z"
         style="fill:#ffc400;fill-rule:evenodd;stroke:#ffc400;stroke-width:1pt"
         transform="matrix(0.2,0,0,0.2,1.48,0.2)"
         inkscape:connector-curvature="0" />
    </marker>
    <marker
       inkscape:stockid="DotSLdG"
       orient="auto"
       refY="0"
       refX="0"
       id="DotSLdG"
       style="overflow:visible">
      <path
         id="path6142"
         d="m -2.5,-1 c 0,2.76 -2.24,5 -5,5 -2.76,0 -5,-2.24 -5,-5 0,-2.76 2.24,-5 5,-5 2.76,0 5,2.24 5,5 z"
         style="fill:#ffc400;fill-rule:evenodd;stroke:#ffc400;stroke-width:1pt"
         transform="matrix(0.2,0,0,0.2,1.48,0.2)"
         inkscape:connector-curvature="0" />
    </marker>
    <marker
       inkscape:stockid="DotSd7"
       orient="auto"
       refY="0"
       refX="0"
       id="DotSd7"
       style="overflow:visible">
      <path
         id="path6145"
         d="m -2.5,-1 c 0,2.76 -2.24,5 -5,5 -2.76,0 -5,-2.24 -5,-5 0,-2.76 2.24,-5 5,-5 2.76,0 5,2.24 5,5 z"
         style="fill:#ffc400;fill-rule:evenodd;stroke:#ffc400;stroke-width:1pt"
         transform="matrix(0.2,0,0,0.2,1.48,0.2)"
         inkscape:connector-curvature="0" />
    </marker>
    <marker
       inkscape:stockid="DotSyIp"
       orient="auto"
       refY="0"
       refX="0"
       id="DotSyIp"
       style="overflow:visible">
      <path
         id="path6148"
         d="m -2.5,-1 c 0,2.76 -2.24,5 -5,5 -2.76,0 -5,-2.24 -5,-5 0,-2.76 2.24,-5 5,-5 2.76,0 5,2.24 5,5 z"
         style="fill:#ffc400;fill-rule:evenodd;stroke:#ffc400;stroke-width:1pt"
         transform="matrix(0.2,0,0,0.2,1.48,0.2)"
         inkscape:connector-curvature="0" />
    </marker>
    <marker
       inkscape:stockid="DotSvS"
       orient="auto"
       refY="0"
       refX="0"
       id="DotSvS"
       style="overflow:visible">
      <path
         id="path6151"
         d="m -2.5,-1 c 0,2.76 -2.24,5 -5,5 -2.76,0 -5,-2.24 -5,-5 0,-2.76 2.24,-5 5,-5 2.76,0 5,2.24 5,5 z"
         style="fill:#ffc400;fill-rule:evenodd;stroke:#ffc400;stroke-width:1pt"
         transform="matrix(0.2,0,0,0.2,1.48,0.2)"
         inkscape:connector-curvature="0" />
    </marker>
    <marker
       inkscape:stockid="DotSsJ"
       orient="auto"
       refY="0"
       refX="0"
       id="DotSsJ"
       style="overflow:visible">
      <path
         id="path6154"
         d="m -2.5,-1 c 0,2.76 -2.24,5 -5,5 -2.76,0 -5,-2.24 -5,-5 0,-2.76 2.24,-5 5,-5 2.76,0 5,2.24 5,5 z"
         style="fill:#ffc400;fill-rule:evenodd;stroke:#ffc400;stroke-width:1pt"
         transform="matrix(0.2,0,0,0.2,1.48,0.2)"
         inkscape:connector-curvature="0" />
    </marker>
    <marker
       inkscape:stockid="DotSfb"
       orient="auto"
       refY="0"
       refX="0"
       id="DotSfb"
       style="overflow:visible">
      <path
         id="path6157"
         d="m -2.5,-1 c 0,2.76 -2.24,5 -5,5 -2.76,0 -5,-2.24 -5,-5 0,-2.76 2.24,-5 5,-5 2.76,0 5,2.24 5,5 z"
         style="fill:#ffc400;fill-rule:evenodd;stroke:#ffc400;stroke-width:1pt"
         transform="matrix(0.2,0,0,0.2,1.48,0.2)"
         inkscape:connector-curvature="0" />
    </marker>
    <marker
       inkscape:stockid="DotS7T"
       orient="auto"
       refY="0"
       refX="0"
       id="DotS7T"
       style="overflow:visible">
      <path
         id="path6160"
         d="m -2.5,-1 c 0,2.76 -2.24,5 -5,5 -2.76,0 -5,-2.24 -5,-5 0,-2.76 2.24,-5 5,-5 2.76,0 5,2.24 5,5 z"
         style="fill:#ffc400;fill-rule:evenodd;stroke:#ffc400;stroke-width:1pt"
         transform="matrix(0.2,0,0,0.2,1.48,0.2)"
         inkscape:connector-curvature="0" />
    </marker>
    <marker
       inkscape:stockid="DotSko"
       orient="auto"
       refY="0"
       refX="0"
       id="DotSko"
       style="overflow:visible">
      <path
         id="path6163"
         d="m -2.5,-1 c 0,2.76 -2.24,5 -5,5 -2.76,0 -5,-2.24 -5,-5 0,-2.76 2.24,-5 5,-5 2.76,0 5,2.24 5,5 z"
         style="fill:#ffc400;fill-rule:evenodd;stroke:#ffc400;stroke-width:1pt"
         transform="matrix(0.2,0,0,0.2,1.48,0.2)"
         inkscape:connector-curvature="0" />
    </marker>
    <marker
       inkscape:stockid="DotSKZ"
       orient="auto"
       refY="0"
       refX="0"
       id="DotSKZ"
       style="overflow:visible">
      <path
         id="path6166"
         d="m -2.5,-1 c 0,2.76 -2.24,5 -5,5 -2.76,0 -5,-2.24 -5,-5 0,-2.76 2.24,-5 5,-5 2.76,0 5,2.24 5,5 z"
         style="fill:#ffc400;fill-rule:evenodd;stroke:#ffc400;stroke-width:1pt"
         transform="matrix(0.2,0,0,0.2,1.48,0.2)"
         inkscape:connector-curvature="0" />
    </marker>
    <marker
       inkscape:stockid="DotSCa"
       orient="auto"
       refY="0"
       refX="0"
       id="DotSCa"
       style="overflow:visible">
      <path
         id="path6169"
         d="m -2.5,-1 c 0,2.76 -2.24,5 -5,5 -2.76,0 -5,-2.24 -5,-5 0,-2.76 2.24,-5 5,-5 2.76,0 5,2.24 5,5 z"
         style="fill:#ffc400;fill-rule:evenodd;stroke:#ffc400;stroke-width:1pt"
         transform="matrix(0.2,0,0,0.2,1.48,0.2)"
         inkscape:connector-curvature="0" />
    </marker>
    <marker
       inkscape:stockid="DotSLi"
       orient="auto"
       refY="0"
       refX="0"
       id="DotSLi"
       style="overflow:visible">
      <path
         id="path6172"
         d="m -2.5,-1 c 0,2.76 -2.24,5 -5,5 -2.76,0 -5,-2.24 -5,-5 0,-2.76 2.24,-5 5,-5 2.76,0 5,2.24 5,5 z"
         style="fill:#ffc400;fill-rule:evenodd;stroke:#ffc400;stroke-width:1pt"
         transform="matrix(0.2,0,0,0.2,1.48,0.2)"
         inkscape:connector-curvature="0" />
    </marker>
    <marker
       inkscape:stockid="marker5218bQ"
       orient="auto"
       refY="0"
       refX="0"
       id="marker5218bQ"
       style="overflow:visible">
      <path
         inkscape:connector-curvature="0"
         id="path6175"
         d="m -2.5,-1 c 0,2.76 -2.24,5 -5,5 -2.76,0 -5,-2.24 -5,-5 0,-2.76 2.24,-5 5,-5 2.76,0 5,2.24 5,5 z"
         style="fill:#ffc400;fill-rule:evenodd;stroke:#ffc400;stroke-width:1pt"
         transform="matrix(0.2,0,0,0.2,1.48,0.2)" />
    </marker>
    <marker
       inkscape:stockid="marker5218XM"
       orient="auto"
       refY="0"
       refX="0"
       id="marker5218XM"
       style="overflow:visible">
      <path
         inkscape:connector-curvature="0"
         id="path6178"
         d="m -2.5,-1 c 0,2.76 -2.24,5 -5,5 -2.76,0 -5,-2.24 -5,-5 0,-2.76 2.24,-5 5,-5 2.76,0 5,2.24 5,5 z"
         style="fill:#ffc400;fill-rule:evenodd;stroke:#ffc400;stroke-width:1pt"
         transform="matrix(0.2,0,0,0.2,1.48,0.2)" />
    </marker>
    <marker
       inkscape:stockid="DotSGn"
       orient="auto"
       refY="0"
       refX="0"
       id="DotSGn"
       style="overflow:visible">
      <path
         id="path6181"
         d="m -2.5,-1 c 0,2.76 -2.24,5 -5,5 -2.76,0 -5,-2.24 -5,-5 0,-2.76 2.24,-5 5,-5 2.76,0 5,2.24 5,5 z"
         style="fill:#ffc400;fill-rule:evenodd;stroke:#ffc400;stroke-width:1pt"
         transform="matrix(0.2,0,0,0.2,1.48,0.2)"
         inkscape:connector-curvature="0" />
    </marker>
    <marker
       inkscape:stockid="DotS5R"
       orient="auto"
       refY="0"
       refX="0"
       id="DotS5R"
       style="overflow:visible">
      <path
         id="path6184"
         d="m -2.5,-1 c 0,2.76 -2.24,5 -5,5 -2.76,0 -5,-2.24 -5,-5 0,-2.76 2.24,-5 5,-5 2.76,0 5,2.24 5,5 z"
         style="fill:#ffc400;fill-rule:evenodd;stroke:#ffc400;stroke-width:1pt"
         transform="matrix(0.2,0,0,0.2,1.48,0.2)"
         inkscape:connector-curvature="0" />
    </marker>
    <marker
       inkscape:stockid="DotSd7"
       orient="auto"
       refY="0"
       refX="0"
       id="DotSd7-9"
       style="overflow:visible">
      <path
         inkscape:connector-curvature="0"
         id="path6145-2"
         d="m -2.5,-1 c 0,2.76 -2.24,5 -5,5 -2.76,0 -5,-2.24 -5,-5 0,-2.76 2.24,-5 5,-5 2.76,0 5,2.24 5,5 z"
         style="fill:#ffc400;fill-rule:evenodd;stroke:#ffc400;stroke-width:1pt"
         transform="matrix(0.2,0,0,0.2,1.48,0.2)" />
    </marker>
    <marker
       inkscape:stockid="DotSyIp"
       orient="auto"
       refY="0"
       refX="0"
       id="DotSyIp-9"
       style="overflow:visible">
      <path
         inkscape:connector-curvature="0"
         id="path6148-2"
         d="m -2.5,-1 c 0,2.76 -2.24,5 -5,5 -2.76,0 -5,-2.24 -5,-5 0,-2.76 2.24,-5 5,-5 2.76,0 5,2.24 5,5 z"
         style="fill:#ffc400;fill-rule:evenodd;stroke:#ffc400;stroke-width:1pt"
         transform="matrix(0.2,0,0,0.2,1.48,0.2)" />
    </marker>
    <marker
       inkscape:stockid="DotSGn"
       orient="auto"
       refY="0"
       refX="0"
       id="DotSGn-0"
       style="overflow:visible">
      <path
         inkscape:connector-curvature="0"
         id="path6181-6"
         d="m -2.5,-1 c 0,2.76 -2.24,5 -5,5 -2.76,0 -5,-2.24 -5,-5 0,-2.76 2.24,-5 5,-5 2.76,0 5,2.24 5,5 z"
         style="fill:#ffc400;fill-rule:evenodd;stroke:#ffc400;stroke-width:1pt"
         transform="matrix(0.2,0,0,0.2,1.48,0.2)" />
    </marker>
    <marker
       inkscape:stockid="DotS5R"
       orient="auto"
       refY="0"
       refX="0"
       id="DotS5R-3"
       style="overflow:visible">
      <path
         inkscape:connector-curvature="0"
         id="path6184-9"
         d="m -2.5,-1 c 0,2.76 -2.24,5 -5,5 -2.76,0 -5,-2.24 -5,-5 0,-2.76 2.24,-5 5,-5 2.76,0 5,2.24 5,5 z"
         style="fill:#ffc400;fill-rule:evenodd;stroke:#ffc400;stroke-width:1pt"
         transform="matrix(0.2,0,0,0.2,1.48,0.2)" />
    </marker>
    <marker
       inkscape:stockid="marker5218bQ"
       orient="auto"
       refY="0"
       refX="0"
       id="marker5218bQ-7"
       style="overflow:visible">
      <path
         inkscape:connector-curvature="0"
         id="path6175-9"
         d="m -2.5,-1 c 0,2.76 -2.24,5 -5,5 -2.76,0 -5,-2.24 -5,-5 0,-2.76 2.24,-5 5,-5 2.76,0 5,2.24 5,5 z"
         style="fill:#ffc400;fill-rule:evenodd;stroke:#ffc400;stroke-width:1pt"
         transform="matrix(0.2,0,0,0.2,1.48,0.2)" />
    </marker>
    <marker
       inkscape:stockid="marker5218XM"
       orient="auto"
       refY="0"
       refX="0"
       id="marker5218XM-8"
       style="overflow:visible">
      <path
         inkscape:connector-curvature="0"
         id="path6178-2"
         d="m -2.5,-1 c 0,2.76 -2.24,5 -5,5 -2.76,0 -5,-2.24 -5,-5 0,-2.76 2.24,-5 5,-5 2.76,0 5,2.24 5,5 z"
         style="fill:#ffc400;fill-rule:evenodd;stroke:#ffc400;stroke-width:1pt"
         transform="matrix(0.2,0,0,0.2,1.48,0.2)" />
    </marker>
    <marker
       inkscape:stockid="marker5218bQ"
       orient="auto"
       refY="0"
       refX="0"
       id="marker5218bQ-9"
       style="overflow:visible">
      <path
         inkscape:connector-curvature="0"
         id="path6175-95"
         d="m -2.5,-1 c 0,2.76 -2.24,5 -5,5 -2.76,0 -5,-2.24 -5,-5 0,-2.76 2.24,-5 5,-5 2.76,0 5,2.24 5,5 z"
         style="fill:#ffc400;fill-rule:evenodd;stroke:#ffc400;stroke-width:1pt"
         transform="matrix(0.2,0,0,0.2,1.48,0.2)" />
    </marker>
    <marker
       inkscape:stockid="marker5218XM"
       orient="auto"
       refY="0"
       refX="0"
       id="marker5218XM-4"
       style="overflow:visible">
      <path
         inkscape:connector-curvature="0"
         id="path6178-29"
         d="m -2.5,-1 c 0,2.76 -2.24,5 -5,5 -2.76,0 -5,-2.24 -5,-5 0,-2.76 2.24,-5 5,-5 2.76,0 5,2.24 5,5 z"
         style="fill:#ffc400;fill-rule:evenodd;stroke:#ffc400;stroke-width:1pt"
         transform="matrix(0.2,0,0,0.2,1.48,0.2)" />
    </marker>
    <marker
       inkscape:stockid="DotSGn"
       orient="auto"
       refY="0"
       refX="0"
       id="DotSGn-08"
       style="overflow:visible">
      <path
         inkscape:connector-curvature="0"
         id="path6181-5"
         d="m -2.5,-1 c 0,2.76 -2.24,5 -5,5 -2.76,0 -5,-2.24 -5,-5 0,-2.76 2.24,-5 5,-5 2.76,0 5,2.24 5,5 z"
         style="fill:#ffc400;fill-rule:evenodd;stroke:#ffc400;stroke-width:1pt"
         transform="matrix(0.2,0,0,0.2,1.48,0.2)" />
    </marker>
    <marker
       inkscape:stockid="DotS5R"
       orient="auto"
       refY="0"
       refX="0"
       id="DotS5R-8"
       style="overflow:visible">
      <path
         inkscape:connector-curvature="0"
         id="path6184-1"
         d="m -2.5,-1 c 0,2.76 -2.24,5 -5,5 -2.76,0 -5,-2.24 -5,-5 0,-2.76 2.24,-5 5,-5 2.76,0 5,2.24 5,5 z"
         style="fill:#ffc400;fill-rule:evenodd;stroke:#ffc400;stroke-width:1pt"
         transform="matrix(0.2,0,0,0.2,1.48,0.2)" />
    </marker>
    <marker
       inkscape:stockid="marker4516Ct"
       orient="auto"
       refY="0"
       refX="0"
       id="marker4516Ct-0"
       style="overflow:visible">
      <path
         inkscape:connector-curvature="0"
         id="path6127-3"
         d="m -2.5,-1 c 0,2.76 -2.24,5 -5,5 -2.76,0 -5,-2.24 -5,-5 0,-2.76 2.24,-5 5,-5 2.76,0 5,2.24 5,5 z"
         style="fill:#ffc400;fill-rule:evenodd;stroke:#ffc400;stroke-width:1pt"
         transform="matrix(0.2,0,0,0.2,1.48,0.2)" />
    </marker>
    <marker
       inkscape:stockid="marker451623"
       orient="auto"
       refY="0"
       refX="0"
       id="marker451623-8"
       style="overflow:visible">
      <path
         inkscape:connector-curvature="0"
         id="path6130-8"
         d="m -2.5,-1 c 0,2.76 -2.24,5 -5,5 -2.76,0 -5,-2.24 -5,-5 0,-2.76 2.24,-5 5,-5 2.76,0 5,2.24 5,5 z"
         style="fill:#ffc400;fill-rule:evenodd;stroke:#ffc400;stroke-width:1pt"
         transform="matrix(0.2,0,0,0.2,1.48,0.2)" />
    </marker>
    <marker
       inkscape:stockid="marker5218bQ"
       orient="auto"
       refY="0"
       refX="0"
       id="marker5218bQ-0"
       style="overflow:visible">
      <path
         inkscape:connector-curvature="0"
         id="path6175-8"
         d="m -2.5,-1 c 0,2.76 -2.24,5 -5,5 -2.76,0 -5,-2.24 -5,-5 0,-2.76 2.24,-5 5,-5 2.76,0 5,2.24 5,5 z"
         style="fill:#ffc400;fill-rule:evenodd;stroke:#ffc400;stroke-width:1pt"
         transform="matrix(0.2,0,0,0.2,1.48,0.2)" />
    </marker>
    <marker
       inkscape:stockid="marker5218XM"
       orient="auto"
       refY="0"
       refX="0"
       id="marker5218XM-86"
       style="overflow:visible">
      <path
         inkscape:connector-curvature="0"
         id="path6178-7"
         d="m -2.5,-1 c 0,2.76 -2.24,5 -5,5 -2.76,0 -5,-2.24 -5,-5 0,-2.76 2.24,-5 5,-5 2.76,0 5,2.24 5,5 z"
         style="fill:#ffc400;fill-rule:evenodd;stroke:#ffc400;stroke-width:1pt"
         transform="matrix(0.2,0,0,0.2,1.48,0.2)" />
    </marker>
    <circle
       transform="matrix(0.8755829,0,0,0.8755829,152.4506,-680.83707)"
       id="path6572"
       style="fill:none;stroke:none"
       cx="675.71429"
       cy="777.58148"
       r="584.28571" />
    <circle
       transform="matrix(-1.1162727,-0.04357729,-0.04357729,1.1162727,1532.2608,-838.54723)"
       id="path6572-9"
       style="fill:none;stroke:none"
       cx="675.71429"
       cy="777.58148"
       r="584.28571" />
    <circle
       transform="matrix(0.8755829,0,0,0.8755829,152.4506,-680.83707)"
       id="path6572-3"
       style="fill:none;stroke:none"
       cx="675.71429"
       cy="777.58148"
       r="584.28571" />
    <circle
       transform="matrix(-1.1162727,-0.04357729,-0.04357729,1.1162727,1532.2608,-838.54723)"
       id="path6572-9-6"
       style="fill:none;stroke:none"
       cx="675.71429"
       cy="777.58148"
       r="584.28571" />
  </defs>
  <metadata
     id="metadata7">
    <rdf:RDF>
      <cc:Work
         rdf:about="">
        <dc:format>image/svg+xml</dc:format>
        <dc:type
           rdf:resource="http://purl.org/dc/dcmitype/StillImage" />
        <dc:title></dc:title>
      </cc:Work>
    </rdf:RDF>
  </metadata>
  <g
     inkscape:label="Ebene 1"
     inkscape:groupmode="layer"
     id="layer1"
     transform="translate(0,-783.07098)">
    <path
       id="path1730"
       style="color:#000000;font-style:normal;font-variant:normal;font-weight:normal;font-stretch:normal;font-size:medium;line-height:normal;font-family:sans-serif;font-variant-ligatures:normal;font-variant-position:normal;font-variant-caps:normal;font-variant-numeric:normal;font-variant-alternates:normal;font-variant-east-asian:normal;font-feature-settings:normal;font-variation-settings:normal;text-indent:0;text-align:start;text-decoration:none;text-decoration-line:none;text-decoration-style:solid;text-decoration-color:#000000;letter-spacing:normal;word-spacing:normal;text-transform:none;writing-mode:lr-tb;direction:ltr;text-orientation:mixed;dominant-baseline:auto;baseline-shift:baseline;text-anchor:start;white-space:normal;shape-padding:0;shape-margin:0;inline-size:0;clip-rule:nonzero;display:inline;overflow:visible;visibility:visible;isolation:auto;mix-blend-mode:normal;color-interpolation:sRGB;color-interpolation-filters:linearRGB;solid-color:#000000;solid-opacity:1;vector-effect:none;fill:#020203;fill-opacity:1;fill-rule:nonzero;stroke:none;stroke-width:1.99769;stroke-linecap:butt;stroke-linejoin:miter;stroke-miterlimit:4;stroke-dasharray:none;stroke-dashoffset:0;stroke-opacity:1;color-rendering:auto;image-rendering:auto;shape-rendering:auto;text-rendering:auto;enable-background:accumulate;stop-color:#000000"
       d="M 94.345703 0 C 46.460443 0.0123 5.4169813 36.312333 0.48828125 84.970703 C -4.7690087 136.87309 33.062544 183.231 84.964844 188.48828 C 136.86718 193.74561 183.23294 155.9141 188.49023 104.01172 C 193.74753 52.109349 155.91011 5.7493875 104.00781 0.4921875 C 100.76483 0.1636375 97.539023 -0.00085 94.345703 0 z M 96.28125 6.3828125 L 107.60742 7.3300781 C 107.91158 7.3555181 108.08399 7.5610644 108.05859 7.8652344 L 107.83203 10.572266 C 107.80659 10.876436 107.603 11.048837 107.29883 11.023438 L 100.02734 10.416016 C 99.723176 10.390576 99.519581 10.563017 99.494141 10.867188 L 99.267578 13.576172 C 99.242137 13.880342 99.41458 14.083975 99.71875 14.109375 L 105.68555 14.609375 C 105.98971 14.634815 106.16407 14.838408 106.13867 15.142578 L 105.91211 17.851562 C 105.88667 18.155732 105.68112 18.328134 105.37695 18.302734 L 99.410156 17.802734 C 99.105986 17.777294 98.902393 17.949736 98.876953 18.253906 L 98.638672 21.107422 C 98.613232 21.411592 98.785675 21.615225 99.089844 21.640625 L 106.35938 22.25 C 106.66353 22.27544 106.83595 22.479033 106.81055 22.783203 L 106.58398 25.492188 C 106.55854 25.796357 106.35495 25.968759 106.05078 25.943359 L 94.724609 24.996094 C 94.420439 24.970644 94.247996 24.767061 94.273438 24.462891 L 95.748047 6.8339844 C 95.773487 6.5298144 95.977079 6.3574125 96.28125 6.3828125 z M 85.576172 6.4492188 C 85.767688 6.4802616 85.903053 6.6210856 85.947266 6.8457031 L 89.392578 24.34375 C 89.451533 24.64324 89.30339 24.864928 89.003906 24.923828 L 86.050781 25.505859 C 85.751297 25.564809 85.529653 25.414714 85.470703 25.115234 L 84.513672 20.253906 C 83.999929 17.644116 83.78088 14.574839 83.75 14.417969 L 83.636719 14.441406 C 83.650756 14.512716 83.467303 16.741399 83.255859 17.849609 L 82.029297 23.585938 C 81.991679 23.771108 81.836374 23.890387 81.636719 23.929688 L 79.384766 24.373047 C 79.128064 24.423577 78.939833 24.372522 78.832031 24.201172 L 75.597656 19.283203 C 74.981954 18.337813 73.927914 16.293369 73.871094 16.230469 L 73.798828 16.244141 C 73.829708 16.401021 74.820977 19.331984 75.351562 22.027344 L 76.314453 26.917969 C 76.373407 27.217459 76.225265 27.439147 75.925781 27.498047 L 72.916016 28.091797 C 72.616531 28.150757 72.394886 28.000662 72.335938 27.701172 L 68.892578 10.203125 C 68.833625 9.903645 68.981766 9.6819469 69.28125 9.6230469 L 72.517578 8.9863281 C 72.731495 8.9442181 72.909532 9.01341 73.011719 9.15625 L 78.826172 17.550781 C 79.143961 18.036331 79.385025 18.580875 79.390625 18.609375 L 79.533203 18.582031 C 79.527588 18.553511 79.564347 17.910052 79.654297 17.388672 L 81.753906 7.4335938 C 81.78007 7.2654836 81.930614 7.1319438 82.144531 7.0898438 L 85.367188 6.4570312 C 85.442058 6.4422913 85.512333 6.4388711 85.576172 6.4492188 z M 122.14062 10.863281 C 122.20526 10.8655 122.27316 10.881189 122.34375 10.910156 L 133.04883 15.302734 C 133.33123 15.418604 133.43423 15.664886 133.31836 15.947266 L 132.28516 18.460938 C 132.16929 18.743327 131.923 18.846339 131.64062 18.730469 L 128.62891 17.496094 C 128.34652 17.380224 128.10023 17.483245 127.98438 17.765625 L 122.67578 30.701172 C 122.55991 30.983562 122.31363 31.086573 122.03125 30.970703 L 119.18164 29.800781 C 118.89925 29.684911 118.79624 29.43864 118.91211 29.15625 L 124.21875 16.220703 C 124.33462 15.938313 124.23161 15.690089 123.94922 15.574219 L 120.9375 14.339844 C 120.65511 14.223974 120.5521 13.977692 120.66797 13.695312 L 121.69922 11.179688 C 121.78612 10.967894 121.94674 10.856624 122.14062 10.863281 z M 57.84375 14.871094 C 59.613797 14.916137 60.972333 15.936712 61.927734 17.753906 L 66.005859 25.511719 C 67.473626 28.303459 66.671189 31.089898 63.171875 32.929688 L 61.332031 33.896484 C 57.704066 35.803914 55.145831 34.932911 53.617188 32.025391 L 49.537109 24.267578 C 48.076106 21.488718 48.87178 18.689399 52.371094 16.849609 L 54.210938 15.882812 C 55.571424 15.16753 56.781722 14.844068 57.84375 14.871094 z M 56.693359 18.931641 C 56.444431 18.954495 56.189633 19.030475 55.935547 19.164062 L 54.095703 20.130859 C 53.066493 20.671969 52.843221 21.807746 53.34375 22.759766 L 57.015625 29.746094 C 57.549973 30.762434 58.591077 31.149584 59.607422 30.615234 L 61.447266 29.648438 C 62.476476 29.107326 62.708464 27.984421 62.201172 27.019531 L 58.527344 20.035156 C 58.126583 19.272901 57.440146 18.863079 56.693359 18.931641 z M 141.46289 21.039062 C 142.67636 21.036159 144.01005 21.50908 145.4082 22.527344 L 147.08789 23.75 C 150.40114 26.16303 150.75026 28.8447 148.81641 31.5 L 143.65625 38.585938 C 141.79942 41.135508 138.94576 41.645829 135.75 39.318359 L 134.07031 38.09375 C 130.75705 35.68072 130.40796 33.001003 132.3418 30.345703 L 137.50195 23.259766 C 138.54161 21.832248 139.90272 21.042796 141.46289 21.039062 z M 142.12891 25.146484 C 141.51625 25.143842 140.93091 25.464419 140.53516 26.007812 L 135.88867 32.388672 C 135.21268 33.316852 135.32377 34.423609 136.25195 35.099609 L 137.93359 36.322266 C 138.87352 37.006816 139.98129 36.717126 140.62305 35.835938 L 145.26953 29.457031 C 145.94552 28.528851 145.83443 27.422084 144.90625 26.746094 L 143.22656 25.523438 C 142.87409 25.26673 142.4965 25.14807 142.12891 25.146484 z M 40.335938 26.441406 C 41.20754 26.462411 42.060055 26.715254 42.84375 27.203125 C 43.113787 27.370015 43.142442 27.402297 43.201172 27.466797 C 43.289272 27.563497 43.314379 27.698925 43.224609 27.859375 L 41.914062 30.349609 C 41.87992 30.420049 41.836923 30.478444 41.783203 30.527344 C 41.654276 30.644744 41.425173 30.696204 41.224609 30.583984 C 40.313746 30.037474 39.423999 30.162095 38.521484 30.984375 L 36.972656 32.392578 C 36.113133 33.175698 36.183817 34.331893 36.908203 35.126953 L 42.222656 40.960938 C 42.995993 41.809717 44.102387 41.923731 44.951172 41.150391 L 46.498047 39.740234 C 47.40055 38.917954 47.593441 38.092504 47.146484 37.083984 C 47.053367 36.873884 47.124977 36.652626 47.253906 36.535156 C 47.307627 36.486246 47.372012 36.447422 47.445312 36.419922 L 50.046875 35.347656 C 50.214961 35.273146 50.347447 35.30955 50.435547 35.40625 C 50.494281 35.47071 50.620612 35.610171 50.761719 35.894531 C 51.863114 38.096111 51.15468 40.512844 48.984375 42.490234 L 47.447266 43.888672 C 44.417434 46.649202 41.722099 46.451597 39.509766 44.023438 L 33.605469 37.544922 C 31.481226 35.213462 31.554171 32.316937 34.476562 29.654297 L 36.023438 28.244141 C 37.373162 27.014384 38.883266 26.406398 40.335938 26.441406 z M 94.646484 31.089844 C 129.58266 31.090294 157.88121 59.391935 157.88086 94.328125 C 157.88032 129.26361 129.58204 157.56204 94.646484 157.5625 C 68.901774 157.56219 45.731831 141.96063 36.050781 118.10547 L 35.152344 115.88867 L 29.332031 129.45508 L 20.515625 130.80469 L 11.416016 111.7832 L 14.666016 107.01172 L 24.142578 106.89258 L 31.900391 86.458984 L 31.916016 86.341797 C 35.936636 54.751207 62.801064 31.089914 94.646484 31.089844 z M 162.14844 37.939453 C 162.21128 37.952984 162.2726 37.989398 162.31445 38.048828 L 164.47266 41.115234 C 164.61486 41.317284 164.63909 41.477285 164.55859 41.640625 L 162.2793 45.876953 C 162.05879 46.245473 161.33072 47.4334 161.05078 47.84375 L 161.09961 47.914062 C 161.99673 47.193692 162.87177 47.022466 164.96289 46.634766 L 167.80469 46.251953 C 167.99752 46.222873 168.1446 46.3336 168.26172 46.5 L 170.5293 49.720703 C 170.62137 49.851443 170.5619 50.017084 170.4668 50.083984 C 170.40737 50.125884 170.3272 50.164534 170.2832 50.177734 L 160.10938 51.279297 C 160.02486 51.285497 159.94062 51.291009 159.85742 51.349609 C 159.77421 51.408169 159.74678 51.498003 159.70898 51.595703 L 155.52734 60.351562 C 155.48948 60.449323 155.4637 60.485544 155.4043 60.527344 C 155.27356 60.619374 155.12104 60.531634 155.00391 60.365234 L 152.8125 57.25 C 152.6284 56.98852 152.65138 56.793919 152.76758 56.605469 L 155.10547 52.402344 C 155.32598 52.033824 155.92318 50.990428 156.20312 50.580078 L 156.1543 50.507812 C 155.47682 50.984703 154.05808 51.395701 152.40234 51.619141 L 149.53711 52.017578 C 149.31215 52.051508 149.11375 51.997808 148.92969 51.736328 L 146.77148 48.667969 C 146.63787 48.477799 146.63879 48.353719 146.76953 48.261719 C 146.82895 48.219919 146.91745 48.1935 147.00195 48.1875 L 157.28125 47.083984 C 157.39792 47.072984 157.47771 47.033987 157.53711 46.992188 C 157.62034 46.933627 157.66297 46.868516 157.69727 46.791016 L 161.83203 38.121094 C 161.85095 38.072224 161.90136 38.01895 161.97266 37.96875 C 162.0202 37.935295 162.0856 37.925922 162.14844 37.939453 z M 20.746094 46.300781 C 20.864693 46.278026 20.994774 46.306933 21.121094 46.392578 L 32.814453 54.322266 C 33.067092 54.493556 33.328712 54.442093 33.5 54.189453 L 37.292969 48.595703 C 37.464257 48.343073 37.725877 48.293544 37.978516 48.464844 L 40.228516 49.990234 C 40.481155 50.161534 40.532629 50.423151 40.361328 50.675781 L 34.283203 59.638672 C 34.111915 59.891312 33.850295 59.940821 33.597656 59.769531 L 18.835938 49.761719 C 18.583299 49.590419 18.533777 49.326849 18.705078 49.074219 L 20.433594 46.525391 C 20.519238 46.399076 20.627494 46.323536 20.746094 46.300781 z M 118.41992 49.302734 C 116.65463 49.316134 115.23449 50.758148 115.24805 52.523438 L 115.2793 56.671875 C 114.88044 55.308445 113.62956 54.371877 112.20898 54.373047 L 112.20898 54.371094 L 74.78125 54.421875 C 74.019617 54.422855 73.283358 54.695746 72.705078 55.191406 L 68.042969 59.185547 C 66.701189 60.333577 66.544634 62.352169 67.693359 63.693359 C 68.841958 65.034539 70.860505 65.190216 72.201172 64.041016 L 75.96875 60.8125 L 112.21484 60.765625 C 113.6531 60.763625 114.91288 59.801193 115.29297 58.414062 L 115.3418 64.777344 L 58.466797 64.830078 C 56.673732 64.832078 55.233369 66.308993 55.275391 68.101562 L 55.847656 92.912109 C 55.887596 94.648259 57.306359 96.034936 59.042969 96.035156 L 62.878906 96.035156 L 62.902344 97.556641 C 62.922554 98.888831 63.767018 100.06874 65.021484 100.51758 L 65.582031 105.99805 L 59.414062 105.98828 C 57.655704 105.98728 56.226279 107.40574 56.214844 109.16406 L 56.083984 129.80664 C 56.072774 131.57489 57.499308 133.0163 59.267578 133.02344 L 140.81055 133.35742 C 142.56969 133.36442 144.0038 131.94854 144.01953 130.18945 L 144.5918 67.976562 C 144.6074 66.198403 143.16885 64.749323 141.39062 64.751953 L 121.73438 64.769531 L 121.64258 52.474609 C 121.62918 50.708549 120.18597 49.288094 118.41992 49.302734 z M 118.41992 50.505859 C 118.43622 50.505659 118.45245 50.505659 118.46875 50.505859 C 119.57233 50.505639 120.46702 51.400326 120.4668 52.503906 C 120.46701 53.607486 119.57233 54.502173 118.46875 54.501953 C 117.36518 54.502163 116.47049 53.607476 116.4707 52.503906 C 116.47017 51.419116 117.33545 50.532159 118.41992 50.505859 z M 111.99023 55.541016 C 112.00653 55.540816 112.02276 55.540816 112.03906 55.541016 C 113.14263 55.540806 114.03732 56.435493 114.03711 57.539062 C 114.03733 58.642642 113.14264 59.537319 112.03906 59.537109 C 110.93548 59.537329 110.0408 58.642643 110.04102 57.539062 C 110.04049 56.454282 110.90577 55.567316 111.99023 55.541016 z M 14.808594 57.095703 C 14.873261 57.096385 14.942408 57.109436 15.013672 57.136719 L 17.552734 58.109375 C 17.837791 58.218505 17.947029 58.461034 17.837891 58.746094 L 15.228516 65.560547 C 15.11939 65.845607 15.228616 66.090099 15.513672 66.199219 L 18.052734 67.169922 C 18.33779 67.279052 18.580329 67.171779 18.689453 66.886719 L 20.830078 61.292969 C 20.939203 61.007909 21.183694 60.898682 21.46875 61.007812 L 24.007812 61.980469 C 24.292882 62.089589 24.402094 62.334081 24.292969 62.619141 L 22.152344 68.210938 C 22.043218 68.495997 22.150491 68.740489 22.435547 68.849609 L 25.111328 69.873047 C 25.396384 69.982177 25.638922 69.872941 25.748047 69.587891 L 28.357422 62.773438 C 28.466548 62.488377 28.711038 62.379151 28.996094 62.488281 L 31.533203 63.460938 C 31.818259 63.570067 31.927483 63.814549 31.818359 64.099609 L 27.755859 74.714844 C 27.646734 74.999904 27.402244 75.107177 27.117188 74.998047 L 10.597656 68.673828 C 10.3126 68.564698 10.203376 68.322169 10.3125 68.037109 L 14.375 57.421875 C 14.456844 57.20808 14.614591 57.093657 14.808594 57.095703 z M 174.0918 57.132812 C 174.28581 57.132691 174.44177 57.248293 174.52148 57.462891 L 175.59375 60.351562 C 175.70004 60.637694 175.58885 60.881981 175.30273 60.988281 L 169.34961 63.199219 C 169.06345 63.305509 168.9523 63.547854 169.05859 63.833984 L 170.90625 68.808594 C 171.01254 69.094754 171.25489 69.205899 171.54102 69.099609 L 177.49609 66.886719 C 177.78221 66.780429 178.02457 66.891614 178.13086 67.177734 L 179.20312 70.066406 C 179.30942 70.352526 179.19824 70.594882 178.91211 70.701172 L 162.19531 76.912109 C 161.90918 77.018399 161.66488 76.907214 161.55859 76.621094 L 160.48633 73.732422 C 160.38004 73.446302 160.49122 73.203946 160.77734 73.097656 L 167.14062 70.734375 C 167.42678 70.628075 167.53793 70.383786 167.43164 70.097656 L 165.58398 65.125 C 165.47769 64.83884 165.23535 64.727694 164.94922 64.833984 L 158.58594 67.197266 C 158.29982 67.303556 158.05746 67.19238 157.95117 66.90625 L 156.87695 64.017578 C 156.77066 63.731448 156.88184 63.489103 157.16797 63.382812 L 173.88672 57.171875 C 173.95825 57.1453 174.02712 57.132853 174.0918 57.132812 z M 70.175781 59.482422 C 70.192051 59.482222 70.208339 59.482222 70.224609 59.482422 C 71.328191 59.482202 72.222873 60.376889 72.222656 61.480469 C 72.221791 62.583289 71.327426 63.476783 70.224609 63.476562 C 69.121792 63.476783 68.227428 62.583289 68.226562 61.480469 C 68.22603 60.395679 69.091314 59.508722 70.175781 59.482422 z M 141.00195 66.298828 C 141.01755 66.298648 141.03323 66.298648 141.04883 66.298828 C 142.15241 66.298608 143.04709 67.193295 143.04688 68.296875 C 143.04709 69.400455 142.15241 70.295142 141.04883 70.294922 C 139.94602 70.294052 139.05252 69.399685 139.05273 68.296875 C 139.0522 67.212085 139.91748 66.325128 141.00195 66.298828 z M 58.796875 66.466797 C 58.813145 66.466597 58.829433 66.466597 58.845703 66.466797 C 59.949282 66.466587 60.843967 67.361264 60.84375 68.464844 C 60.843962 69.568414 59.949278 70.463101 58.845703 70.462891 C 57.742124 70.463111 56.847444 69.568424 56.847656 68.464844 C 56.847124 67.380054 57.712408 66.493097 58.796875 66.466797 z M 148.12891 74.023438 C 146.3636 74.004437 144.91719 75.420237 144.89844 77.185547 L 144.70703 94.810547 C 144.68803 96.576617 146.10501 98.023336 147.87109 98.041016 C 149.6364 98.060016 151.08281 96.644216 151.10156 94.878906 L 151.29102 77.253906 C 151.31002 75.488596 149.89422 74.042187 148.12891 74.023438 z M 125.06836 74.861328 C 125.08786 74.861198 125.10745 74.861198 125.12695 74.861328 C 127.558 74.860398 129.52926 76.860515 129.5293 79.328125 C 129.52925 81.795735 127.55799 83.795852 125.12695 83.794922 C 122.69667 83.794762 120.72661 81.794965 120.72656 79.328125 C 120.72638 76.884325 122.66099 74.894028 125.06836 74.861328 z M 148.04688 75.298828 C 148.06318 75.298628 148.0794 75.298628 148.0957 75.298828 C 149.19928 75.298618 150.09397 76.193295 150.09375 77.296875 C 150.09396 78.400445 149.19927 79.295132 148.0957 79.294922 C 146.99212 79.295142 146.09745 78.400455 146.09766 77.296875 C 146.09713 76.212085 146.9624 75.325128 148.04688 75.298828 z M 7.546875 77.144531 C 7.5903607 77.147731 7.7614584 77.205809 7.8183594 77.224609 L 25.476562 82.416016 C 25.690745 82.475706 25.792877 82.659012 25.773438 82.919922 L 25.537109 86.080078 C 25.518747 86.326488 25.3764 86.489031 25.199219 86.519531 L 18.248047 87.882812 C 16.798406 88.168282 14.314511 88.245204 12.386719 88.101562 L 12.376953 88.21875 C 13.90583 88.4347 14.938048 88.685864 15.748047 88.964844 L 24.751953 92.126953 C 24.950514 92.200063 25.070221 92.369959 25.050781 92.630859 L 24.826172 95.630859 C 24.807809 95.877269 24.665449 96.041766 24.488281 96.072266 L 6.84375 98.517578 C 6.6665687 98.548098 6.0177895 98.659297 5.9453125 98.654297 C 5.8003602 98.643497 5.7357491 98.522107 5.7519531 98.304688 L 6.0097656 94.855469 C 6.0238106 94.667079 6.1028885 94.586559 6.25 94.568359 L 14.9375 93.568359 C 16.27488 93.420259 17.52136 93.324078 18.380859 93.330078 L 18.388672 93.212891 C 16.769585 93.033941 14.360793 92.519166 12.642578 91.910156 L 6.6484375 89.802734 C 6.5067754 89.748434 6.3965726 89.66715 6.4160156 89.40625 L 6.6386719 86.419922 C 6.6537965 86.216992 6.7326673 86.120591 6.8808594 86.087891 L 15.619141 84.435547 C 16.506101 84.268437 17.632507 84.193266 19.060547 84.197266 L 19.070312 84.082031 C 17.606345 83.972951 15.218691 83.546674 13.306641 82.996094 L 7.2421875 81.232422 C 7.0994068 81.192632 7.036068 81.070731 7.046875 80.925781 L 7.3046875 77.462891 C 7.3208786 77.245421 7.4019224 77.133731 7.546875 77.144531 z M 162.71875 79.951172 C 162.79111 79.944372 162.92295 79.962175 162.99805 79.984375 C 163.04282 79.994785 181.43945 83.599609 181.43945 83.599609 C 181.64747 83.638529 181.76486 83.818086 181.78516 84.035156 L 182.19727 88.419922 C 182.21759 88.636992 182.13273 88.835209 181.93555 88.912109 L 164.37305 95.914062 C 164.28897 95.950964 164.2602 95.953031 164.2168 95.957031 C 164.07209 95.970571 163.98905 95.875283 163.96875 95.658203 L 163.63281 92.070312 C 163.61791 91.911123 163.68161 91.803094 163.82227 91.746094 L 166.32031 90.826172 C 166.46081 90.769212 166.48319 90.693634 166.46289 90.476562 L 165.94141 84.904297 C 165.91973 84.672707 165.88511 84.617791 165.73633 84.587891 L 163.11133 84.148438 C 162.96256 84.118567 162.88079 84.023626 162.86719 83.878906 L 162.53125 80.304688 C 162.51093 80.087617 162.57403 79.964672 162.71875 79.951172 z M 73.298828 81.230469 L 73.300781 81.230469 C 73.316411 81.230289 73.332026 81.230289 73.347656 81.230469 C 74.451238 81.230249 75.34592 82.124936 75.345703 83.228516 C 75.345915 84.332096 74.451235 85.226783 73.347656 85.226562 C 72.244077 85.226783 71.349397 84.332096 71.349609 83.228516 C 71.349077 82.143726 72.214361 81.256769 73.298828 81.230469 z M 105.94336 81.322266 C 105.95966 81.322066 105.97589 81.322066 105.99219 81.322266 C 107.09577 81.322046 107.99044 82.216733 107.99023 83.320312 C 107.99045 84.423892 107.09577 85.318579 105.99219 85.318359 C 104.88861 85.318579 103.99392 84.423893 103.99414 83.320312 C 103.99361 82.235532 104.8589 81.348566 105.94336 81.322266 z M 170.00781 85.3125 C 169.8156 85.28669 169.70607 85.370369 169.73047 85.630859 L 170.04883 89.03125 C 170.07321 89.2917 170.19875 89.367641 170.38281 89.306641 L 176.47852 87.056641 L 177.06445 86.929688 L 177.01758 86.423828 L 176.41602 86.40625 L 170.00781 85.3125 z M 76.404297 86.257812 L 103.06836 86.363281 L 103.0918 106.05469 L 66.429688 105.99805 L 67.023438 100.56836 C 68.388553 100.15497 69.314548 98.887108 69.292969 97.460938 L 69.271484 96.035156 L 73.318359 96.035156 C 75.10436 96.034706 76.543525 94.570906 76.513672 92.785156 L 76.404297 86.257812 z M 124.96875 89.380859 C 130.41556 89.381469 134.8306 93.863838 134.83008 99.392578 C 134.82954 104.92055 130.41481 109.40173 124.96875 109.40234 C 119.52193 109.40283 115.10601 104.92133 115.10547 99.392578 C 115.10495 93.863068 119.52118 89.380369 124.96875 89.380859 z M 50.058594 90.322266 C 48.761846 90.326266 47.596001 91.113263 47.107422 92.314453 L 42.335938 104.07031 L 38.728516 92.679688 C 37.810948 89.787317 33.757196 89.681124 32.689453 92.521484 L 24.017578 115.59961 L 22.394531 112.2168 C 21.630526 110.62494 19.72048 109.95415 18.128906 110.71875 C 16.5389 111.48346 15.869254 113.39186 16.632812 114.98242 L 21.498047 125.11328 C 22.71615 127.64934 26.379909 127.48852 27.371094 124.85547 L 35.423828 103.41992 L 38.914062 114.44531 C 39.818546 117.29688 43.794392 117.45457 44.921875 114.68359 L 51.142578 99.369141 L 56.326172 104.94922 C 57.527547 106.24145 59.548775 106.31575 60.841797 105.11523 C 62.135308 103.91366 62.209643 101.89093 61.007812 100.59766 L 52.412109 91.341797 C 51.80432 90.688317 50.951021 90.318676 50.058594 90.322266 z M 147.85938 92.826172 C 147.87498 92.825992 147.89065 92.825992 147.90625 92.826172 C 149.00907 92.825952 149.90343 93.719446 149.9043 94.822266 C 149.90452 95.925846 149.00983 96.820533 147.90625 96.820312 C 146.80343 96.819443 145.90994 95.925086 145.91016 94.822266 C 145.91069 93.738246 146.77567 92.852452 147.85938 92.826172 z M 66.013672 95.207031 C 66.029942 95.206831 66.04623 95.206831 66.0625 95.207031 C 67.166082 95.206811 68.060764 96.101498 68.060547 97.205078 C 68.060764 98.308658 67.166082 99.203345 66.0625 99.203125 C 64.958921 99.203335 64.064236 98.308658 64.064453 97.205078 C 64.063921 96.120298 64.929209 95.233341 66.013672 95.207031 z M 163.92773 98.955078 L 181.68359 100.63281 C 181.98748 100.66152 182.15761 100.86799 182.12891 101.17188 L 181.83789 104.24023 C 181.80918 104.54411 181.60465 104.71425 181.30078 104.68555 L 163.54492 103.00781 C 163.24104 102.9791 163.07091 102.77262 163.09961 102.46875 L 163.38867 99.402344 C 163.41737 99.098464 163.62385 98.926378 163.92773 98.955078 z M 58.570312 100.74609 C 58.586582 100.74589 58.602871 100.74589 58.619141 100.74609 C 59.72272 100.74587 60.617399 101.64056 60.617188 102.74414 C 60.616327 103.84696 59.721962 104.74045 58.619141 104.74023 C 57.516324 104.74044 56.621954 103.84696 56.621094 102.74414 C 56.620567 101.65936 57.485853 100.7724 58.570312 100.74609 z M 106.05664 107.16992 L 106.05859 107.16992 C 106.07419 107.16974 106.08987 107.16974 106.10547 107.16992 C 107.20905 107.1697 108.10373 108.06439 108.10352 109.16797 C 108.10374 110.27155 107.20905 111.16624 106.10547 111.16602 C 105.00189 111.16623 104.1072 110.27155 104.10742 109.16797 C 104.10689 108.08319 104.97218 107.19623 106.05664 107.16992 z M 59.570312 107.33789 C 59.586582 107.33769 59.602871 107.33769 59.619141 107.33789 C 60.721962 107.33875 61.615451 108.23312 61.615234 109.33594 C 61.61437 110.438 60.721197 111.33117 59.619141 111.33203 C 58.516328 111.33224 57.621959 110.43875 57.621094 109.33594 C 57.620562 108.25116 58.485849 107.3642 59.570312 107.33789 z M 162.90234 107.75586 C 162.96689 107.75177 163.03629 107.76125 163.10938 107.7832 L 180.19141 112.91211 C 180.48376 112.9999 180.60928 113.23697 180.52148 113.5293 L 179.70312 116.25586 C 179.64878 116.43683 179.53709 116.55566 179.38672 116.60156 L 168.08398 119.26367 C 167.42682 119.43054 166.53558 119.57127 166.33789 119.57227 L 166.30469 119.68359 C 167.73305 119.77868 170.04416 120.21703 171.61719 120.68945 L 177.33984 122.40625 C 177.6322 122.49405 177.75772 122.72915 177.66992 123.02148 L 176.7832 125.97266 C 176.69541 126.26502 176.4603 126.39249 176.16797 126.30469 L 159.08789 121.17578 C 158.79553 121.08799 158.67001 120.85092 158.75781 120.55859 L 159.56836 117.85938 C 159.62271 117.6784 159.71553 117.56901 159.91602 117.50781 L 170.87695 114.66797 C 171.57588 114.51361 172.22164 114.43447 172.27734 114.45117 L 172.31055 114.33984 C 171.45019 114.32427 169.45641 113.9383 167.63281 113.39062 L 161.93945 111.68164 C 161.64709 111.59385 161.51962 111.35874 161.60742 111.06641 L 162.49414 108.11523 C 162.55998 107.89596 162.70872 107.76813 162.90234 107.75586 z M 19.480469 111.64453 C 19.496739 111.64433 19.513027 111.64433 19.529297 111.64453 C 20.632114 111.6454 21.525608 112.53976 21.525391 113.64258 C 21.525608 114.7454 20.632114 115.63975 19.529297 115.64062 C 18.425715 115.64085 17.531033 114.74616 17.53125 113.64258 C 17.530718 112.55779 18.396002 111.67083 19.480469 111.64453 z M 59.601562 127.55664 C 59.617193 127.55646 59.632808 127.55646 59.648438 127.55664 C 60.751258 127.55642 61.645624 128.44991 61.646484 129.55273 C 61.646701 130.65631 60.752019 131.551 59.648438 131.55078 C 58.54562 131.54991 57.652127 130.65555 57.652344 129.55273 C 57.65287 128.46871 58.517856 127.58293 59.601562 127.55664 z M 140.54492 127.83594 C 140.56122 127.83574 140.57745 127.83574 140.59375 127.83594 C 141.69733 127.83572 142.59202 128.7304 142.5918 129.83398 C 142.59093 130.9368 141.69657 131.8303 140.59375 131.83008 C 139.49094 131.83029 138.59657 130.93679 138.5957 129.83398 C 138.59517 128.74919 139.46045 127.86224 140.54492 127.83594 z M 159.17383 137.00195 C 159.21363 137.00495 159.24703 137.02634 159.28125 137.05664 C 159.31545 137.08694 159.35125 137.12914 159.38672 137.17969 C 159.45772 137.28067 159.53237 137.41901 159.61328 137.58594 C 159.77507 137.9198 159.95485 138.36251 160.13086 138.8125 C 160.30687 139.2625 160.48057 139.71964 160.62891 140.08008 C 160.70311 140.2603 160.77128 140.41684 160.83008 140.53516 C 160.88888 140.65348 160.94165 140.73501 160.96875 140.75781 C 160.99585 140.78061 161.08626 140.81962 161.21289 140.85742 C 161.33952 140.89522 161.50508 140.93623 161.69531 140.97852 C 162.07579 141.06322 162.55587 141.15535 163.0293 141.25195 C 163.50273 141.34855 163.96959 141.45029 164.32617 141.55273 C 164.50446 141.60393 164.65402 141.65434 164.76562 141.70703 C 164.82143 141.73343 164.8686 141.76056 164.9043 141.78906 C 164.94 141.81766 164.96656 141.84792 164.97656 141.88672 C 164.98656 141.92552 164.9772 141.96591 164.95898 142.00781 C 164.94068 142.04971 164.912 142.09512 164.875 142.14453 C 164.8009 142.24323 164.6904 142.3578 164.55664 142.48633 C 164.28912 142.74338 163.92436 143.05097 163.55078 143.35742 C 163.17719 143.66387 162.79501 143.97019 162.49805 144.22266 C 162.34957 144.34889 162.22321 144.46219 162.12891 144.55469 C 162.03451 144.64719 161.97228 144.72306 161.95898 144.75586 C 161.94548 144.78866 161.93645 144.88548 161.93945 145.01758 C 161.94245 145.14969 161.95611 145.31966 161.97461 145.51367 C 162.01171 145.90168 162.0726 146.38707 162.12695 146.86719 C 162.18135 147.34731 162.22939 147.82258 162.24219 148.19336 C 162.24819 148.37876 162.24617 148.53772 162.23047 148.66016 C 162.22247 148.72136 162.21141 148.77371 162.19531 148.81641 C 162.17921 148.85911 162.15695 148.89492 162.12305 148.91602 C 162.08905 148.93712 162.04945 148.93955 162.00391 148.93555 C 161.95841 148.93155 161.90601 148.91844 161.84766 148.89844 C 161.73087 148.85844 161.58741 148.79062 161.42383 148.70312 C 161.09669 148.52814 160.69206 148.27427 160.28516 148.01367 C 159.87827 147.75308 159.4686 147.48566 159.13672 147.28125 C 158.97079 147.17905 158.8242 147.09235 158.70703 147.03125 C 158.58988 146.97015 158.49819 146.93649 158.46289 146.93359 C 158.42759 146.93059 158.33169 146.95219 158.20703 146.99609 C 158.08238 147.03999 157.92488 147.10404 157.74609 147.18164 C 157.38853 147.3368 156.94762 147.54403 156.50781 147.74414 C 156.06801 147.94425 155.62995 148.13696 155.28125 148.26367 C 155.1069 148.32707 154.95527 148.37348 154.83398 148.39648 C 154.77338 148.40828 154.71943 148.41411 154.67383 148.41211 C 154.62823 148.41011 154.58922 148.4007 154.55859 148.375 C 154.52799 148.3493 154.51195 148.3122 154.50195 148.26758 C 154.49295 148.22298 154.48923 148.16907 154.49023 148.10742 C 154.49223 147.984 154.51222 147.82519 154.54492 147.64258 C 154.61022 147.27738 154.72556 146.81517 154.84766 146.34766 C 154.96977 145.88016 155.09765 145.4081 155.18945 145.0293 C 155.23545 144.8399 155.27305 144.67328 155.29492 144.54297 C 155.31692 144.41266 155.3205 144.31555 155.3125 144.28125 C 155.3035 144.24695 155.254 144.16164 155.17383 144.05664 C 155.09363 143.95164 154.9845 143.82184 154.85547 143.67578 C 154.59741 143.38367 154.26372 143.02636 153.9375 142.66992 C 153.61127 142.31348 153.29271 141.95849 153.06445 141.66602 C 152.95032 141.51978 152.85813 141.3895 152.79883 141.28125 C 152.76913 141.22715 152.74648 141.17877 152.73438 141.13477 C 152.72227 141.09077 152.71938 141.04867 152.73438 141.01172 C 152.74937 140.97462 152.78091 140.94888 152.82031 140.92578 C 152.85971 140.90258 152.90972 140.88353 152.96875 140.86523 C 153.08672 140.82883 153.24201 140.79884 153.42578 140.77344 C 153.79328 140.72264 154.26959 140.68844 154.75195 140.66016 C 155.23431 140.63186 155.72269 140.60978 156.11133 140.58008 C 156.30566 140.56528 156.47476 140.5487 156.60547 140.5293 C 156.73618 140.5099 156.83133 140.48354 156.86133 140.46484 C 156.89133 140.44614 156.95613 140.37244 157.03125 140.26367 C 157.10635 140.15492 157.19592 140.00965 157.29492 139.8418 C 157.49299 139.50611 157.72861 139.07861 157.9668 138.6582 C 158.20498 138.2378 158.44668 137.82505 158.6543 137.51758 C 158.75811 137.36385 158.8529 137.23638 158.9375 137.14648 C 158.9798 137.10158 159.0185 137.06609 159.05664 137.04102 C 159.09484 137.01592 159.13394 136.99895 159.17383 137.00195 z M 40.445312 140.28711 C 40.553702 140.28811 40.659979 140.33771 40.755859 140.43555 L 48.025391 147.85156 C 48.217151 148.04724 48.215331 148.28677 48.019531 148.47852 L 46.277344 150.1875 C 46.081684 150.37757 45.842171 150.37548 45.650391 150.17969 L 43.605469 148.0918 C 43.413699 147.89443 43.172223 147.89242 42.976562 148.08398 L 34.013672 156.86914 C 33.818022 157.05921 33.578489 157.0572 33.386719 156.86133 L 31.451172 154.88477 L 31.451172 154.88867 C 31.259322 154.69307 31.261241 154.45347 31.457031 154.26172 L 40.419922 145.47656 C 40.615592 145.28481 40.617421 145.0453 40.425781 144.84961 L 38.380859 142.76172 C 38.189109 142.56612 38.190929 142.3266 38.386719 142.13477 L 40.128906 140.42773 C 40.226706 140.33273 40.336932 140.28581 40.445312 140.28711 z M 51.107422 150.56055 C 51.213752 150.53945 51.329529 150.56658 51.443359 150.64258 L 59.919922 156.31836 C 60.147592 156.47073 60.195369 156.70592 60.042969 156.93359 L 58.685547 158.96094 C 58.533147 159.18861 58.297982 159.23447 58.070312 159.08203 L 52.626953 155.43945 C 52.399283 155.28708 52.164119 155.33288 52.011719 155.56055 L 50.654297 157.58789 C 50.501897 157.81556 50.549674 158.05075 50.777344 158.20312 L 55.244141 161.19336 C 55.471811 161.34573 55.517624 161.58092 55.365234 161.80859 L 54.007812 163.83594 C 53.855423 164.06361 53.620248 164.11143 53.392578 163.95898 L 48.925781 160.96875 C 48.698121 160.8163 48.462947 160.86217 48.310547 161.08984 L 46.880859 163.22656 C 46.728469 163.45423 46.776236 163.68942 47.003906 163.8418 L 52.445312 167.48438 C 52.672983 167.63675 52.720759 167.87194 52.568359 168.09961 L 51.210938 170.12695 C 51.058537 170.35462 50.823363 170.4005 50.595703 170.24805 L 42.117188 164.57422 C 41.889517 164.42185 41.843694 164.18665 41.996094 163.95898 L 50.828125 150.76367 C 50.904325 150.64983 51.001102 150.5816 51.107422 150.56055 z M 136.11914 152.49805 C 137.23042 152.46675 138.27552 152.79671 139.17188 153.48242 C 139.38666 153.66955 139.40857 153.70208 139.45117 153.76758 C 139.51517 153.86598 139.51696 153.98817 139.41406 154.11719 L 137.89258 156.13281 C 137.85208 156.19031 137.80468 156.23598 137.75 156.27148 C 137.6187 156.35658 137.42925 156.35453 137.24609 156.24023 C 136.45603 155.74219 135.46168 155.76665 134.50977 156.38477 C 133.44843 157.07394 133.22248 158.04542 133.69141 158.76758 C 134.14612 159.46777 135.01475 159.55636 137.20703 159.00391 C 140.75694 158.09878 143.04376 158.69842 144.28711 160.61328 C 145.99229 163.23918 145.2582 166.11059 142.12891 168.14258 C 139.60142 169.78381 136.98016 169.91529 135.22852 168.43945 C 135.01372 168.25232 134.99182 168.2198 134.94922 168.1543 C 134.88532 168.0559 134.88343 167.93175 134.98633 167.80273 L 136.56836 165.64062 C 136.60886 165.58322 136.65626 165.53735 136.71094 165.50195 C 136.84224 165.41695 137.03167 165.4189 137.21484 165.5332 C 138.0552 166.06083 139.0597 166.07701 140.28516 165.28125 C 141.41214 164.54946 141.63335 163.59524 141.12891 162.81836 C 140.6742 162.11809 139.79482 161.86675 137.58008 162.48047 C 133.97107 163.48625 131.75709 162.85468 130.35742 160.69922 C 129.07144 158.71879 129.71765 155.59214 132.67188 153.67383 C 133.83167 152.92069 135.00787 152.5294 136.11914 152.49805 z M 62.703125 157.82812 C 62.756925 157.80732 62.820199 157.80422 62.880859 157.82812 L 66.011719 159.06641 C 66.217989 159.14791 66.315877 159.25573 66.335938 159.41797 L 66.710938 163.71875 C 66.727037 164.10388 66.767566 165.35499 66.759766 165.80078 L 66.832031 165.82812 C 67.150111 164.84563 67.721859 164.28608 69.099609 162.96484 L 71.042969 161.2793 C 71.173299 161.1622 71.337953 161.17124 71.507812 161.23828 L 74.794922 162.53711 C 74.928522 162.58981 74.966114 162.7447 74.927734 162.8418 C 74.903834 162.9024 74.862438 162.97035 74.835938 163.00195 L 67.746094 168.8418 C 67.685694 168.888 67.625357 168.9327 67.591797 169.01758 C 67.558197 169.10248 67.581562 169.18349 67.601562 169.27539 L 68.779297 177.9043 C 68.799297 177.9962 68.797538 178.03676 68.773438 178.09766 C 68.720737 178.23096 68.562448 178.23889 68.392578 178.17188 L 65.214844 176.91602 C 64.947914 176.81051 64.868981 176.6537 64.863281 176.45508 L 64.544922 172.14844 C 64.528722 171.76331 64.462903 170.68601 64.470703 170.24023 L 64.398438 170.21094 C 64.125168 170.90251 63.264883 171.90907 62.132812 172.89258 L 60.179688 174.60547 C 60.027637 174.74207 59.850914 174.79696 59.583984 174.69141 L 56.453125 173.45508 C 56.258965 173.37838 56.199213 173.28388 56.251953 173.15039 C 56.275953 173.08969 56.328262 173.02667 56.388672 172.98047 L 63.556641 167.08789 C 63.638741 167.02219 63.679155 166.95348 63.703125 166.89258 C 63.736625 166.80768 63.737009 166.73886 63.724609 166.66406 L 62.554688 158.12109 C 62.544688 158.07519 62.556737 158.0099 62.585938 157.9375 C 62.605137 157.889 62.649335 157.84889 62.703125 157.82812 z M 125.03906 158.54492 C 125.21319 158.54292 125.35393 158.6461 125.42773 158.83789 L 126.30469 161.11523 C 126.40309 161.37088 126.30668 161.5891 126.05078 161.6875 L 119.93945 164.04102 C 119.68411 164.13942 119.58519 164.35959 119.68359 164.61523 L 120.56055 166.89062 C 120.65895 167.14519 120.8791 167.24488 121.13477 167.14648 L 126.15039 165.21484 C 126.40606 165.11644 126.62426 165.21285 126.72266 165.46875 L 127.59961 167.74609 C 127.69801 168.00173 127.6016 168.21996 127.3457 168.31836 L 122.33008 170.25 C 122.07473 170.3484 121.97582 170.56857 122.07422 170.82422 L 122.99805 173.22266 C 123.09645 173.47723 123.31661 173.57496 123.57227 173.47656 L 129.68359 171.12305 C 129.93926 171.02465 130.15746 171.12327 130.25586 171.37891 L 131.13281 173.6543 C 131.23121 173.90995 131.13482 174.13012 130.87891 174.22852 L 121.35742 177.89258 C 121.10175 177.99108 120.88356 177.89457 120.78516 177.63867 L 115.08008 162.82227 C 114.98168 162.56655 115.07807 162.34645 115.33398 162.24805 L 124.85547 158.58398 C 124.91937 158.55938 124.98101 158.54572 125.03906 158.54492 z M 77.275391 163.27148 C 77.332491 163.26078 77.395401 163.25998 77.462891 163.27148 L 87.695312 165.03711 C 87.965303 165.08371 88.105134 165.27885 88.058594 165.54883 L 87.642578 167.95312 C 87.595978 168.22312 87.400839 168.36065 87.130859 168.31445 L 84.251953 167.81836 C 83.981963 167.77186 83.784831 167.90966 83.738281 168.17969 L 81.605469 180.54688 C 81.558869 180.81684 81.36373 180.95636 81.09375 180.91016 L 78.367188 180.43945 C 78.097197 180.39285 77.959309 180.19574 78.005859 179.92578 L 80.138672 167.55859 C 80.185272 167.28861 80.047364 167.09307 79.777344 167.04688 L 76.896484 166.55078 C 76.626504 166.50418 76.488606 166.30709 76.535156 166.03711 L 76.951172 163.63281 C 76.986072 163.43033 77.104201 163.30345 77.275391 163.27148 z M 104.22852 164.41602 C 104.49898 164.37242 104.69456 164.51271 104.73828 164.7832 L 106.75977 177.30273 C 106.80347 177.57319 106.99712 177.71382 107.26758 177.66992 L 113.25586 176.70312 C 113.52633 176.65943 113.72203 176.79982 113.76562 177.07031 L 114.1543 179.47852 C 114.198 179.74897 114.0576 179.94243 113.78711 179.98633 L 104.19141 181.53516 C 103.92095 181.57876 103.72729 181.43846 103.68359 181.16797 L 101.13086 165.36523 C 101.08716 165.09479 101.22756 164.90132 101.49805 164.85742 L 104.22852 164.41602 z M 92.789062 165.04297 L 95.554688 165.06055 C 95.828648 165.06255 95.998094 165.23382 95.996094 165.50781 L 95.894531 181.51562 C 95.892531 181.78961 95.723179 181.95508 95.449219 181.95508 L 92.683594 181.9375 C 92.409624 181.9355 92.240688 181.76618 92.242188 181.49219 L 92.34375 165.48438 C 92.34575 165.21038 92.515103 165.04297 92.789062 165.04297 z "
       transform="translate(0,783.07098)" />
    <g
       aria-label=" "
       transform="matrix(0.10609259,-0.08397701,0.08397701,0.10609259,15.545924,940.0459)"
       id="text6924"
       style="font-style:normal;font-variant:normal;font-weight:normal;font-stretch:normal;font-size:220px;line-height:0%;font-family:'Politics Head';-inkscape-font-specification:'Politics Head';text-align:start;letter-spacing:0px;word-spacing:0px;writing-mode:lr-tb;text-anchor:start;fill:#ffffff;fill-opacity:1;stroke:none" />
  </g>
</svg>
