<?xml version="1.0" encoding="UTF-8" standalone="no"?>
<svg
   xmlns:dc="http://purl.org/dc/elements/1.1/"
   xmlns:cc="http://creativecommons.org/ns#"
   xmlns:rdf="http://www.w3.org/1999/02/22-rdf-syntax-ns#"
   xmlns:svg="http://www.w3.org/2000/svg"
   xmlns="http://www.w3.org/2000/svg"
   xmlns:sodipodi="http://sodipodi.sourceforge.net/DTD/sodipodi-0.dtd"
   xmlns:inkscape="http://www.inkscape.org/namespaces/inkscape"
   width="50mm"
   height="50mm"
   id="svg2"
   version="1.1"
   inkscape:version="1.0.2 (e86c870879, 2021-01-15, custom)"
   sodipodi:docname="xHain_stickers_5cm_scubar.svg"
   inkscape:export-filename="/home/xHain_stickers_5cm_scubar.png"
   inkscape:export-xdpi="350"
   inkscape:export-ydpi="350">
  <sodipodi:namedview
     id="base"
     pagecolor="#ffffff"
     bordercolor="#666666"
     borderopacity="1.0"
     inkscape:pageopacity="0.0"
     inkscape:pageshadow="2"
     inkscape:zoom="2.8138778"
     inkscape:cx="63.580879"
     inkscape:cy="80.254902"
     inkscape:document-units="mm"
     inkscape:current-layer="layer1"
     showgrid="false"
     inkscape:window-width="1920"
     inkscape:window-height="1032"
     inkscape:window-x="0"
     inkscape:window-y="0"
     inkscape:window-maximized="1"
     showguides="true"
     inkscape:guide-bbox="true"
     units="mm"
     inkscape:document-rotation="0">
    <inkscape:grid
       type="xygrid"
       id="grid2985"
       empspacing="5"
       visible="true"
       enabled="true"
       snapvisiblegridlinesonly="true" />
  </sodipodi:namedview>
  <defs
     id="defs4">
    <marker
       inkscape:stockid="DotS"
       orient="auto"
       refY="0"
       refX="0"
       id="DotS"
       style="overflow:visible">
      <path
         id="path3828"
         d="m -2.5,-1 c 0,2.76 -2.24,5 -5,5 -2.76,0 -5,-2.24 -5,-5 0,-2.76 2.24,-5 5,-5 2.76,0 5,2.24 5,5 z"
         style="fill-rule:evenodd;stroke:#000000;stroke-width:1pt"
         transform="matrix(0.2,0,0,0.2,1.48,0.2)"
         inkscape:connector-curvature="0" />
    </marker>
    <marker
       inkscape:stockid="DotS"
       orient="auto"
       refY="0"
       refX="0"
       id="DotS-1"
       style="overflow:visible">
      <path
         inkscape:connector-curvature="0"
         id="path3828-5"
         d="m -2.5,-1 c 0,2.76 -2.24,5 -5,5 -2.76,0 -5,-2.24 -5,-5 0,-2.76 2.24,-5 5,-5 2.76,0 5,2.24 5,5 z"
         style="fill-rule:evenodd;stroke:#000000;stroke-width:1pt"
         transform="matrix(0.2,0,0,0.2,1.48,0.2)" />
    </marker>
    <marker
       inkscape:stockid="DotS"
       orient="auto"
       refY="0"
       refX="0"
       id="marker4395"
       style="overflow:visible">
      <path
         inkscape:connector-curvature="0"
         id="path4397"
         d="m -2.5,-1 c 0,2.76 -2.24,5 -5,5 -2.76,0 -5,-2.24 -5,-5 0,-2.76 2.24,-5 5,-5 2.76,0 5,2.24 5,5 z"
         style="fill-rule:evenodd;stroke:#000000;stroke-width:1pt"
         transform="matrix(0.2,0,0,0.2,1.48,0.2)" />
    </marker>
    <marker
       inkscape:stockid="DotS"
       orient="auto"
       refY="0"
       refX="0"
       id="DotS-3"
       style="overflow:visible">
      <path
         inkscape:connector-curvature="0"
         id="path3828-0"
         d="m -2.5,-1 c 0,2.76 -2.24,5 -5,5 -2.76,0 -5,-2.24 -5,-5 0,-2.76 2.24,-5 5,-5 2.76,0 5,2.24 5,5 z"
         style="fill-rule:evenodd;stroke:#000000;stroke-width:1pt"
         transform="matrix(0.2,0,0,0.2,1.48,0.2)" />
    </marker>
    <marker
       inkscape:stockid="DotS"
       orient="auto"
       refY="0"
       refX="0"
       id="marker4427"
       style="overflow:visible">
      <path
         inkscape:connector-curvature="0"
         id="path4429"
         d="m -2.5,-1 c 0,2.76 -2.24,5 -5,5 -2.76,0 -5,-2.24 -5,-5 0,-2.76 2.24,-5 5,-5 2.76,0 5,2.24 5,5 z"
         style="fill-rule:evenodd;stroke:#000000;stroke-width:1pt"
         transform="matrix(0.2,0,0,0.2,1.48,0.2)" />
    </marker>
    <marker
       inkscape:stockid="DotS"
       orient="auto"
       refY="0"
       refX="0"
       id="DotS-2"
       style="overflow:visible">
      <path
         inkscape:connector-curvature="0"
         id="path3828-1"
         d="m -2.5,-1 c 0,2.76 -2.24,5 -5,5 -2.76,0 -5,-2.24 -5,-5 0,-2.76 2.24,-5 5,-5 2.76,0 5,2.24 5,5 z"
         style="fill-rule:evenodd;stroke:#000000;stroke-width:1pt"
         transform="matrix(0.2,0,0,0.2,1.48,0.2)" />
    </marker>
    <marker
       inkscape:stockid="DotS"
       orient="auto"
       refY="0"
       refX="0"
       id="marker4427-3"
       style="overflow:visible">
      <path
         inkscape:connector-curvature="0"
         id="path4429-9"
         d="m -2.5,-1 c 0,2.76 -2.24,5 -5,5 -2.76,0 -5,-2.24 -5,-5 0,-2.76 2.24,-5 5,-5 2.76,0 5,2.24 5,5 z"
         style="fill-rule:evenodd;stroke:#000000;stroke-width:1pt"
         transform="matrix(0.2,0,0,0.2,1.48,0.2)" />
    </marker>
    <marker
       inkscape:stockid="DotS"
       orient="auto"
       refY="0"
       refX="0"
       id="DotS-21"
       style="overflow:visible">
      <path
         inkscape:connector-curvature="0"
         id="path3828-6"
         d="m -2.5,-1 c 0,2.76 -2.24,5 -5,5 -2.76,0 -5,-2.24 -5,-5 0,-2.76 2.24,-5 5,-5 2.76,0 5,2.24 5,5 z"
         style="fill-rule:evenodd;stroke:#000000;stroke-width:1pt"
         transform="matrix(0.2,0,0,0.2,1.48,0.2)" />
    </marker>
    <marker
       inkscape:stockid="DotS"
       orient="auto"
       refY="0"
       refX="0"
       id="marker4474"
       style="overflow:visible">
      <path
         inkscape:connector-curvature="0"
         id="path4476"
         d="m -2.5,-1 c 0,2.76 -2.24,5 -5,5 -2.76,0 -5,-2.24 -5,-5 0,-2.76 2.24,-5 5,-5 2.76,0 5,2.24 5,5 z"
         style="fill-rule:evenodd;stroke:#000000;stroke-width:1pt"
         transform="matrix(0.2,0,0,0.2,1.48,0.2)" />
    </marker>
    <marker
       inkscape:stockid="DotS"
       orient="auto"
       refY="0"
       refX="0"
       id="DotS-36"
       style="overflow:visible">
      <path
         inkscape:connector-curvature="0"
         id="path3828-8"
         d="m -2.5,-1 c 0,2.76 -2.24,5 -5,5 -2.76,0 -5,-2.24 -5,-5 0,-2.76 2.24,-5 5,-5 2.76,0 5,2.24 5,5 z"
         style="fill-rule:evenodd;stroke:#000000;stroke-width:1pt"
         transform="matrix(0.2,0,0,0.2,1.48,0.2)" />
    </marker>
    <marker
       inkscape:stockid="DotS"
       orient="auto"
       refY="0"
       refX="0"
       id="marker4516"
       style="overflow:visible">
      <path
         inkscape:connector-curvature="0"
         id="path4518"
         d="m -2.5,-1 c 0,2.76 -2.24,5 -5,5 -2.76,0 -5,-2.24 -5,-5 0,-2.76 2.24,-5 5,-5 2.76,0 5,2.24 5,5 z"
         style="fill-rule:evenodd;stroke:#000000;stroke-width:1pt"
         transform="matrix(0.2,0,0,0.2,1.48,0.2)" />
    </marker>
    <marker
       inkscape:stockid="DotS"
       orient="auto"
       refY="0"
       refX="0"
       id="DotS-11"
       style="overflow:visible">
      <path
         inkscape:connector-curvature="0"
         id="path3828-58"
         d="m -2.5,-1 c 0,2.76 -2.24,5 -5,5 -2.76,0 -5,-2.24 -5,-5 0,-2.76 2.24,-5 5,-5 2.76,0 5,2.24 5,5 z"
         style="fill-rule:evenodd;stroke:#000000;stroke-width:1pt"
         transform="matrix(0.2,0,0,0.2,1.48,0.2)" />
    </marker>
    <marker
       inkscape:stockid="DotS"
       orient="auto"
       refY="0"
       refX="0"
       id="marker4954"
       style="overflow:visible">
      <path
         inkscape:connector-curvature="0"
         id="path4956"
         d="m -2.5,-1 c 0,2.76 -2.24,5 -5,5 -2.76,0 -5,-2.24 -5,-5 0,-2.76 2.24,-5 5,-5 2.76,0 5,2.24 5,5 z"
         style="fill-rule:evenodd;stroke:#000000;stroke-width:1pt"
         transform="matrix(0.2,0,0,0.2,1.48,0.2)" />
    </marker>
    <marker
       inkscape:stockid="DotS"
       orient="auto"
       refY="0"
       refX="0"
       id="DotS-7"
       style="overflow:visible">
      <path
         inkscape:connector-curvature="0"
         id="path3828-3"
         d="m -2.5,-1 c 0,2.76 -2.24,5 -5,5 -2.76,0 -5,-2.24 -5,-5 0,-2.76 2.24,-5 5,-5 2.76,0 5,2.24 5,5 z"
         style="fill-rule:evenodd;stroke:#000000;stroke-width:1pt"
         transform="matrix(0.2,0,0,0.2,1.48,0.2)" />
    </marker>
    <marker
       inkscape:stockid="DotS"
       orient="auto"
       refY="0"
       refX="0"
       id="marker5024"
       style="overflow:visible">
      <path
         inkscape:connector-curvature="0"
         id="path5026"
         d="m -2.5,-1 c 0,2.76 -2.24,5 -5,5 -2.76,0 -5,-2.24 -5,-5 0,-2.76 2.24,-5 5,-5 2.76,0 5,2.24 5,5 z"
         style="fill-rule:evenodd;stroke:#000000;stroke-width:1pt"
         transform="matrix(0.2,0,0,0.2,1.48,0.2)" />
    </marker>
    <marker
       inkscape:stockid="DotS"
       orient="auto"
       refY="0"
       refX="0"
       id="DotS-34"
       style="overflow:visible">
      <path
         inkscape:connector-curvature="0"
         id="path3828-16"
         d="m -2.5,-1 c 0,2.76 -2.24,5 -5,5 -2.76,0 -5,-2.24 -5,-5 0,-2.76 2.24,-5 5,-5 2.76,0 5,2.24 5,5 z"
         style="fill-rule:evenodd;stroke:#000000;stroke-width:1pt"
         transform="matrix(0.2,0,0,0.2,1.48,0.2)" />
    </marker>
    <marker
       inkscape:stockid="DotS"
       orient="auto"
       refY="0"
       refX="0"
       id="marker5056"
       style="overflow:visible">
      <path
         inkscape:connector-curvature="0"
         id="path5058"
         d="m -2.5,-1 c 0,2.76 -2.24,5 -5,5 -2.76,0 -5,-2.24 -5,-5 0,-2.76 2.24,-5 5,-5 2.76,0 5,2.24 5,5 z"
         style="fill-rule:evenodd;stroke:#000000;stroke-width:1pt"
         transform="matrix(0.2,0,0,0.2,1.48,0.2)" />
    </marker>
    <marker
       inkscape:stockid="DotS"
       orient="auto"
       refY="0"
       refX="0"
       id="marker4516-8"
       style="overflow:visible">
      <path
         inkscape:connector-curvature="0"
         id="path4518-5"
         d="m -2.5,-1 c 0,2.76 -2.24,5 -5,5 -2.76,0 -5,-2.24 -5,-5 0,-2.76 2.24,-5 5,-5 2.76,0 5,2.24 5,5 z"
         style="fill-rule:evenodd;stroke:#000000;stroke-width:1pt"
         transform="matrix(0.2,0,0,0.2,1.48,0.2)" />
    </marker>
    <marker
       inkscape:stockid="DotS"
       orient="auto"
       refY="0"
       refX="0"
       id="marker5088"
       style="overflow:visible">
      <path
         inkscape:connector-curvature="0"
         id="path5090"
         d="m -2.5,-1 c 0,2.76 -2.24,5 -5,5 -2.76,0 -5,-2.24 -5,-5 0,-2.76 2.24,-5 5,-5 2.76,0 5,2.24 5,5 z"
         style="fill-rule:evenodd;stroke:#000000;stroke-width:1pt"
         transform="matrix(0.2,0,0,0.2,1.48,0.2)" />
    </marker>
    <marker
       inkscape:stockid="DotS"
       orient="auto"
       refY="0"
       refX="0"
       id="marker4516-9"
       style="overflow:visible">
      <path
         inkscape:connector-curvature="0"
         id="path4518-55"
         d="m -2.5,-1 c 0,2.76 -2.24,5 -5,5 -2.76,0 -5,-2.24 -5,-5 0,-2.76 2.24,-5 5,-5 2.76,0 5,2.24 5,5 z"
         style="fill-rule:evenodd;stroke:#000000;stroke-width:1pt"
         transform="matrix(0.2,0,0,0.2,1.48,0.2)" />
    </marker>
    <marker
       inkscape:stockid="DotS"
       orient="auto"
       refY="0"
       refX="0"
       id="marker5137"
       style="overflow:visible">
      <path
         inkscape:connector-curvature="0"
         id="path5139"
         d="m -2.5,-1 c 0,2.76 -2.24,5 -5,5 -2.76,0 -5,-2.24 -5,-5 0,-2.76 2.24,-5 5,-5 2.76,0 5,2.24 5,5 z"
         style="fill-rule:evenodd;stroke:#000000;stroke-width:1pt"
         transform="matrix(0.2,0,0,0.2,1.48,0.2)" />
    </marker>
    <marker
       inkscape:stockid="DotS"
       orient="auto"
       refY="0"
       refX="0"
       id="DotS-0"
       style="overflow:visible">
      <path
         inkscape:connector-curvature="0"
         id="path3828-4"
         d="m -2.5,-1 c 0,2.76 -2.24,5 -5,5 -2.76,0 -5,-2.24 -5,-5 0,-2.76 2.24,-5 5,-5 2.76,0 5,2.24 5,5 z"
         style="fill-rule:evenodd;stroke:#000000;stroke-width:1pt"
         transform="matrix(0.2,0,0,0.2,1.48,0.2)" />
    </marker>
    <marker
       inkscape:stockid="DotS"
       orient="auto"
       refY="0"
       refX="0"
       id="marker5169"
       style="overflow:visible">
      <path
         inkscape:connector-curvature="0"
         id="path5171"
         d="m -2.5,-1 c 0,2.76 -2.24,5 -5,5 -2.76,0 -5,-2.24 -5,-5 0,-2.76 2.24,-5 5,-5 2.76,0 5,2.24 5,5 z"
         style="fill-rule:evenodd;stroke:#000000;stroke-width:1pt"
         transform="matrix(0.2,0,0,0.2,1.48,0.2)" />
    </marker>
    <marker
       inkscape:stockid="DotS"
       orient="auto"
       refY="0"
       refX="0"
       id="DotS-8"
       style="overflow:visible">
      <path
         inkscape:connector-curvature="0"
         id="path3828-66"
         d="m -2.5,-1 c 0,2.76 -2.24,5 -5,5 -2.76,0 -5,-2.24 -5,-5 0,-2.76 2.24,-5 5,-5 2.76,0 5,2.24 5,5 z"
         style="fill-rule:evenodd;stroke:#000000;stroke-width:1pt"
         transform="matrix(0.2,0,0,0.2,1.48,0.2)" />
    </marker>
    <marker
       inkscape:stockid="DotS"
       orient="auto"
       refY="0"
       refX="0"
       id="marker5218"
       style="overflow:visible">
      <path
         inkscape:connector-curvature="0"
         id="path5220"
         d="m -2.5,-1 c 0,2.76 -2.24,5 -5,5 -2.76,0 -5,-2.24 -5,-5 0,-2.76 2.24,-5 5,-5 2.76,0 5,2.24 5,5 z"
         style="fill-rule:evenodd;stroke:#000000;stroke-width:1pt"
         transform="matrix(0.2,0,0,0.2,1.48,0.2)" />
    </marker>
    <marker
       inkscape:stockid="DotSv"
       orient="auto"
       refY="0"
       refX="0"
       id="DotSv"
       style="overflow:visible">
      <path
         id="path5753"
         d="m -2.5,-1 c 0,2.76 -2.24,5 -5,5 -2.76,0 -5,-2.24 -5,-5 0,-2.76 2.24,-5 5,-5 2.76,0 5,2.24 5,5 z"
         style="fill:#858585;fill-rule:evenodd;stroke:#858585;stroke-width:1pt"
         transform="matrix(0.2,0,0,0.2,1.48,0.2)"
         inkscape:connector-curvature="0" />
    </marker>
    <marker
       inkscape:stockid="DotSs"
       orient="auto"
       refY="0"
       refX="0"
       id="DotSs"
       style="overflow:visible">
      <path
         id="path5756"
         d="m -2.5,-1 c 0,2.76 -2.24,5 -5,5 -2.76,0 -5,-2.24 -5,-5 0,-2.76 2.24,-5 5,-5 2.76,0 5,2.24 5,5 z"
         style="fill:#858585;fill-rule:evenodd;stroke:#858585;stroke-width:1pt"
         transform="matrix(0.2,0,0,0.2,1.48,0.2)"
         inkscape:connector-curvature="0" />
    </marker>
    <marker
       inkscape:stockid="DotSk"
       orient="auto"
       refY="0"
       refX="0"
       id="DotSk"
       style="overflow:visible">
      <path
         id="path5759"
         d="m -2.5,-1 c 0,2.76 -2.24,5 -5,5 -2.76,0 -5,-2.24 -5,-5 0,-2.76 2.24,-5 5,-5 2.76,0 5,2.24 5,5 z"
         style="fill:#858585;fill-rule:evenodd;stroke:#858585;stroke-width:1pt"
         transform="matrix(0.2,0,0,0.2,1.48,0.2)"
         inkscape:connector-curvature="0" />
    </marker>
    <marker
       inkscape:stockid="DotSK"
       orient="auto"
       refY="0"
       refX="0"
       id="DotSK"
       style="overflow:visible">
      <path
         id="path5762"
         d="m -2.5,-1 c 0,2.76 -2.24,5 -5,5 -2.76,0 -5,-2.24 -5,-5 0,-2.76 2.24,-5 5,-5 2.76,0 5,2.24 5,5 z"
         style="fill:#858585;fill-rule:evenodd;stroke:#858585;stroke-width:1pt"
         transform="matrix(0.2,0,0,0.2,1.48,0.2)"
         inkscape:connector-curvature="0" />
    </marker>
    <marker
       inkscape:stockid="DotSQ"
       orient="auto"
       refY="0"
       refX="0"
       id="DotSQ"
       style="overflow:visible">
      <path
         id="path5765"
         d="m -2.5,-1 c 0,2.76 -2.24,5 -5,5 -2.76,0 -5,-2.24 -5,-5 0,-2.76 2.24,-5 5,-5 2.76,0 5,2.24 5,5 z"
         style="fill:#858585;fill-rule:evenodd;stroke:#858585;stroke-width:1pt"
         transform="matrix(0.2,0,0,0.2,1.48,0.2)"
         inkscape:connector-curvature="0" />
    </marker>
    <marker
       inkscape:stockid="DotSg"
       orient="auto"
       refY="0"
       refX="0"
       id="DotSg"
       style="overflow:visible">
      <path
         id="path5768"
         d="m -2.5,-1 c 0,2.76 -2.24,5 -5,5 -2.76,0 -5,-2.24 -5,-5 0,-2.76 2.24,-5 5,-5 2.76,0 5,2.24 5,5 z"
         style="fill:#858585;fill-rule:evenodd;stroke:#858585;stroke-width:1pt"
         transform="matrix(0.2,0,0,0.2,1.48,0.2)"
         inkscape:connector-curvature="0" />
    </marker>
    <marker
       inkscape:stockid="marker4516J"
       orient="auto"
       refY="0"
       refX="0"
       id="marker4516J"
       style="overflow:visible">
      <path
         inkscape:connector-curvature="0"
         id="path5771"
         d="m -2.5,-1 c 0,2.76 -2.24,5 -5,5 -2.76,0 -5,-2.24 -5,-5 0,-2.76 2.24,-5 5,-5 2.76,0 5,2.24 5,5 z"
         style="fill:#858585;fill-rule:evenodd;stroke:#858585;stroke-width:1pt"
         transform="matrix(0.2,0,0,0.2,1.48,0.2)" />
    </marker>
    <marker
       inkscape:stockid="marker4516P"
       orient="auto"
       refY="0"
       refX="0"
       id="marker4516P"
       style="overflow:visible">
      <path
         inkscape:connector-curvature="0"
         id="path5774"
         d="m -2.5,-1 c 0,2.76 -2.24,5 -5,5 -2.76,0 -5,-2.24 -5,-5 0,-2.76 2.24,-5 5,-5 2.76,0 5,2.24 5,5 z"
         style="fill:#858585;fill-rule:evenodd;stroke:#858585;stroke-width:1pt"
         transform="matrix(0.2,0,0,0.2,1.48,0.2)" />
    </marker>
    <marker
       inkscape:stockid="DotSC"
       orient="auto"
       refY="0"
       refX="0"
       id="DotSC"
       style="overflow:visible">
      <path
         id="path5777"
         d="m -2.5,-1 c 0,2.76 -2.24,5 -5,5 -2.76,0 -5,-2.24 -5,-5 0,-2.76 2.24,-5 5,-5 2.76,0 5,2.24 5,5 z"
         style="fill:#858585;fill-rule:evenodd;stroke:#858585;stroke-width:1pt"
         transform="matrix(0.2,0,0,0.2,1.48,0.2)"
         inkscape:connector-curvature="0" />
    </marker>
    <marker
       inkscape:stockid="DotSL"
       orient="auto"
       refY="0"
       refX="0"
       id="DotSL"
       style="overflow:visible">
      <path
         id="path5780"
         d="m -2.5,-1 c 0,2.76 -2.24,5 -5,5 -2.76,0 -5,-2.24 -5,-5 0,-2.76 2.24,-5 5,-5 2.76,0 5,2.24 5,5 z"
         style="fill:#858585;fill-rule:evenodd;stroke:#858585;stroke-width:1pt"
         transform="matrix(0.2,0,0,0.2,1.48,0.2)"
         inkscape:connector-curvature="0" />
    </marker>
    <marker
       inkscape:stockid="DotSf"
       orient="auto"
       refY="0"
       refX="0"
       id="DotSf"
       style="overflow:visible">
      <path
         id="path5783"
         d="m -2.5,-1 c 0,2.76 -2.24,5 -5,5 -2.76,0 -5,-2.24 -5,-5 0,-2.76 2.24,-5 5,-5 2.76,0 5,2.24 5,5 z"
         style="fill:#858585;fill-rule:evenodd;stroke:#858585;stroke-width:1pt"
         transform="matrix(0.2,0,0,0.2,1.48,0.2)"
         inkscape:connector-curvature="0" />
    </marker>
    <marker
       inkscape:stockid="DotS7"
       orient="auto"
       refY="0"
       refX="0"
       id="DotS7"
       style="overflow:visible">
      <path
         id="path5786"
         d="m -2.5,-1 c 0,2.76 -2.24,5 -5,5 -2.76,0 -5,-2.24 -5,-5 0,-2.76 2.24,-5 5,-5 2.76,0 5,2.24 5,5 z"
         style="fill:#858585;fill-rule:evenodd;stroke:#858585;stroke-width:1pt"
         transform="matrix(0.2,0,0,0.2,1.48,0.2)"
         inkscape:connector-curvature="0" />
    </marker>
    <marker
       inkscape:stockid="DotSS"
       orient="auto"
       refY="0"
       refX="0"
       id="DotSS"
       style="overflow:visible">
      <path
         id="path5789"
         d="m -2.5,-1 c 0,2.76 -2.24,5 -5,5 -2.76,0 -5,-2.24 -5,-5 0,-2.76 2.24,-5 5,-5 2.76,0 5,2.24 5,5 z"
         style="fill:#858585;fill-rule:evenodd;stroke:#858585;stroke-width:1pt"
         transform="matrix(0.2,0,0,0.2,1.48,0.2)"
         inkscape:connector-curvature="0" />
    </marker>
    <marker
       inkscape:stockid="DotSy"
       orient="auto"
       refY="0"
       refX="0"
       id="DotSy"
       style="overflow:visible">
      <path
         id="path5792"
         d="m -2.5,-1 c 0,2.76 -2.24,5 -5,5 -2.76,0 -5,-2.24 -5,-5 0,-2.76 2.24,-5 5,-5 2.76,0 5,2.24 5,5 z"
         style="fill:#858585;fill-rule:evenodd;stroke:#858585;stroke-width:1pt"
         transform="matrix(0.2,0,0,0.2,1.48,0.2)"
         inkscape:connector-curvature="0" />
    </marker>
    <marker
       inkscape:stockid="marker4516C"
       orient="auto"
       refY="0"
       refX="0"
       id="marker4516C"
       style="overflow:visible">
      <path
         inkscape:connector-curvature="0"
         id="path5795"
         d="m -2.5,-1 c 0,2.76 -2.24,5 -5,5 -2.76,0 -5,-2.24 -5,-5 0,-2.76 2.24,-5 5,-5 2.76,0 5,2.24 5,5 z"
         style="fill:#858585;fill-rule:evenodd;stroke:#858585;stroke-width:1pt"
         transform="matrix(0.2,0,0,0.2,1.48,0.2)" />
    </marker>
    <marker
       inkscape:stockid="marker45162"
       orient="auto"
       refY="0"
       refX="0"
       id="marker45162"
       style="overflow:visible">
      <path
         inkscape:connector-curvature="0"
         id="path5798"
         d="m -2.5,-1 c 0,2.76 -2.24,5 -5,5 -2.76,0 -5,-2.24 -5,-5 0,-2.76 2.24,-5 5,-5 2.76,0 5,2.24 5,5 z"
         style="fill:#858585;fill-rule:evenodd;stroke:#858585;stroke-width:1pt"
         transform="matrix(0.2,0,0,0.2,1.48,0.2)" />
    </marker>
    <marker
       inkscape:stockid="DotSG"
       orient="auto"
       refY="0"
       refX="0"
       id="DotSG"
       style="overflow:visible">
      <path
         id="path5801"
         d="m -2.5,-1 c 0,2.76 -2.24,5 -5,5 -2.76,0 -5,-2.24 -5,-5 0,-2.76 2.24,-5 5,-5 2.76,0 5,2.24 5,5 z"
         style="fill:#858585;fill-rule:evenodd;stroke:#858585;stroke-width:1pt"
         transform="matrix(0.2,0,0,0.2,1.48,0.2)"
         inkscape:connector-curvature="0" />
    </marker>
    <marker
       inkscape:stockid="DotS5"
       orient="auto"
       refY="0"
       refX="0"
       id="DotS5"
       style="overflow:visible">
      <path
         id="path5804"
         d="m -2.5,-1 c 0,2.76 -2.24,5 -5,5 -2.76,0 -5,-2.24 -5,-5 0,-2.76 2.24,-5 5,-5 2.76,0 5,2.24 5,5 z"
         style="fill:#858585;fill-rule:evenodd;stroke:#858585;stroke-width:1pt"
         transform="matrix(0.2,0,0,0.2,1.48,0.2)"
         inkscape:connector-curvature="0" />
    </marker>
    <marker
       inkscape:stockid="DotSsA"
       orient="auto"
       refY="0"
       refX="0"
       id="DotSsA"
       style="overflow:visible">
      <path
         id="path5807"
         d="m -2.5,-1 c 0,2.76 -2.24,5 -5,5 -2.76,0 -5,-2.24 -5,-5 0,-2.76 2.24,-5 5,-5 2.76,0 5,2.24 5,5 z"
         style="fill:#858585;fill-rule:evenodd;stroke:#858585;stroke-width:1pt"
         transform="matrix(0.2,0,0,0.2,1.48,0.2)"
         inkscape:connector-curvature="0" />
    </marker>
    <marker
       inkscape:stockid="DotSLd"
       orient="auto"
       refY="0"
       refX="0"
       id="DotSLd"
       style="overflow:visible">
      <path
         id="path5810"
         d="m -2.5,-1 c 0,2.76 -2.24,5 -5,5 -2.76,0 -5,-2.24 -5,-5 0,-2.76 2.24,-5 5,-5 2.76,0 5,2.24 5,5 z"
         style="fill:#858585;fill-rule:evenodd;stroke:#858585;stroke-width:1pt"
         transform="matrix(0.2,0,0,0.2,1.48,0.2)"
         inkscape:connector-curvature="0" />
    </marker>
    <marker
       inkscape:stockid="DotSd"
       orient="auto"
       refY="0"
       refX="0"
       id="DotSd"
       style="overflow:visible">
      <path
         id="path5813"
         d="m -2.5,-1 c 0,2.76 -2.24,5 -5,5 -2.76,0 -5,-2.24 -5,-5 0,-2.76 2.24,-5 5,-5 2.76,0 5,2.24 5,5 z"
         style="fill:#858585;fill-rule:evenodd;stroke:#858585;stroke-width:1pt"
         transform="matrix(0.2,0,0,0.2,1.48,0.2)"
         inkscape:connector-curvature="0" />
    </marker>
    <marker
       inkscape:stockid="DotSyI"
       orient="auto"
       refY="0"
       refX="0"
       id="DotSyI"
       style="overflow:visible">
      <path
         id="path5816"
         d="m -2.5,-1 c 0,2.76 -2.24,5 -5,5 -2.76,0 -5,-2.24 -5,-5 0,-2.76 2.24,-5 5,-5 2.76,0 5,2.24 5,5 z"
         style="fill:#858585;fill-rule:evenodd;stroke:#858585;stroke-width:1pt"
         transform="matrix(0.2,0,0,0.2,1.48,0.2)"
         inkscape:connector-curvature="0" />
    </marker>
    <marker
       inkscape:stockid="marker4516y"
       orient="auto"
       refY="0"
       refX="0"
       id="marker4516y"
       style="overflow:visible">
      <path
         inkscape:connector-curvature="0"
         id="path5819"
         d="m -2.5,-1 c 0,2.76 -2.24,5 -5,5 -2.76,0 -5,-2.24 -5,-5 0,-2.76 2.24,-5 5,-5 2.76,0 5,2.24 5,5 z"
         style="fill:#858585;fill-rule:evenodd;stroke:#858585;stroke-width:1pt"
         transform="matrix(0.2,0,0,0.2,1.48,0.2)" />
    </marker>
    <marker
       inkscape:stockid="marker4516I"
       orient="auto"
       refY="0"
       refX="0"
       id="marker4516I"
       style="overflow:visible">
      <path
         inkscape:connector-curvature="0"
         id="path5822"
         d="m -2.5,-1 c 0,2.76 -2.24,5 -5,5 -2.76,0 -5,-2.24 -5,-5 0,-2.76 2.24,-5 5,-5 2.76,0 5,2.24 5,5 z"
         style="fill:#858585;fill-rule:evenodd;stroke:#858585;stroke-width:1pt"
         transform="matrix(0.2,0,0,0.2,1.48,0.2)" />
    </marker>
    <marker
       inkscape:stockid="marker5218b"
       orient="auto"
       refY="0"
       refX="0"
       id="marker5218b"
       style="overflow:visible">
      <path
         inkscape:connector-curvature="0"
         id="path5825"
         d="m -2.5,-1 c 0,2.76 -2.24,5 -5,5 -2.76,0 -5,-2.24 -5,-5 0,-2.76 2.24,-5 5,-5 2.76,0 5,2.24 5,5 z"
         style="fill:#858585;fill-rule:evenodd;stroke:#858585;stroke-width:1pt"
         transform="matrix(0.2,0,0,0.2,1.48,0.2)" />
    </marker>
    <marker
       inkscape:stockid="marker5218X"
       orient="auto"
       refY="0"
       refX="0"
       id="marker5218X"
       style="overflow:visible">
      <path
         inkscape:connector-curvature="0"
         id="path5828"
         d="m -2.5,-1 c 0,2.76 -2.24,5 -5,5 -2.76,0 -5,-2.24 -5,-5 0,-2.76 2.24,-5 5,-5 2.76,0 5,2.24 5,5 z"
         style="fill:#858585;fill-rule:evenodd;stroke:#858585;stroke-width:1pt"
         transform="matrix(0.2,0,0,0.2,1.48,0.2)" />
    </marker>
    <marker
       inkscape:stockid="DotSQL"
       orient="auto"
       refY="0"
       refX="0"
       id="DotSQL"
       style="overflow:visible">
      <path
         id="path6109"
         d="m -2.5,-1 c 0,2.76 -2.24,5 -5,5 -2.76,0 -5,-2.24 -5,-5 0,-2.76 2.24,-5 5,-5 2.76,0 5,2.24 5,5 z"
         style="fill:#ffc400;fill-rule:evenodd;stroke:#ffc400;stroke-width:1pt"
         transform="matrix(0.2,0,0,0.2,1.48,0.2)"
         inkscape:connector-curvature="0" />
    </marker>
    <marker
       inkscape:stockid="DotSgb"
       orient="auto"
       refY="0"
       refX="0"
       id="DotSgb"
       style="overflow:visible">
      <path
         id="path6112"
         d="m -2.5,-1 c 0,2.76 -2.24,5 -5,5 -2.76,0 -5,-2.24 -5,-5 0,-2.76 2.24,-5 5,-5 2.76,0 5,2.24 5,5 z"
         style="fill:#ffc400;fill-rule:evenodd;stroke:#ffc400;stroke-width:1pt"
         transform="matrix(0.2,0,0,0.2,1.48,0.2)"
         inkscape:connector-curvature="0" />
    </marker>
    <marker
       inkscape:stockid="marker4516J6"
       orient="auto"
       refY="0"
       refX="0"
       id="marker4516J6"
       style="overflow:visible">
      <path
         inkscape:connector-curvature="0"
         id="path6115"
         d="m -2.5,-1 c 0,2.76 -2.24,5 -5,5 -2.76,0 -5,-2.24 -5,-5 0,-2.76 2.24,-5 5,-5 2.76,0 5,2.24 5,5 z"
         style="fill:#ffc400;fill-rule:evenodd;stroke:#ffc400;stroke-width:1pt"
         transform="matrix(0.2,0,0,0.2,1.48,0.2)" />
    </marker>
    <marker
       inkscape:stockid="marker4516Pl"
       orient="auto"
       refY="0"
       refX="0"
       id="marker4516Pl"
       style="overflow:visible">
      <path
         inkscape:connector-curvature="0"
         id="path6118"
         d="m -2.5,-1 c 0,2.76 -2.24,5 -5,5 -2.76,0 -5,-2.24 -5,-5 0,-2.76 2.24,-5 5,-5 2.76,0 5,2.24 5,5 z"
         style="fill:#ffc400;fill-rule:evenodd;stroke:#ffc400;stroke-width:1pt"
         transform="matrix(0.2,0,0,0.2,1.48,0.2)" />
    </marker>
    <marker
       inkscape:stockid="DotSSB"
       orient="auto"
       refY="0"
       refX="0"
       id="DotSSB"
       style="overflow:visible">
      <path
         id="path6121"
         d="m -2.5,-1 c 0,2.76 -2.24,5 -5,5 -2.76,0 -5,-2.24 -5,-5 0,-2.76 2.24,-5 5,-5 2.76,0 5,2.24 5,5 z"
         style="fill:#ffc400;fill-rule:evenodd;stroke:#ffc400;stroke-width:1pt"
         transform="matrix(0.2,0,0,0.2,1.48,0.2)"
         inkscape:connector-curvature="0" />
    </marker>
    <marker
       inkscape:stockid="DotSyD"
       orient="auto"
       refY="0"
       refX="0"
       id="DotSyD"
       style="overflow:visible">
      <path
         id="path6124"
         d="m -2.5,-1 c 0,2.76 -2.24,5 -5,5 -2.76,0 -5,-2.24 -5,-5 0,-2.76 2.24,-5 5,-5 2.76,0 5,2.24 5,5 z"
         style="fill:#ffc400;fill-rule:evenodd;stroke:#ffc400;stroke-width:1pt"
         transform="matrix(0.2,0,0,0.2,1.48,0.2)"
         inkscape:connector-curvature="0" />
    </marker>
    <marker
       inkscape:stockid="marker4516Ct"
       orient="auto"
       refY="0"
       refX="0"
       id="marker4516Ct"
       style="overflow:visible">
      <path
         inkscape:connector-curvature="0"
         id="path6127"
         d="m -2.5,-1 c 0,2.76 -2.24,5 -5,5 -2.76,0 -5,-2.24 -5,-5 0,-2.76 2.24,-5 5,-5 2.76,0 5,2.24 5,5 z"
         style="fill:#ffc400;fill-rule:evenodd;stroke:#ffc400;stroke-width:1pt"
         transform="matrix(0.2,0,0,0.2,1.48,0.2)" />
    </marker>
    <marker
       inkscape:stockid="marker451623"
       orient="auto"
       refY="0"
       refX="0"
       id="marker451623"
       style="overflow:visible">
      <path
         inkscape:connector-curvature="0"
         id="path6130"
         d="m -2.5,-1 c 0,2.76 -2.24,5 -5,5 -2.76,0 -5,-2.24 -5,-5 0,-2.76 2.24,-5 5,-5 2.76,0 5,2.24 5,5 z"
         style="fill:#ffc400;fill-rule:evenodd;stroke:#ffc400;stroke-width:1pt"
         transform="matrix(0.2,0,0,0.2,1.48,0.2)" />
    </marker>
    <marker
       inkscape:stockid="marker4516yb"
       orient="auto"
       refY="0"
       refX="0"
       id="marker4516yb"
       style="overflow:visible">
      <path
         inkscape:connector-curvature="0"
         id="path6133"
         d="m -2.5,-1 c 0,2.76 -2.24,5 -5,5 -2.76,0 -5,-2.24 -5,-5 0,-2.76 2.24,-5 5,-5 2.76,0 5,2.24 5,5 z"
         style="fill:#ffc400;fill-rule:evenodd;stroke:#ffc400;stroke-width:1pt"
         transform="matrix(0.2,0,0,0.2,1.48,0.2)" />
    </marker>
    <marker
       inkscape:stockid="marker4516IS"
       orient="auto"
       refY="0"
       refX="0"
       id="marker4516IS"
       style="overflow:visible">
      <path
         inkscape:connector-curvature="0"
         id="path6136"
         d="m -2.5,-1 c 0,2.76 -2.24,5 -5,5 -2.76,0 -5,-2.24 -5,-5 0,-2.76 2.24,-5 5,-5 2.76,0 5,2.24 5,5 z"
         style="fill:#ffc400;fill-rule:evenodd;stroke:#ffc400;stroke-width:1pt"
         transform="matrix(0.2,0,0,0.2,1.48,0.2)" />
    </marker>
    <marker
       inkscape:stockid="DotSsAi"
       orient="auto"
       refY="0"
       refX="0"
       id="DotSsAi"
       style="overflow:visible">
      <path
         id="path6139"
         d="m -2.5,-1 c 0,2.76 -2.24,5 -5,5 -2.76,0 -5,-2.24 -5,-5 0,-2.76 2.24,-5 5,-5 2.76,0 5,2.24 5,5 z"
         style="fill:#ffc400;fill-rule:evenodd;stroke:#ffc400;stroke-width:1pt"
         transform="matrix(0.2,0,0,0.2,1.48,0.2)"
         inkscape:connector-curvature="0" />
    </marker>
    <marker
       inkscape:stockid="DotSLdG"
       orient="auto"
       refY="0"
       refX="0"
       id="DotSLdG"
       style="overflow:visible">
      <path
         id="path6142"
         d="m -2.5,-1 c 0,2.76 -2.24,5 -5,5 -2.76,0 -5,-2.24 -5,-5 0,-2.76 2.24,-5 5,-5 2.76,0 5,2.24 5,5 z"
         style="fill:#ffc400;fill-rule:evenodd;stroke:#ffc400;stroke-width:1pt"
         transform="matrix(0.2,0,0,0.2,1.48,0.2)"
         inkscape:connector-curvature="0" />
    </marker>
    <marker
       inkscape:stockid="DotSd7"
       orient="auto"
       refY="0"
       refX="0"
       id="DotSd7"
       style="overflow:visible">
      <path
         id="path6145"
         d="m -2.5,-1 c 0,2.76 -2.24,5 -5,5 -2.76,0 -5,-2.24 -5,-5 0,-2.76 2.24,-5 5,-5 2.76,0 5,2.24 5,5 z"
         style="fill:#ffc400;fill-rule:evenodd;stroke:#ffc400;stroke-width:1pt"
         transform="matrix(0.2,0,0,0.2,1.48,0.2)"
         inkscape:connector-curvature="0" />
    </marker>
    <marker
       inkscape:stockid="DotSyIp"
       orient="auto"
       refY="0"
       refX="0"
       id="DotSyIp"
       style="overflow:visible">
      <path
         id="path6148"
         d="m -2.5,-1 c 0,2.76 -2.24,5 -5,5 -2.76,0 -5,-2.24 -5,-5 0,-2.76 2.24,-5 5,-5 2.76,0 5,2.24 5,5 z"
         style="fill:#ffc400;fill-rule:evenodd;stroke:#ffc400;stroke-width:1pt"
         transform="matrix(0.2,0,0,0.2,1.48,0.2)"
         inkscape:connector-curvature="0" />
    </marker>
    <marker
       inkscape:stockid="DotSvS"
       orient="auto"
       refY="0"
       refX="0"
       id="DotSvS"
       style="overflow:visible">
      <path
         id="path6151"
         d="m -2.5,-1 c 0,2.76 -2.24,5 -5,5 -2.76,0 -5,-2.24 -5,-5 0,-2.76 2.24,-5 5,-5 2.76,0 5,2.24 5,5 z"
         style="fill:#ffc400;fill-rule:evenodd;stroke:#ffc400;stroke-width:1pt"
         transform="matrix(0.2,0,0,0.2,1.48,0.2)"
         inkscape:connector-curvature="0" />
    </marker>
    <marker
       inkscape:stockid="DotSsJ"
       orient="auto"
       refY="0"
       refX="0"
       id="DotSsJ"
       style="overflow:visible">
      <path
         id="path6154"
         d="m -2.5,-1 c 0,2.76 -2.24,5 -5,5 -2.76,0 -5,-2.24 -5,-5 0,-2.76 2.24,-5 5,-5 2.76,0 5,2.24 5,5 z"
         style="fill:#ffc400;fill-rule:evenodd;stroke:#ffc400;stroke-width:1pt"
         transform="matrix(0.2,0,0,0.2,1.48,0.2)"
         inkscape:connector-curvature="0" />
    </marker>
    <marker
       inkscape:stockid="DotSfb"
       orient="auto"
       refY="0"
       refX="0"
       id="DotSfb"
       style="overflow:visible">
      <path
         id="path6157"
         d="m -2.5,-1 c 0,2.76 -2.24,5 -5,5 -2.76,0 -5,-2.24 -5,-5 0,-2.76 2.24,-5 5,-5 2.76,0 5,2.24 5,5 z"
         style="fill:#ffc400;fill-rule:evenodd;stroke:#ffc400;stroke-width:1pt"
         transform="matrix(0.2,0,0,0.2,1.48,0.2)"
         inkscape:connector-curvature="0" />
    </marker>
    <marker
       inkscape:stockid="DotS7T"
       orient="auto"
       refY="0"
       refX="0"
       id="DotS7T"
       style="overflow:visible">
      <path
         id="path6160"
         d="m -2.5,-1 c 0,2.76 -2.24,5 -5,5 -2.76,0 -5,-2.24 -5,-5 0,-2.76 2.24,-5 5,-5 2.76,0 5,2.24 5,5 z"
         style="fill:#ffc400;fill-rule:evenodd;stroke:#ffc400;stroke-width:1pt"
         transform="matrix(0.2,0,0,0.2,1.48,0.2)"
         inkscape:connector-curvature="0" />
    </marker>
    <marker
       inkscape:stockid="DotSko"
       orient="auto"
       refY="0"
       refX="0"
       id="DotSko"
       style="overflow:visible">
      <path
         id="path6163"
         d="m -2.5,-1 c 0,2.76 -2.24,5 -5,5 -2.76,0 -5,-2.24 -5,-5 0,-2.76 2.24,-5 5,-5 2.76,0 5,2.24 5,5 z"
         style="fill:#ffc400;fill-rule:evenodd;stroke:#ffc400;stroke-width:1pt"
         transform="matrix(0.2,0,0,0.2,1.48,0.2)"
         inkscape:connector-curvature="0" />
    </marker>
    <marker
       inkscape:stockid="DotSKZ"
       orient="auto"
       refY="0"
       refX="0"
       id="DotSKZ"
       style="overflow:visible">
      <path
         id="path6166"
         d="m -2.5,-1 c 0,2.76 -2.24,5 -5,5 -2.76,0 -5,-2.24 -5,-5 0,-2.76 2.24,-5 5,-5 2.76,0 5,2.24 5,5 z"
         style="fill:#ffc400;fill-rule:evenodd;stroke:#ffc400;stroke-width:1pt"
         transform="matrix(0.2,0,0,0.2,1.48,0.2)"
         inkscape:connector-curvature="0" />
    </marker>
    <marker
       inkscape:stockid="DotSCa"
       orient="auto"
       refY="0"
       refX="0"
       id="DotSCa"
       style="overflow:visible">
      <path
         id="path6169"
         d="m -2.5,-1 c 0,2.76 -2.24,5 -5,5 -2.76,0 -5,-2.24 -5,-5 0,-2.76 2.24,-5 5,-5 2.76,0 5,2.24 5,5 z"
         style="fill:#ffc400;fill-rule:evenodd;stroke:#ffc400;stroke-width:1pt"
         transform="matrix(0.2,0,0,0.2,1.48,0.2)"
         inkscape:connector-curvature="0" />
    </marker>
    <marker
       inkscape:stockid="DotSLi"
       orient="auto"
       refY="0"
       refX="0"
       id="DotSLi"
       style="overflow:visible">
      <path
         id="path6172"
         d="m -2.5,-1 c 0,2.76 -2.24,5 -5,5 -2.76,0 -5,-2.24 -5,-5 0,-2.76 2.24,-5 5,-5 2.76,0 5,2.24 5,5 z"
         style="fill:#ffc400;fill-rule:evenodd;stroke:#ffc400;stroke-width:1pt"
         transform="matrix(0.2,0,0,0.2,1.48,0.2)"
         inkscape:connector-curvature="0" />
    </marker>
    <marker
       inkscape:stockid="marker5218bQ"
       orient="auto"
       refY="0"
       refX="0"
       id="marker5218bQ"
       style="overflow:visible">
      <path
         inkscape:connector-curvature="0"
         id="path6175"
         d="m -2.5,-1 c 0,2.76 -2.24,5 -5,5 -2.76,0 -5,-2.24 -5,-5 0,-2.76 2.24,-5 5,-5 2.76,0 5,2.24 5,5 z"
         style="fill:#ffc400;fill-rule:evenodd;stroke:#ffc400;stroke-width:1pt"
         transform="matrix(0.2,0,0,0.2,1.48,0.2)" />
    </marker>
    <marker
       inkscape:stockid="marker5218XM"
       orient="auto"
       refY="0"
       refX="0"
       id="marker5218XM"
       style="overflow:visible">
      <path
         inkscape:connector-curvature="0"
         id="path6178"
         d="m -2.5,-1 c 0,2.76 -2.24,5 -5,5 -2.76,0 -5,-2.24 -5,-5 0,-2.76 2.24,-5 5,-5 2.76,0 5,2.24 5,5 z"
         style="fill:#ffc400;fill-rule:evenodd;stroke:#ffc400;stroke-width:1pt"
         transform="matrix(0.2,0,0,0.2,1.48,0.2)" />
    </marker>
    <marker
       inkscape:stockid="DotSGn"
       orient="auto"
       refY="0"
       refX="0"
       id="DotSGn"
       style="overflow:visible">
      <path
         id="path6181"
         d="m -2.5,-1 c 0,2.76 -2.24,5 -5,5 -2.76,0 -5,-2.24 -5,-5 0,-2.76 2.24,-5 5,-5 2.76,0 5,2.24 5,5 z"
         style="fill:#ffc400;fill-rule:evenodd;stroke:#ffc400;stroke-width:1pt"
         transform="matrix(0.2,0,0,0.2,1.48,0.2)"
         inkscape:connector-curvature="0" />
    </marker>
    <marker
       inkscape:stockid="DotS5R"
       orient="auto"
       refY="0"
       refX="0"
       id="DotS5R"
       style="overflow:visible">
      <path
         id="path6184"
         d="m -2.5,-1 c 0,2.76 -2.24,5 -5,5 -2.76,0 -5,-2.24 -5,-5 0,-2.76 2.24,-5 5,-5 2.76,0 5,2.24 5,5 z"
         style="fill:#ffc400;fill-rule:evenodd;stroke:#ffc400;stroke-width:1pt"
         transform="matrix(0.2,0,0,0.2,1.48,0.2)"
         inkscape:connector-curvature="0" />
    </marker>
    <marker
       inkscape:stockid="DotSd7"
       orient="auto"
       refY="0"
       refX="0"
       id="DotSd7-9"
       style="overflow:visible">
      <path
         inkscape:connector-curvature="0"
         id="path6145-2"
         d="m -2.5,-1 c 0,2.76 -2.24,5 -5,5 -2.76,0 -5,-2.24 -5,-5 0,-2.76 2.24,-5 5,-5 2.76,0 5,2.24 5,5 z"
         style="fill:#ffc400;fill-rule:evenodd;stroke:#ffc400;stroke-width:1pt"
         transform="matrix(0.2,0,0,0.2,1.48,0.2)" />
    </marker>
    <marker
       inkscape:stockid="DotSyIp"
       orient="auto"
       refY="0"
       refX="0"
       id="DotSyIp-9"
       style="overflow:visible">
      <path
         inkscape:connector-curvature="0"
         id="path6148-2"
         d="m -2.5,-1 c 0,2.76 -2.24,5 -5,5 -2.76,0 -5,-2.24 -5,-5 0,-2.76 2.24,-5 5,-5 2.76,0 5,2.24 5,5 z"
         style="fill:#ffc400;fill-rule:evenodd;stroke:#ffc400;stroke-width:1pt"
         transform="matrix(0.2,0,0,0.2,1.48,0.2)" />
    </marker>
    <marker
       inkscape:stockid="DotSGn"
       orient="auto"
       refY="0"
       refX="0"
       id="DotSGn-0"
       style="overflow:visible">
      <path
         inkscape:connector-curvature="0"
         id="path6181-6"
         d="m -2.5,-1 c 0,2.76 -2.24,5 -5,5 -2.76,0 -5,-2.24 -5,-5 0,-2.76 2.24,-5 5,-5 2.76,0 5,2.24 5,5 z"
         style="fill:#ffc400;fill-rule:evenodd;stroke:#ffc400;stroke-width:1pt"
         transform="matrix(0.2,0,0,0.2,1.48,0.2)" />
    </marker>
    <marker
       inkscape:stockid="DotS5R"
       orient="auto"
       refY="0"
       refX="0"
       id="DotS5R-3"
       style="overflow:visible">
      <path
         inkscape:connector-curvature="0"
         id="path6184-9"
         d="m -2.5,-1 c 0,2.76 -2.24,5 -5,5 -2.76,0 -5,-2.24 -5,-5 0,-2.76 2.24,-5 5,-5 2.76,0 5,2.24 5,5 z"
         style="fill:#ffc400;fill-rule:evenodd;stroke:#ffc400;stroke-width:1pt"
         transform="matrix(0.2,0,0,0.2,1.48,0.2)" />
    </marker>
    <marker
       inkscape:stockid="marker5218bQ"
       orient="auto"
       refY="0"
       refX="0"
       id="marker5218bQ-7"
       style="overflow:visible">
      <path
         inkscape:connector-curvature="0"
         id="path6175-9"
         d="m -2.5,-1 c 0,2.76 -2.24,5 -5,5 -2.76,0 -5,-2.24 -5,-5 0,-2.76 2.24,-5 5,-5 2.76,0 5,2.24 5,5 z"
         style="fill:#ffc400;fill-rule:evenodd;stroke:#ffc400;stroke-width:1pt"
         transform="matrix(0.2,0,0,0.2,1.48,0.2)" />
    </marker>
    <marker
       inkscape:stockid="marker5218XM"
       orient="auto"
       refY="0"
       refX="0"
       id="marker5218XM-8"
       style="overflow:visible">
      <path
         inkscape:connector-curvature="0"
         id="path6178-2"
         d="m -2.5,-1 c 0,2.76 -2.24,5 -5,5 -2.76,0 -5,-2.24 -5,-5 0,-2.76 2.24,-5 5,-5 2.76,0 5,2.24 5,5 z"
         style="fill:#ffc400;fill-rule:evenodd;stroke:#ffc400;stroke-width:1pt"
         transform="matrix(0.2,0,0,0.2,1.48,0.2)" />
    </marker>
    <marker
       inkscape:stockid="marker5218bQ"
       orient="auto"
       refY="0"
       refX="0"
       id="marker5218bQ-9"
       style="overflow:visible">
      <path
         inkscape:connector-curvature="0"
         id="path6175-95"
         d="m -2.5,-1 c 0,2.76 -2.24,5 -5,5 -2.76,0 -5,-2.24 -5,-5 0,-2.76 2.24,-5 5,-5 2.76,0 5,2.24 5,5 z"
         style="fill:#ffc400;fill-rule:evenodd;stroke:#ffc400;stroke-width:1pt"
         transform="matrix(0.2,0,0,0.2,1.48,0.2)" />
    </marker>
    <marker
       inkscape:stockid="marker5218XM"
       orient="auto"
       refY="0"
       refX="0"
       id="marker5218XM-4"
       style="overflow:visible">
      <path
         inkscape:connector-curvature="0"
         id="path6178-29"
         d="m -2.5,-1 c 0,2.76 -2.24,5 -5,5 -2.76,0 -5,-2.24 -5,-5 0,-2.76 2.24,-5 5,-5 2.76,0 5,2.24 5,5 z"
         style="fill:#ffc400;fill-rule:evenodd;stroke:#ffc400;stroke-width:1pt"
         transform="matrix(0.2,0,0,0.2,1.48,0.2)" />
    </marker>
    <marker
       inkscape:stockid="DotSGn"
       orient="auto"
       refY="0"
       refX="0"
       id="DotSGn-08"
       style="overflow:visible">
      <path
         inkscape:connector-curvature="0"
         id="path6181-5"
         d="m -2.5,-1 c 0,2.76 -2.24,5 -5,5 -2.76,0 -5,-2.24 -5,-5 0,-2.76 2.24,-5 5,-5 2.76,0 5,2.24 5,5 z"
         style="fill:#ffc400;fill-rule:evenodd;stroke:#ffc400;stroke-width:1pt"
         transform="matrix(0.2,0,0,0.2,1.48,0.2)" />
    </marker>
    <marker
       inkscape:stockid="DotS5R"
       orient="auto"
       refY="0"
       refX="0"
       id="DotS5R-8"
       style="overflow:visible">
      <path
         inkscape:connector-curvature="0"
         id="path6184-1"
         d="m -2.5,-1 c 0,2.76 -2.24,5 -5,5 -2.76,0 -5,-2.24 -5,-5 0,-2.76 2.24,-5 5,-5 2.76,0 5,2.24 5,5 z"
         style="fill:#ffc400;fill-rule:evenodd;stroke:#ffc400;stroke-width:1pt"
         transform="matrix(0.2,0,0,0.2,1.48,0.2)" />
    </marker>
    <marker
       inkscape:stockid="marker4516Ct"
       orient="auto"
       refY="0"
       refX="0"
       id="marker4516Ct-0"
       style="overflow:visible">
      <path
         inkscape:connector-curvature="0"
         id="path6127-3"
         d="m -2.5,-1 c 0,2.76 -2.24,5 -5,5 -2.76,0 -5,-2.24 -5,-5 0,-2.76 2.24,-5 5,-5 2.76,0 5,2.24 5,5 z"
         style="fill:#ffc400;fill-rule:evenodd;stroke:#ffc400;stroke-width:1pt"
         transform="matrix(0.2,0,0,0.2,1.48,0.2)" />
    </marker>
    <marker
       inkscape:stockid="marker451623"
       orient="auto"
       refY="0"
       refX="0"
       id="marker451623-8"
       style="overflow:visible">
      <path
         inkscape:connector-curvature="0"
         id="path6130-8"
         d="m -2.5,-1 c 0,2.76 -2.24,5 -5,5 -2.76,0 -5,-2.24 -5,-5 0,-2.76 2.24,-5 5,-5 2.76,0 5,2.24 5,5 z"
         style="fill:#ffc400;fill-rule:evenodd;stroke:#ffc400;stroke-width:1pt"
         transform="matrix(0.2,0,0,0.2,1.48,0.2)" />
    </marker>
    <marker
       inkscape:stockid="marker5218bQ"
       orient="auto"
       refY="0"
       refX="0"
       id="marker5218bQ-0"
       style="overflow:visible">
      <path
         inkscape:connector-curvature="0"
         id="path6175-8"
         d="m -2.5,-1 c 0,2.76 -2.24,5 -5,5 -2.76,0 -5,-2.24 -5,-5 0,-2.76 2.24,-5 5,-5 2.76,0 5,2.24 5,5 z"
         style="fill:#ffc400;fill-rule:evenodd;stroke:#ffc400;stroke-width:1pt"
         transform="matrix(0.2,0,0,0.2,1.48,0.2)" />
    </marker>
    <marker
       inkscape:stockid="marker5218XM"
       orient="auto"
       refY="0"
       refX="0"
       id="marker5218XM-86"
       style="overflow:visible">
      <path
         inkscape:connector-curvature="0"
         id="path6178-7"
         d="m -2.5,-1 c 0,2.76 -2.24,5 -5,5 -2.76,0 -5,-2.24 -5,-5 0,-2.76 2.24,-5 5,-5 2.76,0 5,2.24 5,5 z"
         style="fill:#ffc400;fill-rule:evenodd;stroke:#ffc400;stroke-width:1pt"
         transform="matrix(0.2,0,0,0.2,1.48,0.2)" />
    </marker>
    <circle
       transform="matrix(0.8755829,0,0,0.8755829,152.4506,-680.83707)"
       id="path6572"
       style="fill:none;stroke:none"
       cx="675.71429"
       cy="777.58148"
       r="584.28571" />
    <circle
       transform="matrix(-1.1162727,-0.04357729,-0.04357729,1.1162727,1532.2608,-838.54723)"
       id="path6572-9"
       style="fill:none;stroke:none"
       cx="675.71429"
       cy="777.58148"
       r="584.28571" />
  </defs>
  <metadata
     id="metadata7">
    <rdf:RDF>
      <cc:Work
         rdf:about="">
        <dc:format>image/svg+xml</dc:format>
        <dc:type
           rdf:resource="http://purl.org/dc/dcmitype/StillImage" />
        <dc:title />
      </cc:Work>
    </rdf:RDF>
  </metadata>
  <g
     inkscape:label="Ebene 1"
     inkscape:groupmode="layer"
     id="layer1"
     transform="translate(0,-783.07098)">
    <path
       id="path5802-1-3-0"
       style="fill:#000000;fill-opacity:1;stroke:none;stroke-width:0.582589;stroke-miterlimit:4;stroke-dasharray:none;stroke-opacity:1"
       d="M 94.34727,783.07098 C 46.461771,783.08348 5.4166111,819.38304 0.48789114,868.04169 -4.7694289,919.94428 33.061891,966.30197 84.964458,971.55926 c 51.902612,5.25737 98.268082,-32.5739 103.525392,-84.47656 5.25734,-51.90262 -32.57986,-98.26221 -84.48243,-103.51953 -3.24298,-0.32849 -6.46681,-0.49302 -9.66015,-0.49219 z m 6.36523,7.29883 3.48828,0.51172 c 0.22996,0.0338 0.35672,0.12248 0.41602,0.2832 l 1.41406,4.29688 c 0.10866,0.38907 0.44622,1.65658 0.54492,2.11328 l 0.082,0.0117 c 0.0894,-1.07854 0.53947,-1.78704 1.62891,-3.46485 l 1.57812,-2.18554 c 0.10501,-0.15083 0.27548,-0.1821 0.46485,-0.1543 l 3.66601,0.53906 c 0.1488,0.0219 0.22295,0.17109 0.20703,0.2793 -0.01,0.0676 -0.0352,0.14695 -0.0547,0.18555 l -5.83594,7.65429 c -0.0505,0.0617 -0.10133,0.12405 -0.11523,0.21875 -0.014,0.0947 0.0301,0.17067 0.0723,0.25977 l 3.26563,8.52148 c 0.0418,0.0891 0.051,0.13162 0.041,0.19922 -0.0219,0.14885 -0.18172,0.19382 -0.37109,0.16602 l -3.54297,-0.51953 c -0.29758,-0.0437 -0.41545,-0.18542 -0.46875,-0.38672 l -1.35547,-4.31641 c -0.10866,-0.38907 -0.43255,-1.47299 -0.53125,-1.92969 l -0.082,-0.0137 c -0.11328,0.77102 -0.75029,2.00492 -1.66992,3.2793 l -1.58203,2.21289 c -0.12251,0.17542 -0.2903,0.27612 -0.58789,0.23242 l -3.490235,-0.51367 c -0.216425,-0.0318 -0.301157,-0.11293 -0.279297,-0.26172 0.0099,-0.0676 0.04909,-0.14533 0.09961,-0.20703 l 5.902342,-7.72656 c 0.068,-0.0867 0.0935,-0.16678 0.10351,-0.23438 0.0139,-0.0947 -0.002,-0.16663 -0.0332,-0.24023 l -3.23828,-8.43555 c -0.0208,-0.0446 -0.0236,-0.11411 -0.0117,-0.19531 0.0159,-0.10825 0.14012,-0.19959 0.27539,-0.17969 z m -17.896479,0.71875 c 2.943555,-0.0749 4.545352,1.44037 4.976562,4.10938 l 1.314453,8.13867 c 0.473186,2.92882 -1.074948,5.1725 -4.746095,5.76562 l -1.92969,0.3125 c -3.80611,0.61492 -5.82945,-0.92822 -6.32226,-3.97851 l -1.31446,-8.13868 c -0.471,-2.91531 1.07495,-5.1725 4.7461,-5.76562 l 1.93164,-0.3125 c 0.47576,-0.0769 0.92324,-0.12016 1.34375,-0.13086 z m 38.593749,3.33008 c 0.0608,0.002 0.12494,0.0159 0.1914,0.043 l 2.6836,1.0957 c 0.26581,0.10845 0.36432,0.33963 0.25586,0.60547 l -2.25782,5.53125 c -0.10845,0.26584 -0.01,0.49896 0.25586,0.60742 l 4.6211,1.88477 c 0.26583,0.10845 0.49701,0.01 0.60546,-0.25586 l 2.25586,-5.53125 c 0.10845,-0.26581 0.34159,-0.36237 0.60743,-0.25391 l 2.68359,1.09375 c 0.26581,0.10846 0.36237,0.33963 0.25391,0.60547 l -6.33594,15.5332 c -0.10845,0.26581 -0.33964,0.36432 -0.60547,0.25586 l -2.68555,-1.0957 c -0.26581,-0.10845 -0.36236,-0.33963 -0.2539,-0.60547 l 2.41211,-5.91211 c 0.10845,-0.26583 0.01,-0.49702 -0.25586,-0.60547 l -4.61914,-1.88672 c -0.26583,-0.10845 -0.49898,-0.01 -0.60743,0.25586 l -2.41015,5.91211 c -0.10845,0.26582 -0.34159,0.36236 -0.60742,0.25391 l -2.6836,-1.09375 c -0.26582,-0.10845 -0.36235,-0.34158 -0.2539,-0.60742 l 6.33593,-15.53125 c 0.0813,-0.19937 0.23167,-0.30472 0.41407,-0.29883 z m -38.994139,0.2168 c -0.1246,-0.004 -0.25539,0.004 -0.38867,0.0254 l -1.92969,0.3125 c -1.07975,0.17445 -1.61839,1.12037 -1.45703,2.11914 l 1.18359,7.32812 c 0.17227,1.06625 0.98453,1.72501 2.05078,1.55274 l 1.92969,-0.3125 c 1.079748,-0.17445 1.622528,-1.10688 1.458985,-2.11914 l -1.183595,-7.32813 c -0.15073,-0.93297 -0.79186,-1.55299 -1.66406,-1.57812 z m -15.4668,0.18945 c 0.18241,-0.006 0.33301,0.0993 0.41406,0.29883 l 0.96289,2.36914 c 0.10807,0.26599 0.0101,0.49739 -0.25586,0.60547 l -2.83789,1.15234 c -0.26599,0.10807 -0.36392,0.33947 -0.25586,0.60547 l 4.95118,12.18555 c 0.10807,0.26599 0.0101,0.49739 -0.25586,0.60546 l -2.68555,1.08985 c -0.26599,0.10807 -0.4974,0.0121 -0.60547,-0.25391 l -4.95117,-12.18555 c -0.10807,-0.26598 -0.33948,-0.36392 -0.60547,-0.25585 l -2.83789,1.15234 c -0.26599,0.10807 -0.4974,0.0101 -0.60547,-0.25586 l -0.96094,-2.36719 c -0.10807,-0.26599 -0.0101,-0.49934 0.25586,-0.60742 l 10.08203,-4.0957 c 0.0665,-0.027 0.13061,-0.0411 0.19141,-0.043 z m -21.96875,11.05469 c 0.11288,0.0127 0.22101,0.0753 0.31055,0.1875 l 1.59375,1.99804 c 0.17907,0.22442 0.15215,0.47522 -0.0723,0.6543 l -5.36523,4.28125 c -0.22443,0.17908 -0.25134,0.42792 -0.0723,0.65234 l 1.59375,1.99805 c 0.17908,0.2244 0.42793,0.25329 0.65235,0.0742 l 4.40429,-3.51367 c 0.22442,-0.17909 0.47327,-0.1502 0.65235,0.0742 l 1.5957,1.99804 c 0.17907,0.22442 0.1502,0.47328 -0.0742,0.65235 l -4.40234,3.51367 c -0.22443,0.17907 -0.2533,0.42988 -0.0742,0.6543 l 1.67969,2.10351 c 0.17907,0.2244 0.42987,0.25329 0.65429,0.0742 l 5.36524,-4.28125 c 0.22442,-0.17909 0.47327,-0.1502 0.65234,0.0742 l 1.59375,1.99805 c 0.17908,0.22442 0.15215,0.47327 -0.0723,0.65234 l -8.35743,6.66992 c -0.22442,0.17909 -0.47327,0.1502 -0.65234,-0.0742 l -10.37891,-13.00586 c -0.17907,-0.22442 -0.1502,-0.47326 0.0742,-0.65234 l 8.35742,-6.66797 c 0.11221,-0.0895 0.22892,-0.12792 0.3418,-0.11523 z m 99.222649,0.11328 c 0.0903,0.007 0.18306,0.0427 0.26563,0.10351 l 3.33398,2.45703 c 0.16514,0.12161 0.2531,0.30369 0.1836,0.49024 l -6.07813,16.71484 c -0.0267,0.0823 -0.0421,0.10372 -0.0664,0.13672 -0.0811,0.11011 -0.2001,0.10989 -0.36524,-0.0117 l -2.73047,-2.01172 c -0.12108,-0.0892 -0.15747,-0.19957 -0.10937,-0.33398 l 0.91797,-2.33008 c 0.048,-0.13441 0.009,-0.19675 -0.15625,-0.31836 l -4.23828,-3.12109 c -0.17615,-0.1297 -0.23552,-0.14049 -0.34961,-0.0547 l -1.95313,1.56641 c -0.1141,0.0858 -0.2317,0.085 -0.3418,0.004 l -2.71874,-2.00195 c -0.1651,-0.1216 -0.21196,-0.24148 -0.13086,-0.35156 0.0405,-0.0551 0.13466,-0.13894 0.19726,-0.17774 0.0353,-0.0249 14.08203,-10.68359 14.08203,-10.68359 0.0788,-0.0609 0.16751,-0.0832 0.25781,-0.0762 z m -1.04296,4.94726 -0.38868,0.41211 -4.77929,3.81446 c -0.13845,0.11879 -0.14738,0.24665 0.0508,0.39257 l 2.58594,1.90625 c 0.19817,0.14597 0.32994,0.1069 0.40234,-0.0605 l 2.23633,-5.68946 0.27734,-0.49218 z m -48.669922,3.97071 c 26.648912,-1.7e-4 50.373652,16.85026 59.152342,42.01171 l 0.40039,1.14844 11.81836,-6.95312 2.66015,4.32422 -11.5039,18.24414 0.0195,0.31836 c 0.0677,1.18364 0.10112,2.36909 0.10156,3.55468 1.4e-4,34.61234 -28.03607,62.64858 -62.648432,62.64844 -10.434517,-4.1e-4 -20.705477,-2.60583 -29.876957,-7.58203 l -1.47851,-0.80274 0.0293,9.67774 -17.1914,0.006 -0.18164,-21.15821 -12.82813,-15.23437 3.35938,-4.27735 -0.20899,-0.53124 c -2.82507,-7.25053 -4.27348,-14.96466 -4.27343,-22.7461 6.7e-4,-34.61184 28.03859,-62.64857 62.650387,-62.64843 z m 61.783202,1.3125 c 0.11356,0.003 0.22521,0.0562 0.32422,0.16015 l 2,2.09961 c 0.19804,0.20792 0.19228,0.45824 -0.0156,0.65625 l -12.14844,11.56836 c -0.20791,0.19795 -0.4602,0.1923 -0.6582,-0.0156 l -1.99805,-2.09766 c -0.19679,-0.20766 -0.19185,-0.46061 0.0156,-0.6582 l 12.14844,-11.56836 c 0.10395,-0.099 0.21847,-0.1473 0.33203,-0.14453 z m -126.923829,3.03515 c 0.11237,-0.0166 0.23239,0.016 0.34766,0.10156 l 13.46875,10 c 0.23054,0.17113 0.26877,0.41986 0.0976,0.6504 l -1.6875,2.27148 c -0.17111,0.23053 -0.41984,0.26682 -0.65039,0.0957 l -3.74414,-2.77734 c -2.00902,-1.49118 -4.10189,-3.48853 -4.22265,-3.57813 l -0.0645,0.0879 c 0.0549,0.0408 1.3365,1.70823 1.89063,2.61329 l 2.77734,4.76757 c 0.091,0.15267 0.0594,0.33459 -0.0547,0.48829 l -1.2871,1.73437 c -0.14668,0.19762 -0.31069,0.27952 -0.49415,0.22852 l -5.36328,-1.375 c -1.02674,-0.26832 -3.05542,-1.02521 -3.13476,-1.03321 l -0.0391,0.0566 c 0.12076,0.0896 2.66534,1.50096 4.74023,3.04102 l 3.76562,2.79492 c 0.23054,0.17112 0.26683,0.41984 0.0957,0.65039 l -1.71875,2.31641 c -0.17112,0.23054 -0.41985,0.26682 -0.65039,0.0957 l -13.47071,-9.99805 c -0.23054,-0.17112 -0.26682,-0.41985 -0.0957,-0.65039 l 1.84961,-2.49218 c 0.12223,-0.16465 0.28772,-0.22806 0.44922,-0.19336 l 9.35937,2.16211 c 0.52843,0.13682 1.04054,0.36456 1.0625,0.38086 l 0.082,-0.10938 c -0.022,-0.0163 -0.40455,-0.48844 -0.67188,-0.9082 l -4.83594,-8.25586 c -0.0882,-0.13355 -0.0675,-0.32166 0.0547,-0.48633 l 1.8418,-2.48047 c 0.0856,-0.11526 0.19036,-0.18259 0.30273,-0.19922 z m 134.615229,5.46094 c 0.11114,0.0235 0.21076,0.0965 0.28907,0.2168 l 1.46289,2.24609 c 0.097,0.14896 0.11308,0.30163 0.0547,0.4375 l -4.95312,9.73242 c -0.27933,0.57333 -0.71876,1.30057 -0.83789,1.44336 l 0.0586,0.0918 c 0.93591,-0.9681 2.65444,-2.36422 3.94922,-3.20703 l 4.70899,-3.06446 c 0.24062,-0.15663 0.4879,-0.10585 0.64453,0.13477 l 1.58008,2.42969 c 0.15662,0.24062 0.10585,0.48595 -0.13477,0.64258 l -14.06055,9.15234 c -0.24062,0.15662 -0.48595,0.10391 -0.64258,-0.13672 l -1.44726,-2.22266 c -0.0969,-0.14896 -0.11882,-0.28172 -0.041,-0.46289 l 4.61914,-9.5957 c 0.3137,-0.59571 0.64952,-1.10887 0.69532,-1.13867 l -0.0606,-0.0918 c -0.53379,0.60846 -2.02241,1.80614 -3.52344,2.7832 l -4.68555,3.05079 c -0.24062,0.15662 -0.4879,0.10391 -0.64453,-0.13672 l -1.58007,-2.42774 c -0.15663,-0.24063 -0.10391,-0.4879 0.13671,-0.64453 l 14.0586,-9.15039 c 0.12031,-0.0783 0.24238,-0.10553 0.35351,-0.082 z M 17.860941,841.4909 c 0.64758,0.008 1.33521,0.15358 2.05664,0.42969 l 7.69922,2.94727 c 2.7708,1.06045 3.93665,3.52692 2.60742,7 l -0.69922,1.82617 c -1.37809,3.60076 -3.72756,4.57513 -6.61328,3.4707 l -7.69922,-2.94726 c -2.75803,-1.05556 -3.93469,-3.52692 -2.60547,-7 l 0.69727,-1.82422 c 1.03357,-2.70057 2.61389,-3.92537 4.55664,-3.90235 z m 100.757809,2.58594 c -2.23661,-0.22431 -8.8979,2.46598 -10.41406,3.3711 -2.95163,1.90531 -8.84185,8.44579 -14.679685,14.07812 -0.0299,-0.61245 -0.0797,-1.18147 -0.183594,-1.60547 -0.61002,-2.48998 -3.667859,-10.96172 -7.091797,-13.18164 -0.631147,-0.40921 -1.369597,-0.57996 -2.162113,-0.56836 v 0.002 c -3.43421,0.0504 -7.9122,3.50177 -9.33984,5.60352 -4.25527,6.26448 -3.28236,9.65775 -4.14063,11.11328 -0.51835,0.28888 -0.95112,0.59362 -1.29101,0.91602 -0.76727,0.22436 -0.81405,-0.76266 -4.43164,-2.26367 -3.37648,-1.40094 -5.23899,0.34213 -5.84375,3.94531 -0.6004,3.57717 -0.0753,6.2681 2.15625,8.82812 -4.19709,9.09026 -5.3024,13.54533 -2.08008,20.69141 0.2497,0.55375 0.54476,1.07199 0.85547,1.57617 -0.36289,0.23235 -0.62933,0.58829 -0.75,1.00195 l -2.46875,8.46289 -9.6211,-0.21094 c -0.0143,-0.29885 -0.0507,-0.59119 -0.11328,-0.875 -0.0194,-0.10712 -0.0537,-0.20794 -0.0801,-0.3125 -0.0215,-0.075 -0.0437,-0.1491 -0.0684,-0.22265 -0.42414,-1.39402 -1.43805,-2.52864 -2.77149,-3.08008 -0.67046,-0.31185 -1.4105,-0.49805 -2.19726,-0.49805 -2.89042,0 -5.24024,2.34983 -5.24024,5.24024 0,2.89042 2.34982,5.2422 5.24024,5.24219 0.74315,0 1.44864,-0.15942 2.08984,-0.43946 l 8.64453,14.06836 v 11.25586 l -3.54687,-0.043 c -0.85676,-0.0105 -1.56003,0.67449 -1.57032,1.53125 -0.0105,0.85675 0.67645,1.56002 1.53321,1.57031 l 10.6289,0.13086 c 0.85618,0.0105 1.5592,-0.67509 1.57032,-1.53125 0.0105,-0.85675 -0.6745,-1.55805 -1.53125,-1.56835 l -3.98047,-0.0508 v -11.83203 l 9.21093,-18.19726 -4.48046,-0.0977 c 0.60109,-2.0605 1.20351,-4.12117 1.80468,-6.18164 l 0.44532,0.0254 c 0.64823,0.62215 1.13672,0.90865 1.83593,1.43164 0,0 0.40698,-0.32757 0.66016,-0.51562 3.74228,-2.76145 8.05062,-6.06835 14.12891,-7.48633 0.58225,-0.66917 1.23016,-1.58011 1.56054,-2.61133 0.68253,-2.1304 1.69225,-7.37585 2.27149,-5.70898 0.50281,1.44698 0.004,6.39296 -0.14258,7.73632 1.30072,-0.11266 2.470398,-0.11591 3.509765,-0.0352 0.612489,-0.78556 1.281484,-1.79561 1.74414,-2.96094 0.981056,-2.47106 1.602801,-8.30239 1.958985,-8.21875 0.05088,0.0119 0.09637,0.14538 0.136719,0.42578 0.306272,2.1283 0.990327,9.14195 0.220703,11.60938 0.06898,0.026 0.14652,0.0497 0.21289,0.0762 1.798964,0.71662 2.732412,1.68554 2.732422,1.68554 0.43673,0.47359 0.406994,1.21151 -0.06641,1.64844 -0.47359,0.43672 -1.211509,0.407 -1.648437,-0.0664 0,0 -0.449089,-0.53044 -1.882813,-1.10157 -1.433733,-0.57114 -3.765198,-1.08727 -7.300778,-0.68945 -7.08164,0.79683 -11.67731,4.34844 -16.04883,7.57422 -0.043,0.031 -0.0704,0.061 -0.11719,0.0859 3.26955,2.05799 6.5233,3.18697 7.91406,3.71484 6.38126,2.24409 17.173047,0.9932 25.552738,-2.9707 1.987395,-0.94011 3.794695,-1.8153 5.521485,-2.67578 0.74632,3.97024 -2.28647,7.71213 6.65625,14.27929 2.57526,1.89118 11.33146,0.11901 12.38476,-3.82812 1.0533,-3.94714 -7.51887,-0.4724 -7.99023,-1.50977 -0.69896,-1.61402 2.53006,-6.31619 1.95117,-6.93945 -0.62758,-1.01322 -5.07025,0.66744 -5.09765,-0.11914 -0.0265,-0.75942 2.15665,-3.40271 1.94336,-7.24414 1.86899,-1.12131 3.77271,-2.32016 5.82031,-3.6836 6.35763,-4.23339 14.36884,-6.95299 17.82226,-9.82031 2.37664,2.17737 6.74924,6.33151 8.28907,8.85742 2.14316,3.51554 4.01757,8.80664 4.01757,8.80664 0,0 2.1378,-10.48814 1.34766,-14.29687 -0.79016,-3.8087 -2.9536,-1.59454 -4.83398,-3.12109 -1.88037,-1.52656 -2.0449,-2.81186 0.17968,-4.43555 2.22456,-1.62367 6.32618,-1.23242 6.32618,-1.23242 0,0 -2.70237,-1.55858 -4.68555,-3.22656 -1.98316,-1.66797 -1.07729,-2.5979 1.46289,-5.02149 2.54018,-2.42362 6.81836,-1.59179 6.81836,-1.59179 l 7.4043,-11.72852 c 0,0 -21.45929,12.13956 -28.48829,18.89062 -2.23281,-0.34724 -5.23635,-0.5684 -8.38671,-1.48046 -4.06803,-1.17774 -13.80735,-2.67148 -19.83008,-4.35157 l 7.41601,-5.63476 -7.66601,-3.31641 5.24804,-4.93164 -3.70898,0.006 c 0,0 4.21275,-2.99847 5.92383,-5.60156 3.91197,-3.2479 4.16228,-4.43182 2.82031,-4.56641 z m -100.427729,1.41797 c -0.71845,-0.0108 -1.34131,0.38798 -1.63086,1.14453 l -0.69727,1.82422 c -0.39094,1.02149 0.15669,1.96454 1.10157,2.32617 l 6.93164,2.65235 c 1.00872,0.38606 1.98698,0.0146 2.37304,-0.99414 l 0.69922,-1.82618 c 0.39095,-1.02149 -0.14391,-1.95769 -1.10156,-2.32422 l -6.93359,-2.65429 c -0.25218,-0.0965 -0.50271,-0.14485 -0.74219,-0.14844 z m 64.5293,4.34375 c 0.56793,0.0212 1.13228,0.13161 1.6875,0.33594 2.220835,0.81732 3.913299,3.00629 4.83984,5.96094 0.92654,2.95466 1.065754,6.65049 0.179687,10.35546 -0.886066,3.70497 -2.627564,6.70682 -4.703125,8.55664 -2.075562,1.84983 -4.456892,2.54192 -6.677732,1.72461 -2.22085,-0.81732 -3.91135,-3.00823 -4.83789,-5.96289 -0.92654,-2.95466 -1.06772,-6.64855 -0.18164,-10.35351 0.88606,-3.70497 2.62756,-6.70878 4.70312,-8.5586 1.55667,-1.38736 3.28644,-2.12221 4.99024,-2.05859 z m -38.72461,7.85742 c -2.19786,0 -3.99219,1.79433 -3.99219,3.99219 0,2.19785 1.79433,3.99219 3.99219,3.99219 2.19785,0 3.99023,-1.79434 3.99023,-3.99219 0,-2.19786 -1.79238,-3.99219 -3.99023,-3.99219 z m 0,1.10547 c 1.60064,-1e-5 2.88476,1.28606 2.88476,2.88672 0,1.60064 -1.28412,2.88672 -2.88476,2.88672 -1.60065,0 -2.88868,-1.28608 -2.88868,-2.88672 0,-1.60066 1.28802,-2.88673 2.88868,-2.88672 z m -31.26368,1.37695 c 0.12206,0.0156 0.22236,0.0979 0.25586,0.26758 l 0.58008,2.58203 c 0.0185,0.0713 0.0223,0.14119 0.0137,0.20899 -0.0207,0.16274 -0.15315,0.33896 -0.36523,0.38086 -0.98566,0.16378 -1.54813,0.79438 -1.69336,1.93359 l -0.24805,1.95313 c -0.13831,1.08497 0.61555,1.8701 1.61914,1.99804 l 7.36328,0.9375 c 1.07141,0.13658 1.93373,-0.45593 2.07032,-1.52734 l 0.24804,-1.95313 c 0.14523,-1.13922 -0.21931,-1.84689 -1.15429,-2.29687 -0.19479,-0.0937 -0.27856,-0.29819 -0.25782,-0.46094 0.009,-0.0678 0.0306,-0.13296 0.0664,-0.19726 l 1.21094,-2.35352 c 0.075,-0.15585 0.19044,-0.21091 0.3125,-0.19531 0.0814,0.0104 0.25877,0.0327 0.5332,0.15039 2.1311,0.90567 3.09534,3.06905 2.7461,5.80859 l -0.2461,1.93946 c -0.48755,3.82451 -2.54043,5.32627 -5.60547,4.93554 l -8.17773,-1.04297 c -2.9429799,-0.37517 -4.6577699,-2.49469 -4.1874999,-6.18359 l 0.24805,-1.95313 c 0.34751,-2.72598 1.9598399,-4.5603 4.2499999,-4.90234 0.29517,-0.0451 0.33659,-0.0397 0.41796,-0.0293 z m 50.76954,2.47266 c 0.82375,-10e-4 1.69051,0.36225 2.50195,1.0293 1.08191,0.88937 2.0427,2.31478 2.59765,4.05664 0.24317,0.76322 0.36949,1.51669 0.42383,2.24219 -0.30112,-1.25792 -1.30847,-2.13165 -2.45898,-2.13282 -1.40857,-3.9e-4 -2.55065,1.29299 -2.55078,2.88867 1.3e-4,1.59569 1.14221,2.88907 2.55078,2.88868 1.12925,-0.001 2.12337,-0.84349 2.44336,-2.07032 -0.0402,0.34775 -0.0965,0.68346 -0.18164,0.9961 -0.36803,1.35134 -1.12695,2.31686 -2.17383,2.65039 -1.04688,0.33354 -2.22472,-0.0149 -3.30664,-0.9043 -1.08192,-0.88937 -2.0427,-2.31478 -2.59766,-4.05664 -0.55496,-1.74185 -0.59654,-3.46118 -0.22851,-4.8125 0.36803,-1.35133 1.12694,-2.31686 2.17382,-2.65039 0.26172,-0.0834 0.53206,-0.12461 0.80665,-0.125 z m 17.33007,0.59375 c -2.16792,0.0336 -3.90809,1.82939 -3.9082,4.0332 3.6e-4,2.22763 1.77714,4.03326 3.96875,4.03321 2.19161,5e-5 3.968387,-1.80558 3.968751,-4.03321 -3.64e-4,-2.22762 -1.777141,-4.03325 -3.968751,-4.0332 -0.0202,-1.5e-4 -0.0404,-1.5e-4 -0.0605,0 z m -30.20507,7.94727 c -1.52759,0 -2.77735,1.24975 -2.77735,2.77734 0,1.52759 1.24976,2.77731 2.77735,2.77734 1.52758,0 2.77734,-1.24975 2.77734,-2.77734 0,-1.52759 -1.24976,-2.77735 -2.77734,-2.77734 z m 0,1.10546 c 0.93038,0 1.67382,0.7415 1.67382,1.67188 0,0.93038 -0.74344,1.67187 -1.67382,1.67187 -0.93039,0 -1.67188,-0.74149 -1.67188,-1.67187 0,-0.93038 0.74149,-1.67188 1.67188,-1.67188 z m 123.746099,1.39063 c 0.0399,0.003 0.0752,0.0244 0.10937,0.0547 0.0341,0.0302 0.068,0.0706 0.10352,0.12109 0.071,0.10098 0.14761,0.24127 0.22851,0.4082 0.16181,0.33386 0.33962,0.77658 0.51563,1.22657 0.17601,0.44999 0.3497,0.90714 0.49804,1.26757 0.0742,0.18022 0.14238,0.33676 0.20118,0.45508 0.0589,0.11832 0.11157,0.19986 0.13867,0.22266 0.0271,0.0228 0.11751,0.0618 0.24414,0.0996 0.12663,0.0378 0.29219,0.0788 0.48242,0.12109 0.38049,0.0846 0.86056,0.17684 1.33399,0.27344 0.47343,0.0966 0.94029,0.19833 1.29687,0.30078 0.17829,0.0512 0.3298,0.1016 0.44141,0.1543 0.0558,0.0264 0.10102,0.0535 0.13672,0.082 0.0357,0.0285 0.0623,0.0589 0.0723,0.0977 0.01,0.0388 6.4e-4,0.0792 -0.0176,0.12109 -0.0183,0.0419 -0.0469,0.0873 -0.084,0.13672 -0.0741,0.0987 -0.18265,0.21328 -0.31641,0.34179 -0.26752,0.25707 -0.63423,0.56465 -1.00781,0.8711 -0.37358,0.30644 -0.75382,0.61276 -1.05078,0.86523 -0.14848,0.12623 -0.2768,0.23953 -0.3711,0.33203 -0.0943,0.0925 -0.15662,0.16838 -0.16992,0.20118 -0.0134,0.0328 -0.0225,0.12962 -0.0195,0.26171 0.003,0.13212 0.0167,0.30209 0.0352,0.4961 0.0371,0.38801 0.0979,0.87339 0.15234,1.35351 0.0544,0.48011 0.10244,0.95539 0.11524,1.32617 0.006,0.1854 0.004,0.34436 -0.0117,0.4668 -0.008,0.0612 -0.0191,0.11355 -0.0352,0.15625 -0.0161,0.0427 -0.0364,0.0785 -0.0703,0.0996 -0.034,0.0211 -0.0756,0.0235 -0.1211,0.0195 -0.0455,-0.004 -0.0959,-0.0171 -0.15429,-0.0371 -0.11679,-0.04 -0.2622,-0.10781 -0.42578,-0.19531 -0.32714,-0.17499 -0.73179,-0.42885 -1.13867,-0.68945 -0.4069,-0.2606 -0.81461,-0.52802 -1.14649,-0.73243 -0.16594,-0.1022 -0.31254,-0.1889 -0.42969,-0.25 -0.11716,-0.0611 -0.20884,-0.0947 -0.24414,-0.0977 -0.0353,-0.002 -0.1312,0.0186 -0.25586,0.0625 -0.12465,0.0439 -0.28215,0.10794 -0.46094,0.18555 -0.35757,0.15516 -0.80042,0.36238 -1.24024,0.5625 -0.4398,0.2001 -0.87787,0.39282 -1.22656,0.51953 -0.17435,0.0633 -0.32599,0.10991 -0.44727,0.13281 -0.0606,0.0119 -0.1126,0.0176 -0.1582,0.0156 -0.0456,-0.002 -0.0866,-0.0114 -0.11719,-0.0371 -0.0306,-0.0257 -0.0466,-0.0628 -0.0566,-0.10742 -0.009,-0.0446 -0.0127,-0.0985 -0.0117,-0.16015 0.002,-0.12342 0.022,-0.28225 0.0547,-0.46485 0.0653,-0.36521 0.18062,-0.82741 0.30274,-1.29492 0.12209,-0.46751 0.25194,-0.93955 0.34374,-1.31836 0.046,-0.18935 0.0816,-0.35601 0.10352,-0.48632 0.022,-0.13031 0.0256,-0.22742 0.0176,-0.26172 -0.009,-0.0343 -0.0585,-0.11961 -0.13867,-0.22461 -0.0802,-0.105 -0.18933,-0.2348 -0.31836,-0.38086 -0.25806,-0.29212 -0.59175,-0.64942 -0.91797,-1.00586 -0.32623,-0.35644 -0.64479,-0.71144 -0.87305,-1.00391 -0.11414,-0.14624 -0.20632,-0.27651 -0.26562,-0.38476 -0.0297,-0.0541 -0.0504,-0.10249 -0.0625,-0.14649 -0.0121,-0.044 -0.0169,-0.086 -0.002,-0.12304 0.015,-0.037 0.0465,-0.0628 0.0859,-0.0859 0.0394,-0.0232 0.0894,-0.0424 0.14844,-0.0606 0.11797,-0.0364 0.27327,-0.0664 0.45703,-0.0918 0.36752,-0.0508 0.84381,-0.085 1.32617,-0.11328 0.48236,-0.0283 0.97074,-0.0504 1.35938,-0.0801 0.19432,-0.0148 0.36343,-0.0314 0.49414,-0.0508 0.13071,-0.0194 0.22586,-0.0457 0.25586,-0.0644 0.03,-0.0187 0.0948,-0.0924 0.16992,-0.20117 0.0751,-0.10875 0.16467,-0.25401 0.26367,-0.42188 0.19807,-0.33566 0.43564,-0.76318 0.67384,-1.18359 0.23818,-0.42041 0.47792,-0.83316 0.68555,-1.14063 0.10381,-0.15373 0.1986,-0.28129 0.2832,-0.37109 0.0423,-0.0449 0.083,-0.0804 0.12109,-0.10547 0.0382,-0.0251 0.0754,-0.0421 0.11524,-0.0391 z m -150.066419,4.42187 c 0.28586,-0.0267 0.47912,0.13406 0.50586,0.41993 l 0.94922,10.14062 c 0.0267,0.28586 -0.13406,0.48111 -0.41992,0.50781 l -16.7031299,1.5625 c -0.28586,0.0267 -0.47911,-0.13406 -0.50585,-0.41992 l -0.26954,-2.88672 c -0.0267,-0.28586 0.13406,-0.47916 0.41993,-0.50586 l 13.2304599,-1.23828 c 0.28587,-0.0267 0.44667,-0.22 0.41993,-0.50586 l -0.5918,-6.33007 c -0.0268,-0.28586 0.13211,-0.47916 0.41797,-0.50586 z m 17.0625,0.0859 c -1.744,0 -3.16991,1.42591 -3.16992,3.16992 0,1.74401 1.42592,3.16992 3.16992,3.16992 1.74401,0 3.16798,-1.42591 3.16797,-3.16992 0,-1.74401 -1.42396,-3.16992 -3.16797,-3.16992 z m 0,1.10547 c 1.1468,0 2.0625,0.91765 2.0625,2.06445 10e-6,1.1468 -0.9157,2.06446 -2.0625,2.06446 -1.1468,0 -2.06641,-0.91766 -2.0664,-2.06446 0,-1.1468 0.91961,-2.06445 2.0664,-2.06445 z m -15.15039,13.75391 c 0.18231,0.008 0.32511,0.12496 0.39063,0.33007 l 3.25195,10.1836 c 0.0874,0.27349 -0.0273,0.49853 -0.30078,0.58593 l -15.84961,5.0625 c -0.2735,0.0874 -0.49661,-0.0273 -0.58398,-0.30078 L 9.8726611,898.7311 c -0.0874,-0.27349 0.0273,-0.49659 0.3007799,-0.58399 l 2.43555,-0.77734 c 0.27349,-0.0874 0.49661,0.0273 0.58398,0.30078 l 2.08985,6.53711 c 0.0874,0.27355 0.31049,0.39013 0.58398,0.30273 l 2.43555,-0.77929 c 0.27349,-0.0874 0.38815,-0.3105 0.30078,-0.58399 l -1.71289,-5.36523 c -0.0874,-0.27349 0.0273,-0.49659 0.30078,-0.58399 l 2.43555,-0.77929 c 0.27349,-0.0874 0.49661,0.0292 0.58398,0.30273 l 1.71289,5.36523 c 0.0874,0.27345 0.31244,0.38819 0.58594,0.30079 l 2.56445,-0.81836 c 0.27349,-0.0874 0.38814,-0.3105 0.30078,-0.58399 l -2.08789,-6.53906 c -0.0874,-0.27349 0.0292,-0.49658 0.30274,-0.58398 l 2.43359,-0.77735 c 0.0684,-0.0218 0.13454,-0.0321 0.19531,-0.0293 z m 139.167969,9.39843 c 0.62209,0.0342 1.27341,0.19883 1.93945,0.49414 1.53023,0.6785 2.40986,1.77902 2.61914,3.38672 0.0173,0.13938 0.0603,0.22457 0.14844,0.26367 0.0881,0.0391 0.16292,0.0467 0.26563,0.0527 l 6.20899,0.16992 c 0.27512,0.003 0.43729,0.0234 0.52539,0.0625 0.0881,0.0391 0.13669,0.16566 0.0586,0.3418 l -1.18164,2.66406 c -0.039,0.0881 -0.12793,0.14058 -0.27343,0.14258 l -6.12501,-0.14844 c -0.12961,-0.005 -0.21392,0.065 -0.25782,0.16406 l -0.84375,1.9043 c -0.1025,0.23118 -0.0222,0.43656 0.20899,0.53906 l 4.75587,2.10938 c 0.23114,0.10251 0.30953,0.30983 0.20703,0.54101 l -1.03517,2.33399 c -0.10251,0.23114 -0.30787,0.30954 -0.53906,0.20703 l -13.39844,-5.93945 c -0.23114,-0.1025 -0.31149,-0.30984 -0.20898,-0.54102 l 2.51953,-5.67969 c 0.9372,-2.1137 2.53998,-3.17091 4.40625,-3.06836 z m -0.13086,3.22071 c -0.59567,0.0107 -1.16392,0.40632 -1.45313,1.05859 l -1.16601,2.63086 c -0.10251,0.23119 -0.0242,0.43851 0.20703,0.54101 l 2.37891,1.05469 c 0.23118,0.10251 0.43656,0.0222 0.53906,-0.20898 l 1.16797,-2.63086 c 0.37585,-0.84769 0.0883,-1.80579 -0.69336,-2.15235 l -0.38477,-0.16992 c -0.19541,-0.0866 -0.39714,-0.1266 -0.5957,-0.12304 z m -132.449219,4.87109 c 0.13919,-0.002 0.26745,0.0784 0.36914,0.23242 l 1.64063,2.48828 c 0.1281,0.19396 0.11626,0.39882 0.002,0.52344 l -4.39062,5.01172 c -0.91473,1.04629 -2.71889,2.53326 -4.23633,3.53515 l 0.0606,0.0899 c 1.26212,-0.71864 2.17417,-1.12262 2.9375,-1.38086 l 8.52148,-2.82617 c 0.18986,-0.0598 0.37612,-0.002 0.51172,0.20312 l 1.55859,2.36328 c 0.1281,0.19396 0.11627,0.39687 0.002,0.52149 l -11.72461,11.96875 c -0.11432,0.12462 -0.53475,0.58144 -0.5918,0.61914 -0.11409,0.0753 -0.23076,0.0227 -0.34375,-0.14844 l -1.79297,-2.7168 c -0.0979,-0.14832 -0.0854,-0.25346 0.0137,-0.35156 l 5.89063,-5.74219 c 0.91019,-0.87946 1.78276,-1.66812 2.42578,-2.1582 l -0.0606,-0.0898 c -1.30798,0.79806 -3.39822,1.80095 -5.02734,2.33593 l -5.67383,1.87696 c -0.13669,0.0411 -0.2648,0.0452 -0.40039,-0.16016 l -1.55274,-2.34961 c -0.10551,-0.15973 -0.10125,-0.27716 -0.01,-0.38672 l 5.55273,-6.25586 c 0.56404,-0.63453 1.3604,-1.3401 2.42578,-2.1582 l -0.0605,-0.0918 c -1.15235,0.76083 -3.17428,1.81786 -4.91406,2.50782 l -5.52735,2.17578 c -0.12916,0.0525 -0.24498,-10e-4 -0.32031,-0.11524 l -1.80078,-2.72656 c -0.11298,-0.17114 -0.11605,-0.30165 -0.002,-0.37695 0.0342,-0.0226 0.19293,-0.079 0.2461,-0.0977 l 16.1289,-6.29101 c 0.0484,-0.0197 0.0962,-0.0286 0.14258,-0.0293 z m 121.730469,7.19336 14.78516,5.17578 c 0.0727,0.0225 0.0936,0.0376 0.12304,0.0586 0.0976,0.0702 0.0958,0.17359 -0.01,0.32032 l -1.74024,2.42578 c -0.0773,0.10804 -0.17603,0.14052 -0.29492,0.0996 l -2.0625,-0.78321 c -0.11888,-0.0409 -0.17198,-0.006 -0.27734,0.14063 l -2.70508,3.76562 c -0.1124,0.1565 -0.11974,0.21095 -0.043,0.31055 l 1.40039,1.70117 c 0.0765,0.0996 0.076,0.20494 0.006,0.30274 l -1.73437,2.41601 c -0.10537,0.1467 -0.2108,0.18934 -0.3086,0.11914 -0.0489,-0.0351 -0.1234,-0.11913 -0.1582,-0.17382 -0.0223,-0.0308 -9.5586,-12.28907 -9.5586,-12.28907 -0.10891,-0.13747 -0.0858,-0.3142 0.0195,-0.46093 l 2.1289,-2.9629 c 0.10536,-0.1467 0.26465,-0.22521 0.42969,-0.16601 z m 1.9668,3.88867 -0.2461,0.3418 0.36719,0.33594 3.41016,4.16992 c 0.10609,0.12068 0.21926,0.12721 0.3457,-0.0488 l 1.65039,-2.29688 c 0.12644,-0.17607 0.0916,-0.29151 -0.0566,-0.35351 l -5.03516,-1.91016 z m -9.07032,6.58594 c 1.09083,-0.0471 2.13847,0.4063 3.05469,1.4043 0.904,0.98468 1.25507,2.3291 0.83203,3.45312 -0.0488,0.14276 -0.007,0.20278 0.0254,0.23828 0.0489,0.0532 0.13278,0.0746 0.23633,0.0449 1.32091,-0.3953 2.63436,-0.0484 3.7168,1.14844 1.99385,2.20742 1.74638,4.4453 -0.1875,6.2207 l -5.10938,4.69141 c -0.18629,0.17107 -0.40905,0.16098 -0.58007,-0.0254 l -9.91016,-10.79492 c -0.17105,-0.18629 -0.16282,-0.40711 0.0234,-0.57813 l 4.58789,-4.21093 c 1.0867,-0.99766 2.2197,-1.54465 3.31054,-1.5918 z m -0.17773,3.26562 c -0.37978,-0.013 -0.76504,0.15762 -1.14648,0.50782 l -2.09376,1.92187 c -0.18627,0.17103 -0.1964,0.39184 -0.0254,0.57813 l 1.60352,1.74804 c 0.17102,0.18627 0.39378,0.1964 0.58008,0.0254 l 2.09375,-1.92187 c 0.76293,-0.70039 0.80424,-1.4919 0.0957,-2.26367 -0.35427,-0.38589 -0.72763,-0.58269 -1.10742,-0.59571 z m 4.33203,4.44727 c -0.41114,-0.0272 -0.81488,0.11681 -1.13867,0.41406 l -2.28125,2.0918 c -0.18629,0.17103 -0.19451,0.39379 -0.0234,0.58008 l 1.76563,1.92382 c 0.17102,0.18627 0.39378,0.19641 0.58007,0.0254 l 2.2793,-2.09374 c 0.64809,-0.59452 0.73107,-1.53756 -0.002,-2.33594 -0.35019,-0.38145 -0.76854,-0.57831 -1.17969,-0.60547 z m -15.80859,0.82226 c 0.15826,-0.0282 0.3043,0.0435 0.40039,0.20704 l 5.61133,9.55273 c 1.32384,2.25304 0.76943,4.59065 -2.05469,6.25 l -1.48438,0.87109 c -2.92795,1.7204 -5.08634,1.09003 -6.45898,-1.24609 l -5.61328,-9.55273 c -0.12812,-0.21804 -0.0716,-0.43243 0.14648,-0.56055 l 2.20117,-1.29297 c 0.21804,-0.12811 0.43244,-0.0716 0.56055,0.14648 l 5.42969,9.24024 c 0.48194,0.82027 1.35944,1.10107 2.17969,0.61914 l 1.48437,-0.87305 c 0.83063,-0.48802 0.9667,-1.42026 0.51953,-2.20508 l -5.42969,-9.24023 c -0.12812,-0.21804 -0.0716,-0.43243 0.14649,-0.56055 l 2.20117,-1.29297 c 0.0545,-0.032 0.10741,-0.0531 0.16016,-0.0625 z m -15.63086,8.15235 c 1.60517,-0.0804 2.98453,0.56062 3.84375,1.82617 0.14847,0.21719 0.16077,0.25171 0.18359,0.32031 0.0342,0.10282 0.007,0.21339 -0.11523,0.30469 l -1.82813,1.44727 c -0.0495,0.042 -0.10305,0.0705 -0.16015,0.0898 -0.13711,0.0457 -0.32722,0.008 -0.44141,-0.14453 -0.50621,-0.71993 -1.22187,-0.92501 -2.18164,-0.60547 l -1.64649,0.54687 c -0.91403,0.30428 -1.24828,1.20335 -0.96679,2.04883 l 2.06445,6.20508 c 0.30051,0.90266 1.10126,1.3591 2.00391,1.05859 l 1.64453,-0.54687 c 0.95978,-0.31953 1.38247,-0.87898 1.38281,-1.79297 7e-5,-0.19045 0.13047,-0.33536 0.26758,-0.38086 0.0571,-0.0224 0.11694,-0.0234 0.18164,-0.0234 l 2.33203,0.0625 c 0.15233,8e-5 0.23924,0.0709 0.27344,0.17383 0.0229,0.0685 0.0727,0.21765 0.084,0.48047 0.0945,2.03738 -1.25447,3.62807 -3.5625,4.39649 l -1.63476,0.54492 c -3.22209,1.07268 -5.19696,0.0159 -6.05664,-2.56641 l -2.29493,-6.88867 c -0.82544,-2.4794 0.20466,-4.65087 3.3125,-5.68555 l 1.64454,-0.54687 c 0.57415,-0.19114 1.13487,-0.2974 1.66992,-0.32422 z m -44.343749,3.5039 c 0.0399,0.003 0.0732,0.0244 0.10742,0.0547 0.0342,0.0303 0.07,0.0706 0.10547,0.1211 0.071,0.10097 0.14566,0.24127 0.22656,0.4082 0.16181,0.33386 0.34158,0.77658 0.51758,1.22656 0.17601,0.45 0.3497,0.90714 0.49805,1.26758 0.0742,0.18022 0.14232,0.33676 0.20117,0.45508 0.0588,0.11832 0.11161,0.19985 0.13867,0.22265 0.0271,0.0228 0.11752,0.0618 0.24414,0.0996 0.12663,0.0378 0.29219,0.0788 0.48242,0.1211 0.38048,0.0846 0.86056,0.17683 1.33399,0.27343 0.47343,0.0966 0.94029,0.19638 1.29687,0.29883 0.17829,0.0512 0.32784,0.10355 0.43946,0.15625 0.0558,0.0264 0.10299,0.0516 0.13867,0.0801 0.0357,0.0285 0.0627,0.0608 0.0723,0.0996 0.01,0.0388 6.7e-4,0.0792 -0.0176,0.12109 -0.0182,0.0419 -0.0469,0.0854 -0.084,0.13477 -0.0741,0.0987 -0.1846,0.21523 -0.31836,0.34375 -0.26752,0.25706 -0.63228,0.56464 -1.00586,0.87109 -0.37358,0.30644 -0.75577,0.61081 -1.05273,0.86328 -0.14848,0.12623 -0.2748,0.23954 -0.36914,0.33204 -0.0944,0.0925 -0.15663,0.17032 -0.16992,0.20312 -0.0132,0.0328 -0.0227,0.12962 -0.0195,0.26172 0.003,0.13211 0.0166,0.30208 0.0352,0.49609 0.0371,0.38801 0.0979,0.8734 0.15234,1.35352 0.0544,0.48011 0.10248,0.95539 0.11524,1.32617 0.006,0.1854 0.004,0.34436 -0.0117,0.4668 -0.008,0.0612 -0.0191,0.11355 -0.0352,0.15625 -0.0161,0.0427 -0.0364,0.0765 -0.0703,0.0977 -0.0339,0.0211 -0.0756,0.0255 -0.12109,0.0215 -0.0455,-0.004 -0.0979,-0.0191 -0.15625,-0.0391 -0.11679,-0.04 -0.26026,-0.10782 -0.42383,-0.19532 -0.32714,-0.17499 -0.73178,-0.4269 -1.13867,-0.6875 -0.40689,-0.2606 -0.81461,-0.52996 -1.14649,-0.73437 -0.16593,-0.1022 -0.31448,-0.18697 -0.43164,-0.24805 -0.11715,-0.0611 -0.20887,-0.0966 -0.24414,-0.0996 -0.0353,-0.002 -0.1312,0.0186 -0.25586,0.0625 -0.12465,0.0439 -0.28215,0.1099 -0.46093,0.1875 -0.35757,0.15516 -0.79848,0.36238 -1.23829,0.5625 -0.4398,0.20011 -0.87786,0.39282 -1.22656,0.51953 -0.17435,0.0633 -0.32599,0.10982 -0.44726,0.13282 -0.0606,0.0118 -0.11454,0.0157 -0.16016,0.0137 -0.0456,-0.002 -0.0847,-0.009 -0.11523,-0.0352 -0.0306,-0.0257 -0.0468,-0.0648 -0.0567,-0.10937 -0.01,-0.0446 -0.0127,-0.0965 -0.0117,-0.15821 0.002,-0.12342 0.022,-0.28224 0.0547,-0.46484 0.0653,-0.36521 0.18063,-0.82937 0.30274,-1.29688 0.1221,-0.46751 0.24995,-0.9376 0.34179,-1.3164 0.0459,-0.1894 0.0835,-0.35602 0.10547,-0.48633 0.0219,-0.13031 0.0261,-0.22937 0.0176,-0.26367 -0.008,-0.0343 -0.0584,-0.11766 -0.13867,-0.22266 -0.0802,-0.105 -0.18933,-0.2348 -0.31836,-0.38086 -0.25806,-0.29212 -0.59174,-0.64942 -0.91797,-1.00586 -0.32622,-0.35644 -0.64478,-0.71143 -0.87305,-1.0039 -0.11413,-0.14624 -0.20631,-0.27656 -0.26562,-0.38477 -0.0297,-0.0541 -0.0523,-0.10248 -0.0644,-0.14648 -0.0121,-0.044 -0.015,-0.0861 0,-0.12305 0.015,-0.0371 0.0466,-0.0628 0.0859,-0.0859 0.0394,-0.0232 0.0894,-0.0443 0.14844,-0.0625 0.11797,-0.0364 0.27327,-0.0664 0.45703,-0.0918 0.36752,-0.0508 0.84382,-0.083 1.32617,-0.11133 0.48236,-0.0283 0.97074,-0.0523 1.35938,-0.082 0.19432,-0.0148 0.36343,-0.0314 0.49414,-0.0508 0.13071,-0.0194 0.22584,-0.0438 0.25586,-0.0625 0.03,-0.0187 0.0949,-0.0924 0.16992,-0.20118 0.0751,-0.10875 0.16463,-0.25402 0.26367,-0.42187 0.19808,-0.33569 0.43369,-0.76319 0.67188,-1.1836 0.23818,-0.42041 0.47988,-0.83315 0.6875,-1.14062 0.10381,-0.15374 0.19857,-0.28119 0.2832,-0.37109 0.0423,-0.0449 0.081,-0.0804 0.11914,-0.10547 0.0381,-0.0251 0.0773,-0.0421 0.11719,-0.0391 z m 28.771479,0.24414 c 2.09415,-0.014 3.73351,0.88803 4.55469,2.51563 0.10328,0.24185 0.10819,0.27791 0.11719,0.34961 0.0135,0.10751 -0.0345,0.20989 -0.17188,0.27539 l -2.07422,1.0625 c -0.0567,0.0316 -0.11413,0.0506 -0.17383,0.0586 -0.14337,0.018 -0.30002,-0.0579 -0.40624,-0.22656 -0.45634,-0.73143 -1.29258,-1.11157 -2.33204,-0.98047 -1.15895,0.14605 -1.73612,0.86187 -1.63672,1.65039 0.0964,0.7647 0.78042,1.18733 2.82422,1.60938 3.3137,0.67468 4.97273,2.09271 5.23633,4.18359 0.36152,2.86753 -1.40126,4.95784 -4.81836,5.38867 -2.75996,0.3479 -4.99111,-0.59693 -5.853509,-2.52734 -0.10328,-0.24185 -0.108188,-0.27596 -0.117188,-0.34766 -0.0136,-0.10751 0.0345,-0.21184 0.171875,-0.27734 l 2.183592,-1.16211 c 0.0567,-0.0316 0.11608,-0.0506 0.17578,-0.0586 0.14337,-0.018 0.29808,0.0598 0.4043,0.22851 0.48627,0.77618 1.31613,1.1941 2.65429,1.02539 1.23064,-0.15515 1.7964,-0.8587 1.68946,-1.70703 -0.0964,-0.76463 -0.72543,-1.32886 -2.8125,-1.70898 -3.40326,-0.6148 -4.988416,-2.02906 -5.285156,-4.38281 -0.272645,-2.16256 1.520166,-4.49955 4.746086,-4.90626 0.31662,-0.0399 0.62466,-0.0605 0.92383,-0.0625 z" />
  </g>
</svg>
