<?xml version="1.0" encoding="UTF-8" standalone="no"?>
<svg
   xmlns:dc="http://purl.org/dc/elements/1.1/"
   xmlns:cc="http://creativecommons.org/ns#"
   xmlns:rdf="http://www.w3.org/1999/02/22-rdf-syntax-ns#"
   xmlns:svg="http://www.w3.org/2000/svg"
   xmlns="http://www.w3.org/2000/svg"
   xmlns:sodipodi="http://sodipodi.sourceforge.net/DTD/sodipodi-0.dtd"
   xmlns:inkscape="http://www.inkscape.org/namespaces/inkscape"
   width="50mm"
   height="50mm"
   id="svg2"
   version="1.1"
   inkscape:version="1.0.2 (e86c870879, 2021-01-15)"
   sodipodi:docname="xHain_stickers_5cm_scubar.svg"
   inkscape:export-filename="/home/xHain_stickers_5cm_scubar.png"
   inkscape:export-xdpi="350"
   inkscape:export-ydpi="350">
  <sodipodi:namedview
     id="base"
     pagecolor="#ffffff"
     bordercolor="#666666"
     borderopacity="1.0"
     inkscape:pageopacity="0.0"
     inkscape:pageshadow="2"
     inkscape:zoom="2.8138778"
     inkscape:cx="63.580879"
     inkscape:cy="80.254902"
     inkscape:document-units="mm"
     inkscape:current-layer="layer1"
     showgrid="false"
     inkscape:window-width="1920"
     inkscape:window-height="1032"
     inkscape:window-x="0"
     inkscape:window-y="0"
     inkscape:window-maximized="1"
     showguides="true"
     inkscape:guide-bbox="true"
     units="mm"
     inkscape:document-rotation="0">
    <inkscape:grid
       type="xygrid"
       id="grid2985"
       empspacing="5"
       visible="true"
       enabled="true"
       snapvisiblegridlinesonly="true" />
  </sodipodi:namedview>
  <defs
     id="defs4">
    <marker
       inkscape:stockid="DotS"
       orient="auto"
       refY="0"
       refX="0"
       id="DotS"
       style="overflow:visible">
      <path
         id="path3828"
         d="m -2.5,-1 c 0,2.76 -2.24,5 -5,5 -2.76,0 -5,-2.24 -5,-5 0,-2.76 2.24,-5 5,-5 2.76,0 5,2.24 5,5 z"
         style="fill-rule:evenodd;stroke:#000000;stroke-width:1pt"
         transform="matrix(0.2,0,0,0.2,1.48,0.2)"
         inkscape:connector-curvature="0" />
    </marker>
    <marker
       inkscape:stockid="DotS"
       orient="auto"
       refY="0"
       refX="0"
       id="DotS-1"
       style="overflow:visible">
      <path
         inkscape:connector-curvature="0"
         id="path3828-5"
         d="m -2.5,-1 c 0,2.76 -2.24,5 -5,5 -2.76,0 -5,-2.24 -5,-5 0,-2.76 2.24,-5 5,-5 2.76,0 5,2.24 5,5 z"
         style="fill-rule:evenodd;stroke:#000000;stroke-width:1pt"
         transform="matrix(0.2,0,0,0.2,1.48,0.2)" />
    </marker>
    <marker
       inkscape:stockid="DotS"
       orient="auto"
       refY="0"
       refX="0"
       id="marker4395"
       style="overflow:visible">
      <path
         inkscape:connector-curvature="0"
         id="path4397"
         d="m -2.5,-1 c 0,2.76 -2.24,5 -5,5 -2.76,0 -5,-2.24 -5,-5 0,-2.76 2.24,-5 5,-5 2.76,0 5,2.24 5,5 z"
         style="fill-rule:evenodd;stroke:#000000;stroke-width:1pt"
         transform="matrix(0.2,0,0,0.2,1.48,0.2)" />
    </marker>
    <marker
       inkscape:stockid="DotS"
       orient="auto"
       refY="0"
       refX="0"
       id="DotS-3"
       style="overflow:visible">
      <path
         inkscape:connector-curvature="0"
         id="path3828-0"
         d="m -2.5,-1 c 0,2.76 -2.24,5 -5,5 -2.76,0 -5,-2.24 -5,-5 0,-2.76 2.24,-5 5,-5 2.76,0 5,2.24 5,5 z"
         style="fill-rule:evenodd;stroke:#000000;stroke-width:1pt"
         transform="matrix(0.2,0,0,0.2,1.48,0.2)" />
    </marker>
    <marker
       inkscape:stockid="DotS"
       orient="auto"
       refY="0"
       refX="0"
       id="marker4427"
       style="overflow:visible">
      <path
         inkscape:connector-curvature="0"
         id="path4429"
         d="m -2.5,-1 c 0,2.76 -2.24,5 -5,5 -2.76,0 -5,-2.24 -5,-5 0,-2.76 2.24,-5 5,-5 2.76,0 5,2.24 5,5 z"
         style="fill-rule:evenodd;stroke:#000000;stroke-width:1pt"
         transform="matrix(0.2,0,0,0.2,1.48,0.2)" />
    </marker>
    <marker
       inkscape:stockid="DotS"
       orient="auto"
       refY="0"
       refX="0"
       id="DotS-2"
       style="overflow:visible">
      <path
         inkscape:connector-curvature="0"
         id="path3828-1"
         d="m -2.5,-1 c 0,2.76 -2.24,5 -5,5 -2.76,0 -5,-2.24 -5,-5 0,-2.76 2.24,-5 5,-5 2.76,0 5,2.24 5,5 z"
         style="fill-rule:evenodd;stroke:#000000;stroke-width:1pt"
         transform="matrix(0.2,0,0,0.2,1.48,0.2)" />
    </marker>
    <marker
       inkscape:stockid="DotS"
       orient="auto"
       refY="0"
       refX="0"
       id="marker4427-3"
       style="overflow:visible">
      <path
         inkscape:connector-curvature="0"
         id="path4429-9"
         d="m -2.5,-1 c 0,2.76 -2.24,5 -5,5 -2.76,0 -5,-2.24 -5,-5 0,-2.76 2.24,-5 5,-5 2.76,0 5,2.24 5,5 z"
         style="fill-rule:evenodd;stroke:#000000;stroke-width:1pt"
         transform="matrix(0.2,0,0,0.2,1.48,0.2)" />
    </marker>
    <marker
       inkscape:stockid="DotS"
       orient="auto"
       refY="0"
       refX="0"
       id="DotS-21"
       style="overflow:visible">
      <path
         inkscape:connector-curvature="0"
         id="path3828-6"
         d="m -2.5,-1 c 0,2.76 -2.24,5 -5,5 -2.76,0 -5,-2.24 -5,-5 0,-2.76 2.24,-5 5,-5 2.76,0 5,2.24 5,5 z"
         style="fill-rule:evenodd;stroke:#000000;stroke-width:1pt"
         transform="matrix(0.2,0,0,0.2,1.48,0.2)" />
    </marker>
    <marker
       inkscape:stockid="DotS"
       orient="auto"
       refY="0"
       refX="0"
       id="marker4474"
       style="overflow:visible">
      <path
         inkscape:connector-curvature="0"
         id="path4476"
         d="m -2.5,-1 c 0,2.76 -2.24,5 -5,5 -2.76,0 -5,-2.24 -5,-5 0,-2.76 2.24,-5 5,-5 2.76,0 5,2.24 5,5 z"
         style="fill-rule:evenodd;stroke:#000000;stroke-width:1pt"
         transform="matrix(0.2,0,0,0.2,1.48,0.2)" />
    </marker>
    <marker
       inkscape:stockid="DotS"
       orient="auto"
       refY="0"
       refX="0"
       id="DotS-36"
       style="overflow:visible">
      <path
         inkscape:connector-curvature="0"
         id="path3828-8"
         d="m -2.5,-1 c 0,2.76 -2.24,5 -5,5 -2.76,0 -5,-2.24 -5,-5 0,-2.76 2.24,-5 5,-5 2.76,0 5,2.24 5,5 z"
         style="fill-rule:evenodd;stroke:#000000;stroke-width:1pt"
         transform="matrix(0.2,0,0,0.2,1.48,0.2)" />
    </marker>
    <marker
       inkscape:stockid="DotS"
       orient="auto"
       refY="0"
       refX="0"
       id="marker4516"
       style="overflow:visible">
      <path
         inkscape:connector-curvature="0"
         id="path4518"
         d="m -2.5,-1 c 0,2.76 -2.24,5 -5,5 -2.76,0 -5,-2.24 -5,-5 0,-2.76 2.24,-5 5,-5 2.76,0 5,2.24 5,5 z"
         style="fill-rule:evenodd;stroke:#000000;stroke-width:1pt"
         transform="matrix(0.2,0,0,0.2,1.48,0.2)" />
    </marker>
    <marker
       inkscape:stockid="DotS"
       orient="auto"
       refY="0"
       refX="0"
       id="DotS-11"
       style="overflow:visible">
      <path
         inkscape:connector-curvature="0"
         id="path3828-58"
         d="m -2.5,-1 c 0,2.76 -2.24,5 -5,5 -2.76,0 -5,-2.24 -5,-5 0,-2.76 2.24,-5 5,-5 2.76,0 5,2.24 5,5 z"
         style="fill-rule:evenodd;stroke:#000000;stroke-width:1pt"
         transform="matrix(0.2,0,0,0.2,1.48,0.2)" />
    </marker>
    <marker
       inkscape:stockid="DotS"
       orient="auto"
       refY="0"
       refX="0"
       id="marker4954"
       style="overflow:visible">
      <path
         inkscape:connector-curvature="0"
         id="path4956"
         d="m -2.5,-1 c 0,2.76 -2.24,5 -5,5 -2.76,0 -5,-2.24 -5,-5 0,-2.76 2.24,-5 5,-5 2.76,0 5,2.24 5,5 z"
         style="fill-rule:evenodd;stroke:#000000;stroke-width:1pt"
         transform="matrix(0.2,0,0,0.2,1.48,0.2)" />
    </marker>
    <marker
       inkscape:stockid="DotS"
       orient="auto"
       refY="0"
       refX="0"
       id="DotS-7"
       style="overflow:visible">
      <path
         inkscape:connector-curvature="0"
         id="path3828-3"
         d="m -2.5,-1 c 0,2.76 -2.24,5 -5,5 -2.76,0 -5,-2.24 -5,-5 0,-2.76 2.24,-5 5,-5 2.76,0 5,2.24 5,5 z"
         style="fill-rule:evenodd;stroke:#000000;stroke-width:1pt"
         transform="matrix(0.2,0,0,0.2,1.48,0.2)" />
    </marker>
    <marker
       inkscape:stockid="DotS"
       orient="auto"
       refY="0"
       refX="0"
       id="marker5024"
       style="overflow:visible">
      <path
         inkscape:connector-curvature="0"
         id="path5026"
         d="m -2.5,-1 c 0,2.76 -2.24,5 -5,5 -2.76,0 -5,-2.24 -5,-5 0,-2.76 2.24,-5 5,-5 2.76,0 5,2.24 5,5 z"
         style="fill-rule:evenodd;stroke:#000000;stroke-width:1pt"
         transform="matrix(0.2,0,0,0.2,1.48,0.2)" />
    </marker>
    <marker
       inkscape:stockid="DotS"
       orient="auto"
       refY="0"
       refX="0"
       id="DotS-34"
       style="overflow:visible">
      <path
         inkscape:connector-curvature="0"
         id="path3828-16"
         d="m -2.5,-1 c 0,2.76 -2.24,5 -5,5 -2.76,0 -5,-2.24 -5,-5 0,-2.76 2.24,-5 5,-5 2.76,0 5,2.24 5,5 z"
         style="fill-rule:evenodd;stroke:#000000;stroke-width:1pt"
         transform="matrix(0.2,0,0,0.2,1.48,0.2)" />
    </marker>
    <marker
       inkscape:stockid="DotS"
       orient="auto"
       refY="0"
       refX="0"
       id="marker5056"
       style="overflow:visible">
      <path
         inkscape:connector-curvature="0"
         id="path5058"
         d="m -2.5,-1 c 0,2.76 -2.24,5 -5,5 -2.76,0 -5,-2.24 -5,-5 0,-2.76 2.24,-5 5,-5 2.76,0 5,2.24 5,5 z"
         style="fill-rule:evenodd;stroke:#000000;stroke-width:1pt"
         transform="matrix(0.2,0,0,0.2,1.48,0.2)" />
    </marker>
    <marker
       inkscape:stockid="DotS"
       orient="auto"
       refY="0"
       refX="0"
       id="marker4516-8"
       style="overflow:visible">
      <path
         inkscape:connector-curvature="0"
         id="path4518-5"
         d="m -2.5,-1 c 0,2.76 -2.24,5 -5,5 -2.76,0 -5,-2.24 -5,-5 0,-2.76 2.24,-5 5,-5 2.76,0 5,2.24 5,5 z"
         style="fill-rule:evenodd;stroke:#000000;stroke-width:1pt"
         transform="matrix(0.2,0,0,0.2,1.48,0.2)" />
    </marker>
    <marker
       inkscape:stockid="DotS"
       orient="auto"
       refY="0"
       refX="0"
       id="marker5088"
       style="overflow:visible">
      <path
         inkscape:connector-curvature="0"
         id="path5090"
         d="m -2.5,-1 c 0,2.76 -2.24,5 -5,5 -2.76,0 -5,-2.24 -5,-5 0,-2.76 2.24,-5 5,-5 2.76,0 5,2.24 5,5 z"
         style="fill-rule:evenodd;stroke:#000000;stroke-width:1pt"
         transform="matrix(0.2,0,0,0.2,1.48,0.2)" />
    </marker>
    <marker
       inkscape:stockid="DotS"
       orient="auto"
       refY="0"
       refX="0"
       id="marker4516-9"
       style="overflow:visible">
      <path
         inkscape:connector-curvature="0"
         id="path4518-55"
         d="m -2.5,-1 c 0,2.76 -2.24,5 -5,5 -2.76,0 -5,-2.24 -5,-5 0,-2.76 2.24,-5 5,-5 2.76,0 5,2.24 5,5 z"
         style="fill-rule:evenodd;stroke:#000000;stroke-width:1pt"
         transform="matrix(0.2,0,0,0.2,1.48,0.2)" />
    </marker>
    <marker
       inkscape:stockid="DotS"
       orient="auto"
       refY="0"
       refX="0"
       id="marker5137"
       style="overflow:visible">
      <path
         inkscape:connector-curvature="0"
         id="path5139"
         d="m -2.5,-1 c 0,2.76 -2.24,5 -5,5 -2.76,0 -5,-2.24 -5,-5 0,-2.76 2.24,-5 5,-5 2.76,0 5,2.24 5,5 z"
         style="fill-rule:evenodd;stroke:#000000;stroke-width:1pt"
         transform="matrix(0.2,0,0,0.2,1.48,0.2)" />
    </marker>
    <marker
       inkscape:stockid="DotS"
       orient="auto"
       refY="0"
       refX="0"
       id="DotS-0"
       style="overflow:visible">
      <path
         inkscape:connector-curvature="0"
         id="path3828-4"
         d="m -2.5,-1 c 0,2.76 -2.24,5 -5,5 -2.76,0 -5,-2.24 -5,-5 0,-2.76 2.24,-5 5,-5 2.76,0 5,2.24 5,5 z"
         style="fill-rule:evenodd;stroke:#000000;stroke-width:1pt"
         transform="matrix(0.2,0,0,0.2,1.48,0.2)" />
    </marker>
    <marker
       inkscape:stockid="DotS"
       orient="auto"
       refY="0"
       refX="0"
       id="marker5169"
       style="overflow:visible">
      <path
         inkscape:connector-curvature="0"
         id="path5171"
         d="m -2.5,-1 c 0,2.76 -2.24,5 -5,5 -2.76,0 -5,-2.24 -5,-5 0,-2.76 2.24,-5 5,-5 2.76,0 5,2.24 5,5 z"
         style="fill-rule:evenodd;stroke:#000000;stroke-width:1pt"
         transform="matrix(0.2,0,0,0.2,1.48,0.2)" />
    </marker>
    <marker
       inkscape:stockid="DotS"
       orient="auto"
       refY="0"
       refX="0"
       id="DotS-8"
       style="overflow:visible">
      <path
         inkscape:connector-curvature="0"
         id="path3828-66"
         d="m -2.5,-1 c 0,2.76 -2.24,5 -5,5 -2.76,0 -5,-2.24 -5,-5 0,-2.76 2.24,-5 5,-5 2.76,0 5,2.24 5,5 z"
         style="fill-rule:evenodd;stroke:#000000;stroke-width:1pt"
         transform="matrix(0.2,0,0,0.2,1.48,0.2)" />
    </marker>
    <marker
       inkscape:stockid="DotS"
       orient="auto"
       refY="0"
       refX="0"
       id="marker5218"
       style="overflow:visible">
      <path
         inkscape:connector-curvature="0"
         id="path5220"
         d="m -2.5,-1 c 0,2.76 -2.24,5 -5,5 -2.76,0 -5,-2.24 -5,-5 0,-2.76 2.24,-5 5,-5 2.76,0 5,2.24 5,5 z"
         style="fill-rule:evenodd;stroke:#000000;stroke-width:1pt"
         transform="matrix(0.2,0,0,0.2,1.48,0.2)" />
    </marker>
    <marker
       inkscape:stockid="DotSv"
       orient="auto"
       refY="0"
       refX="0"
       id="DotSv"
       style="overflow:visible">
      <path
         id="path5753"
         d="m -2.5,-1 c 0,2.76 -2.24,5 -5,5 -2.76,0 -5,-2.24 -5,-5 0,-2.76 2.24,-5 5,-5 2.76,0 5,2.24 5,5 z"
         style="fill:#858585;fill-rule:evenodd;stroke:#858585;stroke-width:1pt"
         transform="matrix(0.2,0,0,0.2,1.48,0.2)"
         inkscape:connector-curvature="0" />
    </marker>
    <marker
       inkscape:stockid="DotSs"
       orient="auto"
       refY="0"
       refX="0"
       id="DotSs"
       style="overflow:visible">
      <path
         id="path5756"
         d="m -2.5,-1 c 0,2.76 -2.24,5 -5,5 -2.76,0 -5,-2.24 -5,-5 0,-2.76 2.24,-5 5,-5 2.76,0 5,2.24 5,5 z"
         style="fill:#858585;fill-rule:evenodd;stroke:#858585;stroke-width:1pt"
         transform="matrix(0.2,0,0,0.2,1.48,0.2)"
         inkscape:connector-curvature="0" />
    </marker>
    <marker
       inkscape:stockid="DotSk"
       orient="auto"
       refY="0"
       refX="0"
       id="DotSk"
       style="overflow:visible">
      <path
         id="path5759"
         d="m -2.5,-1 c 0,2.76 -2.24,5 -5,5 -2.76,0 -5,-2.24 -5,-5 0,-2.76 2.24,-5 5,-5 2.76,0 5,2.24 5,5 z"
         style="fill:#858585;fill-rule:evenodd;stroke:#858585;stroke-width:1pt"
         transform="matrix(0.2,0,0,0.2,1.48,0.2)"
         inkscape:connector-curvature="0" />
    </marker>
    <marker
       inkscape:stockid="DotSK"
       orient="auto"
       refY="0"
       refX="0"
       id="DotSK"
       style="overflow:visible">
      <path
         id="path5762"
         d="m -2.5,-1 c 0,2.76 -2.24,5 -5,5 -2.76,0 -5,-2.24 -5,-5 0,-2.76 2.24,-5 5,-5 2.76,0 5,2.24 5,5 z"
         style="fill:#858585;fill-rule:evenodd;stroke:#858585;stroke-width:1pt"
         transform="matrix(0.2,0,0,0.2,1.48,0.2)"
         inkscape:connector-curvature="0" />
    </marker>
    <marker
       inkscape:stockid="DotSQ"
       orient="auto"
       refY="0"
       refX="0"
       id="DotSQ"
       style="overflow:visible">
      <path
         id="path5765"
         d="m -2.5,-1 c 0,2.76 -2.24,5 -5,5 -2.76,0 -5,-2.24 -5,-5 0,-2.76 2.24,-5 5,-5 2.76,0 5,2.24 5,5 z"
         style="fill:#858585;fill-rule:evenodd;stroke:#858585;stroke-width:1pt"
         transform="matrix(0.2,0,0,0.2,1.48,0.2)"
         inkscape:connector-curvature="0" />
    </marker>
    <marker
       inkscape:stockid="DotSg"
       orient="auto"
       refY="0"
       refX="0"
       id="DotSg"
       style="overflow:visible">
      <path
         id="path5768"
         d="m -2.5,-1 c 0,2.76 -2.24,5 -5,5 -2.76,0 -5,-2.24 -5,-5 0,-2.76 2.24,-5 5,-5 2.76,0 5,2.24 5,5 z"
         style="fill:#858585;fill-rule:evenodd;stroke:#858585;stroke-width:1pt"
         transform="matrix(0.2,0,0,0.2,1.48,0.2)"
         inkscape:connector-curvature="0" />
    </marker>
    <marker
       inkscape:stockid="marker4516J"
       orient="auto"
       refY="0"
       refX="0"
       id="marker4516J"
       style="overflow:visible">
      <path
         inkscape:connector-curvature="0"
         id="path5771"
         d="m -2.5,-1 c 0,2.76 -2.24,5 -5,5 -2.76,0 -5,-2.24 -5,-5 0,-2.76 2.24,-5 5,-5 2.76,0 5,2.24 5,5 z"
         style="fill:#858585;fill-rule:evenodd;stroke:#858585;stroke-width:1pt"
         transform="matrix(0.2,0,0,0.2,1.48,0.2)" />
    </marker>
    <marker
       inkscape:stockid="marker4516P"
       orient="auto"
       refY="0"
       refX="0"
       id="marker4516P"
       style="overflow:visible">
      <path
         inkscape:connector-curvature="0"
         id="path5774"
         d="m -2.5,-1 c 0,2.76 -2.24,5 -5,5 -2.76,0 -5,-2.24 -5,-5 0,-2.76 2.24,-5 5,-5 2.76,0 5,2.24 5,5 z"
         style="fill:#858585;fill-rule:evenodd;stroke:#858585;stroke-width:1pt"
         transform="matrix(0.2,0,0,0.2,1.48,0.2)" />
    </marker>
    <marker
       inkscape:stockid="DotSC"
       orient="auto"
       refY="0"
       refX="0"
       id="DotSC"
       style="overflow:visible">
      <path
         id="path5777"
         d="m -2.5,-1 c 0,2.76 -2.24,5 -5,5 -2.76,0 -5,-2.24 -5,-5 0,-2.76 2.24,-5 5,-5 2.76,0 5,2.24 5,5 z"
         style="fill:#858585;fill-rule:evenodd;stroke:#858585;stroke-width:1pt"
         transform="matrix(0.2,0,0,0.2,1.48,0.2)"
         inkscape:connector-curvature="0" />
    </marker>
    <marker
       inkscape:stockid="DotSL"
       orient="auto"
       refY="0"
       refX="0"
       id="DotSL"
       style="overflow:visible">
      <path
         id="path5780"
         d="m -2.5,-1 c 0,2.76 -2.24,5 -5,5 -2.76,0 -5,-2.24 -5,-5 0,-2.76 2.24,-5 5,-5 2.76,0 5,2.24 5,5 z"
         style="fill:#858585;fill-rule:evenodd;stroke:#858585;stroke-width:1pt"
         transform="matrix(0.2,0,0,0.2,1.48,0.2)"
         inkscape:connector-curvature="0" />
    </marker>
    <marker
       inkscape:stockid="DotSf"
       orient="auto"
       refY="0"
       refX="0"
       id="DotSf"
       style="overflow:visible">
      <path
         id="path5783"
         d="m -2.5,-1 c 0,2.76 -2.24,5 -5,5 -2.76,0 -5,-2.24 -5,-5 0,-2.76 2.24,-5 5,-5 2.76,0 5,2.24 5,5 z"
         style="fill:#858585;fill-rule:evenodd;stroke:#858585;stroke-width:1pt"
         transform="matrix(0.2,0,0,0.2,1.48,0.2)"
         inkscape:connector-curvature="0" />
    </marker>
    <marker
       inkscape:stockid="DotS7"
       orient="auto"
       refY="0"
       refX="0"
       id="DotS7"
       style="overflow:visible">
      <path
         id="path5786"
         d="m -2.5,-1 c 0,2.76 -2.24,5 -5,5 -2.76,0 -5,-2.24 -5,-5 0,-2.76 2.24,-5 5,-5 2.76,0 5,2.24 5,5 z"
         style="fill:#858585;fill-rule:evenodd;stroke:#858585;stroke-width:1pt"
         transform="matrix(0.2,0,0,0.2,1.48,0.2)"
         inkscape:connector-curvature="0" />
    </marker>
    <marker
       inkscape:stockid="DotSS"
       orient="auto"
       refY="0"
       refX="0"
       id="DotSS"
       style="overflow:visible">
      <path
         id="path5789"
         d="m -2.5,-1 c 0,2.76 -2.24,5 -5,5 -2.76,0 -5,-2.24 -5,-5 0,-2.76 2.24,-5 5,-5 2.76,0 5,2.24 5,5 z"
         style="fill:#858585;fill-rule:evenodd;stroke:#858585;stroke-width:1pt"
         transform="matrix(0.2,0,0,0.2,1.48,0.2)"
         inkscape:connector-curvature="0" />
    </marker>
    <marker
       inkscape:stockid="DotSy"
       orient="auto"
       refY="0"
       refX="0"
       id="DotSy"
       style="overflow:visible">
      <path
         id="path5792"
         d="m -2.5,-1 c 0,2.76 -2.24,5 -5,5 -2.76,0 -5,-2.24 -5,-5 0,-2.76 2.24,-5 5,-5 2.76,0 5,2.24 5,5 z"
         style="fill:#858585;fill-rule:evenodd;stroke:#858585;stroke-width:1pt"
         transform="matrix(0.2,0,0,0.2,1.48,0.2)"
         inkscape:connector-curvature="0" />
    </marker>
    <marker
       inkscape:stockid="marker4516C"
       orient="auto"
       refY="0"
       refX="0"
       id="marker4516C"
       style="overflow:visible">
      <path
         inkscape:connector-curvature="0"
         id="path5795"
         d="m -2.5,-1 c 0,2.76 -2.24,5 -5,5 -2.76,0 -5,-2.24 -5,-5 0,-2.76 2.24,-5 5,-5 2.76,0 5,2.24 5,5 z"
         style="fill:#858585;fill-rule:evenodd;stroke:#858585;stroke-width:1pt"
         transform="matrix(0.2,0,0,0.2,1.48,0.2)" />
    </marker>
    <marker
       inkscape:stockid="marker45162"
       orient="auto"
       refY="0"
       refX="0"
       id="marker45162"
       style="overflow:visible">
      <path
         inkscape:connector-curvature="0"
         id="path5798"
         d="m -2.5,-1 c 0,2.76 -2.24,5 -5,5 -2.76,0 -5,-2.24 -5,-5 0,-2.76 2.24,-5 5,-5 2.76,0 5,2.24 5,5 z"
         style="fill:#858585;fill-rule:evenodd;stroke:#858585;stroke-width:1pt"
         transform="matrix(0.2,0,0,0.2,1.48,0.2)" />
    </marker>
    <marker
       inkscape:stockid="DotSG"
       orient="auto"
       refY="0"
       refX="0"
       id="DotSG"
       style="overflow:visible">
      <path
         id="path5801"
         d="m -2.5,-1 c 0,2.76 -2.24,5 -5,5 -2.76,0 -5,-2.24 -5,-5 0,-2.76 2.24,-5 5,-5 2.76,0 5,2.24 5,5 z"
         style="fill:#858585;fill-rule:evenodd;stroke:#858585;stroke-width:1pt"
         transform="matrix(0.2,0,0,0.2,1.48,0.2)"
         inkscape:connector-curvature="0" />
    </marker>
    <marker
       inkscape:stockid="DotS5"
       orient="auto"
       refY="0"
       refX="0"
       id="DotS5"
       style="overflow:visible">
      <path
         id="path5804"
         d="m -2.5,-1 c 0,2.76 -2.24,5 -5,5 -2.76,0 -5,-2.24 -5,-5 0,-2.76 2.24,-5 5,-5 2.76,0 5,2.24 5,5 z"
         style="fill:#858585;fill-rule:evenodd;stroke:#858585;stroke-width:1pt"
         transform="matrix(0.2,0,0,0.2,1.48,0.2)"
         inkscape:connector-curvature="0" />
    </marker>
    <marker
       inkscape:stockid="DotSsA"
       orient="auto"
       refY="0"
       refX="0"
       id="DotSsA"
       style="overflow:visible">
      <path
         id="path5807"
         d="m -2.5,-1 c 0,2.76 -2.24,5 -5,5 -2.76,0 -5,-2.24 -5,-5 0,-2.76 2.24,-5 5,-5 2.76,0 5,2.24 5,5 z"
         style="fill:#858585;fill-rule:evenodd;stroke:#858585;stroke-width:1pt"
         transform="matrix(0.2,0,0,0.2,1.48,0.2)"
         inkscape:connector-curvature="0" />
    </marker>
    <marker
       inkscape:stockid="DotSLd"
       orient="auto"
       refY="0"
       refX="0"
       id="DotSLd"
       style="overflow:visible">
      <path
         id="path5810"
         d="m -2.5,-1 c 0,2.76 -2.24,5 -5,5 -2.76,0 -5,-2.24 -5,-5 0,-2.76 2.24,-5 5,-5 2.76,0 5,2.24 5,5 z"
         style="fill:#858585;fill-rule:evenodd;stroke:#858585;stroke-width:1pt"
         transform="matrix(0.2,0,0,0.2,1.48,0.2)"
         inkscape:connector-curvature="0" />
    </marker>
    <marker
       inkscape:stockid="DotSd"
       orient="auto"
       refY="0"
       refX="0"
       id="DotSd"
       style="overflow:visible">
      <path
         id="path5813"
         d="m -2.5,-1 c 0,2.76 -2.24,5 -5,5 -2.76,0 -5,-2.24 -5,-5 0,-2.76 2.24,-5 5,-5 2.76,0 5,2.24 5,5 z"
         style="fill:#858585;fill-rule:evenodd;stroke:#858585;stroke-width:1pt"
         transform="matrix(0.2,0,0,0.2,1.48,0.2)"
         inkscape:connector-curvature="0" />
    </marker>
    <marker
       inkscape:stockid="DotSyI"
       orient="auto"
       refY="0"
       refX="0"
       id="DotSyI"
       style="overflow:visible">
      <path
         id="path5816"
         d="m -2.5,-1 c 0,2.76 -2.24,5 -5,5 -2.76,0 -5,-2.24 -5,-5 0,-2.76 2.24,-5 5,-5 2.76,0 5,2.24 5,5 z"
         style="fill:#858585;fill-rule:evenodd;stroke:#858585;stroke-width:1pt"
         transform="matrix(0.2,0,0,0.2,1.48,0.2)"
         inkscape:connector-curvature="0" />
    </marker>
    <marker
       inkscape:stockid="marker4516y"
       orient="auto"
       refY="0"
       refX="0"
       id="marker4516y"
       style="overflow:visible">
      <path
         inkscape:connector-curvature="0"
         id="path5819"
         d="m -2.5,-1 c 0,2.76 -2.24,5 -5,5 -2.76,0 -5,-2.24 -5,-5 0,-2.76 2.24,-5 5,-5 2.76,0 5,2.24 5,5 z"
         style="fill:#858585;fill-rule:evenodd;stroke:#858585;stroke-width:1pt"
         transform="matrix(0.2,0,0,0.2,1.48,0.2)" />
    </marker>
    <marker
       inkscape:stockid="marker4516I"
       orient="auto"
       refY="0"
       refX="0"
       id="marker4516I"
       style="overflow:visible">
      <path
         inkscape:connector-curvature="0"
         id="path5822"
         d="m -2.5,-1 c 0,2.76 -2.24,5 -5,5 -2.76,0 -5,-2.24 -5,-5 0,-2.76 2.24,-5 5,-5 2.76,0 5,2.24 5,5 z"
         style="fill:#858585;fill-rule:evenodd;stroke:#858585;stroke-width:1pt"
         transform="matrix(0.2,0,0,0.2,1.48,0.2)" />
    </marker>
    <marker
       inkscape:stockid="marker5218b"
       orient="auto"
       refY="0"
       refX="0"
       id="marker5218b"
       style="overflow:visible">
      <path
         inkscape:connector-curvature="0"
         id="path5825"
         d="m -2.5,-1 c 0,2.76 -2.24,5 -5,5 -2.76,0 -5,-2.24 -5,-5 0,-2.76 2.24,-5 5,-5 2.76,0 5,2.24 5,5 z"
         style="fill:#858585;fill-rule:evenodd;stroke:#858585;stroke-width:1pt"
         transform="matrix(0.2,0,0,0.2,1.48,0.2)" />
    </marker>
    <marker
       inkscape:stockid="marker5218X"
       orient="auto"
       refY="0"
       refX="0"
       id="marker5218X"
       style="overflow:visible">
      <path
         inkscape:connector-curvature="0"
         id="path5828"
         d="m -2.5,-1 c 0,2.76 -2.24,5 -5,5 -2.76,0 -5,-2.24 -5,-5 0,-2.76 2.24,-5 5,-5 2.76,0 5,2.24 5,5 z"
         style="fill:#858585;fill-rule:evenodd;stroke:#858585;stroke-width:1pt"
         transform="matrix(0.2,0,0,0.2,1.48,0.2)" />
    </marker>
    <marker
       inkscape:stockid="DotSQL"
       orient="auto"
       refY="0"
       refX="0"
       id="DotSQL"
       style="overflow:visible">
      <path
         id="path6109"
         d="m -2.5,-1 c 0,2.76 -2.24,5 -5,5 -2.76,0 -5,-2.24 -5,-5 0,-2.76 2.24,-5 5,-5 2.76,0 5,2.24 5,5 z"
         style="fill:#ffc400;fill-rule:evenodd;stroke:#ffc400;stroke-width:1pt"
         transform="matrix(0.2,0,0,0.2,1.48,0.2)"
         inkscape:connector-curvature="0" />
    </marker>
    <marker
       inkscape:stockid="DotSgb"
       orient="auto"
       refY="0"
       refX="0"
       id="DotSgb"
       style="overflow:visible">
      <path
         id="path6112"
         d="m -2.5,-1 c 0,2.76 -2.24,5 -5,5 -2.76,0 -5,-2.24 -5,-5 0,-2.76 2.24,-5 5,-5 2.76,0 5,2.24 5,5 z"
         style="fill:#ffc400;fill-rule:evenodd;stroke:#ffc400;stroke-width:1pt"
         transform="matrix(0.2,0,0,0.2,1.48,0.2)"
         inkscape:connector-curvature="0" />
    </marker>
    <marker
       inkscape:stockid="marker4516J6"
       orient="auto"
       refY="0"
       refX="0"
       id="marker4516J6"
       style="overflow:visible">
      <path
         inkscape:connector-curvature="0"
         id="path6115"
         d="m -2.5,-1 c 0,2.76 -2.24,5 -5,5 -2.76,0 -5,-2.24 -5,-5 0,-2.76 2.24,-5 5,-5 2.76,0 5,2.24 5,5 z"
         style="fill:#ffc400;fill-rule:evenodd;stroke:#ffc400;stroke-width:1pt"
         transform="matrix(0.2,0,0,0.2,1.48,0.2)" />
    </marker>
    <marker
       inkscape:stockid="marker4516Pl"
       orient="auto"
       refY="0"
       refX="0"
       id="marker4516Pl"
       style="overflow:visible">
      <path
         inkscape:connector-curvature="0"
         id="path6118"
         d="m -2.5,-1 c 0,2.76 -2.24,5 -5,5 -2.76,0 -5,-2.24 -5,-5 0,-2.76 2.24,-5 5,-5 2.76,0 5,2.24 5,5 z"
         style="fill:#ffc400;fill-rule:evenodd;stroke:#ffc400;stroke-width:1pt"
         transform="matrix(0.2,0,0,0.2,1.48,0.2)" />
    </marker>
    <marker
       inkscape:stockid="DotSSB"
       orient="auto"
       refY="0"
       refX="0"
       id="DotSSB"
       style="overflow:visible">
      <path
         id="path6121"
         d="m -2.5,-1 c 0,2.76 -2.24,5 -5,5 -2.76,0 -5,-2.24 -5,-5 0,-2.76 2.24,-5 5,-5 2.76,0 5,2.24 5,5 z"
         style="fill:#ffc400;fill-rule:evenodd;stroke:#ffc400;stroke-width:1pt"
         transform="matrix(0.2,0,0,0.2,1.48,0.2)"
         inkscape:connector-curvature="0" />
    </marker>
    <marker
       inkscape:stockid="DotSyD"
       orient="auto"
       refY="0"
       refX="0"
       id="DotSyD"
       style="overflow:visible">
      <path
         id="path6124"
         d="m -2.5,-1 c 0,2.76 -2.24,5 -5,5 -2.76,0 -5,-2.24 -5,-5 0,-2.76 2.24,-5 5,-5 2.76,0 5,2.24 5,5 z"
         style="fill:#ffc400;fill-rule:evenodd;stroke:#ffc400;stroke-width:1pt"
         transform="matrix(0.2,0,0,0.2,1.48,0.2)"
         inkscape:connector-curvature="0" />
    </marker>
    <marker
       inkscape:stockid="marker4516Ct"
       orient="auto"
       refY="0"
       refX="0"
       id="marker4516Ct"
       style="overflow:visible">
      <path
         inkscape:connector-curvature="0"
         id="path6127"
         d="m -2.5,-1 c 0,2.76 -2.24,5 -5,5 -2.76,0 -5,-2.24 -5,-5 0,-2.76 2.24,-5 5,-5 2.76,0 5,2.24 5,5 z"
         style="fill:#ffc400;fill-rule:evenodd;stroke:#ffc400;stroke-width:1pt"
         transform="matrix(0.2,0,0,0.2,1.48,0.2)" />
    </marker>
    <marker
       inkscape:stockid="marker451623"
       orient="auto"
       refY="0"
       refX="0"
       id="marker451623"
       style="overflow:visible">
      <path
         inkscape:connector-curvature="0"
         id="path6130"
         d="m -2.5,-1 c 0,2.76 -2.24,5 -5,5 -2.76,0 -5,-2.24 -5,-5 0,-2.76 2.24,-5 5,-5 2.76,0 5,2.24 5,5 z"
         style="fill:#ffc400;fill-rule:evenodd;stroke:#ffc400;stroke-width:1pt"
         transform="matrix(0.2,0,0,0.2,1.48,0.2)" />
    </marker>
    <marker
       inkscape:stockid="marker4516yb"
       orient="auto"
       refY="0"
       refX="0"
       id="marker4516yb"
       style="overflow:visible">
      <path
         inkscape:connector-curvature="0"
         id="path6133"
         d="m -2.5,-1 c 0,2.76 -2.24,5 -5,5 -2.76,0 -5,-2.24 -5,-5 0,-2.76 2.24,-5 5,-5 2.76,0 5,2.24 5,5 z"
         style="fill:#ffc400;fill-rule:evenodd;stroke:#ffc400;stroke-width:1pt"
         transform="matrix(0.2,0,0,0.2,1.48,0.2)" />
    </marker>
    <marker
       inkscape:stockid="marker4516IS"
       orient="auto"
       refY="0"
       refX="0"
       id="marker4516IS"
       style="overflow:visible">
      <path
         inkscape:connector-curvature="0"
         id="path6136"
         d="m -2.5,-1 c 0,2.76 -2.24,5 -5,5 -2.76,0 -5,-2.24 -5,-5 0,-2.76 2.24,-5 5,-5 2.76,0 5,2.24 5,5 z"
         style="fill:#ffc400;fill-rule:evenodd;stroke:#ffc400;stroke-width:1pt"
         transform="matrix(0.2,0,0,0.2,1.48,0.2)" />
    </marker>
    <marker
       inkscape:stockid="DotSsAi"
       orient="auto"
       refY="0"
       refX="0"
       id="DotSsAi"
       style="overflow:visible">
      <path
         id="path6139"
         d="m -2.5,-1 c 0,2.76 -2.24,5 -5,5 -2.76,0 -5,-2.24 -5,-5 0,-2.76 2.24,-5 5,-5 2.76,0 5,2.24 5,5 z"
         style="fill:#ffc400;fill-rule:evenodd;stroke:#ffc400;stroke-width:1pt"
         transform="matrix(0.2,0,0,0.2,1.48,0.2)"
         inkscape:connector-curvature="0" />
    </marker>
    <marker
       inkscape:stockid="DotSLdG"
       orient="auto"
       refY="0"
       refX="0"
       id="DotSLdG"
       style="overflow:visible">
      <path
         id="path6142"
         d="m -2.5,-1 c 0,2.76 -2.24,5 -5,5 -2.76,0 -5,-2.24 -5,-5 0,-2.76 2.24,-5 5,-5 2.76,0 5,2.24 5,5 z"
         style="fill:#ffc400;fill-rule:evenodd;stroke:#ffc400;stroke-width:1pt"
         transform="matrix(0.2,0,0,0.2,1.48,0.2)"
         inkscape:connector-curvature="0" />
    </marker>
    <marker
       inkscape:stockid="DotSd7"
       orient="auto"
       refY="0"
       refX="0"
       id="DotSd7"
       style="overflow:visible">
      <path
         id="path6145"
         d="m -2.5,-1 c 0,2.76 -2.24,5 -5,5 -2.76,0 -5,-2.24 -5,-5 0,-2.76 2.24,-5 5,-5 2.76,0 5,2.24 5,5 z"
         style="fill:#ffc400;fill-rule:evenodd;stroke:#ffc400;stroke-width:1pt"
         transform="matrix(0.2,0,0,0.2,1.48,0.2)"
         inkscape:connector-curvature="0" />
    </marker>
    <marker
       inkscape:stockid="DotSyIp"
       orient="auto"
       refY="0"
       refX="0"
       id="DotSyIp"
       style="overflow:visible">
      <path
         id="path6148"
         d="m -2.5,-1 c 0,2.76 -2.24,5 -5,5 -2.76,0 -5,-2.24 -5,-5 0,-2.76 2.24,-5 5,-5 2.76,0 5,2.24 5,5 z"
         style="fill:#ffc400;fill-rule:evenodd;stroke:#ffc400;stroke-width:1pt"
         transform="matrix(0.2,0,0,0.2,1.48,0.2)"
         inkscape:connector-curvature="0" />
    </marker>
    <marker
       inkscape:stockid="DotSvS"
       orient="auto"
       refY="0"
       refX="0"
       id="DotSvS"
       style="overflow:visible">
      <path
         id="path6151"
         d="m -2.5,-1 c 0,2.76 -2.24,5 -5,5 -2.76,0 -5,-2.24 -5,-5 0,-2.76 2.24,-5 5,-5 2.76,0 5,2.24 5,5 z"
         style="fill:#ffc400;fill-rule:evenodd;stroke:#ffc400;stroke-width:1pt"
         transform="matrix(0.2,0,0,0.2,1.48,0.2)"
         inkscape:connector-curvature="0" />
    </marker>
    <marker
       inkscape:stockid="DotSsJ"
       orient="auto"
       refY="0"
       refX="0"
       id="DotSsJ"
       style="overflow:visible">
      <path
         id="path6154"
         d="m -2.5,-1 c 0,2.76 -2.24,5 -5,5 -2.76,0 -5,-2.24 -5,-5 0,-2.76 2.24,-5 5,-5 2.76,0 5,2.24 5,5 z"
         style="fill:#ffc400;fill-rule:evenodd;stroke:#ffc400;stroke-width:1pt"
         transform="matrix(0.2,0,0,0.2,1.48,0.2)"
         inkscape:connector-curvature="0" />
    </marker>
    <marker
       inkscape:stockid="DotSfb"
       orient="auto"
       refY="0"
       refX="0"
       id="DotSfb"
       style="overflow:visible">
      <path
         id="path6157"
         d="m -2.5,-1 c 0,2.76 -2.24,5 -5,5 -2.76,0 -5,-2.24 -5,-5 0,-2.76 2.24,-5 5,-5 2.76,0 5,2.24 5,5 z"
         style="fill:#ffc400;fill-rule:evenodd;stroke:#ffc400;stroke-width:1pt"
         transform="matrix(0.2,0,0,0.2,1.48,0.2)"
         inkscape:connector-curvature="0" />
    </marker>
    <marker
       inkscape:stockid="DotS7T"
       orient="auto"
       refY="0"
       refX="0"
       id="DotS7T"
       style="overflow:visible">
      <path
         id="path6160"
         d="m -2.5,-1 c 0,2.76 -2.24,5 -5,5 -2.76,0 -5,-2.24 -5,-5 0,-2.76 2.24,-5 5,-5 2.76,0 5,2.24 5,5 z"
         style="fill:#ffc400;fill-rule:evenodd;stroke:#ffc400;stroke-width:1pt"
         transform="matrix(0.2,0,0,0.2,1.48,0.2)"
         inkscape:connector-curvature="0" />
    </marker>
    <marker
       inkscape:stockid="DotSko"
       orient="auto"
       refY="0"
       refX="0"
       id="DotSko"
       style="overflow:visible">
      <path
         id="path6163"
         d="m -2.5,-1 c 0,2.76 -2.24,5 -5,5 -2.76,0 -5,-2.24 -5,-5 0,-2.76 2.24,-5 5,-5 2.76,0 5,2.24 5,5 z"
         style="fill:#ffc400;fill-rule:evenodd;stroke:#ffc400;stroke-width:1pt"
         transform="matrix(0.2,0,0,0.2,1.48,0.2)"
         inkscape:connector-curvature="0" />
    </marker>
    <marker
       inkscape:stockid="DotSKZ"
       orient="auto"
       refY="0"
       refX="0"
       id="DotSKZ"
       style="overflow:visible">
      <path
         id="path6166"
         d="m -2.5,-1 c 0,2.76 -2.24,5 -5,5 -2.76,0 -5,-2.24 -5,-5 0,-2.76 2.24,-5 5,-5 2.76,0 5,2.24 5,5 z"
         style="fill:#ffc400;fill-rule:evenodd;stroke:#ffc400;stroke-width:1pt"
         transform="matrix(0.2,0,0,0.2,1.48,0.2)"
         inkscape:connector-curvature="0" />
    </marker>
    <marker
       inkscape:stockid="DotSCa"
       orient="auto"
       refY="0"
       refX="0"
       id="DotSCa"
       style="overflow:visible">
      <path
         id="path6169"
         d="m -2.5,-1 c 0,2.76 -2.24,5 -5,5 -2.76,0 -5,-2.24 -5,-5 0,-2.76 2.24,-5 5,-5 2.76,0 5,2.24 5,5 z"
         style="fill:#ffc400;fill-rule:evenodd;stroke:#ffc400;stroke-width:1pt"
         transform="matrix(0.2,0,0,0.2,1.48,0.2)"
         inkscape:connector-curvature="0" />
    </marker>
    <marker
       inkscape:stockid="DotSLi"
       orient="auto"
       refY="0"
       refX="0"
       id="DotSLi"
       style="overflow:visible">
      <path
         id="path6172"
         d="m -2.5,-1 c 0,2.76 -2.24,5 -5,5 -2.76,0 -5,-2.24 -5,-5 0,-2.76 2.24,-5 5,-5 2.76,0 5,2.24 5,5 z"
         style="fill:#ffc400;fill-rule:evenodd;stroke:#ffc400;stroke-width:1pt"
         transform="matrix(0.2,0,0,0.2,1.48,0.2)"
         inkscape:connector-curvature="0" />
    </marker>
    <marker
       inkscape:stockid="marker5218bQ"
       orient="auto"
       refY="0"
       refX="0"
       id="marker5218bQ"
       style="overflow:visible">
      <path
         inkscape:connector-curvature="0"
         id="path6175"
         d="m -2.5,-1 c 0,2.76 -2.24,5 -5,5 -2.76,0 -5,-2.24 -5,-5 0,-2.76 2.24,-5 5,-5 2.76,0 5,2.24 5,5 z"
         style="fill:#ffc400;fill-rule:evenodd;stroke:#ffc400;stroke-width:1pt"
         transform="matrix(0.2,0,0,0.2,1.48,0.2)" />
    </marker>
    <marker
       inkscape:stockid="marker5218XM"
       orient="auto"
       refY="0"
       refX="0"
       id="marker5218XM"
       style="overflow:visible">
      <path
         inkscape:connector-curvature="0"
         id="path6178"
         d="m -2.5,-1 c 0,2.76 -2.24,5 -5,5 -2.76,0 -5,-2.24 -5,-5 0,-2.76 2.24,-5 5,-5 2.76,0 5,2.24 5,5 z"
         style="fill:#ffc400;fill-rule:evenodd;stroke:#ffc400;stroke-width:1pt"
         transform="matrix(0.2,0,0,0.2,1.48,0.2)" />
    </marker>
    <marker
       inkscape:stockid="DotSGn"
       orient="auto"
       refY="0"
       refX="0"
       id="DotSGn"
       style="overflow:visible">
      <path
         id="path6181"
         d="m -2.5,-1 c 0,2.76 -2.24,5 -5,5 -2.76,0 -5,-2.24 -5,-5 0,-2.76 2.24,-5 5,-5 2.76,0 5,2.24 5,5 z"
         style="fill:#ffc400;fill-rule:evenodd;stroke:#ffc400;stroke-width:1pt"
         transform="matrix(0.2,0,0,0.2,1.48,0.2)"
         inkscape:connector-curvature="0" />
    </marker>
    <marker
       inkscape:stockid="DotS5R"
       orient="auto"
       refY="0"
       refX="0"
       id="DotS5R"
       style="overflow:visible">
      <path
         id="path6184"
         d="m -2.5,-1 c 0,2.76 -2.24,5 -5,5 -2.76,0 -5,-2.24 -5,-5 0,-2.76 2.24,-5 5,-5 2.76,0 5,2.24 5,5 z"
         style="fill:#ffc400;fill-rule:evenodd;stroke:#ffc400;stroke-width:1pt"
         transform="matrix(0.2,0,0,0.2,1.48,0.2)"
         inkscape:connector-curvature="0" />
    </marker>
    <marker
       inkscape:stockid="DotSd7"
       orient="auto"
       refY="0"
       refX="0"
       id="DotSd7-9"
       style="overflow:visible">
      <path
         inkscape:connector-curvature="0"
         id="path6145-2"
         d="m -2.5,-1 c 0,2.76 -2.24,5 -5,5 -2.76,0 -5,-2.24 -5,-5 0,-2.76 2.24,-5 5,-5 2.76,0 5,2.24 5,5 z"
         style="fill:#ffc400;fill-rule:evenodd;stroke:#ffc400;stroke-width:1pt"
         transform="matrix(0.2,0,0,0.2,1.48,0.2)" />
    </marker>
    <marker
       inkscape:stockid="DotSyIp"
       orient="auto"
       refY="0"
       refX="0"
       id="DotSyIp-9"
       style="overflow:visible">
      <path
         inkscape:connector-curvature="0"
         id="path6148-2"
         d="m -2.5,-1 c 0,2.76 -2.24,5 -5,5 -2.76,0 -5,-2.24 -5,-5 0,-2.76 2.24,-5 5,-5 2.76,0 5,2.24 5,5 z"
         style="fill:#ffc400;fill-rule:evenodd;stroke:#ffc400;stroke-width:1pt"
         transform="matrix(0.2,0,0,0.2,1.48,0.2)" />
    </marker>
    <marker
       inkscape:stockid="DotSGn"
       orient="auto"
       refY="0"
       refX="0"
       id="DotSGn-0"
       style="overflow:visible">
      <path
         inkscape:connector-curvature="0"
         id="path6181-6"
         d="m -2.5,-1 c 0,2.76 -2.24,5 -5,5 -2.76,0 -5,-2.24 -5,-5 0,-2.76 2.24,-5 5,-5 2.76,0 5,2.24 5,5 z"
         style="fill:#ffc400;fill-rule:evenodd;stroke:#ffc400;stroke-width:1pt"
         transform="matrix(0.2,0,0,0.2,1.48,0.2)" />
    </marker>
    <marker
       inkscape:stockid="DotS5R"
       orient="auto"
       refY="0"
       refX="0"
       id="DotS5R-3"
       style="overflow:visible">
      <path
         inkscape:connector-curvature="0"
         id="path6184-9"
         d="m -2.5,-1 c 0,2.76 -2.24,5 -5,5 -2.76,0 -5,-2.24 -5,-5 0,-2.76 2.24,-5 5,-5 2.76,0 5,2.24 5,5 z"
         style="fill:#ffc400;fill-rule:evenodd;stroke:#ffc400;stroke-width:1pt"
         transform="matrix(0.2,0,0,0.2,1.48,0.2)" />
    </marker>
    <marker
       inkscape:stockid="marker5218bQ"
       orient="auto"
       refY="0"
       refX="0"
       id="marker5218bQ-7"
       style="overflow:visible">
      <path
         inkscape:connector-curvature="0"
         id="path6175-9"
         d="m -2.5,-1 c 0,2.76 -2.24,5 -5,5 -2.76,0 -5,-2.24 -5,-5 0,-2.76 2.24,-5 5,-5 2.76,0 5,2.24 5,5 z"
         style="fill:#ffc400;fill-rule:evenodd;stroke:#ffc400;stroke-width:1pt"
         transform="matrix(0.2,0,0,0.2,1.48,0.2)" />
    </marker>
    <marker
       inkscape:stockid="marker5218XM"
       orient="auto"
       refY="0"
       refX="0"
       id="marker5218XM-8"
       style="overflow:visible">
      <path
         inkscape:connector-curvature="0"
         id="path6178-2"
         d="m -2.5,-1 c 0,2.76 -2.24,5 -5,5 -2.76,0 -5,-2.24 -5,-5 0,-2.76 2.24,-5 5,-5 2.76,0 5,2.24 5,5 z"
         style="fill:#ffc400;fill-rule:evenodd;stroke:#ffc400;stroke-width:1pt"
         transform="matrix(0.2,0,0,0.2,1.48,0.2)" />
    </marker>
    <marker
       inkscape:stockid="marker5218bQ"
       orient="auto"
       refY="0"
       refX="0"
       id="marker5218bQ-9"
       style="overflow:visible">
      <path
         inkscape:connector-curvature="0"
         id="path6175-95"
         d="m -2.5,-1 c 0,2.76 -2.24,5 -5,5 -2.76,0 -5,-2.24 -5,-5 0,-2.76 2.24,-5 5,-5 2.76,0 5,2.24 5,5 z"
         style="fill:#ffc400;fill-rule:evenodd;stroke:#ffc400;stroke-width:1pt"
         transform="matrix(0.2,0,0,0.2,1.48,0.2)" />
    </marker>
    <marker
       inkscape:stockid="marker5218XM"
       orient="auto"
       refY="0"
       refX="0"
       id="marker5218XM-4"
       style="overflow:visible">
      <path
         inkscape:connector-curvature="0"
         id="path6178-29"
         d="m -2.5,-1 c 0,2.76 -2.24,5 -5,5 -2.76,0 -5,-2.24 -5,-5 0,-2.76 2.24,-5 5,-5 2.76,0 5,2.24 5,5 z"
         style="fill:#ffc400;fill-rule:evenodd;stroke:#ffc400;stroke-width:1pt"
         transform="matrix(0.2,0,0,0.2,1.48,0.2)" />
    </marker>
    <marker
       inkscape:stockid="DotSGn"
       orient="auto"
       refY="0"
       refX="0"
       id="DotSGn-08"
       style="overflow:visible">
      <path
         inkscape:connector-curvature="0"
         id="path6181-5"
         d="m -2.5,-1 c 0,2.76 -2.24,5 -5,5 -2.76,0 -5,-2.24 -5,-5 0,-2.76 2.24,-5 5,-5 2.76,0 5,2.24 5,5 z"
         style="fill:#ffc400;fill-rule:evenodd;stroke:#ffc400;stroke-width:1pt"
         transform="matrix(0.2,0,0,0.2,1.48,0.2)" />
    </marker>
    <marker
       inkscape:stockid="DotS5R"
       orient="auto"
       refY="0"
       refX="0"
       id="DotS5R-8"
       style="overflow:visible">
      <path
         inkscape:connector-curvature="0"
         id="path6184-1"
         d="m -2.5,-1 c 0,2.76 -2.24,5 -5,5 -2.76,0 -5,-2.24 -5,-5 0,-2.76 2.24,-5 5,-5 2.76,0 5,2.24 5,5 z"
         style="fill:#ffc400;fill-rule:evenodd;stroke:#ffc400;stroke-width:1pt"
         transform="matrix(0.2,0,0,0.2,1.48,0.2)" />
    </marker>
    <marker
       inkscape:stockid="marker4516Ct"
       orient="auto"
       refY="0"
       refX="0"
       id="marker4516Ct-0"
       style="overflow:visible">
      <path
         inkscape:connector-curvature="0"
         id="path6127-3"
         d="m -2.5,-1 c 0,2.76 -2.24,5 -5,5 -2.76,0 -5,-2.24 -5,-5 0,-2.76 2.24,-5 5,-5 2.76,0 5,2.24 5,5 z"
         style="fill:#ffc400;fill-rule:evenodd;stroke:#ffc400;stroke-width:1pt"
         transform="matrix(0.2,0,0,0.2,1.48,0.2)" />
    </marker>
    <marker
       inkscape:stockid="marker451623"
       orient="auto"
       refY="0"
       refX="0"
       id="marker451623-8"
       style="overflow:visible">
      <path
         inkscape:connector-curvature="0"
         id="path6130-8"
         d="m -2.5,-1 c 0,2.76 -2.24,5 -5,5 -2.76,0 -5,-2.24 -5,-5 0,-2.76 2.24,-5 5,-5 2.76,0 5,2.24 5,5 z"
         style="fill:#ffc400;fill-rule:evenodd;stroke:#ffc400;stroke-width:1pt"
         transform="matrix(0.2,0,0,0.2,1.48,0.2)" />
    </marker>
    <marker
       inkscape:stockid="marker5218bQ"
       orient="auto"
       refY="0"
       refX="0"
       id="marker5218bQ-0"
       style="overflow:visible">
      <path
         inkscape:connector-curvature="0"
         id="path6175-8"
         d="m -2.5,-1 c 0,2.76 -2.24,5 -5,5 -2.76,0 -5,-2.24 -5,-5 0,-2.76 2.24,-5 5,-5 2.76,0 5,2.24 5,5 z"
         style="fill:#ffc400;fill-rule:evenodd;stroke:#ffc400;stroke-width:1pt"
         transform="matrix(0.2,0,0,0.2,1.48,0.2)" />
    </marker>
    <marker
       inkscape:stockid="marker5218XM"
       orient="auto"
       refY="0"
       refX="0"
       id="marker5218XM-86"
       style="overflow:visible">
      <path
         inkscape:connector-curvature="0"
         id="path6178-7"
         d="m -2.5,-1 c 0,2.76 -2.24,5 -5,5 -2.76,0 -5,-2.24 -5,-5 0,-2.76 2.24,-5 5,-5 2.76,0 5,2.24 5,5 z"
         style="fill:#ffc400;fill-rule:evenodd;stroke:#ffc400;stroke-width:1pt"
         transform="matrix(0.2,0,0,0.2,1.48,0.2)" />
    </marker>
    <circle
       transform="matrix(0.8755829,0,0,0.8755829,152.4506,-680.83707)"
       id="path6572"
       style="fill:none;stroke:none"
       cx="675.71429"
       cy="777.58148"
       r="584.28571" />
    <circle
       transform="matrix(-1.1162727,-0.04357729,-0.04357729,1.1162727,1532.2608,-838.54723)"
       id="path6572-9"
       style="fill:none;stroke:none"
       cx="675.71429"
       cy="777.58148"
       r="584.28571" />
  </defs>
  <metadata
     id="metadata7">
    <rdf:RDF>
      <cc:Work
         rdf:about="">
        <dc:format>image/svg+xml</dc:format>
        <dc:type
           rdf:resource="http://purl.org/dc/dcmitype/StillImage" />
        <dc:title />
      </cc:Work>
    </rdf:RDF>
  </metadata>
  <g
     inkscape:label="Ebene 1"
     inkscape:groupmode="layer"
     id="layer1"
     transform="translate(0,-783.07098)">
    <path
       id="path5802-1-3-0"
       style="fill:#000000;fill-opacity:1;stroke:none;stroke-width:0.582589;stroke-miterlimit:4;stroke-dasharray:none;stroke-opacity:1"
       d="M 94.347656 0 C 46.462157 0.0125 5.4170014 36.312053 0.48828125 84.970703 C -4.769039 136.8733 33.062274 183.23099 84.964844 188.48828 C 136.86746 193.74565 183.23292 155.91438 188.49023 104.01172 C 193.74757 52.109099 155.91038 5.7495075 104.00781 0.4921875 C 100.76483 0.1636975 97.540996 -0.00083 94.347656 0 z M 100.71289 7.2988281 L 104.20117 7.8105469 C 104.43113 7.8443269 104.55789 7.93303 104.61719 8.09375 L 106.03125 12.390625 C 106.13991 12.779695 106.47747 14.047206 106.57617 14.503906 L 106.6582 14.515625 C 106.74757 13.437085 107.19767 12.728591 108.28711 11.050781 L 109.86523 8.8652344 C 109.97024 8.7144044 110.14071 8.6831375 110.33008 8.7109375 L 113.99609 9.25 C 114.14489 9.27186 114.21904 9.4210869 114.20312 9.5292969 C 114.19313 9.5969369 114.16794 9.6762437 114.14844 9.7148438 L 108.3125 17.369141 C 108.26196 17.430811 108.21117 17.493191 108.19727 17.587891 C 108.18327 17.682571 108.22733 17.758556 108.26953 17.847656 L 111.53516 26.369141 C 111.57696 26.458251 111.58617 26.500759 111.57617 26.568359 C 111.55431 26.717209 111.39445 26.762175 111.20508 26.734375 L 107.66211 26.214844 C 107.36453 26.171124 107.24666 26.029425 107.19336 25.828125 L 105.83789 21.511719 C 105.72923 21.122649 105.40534 20.038731 105.30664 19.582031 L 105.22461 19.568359 C 105.11133 20.339379 104.47432 21.573276 103.55469 22.847656 L 101.97266 25.060547 C 101.85015 25.235967 101.68236 25.336669 101.38477 25.292969 L 97.894531 24.779297 C 97.678106 24.747497 97.593374 24.666368 97.615234 24.517578 C 97.625174 24.449948 97.664324 24.372247 97.714844 24.310547 L 103.61719 16.583984 C 103.68519 16.497254 103.7107 16.417209 103.7207 16.349609 C 103.7346 16.254919 103.7182 16.182975 103.6875 16.109375 L 100.44922 7.6738281 C 100.42842 7.6292681 100.4256 7.5597156 100.4375 7.4785156 C 100.4534 7.3702656 100.57762 7.2789281 100.71289 7.2988281 z M 82.816406 8.0175781 C 85.759962 7.9426604 87.361759 9.4579495 87.792969 12.126953 L 89.107422 20.265625 C 89.580608 23.194445 88.032474 25.43813 84.361328 26.03125 L 82.431641 26.34375 C 78.625526 26.95867 76.602186 25.415524 76.109375 22.365234 L 74.794922 14.226562 C 74.323917 11.311243 75.869869 9.0540575 79.541016 8.4609375 L 81.472656 8.1484375 C 81.94842 8.0715713 82.395898 8.0282807 82.816406 8.0175781 z M 121.41016 11.347656 C 121.47096 11.349618 121.5351 11.363513 121.60156 11.390625 L 124.28516 12.486328 C 124.55097 12.594778 124.64948 12.825957 124.54102 13.091797 L 122.2832 18.623047 C 122.17475 18.888887 122.27322 19.122009 122.53906 19.230469 L 127.16016 21.115234 C 127.42599 21.223684 127.65717 21.125215 127.76562 20.859375 L 130.02148 15.328125 C 130.12993 15.062315 130.36307 14.965759 130.62891 15.074219 L 133.3125 16.167969 C 133.57831 16.276429 133.67487 16.507597 133.56641 16.773438 L 127.23047 32.306641 C 127.12202 32.572451 126.89083 32.67096 126.625 32.5625 L 123.93945 31.466797 C 123.67364 31.358347 123.57709 31.127168 123.68555 30.861328 L 126.09766 24.949219 C 126.20611 24.683389 126.10764 24.4522 125.8418 24.34375 L 121.22266 22.457031 C 120.95683 22.348581 120.72368 22.447061 120.61523 22.712891 L 118.20508 28.625 C 118.09663 28.89082 117.86349 28.987356 117.59766 28.878906 L 114.91406 27.785156 C 114.64824 27.676706 114.55171 27.443574 114.66016 27.177734 L 120.99609 11.646484 C 121.07743 11.447119 121.22776 11.341772 121.41016 11.347656 z M 82.416016 11.564453 C 82.291415 11.560862 82.160625 11.56831 82.027344 11.589844 L 80.097656 11.902344 C 79.017907 12.076794 78.479263 13.022714 78.640625 14.021484 L 79.824219 21.349609 C 79.996485 22.415859 80.808748 23.074614 81.875 22.902344 L 83.804688 22.589844 C 84.884435 22.415394 85.427215 21.482963 85.263672 20.470703 L 84.080078 13.142578 C 83.929346 12.209609 83.288219 11.58959 82.416016 11.564453 z M 66.949219 11.753906 C 67.131628 11.74828 67.282228 11.853242 67.363281 12.052734 L 68.326172 14.421875 C 68.434242 14.687865 68.336308 14.919264 68.070312 15.027344 L 65.232422 16.179688 C 64.966427 16.287757 64.868493 16.519156 64.976562 16.785156 L 69.927734 28.970703 C 70.035805 29.236693 69.937869 29.468102 69.671875 29.576172 L 66.986328 30.666016 C 66.720334 30.774086 66.48893 30.678109 66.380859 30.412109 L 61.429688 18.226562 C 61.321616 17.960573 61.090212 17.862633 60.824219 17.970703 L 57.986328 19.123047 C 57.720335 19.231117 57.48893 19.133177 57.380859 18.867188 L 56.419922 16.5 C 56.311852 16.23401 56.409788 16.000658 56.675781 15.892578 L 66.757812 11.796875 C 66.824311 11.769858 66.888416 11.755782 66.949219 11.753906 z M 44.980469 22.808594 C 45.093351 22.821277 45.201479 22.883884 45.291016 22.996094 L 46.884766 24.994141 C 47.063836 25.218561 47.036919 25.469358 46.8125 25.648438 L 41.447266 29.929688 C 41.222842 30.108767 41.195926 30.357611 41.375 30.582031 L 42.96875 32.580078 C 43.147824 32.804478 43.396674 32.833367 43.621094 32.654297 L 48.025391 29.140625 C 48.249811 28.961535 48.49866 28.990424 48.677734 29.214844 L 50.273438 31.212891 C 50.452507 31.437311 50.423639 31.686164 50.199219 31.865234 L 45.796875 35.378906 C 45.572451 35.557976 45.543581 35.808783 45.722656 36.033203 L 47.402344 38.136719 C 47.581419 38.361119 47.832222 38.390008 48.056641 38.210938 L 53.421875 33.929688 C 53.646295 33.750597 53.895145 33.779486 54.074219 34.003906 L 55.667969 36.001953 C 55.847049 36.226373 55.820122 36.475227 55.595703 36.654297 L 47.238281 43.324219 C 47.013862 43.503309 46.765011 43.47442 46.585938 43.25 L 36.207031 30.244141 C 36.027961 30.019721 36.056831 29.770877 36.28125 29.591797 L 44.638672 22.923828 C 44.750882 22.834283 44.867586 22.79591 44.980469 22.808594 z M 144.20312 22.921875 C 144.29343 22.928941 144.38618 22.964591 144.46875 23.025391 L 147.80273 25.482422 C 147.96787 25.604032 148.05583 25.786106 147.98633 25.972656 L 141.9082 42.6875 C 141.8815 42.76981 141.8661 42.791219 141.8418 42.824219 C 141.76073 42.934329 141.6417 42.93411 141.47656 42.8125 L 138.74609 40.800781 C 138.62501 40.711601 138.58862 40.601207 138.63672 40.466797 L 139.55469 38.136719 C 139.60274 38.002309 139.56358 37.939969 139.39844 37.818359 L 135.16016 34.697266 C 134.98401 34.567566 134.92464 34.556778 134.81055 34.642578 L 132.85742 36.208984 C 132.74332 36.294784 132.62572 36.293991 132.51562 36.212891 L 129.79688 34.210938 C 129.63178 34.089337 129.58492 33.969455 129.66602 33.859375 C 129.70655 33.804325 129.80068 33.720441 129.86328 33.681641 C 129.89861 33.656721 143.94531 22.998047 143.94531 22.998047 C 144.02408 22.937182 144.11282 22.914809 144.20312 22.921875 z M 143.16016 27.869141 L 142.77148 28.28125 L 137.99219 32.095703 C 137.85374 32.214493 137.84481 32.342361 138.04297 32.488281 L 140.62891 34.394531 C 140.82708 34.540501 140.95885 34.501424 141.03125 34.333984 L 143.26758 28.644531 L 143.54492 28.152344 L 143.16016 27.869141 z M 94.490234 31.839844 C 121.13915 31.839674 144.86389 48.690103 153.64258 73.851562 L 154.04297 75 L 165.86133 68.046875 L 168.52148 72.371094 L 157.01758 90.615234 L 157.03711 90.933594 C 157.10481 92.117234 157.13823 93.302691 157.13867 94.488281 C 157.13881 129.10062 129.1026 157.13686 94.490234 157.13672 C 84.055713 157.13631 73.784759 154.53089 64.613281 149.55469 L 63.134766 148.75195 L 63.164062 158.42969 L 45.972656 158.43555 L 45.791016 137.27734 L 32.962891 122.04297 L 36.322266 117.76562 L 36.113281 117.23438 C 33.288207 109.98385 31.839798 102.26972 31.839844 94.488281 C 31.840519 59.876441 59.878435 31.839704 94.490234 31.839844 z M 156.27344 33.152344 C 156.387 33.15511 156.49865 33.208545 156.59766 33.3125 L 158.59766 35.412109 C 158.7957 35.620029 158.78994 35.870349 158.58203 36.068359 L 146.43359 47.636719 C 146.22568 47.834669 145.97339 47.829014 145.77539 47.621094 L 143.77734 45.523438 C 143.58055 45.315778 143.58549 45.062826 143.79297 44.865234 L 155.94141 33.296875 C 156.04536 33.197855 156.15988 33.149578 156.27344 33.152344 z M 29.349609 36.1875 C 29.461979 36.170876 29.581994 36.203503 29.697266 36.289062 L 43.166016 46.289062 C 43.396557 46.460183 43.43479 46.708913 43.263672 46.939453 L 41.576172 49.210938 C 41.405054 49.441466 41.156324 49.477761 40.925781 49.306641 L 37.181641 46.529297 C 35.172617 45.038117 33.079745 43.040772 32.958984 42.951172 L 32.894531 43.039062 C 32.949422 43.079804 34.231026 44.747284 34.785156 45.652344 L 37.5625 50.419922 C 37.653501 50.572592 37.621891 50.754503 37.507812 50.908203 L 36.220703 52.642578 C 36.074031 52.840198 35.910022 52.922094 35.726562 52.871094 L 30.363281 51.496094 C 29.33654 51.227774 27.307856 50.470891 27.228516 50.462891 L 27.189453 50.519531 C 27.310214 50.609171 29.854795 52.020487 31.929688 53.560547 L 35.695312 56.355469 C 35.925852 56.526589 35.962134 56.775309 35.791016 57.005859 L 34.072266 59.322266 C 33.901148 59.552806 33.652418 59.589089 33.421875 59.417969 L 19.951172 49.419922 C 19.720631 49.248802 19.684351 49.000071 19.855469 48.769531 L 21.705078 46.277344 C 21.827305 46.112694 21.992794 46.049284 22.154297 46.083984 L 31.513672 48.246094 C 32.042096 48.382914 32.554212 48.610653 32.576172 48.626953 L 32.658203 48.517578 C 32.636247 48.501288 32.253659 48.029135 31.986328 47.609375 L 27.150391 39.353516 C 27.06222 39.219966 27.082851 39.031858 27.205078 38.867188 L 29.046875 36.386719 C 29.132434 36.271454 29.23724 36.204124 29.349609 36.1875 z M 163.96484 41.648438 C 164.07598 41.671936 164.1756 41.744924 164.25391 41.865234 L 165.7168 44.111328 C 165.8138 44.260288 165.82988 44.412958 165.77148 44.548828 L 160.81836 54.28125 C 160.53903 54.85458 160.0996 55.581819 159.98047 55.724609 L 160.03906 55.816406 C 160.97497 54.848306 162.6935 53.452185 163.98828 52.609375 L 168.69727 49.544922 C 168.93789 49.388292 169.18517 49.439067 169.3418 49.679688 L 170.92188 52.109375 C 171.0785 52.349995 171.02773 52.595323 170.78711 52.751953 L 156.72656 61.904297 C 156.48594 62.060917 156.24061 62.008208 156.08398 61.767578 L 154.63672 59.544922 C 154.53982 59.395962 154.5179 59.263201 154.5957 59.082031 L 159.21484 49.486328 C 159.52854 48.890618 159.86436 48.377456 159.91016 48.347656 L 159.84961 48.255859 C 159.31582 48.864319 157.8272 50.062002 156.32617 51.039062 L 151.64062 54.089844 C 151.4 54.246464 151.15272 54.193755 150.99609 53.953125 L 149.41602 51.525391 C 149.25939 51.284761 149.31211 51.037489 149.55273 50.880859 L 163.61133 41.730469 C 163.73164 41.652154 163.85371 41.624938 163.96484 41.648438 z M 17.861328 58.419922 C 18.508911 58.427595 19.196539 58.573502 19.917969 58.849609 L 27.617188 61.796875 C 30.387988 62.857325 31.553833 65.323795 30.224609 68.796875 L 29.525391 70.623047 C 28.147299 74.223807 25.797828 75.19818 22.912109 74.09375 L 15.212891 71.146484 C 12.454859 70.090924 11.278198 67.619564 12.607422 64.146484 L 13.304688 62.322266 C 14.338255 59.621696 15.91858 58.396902 17.861328 58.419922 z M 118.61914 61.005859 C 116.38253 60.78155 109.72124 63.471834 108.20508 64.376953 C 105.25345 66.282263 99.363226 72.822748 93.525391 78.455078 C 93.495491 77.842628 93.445687 77.273609 93.341797 76.849609 C 92.731777 74.359629 89.673938 65.887889 86.25 63.667969 C 85.618853 63.258759 84.880403 63.088009 84.087891 63.099609 L 84.087891 63.101562 C 80.653679 63.151962 76.17569 66.603328 74.748047 68.705078 C 70.492775 74.969558 71.465692 78.362829 70.607422 79.818359 C 70.089066 80.107239 69.656301 80.411975 69.316406 80.734375 C 68.549134 80.958735 68.502353 79.971713 64.884766 78.470703 C 61.508287 77.069763 59.645782 78.812836 59.041016 82.416016 C 58.440616 85.993186 58.965686 88.684121 61.197266 91.244141 C 57.000178 100.3344 55.894871 104.78947 59.117188 111.93555 C 59.366884 112.4893 59.661946 113.00754 59.972656 113.51172 C 59.609764 113.74407 59.343327 114.10001 59.222656 114.51367 L 56.753906 122.97656 L 47.132812 122.76562 C 47.118493 122.46677 47.082082 122.17443 47.019531 121.89062 C 47.000091 121.7835 46.965803 121.68268 46.939453 121.57812 C 46.917973 121.50312 46.895794 121.42902 46.871094 121.35547 C 46.446953 119.96145 45.433051 118.82683 44.099609 118.27539 C 43.429143 117.96354 42.689105 117.77734 41.902344 117.77734 C 39.011932 117.77734 36.662108 120.12717 36.662109 123.01758 C 36.662108 125.908 39.011929 128.25978 41.902344 128.25977 C 42.645499 128.25977 43.350984 128.10035 43.992188 127.82031 L 52.636719 141.88867 L 52.636719 153.14453 L 49.089844 153.10156 C 48.233088 153.09106 47.529821 153.77605 47.519531 154.63281 C 47.509041 155.48956 48.195978 156.19283 49.052734 156.20312 L 59.681641 156.33398 C 60.537813 156.34448 61.240833 155.65889 61.251953 154.80273 C 61.262443 153.94598 60.577459 153.24468 59.720703 153.23438 L 55.740234 153.18359 L 55.740234 141.35156 L 64.951172 123.1543 L 60.470703 123.05664 C 61.071801 120.99614 61.674215 118.93547 62.275391 116.875 L 62.720703 116.90039 C 63.368937 117.52254 63.85743 117.80904 64.556641 118.33203 C 64.556641 118.33203 64.963622 118.00446 65.216797 117.81641 C 68.959075 115.05496 73.267419 111.74806 79.345703 110.33008 C 79.92796 109.66091 80.575867 108.74997 80.90625 107.71875 C 81.588773 105.58835 82.598502 100.3429 83.177734 102.00977 C 83.680551 103.45675 83.182234 108.40273 83.035156 109.74609 C 84.335874 109.63343 85.505555 109.63018 86.544922 109.71094 C 87.157411 108.92538 87.826406 107.91533 88.289062 106.75 C 89.270118 104.27894 89.891863 98.44761 90.248047 98.53125 C 90.298927 98.54315 90.344418 98.676631 90.384766 98.957031 C 90.691038 101.08533 91.375093 108.09898 90.605469 110.56641 C 90.674449 110.59241 90.751989 110.61608 90.818359 110.64258 C 92.617323 111.3592 93.550771 112.32812 93.550781 112.32812 C 93.987511 112.80171 93.957775 113.53963 93.484375 113.97656 C 93.010785 114.41328 92.272866 114.38356 91.835938 113.91016 C 91.835938 113.91016 91.386849 113.37972 89.953125 112.80859 C 88.519392 112.23745 86.187927 111.72132 82.652344 112.11914 C 75.57071 112.91597 70.975037 116.46758 66.603516 119.69336 C 66.560556 119.72436 66.533106 119.7544 66.486328 119.7793 C 69.755875 121.83729 73.009624 122.96627 74.400391 123.49414 C 80.781644 125.73823 91.573434 124.48734 99.953125 120.52344 C 101.94052 119.58333 103.74782 118.70814 105.47461 117.84766 C 106.22093 121.8179 103.18814 125.55979 112.13086 132.12695 C 114.70612 134.01813 123.46232 132.24596 124.51562 128.29883 C 125.56892 124.35169 116.99675 127.82643 116.52539 126.78906 C 115.82643 125.17504 119.05545 120.47287 118.47656 119.84961 C 117.84898 118.83639 113.40631 120.51705 113.37891 119.73047 C 113.35241 118.97105 115.53556 116.32776 115.32227 112.48633 C 117.19126 111.36502 119.09498 110.16617 121.14258 108.80273 C 127.50021 104.56934 135.51142 101.84974 138.96484 98.982422 C 141.34148 101.15979 145.71408 105.31393 147.25391 107.83984 C 149.39707 111.35538 151.27148 116.64648 151.27148 116.64648 C 151.27148 116.64648 153.40928 106.15834 152.61914 102.34961 C 151.82898 98.540909 149.66554 100.75507 147.78516 99.228516 C 145.90479 97.701956 145.74026 96.416659 147.96484 94.792969 C 150.1894 93.169299 154.29102 93.560547 154.29102 93.560547 C 154.29102 93.560547 151.58865 92.001964 149.60547 90.333984 C 147.62231 88.666014 148.52818 87.73609 151.06836 85.3125 C 153.60854 82.88888 157.88672 83.720703 157.88672 83.720703 L 165.29102 71.992188 C 165.29102 71.992188 143.83173 84.131752 136.80273 90.882812 C 134.56992 90.535572 131.56638 90.314404 128.41602 89.402344 C 124.34799 88.224604 114.60867 86.730871 108.58594 85.050781 L 116.00195 79.416016 L 108.33594 76.099609 L 113.58398 71.167969 L 109.875 71.173828 C 109.875 71.173828 114.08775 68.175356 115.79883 65.572266 C 119.7108 62.324364 119.96111 61.140445 118.61914 61.005859 z M 18.191406 62.423828 C 17.47296 62.413051 16.850093 62.811812 16.560547 63.568359 L 15.863281 65.392578 C 15.472333 66.414068 16.019963 67.35712 16.964844 67.71875 L 23.896484 70.371094 C 24.905209 70.757154 25.88347 70.385683 26.269531 69.376953 L 26.96875 67.550781 C 27.359698 66.529291 26.824838 65.593083 25.867188 65.226562 L 18.933594 62.572266 C 18.681413 62.475751 18.430888 62.42742 18.191406 62.423828 z M 82.720703 66.767578 C 83.288635 66.788778 83.852991 66.899186 84.408203 67.103516 C 86.629042 67.920836 88.321506 70.109803 89.248047 73.064453 C 90.174587 76.019113 90.313801 79.714952 89.427734 83.419922 C 88.541668 87.124892 86.80017 90.126742 84.724609 91.976562 C 82.649048 93.826383 80.267717 94.518482 78.046875 93.701172 C 75.826028 92.883852 74.135524 90.692941 73.208984 87.738281 C 72.282444 84.783621 72.141266 81.089726 73.027344 77.384766 C 73.913409 73.679796 75.654908 70.675992 77.730469 68.826172 C 79.287141 67.438812 81.016905 66.703958 82.720703 66.767578 z M 43.996094 74.625 C 41.79824 74.625 40.003905 76.419327 40.003906 78.617188 C 40.003905 80.815038 41.79824 82.609375 43.996094 82.609375 C 46.193947 82.609375 47.986328 80.815038 47.986328 78.617188 C 47.986328 76.419328 46.193948 74.625 43.996094 74.625 z M 43.996094 75.730469 C 45.596741 75.730459 46.880859 77.016528 46.880859 78.617188 C 46.880859 80.217827 45.596735 81.503906 43.996094 81.503906 C 42.395446 81.503906 41.107422 80.217827 41.107422 78.617188 C 41.107422 77.016528 42.395441 75.730459 43.996094 75.730469 z M 12.732422 77.107422 C 12.854482 77.122982 12.954781 77.20534 12.988281 77.375 L 13.568359 79.957031 C 13.586809 80.028301 13.590631 80.098216 13.582031 80.166016 C 13.561284 80.328756 13.428873 80.504975 13.216797 80.546875 C 12.231142 80.710655 11.668666 81.341259 11.523438 82.480469 L 11.275391 84.433594 C 11.137078 85.518564 11.890935 86.303701 12.894531 86.431641 L 20.257812 87.369141 C 21.32922 87.505721 22.19154 86.913207 22.328125 85.841797 L 22.576172 83.888672 C 22.7214 82.749452 22.356853 82.041777 21.421875 81.591797 C 21.227083 81.498057 21.143313 81.293609 21.164062 81.130859 C 21.172702 81.063049 21.194699 80.997894 21.230469 80.933594 L 22.441406 78.580078 C 22.516401 78.424228 22.631847 78.369166 22.753906 78.384766 C 22.835279 78.395136 23.012678 78.417476 23.287109 78.535156 C 25.418204 79.440826 26.382444 81.60421 26.033203 84.34375 L 25.787109 86.283203 C 25.299555 90.107713 23.24668 91.60948 20.181641 91.21875 L 12.003906 90.175781 C 9.0609268 89.800611 7.3461413 87.681087 7.8164062 83.992188 L 8.0644531 82.039062 C 8.411965 79.313073 10.024298 77.478759 12.314453 77.136719 C 12.609631 77.091619 12.651052 77.097022 12.732422 77.107422 z M 63.501953 79.580078 C 64.325706 79.579078 65.192465 79.942325 66.003906 80.609375 C 67.08582 81.498745 68.046605 82.924156 68.601562 84.666016 C 68.844725 85.429236 68.971044 86.182703 69.025391 86.908203 C 68.724266 85.650283 67.716917 84.776561 66.566406 84.775391 C 65.157842 84.775001 64.015755 86.068373 64.015625 87.664062 C 64.015755 89.259752 65.157842 90.553124 66.566406 90.552734 C 67.695655 90.551734 68.689775 89.709252 69.009766 88.482422 C 68.969596 88.830172 68.913265 89.165876 68.828125 89.478516 C 68.460097 90.829856 67.701173 91.795376 66.654297 92.128906 C 65.607413 92.462446 64.429579 92.114009 63.347656 91.224609 C 62.265742 90.335239 61.304961 88.909829 60.75 87.167969 C 60.195042 85.426119 60.153461 83.706789 60.521484 82.355469 C 60.889515 81.004139 61.648428 80.038608 62.695312 79.705078 C 62.957031 79.621678 63.227368 79.580468 63.501953 79.580078 z M 80.832031 80.173828 C 78.664105 80.207428 76.923937 82.003221 76.923828 84.207031 C 76.924192 86.434661 78.700972 88.240284 80.892578 88.240234 C 83.084184 88.240284 84.860964 86.434661 84.861328 84.207031 C 84.860964 81.979411 83.084184 80.173778 80.892578 80.173828 C 80.872398 80.173678 80.852221 80.173678 80.832031 80.173828 z M 50.626953 88.121094 C 49.099365 88.121094 47.849609 89.370847 47.849609 90.898438 C 47.849609 92.426028 49.099365 93.675751 50.626953 93.675781 C 52.154541 93.675781 53.404297 92.426027 53.404297 90.898438 C 53.404297 89.370847 52.154541 88.121084 50.626953 88.121094 z M 50.626953 89.226562 C 51.557335 89.226562 52.300781 89.968057 52.300781 90.898438 C 52.300781 91.828818 51.557335 92.570312 50.626953 92.570312 C 49.696571 92.570312 48.955078 91.828818 48.955078 90.898438 C 48.955078 89.968057 49.696571 89.226562 50.626953 89.226562 z M 174.37305 90.617188 C 174.41295 90.620188 174.44824 90.641575 174.48242 90.671875 C 174.51652 90.702075 174.55043 90.742479 174.58594 90.792969 C 174.65694 90.893949 174.73355 91.034242 174.81445 91.201172 C 174.97626 91.535032 175.15407 91.977744 175.33008 92.427734 C 175.50609 92.877724 175.67978 93.334873 175.82812 93.695312 C 175.90232 93.875532 175.9705 94.032071 176.0293 94.150391 C 176.0882 94.268711 176.14087 94.350247 176.16797 94.373047 C 176.19507 94.395847 176.28548 94.434856 176.41211 94.472656 C 176.53874 94.510456 176.7043 94.55146 176.89453 94.59375 C 177.27502 94.67835 177.75509 94.770587 178.22852 94.867188 C 178.70195 94.963787 179.16881 95.065519 179.52539 95.167969 C 179.70368 95.219169 179.85519 95.269566 179.9668 95.322266 C 180.0226 95.348666 180.06782 95.375797 180.10352 95.404297 C 180.13922 95.432797 180.16578 95.463153 180.17578 95.501953 C 180.18578 95.540753 180.17642 95.581157 180.1582 95.623047 C 180.1399 95.664947 180.11132 95.710346 180.07422 95.759766 C 180.00012 95.858466 179.89157 95.973043 179.75781 96.101562 C 179.49029 96.358623 179.12358 96.666206 178.75 96.972656 C 178.37642 97.279096 177.99618 97.585421 177.69922 97.837891 C 177.55074 97.964121 177.42242 98.077422 177.32812 98.169922 C 177.23382 98.262422 177.1715 98.338294 177.1582 98.371094 C 177.1448 98.403894 177.13567 98.500713 177.13867 98.632812 C 177.14167 98.764923 177.15533 98.934896 177.17383 99.128906 C 177.21093 99.516916 177.27172 100.0023 177.32617 100.48242 C 177.38057 100.96253 177.42861 101.43781 177.44141 101.80859 C 177.44741 101.99399 177.44539 102.15295 177.42969 102.27539 C 177.42169 102.33659 177.41063 102.38894 177.39453 102.43164 C 177.37843 102.47434 177.35812 102.51015 177.32422 102.53125 C 177.29022 102.55235 177.24861 102.55478 177.20312 102.55078 C 177.15762 102.54678 177.10723 102.53367 177.04883 102.51367 C 176.93204 102.47367 176.78663 102.40586 176.62305 102.31836 C 176.29591 102.14337 175.89126 101.88951 175.48438 101.62891 C 175.07748 101.36831 174.66977 101.10089 174.33789 100.89648 C 174.17195 100.79428 174.02535 100.70758 173.9082 100.64648 C 173.79104 100.58538 173.69936 100.55183 173.66406 100.54883 C 173.62876 100.54683 173.53286 100.56743 173.4082 100.61133 C 173.28355 100.65523 173.12605 100.71927 172.94727 100.79688 C 172.5897 100.95204 172.14685 101.15926 171.70703 101.35938 C 171.26723 101.55948 170.82916 101.7522 170.48047 101.87891 C 170.30612 101.94221 170.15448 101.98882 170.0332 102.01172 C 169.9726 102.02362 169.9206 102.02934 169.875 102.02734 C 169.8294 102.02534 169.78839 102.01593 169.75781 101.99023 C 169.72721 101.96453 169.71117 101.92743 169.70117 101.88281 C 169.69217 101.83821 169.68845 101.78432 169.68945 101.72266 C 169.69145 101.59924 169.71144 101.44041 169.74414 101.25781 C 169.80944 100.8926 169.92476 100.4304 170.04688 99.962891 C 170.16897 99.495381 170.29882 99.023341 170.39062 98.644531 C 170.43662 98.455181 170.47223 98.288513 170.49414 98.158203 C 170.51614 98.027893 170.51972 97.930784 170.51172 97.896484 C 170.50272 97.862184 170.45322 97.776875 170.37305 97.671875 C 170.29285 97.566875 170.18372 97.437076 170.05469 97.291016 C 169.79663 96.998896 169.46294 96.641596 169.13672 96.285156 C 168.81049 95.928716 168.49193 95.57372 168.26367 95.28125 C 168.14953 95.13501 168.05735 95.004734 167.99805 94.896484 C 167.96835 94.842384 167.94765 94.794 167.93555 94.75 C 167.92345 94.706 167.91869 94.663993 167.93359 94.626953 C 167.94859 94.589953 167.98013 94.564116 168.01953 94.541016 C 168.05893 94.517816 168.10893 94.498669 168.16797 94.480469 C 168.28594 94.444069 168.44124 94.414072 168.625 94.388672 C 168.99252 94.337872 169.46881 94.303681 169.95117 94.275391 C 170.43353 94.247091 170.92191 94.225013 171.31055 94.195312 C 171.50487 94.180512 171.67398 94.163931 171.80469 94.144531 C 171.9354 94.125131 172.03055 94.098778 172.06055 94.080078 C 172.09055 94.061378 172.15535 93.987676 172.23047 93.878906 C 172.30557 93.770156 172.39514 93.624901 172.49414 93.457031 C 172.69221 93.121371 172.92978 92.693847 173.16797 92.273438 C 173.40615 91.853028 173.64589 91.440282 173.85352 91.132812 C 173.95733 90.979073 174.05212 90.851519 174.13672 90.761719 C 174.17902 90.716819 174.21971 90.68131 174.25781 90.65625 C 174.29601 90.63115 174.33322 90.614187 174.37305 90.617188 z M 24.306641 95.039062 C 24.592502 95.012322 24.78576 95.173114 24.8125 95.458984 L 25.761719 105.59961 C 25.788464 105.88547 25.627658 106.08072 25.341797 106.10742 L 8.6386719 107.66992 C 8.3528109 107.69666 8.1595575 107.53586 8.1328125 107.25 L 7.8632812 104.36328 C 7.8365363 104.07742 7.9973421 103.88412 8.2832031 103.85742 L 21.513672 102.61914 C 21.799533 102.5924 21.960334 102.39914 21.933594 102.11328 L 21.341797 95.783203 C 21.315052 95.497343 21.473905 95.304044 21.759766 95.277344 L 24.306641 95.039062 z M 41.369141 95.125 C 39.625137 95.125 38.199225 96.550912 38.199219 98.294922 C 38.199217 100.03893 39.625133 101.46484 41.369141 101.46484 C 43.113148 101.46484 44.537113 100.03893 44.537109 98.294922 C 44.537107 96.550912 43.113144 95.125 41.369141 95.125 z M 41.369141 96.230469 C 42.515939 96.230469 43.43164 97.148122 43.431641 98.294922 C 43.431644 99.441722 42.515941 100.35938 41.369141 100.35938 C 40.222341 100.35938 39.302732 99.441722 39.302734 98.294922 C 39.302735 97.148122 40.222343 96.230469 41.369141 96.230469 z M 26.21875 109.98438 C 26.401055 109.99273 26.543855 110.10934 26.609375 110.31445 L 29.861328 120.49805 C 29.948693 120.77154 29.834041 120.99658 29.560547 121.08398 L 13.710938 126.14648 C 13.437442 126.23384 13.214323 126.1192 13.126953 125.8457 L 9.8730469 115.66016 C 9.7856819 115.38667 9.9003338 115.16357 10.173828 115.07617 L 12.609375 114.29883 C 12.882869 114.21147 13.105989 114.32612 13.193359 114.59961 L 15.283203 121.13672 C 15.370568 121.41027 15.593693 121.52685 15.867188 121.43945 L 18.302734 120.66016 C 18.576226 120.57279 18.690886 120.34966 18.603516 120.07617 L 16.890625 114.71094 C 16.80326 114.43745 16.917911 114.21435 17.191406 114.12695 L 19.626953 113.34766 C 19.900447 113.26029 20.123568 113.3769 20.210938 113.65039 L 21.923828 119.01562 C 22.011193 119.28907 22.236272 119.40381 22.509766 119.31641 L 25.074219 118.49805 C 25.347711 118.41068 25.46236 118.18755 25.375 117.91406 L 23.287109 111.375 C 23.199744 111.10151 23.31635 110.87842 23.589844 110.79102 L 26.023438 110.01367 C 26.091811 109.99183 26.157982 109.98158 26.21875 109.98438 z M 165.38672 119.38281 C 166.00881 119.41701 166.66013 119.58164 167.32617 119.87695 C 168.8564 120.55545 169.73603 121.65597 169.94531 123.26367 C 169.96261 123.40305 170.00562 123.48824 170.09375 123.52734 C 170.18185 123.56644 170.25667 123.57408 170.35938 123.58008 L 176.56836 123.75 C 176.84348 123.753 177.00565 123.7734 177.09375 123.8125 C 177.18185 123.8516 177.23044 123.97816 177.15234 124.1543 L 175.9707 126.81836 C 175.9317 126.90646 175.84277 126.95894 175.69727 126.96094 L 169.57227 126.8125 C 169.44266 126.8075 169.35835 126.87749 169.31445 126.97656 L 168.4707 128.88086 C 168.3682 129.11204 168.44851 129.31742 168.67969 129.41992 L 173.43555 131.5293 C 173.66669 131.63181 173.74508 131.83913 173.64258 132.07031 L 172.60742 134.4043 C 172.50491 134.63544 172.29955 134.71384 172.06836 134.61133 L 158.66992 128.67188 C 158.43878 128.56938 158.35843 128.36204 158.46094 128.13086 L 160.98047 122.45117 C 161.91767 120.33747 163.52045 119.28026 165.38672 119.38281 z M 165.25586 122.60352 C 164.66019 122.61422 164.09194 123.00984 163.80273 123.66211 L 162.63672 126.29297 C 162.53421 126.52416 162.61252 126.73148 162.84375 126.83398 L 165.22266 127.88867 C 165.45384 127.99118 165.65922 127.91088 165.76172 127.67969 L 166.92969 125.04883 C 167.30554 124.20114 167.01799 123.24304 166.23633 122.89648 L 165.85156 122.72656 C 165.65615 122.63996 165.45442 122.59996 165.25586 122.60352 z M 32.806641 127.47461 C 32.945826 127.47256 33.074086 127.553 33.175781 127.70703 L 34.816406 130.19531 C 34.944508 130.38927 34.932672 130.59413 34.818359 130.71875 L 30.427734 135.73047 C 29.513007 136.77676 27.708852 138.26373 26.191406 139.26562 L 26.251953 139.35547 C 27.514078 138.63683 28.426124 138.23285 29.189453 137.97461 L 37.710938 135.14844 C 37.900799 135.08861 38.087062 135.14619 38.222656 135.35156 L 39.78125 137.71484 C 39.909351 137.9088 39.897516 138.11171 39.783203 138.23633 L 28.058594 150.20508 C 27.94428 150.3297 27.523847 150.78652 27.466797 150.82422 C 27.352704 150.89955 27.236042 150.84692 27.123047 150.67578 L 25.330078 147.95898 C 25.232152 147.81066 25.24472 147.70552 25.34375 147.60742 L 31.234375 141.86523 C 32.144567 140.98577 33.017135 140.19711 33.660156 139.70703 L 33.599609 139.61719 C 32.291627 140.41525 30.20139 141.41814 28.572266 141.95312 L 22.898438 143.83008 C 22.761745 143.87119 22.633642 143.87528 22.498047 143.66992 L 20.945312 141.32031 C 20.839802 141.16058 20.844057 141.04315 20.935547 140.93359 L 26.488281 134.67773 C 27.052315 134.0432 27.848675 133.33763 28.914062 132.51953 L 28.853516 132.42773 C 27.701169 133.18856 25.679234 134.24559 23.939453 134.93555 L 18.412109 137.11133 C 18.282949 137.16385 18.167127 137.11019 18.091797 136.99609 L 16.291016 134.26953 C 16.178039 134.09839 16.174968 133.96788 16.289062 133.89258 C 16.32329 133.86998 16.481986 133.81362 16.535156 133.79492 L 32.664062 127.50391 C 32.712498 127.48421 32.760246 127.47529 32.806641 127.47461 z M 154.53711 134.66797 L 169.32227 139.84375 C 169.39497 139.86625 169.41586 139.88134 169.44531 139.90234 C 169.54291 139.97254 169.54115 140.07593 169.43555 140.22266 L 167.69531 142.64844 C 167.61801 142.75648 167.51928 142.78896 167.40039 142.74805 L 165.33789 141.96484 C 165.21901 141.92394 165.16591 141.95885 165.06055 142.10547 L 162.35547 145.87109 C 162.24307 146.02759 162.23573 146.08204 162.3125 146.18164 L 163.71289 147.88281 C 163.78939 147.98241 163.78885 148.08775 163.71875 148.18555 L 161.98438 150.60156 C 161.87901 150.74826 161.77358 150.7909 161.67578 150.7207 C 161.62688 150.6856 161.55238 150.60157 161.51758 150.54688 C 161.49528 150.51608 151.95898 138.25781 151.95898 138.25781 C 151.85007 138.12034 151.87322 137.94361 151.97852 137.79688 L 154.10742 134.83398 C 154.21278 134.68728 154.37207 134.60877 154.53711 134.66797 z M 156.50391 138.55664 L 156.25781 138.89844 L 156.625 139.23438 L 160.03516 143.4043 C 160.14125 143.52498 160.25442 143.53151 160.38086 143.35547 L 162.03125 141.05859 C 162.15769 140.88252 162.12281 140.76708 161.97461 140.70508 L 156.93945 138.79492 L 156.50391 138.55664 z M 147.43359 145.14258 C 148.52442 145.09548 149.57206 145.54888 150.48828 146.54688 C 151.39228 147.53156 151.74335 148.87598 151.32031 150 C 151.27151 150.14276 151.3133 150.20278 151.3457 150.23828 C 151.3946 150.29148 151.47848 150.3129 151.58203 150.2832 C 152.90294 149.8879 154.21639 150.23481 155.29883 151.43164 C 157.29268 153.63906 157.04521 155.87694 155.11133 157.65234 L 150.00195 162.34375 C 149.81566 162.51482 149.5929 162.50473 149.42188 162.31836 L 139.51172 151.52344 C 139.34067 151.33715 139.3489 151.11633 139.53516 150.94531 L 144.12305 146.73438 C 145.20975 145.73672 146.34275 145.18973 147.43359 145.14258 z M 147.25586 148.4082 C 146.87608 148.3952 146.49082 148.56582 146.10938 148.91602 L 144.01562 150.83789 C 143.82935 151.00892 143.81922 151.22973 143.99023 151.41602 L 145.59375 153.16406 C 145.76477 153.35033 145.98753 153.36046 146.17383 153.18945 L 148.26758 151.26758 C 149.03051 150.56719 149.07182 149.77568 148.36328 149.00391 C 148.00901 148.61802 147.63565 148.42122 147.25586 148.4082 z M 151.58789 152.85547 C 151.17675 152.82827 150.77301 152.97228 150.44922 153.26953 L 148.16797 155.36133 C 147.98168 155.53236 147.97346 155.75512 148.14453 155.94141 L 149.91016 157.86523 C 150.08118 158.0515 150.30394 158.06164 150.49023 157.89062 L 152.76953 155.79688 C 153.41762 155.20236 153.5006 154.25932 152.76758 153.46094 C 152.41739 153.07949 151.99904 152.88263 151.58789 152.85547 z M 135.7793 153.67773 C 135.93756 153.64953 136.0836 153.72124 136.17969 153.88477 L 141.79102 163.4375 C 143.11486 165.69054 142.56045 168.02815 139.73633 169.6875 L 138.25195 170.55859 C 135.324 172.27899 133.16561 171.64862 131.79297 169.3125 L 126.17969 159.75977 C 126.05157 159.54173 126.10808 159.32734 126.32617 159.19922 L 128.52734 157.90625 C 128.74538 157.77814 128.95978 157.83464 129.08789 158.05273 L 134.51758 167.29297 C 134.99952 168.11324 135.87702 168.39404 136.69727 167.91211 L 138.18164 167.03906 C 139.01227 166.55104 139.14834 165.6188 138.70117 164.83398 L 133.27148 155.59375 C 133.14336 155.37571 133.19989 155.16132 133.41797 155.0332 L 135.61914 153.74023 C 135.67364 153.70823 135.72655 153.68713 135.7793 153.67773 z M 120.14844 161.83008 C 121.75361 161.74968 123.13297 162.3907 123.99219 163.65625 C 124.14066 163.87344 124.15296 163.90796 124.17578 163.97656 C 124.20998 164.07938 124.18279 164.18995 124.06055 164.28125 L 122.23242 165.72852 C 122.18292 165.77052 122.12937 165.79906 122.07227 165.81836 C 121.93516 165.86406 121.74505 165.82636 121.63086 165.67383 C 121.12465 164.9539 120.40899 164.74882 119.44922 165.06836 L 117.80273 165.61523 C 116.8887 165.91951 116.55445 166.81858 116.83594 167.66406 L 118.90039 173.86914 C 119.2009 174.7718 120.00165 175.22824 120.9043 174.92773 L 122.54883 174.38086 C 123.50861 174.06133 123.9313 173.50188 123.93164 172.58789 C 123.93171 172.39744 124.06211 172.25253 124.19922 172.20703 C 124.25632 172.18463 124.31616 172.18359 124.38086 172.18359 L 126.71289 172.24609 C 126.86522 172.24617 126.95213 172.31699 126.98633 172.41992 C 127.00923 172.48842 127.05901 172.63757 127.07031 172.90039 C 127.16481 174.93777 125.81584 176.52846 123.50781 177.29688 L 121.87305 177.8418 C 118.65096 178.91448 116.67609 177.8577 115.81641 175.27539 L 113.52148 168.38672 C 112.69604 165.90732 113.72614 163.73585 116.83398 162.70117 L 118.47852 162.1543 C 119.05267 161.96316 119.61339 161.8569 120.14844 161.83008 z M 75.804688 165.33398 C 75.844548 165.33698 75.877927 165.35837 75.912109 165.38867 C 75.946279 165.41897 75.982079 165.45928 76.017578 165.50977 C 76.088568 165.61074 76.163241 165.75104 76.244141 165.91797 C 76.405948 166.25183 76.585719 166.69455 76.761719 167.14453 C 76.937727 167.59453 77.111421 168.05167 77.259766 168.41211 C 77.333936 168.59233 77.402087 168.74887 77.460938 168.86719 C 77.519778 168.98551 77.572549 169.06704 77.599609 169.08984 C 77.626669 169.11264 77.717123 169.15165 77.84375 169.18945 C 77.970376 169.22725 78.135935 169.26826 78.326172 169.31055 C 78.706649 169.39515 79.186723 169.48738 79.660156 169.58398 C 80.133587 169.68058 80.600452 169.78036 80.957031 169.88281 C 81.13532 169.93401 81.284872 169.98636 81.396484 170.03906 C 81.452294 170.06546 81.499476 170.09064 81.535156 170.11914 C 81.570826 170.14764 81.597822 170.17995 81.607422 170.21875 C 81.617022 170.25755 81.608086 170.29794 81.589844 170.33984 C 81.571604 170.38174 81.542899 170.42525 81.505859 170.47461 C 81.431759 170.57331 81.321259 170.68984 81.1875 170.81836 C 80.919981 171.07542 80.555222 171.383 80.181641 171.68945 C 79.808062 171.99589 79.425868 172.30026 79.128906 172.55273 C 78.980426 172.67896 78.854106 172.79227 78.759766 172.88477 C 78.665416 172.97727 78.603141 173.05509 78.589844 173.08789 C 78.576594 173.12069 78.567113 173.21751 78.570312 173.34961 C 78.573513 173.48172 78.586929 173.65169 78.605469 173.8457 C 78.642539 174.23371 78.703399 174.7191 78.757812 175.19922 C 78.812223 175.67933 78.860287 176.15461 78.873047 176.52539 C 78.879447 176.71079 78.876948 176.86975 78.861328 176.99219 C 78.853528 177.05339 78.842262 177.10574 78.826172 177.14844 C 78.810082 177.19114 78.789779 177.22499 78.755859 177.24609 C 78.721949 177.26719 78.68022 177.27158 78.634766 177.26758 C 78.589316 177.26358 78.536906 177.24852 78.478516 177.22852 C 78.361728 177.18852 78.218259 177.1207 78.054688 177.0332 C 77.727546 176.85821 77.322909 176.6063 76.916016 176.3457 C 76.509124 176.0851 76.101411 175.81574 75.769531 175.61133 C 75.603593 175.50913 75.455045 175.42436 75.337891 175.36328 C 75.220737 175.30218 75.12902 175.26667 75.09375 175.26367 C 75.05847 175.26167 74.962545 175.28227 74.837891 175.32617 C 74.713238 175.37007 74.555735 175.43607 74.376953 175.51367 C 74.019388 175.66883 73.578476 175.87605 73.138672 176.07617 C 72.698868 176.27628 72.260805 176.46899 71.912109 176.5957 C 71.737762 176.659 71.586117 176.70552 71.464844 176.72852 C 71.404204 176.74032 71.350308 176.74419 71.304688 176.74219 C 71.259068 176.74019 71.220027 176.73323 71.189453 176.70703 C 71.158883 176.68133 71.142613 176.64223 71.132812 176.59766 C 71.123013 176.55306 71.120134 176.50115 71.121094 176.43945 C 71.122994 176.31603 71.143111 176.15721 71.175781 175.97461 C 71.241111 175.6094 71.35641 175.14524 71.478516 174.67773 C 71.600622 174.21022 71.728463 173.74013 71.820312 173.36133 C 71.866242 173.17193 71.903842 173.00531 71.925781 172.875 C 71.947681 172.74469 71.951859 172.64563 71.943359 172.61133 C 71.934859 172.57703 71.884919 172.49367 71.804688 172.38867 C 71.724457 172.28367 71.615357 172.15387 71.486328 172.00781 C 71.228268 171.71569 70.894585 171.35839 70.568359 171.00195 C 70.242134 170.64551 69.923574 170.29052 69.695312 169.99805 C 69.581182 169.85181 69.488998 169.72149 69.429688 169.61328 C 69.400027 169.55918 69.377344 169.5108 69.365234 169.4668 C 69.353124 169.4228 69.350214 169.3807 69.365234 169.34375 C 69.380264 169.30665 69.411802 169.28091 69.451172 169.25781 C 69.490542 169.23461 69.540622 169.21351 69.599609 169.19531 C 69.717581 169.15891 69.87288 169.12892 70.056641 169.10352 C 70.424161 169.05272 70.900455 169.02052 71.382812 168.99219 C 71.865171 168.96389 72.353544 168.93986 72.742188 168.91016 C 72.936509 168.89536 73.105616 168.87878 73.236328 168.85938 C 73.36704 168.83997 73.462168 168.81557 73.492188 168.79688 C 73.522207 168.77818 73.587037 168.70447 73.662109 168.5957 C 73.737179 168.48695 73.826741 168.34168 73.925781 168.17383 C 74.123856 167.83814 74.35947 167.41064 74.597656 166.99023 C 74.835841 166.56982 75.077534 166.15708 75.285156 165.84961 C 75.388967 165.69587 75.483729 165.56842 75.568359 165.47852 C 75.610669 165.43362 75.649369 165.39812 75.6875 165.37305 C 75.72564 165.34795 75.76484 165.33098 75.804688 165.33398 z M 104.57617 165.57812 C 106.67032 165.56412 108.30968 166.46615 109.13086 168.09375 C 109.23414 168.3356 109.23905 168.37166 109.24805 168.44336 C 109.26155 168.55087 109.21354 168.65325 109.07617 168.71875 L 107.00195 169.78125 C 106.94525 169.81285 106.88782 169.83184 106.82812 169.83984 C 106.68475 169.85784 106.5281 169.78194 106.42188 169.61328 C 105.96554 168.88185 105.1293 168.50171 104.08984 168.63281 C 102.93089 168.77886 102.35372 169.49468 102.45312 170.2832 C 102.54953 171.0479 103.23354 171.47053 105.27734 171.89258 C 108.59104 172.56726 110.25007 173.98529 110.51367 176.07617 C 110.87519 178.9437 109.11241 181.03401 105.69531 181.46484 C 102.93535 181.81274 100.7042 180.86791 99.841797 178.9375 C 99.738517 178.69565 99.733609 178.66154 99.724609 178.58984 C 99.711009 178.48233 99.759104 178.378 99.896484 178.3125 L 102.08008 177.15039 C 102.13678 177.11879 102.19616 177.0998 102.25586 177.0918 C 102.39923 177.0738 102.55394 177.15159 102.66016 177.32031 C 103.14643 178.09649 103.97629 178.51441 105.31445 178.3457 C 106.54509 178.19055 107.11085 177.487 107.00391 176.63867 C 106.90751 175.87404 106.27848 175.30981 104.19141 174.92969 C 100.78815 174.31489 99.20299 172.90063 98.90625 170.54688 C 98.633605 168.38432 100.42642 166.04733 103.65234 165.64062 C 103.96896 165.60073 104.277 165.58012 104.57617 165.57812 z "
       transform="translate(0,783.07098)" />
    <path
       id="path1942-2-7"
       style="fill:none;fill-opacity:1;stroke:none;stroke-width:0.770716;stroke-opacity:1"
       d="m 106.72395,972.4364 a 87.519525,87.519525 0 0 0 82.81917,-91.98 87.519525,87.519525 0 0 0 -91.980006,-82.81917 87.519525,87.519525 0 0 0 -82.819165,91.98001 87.519525,87.519525 0 0 0 91.980001,82.81916 z" />
    <path
       id="path1942-5"
       style="fill:none;fill-opacity:1;stroke:none;stroke-width:0.770716;stroke-opacity:1"
       d="M 47.166204,928.5265 A 69.907379,69.907379 0 0 1 58.357922,830.29805 69.907379,69.907379 0 0 1 156.58637,841.48977 69.907379,69.907379 0 0 1 145.39465,939.71822 69.907379,69.907379 0 0 1 47.166204,928.5265 Z" />
    <path
       id="path1824"
       style="fill:none;fill-opacity:1;stroke:none;stroke-width:0.770716;stroke-opacity:0.995984"
       d="M 20.261698,851.50364 A 88.811947,88.811947 0 0 0 69.33714,967.11832 88.811947,88.811947 0 0 0 184.95171,918.04272 88.811947,88.811947 0 0 0 135.87624,802.42816 88.811947,88.811947 0 0 0 20.261698,851.50364 Z" />
    <path
       id="path1942-2-2"
       style="fill:none;fill-opacity:1;stroke:none;stroke-width:0.770716;stroke-opacity:1"
       d="M 71.006315,964.99067 A 85.573574,85.573574 0 0 0 181.56296,915.76768 85.573574,85.573574 0 0 0 132.33997,805.21104 85.573574,85.573574 0 0 0 21.783335,854.43403 85.573574,85.573574 0 0 0 71.006315,964.99067 Z" />
    <path
       style="fill:none;stroke:#000000;stroke-width:0.394531px;stroke-linecap:butt;stroke-linejoin:miter;stroke-opacity:1"
       d="M 85.737541,902.11159 Z"
       id="path1120" />
  </g>
</svg>
