<?xml version="1.0" encoding="UTF-8" standalone="no"?>
<!-- Created with Inkscape (http://www.inkscape.org/) -->

<svg
   width="64.875069mm"
   height="64.874695mm"
   viewBox="0 0 64.875069 64.874695"
   version="1.1"
   id="svg7980"
   inkscape:version="1.2.1 (9c6d41e4, 2022-07-14)"
   sodipodi:docname="branch-logo-3D-Lab.svg"
   inkscape:export-filename="branch-logo-3D-Lab.png"
   inkscape:export-xdpi="195.76086"
   inkscape:export-ydpi="195.76086"
   xmlns:inkscape="http://www.inkscape.org/namespaces/inkscape"
   xmlns:sodipodi="http://sodipodi.sourceforge.net/DTD/sodipodi-0.dtd"
   xmlns:xlink="http://www.w3.org/1999/xlink"
   xmlns="http://www.w3.org/2000/svg"
   xmlns:svg="http://www.w3.org/2000/svg">
  <sodipodi:namedview
     id="namedview7982"
     pagecolor="#ffffff"
     bordercolor="#666666"
     borderopacity="1.0"
     inkscape:showpageshadow="2"
     inkscape:pageopacity="0.0"
     inkscape:pagecheckerboard="0"
     inkscape:deskcolor="#d1d1d1"
     inkscape:document-units="mm"
     showgrid="false"
     inkscape:zoom="0.914906"
     inkscape:cx="85.801164"
     inkscape:cy="122.96345"
     inkscape:window-width="2560"
     inkscape:window-height="1381"
     inkscape:window-x="0"
     inkscape:window-y="31"
     inkscape:window-maximized="1"
     inkscape:current-layer="layer1" />
  <defs
     id="defs7977" />
  <g
     inkscape:label="Layer 1"
     inkscape:groupmode="layer"
     id="layer1"
     transform="translate(42.993034,-116.06265)">
    <g
       id="g104720"
       transform="matrix(0.26458333,0,0,0.26458333,-115.98682,-162.9945)">
      <circle
         id="path4602-8"
         style="fill:#ffffff;fill-opacity:1;stroke:none;stroke-width:0.349398"
         cx="398.4758"
         cy="1177.3051"
         r="119.42689" />
      <path
         id="path5802-1-9"
         style="fill:#9000b1;fill-opacity:1;stroke:#000000;stroke-width:2.59276;stroke-miterlimit:4;stroke-dasharray:none;stroke-opacity:1"
         d="m 398.29703,1056.0006 c -61.47645,0.016 -114.16339,46.6011 -120.49219,109.082 -6.75074,66.6463 41.80294,126.1438 108.44922,132.8945 66.64631,6.7508 126.15163,-41.8029 132.90235,-108.4492 6.75075,-66.6463 -41.81076,-126.1438 -108.45704,-132.8945 -4.1654,-0.422 -8.30392,-0.6339 -12.40234,-0.6328 z m 0.17969,37.746 c 46.14749,0 83.55664,37.4111 83.55664,83.5586 0,24.6194 -10.6552,46.7448 -27.59961,62.0352 v 28.8418 l -6.33203,5.7109 h -52.55078 l -6.00391,-5.7109 v -7.9883 c -2.58697,-0.2373 -5.21604,-0.5704 -7.91797,-1.0234 -38.07584,-7.7916 -66.71094,-41.4862 -66.71094,-81.8653 0,-46.1475 37.4111,-83.5586 83.5586,-83.5586 z" />
      <text
         xml:space="preserve"
         style="font-style:normal;font-weight:normal;font-size:40px;line-height:1.25;font-family:sans-serif;fill:#000000;fill-opacity:1;stroke:none"
         id="text1875-26"><textPath
           xlink:href="#path1942-50"
           id="textPath1944-64"
           style="font-style:normal;font-variant:normal;font-weight:normal;font-stretch:normal;font-size:40px;font-family:'Politics Head';-inkscape-font-specification:'Politics Head';fill:#ffffff;fill-opacity:1">3d-laboratorium</textPath></text>
      <path
         id="path1824-9"
         style="fill:none;fill-opacity:1;stroke:none;stroke-opacity:1"
         d="m 285.72401,1196.8643 a 115.233,115.233 0 0 0 133.49231,93.4726 115.233,115.233 0 0 0 93.47233,-133.4925 115.233,115.233 0 0 0 -133.49241,-93.4724 115.233,115.233 0 0 0 -93.47223,133.4923 z" />
      <circle
         style="fill:none;fill-opacity:1;stroke:none;stroke-opacity:1"
         id="path1942-50"
         cx="-30.732605"
         cy="-1243.0747"
         r="89.237717"
         transform="rotate(162.7215)" />
      <path
         id="path5238-96-3-6"
         style="fill:none;stroke:#770093;stroke-width:8.29425;stroke-linecap:round;stroke-linejoin:round;stroke-miterlimit:4;stroke-dasharray:none;stroke-opacity:1;marker-start:none;marker-end:none"
         d="M 343.5455,1230.6412 H 452.76731 M 344.00863,1124.3827 h 109.22181"
         sodipodi:nodetypes="cccc" />
      <path
         id="path5238-96-3-7-56-2-9"
         style="fill:none;stroke:#b445ce;stroke-width:8.29425;stroke-linecap:round;stroke-linejoin:round;stroke-miterlimit:4;stroke-dasharray:none;stroke-opacity:1;marker-start:none;marker-end:none"
         d="m 368.47451,1166.7485 h 31.1329 l 10.95201,-6.9446 -0.0395,-5.9629 m -42.04541,25.5818 h 58.76962 m -58.76962,12.7669 h 58.76962 m -58.76962,8.5628 h 58.76963 m -58.76963,8.5629 h 58.76962 m -58.76962,8.5629 h 58.76962" />
      <path
         sodipodi:nodetypes="cccccc"
         inkscape:connector-curvature="0"
         id="path5238-96-3-7-56-2-9-1"
         d="m 402.74298,1118.6892 0.12132,14.1368 7.69357,10.5896 7.70599,-10.3985 0.0327,-14.3362 z"
         style="fill:#770093;fill-opacity:1;stroke:#770093;stroke-width:8.29425;stroke-linecap:round;stroke-linejoin:round;stroke-miterlimit:4;stroke-dasharray:none;stroke-opacity:1;marker-start:none;marker-end:none" />
      <g
         transform="matrix(0.25919546,0,0,0.25919546,313.15998,1053.8288)"
         id="g7638-7-9-4">
        <circle
           style="fill:#ffcc00;fill-opacity:1;stroke:none"
           id="path7538-9-50-87"
           transform="translate(0,52.362183)"
           cx="540"
           cy="220"
           r="15" />
        <circle
           style="fill:#ffffff;fill-opacity:1;stroke:none"
           id="path7614-7-48-1"
           transform="translate(0,52.362183)"
           cx="540"
           cy="220"
           r="10" />
      </g>
      <g
         transform="matrix(0.25919546,0,0,0.25919546,204.13297,1053.7113)"
         id="g7638-7-9-3">
        <circle
           style="fill:#ffcc00;fill-opacity:1;stroke:none"
           id="path7538-9-50-6"
           transform="translate(0,52.362183)"
           cx="540"
           cy="220"
           r="15" />
        <circle
           style="fill:#ffffff;fill-opacity:1;stroke:none"
           id="path7614-7-48-0"
           transform="translate(0,52.362183)"
           cx="540"
           cy="220"
           r="10" />
      </g>
      <g
         transform="matrix(0.25919546,0,0,0.25919546,270.56316,1083.2863)"
         id="g7638-7-9-6">
        <circle
           style="fill:#ffcc00;fill-opacity:1;stroke:none"
           id="path7538-9-50-2"
           transform="translate(0,52.362183)"
           cx="540"
           cy="220"
           r="15" />
        <circle
           style="fill:#ffffff;fill-opacity:1;stroke:none"
           id="path7614-7-48-6"
           transform="translate(0,52.362183)"
           cx="540"
           cy="220"
           r="10" />
      </g>
      <g
         transform="matrix(0.25919546,0,0,0.25919546,228.52472,1096.0544)"
         id="g7638-7-9-1">
        <circle
           style="fill:#ffcc00;fill-opacity:1;stroke:none"
           id="path7538-9-50-8"
           transform="translate(0,52.362183)"
           cx="540"
           cy="220"
           r="15" />
        <circle
           style="fill:#ffffff;fill-opacity:1;stroke:none"
           id="path7614-7-48-7"
           transform="translate(0,52.362183)"
           cx="540"
           cy="220"
           r="10" />
      </g>
      <g
         id="g2019"
         transform="translate(263.79932,259.59804)">
        <g
           transform="matrix(0.25919546,0,0,0.25919546,-35.192827,849.22609)"
           id="g7638-7-9-9">
          <circle
             style="fill:#ffcc00;fill-opacity:1;stroke:none"
             id="path7538-9-50-20"
             transform="translate(0,52.362183)"
             cx="540"
             cy="220"
             r="15" />
          <circle
             style="fill:#ffffff;fill-opacity:1;stroke:none"
             id="path7614-7-48-2"
             transform="translate(0,52.362183)"
             cx="540"
             cy="220"
             r="10" />
        </g>
        <g
           transform="matrix(0.25919546,0,0,0.25919546,23.370237,849.22703)"
           id="g7638-7-9-37">
          <circle
             style="fill:#ffcc00;fill-opacity:1;stroke:none"
             id="path7538-9-50-5"
             transform="translate(0,52.362183)"
             cx="540"
             cy="220"
             r="15" />
          <circle
             style="fill:#ffffff;fill-opacity:1;stroke:none"
             id="path7614-7-48-9"
             transform="translate(0,52.362183)"
             cx="540"
             cy="220"
             r="10" />
        </g>
      </g>
      <g
         transform="matrix(0.25919546,0,0,0.25919546,312.68662,1160.0105)"
         id="g7638-7-9-61">
        <circle
           style="fill:#ffcc00;fill-opacity:1;stroke:none"
           id="path7538-9-50-29"
           transform="translate(0,52.362183)"
           cx="540"
           cy="220"
           r="15" />
        <circle
           style="fill:#ffffff;fill-opacity:1;stroke:none"
           id="path7614-7-48-3"
           transform="translate(0,52.362183)"
           cx="540"
           cy="220"
           r="10" />
      </g>
      <g
         transform="matrix(0.25919546,0,0,0.25919546,203.65961,1159.9736)"
         id="g7638-7-9-3-1">
        <circle
           style="fill:#ffcc00;fill-opacity:1;stroke:none"
           id="path7538-9-50-6-9"
           transform="translate(0,52.362183)"
           cx="540"
           cy="220"
           r="15" />
        <circle
           style="fill:#ffffff;fill-opacity:1;stroke:none"
           id="path7614-7-48-0-4"
           transform="translate(0,52.362183)"
           cx="540"
           cy="220"
           r="10" />
      </g>
      <g
         transform="matrix(0.25919546,0,0,0.25919546,270.59223,1072.5434)"
         id="g7638-7-9-6-7">
        <circle
           style="fill:#ffcc00;fill-opacity:1;stroke:none"
           id="path7538-9-50-2-8"
           transform="translate(0,52.362183)"
           cx="540"
           cy="220"
           r="15" />
        <circle
           style="fill:#ffffff;fill-opacity:1;stroke:none"
           id="path7614-7-48-6-4"
           transform="translate(0,52.362183)"
           cx="540"
           cy="220"
           r="10" />
      </g>
      <g
         transform="matrix(0.25919546,0,0,0.25919546,263.01193,1048.1871)"
         id="g7638-7-9-6-5">
        <circle
           style="fill:#ffcc00;fill-opacity:1;stroke:none"
           id="path7538-9-50-2-0"
           transform="translate(0,52.362183)"
           cx="540"
           cy="220"
           r="15" />
        <circle
           style="fill:#ffffff;fill-opacity:1;stroke:none"
           id="path7614-7-48-6-3"
           transform="translate(0,52.362183)"
           cx="540"
           cy="220"
           r="10" />
      </g>
      <g
         transform="matrix(0.25919546,0,0,0.25919546,278.14828,1048.1526)"
         id="g7638-7-9-6-6">
        <circle
           style="fill:#ffcc00;fill-opacity:1;stroke:none"
           id="path7538-9-50-2-1"
           transform="translate(0,52.362183)"
           cx="540"
           cy="220"
           r="15" />
        <circle
           style="fill:#ffffff;fill-opacity:1;stroke:none"
           id="path7614-7-48-6-0"
           transform="translate(0,52.362183)"
           cx="540"
           cy="220"
           r="10" />
      </g>
      <g
         id="g2019-6"
         transform="translate(263.79932,272.30423)">
        <g
           transform="matrix(0.25919546,0,0,0.25919546,-35.192827,849.22609)"
           id="g7638-7-9-9-3">
          <circle
             style="fill:#ffcc00;fill-opacity:1;stroke:none"
             id="path7538-9-50-20-2"
             transform="translate(0,52.362183)"
             cx="540"
             cy="220"
             r="15" />
          <circle
             style="fill:#ffffff;fill-opacity:1;stroke:none"
             id="path7614-7-48-2-0"
             transform="translate(0,52.362183)"
             cx="540"
             cy="220"
             r="10" />
        </g>
        <g
           transform="matrix(0.25919546,0,0,0.25919546,23.370237,849.22703)"
           id="g7638-7-9-37-6">
          <circle
             style="fill:#ffcc00;fill-opacity:1;stroke:none"
             id="path7538-9-50-5-1"
             transform="translate(0,52.362183)"
             cx="540"
             cy="220"
             r="15" />
          <circle
             style="fill:#ffffff;fill-opacity:1;stroke:none"
             id="path7614-7-48-9-5"
             transform="translate(0,52.362183)"
             cx="540"
             cy="220"
             r="10" />
        </g>
      </g>
      <g
         id="g2019-5"
         transform="translate(263.79932,280.90341)">
        <g
           transform="matrix(0.25919546,0,0,0.25919546,-35.192827,849.22609)"
           id="g7638-7-9-9-4">
          <circle
             style="fill:#ffcc00;fill-opacity:1;stroke:none"
             id="path7538-9-50-20-7"
             transform="translate(0,52.362183)"
             cx="540"
             cy="220"
             r="15" />
          <circle
             style="fill:#ffffff;fill-opacity:1;stroke:none"
             id="path7614-7-48-2-6"
             transform="translate(0,52.362183)"
             cx="540"
             cy="220"
             r="10" />
        </g>
        <g
           transform="matrix(0.25919546,0,0,0.25919546,23.370237,849.22703)"
           id="g7638-7-9-37-5">
          <circle
             style="fill:#ffcc00;fill-opacity:1;stroke:none"
             id="path7538-9-50-5-6"
             transform="translate(0,52.362183)"
             cx="540"
             cy="220"
             r="15" />
          <circle
             style="fill:#ffffff;fill-opacity:1;stroke:none"
             id="path7614-7-48-9-9"
             transform="translate(0,52.362183)"
             cx="540"
             cy="220"
             r="10" />
        </g>
      </g>
      <g
         id="g2019-3"
         transform="translate(263.79932,289.54365)">
        <g
           transform="matrix(0.25919546,0,0,0.25919546,-35.192827,849.22609)"
           id="g7638-7-9-9-7">
          <circle
             style="fill:#ffcc00;fill-opacity:1;stroke:none"
             id="path7538-9-50-20-4"
             transform="translate(0,52.362183)"
             cx="540"
             cy="220"
             r="15" />
          <circle
             style="fill:#ffffff;fill-opacity:1;stroke:none"
             id="path7614-7-48-2-5"
             transform="translate(0,52.362183)"
             cx="540"
             cy="220"
             r="10" />
        </g>
        <g
           transform="matrix(0.25919546,0,0,0.25919546,23.370237,849.22703)"
           id="g7638-7-9-37-2">
          <circle
             style="fill:#ffcc00;fill-opacity:1;stroke:none"
             id="path7538-9-50-5-5"
             transform="translate(0,52.362183)"
             cx="540"
             cy="220"
             r="15" />
          <circle
             style="fill:#ffffff;fill-opacity:1;stroke:none"
             id="path7614-7-48-9-4"
             transform="translate(0,52.362183)"
             cx="540"
             cy="220"
             r="10" />
        </g>
      </g>
      <g
         id="g2019-7"
         transform="translate(263.79932,298.12374)">
        <g
           transform="matrix(0.25919546,0,0,0.25919546,-35.192827,849.22609)"
           id="g7638-7-9-9-44">
          <circle
             style="fill:#ffcc00;fill-opacity:1;stroke:none"
             id="path7538-9-50-20-3"
             transform="translate(0,52.362183)"
             cx="540"
             cy="220"
             r="15" />
          <circle
             style="fill:#ffffff;fill-opacity:1;stroke:none"
             id="path7614-7-48-2-07"
             transform="translate(0,52.362183)"
             cx="540"
             cy="220"
             r="10" />
        </g>
        <g
           transform="matrix(0.25919546,0,0,0.25919546,23.370237,849.22703)"
           id="g7638-7-9-37-8">
          <circle
             style="fill:#ffcc00;fill-opacity:1;stroke:none"
             id="path7538-9-50-5-68"
             transform="translate(0,52.362183)"
             cx="540"
             cy="220"
             r="15" />
          <circle
             style="fill:#ffffff;fill-opacity:1;stroke:none"
             id="path7614-7-48-9-8"
             transform="translate(0,52.362183)"
             cx="540"
             cy="220"
             r="10" />
        </g>
      </g>
      <g
         id="g1672"
         transform="translate(135.72901,257.42072)">
        <path
           id="path5238-96-3-6-3"
           style="fill:#770093;fill-opacity:1;stroke:#770093;stroke-width:8.29425;stroke-linecap:round;stroke-linejoin:round;stroke-miterlimit:4;stroke-dasharray:none;stroke-opacity:1;marker-start:none;marker-end:none"
           d="m 263.19004,982.8184 h 46.23963 m -46.23963,0 0.13134,24.5082 h 46.23963 l -0.13134,-24.5082"
           sodipodi:nodetypes="cccccc" />
        <path
           id="path5238-96-3-6-3-6"
           style="fill:#e15eff;fill-opacity:1;stroke:#770093;stroke-width:8.29425;stroke-linecap:round;stroke-linejoin:round;stroke-miterlimit:4;stroke-dasharray:none;stroke-opacity:1;marker-start:none;marker-end:none"
           d="m 263.19004,982.8184 h 35.48543 m -35.48543,0 0.13134,24.5082 h 35.48543 l -0.13134,-24.5082"
           sodipodi:nodetypes="cccccc" />
        <circle
           style="fill:#e15eff;fill-opacity:1;stroke:#ffffff;stroke-width:0;stroke-linecap:round;stroke-linejoin:round"
           id="path1667"
           cx="304.09024"
           cy="998.22546"
           r="5.4854536" />
      </g>
    </g>
  </g>
</svg>
