<?xml version="1.0" encoding="UTF-8" standalone="no"?>
<!-- Created with Inkscape (http://www.inkscape.org/) -->

<svg
   width="64.87513mm"
   height="64.874756mm"
   viewBox="0 0 64.87513 64.874756"
   version="1.1"
   id="svg4940"
   inkscape:version="1.3 (0e150ed, 2023-07-21)"
   sodipodi:docname="branch-logo-AVX-flat.svg"
   inkscape:export-filename="branch-logo-AVX.png"
   inkscape:export-xdpi="195.76068"
   inkscape:export-ydpi="195.76068"
   xmlns:inkscape="http://www.inkscape.org/namespaces/inkscape"
   xmlns:sodipodi="http://sodipodi.sourceforge.net/DTD/sodipodi-0.dtd"
   xmlns="http://www.w3.org/2000/svg"
   xmlns:svg="http://www.w3.org/2000/svg">
  <sodipodi:namedview
     id="namedview4942"
     pagecolor="#ffffff"
     bordercolor="#666666"
     borderopacity="1.0"
     inkscape:showpageshadow="2"
     inkscape:pageopacity="0.0"
     inkscape:pagecheckerboard="0"
     inkscape:deskcolor="#d1d1d1"
     inkscape:document-units="mm"
     showgrid="false"
     inkscape:zoom="0.914906"
     inkscape:cx="93.998728"
     inkscape:cy="262.32203"
     inkscape:window-width="1312"
     inkscape:window-height="837"
     inkscape:window-x="11"
     inkscape:window-y="37"
     inkscape:window-maximized="0"
     inkscape:current-layer="layer1" />
  <defs
     id="defs4937" />
  <g
     inkscape:label="Layer 1"
     inkscape:groupmode="layer"
     id="layer1"
     transform="translate(-45.93342,-76.587935)">
    <g
       id="g103666"
       transform="matrix(0.26458333,0,0,0.26458333,-96.866569,-205.14804)">
      <path
         id="path5802-1-3-3"
         style="fill:#ffffff;fill-opacity:1;stroke:#be0000;stroke-width:2.593;stroke-miterlimit:4;stroke-dasharray:none;stroke-opacity:1"
         d="m 661.86013,1103.8715 h 0.11133 c 45.81924,-3e-4 82.96314,37.1436 82.96289,82.9629 3.2e-4,25.9992 -12.18756,50.495 -32.92578,66.1757 l 3.11719,6.0801 -3.18555,7.5821 -5.08984,2.8144 -8.33398,-1.998 -2.72657,-4.8965 c -10.64162,4.7502 -22.16464,7.2053 -33.81836,7.2051 -13.28297,4e-4 -26.37187,-3.1886 -38.16601,-9.2989 l -18.84375,9.2383 h -8.30664 l -7.37891,-8.1504 -0.0723,-9.916 11.5918,-8.793 c -14.01478,-15.2994 -21.78816,-35.2948 -21.78711,-56.0429 -2.9e-4,-45.7758 37.0758,-82.9018 82.85156,-82.9629 z"
         sodipodi:nodetypes="cscccccccccccccccsc" />
      <path
         id="path5802-1-3-36"
         style="fill:#ff8f30;fill-opacity:1;stroke:#be0000;stroke-width:2.593;stroke-miterlimit:4;stroke-dasharray:none;stroke-opacity:1"
         d="m 662.13162,1066.1254 c -61.47644,0.016 -114.16339,46.6011 -120.49219,109.082 -6.75074,66.6463 41.80294,126.1438 108.44922,132.8945 66.64631,6.7508 126.15162,-41.8029 132.90234,-108.4492 6.75075,-66.6463 -41.81075,-126.1438 -108.45703,-132.8945 -4.1654,-0.4219 -8.30392,-0.6339 -12.40234,-0.6328 z m -0.27149,37.7461 a 82.96244,82.96244 0 0 1 0.11133,0 82.96244,82.96244 0 0 1 82.96289,82.9629 82.96244,82.96244 0 0 1 -32.92578,66.1757 l 3.11719,6.0801 -3.18555,7.582 -5.08984,2.8145 -8.33398,-1.9981 -2.72657,-4.8964 a 82.96244,82.96244 0 0 1 -33.81836,7.205 82.96244,82.96244 0 0 1 -38.16601,-9.2988 l -18.84375,9.2383 h -8.30664 l -7.37891,-8.1504 -0.0723,-9.916 11.5918,-8.793 a 82.96244,82.96244 0 0 1 -21.78711,-56.0389 82.96244,82.96244 0 0 1 82.85156,-82.9629 z" />
      <circle
         style="fill:none;fill-opacity:1;stroke:none;stroke-opacity:1"
         id="path1942-5-7"
         cx="-780.2373"
         cy="-1113.2114"
         r="90.70443"
         transform="rotate(-174.12018)" />
      <path
         id="path1824-5"
         style="fill:none;fill-opacity:1;stroke:none;stroke-opacity:0.995984"
         d="m 556.19823,1143.8122 a 115.233,115.233 0 0 0 63.67511,150.0093 115.233,115.233 0 0 0 150.00925,-63.6753 115.233,115.233 0 0 0 -63.67514,-150.0092 115.233,115.233 0 0 0 -150.00922,63.6752 z" />
      <path
         style="font-size:34.6667px;line-height:1.25;font-family:'Politics Head';-inkscape-font-specification:'Politics Head';fill:#ffffff"
         d="m 565.42375,1168.408 c -0.0645,0.2978 -0.21476,0.3519 -0.41907,0.2556 l -6.73117,-3.4669 -0.66037,-0.2296 0.12541,-0.579 0.6962,0.064 7.55886,-0.3546 c 0.22581,-0 0.33666,0.1249 0.27217,0.4227 z m 5.33294,-4.2313 c 0.0537,-0.2482 0.10475,-0.3237 0.28093,-0.3375 l 3.09661,-0.1434 c 0.17619,-0.014 0.28398,-0.1117 0.3234,-0.2936 l 0.8886,-4.1028 c 0.0538,-0.2482 -0.004,-0.3819 -0.16932,-0.4177 -0.0496,-0.011 -0.0827,-0.018 -0.18915,-0.01 l -21.96131,1.5998 c -0.24594,0.016 -0.40832,0.206 -0.46207,0.4542 l -1.08567,5.0127 c -0.0537,0.2481 0.0155,0.4883 0.23275,0.6046 0,0 19.15652,10.4707 19.20256,10.4979 0.0755,0.051 0.21728,0.1164 0.3,0.1343 0.16543,0.036 0.27682,-0.079 0.33056,-0.3268 l 0.88502,-4.0862 c 0.0358,-0.1654 -0.0218,-0.2992 -0.17649,-0.3846 l -2.7598,-1.4118 c -0.15468,-0.085 -0.17344,-0.1588 -0.11611,-0.4235 z m 9.12966,-14.4372 1.03499,-2.1882 c 1.96865,-4.162 0.764,-7.3159 -2.55647,-8.8865 l -14.07759,-6.6586 c -0.32133,-0.152 -0.61435,-0.047 -0.76634,0.2741 l -1.53438,3.244 c -0.152,0.3213 -0.0472,0.6144 0.27417,0.7664 l 13.61854,6.4415 c 1.14039,0.5581 1.71915,1.7494 1.14013,2.9735 l -1.03498,2.1882 c -0.57178,1.2088 -1.8131,1.5767 -3.02194,1.0049 l -13.61853,-6.4416 c -0.32134,-0.1519 -0.61435,-0.047 -0.76634,0.2742 l -1.53439,3.244 c -0.15199,0.3213 -0.0472,0.6143 0.27418,0.7663 l 14.07759,6.6587 c 3.44288,1.6285 6.45034,0.6542 8.49136,-3.6609 z m 6.8967,-13.5422 5.6199,-6.993 c 2.89478,-3.6021 2.49298,-7.1824 -0.68686,-9.7379 l -6.61036,-5.3124 c -3.17984,-2.5554 -6.75212,-2.1906 -9.6575,1.4246 l -5.61991,6.993 c -0.22267,0.2771 -0.18899,0.5865 0.0881,0.8092 l 16.05751,12.9045 c 0.27708,0.2227 0.58645,0.189 0.80913,-0.088 z m -0.39555,-6.3984 c -0.22268,0.2771 -0.53205,0.3108 -0.80913,0.088 l -9.3284,-7.4967 c -0.27708,-0.2227 -0.31076,-0.5321 -0.0881,-0.8092 l 2.6827,-3.3381 c 0.83769,-1.0424 2.2102,-1.264 3.33171,-0.3627 l 6.57078,5.2806 c 1.12152,0.9013 1.16081,2.2575 0.32313,3.2999 z m 14.50993,-9.49 2.69658,-2.3677 c 0.26711,-0.2346 0.28728,-0.5451 0.0527,-0.8122 l -13.70378,-15.6071 c -0.23453,-0.2671 -0.54508,-0.2873 -0.81219,-0.053 l -2.69658,2.3677 c -0.26712,0.2345 -0.28728,0.5451 -0.0527,0.8122 l 13.70377,15.6071 c 0.23454,0.2671 0.54509,0.2872 0.8122,0.053 z m 15.10431,-10.7622 c 3.92859,-2.401 4.65067,-5.6989 2.73519,-8.8331 l -5.32272,-8.7094 c -1.99491,-3.2641 -5.03531,-4.0841 -9.10833,-1.5949 l -2.0654,1.2623 c -3.92858,2.4009 -4.64183,5.7134 -2.73519,8.8331 l 5.32272,8.7093 c 1.99492,3.2642 5.03532,4.0842 9.10834,1.595 z m -2.2509,-3.683 -2.06539,1.2622 c -1.14103,0.6974 -2.38078,0.3243 -3.07812,-0.8167 l -4.79309,-7.8428 c -0.65321,-1.0688 -0.47832,-2.4056 0.67715,-3.1118 l 2.06539,-1.2622 c 1.14102,-0.6974 2.38078,-0.3243 3.07811,0.8167 l 4.7931,7.8428 c 0.66203,1.0832 0.47832,2.4056 -0.67715,3.1118 z m 15.92345,-26.2661 c -0.0915,-0.1512 -0.22735,-0.2035 -0.40764,-0.157 l -4.04832,1.0449 c -0.24585,0.063 -0.33943,0.175 -0.29713,0.3389 0.0127,0.049 0.0502,0.1269 0.0793,0.1718 l 11.37652,18.881 c 0.12478,0.2126 0.36747,0.2723 0.61332,0.2089 l 4.93338,-1.2734 c 0.24584,-0.063 0.4293,-0.2332 0.43564,-0.4795 l 0.74889,-21.8883 c 0.003,-0.1232 0.006,-0.2464 -0.0106,-0.3119 -0.0423,-0.1639 -0.19457,-0.212 -0.44042,-0.1486 l -4.14666,1.0703 c -0.1639,0.042 -0.25748,0.1539 -0.26435,0.3305 l -0.14798,15.6145 0.1,0.7259 -0.55726,0.1438 -0.26386,-0.6836 z m 22.87078,17.468 3.57539,-0.307 c 0.35417,-0.03 0.55459,-0.2685 0.52418,-0.6226 l -1.77686,-20.6934 c -0.0304,-0.3542 -0.26848,-0.5546 -0.62265,-0.5242 l -3.57539,0.307 c -0.35416,0.03 -0.55458,0.2685 -0.52417,0.6226 l 1.77685,20.6934 c 0.0304,0.3542 0.26849,0.5546 0.62265,0.5242 z m 10.15881,-0.7816 8.93694,0.7851 c 4.60337,0.4044 7.35637,-1.9196 7.71337,-5.9834 l 0.74214,-8.4479 c 0.357,-4.0638 -1.93178,-6.8307 -6.55201,-7.2366 l -8.93695,-0.7851 c -0.3541,-0.031 -0.59257,0.1688 -0.62367,0.5229 l -1.80277,20.5213 c -0.0311,0.3541 0.16884,0.5926 0.52295,0.6237 z m 5.09914,-3.8851 c -0.35411,-0.031 -0.55406,-0.2696 -0.52295,-0.6237 l 1.04729,-11.9215 c 0.0311,-0.3542 0.26958,-0.5541 0.62368,-0.523 l 4.26613,0.3748 c 1.33211,0.117 2.27923,1.1348 2.15331,2.5681 l -0.73769,8.3973 c -0.12592,1.4333 -1.23154,2.2198 -2.56365,2.1028 z m 28.61519,10.6387 c 0.33849,0.1086 0.61523,-0.034 0.72379,-0.3723 l 0.96669,-3.0141 c 0.10856,-0.3385 -0.0338,-0.6152 -0.37226,-0.7238 l -8.09144,-2.5951 c -0.33849,-0.1085 -0.48082,-0.3853 -0.37226,-0.7238 l 1.01839,-3.1753 c 0.10856,-0.3385 0.3853,-0.4808 0.72379,-0.3722 l 6.64078,2.1298 c 0.33849,0.1085 0.61523,-0.034 0.72379,-0.3723 l 0.96669,-3.0141 c 0.10856,-0.3385 -0.0338,-0.6152 -0.37226,-0.7238 l -6.64078,-2.1298 c -0.33849,-0.1086 -0.48083,-0.3853 -0.37227,-0.7238 l 0.9667,-3.0142 c 0.10856,-0.3385 0.3853,-0.4808 0.72379,-0.3722 l 8.09144,2.5951 c 0.33848,0.1085 0.61523,-0.034 0.72379,-0.3723 l 0.96669,-3.0142 c 0.10856,-0.3384 -0.0338,-0.6152 -0.37226,-0.7237 l -12.6046,-4.0426 c -0.33848,-0.1085 -0.61523,0.034 -0.72378,0.3723 l -6.29128,19.6161 c -0.10856,0.3385 0.0338,0.6152 0.37227,0.7238 z m 12.53919,6.9732 c 3.96837,2.3346 7.21771,1.4182 9.08026,-1.7477 l 5.17566,-8.7975 c 1.9398,-3.2973 1.23106,-6.3655 -2.8832,-8.786 l -2.08631,-1.2274 c -3.96836,-2.3346 -7.22628,-1.4036 -9.08025,1.7478 l -5.17566,8.7975 c -1.9398,3.2972 -1.23106,6.3655 2.88319,8.7859 z m 2.18872,-3.7203 -2.08631,-1.2274 c -1.15258,-0.6781 -1.40741,-1.9474 -0.72933,-3.1 l 4.66066,-7.9222 c 0.63516,-1.0796 1.8968,-1.555 3.06396,-0.8683 l 2.08631,1.2274 c 1.15258,0.678 1.4074,1.9474 0.72933,3.1 l -4.66067,7.9221 c -0.64374,1.0942 -1.89679,1.555 -3.06395,0.8684 z m 29.20407,7.5162 1.97144,-5.2435 c 0.0675,-0.201 0.0145,-0.3827 -0.18112,-0.5937 l -2.96891,-3.2028 c -0.11507,-0.1242 -0.30644,-0.1314 -0.40576,-0.039 -0.0745,0.069 -0.12504,0.139 -0.13927,0.1984 l -3.42205,10.6504 c -0.0276,0.095 -0.0666,0.1771 -0.1535,0.2577 -0.0621,0.057 -0.14806,0.1141 -0.28099,0.145 l -11.69154,2.8748 c -0.0966,0.02 -0.19409,0.065 -0.25616,0.122 -0.13655,0.1266 -0.11807,0.2711 0.0661,0.4697 l 2.96891,3.2028 c 0.25316,0.2731 0.49147,0.3061 0.74581,0.2319 l 3.24445,-0.9072 c 1.87612,-0.5158 3.4476,-1.2108 4.1552,-1.8667 l 0.069,0.074 c -0.25916,0.5172 -0.78745,1.8148 -0.98453,2.2745 l -2.0423,5.2168 c -0.10475,0.2356 -0.10141,0.4633 0.15176,0.7364 l 3.01493,3.2524 c 0.16111,0.1738 0.34976,0.2528 0.48631,0.1263 0.0621,-0.058 0.0878,-0.1045 0.11626,-0.2232 l 3.46201,-10.7567 c 0.0285,-0.1187 0.0445,-0.2259 0.13139,-0.3064 0.0869,-0.081 0.18349,-0.1009 0.28009,-0.1212 l 11.57102,-2.8554 c 0.0488,-0.022 0.13474,-0.079 0.19681,-0.1362 0.0993,-0.092 0.1429,-0.2941 0.0163,-0.4306 l -3.1185,-3.3642 c -0.16111,-0.1738 -0.34885,-0.2767 -0.56686,-0.2131 l -3.21962,0.8841 c -2.35301,0.7732 -3.33588,1.1073 -4.25904,2.0784 l -0.0691,-0.074 c 0.25916,-0.5173 0.91431,-2.0016 1.1114,-2.4613 z m -3.35665,21.7236 1.77852,3.1168 c 0.17617,0.3087 0.47636,0.3908 0.7851,0.2146 l 6.86581,-3.9177 c 0.30874,-0.1762 0.60893,-0.094 0.7851,0.2146 l 3.06207,5.3662 c 0.17618,0.3087 0.0941,0.6089 -0.21463,0.7851 l -6.86581,3.9178 c -0.30874,0.1761 -0.39081,0.4763 -0.21464,0.7851 l 1.77852,3.1168 c 0.17618,0.3087 0.47636,0.3908 0.7851,0.2146 l 18.0393,-10.2936 c 0.30874,-0.1761 0.3908,-0.4763 0.21463,-0.7851 l -1.77852,-3.1168 c -0.17617,-0.3087 -0.47636,-0.3908 -0.7851,-0.2146 l -6.42475,3.6661 c -0.30874,0.1761 -0.60893,0.094 -0.7851,-0.2147 l -3.06207,-5.3662 c -0.17618,-0.3087 -0.0941,-0.6089 0.21463,-0.7851 l 6.42475,-3.6661 c 0.30874,-0.1761 0.39081,-0.4763 0.21464,-0.7851 l -1.77852,-3.1168 c -0.17618,-0.3087 -0.47636,-0.3908 -0.7851,-0.2146 l -18.0393,10.2936 c -0.30874,0.1762 -0.3908,0.4763 -0.21463,0.7851 z m 19.02387,22.1005 c -0.0858,-0.2924 0.0204,-0.4117 0.2458,-0.425 l 7.56953,-0.1743 0.68977,-0.1141 0.16678,0.5685 -0.64212,0.2765 -6.46883,3.9264 c -0.19686,0.1107 -0.35539,0.051 -0.44116,-0.241 z m -2.65995,6.2665 c 0.0715,0.2436 0.0628,0.3344 -0.0853,0.4307 l -2.65099,1.6068 c -0.14813,0.096 -0.19599,0.2339 -0.14357,0.4126 l 1.18171,4.0282 c 0.0715,0.2436 0.18604,0.3335 0.34847,0.2858 0.0487,-0.014 0.0812,-0.024 0.16914,-0.085 l 18.52201,-11.9077 c 0.20833,-0.1317 0.26009,-0.3762 0.18861,-0.6198 l -1.44378,-4.9215 c -0.0715,-0.2437 -0.24712,-0.4215 -0.49358,-0.4197 0,0 -21.83129,-0.034 -21.88479,-0.036 -0.0907,-0.01 -0.24645,0 -0.32767,0.026 -0.16242,0.048 -0.20551,0.2014 -0.13404,0.4451 l 1.17695,4.0119 c 0.0476,0.1624 0.16221,0.2523 0.33894,0.2534 l 3.09889,-0.08 c 0.17672,0 0.22826,0.056 0.3045,0.3164 z m -1.41119,10.8632 0.42498,3.5633 c 0.0421,0.353 0.28666,0.5454 0.63963,0.5033 l 20.62339,-2.4597 c 0.35297,-0.042 0.54541,-0.2866 0.50331,-0.6396 l -0.42498,-3.5633 c -0.0421,-0.353 -0.28666,-0.5454 -0.63963,-0.5033 l -20.62339,2.4597 c -0.35296,0.042 -0.54541,0.2866 -0.50331,0.6396 z m 1.1343,10.1279 -0.20409,3.5827 c -0.0202,0.3549 0.18696,0.5871 0.54186,0.6074 l 6.91197,0.3937 c 2.21386,0.1261 4.5764,0.023 5.55509,-0.1922 l -0.008,0.1352 c -0.0676,-0 -0.77781,0.2609 -1.5276,0.6251 l -11.64413,6.1863 c -0.2105,0.1237 -0.28676,0.2719 -0.29928,0.4916 l -0.18676,3.2785 c -0.0202,0.3549 0.18696,0.5871 0.54185,0.6074 l 20.73594,1.1812 c 0.35489,0.02 0.5871,-0.187 0.60732,-0.5419 l 0.20409,-3.5827 c 0.0202,-0.3549 -0.18696,-0.5871 -0.54186,-0.6073 l -6.94577,-0.3957 c -1.90967,-0.1088 -4.64689,0.024 -6.29044,0.3029 l 0.008,-0.1352 c 0.22355,-0.055 1.19593,-0.4575 1.89502,-0.8246 l 12.07871,-6.0767 c 0.15787,-0.093 0.252,-0.257 0.26451,-0.4767 l 0.18869,-3.3123 c 0.0202,-0.3549 -0.18696,-0.5871 -0.54186,-0.6073 l -20.73593,-1.1813 c -0.35489,-0.02 -0.5871,0.187 -0.60732,0.5419 z"
         id="text1875-5-3"
         aria-label="audio video xhain" />
      <circle
         style="fill:none;fill-opacity:1;stroke:none;stroke-opacity:1"
         id="path1942-2-2-6"
         cx="871.35907"
         cy="1043.3983"
         transform="matrix(-0.35836796,0.93358042,0.93358042,0.35836796,0,0)"
         r="111.03123" />
      <circle
         r="12.512966"
         cy="1230.1726"
         cx="643.75208"
         id="path10316"
         style="fill:#e86b00;fill-opacity:1;stroke:#e86b00;stroke-width:1.78531;stroke-linecap:round;stroke-linejoin:round;stroke-miterlimit:4;stroke-dasharray:none;stroke-dashoffset:0;stroke-opacity:1;paint-order:normal" />
      <path
         sodipodi:nodetypes="cccssc"
         inkscape:connector-curvature="0"
         id="path10318"
         d="m 627.4696,1231.7151 c 0.17143,4.6276 1.97104,6.513 3.68498,8.5697 1.91307,2.377 5.29437,4.0442 8.22694,5.1418 0,0 -34.53598,17.6537 -37.79247,18.1678 -3.25649,0.5142 -7.19857,-3.085 -7.71275,-5.8274 -0.51419,-2.7423 33.5933,-26.0519 33.5933,-26.0519 z"
         style="fill:#e86b00;fill-opacity:1;stroke:#e86b00;stroke-width:2.59116;stroke-linecap:round;stroke-linejoin:round;stroke-miterlimit:4;stroke-dasharray:none;stroke-opacity:1" />
      <path
         sodipodi:nodetypes="ccc"
         inkscape:connector-curvature="0"
         id="path10322"
         d="m 636.12502,1217.7464 c 0.80559,5.9646 2.69894,11.0261 6.34159,14.4829 2.65662,2.6566 10.11227,8.9125 10.96924,9.1696"
         style="fill:none;fill-opacity:1;stroke:#ffffff;stroke-width:2.59116;stroke-linecap:round;stroke-linejoin:round;stroke-miterlimit:4;stroke-dasharray:none;stroke-opacity:1" />
      <g
         id="g1893"
         style="stroke:#ffb126;stroke-opacity:1"
         transform="translate(532.15701,274.19888)">
        <path
           inkscape:connector-curvature="0"
           id="path10330"
           d="m 86.594364,878.84057 -0.04468,53.69895 33.430406,-18.23015 -0.002,-17.87087 z"
           style="fill:none;fill-opacity:1;stroke:#ffb126;stroke-width:8.29228;stroke-linecap:round;stroke-linejoin:round;stroke-miterlimit:4;stroke-dasharray:none;stroke-opacity:1"
           sodipodi:nodetypes="ccccc" />
        <circle
           r="11.824103"
           cy="866.31055"
           cx="186.13672"
           id="path10334"
           style="fill:none;fill-opacity:1;stroke:#ffb126;stroke-width:8.29228;stroke-linecap:round;stroke-linejoin:round;stroke-miterlimit:4;stroke-dasharray:none;stroke-dashoffset:0;stroke-opacity:1;paint-order:normal"
           transform="rotate(0.83793145)" />
        <circle
           r="19.917736"
           cy="859.2312"
           cx="152.55554"
           id="path10336"
           style="fill:none;fill-opacity:1;stroke:#ffb126;stroke-width:8.29228;stroke-linecap:round;stroke-linejoin:round;stroke-miterlimit:4;stroke-dasharray:none;stroke-dashoffset:0;stroke-opacity:1;paint-order:normal"
           transform="rotate(0.83793145)" />
        <rect
           style="fill:none;stroke:#ffb126;stroke-width:8.29228;stroke-linecap:round;stroke-linejoin:round;stroke-miterlimit:4;stroke-dasharray:none;stroke-opacity:1"
           id="rect1686"
           width="69.673256"
           height="41.591423"
           x="120.0398"
           y="883.77124" />
      </g>
      <path
         id="path1702"
         style="fill:none;stroke:#c98b56;stroke-width:8.29228;stroke-linecap:round;stroke-linejoin:round;stroke-miterlimit:4;stroke-dasharray:none;stroke-opacity:1"
         d="m 697.92069,1207.5371 -30.18456,52.9243 m 8.91104,-52.6371 28.24006,51.9089"
         sodipodi:nodetypes="cccc" />
      <circle
         style="fill:#be0000;fill-opacity:1;stroke:none;stroke-width:0.259195"
         id="path7538-9-26-6-4-6-0-6"
         cx="721.63281"
         cy="1158.1228"
         r="3.8879318" />
      <circle
         style="fill:#be0000;fill-opacity:1;stroke:none;stroke-width:0.259195"
         id="path7538-9-26-6-4-6-0-6-3"
         cx="721.62628"
         cy="1199.4205"
         r="3.8879318" />
      <circle
         style="fill:#be0000;fill-opacity:1;stroke:none;stroke-width:0.259195"
         id="path7538-9-26-6-4-6-0-6-2"
         cx="652.40472"
         cy="1199.3895"
         r="3.8879318" />
      <circle
         style="fill:#be0000;fill-opacity:1;stroke:none;stroke-width:0.259195"
         id="path7538-9-26-6-4-6-0-6-27"
         cx="652.47412"
         cy="1158.1498"
         r="3.8879318" />
      <circle
         style="fill:#be0000;fill-opacity:1;stroke:none;stroke-width:0.259195"
         id="path7538-9-26-6-4-6-0-6-36"
         cx="618.9281"
         cy="1153.2756"
         r="3.8879318" />
      <circle
         style="fill:#be0000;fill-opacity:1;stroke:none;stroke-width:0.259195"
         id="path7538-9-26-6-4-6-0-6-6"
         cx="618.84991"
         cy="1206.5723"
         r="3.8879318" />
      <circle
         style="fill:#be0000;fill-opacity:1;stroke:none;stroke-width:0.259195"
         id="path7538-9-26-6-4-6-0-6-7"
         cx="704.8764"
         cy="1259.7297"
         r="3.8879318" />
      <circle
         style="fill:#be0000;fill-opacity:1;stroke:none;stroke-width:0.259195"
         id="path7538-9-26-6-4-6-0-6-23"
         cx="667.76398"
         cy="1260.4928"
         r="3.8879318" />
      <circle
         style="fill:#be0000;fill-opacity:1;stroke:none;stroke-width:0.259195"
         id="path7538-9-26-6-4-6-0-6-22"
         cx="697.90765"
         cy="1207.5303"
         r="3.8879318" />
      <circle
         style="fill:#be0000;fill-opacity:1;stroke:none;stroke-width:0.259195"
         id="path7538-9-26-6-4-6-0-6-361"
         cx="676.65173"
         cy="1207.7877"
         r="3.8879318" />
      <circle
         style="fill:#ffffff;fill-opacity:1;stroke:none;stroke-width:0.259195"
         id="path7614-7-64-1-47-56-7-7"
         cx="721.63281"
         cy="1158.1228"
         r="2.5919547" />
      <circle
         style="fill:#ffffff;fill-opacity:1;stroke:none;stroke-width:0.259195"
         id="path7614-7-64-1-47-56-7-7-5"
         cx="721.62628"
         cy="1199.4205"
         r="2.5919547" />
      <circle
         style="fill:#ffffff;fill-opacity:1;stroke:none;stroke-width:0.259195"
         id="path7614-7-64-1-47-56-7-7-9"
         cx="652.40472"
         cy="1199.3895"
         r="2.5919547" />
      <circle
         style="fill:#ffffff;fill-opacity:1;stroke:none;stroke-width:0.259195"
         id="path7614-7-64-1-47-56-7-7-0"
         cx="652.47412"
         cy="1158.1498"
         r="2.5919547" />
      <circle
         style="fill:#ffffff;fill-opacity:1;stroke:none;stroke-width:0.259195"
         id="path7614-7-64-1-47-56-7-7-06"
         cx="618.9281"
         cy="1153.2756"
         r="2.5919547" />
      <circle
         style="fill:#ffffff;fill-opacity:1;stroke:none;stroke-width:0.259195"
         id="path7614-7-64-1-47-56-7-7-1"
         cx="618.84991"
         cy="1206.5723"
         r="2.5919547" />
      <circle
         style="fill:#ffffff;fill-opacity:1;stroke:none;stroke-width:0.259195"
         id="path7614-7-64-1-47-56-7-7-92"
         cx="704.8764"
         cy="1259.7297"
         r="2.5919547" />
      <circle
         style="fill:#ffffff;fill-opacity:1;stroke:none;stroke-width:0.259195"
         id="path7614-7-64-1-47-56-7-7-7"
         cx="667.76398"
         cy="1260.4928"
         r="2.5919547" />
      <circle
         style="fill:#ffffff;fill-opacity:1;stroke:none;stroke-width:0.259195"
         id="path7614-7-64-1-47-56-7-7-8"
         cx="697.90765"
         cy="1207.5303"
         r="2.5919547" />
      <circle
         style="fill:#ffffff;fill-opacity:1;stroke:none;stroke-width:0.259195"
         id="path7614-7-64-1-47-56-7-7-2"
         cx="676.65173"
         cy="1207.7877"
         r="2.5919547" />
      <g
         id="g2253"
         transform="translate(517.70014,268.85667)">
        <circle
           style="fill:#be0000;fill-opacity:1;stroke:none;stroke-width:0.259195"
           id="path7538-9-26-6-4-6-0-6-0"
           cx="173.26442"
           cy="882.89294"
           r="3.8879318" />
        <circle
           style="fill:#ffffff;fill-opacity:1;stroke:none;stroke-width:0.259195"
           id="path7614-7-64-1-47-56-7-7-3"
           cx="173.26442"
           cy="882.89294"
           r="2.5919547" />
      </g>
      <path
         style="font-size:48px;line-height:1.25;font-family:'Politics Head';-inkscape-font-specification:'Politics Head';letter-spacing:10.36px;fill:#ffffff"
         d="m 85.960449,1010.3484 c -0.38583,-0.1706 -0.417172,-0.3895 -0.229636,-0.6397 l 6.581499,-8.1604 0.495824,-0.8314 0.750226,0.3318 -0.281474,0.9262 -1.630009,10.3501 c -0.05893,0.307 -0.263369,0.4216 -0.6492,0.251 z m 4.249083,8.414 c 0.321526,0.1422 0.409742,0.2324 0.379255,0.4752 l -0.670381,4.2395 c -0.03049,0.2428 0.07216,0.4164 0.307947,0.5206 l 5.315885,2.3509 c 0.321526,0.1422 0.518967,0.1014 0.61376,-0.113 0.02844,-0.064 0.0474,-0.1072 0.0614,-0.2547 l 3.963451,-30.22983 c 0.047,-0.33801 -0.16533,-0.61129 -0.486857,-0.75348 l -6.494812,-2.87221 c -0.321525,-0.14219 -0.666535,-0.11537 -0.884985,0.1468 0,0 -19.549616,23.05522 -19.599488,23.11002 -0.09027,0.088 -0.21845,0.2622 -0.265846,0.3694 -0.09479,0.2143 0.02929,0.3973 0.350817,0.5395 l 5.29445,2.3414 c 0.214351,0.095 0.411792,0.054 0.57089,-0.132 l 2.685273,-3.3484 c 0.159098,-0.186 0.263796,-0.1909 0.606756,-0.039 z m 25.302288,-19.00129 c -0.047,-0.24014 -0.19877,-0.37285 -0.45534,-0.39813 l -5.76117,-0.56764 c -0.34986,-0.0345 -0.52463,0.0661 -0.54761,0.29931 -0.007,0.07 0.005,0.18889 0.0214,0.26116 l 5.80865,29.96399 c 0.0611,0.3357 0.34826,0.5289 0.69812,0.5633 l 7.0207,0.6918 c 0.34986,0.034 0.66917,-0.099 0.79464,-0.4163 l 11.38879,-28.1047 c 0.0627,-0.1586 0.12547,-0.3173 0.13467,-0.4106 0.023,-0.2333 -0.15213,-0.3683 -0.502,-0.4027 l -5.90111,-0.5815 c -0.23325,-0.023 -0.40801,0.078 -0.50096,0.3039 l -7.62222,20.233 -0.21544,0.9914 -0.79304,-0.078 -0.0178,-1.0145 z m 34.5716,5.83119 -4.93334,-5.9853 c -0.19476,-0.2198 -0.44942,-0.28157 -0.83775,-0.1924 l -5.8935,1.3533 c -0.22843,0.052 -0.36922,0.2771 -0.32725,0.4599 0.0315,0.137 0.0805,0.246 0.14196,0.304 l 10.42236,11.4582 c 0.0948,0.098 0.16666,0.2022 0.20338,0.3621 0.0262,0.1142 0.0348,0.2565 -0.0198,0.4374 l -4.61836,16.0179 c -0.0423,0.13 -0.0565,0.2775 -0.0303,0.3918 0.0577,0.2512 0.24382,0.3287 0.60931,0.2448 l 5.89351,-1.3532 c 0.50254,-0.1154 0.70661,-0.3787 0.79308,-0.7352 l 1.15032,-4.5206 c 0.67568,-2.608 0.92596,-4.974 0.62699,-6.276 l 0.13706,-0.031 c 0.44196,0.668 1.63485,2.1977 2.05059,2.7515 l 4.85245,6.0519 c 0.21049,0.2884 0.48613,0.4415 0.98868,0.3261 l 5.98488,-1.3742 c 0.3198,-0.073 0.54485,-0.2454 0.48715,-0.4967 -0.0262,-0.1142 -0.0648,-0.1775 -0.18765,-0.2935 l -10.52236,-11.5795 c -0.12284,-0.1161 -0.24044,-0.2093 -0.27716,-0.3692 -0.0367,-0.1599 0.006,-0.2899 0.0479,-0.4198 l 4.55846,-15.85994 c 0.007,-0.0738 -0.002,-0.21608 -0.0277,-0.3303 -0.042,-0.18274 -0.25431,-0.37446 -0.50558,-0.31676 l -6.19047,1.42144 c -0.3198,0.0734 -0.57294,0.22775 -0.64705,0.53333 l -1.16082,4.47483 c -0.69581,3.3581 -0.97316,4.7684 -0.44458,6.5468 l -0.13706,0.032 c -0.44196,-0.6681 -1.77157,-2.4789 -2.1873,-3.0327 z"
         id="text1950-9"
         transform="translate(532.15701,274.19888)"
         aria-label="avx" />
      <g
         id="g2323"
         transform="translate(532.15701,273.61338)">
        <path
           id="path1824-9-2"
           style="fill:none;fill-opacity:1;stroke:none;stroke-width:1.01591;stroke-opacity:1"
           d="M 71.752947,1015.0688 A 116.79357,117.33935 1 0 0 231.29984,972.10683 116.79357,117.33935 1 0 0 188.5632,811.8219 116.79357,117.33935 1 0 0 29.016447,854.78403 a 116.79357,117.33935 1 0 0 42.7365,160.28477 z" />
        <path
           style="font-size:48px;line-height:1.25;font-family:'Politics Head';-inkscape-font-specification:'Politics Head';letter-spacing:10.36px;fill:#ffffff"
           d="m 85.960449,1010.3484 c -0.38583,-0.1706 -0.417172,-0.3895 -0.229636,-0.6397 l 6.581499,-8.1604 0.495824,-0.8314 0.750226,0.3318 -0.281474,0.9262 -1.630009,10.3501 c -0.05893,0.307 -0.263369,0.4216 -0.6492,0.251 z m 4.249083,8.414 c 0.321526,0.1422 0.409742,0.2324 0.379255,0.4752 l -0.670381,4.2395 c -0.03049,0.2428 0.07216,0.4164 0.307947,0.5206 l 5.315885,2.3509 c 0.321526,0.1422 0.518967,0.1014 0.61376,-0.113 0.02844,-0.064 0.0474,-0.1072 0.0614,-0.2547 l 3.963451,-30.22983 c 0.047,-0.33801 -0.16533,-0.61129 -0.486857,-0.75348 l -6.494812,-2.87221 c -0.321525,-0.14219 -0.666535,-0.11537 -0.884985,0.1468 0,0 -19.549616,23.05522 -19.599488,23.11002 -0.09027,0.088 -0.21845,0.2622 -0.265846,0.3694 -0.09479,0.2143 0.02929,0.3973 0.350817,0.5395 l 5.29445,2.3414 c 0.214351,0.095 0.411792,0.054 0.57089,-0.132 l 2.685273,-3.3484 c 0.159098,-0.186 0.263796,-0.1909 0.606756,-0.039 z m 25.302288,-19.00129 c -0.047,-0.24014 -0.19877,-0.37285 -0.45534,-0.39813 l -5.76117,-0.56764 c -0.34986,-0.0345 -0.52463,0.0661 -0.54761,0.29931 -0.007,0.07 0.005,0.18889 0.0214,0.26116 l 5.80865,29.96399 c 0.0611,0.3357 0.34826,0.5289 0.69812,0.5633 l 7.0207,0.6918 c 0.34986,0.034 0.66917,-0.099 0.79464,-0.4163 l 11.38879,-28.1047 c 0.0627,-0.1586 0.12547,-0.3173 0.13467,-0.4106 0.023,-0.2333 -0.15213,-0.3683 -0.502,-0.4027 l -5.90111,-0.5815 c -0.23325,-0.023 -0.40801,0.078 -0.50096,0.3039 l -7.62222,20.233 -0.21544,0.9914 -0.79304,-0.078 -0.0178,-1.0145 z m 34.5716,5.83119 -4.93334,-5.9853 c -0.19476,-0.2198 -0.44942,-0.28157 -0.83775,-0.1924 l -5.8935,1.3533 c -0.22843,0.052 -0.36922,0.2771 -0.32725,0.4599 0.0315,0.137 0.0805,0.246 0.14196,0.304 l 10.42236,11.4582 c 0.0948,0.098 0.16666,0.2022 0.20338,0.3621 0.0262,0.1142 0.0348,0.2565 -0.0198,0.4374 l -4.61836,16.0179 c -0.0423,0.13 -0.0565,0.2775 -0.0303,0.3918 0.0577,0.2512 0.24382,0.3287 0.60931,0.2448 l 5.89351,-1.3532 c 0.50254,-0.1154 0.70661,-0.3787 0.79308,-0.7352 l 1.15032,-4.5206 c 0.67568,-2.608 0.92596,-4.974 0.62699,-6.276 l 0.13706,-0.031 c 0.44196,0.668 1.63485,2.1977 2.05059,2.7515 l 4.85245,6.0519 c 0.21049,0.2884 0.48613,0.4415 0.98868,0.3261 l 5.98488,-1.3742 c 0.3198,-0.073 0.54485,-0.2454 0.48715,-0.4967 -0.0262,-0.1142 -0.0648,-0.1775 -0.18765,-0.2935 l -10.52236,-11.5795 c -0.12284,-0.1161 -0.24044,-0.2093 -0.27716,-0.3692 -0.0367,-0.1599 0.006,-0.2899 0.0479,-0.4198 l 4.55846,-15.85994 c 0.007,-0.0738 -0.002,-0.21608 -0.0277,-0.3303 -0.042,-0.18274 -0.25431,-0.37446 -0.50558,-0.31676 l -6.19047,1.42144 c -0.3198,0.0734 -0.57294,0.22775 -0.64705,0.53333 l -1.16082,4.47483 c -0.69581,3.3581 -0.97316,4.7684 -0.44458,6.5468 l -0.13706,0.032 c -0.44196,-0.6681 -1.77157,-2.4789 -2.1873,-3.0327 z"
           id="text2307"
           aria-label="avx" />
      </g>
    </g>
  </g>
</svg>
