<?xml version="1.0" encoding="UTF-8" standalone="no"?>
<svg
   width="64.497658mm"
   height="64.498169mm"
   id="svg2"
   version="1.1"
   inkscape:version="1.3 (0e150ed, 2023-07-21)"
   sodipodi:docname="branch-logo-Baumschule-flat.svg"
   inkscape:export-filename="branch-logo-Baumschule.png"
   inkscape:export-xdpi="196.90637"
   inkscape:export-ydpi="196.90637"
   xml:space="preserve"
   xmlns:inkscape="http://www.inkscape.org/namespaces/inkscape"
   xmlns:sodipodi="http://sodipodi.sourceforge.net/DTD/sodipodi-0.dtd"
   xmlns="http://www.w3.org/2000/svg"
   xmlns:svg="http://www.w3.org/2000/svg"
   xmlns:rdf="http://www.w3.org/1999/02/22-rdf-syntax-ns#"
   xmlns:cc="http://creativecommons.org/ns#"
   xmlns:dc="http://purl.org/dc/elements/1.1/"><sodipodi:namedview
     id="base"
     pagecolor="#ffffff"
     bordercolor="#666666"
     borderopacity="1.0"
     inkscape:pageopacity="0.0"
     inkscape:pageshadow="2"
     inkscape:zoom="1.8386846"
     inkscape:cx="-36.439093"
     inkscape:cy="199.05535"
     inkscape:document-units="mm"
     inkscape:current-layer="layer2"
     showgrid="false"
     inkscape:window-width="1472"
     inkscape:window-height="891"
     inkscape:window-x="0"
     inkscape:window-y="37"
     inkscape:window-maximized="1"
     showguides="true"
     inkscape:guide-bbox="true"
     units="mm"
     inkscape:document-rotation="0"
     inkscape:pagecheckerboard="0"
     inkscape:showpageshadow="2"
     inkscape:deskcolor="#d1d1d1"><inkscape:grid
       type="xygrid"
       id="grid2985"
       empspacing="5"
       visible="false"
       enabled="true"
       snapvisiblegridlinesonly="true"
       originx="4.9737343e-06"
       originy="4.9685668e-06"
       spacingy="1"
       spacingx="1"
       units="mm" /></sodipodi:namedview><defs
     id="defs4"><marker
       inkscape:stockid="DotS"
       orient="auto"
       refY="0"
       refX="0"
       id="DotS"
       style="overflow:visible"><path
         id="path3828"
         d="m -2.5,-1 c 0,2.76 -2.24,5 -5,5 -2.76,0 -5,-2.24 -5,-5 0,-2.76 2.24,-5 5,-5 2.76,0 5,2.24 5,5 z"
         style="fill-rule:evenodd;stroke:#000000;stroke-width:1pt"
         transform="matrix(0.2,0,0,0.2,1.48,0.2)"
         inkscape:connector-curvature="0" /></marker><marker
       inkscape:stockid="DotS"
       orient="auto"
       refY="0"
       refX="0"
       id="DotS-1"
       style="overflow:visible"><path
         inkscape:connector-curvature="0"
         id="path3828-5"
         d="m -2.5,-1 c 0,2.76 -2.24,5 -5,5 -2.76,0 -5,-2.24 -5,-5 0,-2.76 2.24,-5 5,-5 2.76,0 5,2.24 5,5 z"
         style="fill-rule:evenodd;stroke:#000000;stroke-width:1pt"
         transform="matrix(0.2,0,0,0.2,1.48,0.2)" /></marker><marker
       inkscape:stockid="DotS"
       orient="auto"
       refY="0"
       refX="0"
       id="marker4395"
       style="overflow:visible"><path
         inkscape:connector-curvature="0"
         id="path4397"
         d="m -2.5,-1 c 0,2.76 -2.24,5 -5,5 -2.76,0 -5,-2.24 -5,-5 0,-2.76 2.24,-5 5,-5 2.76,0 5,2.24 5,5 z"
         style="fill-rule:evenodd;stroke:#000000;stroke-width:1pt"
         transform="matrix(0.2,0,0,0.2,1.48,0.2)" /></marker><marker
       inkscape:stockid="DotS"
       orient="auto"
       refY="0"
       refX="0"
       id="DotS-3"
       style="overflow:visible"><path
         inkscape:connector-curvature="0"
         id="path3828-0"
         d="m -2.5,-1 c 0,2.76 -2.24,5 -5,5 -2.76,0 -5,-2.24 -5,-5 0,-2.76 2.24,-5 5,-5 2.76,0 5,2.24 5,5 z"
         style="fill-rule:evenodd;stroke:#000000;stroke-width:1pt"
         transform="matrix(0.2,0,0,0.2,1.48,0.2)" /></marker><marker
       inkscape:stockid="DotS"
       orient="auto"
       refY="0"
       refX="0"
       id="marker4427"
       style="overflow:visible"><path
         inkscape:connector-curvature="0"
         id="path4429"
         d="m -2.5,-1 c 0,2.76 -2.24,5 -5,5 -2.76,0 -5,-2.24 -5,-5 0,-2.76 2.24,-5 5,-5 2.76,0 5,2.24 5,5 z"
         style="fill-rule:evenodd;stroke:#000000;stroke-width:1pt"
         transform="matrix(0.2,0,0,0.2,1.48,0.2)" /></marker><marker
       inkscape:stockid="DotS"
       orient="auto"
       refY="0"
       refX="0"
       id="DotS-2"
       style="overflow:visible"><path
         inkscape:connector-curvature="0"
         id="path3828-1"
         d="m -2.5,-1 c 0,2.76 -2.24,5 -5,5 -2.76,0 -5,-2.24 -5,-5 0,-2.76 2.24,-5 5,-5 2.76,0 5,2.24 5,5 z"
         style="fill-rule:evenodd;stroke:#000000;stroke-width:1pt"
         transform="matrix(0.2,0,0,0.2,1.48,0.2)" /></marker><marker
       inkscape:stockid="DotS"
       orient="auto"
       refY="0"
       refX="0"
       id="marker4427-3"
       style="overflow:visible"><path
         inkscape:connector-curvature="0"
         id="path4429-9"
         d="m -2.5,-1 c 0,2.76 -2.24,5 -5,5 -2.76,0 -5,-2.24 -5,-5 0,-2.76 2.24,-5 5,-5 2.76,0 5,2.24 5,5 z"
         style="fill-rule:evenodd;stroke:#000000;stroke-width:1pt"
         transform="matrix(0.2,0,0,0.2,1.48,0.2)" /></marker><marker
       inkscape:stockid="DotS"
       orient="auto"
       refY="0"
       refX="0"
       id="DotS-21"
       style="overflow:visible"><path
         inkscape:connector-curvature="0"
         id="path3828-6"
         d="m -2.5,-1 c 0,2.76 -2.24,5 -5,5 -2.76,0 -5,-2.24 -5,-5 0,-2.76 2.24,-5 5,-5 2.76,0 5,2.24 5,5 z"
         style="fill-rule:evenodd;stroke:#000000;stroke-width:1pt"
         transform="matrix(0.2,0,0,0.2,1.48,0.2)" /></marker><marker
       inkscape:stockid="DotS"
       orient="auto"
       refY="0"
       refX="0"
       id="marker4474"
       style="overflow:visible"><path
         inkscape:connector-curvature="0"
         id="path4476"
         d="m -2.5,-1 c 0,2.76 -2.24,5 -5,5 -2.76,0 -5,-2.24 -5,-5 0,-2.76 2.24,-5 5,-5 2.76,0 5,2.24 5,5 z"
         style="fill-rule:evenodd;stroke:#000000;stroke-width:1pt"
         transform="matrix(0.2,0,0,0.2,1.48,0.2)" /></marker><marker
       inkscape:stockid="DotS"
       orient="auto"
       refY="0"
       refX="0"
       id="DotS-36"
       style="overflow:visible"><path
         inkscape:connector-curvature="0"
         id="path3828-8"
         d="m -2.5,-1 c 0,2.76 -2.24,5 -5,5 -2.76,0 -5,-2.24 -5,-5 0,-2.76 2.24,-5 5,-5 2.76,0 5,2.24 5,5 z"
         style="fill-rule:evenodd;stroke:#000000;stroke-width:1pt"
         transform="matrix(0.2,0,0,0.2,1.48,0.2)" /></marker><marker
       inkscape:stockid="DotS"
       orient="auto"
       refY="0"
       refX="0"
       id="marker4516"
       style="overflow:visible"><path
         inkscape:connector-curvature="0"
         id="path4518"
         d="m -2.5,-1 c 0,2.76 -2.24,5 -5,5 -2.76,0 -5,-2.24 -5,-5 0,-2.76 2.24,-5 5,-5 2.76,0 5,2.24 5,5 z"
         style="fill-rule:evenodd;stroke:#000000;stroke-width:1pt"
         transform="matrix(0.2,0,0,0.2,1.48,0.2)" /></marker><marker
       inkscape:stockid="DotS"
       orient="auto"
       refY="0"
       refX="0"
       id="DotS-11"
       style="overflow:visible"><path
         inkscape:connector-curvature="0"
         id="path3828-58"
         d="m -2.5,-1 c 0,2.76 -2.24,5 -5,5 -2.76,0 -5,-2.24 -5,-5 0,-2.76 2.24,-5 5,-5 2.76,0 5,2.24 5,5 z"
         style="fill-rule:evenodd;stroke:#000000;stroke-width:1pt"
         transform="matrix(0.2,0,0,0.2,1.48,0.2)" /></marker><marker
       inkscape:stockid="DotS"
       orient="auto"
       refY="0"
       refX="0"
       id="marker4954"
       style="overflow:visible"><path
         inkscape:connector-curvature="0"
         id="path4956"
         d="m -2.5,-1 c 0,2.76 -2.24,5 -5,5 -2.76,0 -5,-2.24 -5,-5 0,-2.76 2.24,-5 5,-5 2.76,0 5,2.24 5,5 z"
         style="fill-rule:evenodd;stroke:#000000;stroke-width:1pt"
         transform="matrix(0.2,0,0,0.2,1.48,0.2)" /></marker><marker
       inkscape:stockid="DotS"
       orient="auto"
       refY="0"
       refX="0"
       id="DotS-7"
       style="overflow:visible"><path
         inkscape:connector-curvature="0"
         id="path3828-3"
         d="m -2.5,-1 c 0,2.76 -2.24,5 -5,5 -2.76,0 -5,-2.24 -5,-5 0,-2.76 2.24,-5 5,-5 2.76,0 5,2.24 5,5 z"
         style="fill-rule:evenodd;stroke:#000000;stroke-width:1pt"
         transform="matrix(0.2,0,0,0.2,1.48,0.2)" /></marker><marker
       inkscape:stockid="DotS"
       orient="auto"
       refY="0"
       refX="0"
       id="marker5024"
       style="overflow:visible"><path
         inkscape:connector-curvature="0"
         id="path5026"
         d="m -2.5,-1 c 0,2.76 -2.24,5 -5,5 -2.76,0 -5,-2.24 -5,-5 0,-2.76 2.24,-5 5,-5 2.76,0 5,2.24 5,5 z"
         style="fill-rule:evenodd;stroke:#000000;stroke-width:1pt"
         transform="matrix(0.2,0,0,0.2,1.48,0.2)" /></marker><marker
       inkscape:stockid="DotS"
       orient="auto"
       refY="0"
       refX="0"
       id="DotS-34"
       style="overflow:visible"><path
         inkscape:connector-curvature="0"
         id="path3828-16"
         d="m -2.5,-1 c 0,2.76 -2.24,5 -5,5 -2.76,0 -5,-2.24 -5,-5 0,-2.76 2.24,-5 5,-5 2.76,0 5,2.24 5,5 z"
         style="fill-rule:evenodd;stroke:#000000;stroke-width:1pt"
         transform="matrix(0.2,0,0,0.2,1.48,0.2)" /></marker><marker
       inkscape:stockid="DotS"
       orient="auto"
       refY="0"
       refX="0"
       id="marker5056"
       style="overflow:visible"><path
         inkscape:connector-curvature="0"
         id="path5058"
         d="m -2.5,-1 c 0,2.76 -2.24,5 -5,5 -2.76,0 -5,-2.24 -5,-5 0,-2.76 2.24,-5 5,-5 2.76,0 5,2.24 5,5 z"
         style="fill-rule:evenodd;stroke:#000000;stroke-width:1pt"
         transform="matrix(0.2,0,0,0.2,1.48,0.2)" /></marker><marker
       inkscape:stockid="DotS"
       orient="auto"
       refY="0"
       refX="0"
       id="marker4516-8"
       style="overflow:visible"><path
         inkscape:connector-curvature="0"
         id="path4518-5"
         d="m -2.5,-1 c 0,2.76 -2.24,5 -5,5 -2.76,0 -5,-2.24 -5,-5 0,-2.76 2.24,-5 5,-5 2.76,0 5,2.24 5,5 z"
         style="fill-rule:evenodd;stroke:#000000;stroke-width:1pt"
         transform="matrix(0.2,0,0,0.2,1.48,0.2)" /></marker><marker
       inkscape:stockid="DotS"
       orient="auto"
       refY="0"
       refX="0"
       id="marker5088"
       style="overflow:visible"><path
         inkscape:connector-curvature="0"
         id="path5090"
         d="m -2.5,-1 c 0,2.76 -2.24,5 -5,5 -2.76,0 -5,-2.24 -5,-5 0,-2.76 2.24,-5 5,-5 2.76,0 5,2.24 5,5 z"
         style="fill-rule:evenodd;stroke:#000000;stroke-width:1pt"
         transform="matrix(0.2,0,0,0.2,1.48,0.2)" /></marker><marker
       inkscape:stockid="DotS"
       orient="auto"
       refY="0"
       refX="0"
       id="marker4516-9"
       style="overflow:visible"><path
         inkscape:connector-curvature="0"
         id="path4518-55"
         d="m -2.5,-1 c 0,2.76 -2.24,5 -5,5 -2.76,0 -5,-2.24 -5,-5 0,-2.76 2.24,-5 5,-5 2.76,0 5,2.24 5,5 z"
         style="fill-rule:evenodd;stroke:#000000;stroke-width:1pt"
         transform="matrix(0.2,0,0,0.2,1.48,0.2)" /></marker><marker
       inkscape:stockid="DotS"
       orient="auto"
       refY="0"
       refX="0"
       id="marker5137"
       style="overflow:visible"><path
         inkscape:connector-curvature="0"
         id="path5139"
         d="m -2.5,-1 c 0,2.76 -2.24,5 -5,5 -2.76,0 -5,-2.24 -5,-5 0,-2.76 2.24,-5 5,-5 2.76,0 5,2.24 5,5 z"
         style="fill-rule:evenodd;stroke:#000000;stroke-width:1pt"
         transform="matrix(0.2,0,0,0.2,1.48,0.2)" /></marker><marker
       inkscape:stockid="DotS"
       orient="auto"
       refY="0"
       refX="0"
       id="DotS-0"
       style="overflow:visible"><path
         inkscape:connector-curvature="0"
         id="path3828-4"
         d="m -2.5,-1 c 0,2.76 -2.24,5 -5,5 -2.76,0 -5,-2.24 -5,-5 0,-2.76 2.24,-5 5,-5 2.76,0 5,2.24 5,5 z"
         style="fill-rule:evenodd;stroke:#000000;stroke-width:1pt"
         transform="matrix(0.2,0,0,0.2,1.48,0.2)" /></marker><marker
       inkscape:stockid="DotS"
       orient="auto"
       refY="0"
       refX="0"
       id="marker5169"
       style="overflow:visible"><path
         inkscape:connector-curvature="0"
         id="path5171"
         d="m -2.5,-1 c 0,2.76 -2.24,5 -5,5 -2.76,0 -5,-2.24 -5,-5 0,-2.76 2.24,-5 5,-5 2.76,0 5,2.24 5,5 z"
         style="fill-rule:evenodd;stroke:#000000;stroke-width:1pt"
         transform="matrix(0.2,0,0,0.2,1.48,0.2)" /></marker><marker
       inkscape:stockid="DotS"
       orient="auto"
       refY="0"
       refX="0"
       id="DotS-8"
       style="overflow:visible"><path
         inkscape:connector-curvature="0"
         id="path3828-66"
         d="m -2.5,-1 c 0,2.76 -2.24,5 -5,5 -2.76,0 -5,-2.24 -5,-5 0,-2.76 2.24,-5 5,-5 2.76,0 5,2.24 5,5 z"
         style="fill-rule:evenodd;stroke:#000000;stroke-width:1pt"
         transform="matrix(0.2,0,0,0.2,1.48,0.2)" /></marker><marker
       inkscape:stockid="DotS"
       orient="auto"
       refY="0"
       refX="0"
       id="marker5218"
       style="overflow:visible"><path
         inkscape:connector-curvature="0"
         id="path5220"
         d="m -2.5,-1 c 0,2.76 -2.24,5 -5,5 -2.76,0 -5,-2.24 -5,-5 0,-2.76 2.24,-5 5,-5 2.76,0 5,2.24 5,5 z"
         style="fill-rule:evenodd;stroke:#000000;stroke-width:1pt"
         transform="matrix(0.2,0,0,0.2,1.48,0.2)" /></marker><marker
       inkscape:stockid="DotSv"
       orient="auto"
       refY="0"
       refX="0"
       id="DotSv"
       style="overflow:visible"><path
         id="path5753"
         d="m -2.5,-1 c 0,2.76 -2.24,5 -5,5 -2.76,0 -5,-2.24 -5,-5 0,-2.76 2.24,-5 5,-5 2.76,0 5,2.24 5,5 z"
         style="fill:#858585;fill-rule:evenodd;stroke:#858585;stroke-width:1pt"
         transform="matrix(0.2,0,0,0.2,1.48,0.2)"
         inkscape:connector-curvature="0" /></marker><marker
       inkscape:stockid="DotSs"
       orient="auto"
       refY="0"
       refX="0"
       id="DotSs"
       style="overflow:visible"><path
         id="path5756"
         d="m -2.5,-1 c 0,2.76 -2.24,5 -5,5 -2.76,0 -5,-2.24 -5,-5 0,-2.76 2.24,-5 5,-5 2.76,0 5,2.24 5,5 z"
         style="fill:#858585;fill-rule:evenodd;stroke:#858585;stroke-width:1pt"
         transform="matrix(0.2,0,0,0.2,1.48,0.2)"
         inkscape:connector-curvature="0" /></marker><marker
       inkscape:stockid="DotSk"
       orient="auto"
       refY="0"
       refX="0"
       id="DotSk"
       style="overflow:visible"><path
         id="path5759"
         d="m -2.5,-1 c 0,2.76 -2.24,5 -5,5 -2.76,0 -5,-2.24 -5,-5 0,-2.76 2.24,-5 5,-5 2.76,0 5,2.24 5,5 z"
         style="fill:#858585;fill-rule:evenodd;stroke:#858585;stroke-width:1pt"
         transform="matrix(0.2,0,0,0.2,1.48,0.2)"
         inkscape:connector-curvature="0" /></marker><marker
       inkscape:stockid="DotSK"
       orient="auto"
       refY="0"
       refX="0"
       id="DotSK"
       style="overflow:visible"><path
         id="path5762"
         d="m -2.5,-1 c 0,2.76 -2.24,5 -5,5 -2.76,0 -5,-2.24 -5,-5 0,-2.76 2.24,-5 5,-5 2.76,0 5,2.24 5,5 z"
         style="fill:#858585;fill-rule:evenodd;stroke:#858585;stroke-width:1pt"
         transform="matrix(0.2,0,0,0.2,1.48,0.2)"
         inkscape:connector-curvature="0" /></marker><marker
       inkscape:stockid="DotSQ"
       orient="auto"
       refY="0"
       refX="0"
       id="DotSQ"
       style="overflow:visible"><path
         id="path5765"
         d="m -2.5,-1 c 0,2.76 -2.24,5 -5,5 -2.76,0 -5,-2.24 -5,-5 0,-2.76 2.24,-5 5,-5 2.76,0 5,2.24 5,5 z"
         style="fill:#858585;fill-rule:evenodd;stroke:#858585;stroke-width:1pt"
         transform="matrix(0.2,0,0,0.2,1.48,0.2)"
         inkscape:connector-curvature="0" /></marker><marker
       inkscape:stockid="DotSg"
       orient="auto"
       refY="0"
       refX="0"
       id="DotSg"
       style="overflow:visible"><path
         id="path5768"
         d="m -2.5,-1 c 0,2.76 -2.24,5 -5,5 -2.76,0 -5,-2.24 -5,-5 0,-2.76 2.24,-5 5,-5 2.76,0 5,2.24 5,5 z"
         style="fill:#858585;fill-rule:evenodd;stroke:#858585;stroke-width:1pt"
         transform="matrix(0.2,0,0,0.2,1.48,0.2)"
         inkscape:connector-curvature="0" /></marker><marker
       inkscape:stockid="marker4516J"
       orient="auto"
       refY="0"
       refX="0"
       id="marker4516J"
       style="overflow:visible"><path
         inkscape:connector-curvature="0"
         id="path5771"
         d="m -2.5,-1 c 0,2.76 -2.24,5 -5,5 -2.76,0 -5,-2.24 -5,-5 0,-2.76 2.24,-5 5,-5 2.76,0 5,2.24 5,5 z"
         style="fill:#858585;fill-rule:evenodd;stroke:#858585;stroke-width:1pt"
         transform="matrix(0.2,0,0,0.2,1.48,0.2)" /></marker><marker
       inkscape:stockid="marker4516P"
       orient="auto"
       refY="0"
       refX="0"
       id="marker4516P"
       style="overflow:visible"><path
         inkscape:connector-curvature="0"
         id="path5774"
         d="m -2.5,-1 c 0,2.76 -2.24,5 -5,5 -2.76,0 -5,-2.24 -5,-5 0,-2.76 2.24,-5 5,-5 2.76,0 5,2.24 5,5 z"
         style="fill:#858585;fill-rule:evenodd;stroke:#858585;stroke-width:1pt"
         transform="matrix(0.2,0,0,0.2,1.48,0.2)" /></marker><marker
       inkscape:stockid="DotSC"
       orient="auto"
       refY="0"
       refX="0"
       id="DotSC"
       style="overflow:visible"><path
         id="path5777"
         d="m -2.5,-1 c 0,2.76 -2.24,5 -5,5 -2.76,0 -5,-2.24 -5,-5 0,-2.76 2.24,-5 5,-5 2.76,0 5,2.24 5,5 z"
         style="fill:#858585;fill-rule:evenodd;stroke:#858585;stroke-width:1pt"
         transform="matrix(0.2,0,0,0.2,1.48,0.2)"
         inkscape:connector-curvature="0" /></marker><marker
       inkscape:stockid="DotSL"
       orient="auto"
       refY="0"
       refX="0"
       id="DotSL"
       style="overflow:visible"><path
         id="path5780"
         d="m -2.5,-1 c 0,2.76 -2.24,5 -5,5 -2.76,0 -5,-2.24 -5,-5 0,-2.76 2.24,-5 5,-5 2.76,0 5,2.24 5,5 z"
         style="fill:#858585;fill-rule:evenodd;stroke:#858585;stroke-width:1pt"
         transform="matrix(0.2,0,0,0.2,1.48,0.2)"
         inkscape:connector-curvature="0" /></marker><marker
       inkscape:stockid="DotSf"
       orient="auto"
       refY="0"
       refX="0"
       id="DotSf"
       style="overflow:visible"><path
         id="path5783"
         d="m -2.5,-1 c 0,2.76 -2.24,5 -5,5 -2.76,0 -5,-2.24 -5,-5 0,-2.76 2.24,-5 5,-5 2.76,0 5,2.24 5,5 z"
         style="fill:#858585;fill-rule:evenodd;stroke:#858585;stroke-width:1pt"
         transform="matrix(0.2,0,0,0.2,1.48,0.2)"
         inkscape:connector-curvature="0" /></marker><marker
       inkscape:stockid="DotS7"
       orient="auto"
       refY="0"
       refX="0"
       id="DotS7"
       style="overflow:visible"><path
         id="path5786"
         d="m -2.5,-1 c 0,2.76 -2.24,5 -5,5 -2.76,0 -5,-2.24 -5,-5 0,-2.76 2.24,-5 5,-5 2.76,0 5,2.24 5,5 z"
         style="fill:#858585;fill-rule:evenodd;stroke:#858585;stroke-width:1pt"
         transform="matrix(0.2,0,0,0.2,1.48,0.2)"
         inkscape:connector-curvature="0" /></marker><marker
       inkscape:stockid="DotSS"
       orient="auto"
       refY="0"
       refX="0"
       id="DotSS"
       style="overflow:visible"><path
         id="path5789"
         d="m -2.5,-1 c 0,2.76 -2.24,5 -5,5 -2.76,0 -5,-2.24 -5,-5 0,-2.76 2.24,-5 5,-5 2.76,0 5,2.24 5,5 z"
         style="fill:#858585;fill-rule:evenodd;stroke:#858585;stroke-width:1pt"
         transform="matrix(0.2,0,0,0.2,1.48,0.2)"
         inkscape:connector-curvature="0" /></marker><marker
       inkscape:stockid="DotSy"
       orient="auto"
       refY="0"
       refX="0"
       id="DotSy"
       style="overflow:visible"><path
         id="path5792"
         d="m -2.5,-1 c 0,2.76 -2.24,5 -5,5 -2.76,0 -5,-2.24 -5,-5 0,-2.76 2.24,-5 5,-5 2.76,0 5,2.24 5,5 z"
         style="fill:#858585;fill-rule:evenodd;stroke:#858585;stroke-width:1pt"
         transform="matrix(0.2,0,0,0.2,1.48,0.2)"
         inkscape:connector-curvature="0" /></marker><marker
       inkscape:stockid="marker4516C"
       orient="auto"
       refY="0"
       refX="0"
       id="marker4516C"
       style="overflow:visible"><path
         inkscape:connector-curvature="0"
         id="path5795"
         d="m -2.5,-1 c 0,2.76 -2.24,5 -5,5 -2.76,0 -5,-2.24 -5,-5 0,-2.76 2.24,-5 5,-5 2.76,0 5,2.24 5,5 z"
         style="fill:#858585;fill-rule:evenodd;stroke:#858585;stroke-width:1pt"
         transform="matrix(0.2,0,0,0.2,1.48,0.2)" /></marker><marker
       inkscape:stockid="marker45162"
       orient="auto"
       refY="0"
       refX="0"
       id="marker45162"
       style="overflow:visible"><path
         inkscape:connector-curvature="0"
         id="path5798"
         d="m -2.5,-1 c 0,2.76 -2.24,5 -5,5 -2.76,0 -5,-2.24 -5,-5 0,-2.76 2.24,-5 5,-5 2.76,0 5,2.24 5,5 z"
         style="fill:#858585;fill-rule:evenodd;stroke:#858585;stroke-width:1pt"
         transform="matrix(0.2,0,0,0.2,1.48,0.2)" /></marker><marker
       inkscape:stockid="DotSG"
       orient="auto"
       refY="0"
       refX="0"
       id="DotSG"
       style="overflow:visible"><path
         id="path5801"
         d="m -2.5,-1 c 0,2.76 -2.24,5 -5,5 -2.76,0 -5,-2.24 -5,-5 0,-2.76 2.24,-5 5,-5 2.76,0 5,2.24 5,5 z"
         style="fill:#858585;fill-rule:evenodd;stroke:#858585;stroke-width:1pt"
         transform="matrix(0.2,0,0,0.2,1.48,0.2)"
         inkscape:connector-curvature="0" /></marker><marker
       inkscape:stockid="DotS5"
       orient="auto"
       refY="0"
       refX="0"
       id="DotS5"
       style="overflow:visible"><path
         id="path5804"
         d="m -2.5,-1 c 0,2.76 -2.24,5 -5,5 -2.76,0 -5,-2.24 -5,-5 0,-2.76 2.24,-5 5,-5 2.76,0 5,2.24 5,5 z"
         style="fill:#858585;fill-rule:evenodd;stroke:#858585;stroke-width:1pt"
         transform="matrix(0.2,0,0,0.2,1.48,0.2)"
         inkscape:connector-curvature="0" /></marker><marker
       inkscape:stockid="DotSsA"
       orient="auto"
       refY="0"
       refX="0"
       id="DotSsA"
       style="overflow:visible"><path
         id="path5807"
         d="m -2.5,-1 c 0,2.76 -2.24,5 -5,5 -2.76,0 -5,-2.24 -5,-5 0,-2.76 2.24,-5 5,-5 2.76,0 5,2.24 5,5 z"
         style="fill:#858585;fill-rule:evenodd;stroke:#858585;stroke-width:1pt"
         transform="matrix(0.2,0,0,0.2,1.48,0.2)"
         inkscape:connector-curvature="0" /></marker><marker
       inkscape:stockid="DotSLd"
       orient="auto"
       refY="0"
       refX="0"
       id="DotSLd"
       style="overflow:visible"><path
         id="path5810"
         d="m -2.5,-1 c 0,2.76 -2.24,5 -5,5 -2.76,0 -5,-2.24 -5,-5 0,-2.76 2.24,-5 5,-5 2.76,0 5,2.24 5,5 z"
         style="fill:#858585;fill-rule:evenodd;stroke:#858585;stroke-width:1pt"
         transform="matrix(0.2,0,0,0.2,1.48,0.2)"
         inkscape:connector-curvature="0" /></marker><marker
       inkscape:stockid="DotSd"
       orient="auto"
       refY="0"
       refX="0"
       id="DotSd"
       style="overflow:visible"><path
         id="path5813"
         d="m -2.5,-1 c 0,2.76 -2.24,5 -5,5 -2.76,0 -5,-2.24 -5,-5 0,-2.76 2.24,-5 5,-5 2.76,0 5,2.24 5,5 z"
         style="fill:#858585;fill-rule:evenodd;stroke:#858585;stroke-width:1pt"
         transform="matrix(0.2,0,0,0.2,1.48,0.2)"
         inkscape:connector-curvature="0" /></marker><marker
       inkscape:stockid="DotSyI"
       orient="auto"
       refY="0"
       refX="0"
       id="DotSyI"
       style="overflow:visible"><path
         id="path5816"
         d="m -2.5,-1 c 0,2.76 -2.24,5 -5,5 -2.76,0 -5,-2.24 -5,-5 0,-2.76 2.24,-5 5,-5 2.76,0 5,2.24 5,5 z"
         style="fill:#858585;fill-rule:evenodd;stroke:#858585;stroke-width:1pt"
         transform="matrix(0.2,0,0,0.2,1.48,0.2)"
         inkscape:connector-curvature="0" /></marker><marker
       inkscape:stockid="marker4516y"
       orient="auto"
       refY="0"
       refX="0"
       id="marker4516y"
       style="overflow:visible"><path
         inkscape:connector-curvature="0"
         id="path5819"
         d="m -2.5,-1 c 0,2.76 -2.24,5 -5,5 -2.76,0 -5,-2.24 -5,-5 0,-2.76 2.24,-5 5,-5 2.76,0 5,2.24 5,5 z"
         style="fill:#858585;fill-rule:evenodd;stroke:#858585;stroke-width:1pt"
         transform="matrix(0.2,0,0,0.2,1.48,0.2)" /></marker><marker
       inkscape:stockid="marker4516I"
       orient="auto"
       refY="0"
       refX="0"
       id="marker4516I"
       style="overflow:visible"><path
         inkscape:connector-curvature="0"
         id="path5822"
         d="m -2.5,-1 c 0,2.76 -2.24,5 -5,5 -2.76,0 -5,-2.24 -5,-5 0,-2.76 2.24,-5 5,-5 2.76,0 5,2.24 5,5 z"
         style="fill:#858585;fill-rule:evenodd;stroke:#858585;stroke-width:1pt"
         transform="matrix(0.2,0,0,0.2,1.48,0.2)" /></marker><marker
       inkscape:stockid="marker5218b"
       orient="auto"
       refY="0"
       refX="0"
       id="marker5218b"
       style="overflow:visible"><path
         inkscape:connector-curvature="0"
         id="path5825"
         d="m -2.5,-1 c 0,2.76 -2.24,5 -5,5 -2.76,0 -5,-2.24 -5,-5 0,-2.76 2.24,-5 5,-5 2.76,0 5,2.24 5,5 z"
         style="fill:#858585;fill-rule:evenodd;stroke:#858585;stroke-width:1pt"
         transform="matrix(0.2,0,0,0.2,1.48,0.2)" /></marker><marker
       inkscape:stockid="marker5218X"
       orient="auto"
       refY="0"
       refX="0"
       id="marker5218X"
       style="overflow:visible"><path
         inkscape:connector-curvature="0"
         id="path5828"
         d="m -2.5,-1 c 0,2.76 -2.24,5 -5,5 -2.76,0 -5,-2.24 -5,-5 0,-2.76 2.24,-5 5,-5 2.76,0 5,2.24 5,5 z"
         style="fill:#858585;fill-rule:evenodd;stroke:#858585;stroke-width:1pt"
         transform="matrix(0.2,0,0,0.2,1.48,0.2)" /></marker><marker
       inkscape:stockid="DotSQL"
       orient="auto"
       refY="0"
       refX="0"
       id="DotSQL"
       style="overflow:visible"><path
         id="path6109"
         d="m -2.5,-1 c 0,2.76 -2.24,5 -5,5 -2.76,0 -5,-2.24 -5,-5 0,-2.76 2.24,-5 5,-5 2.76,0 5,2.24 5,5 z"
         style="fill:#ffc400;fill-rule:evenodd;stroke:#ffc400;stroke-width:1pt"
         transform="matrix(0.2,0,0,0.2,1.48,0.2)"
         inkscape:connector-curvature="0" /></marker><marker
       inkscape:stockid="DotSgb"
       orient="auto"
       refY="0"
       refX="0"
       id="DotSgb"
       style="overflow:visible"><path
         id="path6112"
         d="m -2.5,-1 c 0,2.76 -2.24,5 -5,5 -2.76,0 -5,-2.24 -5,-5 0,-2.76 2.24,-5 5,-5 2.76,0 5,2.24 5,5 z"
         style="fill:#ffc400;fill-rule:evenodd;stroke:#ffc400;stroke-width:1pt"
         transform="matrix(0.2,0,0,0.2,1.48,0.2)"
         inkscape:connector-curvature="0" /></marker><marker
       inkscape:stockid="marker4516J6"
       orient="auto"
       refY="0"
       refX="0"
       id="marker4516J6"
       style="overflow:visible"><path
         inkscape:connector-curvature="0"
         id="path6115"
         d="m -2.5,-1 c 0,2.76 -2.24,5 -5,5 -2.76,0 -5,-2.24 -5,-5 0,-2.76 2.24,-5 5,-5 2.76,0 5,2.24 5,5 z"
         style="fill:#ffc400;fill-rule:evenodd;stroke:#ffc400;stroke-width:1pt"
         transform="matrix(0.2,0,0,0.2,1.48,0.2)" /></marker><marker
       inkscape:stockid="marker4516Pl"
       orient="auto"
       refY="0"
       refX="0"
       id="marker4516Pl"
       style="overflow:visible"><path
         inkscape:connector-curvature="0"
         id="path6118"
         d="m -2.5,-1 c 0,2.76 -2.24,5 -5,5 -2.76,0 -5,-2.24 -5,-5 0,-2.76 2.24,-5 5,-5 2.76,0 5,2.24 5,5 z"
         style="fill:#ffc400;fill-rule:evenodd;stroke:#ffc400;stroke-width:1pt"
         transform="matrix(0.2,0,0,0.2,1.48,0.2)" /></marker><marker
       inkscape:stockid="DotSSB"
       orient="auto"
       refY="0"
       refX="0"
       id="DotSSB"
       style="overflow:visible"><path
         id="path6121"
         d="m -2.5,-1 c 0,2.76 -2.24,5 -5,5 -2.76,0 -5,-2.24 -5,-5 0,-2.76 2.24,-5 5,-5 2.76,0 5,2.24 5,5 z"
         style="fill:#ffc400;fill-rule:evenodd;stroke:#ffc400;stroke-width:1pt"
         transform="matrix(0.2,0,0,0.2,1.48,0.2)"
         inkscape:connector-curvature="0" /></marker><marker
       inkscape:stockid="DotSyD"
       orient="auto"
       refY="0"
       refX="0"
       id="DotSyD"
       style="overflow:visible"><path
         id="path6124"
         d="m -2.5,-1 c 0,2.76 -2.24,5 -5,5 -2.76,0 -5,-2.24 -5,-5 0,-2.76 2.24,-5 5,-5 2.76,0 5,2.24 5,5 z"
         style="fill:#ffc400;fill-rule:evenodd;stroke:#ffc400;stroke-width:1pt"
         transform="matrix(0.2,0,0,0.2,1.48,0.2)"
         inkscape:connector-curvature="0" /></marker><marker
       inkscape:stockid="marker4516Ct"
       orient="auto"
       refY="0"
       refX="0"
       id="marker4516Ct"
       style="overflow:visible"><path
         inkscape:connector-curvature="0"
         id="path6127"
         d="m -2.5,-1 c 0,2.76 -2.24,5 -5,5 -2.76,0 -5,-2.24 -5,-5 0,-2.76 2.24,-5 5,-5 2.76,0 5,2.24 5,5 z"
         style="fill:#ffc400;fill-rule:evenodd;stroke:#ffc400;stroke-width:1pt"
         transform="matrix(0.2,0,0,0.2,1.48,0.2)" /></marker><marker
       inkscape:stockid="marker451623"
       orient="auto"
       refY="0"
       refX="0"
       id="marker451623"
       style="overflow:visible"><path
         inkscape:connector-curvature="0"
         id="path6130"
         d="m -2.5,-1 c 0,2.76 -2.24,5 -5,5 -2.76,0 -5,-2.24 -5,-5 0,-2.76 2.24,-5 5,-5 2.76,0 5,2.24 5,5 z"
         style="fill:#ffc400;fill-rule:evenodd;stroke:#ffc400;stroke-width:1pt"
         transform="matrix(0.2,0,0,0.2,1.48,0.2)" /></marker><marker
       inkscape:stockid="marker4516yb"
       orient="auto"
       refY="0"
       refX="0"
       id="marker4516yb"
       style="overflow:visible"><path
         inkscape:connector-curvature="0"
         id="path6133"
         d="m -2.5,-1 c 0,2.76 -2.24,5 -5,5 -2.76,0 -5,-2.24 -5,-5 0,-2.76 2.24,-5 5,-5 2.76,0 5,2.24 5,5 z"
         style="fill:#ffc400;fill-rule:evenodd;stroke:#ffc400;stroke-width:1pt"
         transform="matrix(0.2,0,0,0.2,1.48,0.2)" /></marker><marker
       inkscape:stockid="marker4516IS"
       orient="auto"
       refY="0"
       refX="0"
       id="marker4516IS"
       style="overflow:visible"><path
         inkscape:connector-curvature="0"
         id="path6136"
         d="m -2.5,-1 c 0,2.76 -2.24,5 -5,5 -2.76,0 -5,-2.24 -5,-5 0,-2.76 2.24,-5 5,-5 2.76,0 5,2.24 5,5 z"
         style="fill:#ffc400;fill-rule:evenodd;stroke:#ffc400;stroke-width:1pt"
         transform="matrix(0.2,0,0,0.2,1.48,0.2)" /></marker><marker
       inkscape:stockid="DotSsAi"
       orient="auto"
       refY="0"
       refX="0"
       id="DotSsAi"
       style="overflow:visible"><path
         id="path6139"
         d="m -2.5,-1 c 0,2.76 -2.24,5 -5,5 -2.76,0 -5,-2.24 -5,-5 0,-2.76 2.24,-5 5,-5 2.76,0 5,2.24 5,5 z"
         style="fill:#ffc400;fill-rule:evenodd;stroke:#ffc400;stroke-width:1pt"
         transform="matrix(0.2,0,0,0.2,1.48,0.2)"
         inkscape:connector-curvature="0" /></marker><marker
       inkscape:stockid="DotSLdG"
       orient="auto"
       refY="0"
       refX="0"
       id="DotSLdG"
       style="overflow:visible"><path
         id="path6142"
         d="m -2.5,-1 c 0,2.76 -2.24,5 -5,5 -2.76,0 -5,-2.24 -5,-5 0,-2.76 2.24,-5 5,-5 2.76,0 5,2.24 5,5 z"
         style="fill:#ffc400;fill-rule:evenodd;stroke:#ffc400;stroke-width:1pt"
         transform="matrix(0.2,0,0,0.2,1.48,0.2)"
         inkscape:connector-curvature="0" /></marker><marker
       inkscape:stockid="DotSd7"
       orient="auto"
       refY="0"
       refX="0"
       id="DotSd7"
       style="overflow:visible"><path
         id="path6145"
         d="m -2.5,-1 c 0,2.76 -2.24,5 -5,5 -2.76,0 -5,-2.24 -5,-5 0,-2.76 2.24,-5 5,-5 2.76,0 5,2.24 5,5 z"
         style="fill:#ffc400;fill-rule:evenodd;stroke:#ffc400;stroke-width:1pt"
         transform="matrix(0.2,0,0,0.2,1.48,0.2)"
         inkscape:connector-curvature="0" /></marker><marker
       inkscape:stockid="DotSyIp"
       orient="auto"
       refY="0"
       refX="0"
       id="DotSyIp"
       style="overflow:visible"><path
         id="path6148"
         d="m -2.5,-1 c 0,2.76 -2.24,5 -5,5 -2.76,0 -5,-2.24 -5,-5 0,-2.76 2.24,-5 5,-5 2.76,0 5,2.24 5,5 z"
         style="fill:#ffc400;fill-rule:evenodd;stroke:#ffc400;stroke-width:1pt"
         transform="matrix(0.2,0,0,0.2,1.48,0.2)"
         inkscape:connector-curvature="0" /></marker><marker
       inkscape:stockid="DotSvS"
       orient="auto"
       refY="0"
       refX="0"
       id="DotSvS"
       style="overflow:visible"><path
         id="path6151"
         d="m -2.5,-1 c 0,2.76 -2.24,5 -5,5 -2.76,0 -5,-2.24 -5,-5 0,-2.76 2.24,-5 5,-5 2.76,0 5,2.24 5,5 z"
         style="fill:#ffc400;fill-rule:evenodd;stroke:#ffc400;stroke-width:1pt"
         transform="matrix(0.2,0,0,0.2,1.48,0.2)"
         inkscape:connector-curvature="0" /></marker><marker
       inkscape:stockid="DotSsJ"
       orient="auto"
       refY="0"
       refX="0"
       id="DotSsJ"
       style="overflow:visible"><path
         id="path6154"
         d="m -2.5,-1 c 0,2.76 -2.24,5 -5,5 -2.76,0 -5,-2.24 -5,-5 0,-2.76 2.24,-5 5,-5 2.76,0 5,2.24 5,5 z"
         style="fill:#ffc400;fill-rule:evenodd;stroke:#ffc400;stroke-width:1pt"
         transform="matrix(0.2,0,0,0.2,1.48,0.2)"
         inkscape:connector-curvature="0" /></marker><marker
       inkscape:stockid="DotSfb"
       orient="auto"
       refY="0"
       refX="0"
       id="DotSfb"
       style="overflow:visible"><path
         id="path6157"
         d="m -2.5,-1 c 0,2.76 -2.24,5 -5,5 -2.76,0 -5,-2.24 -5,-5 0,-2.76 2.24,-5 5,-5 2.76,0 5,2.24 5,5 z"
         style="fill:#ffc400;fill-rule:evenodd;stroke:#ffc400;stroke-width:1pt"
         transform="matrix(0.2,0,0,0.2,1.48,0.2)"
         inkscape:connector-curvature="0" /></marker><marker
       inkscape:stockid="DotS7T"
       orient="auto"
       refY="0"
       refX="0"
       id="DotS7T"
       style="overflow:visible"><path
         id="path6160"
         d="m -2.5,-1 c 0,2.76 -2.24,5 -5,5 -2.76,0 -5,-2.24 -5,-5 0,-2.76 2.24,-5 5,-5 2.76,0 5,2.24 5,5 z"
         style="fill:#ffc400;fill-rule:evenodd;stroke:#ffc400;stroke-width:1pt"
         transform="matrix(0.2,0,0,0.2,1.48,0.2)"
         inkscape:connector-curvature="0" /></marker><marker
       inkscape:stockid="DotSko"
       orient="auto"
       refY="0"
       refX="0"
       id="DotSko"
       style="overflow:visible"><path
         id="path6163"
         d="m -2.5,-1 c 0,2.76 -2.24,5 -5,5 -2.76,0 -5,-2.24 -5,-5 0,-2.76 2.24,-5 5,-5 2.76,0 5,2.24 5,5 z"
         style="fill:#ffc400;fill-rule:evenodd;stroke:#ffc400;stroke-width:1pt"
         transform="matrix(0.2,0,0,0.2,1.48,0.2)"
         inkscape:connector-curvature="0" /></marker><marker
       inkscape:stockid="DotSKZ"
       orient="auto"
       refY="0"
       refX="0"
       id="DotSKZ"
       style="overflow:visible"><path
         id="path6166"
         d="m -2.5,-1 c 0,2.76 -2.24,5 -5,5 -2.76,0 -5,-2.24 -5,-5 0,-2.76 2.24,-5 5,-5 2.76,0 5,2.24 5,5 z"
         style="fill:#ffc400;fill-rule:evenodd;stroke:#ffc400;stroke-width:1pt"
         transform="matrix(0.2,0,0,0.2,1.48,0.2)"
         inkscape:connector-curvature="0" /></marker><marker
       inkscape:stockid="DotSCa"
       orient="auto"
       refY="0"
       refX="0"
       id="DotSCa"
       style="overflow:visible"><path
         id="path6169"
         d="m -2.5,-1 c 0,2.76 -2.24,5 -5,5 -2.76,0 -5,-2.24 -5,-5 0,-2.76 2.24,-5 5,-5 2.76,0 5,2.24 5,5 z"
         style="fill:#ffc400;fill-rule:evenodd;stroke:#ffc400;stroke-width:1pt"
         transform="matrix(0.2,0,0,0.2,1.48,0.2)"
         inkscape:connector-curvature="0" /></marker><marker
       inkscape:stockid="DotSLi"
       orient="auto"
       refY="0"
       refX="0"
       id="DotSLi"
       style="overflow:visible"><path
         id="path6172"
         d="m -2.5,-1 c 0,2.76 -2.24,5 -5,5 -2.76,0 -5,-2.24 -5,-5 0,-2.76 2.24,-5 5,-5 2.76,0 5,2.24 5,5 z"
         style="fill:#ffc400;fill-rule:evenodd;stroke:#ffc400;stroke-width:1pt"
         transform="matrix(0.2,0,0,0.2,1.48,0.2)"
         inkscape:connector-curvature="0" /></marker><marker
       inkscape:stockid="marker5218bQ"
       orient="auto"
       refY="0"
       refX="0"
       id="marker5218bQ"
       style="overflow:visible"><path
         inkscape:connector-curvature="0"
         id="path6175"
         d="m -2.5,-1 c 0,2.76 -2.24,5 -5,5 -2.76,0 -5,-2.24 -5,-5 0,-2.76 2.24,-5 5,-5 2.76,0 5,2.24 5,5 z"
         style="fill:#ffc400;fill-rule:evenodd;stroke:#ffc400;stroke-width:1pt"
         transform="matrix(0.2,0,0,0.2,1.48,0.2)" /></marker><marker
       inkscape:stockid="marker5218XM"
       orient="auto"
       refY="0"
       refX="0"
       id="marker5218XM"
       style="overflow:visible"><path
         inkscape:connector-curvature="0"
         id="path6178"
         d="m -2.5,-1 c 0,2.76 -2.24,5 -5,5 -2.76,0 -5,-2.24 -5,-5 0,-2.76 2.24,-5 5,-5 2.76,0 5,2.24 5,5 z"
         style="fill:#ffc400;fill-rule:evenodd;stroke:#ffc400;stroke-width:1pt"
         transform="matrix(0.2,0,0,0.2,1.48,0.2)" /></marker><marker
       inkscape:stockid="DotSGn"
       orient="auto"
       refY="0"
       refX="0"
       id="DotSGn"
       style="overflow:visible"><path
         id="path6181"
         d="m -2.5,-1 c 0,2.76 -2.24,5 -5,5 -2.76,0 -5,-2.24 -5,-5 0,-2.76 2.24,-5 5,-5 2.76,0 5,2.24 5,5 z"
         style="fill:#ffc400;fill-rule:evenodd;stroke:#ffc400;stroke-width:1pt"
         transform="matrix(0.2,0,0,0.2,1.48,0.2)"
         inkscape:connector-curvature="0" /></marker><marker
       inkscape:stockid="DotS5R"
       orient="auto"
       refY="0"
       refX="0"
       id="DotS5R"
       style="overflow:visible"><path
         id="path6184"
         d="m -2.5,-1 c 0,2.76 -2.24,5 -5,5 -2.76,0 -5,-2.24 -5,-5 0,-2.76 2.24,-5 5,-5 2.76,0 5,2.24 5,5 z"
         style="fill:#ffc400;fill-rule:evenodd;stroke:#ffc400;stroke-width:1pt"
         transform="matrix(0.2,0,0,0.2,1.48,0.2)"
         inkscape:connector-curvature="0" /></marker><marker
       inkscape:stockid="DotSd7"
       orient="auto"
       refY="0"
       refX="0"
       id="DotSd7-9"
       style="overflow:visible"><path
         inkscape:connector-curvature="0"
         id="path6145-2"
         d="m -2.5,-1 c 0,2.76 -2.24,5 -5,5 -2.76,0 -5,-2.24 -5,-5 0,-2.76 2.24,-5 5,-5 2.76,0 5,2.24 5,5 z"
         style="fill:#ffc400;fill-rule:evenodd;stroke:#ffc400;stroke-width:1pt"
         transform="matrix(0.2,0,0,0.2,1.48,0.2)" /></marker><marker
       inkscape:stockid="DotSyIp"
       orient="auto"
       refY="0"
       refX="0"
       id="DotSyIp-9"
       style="overflow:visible"><path
         inkscape:connector-curvature="0"
         id="path6148-2"
         d="m -2.5,-1 c 0,2.76 -2.24,5 -5,5 -2.76,0 -5,-2.24 -5,-5 0,-2.76 2.24,-5 5,-5 2.76,0 5,2.24 5,5 z"
         style="fill:#ffc400;fill-rule:evenodd;stroke:#ffc400;stroke-width:1pt"
         transform="matrix(0.2,0,0,0.2,1.48,0.2)" /></marker><marker
       inkscape:stockid="DotSGn"
       orient="auto"
       refY="0"
       refX="0"
       id="DotSGn-0"
       style="overflow:visible"><path
         inkscape:connector-curvature="0"
         id="path6181-6"
         d="m -2.5,-1 c 0,2.76 -2.24,5 -5,5 -2.76,0 -5,-2.24 -5,-5 0,-2.76 2.24,-5 5,-5 2.76,0 5,2.24 5,5 z"
         style="fill:#ffc400;fill-rule:evenodd;stroke:#ffc400;stroke-width:1pt"
         transform="matrix(0.2,0,0,0.2,1.48,0.2)" /></marker><marker
       inkscape:stockid="DotS5R"
       orient="auto"
       refY="0"
       refX="0"
       id="DotS5R-3"
       style="overflow:visible"><path
         inkscape:connector-curvature="0"
         id="path6184-9"
         d="m -2.5,-1 c 0,2.76 -2.24,5 -5,5 -2.76,0 -5,-2.24 -5,-5 0,-2.76 2.24,-5 5,-5 2.76,0 5,2.24 5,5 z"
         style="fill:#ffc400;fill-rule:evenodd;stroke:#ffc400;stroke-width:1pt"
         transform="matrix(0.2,0,0,0.2,1.48,0.2)" /></marker><marker
       inkscape:stockid="marker5218bQ"
       orient="auto"
       refY="0"
       refX="0"
       id="marker5218bQ-7"
       style="overflow:visible"><path
         inkscape:connector-curvature="0"
         id="path6175-9"
         d="m -2.5,-1 c 0,2.76 -2.24,5 -5,5 -2.76,0 -5,-2.24 -5,-5 0,-2.76 2.24,-5 5,-5 2.76,0 5,2.24 5,5 z"
         style="fill:#ffc400;fill-rule:evenodd;stroke:#ffc400;stroke-width:1pt"
         transform="matrix(0.2,0,0,0.2,1.48,0.2)" /></marker><marker
       inkscape:stockid="marker5218XM"
       orient="auto"
       refY="0"
       refX="0"
       id="marker5218XM-8"
       style="overflow:visible"><path
         inkscape:connector-curvature="0"
         id="path6178-2"
         d="m -2.5,-1 c 0,2.76 -2.24,5 -5,5 -2.76,0 -5,-2.24 -5,-5 0,-2.76 2.24,-5 5,-5 2.76,0 5,2.24 5,5 z"
         style="fill:#ffc400;fill-rule:evenodd;stroke:#ffc400;stroke-width:1pt"
         transform="matrix(0.2,0,0,0.2,1.48,0.2)" /></marker><marker
       inkscape:stockid="marker5218bQ"
       orient="auto"
       refY="0"
       refX="0"
       id="marker5218bQ-9"
       style="overflow:visible"><path
         inkscape:connector-curvature="0"
         id="path6175-95"
         d="m -2.5,-1 c 0,2.76 -2.24,5 -5,5 -2.76,0 -5,-2.24 -5,-5 0,-2.76 2.24,-5 5,-5 2.76,0 5,2.24 5,5 z"
         style="fill:#ffc400;fill-rule:evenodd;stroke:#ffc400;stroke-width:1pt"
         transform="matrix(0.2,0,0,0.2,1.48,0.2)" /></marker><marker
       inkscape:stockid="marker5218XM"
       orient="auto"
       refY="0"
       refX="0"
       id="marker5218XM-4"
       style="overflow:visible"><path
         inkscape:connector-curvature="0"
         id="path6178-29"
         d="m -2.5,-1 c 0,2.76 -2.24,5 -5,5 -2.76,0 -5,-2.24 -5,-5 0,-2.76 2.24,-5 5,-5 2.76,0 5,2.24 5,5 z"
         style="fill:#ffc400;fill-rule:evenodd;stroke:#ffc400;stroke-width:1pt"
         transform="matrix(0.2,0,0,0.2,1.48,0.2)" /></marker><marker
       inkscape:stockid="DotSGn"
       orient="auto"
       refY="0"
       refX="0"
       id="DotSGn-08"
       style="overflow:visible"><path
         inkscape:connector-curvature="0"
         id="path6181-5"
         d="m -2.5,-1 c 0,2.76 -2.24,5 -5,5 -2.76,0 -5,-2.24 -5,-5 0,-2.76 2.24,-5 5,-5 2.76,0 5,2.24 5,5 z"
         style="fill:#ffc400;fill-rule:evenodd;stroke:#ffc400;stroke-width:1pt"
         transform="matrix(0.2,0,0,0.2,1.48,0.2)" /></marker><marker
       inkscape:stockid="DotS5R"
       orient="auto"
       refY="0"
       refX="0"
       id="DotS5R-8"
       style="overflow:visible"><path
         inkscape:connector-curvature="0"
         id="path6184-1"
         d="m -2.5,-1 c 0,2.76 -2.24,5 -5,5 -2.76,0 -5,-2.24 -5,-5 0,-2.76 2.24,-5 5,-5 2.76,0 5,2.24 5,5 z"
         style="fill:#ffc400;fill-rule:evenodd;stroke:#ffc400;stroke-width:1pt"
         transform="matrix(0.2,0,0,0.2,1.48,0.2)" /></marker><marker
       inkscape:stockid="marker4516Ct"
       orient="auto"
       refY="0"
       refX="0"
       id="marker4516Ct-0"
       style="overflow:visible"><path
         inkscape:connector-curvature="0"
         id="path6127-3"
         d="m -2.5,-1 c 0,2.76 -2.24,5 -5,5 -2.76,0 -5,-2.24 -5,-5 0,-2.76 2.24,-5 5,-5 2.76,0 5,2.24 5,5 z"
         style="fill:#ffc400;fill-rule:evenodd;stroke:#ffc400;stroke-width:1pt"
         transform="matrix(0.2,0,0,0.2,1.48,0.2)" /></marker><marker
       inkscape:stockid="marker451623"
       orient="auto"
       refY="0"
       refX="0"
       id="marker451623-8"
       style="overflow:visible"><path
         inkscape:connector-curvature="0"
         id="path6130-8"
         d="m -2.5,-1 c 0,2.76 -2.24,5 -5,5 -2.76,0 -5,-2.24 -5,-5 0,-2.76 2.24,-5 5,-5 2.76,0 5,2.24 5,5 z"
         style="fill:#ffc400;fill-rule:evenodd;stroke:#ffc400;stroke-width:1pt"
         transform="matrix(0.2,0,0,0.2,1.48,0.2)" /></marker><marker
       inkscape:stockid="marker5218bQ"
       orient="auto"
       refY="0"
       refX="0"
       id="marker5218bQ-0"
       style="overflow:visible"><path
         inkscape:connector-curvature="0"
         id="path6175-8"
         d="m -2.5,-1 c 0,2.76 -2.24,5 -5,5 -2.76,0 -5,-2.24 -5,-5 0,-2.76 2.24,-5 5,-5 2.76,0 5,2.24 5,5 z"
         style="fill:#ffc400;fill-rule:evenodd;stroke:#ffc400;stroke-width:1pt"
         transform="matrix(0.2,0,0,0.2,1.48,0.2)" /></marker><marker
       inkscape:stockid="marker5218XM"
       orient="auto"
       refY="0"
       refX="0"
       id="marker5218XM-86"
       style="overflow:visible"><path
         inkscape:connector-curvature="0"
         id="path6178-7"
         d="m -2.5,-1 c 0,2.76 -2.24,5 -5,5 -2.76,0 -5,-2.24 -5,-5 0,-2.76 2.24,-5 5,-5 2.76,0 5,2.24 5,5 z"
         style="fill:#ffc400;fill-rule:evenodd;stroke:#ffc400;stroke-width:1pt"
         transform="matrix(0.2,0,0,0.2,1.48,0.2)" /></marker><circle
       transform="matrix(0.8755829,0,0,0.8755829,152.4506,-680.83707)"
       id="path6572"
       style="fill:none;stroke:none"
       cx="675.71429"
       cy="777.58148"
       r="584.28571" /><circle
       transform="matrix(-1.1162727,-0.04357729,-0.04357729,1.1162727,1532.2608,-838.54723)"
       id="path6572-9"
       style="fill:none;stroke:none"
       cx="675.71429"
       cy="777.58148"
       r="584.28571" /></defs><metadata
     id="metadata7"><rdf:RDF><cc:Work
         rdf:about=""><dc:format>image/svg+xml</dc:format><dc:type
           rdf:resource="http://purl.org/dc/dcmitype/StillImage" /></cc:Work></rdf:RDF></metadata><g
     inkscape:label="Ebene 1"
     inkscape:groupmode="layer"
     id="layer1"
     transform="translate(4.9737343e-6,-783.07098)"><g
       id="g2018"
       inkscape:label="darkhain_neu"
       transform="matrix(1.0184119,0,0,1.0184119,11.958904,523.64132)"
       style="opacity:1" /></g><g
     inkscape:groupmode="layer"
     id="layer2"
     inkscape:label="Ebene 2"
     transform="translate(-299.02873,-544.07756)"><path
       id="path7204"
       style="opacity:1;fill:#ffffff;stroke:#ffffff;stroke-width:0;stroke-linecap:round;stroke-linejoin:round;stroke-miterlimit:0"
       d="M 537.02969,665.96387 A 116.11562,116.11562 0 0 1 420.91406,782.07949 116.11562,116.11562 0 0 1 304.79844,665.96387 116.11562,116.11562 0 0 1 420.91406,549.84824 116.11562,116.11562 0 0 1 537.02969,665.96387 Z"
       inkscape:label="white" /><path
       d="m 404.27077,638.04427 c -0.84391,2.05866 -1.80294,3.99053 -2.46965,5.55503 -1.50636,3.53442 -4.77098,7.23316 -5.80233,10.99679 -1.09355,3.99061 0.0652,8.05193 -0.88685,11.98669 -0.24136,0.99881 -0.45471,2.00374 -0.61454,3.01868 -3.71717,23.57849 0.43704,36.54812 2.82504,43.72832 10.53375,1.5977 40.06286,1.43375 50.0508,-0.12128 0.5107,-4.27419 1.20465,-4.52707 1.50142,-8.83671 0.37538,-5.45598 0.49279,-10.93022 0.33276,-16.39699 -0.30907,-10.57588 0.49689,-21.16583 -2.18182,-31.4126 -1.21864,-4.66212 -4.79156,-9.27029 -6.54838,-13.75733 -1.52401,-3.89166 -3.38956,-8.14105 -2.84874,-12.43842 0.29012,-2.43333 1.97268,-4.94187 3.7753,-6.54094 2.27231,-2.0155 5.3919,-3.44568 8.40064,-3.92832 l -3.0974,-1.92191 c -2.07746,1.33222 -9.11213,5.35833 -11.17581,1.74377 -1.34552,-2.35714 1.06379,-4.85171 3.08816,-5.78581 1.71983,-0.79371 3.66385,-0.95508 5.55812,-0.92238 l -0.7833,-2.60353 c -1.37291,0.88578 -3.3067,0.78955 -4.5852,-0.22803 -1.27817,-1.01751 -1.80554,-2.88055 -1.25035,-4.41703 -0.64696,-0.0442 -1.29362,-0.0886 -1.94026,-0.13278 0.26492,2.41256 0.0266,4.94097 -1.10468,7.08807 -0.66,1.25321 -1.65749,2.35555 -2.85381,3.1023 -1.53848,0.96079 -3.55757,0.14128 -4.01806,-1.61299 -0.80339,-3.06084 0.26167,-6.38542 2.78935,-8.55745 l -2.01661,-1.64193 c -4.72009,5.64563 -6.21703,-1.27224 -6.21703,-1.27224 l -2.50995,0.58743 2.33165,4.35269 c 2.33243,3.12213 1.39852,5.6803 0.44326,7.10204 -0.62204,0.92527 -1.55252,1.62344 -2.62719,1.91964 -4.92782,1.35815 -5.75279,-7.12694 -5.75279,-7.12694 -0.45093,-2.64412 1.54346,-6.28251 1.54346,-6.28251 l -2.36909,-0.0204 c -3.98327,6.5999 -5.41503,-0.0468 -5.41503,-0.0468 l -2.51171,0.79055 c 0.99133,2.78411 3.07927,4.02067 3.07927,4.02067 5.10699,4.37668 -0.60473,7.30601 -0.60473,7.30601 -7.82067,4.12936 -8.36365,-11.37755 -8.36365,-11.37755 l -2.03593,0.59184 c 2.02596,8.41164 -4.14019,3.21357 -4.14019,3.21357 l -1.89987,2.47152 c 2.80788,0.64603 4.58024,1.69367 5.68211,2.85362 3.47421,3.65724 0.4441,9.68245 -4.58477,9.28853 -3.26625,-0.25578 -6.15586,-2.53926 -6.15586,-2.53926 l -1.33201,1.35931 c 5.91059,3.45266 -1.04952,3.95111 -1.04952,3.95111 0,0 -0.0254,2.94456 -0.0252,2.94457 3.60798,-0.19451 7.25179,-0.89884 10.55297,-2.40482 3.00348,-1.37014 5.53484,-3.36367 8.81971,-0.94876 4.27396,3.14228 2.94266,8.55919 0.9982,13.30309"
       style="display:inline;fill:#694211;fill-opacity:1;fill-rule:nonzero;stroke:none;stroke-width:0.308243"
       id="path8564"
       sodipodi:nodetypes="ccsccccccsccccccsccsccccsccccccscccccccccccssccccscc" /><g
       id="g10472"
       transform="matrix(0.65174069,-0.02705563,0.02705563,0.65174069,75.103624,420.1072)"
       inkscape:label="smile"><path
         id="path10470"
         sodipodi:nodetypes="ccccccc"
         style="fill:#ffffff;fill-rule:evenodd"
         d="m 487.52,422.12 c 0,0 13.27,3.09 15.68,3.49 2.41,0.4 37.91,-3.35 38.85,-4.02 0.94,-0.67 -1.61,8.97 -2.55,10.72 -2.27,4.15 -10.71,8.03 -17.95,8.97 -6.16,0.14 -22.51,-1.34 -26.52,-3.75 -3.22,-3.48 -7.91,-13.93 -7.51,-15.41 z" /><path
         id="path10055"
         sodipodi:nodetypes="ccccccccccccccccccccccccccccccccccccccccccccccccccccccccccccccccccccccccccccccccccccccccccccccccccccccccc"
         style="fill:#000000;fill-rule:evenodd"
         d="m 542.97,419.94 c -15.84,4.84 -31.39,6.19 -47.53,3.28 -2.63,-0.64 -5.94,-1.54 -8.5,-2.41 -0.21,3.56 0.83,8.27 2.68,11.28 1.16,2.31 3.03,4.87 5.32,6.16 5.82,3.42 13.41,4.27 20.03,4.16 6.88,-0.28 14.31,-0.95 20.5,-4.13 1.99,-0.99 3.5,-3.08 4.31,-5.16 1.91,-3.49 3.68,-7.66 3.6,-11.74 z m -1.19,2.4 c -0.06,1.24 -0.75,4.12 -1.16,4.16 0.25,-1.61 -1.18,-4.16 1.16,-4.16 z m -2.66,1.06 c -0.16,1.7 0.35,3.2 -0.13,4.82 -1.05,1.38 -4.21,3.14 -3.68,0.11 0.27,-1.8 -1.84,-4.2 0.78,-4.11 1.15,-0.35 1.9,-0.43 3.03,-0.82 z m -50.46,-0.15 c 1.47,-0.58 0.37,3.51 0.46,2.87 -0.54,-0.63 -0.44,-1.9 -0.46,-2.87 z m 1.56,0.44 c 1.05,0.63 3.95,0.54 3.75,1.56 -0.5,1.47 0.29,3.69 -0.53,4.66 -2.54,0.43 -3.79,-2.24 -3.22,-4.38 z m 43.11,1.52 c 0.27,2.52 0.77,4.38 0.47,6.91 -0.91,1.52 -2.12,2.7 -3.09,0.73 -1.37,-1.84 -0.99,-4.25 -1.59,-6.43 0.9,-0.9 2.73,-0.6 4.21,-1.21 z m -38.21,-0.15 c 1.31,0.77 4.43,0 4.57,1.63 -0.37,2.12 0.7,4.99 -1.88,5.93 -2.19,1.69 -2.69,-1.82 -2.87,-3.34 -0.15,-1.39 -0.05,-2.84 0.18,-4.22 z m 5.6,1.13 c 1.72,0.55 4.77,0.21 5.69,1.09 0.09,2 0.48,4.18 -0.13,6.1 -1.89,0.92 -6.25,1.47 -5.69,-1.85 -0.25,-1.72 0.52,-3.93 0.13,-5.34 z m 26.6,0.15 c 0.53,2.52 1.11,4.83 0.76,7.41 -0.88,1.25 -4.21,1.53 -4.42,-0.13 0.11,-2.27 -0.31,-4.51 -0.32,-6.78 1.44,-0.17 2.56,-0.25 3.98,-0.5 z m -5.63,0.71 c 0.46,2.5 0.14,4.87 0.54,7.36 -0.03,2.18 -1.93,1.46 -3.38,1.21 -1.83,-0.09 -3.67,-0.89 -2.97,-2.87 0.28,-1.68 -0.84,-4.39 0.03,-5.37 2.08,-0.05 3.71,-0.12 5.78,-0.33 z m -13.79,0.01 c 2.15,0.47 4.63,-0.23 6.11,0.69 -0.1,2.45 0.13,4.52 0.49,6.93 -0.95,1.3 -2.95,0.88 -4.42,0.87 -2.93,0.23 -2.57,-2.47 -2.18,-4.57 0.03,-1.28 -0.18,-2.64 0,-3.92 z m -17.4,2.88 c 0.91,1.35 2.8,0.48 2.24,2.37 -0.01,1.25 0.28,2.56 -0.52,0.94 -0.64,-1.07 -1.2,-2.18 -1.72,-3.31 z m 47.94,0.18 c 0.47,1.79 -0.52,3.34 -1.84,4.48 -0.8,-0.07 -0.38,-2.33 -1.04,-2.91 0.11,-0.79 2.15,-0.8 2.88,-1.57 z m -44.04,1.14 c -0.1,1.74 0.99,2.89 2.07,3.18 -0.21,1.12 0.58,3.61 -1.14,1.98 -2.78,-0.83 -0.79,-3.11 -0.93,-5.16 z m 5.35,1.15 c -0.54,1.95 1.38,2.56 2.43,2.65 0.07,1.46 0.07,2.59 0.14,4.04 -1.79,-0.38 -4.12,-0.47 -4.22,-2.55 -0.19,-2.06 -0.26,-3.21 1.65,-4.14 z m 29.61,1.49 c 1.52,0.88 1.75,2.49 1.08,3.74 -1.35,0.54 -3.04,1.86 -2.54,-0.69 -1.05,-2.47 2.07,-0.28 1.46,-3.05 z m 5.36,-0.23 c 0.39,1.54 0.48,2.8 -1.47,3.02 -1.72,1.5 -1.81,-2.01 -0.09,-1.97 0.57,-0.36 1.2,-0.45 1.56,-1.05 z m -28.16,0.67 c 0.02,1.98 2.43,1.73 1.66,3.8 0.07,1.34 0.65,2.9 -1.22,2.05 -1.06,-0.49 -3.06,0.17 -2.76,-1.53 -0.06,-1.28 0.03,-2.57 -0.03,-3.85 1.03,0.07 1.43,0.05 2.35,-0.47 z m 17.23,1.42 c 1.48,0.43 2.98,-0.43 2.55,1.71 1.01,2.31 -2.26,1.72 -3.65,2.28 -0.96,0.42 -0.65,-2.75 -0.12,-2.95 0.75,-0.22 1.12,-0.23 1.22,-1.04 z m -7.58,0.26 c 1.62,0.95 2.64,1.25 4.5,1.07 -1.61,0.1 1.32,3.34 -1.11,2.85 -1.41,0.22 -1.9,0.35 -3.33,0.42 0,-0.09 0.02,-2.97 -0.06,-4.34 z m -2.43,0.67 c 0.84,-0.07 1.08,0.22 0.76,1.61 -0.11,0.74 -0.17,1.61 -0.03,2.04 0,0.05 -2.47,0.12 -4.44,-0.04 0.29,-1.44 -1.02,-3.94 0.93,-3.49 1.04,0.22 1.94,-0.06 2.78,-0.12 z" /></g><path
       d="m 465.22402,615.85606 c -0.3126,-0.0235 -0.61772,-0.003 -0.91285,0.0496 -0.2065,-0.99388 -0.81881,-1.84893 -1.6686,-2.37037 0.25145,-0.4497 0.41456,-0.95766 0.45575,-1.50511 0.13579,-1.8052 -1.06567,-3.39915 -2.7667,-3.81866 0.2354,-0.43762 0.38735,-0.92881 0.42703,-1.45626 0.1515,-2.01301 -1.35755,-3.76797 -3.37085,-3.91948 -0.33843,-0.0255 -0.66892,-2.5e-4 -0.98648,0.0627 -0.0692,-0.79468 -0.39258,-1.52411 -0.89788,-2.09661 0.87438,-0.60622 1.47854,-1.58611 1.56459,-2.72954 0.11063,-1.47018 -0.6666,-2.79944 -1.87669,-3.4704 0.22713,-0.43051 0.37287,-0.91291 0.4117,-1.42897 0.15151,-2.01332 -1.35787,-3.768 -3.37087,-3.91948 -1.44651,-0.10891 -2.7562,0.64205 -3.43702,1.81893 -0.48374,-0.68616 -1.20055,-1.20007 -2.04453,-1.42492 0.0288,-0.145 0.052,-0.29191 0.0635,-0.44284 0.1515,-2.01301 -1.35786,-3.76799 -3.37086,-3.91947 -1.62818,-0.12252 -3.08652,0.84192 -3.66521,2.27998 -0.5561,-1.11326 -1.6632,-1.91649 -2.99444,-2.01667 0.15151,-2.01301 -1.35756,-3.76798 -3.37086,-3.91948 -1.8077,-0.13596 -3.40316,1.0691 -3.82044,2.7737 -0.32917,-0.1279 -0.68211,-0.21114 -1.05247,-0.23901 -0.97194,-0.0731 -1.88141,0.2436 -2.58182,0.81436 -0.52215,-1.20712 -1.67783,-2.09162 -3.08041,-2.19716 -1.31003,-0.0985 -2.5075,0.50868 -3.22797,1.49772 -0.55096,-0.43402 -1.23244,-0.71467 -1.9846,-0.77126 -0.003,-2.4e-4 -0.006,2.2e-4 -0.007,1.4e-4 0.006,-0.0538 0.0156,-0.10633 0.0195,-0.16115 0.13479,-1.792 -0.98831,-5.45591 -2.66941,-5.88968 0.0547,-0.21103 0.0946,-0.42843 0.11147,-0.65342 0.1515,-2.01301 -1.35757,-3.76796 -3.37057,-3.91944 -1.92417,-0.14481 -3.60835,1.22861 -3.8864,3.10782 -1.65704,0.241 -2.98537,1.60131 -3.11627,3.34075 -0.055,0.73216 0.11163,1.4291 0.44028,2.02816 -0.76156,0.0848 -1.45829,0.40495 -2.01024,0.892 -0.61097,-0.72913 -1.50278,-1.22187 -2.52633,-1.2989 -0.35596,-0.0268 -0.70297,5.6e-4 -1.03507,0.0715 -0.6113,-0.73689 -1.5073,-1.23552 -2.53732,-1.31303 -2.013,-0.1515 -3.768,1.35787 -3.91949,3.37087 -0.0766,1.01803 0.27256,1.96888 0.89566,2.68068 -0.70146,0.47362 -1.2353,1.18398 -1.47445,2.02874 -0.27986,-0.093 -0.63292,1.92195 -0.94028,1.89884 -1.10411,-0.0831 -2.1288,0.33565 -2.85573,1.06115 -0.59455,-0.5857 -1.39043,-0.97326 -2.28796,-1.0408 -2.01301,-0.15149 -3.76798,1.35758 -3.91948,3.37088 -0.0576,0.76598 0.1265,1.49421 0.48595,2.11137 -1.82272,0.0801 -3.33988,1.50999 -3.48023,3.37517 -0.0413,0.54927 0.0447,1.07753 0.22718,1.56112 -1.89484,-6.5e-4 -3.49911,1.45724 -3.64363,3.37772 -2.01302,-0.1515 -3.76799,1.35757 -3.91947,3.37088 -0.12069,1.60389 0.81442,3.04116 2.21751,3.63668 -0.62798,0.60191 -1.04729,1.42537 -1.1177,2.36103 -0.0213,0.28278 -0.006,0.55962 0.0344,0.82855 -1.45051,0.39594 -2.56482,1.66448 -2.68408,3.24929 -0.06,0.79826 0.14396,1.55397 0.53403,2.18702 -0.78048,0.61173 -1.31321,1.53362 -1.39349,2.60022 -0.14867,1.9758 1.3037,3.699 3.26065,3.9056 -0.17203,0.37963 -0.28566,0.79335 -0.31879,1.2335 -0.12233,1.62572 0.83889,3.08165 2.27339,3.66223 -0.008,0.0575 -0.0176,0.11437 -0.0223,0.17267 -0.15151,2.01331 1.35756,3.76795 3.37056,3.91943 1.17785,0.0886 2.26454,-0.39373 2.99616,-1.21037 0.60681,0.66915 1.45866,1.1181 2.43058,1.19124 2.01331,0.15151 3.76796,-1.35756 3.91947,-3.37088 0.11983,-1.59251 -0.8015,-3.01979 -2.18762,-3.62332 0.12003,-0.31832 0.19945,-0.65795 0.22624,-1.01419 0.0228,-0.30245 0.004,-0.59754 -0.0444,-0.88371 1.96046,0.0818 3.64741,-1.40249 3.79575,-3.37399 0.0355,-0.47089 -0.0229,-0.92629 -0.15453,-1.35165 1.79955,-0.10506 3.28961,-1.524 3.42864,-3.37133 0.0326,-0.43247 -0.0157,-0.85156 -0.12505,-1.24682 0.91421,-0.60167 1.5521,-1.60219 1.64059,-2.77819 0.0224,-0.29726 0.004,-0.58763 -0.0422,-0.86935 1.59022,-0.0342 2.95928,-1.09815 3.41213,-2.58927 0.17867,0.0412 0.36076,0.0738 0.54919,0.088 1.21967,0.0918 2.34163,-0.42843 3.07266,-1.29862 0.5643,0.46999 1.27285,0.77741 2.06065,0.83669 0.94395,0.071 1.82879,-0.22653 2.52044,-0.76675 0.60332,0.63766 1.43334,1.06429 2.37761,1.13533 1.72375,0.12972 3.25489,-0.96002 3.7552,-2.53935 0.5424,0.41206 1.20416,0.67979 1.93386,0.73469 0.18849,0.0137 0.37364,0.009 0.55647,-0.005 0.56595,1.08092 1.65658,1.85634 2.96262,1.95461 1.03187,0.0776 1.99408,-0.28301 2.70926,-0.92223 0.61114,0.73903 1.50856,1.23964 2.54041,1.31728 0.91352,0.0688 1.77166,-0.20703 2.45309,-0.714 0.25976,0.081 0.53127,0.13712 0.81434,0.15844 1.02572,0.0773 1.98291,-0.27829 2.6966,-0.91022 0.35918,1.35192 1.47572,2.41551 2.90224,2.66289 0.42805,1.3976 1.67326,2.46037 3.21875,2.57666 1.49967,0.11282 2.85485,-0.69643 3.51165,-1.9484 0.53743,1.1684 1.67471,2.01812 3.04776,2.12145 0.71742,0.054 1.40057,-0.10636 1.99153,-0.42168 -0.2799,0.4701 -0.46134,1.00823 -0.50518,1.5907 -0.11324,1.50399 0.70109,2.86326 1.95937,3.51805 -0.1067,0.30016 -0.17937,0.61741 -0.20442,0.95031 -0.14346,1.90634 1.20301,3.5786 3.05546,3.87966 -0.12155,0.32067 -0.20163,0.66272 -0.22864,1.02173 -0.15151,2.0133 1.35754,3.76798 3.37086,3.91949 0.76936,0.0578 1.49987,-0.12795 2.1185,-0.49067 0.60651,0.66539 1.45575,1.11168 2.42429,1.18458 2.01334,0.15151 3.76798,-1.35756 3.91945,-3.37057 0.004,-0.0532 0.002,-0.105 0.004,-0.15762 0.32711,0.12661 0.67762,0.20896 1.04525,0.23661 2.0133,0.15151 3.76801,-1.35787 3.91948,-3.37086 7e-4,-0.009 4e-5,-0.0182 10e-4,-0.0274 0.1392,0.0271 0.28102,0.0486 0.42614,0.0593 2.013,0.1515 3.76797,-1.35785 3.91946,-3.37086 0.1515,-2.01331 -1.35785,-3.768 -3.37086,-3.91948"
       style="display:inline;fill:#8caa27;fill-opacity:1;fill-rule:nonzero;stroke:#000000;stroke-width:1.13386;stroke-dasharray:none;stroke-opacity:1"
       id="path8568"
       sodipodi:nodetypes="cccscssccscsscccsccscscscscccsscsccscssccscsscsccscscscscsccscsscscscscsccccscscccscscsccscscscscsscsccssccsc" /><g
       id="g7149"
       inkscape:label="eyes"
       transform="rotate(-2.3771473,718.39165,698.14837)"><path
         id="path6030"
         style="opacity:1;fill:#ffffff;fill-opacity:1;stroke:#817c3f;stroke-width:0;stroke-linecap:round;stroke-linejoin:round;stroke-miterlimit:0"
         d="m 421.76987,647.56904 a 10.451076,12.579999 0 0 1 -10.45107,12.58 10.451076,12.579999 0 0 1 -10.45108,-12.58 10.451076,12.579999 0 0 1 10.45108,-12.58 10.451076,12.579999 0 0 1 10.45107,12.58 z" /><path
         id="path6241"
         style="opacity:1;fill:#000000;fill-opacity:1;stroke:#817c3f;stroke-width:0;stroke-linecap:round;stroke-linejoin:round;stroke-miterlimit:0"
         d="m 417.06613,650.24915 a 4.0348996,4.0349017 0 0 1 -4.03489,4.03489 4.0348996,4.0349017 0 0 1 -4.03491,-4.03489 4.0348996,4.0349017 0 0 1 4.03491,-4.03492 4.0348996,4.0349017 0 0 1 4.03489,4.03492 z" /><path
         id="path6244"
         style="opacity:1;fill:#ffffff;fill-opacity:1;stroke:#817c3f;stroke-width:0;stroke-linecap:round;stroke-linejoin:round;stroke-miterlimit:0"
         d="m 423.90004,647.56904 a 10.451076,12.579999 0 0 0 10.45107,12.58 10.451076,12.579999 0 0 0 10.45108,-12.58 10.451076,12.579999 0 0 0 -10.45108,-12.58 10.451076,12.579999 0 0 0 -10.45107,12.58 z" /><path
         id="path6246"
         style="opacity:1;fill:#000000;fill-opacity:1;stroke:#817c3f;stroke-width:0;stroke-linecap:round;stroke-linejoin:round;stroke-miterlimit:0"
         d="m 428.60377,650.24915 a 4.0348996,4.0349017 0 0 0 4.0349,4.03489 4.0348996,4.0349017 0 0 0 4.03491,-4.03489 4.0348996,4.0349017 0 0 0 -4.03491,-4.03492 4.0348996,4.0349017 0 0 0 -4.0349,4.03492 z" /></g><path
       style="display:inline;fill:#8caa27;fill-opacity:1;stroke:#d1b755;stroke-width:1.13386;stroke-linecap:butt;stroke-linejoin:miter;stroke-dasharray:none;stroke-opacity:1"
       d="m 378.21133,708.37825 v 14.23425 h 7.11712 l 14.23425,56.93698 h 42.70274 l 14.23424,-56.93698 h 7.11712 v -14.23425 z"
       id="path4983"
       sodipodi:nodetypes="ccccccccc"
       inkscape:label="pot" /><path
       style="display:inline;fill:none;stroke:#d1b755;stroke-width:1px;stroke-linecap:butt;stroke-linejoin:miter;stroke-opacity:1"
       d="m 384.95668,722.61099 71.53041,-0.38458"
       id="path14329"
       inkscape:label="pot line" /><path
       id="path17423"
       style="color:#000000;display:none;opacity:1;fill:#8caa27;fill-opacity:1;stroke-width:1.13386;stroke-linecap:round;stroke-linejoin:round;stroke-miterlimit:0;-inkscape-stroke:none"
       inkscape:label="pot modern"
       inkscape:transform-center-x="0.7103679"
       inkscape:transform-center-y="-0.26905005"
       d="m 460.50977,707.92383 -80.72071,-0.0141 c -3.01873,0.0154 -4.09938,2.28249 -4.12304,4.24848 0.008,2.28295 1.86939,4.13114 4.15234,4.12305 l 3.01758,-0.004 c 6.2e-4,0.003 0.001,0.005 0.002,0.008 l 7.99609,33.78711 c 0.1656,0.69392 0.29348,1.95493 0.94336,1.80273 1.42975,-0.33486 2.51411,1.62698 4.04102,1.26367 2.22097,-0.52838 3.59683,-2.76146 3.06836,-4.98242 l -7.54492,-31.88672 59.13086,-0.0586 -7.88282,33.30468 c -0.52847,2.22096 0.8474,4.456 3.06836,4.98438 1.52691,0.36331 2.61322,-1.60048 4.04297,-1.26562 0.64988,0.15219 0.77581,-1.10881 0.94141,-1.80274 l 7.99804,-33.78711 c 0.11576,-0.4865 0.13418,-0.97178 0.0781,-1.44141 l 1.82227,-0.002 c 2.28295,-0.008 4.12918,-1.86941 4.12109,-4.15234 -0.008,-2.28295 -1.86942,-4.13307 -4.15234,-4.125 z"
       sodipodi:nodetypes="cccccccssccccssccccscc" /><path
       id="path4005"
       style="display:inline;opacity:1;fill:#694211;fill-opacity:1;stroke:#d1b755;stroke-width:2.64567;stroke-linecap:round;stroke-linejoin:round;stroke-miterlimit:0;stroke-dasharray:none;stroke-opacity:1"
       d="m 420.91406,545.40039 c -66.58464,4.7e-4 -120.56203,53.97786 -120.5625,120.5625 -6.1e-4,66.5854 53.9771,120.56398 120.5625,120.56445 66.5854,-4.7e-4 120.56311,-53.97905 120.5625,-120.56445 -4.7e-4,-66.58464 -53.97786,-120.56203 -120.5625,-120.5625 z m 0,32.07227 c 13.06038,7e-5 25.41185,3.03531 36.38752,8.43883 0,0 4.66163,8.63852 4.50322,8.39327 24.85157,14.21186 41.59932,40.97916 41.5995,71.65813 8.2e-4,45.55876 -36.93148,82.49193 -82.49024,82.49219 -45.55875,-2.6e-4 -82.49105,-36.93344 -82.49023,-82.49219 1.5e-4,-25.4722 11.54554,-48.24781 29.68875,-63.37941 1.83416,-1.52971 3.73576,-2.9813 5.69966,-4.34965 1.05611,-0.73585 2.13025,-1.44763 3.22161,-2.13454 0.18738,0.19 2.47374,-5.9384 2.47374,-5.9384 l 12.13982,-12.52057 21.7049,-8.36484 c 0,0 7.47348,8.19719 7.56175,8.19718 z"
       sodipodi:nodetypes="cscsccccccccsccccc"
       inkscape:label="the ring" /><path
       style="font-size:43.4523px;line-height:1.25;font-family:'Politics Head';-inkscape-font-specification:'Politics Head, Normal';letter-spacing:8px;fill:#ffffff;stroke-width:1.01841"
       d="m 335.97204,1269.5968 c 2.37889,3.9666 6.15558,5.19 10.67172,2.531 2.44912,-1.444 3.51205,-3.5906 3.29787,-6.0104 -0.0145,-0.1892 0.051,-0.3274 0.16018,-0.3929 0.0728,-0.044 0.19287,-0.091 0.42207,0.044 1.79,1.1284 4.23522,0.9979 6.25493,-0.2134 4.09401,-2.4553 4.60427,-6.596 1.93075,-11.0539 l -5.64167,-9.4071 c -0.22916,-0.3821 -0.60757,-0.4768 -0.98967,-0.2476 l -22.14405,13.2803 c -0.38211,0.2291 -0.47679,0.6075 -0.24763,0.9896 z m 10.87154,-13.843 c -0.22916,-0.3821 -0.13447,-0.7605 0.24763,-0.9896 l 3.58454,-2.1498 c 0.3821,-0.2291 0.76051,-0.1344 0.98967,0.2477 l 2.5753,4.2941 c 0.93846,1.5649 0.63254,2.9111 -0.95048,3.8605 -1.58301,0.9494 -2.93289,0.5961 -3.87135,-0.9687 z m -9.64367,5.7836 c -0.22915,-0.3821 -0.13447,-0.7605 0.24764,-0.9897 l 3.94844,-2.368 c 0.38211,-0.2291 0.76051,-0.1344 0.98967,0.2477 l 2.80447,4.6762 c 0.7966,1.3283 0.41056,2.9947 -1.15426,3.9332 -1.63761,0.9821 -3.23489,0.5051 -4.03149,-0.8232 z m 23.00075,22.3702 c -0.28089,-0.2587 -0.24391,-0.4554 -0.0102,-0.6152 l 8.02033,-5.0736 0.66741,-0.5679 0.54617,0.5031 -0.51137,0.7117 -4.41566,8.3944 c -0.14006,0.2459 -0.3487,0.2845 -0.62958,0.026 z m 1.18731,8.45 c 0.23407,0.2156 0.28334,0.3187 0.1864,0.5179 l -1.81103,3.4377 c -0.0969,0.1991 -0.0596,0.3778 0.11206,0.5359 l 3.86996,3.5651 c 0.23407,0.2156 0.41518,0.2383 0.55893,0.082 0.0431,-0.047 0.0719,-0.078 0.12692,-0.2004 l 12.21364,-24.7504 c 0.13884,-0.276 0.0366,-0.5721 -0.19747,-0.7877 l -4.72821,-4.3558 c -0.23407,-0.2156 -0.53756,-0.2932 -0.80123,-0.1323 0,0 -23.47812,14.0559 -23.53685,14.0884 -0.10309,0.049 -0.26368,0.1609 -0.33555,0.239 -0.14376,0.156 -0.0908,0.349 0.14327,0.5647 l 3.85435,3.5507 c 0.15605,0.1438 0.33716,0.1664 0.52773,0.053 l 3.27787,-2.0864 c 0.19057,-0.1129 0.28174,-0.087 0.53141,0.1433 z m 20.45881,19.2753 2.72212,1.34 c 5.17774,2.5486 9.15396,1.1005 11.18726,-3.0302 l 8.62043,-17.513 c 0.19677,-0.3997 0.0711,-0.769 -0.32864,-0.9658 l -4.03558,-1.9864 c -0.39975,-0.1968 -0.76903,-0.071 -0.9658,0.3286 l -8.33933,16.9419 c -0.72179,1.4183 -2.22612,2.1203 -3.74898,1.3707 l -2.72212,-1.3399 c -1.50382,-0.7402 -1.94056,-2.3031 -1.20032,-3.807 l 8.33933,-16.9418 c 0.19677,-0.3998 0.0711,-0.769 -0.32864,-0.9658 l -4.03558,-1.9865 c -0.39976,-0.1967 -0.76903,-0.071 -0.9658,0.3287 l -8.62043,17.5129 c -2.10826,4.2831 -0.94601,8.0713 4.42208,10.7136 z m 25.36544,9.6149 4.43141,0.6358 c 0.44104,0.063 0.75323,-0.1706 0.8165,-0.6116 l 1.03345,-7.2037 c 0.56946,-3.9694 0.61714,-8.4851 0.65028,-8.7162 l 0.10501,0.015 c 0.0479,0.1141 0.51405,3.4389 0.90618,5.0384 l 2.08342,8.3367 c 0.0659,0.2881 0.29979,0.4503 0.67783,0.5045 l 3.3183,0.4761 c 0.29403,0.042 0.56413,-0.048 0.70529,-0.2846 l 4.45712,-7.3127 c 0.82599,-1.4248 2.15399,-4.4065 2.16906,-4.5115 l 0.16801,0.024 c -0.0331,0.231 -1.21192,4.5631 -1.76329,8.4064 l -1.02742,7.1617 c -0.0633,0.441 0.17058,0.7532 0.61162,0.8165 l 4.3474,0.6237 c 0.44104,0.063 0.75323,-0.1706 0.8165,-0.6116 l 3.69692,-25.7694 c 0.0633,-0.441 -0.17058,-0.7532 -0.61162,-0.8165 l -4.74643,-0.6809 c -0.31503,-0.045 -0.58815,0.066 -0.7053,0.2846 l -7.69488,12.6997 c -0.37547,0.6749 -0.73604,1.5448 -0.74207,1.5868 l -0.21002,-0.03 c 0.006,-0.042 -0.0625,-0.9092 -0.26602,-1.7315 l -3.96118,-14.3719 c -0.0719,-0.246 -0.2818,-0.4262 -0.59683,-0.4714 l -4.76744,-0.6839 c -0.44104,-0.063 -0.75323,0.1705 -0.8165,0.6116 l -3.69692,25.7693 c -0.0633,0.4411 0.17058,0.7533 0.61162,0.8165 z m 47.36092,1.8783 c 5.995,-0.9387 8.99015,-4.7149 8.20246,-9.7456 -0.57436,-3.6683 -3.57147,-6.0768 -9.44263,-7.0903 -3.62149,-0.6356 -4.84933,-1.3453 -5.05938,-2.6868 -0.21662,-1.3835 0.76232,-2.675 2.79559,-2.9933 1.82365,-0.2856 3.31744,0.3396 4.15962,1.6036 0.19596,0.2915 0.47375,0.4198 0.72529,0.3804 0.10481,-0.016 0.20634,-0.054 0.30458,-0.1121 l 3.59839,-1.9808 c 0.23841,-0.1233 0.31696,-0.3074 0.28742,-0.496 -0.0197,-0.1258 -0.0295,-0.1887 -0.22423,-0.6092 -1.75074,-3.2263 -5.33582,-4.7266 -9.77967,-4.0309 -5.65962,0.8862 -8.69393,5.098 -8.09988,8.8921 0.64656,4.1294 3.51461,6.5366 9.54033,7.44 3.6955,0.5595 4.83368,1.5195 5.04373,2.8611 0.23302,1.4882 -0.72824,2.7555 -2.88728,3.0935 -2.34769,0.3676 -3.83036,-0.3237 -4.72759,-1.665 -0.19596,-0.2914 -0.47376,-0.4198 -0.72529,-0.3804 -0.10481,0.016 -0.20634,0.054 -0.30458,0.1121 l -3.78503,2.1604 c -0.23841,0.1232 -0.31696,0.3073 -0.28743,0.496 0.0197,0.1257 0.0295,0.1886 0.22424,0.6091 1.62042,3.3542 5.59922,4.9002 10.44134,4.1421 z m 29.74376,-8.755 2.76479,-1.2495 c 3.90551,-1.765 5.98058,-4.7982 5.44571,-8.3516 -0.0675,-0.4585 -0.18107,-0.7098 -0.2335,-0.8258 -0.0786,-0.174 -0.24521,-0.285 -0.51217,-0.2575 l -4.09551,0.3142 c -0.11415,0.01 -0.21956,0.029 -0.31623,0.073 -0.23201,0.1049 -0.43279,0.3819 -0.39839,0.7156 0.16509,1.6018 -0.47461,2.6592 -2.09868,3.3932 l -2.78413,1.2582 c -1.5274,0.6903 -3.01149,0.034 -3.70177,-1.4936 l -4.74456,-10.4984 c -0.64659,-1.4308 -0.22162,-3.0664 1.32512,-3.7654 l 2.78412,-1.2582 c 1.62408,-0.734 2.91594,-0.5029 3.9336,0.667 0.22773,0.2463 0.56831,0.2787 0.80032,0.1738 0.0967,-0.044 0.18461,-0.1067 0.2638,-0.189 l 2.94214,-2.8664 c 0.19706,-0.1822 0.22383,-0.3805 0.14519,-0.5545 -0.0524,-0.116 -0.0786,-0.174 -0.37813,-0.5276 -2.31362,-2.7496 -6.04885,-3.3898 -9.93502,-1.6335 l -2.78413,1.2582 c -5.25891,2.3766 -6.6688,6.3666 -4.77272,10.5621 l 5.26882,11.6585 c 1.97472,4.3696 5.62908,5.8612 11.08133,3.3972 z m 22.18454,-12.8726 3.39168,-2.9544 c 0.33597,-0.2927 0.36278,-0.6818 0.0701,-1.0178 l -6.50804,-7.4713 c -0.29265,-0.3359 -0.26584,-0.7251 0.0701,-1.0177 l 5.83945,-5.0866 c 0.33596,-0.2927 0.72511,-0.2659 1.01776,0.07 l 6.50804,7.4713 c 0.29265,0.336 0.6818,0.3628 1.01776,0.07 l 3.39168,-2.9544 c 0.33597,-0.2926 0.36278,-0.6818 0.0701,-1.0177 l -17.09927,-19.6302 c -0.29265,-0.3359 -0.6818,-0.3628 -1.01776,-0.07 l -3.39168,2.9544 c -0.33597,0.2927 -0.36278,0.6818 -0.0701,1.0178 l 6.08996,6.9913 c 0.29265,0.336 0.26584,0.7251 -0.0701,1.0178 l -5.83944,5.0865 c -0.33597,0.2927 -0.72512,0.2659 -1.01777,-0.07 l -6.08996,-6.9913 c -0.29265,-0.336 -0.6818,-0.3628 -1.01777,-0.07 l -3.39167,2.9543 c -0.33597,0.2927 -0.36279,0.6818 -0.0701,1.0178 l 17.09926,19.6301 c 0.29266,0.336 0.6818,0.3628 1.01777,0.07 z m 29.73714,-31.7641 1.59313,-2.5821 c 3.03029,-4.9114 1.96756,-9.0075 -1.95073,-11.425 l -16.6121,-10.2496 c -0.37919,-0.2339 -0.75876,-0.144 -0.99271,0.2352 l -2.36185,3.828 c -0.23395,0.3792 -0.14405,0.7587 0.23514,0.9927 l 16.0704,9.9153 c 1.34311,0.8536 1.89867,2.418 1.0074,3.8625 l -1.59313,2.5821 c -0.88012,1.4265 -2.47752,1.7123 -3.904,0.8322 l -16.0704,-9.9153 c -0.37919,-0.2339 -0.75876,-0.144 -0.99271,0.2352 l -2.36184,3.828 c -0.23396,0.3792 -0.14405,0.7587 0.23513,0.9927 l 16.61211,10.2495 c 4.06274,2.5067 7.94446,1.7106 11.08616,-3.3814 z m 11.57283,-24.4507 4.25229,-15.2239 c 0.11987,-0.4291 -0.0716,-0.769 -0.50071,-0.8889 l -3.82131,-1.0673 c -0.42913,-0.1199 -0.76898,0.072 -0.88884,0.5007 l -2.65412,9.5022 c -0.11986,0.4291 -0.45972,0.6206 -0.88885,0.5007 l -19.8626,-5.548 c -0.42913,-0.1198 -0.76898,0.072 -0.88884,0.5008 l -1.21005,4.3321 c -0.11987,0.4292 0.0716,0.769 0.50072,0.8889 l 25.07346,7.0034 c 0.42913,0.1199 0.76899,-0.072 0.88885,-0.5007 z m 6.23829,-46.4913 c 0.001,-0.4456 -0.27346,-0.7223 -0.71901,-0.7238 l -3.96755,-0.013 c -0.44555,-0 -0.72227,0.2735 -0.72374,0.719 l -0.0349,10.6509 c -0.001,0.4455 -0.27819,0.7204 -0.72374,0.719 l -4.17972,-0.014 c -0.44555,-0 -0.72046,-0.2782 -0.719,-0.7238 l 0.0287,-8.7413 c 0.001,-0.4456 -0.27345,-0.7223 -0.71901,-0.7238 l -3.96754,-0.013 c -0.44556,-0 -0.72228,0.2735 -0.72374,0.719 l -0.0287,8.7414 c -0.001,0.4455 -0.27819,0.7204 -0.72374,0.719 l -3.96755,-0.013 c -0.44555,-0 -0.72047,-0.2782 -0.71901,-0.7238 l 0.0349,-10.6508 c 0.001,-0.4456 -0.27345,-0.7223 -0.719,-0.7238 l -3.96755,-0.013 c -0.44555,-0 -0.72228,0.2735 -0.72374,0.719 l -0.0544,16.5916 c -0.001,0.4455 0.27345,0.7223 0.71901,0.7237 l 25.82088,0.085 c 0.44555,0 0.72227,-0.2734 0.72374,-0.719 z"
       id="text4114"
       inkscape:label="BAUMSCHULE"
       transform="matrix(0.93490628,0.23690199,-0.23690199,0.93490628,298.78248,-564.44353)"
       aria-label="BAUMSCHULE " /><g
       id="g14871"
       inkscape:label="dots"
       style="display:inline"><path
         id="circle6254"
         style="display:inline;fill:#ffffff;stroke:#ffcc00;stroke-width:1.24182"
         d="m 387.07514,618.9708 a 3.2913508,3.2913508 0 0 1 -3.29135,3.29135 3.2913508,3.2913508 0 0 1 -3.29135,-3.29135 3.2913508,3.2913508 0 0 1 3.29135,-3.29135 3.2913508,3.2913508 0 0 1 3.29135,3.29135 z"
         inkscape:label="DOT" /><path
         id="path6257"
         style="display:inline;fill:#ffffff;stroke:#ffcc00;stroke-width:1.24182"
         d="m 396.71046,596.27951 a 3.2913508,3.2913508 0 0 1 -3.29135,3.29135 3.2913508,3.2913508 0 0 1 -3.29135,-3.29135 3.2913508,3.2913508 0 0 1 3.29135,-3.29135 3.2913508,3.2913508 0 0 1 3.29135,3.29135 z"
         inkscape:label="DOT" /><path
         id="path6259"
         style="display:inline;fill:#ffffff;stroke:#ffcc00;stroke-width:1.24182"
         d="m 438.21125,595.31744 a 3.2913508,3.2913508 0 0 1 -3.29135,3.29135 3.2913508,3.2913508 0 0 1 -3.29135,-3.29135 3.2913508,3.2913508 0 0 1 3.29135,-3.29135 3.2913508,3.2913508 0 0 1 3.29135,3.29135 z"
         inkscape:label="DOT" /><path
         id="path6261"
         style="display:inline;fill:#ffffff;stroke:#ffcc00;stroke-width:1.24182"
         d="m 453.1663,612.07915 a 3.2913508,3.2913508 0 0 1 -3.29135,3.29135 3.2913508,3.2913508 0 0 1 -3.29135,-3.29135 3.2913508,3.2913508 0 0 1 3.29135,-3.29135 3.2913508,3.2913508 0 0 1 3.29135,3.29135 z"
         inkscape:label="DOT" /><path
         id="path6263"
         style="display:inline;fill:#ffffff;stroke:#ffcc00;stroke-width:1.24182"
         d="m 417.78704,599.1258 a 3.2913508,3.2913508 0 0 1 -3.29135,3.29135 3.2913508,3.2913508 0 0 1 -3.29135,-3.29135 3.2913508,3.2913508 0 0 1 3.29135,-3.29135 3.2913508,3.2913508 0 0 1 3.29135,3.29135 z"
         inkscape:label="DOT" /></g><path
       id="path17430"
       style="display:none;fill:#ffffff;stroke:#ffcc00;stroke-width:1.24182"
       d="m 463.71084,712.07436 a 3.2913508,3.2913508 0 0 1 -3.29135,3.29135 3.2913508,3.2913508 0 0 1 -3.29135,-3.29135 3.2913508,3.2913508 0 0 1 3.29135,-3.29135 3.2913508,3.2913508 0 0 1 3.29135,3.29135 z"
       inkscape:label="DOT" /><path
       id="path14401"
       style="color:#000000;display:none;opacity:1;fill:#d1b755;stroke-width:1.13386;stroke-linecap:round;stroke-linejoin:round;stroke-miterlimit:0;-inkscape-stroke:none"
       inkscape:transform-center-x="-48.042491"
       inkscape:transform-center-y="-27.737587"
       d="m 479.85156,627.42773 c -0.66702,0.0169 -1.33919,0.19407 -1.95703,0.55079 l -19.67578,11.36132 c -1.9771,1.14148 -2.65709,3.67719 -1.51563,5.6543 1.14148,1.9771 3.6772,2.65515 5.6543,1.51367 l 19.67578,-11.35937 c 1.9771,-1.14148 2.65514,-3.67525 1.51368,-5.65235 -0.78477,-1.35925 -2.22787,-2.1056 -3.69532,-2.06836 z m -126.04492,9.57422 c -0.16824,0.003 -0.33676,0.0159 -0.50195,0.0391 -1.45372,0.20372 -2.75521,1.177 -3.30664,2.64648 -0.80207,2.13742 0.2825,4.52605 2.41992,5.32812 l 21.27148,7.98047 c 2.13742,0.80209 4.528,-0.28055 5.33008,-2.41797 0.80207,-2.13742 -0.28446,-4.52799 -2.42187,-5.33007 l -21.27149,-7.98438 c -0.50095,-0.188 -1.0148,-0.27086 -1.51953,-0.26172 z m 112.39063,23.83985 c -2.28296,0 -4.13868,1.8557 -4.13868,4.13867 0,2.28296 1.85572,4.13867 4.13868,4.13867 h 22.7207 c 2.28296,0 4.13672,-1.85571 4.13672,-4.13867 0,-2.28297 -1.85376,-4.13867 -4.13672,-4.13867 z m -93.11133,6.87109 c -0.27464,-0.0103 -0.55443,0.006 -0.83594,0.0527 l -22.41406,3.72461 c -2.2521,0.37408 -3.77644,2.50766 -3.40235,4.75977 0.37409,2.2521 2.50767,3.77838 4.75977,3.4043 l 22.41406,-3.72266 c 2.2521,-0.37409 3.77839,-2.50766 3.4043,-4.75976 -0.32732,-1.9706 -2.00334,-3.38662 -3.92578,-3.45899 z m 87.6582,14.99023 c -1.46795,-0.0375 -2.91054,0.70911 -3.69531,2.06836 -1.14148,1.9771 -0.46343,4.51087 1.51367,5.65235 l 19.67773,11.36133 c 1.97711,1.14148 4.50893,0.46147 5.65039,-1.51563 1.14149,-1.97711 0.46537,-4.51282 -1.51171,-5.6543 l -19.67774,-11.35937 c -0.61784,-0.35671 -1.28978,-0.53568 -1.95703,-0.55274 z m -78.98828,5.66797 c -0.18221,0.0105 -0.36468,0.0337 -0.54492,0.0684 -0.65544,0.12616 -1.28881,0.41211 -1.83985,0.86524 l -17.54882,14.42969 c -1.76332,1.45001 -2.01644,4.06283 -0.56641,5.82617 1.45001,1.76334 4.05893,2.01837 5.82226,0.56836 l 17.55079,-14.43164 c 1.76333,-1.45002 2.01642,-4.06089 0.5664,-5.82422 -0.87228,-1.06076 -2.16402,-1.57558 -3.43945,-1.50196 z"
       inkscape:label="sunshine" /><path
       id="path3000"
       style="display:none;fill:#ffffff;fill-opacity:1;stroke-width:0.157515"
       d="m 523.75364,645.80728 c -0.17433,0.0186 -0.33818,0.11722 -0.43666,0.26228 0.0672,-0.0942 0.0139,-0.0235 -0.0298,0.0198 -0.0435,0.0433 -0.10898,0.1075 -0.18997,0.18431 -0.16199,0.15363 -0.38794,0.36084 -0.65499,0.60679 -1.52862,1.40749 -0.11429,0.14225 -1.51556,1.3993 -0.0456,0.0409 -10e-4,-0.003 -0.0525,0.044 -0.0406,0.0332 -0.0873,0.0683 -0.15028,0.1205 -0.25045,0.028 -0.50224,0.0632 -0.74856,0.10633 -2.26263,0.39076 -3.68766,1.77257 -4.22342,4.0944 l -0.26795,1.1597 6.21107,0.0198 c 3.41639,0.01 6.2336,0.004 6.25786,-0.01 0.0243,-0.0143 -0.0145,-0.35452 -0.0865,-0.75707 -0.2119,-1.18569 -0.5778,-2.02426 -1.2235,-2.80711 -0.76193,-0.92378 -1.55677,-1.35179 -3.10766,-1.68 -0.31565,-0.0754 -0.63801,-0.12441 -0.96122,-0.15454 0.0324,-0.029 0.10164,-0.0914 0.0865,-0.078 -0.0409,0.0332 0.0409,-0.0473 0.60253,-0.56426 0.2694,-0.2481 0.50061,-0.45976 0.67059,-0.62096 0.085,-0.0806 0.15285,-0.1489 0.20841,-0.20416 0.0555,-0.0552 0.0712,-0.0497 0.1602,-0.17438 0.13235,-0.17905 0.15242,-0.43194 0.0525,-0.63089 -0.1,-0.19894 -0.31609,-0.33534 -0.53874,-0.336 -0.0211,-7.2e-4 -0.0413,-7.2e-4 -0.0624,0 z m -7.02343,8.87498 c -0.1738,0.26143 0.035,3.11171 0.32892,4.49562 0.58061,2.73366 1.61218,4.50629 3.23383,5.55891 0.51738,0.33583 0.89654,0.67605 0.93146,0.83505 0.1313,0.59692 0.84953,0.49675 0.9924,-0.13894 0.0465,-0.20718 0.26442,-0.39825 0.63798,-0.55859 1.40795,-0.60424 2.65228,-2.50581 3.28205,-5.01451 0.37795,-1.50564 0.62842,-4.2093 0.52739,-5.17754 z"
       inkscape:label="acorn" /><path
       id="path14873"
       style="display:none;fill:#ffffff;fill-opacity:1;stroke-width:0.157515"
       d="m 318.51512,645.80728 c 0.17433,0.0186 0.33818,0.11722 0.43666,0.26228 -0.0672,-0.0942 -0.0139,-0.0235 0.0298,0.0198 0.0435,0.0433 0.10899,0.1075 0.18997,0.18431 0.16199,0.15363 0.38794,0.36084 0.655,0.60679 1.52861,1.40749 0.11428,0.14225 1.51555,1.3993 0.0457,0.0409 10e-4,-0.003 0.0525,0.044 0.0406,0.0332 0.0873,0.0683 0.15028,0.1205 0.25045,0.028 0.50224,0.0632 0.74857,0.10633 2.26263,0.39076 3.68765,1.77257 4.22341,4.0944 l 0.26795,1.1597 -6.21107,0.0198 c -3.41639,0.01 -6.23359,0.004 -6.25786,-0.01 -0.0243,-0.0143 0.0145,-0.35452 0.0865,-0.75707 0.2119,-1.18569 0.5778,-2.02426 1.2235,-2.80711 0.76194,-0.92378 1.55677,-1.35179 3.10767,-1.68 0.31564,-0.0754 0.638,-0.12441 0.96122,-0.15454 -0.0324,-0.029 -0.10165,-0.0914 -0.0865,-0.078 0.0409,0.0332 -0.0409,-0.0473 -0.60254,-0.56426 -0.26939,-0.2481 -0.50061,-0.45976 -0.67059,-0.62096 -0.085,-0.0806 -0.15285,-0.1489 -0.2084,-0.20416 -0.0555,-0.0552 -0.0712,-0.0497 -0.1602,-0.17438 -0.13235,-0.17905 -0.15243,-0.43194 -0.0525,-0.63089 0.1,-0.19894 0.31609,-0.33534 0.53874,-0.336 0.0211,-7.2e-4 0.0413,-7.2e-4 0.0624,0 z m 7.02343,8.87498 c 0.1738,0.26143 -0.035,3.11171 -0.32892,4.49562 -0.5806,2.73366 -1.61218,4.50629 -3.23383,5.55891 -0.51738,0.33583 -0.89654,0.67605 -0.93145,0.83505 -0.13131,0.59692 -0.84953,0.49675 -0.99241,-0.13894 -0.0465,-0.20718 -0.26441,-0.39825 -0.63798,-0.55859 -1.40795,-0.60424 -2.65228,-2.50581 -3.28205,-5.01451 -0.37795,-1.50564 -0.62842,-4.2093 -0.52739,-5.17754 z"
       inkscape:label="acorn" /><path
       id="path17433"
       style="display:none;fill:#ffffff;stroke:#ffcc00;stroke-width:1.24182"
       d="m 383.23014,712.07436 a 3.2913508,3.2913508 0 0 1 -3.29135,3.29135 3.2913508,3.2913508 0 0 1 -3.29135,-3.29135 3.2913508,3.2913508 0 0 1 3.29135,-3.29135 3.2913508,3.2913508 0 0 1 3.29135,3.29135 z"
       inkscape:label="DOT" /><path
       id="path17490"
       style="color:#000000;display:none;opacity:1;fill:#8caa27;fill-opacity:1;stroke-width:1.13386;stroke-linecap:round;stroke-linejoin:round;stroke-miterlimit:0;-inkscape-stroke:none"
       inkscape:label="pot modern"
       inkscape:transform-center-x="0.7103679"
       inkscape:transform-center-y="-0.26905005"
       d="m 379.78906,715.84545 c -3.01873,0.0154 -4.09938,2.28249 -4.12304,4.24848 0.008,2.28295 1.86939,4.13114 4.15234,4.12305 0,0 80.52214,0.0709 80.72268,-0.0801 2.28295,-0.008 4.12918,-1.86941 4.12109,-4.15234 -0.008,-2.28295 -1.86942,-4.20105 -4.15234,-4.19298 0.0101,-0.0355 -80.72073,0.0539 -80.72073,0.0539 z"
       sodipodi:nodetypes="ccccscc" /><path
       id="path17768"
       style="display:none;fill:#ffffff;stroke:#ffcc00;stroke-width:1.24182"
       d="m 463.71084,720.34628 a 3.2913508,3.2913508 0 0 1 -3.29135,3.29135 3.2913508,3.2913508 0 0 1 -3.29135,-3.29135 3.2913508,3.2913508 0 0 1 3.29135,-3.29135 3.2913508,3.2913508 0 0 1 3.29135,3.29135 z"
       inkscape:label="DOT" /><path
       id="path17770"
       style="display:none;fill:#ffffff;stroke:#ffcc00;stroke-width:1.24182"
       d="m 383.23014,720.34628 a 3.2913508,3.2913508 0 0 1 -3.29135,3.29135 3.2913508,3.2913508 0 0 1 -3.29135,-3.29135 3.2913508,3.2913508 0 0 1 3.29135,-3.29135 3.2913508,3.2913508 0 0 1 3.29135,3.29135 z"
       inkscape:label="DOT" /><path
       id="path20326"
       style="display:none;fill:#ffffff;stroke:#ffcc00;stroke-width:1.24182"
       d="m 525.71169,667.59117 a 3.2913508,3.2913508 0 0 1 -3.29135,3.29135 3.2913508,3.2913508 0 0 1 -3.29135,-3.29135 3.2913508,3.2913508 0 0 1 3.29135,-3.29135 3.2913508,3.2913508 0 0 1 3.29135,3.29135 z"
       inkscape:label="DOT" /><path
       id="path20328"
       style="display:none;fill:#ffffff;stroke:#ffcc00;stroke-width:1.24182"
       d="m 322.30541,669.76664 a 3.2913508,3.2913508 0 0 1 -3.29135,3.29135 3.2913508,3.2913508 0 0 1 -3.29135,-3.29135 3.2913508,3.2913508 0 0 1 3.29135,-3.29135 3.2913508,3.2913508 0 0 1 3.29135,3.29135 z"
       inkscape:label="DOT" /><path
       style="display:none;fill:#000000;stroke-width:0.019335"
       d="m 326.67977,668.71133 -1.22287,-0.40933 -1.23272,-1.23263 -1.23271,-1.23259 -0.41081,0.41083 -0.41085,0.41082 -2.87121,-2.87117 -2.87122,-2.87115 1.63861,-1.63868 1.6386,-1.63871 2.87124,2.87125 2.87123,2.87122 -0.41083,0.41085 -0.41085,0.41082 1.23533,1.2375 1.23534,1.23751 0.40656,1.22292 c 0.22361,0.67263 0.4051,1.22225 0.40331,1.2214 -0.002,0 -0.55355,-0.18573 -1.22615,-0.41086 z m -13.94673,-8.20451 -0.8107,-0.8056 v -1.64487 -1.64487 l -1.84644,-1.84682 -1.84642,-1.84678 1.6385,-1.63852 1.6385,-1.63848 1.8468,1.84642 1.8468,1.84642 h 1.64315 1.64315 l 0.80731,0.80716 c 0.44402,0.44393 0.80732,0.8159 0.80732,0.82658 0,0.023 -6.51837,6.54494 -6.54142,6.54494 -0.009,0 -0.38067,-0.3625 -0.82655,-0.80558 z"
       id="path2242"
       sodipodi:nodetypes="scccccccccccccccscsscccccccccccssss" /><path
       style="display:none;fill:#000000;stroke-width:0.019335"
       d="m 514.35543,668.71133 1.22287,-0.40933 1.23272,-1.23263 1.23271,-1.23259 0.41081,0.41083 0.41085,0.41082 2.87121,-2.87117 2.87122,-2.87115 -1.63861,-1.63868 -1.6386,-1.63871 -2.87124,2.87125 -2.87123,2.87122 0.41083,0.41085 0.41085,0.41082 -1.23533,1.2375 -1.23534,1.23751 -0.40656,1.22292 c -0.22361,0.67263 -0.4051,1.22225 -0.40331,1.2214 0.002,0 0.55355,-0.18573 1.22615,-0.41086 z m 13.94673,-8.20451 0.8107,-0.8056 v -1.64487 -1.64487 l 1.84644,-1.84682 1.84642,-1.84678 -1.6385,-1.63852 -1.6385,-1.63848 -1.8468,1.84642 -1.8468,1.84642 h -1.64315 -1.64315 l -0.80731,0.80716 c -0.44402,0.44393 -0.80732,0.8159 -0.80732,0.82658 0,0.023 6.51837,6.54494 6.54142,6.54494 0.009,0 0.38067,-0.3625 0.82655,-0.80558 z"
       id="path2299"
       sodipodi:nodetypes="scccccccccccccccscsscccccccccccssss" /><ellipse
       style="opacity:1;fill:none;fill-opacity:1;stroke:none;stroke-width:1.05779;stroke-opacity:1"
       id="path1942-2-2-8"
       cx="264.91666"
       cy="876.61975"
       transform="matrix(-0.9293353,0.41653175,0.42327628,0.92628289,310.98763,284.6479)"
       rx="115.82104"
       ry="115.26703" /></g></svg>
