<?xml version="1.0" encoding="UTF-8" standalone="no"?>
<!-- Created with Inkscape (http://www.inkscape.org/) -->

<svg
   width="64.874863mm"
   height="64.874512mm"
   viewBox="0 0 64.874863 64.874512"
   version="1.1"
   id="svg1832"
   inkscape:version="1.2.1 (9c6d41e4, 2022-07-14)"
   sodipodi:docname="branch-logo-xPress.svg"
   xml:space="preserve"
   inkscape:export-filename="branch-logo-xPress-icon.png"
   inkscape:export-xdpi="195.76149"
   inkscape:export-ydpi="195.76149"
   xmlns:inkscape="http://www.inkscape.org/namespaces/inkscape"
   xmlns:sodipodi="http://sodipodi.sourceforge.net/DTD/sodipodi-0.dtd"
   xmlns:xlink="http://www.w3.org/1999/xlink"
   xmlns="http://www.w3.org/2000/svg"
   xmlns:svg="http://www.w3.org/2000/svg"><sodipodi:namedview
     id="namedview1834"
     pagecolor="#ffffff"
     bordercolor="#666666"
     borderopacity="1.0"
     inkscape:showpageshadow="2"
     inkscape:pageopacity="0.0"
     inkscape:pagecheckerboard="0"
     inkscape:deskcolor="#d1d1d1"
     inkscape:document-units="mm"
     showgrid="false"
     inkscape:zoom="1.4142135"
     inkscape:cx="-19.79899"
     inkscape:cy="98.641397"
     inkscape:window-width="2560"
     inkscape:window-height="1381"
     inkscape:window-x="0"
     inkscape:window-y="31"
     inkscape:window-maximized="1"
     inkscape:current-layer="svg1832"><inkscape:grid
       type="xygrid"
       id="grid3933"
       spacingx="0.99999999"
       spacingy="0.99999999" /></sodipodi:namedview><defs
     id="defs1829" /><path
     id="path1942-29"
     style="display:inline;fill:#ffffff;stroke-width:0"
     transform="rotate(-139.5)"
     d="M -22.683741,-3.6682379 A 22.982183,22.982183 0 0 1 -45.665924,19.313946 22.982183,22.982183 0 0 1 -68.648108,-3.6682379 22.982183,22.982183 0 0 1 -45.665924,-26.650421 22.982183,22.982183 0 0 1 -22.683741,-3.6682379 Z"
     inkscape:label="white-bg" /><path
     id="path3092"
     style="display:inline;opacity:1;fill:#83dafa;fill-opacity:1;fill-rule:evenodd;stroke:#000000;stroke-width:0.998546;stroke-linecap:round;stroke-linejoin:round;stroke-miterlimit:100.1;paint-order:stroke fill markers"
     d="M 32.437297 0.49919434 A 31.938158 31.937983 0 0 0 0.49919434 32.437297 A 31.938158 31.937983 0 0 0 32.437297 64.375399 A 31.938158 31.937983 0 0 0 64.375399 32.437297 A 31.938158 31.937983 0 0 0 32.437297 0.49919434 z M 32.437297 10.837581 A 21.599852 21.599733 0 0 1 54.037528 32.437297 A 21.599852 21.599733 0 0 1 49.994364 44.987435 C 50.167888 45.883762 50.158179 46.81401 50.158179 47.405892 A 1.0001 1.0001 0 0 1 49.157206 48.406348 L 46.981112 48.406348 A 21.599852 21.599733 0 0 1 32.437297 54.037012 A 21.599852 21.599733 0 0 1 17.893998 48.406348 L 15.717387 48.406348 A 1.0001 1.0001 0 0 1 14.716931 47.405892 C 14.716931 46.813565 14.708841 45.882918 14.883846 44.992086 A 21.599852 21.599733 0 0 1 10.837581 32.437297 A 21.599852 21.599733 0 0 1 32.437297 10.837581 z "
     inkscape:label="ring" /><text
     xml:space="preserve"
     style="font-style:normal;font-weight:normal;font-size:4.58611px;line-height:1.95;font-family:sans-serif;letter-spacing:0.5715px;display:inline;fill:#0899ce;fill-opacity:1;stroke:none;stroke-width:0.264583"
     id="text1875-2-8"
     inkscape:label="PEN &amp; PAPER ..."><textPath
       xlink:href="#path1942-2-7"
       id="textPath1972-9"
       style="font-style:normal;font-variant:normal;font-weight:normal;font-stretch:normal;font-size:4.58611px;font-family:'Politics Head';-inkscape-font-specification:'Politics Head, Normal';font-variant-ligatures:normal;font-variant-caps:normal;font-variant-numeric:normal;font-variant-east-asian:normal;fill:#0899ce;fill-opacity:1;stroke-width:0.264583"
       dx="0 0 0 0 0 0 0 0 0 0 0 0 0 0 0 0 0 0 0 0 0 0 0 0 0 0 0 0 0 -1.4913795e-09"
       dy="-1.6"><tspan
   style="letter-spacing:0.439208px"
   id="tspan10704">         </tspan>  Pen &amp; Paper        Glitter &amp; Glue</textPath></text><circle
     style="fill:none;fill-opacity:1;stroke:none;stroke-width:0.264583;stroke-opacity:1"
     id="path1942-2-7"
     cx="-40.024204"
     cy="21.642046"
     transform="matrix(-0.96064592,-0.27777582,-0.27777582,0.96064592,0,0)"
     r="30.04505" /><text
     xml:space="preserve"
     style="font-style:normal;font-weight:normal;font-size:11.2889px;line-height:0;font-family:sans-serif;letter-spacing:0.267229px;fill:#000000;fill-opacity:1;stroke:#000000;stroke-width:0.13;stroke-dasharray:none;stroke-opacity:0.51117319"
     id="text1875-3"
     inkscape:label="PRESS"><textPath
       xlink:href="#path1942-29"
       id="textPath1944-61"
       style="font-style:normal;font-variant:normal;font-weight:normal;font-stretch:normal;font-size:11.2889px;line-height:1.35;font-family:'Politics Head';-inkscape-font-specification:'Politics Head';fill:#ffffff;fill-opacity:1;stroke:#000000;stroke-width:0.13;stroke-dasharray:none;stroke-opacity:0.51117319"
       dx="0 0 0 0">   p<tspan
   style="font-size:11.2889px;line-height:1.35;stroke-width:0.13;stroke-dasharray:none;stroke:#000000;stroke-opacity:0.51117319"
   id="tspan8732"
   dx="-0.5 0.5">ress</tspan></textPath></text><path
     d="m 12.278961,11.825945 c -0.06538,-0.02225 -0.124613,-0.0052 -0.193593,0.05821 l -1.046826,0.962615 c -0.04057,0.03731 -0.04319,0.09962 -0.01334,0.132079 0.02239,0.02435 0.04509,0.04091 0.06441,0.04561 l 3.026383,0.652647 c 0.03083,0.0091 0.0576,0.02192 0.08371,0.05032 0.01866,0.02029 0.03699,0.04836 0.04687,0.09169 l 0.483568,3.335374 c 0.0065,0.03148 0.02075,0.06329 0.03941,0.08357 0.04104,0.04463 0.0881,0.0388 0.15302,-0.02089 l 1.046826,-0.962615 c 0.08926,-0.08208 0.100316,-0.159643 0.07648,-0.242564 -0.273471,-0.774273 -0.129621,-1.24551 -0.483135,-2.087717 l 0.02434,-0.02238 c 0.850076,0.405869 1.237649,0.284253 2.024969,0.669913 0.07658,0.03442 0.150731,0.03363 0.239999,-0.04846 L 18.915123,13.5458 c 0.0568,-0.05223 0.08278,-0.113565 0.04174,-0.158197 -0.01866,-0.02029 -0.0339,-0.02874 -0.07252,-0.03815 l -3.060941,-0.6658 c -0.03862,-0.0094 -0.0735,-0.01478 -0.09962,-0.04318 -0.02612,-0.0284 -0.0326,-0.05989 -0.03909,-0.09136 L 15.207282,9.2530037 c -0.0071,-0.015895 -0.02547,-0.043976 -0.04412,-0.064264 -0.02985,-0.032459 -0.09556,-0.046921 -0.140195,-0.00587 l -1.099573,1.0111194 c -0.0568,0.05223 -0.09057,0.113238 -0.07014,0.184313 0.247655,0.80044 0.169432,1.380063 0.496289,2.078567 l -0.02434,0.02238 C 13.487104,12.091903 13.11947,12.145806 12.278961,11.825945 Z"
     style="font-size:11.2889px;line-height:1;font-family:'Politics Head';-inkscape-font-specification:'Politics Head';fill:#ffffff;fill-opacity:1;stroke-width:0.13;stroke-dasharray:none;stroke:#000000;stroke-opacity:0.51117319"
     id="path14056"
     sodipodi:nodetypes="csssccsccsssccccsssccsccssscccc"
     inkscape:label="x" /><g
     id="g6719"
     inkscape:label="press"
     transform="matrix(1.1942785,0,0,1.1942785,-6.3018953,-6.3018612)"
     style="display:inline"><path
       id="path4047"
       style="opacity:1;fill:#000000;fill-opacity:1;fill-rule:evenodd;stroke:#000000;stroke-width:0;stroke-linecap:round;stroke-linejoin:round;stroke-miterlimit:100.1;stroke-dasharray:none;paint-order:stroke fill markers"
       d="m 31.437358,21.922512 v 0.499711 l 1.999878,0.500228 v -0.500228 z m 0,0.754476 v 0.499711 l 1.999878,0.500228 v -0.500228 z m 0,0.754476 v 0.499711 l 1.999878,0.500228 v -0.500228 z m 0,0.754476 v 0.500228 l 1.999878,0.499711 v -0.499711 z m 0,0.754476 v 0.500228 l 1.999878,0.499711 v -0.499711 z m 0,0.754476 v 0.500227 l 1.999878,0.499712 v -0.499712 z m 0,0.754476 v 0.500227 l 1.999878,0.499711 v -0.499711 z m 0,0.754475 v 0.500228 l 1.999878,0.500228 v -0.500228 z m 0,2.431893 v 0.499711 l 1.999878,0.500228 v -0.500228 z m 0,0.754476 v 0.499711 l 1.999878,0.500228 v -0.500228 z m 0,0.754476 v 0.499711 l 1.999878,0.500228 v -0.500228 z m 0,0.754476 v 0.500228 l 1.999878,0.499711 v -0.499711 z m 0,0.754476 v 0.500228 l 1.999878,0.499711 v -0.499711 z m 0,0.754476 v 0.500228 l 1.999878,0.499711 v -0.499711 z m 0,0.754476 v 0.500228 l 1.999878,0.499711 V 34.66282 Z m 0,0.754476 v 0.500228 l 1.999878,0.500227 v -0.500227 z"
       inkscape:label="thread" /><path
       id="path3989"
       style="opacity:1;fill:#0899ce;fill-opacity:1;fill-rule:evenodd;stroke:#000000;stroke-width:0.16746513;stroke-linecap:round;stroke-linejoin:round;stroke-miterlimit:100.1;stroke-dasharray:none;paint-order:stroke fill markers"
       d="M 31.274653 19.330374 C 30.456896 19.330374 30.437825 19.486869 30.437379 20.274092 L 24.320731 20.823621 C 24.087158 20.266133 23.541831 19.903309 22.93739 19.903268 C 22.108832 19.903176 21.437127 20.574882 21.437219 21.403439 C 21.437412 22.231795 22.109034 22.90327 22.93739 22.903178 C 23.541455 22.902721 24.086438 22.539966 24.319866 21.982825 L 30.437379 22.533219 L 34.43769 22.533219 L 40.555203 21.982825 C 40.788631 22.539966 41.333182 22.902721 41.937247 22.903178 C 42.765601 22.90327 43.437225 22.231794 43.437418 21.403439 C 43.43751 20.574883 42.765803 19.903176 41.937247 19.903268 C 41.333182 19.903725 40.788631 20.26648 40.555203 20.823621 L 34.43769 20.274092 C 34.437244 19.486869 34.418173 19.330374 33.600416 19.330374 L 31.274653 19.330374 z M 31.261672 25.90352 C 30.437702 25.90722 30.43738 25.965991 30.437379 26.903489 L 24.43756 26.903489 C 21.437575 26.903489 19.437267 28.903614 19.437279 31.903771 L 19.437279 41.970969 C 18.437284 41.970969 18.437309 43.971316 18.437309 44.971311 L 46.437327 44.971311 C 46.437327 43.971316 46.437394 41.970958 45.437358 41.903468 L 45.437358 31.903771 C 45.437358 28.90355 43.437061 26.903489 40.437076 26.903489 L 34.43769 26.903489 C 34.437691 25.903493 34.437719 25.903521 33.437721 25.90352 L 31.437349 25.90352 C 31.374849 25.903521 31.316604 25.903276 31.261672 25.90352 z M 24.43756 29.903398 L 30.437379 29.903398 C 30.43738 30.903395 30.437352 30.903367 31.437349 30.903368 L 33.437721 30.903368 C 34.43772 30.903367 34.437691 30.903395 34.43769 29.903398 L 40.437076 29.903398 C 41.43707 29.903398 42.437306 30.90354 42.437448 31.903771 L 42.437448 34.90368 L 34.43769 34.90368 C 34.437691 33.903682 34.437721 33.903711 33.437721 33.90371 L 31.437349 33.90371 C 30.437351 33.903711 30.43738 33.903682 30.437379 34.90368 L 22.437188 34.90368 L 22.437188 31.903771 C 22.437235 30.90354 23.437566 29.903398 24.43756 29.903398 z M 22.437188 36.296974 L 42.437448 36.296974 L 42.437448 41.970969 L 22.437188 41.970969 L 22.437188 36.296974 z "
       inkscape:label="body" /><g
       id="g3038"
       inkscape:label="DOT"
       transform="translate(40.502199,-19.545359)"><path
         id="path7538-9-26-6-0"
         style="fill:#ffcc00;stroke-width:0.0685788"
         d="m -17.567403,39.920561 a 1.028682,1.028682 0 0 0 -1.028878,1.028361 1.028682,1.028682 0 0 0 1.028878,1.028877 1.028682,1.028682 0 0 0 1.028361,-1.028877 1.028682,1.028682 0 0 0 -1.028361,-1.028361 z m 0,0.342614 a 0.685788,0.685788 0 0 1 0.685746,0.685747 0.685788,0.685788 0 0 1 -0.685746,0.685746 0.685788,0.685788 0 0 1 -0.685746,-0.685746 0.685788,0.685788 0 0 1 0.685746,-0.685747 z" /><path
         id="path7614-7-64-1-9"
         style="fill:#ffffff;stroke-width:0.0685788"
         d="m -16.881744,40.949013 a 0.685788,0.685788 0 0 1 -0.685788,0.685788 0.685788,0.685788 0 0 1 -0.685788,-0.685788 0.685788,0.685788 0 0 1 0.685788,-0.685788 0.685788,0.685788 0 0 1 0.685788,0.685788 z" /></g><g
       id="g4415"
       inkscape:label="DOT"
       transform="translate(59.519472,-19.545359)"><path
         id="path4411"
         style="fill:#ffcc00;stroke-width:0.0685788"
         d="m -17.567403,39.920561 a 1.028682,1.028682 0 0 0 -1.028878,1.028361 1.028682,1.028682 0 0 0 1.028878,1.028877 1.028682,1.028682 0 0 0 1.028361,-1.028877 1.028682,1.028682 0 0 0 -1.028361,-1.028361 z m 0,0.342614 a 0.685788,0.685788 0 0 1 0.685746,0.685747 0.685788,0.685788 0 0 1 -0.685746,0.685746 0.685788,0.685788 0 0 1 -0.685746,-0.685746 0.685788,0.685788 0 0 1 0.685746,-0.685747 z" /><path
         id="path4413"
         style="fill:#ffffff;stroke-width:0.0685788"
         d="m -16.881744,40.949013 a 0.685788,0.685788 0 0 1 -0.685788,0.685788 0.685788,0.685788 0 0 1 -0.685788,-0.685788 0.685788,0.685788 0 0 1 0.685788,-0.685788 0.685788,0.685788 0 0 1 0.685788,0.685788 z" /></g><g
       id="g6689"
       inkscape:label="paper"
       transform="matrix(0.93404036,0,0,0.97056313,2.1436881,1.1518844)"><path
         id="rect4359"
         style="opacity:1;fill:#a2e3fb;fill-opacity:1;fill-rule:evenodd;stroke:#000000;stroke-width:0;stroke-linecap:round;stroke-linejoin:round;stroke-miterlimit:100.1;paint-order:stroke fill markers"
         d="m 22.999998,36.296896 h 18.999998 v 0.299999 H 22.999998 Z" /><path
         id="path4417"
         style="opacity:1;fill:#d3f2fd;fill-opacity:1;fill-rule:evenodd;stroke:#000000;stroke-width:0;stroke-linecap:round;stroke-linejoin:round;stroke-miterlimit:100.1;paint-order:stroke fill markers"
         d="m 22.999998,36.596896 h 18.999998 v 0.299999 H 22.999998 Z" /><path
         id="path4419"
         style="opacity:1;fill:#69d3f9;fill-opacity:1;fill-rule:evenodd;stroke:#000000;stroke-width:0;stroke-linecap:round;stroke-linejoin:round;stroke-miterlimit:100.1;paint-order:stroke fill markers"
         d="m 22.999998,36.896896 h 18.999998 v 0.299999 H 22.999998 Z" /><path
         id="path4421"
         style="opacity:1;fill:#ede8fe;fill-opacity:1;fill-rule:evenodd;stroke:#000000;stroke-width:0;stroke-linecap:round;stroke-linejoin:round;stroke-miterlimit:100.1;paint-order:stroke fill markers"
         d="m 22.999998,37.196896 h 18.999998 v 0.299999 H 22.999998 Z" /><path
         id="path4423"
         style="opacity:1;fill:#a0e3fb;fill-opacity:1;fill-rule:evenodd;stroke:#000000;stroke-width:0;stroke-linecap:round;stroke-linejoin:round;stroke-miterlimit:100.1;paint-order:stroke fill markers"
         d="m 22.999998,37.496896 h 18.999998 v 0.299999 H 22.999998 Z" /><path
         id="path4425"
         style="opacity:1;fill:#e7f8fe;fill-opacity:1;fill-rule:evenodd;stroke:#000000;stroke-width:0;stroke-linecap:round;stroke-linejoin:round;stroke-miterlimit:100.1;paint-order:stroke fill markers"
         d="m 22.999998,37.796896 h 18.999998 v 0.299999 H 22.999998 Z" /><path
         id="path4427"
         style="opacity:1;fill:#c8eefd;fill-opacity:1;fill-rule:evenodd;stroke:#000000;stroke-width:0;stroke-linecap:round;stroke-linejoin:round;stroke-miterlimit:100.1;paint-order:stroke fill markers"
         d="m 22.999998,38.096896 h 18.999998 v 0.299999 H 22.999998 Z" /><path
         id="path4429"
         style="opacity:1;fill:#a0e3fb;fill-opacity:1;fill-rule:evenodd;stroke:#000000;stroke-width:0;stroke-linecap:round;stroke-linejoin:round;stroke-miterlimit:100.1;paint-order:stroke fill markers"
         d="m 22.999998,38.396896 h 18.999998 v 0.299999 H 22.999998 Z" /><path
         id="path4431"
         style="opacity:1;fill:#d0cbfd;fill-opacity:1;fill-rule:evenodd;stroke:#000000;stroke-width:0;stroke-linecap:round;stroke-linejoin:round;stroke-miterlimit:100.1;paint-order:stroke fill markers"
         d="m 22.999998,38.696896 h 18.999998 v 0.299999 H 22.999998 Z" /><path
         id="path4433"
         style="opacity:1;fill:#61cff8;fill-opacity:1;fill-rule:evenodd;stroke:#000000;stroke-width:0;stroke-linecap:round;stroke-linejoin:round;stroke-miterlimit:100.1;paint-order:stroke fill markers"
         d="m 22.999998,38.996896 h 18.999998 v 0.299999 H 22.999998 Z" /><path
         id="path4435"
         style="opacity:1;fill:#aee7fc;fill-opacity:1;fill-rule:evenodd;stroke:#000000;stroke-width:0;stroke-linecap:round;stroke-linejoin:round;stroke-miterlimit:100.1;paint-order:stroke fill markers"
         d="m 22.999998,39.296896 h 18.999998 v 0.299999 H 22.999998 Z" /><path
         id="path4437"
         style="opacity:1;fill:#b8eafc;fill-opacity:1;fill-rule:evenodd;stroke:#000000;stroke-width:0;stroke-linecap:round;stroke-linejoin:round;stroke-miterlimit:100.1;paint-order:stroke fill markers"
         d="m 22.999998,39.596896 h 18.999998 v 0.299999 H 22.999998 Z" /><path
         id="path4439"
         style="opacity:1;fill:#e8f8fe;fill-opacity:1;fill-rule:evenodd;stroke:#000000;stroke-width:0;stroke-linecap:round;stroke-linejoin:round;stroke-miterlimit:100.1;paint-order:stroke fill markers"
         d="m 22.999998,39.896896 h 18.999998 v 0.299999 H 22.999998 Z" /><path
         id="path4441"
         style="opacity:1;fill:#a0e3fb;fill-opacity:1;fill-rule:evenodd;stroke:#000000;stroke-width:0;stroke-linecap:round;stroke-linejoin:round;stroke-miterlimit:100.1;paint-order:stroke fill markers"
         d="m 22.999998,40.196896 h 18.999998 v 0.299999 H 22.999998 Z" /><path
         id="path4443"
         style="opacity:1;fill:#64d1f8;fill-opacity:1;fill-rule:evenodd;stroke:#000000;stroke-width:0;stroke-linecap:round;stroke-linejoin:round;stroke-miterlimit:100.1;paint-order:stroke fill markers"
         d="m 22.999998,40.496896 h 18.999998 v 0.299999 H 22.999998 Z" /><path
         id="path4445"
         style="opacity:1;fill:#e7d5fd;fill-opacity:1;fill-rule:evenodd;stroke:#000000;stroke-width:0;stroke-linecap:round;stroke-linejoin:round;stroke-miterlimit:100.1;paint-order:stroke fill markers"
         d="m 22.999998,40.796896 h 18.999998 v 0.299999 H 22.999998 Z" /><path
         id="path4447"
         style="opacity:1;fill:#a0e3fb;fill-opacity:1;fill-rule:evenodd;stroke:#000000;stroke-width:0;stroke-linecap:round;stroke-linejoin:round;stroke-miterlimit:100.1;paint-order:stroke fill markers"
         d="m 22.999998,41.096896 h 18.999998 v 0.299999 H 22.999998 Z" /><path
         id="path4449"
         style="opacity:1;fill:#b8eafc;fill-opacity:1;fill-rule:evenodd;stroke:#000000;stroke-width:0;stroke-linecap:round;stroke-linejoin:round;stroke-miterlimit:100.1;paint-order:stroke fill markers"
         d="m 22.999998,41.396896 h 18.999998 v 0.299999 H 22.999998 Z" /><path
         id="path4451"
         style="opacity:1;fill:#a0e3fb;fill-opacity:1;fill-rule:evenodd;stroke:#000000;stroke-width:0;stroke-linecap:round;stroke-linejoin:round;stroke-miterlimit:100.1;paint-order:stroke fill markers"
         d="m 22.999998,41.696895 h 18.999998 v 0.273911 H 22.999998 Z" /></g></g><g
     id="g6996"
     inkscape:label="swan"
     transform="matrix(0.03922719,0,0,0.03922719,53.599842,26.162893)"
     style="stroke-width:5.0985;stroke-dasharray:none;fill:#0899ce;fill-opacity:1"><path
       style="fill:#0899ce;fill-rule:evenodd;stroke:#000000;stroke-width:5.0985;stroke-linecap:round;stroke-linejoin:round;stroke-miterlimit:100.1;stroke-dasharray:none;paint-order:stroke fill markers;fill-opacity:1"
       d="m 180,230 60,-70 -90,20 z"
       id="path6988" /><path
       style="fill:#0899ce;fill-rule:evenodd;stroke:#000000;stroke-width:5.0985;stroke-linecap:round;stroke-linejoin:round;stroke-miterlimit:100.1;stroke-dasharray:none;paint-order:stroke fill markers;fill-opacity:1"
       d="m 150,180 30,50 h -40 z"
       id="path6986" /><path
       style="fill:#0899ce;fill-rule:evenodd;stroke:#000000;stroke-width:5.0985;stroke-linecap:round;stroke-linejoin:round;stroke-miterlimit:100.1;stroke-dasharray:none;paint-order:stroke fill markers;fill-opacity:1"
       d="M 79.999998,230 H 140 l 10,-50 -60.000001,10 z"
       id="path6984" /><path
       style="fill:#0899ce;fill-rule:evenodd;stroke:#000000;stroke-width:5.0985;stroke-linecap:round;stroke-linejoin:round;stroke-miterlimit:100.1;stroke-dasharray:none;paint-order:stroke fill markers;fill-opacity:1"
       d="M 50,200 79.999998,230 110,100 h -10 z"
       id="path6978" /><path
       style="fill:#0899ce;fill-rule:evenodd;stroke:#000000;stroke-width:5.0985;stroke-linecap:round;stroke-linejoin:round;stroke-miterlimit:100.1;stroke-dasharray:none;paint-order:stroke fill markers;fill-opacity:1"
       d="m 100.08917,89.898666 -20.178335,2.024342 v 7.168499 H 110 Z"
       id="path6980"
       sodipodi:nodetypes="ccccc" /><path
       style="fill:#0899ce;fill-rule:evenodd;stroke:#000000;stroke-width:5.0985;stroke-linecap:round;stroke-linejoin:round;stroke-miterlimit:100.1;stroke-dasharray:none;paint-order:stroke fill markers;fill-opacity:1"
       d="m 60.870956,99.128699 18.279127,-1.907452 v 1.907452 z"
       id="path6982"
       sodipodi:nodetypes="cccc" /></g><g
     id="g8266"
     inkscape:label="dove"
     transform="matrix(0.03224554,0,0,0.03224554,2.9556004,27.92289)"
     style="fill:#0899ce;fill-opacity:1;stroke-width:6.20241;stroke-dasharray:none"><path
       style="fill:#0899ce;fill-opacity:1;fill-rule:evenodd;stroke:#000000;stroke-width:6.20241;stroke-linecap:round;stroke-linejoin:round;stroke-miterlimit:100.1;stroke-dasharray:none;paint-order:stroke fill markers"
       d="M 170,89.999999 160,76.295831 v 13.704168 z"
       id="path8199"
       sodipodi:nodetypes="cccc" /><path
       style="fill:#0899ce;fill-opacity:1;fill-rule:evenodd;stroke:#000000;stroke-width:6.20241;stroke-linecap:round;stroke-linejoin:round;stroke-miterlimit:100.1;stroke-dasharray:none;paint-order:stroke fill markers"
       d="M 160,76.295831 130,79.999998 120,89.999999 160,130 Z"
       id="path8201"
       sodipodi:nodetypes="ccccc" /><path
       style="fill:#0899ce;fill-opacity:1;fill-rule:evenodd;stroke:#000000;stroke-width:6.20241;stroke-linecap:round;stroke-linejoin:round;stroke-miterlimit:100.1;stroke-dasharray:none;paint-order:stroke fill markers"
       d="M 79.999998,50 -15.291667,55.820833 79.999998,130 Z"
       id="path8257"
       sodipodi:nodetypes="cccc" /><path
       style="fill:#0899ce;fill-opacity:1;fill-rule:evenodd;stroke:#000000;stroke-width:6.20241;stroke-linecap:round;stroke-linejoin:round;stroke-miterlimit:100.1;stroke-dasharray:none;paint-order:stroke fill markers"
       d="M 79.999998,50 160,130 79.999998,200 Z"
       id="path8255" /><path
       style="fill:#0899ce;fill-opacity:1;fill-rule:evenodd;stroke:#000000;stroke-width:6.20241;stroke-linecap:round;stroke-linejoin:round;stroke-miterlimit:100.1;stroke-dasharray:none;paint-order:stroke fill markers"
       d="m 78.412498,130 -18.4125,100 30.000001,-30 v -10 z"
       id="path8259"
       sodipodi:nodetypes="ccccc" /></g><g
     id="g10471"
     inkscape:label="frog"
     transform="matrix(0.02898551,0.00464509,-0.00464509,0.02898551,26.022619,53.6119)"
     style="fill:#0899ce;fill-opacity:1;stroke-width:5.43509;stroke-dasharray:none"
     inkscape:transform-center-y="26.30299"
     inkscape:transform-center-x="4.1614348"><path
       style="fill:#0899ce;fill-opacity:1;fill-rule:evenodd;stroke:#000000;stroke-width:5.43509;stroke-linecap:round;stroke-linejoin:round;stroke-miterlimit:100.1;stroke-dasharray:none;paint-order:stroke fill markers"
       d="m 143.17502,120 h 40 l -30,20 z"
       id="path10434"
       sodipodi:nodetypes="cccc" /><path
       style="fill:#0899ce;fill-opacity:1;fill-rule:evenodd;stroke:#000000;stroke-width:5.43509;stroke-linecap:round;stroke-linejoin:round;stroke-miterlimit:100.1;stroke-dasharray:none;paint-order:stroke fill markers"
       d="m 103.17502,69.999999 60,60.000001 -40,30 z"
       id="path10430"
       sodipodi:nodetypes="cccc" /><path
       style="fill:#0899ce;fill-opacity:1;fill-rule:evenodd;stroke:#000000;stroke-width:5.43509;stroke-linecap:round;stroke-linejoin:round;stroke-miterlimit:100.1;stroke-dasharray:none;paint-order:stroke fill markers"
       d="m 123.17502,240 30,-30 20,30 z"
       id="path10446" /><path
       style="fill:#0899ce;fill-opacity:1;fill-rule:evenodd;stroke:#000000;stroke-width:5.43509;stroke-linecap:round;stroke-linejoin:round;stroke-miterlimit:100.1;stroke-dasharray:none;paint-order:stroke fill markers"
       d="m 173.17502,200 -50,40 -10,-30 30,-10 z"
       id="path10442" /><path
       style="fill:#0899ce;fill-opacity:1;fill-rule:evenodd;stroke:#000000;stroke-width:5.43509;stroke-linecap:round;stroke-linejoin:round;stroke-miterlimit:100.1;stroke-dasharray:none;paint-order:stroke fill markers"
       d="M 79.999998,240 H 30 l 20,-30 z"
       id="path10444" /><path
       style="fill:#0899ce;fill-opacity:1;fill-rule:evenodd;stroke:#000000;stroke-width:5.43509;stroke-linecap:round;stroke-linejoin:round;stroke-miterlimit:100.1;stroke-dasharray:none;paint-order:stroke fill markers"
       d="M 30,200 79.999998,240 89.999999,210 59.999998,200 Z"
       id="path10440" /><path
       style="fill:#0899ce;fill-opacity:1;fill-rule:evenodd;stroke:#000000;stroke-width:5.43509;stroke-linecap:round;stroke-linejoin:round;stroke-miterlimit:100.1;stroke-dasharray:none;paint-order:stroke fill markers"
       d="M 60,180 H 40 l 10,20 z"
       id="path10454" /><path
       style="fill:#0899ce;fill-opacity:1;fill-rule:evenodd;stroke:#000000;stroke-width:5.43509;stroke-linecap:round;stroke-linejoin:round;stroke-miterlimit:100.1;stroke-dasharray:none;paint-order:stroke fill markers"
       d="M 50,200 39.999999,210 H 163.175 l -10,-10 H 119.43622 L 102.62561,69.470833 h -2.24123 L 85.889971,200 Z"
       id="path10438"
       sodipodi:nodetypes="ccccccccc" /><path
       style="fill:#0899ce;fill-opacity:1;fill-rule:evenodd;stroke:#000000;stroke-width:5.43509;stroke-linecap:round;stroke-linejoin:round;stroke-miterlimit:100.1;stroke-dasharray:none;paint-order:stroke fill markers"
       d="m 163.17502,180 h -20 l 10,20 z"
       id="path10452" /><path
       style="fill:#0899ce;fill-opacity:1;fill-rule:evenodd;stroke:#000000;stroke-width:5.43509;stroke-linecap:round;stroke-linejoin:round;stroke-miterlimit:100.1;stroke-dasharray:none;paint-order:stroke fill markers"
       d="m 163.17502,180 10,20 h -20 z"
       id="path10450" /><path
       style="fill:#0899ce;fill-opacity:1;fill-rule:evenodd;stroke:#000000;stroke-width:5.43509;stroke-linecap:round;stroke-linejoin:round;stroke-miterlimit:100.1;stroke-dasharray:none;paint-order:stroke fill markers"
       d="m 103.17502,70 50,130 h -50 z"
       id="path10426"
       sodipodi:nodetypes="cccc" /><path
       style="fill:#0899ce;fill-opacity:1;fill-rule:evenodd;stroke:#000000;stroke-width:5.43509;stroke-linecap:round;stroke-linejoin:round;stroke-miterlimit:100.1;stroke-dasharray:none;paint-order:stroke fill markers"
       d="M 69.999999,120 H 20 l 30,20 z"
       id="path10436"
       sodipodi:nodetypes="cccc" /><path
       style="fill:#0899ce;fill-opacity:1;fill-rule:evenodd;stroke:#000000;stroke-width:5.43509;stroke-linecap:round;stroke-linejoin:round;stroke-miterlimit:100.1;stroke-dasharray:none;paint-order:stroke fill markers"
       d="M 100,69.999999 40,130 79.999998,160 Z"
       id="path10432"
       sodipodi:nodetypes="cccc" /><path
       style="fill:#0899ce;fill-opacity:1;fill-rule:evenodd;stroke:#000000;stroke-width:5.43509;stroke-linecap:round;stroke-linejoin:round;stroke-miterlimit:100.1;stroke-dasharray:none;paint-order:stroke fill markers"
       d="M 39.999999,180 30,200 h 20 z"
       id="path10448" /><path
       style="fill:#0899ce;fill-opacity:1;fill-rule:evenodd;stroke:#000000;stroke-width:5.43509;stroke-linecap:round;stroke-linejoin:round;stroke-miterlimit:100.1;stroke-dasharray:none;paint-order:stroke fill markers"
       d="M 100,69.999999 50,200 h 50 z"
       id="path10428"
       sodipodi:nodetypes="cccc" /></g></svg>
