<?xml version="1.0" encoding="UTF-8" standalone="no"?>
<!-- Created with Inkscape (http://www.inkscape.org/) -->

<svg
   width="66.069603mm"
   height="66.069229mm"
   viewBox="0 0 66.069603 66.069229"
   version="1.1"
   id="svg1"
   inkscape:version="1.4 (e7c3feb1, 2024-10-09)"
   sodipodi:docname="branch-logo-Darkhain.svg"
   inkscape:export-filename="branch-logo-Darkhain.png"
   inkscape:export-xdpi="192.22153"
   inkscape:export-ydpi="192.22153"
   xmlns:inkscape="http://www.inkscape.org/namespaces/inkscape"
   xmlns:sodipodi="http://sodipodi.sourceforge.net/DTD/sodipodi-0.dtd"
   xmlns:xlink="http://www.w3.org/1999/xlink"
   xmlns="http://www.w3.org/2000/svg"
   xmlns:svg="http://www.w3.org/2000/svg">
  <sodipodi:namedview
     id="namedview1"
     pagecolor="#505050"
     bordercolor="#eeeeee"
     borderopacity="1"
     inkscape:showpageshadow="0"
     inkscape:pageopacity="0"
     inkscape:pagecheckerboard="0"
     inkscape:deskcolor="#d1d1d1"
     inkscape:document-units="mm"
     inkscape:zoom="1.5214364"
     inkscape:cx="252.7217"
     inkscape:cy="139.342"
     inkscape:window-width="1472"
     inkscape:window-height="890"
     inkscape:window-x="0"
     inkscape:window-y="38"
     inkscape:window-maximized="1"
     inkscape:current-layer="layer1" />
  <defs
     id="defs1" />
  <g
     inkscape:label="Ebene 1"
     inkscape:groupmode="layer"
     id="layer1"
     transform="translate(-66.675001,-77.522911)">
    <g
       id="g2018"
       inkscape:label="darkhain_neu"
       transform="matrix(0.26945481,0,0,0.26945481,66.675001,-133.47933)"
       style="display:inline">
      <path
         id="rect52666"
         style="display:none;fill:#b8b8b8;stroke-width:2.593;stroke-linecap:round;stroke-linejoin:round"
         d="M 122.41371,783.07114 C 60.282666,783.08731 7.0274281,830.18499 0.63245435,893.31918 0.20612125,897.52813 -0.00161963,901.70893 -3.5815453e-4,905.85043 0.01856391,967.97298 47.107616,1021.2406 110.24183,1027.6356 c 67.34321,6.8214 127.50095,-42.26611 134.32227,-109.60938 6.82136,-67.3433 -42.27404,-127.49313 -109.61719,-134.31446 -4.20774,-0.42621 -8.38987,-0.64169 -12.5332,-0.64062 z" />
      <path
         id="path53751"
         style="fill:#010100;fill-opacity:1;stroke:none;stroke-width:4.893;stroke-linecap:round;stroke-linejoin:round;stroke-opacity:1"
         d="m 122.59872,816.8228 c -39.74816,0.0329 -74.63814,26.46282 -85.43278,64.71713 l -2.61939,12.36353 c -0.52466,3.8997 -0.78968,7.82997 -0.7933,11.7648 -1e-5,49.06801 39.77746,88.84552 88.84547,88.84542 49.06799,10e-5 88.84547,-39.77742 88.84546,-88.84542 -0.003,-3.93408 -0.26731,-7.86362 -0.79116,-11.76267 l -2.55097,-12.36139 c -10.80017,-38.28118 -45.7278,-64.71951 -85.50333,-64.7214 z"
         sodipodi:nodetypes="ccccscccc" />
      <path
         id="path5802-1-3-2"
         style="display:inline;fill:#000000;fill-opacity:1;stroke:#fefefe;stroke-width:2.593;stroke-miterlimit:4;stroke-dasharray:none;stroke-opacity:1"
         d="m 122.41512,784.36748 c -61.47645,0.016 -114.16339,46.60113 -120.49219,109.08203 -6.75074,66.6463 41.80294,126.14379 108.44922,132.89449 66.64631,6.7508 126.15162,-41.80289 132.90234,-108.44918 6.75075,-66.64629 -41.81075,-126.14378 -108.45703,-132.89453 -4.1654,-0.42192 -8.30392,-0.63387 -12.40234,-0.63281 z m 0.18359,36.97656 c 46.57103,-1.2e-4 84.32434,37.75319 84.32422,84.32422 1.2e-4,46.57103 -37.75319,84.32434 -84.32422,84.32422 -46.57103,1.2e-4 -84.32434,-37.75319 -84.32422,-84.32422 -1.2e-4,-46.57103 37.75319,-84.32434 84.32422,-84.32422 z"
         sodipodi:nodetypes="cscsscccccc" />
      <text
         xml:space="preserve"
         style="font-style:normal;font-weight:normal;font-size:42.6667px;line-height:1.25;font-family:sans-serif;letter-spacing:11.13px;fill:#000000;fill-opacity:1;stroke:none"
         id="text1875-2-6-6"><textPath
           xlink:href="#path1942-2-2-8"
           id="textPath1972-7-9"
           style="font-style:normal;font-variant:normal;font-weight:normal;font-stretch:normal;font-size:42.6667px;font-family:'Politics Head';-inkscape-font-specification:'Politics Head, Normal';font-variant-ligatures:normal;font-variant-caps:normal;font-variant-numeric:normal;font-variant-east-asian:normal;fill:#ffffff;fill-opacity:1">darkhain</textPath></text>
      <circle
         style="fill:none;fill-opacity:1;stroke:none;stroke-opacity:1"
         id="path1942-5-4"
         cx="-522.86035"
         cy="-749.3797"
         r="90.70443"
         transform="rotate(-152.79217)" />
      <path
         sodipodi:type="star"
         style="fill:#ffffff;fill-opacity:1;stroke:#ffffff;stroke-opacity:1"
         id="path6846-3"
         sodipodi:sides="5"
         sodipodi:cx="-130"
         sodipodi:cy="859.01007"
         sodipodi:r1="77.195747"
         sodipodi:r2="41.685707"
         sodipodi:arg1="0.78539816"
         sodipodi:arg2="1.4137167"
         inkscape:flatsided="false"
         inkscape:rounded="0.1"
         inkscape:randomized="0"
         transform="matrix(0.0556327,-0.09227403,0.09227403,0.0556327,-51.25776,861.70537)"
         d="m -75.414363,913.59571 c -3.528537,3.52853 -43.135887,-14.19378 -48.064557,-13.41315 -4.92867,0.78062 -37.121,29.87489 -41.56722,27.60943 -4.44621,-2.26546 0.16936,-45.41079 -2.0961,-49.857 -2.26546,-4.44622 -39.88372,-26.07233 -39.1031,-31.00099 0.78062,-4.92867 43.24056,-13.87164 46.76909,-17.40018 3.52854,-3.52853 12.47151,-45.98846 17.40017,-46.76909 4.92867,-0.78062 26.55478,36.83764 31.001,39.1031 4.44621,2.26546 47.591535,-2.35011 49.856994,2.0961 2.26546,4.44622 -26.828803,36.63855 -27.609427,41.56722 -0.780624,4.92867 16.941686,44.53602 13.41315,48.06456 z" />
      <path
         sodipodi:type="star"
         style="fill:#ffffff;fill-opacity:1;stroke:#ffffff;stroke-opacity:1"
         id="path6846-3-3"
         sodipodi:sides="5"
         sodipodi:cx="-130"
         sodipodi:cy="859.01007"
         sodipodi:r1="77.195747"
         sodipodi:r2="41.685707"
         sodipodi:arg1="0.78539816"
         sodipodi:arg2="1.4137167"
         inkscape:flatsided="false"
         inkscape:rounded="0.1"
         inkscape:randomized="0"
         transform="matrix(0.0556327,-0.09227403,0.09227403,0.0556327,152.14569,861.70537)"
         d="m -75.414363,913.59571 c -3.528537,3.52853 -43.135887,-14.19378 -48.064557,-13.41315 -4.92867,0.78062 -37.121,29.87489 -41.56722,27.60943 -4.44621,-2.26546 0.16936,-45.41079 -2.0961,-49.857 -2.26546,-4.44622 -39.88372,-26.07233 -39.1031,-31.00099 0.78062,-4.92867 43.24056,-13.87164 46.76909,-17.40018 3.52854,-3.52853 12.47151,-45.98846 17.40017,-46.76909 4.92867,-0.78062 26.55478,36.83764 31.001,39.1031 4.44621,2.26546 47.591535,-2.35011 49.856994,2.0961 2.26546,4.44622 -26.828803,36.63855 -27.609427,41.56722 -0.780624,4.92867 16.941686,44.53602 13.41315,48.06456 z" />
      <path
         id="path1824-1"
         style="fill:none;fill-opacity:1;stroke:none;stroke-opacity:0.995984"
         d="m 16.48242,862.05383 c -23.84059,59.00733 4.66774,126.16884 63.67511,150.00937 59.00735,23.8405 126.1688,-4.6679 150.00925,-63.67529 23.84051,-59.00731 -4.66782,-126.16874 -63.67514,-150.00924 -59.00731,-23.8405 -126.16873,4.66784 -150.00922,63.67516 z"
         sodipodi:nodetypes="csssc" />
      <text
         xml:space="preserve"
         style="font-style:normal;font-weight:normal;font-size:34.6667px;line-height:1.25;font-family:sans-serif;display:inline;fill:#000000;fill-opacity:1;stroke:none"
         id="text1875-5-37"
         inkscape:transform-center-x="-2.947264"
         inkscape:transform-center-y="-87.277584"
         transform="rotate(8.8873806,121.44573,909.30584)"><textPath
           xlink:href="#path1942-5-4"
           id="textPath1944-6-8"
           style="font-style:normal;font-variant:normal;font-weight:normal;font-stretch:normal;font-size:34.6667px;font-family:'Politics Head';-inkscape-font-specification:'Politics Head';fill:#ffffff;fill-opacity:1">PHOTO-LAB </textPath></text>
      <ellipse
         style="fill:none;fill-opacity:1;stroke:none;stroke-width:1.05779;stroke-opacity:1"
         id="path1942-2-2-8"
         cx="264.91666"
         cy="876.61975"
         transform="matrix(-0.91253382,0.40900126,0.41562386,0.90953659,0,0)"
         rx="115.82104"
         ry="115.26703" />
      <path
         style="color:#000000;fill:#ffffff;stroke-width:8.29425;stroke-linecap:round;stroke-linejoin:round;-inkscape-stroke:none"
         d="M 30.78237,889.27565 H 213.1121"
         id="path58984"
         sodipodi:nodetypes="cc" />
      <path
         id="path58986-1"
         style="color:#000000;fill:#010100;fill-opacity:1;stroke-linecap:round;stroke-linejoin:round;-inkscape-stroke:none"
         d="m 215.64168,881.2633 c -1.95322,0.1015 -3.85901,0.95982 -5.22071,2.36523 -13.22952,0.0119 -26.46334,-0.0239 -39.69018,0.0179 -1.50692,0.41508 -2.02279,2.064 -2.91711,3.16931 -0.97442,1.43621 -1.18635,3.24876 -0.81802,4.92027 0.16381,0.97954 -0.19391,2.28135 0.85696,2.86519 1.21217,0.62833 2.63242,0.20294 3.93554,0.32226 12.96419,0 25.92839,0 38.89258,0 2.92731,2.84726 8.1227,2.77415 10.94391,-0.19438 2.88083,-2.7898 3.09989,-7.86792 0.32604,-10.81132 -1.56605,-1.76506 -3.94549,-2.79556 -6.30901,-2.65445 z m -187.76953,0.13086 c -4.27724,0.083 -7.94746,4.22358 -7.51021,8.48276 0.25192,4.09117 4.13638,7.61437 8.26119,7.27622 1.89598,-0.0992 3.76537,-0.88488 5.11425,-2.22969 17.34388,-0.009 34.69037,0.0186 52.03262,-0.0139 1.3373,-0.25439 1.53622,-1.81635 1.51723,-2.93738 0.1129,-2.26315 1.23552,-4.31147 2.07124,-6.41001 0.16849,-1.35904 -1.38062,-2.24025 -2.57851,-1.93359 -17.68021,0 -35.36042,0 -53.04063,0 -1.53304,-1.51463 -3.7166,-2.338 -5.86718,-2.23437 z m 117.06836,2.19531 c -12.97086,0.1066 -25.94435,-0.0228 -38.91602,0.0644 -1.44413,0.29586 -1.76096,1.95148 -2.36523,3.06641 -0.88448,2.25104 -0.67773,4.74274 -0.38672,7.08593 0.51724,1.28945 2.0963,1.15549 3.23281,1.11719 12.37441,-0.013 24.75252,0.026 37.12461,-0.0195 1.31508,-0.28048 1.48301,-1.80314 1.56144,-2.90722 0.33378,-2.15705 0.73234,-4.37202 1.7745,-6.34278 0.2298,-1.16516 -0.92683,-2.12757 -2.02539,-2.06445 z m 71.45312,3.69531 c 1.70907,-0.0936 2.52423,2.51426 1.04102,3.39844 -1.12938,0.78413 -2.96819,-0.008 -2.93555,-1.45508 -0.0188,-1.00526 0.83561,-2.03772 1.89453,-1.94336 z M 28.45027,887.4215 c 1.63191,0.087 2.28615,2.59865 0.82463,3.41119 -1.14349,0.7643 -2.96174,-0.0652 -2.89689,-1.51275 -0.008,-1.07551 0.96725,-2.07371 2.07226,-1.89844 z" />
      <path
         id="path58986"
         style="color:#000000;fill:#fefffc;stroke-linecap:round;stroke-linejoin:round;-inkscape-stroke:none"
         d="m 224.04402,882.75224 c -1.92679,0.004 -3.74881,0.87762 -4.95898,2.37696 h -48.25586 c -0.67962,0.88242 -1.32746,1.7914 -1.89063,2.76758 -1.13936,1.56711 -0.29135,3.51541 -0.34765,5.26367 -0.007,0.0893 -0.0273,0.17522 -0.0371,0.26367 h 50.75586 c 1.20939,1.34021 2.92916,2.10644 4.73437,2.10937 3.52936,-2.1e-4 6.39042,-2.86126 6.39063,-6.39062 -2.1e-4,-3.52936 -2.86127,-6.39042 -6.39063,-6.39063 z m -203.80273,0.13282 c -3.53012,-8.7e-4 -6.39237,2.8605 -6.39258,6.39062 2.1e-4,3.53012 2.86246,6.3915 6.39258,6.39063 1.86912,-10e-4 3.64406,-0.82045 4.85742,-2.24219 h 60.57226 c 0.0518,-0.63334 0.0945,-1.26678 0.16993,-1.89844 0.13141,-2.30083 1.2199,-4.31647 2.10351,-6.39648 H 25.10066 c -1.21344,-1.42298 -2.98926,-2.24309 -4.85937,-2.24414 z m 85.88281,2.24414 c -0.46423,0.8483 -0.91021,1.70659 -1.26563,2.60742 -0.50506,1.87889 -0.31746,3.78122 -0.17187,5.6875 h 38.80664 c 0.18069,-1.58503 0.41743,-3.16384 0.78516,-4.7168 0.24839,-1.2564 0.70099,-2.45618 1.30468,-3.57812 z m 118.23633,0.64844 c 1.85908,-4.9e-4 3.36659,1.50615 3.36719,3.36523 4.9e-4,1.85985 -1.50734,3.36768 -3.36719,3.36719 -1.85909,-5.9e-4 -3.36573,-1.5081 -3.36524,-3.36719 6e-4,-1.85832 1.50692,-3.36465 3.36524,-3.36523 z m -204.11914,0.13085 c 1.85908,6e-4 3.36572,1.50811 3.36523,3.36719 4.9e-4,1.85908 -1.50615,3.36659 -3.36523,3.36719 -1.85985,4.9e-4 -3.36768,-1.50734 -3.36719,-3.36719 -4.9e-4,-1.85985 1.50734,-3.36768 3.36719,-3.36719 z"
         sodipodi:nodetypes="ccccccccccccccccccccscccccscscscccccc" />
      <path
         id="path66585"
         style="fill:none;stroke:#fefffe;stroke-width:1px;stroke-linecap:butt;stroke-linejoin:miter;stroke-opacity:1"
         d="m 109.03835,907.40731 -38.374,0.79988 12.96105,63.96337 33.34251,-12.07887 z m -2.5411,4.74934 6.46484,44.47168 -26.20618,8.20629 -8.62687,-50.82915 z"
         sodipodi:nodetypes="cccccccccc" />
      <path
         id="path62894"
         style="fill:#fefffc;fill-opacity:1;stroke:none;stroke-width:0.377953;stroke-linecap:round;stroke-linejoin:round;stroke-miterlimit:4;stroke-dasharray:none;stroke-opacity:1"
         d="m 91.32861,854.90792 c -3.99492,1.22207 -1.62557,8.20991 -1.84745,12.37435 -0.24338,4.56805 0.61028,8.55189 0.57272,13.71158 -0.0253,3.47381 -2.39815,6.16253 -3.02739,9.39009 -0.56177,2.88144 -0.49447,5.85129 -0.64397,8.78299 -0.13608,2.66852 -0.2301,8.01266 -0.2301,8.01266 0.40025,0.34641 1.17978,0.0608 1.55897,-0.30853 0.68825,-0.67022 -0.68265,-3.05916 0.63059,-2.80951 0.84274,0.16021 4.75077,0.2244 4.28874,1.11138 -1.82881,3.51077 -3.31684,6.14104 -2.60668,6.27432 1.47643,0.27711 4.65889,0.64332 6.72332,0.32241 0,0 5.3965,-8.67586 6.73017,-13.53284 1.05673,-3.8484 -1.00566,-8.42457 0.88975,-11.93792 2.71278,-5.02843 5.66875,-10.62365 8.91242,-15.53209 1.23415,-1.86757 2.42938,-5.76569 0.39119,-6.68205 -5.58852,-2.51256 -10.01041,9.31466 -13.03743,12.94213 -0.80725,0.96738 -2.96448,5.75913 -3.07767,1.43633 -0.0755,-2.88511 -0.49848,-11.62552 -2.5714,-19.58115 -1.07502,-2.67056 -1.93305,-4.50116 -3.65578,-3.97415 z m 4.10866,38.39583 c 0.8538,0.47893 0.57034,2.42076 0.16779,4.65852 -0.18215,1.0126 -1.20828,0.93432 -1.58668,0.10398 -0.51833,-1.13735 -0.10016,-5.61462 1.41889,-4.76255 z"
         sodipodi:nodetypes="aasaasassssassasscasssss" />
      <path
         id="path70068"
         style="fill:none;stroke:#fdfffd;stroke-width:1px;stroke-linecap:butt;stroke-linejoin:miter;stroke-opacity:1"
         d="m 138.96544,905.19227 0.49978,58.15964 22.78863,-6.64839 1.65006,-51.2753 z m 22.48169,5.04968 -1.65905,43.10743 -16.36362,3.63179 -0.69496,-46.52093 z"
         sodipodi:nodetypes="cccccccccc" />
      <path
         style="fill:#ffffff;fill-opacity:1;stroke:none;stroke-width:0.377952;stroke-linecap:butt;stroke-linejoin:miter;stroke-miterlimit:4;stroke-dasharray:none;stroke-opacity:1"
         d="m 157.03912,894.67779 c 0.43424,1.48889 -1.0099,3.7128 -2.17353,5.31411 -1.50177,2.06663 -3.37953,3.95037 -4.33283,6.32002 -0.26936,0.66956 -1.0666,2.02512 -0.35348,2.13607 l 5.5407,0.86201 c 1.57381,0.24485 4.63288,-4.4823 6.60572,-7.01384 1.93636,-2.48487 4.12794,-4.96466 5.08406,-7.95949 0.64091,-2.00737 -0.69649,-4.36318 0.30997,-6.31028 3.64099,-7.04367 11.89701,-12.11995 16.70907,-18.25713 1.00821,-1.28596 1.24013,-4.20023 -0.32268,-4.69761 -5.2204,-1.66179 -15.78066,11.26642 -22.54214,16.82952 -0.78132,0.61873 -2.47661,-0.30135 -2.71403,-1.26526 -1.27297,-5.1684 -2.01791,-21.01453 -3.02461,-24.48259 -0.50662,-1.74539 -2.18174,-4.08557 -3.91074,-3.63892 -3.04247,0.78594 -2.93975,5.80052 -2.86633,8.92117 0.14777,6.27781 2.33671,13.47368 1.21137,18.0473 -0.57508,2.33713 -2.69852,4.00622 -3.84242,6.12724 -2.39013,4.43156 -2.8641,16.26071 -1.52326,20.06076 0,0 5.52708,-2.45828 6.60401,-3.35706 2.16934,-1.81053 -0.91847,-7.32635 1.68376,-8.86455 1.16027,-0.6859 3.4818,-0.0589 3.85739,1.22853 z"
         id="path67018"
         sodipodi:nodetypes="ssassaassscssassscsas" />
      <path
         style="fill:#fefefe;fill-opacity:1;stroke:none;stroke-width:1px;stroke-linecap:butt;stroke-linejoin:miter;stroke-opacity:1"
         d="m 81.195841,917.02579 23.509979,-1.83454 5.94595,40.18287 -21.738152,5.9582 z"
         id="path1606"
         sodipodi:nodetypes="ccccc" />
      <path
         style="fill:#ffffff;fill-opacity:1;stroke:none;stroke-width:1px;stroke-linecap:butt;stroke-linejoin:miter;stroke-opacity:1"
         d="m 144.38699,912.20641 15.6234,-0.30051 -1.76933,40.143 -13.26312,2.78547 z"
         id="path1740"
         sodipodi:nodetypes="ccccc" />
    </g>
  </g>
</svg>
