<?xml version="1.0" encoding="UTF-8" standalone="no"?>
<!-- Created with Inkscape (http://www.inkscape.org/) -->

<svg
   width="64.874863mm"
   height="64.874512mm"
   viewBox="0 0 64.874863 64.874512"
   version="1.1"
   id="svg6421"
   inkscape:version="1.2.1 (9c6d41e4, 2022-07-14)"
   sodipodi:docname="branch-logo-Hobelhoehle.svg"
   inkscape:export-filename="branch-logo-Hobelhoehle.png"
   inkscape:export-xdpi="195.76149"
   inkscape:export-ydpi="195.76149"
   xmlns:inkscape="http://www.inkscape.org/namespaces/inkscape"
   xmlns:sodipodi="http://sodipodi.sourceforge.net/DTD/sodipodi-0.dtd"
   xmlns:xlink="http://www.w3.org/1999/xlink"
   xmlns="http://www.w3.org/2000/svg"
   xmlns:svg="http://www.w3.org/2000/svg">
  <sodipodi:namedview
     id="namedview6423"
     pagecolor="#ffffff"
     bordercolor="#666666"
     borderopacity="1.0"
     inkscape:showpageshadow="2"
     inkscape:pageopacity="0.0"
     inkscape:pagecheckerboard="0"
     inkscape:deskcolor="#d1d1d1"
     inkscape:document-units="mm"
     showgrid="false"
     inkscape:zoom="0.914906"
     inkscape:cx="-28.964724"
     inkscape:cy="248.65942"
     inkscape:window-width="2560"
     inkscape:window-height="1381"
     inkscape:window-x="0"
     inkscape:window-y="31"
     inkscape:window-maximized="1"
     inkscape:current-layer="layer1" />
  <defs
     id="defs6418" />
  <g
     inkscape:label="Layer 1"
     inkscape:groupmode="layer"
     id="layer1"
     transform="translate(-27.136079,-73.406953)">
    <g
       id="g103795"
       transform="matrix(0.26458333,0,0,0.26458333,-115.66391,-136.23542)">
      <path
         id="path5802-1-2-3"
         style="fill:#ffffff;fill-opacity:1;stroke:#000000;stroke-width:2.592;stroke-miterlimit:4;stroke-dasharray:none;stroke-opacity:1"
         d="m 662.31081,831.39127 c 46.14749,0 83.17019,37.41273 83.55664,83.55857 0.33256,39.7113 -28.00736,66.1667 -47.44603,74.7703 l 5.02266,6.4295 -0.59491,6.59986 -20.09488,14.853 -7.53077,-0.3983 -14.29172,-18.70446 c -5.84952,-0.4156 -10.25614,-0.907 -15.46865,-1.6846 -9.51896,-1.9479 -18.44788,-5.5148 -26.48683,-10.4002 -2.00974,-1.2214 -3.96386,-2.5252 -5.85766,-3.9067 l -9.42881,-0.1701 -4.9365,-5.0595 0.1827,-7.8741 c -1.50905,-1.9524 -12.14025,-17.1598 -15.11467,-25.724 -3.13001,-9.0122 -5.06917,-18.6359 -5.06917,-28.7307 0,-46.14746 37.4111,-83.55857 83.5586,-83.55857 z"
         sodipodi:nodetypes="sscccccccsccccsss" />
      <path
         id="path5802-1-2"
         style="fill:#ff00a6;fill-opacity:1;stroke:#000000;stroke-width:2.592;stroke-miterlimit:4;stroke-dasharray:none;stroke-opacity:1"
         d="m 662.13112,793.64514 c -61.47645,0.016 -114.16339,46.60113 -120.49219,109.08203 -6.75074,66.6463 41.80294,126.14383 108.44922,132.89453 66.64631,6.7508 126.15163,-41.80293 132.90235,-108.44922 6.75075,-66.6463 -41.81076,-126.14378 -108.45704,-132.89453 -4.1654,-0.42192 -8.30392,-0.63387 -12.40234,-0.63281 z m 0.17969,37.74609 c 46.14749,0 83.17019,37.41273 83.55664,83.5586 0.33256,39.71127 -28.00736,66.1667 -47.44603,74.77031 l 5.02266,6.42947 -0.59491,6.59979 -20.09488,14.853 -7.53077,-0.3983 -14.29172,-18.70443 c -5.84952,-0.41559 -10.25614,-0.90696 -15.46865,-1.68461 -9.51896,-1.94789 -18.44788,-5.51472 -26.48683,-10.4002 -2.00974,-1.22137 -3.96386,-2.52516 -5.85766,-3.90667 l -9.42881,-0.17013 -4.9365,-5.05945 0.1827,-7.87415 c -1.50905,-1.95238 -12.14025,-17.15972 -15.11467,-25.72396 -3.13001,-9.01223 -5.06917,-18.63591 -5.06917,-28.73067 0,-46.14749 37.4111,-83.5586 83.5586,-83.5586 z"
         sodipodi:nodetypes="cscsscsscccccccsccccsss" />
      <text
         xml:space="preserve"
         style="font-style:normal;font-weight:normal;font-size:32px;line-height:1.25;font-family:sans-serif;letter-spacing:4.56px;fill:#000000;fill-opacity:1;stroke:none"
         id="text1875-2-8"><textPath
           xlink:href="#path1942-2-7"
           id="textPath1972-9"
           style="font-style:normal;font-variant:normal;font-weight:normal;font-stretch:normal;font-size:32px;font-family:'Politics Head';-inkscape-font-specification:'Politics Head, Normal';font-variant-ligatures:normal;font-variant-caps:normal;font-variant-numeric:normal;font-variant-east-asian:normal;fill:#ffffff;fill-opacity:1">carving cave</textPath></text>
      <circle
         style="fill:none;fill-opacity:1;stroke:none;stroke-opacity:1"
         id="path1942-2-7"
         cx="-1118.5914"
         cy="156.65718"
         transform="matrix(-0.69305587,-0.72088388,-0.72088388,0.69305587,0,0)"
         r="113.55609" />
      <g
         id="g1682"
         transform="rotate(-8.5,375.69635,-2630.8558)"
         style="stroke:none;stroke-opacity:1">
        <text
           xml:space="preserve"
           style="font-style:normal;font-weight:normal;font-size:42.6667px;line-height:1.25;font-family:sans-serif;fill:#000000;fill-opacity:1;stroke:none;stroke-opacity:1"
           id="text1875-3"><textPath
             xlink:href="#path1942-29"
             id="textPath1944-61"
             style="font-style:normal;font-variant:normal;font-weight:normal;font-stretch:normal;font-size:42.6667px;font-family:'Politics Head';-inkscape-font-specification:'Politics Head';fill:#ffffff;fill-opacity:1;stroke:none;stroke-opacity:1">Hobelhöhle</textPath></text>
        <circle
           style="fill:none;fill-opacity:1;stroke:none;stroke-opacity:1"
           id="path1942-29"
           cx="-927.01288"
           cy="-42.911633"
           r="86.861801"
           transform="rotate(-101)" />
      </g>
      <path
         sodipodi:nodetypes="ccc"
         inkscape:connector-curvature="0"
         id="path4536-0-2-3-6-5-3-5-6"
         d="m 638.90335,956.23319 h 14.6622 l 19.34478,27.7563"
         style="fill:none;stroke:#ff00a6;stroke-width:8.29425;stroke-linecap:round;stroke-linejoin:round;stroke-miterlimit:4;stroke-dasharray:none;stroke-opacity:1;marker-start:none;marker-end:none" />
      <g
         id="g2499"
         style="fill:#7a8efa;fill-opacity:1;stroke:#ff00a6;stroke-opacity:1"
         transform="translate(527.66823,-2.7695899)">
        <path
           sodipodi:nodetypes="cc"
           inkscape:connector-curvature="0"
           id="path4536-0-2-3"
           d="m 107.0473,950.54838 10.36782,-10.36776"
           style="fill:#7a8efa;fill-opacity:1;stroke:#ff00a6;stroke-width:8.29425;stroke-linecap:round;stroke-linejoin:round;stroke-miterlimit:4;stroke-dasharray:none;stroke-opacity:1;marker-start:none;marker-end:none" />
        <path
           sodipodi:nodetypes="cc"
           inkscape:connector-curvature="0"
           id="path4536-0-2-3-6"
           d="m 76.92053,940.73706 10.36776,10.36782"
           style="fill:#7a8efa;fill-opacity:1;stroke:#ff00a6;stroke-width:8.29425;stroke-linecap:round;stroke-linejoin:round;stroke-miterlimit:4;stroke-dasharray:none;stroke-opacity:1;marker-start:none;marker-end:none" />
        <path
           sodipodi:nodetypes="cc"
           inkscape:connector-curvature="0"
           id="path4536-0-2-3-6-7"
           d="m 88.39203,967.93158 -8.926822,9.09122"
           style="fill:#7a8efa;fill-opacity:1;stroke:#ff00a6;stroke-width:8.29425;stroke-linecap:round;stroke-linejoin:round;stroke-miterlimit:4;stroke-dasharray:none;stroke-opacity:1;marker-start:none;marker-end:none" />
        <path
           sodipodi:nodetypes="cc"
           inkscape:connector-curvature="0"
           id="path4536-0-2-3-6-5"
           d="m 106.05443,967.11198 10.36776,10.3678"
           style="fill:#7a8efa;fill-opacity:1;stroke:#ff00a6;stroke-width:8.29425;stroke-linecap:round;stroke-linejoin:round;stroke-miterlimit:4;stroke-dasharray:none;stroke-opacity:1;marker-start:none;marker-end:none" />
        <path
           sodipodi:nodetypes="cc"
           inkscape:connector-curvature="0"
           id="path4536-0-2-3-6-5-3"
           d="m 96.77843,931.7501 -3e-5,14.6622"
           style="fill:#7a8efa;fill-opacity:1;stroke:#ff00a6;stroke-width:8.29425;stroke-linecap:round;stroke-linejoin:round;stroke-miterlimit:4;stroke-dasharray:none;stroke-opacity:1;marker-start:none;marker-end:none" />
        <path
           sodipodi:nodetypes="cc"
           inkscape:connector-curvature="0"
           id="path4536-0-2-3-6-5-3-5"
           d="m 97.71877,972.44378 -0.113188,12.97095"
           style="fill:#7a8efa;fill-opacity:1;stroke:#ff00a6;stroke-width:8.29425;stroke-linecap:round;stroke-linejoin:round;stroke-miterlimit:4;stroke-dasharray:none;stroke-opacity:1;marker-start:none;marker-end:none" />
        <path
           sodipodi:nodetypes="cc"
           inkscape:connector-curvature="0"
           id="path4536-0-2-3-6-5-3-5-6-2"
           d="M 82.52297,959.56558 H 69.985476"
           style="fill:#7a8efa;fill-opacity:1;stroke:#ff00a6;stroke-width:8.29425;stroke-linecap:round;stroke-linejoin:round;stroke-miterlimit:4;stroke-dasharray:none;stroke-opacity:1;marker-start:none;marker-end:none" />
      </g>
      <path
         sodipodi:nodetypes="cccccccc"
         inkscape:connector-curvature="0"
         id="path2987-9-0-1"
         d="m 625.04566,918.40537 0.35845,-59.29546 10.77396,-14.57306 54.69625,-0.13065 11.82472,15.37082 0.12735,71.77873 -13.46608,16.28814 -30.17127,0.0548"
         style="fill:none;stroke:#a62d74;stroke-width:8.29425;stroke-linecap:round;stroke-linejoin:round;stroke-miterlimit:4;stroke-dasharray:none;stroke-opacity:1;marker-start:none;marker-end:none" />
      <path
         sodipodi:nodetypes="ccccc"
         inkscape:connector-curvature="0"
         id="path2987-9-0-1-0"
         d="m 640.61567,869.19275 47.25737,0.15256 -0.18659,29.36299 -46.80047,-0.17897 z"
         style="fill:none;stroke:#a62d74;stroke-width:8.29425;stroke-linecap:round;stroke-linejoin:round;stroke-miterlimit:4;stroke-dasharray:none;stroke-opacity:1;marker-start:none;marker-end:none" />
      <path
         id="path4536-0-2-3-6-5-3-5-6-1"
         style="fill:#ff00a6;fill-opacity:1;stroke:#ff00a6;stroke-width:8.29425;stroke-linecap:round;stroke-linejoin:round;stroke-miterlimit:4;stroke-dasharray:none;stroke-opacity:1;marker-start:none;marker-end:none"
         d="m 672.91033,983.98949 11.27525,0.72878 9.62966,13.89114 v 0 l -13.40929,9.76389 v 0 l -10.26374,-13.42931 2.76812,-10.9545"
         sodipodi:nodetypes="cccccccc" />
      <g
         transform="matrix(0.25919546,0,0,0.25919546,547.40564,799.0228)"
         id="g7638-7">
        <circle
           style="fill:#ffcc00;fill-opacity:1;stroke:none"
           id="path7538-9"
           transform="translate(0,52.362183)"
           cx="540"
           cy="220"
           r="15" />
        <circle
           style="fill:#ffffff;fill-opacity:1;stroke:none"
           id="path7614-7"
           transform="translate(0,52.362183)"
           cx="540"
           cy="220"
           r="10" />
      </g>
      <g
         transform="matrix(0.25919546,0,0,0.25919546,500.98293,798.87992)"
         id="g7638-7-5">
        <circle
           style="fill:#ffcc00;fill-opacity:1;stroke:none"
           id="path7538-9-9"
           transform="translate(0,52.362183)"
           cx="540"
           cy="220"
           r="15" />
        <circle
           style="fill:#ffffff;fill-opacity:1;stroke:none"
           id="path7614-7-2"
           transform="translate(0,52.362183)"
           cx="540"
           cy="220"
           r="10" />
      </g>
      <g
         transform="matrix(0.25919546,0,0,0.25919546,501.33009,827.58337)"
         id="g7638-7-2">
        <circle
           style="fill:#ffcc00;fill-opacity:1;stroke:none"
           id="path7538-9-8"
           transform="translate(0,52.362183)"
           cx="540"
           cy="220"
           r="15" />
        <circle
           style="fill:#ffffff;fill-opacity:1;stroke:none"
           id="path7614-7-9"
           transform="translate(0,52.362183)"
           cx="540"
           cy="220"
           r="10" />
      </g>
      <g
         transform="matrix(0.25919546,0,0,0.25919546,547.23302,827.71709)"
         id="g7638-7-7">
        <circle
           style="fill:#ffcc00;fill-opacity:1;stroke:none"
           id="path7538-9-3"
           transform="translate(0,52.362183)"
           cx="540"
           cy="220"
           r="15" />
        <circle
           style="fill:#ffffff;fill-opacity:1;stroke:none"
           id="path7614-7-6"
           transform="translate(0,52.362183)"
           cx="540"
           cy="220"
           r="10" />
      </g>
      <path
         sodipodi:nodetypes="cc"
         inkscape:connector-curvature="0"
         id="path4536-0-2-3-62"
         d="m 652.48966,890.06719 7.85287,-12.21398"
         style="fill:none;stroke:#ff00a6;stroke-width:8.29425;stroke-linecap:round;stroke-linejoin:round;stroke-miterlimit:4;stroke-dasharray:none;stroke-opacity:1;marker-start:none;marker-end:none" />
      <g
         transform="matrix(0.25919546,0,0,0.25919546,520.40305,807.17268)"
         id="g7638-7-1">
        <circle
           style="fill:#ffcc00;fill-opacity:1;stroke:none"
           id="path7538-9-2"
           transform="translate(0,52.362183)"
           cx="540"
           cy="220"
           r="15" />
        <circle
           style="fill:#ffffff;fill-opacity:1;stroke:none"
           id="path7614-7-93"
           transform="translate(0,52.362183)"
           cx="540"
           cy="220"
           r="10" />
      </g>
      <g
         transform="matrix(0.25919546,0,0,0.25919546,512.53659,819.54387)"
         id="g7638-7-3">
        <circle
           style="fill:#ffcc00;fill-opacity:1;stroke:none"
           id="path7538-9-6"
           transform="translate(0,52.362183)"
           cx="540"
           cy="220"
           r="15" />
        <circle
           style="fill:#ffffff;fill-opacity:1;stroke:none"
           id="path7614-7-1"
           transform="translate(0,52.362183)"
           cx="540"
           cy="220"
           r="10" />
      </g>
      <path
         sodipodi:nodetypes="cccc"
         inkscape:connector-curvature="0"
         id="path4536-0-2-3-6-5-3-5-6-93"
         d="m 711.26892,875.51809 6.31436,3.73344 -0.0272,15.90634 -5.66073,3.85114"
         style="fill:none;stroke:#ff00a6;stroke-width:8.29425;stroke-linecap:round;stroke-linejoin:round;stroke-miterlimit:4;stroke-dasharray:none;stroke-opacity:1;marker-start:none;marker-end:none" />
      <g
         transform="matrix(0.25919546,0,0,0.25919546,571.38984,804.86231)"
         id="g7638-7-0">
        <circle
           style="fill:#ffcc00;fill-opacity:1;stroke:none"
           id="path7538-9-63"
           transform="translate(0,52.362183)"
           cx="540"
           cy="220"
           r="15" />
        <circle
           style="fill:#ffffff;fill-opacity:1;stroke:none"
           id="path7614-7-20"
           transform="translate(0,52.362183)"
           cx="540"
           cy="220"
           r="10" />
      </g>
      <g
         transform="matrix(0.25919546,0,0,0.25919546,571.88203,828.49704)"
         id="g7638-7-6">
        <circle
           style="fill:#ffcc00;fill-opacity:1;stroke:none"
           id="path7538-9-1"
           transform="translate(0,52.362183)"
           cx="540"
           cy="220"
           r="15" />
        <circle
           style="fill:#ffffff;fill-opacity:1;stroke:none"
           id="path7614-7-5"
           transform="translate(0,52.362183)"
           cx="540"
           cy="220"
           r="10" />
      </g>
      <path
         sodipodi:nodetypes="cccc"
         inkscape:connector-curvature="0"
         id="path4536-0-2-3-6-5-3-5-6-93-6"
         d="m 616.70338,875.269 -6.31435,3.73344 0.0272,15.90634 5.66072,3.85114"
         style="fill:none;stroke:#ff00a6;stroke-width:8.29425;stroke-linecap:round;stroke-linejoin:round;stroke-miterlimit:4;stroke-dasharray:none;stroke-opacity:1;marker-start:none;marker-end:none" />
      <g
         transform="matrix(0.25919546,0,0,0.25919546,476.73346,804.69904)"
         id="g7638-7-54">
        <circle
           style="fill:#ffcc00;fill-opacity:1;stroke:none"
           id="path7538-9-7"
           transform="translate(0,52.362183)"
           cx="540"
           cy="220"
           r="15" />
        <circle
           style="fill:#ffffff;fill-opacity:1;stroke:none"
           id="path7614-7-65"
           transform="translate(0,52.362183)"
           cx="540"
           cy="220"
           r="10" />
      </g>
      <g
         transform="matrix(0.25919546,0,0,0.25919546,476.12033,828.21906)"
         id="g7638-7-69">
        <circle
           style="fill:#ffcc00;fill-opacity:1;stroke:none"
           id="path7538-9-37"
           transform="translate(0,52.362183)"
           cx="540"
           cy="220"
           r="15" />
        <circle
           style="fill:#ffffff;fill-opacity:1;stroke:none"
           id="path7614-7-4"
           transform="translate(0,52.362183)"
           cx="540"
           cy="220"
           r="10" />
      </g>
      <g
         transform="matrix(0.25919546,0,0,0.25919546,485.10518,847.78085)"
         id="g7638-7-52">
        <circle
           style="fill:#ffcc00;fill-opacity:1;stroke:none"
           id="path7538-9-5"
           transform="translate(0,52.362183)"
           cx="540"
           cy="220"
           r="15" />
        <circle
           style="fill:#ffffff;fill-opacity:1;stroke:none"
           id="path7614-7-47"
           transform="translate(0,52.362183)"
           cx="540"
           cy="220"
           r="10" />
      </g>
      <g
         transform="matrix(0.25919546,0,0,0.25919546,519.31996,877.27045)"
         id="g7638-7-4">
        <circle
           style="fill:#ffcc00;fill-opacity:1;stroke:none"
           id="path7538-9-43"
           transform="translate(0,52.362183)"
           cx="540"
           cy="220"
           r="15" />
        <circle
           style="fill:#ffffff;fill-opacity:1;stroke:none"
           id="path7614-7-07"
           transform="translate(0,52.362183)"
           cx="540"
           cy="220"
           r="10" />
      </g>
      <g
         transform="matrix(0.25919546,0,0,0.25919546,505.06297,866.82971)"
         id="g7638-7-86">
        <circle
           style="fill:#ffcc00;fill-opacity:1;stroke:none"
           id="path7538-9-88"
           transform="translate(0,52.362183)"
           cx="540"
           cy="220"
           r="15" />
        <circle
           style="fill:#ffffff;fill-opacity:1;stroke:none"
           id="path7614-7-43"
           transform="translate(0,52.362183)"
           cx="540"
           cy="220"
           r="10" />
      </g>
      <g
         transform="matrix(0.25919546,0,0,0.25919546,494.76267,877.16437)"
         id="g7638-7-14">
        <circle
           style="fill:#ffcc00;fill-opacity:1;stroke:none"
           id="path7538-9-92"
           transform="translate(0,52.362183)"
           cx="540"
           cy="220"
           r="15" />
        <circle
           style="fill:#ffffff;fill-opacity:1;stroke:none"
           id="path7614-7-06"
           transform="translate(0,52.362183)"
           cx="540"
           cy="220"
           r="10" />
      </g>
      <g
         transform="matrix(0.25919546,0,0,0.25919546,484.46855,873.01788)"
         id="g7638-7-89">
        <circle
           style="fill:#ffcc00;fill-opacity:1;stroke:none"
           id="path7538-9-26"
           transform="translate(0,52.362183)"
           cx="540"
           cy="220"
           r="15" />
        <circle
           style="fill:#ffffff;fill-opacity:1;stroke:none"
           id="path7614-7-64"
           transform="translate(0,52.362183)"
           cx="540"
           cy="220"
           r="10" />
      </g>
      <g
         transform="matrix(0.25919546,0,0,0.25919546,484.47647,858.42072)"
         id="g7638-7-9">
        <circle
           style="fill:#ffcc00;fill-opacity:1;stroke:none"
           id="path7538-9-50"
           transform="translate(0,52.362183)"
           cx="540"
           cy="220"
           r="15" />
        <circle
           style="fill:#ffffff;fill-opacity:1;stroke:none"
           id="path7614-7-48"
           transform="translate(0,52.362183)"
           cx="540"
           cy="220"
           r="10" />
      </g>
      <g
         transform="matrix(0.25919546,0,0,0.25919546,474.80133,877.59587)"
         id="g7638-7-89-2">
        <circle
           style="fill:#ffcc00;fill-opacity:1;stroke:none"
           id="path7538-9-26-6"
           transform="translate(0,52.362183)"
           cx="540"
           cy="220"
           r="15" />
        <circle
           style="fill:#ffffff;fill-opacity:1;stroke:none"
           id="path7614-7-64-1"
           transform="translate(0,52.362183)"
           cx="540"
           cy="220"
           r="10" />
      </g>
      <g
         transform="matrix(0.25919546,0,0,0.25919546,464.72328,867.4724)"
         id="g7638-7-89-2-0">
        <circle
           style="fill:#ffcc00;fill-opacity:1;stroke:none"
           id="path7538-9-26-6-6"
           transform="translate(0,52.362183)"
           cx="540"
           cy="220"
           r="15" />
        <circle
           style="fill:#ffffff;fill-opacity:1;stroke:none"
           id="path7614-7-64-1-1"
           transform="translate(0,52.362183)"
           cx="540"
           cy="220"
           r="10" />
      </g>
      <g
         transform="matrix(0.25919546,0,0,0.25919546,470.23909,886.19861)"
         id="g7638-7-89-2-5">
        <circle
           style="fill:#ffcc00;fill-opacity:1;stroke:none"
           id="path7538-9-26-6-9"
           transform="translate(0,52.362183)"
           cx="540"
           cy="220"
           r="15" />
        <circle
           style="fill:#ffffff;fill-opacity:1;stroke:none"
           id="path7614-7-64-1-4"
           transform="translate(0,52.362183)"
           cx="540"
           cy="220"
           r="10" />
      </g>
      <g
         transform="matrix(0.25919546,0,0,0.25919546,457.78664,886.18294)"
         id="g7638-7-89-2-9">
        <circle
           style="fill:#ffcc00;fill-opacity:1;stroke:none"
           id="path7538-9-26-6-0"
           transform="translate(0,52.362183)"
           cx="540"
           cy="220"
           r="15" />
        <circle
           style="fill:#ffffff;fill-opacity:1;stroke:none"
           id="path7614-7-64-1-9"
           transform="translate(0,52.362183)"
           cx="540"
           cy="220"
           r="10" />
      </g>
      <g
         transform="matrix(0.25919546,0,0,0.25919546,476.10373,894.57382)"
         id="g7638-7-89-2-1">
        <circle
           style="fill:#ffcc00;fill-opacity:1;stroke:none"
           id="path7538-9-26-6-7"
           transform="translate(0,52.362183)"
           cx="540"
           cy="220"
           r="15" />
        <circle
           style="fill:#ffffff;fill-opacity:1;stroke:none"
           id="path7614-7-64-1-7"
           transform="translate(0,52.362183)"
           cx="540"
           cy="220"
           r="10" />
      </g>
      <g
         transform="matrix(0.25919546,0,0,0.25919546,467.19359,903.70923)"
         id="g7638-7-89-2-11">
        <circle
           style="fill:#ffcc00;fill-opacity:1;stroke:none"
           id="path7538-9-26-6-5"
           transform="translate(0,52.362183)"
           cx="540"
           cy="220"
           r="15" />
        <circle
           style="fill:#ffffff;fill-opacity:1;stroke:none"
           id="path7614-7-64-1-97"
           transform="translate(0,52.362183)"
           cx="540"
           cy="220"
           r="10" />
      </g>
      <g
         transform="matrix(0.25919546,0,0,0.25919546,485.40577,899.07028)"
         id="g7638-7-89-2-7">
        <circle
           style="fill:#ffcc00;fill-opacity:1;stroke:none"
           id="path7538-9-26-6-67"
           transform="translate(0,52.362183)"
           cx="540"
           cy="220"
           r="15" />
        <circle
           style="fill:#ffffff;fill-opacity:1;stroke:none"
           id="path7614-7-64-1-3"
           transform="translate(0,52.362183)"
           cx="540"
           cy="220"
           r="10" />
      </g>
      <g
         transform="matrix(0.25919546,0,0,0.25919546,485.34467,912.01375)"
         id="g7638-7-89-2-6">
        <circle
           style="fill:#ffcc00;fill-opacity:1;stroke:none"
           id="path7538-9-26-6-56"
           transform="translate(0,52.362183)"
           cx="540"
           cy="220"
           r="15" />
        <circle
           style="fill:#ffffff;fill-opacity:1;stroke:none"
           id="path7614-7-64-1-39"
           transform="translate(0,52.362183)"
           cx="540"
           cy="220"
           r="10" />
      </g>
      <g
         transform="matrix(0.25919546,0,0,0.25919546,493.8667,893.77982)"
         id="g7638-7-89-2-4">
        <circle
           style="fill:#ffcc00;fill-opacity:1;stroke:none"
           id="path7538-9-26-6-8"
           transform="translate(0,52.362183)"
           cx="540"
           cy="220"
           r="15" />
        <circle
           style="fill:#ffffff;fill-opacity:1;stroke:none"
           id="path7614-7-64-1-12"
           transform="translate(0,52.362183)"
           cx="540"
           cy="220"
           r="10" />
      </g>
      <g
         transform="matrix(0.25919546,0,0,0.25919546,504.11695,904.06087)"
         id="g7638-7-89-2-93">
        <circle
           style="fill:#ffcc00;fill-opacity:1;stroke:none"
           id="path7538-9-26-6-90"
           transform="translate(0,52.362183)"
           cx="540"
           cy="220"
           r="15" />
        <circle
           style="fill:#ffffff;fill-opacity:1;stroke:none"
           id="path7614-7-64-1-8"
           transform="translate(0,52.362183)"
           cx="540"
           cy="220"
           r="10" />
      </g>
      <g
         transform="matrix(0.25919546,0,0,0.25919546,499.02939,885.61406)"
         id="g7638-7-89-2-8">
        <circle
           style="fill:#ffcc00;fill-opacity:1;stroke:none"
           id="path7538-9-26-6-50"
           transform="translate(0,52.362183)"
           cx="540"
           cy="220"
           r="15" />
        <circle
           style="fill:#ffffff;fill-opacity:1;stroke:none"
           id="path7614-7-64-1-96"
           transform="translate(0,52.362183)"
           cx="540"
           cy="220"
           r="10" />
      </g>
      <g
         transform="matrix(0.25919546,0,0,0.25919546,540.61472,937.15868)"
         id="g7638-7-89-2-3">
        <circle
           style="fill:#ffcc00;fill-opacity:1;stroke:none"
           id="path7538-9-26-6-85"
           transform="translate(0,52.362183)"
           cx="540"
           cy="220"
           r="15" />
        <circle
           style="fill:#ffffff;fill-opacity:1;stroke:none"
           id="path7614-7-64-1-6"
           transform="translate(0,52.362183)"
           cx="540"
           cy="220"
           r="10" />
      </g>
      <g
         transform="matrix(0.25919546,0,0,0.25919546,553.33466,927.96276)"
         id="g7638-7-89-2-115">
        <circle
           style="fill:#ffcc00;fill-opacity:1;stroke:none"
           id="path7538-9-26-6-98"
           transform="translate(0,52.362183)"
           cx="540"
           cy="220"
           r="15" />
        <circle
           style="fill:#ffffff;fill-opacity:1;stroke:none"
           id="path7614-7-64-1-48"
           transform="translate(0,52.362183)"
           cx="540"
           cy="220"
           r="10" />
      </g>
      <g
         transform="matrix(0.25919546,0,0,0.25919546,496.50707,773.9965)"
         id="g7638-7-89-2-10">
        <circle
           style="fill:#ffcc00;fill-opacity:1;stroke:none"
           id="path7538-9-26-6-3"
           transform="translate(0,52.362183)"
           cx="540"
           cy="220"
           r="15" />
        <circle
           style="fill:#ffffff;fill-opacity:1;stroke:none"
           id="path7614-7-64-1-0"
           transform="translate(0,52.362183)"
           cx="540"
           cy="220"
           r="10" />
      </g>
      <g
         transform="matrix(0.25919546,0,0,0.25919546,550.75578,773.88812)"
         id="g7638-7-89-2-44-94">
        <circle
           style="fill:#ffcc00;fill-opacity:1;stroke:none"
           id="path7538-9-26-6-4-78"
           transform="translate(0,52.362183)"
           cx="540"
           cy="220"
           r="15" />
        <circle
           style="fill:#ffffff;fill-opacity:1;stroke:none"
           id="path7614-7-64-1-47-450"
           transform="translate(0,52.362183)"
           cx="540"
           cy="220"
           r="10" />
      </g>
      <g
         transform="matrix(0.25919546,0,0,0.25919546,549.18355,877.21752)"
         id="g7638-7-89-2-63">
        <circle
           style="fill:#ffcc00;fill-opacity:1;stroke:none"
           id="path7538-9-26-6-1"
           transform="translate(0,52.362183)"
           cx="540"
           cy="220"
           r="15" />
        <circle
           style="fill:#ffffff;fill-opacity:1;stroke:none"
           id="path7614-7-64-1-75"
           transform="translate(0,52.362183)"
           cx="540"
           cy="220"
           r="10" />
      </g>
      <path
         sodipodi:nodetypes="cc"
         inkscape:connector-curvature="0"
         id="path4536-0-2-3-62-62"
         d="m 664.68329,890.12697 7.85286,-12.21398"
         style="fill:none;stroke:#ff00a6;stroke-width:8.29425;stroke-linecap:round;stroke-linejoin:round;stroke-miterlimit:4;stroke-dasharray:none;stroke-opacity:1;marker-start:none;marker-end:none" />
      <g
         transform="matrix(0.25919546,0,0,0.25919546,532.59668,807.23246)"
         id="g7638-7-1-1">
        <circle
           style="fill:#ffcc00;fill-opacity:1;stroke:none"
           id="path7538-9-2-7"
           transform="translate(0,52.362183)"
           cx="540"
           cy="220"
           r="15" />
        <circle
           style="fill:#ffffff;fill-opacity:1;stroke:none"
           id="path7614-7-93-8"
           transform="translate(0,52.362183)"
           cx="540"
           cy="220"
           r="10" />
      </g>
      <g
         transform="matrix(0.25919546,0,0,0.25919546,524.73022,819.60365)"
         id="g7638-7-3-5">
        <circle
           style="fill:#ffcc00;fill-opacity:1;stroke:none"
           id="path7538-9-6-7"
           transform="translate(0,52.362183)"
           cx="540"
           cy="220"
           r="15" />
        <circle
           style="fill:#ffffff;fill-opacity:1;stroke:none"
           id="path7614-7-1-4"
           transform="translate(0,52.362183)"
           cx="540"
           cy="220"
           r="10" />
      </g>
    </g>
  </g>
</svg>
