<?xml version="1.0" encoding="UTF-8" standalone="no"?>
<!-- Created with Inkscape (http://www.inkscape.org/) -->

<svg
   width="270"
   height="270"
   id="svg2"
   version="1.1"
   viewBox="0 0 270.71056 270.71054"
   sodipodi:docname="xHain_logo-stamp.svg"
   inkscape:version="1.3.2 (091e20e, 2023-11-25)"
   xmlns:inkscape="http://www.inkscape.org/namespaces/inkscape"
   xmlns:sodipodi="http://sodipodi.sourceforge.net/DTD/sodipodi-0.dtd"
   xmlns:xlink="http://www.w3.org/1999/xlink"
   xmlns="http://www.w3.org/2000/svg"
   xmlns:svg="http://www.w3.org/2000/svg"
   xmlns:rdf="http://www.w3.org/1999/02/22-rdf-syntax-ns#"
   xmlns:cc="http://creativecommons.org/ns#"
   xmlns:dc="http://purl.org/dc/elements/1.1/">
  <sodipodi:namedview
     id="namedview1"
     pagecolor="#ffffff"
     bordercolor="#666666"
     borderopacity="1.0"
     inkscape:showpageshadow="2"
     inkscape:pageopacity="0.0"
     inkscape:pagecheckerboard="0"
     inkscape:deskcolor="#d1d1d1"
     inkscape:zoom="2.1646973"
     inkscape:cx="153.60115"
     inkscape:cy="151.75332"
     inkscape:window-width="1440"
     inkscape:window-height="796"
     inkscape:window-x="0"
     inkscape:window-y="25"
     inkscape:window-maximized="1"
     inkscape:current-layer="svg2" />
  <defs
     id="defs4">
    <rect
       x="114.58646"
       y="204.13898"
       width="23.87158"
       height="53.737965"
       id="rect1874" />
    <marker
       orient="auto"
       refY="0"
       refX="0"
       id="DotS"
       style="overflow:visible">
      <path
         id="path3828"
         d="m -2.5,-1 c 0,2.76 -2.24,5 -5,5 -2.76,0 -5,-2.24 -5,-5 0,-2.76 2.24,-5 5,-5 2.76,0 5,2.24 5,5 z"
         style="fill-rule:evenodd;stroke:#000000;stroke-width:1pt"
         transform="matrix(0.2,0,0,0.2,1.48,0.2)" />
    </marker>
    <marker
       orient="auto"
       refY="0"
       refX="0"
       id="DotS-1"
       style="overflow:visible">
      <path
         id="path3828-5"
         d="m -2.5,-1 c 0,2.76 -2.24,5 -5,5 -2.76,0 -5,-2.24 -5,-5 0,-2.76 2.24,-5 5,-5 2.76,0 5,2.24 5,5 z"
         style="fill-rule:evenodd;stroke:#000000;stroke-width:1pt"
         transform="matrix(0.2,0,0,0.2,1.48,0.2)" />
    </marker>
    <marker
       orient="auto"
       refY="0"
       refX="0"
       id="marker4395"
       style="overflow:visible">
      <path
         id="path4397"
         d="m -2.5,-1 c 0,2.76 -2.24,5 -5,5 -2.76,0 -5,-2.24 -5,-5 0,-2.76 2.24,-5 5,-5 2.76,0 5,2.24 5,5 z"
         style="fill-rule:evenodd;stroke:#000000;stroke-width:1pt"
         transform="matrix(0.2,0,0,0.2,1.48,0.2)" />
    </marker>
    <marker
       orient="auto"
       refY="0"
       refX="0"
       id="DotS-3"
       style="overflow:visible">
      <path
         id="path3828-0"
         d="m -2.5,-1 c 0,2.76 -2.24,5 -5,5 -2.76,0 -5,-2.24 -5,-5 0,-2.76 2.24,-5 5,-5 2.76,0 5,2.24 5,5 z"
         style="fill-rule:evenodd;stroke:#000000;stroke-width:1pt"
         transform="matrix(0.2,0,0,0.2,1.48,0.2)" />
    </marker>
    <marker
       orient="auto"
       refY="0"
       refX="0"
       id="marker4427"
       style="overflow:visible">
      <path
         id="path4429"
         d="m -2.5,-1 c 0,2.76 -2.24,5 -5,5 -2.76,0 -5,-2.24 -5,-5 0,-2.76 2.24,-5 5,-5 2.76,0 5,2.24 5,5 z"
         style="fill-rule:evenodd;stroke:#000000;stroke-width:1pt"
         transform="matrix(0.2,0,0,0.2,1.48,0.2)" />
    </marker>
    <marker
       orient="auto"
       refY="0"
       refX="0"
       id="DotS-2"
       style="overflow:visible">
      <path
         id="path3828-1"
         d="m -2.5,-1 c 0,2.76 -2.24,5 -5,5 -2.76,0 -5,-2.24 -5,-5 0,-2.76 2.24,-5 5,-5 2.76,0 5,2.24 5,5 z"
         style="fill-rule:evenodd;stroke:#000000;stroke-width:1pt"
         transform="matrix(0.2,0,0,0.2,1.48,0.2)" />
    </marker>
    <marker
       orient="auto"
       refY="0"
       refX="0"
       id="marker4427-3"
       style="overflow:visible">
      <path
         id="path4429-9"
         d="m -2.5,-1 c 0,2.76 -2.24,5 -5,5 -2.76,0 -5,-2.24 -5,-5 0,-2.76 2.24,-5 5,-5 2.76,0 5,2.24 5,5 z"
         style="fill-rule:evenodd;stroke:#000000;stroke-width:1pt"
         transform="matrix(0.2,0,0,0.2,1.48,0.2)" />
    </marker>
    <marker
       orient="auto"
       refY="0"
       refX="0"
       id="DotS-21"
       style="overflow:visible">
      <path
         id="path3828-6"
         d="m -2.5,-1 c 0,2.76 -2.24,5 -5,5 -2.76,0 -5,-2.24 -5,-5 0,-2.76 2.24,-5 5,-5 2.76,0 5,2.24 5,5 z"
         style="fill-rule:evenodd;stroke:#000000;stroke-width:1pt"
         transform="matrix(0.2,0,0,0.2,1.48,0.2)" />
    </marker>
    <marker
       orient="auto"
       refY="0"
       refX="0"
       id="marker4474"
       style="overflow:visible">
      <path
         id="path4476"
         d="m -2.5,-1 c 0,2.76 -2.24,5 -5,5 -2.76,0 -5,-2.24 -5,-5 0,-2.76 2.24,-5 5,-5 2.76,0 5,2.24 5,5 z"
         style="fill-rule:evenodd;stroke:#000000;stroke-width:1pt"
         transform="matrix(0.2,0,0,0.2,1.48,0.2)" />
    </marker>
    <marker
       orient="auto"
       refY="0"
       refX="0"
       id="DotS-36"
       style="overflow:visible">
      <path
         id="path3828-8"
         d="m -2.5,-1 c 0,2.76 -2.24,5 -5,5 -2.76,0 -5,-2.24 -5,-5 0,-2.76 2.24,-5 5,-5 2.76,0 5,2.24 5,5 z"
         style="fill-rule:evenodd;stroke:#000000;stroke-width:1pt"
         transform="matrix(0.2,0,0,0.2,1.48,0.2)" />
    </marker>
    <marker
       orient="auto"
       refY="0"
       refX="0"
       id="marker4516"
       style="overflow:visible">
      <path
         id="path4518"
         d="m -2.5,-1 c 0,2.76 -2.24,5 -5,5 -2.76,0 -5,-2.24 -5,-5 0,-2.76 2.24,-5 5,-5 2.76,0 5,2.24 5,5 z"
         style="fill-rule:evenodd;stroke:#000000;stroke-width:1pt"
         transform="matrix(0.2,0,0,0.2,1.48,0.2)" />
    </marker>
    <marker
       orient="auto"
       refY="0"
       refX="0"
       id="DotS-11"
       style="overflow:visible">
      <path
         id="path3828-58"
         d="m -2.5,-1 c 0,2.76 -2.24,5 -5,5 -2.76,0 -5,-2.24 -5,-5 0,-2.76 2.24,-5 5,-5 2.76,0 5,2.24 5,5 z"
         style="fill-rule:evenodd;stroke:#000000;stroke-width:1pt"
         transform="matrix(0.2,0,0,0.2,1.48,0.2)" />
    </marker>
    <marker
       orient="auto"
       refY="0"
       refX="0"
       id="marker4954"
       style="overflow:visible">
      <path
         id="path4956"
         d="m -2.5,-1 c 0,2.76 -2.24,5 -5,5 -2.76,0 -5,-2.24 -5,-5 0,-2.76 2.24,-5 5,-5 2.76,0 5,2.24 5,5 z"
         style="fill-rule:evenodd;stroke:#000000;stroke-width:1pt"
         transform="matrix(0.2,0,0,0.2,1.48,0.2)" />
    </marker>
    <marker
       orient="auto"
       refY="0"
       refX="0"
       id="DotS-7"
       style="overflow:visible">
      <path
         id="path3828-3"
         d="m -2.5,-1 c 0,2.76 -2.24,5 -5,5 -2.76,0 -5,-2.24 -5,-5 0,-2.76 2.24,-5 5,-5 2.76,0 5,2.24 5,5 z"
         style="fill-rule:evenodd;stroke:#000000;stroke-width:1pt"
         transform="matrix(0.2,0,0,0.2,1.48,0.2)" />
    </marker>
    <marker
       orient="auto"
       refY="0"
       refX="0"
       id="marker5024"
       style="overflow:visible">
      <path
         id="path5026"
         d="m -2.5,-1 c 0,2.76 -2.24,5 -5,5 -2.76,0 -5,-2.24 -5,-5 0,-2.76 2.24,-5 5,-5 2.76,0 5,2.24 5,5 z"
         style="fill-rule:evenodd;stroke:#000000;stroke-width:1pt"
         transform="matrix(0.2,0,0,0.2,1.48,0.2)" />
    </marker>
    <marker
       orient="auto"
       refY="0"
       refX="0"
       id="DotS-34"
       style="overflow:visible">
      <path
         id="path3828-16"
         d="m -2.5,-1 c 0,2.76 -2.24,5 -5,5 -2.76,0 -5,-2.24 -5,-5 0,-2.76 2.24,-5 5,-5 2.76,0 5,2.24 5,5 z"
         style="fill-rule:evenodd;stroke:#000000;stroke-width:1pt"
         transform="matrix(0.2,0,0,0.2,1.48,0.2)" />
    </marker>
    <marker
       orient="auto"
       refY="0"
       refX="0"
       id="marker5056"
       style="overflow:visible">
      <path
         id="path5058"
         d="m -2.5,-1 c 0,2.76 -2.24,5 -5,5 -2.76,0 -5,-2.24 -5,-5 0,-2.76 2.24,-5 5,-5 2.76,0 5,2.24 5,5 z"
         style="fill-rule:evenodd;stroke:#000000;stroke-width:1pt"
         transform="matrix(0.2,0,0,0.2,1.48,0.2)" />
    </marker>
    <marker
       orient="auto"
       refY="0"
       refX="0"
       id="marker4516-8"
       style="overflow:visible">
      <path
         id="path4518-5"
         d="m -2.5,-1 c 0,2.76 -2.24,5 -5,5 -2.76,0 -5,-2.24 -5,-5 0,-2.76 2.24,-5 5,-5 2.76,0 5,2.24 5,5 z"
         style="fill-rule:evenodd;stroke:#000000;stroke-width:1pt"
         transform="matrix(0.2,0,0,0.2,1.48,0.2)" />
    </marker>
    <marker
       orient="auto"
       refY="0"
       refX="0"
       id="marker5088"
       style="overflow:visible">
      <path
         id="path5090"
         d="m -2.5,-1 c 0,2.76 -2.24,5 -5,5 -2.76,0 -5,-2.24 -5,-5 0,-2.76 2.24,-5 5,-5 2.76,0 5,2.24 5,5 z"
         style="fill-rule:evenodd;stroke:#000000;stroke-width:1pt"
         transform="matrix(0.2,0,0,0.2,1.48,0.2)" />
    </marker>
    <marker
       orient="auto"
       refY="0"
       refX="0"
       id="marker4516-9"
       style="overflow:visible">
      <path
         id="path4518-55"
         d="m -2.5,-1 c 0,2.76 -2.24,5 -5,5 -2.76,0 -5,-2.24 -5,-5 0,-2.76 2.24,-5 5,-5 2.76,0 5,2.24 5,5 z"
         style="fill-rule:evenodd;stroke:#000000;stroke-width:1pt"
         transform="matrix(0.2,0,0,0.2,1.48,0.2)" />
    </marker>
    <marker
       orient="auto"
       refY="0"
       refX="0"
       id="marker5137"
       style="overflow:visible">
      <path
         id="path5139"
         d="m -2.5,-1 c 0,2.76 -2.24,5 -5,5 -2.76,0 -5,-2.24 -5,-5 0,-2.76 2.24,-5 5,-5 2.76,0 5,2.24 5,5 z"
         style="fill-rule:evenodd;stroke:#000000;stroke-width:1pt"
         transform="matrix(0.2,0,0,0.2,1.48,0.2)" />
    </marker>
    <marker
       orient="auto"
       refY="0"
       refX="0"
       id="DotS-0"
       style="overflow:visible">
      <path
         id="path3828-4"
         d="m -2.5,-1 c 0,2.76 -2.24,5 -5,5 -2.76,0 -5,-2.24 -5,-5 0,-2.76 2.24,-5 5,-5 2.76,0 5,2.24 5,5 z"
         style="fill-rule:evenodd;stroke:#000000;stroke-width:1pt"
         transform="matrix(0.2,0,0,0.2,1.48,0.2)" />
    </marker>
    <marker
       orient="auto"
       refY="0"
       refX="0"
       id="marker5169"
       style="overflow:visible">
      <path
         id="path5171"
         d="m -2.5,-1 c 0,2.76 -2.24,5 -5,5 -2.76,0 -5,-2.24 -5,-5 0,-2.76 2.24,-5 5,-5 2.76,0 5,2.24 5,5 z"
         style="fill-rule:evenodd;stroke:#000000;stroke-width:1pt"
         transform="matrix(0.2,0,0,0.2,1.48,0.2)" />
    </marker>
    <marker
       orient="auto"
       refY="0"
       refX="0"
       id="DotS-8"
       style="overflow:visible">
      <path
         id="path3828-66"
         d="m -2.5,-1 c 0,2.76 -2.24,5 -5,5 -2.76,0 -5,-2.24 -5,-5 0,-2.76 2.24,-5 5,-5 2.76,0 5,2.24 5,5 z"
         style="fill-rule:evenodd;stroke:#000000;stroke-width:1pt"
         transform="matrix(0.2,0,0,0.2,1.48,0.2)" />
    </marker>
    <marker
       orient="auto"
       refY="0"
       refX="0"
       id="marker5218"
       style="overflow:visible">
      <path
         id="path5220"
         d="m -2.5,-1 c 0,2.76 -2.24,5 -5,5 -2.76,0 -5,-2.24 -5,-5 0,-2.76 2.24,-5 5,-5 2.76,0 5,2.24 5,5 z"
         style="fill-rule:evenodd;stroke:#000000;stroke-width:1pt"
         transform="matrix(0.2,0,0,0.2,1.48,0.2)" />
    </marker>
    <marker
       orient="auto"
       refY="0"
       refX="0"
       id="DotSv"
       style="overflow:visible">
      <path
         id="path5753"
         d="m -2.5,-1 c 0,2.76 -2.24,5 -5,5 -2.76,0 -5,-2.24 -5,-5 0,-2.76 2.24,-5 5,-5 2.76,0 5,2.24 5,5 z"
         style="fill:#858585;fill-rule:evenodd;stroke:#858585;stroke-width:1pt"
         transform="matrix(0.2,0,0,0.2,1.48,0.2)" />
    </marker>
    <marker
       orient="auto"
       refY="0"
       refX="0"
       id="DotSs"
       style="overflow:visible">
      <path
         id="path5756"
         d="m -2.5,-1 c 0,2.76 -2.24,5 -5,5 -2.76,0 -5,-2.24 -5,-5 0,-2.76 2.24,-5 5,-5 2.76,0 5,2.24 5,5 z"
         style="fill:#858585;fill-rule:evenodd;stroke:#858585;stroke-width:1pt"
         transform="matrix(0.2,0,0,0.2,1.48,0.2)" />
    </marker>
    <marker
       orient="auto"
       refY="0"
       refX="0"
       id="DotSk"
       style="overflow:visible">
      <path
         id="path5759"
         d="m -2.5,-1 c 0,2.76 -2.24,5 -5,5 -2.76,0 -5,-2.24 -5,-5 0,-2.76 2.24,-5 5,-5 2.76,0 5,2.24 5,5 z"
         style="fill:#858585;fill-rule:evenodd;stroke:#858585;stroke-width:1pt"
         transform="matrix(0.2,0,0,0.2,1.48,0.2)" />
    </marker>
    <marker
       orient="auto"
       refY="0"
       refX="0"
       id="DotSK"
       style="overflow:visible">
      <path
         id="path5762"
         d="m -2.5,-1 c 0,2.76 -2.24,5 -5,5 -2.76,0 -5,-2.24 -5,-5 0,-2.76 2.24,-5 5,-5 2.76,0 5,2.24 5,5 z"
         style="fill:#858585;fill-rule:evenodd;stroke:#858585;stroke-width:1pt"
         transform="matrix(0.2,0,0,0.2,1.48,0.2)" />
    </marker>
    <marker
       orient="auto"
       refY="0"
       refX="0"
       id="DotSQ"
       style="overflow:visible">
      <path
         id="path5765"
         d="m -2.5,-1 c 0,2.76 -2.24,5 -5,5 -2.76,0 -5,-2.24 -5,-5 0,-2.76 2.24,-5 5,-5 2.76,0 5,2.24 5,5 z"
         style="fill:#858585;fill-rule:evenodd;stroke:#858585;stroke-width:1pt"
         transform="matrix(0.2,0,0,0.2,1.48,0.2)" />
    </marker>
    <marker
       orient="auto"
       refY="0"
       refX="0"
       id="DotSg"
       style="overflow:visible">
      <path
         id="path5768"
         d="m -2.5,-1 c 0,2.76 -2.24,5 -5,5 -2.76,0 -5,-2.24 -5,-5 0,-2.76 2.24,-5 5,-5 2.76,0 5,2.24 5,5 z"
         style="fill:#858585;fill-rule:evenodd;stroke:#858585;stroke-width:1pt"
         transform="matrix(0.2,0,0,0.2,1.48,0.2)" />
    </marker>
    <marker
       orient="auto"
       refY="0"
       refX="0"
       id="marker4516J"
       style="overflow:visible">
      <path
         id="path5771"
         d="m -2.5,-1 c 0,2.76 -2.24,5 -5,5 -2.76,0 -5,-2.24 -5,-5 0,-2.76 2.24,-5 5,-5 2.76,0 5,2.24 5,5 z"
         style="fill:#858585;fill-rule:evenodd;stroke:#858585;stroke-width:1pt"
         transform="matrix(0.2,0,0,0.2,1.48,0.2)" />
    </marker>
    <marker
       orient="auto"
       refY="0"
       refX="0"
       id="marker4516P"
       style="overflow:visible">
      <path
         id="path5774"
         d="m -2.5,-1 c 0,2.76 -2.24,5 -5,5 -2.76,0 -5,-2.24 -5,-5 0,-2.76 2.24,-5 5,-5 2.76,0 5,2.24 5,5 z"
         style="fill:#858585;fill-rule:evenodd;stroke:#858585;stroke-width:1pt"
         transform="matrix(0.2,0,0,0.2,1.48,0.2)" />
    </marker>
    <marker
       orient="auto"
       refY="0"
       refX="0"
       id="DotSC"
       style="overflow:visible">
      <path
         id="path5777"
         d="m -2.5,-1 c 0,2.76 -2.24,5 -5,5 -2.76,0 -5,-2.24 -5,-5 0,-2.76 2.24,-5 5,-5 2.76,0 5,2.24 5,5 z"
         style="fill:#858585;fill-rule:evenodd;stroke:#858585;stroke-width:1pt"
         transform="matrix(0.2,0,0,0.2,1.48,0.2)" />
    </marker>
    <marker
       orient="auto"
       refY="0"
       refX="0"
       id="DotSL"
       style="overflow:visible">
      <path
         id="path5780"
         d="m -2.5,-1 c 0,2.76 -2.24,5 -5,5 -2.76,0 -5,-2.24 -5,-5 0,-2.76 2.24,-5 5,-5 2.76,0 5,2.24 5,5 z"
         style="fill:#858585;fill-rule:evenodd;stroke:#858585;stroke-width:1pt"
         transform="matrix(0.2,0,0,0.2,1.48,0.2)" />
    </marker>
    <marker
       orient="auto"
       refY="0"
       refX="0"
       id="DotSf"
       style="overflow:visible">
      <path
         id="path5783"
         d="m -2.5,-1 c 0,2.76 -2.24,5 -5,5 -2.76,0 -5,-2.24 -5,-5 0,-2.76 2.24,-5 5,-5 2.76,0 5,2.24 5,5 z"
         style="fill:#858585;fill-rule:evenodd;stroke:#858585;stroke-width:1pt"
         transform="matrix(0.2,0,0,0.2,1.48,0.2)" />
    </marker>
    <marker
       orient="auto"
       refY="0"
       refX="0"
       id="DotS7"
       style="overflow:visible">
      <path
         id="path5786"
         d="m -2.5,-1 c 0,2.76 -2.24,5 -5,5 -2.76,0 -5,-2.24 -5,-5 0,-2.76 2.24,-5 5,-5 2.76,0 5,2.24 5,5 z"
         style="fill:#858585;fill-rule:evenodd;stroke:#858585;stroke-width:1pt"
         transform="matrix(0.2,0,0,0.2,1.48,0.2)" />
    </marker>
    <marker
       orient="auto"
       refY="0"
       refX="0"
       id="DotSS"
       style="overflow:visible">
      <path
         id="path5789"
         d="m -2.5,-1 c 0,2.76 -2.24,5 -5,5 -2.76,0 -5,-2.24 -5,-5 0,-2.76 2.24,-5 5,-5 2.76,0 5,2.24 5,5 z"
         style="fill:#858585;fill-rule:evenodd;stroke:#858585;stroke-width:1pt"
         transform="matrix(0.2,0,0,0.2,1.48,0.2)" />
    </marker>
    <marker
       orient="auto"
       refY="0"
       refX="0"
       id="DotSy"
       style="overflow:visible">
      <path
         id="path5792"
         d="m -2.5,-1 c 0,2.76 -2.24,5 -5,5 -2.76,0 -5,-2.24 -5,-5 0,-2.76 2.24,-5 5,-5 2.76,0 5,2.24 5,5 z"
         style="fill:#858585;fill-rule:evenodd;stroke:#858585;stroke-width:1pt"
         transform="matrix(0.2,0,0,0.2,1.48,0.2)" />
    </marker>
    <marker
       orient="auto"
       refY="0"
       refX="0"
       id="marker4516C"
       style="overflow:visible">
      <path
         id="path5795"
         d="m -2.5,-1 c 0,2.76 -2.24,5 -5,5 -2.76,0 -5,-2.24 -5,-5 0,-2.76 2.24,-5 5,-5 2.76,0 5,2.24 5,5 z"
         style="fill:#858585;fill-rule:evenodd;stroke:#858585;stroke-width:1pt"
         transform="matrix(0.2,0,0,0.2,1.48,0.2)" />
    </marker>
    <marker
       orient="auto"
       refY="0"
       refX="0"
       id="marker45162"
       style="overflow:visible">
      <path
         id="path5798"
         d="m -2.5,-1 c 0,2.76 -2.24,5 -5,5 -2.76,0 -5,-2.24 -5,-5 0,-2.76 2.24,-5 5,-5 2.76,0 5,2.24 5,5 z"
         style="fill:#858585;fill-rule:evenodd;stroke:#858585;stroke-width:1pt"
         transform="matrix(0.2,0,0,0.2,1.48,0.2)" />
    </marker>
    <marker
       orient="auto"
       refY="0"
       refX="0"
       id="DotSG"
       style="overflow:visible">
      <path
         id="path5801"
         d="m -2.5,-1 c 0,2.76 -2.24,5 -5,5 -2.76,0 -5,-2.24 -5,-5 0,-2.76 2.24,-5 5,-5 2.76,0 5,2.24 5,5 z"
         style="fill:#858585;fill-rule:evenodd;stroke:#858585;stroke-width:1pt"
         transform="matrix(0.2,0,0,0.2,1.48,0.2)" />
    </marker>
    <marker
       orient="auto"
       refY="0"
       refX="0"
       id="DotS5"
       style="overflow:visible">
      <path
         id="path5804"
         d="m -2.5,-1 c 0,2.76 -2.24,5 -5,5 -2.76,0 -5,-2.24 -5,-5 0,-2.76 2.24,-5 5,-5 2.76,0 5,2.24 5,5 z"
         style="fill:#858585;fill-rule:evenodd;stroke:#858585;stroke-width:1pt"
         transform="matrix(0.2,0,0,0.2,1.48,0.2)" />
    </marker>
    <marker
       orient="auto"
       refY="0"
       refX="0"
       id="DotSsA"
       style="overflow:visible">
      <path
         id="path5807"
         d="m -2.5,-1 c 0,2.76 -2.24,5 -5,5 -2.76,0 -5,-2.24 -5,-5 0,-2.76 2.24,-5 5,-5 2.76,0 5,2.24 5,5 z"
         style="fill:#858585;fill-rule:evenodd;stroke:#858585;stroke-width:1pt"
         transform="matrix(0.2,0,0,0.2,1.48,0.2)" />
    </marker>
    <marker
       orient="auto"
       refY="0"
       refX="0"
       id="DotSLd"
       style="overflow:visible">
      <path
         id="path5810"
         d="m -2.5,-1 c 0,2.76 -2.24,5 -5,5 -2.76,0 -5,-2.24 -5,-5 0,-2.76 2.24,-5 5,-5 2.76,0 5,2.24 5,5 z"
         style="fill:#858585;fill-rule:evenodd;stroke:#858585;stroke-width:1pt"
         transform="matrix(0.2,0,0,0.2,1.48,0.2)" />
    </marker>
    <marker
       orient="auto"
       refY="0"
       refX="0"
       id="DotSd"
       style="overflow:visible">
      <path
         id="path5813"
         d="m -2.5,-1 c 0,2.76 -2.24,5 -5,5 -2.76,0 -5,-2.24 -5,-5 0,-2.76 2.24,-5 5,-5 2.76,0 5,2.24 5,5 z"
         style="fill:#858585;fill-rule:evenodd;stroke:#858585;stroke-width:1pt"
         transform="matrix(0.2,0,0,0.2,1.48,0.2)" />
    </marker>
    <marker
       orient="auto"
       refY="0"
       refX="0"
       id="DotSyI"
       style="overflow:visible">
      <path
         id="path5816"
         d="m -2.5,-1 c 0,2.76 -2.24,5 -5,5 -2.76,0 -5,-2.24 -5,-5 0,-2.76 2.24,-5 5,-5 2.76,0 5,2.24 5,5 z"
         style="fill:#858585;fill-rule:evenodd;stroke:#858585;stroke-width:1pt"
         transform="matrix(0.2,0,0,0.2,1.48,0.2)" />
    </marker>
    <marker
       orient="auto"
       refY="0"
       refX="0"
       id="marker4516y"
       style="overflow:visible">
      <path
         id="path5819"
         d="m -2.5,-1 c 0,2.76 -2.24,5 -5,5 -2.76,0 -5,-2.24 -5,-5 0,-2.76 2.24,-5 5,-5 2.76,0 5,2.24 5,5 z"
         style="fill:#858585;fill-rule:evenodd;stroke:#858585;stroke-width:1pt"
         transform="matrix(0.2,0,0,0.2,1.48,0.2)" />
    </marker>
    <marker
       orient="auto"
       refY="0"
       refX="0"
       id="marker4516I"
       style="overflow:visible">
      <path
         id="path5822"
         d="m -2.5,-1 c 0,2.76 -2.24,5 -5,5 -2.76,0 -5,-2.24 -5,-5 0,-2.76 2.24,-5 5,-5 2.76,0 5,2.24 5,5 z"
         style="fill:#858585;fill-rule:evenodd;stroke:#858585;stroke-width:1pt"
         transform="matrix(0.2,0,0,0.2,1.48,0.2)" />
    </marker>
    <marker
       orient="auto"
       refY="0"
       refX="0"
       id="marker5218b"
       style="overflow:visible">
      <path
         id="path5825"
         d="m -2.5,-1 c 0,2.76 -2.24,5 -5,5 -2.76,0 -5,-2.24 -5,-5 0,-2.76 2.24,-5 5,-5 2.76,0 5,2.24 5,5 z"
         style="fill:#858585;fill-rule:evenodd;stroke:#858585;stroke-width:1pt"
         transform="matrix(0.2,0,0,0.2,1.48,0.2)" />
    </marker>
    <marker
       orient="auto"
       refY="0"
       refX="0"
       id="marker5218X"
       style="overflow:visible">
      <path
         id="path5828"
         d="m -2.5,-1 c 0,2.76 -2.24,5 -5,5 -2.76,0 -5,-2.24 -5,-5 0,-2.76 2.24,-5 5,-5 2.76,0 5,2.24 5,5 z"
         style="fill:#858585;fill-rule:evenodd;stroke:#858585;stroke-width:1pt"
         transform="matrix(0.2,0,0,0.2,1.48,0.2)" />
    </marker>
    <marker
       orient="auto"
       refY="0"
       refX="0"
       id="DotSQL"
       style="overflow:visible">
      <path
         id="path6109"
         d="m -2.5,-1 c 0,2.76 -2.24,5 -5,5 -2.76,0 -5,-2.24 -5,-5 0,-2.76 2.24,-5 5,-5 2.76,0 5,2.24 5,5 z"
         style="fill:#ffc400;fill-rule:evenodd;stroke:#ffc400;stroke-width:1pt"
         transform="matrix(0.2,0,0,0.2,1.48,0.2)" />
    </marker>
    <marker
       orient="auto"
       refY="0"
       refX="0"
       id="DotSgb"
       style="overflow:visible">
      <path
         id="path6112"
         d="m -2.5,-1 c 0,2.76 -2.24,5 -5,5 -2.76,0 -5,-2.24 -5,-5 0,-2.76 2.24,-5 5,-5 2.76,0 5,2.24 5,5 z"
         style="fill:#ffc400;fill-rule:evenodd;stroke:#ffc400;stroke-width:1pt"
         transform="matrix(0.2,0,0,0.2,1.48,0.2)" />
    </marker>
    <marker
       orient="auto"
       refY="0"
       refX="0"
       id="marker4516J6"
       style="overflow:visible">
      <path
         id="path6115"
         d="m -2.5,-1 c 0,2.76 -2.24,5 -5,5 -2.76,0 -5,-2.24 -5,-5 0,-2.76 2.24,-5 5,-5 2.76,0 5,2.24 5,5 z"
         style="fill:#ffc400;fill-rule:evenodd;stroke:#ffc400;stroke-width:1pt"
         transform="matrix(0.2,0,0,0.2,1.48,0.2)" />
    </marker>
    <marker
       orient="auto"
       refY="0"
       refX="0"
       id="marker4516Pl"
       style="overflow:visible">
      <path
         id="path6118"
         d="m -2.5,-1 c 0,2.76 -2.24,5 -5,5 -2.76,0 -5,-2.24 -5,-5 0,-2.76 2.24,-5 5,-5 2.76,0 5,2.24 5,5 z"
         style="fill:#ffc400;fill-rule:evenodd;stroke:#ffc400;stroke-width:1pt"
         transform="matrix(0.2,0,0,0.2,1.48,0.2)" />
    </marker>
    <marker
       orient="auto"
       refY="0"
       refX="0"
       id="DotSSB"
       style="overflow:visible">
      <path
         id="path6121"
         d="m -2.5,-1 c 0,2.76 -2.24,5 -5,5 -2.76,0 -5,-2.24 -5,-5 0,-2.76 2.24,-5 5,-5 2.76,0 5,2.24 5,5 z"
         style="fill:#ffc400;fill-rule:evenodd;stroke:#ffc400;stroke-width:1pt"
         transform="matrix(0.2,0,0,0.2,1.48,0.2)" />
    </marker>
    <marker
       orient="auto"
       refY="0"
       refX="0"
       id="DotSyD"
       style="overflow:visible">
      <path
         id="path6124"
         d="m -2.5,-1 c 0,2.76 -2.24,5 -5,5 -2.76,0 -5,-2.24 -5,-5 0,-2.76 2.24,-5 5,-5 2.76,0 5,2.24 5,5 z"
         style="fill:#ffc400;fill-rule:evenodd;stroke:#ffc400;stroke-width:1pt"
         transform="matrix(0.2,0,0,0.2,1.48,0.2)" />
    </marker>
    <marker
       orient="auto"
       refY="0"
       refX="0"
       id="marker4516Ct"
       style="overflow:visible">
      <path
         id="path6127"
         d="m -2.5,-1 c 0,2.76 -2.24,5 -5,5 -2.76,0 -5,-2.24 -5,-5 0,-2.76 2.24,-5 5,-5 2.76,0 5,2.24 5,5 z"
         style="fill:#ffc400;fill-rule:evenodd;stroke:#ffc400;stroke-width:1pt"
         transform="matrix(0.2,0,0,0.2,1.48,0.2)" />
    </marker>
    <marker
       orient="auto"
       refY="0"
       refX="0"
       id="marker451623"
       style="overflow:visible">
      <path
         id="path6130"
         d="m -2.5,-1 c 0,2.76 -2.24,5 -5,5 -2.76,0 -5,-2.24 -5,-5 0,-2.76 2.24,-5 5,-5 2.76,0 5,2.24 5,5 z"
         style="fill:#ffc400;fill-rule:evenodd;stroke:#ffc400;stroke-width:1pt"
         transform="matrix(0.2,0,0,0.2,1.48,0.2)" />
    </marker>
    <marker
       orient="auto"
       refY="0"
       refX="0"
       id="marker4516yb"
       style="overflow:visible">
      <path
         id="path6133"
         d="m -2.5,-1 c 0,2.76 -2.24,5 -5,5 -2.76,0 -5,-2.24 -5,-5 0,-2.76 2.24,-5 5,-5 2.76,0 5,2.24 5,5 z"
         style="fill:#ffc400;fill-rule:evenodd;stroke:#ffc400;stroke-width:1pt"
         transform="matrix(0.2,0,0,0.2,1.48,0.2)" />
    </marker>
    <marker
       orient="auto"
       refY="0"
       refX="0"
       id="marker4516IS"
       style="overflow:visible">
      <path
         id="path6136"
         d="m -2.5,-1 c 0,2.76 -2.24,5 -5,5 -2.76,0 -5,-2.24 -5,-5 0,-2.76 2.24,-5 5,-5 2.76,0 5,2.24 5,5 z"
         style="fill:#ffc400;fill-rule:evenodd;stroke:#ffc400;stroke-width:1pt"
         transform="matrix(0.2,0,0,0.2,1.48,0.2)" />
    </marker>
    <marker
       orient="auto"
       refY="0"
       refX="0"
       id="DotSsAi"
       style="overflow:visible">
      <path
         id="path6139"
         d="m -2.5,-1 c 0,2.76 -2.24,5 -5,5 -2.76,0 -5,-2.24 -5,-5 0,-2.76 2.24,-5 5,-5 2.76,0 5,2.24 5,5 z"
         style="fill:#ffc400;fill-rule:evenodd;stroke:#ffc400;stroke-width:1pt"
         transform="matrix(0.2,0,0,0.2,1.48,0.2)" />
    </marker>
    <marker
       orient="auto"
       refY="0"
       refX="0"
       id="DotSLdG"
       style="overflow:visible">
      <path
         id="path6142"
         d="m -2.5,-1 c 0,2.76 -2.24,5 -5,5 -2.76,0 -5,-2.24 -5,-5 0,-2.76 2.24,-5 5,-5 2.76,0 5,2.24 5,5 z"
         style="fill:#ffc400;fill-rule:evenodd;stroke:#ffc400;stroke-width:1pt"
         transform="matrix(0.2,0,0,0.2,1.48,0.2)" />
    </marker>
    <marker
       orient="auto"
       refY="0"
       refX="0"
       id="DotSd7"
       style="overflow:visible">
      <path
         id="path6145"
         d="m -2.5,-1 c 0,2.76 -2.24,5 -5,5 -2.76,0 -5,-2.24 -5,-5 0,-2.76 2.24,-5 5,-5 2.76,0 5,2.24 5,5 z"
         style="fill:#ffc400;fill-rule:evenodd;stroke:#ffc400;stroke-width:1pt"
         transform="matrix(0.2,0,0,0.2,1.48,0.2)" />
    </marker>
    <marker
       orient="auto"
       refY="0"
       refX="0"
       id="DotSyIp"
       style="overflow:visible">
      <path
         id="path6148"
         d="m -2.5,-1 c 0,2.76 -2.24,5 -5,5 -2.76,0 -5,-2.24 -5,-5 0,-2.76 2.24,-5 5,-5 2.76,0 5,2.24 5,5 z"
         style="fill:#ffc400;fill-rule:evenodd;stroke:#ffc400;stroke-width:1pt"
         transform="matrix(0.2,0,0,0.2,1.48,0.2)" />
    </marker>
    <marker
       orient="auto"
       refY="0"
       refX="0"
       id="DotSvS"
       style="overflow:visible">
      <path
         id="path6151"
         d="m -2.5,-1 c 0,2.76 -2.24,5 -5,5 -2.76,0 -5,-2.24 -5,-5 0,-2.76 2.24,-5 5,-5 2.76,0 5,2.24 5,5 z"
         style="fill:#ffc400;fill-rule:evenodd;stroke:#ffc400;stroke-width:1pt"
         transform="matrix(0.2,0,0,0.2,1.48,0.2)" />
    </marker>
    <marker
       orient="auto"
       refY="0"
       refX="0"
       id="DotSsJ"
       style="overflow:visible">
      <path
         id="path6154"
         d="m -2.5,-1 c 0,2.76 -2.24,5 -5,5 -2.76,0 -5,-2.24 -5,-5 0,-2.76 2.24,-5 5,-5 2.76,0 5,2.24 5,5 z"
         style="fill:#ffc400;fill-rule:evenodd;stroke:#ffc400;stroke-width:1pt"
         transform="matrix(0.2,0,0,0.2,1.48,0.2)" />
    </marker>
    <marker
       orient="auto"
       refY="0"
       refX="0"
       id="DotSfb"
       style="overflow:visible">
      <path
         id="path6157"
         d="m -2.5,-1 c 0,2.76 -2.24,5 -5,5 -2.76,0 -5,-2.24 -5,-5 0,-2.76 2.24,-5 5,-5 2.76,0 5,2.24 5,5 z"
         style="fill:#ffc400;fill-rule:evenodd;stroke:#ffc400;stroke-width:1pt"
         transform="matrix(0.2,0,0,0.2,1.48,0.2)" />
    </marker>
    <marker
       orient="auto"
       refY="0"
       refX="0"
       id="DotS7T"
       style="overflow:visible">
      <path
         id="path6160"
         d="m -2.5,-1 c 0,2.76 -2.24,5 -5,5 -2.76,0 -5,-2.24 -5,-5 0,-2.76 2.24,-5 5,-5 2.76,0 5,2.24 5,5 z"
         style="fill:#ffc400;fill-rule:evenodd;stroke:#ffc400;stroke-width:1pt"
         transform="matrix(0.2,0,0,0.2,1.48,0.2)" />
    </marker>
    <marker
       orient="auto"
       refY="0"
       refX="0"
       id="DotSko"
       style="overflow:visible">
      <path
         id="path6163"
         d="m -2.5,-1 c 0,2.76 -2.24,5 -5,5 -2.76,0 -5,-2.24 -5,-5 0,-2.76 2.24,-5 5,-5 2.76,0 5,2.24 5,5 z"
         style="fill:#ffc400;fill-rule:evenodd;stroke:#ffc400;stroke-width:1pt"
         transform="matrix(0.2,0,0,0.2,1.48,0.2)" />
    </marker>
    <marker
       orient="auto"
       refY="0"
       refX="0"
       id="DotSKZ"
       style="overflow:visible">
      <path
         id="path6166"
         d="m -2.5,-1 c 0,2.76 -2.24,5 -5,5 -2.76,0 -5,-2.24 -5,-5 0,-2.76 2.24,-5 5,-5 2.76,0 5,2.24 5,5 z"
         style="fill:#ffc400;fill-rule:evenodd;stroke:#ffc400;stroke-width:1pt"
         transform="matrix(0.2,0,0,0.2,1.48,0.2)" />
    </marker>
    <marker
       orient="auto"
       refY="0"
       refX="0"
       id="DotSCa"
       style="overflow:visible">
      <path
         id="path6169"
         d="m -2.5,-1 c 0,2.76 -2.24,5 -5,5 -2.76,0 -5,-2.24 -5,-5 0,-2.76 2.24,-5 5,-5 2.76,0 5,2.24 5,5 z"
         style="fill:#ffc400;fill-rule:evenodd;stroke:#ffc400;stroke-width:1pt"
         transform="matrix(0.2,0,0,0.2,1.48,0.2)" />
    </marker>
    <marker
       orient="auto"
       refY="0"
       refX="0"
       id="DotSLi"
       style="overflow:visible">
      <path
         id="path6172"
         d="m -2.5,-1 c 0,2.76 -2.24,5 -5,5 -2.76,0 -5,-2.24 -5,-5 0,-2.76 2.24,-5 5,-5 2.76,0 5,2.24 5,5 z"
         style="fill:#ffc400;fill-rule:evenodd;stroke:#ffc400;stroke-width:1pt"
         transform="matrix(0.2,0,0,0.2,1.48,0.2)" />
    </marker>
    <marker
       orient="auto"
       refY="0"
       refX="0"
       id="marker5218bQ"
       style="overflow:visible">
      <path
         id="path6175"
         d="m -2.5,-1 c 0,2.76 -2.24,5 -5,5 -2.76,0 -5,-2.24 -5,-5 0,-2.76 2.24,-5 5,-5 2.76,0 5,2.24 5,5 z"
         style="fill:#ffc400;fill-rule:evenodd;stroke:#ffc400;stroke-width:1pt"
         transform="matrix(0.2,0,0,0.2,1.48,0.2)" />
    </marker>
    <marker
       orient="auto"
       refY="0"
       refX="0"
       id="marker5218XM"
       style="overflow:visible">
      <path
         id="path6178"
         d="m -2.5,-1 c 0,2.76 -2.24,5 -5,5 -2.76,0 -5,-2.24 -5,-5 0,-2.76 2.24,-5 5,-5 2.76,0 5,2.24 5,5 z"
         style="fill:#ffc400;fill-rule:evenodd;stroke:#ffc400;stroke-width:1pt"
         transform="matrix(0.2,0,0,0.2,1.48,0.2)" />
    </marker>
    <marker
       orient="auto"
       refY="0"
       refX="0"
       id="DotSGn"
       style="overflow:visible">
      <path
         id="path6181"
         d="m -2.5,-1 c 0,2.76 -2.24,5 -5,5 -2.76,0 -5,-2.24 -5,-5 0,-2.76 2.24,-5 5,-5 2.76,0 5,2.24 5,5 z"
         style="fill:#ffc400;fill-rule:evenodd;stroke:#ffc400;stroke-width:1pt"
         transform="matrix(0.2,0,0,0.2,1.48,0.2)" />
    </marker>
    <marker
       orient="auto"
       refY="0"
       refX="0"
       id="DotS5R"
       style="overflow:visible">
      <path
         id="path6184"
         d="m -2.5,-1 c 0,2.76 -2.24,5 -5,5 -2.76,0 -5,-2.24 -5,-5 0,-2.76 2.24,-5 5,-5 2.76,0 5,2.24 5,5 z"
         style="fill:#ffc400;fill-rule:evenodd;stroke:#ffc400;stroke-width:1pt"
         transform="matrix(0.2,0,0,0.2,1.48,0.2)" />
    </marker>
    <marker
       orient="auto"
       refY="0"
       refX="0"
       id="DotSd7-9"
       style="overflow:visible">
      <path
         id="path6145-2"
         d="m -2.5,-1 c 0,2.76 -2.24,5 -5,5 -2.76,0 -5,-2.24 -5,-5 0,-2.76 2.24,-5 5,-5 2.76,0 5,2.24 5,5 z"
         style="fill:#ffc400;fill-rule:evenodd;stroke:#ffc400;stroke-width:1pt"
         transform="matrix(0.2,0,0,0.2,1.48,0.2)" />
    </marker>
    <marker
       orient="auto"
       refY="0"
       refX="0"
       id="DotSyIp-9"
       style="overflow:visible">
      <path
         id="path6148-2"
         d="m -2.5,-1 c 0,2.76 -2.24,5 -5,5 -2.76,0 -5,-2.24 -5,-5 0,-2.76 2.24,-5 5,-5 2.76,0 5,2.24 5,5 z"
         style="fill:#ffc400;fill-rule:evenodd;stroke:#ffc400;stroke-width:1pt"
         transform="matrix(0.2,0,0,0.2,1.48,0.2)" />
    </marker>
    <marker
       orient="auto"
       refY="0"
       refX="0"
       id="DotSGn-0"
       style="overflow:visible">
      <path
         id="path6181-6"
         d="m -2.5,-1 c 0,2.76 -2.24,5 -5,5 -2.76,0 -5,-2.24 -5,-5 0,-2.76 2.24,-5 5,-5 2.76,0 5,2.24 5,5 z"
         style="fill:#ffc400;fill-rule:evenodd;stroke:#ffc400;stroke-width:1pt"
         transform="matrix(0.2,0,0,0.2,1.48,0.2)" />
    </marker>
    <marker
       orient="auto"
       refY="0"
       refX="0"
       id="DotS5R-3"
       style="overflow:visible">
      <path
         id="path6184-9"
         d="m -2.5,-1 c 0,2.76 -2.24,5 -5,5 -2.76,0 -5,-2.24 -5,-5 0,-2.76 2.24,-5 5,-5 2.76,0 5,2.24 5,5 z"
         style="fill:#ffc400;fill-rule:evenodd;stroke:#ffc400;stroke-width:1pt"
         transform="matrix(0.2,0,0,0.2,1.48,0.2)" />
    </marker>
    <marker
       orient="auto"
       refY="0"
       refX="0"
       id="marker5218bQ-7"
       style="overflow:visible">
      <path
         id="path6175-9"
         d="m -2.5,-1 c 0,2.76 -2.24,5 -5,5 -2.76,0 -5,-2.24 -5,-5 0,-2.76 2.24,-5 5,-5 2.76,0 5,2.24 5,5 z"
         style="fill:#ffc400;fill-rule:evenodd;stroke:#ffc400;stroke-width:1pt"
         transform="matrix(0.2,0,0,0.2,1.48,0.2)" />
    </marker>
    <marker
       orient="auto"
       refY="0"
       refX="0"
       id="marker5218XM-8"
       style="overflow:visible">
      <path
         id="path6178-2"
         d="m -2.5,-1 c 0,2.76 -2.24,5 -5,5 -2.76,0 -5,-2.24 -5,-5 0,-2.76 2.24,-5 5,-5 2.76,0 5,2.24 5,5 z"
         style="fill:#ffc400;fill-rule:evenodd;stroke:#ffc400;stroke-width:1pt"
         transform="matrix(0.2,0,0,0.2,1.48,0.2)" />
    </marker>
    <marker
       orient="auto"
       refY="0"
       refX="0"
       id="marker5218bQ-9"
       style="overflow:visible">
      <path
         id="path6175-95"
         d="m -2.5,-1 c 0,2.76 -2.24,5 -5,5 -2.76,0 -5,-2.24 -5,-5 0,-2.76 2.24,-5 5,-5 2.76,0 5,2.24 5,5 z"
         style="fill:#ffc400;fill-rule:evenodd;stroke:#ffc400;stroke-width:1pt"
         transform="matrix(0.2,0,0,0.2,1.48,0.2)" />
    </marker>
    <marker
       orient="auto"
       refY="0"
       refX="0"
       id="marker5218XM-4"
       style="overflow:visible">
      <path
         id="path6178-29"
         d="m -2.5,-1 c 0,2.76 -2.24,5 -5,5 -2.76,0 -5,-2.24 -5,-5 0,-2.76 2.24,-5 5,-5 2.76,0 5,2.24 5,5 z"
         style="fill:#ffc400;fill-rule:evenodd;stroke:#ffc400;stroke-width:1pt"
         transform="matrix(0.2,0,0,0.2,1.48,0.2)" />
    </marker>
    <marker
       orient="auto"
       refY="0"
       refX="0"
       id="DotSGn-08"
       style="overflow:visible">
      <path
         id="path6181-5"
         d="m -2.5,-1 c 0,2.76 -2.24,5 -5,5 -2.76,0 -5,-2.24 -5,-5 0,-2.76 2.24,-5 5,-5 2.76,0 5,2.24 5,5 z"
         style="fill:#ffc400;fill-rule:evenodd;stroke:#ffc400;stroke-width:1pt"
         transform="matrix(0.2,0,0,0.2,1.48,0.2)" />
    </marker>
    <marker
       orient="auto"
       refY="0"
       refX="0"
       id="DotS5R-8"
       style="overflow:visible">
      <path
         id="path6184-1"
         d="m -2.5,-1 c 0,2.76 -2.24,5 -5,5 -2.76,0 -5,-2.24 -5,-5 0,-2.76 2.24,-5 5,-5 2.76,0 5,2.24 5,5 z"
         style="fill:#ffc400;fill-rule:evenodd;stroke:#ffc400;stroke-width:1pt"
         transform="matrix(0.2,0,0,0.2,1.48,0.2)" />
    </marker>
    <marker
       orient="auto"
       refY="0"
       refX="0"
       id="marker4516Ct-0"
       style="overflow:visible">
      <path
         id="path6127-3"
         d="m -2.5,-1 c 0,2.76 -2.24,5 -5,5 -2.76,0 -5,-2.24 -5,-5 0,-2.76 2.24,-5 5,-5 2.76,0 5,2.24 5,5 z"
         style="fill:#ffc400;fill-rule:evenodd;stroke:#ffc400;stroke-width:1pt"
         transform="matrix(0.2,0,0,0.2,1.48,0.2)" />
    </marker>
    <marker
       orient="auto"
       refY="0"
       refX="0"
       id="marker451623-8"
       style="overflow:visible">
      <path
         id="path6130-8"
         d="m -2.5,-1 c 0,2.76 -2.24,5 -5,5 -2.76,0 -5,-2.24 -5,-5 0,-2.76 2.24,-5 5,-5 2.76,0 5,2.24 5,5 z"
         style="fill:#ffc400;fill-rule:evenodd;stroke:#ffc400;stroke-width:1pt"
         transform="matrix(0.2,0,0,0.2,1.48,0.2)" />
    </marker>
    <marker
       orient="auto"
       refY="0"
       refX="0"
       id="marker5218bQ-0"
       style="overflow:visible">
      <path
         id="path6175-8"
         d="m -2.5,-1 c 0,2.76 -2.24,5 -5,5 -2.76,0 -5,-2.24 -5,-5 0,-2.76 2.24,-5 5,-5 2.76,0 5,2.24 5,5 z"
         style="fill:#ffc400;fill-rule:evenodd;stroke:#ffc400;stroke-width:1pt"
         transform="matrix(0.2,0,0,0.2,1.48,0.2)" />
    </marker>
    <marker
       orient="auto"
       refY="0"
       refX="0"
       id="marker5218XM-86"
       style="overflow:visible">
      <path
         id="path6178-7"
         d="m -2.5,-1 c 0,2.76 -2.24,5 -5,5 -2.76,0 -5,-2.24 -5,-5 0,-2.76 2.24,-5 5,-5 2.76,0 5,2.24 5,5 z"
         style="fill:#ffc400;fill-rule:evenodd;stroke:#ffc400;stroke-width:1pt"
         transform="matrix(0.2,0,0,0.2,1.48,0.2)" />
    </marker>
    <circle
       transform="matrix(0.8755829,0,0,0.8755829,152.4506,-680.83707)"
       id="path6572"
       style="fill:none;stroke:none"
       cx="675.71429"
       cy="777.58148"
       r="584.28571" />
    <circle
       transform="matrix(-1.1162727,-0.04357729,-0.04357729,1.1162727,1532.2608,-838.54723)"
       id="path6572-9"
       style="fill:none;stroke:none"
       cx="675.71429"
       cy="777.58148"
       r="584.28571" />
    <circle
       transform="matrix(-1.1162727,-0.04357729,-0.04357729,1.1162727,1532.2608,-838.54723)"
       id="path6572-9-3"
       style="fill:none;stroke:none"
       cx="675.71429"
       cy="777.58148"
       r="584.28571" />
    <circle
       transform="matrix(0.8755829,0,0,0.8755829,152.4506,-680.83707)"
       id="path6572-1"
       style="fill:none;stroke:none"
       cx="675.71429"
       cy="777.58148"
       r="584.28571" />
    <circle
       transform="matrix(-1.1162727,-0.04357729,-0.04357729,1.1162727,1532.2608,-838.54723)"
       id="path6572-9-2"
       style="fill:none;stroke:none"
       cx="675.71429"
       cy="777.58148"
       r="584.28571" />
    <rect
       x="114.58646"
       y="204.13898"
       width="23.87158"
       height="53.737965"
       id="rect1874-7" />
    <circle
       transform="matrix(0.8755829,0,0,0.8755829,152.4506,-680.83707)"
       id="path6572-93"
       style="fill:none;stroke:none"
       cx="675.71429"
       cy="777.58148"
       r="584.28571" />
    <circle
       transform="matrix(-1.1162727,-0.04357729,-0.04357729,1.1162727,1532.2608,-838.54723)"
       id="path6572-9-6"
       style="fill:none;stroke:none"
       cx="675.71429"
       cy="777.58148"
       r="584.28571" />
    <rect
       x="114.58646"
       y="204.13898"
       width="23.87158"
       height="53.737965"
       id="rect1874-0" />
    <circle
       transform="matrix(0.8755829,0,0,0.8755829,152.4506,-680.83707)"
       id="path6572-93-7"
       style="fill:none;stroke:none"
       cx="675.71429"
       cy="777.58148"
       r="584.28571" />
    <circle
       transform="matrix(-1.1162727,-0.04357729,-0.04357729,1.1162727,1532.2608,-838.54723)"
       id="path6572-9-6-3"
       style="fill:none;stroke:none"
       cx="675.71429"
       cy="777.58148"
       r="584.28571" />
    <rect
       x="114.58646"
       y="204.13898"
       width="23.87158"
       height="53.737965"
       id="rect1874-0-6" />
    <circle
       transform="matrix(0.8755829,0,0,0.8755829,152.4506,-680.83707)"
       id="path6572-5"
       style="fill:none;stroke:none"
       cx="675.71429"
       cy="777.58148"
       r="584.28571" />
    <circle
       transform="matrix(-1.1162727,-0.04357729,-0.04357729,1.1162727,1532.2608,-838.54723)"
       id="path6572-9-0"
       style="fill:none;stroke:none"
       cx="675.71429"
       cy="777.58148"
       r="584.28571" />
  </defs>
  <metadata
     id="metadata7">
    <rdf:RDF>
      <cc:Work
         rdf:about="">
        <dc:format>image/svg+xml</dc:format>
        <dc:type
           rdf:resource="http://purl.org/dc/dcmitype/StillImage" />
      </cc:Work>
    </rdf:RDF>
  </metadata>
  <path
     style="color:#000000;fill:#000000;stroke-linecap:round;stroke-linejoin:round;-inkscape-stroke:none"
     d="m 108.83509,124.83849 -5.17976,5.17983 -5.17976,5.17983"
     id="path2" />
  <path
     id="path2987-6-4-7-2"
     style="color:#000000;fill:#000000;stroke-linecap:round;stroke-linejoin:round;-inkscape-stroke:none"
     d="M 132.73512 74.075289 A 4.1442495 4.1442495 0 0 0 129.80555 75.289413 L 124.62398 80.470983 A 4.1438351 4.1438351 0 0 0 124.62398 86.330111 A 4.1438351 4.1438351 0 0 0 130.48507 86.330111 L 134.45056 82.362667 L 163.81278 82.362667 A 4.1438351 4.1438351 0 0 0 167.95647 78.220936 A 4.1438351 4.1438351 0 0 0 163.81278 74.075289 L 132.73512 74.075289 z M 163.81278 75.630152 A 2.5898826 2.5899129 0 0 1 166.40161 78.220936 A 2.5898826 2.5899129 0 0 1 163.81278 80.809762 A 2.5898826 2.5899129 0 0 1 161.222 78.220936 A 2.5898826 2.5899129 0 0 1 163.81278 75.630152 z M 88.705487 79.2549 A 4.1438351 4.1438351 0 0 0 84.561798 83.400547 A 4.1438351 4.1438351 0 0 0 88.705487 87.542277 L 101.65549 87.542277 L 117.19628 87.542277 A 4.1438351 4.1438351 0 0 0 121.33801 83.400547 A 4.1438351 4.1438351 0 0 0 117.19628 79.2549 L 101.65549 79.2549 L 88.705487 79.2549 z M 88.705487 80.809762 A 2.5898812 2.5899129 0 0 1 91.296271 83.400547 A 2.5898812 2.5899129 0 0 1 88.705487 85.989373 A 2.5898812 2.5899129 0 0 1 86.11666 83.400547 A 2.5898812 2.5899129 0 0 1 88.705487 80.809762 z M 117.19433 80.809762 A 2.5898826 2.5899129 0 0 1 119.78511 83.400547 A 2.5898826 2.5899129 0 0 1 117.19433 85.989373 A 2.5898826 2.5899129 0 0 1 114.6055 83.400547 A 2.5898826 2.5899129 0 0 1 117.19433 80.809762 z M 127.55355 80.809762 A 2.5898826 2.5899129 0 0 1 130.14433 83.400547 A 2.5898826 2.5899129 0 0 1 127.55355 85.989373 A 2.5898826 2.5899129 0 0 1 124.96472 83.400547 A 2.5898826 2.5899129 0 0 1 127.55355 80.809762 z M 139.91412 84.436469 A 4.1438351 4.1438351 0 0 0 136.98455 85.650593 L 122.65788 99.975302 L 88.116049 99.975302 A 4.1442495 4.1442495 0 0 0 85.186485 101.18943 L 82.5957 103.78021 A 4.1438351 4.1438351 0 0 0 82.5957 109.63934 A 4.1438351 4.1438351 0 0 0 88.456787 109.63934 L 89.831489 108.26464 L 124.37528 108.26464 A 4.1442495 4.1442495 0 0 0 127.30485 107.04855 L 142.84368 91.509722 A 4.1438351 4.1438351 0 0 0 142.84368 85.650593 A 4.1438351 4.1438351 0 0 0 139.91412 84.436469 z M 152.04165 84.436469 A 4.1438351 4.1438351 0 0 0 147.89796 88.580158 A 4.1438351 4.1438351 0 0 0 152.04165 92.721888 L 186.58349 92.721888 L 189.33681 95.477167 L 189.33681 102.40159 L 186.58349 105.15491 L 157.44842 105.15491 A 4.1438351 4.1438351 0 0 0 153.30669 109.2986 A 4.1438351 4.1438351 0 0 0 157.44842 113.44425 L 188.30089 113.44425 A 4.1442495 4.1442495 0 0 0 191.23045 112.22817 L 196.41006 107.04855 A 4.1442495 4.1442495 0 0 0 197.62223 104.11899 L 197.62223 93.759769 A 4.1442495 4.1442495 0 0 0 196.41006 90.830204 L 191.23045 85.650593 A 4.1442495 4.1442495 0 0 0 188.30089 84.436469 L 152.04165 84.436469 z M 139.91412 85.989373 A 2.5898812 2.5899129 0 0 1 142.50294 88.580158 A 2.5898812 2.5899129 0 0 1 139.91412 91.168984 A 2.5898812 2.5899129 0 0 1 137.32333 88.580158 A 2.5898812 2.5899129 0 0 1 139.91412 85.989373 z M 152.26881 85.989373 A 2.5898812 2.5899129 0 0 1 154.85959 88.580158 A 2.5898812 2.5899129 0 0 1 152.26881 91.168984 A 2.5898812 2.5899129 0 0 1 149.67998 88.580158 A 2.5898812 2.5899129 0 0 1 152.26881 85.989373 z M 82.936438 89.61608 A 4.1442495 4.1442495 0 0 0 80.004916 90.830204 L 64.466083 106.36904 A 4.1442495 4.1442495 0 0 0 63.253917 109.2986 L 63.253917 140.37822 A 4.1438351 4.1438351 0 0 0 67.395647 144.52191 A 4.1438351 4.1438351 0 0 0 71.541294 140.37822 L 71.541294 111.016 L 84.651878 97.903457 L 114.01606 97.903457 L 119.19567 97.903457 A 4.1438351 4.1438351 0 0 0 123.3374 93.759769 A 4.1438351 4.1438351 0 0 0 119.19567 89.61608 L 114.01606 89.61608 L 82.936438 89.61608 z M 119.19371 91.168984 A 2.5898826 2.5899129 0 0 1 121.7845 93.759769 A 2.5898826 2.5899129 0 0 1 119.19371 96.348595 A 2.5898826 2.5899129 0 0 1 116.60489 93.759769 A 2.5898826 2.5899129 0 0 1 119.19371 91.168984 z M 147.0892 94.795691 A 4.1442495 4.1442495 0 0 0 144.15963 96.009815 L 138.98002 101.18943 A 4.1438351 4.1438351 0 0 0 138.98002 107.04855 A 4.1438351 4.1438351 0 0 0 144.83915 107.04855 L 148.8066 103.08307 L 158.74479 103.08307 L 175.57804 103.08307 L 183.34843 103.08307 A 4.1438351 4.1438351 0 0 0 187.49212 98.93938 A 4.1438351 4.1438351 0 0 0 183.34843 94.795691 L 175.57804 94.795691 L 158.74479 94.795691 L 147.0892 94.795691 z M 183.34843 96.348595 A 2.5898812 2.5899129 0 0 1 185.93922 98.93938 A 2.5898812 2.5899129 0 0 1 183.34843 101.53016 A 2.5898812 2.5899129 0 0 1 180.75765 98.93938 A 2.5898812 2.5899129 0 0 1 183.34843 96.348595 z M 141.90959 101.53016 A 2.5898826 2.5899129 0 0 1 144.50037 104.11899 A 2.5898826 2.5899129 0 0 1 141.90959 106.70977 A 2.5898826 2.5899129 0 0 1 139.32076 104.11899 A 2.5898826 2.5899129 0 0 1 141.90959 101.53016 z M 85.525264 104.11899 A 2.5898812 2.5899129 0 0 1 88.116049 106.70977 A 2.5898812 2.5899129 0 0 1 85.525264 109.2986 A 2.5898812 2.5899129 0 0 1 82.936438 106.70977 A 2.5898812 2.5899129 0 0 1 85.525264 104.11899 z M 157.45038 106.70977 A 2.5898826 2.5899129 0 0 1 160.0392 109.2986 A 2.5898826 2.5899129 0 0 1 157.45038 111.88939 A 2.5898826 2.5899129 0 0 1 154.85959 109.2986 A 2.5898826 2.5899129 0 0 1 157.45038 106.70977 z M 132.14372 107.74374 A 4.1438351 4.1438351 0 0 0 128.00003 111.88939 L 128.00003 120.6957 L 123.3374 120.6957 L 123.3374 114.47821 A 4.1442495 4.1442495 0 0 0 119.19567 110.33648 L 95.884486 110.33648 A 4.1442495 4.1442495 0 0 0 92.954922 111.54865 L 85.186485 119.31904 A 4.1442495 4.1442495 0 0 0 83.97236 122.24861 L 83.97236 140.37822 A 4.1442495 4.1442495 0 0 0 85.186485 143.30779 L 90.366095 148.4874 A 4.1442495 4.1442495 0 0 0 93.285869 149.70152 L 112.77256 149.75636 L 119.27988 156.36354 L 119.34254 171.55184 A 4.1438351 4.1438351 0 0 0 123.5019 175.67987 A 4.1438351 4.1438351 0 0 0 127.62796 171.52051 L 127.56138 154.64223 A 4.1442495 4.1442495 0 0 0 126.3688 151.75183 L 117.46652 142.70856 A 4.1442495 4.1442495 0 0 0 114.52521 141.47289 L 95.016975 141.41806 L 92.259738 138.66278 L 92.259738 123.96405 L 97.601885 118.62386 L 115.05003 118.62386 L 115.05003 135.19666 A 4.1438351 4.1438351 0 0 0 119.19567 139.3423 A 4.1438351 4.1438351 0 0 0 123.3374 135.19666 L 123.3374 128.98308 L 128.00003 128.98308 L 128.00003 142.96901 A 4.1438351 4.1438351 0 0 0 132.14372 147.11074 A 4.1438351 4.1438351 0 0 0 136.28741 142.96901 L 136.28741 124.83743 L 136.28741 111.88939 A 4.1438351 4.1438351 0 0 0 132.14372 107.74374 z M 132.14372 109.2986 A 2.5898826 2.5899129 0 0 1 134.73451 111.88939 A 2.5898826 2.5899129 0 0 1 132.14372 114.47821 A 2.5898826 2.5899129 0 0 1 129.55489 111.88939 A 2.5898826 2.5899129 0 0 1 132.14372 109.2986 z M 77.756827 110.33648 A 4.1438351 4.1438351 0 0 0 73.613139 114.47821 L 73.613139 145.55784 A 4.1442495 4.1442495 0 0 0 74.825305 148.4874 L 85.186485 158.84858 A 4.1442495 4.1442495 0 0 0 88.116049 160.06075 L 107.5675 160.06075 A 4.1438351 4.1438351 0 0 0 111.71314 155.91706 A 4.1438351 4.1438351 0 0 0 107.5675 151.77337 L 89.831489 151.77337 L 81.900516 143.8424 L 81.900516 114.47821 A 4.1438351 4.1438351 0 0 0 77.756827 110.33648 z M 198.88922 110.33648 A 4.1438351 4.1438351 0 0 0 194.74358 114.47821 L 194.74358 149.02201 L 191.99221 151.77337 L 188.52804 151.77337 A 4.1438351 4.1438351 0 0 0 184.38436 155.91706 A 4.1438351 4.1438351 0 0 0 188.52804 160.06075 L 193.70765 160.06075 A 4.1442495 4.1442495 0 0 0 196.63918 158.84858 L 201.81879 153.66701 A 4.1442495 4.1442495 0 0 0 203.03095 150.73745 L 203.03095 114.47821 A 4.1438351 4.1438351 0 0 0 198.88922 110.33648 z M 77.756827 111.88939 A 2.5898812 2.5899129 0 0 1 80.345654 114.47821 A 2.5898812 2.5899129 0 0 1 77.756827 117.069 A 2.5898812 2.5899129 0 0 1 75.166043 114.47821 A 2.5898812 2.5899129 0 0 1 77.756827 111.88939 z M 119.19371 111.88939 A 2.5898826 2.5899129 0 0 1 121.7845 114.47821 A 2.5898826 2.5899129 0 0 1 119.19371 117.069 A 2.5898826 2.5899129 0 0 1 116.60489 114.47821 A 2.5898826 2.5899129 0 0 1 119.19371 111.88939 z M 198.88727 111.88939 A 2.5898826 2.5899129 0 0 1 201.47805 114.47821 A 2.5898826 2.5899129 0 0 1 198.88727 117.069 A 2.5898826 2.5899129 0 0 1 196.29844 114.47821 A 2.5898826 2.5899129 0 0 1 198.88727 111.88939 z M 149.67998 112.92531 A 4.1442495 4.1442495 0 0 0 146.75042 114.13943 L 141.57081 119.31904 A 4.1442495 4.1442495 0 0 0 140.35473 122.24861 L 140.35473 155.91706 A 4.1438351 4.1438351 0 0 0 144.50037 160.06075 A 4.1438351 4.1438351 0 0 0 148.64406 155.91706 L 148.64406 123.96405 L 149.67998 122.92813 L 150.71591 123.96405 L 150.71591 135.19666 A 4.1438351 4.1438351 0 0 0 154.85959 139.3423 A 4.1438351 4.1438351 0 0 0 159.00328 135.19666 L 159.00328 122.24861 A 4.1442495 4.1442495 0 0 0 157.78916 119.31904 L 152.60955 114.13943 A 4.1442495 4.1442495 0 0 0 149.67998 112.92531 z M 165.21882 115.51609 A 4.1438351 4.1438351 0 0 0 161.07709 119.65782 L 161.07709 135.19666 A 4.1438351 4.1438351 0 0 0 165.21882 139.3423 A 4.1438351 4.1438351 0 0 0 169.3625 135.19666 L 169.3625 119.65782 A 4.1438351 4.1438351 0 0 0 165.21882 115.51609 z M 175.57804 115.51609 A 4.1442495 4.1442495 0 0 0 171.43631 119.65782 L 171.43631 135.19666 A 4.1438351 4.1438351 0 0 0 175.57804 139.3423 A 4.1438351 4.1438351 0 0 0 179.72173 135.19666 L 179.72173 123.80347 L 184.38436 123.80347 L 184.38436 145.55784 A 4.1438351 4.1438351 0 0 0 188.52804 149.70152 A 4.1438351 4.1438351 0 0 0 192.67173 145.55784 L 192.67173 119.65782 A 4.1442495 4.1442495 0 0 0 188.52804 115.51609 L 175.57804 115.51609 z M 165.21882 117.069 A 2.5898826 2.5899129 0 0 1 167.8096 119.65782 A 2.5898826 2.5899129 0 0 1 165.21882 122.24861 A 2.5898826 2.5899129 0 0 1 162.62999 119.65782 A 2.5898826 2.5899129 0 0 1 165.21882 117.069 z M 98.477229 120.6957 A 4.1438351 4.1438351 0 0 0 95.545706 121.90787 A 4.1438351 4.1438351 0 0 0 95.545706 127.76896 L 97.795753 130.01704 L 95.545706 132.26709 A 4.1438351 4.1438351 0 0 0 95.545706 138.12818 A 4.1438351 4.1438351 0 0 0 101.40679 138.12818 L 103.65488 135.88009 L 105.90493 138.12818 A 4.1438351 4.1438351 0 0 0 111.76602 138.12818 A 4.1438351 4.1438351 0 0 0 111.76602 132.26709 L 109.51793 130.01704 L 111.76602 127.76896 A 4.1438351 4.1438351 0 0 0 111.76602 121.90787 A 4.1438351 4.1438351 0 0 0 108.83645 120.6957 A 4.1438351 4.1438351 0 0 0 105.90493 121.90787 L 103.65488 124.15792 L 101.40679 121.90787 A 4.1438351 4.1438351 0 0 0 98.477229 120.6957 z M 98.475271 122.24861 A 2.5898812 2.5899129 0 0 1 101.06606 124.83939 A 2.5898812 2.5899129 0 0 1 98.475271 127.42822 A 2.5898812 2.5899129 0 0 1 95.886444 124.83939 A 2.5898812 2.5899129 0 0 1 98.475271 122.24861 z M 108.83449 122.24861 A 2.5898812 2.5899129 0 0 1 111.42528 124.83939 A 2.5898812 2.5899129 0 0 1 108.83449 127.42822 A 2.5898812 2.5899129 0 0 1 106.24567 124.83939 A 2.5898812 2.5899129 0 0 1 108.83449 122.24861 z M 98.475271 132.60783 A 2.5898812 2.5899129 0 0 1 101.06606 135.19861 A 2.5898812 2.5899129 0 0 1 98.475271 137.78744 A 2.5898812 2.5899129 0 0 1 95.886444 135.19861 A 2.5898812 2.5899129 0 0 1 98.475271 132.60783 z M 108.83449 132.60783 A 2.5898812 2.5899129 0 0 1 111.42528 135.19861 A 2.5898812 2.5899129 0 0 1 108.83449 137.78744 A 2.5898812 2.5899129 0 0 1 106.24567 135.19861 A 2.5898812 2.5899129 0 0 1 108.83449 132.60783 z M 119.19371 132.60783 A 2.5898826 2.5899129 0 0 1 121.7845 135.19861 A 2.5898826 2.5899129 0 0 1 119.19371 137.78744 A 2.5898826 2.5899129 0 0 1 116.60489 135.19861 A 2.5898826 2.5899129 0 0 1 119.19371 132.60783 z M 154.85959 132.60783 A 2.5898826 2.5899129 0 0 1 157.45038 135.19861 A 2.5898826 2.5899129 0 0 1 154.85959 137.78744 A 2.5898826 2.5899129 0 0 1 152.27077 135.19861 A 2.5898826 2.5899129 0 0 1 154.85959 132.60783 z M 165.21882 132.60783 A 2.5898826 2.5899129 0 0 1 167.8096 135.19861 A 2.5898826 2.5899129 0 0 1 165.21882 137.78744 A 2.5898826 2.5899129 0 0 1 162.62999 135.19861 A 2.5898826 2.5899129 0 0 1 165.21882 132.60783 z M 175.57804 132.60783 A 2.5898826 2.5899129 0 0 1 178.16882 135.19861 A 2.5898826 2.5899129 0 0 1 175.57804 137.78744 A 2.5898826 2.5899129 0 0 1 172.98921 135.19861 A 2.5898826 2.5899129 0 0 1 175.57804 132.60783 z M 67.397606 137.78744 A 2.5898812 2.5899129 0 0 1 69.986432 140.37822 A 2.5898812 2.5899129 0 0 1 67.397606 142.96705 A 2.5898812 2.5899129 0 0 1 64.806821 140.37822 A 2.5898812 2.5899129 0 0 1 67.397606 137.78744 z M 132.14372 140.37822 A 2.5898826 2.5899129 0 0 1 134.73451 142.96705 A 2.5898826 2.5899129 0 0 1 132.14372 145.55784 A 2.5898826 2.5899129 0 0 1 129.55489 142.96705 A 2.5898826 2.5899129 0 0 1 132.14372 140.37822 z M 154.85959 141.41415 A 4.1442495 4.1442495 0 0 0 150.71591 145.55784 L 150.71591 155.91706 A 4.1442495 4.1442495 0 0 0 151.93003 158.84858 L 154.51886 161.43741 A 4.1438351 4.1438351 0 0 0 160.37798 161.43741 A 4.1438351 4.1438351 0 0 0 160.37798 155.57828 L 159.00328 154.20162 L 159.00328 149.70152 L 167.80764 149.70152 A 4.1438351 4.1438351 0 0 0 171.95329 145.55784 A 4.1438351 4.1438351 0 0 0 167.80764 141.41415 L 154.85959 141.41415 z M 178.17274 141.41415 A 4.1438351 4.1438351 0 0 0 174.02709 145.55784 L 174.02709 149.02201 L 164.88199 158.1671 A 4.1442495 4.1442495 0 0 0 163.66787 161.09863 L 163.66787 166.27824 A 4.1438351 4.1438351 0 0 0 167.81156 170.42193 A 4.1438351 4.1438351 0 0 0 171.95721 166.27824 L 171.95721 162.81407 L 181.1023 153.66701 A 4.1442495 4.1442495 0 0 0 182.31643 150.73745 L 182.31643 145.55784 A 4.1438351 4.1438351 0 0 0 178.17274 141.41415 z M 167.8096 142.96705 A 2.5898812 2.5899129 0 0 1 170.39843 145.55784 A 2.5898812 2.5899129 0 0 1 167.8096 148.14862 A 2.5898812 2.5899129 0 0 1 165.21882 145.55784 A 2.5898812 2.5899129 0 0 1 167.8096 142.96705 z M 178.16882 142.96705 A 2.5898812 2.5899129 0 0 1 180.75765 145.55784 A 2.5898812 2.5899129 0 0 1 178.16882 148.14862 A 2.5898812 2.5899129 0 0 1 175.57804 145.55784 A 2.5898812 2.5899129 0 0 1 178.16882 142.96705 z M 188.52804 142.96705 A 2.5898826 2.5899129 0 0 1 191.11883 145.55784 A 2.5898826 2.5899129 0 0 1 188.52804 148.14862 A 2.5898826 2.5899129 0 0 1 185.93922 145.55784 A 2.5898826 2.5899129 0 0 1 188.52804 142.96705 z M 107.66737 153.32823 A 2.5898812 2.5899129 0 0 1 110.25619 155.91706 A 2.5898812 2.5899129 0 0 1 107.66737 158.50784 A 2.5898812 2.5899129 0 0 1 105.07658 155.91706 A 2.5898812 2.5899129 0 0 1 107.66737 153.32823 z M 144.50037 153.32823 A 2.5898826 2.5899129 0 0 1 147.09116 155.91706 A 2.5898826 2.5899129 0 0 1 144.50037 158.50784 A 2.5898826 2.5899129 0 0 1 141.90959 155.91706 A 2.5898826 2.5899129 0 0 1 144.50037 153.32823 z M 188.52804 153.32823 A 2.5898826 2.5899129 0 0 1 191.11883 155.91706 A 2.5898826 2.5899129 0 0 1 188.52804 158.50784 A 2.5898826 2.5899129 0 0 1 185.93922 155.91706 A 2.5898826 2.5899129 0 0 1 188.52804 153.32823 z M 157.45038 155.91706 A 2.5898812 2.5899129 0 0 1 160.0392 158.50784 A 2.5898812 2.5899129 0 0 1 157.45038 161.09667 A 2.5898812 2.5899129 0 0 1 154.85959 158.50784 A 2.5898812 2.5899129 0 0 1 157.45038 155.91706 z M 167.8096 163.68745 A 2.5898812 2.5899129 0 0 1 170.39843 166.27628 A 2.5898812 2.5899129 0 0 1 167.8096 168.86706 A 2.5898812 2.5899129 0 0 1 165.21882 166.27628 A 2.5898812 2.5899129 0 0 1 167.8096 163.68745 z M 123.55869 168.86706 A 2.5898826 2.5899129 0 0 1 126.14947 171.45785 A 2.5898826 2.5899129 0 0 1 123.55869 174.04667 A 2.5898826 2.5899129 0 0 1 120.96986 171.45785 A 2.5898826 2.5899129 0 0 1 123.55869 168.86706 z " />
  <text
     xml:space="preserve"
     style="font-style:normal;font-variant:normal;font-weight:normal;font-stretch:normal;font-size:220px;line-height:0%;font-family:'Politics Head';-inkscape-font-specification:'Politics Head';text-align:start;letter-spacing:0px;word-spacing:0px;writing-mode:lr-tb;text-anchor:start;fill:#ffffff;fill-opacity:1;stroke:none"
     id="text6589"
     transform="matrix(-0.16045971,-0.07087974,0.07087888,-0.16046167,-17.546688,348.95924)"><textPath
       xlink:href="#path6572-93"
       id="textPath6593"><tspan
         style="font-style:normal;font-variant:normal;font-weight:normal;font-stretch:normal;font-size:220px;line-height:125%;font-family:'Politics Head';-inkscape-font-specification:'Politics Head';text-align:start;writing-mode:lr-tb;text-anchor:start;fill:#ffffff"
         id="tspan6591" /></textPath></text>
  <text
     xml:space="preserve"
     style="font-style:normal;font-variant:normal;font-weight:normal;font-stretch:normal;font-size:220px;line-height:0%;font-family:'Politics Head';-inkscape-font-specification:'Politics Head';text-align:start;letter-spacing:0px;word-spacing:0px;writing-mode:lr-tb;text-anchor:start;fill:#ffffff;fill-opacity:1;stroke:none"
     id="text6924"
     transform="matrix(0.17541703,0,0,0.17541917,-270.21285,280.96702)"><textPath
       xlink:href="#path6572-9-6"
       id="textPath6931"><tspan
         id="tspan6926"
         style="fill:#ffffff" /></textPath></text>
  <text
     xml:space="preserve"
     transform="matrix(0.99920003,0,0,0.99921221,-0.42178504,123.96991)"
     id="text1872"
     style="font-style:normal;font-weight:normal;font-size:40px;line-height:1.25;font-family:sans-serif;white-space:pre;shape-inside:url(#rect1874-0);display:inline;fill:#000000;fill-opacity:1;stroke:none" />
  <path
     id="path5802-1-1-2-1-7"
     style="fill:#000000;fill-opacity:1;stroke:none;stroke-width:2.5899;stroke-miterlimit:4;stroke-dasharray:none;stroke-opacity:1"
     d="M 134.85004,13.827309 C 73.422791,13.843379 20.77766,60.390758 14.453954,122.82238 7.7086153,189.41613 56.223729,248.86689 122.8165,255.61233 189.40952,262.35775 248.86697,213.84353 255.61233,147.24978 262.35765,80.656079 213.83472,21.205254 147.24194,14.459829 c -4.16219,-0.421608 -8.29678,-0.633582 -12.3919,-0.63252 z m 0.1782,37.716183 c 46.11047,0 83.49259,42.629636 83.49259,83.492588 0,34.18965 -21.39376,70.94889 -60.19707,82.04934 l -0.0979,23.2074 -4.68221,4.74292 -13.68631,-0.008 -4.80363,-4.87803 -4.89566,4.93287 -13.51203,-0.0333 -4.74683,-4.69788 -0.13904,-22.44172 C 71.885654,208.2031 51.537628,172.01007 51.537628,135.03591 c 0,-43.229171 37.379908,-83.492588 83.490622,-83.492588 z" />
  <path
     style="fill:#ffffff;fill-opacity:1;stroke:#ffffff;stroke-width:0.107662;stroke-opacity:1"
     id="path6846-9"
     d="m 40.099692,118.51096 c 0.129186,0.52148 -3.706516,3.18817 -3.908518,3.686 -0.202002,0.49782 0.690983,5.08331 0.234949,5.36733 -0.456032,0.28401 -4.17747,-2.53995 -4.713344,-2.57823 -0.535876,-0.0383 -4.620939,2.228 -5.031969,1.88204 -0.411031,-0.34595 1.124696,-4.75794 0.995509,-5.27943 -0.129186,-0.52148 -3.546878,-3.70633 -3.344877,-4.20416 0.202003,-0.49782 4.872571,-0.40062 5.328604,-0.68463 0.456033,-0.28401 2.428847,-4.51865 2.964721,-4.48036 0.535875,0.0383 1.886718,4.51034 2.297749,4.8563 0.411031,0.34595 5.047988,0.91366 5.177176,1.43514 z" />
  <path
     style="fill:#ffffff;fill-opacity:1;stroke:#ffffff;stroke-width:0.107662;stroke-opacity:1"
     id="path6846-5-3"
     d="m 245.97327,118.51096 c 0.12918,0.52148 -3.70652,3.18817 -3.90852,3.686 -0.202,0.49782 0.69098,5.08331 0.23495,5.36733 -0.45603,0.28401 -4.17747,-2.53995 -4.71335,-2.57823 -0.53587,-0.0383 -4.62093,2.228 -5.03196,1.88204 -0.41104,-0.34595 1.12469,-4.75794 0.9955,-5.27943 -0.12918,-0.52148 -3.54687,-3.70633 -3.34487,-4.20416 0.202,-0.49782 4.87257,-0.40062 5.3286,-0.68463 0.45603,-0.28401 2.42885,-4.51865 2.96472,-4.48036 0.53588,0.0383 1.88672,4.51034 2.29775,4.8563 0.41103,0.34595 5.04799,0.91366 5.17718,1.43514 z" />
  <ellipse
     style="fill:#9f0000;fill-opacity:0;stroke:none;stroke-width:0.186045"
     id="path5802-7"
     transform="matrix(0.99490898,0.10077761,-0.10077518,0.99490922,0,0)"
     cx="147.13603"
     cy="121.80389"
     rx="121.19426"
     ry="121.19571" />
  <ellipse
     style="fill:none;stroke:none;stroke-width:0.153593"
     id="path7747-2"
     cx="134.11215"
     cy="136.01183"
     rx="89.741699"
     ry="89.74279" />
  <ellipse
     style="fill:none;stroke:none;stroke-width:0.195964"
     id="path7753-2"
     transform="matrix(-0.99923886,-0.03900898,-0.03900801,0.9992389,0,0)"
     cx="-139.31564"
     cy="130.6767"
     rx="114.49803"
     ry="114.49942" />
  <ellipse
     style="fill:none;stroke:none;stroke-width:0.11783"
     id="path6934-8-6-9"
     cx="134.11215"
     cy="136.01183"
     rx="83.49057"
     ry="83.491592" />
  <path
     d="m 51.631191,101.13959 1.914187,-3.511592 c 0.189611,-0.347846 0.09166,-0.680559 -0.256189,-0.870172 L 45.553749,92.5412 c -0.347848,-0.189613 -0.4458,-0.522325 -0.256189,-0.870172 l 3.29565,-6.045901 c 0.189614,-0.347846 0.522325,-0.4458 0.870173,-0.256188 l 7.73544,4.216627 c 0.347846,0.189612 0.680559,0.09166 0.870171,-0.256188 l 1.914187,-3.511592 c 0.189612,-0.347847 0.09166,-0.680559 -0.256189,-0.870172 L 39.402826,73.868812 C 39.05498,73.6792 38.722267,73.777155 38.532655,74.125 l -1.914185,3.511592 c -0.189614,0.347847 -0.09166,0.680559 0.256187,0.870172 l 7.238517,3.945751 c 0.347846,0.189613 0.445801,0.522326 0.256189,0.870172 l -3.295652,6.045901 c -0.189612,0.347846 -0.522325,0.4458 -0.870171,0.256188 l -7.238518,-3.945751 c -0.347845,-0.189613 -0.680559,-0.09166 -0.870171,0.256188 l -1.914187,3.511592 c -0.189612,0.347846 -0.09166,0.680559 0.256189,0.870171 L 50.76102,101.39578 c 0.347845,0.18961 0.680559,0.0917 0.870171,-0.25619 z"
     style="font-size:149.061px;line-height:1.25;letter-spacing:1.54324px;fill:#ffffff;stroke-width:0.999206"
     id="path5045" />
  <path
     d="m 62.144244,69.813157 c -0.235572,0.244571 -0.409708,0.20781 -0.547081,-0.0031 l -4.351604,-7.229881 -0.491645,-0.604519 0.458058,-0.475556 0.622518,0.468643 7.37479,4.091204 c 0.215896,0.129372 0.246072,0.315596 0.0105,0.560168 z m 7.534952,-0.888387 c 0.196312,-0.203811 0.288923,-0.245575 0.464058,-0.155463 l 3.020071,1.67786 c 0.175136,0.09011 0.334683,0.06044 0.478646,-0.08902 l 3.245668,-3.369666 c 0.19631,-0.20381 0.219985,-0.364358 0.08411,-0.495231 -0.04076,-0.03926 -0.06793,-0.06544 -0.175636,-0.116789 L 55.036021,55.029972 c -0.242573,-0.128874 -0.507821,-0.04385 -0.70413,0.15996 l -3.965476,4.11697 c -0.196312,0.203811 -0.271336,0.472057 -0.133462,0.709631 0,0 12.030671,21.148475 12.058346,21.201324 0.04176,0.09261 0.137873,0.237573 0.205811,0.30301 0.135873,0.130874 0.30851,0.08761 0.50482,-0.116199 l 3.232582,-3.356078 c 0.130875,-0.135873 0.15455,-0.296422 0.05794,-0.468058 L 64.502594,74.62546 c -0.09661,-0.171637 -0.07144,-0.252161 0.137962,-0.469558 z"
     style="font-size:149.061px;line-height:1.25;letter-spacing:1.54324px;fill:#ffffff;stroke-width:0.999206"
     id="path5047" />
  <path
     d="m 87.146635,60.718348 2.298833,-1.411762 c 3.247304,-1.99424 4.737997,-4.902185 3.868269,-7.976668 -0.110866,-0.396825 -0.239209,-0.60581 -0.298443,-0.702264 -0.08885,-0.144683 -0.248211,-0.223927 -0.48061,-0.16976 l -3.577372,0.735788 c -0.100125,0.01721 -0.190377,0.0505 -0.270753,0.09986 -0.192911,0.118468 -0.338991,0.385289 -0.271284,0.675787 0.325,1.394396 -0.120845,2.398774 -1.471209,3.228062 l -2.314911,1.421635 C 83.35917,57.39895 81.976574,56.986127 81.19665,55.716142 l -5.360751,-8.729141 c -0.730563,-1.189606 -0.538867,-2.679928 0.747196,-3.469725 l 2.314909,-1.421635 c 1.350364,-0.829288 2.515766,-0.770132 3.54443,0.14785 0.228465,0.191774 0.532507,0.182165 0.725416,0.0637 0.08038,-0.04936 0.150885,-0.1148 0.211519,-0.196314 l 2.274207,-2.857791 c 0.153417,-0.182771 0.154817,-0.36074 0.06597,-0.505423 -0.05923,-0.09645 -0.08885,-0.144681 -0.39263,-0.423038 -2.348697,-2.166216 -5.715156,-2.312667 -8.946385,-0.328302 l -2.314911,1.421635 c -4.372609,2.685311 -5.16943,6.362621 -3.027105,9.851063 l 5.953098,9.693687 c 2.231178,3.633125 5.621659,4.539676 10.155027,1.755642 z"
     style="font-size:149.061px;line-height:1.25;letter-spacing:1.54324px;fill:#ffffff;stroke-width:0.999206"
     id="path5049" />
  <path
     d="m 101.11534,52.801516 3.82817,-1.157829 c 0.3792,-0.114691 0.54295,-0.420435 0.42826,-0.799641 l -2.08082,-6.879854 0.94337,-2.354785 c 0.0449,-0.112133 0.14401,-0.24065 0.2343,-0.267959 0.14446,-0.04369 0.30909,0.04448 0.39057,0.118382 l 8.40241,7.25415 c 0.23898,0.20365 0.51196,0.259053 0.76476,0.182593 l 4.47822,-1.354444 c 0.37921,-0.114689 0.54296,-0.420436 0.4228,-0.817697 -0.0437,-0.144457 -0.11257,-0.241878 -0.21757,-0.328377 l -12.12139,-9.775544 c -0.105,-0.0865 -0.15203,-0.11169 -0.16842,-0.165862 -0.0164,-0.05417 -0.009,-0.09575 0.0483,-0.231399 l 4.43179,-10.761389 c 0.063,-0.117594 0.0625,-0.314551 0.0134,-0.477067 -0.11469,-0.379206 -0.42044,-0.542952 -0.79964,-0.428261 l -4.1532,1.256134 c -0.19863,0.06008 -0.3393,0.18146 -0.41654,0.382207 l -4.48085,11.446336 c -0.0106,-0.686622 -0.19169,-1.67643 -0.47023,-2.597356 l -1.922432,-6.356191 c -0.114692,-0.379206 -0.420436,-0.542952 -0.799642,-0.428261 l -3.828161,1.157829 c -0.379203,0.114691 -0.54295,0.420436 -0.428261,0.799641 l 6.701216,22.156383 c 0.11469,0.379206 0.42043,0.542952 0.79964,0.428261 z"
     style="font-size:149.061px;line-height:1.25;letter-spacing:1.54324px;fill:#ffffff;stroke-width:0.999206"
     id="path5051" />
  <path
     d="m 136.79912,40.245007 0.004,-3.773038 3.56552,0.0041 c 0.39617,5.18e-4 0.6417,-0.244515 0.64215,-0.640684 l 0.003,-2.773182 c 5.2e-4,-0.39617 -0.24451,-0.641698 -0.64068,-0.642151 l -3.56552,-0.0041 0.004,-3.414599 c 5.2e-4,-0.39617 -0.24451,-0.641698 -0.64068,-0.642149 l -2.77318,-0.0032 c -0.39617,-5.18e-4 -0.6417,0.244513 -0.64215,0.640682 l -0.004,3.4146 -3.62211,-0.0041 c -0.39617,-5.19e-4 -0.6417,0.244514 -0.64215,0.640682 l -0.003,2.773184 c -5.1e-4,0.39617 0.24452,0.641695 0.64069,0.642149 l 3.62212,0.0041 -0.004,3.773036 c -5.2e-4,0.39617 0.24451,0.641698 0.64068,0.642151 l 2.77319,0.0032 c 0.39617,5.19e-4 0.64169,-0.244514 0.64215,-0.640684 z"
     style="font-size:149.061px;line-height:1.25;font-family:'Politics Head';-inkscape-font-specification:'Politics Head';fill:#ffffff;stroke-width:0.999206"
     id="path5053" />
  <path
     d="m 152.81897,47.901485 3.77614,1.259211 c 0.37582,0.125326 0.68606,-0.02974 0.81138,-0.405571 l 2.04697,-6.138464 c 1.12792,-3.382418 1.88603,-7.325657 1.95167,-7.522516 l 0.0895,0.02984 c 0.0238,0.107385 -0.0958,3.090221 -0.007,4.55183 l 0.50021,7.624224 c 0.0119,0.262492 0.19085,0.441485 0.51299,0.548906 l 2.82763,0.942917 c 0.25055,0.08355 0.50111,0.04779 0.66221,-0.137133 l 5.05959,-5.69068 c 0.94868,-1.115474 2.58356,-3.513491 2.6134,-3.602973 l 0.14317,0.04774 c -0.0656,0.196859 -1.78419,3.799938 -2.8763,7.074979 l -2.03503,6.102671 c -0.12533,0.375823 0.0297,0.68606 0.40557,0.811383 l 3.70455,1.235341 c 0.37583,0.125324 0.68606,-0.02975 0.81139,-0.405573 l 7.32252,-21.958876 c 0.12532,-0.375823 -0.0297,-0.68606 -0.40557,-0.811383 l -4.04459,-1.348729 c -0.26845,-0.08952 -0.52498,-0.03586 -0.66221,0.137133 l -8.74689,9.890095 c -0.43556,0.530894 -0.88904,1.234794 -0.90097,1.270586 l -0.17896,-0.05968 c 0.0119,-0.0358 0.0896,-0.805359 0.0419,-1.557044 l -1.18561,-13.202237 c -0.0238,-0.2267 -0.17892,-0.417621 -0.44737,-0.507137 l -4.06248,-1.354695 c -0.37582,-0.125327 -0.68606,0.02974 -0.81138,0.40557 l -7.32252,21.958877 c -0.12532,0.375823 0.0298,0.686059 0.40557,0.811382 z"
     style="font-size:149.061px;line-height:1.25;letter-spacing:-1.54324px;fill:#ffffff;stroke-width:0.999206"
     id="path5055" />
  <path
     d="m 188.35452,53.978652 c -0.28005,-0.192048 -0.27248,-0.369861 -0.0871,-0.540111 l 6.41391,-5.483558 0.51523,-0.584545 0.54455,0.373425 -0.35965,0.691238 -2.81994,7.94817 c -0.092,0.234266 -0.27073,0.294718 -0.55078,0.10267 z m 2.11797,7.285531 c 0.23338,0.16004 0.28983,0.244502 0.22981,0.432094 l -1.15723,3.255283 c -0.06,0.18759 -0.004,0.340067 0.16669,0.457431 l 3.85846,2.645989 c 0.23338,0.16004 0.39564,0.156932 0.50233,0.0013 0.032,-0.04668 0.0533,-0.07779 0.0863,-0.192482 l 7.60539,-23.332435 c 0.0871,-0.260494 -0.0404,-0.508104 -0.27382,-0.668144 l -4.71417,-3.2328 c -0.23337,-0.16004 -0.51032,-0.189832 -0.72192,-0.0147 0,0 -18.87673,15.351359 -18.9243,15.387364 -0.0845,0.05645 -0.2116,0.175141 -0.26495,0.25293 -0.10669,0.155585 -0.0356,0.318731 0.19781,0.478771 l 3.8429,2.63532 c 0.15559,0.106693 0.31784,0.103585 0.47121,-0.01998 l 2.61971,-2.252367 c 0.15337,-0.123576 0.23694,-0.112016 0.48587,0.05869 z"
     style="font-size:149.061px;line-height:1.25;letter-spacing:-1.54324px;fill:#ffffff;stroke-width:0.999206"
     id="path5057" />
  <path
     d="m 196.76769,71.249571 2.63179,3.011491 c 0.2607,0.298308 0.60675,0.321592 0.90505,0.0609 l 5.41216,-4.729773 2.53433,-0.110246 c 0.12068,-0.0053 0.27861,0.03211 0.34068,0.103141 0.0993,0.113639 0.0868,0.299975 0.053,0.404662 l -3.14952,10.644425 c -0.0871,0.301644 -0.0252,0.573209 0.1486,0.772081 l 3.0787,3.522876 c 0.26069,0.298308 0.60674,0.321592 0.91926,0.04848 0.11364,-0.09931 0.17404,-0.202207 0.20961,-0.333512 l 3.91536,-15.071807 c 0.0356,-0.131303 0.0392,-0.184541 0.0818,-0.221785 0.0426,-0.03724 0.0834,-0.04787 0.23074,-0.05132 l 11.63156,-0.393933 c 0.13309,0.0089 0.31239,-0.07257 0.44023,-0.184295 0.29831,-0.260697 0.32159,-0.606746 0.0609,-0.905054 l -2.85524,-3.267185 c -0.13656,-0.156256 -0.30511,-0.234444 -0.51985,-0.222153 L 210.56089,64.9579 c 0.62133,-0.292443 1.44868,-0.865158 2.17315,-1.498277 l 5.00021,-4.369763 c 0.2983,-0.260694 0.32159,-0.606746 0.0609,-0.905054 l -2.63179,-3.011491 c -0.26069,-0.298308 -0.60674,-0.321591 -0.90505,-0.0609 L 196.8286,70.34451 c -0.29831,0.260697 -0.32159,0.606748 -0.0609,0.905056 z"
     style="font-size:149.061px;line-height:1.25;letter-spacing:-1.54324px;fill:#ffffff;stroke-width:0.999206"
     id="path5059" />
  <path
     d="m 217.79525,102.18534 c 0.18111,0.35234 0.51135,0.45834 0.8637,0.27723 l 3.13754,-1.61281 c 0.35234,-0.18112 0.45834,-0.51136 0.27723,-0.863702 l -4.32957,-8.422709 c -0.18112,-0.352345 -0.0751,-0.682583 0.27722,-0.8637 l 3.30533,-1.699053 c 0.35234,-0.181118 0.68258,-0.07512 0.8637,0.277224 l 3.55335,6.912662 c 0.18112,0.352345 0.51135,0.458342 0.8637,0.277225 l 3.13754,-1.612807 c 0.35235,-0.181118 0.45835,-0.511356 0.27723,-0.8637 l -3.55335,-6.912662 c -0.18112,-0.352344 -0.0751,-0.682583 0.27722,-0.8637 l 3.13755,-1.612807 c 0.35234,-0.181118 0.68258,-0.07512 0.86369,0.277225 l 4.32957,8.422709 c 0.18112,0.352345 0.51136,0.458342 0.8637,0.277225 l 3.13755,-1.612807 c 0.35234,-0.181118 0.45834,-0.511356 0.27722,-0.8637 L 232.6109,77.982048 c -0.18111,-0.352345 -0.51135,-0.458342 -0.8637,-0.277225 l -20.41919,10.496183 c -0.35235,0.181117 -0.45835,0.511355 -0.27723,0.863699 z"
     style="font-size:149.061px;line-height:1.25;letter-spacing:-1.54324px;fill:#ffffff;stroke-width:0.999206"
     id="path5061" />
  <path
     d="m 222.77369,149.96557 c -0.79773,5.33615 1.60977,8.88156 6.08766,9.55098 3.26512,0.48813 6.10557,-1.41437 8.52672,-6.12633 1.50228,-2.90369 2.43096,-3.75675 3.62506,-3.57824 1.23142,0.1841 2.06687,1.35811 1.79631,3.16792 -0.24266,1.62324 -1.17028,2.72443 -2.46672,3.10286 -0.29939,0.0888 -0.48212,0.29035 -0.5156,0.51424 -0.0139,0.0933 -0.009,0.18937 0.0141,0.28824 l 0.72377,3.57982 c 0.0412,0.23505 0.17648,0.35066 0.3444,0.37576 0.11195,0.0167 0.16792,0.0251 0.57647,-0.0283 3.20301,-0.6275 5.42929,-3.27036 6.02062,-7.22583 0.7531,-5.03762 -2.01361,-8.73211 -5.39069,-9.23697 -3.6756,-0.54948 -6.48064,1.24386 -8.84948,6.11623 -1.45747,2.98669 -2.57464,3.69712 -3.76874,3.51861 -1.32471,-0.19804 -2.1443,-1.35061 -1.85701,-3.27236 0.3124,-2.08969 1.29321,-3.16385 2.66986,-3.56844 0.29939,-0.0888 0.48212,-0.29035 0.51559,-0.51424 0.0139,-0.0933 0.009,-0.18937 -0.0141,-0.28824 l -0.82649,-3.78592 c -0.0412,-0.23506 -0.17647,-0.35066 -0.3444,-0.37576 -0.11194,-0.0168 -0.16792,-0.0251 -0.57647,0.0283 -3.27677,0.48295 -5.64655,3.4477 -6.29087,7.75767 z"
     style="font-size:149.061px;line-height:1.25;font-family:'Politics Head';-inkscape-font-specification:'Politics Head';letter-spacing:-4.31764px;fill:#ffffff;stroke-width:0.999206"
     id="path5064" />
  <path
     d="m 219.20924,166.12145 c -0.13922,0.3709 0.004,0.68669 0.3751,0.82591 l 7.08245,2.65845 c 0.3709,0.13922 0.51432,0.45501 0.3751,0.82591 l -1.27287,3.3911 c -1.82313,4.85704 0.64869,8.52531 4.2164,9.86448 l 0.54752,0.20551 c 4.25654,1.59773 7.82511,0.19676 9.64161,-4.64262 l 3.13578,-8.35411 c 0.13922,-0.3709 -0.004,-0.68669 -0.3751,-0.82591 l -21.49461,-8.06816 c -0.37091,-0.13922 -0.6867,0.004 -0.82592,0.3751 z m 12.31879,5.99418 c 0.13922,-0.37091 0.45501,-0.51433 0.82591,-0.37511 l 4.22121,1.58447 c 0.3709,0.13922 0.51432,0.45501 0.3751,0.82591 l -1.31265,3.49707 c -0.52373,1.39529 -1.89954,2.10805 -3.40081,1.54454 l -0.5122,-0.19226 c -1.50126,-0.56351 -2.03295,-1.99226 -1.50921,-3.38756 z"
     style="font-size:149.061px;line-height:1.25;font-family:'Politics Head';-inkscape-font-specification:'Politics Head';letter-spacing:-4.31764px;fill:#ffffff;stroke-width:0.999206"
     id="path5066" />
  <path
     d="m 217.87451,188.81822 c 0.18658,-0.28372 0.36451,-0.27961 0.53832,-0.0976 l 5.60681,6.30645 0.59442,0.50381 -0.36281,0.55167 -0.69807,-0.34619 -8.00132,-2.66539 c -0.23601,-0.0875 -0.29991,-0.26497 -0.11332,-0.54869 z m -7.24313,2.25873 c -0.15548,0.23643 -0.23884,0.29451 -0.42756,0.23814 l -3.27709,-1.09393 c -0.18872,-0.0564 -0.34009,0.002 -0.45412,0.17552 l -2.57072,3.909 c -0.15549,0.23644 -0.14924,0.3986 0.008,0.50226 0.0473,0.0311 0.0788,0.0518 0.19412,0.0825 l 23.47542,7.15187 c 0.26213,0.0821 0.50722,-0.0503 0.66271,-0.28671 l 3.14085,-4.77593 c 0.15549,-0.23643 0.17991,-0.5139 7.8e-4,-0.72207 0,0 -15.71424,-18.57573 -15.75116,-18.62259 -0.0581,-0.0833 -0.17921,-0.20817 -0.25802,-0.26 -0.15762,-0.10366 -0.31936,-0.0294 -0.47485,0.20704 l -2.56036,3.89325 c -0.10366,0.15762 -0.0974,0.31979 0.0291,0.47073 l 2.3027,2.57558 c 0.12653,0.15094 0.11659,0.23472 -0.0493,0.48692 z"
     style="font-size:149.061px;line-height:1.25;font-family:'Politics Head';-inkscape-font-specification:'Politics Head';letter-spacing:-4.31764px;fill:#ffffff;stroke-width:0.999206"
     id="path5068" />
  <path
     d="m 196.08254,201.32846 -1.9676,1.84562 c -2.7794,2.60708 -3.65422,5.75557 -2.18341,8.59205 0.18848,0.36638 0.35626,0.54526 0.4337,0.62781 0.11615,0.12384 0.2882,0.16938 0.50494,0.0695 l 3.35604,-1.44083 c 0.0946,-0.037 0.17631,-0.0878 0.2451,-0.15232 0.16512,-0.15488 0.2545,-0.44564 0.1297,-0.71657 -0.59903,-1.30043 -0.36449,-2.37399 0.7913,-3.45813 l 1.98136,-1.85851 c 1.08699,-1.01961 2.52438,-0.89355 3.54399,0.19345 l 7.00816,7.47136 c 0.95507,1.01819 1.06729,2.5166 -0.0335,3.54911 l -1.98136,1.85852 c -1.15579,1.08413 -2.30924,1.26077 -3.50164,0.56865 -0.26239,-0.14186 -0.55827,-0.0712 -0.72338,0.0836 -0.0688,0.0645 -0.12469,0.14282 -0.16768,0.23487 l -1.65239,3.25709 c -0.11349,0.20991 -0.079,0.38452 0.0371,0.50835 0.0774,0.0826 0.11616,0.12384 0.46975,0.33534 2.73667,1.6491 6.0637,1.1149 8.82935,-1.47928 l 1.98135,-1.85852 c 3.74256,-3.51053 3.78284,-7.27297 0.98216,-10.25876 L 206.3831,201.004 c -2.91684,-3.10963 -6.4204,-3.31513 -10.30056,0.32446 z"
     style="font-size:149.061px;line-height:1.25;font-family:'Politics Head';-inkscape-font-specification:'Politics Head';letter-spacing:-4.31764px;fill:#ffffff;stroke-width:0.999206"
     id="path5070" />
  <path
     d="m 172.44219,218.34931 c -0.34314,0.198 -0.43298,0.533 -0.23497,0.87613 l 1.7632,3.05556 c 0.19801,0.34314 0.533,0.43298 0.87614,0.23498 l 8.20262,-4.73331 c 0.34314,-0.198 0.67813,-0.10816 0.87614,0.23498 l 1.85749,3.21896 c 0.19801,0.34313 0.10816,0.67813 -0.23497,0.87613 l -6.73204,3.88471 c -0.34314,0.198 -0.43298,0.533 -0.23497,0.87614 l 1.7632,3.05556 c 0.19801,0.34313 0.533,0.43297 0.87614,0.23497 l 6.73203,-3.8847 c 0.34314,-0.19801 0.67814,-0.10817 0.87614,0.23497 l 1.76321,3.05556 c 0.198,0.34314 0.10816,0.67813 -0.23498,0.87614 l -8.20262,4.7333 c -0.34314,0.19801 -0.43298,0.533 -0.23498,0.87614 l 1.7632,3.05556 c 0.19801,0.34313 0.53301,0.43298 0.87614,0.23497 l 12.7778,-7.37339 c 0.34313,-0.19801 0.43298,-0.533 0.23497,-0.87614 l -11.47496,-19.88564 c -0.19801,-0.34314 -0.533,-0.43298 -0.87614,-0.23498 z"
     style="font-size:149.061px;line-height:1.25;font-family:'Politics Head';-inkscape-font-specification:'Politics Head';letter-spacing:-4.31764px;fill:#ffffff;stroke-width:0.999206"
     id="path5072" />
  <path
     id="rect8711-7"
     style="fill:#ffffff;fill-rule:evenodd;stroke-width:5.15219"
     d="m 95.209689,210.35684 79.041971,-1.16528 c 0,0 -25.8089,12.32625 -39.67288,12.4989 -13.65495,0.17002 -39.369091,-11.33362 -39.369091,-11.33362 z" />
  <path
     d="m 138.6891,238.79465 2.58988,2.58991 h 10.35953 l 2.58988,-2.58991 v -33.66886 l -2.58988,-2.58992 h -2.58988 V 166.2771 l -2.58988,-2.58992 -2.58988,2.58992 v 36.25877 h -2.58989 l -2.58988,2.58992 v 28.48903 z m -22.01399,-75.10747 h -6.4747 l -2.58988,2.58992 v 18.12938 l 2.58988,2.58992 5.17976,2.58991 v 49.20834 l 2.58988,2.58991 h 10.35953 l 2.58988,-2.58991 v -49.20834 l 5.17976,-2.58991 2.58988,-2.58992 V 166.2771 l -2.58988,-2.58992 h -6.4747 v 14.24452 l -6.47471,2.58992 -6.4747,-2.58992 z m 6.4747,66.04277 c 2.86079,0 3.88483,1.02413 3.88483,3.88487 0,2.86074 -1.02404,3.88487 -3.88483,3.88487 -2.86052,0 -3.88482,-1.02413 -3.88482,-3.88487 0,-2.86074 1.0243,-3.88487 3.88482,-3.88487 z"
     style="fill:#000000;fill-opacity:1;stroke:none;stroke-width:0.25899"
     id="path4991-9-0-6-7" />
  <path
     d="m 40.720328,152.78897 5.015337,-3.71807 c 0.184744,-0.14747 0.244929,-0.34962 0.189313,-0.66547 l -0.844015,-4.79348 c -0.03271,-0.18579 -0.20752,-0.30826 -0.356155,-0.28209 -0.111475,0.0196 -0.201102,0.0546 -0.250298,0.10154 l -9.641804,7.90404 c -0.08308,0.0721 -0.169436,0.12561 -0.299492,0.14851 -0.0929,0.0164 -0.207644,0.0174 -0.350788,-0.034 l -12.68501,-4.3751 c -0.102711,-0.0394 -0.220728,-0.0569 -0.313627,-0.0405 -0.204373,0.036 -0.274371,0.1824 -0.222029,0.47967 l 0.844016,4.79348 c 0.07197,0.40875 0.275172,0.58368 0.558182,0.66793 l 3.586249,1.1117 c 2.068481,0.65102 3.960059,0.95009 5.019085,0.76362 l 0.01962,0.11148 c -0.555285,0.32764 -1.834241,1.22327 -2.296628,1.53455 l -5.065581,3.6503 c -0.240484,0.15728 -0.374986,0.37251 -0.303015,0.78126 l 0.857102,4.8678 c 0.0458,0.26011 0.17468,0.44813 0.379056,0.41215 0.09289,-0.0164 0.145362,-0.0447 0.243752,-0.1387 l 9.743469,-7.97941 c 0.09839,-0.0939 0.178202,-0.18462 0.308258,-0.20752 0.130054,-0.0229 0.232765,0.0165 0.335477,0.0559 l 12.560449,4.3204 c 0.05901,0.009 0.173756,0.008 0.266655,-0.009 0.148635,-0.0262 0.311529,-0.18894 0.275543,-0.39332 l -0.886542,-5.03501 c -0.0458,-0.26012 -0.159374,-0.46998 -0.401955,-0.5422 l -3.549091,-1.11823 c -2.670613,-0.69825 -3.792844,-0.97954 -5.24426,-0.62821 l -0.01962,-0.11147 c 0.555283,-0.32764 2.065957,-1.32154 2.528346,-1.63282 z"
     style="font-size:149.061px;line-height:1.25;font-family:'Politics Head';-inkscape-font-specification:'Politics Head';letter-spacing:13.5033px;fill:#ffffff;stroke-width:0.999206"
     id="path5075" />
  <path
     d="m 26.742529,174.21947 1.573609,3.67684 c 0.155875,0.36422 0.477838,0.49319 0.842054,0.33731 l 8.099448,-3.46639 c 0.364214,-0.15588 0.686176,-0.0269 0.842054,0.3373 l 2.709282,6.33041 c 0.155875,0.36421 0.0269,0.68618 -0.337312,0.84205 l -8.099448,3.4664 c -0.364217,0.15588 -0.493187,0.47784 -0.33731,0.84205 l 1.57361,3.67684 c 0.155877,0.36422 0.477837,0.49319 0.842053,0.33731 l 21.280564,-9.10764 c 0.364217,-0.15588 0.493187,-0.47784 0.337312,-0.84205 l -1.573612,-3.67684 c -0.155875,-0.36421 -0.477837,-0.49319 -0.842053,-0.33731 l -7.57914,3.24371 c -0.364216,0.15588 -0.686178,0.0269 -0.842053,-0.3373 l -2.709282,-6.33041 c -0.155878,-0.36421 -0.02691,-0.68618 0.337309,-0.84205 l 7.579142,-3.24372 c 0.364216,-0.15587 0.493187,-0.47784 0.337312,-0.84205 l -1.573612,-3.67684 c -0.155875,-0.36421 -0.477837,-0.49318 -0.842054,-0.33731 l -21.280564,9.10764 c -0.364216,0.15588 -0.493187,0.47784 -0.337309,0.84205 z"
     style="font-size:149.061px;line-height:1.25;font-family:'Politics Head';-inkscape-font-specification:'Politics Head';letter-spacing:13.5033px;fill:#ffffff;stroke-width:0.999206"
     id="path5077" />
  <path
     d="m 49.243593,198.70138 c -0.202326,-0.27272 -0.137319,-0.4384 0.09337,-0.53907 l 7.849096,-3.09828 0.677392,-0.38509 0.39341,0.53028 -0.564989,0.53661 -5.252599,6.59815 c -0.163241,0.19158 -0.351892,0.1906 -0.554217,-0.0821 z m -0.367786,7.57822 c 0.168604,0.22726 0.194506,0.3255 0.07671,0.48335 l -2.153432,2.70163 c -0.117789,0.15785 -0.114862,0.32011 0.0088,0.48677 l 2.787582,3.75745 c 0.168604,0.22726 0.323041,0.27712 0.474551,0.16471 0.04545,-0.0337 0.07576,-0.0562 0.14418,-0.15394 L 64.99746,194.13132 c 0.167155,-0.21797 0.127089,-0.49362 -0.04152,-0.72088 l -3.405797,-4.59075 c -0.168604,-0.22727 -0.420786,-0.34555 -0.677861,-0.24879 0,0 -22.844469,8.37409 -22.901163,8.39266 -0.09823,0.0259 -0.257073,0.0968 -0.332828,0.15296 -0.15151,0.1124 -0.137345,0.28981 0.03126,0.51707 l 2.776344,3.7423 c 0.112402,0.15151 0.266839,0.20137 0.45207,0.13442 l 3.210017,-1.27743 c 0.185231,-0.0669 0.260494,-0.0288 0.440339,0.21359 z"
     style="font-size:149.061px;line-height:1.25;font-family:'Politics Head';-inkscape-font-specification:'Politics Head';letter-spacing:13.5033px;fill:#ffffff;stroke-width:0.999206"
     id="path5079" />
  <path
     d="m 55.667345,219.48344 2.908655,2.74501 c 0.288122,0.27191 0.634812,0.26188 0.906723,-0.0262 L 75.37014,205.36767 c 0.271912,-0.28812 0.261878,-0.63481 -0.02624,-0.90672 l -2.908655,-2.74501 c -0.288121,-0.27191 -0.634811,-0.26188 -0.906722,0.0262 l -15.887417,16.83454 c -0.271912,0.28812 -0.261878,0.63481 0.02624,0.90672 z"
     style="font-size:149.061px;line-height:1.25;font-family:'Politics Head';-inkscape-font-specification:'Politics Head';letter-spacing:13.5033px;fill:#ffffff;stroke-width:0.999206"
     id="path5081" />
  <path
     d="m 66.739978,229.37512 3.361817,2.16647 c 0.333012,0.2146 0.672009,0.1413 0.886612,-0.19171 l 4.179646,-6.48577 c 1.338711,-2.07735 2.537171,-4.42463 2.865942,-5.49202 l 0.126861,0.0818 c -0.04087,0.0634 -0.174426,0.89754 -0.233268,1.82468 l -0.399493,14.68973 c 0.0042,0.27204 0.106071,0.42744 0.312222,0.5603 l 3.076378,1.98252 c 0.333009,0.2146 0.672008,0.1413 0.886612,-0.19171 L 94.342242,218.8621 c 0.214601,-0.333 0.141303,-0.672 -0.191709,-0.88661 l -3.361814,-2.16646 c -0.333012,-0.21461 -0.672008,-0.1413 -0.886612,0.1917 l -4.200083,6.51749 c -1.154768,1.79191 -2.530476,4.51871 -3.162649,6.26587 l -0.126863,-0.0818 c 0.06942,-0.24702 0.213538,-1.41097 0.241723,-2.29053 l 0.744482,-15.05093 c -0.0032,-0.20403 -0.110656,-0.38552 -0.316804,-0.51836 l -3.108094,-2.00297 c -0.333011,-0.2146 -0.672008,-0.1413 -0.886611,0.19171 l -12.538936,19.45731 c -0.214603,0.33301 -0.141303,0.672 0.191706,0.88661 z"
     style="font-size:149.061px;line-height:1.25;font-family:'Politics Head';-inkscape-font-specification:'Politics Head';letter-spacing:13.5033px;fill:#ffffff;stroke-width:0.999206"
     id="path5083" />
</svg>
